<?xml version="1.0" encoding="UTF-8" standalone="no"?>
<!-- Created with Inkscape (http://www.inkscape.org/) -->

<svg
   xmlns:dc="http://purl.org/dc/elements/1.1/"
   xmlns:cc="http://creativecommons.org/ns#"
   xmlns:rdf="http://www.w3.org/1999/02/22-rdf-syntax-ns#"
   xmlns:svg="http://www.w3.org/2000/svg"
   xmlns="http://www.w3.org/2000/svg"
   xmlns:sodipodi="http://sodipodi.sourceforge.net/DTD/sodipodi-0.dtd"
   xmlns:inkscape="http://www.inkscape.org/namespaces/inkscape"
   width="11cm"
   height="10cm"
   viewBox="0 0 110 99.999997"
   version="1.1"
   id="svg7653"
   sodipodi:docname="fig3-39a.svg"
   inkscape:version="0.92.4 (unknown)">
  <defs
     id="defs7647">
    <marker
       inkscape:stockid="Arrow1Mend"
       orient="auto"
       refY="0"
       refX="0"
       id="marker2774"
       style="overflow:visible"
       inkscape:isstock="true">
      <path
         id="path2772"
         d="M 0,0 5,-5 -12.5,0 5,5 Z"
         style="fill:#000000;fill-opacity:1;fill-rule:evenodd;stroke:#000000;stroke-width:1.00000003pt;stroke-opacity:1"
         transform="matrix(-0.4,0,0,-0.4,-4,0)"
         inkscape:connector-curvature="0" />
    </marker>
    <marker
       inkscape:isstock="true"
       style="overflow:visible"
       id="marker2002"
       refX="0"
       refY="0"
       orient="auto"
       inkscape:stockid="Arrow1Mstart">
      <path
         inkscape:connector-curvature="0"
         transform="matrix(0.4,0,0,0.4,4,0)"
         style="fill:#000000;fill-opacity:1;fill-rule:evenodd;stroke:#000000;stroke-width:1.00000003pt;stroke-opacity:1"
         d="M 0,0 5,-5 -12.5,0 5,5 Z"
         id="path2000" />
    </marker>
    <marker
       inkscape:stockid="Arrow1Mend"
       orient="auto"
       refY="0"
       refX="0"
       id="marker2352"
       style="overflow:visible"
       inkscape:isstock="true">
      <path
         id="path2350"
         d="M 0,0 5,-5 -12.5,0 5,5 Z"
         style="fill:#000000;fill-opacity:1;fill-rule:evenodd;stroke:#000000;stroke-width:1.00000003pt;stroke-opacity:1"
         transform="matrix(-0.4,0,0,-0.4,-4,0)"
         inkscape:connector-curvature="0" />
    </marker>
    <marker
       inkscape:isstock="true"
       style="overflow:visible"
       id="marker2270"
       refX="0"
       refY="0"
       orient="auto"
       inkscape:stockid="Arrow1Mstart">
      <path
         inkscape:connector-curvature="0"
         transform="matrix(0.4,0,0,0.4,4,0)"
         style="fill:#000000;fill-opacity:1;fill-rule:evenodd;stroke:#000000;stroke-width:1.00000003pt;stroke-opacity:1"
         d="M 0,0 5,-5 -12.5,0 5,5 Z"
         id="path2268" />
    </marker>
    <marker
       inkscape:stockid="Arrow1Mend"
       orient="auto"
       refY="0"
       refX="0"
       id="marker16016"
       style="overflow:visible"
       inkscape:isstock="true">
      <path
         id="path16014"
         d="M 0,0 5,-5 -12.5,0 5,5 Z"
         style="fill:#000000;fill-opacity:1;fill-rule:evenodd;stroke:#000000;stroke-width:1.00000003pt;stroke-opacity:1"
         transform="matrix(-0.4,0,0,-0.4,-4,0)"
         inkscape:connector-curvature="0" />
    </marker>
    <marker
       inkscape:isstock="true"
       style="overflow:visible"
       id="marker14977"
       refX="0"
       refY="0"
       orient="auto"
       inkscape:stockid="Arrow1Mstart">
      <path
         inkscape:connector-curvature="0"
         transform="matrix(0.4,0,0,0.4,4,0)"
         style="fill:#000000;fill-opacity:1;fill-rule:evenodd;stroke:#000000;stroke-width:1.00000003pt;stroke-opacity:1"
         d="M 0,0 5,-5 -12.5,0 5,5 Z"
         id="path14975" />
    </marker>
    <marker
       inkscape:stockid="Arrow1Mend"
       orient="auto"
       refY="0"
       refX="0"
       id="marker10528"
       style="overflow:visible"
       inkscape:isstock="true">
      <path
         id="path10526"
         d="M 0,0 5,-5 -12.5,0 5,5 Z"
         style="fill:#000000;fill-opacity:1;fill-rule:evenodd;stroke:#000000;stroke-width:1.00000003pt;stroke-opacity:1"
         transform="matrix(-0.4,0,0,-0.4,-4,0)"
         inkscape:connector-curvature="0" />
    </marker>
    <marker
       inkscape:isstock="true"
       style="overflow:visible"
       id="marker3811"
       refX="0"
       refY="0"
       orient="auto"
       inkscape:stockid="Arrow1Mstart">
      <path
         inkscape:connector-curvature="0"
         transform="matrix(0.4,0,0,0.4,4,0)"
         style="fill:#000000;fill-opacity:1;fill-rule:evenodd;stroke:#000000;stroke-width:1.00000003pt;stroke-opacity:1"
         d="M 0,0 5,-5 -12.5,0 5,5 Z"
         id="path3809" />
    </marker>
    <marker
       inkscape:stockid="Arrow1Mend"
       orient="auto"
       refY="0"
       refX="0"
       id="marker4385"
       style="overflow:visible"
       inkscape:isstock="true">
      <path
         id="path4383"
         d="M 0,0 5,-5 -12.5,0 5,5 Z"
         style="fill:#000000;fill-opacity:1;fill-rule:evenodd;stroke:#000000;stroke-width:1.00000003pt;stroke-opacity:1"
         transform="matrix(-0.4,0,0,-0.4,-4,0)"
         inkscape:connector-curvature="0" />
    </marker>
    <marker
       inkscape:stockid="Arrow1Mstart"
       orient="auto"
       refY="0"
       refX="0"
       id="Arrow1Mstart"
       style="overflow:visible"
       inkscape:isstock="true"
       inkscape:collect="always">
      <path
         id="path3791"
         d="M 0,0 5,-5 -12.5,0 5,5 Z"
         style="fill:#000000;fill-opacity:1;fill-rule:evenodd;stroke:#000000;stroke-width:1.00000003pt;stroke-opacity:1"
         transform="matrix(0.4,0,0,0.4,4,0)"
         inkscape:connector-curvature="0" />
    </marker>
    <marker
       inkscape:isstock="true"
       style="overflow:visible"
       id="marker51344"
       refX="0"
       refY="0"
       orient="auto"
       inkscape:stockid="Arrow1Mend"
       inkscape:collect="always">
      <path
         inkscape:connector-curvature="0"
         transform="matrix(-0.4,0,0,-0.4,-4,0)"
         style="fill:#000000;fill-opacity:1;fill-rule:evenodd;stroke:#000000;stroke-width:1.00000003pt;stroke-opacity:1"
         d="M 0,0 5,-5 -12.5,0 5,5 Z"
         id="path51342" />
    </marker>
  </defs>
  <sodipodi:namedview
     id="base"
     pagecolor="#ffffff"
     bordercolor="#666666"
     borderopacity="1.0"
     inkscape:pageopacity="0.0"
     inkscape:pageshadow="2"
     inkscape:zoom="1.3710227"
     inkscape:cx="207.87402"
     inkscape:cy="188.97638"
     inkscape:document-units="cm"
     inkscape:current-layer="layer1"
     showgrid="false"
     units="cm"
     inkscape:window-width="776"
     inkscape:window-height="716"
     inkscape:window-x="10"
     inkscape:window-y="24"
     inkscape:window-maximized="0">
    <inkscape:grid
       id="grid971"
       type="xygrid" />
  </sodipodi:namedview>
  <metadata
     id="metadata7650">
    <rdf:RDF>
      <cc:Work
         rdf:about="">
        <dc:format>image/svg+xml</dc:format>
        <dc:type
           rdf:resource="http://purl.org/dc/dcmitype/StillImage" />
        <dc:title></dc:title>
      </cc:Work>
    </rdf:RDF>
  </metadata>
  <g
     inkscape:label="Layer 1"
     inkscape:groupmode="layer"
     id="layer1"
     transform="translate(0,-197.00001)">
    <path
       style="color:#000000;clip-rule:nonzero;display:inline;overflow:visible;visibility:visible;opacity:1;isolation:auto;mix-blend-mode:normal;color-interpolation:sRGB;color-interpolation-filters:linearRGB;solid-color:#000000;solid-opacity:1;fill:none;fill-opacity:1;fill-rule:nonzero;stroke:#000000;stroke-width:0.25999999;stroke-linecap:round;stroke-linejoin:round;stroke-miterlimit:4;stroke-dasharray:none;stroke-dashoffset:0;stroke-opacity:1;marker-start:url(#Arrow1Mstart);marker-end:url(#marker51344);color-rendering:auto;image-rendering:auto;shape-rendering:auto;text-rendering:auto;enable-background:accumulate"
       d="m 15.358437,216.88669 v 22.89499"
       id="path4004"
       inkscape:connector-curvature="0" />
    <path
       inkscape:connector-curvature="0"
       id="path5646"
       d="M 23.066435,245.20138 H 52.360621"
       style="color:#000000;clip-rule:nonzero;display:inline;overflow:visible;visibility:visible;opacity:1;isolation:auto;mix-blend-mode:normal;color-interpolation:sRGB;color-interpolation-filters:linearRGB;solid-color:#000000;solid-opacity:1;fill:none;fill-opacity:1;fill-rule:nonzero;stroke:#000000;stroke-width:0.25999999;stroke-linecap:round;stroke-linejoin:round;stroke-miterlimit:4;stroke-dasharray:none;stroke-dashoffset:0;stroke-opacity:1;marker-start:url(#marker2270);marker-end:url(#marker2352);color-rendering:auto;image-rendering:auto;shape-rendering:auto;text-rendering:auto;enable-background:accumulate" />
    <rect
       y="222.91667"
       x="22.489584"
       height="6.6145859"
       width="10.583333"
       id="rect1605"
       style="color:#000000;clip-rule:nonzero;display:inline;overflow:visible;visibility:visible;opacity:1;isolation:auto;mix-blend-mode:normal;color-interpolation:sRGB;color-interpolation-filters:linearRGB;solid-color:#000000;solid-opacity:1;fill:#ff8080;fill-opacity:1;fill-rule:evenodd;stroke:#000000;stroke-width:0.26458335;stroke-linecap:butt;stroke-linejoin:round;stroke-miterlimit:4;stroke-dasharray:none;stroke-dashoffset:0;stroke-opacity:1;color-rendering:auto;image-rendering:auto;shape-rendering:auto;text-rendering:auto;enable-background:accumulate" />
    <rect
       style="color:#000000;clip-rule:nonzero;display:inline;overflow:visible;visibility:visible;opacity:1;isolation:auto;mix-blend-mode:normal;color-interpolation:sRGB;color-interpolation-filters:linearRGB;solid-color:#000000;solid-opacity:1;fill:#ff8080;fill-opacity:1;fill-rule:evenodd;stroke:#000000;stroke-width:0.26458332;stroke-linecap:butt;stroke-linejoin:round;stroke-miterlimit:4;stroke-dasharray:none;stroke-dashoffset:0;stroke-opacity:1;color-rendering:auto;image-rendering:auto;shape-rendering:auto;text-rendering:auto;enable-background:accumulate"
       id="rect1609"
       width="10.583332"
       height="10.583317"
       x="22.489584"
       y="229.53128" />
    <rect
       y="229.53127"
       x="33.072918"
       height="10.583317"
       width="6.6145821"
       id="rect1611"
       style="color:#000000;clip-rule:nonzero;display:inline;overflow:visible;visibility:visible;opacity:1;isolation:auto;mix-blend-mode:normal;color-interpolation:sRGB;color-interpolation-filters:linearRGB;solid-color:#000000;solid-opacity:1;fill:#ff8080;fill-opacity:1;fill-rule:evenodd;stroke:#000000;stroke-width:0.26458332;stroke-linecap:butt;stroke-linejoin:round;stroke-miterlimit:4;stroke-dasharray:none;stroke-dashoffset:0;stroke-opacity:1;color-rendering:auto;image-rendering:auto;shape-rendering:auto;text-rendering:auto;enable-background:accumulate" />
    <path
       inkscape:connector-curvature="0"
       style="fill:#000000;fill-opacity:1;stroke:none;stroke-width:0"
       d="m 14.071124,232.51321 c -0.0132,0 -0.0198,0 -0.0926,0.0728 -0.52917,0.52255 -1.32953,0.66145 -1.97776,0.66145 -0.73422,0 -1.46844,-0.15875 -1.99099,-0.6813 -0.0529,-0.0529 -0.0595,-0.0529 -0.0728,-0.0529 -0.0331,0 -0.0463,0.0132 -0.0463,0.0397 0,0.0463 0.29104,0.42334 0.82682,0.67469 0.46302,0.21167 0.93265,0.26458 1.28323,0.26458 0.33073,0 0.84005,-0.0463 1.32291,-0.27781 0.51594,-0.25797 0.79375,-0.61515 0.79375,-0.66146 0,-0.0265 -0.0132,-0.0397 -0.0463,-0.0397 z m 0,0"
       id="path1127" />
    <path
       inkscape:connector-curvature="0"
       style="fill:#000000;fill-opacity:1;stroke:none;stroke-width:0"
       d="m 11.782484,230.85956 c -0.10584,-0.0265 -0.4961,-0.12567 -0.4961,-0.41672 0,-0.0198 0,-0.12567 0.0529,-0.21166 0.0265,0.11906 0.12568,0.19843 0.23151,0.19843 0.0661,0 0.14552,-0.0463 0.14552,-0.15875 0,-0.0926 -0.0728,-0.22489 -0.24474,-0.22489 -0.21828,0 -0.27781,0.24474 -0.27781,0.39026 0,0.24474 0.22489,0.39026 0.3175,0.44318 -0.27781,0.10583 -0.3175,0.33073 -0.3175,0.4564 0,0.43656 0.54239,0.6813 0.64823,0.6813 0.0463,0 0.0463,-0.0463 0.0463,-0.0529 0,-0.0331 -0.0132,-0.0463 -0.0463,-0.0529 -0.44979,-0.14552 -0.55563,-0.42333 -0.55563,-0.56885 0,-0.0794 0.0397,-0.2249 0.28443,-0.2249 0.13229,0 0.4101,0.0728 1.00542,0.2249 0.25796,0.0661 0.43656,0.21828 0.43656,0.40349 0,0.0265 0,0.11906 -0.0529,0.21167 -0.0265,-0.10584 -0.11245,-0.19844 -0.23151,-0.19844 -0.11245,0 -0.14552,0.0926 -0.14552,0.15213 0,0.13229 0.10583,0.23151 0.24474,0.23151 0.19182,0 0.27781,-0.20505 0.27781,-0.39026 0,-0.28442 -0.29765,-0.43656 -0.3175,-0.44317 0.15214,-0.0529 0.3175,-0.20506 0.3175,-0.45641 0,-0.43656 -0.54239,-0.67469 -0.64823,-0.67469 -0.0463,0 -0.0463,0.0331 -0.0463,0.0463 0,0.0397 0.0199,0.0463 0.0463,0.0595 0.45641,0.13891 0.55563,0.42334 0.55563,0.55563 0,0.16536 -0.13229,0.23151 -0.27781,0.23151 -0.0926,0 -0.18521,-0.0198 -0.37042,-0.0661 z m 0,0"
       id="path1131" />
    <path
       inkscape:connector-curvature="0"
       style="fill:#000000;fill-opacity:1;stroke:none;stroke-width:0"
       d="m 12.086754,226.14305 c 0,-0.0728 0,-0.15214 -0.086,-0.15214 -0.0794,0 -0.0794,0.0794 -0.0794,0.15214 v 2.28203 c 0,0.0728 0,0.14552 0.0794,0.14552 0.086,0 0.086,-0.0728 0.086,-0.14552 z m 0,0"
       id="path1135" />
    <path
       inkscape:connector-curvature="0"
       style="fill:#000000;fill-opacity:1;stroke:none;stroke-width:0"
       d="m 12.734984,224.16773 -0.43657,-0.4498 c -0.58208,-0.65484 -0.80698,-0.90619 -1.23031,-0.90619 -0.48286,0 -0.82021,0.37703 -0.82021,0.89296 0,0.47625 0.39026,0.78714 0.7673,0.78714 0.23151,0 0.23151,-0.21167 0.23151,-0.2249 0,-0.0728 -0.0463,-0.21828 -0.2249,-0.21828 -0.10583,0 -0.21828,0.0794 -0.21828,0.2249 0,0.0331 0,0.0397 0.007,0.0529 -0.27781,-0.0926 -0.42994,-0.32412 -0.42994,-0.56886 0,-0.38364 0.34395,-0.56223 0.68791,-0.56223 0.33735,0 0.66807,0.20505 0.93266,0.44317 l 0.89958,0.80698 c 0.0463,0.0463 0.0595,0.0463 0.15875,0.0463 v -1.56766 l -0.73422,-0.11244 v 0.0992 c 0.12568,0.0265 0.31089,0.0529 0.37703,0.0992 0.0331,0.0265 0.0331,0.30427 0.0331,0.39687 z m 0,0"
       id="path1139" />
    <path
       inkscape:connector-curvature="0"
       style="fill:#000000;fill-opacity:1;stroke:none;stroke-width:0"
       d="m 12.000764,221.27537 c -0.32412,0 -0.83344,0.0463 -1.3163,0.27781 -0.51594,0.25136 -0.79375,0.61516 -0.79375,0.65485 0,0.0265 0.0198,0.0463 0.0463,0.0463 0.0132,0 0.0198,0 0.0992,-0.0794 0.41672,-0.41672 1.08479,-0.65485 1.96453,-0.65485 0.7276,0 1.46843,0.15214 1.9976,0.67469 0.0529,0.0595 0.0595,0.0595 0.0728,0.0595 0.0265,0 0.0463,-0.0198 0.0463,-0.0463 0,-0.0397 -0.29104,-0.42333 -0.82682,-0.66807 -0.46302,-0.21828 -0.93266,-0.26459 -1.28984,-0.26459 z m 0,0"
       id="path1147" />
    <path
       id="path1749"
       d="m 19.095413,219.786 c 0.07276,0 0.152135,0 0.152135,-0.086 0,-0.0794 -0.07937,-0.0794 -0.152135,-0.0794 h -2.28203 c -0.07276,0 -0.14552,0 -0.14552,0.0794 0,0.086 0.07276,0.086 0.14552,0.086 z m 0,0"
       style="fill:#000000;fill-opacity:1;stroke:none;stroke-width:0"
       inkscape:connector-curvature="0" />
    <path
       inkscape:connector-curvature="0"
       style="fill:#000000;fill-opacity:1;stroke:none;stroke-width:0"
       d="m 18.854185,226.34147 c 0.07276,0 0.152135,0 0.152135,-0.086 0,-0.0794 -0.07937,-0.0794 -0.152135,-0.0794 h -2.28203 c -0.07276,0 -0.14552,0 -0.14552,0.0794 0,0.086 0.07276,0.086 0.14552,0.086 z m 0,0"
       id="path1753" />
    <path
       id="path1757"
       d="m 19.886334,234.48003 c 0.02646,-0.10584 0.125677,-0.4961 0.416719,-0.4961 0.01984,0 0.125677,0 0.211666,0.0529 -0.119062,0.0265 -0.198437,0.12568 -0.198437,0.23151 0,0.0661 0.0463,0.14552 0.15875,0.14552 0.0926,0 0.224895,-0.0728 0.224895,-0.24474 0,-0.21828 -0.244739,-0.27781 -0.39026,-0.27781 -0.244739,0 -0.39026,0.22489 -0.443177,0.3175 -0.105833,-0.27781 -0.330729,-0.3175 -0.456405,-0.3175 -0.436563,0 -0.681302,0.54239 -0.681302,0.64823 0,0.0463 0.0463,0.0463 0.05292,0.0463 0.03307,0 0.0463,-0.0132 0.05292,-0.0463 0.145521,-0.44979 0.423333,-0.55563 0.568854,-0.55563 0.07937,0 0.224896,0.0397 0.224896,0.28443 0,0.13229 -0.07276,0.4101 -0.224896,1.00542 -0.06615,0.25796 -0.218281,0.43656 -0.403489,0.43656 -0.02646,0 -0.119063,0 -0.211667,-0.0529 0.105833,-0.0265 0.198438,-0.11245 0.198438,-0.23151 0,-0.11245 -0.0926,-0.14552 -0.152136,-0.14552 -0.132291,0 -0.23151,0.10583 -0.23151,0.24474 0,0.19182 0.205052,0.27781 0.39026,0.27781 0.284427,0 0.436562,-0.29765 0.443177,-0.3175 0.05292,0.15214 0.205052,0.3175 0.456406,0.3175 0.436562,0 0.674687,-0.54239 0.674687,-0.64823 0,-0.0463 -0.03307,-0.0463 -0.0463,-0.0463 -0.03969,0 -0.0463,0.0199 -0.05953,0.0463 -0.138906,0.45641 -0.423333,0.55563 -0.555624,0.55563 -0.165365,0 -0.23151,-0.13229 -0.23151,-0.27781 0,-0.0926 0.01984,-0.18521 0.06614,-0.37042 z m 0,0"
       style="fill:#000000;fill-opacity:1;stroke:none;stroke-width:0"
       inkscape:connector-curvature="0" />
    <g
       id="g1765"
       transform="translate(-18.524984,-24.610371)">
      <path
         inkscape:connector-curvature="0"
         style="fill:#000000;fill-opacity:1;stroke:none;stroke-width:0"
         d="m 45.968275,260.06128 c 0.02646,-0.10584 0.125677,-0.4961 0.416719,-0.4961 0.01984,0 0.125677,0 0.211666,0.0529 -0.119062,0.0265 -0.198437,0.12568 -0.198437,0.23151 0,0.0661 0.0463,0.14552 0.15875,0.14552 0.0926,0 0.224895,-0.0728 0.224895,-0.24474 0,-0.21828 -0.244739,-0.27781 -0.39026,-0.27781 -0.244739,0 -0.39026,0.22489 -0.443177,0.3175 -0.105833,-0.27781 -0.330728,-0.3175 -0.456405,-0.3175 -0.436563,0 -0.681302,0.54239 -0.681302,0.64823 0,0.0463 0.0463,0.0463 0.05292,0.0463 0.03307,0 0.0463,-0.0132 0.05292,-0.0463 0.145521,-0.44979 0.423333,-0.55563 0.568854,-0.55563 0.07937,0 0.224896,0.0397 0.224896,0.28443 0,0.13229 -0.07276,0.4101 -0.224896,1.00542 -0.06615,0.25796 -0.218281,0.43656 -0.403489,0.43656 -0.02646,0 -0.119063,0 -0.211667,-0.0529 0.105833,-0.0265 0.198438,-0.11245 0.198438,-0.23151 0,-0.11245 -0.0926,-0.14552 -0.152136,-0.14552 -0.132291,0 -0.23151,0.10583 -0.23151,0.24474 0,0.19182 0.205052,0.27781 0.39026,0.27781 0.284427,0 0.436562,-0.29765 0.443177,-0.3175 0.05292,0.15214 0.205052,0.3175 0.456406,0.3175 0.436562,0 0.674687,-0.54239 0.674687,-0.64823 0,-0.0463 -0.03307,-0.0463 -0.0463,-0.0463 -0.03969,0 -0.0463,0.0199 -0.05953,0.0463 -0.138906,0.45641 -0.423333,0.55563 -0.555624,0.55563 -0.165365,0 -0.23151,-0.13229 -0.23151,-0.27781 0,-0.0926 0.01984,-0.18521 0.06615,-0.37042 z m 0,0"
         id="path1759" />
      <path
         inkscape:connector-curvature="0"
         style="fill:#000000;fill-opacity:1;stroke:none;stroke-width:0"
         d="m 48.457287,259.27176 h -0.09922 c -0.0066,0.0661 -0.03969,0.23812 -0.07937,0.26458 -0.01984,0.0198 -0.244739,0.0198 -0.291041,0.0198 h -0.542395 c 0.310885,-0.2712 0.416718,-0.35719 0.588697,-0.4961 0.218281,-0.17198 0.423333,-0.35718 0.423333,-0.635 0,-0.35718 -0.310885,-0.57547 -0.687916,-0.57547 -0.363802,0 -0.615156,0.25797 -0.615156,0.52917 0,0.14552 0.125677,0.16537 0.15875,0.16537 0.06615,0 0.152135,-0.0529 0.152135,-0.15875 0,-0.0529 -0.01984,-0.15875 -0.171979,-0.15875 0.0926,-0.20506 0.291042,-0.2712 0.429948,-0.2712 0.297656,0 0.449791,0.23151 0.449791,0.46963 0,0.25797 -0.185208,0.45641 -0.277812,0.56224 l -0.70776,0.70776 c -0.03307,0.0265 -0.03307,0.0331 -0.03307,0.11245 h 1.217083 z m 0,0"
         id="path1761" />
    </g>
    <path
       inkscape:connector-curvature="0"
       style="fill:#000000;fill-opacity:1;stroke:none;stroke-width:0"
       d="m 27.3599,241.63929 c 0.02646,-0.10584 0.125677,-0.4961 0.416719,-0.4961 0.01984,0 0.125677,0 0.211666,0.0529 -0.119062,0.0265 -0.198437,0.12568 -0.198437,0.23151 0,0.0661 0.0463,0.14552 0.15875,0.14552 0.0926,0 0.224895,-0.0728 0.224895,-0.24474 0,-0.21828 -0.244739,-0.27781 -0.39026,-0.27781 -0.244739,0 -0.39026,0.22489 -0.443177,0.3175 -0.105833,-0.27781 -0.330729,-0.3175 -0.456405,-0.3175 -0.436563,0 -0.681302,0.54239 -0.681302,0.64823 0,0.0463 0.0463,0.0463 0.05292,0.0463 0.03307,0 0.0463,-0.0132 0.05292,-0.0463 0.145521,-0.44979 0.423333,-0.55563 0.568854,-0.55563 0.07937,0 0.224896,0.0397 0.224896,0.28443 0,0.13229 -0.07276,0.4101 -0.224896,1.00542 -0.06615,0.25796 -0.218281,0.43656 -0.403489,0.43656 -0.02646,0 -0.119063,0 -0.211667,-0.0529 0.105833,-0.0265 0.198438,-0.11245 0.198438,-0.23151 0,-0.11245 -0.0926,-0.14552 -0.152136,-0.14552 -0.132291,0 -0.23151,0.10583 -0.23151,0.24474 0,0.19182 0.205052,0.27781 0.39026,0.27781 0.284427,0 0.436562,-0.29765 0.443177,-0.3175 0.05292,0.15214 0.205052,0.3175 0.456406,0.3175 0.436562,0 0.674687,-0.54239 0.674687,-0.64823 0,-0.0463 -0.03307,-0.0463 -0.0463,-0.0463 -0.03969,0 -0.0463,0.0199 -0.05953,0.0463 -0.138906,0.45641 -0.423333,0.55563 -0.555624,0.55563 -0.165365,0 -0.23151,-0.13229 -0.23151,-0.27781 0,-0.0926 0.01984,-0.18521 0.06614,-0.37042 z m 0,0"
       id="path2666" />
    <path
       id="path3312"
       d="m 28.320805,225.25503 c 0.02646,-0.10584 0.125677,-0.4961 0.416719,-0.4961 0.01984,0 0.125677,0 0.211666,0.0529 -0.119062,0.0265 -0.198437,0.12568 -0.198437,0.23151 0,0.0661 0.0463,0.14552 0.15875,0.14552 0.0926,0 0.224895,-0.0728 0.224895,-0.24474 0,-0.21828 -0.244739,-0.27781 -0.39026,-0.27781 -0.244739,0 -0.39026,0.22489 -0.443177,0.3175 -0.105833,-0.27781 -0.330728,-0.3175 -0.456405,-0.3175 -0.436563,0 -0.681302,0.54239 -0.681302,0.64823 0,0.0463 0.0463,0.0463 0.05292,0.0463 0.03307,0 0.0463,-0.0132 0.05292,-0.0463 0.145521,-0.44979 0.423333,-0.55563 0.568854,-0.55563 0.07938,0 0.224896,0.0397 0.224896,0.28443 0,0.13229 -0.07276,0.4101 -0.224896,1.00542 -0.06615,0.25796 -0.218281,0.43656 -0.403489,0.43656 -0.02646,0 -0.119063,0 -0.211667,-0.0529 0.105833,-0.0265 0.198438,-0.11245 0.198438,-0.23151 0,-0.11245 -0.0926,-0.14552 -0.152136,-0.14552 -0.132291,0 -0.23151,0.10583 -0.23151,0.24474 0,0.19182 0.205052,0.27781 0.39026,0.27781 0.284427,0 0.436562,-0.29765 0.443177,-0.3175 0.05292,0.15214 0.205052,0.3175 0.456406,0.3175 0.436562,0 0.674687,-0.54239 0.674687,-0.64823 0,-0.0463 -0.03307,-0.0463 -0.0463,-0.0463 -0.03969,0 -0.0463,0.0199 -0.05953,0.0463 -0.138906,0.45641 -0.423333,0.55563 -0.555624,0.55563 -0.165365,0 -0.23151,-0.13229 -0.23151,-0.27781 0,-0.0926 0.01984,-0.18521 0.06614,-0.37042 z m 0,0"
       style="fill:#000000;fill-opacity:1;stroke:none;stroke-width:0"
       inkscape:connector-curvature="0" />
    <g
       id="g1838"
       transform="translate(4.245614)">
      <path
         inkscape:connector-curvature="0"
         style="fill:#000000;fill-opacity:1;stroke:none;stroke-width:0"
         d="m 28.161148,250.19115 c -4.15e-4,-0.0131 5.4e-5,-0.0199 -0.07282,-0.0926 -0.522326,-0.5294 -0.661484,-1.32953 -0.661464,-1.97775 1e-5,-0.73424 0.158753,-1.46846 0.681306,-1.99102 0.05295,-0.0529 0.05289,-0.0595 0.05289,-0.0728 4.12e-4,-0.0332 -0.0132,-0.0463 -0.03945,-0.0466 -0.04632,-2e-5 -0.423337,0.29103 -0.674693,0.82681 -0.211672,0.46303 -0.264583,0.93265 -0.26458,1.28324 -10e-6,0.33073 0.04631,0.84003 0.277848,1.32289 0.258027,0.51592 0.615158,0.79375 0.661493,0.79373 0.0266,1.2e-4 0.03961,-0.0137 0.03967,-0.0462 z m 0,0"
         id="path939" />
      <path
         inkscape:connector-curvature="0"
         style="fill:#000000;fill-opacity:1;stroke:none;stroke-width:0"
         d="m 29.814779,247.90251 c 0.02649,-0.10586 0.125687,-0.4961 0.416722,-0.4961 0.01971,-1e-4 0.12572,-4e-5 0.21174,0.0526 -0.118988,0.0267 -0.19845,0.12565 -0.198427,0.23152 -7.3e-5,0.0661 0.04624,0.14553 0.158487,0.14578 0.09259,-7e-5 0.224898,-0.0728 0.224893,-0.24474 2.2e-5,-0.21829 -0.244813,-0.27776 -0.390239,-0.27786 -0.244758,5e-5 -0.390266,0.22492 -0.443185,0.31753 -0.105784,-0.27784 -0.330476,-0.31777 -0.456379,-0.31754 -0.436557,0 -0.681292,0.54239 -0.681301,0.64824 -7.4e-5,0.0464 0.04625,0.0463 0.05313,0.046 0.03318,-6.1e-4 0.04632,-0.0133 0.05298,-0.0464 0.145521,-0.44978 0.42333,-0.55561 0.568808,-0.55565 0.07945,-6e-5 0.224933,0.0397 0.224906,0.28444 4.7e-5,0.13228 -0.0728,0.4101 -0.224907,1.00543 -0.06612,0.25796 -0.218264,0.43656 -0.40348,0.43656 -0.02661,-1.2e-4 -0.119082,1.2e-4 -0.211739,-0.0526 0.105899,-0.0263 0.198418,-0.11249 0.198429,-0.23151 -1.2e-5,-0.11248 -0.09224,-0.14574 -0.152335,-0.14534 -0.132275,-7e-5 -0.231509,0.10582 -0.23148,0.24478 1.8e-5,0.19182 0.205089,0.27776 0.39024,0.27783 0.284405,-1e-5 0.436546,-0.29763 0.443162,-0.31748 0.05287,0.15215 0.205062,0.31748 0.456383,0.31753 0.436554,1e-5 0.674693,-0.54239 0.67469,-0.64823 7.3e-5,-0.0464 -0.0334,-0.0462 -0.04625,-0.0464 -0.03963,-4e-5 -0.04644,0.0197 -0.05955,0.0463 -0.138901,0.45642 -0.423338,0.55562 -0.555617,0.55563 -0.165367,0 -0.231438,-0.13242 -0.231541,-0.27779 1.5e-5,-0.0926 0.01983,-0.1852 0.06609,-0.3704 z m 0,0"
         id="path941" />
      <path
         inkscape:connector-curvature="0"
         style="fill:#000000;fill-opacity:1;stroke:none;stroke-width:0"
         d="m 34.531302,248.20677 c 0.07271,-2e-5 0.152164,2e-5 0.152135,-0.086 -3.3e-5,-0.0793 -0.07933,-0.0794 -0.152015,-0.0797 h -2.282024 c -0.07274,-8e-5 -0.145533,7e-5 -0.145534,0.0794 -1.3e-5,0.086 0.07304,0.0858 0.145371,0.0863 z m 0,0"
         id="path943" />
      <path
         inkscape:connector-curvature="0"
         style="fill:#000000;fill-opacity:1;stroke:none;stroke-width:0"
         d="m 39.398972,248.1208 c 2.3e-5,-0.32412 -0.04629,-0.83345 -0.277838,-1.31629 -0.25135,-0.51596 -0.61516,-0.79376 -0.654865,-0.79375 -0.0266,-1.2e-4 -0.04621,0.0196 -0.04626,0.0462 4.15e-4,0.0131 -5.4e-5,0.0199 0.07933,0.0992 0.416723,0.4167 0.654827,1.08479 0.654856,1.96453 -1e-5,0.72761 -0.152146,1.46842 -0.674693,1.9976 -0.05954,0.0529 -0.05953,0.0595 -0.05945,0.0727 -2.06e-4,0.0267 0.01984,0.0462 0.04626,0.0464 0.03977,1e-5 0.42334,-0.29103 0.668078,-0.82681 0.218283,-0.46301 0.264583,-0.93265 0.264589,-1.28984 z m 0,0"
         id="path947" />
      <text
         id="text951"
         y="249.58044"
         x="36.912212"
         style="font-style:normal;font-variant:normal;font-weight:normal;font-stretch:normal;font-size:4.23333311px;line-height:125%;font-family:LMRoman12;-inkscape-font-specification:LMRoman12;text-align:center;letter-spacing:0px;word-spacing:0px;writing-mode:lr-tb;text-anchor:middle;fill:#000000;fill-opacity:1;stroke:none;stroke-width:0.26458332px;stroke-linecap:butt;stroke-linejoin:miter;stroke-opacity:1"
         xml:space="preserve"><tspan
           style="stroke-width:0.26458332px"
           y="249.58044"
           x="36.912212"
           id="tspan949"
           sodipodi:role="line">3</tspan></text>
      <path
         id="path953"
         d="m 33.310798,249.26157 c 2e-5,0.0727 -2e-5,0.15216 0.086,0.15213 0.0793,-3e-5 0.0794,-0.0793 0.0797,-0.15201 v -2.28202 c 8e-5,-0.0727 -7e-5,-0.14554 -0.0794,-0.14554 -0.086,-10e-6 -0.0858,0.073 -0.0863,0.14537 z m 0,0"
         style="fill:#000000;fill-opacity:1;stroke:none;stroke-width:0"
         inkscape:connector-curvature="0" />
    </g>
    <path
       id="path955"
       d="m 10.866349,227.19805 c -0.0728,0 -0.15214,0 -0.15214,0.086 0,0.0794 0.0794,0.0794 0.15214,0.0794 h 2.28203 c 0.0728,0 0.14552,0 0.14552,-0.0794 0,-0.086 -0.0728,-0.086 -0.14552,-0.086 z m 0,0"
       style="fill:#000000;fill-opacity:1;stroke:none;stroke-width:0"
       inkscape:connector-curvature="0" />
    <text
       xml:space="preserve"
       style="font-style:normal;font-variant:normal;font-weight:normal;font-stretch:normal;font-size:4.23333311px;line-height:125%;font-family:LMRoman12;-inkscape-font-specification:LMRoman12;text-align:center;letter-spacing:0px;word-spacing:0px;writing-mode:lr-tb;text-anchor:middle;fill:#000000;fill-opacity:1;stroke:none;stroke-width:0.26458332px;stroke-linecap:butt;stroke-linejoin:miter;stroke-opacity:1"
       x="20.35965"
       y="220.9649"
       id="text959"><tspan
         sodipodi:role="line"
         id="tspan957"
         x="20.35965"
         y="220.9649"
         style="stroke-width:0.26458332px">1</tspan></text>
    <text
       id="text963"
       y="227.42982"
       x="20.263159"
       style="font-style:normal;font-variant:normal;font-weight:normal;font-stretch:normal;font-size:4.23333311px;line-height:125%;font-family:LMRoman12;-inkscape-font-specification:LMRoman12;text-align:center;letter-spacing:0px;word-spacing:0px;writing-mode:lr-tb;text-anchor:middle;fill:#000000;fill-opacity:1;stroke:none;stroke-width:0.26458332px;stroke-linecap:butt;stroke-linejoin:miter;stroke-opacity:1"
       xml:space="preserve"><tspan
         style="stroke-width:0.26458332px"
         y="227.42982"
         x="20.263159"
         id="tspan961"
         sodipodi:role="line">1</tspan></text>
    <rect
       style="color:#000000;clip-rule:nonzero;display:inline;overflow:visible;visibility:visible;opacity:1;isolation:auto;mix-blend-mode:normal;color-interpolation:sRGB;color-interpolation-filters:linearRGB;solid-color:#000000;solid-opacity:1;fill:#ff8080;fill-opacity:1;fill-rule:evenodd;stroke:#000000;stroke-width:0.26458332;stroke-linecap:butt;stroke-linejoin:round;stroke-miterlimit:4;stroke-dasharray:none;stroke-dashoffset:0;stroke-opacity:1;color-rendering:auto;image-rendering:auto;shape-rendering:auto;text-rendering:auto;enable-background:accumulate"
       id="rect973"
       width="6.6145821"
       height="6.6145906"
       x="33.072918"
       y="222.91667" />
    <rect
       style="color:#000000;clip-rule:nonzero;display:inline;overflow:visible;visibility:visible;opacity:1;isolation:auto;mix-blend-mode:normal;color-interpolation:sRGB;color-interpolation-filters:linearRGB;solid-color:#000000;solid-opacity:1;fill:#ff8080;fill-opacity:1;fill-rule:evenodd;stroke:#000000;stroke-width:0.26458335;stroke-linecap:butt;stroke-linejoin:round;stroke-miterlimit:4;stroke-dasharray:none;stroke-dashoffset:0;stroke-opacity:1;color-rendering:auto;image-rendering:auto;shape-rendering:auto;text-rendering:auto;enable-background:accumulate"
       id="rect975"
       width="10.583333"
       height="6.6145859"
       x="22.489584"
       y="216.30208" />
    <path
       inkscape:connector-curvature="0"
       style="fill:#000000;fill-opacity:1;stroke:none;stroke-width:0"
       d="m 28.320804,218.64044 c 0.02646,-0.10584 0.125677,-0.4961 0.416719,-0.4961 0.01984,0 0.125677,0 0.211666,0.0529 -0.119062,0.0265 -0.198437,0.12568 -0.198437,0.23151 0,0.0661 0.0463,0.14552 0.15875,0.14552 0.0926,0 0.224895,-0.0728 0.224895,-0.24474 0,-0.21828 -0.244739,-0.27781 -0.39026,-0.27781 -0.244739,0 -0.39026,0.22489 -0.443177,0.3175 -0.105833,-0.27781 -0.330728,-0.3175 -0.456405,-0.3175 -0.436563,0 -0.681302,0.54239 -0.681302,0.64823 0,0.0463 0.0463,0.0463 0.05292,0.0463 0.03307,0 0.0463,-0.0132 0.05292,-0.0463 0.145521,-0.44979 0.423333,-0.55563 0.568854,-0.55563 0.07938,0 0.224896,0.0397 0.224896,0.28443 0,0.13229 -0.07276,0.4101 -0.224896,1.00542 -0.06615,0.25796 -0.218281,0.43656 -0.403489,0.43656 -0.02646,0 -0.119063,0 -0.211667,-0.0529 0.105833,-0.0265 0.198438,-0.11245 0.198438,-0.23151 0,-0.11245 -0.0926,-0.14552 -0.152136,-0.14552 -0.132291,0 -0.23151,0.10583 -0.23151,0.24474 0,0.19182 0.205052,0.27781 0.39026,0.27781 0.284427,0 0.436562,-0.29765 0.443177,-0.3175 0.05292,0.15214 0.205052,0.3175 0.456406,0.3175 0.436562,0 0.674687,-0.54239 0.674687,-0.64823 0,-0.0463 -0.03307,-0.0463 -0.0463,-0.0463 -0.03969,0 -0.0463,0.0199 -0.05953,0.0463 -0.138906,0.45641 -0.423333,0.55563 -0.555624,0.55563 -0.165365,0 -0.23151,-0.13229 -0.23151,-0.27781 0,-0.0926 0.01984,-0.18521 0.06614,-0.37042 z m 0,0"
       id="path977" />
    <rect
       y="216.30208"
       x="33.072918"
       height="6.6145906"
       width="6.6145821"
       id="rect979"
       style="color:#000000;clip-rule:nonzero;display:inline;overflow:visible;visibility:visible;opacity:1;isolation:auto;mix-blend-mode:normal;color-interpolation:sRGB;color-interpolation-filters:linearRGB;solid-color:#000000;solid-opacity:1;fill:#ff8080;fill-opacity:1;fill-rule:evenodd;stroke:#000000;stroke-width:0.26458332;stroke-linecap:butt;stroke-linejoin:round;stroke-miterlimit:4;stroke-dasharray:none;stroke-dashoffset:0;stroke-opacity:1;color-rendering:auto;image-rendering:auto;shape-rendering:auto;text-rendering:auto;enable-background:accumulate" />
    <rect
       style="color:#000000;clip-rule:nonzero;display:inline;overflow:visible;visibility:visible;opacity:1;isolation:auto;mix-blend-mode:normal;color-interpolation:sRGB;color-interpolation-filters:linearRGB;solid-color:#000000;solid-opacity:1;fill:#ff8080;fill-opacity:1;fill-rule:evenodd;stroke:#000000;stroke-width:0.26458332;stroke-linecap:butt;stroke-linejoin:round;stroke-miterlimit:4;stroke-dasharray:none;stroke-dashoffset:0;stroke-opacity:1;color-rendering:auto;image-rendering:auto;shape-rendering:auto;text-rendering:auto;enable-background:accumulate"
       id="rect981"
       width="6.6145821"
       height="10.583317"
       x="39.6875"
       y="229.53127" />
    <rect
       y="222.91667"
       x="39.6875"
       height="6.6145906"
       width="6.6145821"
       id="rect983"
       style="color:#000000;clip-rule:nonzero;display:inline;overflow:visible;visibility:visible;opacity:1;isolation:auto;mix-blend-mode:normal;color-interpolation:sRGB;color-interpolation-filters:linearRGB;solid-color:#000000;solid-opacity:1;fill:#ff8080;fill-opacity:1;fill-rule:evenodd;stroke:#000000;stroke-width:0.26458332;stroke-linecap:butt;stroke-linejoin:round;stroke-miterlimit:4;stroke-dasharray:none;stroke-dashoffset:0;stroke-opacity:1;color-rendering:auto;image-rendering:auto;shape-rendering:auto;text-rendering:auto;enable-background:accumulate" />
    <rect
       style="color:#000000;clip-rule:nonzero;display:inline;overflow:visible;visibility:visible;opacity:1;isolation:auto;mix-blend-mode:normal;color-interpolation:sRGB;color-interpolation-filters:linearRGB;solid-color:#000000;solid-opacity:1;fill:#ff8080;fill-opacity:1;fill-rule:evenodd;stroke:#000000;stroke-width:0.26458332;stroke-linecap:butt;stroke-linejoin:round;stroke-miterlimit:4;stroke-dasharray:none;stroke-dashoffset:0;stroke-opacity:1;color-rendering:auto;image-rendering:auto;shape-rendering:auto;text-rendering:auto;enable-background:accumulate"
       id="rect985"
       width="6.6145821"
       height="6.6145906"
       x="39.6875"
       y="216.30208" />
    <rect
       y="229.53127"
       x="46.302082"
       height="10.583317"
       width="6.6145821"
       id="rect987"
       style="color:#000000;clip-rule:nonzero;display:inline;overflow:visible;visibility:visible;opacity:1;isolation:auto;mix-blend-mode:normal;color-interpolation:sRGB;color-interpolation-filters:linearRGB;solid-color:#000000;solid-opacity:1;fill:#ff8080;fill-opacity:1;fill-rule:evenodd;stroke:#000000;stroke-width:0.26458332;stroke-linecap:butt;stroke-linejoin:round;stroke-miterlimit:4;stroke-dasharray:none;stroke-dashoffset:0;stroke-opacity:1;color-rendering:auto;image-rendering:auto;shape-rendering:auto;text-rendering:auto;enable-background:accumulate" />
    <rect
       style="color:#000000;clip-rule:nonzero;display:inline;overflow:visible;visibility:visible;opacity:1;isolation:auto;mix-blend-mode:normal;color-interpolation:sRGB;color-interpolation-filters:linearRGB;solid-color:#000000;solid-opacity:1;fill:#ff8080;fill-opacity:1;fill-rule:evenodd;stroke:#000000;stroke-width:0.26458332;stroke-linecap:butt;stroke-linejoin:round;stroke-miterlimit:4;stroke-dasharray:none;stroke-dashoffset:0;stroke-opacity:1;color-rendering:auto;image-rendering:auto;shape-rendering:auto;text-rendering:auto;enable-background:accumulate"
       id="rect989"
       width="6.6145821"
       height="6.6145906"
       x="46.302082"
       y="222.91667" />
    <rect
       y="216.30208"
       x="46.302082"
       height="6.6145906"
       width="6.6145821"
       id="rect991"
       style="color:#000000;clip-rule:nonzero;display:inline;overflow:visible;visibility:visible;opacity:1;isolation:auto;mix-blend-mode:normal;color-interpolation:sRGB;color-interpolation-filters:linearRGB;solid-color:#000000;solid-opacity:1;fill:#ff8080;fill-opacity:1;fill-rule:evenodd;stroke:#000000;stroke-width:0.26458332;stroke-linecap:butt;stroke-linejoin:round;stroke-miterlimit:4;stroke-dasharray:none;stroke-dashoffset:0;stroke-opacity:1;color-rendering:auto;image-rendering:auto;shape-rendering:auto;text-rendering:auto;enable-background:accumulate" />
    <path
       inkscape:connector-curvature="0"
       style="fill:#000000;fill-opacity:1;stroke:none;stroke-width:0"
       d="m 36.419915,219.83411 c 0.07276,0 0.152135,0 0.152135,-0.086 0,-0.0794 -0.07937,-0.0794 -0.152135,-0.0794 h -2.28203 c -0.07276,0 -0.14552,0 -0.14552,0.0794 0,0.086 0.07276,0.086 0.14552,0.086 z m 0,0"
       id="path1784" />
    <path
       id="path965"
       d="m 35.199507,220.88912 c 0,0.0728 0,0.15213 0.086,0.15213 0.0794,0 0.0794,-0.0794 0.0794,-0.15213 v -2.28203 c 0,-0.0728 0,-0.14552 -0.0794,-0.14552 -0.086,0 -0.086,0.0728 -0.086,0.14552 z m 0,0"
       style="fill:#000000;fill-opacity:1;stroke:none;stroke-width:0"
       inkscape:connector-curvature="0" />
    <text
       xml:space="preserve"
       style="font-style:normal;font-variant:normal;font-weight:normal;font-stretch:normal;font-size:4.23333311px;line-height:125%;font-family:LMRoman12;-inkscape-font-specification:LMRoman12;text-align:center;letter-spacing:0px;word-spacing:0px;writing-mode:lr-tb;text-anchor:middle;fill:#000000;fill-opacity:1;stroke:none;stroke-width:0.26458332px;stroke-linecap:butt;stroke-linejoin:miter;stroke-opacity:1"
       x="37.735142"
       y="220.87874"
       id="text969"><tspan
         sodipodi:role="line"
         id="tspan967"
         x="37.735142"
         y="220.87874"
         style="stroke-width:0.26458332px">1</tspan></text>
    <path
       id="path993"
       d="m 36.419915,226.68499 c 0.07276,0 0.152135,0 0.152135,-0.086 0,-0.0794 -0.07937,-0.0794 -0.152135,-0.0794 h -2.28203 c -0.07276,0 -0.14552,0 -0.14552,0.0794 0,0.086 0.07276,0.086 0.14552,0.086 z m 0,0"
       style="fill:#000000;fill-opacity:1;stroke:none;stroke-width:0"
       inkscape:connector-curvature="0" />
    <path
       inkscape:connector-curvature="0"
       style="fill:#000000;fill-opacity:1;stroke:none;stroke-width:0"
       d="m 35.199507,227.74 c 0,0.0728 0,0.15213 0.086,0.15213 0.0794,0 0.0794,-0.0794 0.0794,-0.15213 v -2.28203 c 0,-0.0728 0,-0.14552 -0.0794,-0.14552 -0.086,0 -0.086,0.0728 -0.086,0.14552 z m 0,0"
       id="path995" />
    <text
       id="text999"
       y="227.72961"
       x="37.735142"
       style="font-style:normal;font-variant:normal;font-weight:normal;font-stretch:normal;font-size:4.23333311px;line-height:125%;font-family:LMRoman12;-inkscape-font-specification:LMRoman12;text-align:center;letter-spacing:0px;word-spacing:0px;writing-mode:lr-tb;text-anchor:middle;fill:#000000;fill-opacity:1;stroke:none;stroke-width:0.26458332px;stroke-linecap:butt;stroke-linejoin:miter;stroke-opacity:1"
       xml:space="preserve"><tspan
         style="stroke-width:0.26458332px"
         y="227.72961"
         x="37.735142"
         id="tspan997"
         sodipodi:role="line">1</tspan></text>
    <path
       id="path1001"
       d="m 43.270792,219.83411 c 0.07276,0 0.152135,0 0.152135,-0.086 0,-0.0794 -0.07937,-0.0794 -0.152135,-0.0794 h -2.28203 c -0.07276,0 -0.14552,0 -0.14552,0.0794 0,0.086 0.07276,0.086 0.14552,0.086 z m 0,0"
       style="fill:#000000;fill-opacity:1;stroke:none;stroke-width:0"
       inkscape:connector-curvature="0" />
    <path
       inkscape:connector-curvature="0"
       style="fill:#000000;fill-opacity:1;stroke:none;stroke-width:0"
       d="m 42.050384,220.88912 c 0,0.0728 0,0.15213 0.086,0.15213 0.0794,0 0.0794,-0.0794 0.0794,-0.15213 v -2.28203 c 0,-0.0728 0,-0.14552 -0.0794,-0.14552 -0.086,0 -0.086,0.0728 -0.086,0.14552 z m 0,0"
       id="path1003" />
    <text
       id="text1007"
       y="220.87874"
       x="44.586018"
       style="font-style:normal;font-variant:normal;font-weight:normal;font-stretch:normal;font-size:4.23333311px;line-height:125%;font-family:LMRoman12;-inkscape-font-specification:LMRoman12;text-align:center;letter-spacing:0px;word-spacing:0px;writing-mode:lr-tb;text-anchor:middle;fill:#000000;fill-opacity:1;stroke:none;stroke-width:0.26458332px;stroke-linecap:butt;stroke-linejoin:miter;stroke-opacity:1"
       xml:space="preserve"><tspan
         style="stroke-width:0.26458332px"
         y="220.87874"
         x="44.586018"
         id="tspan1005"
         sodipodi:role="line">1</tspan></text>
    <path
       inkscape:connector-curvature="0"
       style="fill:#000000;fill-opacity:1;stroke:none;stroke-width:0"
       d="m 43.270792,226.68499 c 0.07276,0 0.152135,0 0.152135,-0.086 0,-0.0794 -0.07937,-0.0794 -0.152135,-0.0794 h -2.28203 c -0.07276,0 -0.14552,0 -0.14552,0.0794 0,0.086 0.07276,0.086 0.14552,0.086 z m 0,0"
       id="path1009" />
    <path
       id="path1011"
       d="m 42.050384,227.74 c 0,0.0728 0,0.15213 0.086,0.15213 0.0794,0 0.0794,-0.0794 0.0794,-0.15213 v -2.28203 c 0,-0.0728 0,-0.14552 -0.0794,-0.14552 -0.086,0 -0.086,0.0728 -0.086,0.14552 z m 0,0"
       style="fill:#000000;fill-opacity:1;stroke:none;stroke-width:0"
       inkscape:connector-curvature="0" />
    <text
       xml:space="preserve"
       style="font-style:normal;font-variant:normal;font-weight:normal;font-stretch:normal;font-size:4.23333311px;line-height:125%;font-family:LMRoman12;-inkscape-font-specification:LMRoman12;text-align:center;letter-spacing:0px;word-spacing:0px;writing-mode:lr-tb;text-anchor:middle;fill:#000000;fill-opacity:1;stroke:none;stroke-width:0.26458332px;stroke-linecap:butt;stroke-linejoin:miter;stroke-opacity:1"
       x="44.586018"
       y="227.72961"
       id="text1015"><tspan
         sodipodi:role="line"
         id="tspan1013"
         x="44.586018"
         y="227.72961"
         style="stroke-width:0.26458332px">1</tspan></text>
    <path
       inkscape:connector-curvature="0"
       style="fill:#000000;fill-opacity:1;stroke:none;stroke-width:0"
       d="m 49.639213,219.83411 c 0.07276,0 0.152135,0 0.152135,-0.086 0,-0.0794 -0.07937,-0.0794 -0.152135,-0.0794 h -2.28203 c -0.07276,0 -0.14552,0 -0.14552,0.0794 0,0.086 0.07276,0.086 0.14552,0.086 z m 0,0"
       id="path1017" />
    <path
       id="path1019"
       d="m 48.418805,220.88912 c 0,0.0728 0,0.15213 0.086,0.15213 0.0794,0 0.0794,-0.0794 0.0794,-0.15213 v -2.28203 c 0,-0.0728 0,-0.14552 -0.0794,-0.14552 -0.086,0 -0.086,0.0728 -0.086,0.14552 z m 0,0"
       style="fill:#000000;fill-opacity:1;stroke:none;stroke-width:0"
       inkscape:connector-curvature="0" />
    <text
       xml:space="preserve"
       style="font-style:normal;font-variant:normal;font-weight:normal;font-stretch:normal;font-size:4.23333311px;line-height:125%;font-family:LMRoman12;-inkscape-font-specification:LMRoman12;text-align:center;letter-spacing:0px;word-spacing:0px;writing-mode:lr-tb;text-anchor:middle;fill:#000000;fill-opacity:1;stroke:none;stroke-width:0.26458332px;stroke-linecap:butt;stroke-linejoin:miter;stroke-opacity:1"
       x="50.954437"
       y="220.87874"
       id="text1023"><tspan
         sodipodi:role="line"
         id="tspan1021"
         x="50.954437"
         y="220.87874"
         style="stroke-width:0.26458332px">1</tspan></text>
    <path
       id="path1025"
       d="m 49.639213,226.68499 c 0.07276,0 0.152135,0 0.152135,-0.086 0,-0.0794 -0.07937,-0.0794 -0.152135,-0.0794 h -2.28203 c -0.07276,0 -0.14552,0 -0.14552,0.0794 0,0.086 0.07276,0.086 0.14552,0.086 z m 0,0"
       style="fill:#000000;fill-opacity:1;stroke:none;stroke-width:0"
       inkscape:connector-curvature="0" />
    <path
       inkscape:connector-curvature="0"
       style="fill:#000000;fill-opacity:1;stroke:none;stroke-width:0"
       d="m 48.418805,227.74 c 0,0.0728 0,0.15213 0.086,0.15213 0.0794,0 0.0794,-0.0794 0.0794,-0.15213 v -2.28203 c 0,-0.0728 0,-0.14552 -0.0794,-0.14552 -0.086,0 -0.086,0.0728 -0.086,0.14552 z m 0,0"
       id="path1027" />
    <text
       id="text1031"
       y="227.72961"
       x="50.954437"
       style="font-style:normal;font-variant:normal;font-weight:normal;font-stretch:normal;font-size:4.23333311px;line-height:125%;font-family:LMRoman12;-inkscape-font-specification:LMRoman12;text-align:center;letter-spacing:0px;word-spacing:0px;writing-mode:lr-tb;text-anchor:middle;fill:#000000;fill-opacity:1;stroke:none;stroke-width:0.26458332px;stroke-linecap:butt;stroke-linejoin:miter;stroke-opacity:1"
       xml:space="preserve"><tspan
         style="stroke-width:0.26458332px"
         y="227.72961"
         x="50.954437"
         id="tspan1029"
         sodipodi:role="line">1</tspan></text>
    <path
       inkscape:connector-curvature="0"
       style="fill:#000000;fill-opacity:1;stroke:none;stroke-width:0"
       d="m 36.419915,242.50955 c 0.07276,0 0.152135,0 0.152135,-0.086 0,-0.0794 -0.07937,-0.0794 -0.152135,-0.0794 h -2.28203 c -0.07276,0 -0.14552,0 -0.14552,0.0794 0,0.086 0.07276,0.086 0.14552,0.086 z m 0,0"
       id="path1033" />
    <path
       id="path1035"
       d="m 35.199507,243.56456 c 0,0.0728 0,0.15213 0.086,0.15213 0.0794,0 0.0794,-0.0794 0.0794,-0.15213 v -2.28203 c 0,-0.0728 0,-0.14552 -0.0794,-0.14552 -0.086,0 -0.086,0.0728 -0.086,0.14552 z m 0,0"
       style="fill:#000000;fill-opacity:1;stroke:none;stroke-width:0"
       inkscape:connector-curvature="0" />
    <text
       xml:space="preserve"
       style="font-style:normal;font-variant:normal;font-weight:normal;font-stretch:normal;font-size:4.23333311px;line-height:125%;font-family:LMRoman12;-inkscape-font-specification:LMRoman12;text-align:center;letter-spacing:0px;word-spacing:0px;writing-mode:lr-tb;text-anchor:middle;fill:#000000;fill-opacity:1;stroke:none;stroke-width:0.26458332px;stroke-linecap:butt;stroke-linejoin:miter;stroke-opacity:1"
       x="37.735142"
       y="243.55417"
       id="text1039"><tspan
         sodipodi:role="line"
         id="tspan1037"
         x="37.735142"
         y="243.55417"
         style="stroke-width:0.26458332px">1</tspan></text>
    <path
       id="path1041"
       d="m 43.270792,242.50955 c 0.07276,0 0.152135,0 0.152135,-0.086 0,-0.0794 -0.07937,-0.0794 -0.152135,-0.0794 h -2.28203 c -0.07276,0 -0.14552,0 -0.14552,0.0794 0,0.086 0.07276,0.086 0.14552,0.086 z m 0,0"
       style="fill:#000000;fill-opacity:1;stroke:none;stroke-width:0"
       inkscape:connector-curvature="0" />
    <path
       inkscape:connector-curvature="0"
       style="fill:#000000;fill-opacity:1;stroke:none;stroke-width:0"
       d="m 42.050384,243.56456 c 0,0.0728 0,0.15213 0.086,0.15213 0.0794,0 0.0794,-0.0794 0.0794,-0.15213 v -2.28203 c 0,-0.0728 0,-0.14552 -0.0794,-0.14552 -0.086,0 -0.086,0.0728 -0.086,0.14552 z m 0,0"
       id="path1043" />
    <text
       id="text1047"
       y="243.55417"
       x="44.586018"
       style="font-style:normal;font-variant:normal;font-weight:normal;font-stretch:normal;font-size:4.23333311px;line-height:125%;font-family:LMRoman12;-inkscape-font-specification:LMRoman12;text-align:center;letter-spacing:0px;word-spacing:0px;writing-mode:lr-tb;text-anchor:middle;fill:#000000;fill-opacity:1;stroke:none;stroke-width:0.26458332px;stroke-linecap:butt;stroke-linejoin:miter;stroke-opacity:1"
       xml:space="preserve"><tspan
         style="stroke-width:0.26458332px"
         y="243.55417"
         x="44.586018"
         id="tspan1045"
         sodipodi:role="line">1</tspan></text>
    <path
       inkscape:connector-curvature="0"
       style="fill:#000000;fill-opacity:1;stroke:none;stroke-width:0"
       d="m 49.639213,242.50955 c 0.07276,0 0.152135,0 0.152135,-0.086 0,-0.0794 -0.07937,-0.0794 -0.152135,-0.0794 h -2.28203 c -0.07276,0 -0.14552,0 -0.14552,0.0794 0,0.086 0.07276,0.086 0.14552,0.086 z m 0,0"
       id="path1049" />
    <path
       id="path1051"
       d="m 48.418805,243.56456 c 0,0.0728 0,0.15213 0.086,0.15213 0.0794,0 0.0794,-0.0794 0.0794,-0.15213 v -2.28203 c 0,-0.0728 0,-0.14552 -0.0794,-0.14552 -0.086,0 -0.086,0.0728 -0.086,0.14552 z m 0,0"
       style="fill:#000000;fill-opacity:1;stroke:none;stroke-width:0"
       inkscape:connector-curvature="0" />
    <text
       xml:space="preserve"
       style="font-style:normal;font-variant:normal;font-weight:normal;font-stretch:normal;font-size:4.23333311px;line-height:125%;font-family:LMRoman12;-inkscape-font-specification:LMRoman12;text-align:center;letter-spacing:0px;word-spacing:0px;writing-mode:lr-tb;text-anchor:middle;fill:#000000;fill-opacity:1;stroke:none;stroke-width:0.26458332px;stroke-linecap:butt;stroke-linejoin:miter;stroke-opacity:1"
       x="50.954437"
       y="243.55417"
       id="text1055"><tspan
         sodipodi:role="line"
         id="tspan1053"
         x="50.954437"
         y="243.55417"
         style="stroke-width:0.26458332px">1</tspan></text>
    <path
       id="path1057"
       d="m 36.333584,234.69192 c 0.02646,-0.10584 0.125677,-0.4961 0.416719,-0.4961 0.01984,0 0.125677,0 0.211666,0.0529 -0.119062,0.0265 -0.198437,0.12568 -0.198437,0.23151 0,0.0661 0.0463,0.14552 0.15875,0.14552 0.0926,0 0.224895,-0.0728 0.224895,-0.24474 0,-0.21828 -0.244739,-0.27781 -0.39026,-0.27781 -0.244739,0 -0.39026,0.22489 -0.443177,0.3175 -0.105833,-0.27781 -0.330729,-0.3175 -0.456405,-0.3175 -0.436563,0 -0.681302,0.54239 -0.681302,0.64823 0,0.0463 0.0463,0.0463 0.05292,0.0463 0.03307,0 0.0463,-0.0132 0.05292,-0.0463 0.145521,-0.44979 0.423333,-0.55563 0.568854,-0.55563 0.07937,0 0.224896,0.0397 0.224896,0.28443 0,0.13229 -0.07276,0.4101 -0.224896,1.00542 -0.06615,0.25796 -0.218281,0.43656 -0.403489,0.43656 -0.02646,0 -0.119063,0 -0.211667,-0.0529 0.105833,-0.0265 0.198438,-0.11245 0.198438,-0.23151 0,-0.11245 -0.0926,-0.14552 -0.152136,-0.14552 -0.132291,0 -0.23151,0.10583 -0.23151,0.24474 0,0.19182 0.205052,0.27781 0.39026,0.27781 0.284427,0 0.436562,-0.29765 0.443177,-0.3175 0.05292,0.15214 0.205052,0.3175 0.456406,0.3175 0.436562,0 0.674687,-0.54239 0.674687,-0.64823 0,-0.0463 -0.03307,-0.0463 -0.0463,-0.0463 -0.03969,0 -0.0463,0.0199 -0.05953,0.0463 -0.138906,0.45641 -0.423333,0.55563 -0.555624,0.55563 -0.165365,0 -0.23151,-0.13229 -0.23151,-0.27781 0,-0.0926 0.01984,-0.18521 0.06614,-0.37042 z m 0,0"
       style="fill:#000000;fill-opacity:1;stroke:none;stroke-width:0"
       inkscape:connector-curvature="0" />
    <path
       inkscape:connector-curvature="0"
       style="fill:#000000;fill-opacity:1;stroke:none;stroke-width:0"
       d="m 43.184461,234.69192 c 0.02646,-0.10584 0.125677,-0.4961 0.416719,-0.4961 0.01984,0 0.125677,0 0.211666,0.0529 -0.119062,0.0265 -0.198437,0.12568 -0.198437,0.23151 0,0.0661 0.0463,0.14552 0.15875,0.14552 0.0926,0 0.224895,-0.0728 0.224895,-0.24474 0,-0.21828 -0.244739,-0.27781 -0.39026,-0.27781 -0.244739,0 -0.39026,0.22489 -0.443177,0.3175 -0.105833,-0.27781 -0.330729,-0.3175 -0.456405,-0.3175 -0.436563,0 -0.681302,0.54239 -0.681302,0.64823 0,0.0463 0.0463,0.0463 0.05292,0.0463 0.03307,0 0.0463,-0.0132 0.05292,-0.0463 0.145521,-0.44979 0.423333,-0.55563 0.568854,-0.55563 0.07937,0 0.224896,0.0397 0.224896,0.28443 0,0.13229 -0.07276,0.4101 -0.224896,1.00542 -0.06615,0.25796 -0.218281,0.43656 -0.403489,0.43656 -0.02646,0 -0.119063,0 -0.211667,-0.0529 0.105833,-0.0265 0.198438,-0.11245 0.198438,-0.23151 0,-0.11245 -0.0926,-0.14552 -0.152136,-0.14552 -0.132291,0 -0.23151,0.10583 -0.23151,0.24474 0,0.19182 0.205052,0.27781 0.39026,0.27781 0.284427,0 0.436562,-0.29765 0.443177,-0.3175 0.05292,0.15214 0.205052,0.3175 0.456406,0.3175 0.436562,0 0.674687,-0.54239 0.674687,-0.64823 0,-0.0463 -0.03307,-0.0463 -0.0463,-0.0463 -0.03969,0 -0.0463,0.0199 -0.05953,0.0463 -0.138906,0.45641 -0.423333,0.55563 -0.555624,0.55563 -0.165365,0 -0.23151,-0.13229 -0.23151,-0.27781 0,-0.0926 0.01984,-0.18521 0.06614,-0.37042 z m 0,0"
       id="path1059" />
    <path
       id="path1061"
       d="m 49.938847,234.69192 c 0.02646,-0.10584 0.125677,-0.4961 0.416719,-0.4961 0.01984,0 0.125677,0 0.211666,0.0529 -0.119062,0.0265 -0.198437,0.12568 -0.198437,0.23151 0,0.0661 0.0463,0.14552 0.15875,0.14552 0.0926,0 0.224895,-0.0728 0.224895,-0.24474 0,-0.21828 -0.244739,-0.27781 -0.39026,-0.27781 -0.244739,0 -0.39026,0.22489 -0.443177,0.3175 -0.105833,-0.27781 -0.330729,-0.3175 -0.456405,-0.3175 -0.436563,0 -0.681302,0.54239 -0.681302,0.64823 0,0.0463 0.0463,0.0463 0.05292,0.0463 0.03307,0 0.0463,-0.0132 0.05292,-0.0463 0.145521,-0.44979 0.423333,-0.55563 0.568854,-0.55563 0.07937,0 0.224896,0.0397 0.224896,0.28443 0,0.13229 -0.07276,0.4101 -0.224896,1.00542 -0.06615,0.25796 -0.218281,0.43656 -0.403489,0.43656 -0.02646,0 -0.119063,0 -0.211667,-0.0529 0.105833,-0.0265 0.198438,-0.11245 0.198438,-0.23151 0,-0.11245 -0.0926,-0.14552 -0.152136,-0.14552 -0.132291,0 -0.23151,0.10583 -0.23151,0.24474 0,0.19182 0.205052,0.27781 0.39026,0.27781 0.284427,0 0.436562,-0.29765 0.443177,-0.3175 0.05292,0.15214 0.205052,0.3175 0.456406,0.3175 0.436562,0 0.674687,-0.54239 0.674687,-0.64823 0,-0.0463 -0.03307,-0.0463 -0.0463,-0.0463 -0.03969,0 -0.0463,0.0199 -0.05953,0.0463 -0.138906,0.45641 -0.423333,0.55563 -0.555624,0.55563 -0.165365,0 -0.23151,-0.13229 -0.23151,-0.27781 0,-0.0926 0.01984,-0.18521 0.06614,-0.37042 z m 0,0"
       style="fill:#000000;fill-opacity:1;stroke:none;stroke-width:0"
       inkscape:connector-curvature="0" />
  </g>
</svg>
