<?xml version="1.0" encoding="UTF-8" standalone="no"?>
<!-- Created with Inkscape (http://www.inkscape.org/) -->

<svg
   xmlns:ns0="http://www.iki.fi/pav/software/textext/"
   xmlns:dc="http://purl.org/dc/elements/1.1/"
   xmlns:cc="http://creativecommons.org/ns#"
   xmlns:rdf="http://www.w3.org/1999/02/22-rdf-syntax-ns#"
   xmlns:svg="http://www.w3.org/2000/svg"
   xmlns="http://www.w3.org/2000/svg"
   xmlns:xlink="http://www.w3.org/1999/xlink"
   xmlns:sodipodi="http://sodipodi.sourceforge.net/DTD/sodipodi-0.dtd"
   xmlns:inkscape="http://www.inkscape.org/namespaces/inkscape"
   width="460.62991"
   height="212.59842"
   id="svg2"
   version="1.1"
   inkscape:version="0.48.4 r9939"
   sodipodi:docname="fig18.svg">
  <sodipodi:namedview
     id="base"
     pagecolor="#ffffff"
     bordercolor="#666666"
     borderopacity="1.0"
     inkscape:pageopacity="0.0"
     inkscape:pageshadow="2"
     inkscape:zoom="1.9352179"
     inkscape:cx="255.59332"
     inkscape:cy="93.861722"
     inkscape:document-units="px"
     inkscape:current-layer="layer1"
     showgrid="false"
     units="cm"
     inkscape:window-width="1024"
     inkscape:window-height="744"
     inkscape:window-x="0"
     inkscape:window-y="24"
     inkscape:window-maximized="1" />
  <defs
     id="defs4">
    <marker
       inkscape:stockid="Arrow1Mstart"
       orient="auto"
       refY="0"
       refX="0"
       id="Arrow1Mstart"
       style="overflow:visible">
      <path
         id="path3950"
         d="M 0,0 5,-5 -12.5,0 5,5 0,0 z"
         style="fill-rule:evenodd;stroke:#000000;stroke-width:1pt"
         transform="matrix(0.4,0,0,0.4,4,0)"
         inkscape:connector-curvature="0" />
    </marker>
    <marker
       style="overflow:visible"
       id="Arrow1Mend"
       refX="0"
       refY="0"
       orient="auto"
       inkscape:stockid="Arrow1Mend">
      <path
         transform="matrix(-0.4,0,0,-0.4,-4,0)"
         style="fill-rule:evenodd;stroke:#000000;stroke-width:1pt"
         d="M 0,0 5,-5 -12.5,0 5,5 0,0 z"
         id="path3776"
         inkscape:connector-curvature="0" />
    </marker>
  </defs>
  <metadata
     id="metadata7">
    <rdf:RDF>
      <cc:Work
         rdf:about="">
        <dc:format>image/svg+xml</dc:format>
        <dc:type
           rdf:resource="http://purl.org/dc/dcmitype/StillImage" />
        <dc:title></dc:title>
      </cc:Work>
    </rdf:RDF>
  </metadata>
  <g
     transform="translate(0,-839.76245)"
     id="layer1"
     inkscape:groupmode="layer"
     inkscape:label="Layer 1">
    <path
       sodipodi:nodetypes="cc"
       inkscape:connector-curvature="0"
       id="path2985"
       d="m 123.40553,982.00502 207.05862,0"
       style="fill:none;stroke:#000000;stroke-width:1px;stroke-linecap:butt;stroke-linejoin:miter;stroke-opacity:1" />
    <path
       sodipodi:nodetypes="csssc"
       inkscape:connector-curvature="0"
       id="path2987"
       d="m 124.35749,976.55108 c -5.5226,0.42736 12.68134,-0.58953 13.34545,-0.69382 52.21638,-8.19972 61.10816,-61.85513 88.15535,-62.18933 28.88525,-0.35691 30.66425,49.32946 86.70484,62.77837 0.8925,0.21419 15.63045,1.66652 16.55033,1.8616"
       style="fill:none;stroke:#000000;stroke-width:1px;stroke-linecap:butt;stroke-linejoin:miter;stroke-opacity:1" />
    <path
       sodipodi:nodetypes="cc"
       inkscape:connector-curvature="0"
       id="path3411"
       d="m 274.66686,956.62414 0,25.67596"
       style="fill:none;stroke:#000000;stroke-width:1px;stroke-linecap:butt;stroke-linejoin:miter;stroke-opacity:1" />
    <path
       style="fill:none;stroke:#000000;stroke-width:1px;stroke-linecap:butt;stroke-linejoin:miter;stroke-opacity:1"
       d="m 225.85829,913.66793 c 8.14402,-0.10063 14.20592,3.8349 19.96839,9.84006"
       id="path3413"
       inkscape:connector-curvature="0"
       sodipodi:nodetypes="cc" />
    <path
       style="fill:none;stroke:#000000;stroke-width:1px;stroke-linecap:butt;stroke-linejoin:miter;stroke-opacity:1"
       d="m 225.91106,914.29328 0,67.35272"
       id="path4290"
       inkscape:connector-curvature="0"
       sodipodi:nodetypes="cc" />
    <path
       sodipodi:nodetypes="ccc"
       style="fill:none;stroke:#000000;stroke-width:0.99999994px;stroke-linecap:butt;stroke-linejoin:miter;stroke-opacity:1;marker-end:url(#Arrow1Mend)"
       d="m 328.96018,951.34112 -30.52671,0 -0.17988,17.26453"
       id="path4217"
       inkscape:connector-curvature="0" />
    <text
       sodipodi:linespacing="125%"
       id="text4567"
       y="954.15741"
       x="332.80005"
       style="font-size:12px;font-style:normal;font-variant:normal;font-weight:normal;font-stretch:normal;line-height:125%;letter-spacing:0px;word-spacing:0px;fill:#000000;fill-opacity:1;stroke:none;font-family:Nimbus Roman No9 L;-inkscape-font-specification:Nimbus Roman No9 L"
       xml:space="preserve"><tspan
         y="954.15741"
         x="332.80005"
         id="tspan4569"
         sodipodi:role="line">this area is</tspan></text>
    <path
       sodipodi:nodetypes="cc"
       inkscape:connector-curvature="0"
       id="path3057"
       d="m 167.91106,929.38427 0,72.26173"
       style="fill:none;stroke:#000000;stroke-width:1px;stroke-linecap:butt;stroke-linejoin:miter;stroke-opacity:1" />
    <path
       sodipodi:nodetypes="cc"
       inkscape:connector-curvature="0"
       id="path3145"
       d="m 287.39764,966.57765 0,15.72245"
       style="fill:none;stroke:#000000;stroke-width:1px;stroke-linecap:butt;stroke-linejoin:miter;stroke-opacity:1" />
    <g
       id="g4996"
       transform="matrix(0.68616207,0,0,0.72054088,70.923695,892.35351)"
       ns0:preamble="/home/sriranga/Desktop/general-books/CSY/article4/figure/package.tex"
       ns0:text="$\\mu$">
      <defs
         id="defs4998">
        <g
           id="g5000">
          <symbol
             id="textext-111d8a80-0"
             overflow="visible"
             style="overflow:visible">
            <path
               id="path5003"
               d=""
               style="stroke:none"
               inkscape:connector-curvature="0" />
          </symbol>
          <symbol
             id="textext-111d8a80-1"
             overflow="visible"
             style="overflow:visible">
            <path
               id="path5006"
               d="m 4.9375,-0.765625 c 0,-0.0625 -0.015625,-0.09375 -0.046875,-0.09375 C 4.75,-0.859375 4.75,-0.265625 4.21875,-0.265625 4.0625,-0.265625 4,-0.40625 4,-0.59375 c 0,-0.25 0.109375,-0.625 0.203125,-1.03125 L 4.90625,-4.390625 4.03125,-4.25 l -0.796875,3 C 3.21875,-1.203125 2.625,-0.375 2.03125,-0.375 c -0.578125,0 -0.75,-0.515625 -0.75,-0.90625 0,-0.109375 0.015625,-0.21875 0.03125,-0.3125 l 0.71875,-2.796875 -0.75,0.125 L 0.203125,0 c -0.21875,0.8125 -0.609375,1.890625 -0.6875,2.0625 l 0.875,0 0.640625,-2.484375 c 0,0 0.046875,0.53125 0.765625,0.53125 0.796875,0 1.28125,-0.78125 1.390625,-0.90625 -0.015625,0.078125 -0.03125,0.15625 -0.03125,0.21875 0,0.65625 0.609375,0.6875 0.78125,0.6875 l 0.03125,0 c 0.6875,0 0.96875,-0.640625 0.96875,-0.875 z m 0,0"
               style="stroke:none"
               inkscape:connector-curvature="0" />
          </symbol>
        </g>
      </defs>
      <g
         id="textext-111d8a80-2">
        <g
           id="g5009"
           style="fill:#000000;fill-opacity:1">
          <use
             id="use5011"
             y="134.765"
             x="223.43201"
             xlink:href="#textext-111d8a80-1"
             width="460.62991"
             height="212.59842" />
        </g>
      </g>
    </g>
    <g
       ns0:text="$\\mu+\\sigma$"
       ns0:preamble="/home/sriranga/Desktop/general-books/CSY/article4/figure/package.tex"
       transform="matrix(0.68616207,0,0,0.72054088,113.97604,891.19085)"
       id="g5317">
      <defs
         id="defs5319">
        <g
           id="g5321">
          <symbol
             style="overflow:visible"
             overflow="visible"
             id="textext-1bd84982-0">
            <path
               inkscape:connector-curvature="0"
               style="stroke:none"
               d=""
               id="path5324" />
          </symbol>
          <symbol
             style="overflow:visible"
             overflow="visible"
             id="textext-1bd84982-1">
            <path
               inkscape:connector-curvature="0"
               style="stroke:none"
               d="m 4.9375,-0.765625 c 0,-0.0625 -0.015625,-0.09375 -0.046875,-0.09375 C 4.75,-0.859375 4.75,-0.265625 4.21875,-0.265625 4.0625,-0.265625 4,-0.40625 4,-0.59375 c 0,-0.25 0.109375,-0.625 0.203125,-1.03125 L 4.90625,-4.390625 4.03125,-4.25 l -0.796875,3 C 3.21875,-1.203125 2.625,-0.375 2.03125,-0.375 c -0.578125,0 -0.75,-0.515625 -0.75,-0.90625 0,-0.109375 0.015625,-0.21875 0.03125,-0.3125 l 0.71875,-2.796875 -0.75,0.125 L 0.203125,0 c -0.21875,0.8125 -0.609375,1.890625 -0.6875,2.0625 l 0.875,0 0.640625,-2.484375 c 0,0 0.046875,0.53125 0.765625,0.53125 0.796875,0 1.28125,-0.78125 1.390625,-0.90625 -0.015625,0.078125 -0.03125,0.15625 -0.03125,0.21875 0,0.65625 0.609375,0.6875 0.78125,0.6875 l 0.03125,0 c 0.6875,0 0.96875,-0.640625 0.96875,-0.875 z m 0,0"
               id="path5327" />
          </symbol>
          <symbol
             style="overflow:visible"
             overflow="visible"
             id="textext-1bd84982-2">
            <path
               inkscape:connector-curvature="0"
               style="stroke:none"
               d="m 6.734375,-4.390625 -3.640625,0 c -1.5,0 -2.84375,1.25 -2.84375,2.921875 0,1.015625 0.53125,1.578125 1.546875,1.578125 1.234375,0 2.765625,-1.1875 2.765625,-2.953125 0,-0.578125 -0.203125,-0.796875 -0.203125,-0.8125 l 2.1875,0 z m -2.9375,1.546875 c 0,1.484375 -0.828125,2.703125 -1.859375,2.703125 -0.765625,0 -0.859375,-1 -0.859375,-1.296875 0,-1.921875 1.03125,-2.6875 1.765625,-2.6875 0.359375,0 0.953125,0.09375 0.953125,1.28125 z m 0,0"
               id="path5330" />
          </symbol>
          <symbol
             style="overflow:visible"
             overflow="visible"
             id="textext-1bd84982-3">
            <path
               inkscape:connector-curvature="0"
               style="stroke:none"
               d=""
               id="path5333" />
          </symbol>
          <symbol
             style="overflow:visible"
             overflow="visible"
             id="textext-1bd84982-4">
            <path
               inkscape:connector-curvature="0"
               style="stroke:none"
               d="m 5.71875,-2.28125 0,-0.5625 -2.265625,0 0,-2.25 -0.5625,0 0,2.25 -2.265625,0 0,0.5625 2.265625,0 0,2.28125 0.5625,0 0,-2.28125 z m 0,0"
               id="path5336" />
          </symbol>
        </g>
      </defs>
      <g
         id="textext-1bd84982-5">
        <g
           style="fill:#000000;fill-opacity:1"
           id="g5339">
          <use
             height="212.59842"
             width="460.62991"
             xlink:href="#textext-1bd84982-1"
             x="223.43201"
             y="134.765"
             id="use5341" />
        </g>
        <g
           style="fill:#000000;fill-opacity:1"
           id="g5343">
          <use
             height="212.59842"
             width="460.62991"
             xlink:href="#textext-1bd84982-4"
             x="230.976"
             y="134.765"
             id="use5345" />
        </g>
        <g
           style="fill:#000000;fill-opacity:1"
           id="g5347">
          <use
             height="212.59842"
             width="460.62991"
             xlink:href="#textext-1bd84982-2"
             x="239.526"
             y="134.765"
             id="use5349" />
        </g>
      </g>
    </g>
    <path
       sodipodi:nodetypes="ccccc"
       inkscape:connector-curvature="0"
       id="path3182"
       d="m 275.02259,981.57944 39.20368,-0.0103 0.29699,-4.44978 c -14.26608,-2.13484 -31.58688,-11.12394 -39.3194,-19.53146 z"
       style="fill:#b3b3b3;stroke:#000000;stroke-width:0;stroke-linecap:butt;stroke-linejoin:miter;stroke-miterlimit:4;stroke-opacity:1;stroke-dasharray:none" />
    <g
       id="g3363"
       transform="matrix(1.2,0,0,1.2,119.15334,792.96011)"
       ns0:preamble="/home/sriranga/Desktop/general-books/CSY/article4/figure/package.tex"
       ns0:text="$\\approx .16$">
      <defs
         id="defs3365">
        <g
           id="g3367">
          <symbol
             id="textext-69cd654d-0"
             overflow="visible"
             style="overflow:visible">
            <path
               id="path3370"
               d=""
               style="stroke:none"
               inkscape:connector-curvature="0" />
          </symbol>
          <symbol
             id="textext-69cd654d-1"
             overflow="visible"
             style="overflow:visible">
            <path
               id="path3373"
               d="M 5.796875,-4.28125 5.59375,-4.359375 C 5.4375,-3.78125 5.125,-3.28125 4.46875,-3.28125 c -0.78125,0 -1.4375,-1.09375 -2.328125,-1.09375 -0.875,0 -1.328125,0.53125 -1.5625,1.328125 L 0.78125,-2.96875 C 1,-3.484375 1.359375,-3.859375 1.9375,-3.859375 c 0.78125,0 1.359375,1.09375 2.328125,1.09375 0.953125,0 1.390625,-0.625 1.53125,-1.515625 z M 5.78125,-2.25 5.578125,-2.34375 c -0.15625,0.578125 -0.46875,1.09375 -1.125,1.09375 -0.78125,0 -1.4375,-1.109375 -2.328125,-1.109375 -0.875,0 -1.34375,0.53125 -1.5625,1.328125 l 0.203125,0.078125 c 0.21875,-0.515625 0.578125,-0.875 1.171875,-0.875 0.78125,0 1.359375,1.078125 2.3125,1.078125 0.96875,0 1.390625,-0.609375 1.53125,-1.5 z m 0,0"
               style="stroke:none"
               inkscape:connector-curvature="0" />
          </symbol>
          <symbol
             id="textext-69cd654d-2"
             overflow="visible"
             style="overflow:visible">
            <path
               id="path3376"
               d=""
               style="stroke:none"
               inkscape:connector-curvature="0" />
          </symbol>
          <symbol
             id="textext-69cd654d-3"
             overflow="visible"
             style="overflow:visible">
            <path
               id="path3379"
               d="M 1.796875,-0.421875 C 1.796875,-0.734375 1.546875,-1 1.25,-1 c -0.296875,0 -0.546875,0.25 -0.546875,0.578125 0,0.375 0.328125,0.53125 0.546875,0.53125 0.203125,0 0.546875,-0.171875 0.546875,-0.53125 z m 0,0"
               style="stroke:none"
               inkscape:connector-curvature="0" />
          </symbol>
          <symbol
             id="textext-69cd654d-4"
             overflow="visible"
             style="overflow:visible">
            <path
               id="path3382"
               d=""
               style="stroke:none"
               inkscape:connector-curvature="0" />
          </symbol>
          <symbol
             id="textext-69cd654d-5"
             overflow="visible"
             style="overflow:visible">
            <path
               id="path3385"
               d="m 2.90625,-6.734375 -1.796875,0.90625 0,0.140625 C 1.21875,-5.734375 1.328125,-5.78125 1.375,-5.796875 1.5625,-5.875 1.71875,-5.90625 1.828125,-5.90625 2.03125,-5.90625 2.125,-5.765625 2.125,-5.4375 l 0,4.515625 c 0,0.328125 -0.078125,0.546875 -0.234375,0.640625 -0.15625,0.09375 -0.296875,0.125 -0.71875,0.125 l 0,0.15625 2.75,0 0,-0.15625 c -0.78125,0 -0.9375,-0.109375 -0.9375,-0.578125 l 0,-5.984375 z m 0,0"
               style="stroke:none"
               inkscape:connector-curvature="0" />
          </symbol>
          <symbol
             id="textext-69cd654d-6"
             overflow="visible"
             style="overflow:visible">
            <path
               id="path3388"
               d="M 4.453125,-6.8125 C 3.3125,-6.71875 2.734375,-6.53125 2,-6.015625 0.921875,-5.25 0.34375,-4.109375 0.34375,-2.78125 c 0,0.875 0.265625,1.75 0.6875,2.25 0.390625,0.4375 0.921875,0.671875 1.546875,0.671875 1.234375,0 2.09375,-0.953125 2.09375,-2.328125 0,-1.265625 -0.734375,-2.078125 -1.875,-2.078125 -0.4375,0 -0.65625,0.0625 -1.28125,0.453125 C 1.78125,-5.328125 2.90625,-6.40625 4.46875,-6.65625 z m -2.046875,3 c 0.859375,0 1.359375,0.71875 1.359375,1.96875 0,1.09375 -0.390625,1.703125 -1.078125,1.703125 -0.890625,0 -1.421875,-0.9375 -1.421875,-2.484375 0,-0.5 0.078125,-0.78125 0.28125,-0.9375 C 1.75,-3.71875 2.0625,-3.8125 2.40625,-3.8125 z m 0,0"
               style="stroke:none"
               inkscape:connector-curvature="0" />
          </symbol>
        </g>
      </defs>
      <g
         id="textext-69cd654d-7">
        <g
           id="g3391"
           style="fill:#000000;fill-opacity:1">
          <use
             id="use3393"
             y="134.765"
             x="223.43201"
             xlink:href="#textext-69cd654d-1"
             width="460.62991"
             height="212.59842" />
        </g>
        <g
           id="g3395"
           style="fill:#000000;fill-opacity:1">
          <use
             id="use3397"
             y="134.765"
             x="232.536"
             xlink:href="#textext-69cd654d-3"
             width="460.62991"
             height="212.59842" />
        </g>
        <g
           id="g3399"
           style="fill:#000000;fill-opacity:1">
          <use
             id="use3401"
             y="134.765"
             x="235.026"
             xlink:href="#textext-69cd654d-5"
             width="460.62991"
             height="212.59842" />
          <use
             id="use3403"
             y="134.765"
             x="240.00729"
             xlink:href="#textext-69cd654d-6"
             width="460.62991"
             height="212.59842" />
        </g>
      </g>
    </g>
  </g>
</svg>
