<?xml version="1.0" encoding="UTF-8" standalone="no"?>
<!-- Created with Inkscape (http://www.inkscape.org/) -->

<svg
   xmlns:ns0="http://www.iki.fi/pav/software/textext/"
   xmlns:dc="http://purl.org/dc/elements/1.1/"
   xmlns:cc="http://creativecommons.org/ns#"
   xmlns:rdf="http://www.w3.org/1999/02/22-rdf-syntax-ns#"
   xmlns:svg="http://www.w3.org/2000/svg"
   xmlns="http://www.w3.org/2000/svg"
   xmlns:xlink="http://www.w3.org/1999/xlink"
   xmlns:sodipodi="http://sodipodi.sourceforge.net/DTD/sodipodi-0.dtd"
   xmlns:inkscape="http://www.inkscape.org/namespaces/inkscape"
   width="460.62991"
   height="212.59842"
   id="svg2"
   version="1.1"
   inkscape:version="0.48.4 r9939"
   sodipodi:docname="fig8.svg">
  <sodipodi:namedview
     id="base"
     pagecolor="#ffffff"
     bordercolor="#666666"
     borderopacity="1.0"
     inkscape:pageopacity="0.0"
     inkscape:pageshadow="2"
     inkscape:zoom="1.9343523"
     inkscape:cx="402.44947"
     inkscape:cy="111.03382"
     inkscape:document-units="px"
     inkscape:current-layer="layer1"
     showgrid="false"
     units="cm"
     inkscape:window-width="1024"
     inkscape:window-height="744"
     inkscape:window-x="0"
     inkscape:window-y="24"
     inkscape:window-maximized="1" />
  <defs
     id="defs4">
    <marker
       inkscape:stockid="Arrow1Mstart"
       orient="auto"
       refY="0"
       refX="0"
       id="Arrow1Mstart"
       style="overflow:visible">
      <path
         id="path3950"
         d="M 0,0 5,-5 -12.5,0 5,5 0,0 z"
         style="fill-rule:evenodd;stroke:#000000;stroke-width:1pt"
         transform="matrix(0.4,0,0,0.4,4,0)"
         inkscape:connector-curvature="0" />
    </marker>
    <marker
       style="overflow:visible"
       id="Arrow1Mend"
       refX="0"
       refY="0"
       orient="auto"
       inkscape:stockid="Arrow1Mend">
      <path
         transform="matrix(-0.4,0,0,-0.4,-4,0)"
         style="fill-rule:evenodd;stroke:#000000;stroke-width:1pt"
         d="M 0,0 5,-5 -12.5,0 5,5 0,0 z"
         id="path3776"
         inkscape:connector-curvature="0" />
    </marker>
  </defs>
  <metadata
     id="metadata7">
    <rdf:RDF>
      <cc:Work
         rdf:about="">
        <dc:format>image/svg+xml</dc:format>
        <dc:type
           rdf:resource="http://purl.org/dc/dcmitype/StillImage" />
        <dc:title></dc:title>
      </cc:Work>
    </rdf:RDF>
  </metadata>
  <g
     transform="translate(0,-839.76245)"
     id="layer1"
     inkscape:groupmode="layer"
     inkscape:label="Layer 1">
    <path
       sodipodi:nodetypes="cc"
       inkscape:connector-curvature="0"
       id="path2985"
       d="m 182.71971,980.00502 187.12889,0"
       style="fill:none;stroke:#000000;stroke-width:1px;stroke-linecap:butt;stroke-linejoin:miter;stroke-opacity:1" />
    <path
       sodipodi:nodetypes="cssc"
       inkscape:connector-curvature="0"
       id="path2987"
       d="m 182.45189,974.72945 c 0.50682,-0.0668 8.24723,-0.71939 8.74615,-0.79453 52.6643,-7.93187 61.52611,-61.93173 88.66025,-62.26699 29.34528,-0.36258 31.65684,51.679 90.33673,64.12323"
       style="fill:none;stroke:#000000;stroke-width:1px;stroke-linecap:butt;stroke-linejoin:miter;stroke-opacity:1" />
    <g
       id="g3187"
       transform="matrix(1.142745,0,0,1.2,17.878705,738.53617)"
       ns0:preamble="/home/sriranga/Desktop/general-books/CSY/article4/figure/package.tex"
       ns0:text="$f$">
      <defs
         id="defs3189">
        <g
           id="g3191">
          <symbol
             id="textext-770efaee-0"
             overflow="visible"
             style="overflow:visible">
            <path
               id="path3194"
               d=""
               style="stroke:none"
               inkscape:connector-curvature="0" />
          </symbol>
          <symbol
             id="textext-770efaee-1"
             overflow="visible"
             style="overflow:visible">
            <path
               id="path3197"
               d="m 0.34375,-3.953125 0.90625,0 -0.875,4.1875 c -0.21875,1.078125 -0.546875,1.625 -0.96875,1.625 -0.125,0 -0.203125,-0.078125 -0.203125,-0.171875 0,-0.015625 0.015625,-0.046875 0.046875,-0.109375 0.03125,-0.046875 0.046875,-0.09375 0.046875,-0.15625 0,-0.203125 -0.1875,-0.375 -0.390625,-0.375 -0.21875,0 -0.375,0.171875 -0.375,0.40625 0,0.34375 0.359375,0.609375 0.796875,0.609375 0.875,0 1.578125,-0.984375 1.984375,-2.8125 l 0.71875,-3.203125 1.09375,0 0.0625,-0.3125 -1.078125,0 c 0.28125,-1.5625 0.65625,-2.28125 1.203125,-2.28125 0.140625,0 0.21875,0.0625 0.21875,0.125 0,0.03125 0,0.046875 -0.03125,0.109375 -0.046875,0.078125 -0.0625,0.125 -0.0625,0.203125 0,0.234375 0.15625,0.390625 0.375,0.390625 0.21875,0 0.421875,-0.171875 0.421875,-0.390625 0,-0.375 -0.375,-0.65625 -0.859375,-0.65625 -0.5,0 -0.875,0.21875 -1.234375,0.6875 -0.3125,0.390625 -0.5,0.859375 -0.8125,1.8125 l -0.90625,0 z m 0,0"
               style="stroke:none"
               inkscape:connector-curvature="0" />
          </symbol>
        </g>
      </defs>
      <g
         id="textext-770efaee-2">
        <g
           id="g3200"
           style="fill:#000000;fill-opacity:1">
          <use
             id="use3202"
             y="134.765"
             x="224.92599"
             xlink:href="#textext-770efaee-1"
             width="460.62991"
             height="212.59842" />
        </g>
      </g>
    </g>
    <path
       sodipodi:nodetypes="cc"
       inkscape:connector-curvature="0"
       id="path3411"
       d="m 279.93608,900.89272 0,104.59988"
       style="fill:none;stroke:#000000;stroke-width:1px;stroke-linecap:butt;stroke-linejoin:miter;stroke-opacity:1" />
    <path
       style="fill:#cccccc;stroke:#000000;stroke-width:0;stroke-linecap:butt;stroke-linejoin:miter;stroke-miterlimit:4;stroke-opacity:1;stroke-dasharray:none"
       d="m 325.21768,979.61295 44.63339,-0.0458 0.23826,-4.97545 c -23.97156,-3.00625 -44.17095,-21.46246 -44.17095,-21.46246 z"
       id="path3053"
       inkscape:connector-curvature="0"
       sodipodi:nodetypes="ccccc" />
    <path
       sodipodi:nodetypes="cc"
       inkscape:connector-curvature="0"
       id="path3055"
       d="m 325.40977,920.42049 0,59.94607"
       style="fill:none;stroke:#000000;stroke-width:1px;stroke-linecap:butt;stroke-linejoin:miter;stroke-opacity:1" />
    <path
       sodipodi:nodetypes="cc"
       inkscape:connector-curvature="0"
       id="path4826"
       d="m 334.07266,971.19673 c 20.83996,-13.30867 20.92658,-13.41071 35.67086,-22.22966"
       style="fill:none;stroke:#000000;stroke-width:1px;stroke-linecap:butt;stroke-linejoin:miter;stroke-opacity:1;marker-start:url(#Arrow1Mstart)" />
    <g
       ns0:text="$z_{a}$"
       ns0:preamble="/home/sriranga/Desktop/general-books/CSY/article4/figure/package.tex"
       transform="matrix(1.2,0,0,1.2,17.124624,829.2552)"
       id="g3218">
      <defs
         id="defs3220">
        <g
           id="g3222">
          <symbol
             overflow="visible"
             id="textext-e125f38a-0">
            <path
               style="stroke:none;"
               d=""
               id="path3225" />
          </symbol>
          <symbol
             overflow="visible"
             id="textext-e125f38a-1">
            <path
               style="stroke:none;"
               d="M 0.8125 -3.078125 C 1.015625 -3.578125 1.140625 -3.671875 1.609375 -3.671875 L 3.078125 -3.671875 L -0.015625 0.046875 L 0.0625 0.125 C 0.234375 0 0.359375 -0.046875 0.53125 -0.046875 C 0.765625 -0.046875 1.09375 0.078125 1.5625 0.375 C 2.0625 0.671875 2.40625 0.8125 2.6875 0.8125 C 3.1875 0.8125 3.625 0.453125 3.625 0.046875 C 3.625 -0.15625 3.484375 -0.3125 3.265625 -0.3125 C 3.078125 -0.3125 2.9375 -0.171875 2.9375 0 C 2.9375 0.09375 2.953125 0.1875 3.015625 0.296875 C 3.046875 0.359375 3.078125 0.421875 3.078125 0.453125 C 3.078125 0.53125 2.953125 0.59375 2.796875 0.59375 C 2.546875 0.59375 2.4375 0.515625 2.109375 0.09375 C 1.671875 -0.46875 1.46875 -0.59375 0.890625 -0.734375 L 3.78125 -4.15625 L 3.78125 -4.265625 L 0.953125 -4.265625 L 0.640625 -3.125 Z M 0.8125 -3.078125 "
               id="path3228" />
          </symbol>
          <symbol
             overflow="visible"
             id="textext-e125f38a-2">
            <path
               style="stroke:none;"
               d=""
               id="path3231" />
          </symbol>
          <symbol
             overflow="visible"
             id="textext-e125f38a-3">
            <path
               style="stroke:none;"
               d="M 3.234375 -0.765625 C 3.125 -0.65625 3.09375 -0.625 3.03125 -0.578125 C 2.828125 -0.359375 2.734375 -0.28125 2.671875 -0.28125 C 2.625 -0.28125 2.578125 -0.328125 2.578125 -0.375 C 2.578125 -0.515625 2.875 -1.703125 3.203125 -2.90625 C 3.21875 -2.96875 3.21875 -2.984375 3.234375 -3.046875 L 3.1875 -3.078125 L 2.765625 -3.03125 L 2.75 -3 L 2.671875 -2.671875 C 2.609375 -2.921875 2.40625 -3.078125 2.109375 -3.078125 C 1.1875 -3.078125 0.125 -1.796875 0.125 -0.703125 C 0.125 -0.203125 0.390625 0.078125 0.828125 0.078125 C 1.3125 0.078125 1.609375 -0.15625 2.234375 -1.015625 C 2.09375 -0.46875 2.0625 -0.390625 2.0625 -0.21875 C 2.0625 -0.015625 2.15625 0.0625 2.34375 0.0625 C 2.625 0.0625 2.796875 -0.0625 3.3125 -0.703125 Z M 2.15625 -2.921875 C 2.390625 -2.90625 2.546875 -2.734375 2.546875 -2.5 C 2.546875 -1.90625 2.1875 -1.09375 1.71875 -0.578125 C 1.546875 -0.390625 1.3125 -0.265625 1.109375 -0.265625 C 0.859375 -0.265625 0.703125 -0.46875 0.703125 -0.78125 C 0.703125 -1.15625 0.96875 -1.875 1.265625 -2.3125 C 1.546875 -2.71875 1.875 -2.9375 2.15625 -2.921875 Z M 2.15625 -2.921875 "
               id="path3234" />
          </symbol>
        </g>
      </defs>
      <g
         id="textext-e125f38a-4">
        <g
           style="fill:rgb(0%,0%,0%);fill-opacity:1;"
           id="g3237">
          <use
             xlink:href="#textext-e125f38a-1"
             x="223.432"
             y="134.765"
             id="use3239" />
        </g>
        <g
           style="fill:rgb(0%,0%,0%);fill-opacity:1;"
           id="g3241">
          <use
             xlink:href="#textext-e125f38a-3"
             x="227.308"
             y="136.259"
             id="use3243" />
        </g>
      </g>
    </g>
    <text
       transform="translate(0,839.76245)"
       sodipodi:linespacing="125%"
       id="text3342"
       y="106.4055"
       x="379.62598"
       style="font-size:12px;font-style:normal;font-variant:normal;font-weight:normal;font-stretch:normal;line-height:125%;letter-spacing:0px;word-spacing:0px;fill:#000000;fill-opacity:1;stroke:none;font-family:Nimbus Roman No9 L;-inkscape-font-specification:Nimbus Roman No9 L"
       xml:space="preserve"><tspan
         y="106.4055"
         x="379.62598"
         id="tspan3344"
         sodipodi:role="line">this area is </tspan></text>
    <g
       id="g3389"
       ns0:preamble="/home/sriranga/Desktop/general-books/CSY/article4/figure/package.tex"
       ns0:text="$\\alpha$"
       transform="matrix(1.2,0,0,1.2,165.1333,784.08353)">
      <defs
         id="defs3391">
        <g
           id="g3393">
          <symbol
             id="textext-933b50c8-0"
             overflow="visible"
             style="overflow:visible">
            <path
               id="path3396"
               d=""
               style="stroke:none"
               inkscape:connector-curvature="0" />
          </symbol>
          <symbol
             id="textext-933b50c8-1"
             overflow="visible"
             style="overflow:visible">
            <path
               id="path3399"
               d="M 5.828125,-4.09375 5.140625,-4 c -0.28125,0.765625 -1.0625,1.953125 -1.0625,1.953125 l -0.015625,0 c 0,0 0.171875,-0.4375 0.171875,-0.96875 0,-0.65625 -0.234375,-1.375 -1.296875,-1.375 -1.671875,0 -2.703125,1.765625 -2.703125,2.96875 0,0.84375 0.453125,1.53125 1.484375,1.53125 0.796875,0 1.390625,-0.609375 1.390625,-0.625 l 0.015625,0 c 0,0.09375 0.015625,0.609375 0.75,0.609375 0.796875,0 1.265625,-0.90625 1.265625,-1.125 0,-0.03125 -0.015625,-0.0625 -0.03125,-0.0625 -0.140625,0 -0.375,0.828125 -0.953125,0.828125 -0.21875,0 -0.28125,-0.25 -0.28125,-0.515625 0,-0.21875 0.046875,-0.4375 0.078125,-0.546875 0.140625,-0.1875 1.875,-2.765625 1.875,-2.765625 z m -2.3125,1.15625 c 0,0.9375 -0.375,2.03125 -0.375,2.046875 0,0 -0.515625,0.75 -1.265625,0.75 -0.21875,0 -0.765625,-0.0625 -0.765625,-1.34375 0,-0.515625 0.265625,-2.65625 1.65625,-2.65625 0.6875,0 0.75,0.84375 0.75,1.203125 z m 0,0"
               style="stroke:none"
               inkscape:connector-curvature="0" />
          </symbol>
        </g>
      </defs>
      <g
         id="textext-933b50c8-2">
        <g
           id="g3402"
           style="fill:#000000;fill-opacity:1">
          <use
             id="use3404"
             y="134.765"
             x="223.43201"
             xlink:href="#textext-933b50c8-1"
             width="460.62991"
             height="212.59842" />
        </g>
      </g>
    </g>
  </g>
</svg>
