<?xml version="1.0" encoding="UTF-8" standalone="no"?>
<!-- Created with Inkscape (http://www.inkscape.org/) -->

<svg
   xmlns:ns0="http://www.iki.fi/pav/software/textext/"
   xmlns:dc="http://purl.org/dc/elements/1.1/"
   xmlns:cc="http://creativecommons.org/ns#"
   xmlns:rdf="http://www.w3.org/1999/02/22-rdf-syntax-ns#"
   xmlns:svg="http://www.w3.org/2000/svg"
   xmlns="http://www.w3.org/2000/svg"
   xmlns:xlink="http://www.w3.org/1999/xlink"
   xmlns:sodipodi="http://sodipodi.sourceforge.net/DTD/sodipodi-0.dtd"
   xmlns:inkscape="http://www.inkscape.org/namespaces/inkscape"
   width="744.09448819"
   height="1052.3622047"
   id="svg2"
   version="1.1"
   inkscape:version="0.48.4 r9939"
   sodipodi:docname="New document 1">
  <sodipodi:namedview
     id="base"
     pagecolor="#ffffff"
     bordercolor="#666666"
     borderopacity="1.0"
     inkscape:pageopacity="0.0"
     inkscape:pageshadow="2"
     inkscape:zoom="2.8"
     inkscape:cx="391.70779"
     inkscape:cy="917.26468"
     inkscape:document-units="px"
     inkscape:current-layer="layer1"
     showgrid="false"
     inkscape:window-width="1024"
     inkscape:window-height="744"
     inkscape:window-x="0"
     inkscape:window-y="24"
     inkscape:window-maximized="1" />
  <defs
     id="defs4">
    <marker
       inkscape:stockid="Arrow1Mend"
       orient="auto"
       refY="0.0"
       refX="0.0"
       id="Arrow1Mend"
       style="overflow:visible;">
      <path
         id="path4023"
         d="M 0.0,0.0 L 5.0,-5.0 L -12.5,0.0 L 5.0,5.0 L 0.0,0.0 z "
         style="fill-rule:evenodd;stroke:#000000;stroke-width:1.0pt;"
         transform="scale(0.4) rotate(180) translate(10,0)" />
    </marker>
  </defs>
  <metadata
     id="metadata7">
    <rdf:RDF>
      <cc:Work
         rdf:about="">
        <dc:format>image/svg+xml</dc:format>
        <dc:type
           rdf:resource="http://purl.org/dc/dcmitype/StillImage" />
        <dc:title></dc:title>
      </cc:Work>
    </rdf:RDF>
  </metadata>
  <g
     id="layer1"
     inkscape:groupmode="layer"
     inkscape:label="Layer 1">
    <g
       id="g2990"
       ns0:preamble="/home/sriranga/Desktop/general-books/CSY/article4/figure/package.tex"
       ns0:text="$P(Y-\\mu&gt;6)&gt;P(Y-60\\geq 10)&gt;P(Y-\\mu&gt;26)$"
       transform="scale(1.200000,1.200000)">
      <defs
         id="defs2992">
        <g
           id="g2994">
          <symbol
             id="textext-a96a97fa-0"
             overflow="visible">
            <path
               id="path2997"
               d=""
               style="stroke:none;" />
          </symbol>
          <symbol
             id="textext-a96a97fa-1"
             overflow="visible">
            <path
               id="path3000"
               d="M 1.453125 -6.34375 C 2.03125 -6.28125 2.15625 -6.1875 2.15625 -5.9375 C 2.15625 -5.796875 2.125 -5.578125 2 -5.140625 L 0.8125 -0.890625 C 0.640625 -0.296875 0.5625 -0.234375 0 -0.15625 L 0 0 L 2.4375 0 L 2.4375 -0.15625 C 1.8125 -0.25 1.765625 -0.28125 1.765625 -0.625 C 1.765625 -0.734375 1.78125 -0.84375 1.890625 -1.203125 L 2.40625 -3.125 C 2.65625 -3.0625 2.921875 -3.046875 3.328125 -3.046875 C 4.140625 -3.046875 4.8125 -3.203125 5.25 -3.515625 C 5.734375 -3.890625 6.03125 -4.4375 6.03125 -5.03125 C 6.03125 -5.984375 5.28125 -6.515625 3.921875 -6.515625 L 1.453125 -6.515625 Z M 3.203125 -5.9375 C 3.265625 -6.140625 3.390625 -6.203125 3.671875 -6.203125 C 4.0625 -6.203125 4.4375 -6.109375 4.640625 -5.96875 C 4.890625 -5.796875 5 -5.5 5 -5.03125 C 5 -4.375 4.78125 -3.921875 4.34375 -3.65625 C 4.03125 -3.484375 3.640625 -3.40625 3.015625 -3.40625 C 2.84375 -3.40625 2.765625 -3.421875 2.5 -3.453125 Z M 3.203125 -5.9375 "
               style="stroke:none;" />
          </symbol>
          <symbol
             id="textext-a96a97fa-2"
             overflow="visible">
            <path
               id="path3003"
               d="M 0.90625 -6.34375 C 1.46875 -6.265625 1.5 -6.234375 1.671875 -5.6875 L 2.4375 -3.015625 L 1.828125 -0.890625 C 1.65625 -0.359375 1.4375 -0.203125 0.78125 -0.15625 L 0.78125 0 L 3.65625 0 L 3.65625 -0.15625 C 3.5 -0.171875 3.359375 -0.171875 3.296875 -0.1875 C 2.90625 -0.203125 2.765625 -0.3125 2.765625 -0.5625 C 2.765625 -0.765625 2.84375 -1.0625 3.078125 -1.84375 C 3.109375 -1.9375 3.125 -2 3.140625 -2.046875 L 3.421875 -3.046875 L 5.609375 -5.734375 C 5.9375 -6.140625 6.015625 -6.203125 6.3125 -6.34375 L 6.3125 -6.515625 L 4.421875 -6.515625 L 4.421875 -6.34375 C 4.546875 -6.34375 4.65625 -6.328125 4.6875 -6.3125 C 4.984375 -6.296875 5.109375 -6.203125 5.109375 -6.046875 C 5.109375 -5.765625 4.65625 -5.125 3.625 -3.921875 C 3.453125 -3.71875 3.390625 -3.640625 3.234375 -3.453125 C 3.125 -3.890625 3.09375 -4.03125 2.9375 -4.5625 C 2.6875 -5.40625 2.578125 -5.84375 2.578125 -5.984375 C 2.578125 -6.234375 2.6875 -6.296875 3.296875 -6.34375 L 3.296875 -6.515625 L 0.90625 -6.515625 Z M 0.90625 -6.34375 "
               style="stroke:none;" />
          </symbol>
          <symbol
             id="textext-a96a97fa-3"
             overflow="visible">
            <path
               id="path3006"
               d=""
               style="stroke:none;" />
          </symbol>
          <symbol
             id="textext-a96a97fa-4"
             overflow="visible">
            <path
               id="path3009"
               d="M 2.9375 -6.734375 C 2.203125 -6.265625 1.90625 -6 1.53125 -5.546875 C 0.828125 -4.671875 0.484375 -3.671875 0.484375 -2.515625 C 0.484375 -1.25 0.84375 -0.265625 1.71875 0.75 C 2.140625 1.21875 2.390625 1.453125 2.90625 1.765625 L 3.03125 1.609375 C 2.234375 0.984375 1.953125 0.625 1.6875 -0.125 C 1.453125 -0.78125 1.328125 -1.546875 1.328125 -2.546875 C 1.328125 -3.59375 1.46875 -4.40625 1.734375 -5.03125 C 2.015625 -5.640625 2.3125 -6 3.03125 -6.578125 Z M 2.9375 -6.734375 "
               style="stroke:none;" />
          </symbol>
          <symbol
             id="textext-a96a97fa-5"
             overflow="visible">
            <path
               id="path3012"
               d="M 4.453125 -6.8125 C 3.3125 -6.71875 2.734375 -6.53125 2 -6.015625 C 0.921875 -5.25 0.34375 -4.109375 0.34375 -2.78125 C 0.34375 -1.90625 0.609375 -1.03125 1.03125 -0.53125 C 1.421875 -0.09375 1.953125 0.140625 2.578125 0.140625 C 3.8125 0.140625 4.671875 -0.8125 4.671875 -2.1875 C 4.671875 -3.453125 3.9375 -4.265625 2.796875 -4.265625 C 2.359375 -4.265625 2.140625 -4.203125 1.515625 -3.8125 C 1.78125 -5.328125 2.90625 -6.40625 4.46875 -6.65625 Z M 2.40625 -3.8125 C 3.265625 -3.8125 3.765625 -3.09375 3.765625 -1.84375 C 3.765625 -0.75 3.375 -0.140625 2.6875 -0.140625 C 1.796875 -0.140625 1.265625 -1.078125 1.265625 -2.625 C 1.265625 -3.125 1.34375 -3.40625 1.546875 -3.5625 C 1.75 -3.71875 2.0625 -3.8125 2.40625 -3.8125 Z M 2.40625 -3.8125 "
               style="stroke:none;" />
          </symbol>
          <symbol
             id="textext-a96a97fa-6"
             overflow="visible">
            <path
               id="path3015"
               d="M 0.375 1.765625 C 1.109375 1.28125 1.421875 1.03125 1.78125 0.5625 C 2.5 -0.296875 2.84375 -1.296875 2.84375 -2.46875 C 2.84375 -3.734375 2.46875 -4.703125 1.59375 -5.71875 C 1.1875 -6.203125 0.921875 -6.421875 0.40625 -6.734375 L 0.296875 -6.578125 C 1.09375 -5.953125 1.359375 -5.609375 1.640625 -4.859375 C 1.875 -4.1875 1.984375 -3.421875 1.984375 -2.4375 C 1.984375 -1.390625 1.859375 -0.5625 1.578125 0.046875 C 1.3125 0.671875 1 1.03125 0.296875 1.609375 Z M 0.375 1.765625 "
               style="stroke:none;" />
          </symbol>
          <symbol
             id="textext-a96a97fa-7"
             overflow="visible">
            <path
               id="path3018"
               d="M 2.53125 -6.734375 C 1.984375 -6.734375 1.5625 -6.5625 1.203125 -6.21875 C 0.625 -5.65625 0.234375 -4.515625 0.234375 -3.34375 C 0.234375 -2.265625 0.5625 -1.09375 1.03125 -0.53125 C 1.40625 -0.09375 1.90625 0.140625 2.5 0.140625 C 3 0.140625 3.421875 -0.03125 3.78125 -0.375 C 4.359375 -0.921875 4.75 -2.078125 4.75 -3.296875 C 4.75 -5.328125 3.84375 -6.734375 2.53125 -6.734375 Z M 2.5 -6.484375 C 3.34375 -6.484375 3.78125 -5.359375 3.78125 -3.265625 C 3.78125 -1.1875 3.34375 -0.125 2.5 -0.125 C 1.640625 -0.125 1.203125 -1.1875 1.203125 -3.265625 C 1.203125 -5.375 1.640625 -6.484375 2.5 -6.484375 Z M 2.5 -6.484375 "
               style="stroke:none;" />
          </symbol>
          <symbol
             id="textext-a96a97fa-8"
             overflow="visible">
            <path
               id="path3021"
               d="M 2.90625 -6.734375 L 1.109375 -5.828125 L 1.109375 -5.6875 C 1.21875 -5.734375 1.328125 -5.78125 1.375 -5.796875 C 1.5625 -5.875 1.71875 -5.90625 1.828125 -5.90625 C 2.03125 -5.90625 2.125 -5.765625 2.125 -5.4375 L 2.125 -0.921875 C 2.125 -0.59375 2.046875 -0.375 1.890625 -0.28125 C 1.734375 -0.1875 1.59375 -0.15625 1.171875 -0.15625 L 1.171875 0 L 3.921875 0 L 3.921875 -0.15625 C 3.140625 -0.15625 2.984375 -0.265625 2.984375 -0.734375 L 2.984375 -6.71875 Z M 2.90625 -6.734375 "
               style="stroke:none;" />
          </symbol>
          <symbol
             id="textext-a96a97fa-9"
             overflow="visible">
            <path
               id="path3024"
               d="M 4.734375 -1.359375 L 4.609375 -1.421875 C 4.234375 -0.84375 4.109375 -0.75 3.65625 -0.75 L 1.28125 -0.75 L 2.953125 -2.515625 C 3.84375 -3.4375 4.234375 -4.203125 4.234375 -4.96875 C 4.234375 -5.96875 3.421875 -6.734375 2.375 -6.734375 C 1.828125 -6.734375 1.3125 -6.515625 0.953125 -6.125 C 0.625 -5.78125 0.484375 -5.46875 0.3125 -4.75 L 0.515625 -4.703125 C 0.921875 -5.6875 1.28125 -6 1.96875 -6 C 2.796875 -6 3.375 -5.4375 3.375 -4.59375 C 3.375 -3.8125 2.90625 -2.890625 2.078125 -2 L 0.296875 -0.125 L 0.296875 0 L 4.1875 0 Z M 4.734375 -1.359375 "
               style="stroke:none;" />
          </symbol>
          <symbol
             id="textext-a96a97fa-10"
             overflow="visible">
            <path
               id="path3027"
               d=""
               style="stroke:none;" />
          </symbol>
          <symbol
             id="textext-a96a97fa-11"
             overflow="visible">
            <path
               id="path3030"
               d="M 5.71875 -2.28125 L 5.71875 -2.84375 L 0.625 -2.84375 L 0.625 -2.28125 Z M 5.71875 -2.28125 "
               style="stroke:none;" />
          </symbol>
          <symbol
             id="textext-a96a97fa-12"
             overflow="visible">
            <path
               id="path3033"
               d="M 5.71875 -3.125 L 5.71875 -3.3125 L 0.625 -5.71875 L 0.625 -5.15625 L 4.765625 -3.203125 L 0.625 -1.265625 L 0.625 -0.703125 Z M 5.71875 0.578125 L 5.71875 0.046875 L 0.625 0.046875 L 0.625 0.578125 Z M 5.71875 0.578125 "
               style="stroke:none;" />
          </symbol>
          <symbol
             id="textext-a96a97fa-13"
             overflow="visible">
            <path
               id="path3036"
               d=""
               style="stroke:none;" />
          </symbol>
          <symbol
             id="textext-a96a97fa-14"
             overflow="visible">
            <path
               id="path3039"
               d="M 4.9375 -0.765625 C 4.9375 -0.828125 4.921875 -0.859375 4.890625 -0.859375 C 4.75 -0.859375 4.75 -0.265625 4.21875 -0.265625 C 4.0625 -0.265625 4 -0.40625 4 -0.59375 C 4 -0.84375 4.109375 -1.21875 4.203125 -1.625 L 4.90625 -4.390625 L 4.03125 -4.25 L 3.234375 -1.25 C 3.21875 -1.203125 2.625 -0.375 2.03125 -0.375 C 1.453125 -0.375 1.28125 -0.890625 1.28125 -1.28125 C 1.28125 -1.390625 1.296875 -1.5 1.3125 -1.59375 L 2.03125 -4.390625 L 1.28125 -4.265625 L 0.203125 0 C -0.015625 0.8125 -0.40625 1.890625 -0.484375 2.0625 L 0.390625 2.0625 L 1.03125 -0.421875 C 1.03125 -0.421875 1.078125 0.109375 1.796875 0.109375 C 2.59375 0.109375 3.078125 -0.671875 3.1875 -0.796875 C 3.171875 -0.71875 3.15625 -0.640625 3.15625 -0.578125 C 3.15625 0.078125 3.765625 0.109375 3.9375 0.109375 L 3.96875 0.109375 C 4.65625 0.109375 4.9375 -0.53125 4.9375 -0.765625 Z M 4.9375 -0.765625 "
               style="stroke:none;" />
          </symbol>
          <symbol
             id="textext-a96a97fa-15"
             overflow="visible">
            <path
               id="path3042"
               d="M 5.71875 -2.46875 L 5.71875 -2.65625 L 0.625 -5.0625 L 0.625 -4.5 L 4.765625 -2.5625 L 0.625 -0.625 L 0.625 -0.0625 Z M 5.71875 -2.46875 "
               style="stroke:none;" />
          </symbol>
        </g>
      </defs>
      <g
         id="textext-a96a97fa-16">
        <g
           id="g3045"
           style="fill:rgb(0%,0%,0%);fill-opacity:1;">
          <use
             id="use3047"
             y="134.765"
             x="223.681"
             xlink:href="#textext-a96a97fa-1" />
        </g>
        <g
           id="g3049"
           style="fill:rgb(0%,0%,0%);fill-opacity:1;">
          <use
             id="use3051"
             y="134.765"
             x="229.768"
             xlink:href="#textext-a96a97fa-4" />
        </g>
        <g
           id="g3053"
           style="fill:rgb(0%,0%,0%);fill-opacity:1;">
          <use
             id="use3055"
             y="134.765"
             x="233.086"
             xlink:href="#textext-a96a97fa-2" />
        </g>
        <g
           id="g3057"
           style="fill:rgb(0%,0%,0%);fill-opacity:1;">
          <use
             id="use3059"
             y="134.765"
             x="241.606"
             xlink:href="#textext-a96a97fa-11" />
        </g>
        <g
           id="g3061"
           style="fill:rgb(0%,0%,0%);fill-opacity:1;">
          <use
             id="use3063"
             y="134.765"
             x="250.156"
             xlink:href="#textext-a96a97fa-14" />
        </g>
        <g
           id="g3065"
           style="fill:rgb(0%,0%,0%);fill-opacity:1;">
          <use
             id="use3067"
             y="134.765"
             x="258.255594"
             xlink:href="#textext-a96a97fa-15" />
        </g>
        <g
           id="g3069"
           style="fill:rgb(0%,0%,0%);fill-opacity:1;">
          <use
             id="use3071"
             y="134.765"
             x="267.357"
             xlink:href="#textext-a96a97fa-5" />
          <use
             id="use3073"
             y="134.765"
             x="272.3383"
             xlink:href="#textext-a96a97fa-6" />
        </g>
        <g
           id="g3075"
           style="fill:rgb(0%,0%,0%);fill-opacity:1;">
          <use
             id="use3077"
             y="134.765"
             x="278.423"
             xlink:href="#textext-a96a97fa-15" />
        </g>
        <g
           id="g3079"
           style="fill:rgb(0%,0%,0%);fill-opacity:1;">
          <use
             id="use3081"
             y="134.765"
             x="287.776"
             xlink:href="#textext-a96a97fa-1" />
        </g>
        <g
           id="g3083"
           style="fill:rgb(0%,0%,0%);fill-opacity:1;">
          <use
             id="use3085"
             y="134.765"
             x="293.863"
             xlink:href="#textext-a96a97fa-4" />
        </g>
        <g
           id="g3087"
           style="fill:rgb(0%,0%,0%);fill-opacity:1;">
          <use
             id="use3089"
             y="134.765"
             x="297.181"
             xlink:href="#textext-a96a97fa-2" />
        </g>
        <g
           id="g3091"
           style="fill:rgb(0%,0%,0%);fill-opacity:1;">
          <use
             id="use3093"
             y="134.765"
             x="305.701"
             xlink:href="#textext-a96a97fa-11" />
        </g>
        <g
           id="g3095"
           style="fill:rgb(0%,0%,0%);fill-opacity:1;">
          <use
             id="use3097"
             y="134.765"
             x="314.251"
             xlink:href="#textext-a96a97fa-5" />
          <use
             id="use3099"
             y="134.765"
             x="319.2323"
             xlink:href="#textext-a96a97fa-7" />
        </g>
        <g
           id="g3101"
           style="fill:rgb(0%,0%,0%);fill-opacity:1;">
          <use
             id="use3103"
             y="134.765"
             x="326.981"
             xlink:href="#textext-a96a97fa-12" />
        </g>
        <g
           id="g3105"
           style="fill:rgb(0%,0%,0%);fill-opacity:1;">
          <use
             id="use3107"
             y="134.765"
             x="336.084"
             xlink:href="#textext-a96a97fa-8" />
          <use
             id="use3109"
             y="134.765"
             x="341.0653"
             xlink:href="#textext-a96a97fa-7" />
          <use
             id="use3111"
             y="134.765"
             x="346.0466"
             xlink:href="#textext-a96a97fa-6" />
        </g>
        <g
           id="g3113"
           style="fill:rgb(0%,0%,0%);fill-opacity:1;">
          <use
             id="use3115"
             y="134.765"
             x="352.132"
             xlink:href="#textext-a96a97fa-15" />
        </g>
        <g
           id="g3117"
           style="fill:rgb(0%,0%,0%);fill-opacity:1;">
          <use
             id="use3119"
             y="134.765"
             x="361.485"
             xlink:href="#textext-a96a97fa-1" />
        </g>
        <g
           id="g3121"
           style="fill:rgb(0%,0%,0%);fill-opacity:1;">
          <use
             id="use3123"
             y="134.765"
             x="367.572"
             xlink:href="#textext-a96a97fa-4" />
        </g>
        <g
           id="g3125"
           style="fill:rgb(0%,0%,0%);fill-opacity:1;">
          <use
             id="use3127"
             y="134.765"
             x="370.889"
             xlink:href="#textext-a96a97fa-2" />
        </g>
        <g
           id="g3129"
           style="fill:rgb(0%,0%,0%);fill-opacity:1;">
          <use
             id="use3131"
             y="134.765"
             x="379.41"
             xlink:href="#textext-a96a97fa-11" />
        </g>
        <g
           id="g3133"
           style="fill:rgb(0%,0%,0%);fill-opacity:1;">
          <use
             id="use3135"
             y="134.765"
             x="387.96"
             xlink:href="#textext-a96a97fa-14" />
        </g>
        <g
           id="g3137"
           style="fill:rgb(0%,0%,0%);fill-opacity:1;">
          <use
             id="use3139"
             y="134.765"
             x="396.059594"
             xlink:href="#textext-a96a97fa-15" />
        </g>
        <g
           id="g3141"
           style="fill:rgb(0%,0%,0%);fill-opacity:1;">
          <use
             id="use3143"
             y="134.765"
             x="405.161"
             xlink:href="#textext-a96a97fa-9" />
          <use
             id="use3145"
             y="134.765"
             x="410.1423"
             xlink:href="#textext-a96a97fa-5" />
          <use
             id="use3147"
             y="134.765"
             x="415.1236"
             xlink:href="#textext-a96a97fa-6" />
        </g>
      </g>
    </g>
    <path
       style="fill:none;stroke:#000000;stroke-width:1px;stroke-linecap:butt;stroke-linejoin:miter;stroke-opacity:1;marker-end:url(#Arrow1Mend)"
       d="m 303.57143,138.07647 0,12.85715"
       id="path3240"
       inkscape:connector-curvature="0" />
    <path
       inkscape:connector-curvature="0"
       id="path4454"
       d="m 323.57143,138.07647 0,12.85715"
       style="fill:none;stroke:#000000;stroke-width:1px;stroke-linecap:butt;stroke-linejoin:miter;stroke-opacity:1;marker-end:url(#Arrow1Mend)" />
    <path
       style="fill:none;stroke:#000000;stroke-width:1px;stroke-linecap:butt;stroke-linejoin:miter;stroke-opacity:1;marker-end:url(#Arrow1Mend)"
       d="m 370.28571,126.6479 0,24.28572"
       id="path4456"
       inkscape:connector-curvature="0"
       sodipodi:nodetypes="cc" />
    <path
       inkscape:connector-curvature="0"
       id="path4458"
       d="m 468.28571,138.07647 0,12.85715"
       style="fill:none;stroke:#000000;stroke-width:1px;stroke-linecap:butt;stroke-linejoin:miter;stroke-opacity:1;marker-end:url(#Arrow1Mend)" />
    <path
       style="fill:none;stroke:#000000;stroke-width:1px;stroke-linecap:butt;stroke-linejoin:miter;stroke-opacity:1;marker-end:url(#Arrow1Mend)"
       d="m 492.28571,138.07647 0,12.85715"
       id="path4460"
       inkscape:connector-curvature="0" />
    <text
       xml:space="preserve"
       style="font-size:12px;font-style:normal;font-variant:normal;font-weight:normal;font-stretch:normal;line-height:125%;letter-spacing:0px;word-spacing:0px;fill:#000000;fill-opacity:1;stroke:none;font-family:Nimbus Roman No9 L;-inkscape-font-specification:Nimbus Roman No9 L"
       x="296.78571"
       y="133.43361"
       id="text4462"
       sodipodi:linespacing="125%"><tspan
         sodipodi:role="line"
         id="tspan4464"
         x="296.78571"
         y="133.43361">60</tspan></text>
    <text
       xml:space="preserve"
       style="font-size:12px;font-style:normal;font-variant:normal;font-weight:normal;font-stretch:normal;line-height:125%;letter-spacing:0px;word-spacing:0px;fill:#000000;fill-opacity:1;stroke:none;font-family:Nimbus Roman No9 L;-inkscape-font-specification:Nimbus Roman No9 L"
       x="315.71429"
       y="133.07645"
       id="text4466"
       sodipodi:linespacing="125%"><tspan
         sodipodi:role="line"
         id="tspan4468"
         x="315.71429"
         y="133.07645">7.7</tspan></text>
    <text
       xml:space="preserve"
       style="font-size:12px;font-style:normal;font-variant:normal;font-weight:normal;font-stretch:normal;line-height:125%;letter-spacing:0px;word-spacing:0px;fill:#000000;fill-opacity:1;stroke:none;font-family:Nimbus Roman No9 L;-inkscape-font-specification:Nimbus Roman No9 L"
       x="336.42856"
       y="121.79075"
       id="text4470"
       sodipodi:linespacing="125%"><tspan
         sodipodi:role="line"
         id="tspan4472"
         x="336.42856"
         y="121.79075">what we want</tspan></text>
    <text
       xml:space="preserve"
       style="font-size:12px;font-style:normal;font-variant:normal;font-weight:normal;font-stretch:normal;line-height:125%;letter-spacing:0px;word-spacing:0px;fill:#000000;fill-opacity:1;stroke:none;font-family:Nimbus Roman No9 L;-inkscape-font-specification:Nimbus Roman No9 L"
       x="461.92859"
       y="133.79074"
       id="text4474"
       sodipodi:linespacing="125%"><tspan
         sodipodi:role="line"
         id="tspan4476"
         x="461.92859"
         y="133.79074">60</tspan></text>
    <text
       xml:space="preserve"
       style="font-size:12px;font-style:normal;font-variant:normal;font-weight:normal;font-stretch:normal;line-height:125%;letter-spacing:0px;word-spacing:0px;fill:#000000;fill-opacity:1;stroke:none;font-family:Nimbus Roman No9 L;-inkscape-font-specification:Nimbus Roman No9 L"
       x="482.5"
       y="133.43364"
       id="text4478"
       sodipodi:linespacing="125%"><tspan
         sodipodi:role="line"
         id="tspan4480"
         x="482.5"
         y="133.43364">154</tspan></text>
  </g>
</svg>
