<?xml version="1.0" encoding="UTF-8" standalone="no"?>
<!-- Created with Inkscape (http://www.inkscape.org/) -->

<svg
   xmlns:ns0="http://www.iki.fi/pav/software/textext/"
   xmlns:dc="http://purl.org/dc/elements/1.1/"
   xmlns:cc="http://creativecommons.org/ns#"
   xmlns:rdf="http://www.w3.org/1999/02/22-rdf-syntax-ns#"
   xmlns:svg="http://www.w3.org/2000/svg"
   xmlns="http://www.w3.org/2000/svg"
   xmlns:xlink="http://www.w3.org/1999/xlink"
   xmlns:sodipodi="http://sodipodi.sourceforge.net/DTD/sodipodi-0.dtd"
   xmlns:inkscape="http://www.inkscape.org/namespaces/inkscape"
   width="354.33069"
   height="212.59842"
   id="svg2"
   version="1.1"
   inkscape:version="0.48.4 r9939"
   sodipodi:docname="fig2.svg">
  <sodipodi:namedview
     id="base"
     pagecolor="#ffffff"
     bordercolor="#666666"
     borderopacity="1.0"
     inkscape:pageopacity="0.0"
     inkscape:pageshadow="2"
     inkscape:zoom="2.69764"
     inkscape:cx="167.82583"
     inkscape:cy="125.7372"
     inkscape:document-units="px"
     inkscape:current-layer="layer1"
     showgrid="false"
     units="cm"
     inkscape:window-width="1024"
     inkscape:window-height="744"
     inkscape:window-x="0"
     inkscape:window-y="24"
     inkscape:window-maximized="1" />
  <defs
     id="defs4">
    <marker
       inkscape:stockid="Arrow1Mstart"
       orient="auto"
       refY="0.0"
       refX="0.0"
       id="Arrow1Mstart"
       style="overflow:visible">
      <path
         id="path3950"
         d="M 0.0,0.0 L 5.0,-5.0 L -12.5,0.0 L 5.0,5.0 L 0.0,0.0 z "
         style="fill-rule:evenodd;stroke:#000000;stroke-width:1.0pt"
         transform="scale(0.4) translate(10,0)" />
    </marker>
    <marker
       style="overflow:visible;"
       id="Arrow1Mend"
       refX="0.0"
       refY="0.0"
       orient="auto"
       inkscape:stockid="Arrow1Mend">
      <path
         transform="scale(0.4) rotate(180) translate(10,0)"
         style="fill-rule:evenodd;stroke:#000000;stroke-width:1.0pt;"
         d="M 0.0,0.0 L 5.0,-5.0 L -12.5,0.0 L 5.0,5.0 L 0.0,0.0 z "
         id="path3776" />
    </marker>
  </defs>
  <metadata
     id="metadata7">
    <rdf:RDF>
      <cc:Work
         rdf:about="">
        <dc:format>image/svg+xml</dc:format>
        <dc:type
           rdf:resource="http://purl.org/dc/dcmitype/StillImage" />
        <dc:title />
      </cc:Work>
    </rdf:RDF>
  </metadata>
  <g
     transform="translate(0,-839.76245)"
     id="layer1"
     inkscape:groupmode="layer"
     inkscape:label="Layer 1">
    <path
       sodipodi:nodetypes="cc"
       inkscape:connector-curvature="0"
       id="path2985"
       d="m 59.613144,990.9454 247.358476,0"
       style="fill:none;stroke:#000000;stroke-width:1px;stroke-linecap:butt;stroke-linejoin:miter;stroke-opacity:1" />
    <path
       sodipodi:nodetypes="csc"
       inkscape:connector-curvature="0"
       id="path2987"
       d="m 71.67465,984.07363 c 77.6125,1.43867 100.63395,-73.58789 125.3051,-73.77358 20.66861,-0.15555 37.11683,60.65155 105.91749,75.25636"
       style="fill:none;stroke:#000000;stroke-width:1px;stroke-linecap:butt;stroke-linejoin:miter;stroke-opacity:1" />
    <path
       sodipodi:nodetypes="cc"
       inkscape:connector-curvature="0"
       id="path2989"
       d="m 197.21211,910.67113 0,79.82965"
       style="fill:none;stroke:#000000;stroke-width:1px;stroke-linecap:butt;stroke-linejoin:miter;stroke-opacity:1" />
    <path
       style="fill:none;stroke:#000000;stroke-width:1px;stroke-linecap:butt;stroke-linejoin:miter;stroke-opacity:1"
       d="m 142.10003,906.36092 0,102.76728"
       id="path4290"
       inkscape:connector-curvature="0"
       sodipodi:nodetypes="cc" />
    <g
       id="g3072"
       transform="matrix(1.142745,0,0,1.2,53.752602,832.36246)"
       ns0:preamble="/home/sriranga/Desktop/general-books/CSY/article4/figure/package.tex"
       ns0:text="$x$">
      <defs
         id="defs3074">
        <g
           id="g3076">
          <symbol
             id="textext-e6acebdb-0"
             overflow="visible"
             style="overflow:visible">
            <path
               id="path3079"
               d=""
               style="stroke:none"
               inkscape:connector-curvature="0" />
          </symbol>
          <symbol
             id="textext-e6acebdb-1"
             overflow="visible"
             style="overflow:visible">
            <path
               id="path3082"
               d="M 4,-1.109375 C 3.921875,-1.015625 3.875,-0.953125 3.78125,-0.84375 3.5625,-0.53125 3.4375,-0.4375 3.328125,-0.4375 3.1875,-0.4375 3.09375,-0.5625 3.015625,-0.84375 3,-0.921875 2.984375,-0.984375 2.984375,-1.015625 2.734375,-2.03125 2.625,-2.484375 2.625,-2.625 c 0.4375,-0.78125 0.796875,-1.21875 0.96875,-1.21875 0.0625,0 0.140625,0.03125 0.25,0.078125 0.109375,0.078125 0.1875,0.09375 0.265625,0.09375 0.203125,0 0.34375,-0.140625 0.34375,-0.359375 0,-0.203125 -0.171875,-0.359375 -0.40625,-0.359375 -0.4375,0 -0.8125,0.359375 -1.5,1.421875 L 2.4375,-3.515625 c -0.140625,-0.6875 -0.25,-0.875 -0.53125,-0.875 -0.21875,0 -0.546875,0.078125 -1.15625,0.28125 L 0.640625,-4.0625 0.671875,-3.921875 C 1.0625,-4 1.140625,-4.03125 1.234375,-4.03125 c 0.25,0 0.3125,0.09375 0.453125,0.6875 l 0.28125,1.234375 -0.8125,1.15625 C 0.953125,-0.640625 0.75,-0.46875 0.640625,-0.46875 0.59375,-0.46875 0.484375,-0.5 0.390625,-0.5625 0.265625,-0.625 0.15625,-0.65625 0.0625,-0.65625 c -0.1875,0 -0.328125,0.140625 -0.328125,0.34375 0,0.265625 0.203125,0.421875 0.5,0.421875 0.296875,0 0.421875,-0.09375 0.921875,-0.703125 0.265625,-0.3125 0.484375,-0.578125 0.890625,-1.15625 l 0.3125,1.1875 c 0.125,0.515625 0.25,0.671875 0.578125,0.671875 0.375,0 0.625,-0.234375 1.203125,-1.140625 z m 0,0"
               style="stroke:none"
               inkscape:connector-curvature="0" />
          </symbol>
        </g>
      </defs>
      <g
         id="textext-e6acebdb-2">
        <g
           id="g3085"
           style="fill:#000000;fill-opacity:1">
          <use
             id="use3087"
             y="134.765"
             x="223.92999"
             xlink:href="#textext-e6acebdb-1"
             width="354.33069"
             height="212.59842" />
        </g>
      </g>
    </g>
    <g
       ns0:text="$\\mu$"
       ns0:preamble="/home/sriranga/Desktop/general-books/CSY/article4/figure/package.tex"
       transform="matrix(1.142745,0,0,1.2,-60.988786,839.99177)"
       id="g3153">
      <defs
         id="defs3155">
        <g
           id="g3157">
          <symbol
             overflow="visible"
             id="textext-111d8a80-0">
            <path
               style="stroke:none;"
               d=""
               id="path3160" />
          </symbol>
          <symbol
             overflow="visible"
             id="textext-111d8a80-1">
            <path
               style="stroke:none;"
               d="M 4.9375 -0.765625 C 4.9375 -0.828125 4.921875 -0.859375 4.890625 -0.859375 C 4.75 -0.859375 4.75 -0.265625 4.21875 -0.265625 C 4.0625 -0.265625 4 -0.40625 4 -0.59375 C 4 -0.84375 4.109375 -1.21875 4.203125 -1.625 L 4.90625 -4.390625 L 4.03125 -4.25 L 3.234375 -1.25 C 3.21875 -1.203125 2.625 -0.375 2.03125 -0.375 C 1.453125 -0.375 1.28125 -0.890625 1.28125 -1.28125 C 1.28125 -1.390625 1.296875 -1.5 1.3125 -1.59375 L 2.03125 -4.390625 L 1.28125 -4.265625 L 0.203125 0 C -0.015625 0.8125 -0.40625 1.890625 -0.484375 2.0625 L 0.390625 2.0625 L 1.03125 -0.421875 C 1.03125 -0.421875 1.078125 0.109375 1.796875 0.109375 C 2.59375 0.109375 3.078125 -0.671875 3.1875 -0.796875 C 3.171875 -0.71875 3.15625 -0.640625 3.15625 -0.578125 C 3.15625 0.078125 3.765625 0.109375 3.9375 0.109375 L 3.96875 0.109375 C 4.65625 0.109375 4.9375 -0.53125 4.9375 -0.765625 Z M 4.9375 -0.765625 "
               id="path3163" />
          </symbol>
        </g>
      </defs>
      <g
         id="textext-111d8a80-2">
        <g
           style="fill:rgb(0%,0%,0%);fill-opacity:1;"
           id="g3166">
          <use
             xlink:href="#textext-111d8a80-1"
             x="223.432"
             y="134.765"
             id="use3168" />
        </g>
      </g>
    </g>
    <g
       id="g3254"
       transform="matrix(1.142745,0,0,1.2,-122.54155,748.43026)"
       ns0:preamble="/home/sriranga/Desktop/general-books/CSY/article4/figure/package.tex"
       ns0:text="$f$">
      <defs
         id="defs3256">
        <g
           id="g3258">
          <symbol
             id="textext-770efaee-0"
             overflow="visible"
             style="overflow:visible">
            <path
               id="path3261"
               d=""
               style="stroke:none"
               inkscape:connector-curvature="0" />
          </symbol>
          <symbol
             id="textext-770efaee-1"
             overflow="visible"
             style="overflow:visible">
            <path
               id="path3264"
               d="m 0.34375,-3.953125 0.90625,0 -0.875,4.1875 c -0.21875,1.078125 -0.546875,1.625 -0.96875,1.625 -0.125,0 -0.203125,-0.078125 -0.203125,-0.171875 0,-0.015625 0.015625,-0.046875 0.046875,-0.109375 0.03125,-0.046875 0.046875,-0.09375 0.046875,-0.15625 0,-0.203125 -0.1875,-0.375 -0.390625,-0.375 -0.21875,0 -0.375,0.171875 -0.375,0.40625 0,0.34375 0.359375,0.609375 0.796875,0.609375 0.875,0 1.578125,-0.984375 1.984375,-2.8125 l 0.71875,-3.203125 1.09375,0 0.0625,-0.3125 -1.078125,0 c 0.28125,-1.5625 0.65625,-2.28125 1.203125,-2.28125 0.140625,0 0.21875,0.0625 0.21875,0.125 0,0.03125 0,0.046875 -0.03125,0.109375 -0.046875,0.078125 -0.0625,0.125 -0.0625,0.203125 0,0.234375 0.15625,0.390625 0.375,0.390625 0.21875,0 0.421875,-0.171875 0.421875,-0.390625 0,-0.375 -0.375,-0.65625 -0.859375,-0.65625 -0.5,0 -0.875,0.21875 -1.234375,0.6875 -0.3125,0.390625 -0.5,0.859375 -0.8125,1.8125 l -0.90625,0 z m 0,0"
               style="stroke:none"
               inkscape:connector-curvature="0" />
          </symbol>
        </g>
      </defs>
      <g
         id="textext-770efaee-2">
        <g
           id="g3267"
           style="fill:#000000;fill-opacity:1">
          <use
             id="use3269"
             y="134.765"
             x="224.92599"
             xlink:href="#textext-770efaee-1"
             width="354.33069"
             height="212.59842" />
        </g>
      </g>
    </g>
  </g>
</svg>
