<?xml version="1.0" encoding="UTF-8" standalone="no"?>
<!-- Created with Inkscape (http://www.inkscape.org/) -->

<svg
   xmlns:ns0="http://www.iki.fi/pav/software/textext/"
   xmlns:dc="http://purl.org/dc/elements/1.1/"
   xmlns:cc="http://creativecommons.org/ns#"
   xmlns:rdf="http://www.w3.org/1999/02/22-rdf-syntax-ns#"
   xmlns:svg="http://www.w3.org/2000/svg"
   xmlns="http://www.w3.org/2000/svg"
   xmlns:xlink="http://www.w3.org/1999/xlink"
   xmlns:sodipodi="http://sodipodi.sourceforge.net/DTD/sodipodi-0.dtd"
   xmlns:inkscape="http://www.inkscape.org/namespaces/inkscape"
   width="744.09448819"
   height="1052.3622047"
   id="svg2"
   version="1.1"
   inkscape:version="0.48.4 r9939"
   sodipodi:docname="New document 1">
  <sodipodi:namedview
     id="base"
     pagecolor="#ffffff"
     bordercolor="#666666"
     borderopacity="1.0"
     inkscape:pageopacity="0.0"
     inkscape:pageshadow="2"
     inkscape:zoom="2.8"
     inkscape:cx="376.69062"
     inkscape:cy="861.52541"
     inkscape:document-units="px"
     inkscape:current-layer="layer1"
     showgrid="false"
     inkscape:window-width="1024"
     inkscape:window-height="744"
     inkscape:window-x="0"
     inkscape:window-y="24"
     inkscape:window-maximized="1" />
  <defs
     id="defs4">
    <marker
       inkscape:stockid="Arrow1Mend"
       orient="auto"
       refY="0.0"
       refX="0.0"
       id="Arrow1Mend"
       style="overflow:visible;">
      <path
         id="path4441"
         d="M 0.0,0.0 L 5.0,-5.0 L -12.5,0.0 L 5.0,5.0 L 0.0,0.0 z "
         style="fill-rule:evenodd;stroke:#000000;stroke-width:1.0pt;"
         transform="scale(0.4) rotate(180) translate(10,0)" />
    </marker>
  </defs>
  <metadata
     id="metadata7">
    <rdf:RDF>
      <cc:Work
         rdf:about="">
        <dc:format>image/svg+xml</dc:format>
        <dc:type
           rdf:resource="http://purl.org/dc/dcmitype/StillImage" />
        <dc:title></dc:title>
      </cc:Work>
    </rdf:RDF>
  </metadata>
  <g
     id="layer1"
     inkscape:groupmode="layer"
     inkscape:label="Layer 1">
    <g
       id="g2990"
       ns0:preamble="/home/sriranga/Desktop/general-books/CSY/article4/figure/package.tex"
       ns0:text="$P(\\underbrace{1\\leq X\\leq 1}_{\\substack{p(X=1)=\\binom{n}{1}pq^{n-1}\\\\ \\neq 0}})\\approx P(\\underbrace{1\\leq Y\\leq 1}_{\\substack{P(Y=1)=0\\\\ \\text{NO}}})?$"
       transform="scale(1.200000,1.200000)">
      <defs
         id="defs2992">
        <g
           id="g2994">
          <symbol
             id="textext-c4e4329c-0"
             overflow="visible">
            <path
               id="path2997"
               d=""
               style="stroke:none;" />
          </symbol>
          <symbol
             id="textext-c4e4329c-1"
             overflow="visible">
            <path
               id="path3000"
               d="M 1.453125 -6.34375 C 2.03125 -6.28125 2.15625 -6.1875 2.15625 -5.9375 C 2.15625 -5.796875 2.125 -5.578125 2 -5.140625 L 0.8125 -0.890625 C 0.640625 -0.296875 0.5625 -0.234375 0 -0.15625 L 0 0 L 2.4375 0 L 2.4375 -0.15625 C 1.8125 -0.25 1.765625 -0.28125 1.765625 -0.625 C 1.765625 -0.734375 1.78125 -0.84375 1.890625 -1.203125 L 2.40625 -3.125 C 2.65625 -3.0625 2.921875 -3.046875 3.328125 -3.046875 C 4.140625 -3.046875 4.8125 -3.203125 5.25 -3.515625 C 5.734375 -3.890625 6.03125 -4.4375 6.03125 -5.03125 C 6.03125 -5.984375 5.28125 -6.515625 3.921875 -6.515625 L 1.453125 -6.515625 Z M 3.203125 -5.9375 C 3.265625 -6.140625 3.390625 -6.203125 3.671875 -6.203125 C 4.0625 -6.203125 4.4375 -6.109375 4.640625 -5.96875 C 4.890625 -5.796875 5 -5.5 5 -5.03125 C 5 -4.375 4.78125 -3.921875 4.34375 -3.65625 C 4.03125 -3.484375 3.640625 -3.40625 3.015625 -3.40625 C 2.84375 -3.40625 2.765625 -3.421875 2.5 -3.453125 Z M 3.203125 -5.9375 "
               style="stroke:none;" />
          </symbol>
          <symbol
             id="textext-c4e4329c-2"
             overflow="visible">
            <path
               id="path3003"
               d="M 6.53125 -6.515625 L 4.453125 -6.515625 L 4.453125 -6.34375 C 4.9375 -6.296875 5.0625 -6.21875 5.0625 -5.984375 C 5.0625 -5.859375 5 -5.734375 4.859375 -5.578125 L 3.421875 -3.921875 L 2.828125 -5.390625 C 2.71875 -5.640625 2.6875 -5.8125 2.6875 -5.9375 C 2.6875 -6.1875 2.84375 -6.28125 3.390625 -6.34375 L 3.390625 -6.515625 L 0.75 -6.515625 L 0.75 -6.34375 C 1.328125 -6.296875 1.484375 -6.203125 1.671875 -5.734375 L 2.734375 -3.125 C 2.359375 -2.703125 2.03125 -2.3125 1.90625 -2.15625 C 0.515625 -0.515625 0.234375 -0.265625 -0.296875 -0.15625 L -0.296875 0 L 1.84375 0 L 1.84375 -0.15625 C 1.359375 -0.15625 1.203125 -0.25 1.203125 -0.5 C 1.203125 -0.640625 1.28125 -0.8125 1.40625 -0.96875 L 2.90625 -2.6875 L 3.578125 -1.03125 C 3.65625 -0.859375 3.6875 -0.703125 3.6875 -0.546875 C 3.6875 -0.265625 3.59375 -0.203125 2.9375 -0.15625 L 2.9375 0 L 5.65625 0 L 5.65625 -0.15625 C 4.953125 -0.234375 4.859375 -0.296875 4.609375 -0.890625 L 3.59375 -3.46875 L 5.28125 -5.40625 C 5.796875 -5.984375 6.09375 -6.203125 6.53125 -6.34375 Z M 6.53125 -6.515625 "
               style="stroke:none;" />
          </symbol>
          <symbol
             id="textext-c4e4329c-3"
             overflow="visible">
            <path
               id="path3006"
               d="M 0.90625 -6.34375 C 1.46875 -6.265625 1.5 -6.234375 1.671875 -5.6875 L 2.4375 -3.015625 L 1.828125 -0.890625 C 1.65625 -0.359375 1.4375 -0.203125 0.78125 -0.15625 L 0.78125 0 L 3.65625 0 L 3.65625 -0.15625 C 3.5 -0.171875 3.359375 -0.171875 3.296875 -0.1875 C 2.90625 -0.203125 2.765625 -0.3125 2.765625 -0.5625 C 2.765625 -0.765625 2.84375 -1.0625 3.078125 -1.84375 C 3.109375 -1.9375 3.125 -2 3.140625 -2.046875 L 3.421875 -3.046875 L 5.609375 -5.734375 C 5.9375 -6.140625 6.015625 -6.203125 6.3125 -6.34375 L 6.3125 -6.515625 L 4.421875 -6.515625 L 4.421875 -6.34375 C 4.546875 -6.34375 4.65625 -6.328125 4.6875 -6.3125 C 4.984375 -6.296875 5.109375 -6.203125 5.109375 -6.046875 C 5.109375 -5.765625 4.65625 -5.125 3.625 -3.921875 C 3.453125 -3.71875 3.390625 -3.640625 3.234375 -3.453125 C 3.125 -3.890625 3.09375 -4.03125 2.9375 -4.5625 C 2.6875 -5.40625 2.578125 -5.84375 2.578125 -5.984375 C 2.578125 -6.234375 2.6875 -6.296875 3.296875 -6.34375 L 3.296875 -6.515625 L 0.90625 -6.515625 Z M 0.90625 -6.34375 "
               style="stroke:none;" />
          </symbol>
          <symbol
             id="textext-c4e4329c-4"
             overflow="visible">
            <path
               id="path3009"
               d=""
               style="stroke:none;" />
          </symbol>
          <symbol
             id="textext-c4e4329c-5"
             overflow="visible">
            <path
               id="path3012"
               d="M 2.9375 -6.734375 C 2.203125 -6.265625 1.90625 -6 1.53125 -5.546875 C 0.828125 -4.671875 0.484375 -3.671875 0.484375 -2.515625 C 0.484375 -1.25 0.84375 -0.265625 1.71875 0.75 C 2.140625 1.21875 2.390625 1.453125 2.90625 1.765625 L 3.03125 1.609375 C 2.234375 0.984375 1.953125 0.625 1.6875 -0.125 C 1.453125 -0.78125 1.328125 -1.546875 1.328125 -2.546875 C 1.328125 -3.59375 1.46875 -4.40625 1.734375 -5.03125 C 2.015625 -5.640625 2.3125 -6 3.03125 -6.578125 Z M 2.9375 -6.734375 "
               style="stroke:none;" />
          </symbol>
          <symbol
             id="textext-c4e4329c-6"
             overflow="visible">
            <path
               id="path3015"
               d="M 2.90625 -6.734375 L 1.109375 -5.828125 L 1.109375 -5.6875 C 1.21875 -5.734375 1.328125 -5.78125 1.375 -5.796875 C 1.5625 -5.875 1.71875 -5.90625 1.828125 -5.90625 C 2.03125 -5.90625 2.125 -5.765625 2.125 -5.4375 L 2.125 -0.921875 C 2.125 -0.59375 2.046875 -0.375 1.890625 -0.28125 C 1.734375 -0.1875 1.59375 -0.15625 1.171875 -0.15625 L 1.171875 0 L 3.921875 0 L 3.921875 -0.15625 C 3.140625 -0.15625 2.984375 -0.265625 2.984375 -0.734375 L 2.984375 -6.71875 Z M 2.90625 -6.734375 "
               style="stroke:none;" />
          </symbol>
          <symbol
             id="textext-c4e4329c-7"
             overflow="visible">
            <path
               id="path3018"
               d="M 0.375 1.765625 C 1.109375 1.28125 1.421875 1.03125 1.78125 0.5625 C 2.5 -0.296875 2.84375 -1.296875 2.84375 -2.46875 C 2.84375 -3.734375 2.46875 -4.703125 1.59375 -5.71875 C 1.1875 -6.203125 0.921875 -6.421875 0.40625 -6.734375 L 0.296875 -6.578125 C 1.09375 -5.953125 1.359375 -5.609375 1.640625 -4.859375 C 1.875 -4.1875 1.984375 -3.421875 1.984375 -2.4375 C 1.984375 -1.390625 1.859375 -0.5625 1.578125 0.046875 C 1.3125 0.671875 1 1.03125 0.296875 1.609375 Z M 0.375 1.765625 "
               style="stroke:none;" />
          </symbol>
          <symbol
             id="textext-c4e4329c-8"
             overflow="visible">
            <path
               id="path3021"
               d="M 2.4375 -1.640625 C 2.546875 -2.296875 2.71875 -2.703125 3.078125 -3.171875 C 3.53125 -3.734375 3.53125 -3.734375 3.671875 -3.9375 C 4 -4.421875 4.125 -4.78125 4.125 -5.1875 C 4.125 -5.578125 4 -5.9375 3.765625 -6.15625 C 3.421875 -6.515625 2.828125 -6.734375 2.296875 -6.734375 C 1.375 -6.734375 0.671875 -6.125 0.671875 -5.296875 C 0.671875 -4.890625 0.84375 -4.671875 1.15625 -4.671875 C 1.390625 -4.671875 1.5625 -4.84375 1.5625 -5.078125 C 1.5625 -5.21875 1.5 -5.34375 1.359375 -5.515625 C 1.234375 -5.65625 1.1875 -5.734375 1.1875 -5.828125 C 1.1875 -6.140625 1.640625 -6.4375 2.140625 -6.4375 C 2.734375 -6.4375 3.203125 -5.90625 3.203125 -5.25 C 3.203125 -4.78125 3.078125 -4.234375 2.84375 -3.6875 L 2.5625 -3.046875 C 2.375 -2.5625 2.265625 -2.078125 2.265625 -1.640625 Z M 2.359375 -0.984375 C 2.0625 -0.984375 1.828125 -0.75 1.828125 -0.421875 C 1.828125 -0.140625 2.046875 0.078125 2.359375 0.078125 C 2.671875 0.078125 2.90625 -0.140625 2.90625 -0.4375 C 2.90625 -0.734375 2.65625 -0.984375 2.359375 -0.984375 Z M 2.359375 -0.984375 "
               style="stroke:none;" />
          </symbol>
          <symbol
             id="textext-c4e4329c-9"
             overflow="visible">
            <path
               id="path3024"
               d=""
               style="stroke:none;" />
          </symbol>
          <symbol
             id="textext-c4e4329c-10"
             overflow="visible">
            <path
               id="path3027"
               d="M 5.71875 -0.71875 L 5.71875 -1.28125 L 1.578125 -3.21875 L 5.71875 -5.15625 L 5.71875 -5.71875 L 0.625 -3.3125 L 0.625 -3.109375 Z M 5.71875 0.578125 L 5.71875 0.046875 L 0.625 0.046875 L 0.625 0.578125 Z M 5.71875 0.578125 "
               style="stroke:none;" />
          </symbol>
          <symbol
             id="textext-c4e4329c-11"
             overflow="visible">
            <path
               id="path3030"
               d="M 5.796875 -4.28125 L 5.59375 -4.359375 C 5.4375 -3.78125 5.125 -3.28125 4.46875 -3.28125 C 3.6875 -3.28125 3.03125 -4.375 2.140625 -4.375 C 1.265625 -4.375 0.8125 -3.84375 0.578125 -3.046875 L 0.78125 -2.96875 C 1 -3.484375 1.359375 -3.859375 1.9375 -3.859375 C 2.71875 -3.859375 3.296875 -2.765625 4.265625 -2.765625 C 5.21875 -2.765625 5.65625 -3.390625 5.796875 -4.28125 Z M 5.78125 -2.25 L 5.578125 -2.34375 C 5.421875 -1.765625 5.109375 -1.25 4.453125 -1.25 C 3.671875 -1.25 3.015625 -2.359375 2.125 -2.359375 C 1.25 -2.359375 0.78125 -1.828125 0.5625 -1.03125 L 0.765625 -0.953125 C 0.984375 -1.46875 1.34375 -1.828125 1.9375 -1.828125 C 2.71875 -1.828125 3.296875 -0.75 4.25 -0.75 C 5.21875 -0.75 5.640625 -1.359375 5.78125 -2.25 Z M 5.78125 -2.25 "
               style="stroke:none;" />
          </symbol>
          <symbol
             id="textext-c4e4329c-12"
             overflow="visible">
            <path
               id="path3033"
               d=""
               style="stroke:none;" />
          </symbol>
          <symbol
             id="textext-c4e4329c-13"
             overflow="visible">
            <path
               id="path3036"
               d="M 6.25 0 L 6.25 -0.890625 L 5.671875 -0.890625 C 3.84375 -0.890625 1.359375 -0.96875 0.265625 -2.46875 C 0.1875 -2.546875 0.078125 -2.71875 0 -2.71875 C -0.03125 -2.71875 -0.046875 -2.703125 -0.046875 -2.65625 C -0.046875 -2.578125 0.03125 -2.40625 0.046875 -2.375 C 0.953125 -0.6875 2.828125 0 6.234375 0 Z M 6.25 0 "
               style="stroke:none;" />
          </symbol>
          <symbol
             id="textext-c4e4329c-14"
             overflow="visible">
            <path
               id="path3039"
               d="M 6.25 1.765625 C 6.25 1.671875 6.171875 1.515625 6.15625 1.46875 C 5.25 -0.203125 3.375 -0.890625 -0.046875 -0.890625 L -0.046875 0 L 0.53125 0 C 2.359375 0 4.828125 0.0625 5.9375 1.5625 C 6.015625 1.65625 6.125 1.828125 6.203125 1.828125 C 6.234375 1.828125 6.25 1.796875 6.25 1.765625 Z M 6.25 1.765625 "
               style="stroke:none;" />
          </symbol>
          <symbol
             id="textext-c4e4329c-15"
             overflow="visible">
            <path
               id="path3042"
               d="M 6.25 0 L 6.25 -0.890625 L 6.234375 -0.890625 C 2.828125 -0.890625 0.953125 -0.203125 0.046875 1.46875 C 0.03125 1.515625 -0.046875 1.671875 -0.046875 1.765625 C -0.046875 1.796875 -0.03125 1.828125 0 1.828125 C 0.078125 1.828125 0.1875 1.65625 0.265625 1.5625 C 1.359375 0.0625 3.84375 0 5.671875 0 Z M 6.25 0 "
               style="stroke:none;" />
          </symbol>
          <symbol
             id="textext-c4e4329c-16"
             overflow="visible">
            <path
               id="path3045"
               d="M 6.25 -2.65625 C 6.25 -2.703125 6.234375 -2.71875 6.203125 -2.71875 C 6.125 -2.71875 6.015625 -2.546875 5.9375 -2.46875 C 4.828125 -0.96875 2.359375 -0.890625 0.53125 -0.890625 L -0.046875 -0.890625 L -0.046875 0 C 3.375 0 5.25 -0.6875 6.15625 -2.375 C 6.171875 -2.40625 6.25 -2.578125 6.25 -2.65625 Z M 6.25 -2.65625 "
               style="stroke:none;" />
          </symbol>
          <symbol
             id="textext-c4e4329c-17"
             overflow="visible">
            <path
               id="path3048"
               d=""
               style="stroke:none;" />
          </symbol>
          <symbol
             id="textext-c4e4329c-18"
             overflow="visible">
            <path
               id="path3051"
               d="M 2.046875 0 L 2.046875 -0.890625 L -0.046875 -0.890625 L -0.046875 0 Z M 2.046875 0 "
               style="stroke:none;" />
          </symbol>
          <symbol
             id="textext-c4e4329c-19"
             overflow="visible">
            <path
               id="path3054"
               d=""
               style="stroke:none;" />
          </symbol>
          <symbol
             id="textext-c4e4329c-20"
             overflow="visible">
            <path
               id="path3057"
               d="M 0.390625 -2.8125 L 0.546875 -2.8125 C 0.546875 -2.8125 0.5625 -2.8125 0.578125 -2.828125 C 0.65625 -2.859375 0.84375 -2.734375 0.84375 -2.625 C 0.84375 -2.5625 0.59375 -1.578125 0.34375 -0.65625 C 0.15625 0.046875 0 0.703125 -0.0625 0.90625 C -0.125 1.21875 -0.21875 1.3125 -0.515625 1.3125 L -0.515625 1.421875 L 0.90625 1.421875 L 0.90625 1.328125 C 0.578125 1.328125 0.453125 1.265625 0.453125 1.109375 C 0.453125 1.015625 0.578125 0.46875 0.71875 -0.046875 C 0.890625 0.046875 1.015625 0.078125 1.171875 0.078125 C 2.1875 0.078125 3.265625 -1.09375 3.265625 -2.203125 C 3.265625 -2.75 2.96875 -3.078125 2.46875 -3.078125 C 2.015625 -3.078125 1.671875 -2.84375 1.28125 -2.28125 L 1.484375 -2.984375 L 1.5 -3.046875 C 1.5 -3.046875 1.484375 -3.046875 1.484375 -3.0625 L 1.46875 -3.078125 L 1.453125 -3.078125 L 0.375 -2.921875 Z M 2.203125 -2.78125 C 2.515625 -2.765625 2.640625 -2.578125 2.640625 -2.171875 C 2.640625 -1.71875 2.4375 -1.109375 2.140625 -0.6875 C 1.84375 -0.265625 1.515625 -0.0625 1.15625 -0.0625 C 0.953125 -0.0625 0.8125 -0.15625 0.8125 -0.3125 C 0.8125 -0.546875 1.0625 -1.46875 1.265625 -1.984375 C 1.453125 -2.453125 1.859375 -2.796875 2.203125 -2.78125 Z M 2.203125 -2.78125 "
               style="stroke:none;" />
          </symbol>
          <symbol
             id="textext-c4e4329c-21"
             overflow="visible">
            <path
               id="path3060"
               d="M 4.5625 -4.546875 L 3.109375 -4.546875 L 3.109375 -4.4375 C 3.453125 -4.390625 3.546875 -4.34375 3.546875 -4.1875 C 3.546875 -4.09375 3.5 -4.015625 3.40625 -3.90625 L 2.390625 -2.734375 L 1.984375 -3.765625 C 1.90625 -3.9375 1.875 -4.0625 1.875 -4.15625 C 1.875 -4.328125 1.984375 -4.390625 2.375 -4.4375 L 2.375 -4.546875 L 0.53125 -4.546875 L 0.53125 -4.4375 C 0.9375 -4.40625 1.03125 -4.328125 1.171875 -4.015625 L 1.90625 -2.1875 C 1.65625 -1.890625 1.421875 -1.609375 1.328125 -1.5 C 0.359375 -0.359375 0.171875 -0.1875 -0.203125 -0.109375 L -0.203125 0 L 1.296875 0 L 1.296875 -0.109375 C 0.953125 -0.109375 0.84375 -0.171875 0.84375 -0.34375 C 0.84375 -0.453125 0.890625 -0.578125 0.984375 -0.671875 L 2.03125 -1.875 L 2.5 -0.71875 C 2.546875 -0.59375 2.578125 -0.484375 2.578125 -0.390625 C 2.578125 -0.1875 2.515625 -0.140625 2.046875 -0.109375 L 2.046875 0 L 3.953125 0 L 3.953125 -0.109375 C 3.46875 -0.171875 3.40625 -0.203125 3.21875 -0.625 L 2.515625 -2.421875 L 3.6875 -3.78125 C 4.0625 -4.1875 4.265625 -4.34375 4.5625 -4.4375 Z M 4.5625 -4.546875 "
               style="stroke:none;" />
          </symbol>
          <symbol
             id="textext-c4e4329c-22"
             overflow="visible">
            <path
               id="path3063"
               d="M 2.71875 1.328125 L 2.609375 1.328125 C 2.34375 1.328125 2.203125 1.265625 2.203125 1.125 C 2.203125 1.109375 2.21875 1.078125 2.21875 1.046875 L 3.359375 -2.96875 L 2.859375 -2.96875 L 2.75 -2.640625 C 2.640625 -2.96875 2.5 -3.078125 2.21875 -3.078125 C 1.296875 -3.078125 0.171875 -1.796875 0.171875 -0.734375 C 0.171875 -0.234375 0.453125 0.078125 0.890625 0.078125 C 1.375 0.078125 1.703125 -0.1875 2.328125 -1.0625 L 1.703125 0.96875 C 1.609375 1.25 1.5 1.3125 1.046875 1.34375 L 1.046875 1.453125 L 2.71875 1.453125 Z M 2.234375 -2.921875 C 2.46875 -2.921875 2.640625 -2.734375 2.640625 -2.5 C 2.640625 -1.921875 2.171875 -0.921875 1.703125 -0.53125 C 1.515625 -0.375 1.328125 -0.296875 1.15625 -0.296875 C 0.921875 -0.296875 0.78125 -0.5 0.78125 -0.828125 C 0.78125 -1.34375 1.140625 -2.125 1.59375 -2.578125 C 1.8125 -2.796875 2.03125 -2.921875 2.234375 -2.921875 Z M 2.234375 -2.921875 "
               style="stroke:none;" />
          </symbol>
          <symbol
             id="textext-c4e4329c-23"
             overflow="visible">
            <path
               id="path3066"
               d="M 1.015625 -4.4375 C 1.421875 -4.390625 1.515625 -4.328125 1.515625 -4.140625 C 1.515625 -4.046875 1.484375 -3.90625 1.390625 -3.59375 L 0.578125 -0.625 C 0.453125 -0.203125 0.390625 -0.171875 0 -0.109375 L 0 0 L 1.703125 0 L 1.703125 -0.109375 C 1.265625 -0.171875 1.234375 -0.1875 1.234375 -0.4375 C 1.234375 -0.515625 1.25 -0.578125 1.3125 -0.84375 L 1.6875 -2.1875 C 1.859375 -2.140625 2.046875 -2.125 2.328125 -2.125 C 2.90625 -2.125 3.359375 -2.25 3.671875 -2.453125 C 4.015625 -2.71875 4.21875 -3.09375 4.21875 -3.515625 C 4.21875 -4.1875 3.6875 -4.546875 2.75 -4.546875 L 1.015625 -4.546875 Z M 2.25 -4.140625 C 2.28125 -4.296875 2.375 -4.34375 2.5625 -4.34375 C 2.84375 -4.34375 3.09375 -4.265625 3.234375 -4.171875 C 3.421875 -4.046875 3.5 -3.84375 3.5 -3.515625 C 3.5 -3.0625 3.34375 -2.734375 3.03125 -2.5625 C 2.8125 -2.4375 2.546875 -2.390625 2.109375 -2.390625 C 2 -2.390625 1.9375 -2.390625 1.75 -2.421875 Z M 2.25 -4.140625 "
               style="stroke:none;" />
          </symbol>
          <symbol
             id="textext-c4e4329c-24"
             overflow="visible">
            <path
               id="path3069"
               d="M 0.640625 -4.4375 C 1.03125 -4.390625 1.046875 -4.359375 1.15625 -3.984375 L 1.703125 -2.109375 L 1.28125 -0.625 C 1.15625 -0.25 1 -0.140625 0.546875 -0.109375 L 0.546875 0 L 2.5625 0 L 2.5625 -0.109375 C 2.453125 -0.125 2.34375 -0.125 2.3125 -0.125 C 2.03125 -0.140625 1.9375 -0.21875 1.9375 -0.390625 C 1.9375 -0.53125 1.984375 -0.75 2.15625 -1.296875 C 2.171875 -1.359375 2.1875 -1.40625 2.1875 -1.421875 L 2.390625 -2.125 L 3.921875 -4.015625 C 4.140625 -4.296875 4.203125 -4.34375 4.40625 -4.4375 L 4.40625 -4.546875 L 3.09375 -4.546875 L 3.09375 -4.4375 C 3.171875 -4.4375 3.25 -4.421875 3.28125 -4.421875 C 3.484375 -4.390625 3.578125 -4.34375 3.578125 -4.21875 C 3.578125 -4.03125 3.25 -3.578125 2.53125 -2.734375 C 2.40625 -2.59375 2.375 -2.546875 2.265625 -2.421875 C 2.1875 -2.71875 2.15625 -2.8125 2.046875 -3.1875 C 1.875 -3.78125 1.796875 -4.078125 1.796875 -4.1875 C 1.796875 -4.359375 1.875 -4.390625 2.296875 -4.4375 L 2.296875 -4.546875 L 0.640625 -4.546875 Z M 0.640625 -4.4375 "
               style="stroke:none;" />
          </symbol>
          <symbol
             id="textext-c4e4329c-25"
             overflow="visible">
            <path
               id="path3072"
               d=""
               style="stroke:none;" />
          </symbol>
          <symbol
             id="textext-c4e4329c-26"
             overflow="visible">
            <path
               id="path3075"
               d="M 2.0625 -4.703125 C 1.546875 -4.375 1.328125 -4.1875 1.078125 -3.875 C 0.578125 -3.265625 0.328125 -2.578125 0.328125 -1.75 C 0.328125 -0.875 0.59375 -0.1875 1.203125 0.515625 C 1.484375 0.859375 1.671875 1.015625 2.03125 1.234375 L 2.125 1.125 C 1.5625 0.6875 1.359375 0.4375 1.171875 -0.078125 C 1.015625 -0.546875 0.9375 -1.078125 0.9375 -1.78125 C 0.9375 -2.515625 1.03125 -3.078125 1.21875 -3.515625 C 1.40625 -3.9375 1.609375 -4.1875 2.125 -4.59375 Z M 2.0625 -4.703125 "
               style="stroke:none;" />
          </symbol>
          <symbol
             id="textext-c4e4329c-27"
             overflow="visible">
            <path
               id="path3078"
               d="M 2.03125 -4.703125 L 0.78125 -4.078125 L 0.78125 -3.984375 C 0.859375 -4.015625 0.9375 -4.046875 0.96875 -4.0625 C 1.09375 -4.109375 1.203125 -4.125 1.28125 -4.125 C 1.421875 -4.125 1.484375 -4.03125 1.484375 -3.8125 L 1.484375 -0.640625 C 1.484375 -0.421875 1.421875 -0.265625 1.3125 -0.1875 C 1.21875 -0.125 1.109375 -0.109375 0.828125 -0.109375 L 0.828125 0 L 2.75 0 L 2.75 -0.109375 C 2.1875 -0.109375 2.078125 -0.1875 2.078125 -0.515625 L 2.078125 -4.703125 Z M 2.03125 -4.703125 "
               style="stroke:none;" />
          </symbol>
          <symbol
             id="textext-c4e4329c-28"
             overflow="visible">
            <path
               id="path3081"
               d="M 0.265625 1.234375 C 0.78125 0.90625 0.984375 0.71875 1.25 0.390625 C 1.734375 -0.203125 1.984375 -0.90625 1.984375 -1.71875 C 1.984375 -2.609375 1.734375 -3.296875 1.109375 -4 C 0.828125 -4.328125 0.640625 -4.484375 0.28125 -4.703125 L 0.203125 -4.59375 C 0.765625 -4.15625 0.953125 -3.921875 1.140625 -3.390625 C 1.3125 -2.921875 1.390625 -2.390625 1.390625 -1.703125 C 1.390625 -0.96875 1.296875 -0.390625 1.109375 0.03125 C 0.90625 0.46875 0.703125 0.71875 0.203125 1.125 Z M 0.265625 1.234375 "
               style="stroke:none;" />
          </symbol>
          <symbol
             id="textext-c4e4329c-29"
             overflow="visible">
            <path
               id="path3084"
               d="M 1.765625 -4.703125 C 1.390625 -4.703125 1.09375 -4.59375 0.84375 -4.34375 C 0.4375 -3.953125 0.171875 -3.15625 0.171875 -2.34375 C 0.171875 -1.578125 0.390625 -0.765625 0.71875 -0.375 C 0.984375 -0.0625 1.34375 0.09375 1.734375 0.09375 C 2.09375 0.09375 2.390625 -0.015625 2.640625 -0.265625 C 3.046875 -0.640625 3.3125 -1.453125 3.3125 -2.296875 C 3.3125 -3.734375 2.6875 -4.703125 1.765625 -4.703125 Z M 1.75 -4.53125 C 2.328125 -4.53125 2.640625 -3.75 2.640625 -2.28125 C 2.640625 -0.828125 2.34375 -0.078125 1.734375 -0.078125 C 1.140625 -0.078125 0.84375 -0.828125 0.84375 -2.28125 C 0.84375 -3.75 1.15625 -4.53125 1.75 -4.53125 Z M 1.75 -4.53125 "
               style="stroke:none;" />
          </symbol>
          <symbol
             id="textext-c4e4329c-30"
             overflow="visible">
            <path
               id="path3087"
               d="M 4.265625 0.078125 L 4.265625 -3.59375 C 4.265625 -4 4.328125 -4.265625 4.46875 -4.359375 C 4.5625 -4.421875 4.65625 -4.453125 4.921875 -4.484375 L 4.921875 -4.609375 L 3.296875 -4.609375 L 3.296875 -4.484375 C 3.546875 -4.453125 3.65625 -4.4375 3.75 -4.375 C 3.890625 -4.265625 3.953125 -4.015625 3.953125 -3.59375 L 3.953125 -1.234375 L 1.28125 -4.609375 L 0.078125 -4.609375 L 0.078125 -4.484375 C 0.390625 -4.484375 0.484375 -4.421875 0.765625 -4.09375 L 0.765625 -1.03125 C 0.765625 -0.3125 0.65625 -0.171875 0.078125 -0.125 L 0.078125 0 L 1.71875 0 L 1.71875 -0.125 C 1.1875 -0.15625 1.0625 -0.328125 1.0625 -1.03125 L 1.0625 -3.75 L 4.140625 0.078125 Z M 4.265625 0.078125 "
               style="stroke:none;" />
          </symbol>
          <symbol
             id="textext-c4e4329c-31"
             overflow="visible">
            <path
               id="path3090"
               d="M 2.515625 -4.703125 C 1.1875 -4.703125 0.234375 -3.703125 0.234375 -2.3125 C 0.234375 -1.65625 0.453125 -1.015625 0.84375 -0.609375 C 1.234375 -0.171875 1.859375 0.09375 2.46875 0.09375 C 3.84375 0.09375 4.796875 -0.875 4.796875 -2.28125 C 4.796875 -2.96875 4.59375 -3.5625 4.203125 -3.984375 C 3.765625 -4.453125 3.1875 -4.703125 2.515625 -4.703125 Z M 2.515625 -4.453125 C 2.84375 -4.453125 3.15625 -4.328125 3.40625 -4.109375 C 3.78125 -3.765625 4 -3.109375 4 -2.28125 C 4 -1.875 3.90625 -1.390625 3.765625 -1.03125 C 3.703125 -0.859375 3.59375 -0.6875 3.421875 -0.515625 C 3.1875 -0.28125 2.875 -0.15625 2.5 -0.15625 C 2.1875 -0.15625 1.875 -0.28125 1.625 -0.5 C 1.265625 -0.8125 1.03125 -1.515625 1.03125 -2.296875 C 1.03125 -3 1.21875 -3.671875 1.515625 -4 C 1.796875 -4.3125 2.125 -4.453125 2.515625 -4.453125 Z M 2.515625 -4.453125 "
               style="stroke:none;" />
          </symbol>
          <symbol
             id="textext-c4e4329c-32"
             overflow="visible">
            <path
               id="path3093"
               d=""
               style="stroke:none;" />
          </symbol>
          <symbol
             id="textext-c4e4329c-33"
             overflow="visible">
            <path
               id="path3096"
               d="M 4 -2.296875 L 4 -2.6875 L 0.4375 -2.6875 L 0.4375 -2.296875 Z M 4 -0.890625 L 4 -1.28125 L 0.4375 -1.28125 L 0.4375 -0.890625 Z M 4 -0.890625 "
               style="stroke:none;" />
          </symbol>
          <symbol
             id="textext-c4e4329c-34"
             overflow="visible">
            <path
               id="path3099"
               d=""
               style="stroke:none;" />
          </symbol>
          <symbol
             id="textext-c4e4329c-35"
             overflow="visible">
            <path
               id="path3102"
               d="M 2.296875 -0.578125 L 2.1875 -0.453125 C 2.046875 -0.265625 1.953125 -0.1875 1.890625 -0.1875 C 1.84375 -0.1875 1.796875 -0.234375 1.796875 -0.265625 C 1.796875 -0.296875 1.796875 -0.296875 1.875 -0.578125 L 2.15625 -1.609375 C 2.1875 -1.71875 2.203125 -1.828125 2.203125 -1.890625 C 2.203125 -2.078125 2.0625 -2.203125 1.875 -2.203125 C 1.5625 -2.203125 1.234375 -1.90625 0.734375 -1.09375 L 1.0625 -2.1875 L 1.046875 -2.203125 C 0.78125 -2.140625 0.671875 -2.125 0.234375 -2.046875 L 0.234375 -1.96875 C 0.5 -1.953125 0.5625 -1.921875 0.5625 -1.828125 C 0.5625 -1.796875 0.546875 -1.765625 0.546875 -1.75 L 0.0625 0 L 0.4375 0 C 0.671875 -0.78125 0.71875 -0.890625 0.9375 -1.234375 C 1.234375 -1.6875 1.5 -1.9375 1.6875 -1.9375 C 1.75 -1.9375 1.796875 -1.890625 1.796875 -1.796875 C 1.796875 -1.734375 1.765625 -1.578125 1.734375 -1.421875 L 1.515625 -0.59375 C 1.453125 -0.34375 1.4375 -0.28125 1.4375 -0.21875 C 1.4375 -0.03125 1.5 0.046875 1.671875 0.046875 C 1.890625 0.046875 2.015625 -0.0625 2.359375 -0.515625 Z M 2.296875 -0.578125 "
               style="stroke:none;" />
          </symbol>
          <symbol
             id="textext-c4e4329c-36"
             overflow="visible">
            <path
               id="path3105"
               d=""
               style="stroke:none;" />
          </symbol>
          <symbol
             id="textext-c4e4329c-37"
             overflow="visible">
            <path
               id="path3108"
               d="M 1.453125 -3.375 L 0.546875 -2.921875 L 0.546875 -2.84375 C 0.609375 -2.875 0.671875 -2.890625 0.6875 -2.90625 C 0.78125 -2.9375 0.859375 -2.953125 0.90625 -2.953125 C 1.015625 -2.953125 1.0625 -2.875 1.0625 -2.71875 L 1.0625 -0.46875 C 1.0625 -0.296875 1.015625 -0.1875 0.9375 -0.140625 C 0.875 -0.09375 0.796875 -0.078125 0.59375 -0.078125 L 0.59375 0 L 1.96875 0 L 1.96875 -0.078125 C 1.5625 -0.078125 1.484375 -0.125 1.484375 -0.375 L 1.484375 -3.359375 Z M 1.453125 -3.375 "
               style="stroke:none;" />
          </symbol>
          <symbol
             id="textext-c4e4329c-38"
             overflow="visible">
            <path
               id="path3111"
               d=""
               style="stroke:none;" />
          </symbol>
          <symbol
             id="textext-c4e4329c-39"
             overflow="visible">
            <path
               id="path3114"
               d="M 2.859375 -1.140625 L 2.859375 -1.421875 L 0.3125 -1.421875 L 0.3125 -1.140625 Z M 2.859375 -1.140625 "
               style="stroke:none;" />
          </symbol>
          <symbol
             id="textext-c4e4329c-40"
             overflow="visible">
            <path
               id="path3117"
               d=""
               style="stroke:none;" />
          </symbol>
          <symbol
             id="textext-c4e4329c-41"
             overflow="visible">
            <path
               id="path3120"
               d="M 4 -0.890625 L 4 -1.28125 L 2.203125 -1.28125 L 2.609375 -2.3125 L 4 -2.3125 L 4 -2.703125 L 2.765625 -2.703125 L 3.265625 -3.9375 L 2.890625 -3.9375 L 2.390625 -2.6875 L 0.4375 -2.6875 L 0.4375 -2.296875 L 2.234375 -2.296875 L 1.828125 -1.28125 L 0.4375 -1.28125 L 0.4375 -0.890625 L 1.671875 -0.890625 L 1.171875 0.359375 L 1.546875 0.359375 L 2.046875 -0.890625 Z M 4 -0.890625 "
               style="stroke:none;" />
          </symbol>
        </g>
      </defs>
      <g
         id="textext-c4e4329c-42">
        <g
           id="g3123"
           style="fill:rgb(0%,0%,0%);fill-opacity:1;">
          <use
             id="use3125"
             y="134.765"
             x="223.681"
             xlink:href="#textext-c4e4329c-1" />
        </g>
        <g
           id="g3127"
           style="fill:rgb(0%,0%,0%);fill-opacity:1;">
          <use
             id="use3129"
             y="134.765"
             x="229.768"
             xlink:href="#textext-c4e4329c-5" />
        </g>
        <g
           id="g3131"
           style="fill:rgb(0%,0%,0%);fill-opacity:1;">
          <use
             id="use3133"
             y="134.765"
             x="238.355761"
             xlink:href="#textext-c4e4329c-6" />
        </g>
        <g
           id="g3135"
           style="fill:rgb(0%,0%,0%);fill-opacity:1;">
          <use
             id="use3137"
             y="134.765"
             x="246.107"
             xlink:href="#textext-c4e4329c-10" />
        </g>
        <g
           id="g3139"
           style="fill:rgb(0%,0%,0%);fill-opacity:1;">
          <use
             id="use3141"
             y="134.765"
             x="255.46"
             xlink:href="#textext-c4e4329c-2" />
        </g>
        <g
           id="g3143"
           style="fill:rgb(0%,0%,0%);fill-opacity:1;">
          <use
             id="use3145"
             y="134.765"
             x="264.753"
             xlink:href="#textext-c4e4329c-10" />
        </g>
        <g
           id="g3147"
           style="fill:rgb(0%,0%,0%);fill-opacity:1;">
          <use
             id="use3149"
             y="134.765"
             x="273.856"
             xlink:href="#textext-c4e4329c-6" />
        </g>
        <g
           id="g3151"
           style="fill:rgb(0%,0%,0%);fill-opacity:1;">
          <use
             id="use3153"
             y="139.218"
             x="238.359"
             xlink:href="#textext-c4e4329c-13" />
        </g>
        <g
           id="g3155"
           style="fill:rgb(0%,0%,0%);fill-opacity:1;">
          <use
             id="use3157"
             y="139.218"
             x="243.885"
             xlink:href="#textext-c4e4329c-18" />
        </g>
        <g
           id="g3159"
           style="fill:rgb(0%,0%,0%);fill-opacity:1;">
          <use
             id="use3161"
             y="139.218"
             x="245.319614"
             xlink:href="#textext-c4e4329c-18" />
        </g>
        <g
           id="g3163"
           style="fill:rgb(0%,0%,0%);fill-opacity:1;">
          <use
             id="use3165"
             y="139.218"
             x="246.764191"
             xlink:href="#textext-c4e4329c-18" />
        </g>
        <g
           id="g3167"
           style="fill:rgb(0%,0%,0%);fill-opacity:1;">
          <use
             id="use3169"
             y="139.218"
             x="248.198806"
             xlink:href="#textext-c4e4329c-18" />
        </g>
        <g
           id="g3171"
           style="fill:rgb(0%,0%,0%);fill-opacity:1;">
          <use
             id="use3173"
             y="139.218"
             x="249.643383"
             xlink:href="#textext-c4e4329c-18" />
        </g>
        <g
           id="g3175"
           style="fill:rgb(0%,0%,0%);fill-opacity:1;">
          <use
             id="use3177"
             y="139.218"
             x="251.077997"
             xlink:href="#textext-c4e4329c-18" />
        </g>
        <g
           id="g3179"
           style="fill:rgb(0%,0%,0%);fill-opacity:1;">
          <use
             id="use3181"
             y="139.218"
             x="252.401"
             xlink:href="#textext-c4e4329c-14" />
          <use
             id="use3183"
             y="139.218"
             x="258.597737"
             xlink:href="#textext-c4e4329c-15" />
        </g>
        <g
           id="g3185"
           style="fill:rgb(0%,0%,0%);fill-opacity:1;">
          <use
             id="use3187"
             y="139.218"
             x="264.124"
             xlink:href="#textext-c4e4329c-18" />
        </g>
        <g
           id="g3189"
           style="fill:rgb(0%,0%,0%);fill-opacity:1;">
          <use
             id="use3191"
             y="139.218"
             x="265.558614"
             xlink:href="#textext-c4e4329c-18" />
        </g>
        <g
           id="g3193"
           style="fill:rgb(0%,0%,0%);fill-opacity:1;">
          <use
             id="use3195"
             y="139.218"
             x="267.003191"
             xlink:href="#textext-c4e4329c-18" />
        </g>
        <g
           id="g3197"
           style="fill:rgb(0%,0%,0%);fill-opacity:1;">
          <use
             id="use3199"
             y="139.218"
             x="268.437806"
             xlink:href="#textext-c4e4329c-18" />
        </g>
        <g
           id="g3201"
           style="fill:rgb(0%,0%,0%);fill-opacity:1;">
          <use
             id="use3203"
             y="139.218"
             x="269.882383"
             xlink:href="#textext-c4e4329c-18" />
        </g>
        <g
           id="g3205"
           style="fill:rgb(0%,0%,0%);fill-opacity:1;">
          <use
             id="use3207"
             y="139.218"
             x="271.316997"
             xlink:href="#textext-c4e4329c-18" />
        </g>
        <g
           id="g3209"
           style="fill:rgb(0%,0%,0%);fill-opacity:1;">
          <use
             id="use3211"
             y="139.218"
             x="272.641"
             xlink:href="#textext-c4e4329c-16" />
        </g>
        <g
           id="g3213"
           style="fill:rgb(0%,0%,0%);fill-opacity:1;">
          <use
             id="use3215"
             y="149.879"
             x="233.609"
             xlink:href="#textext-c4e4329c-20" />
        </g>
        <g
           id="g3217"
           style="fill:rgb(0%,0%,0%);fill-opacity:1;">
          <use
             id="use3219"
             y="149.879"
             x="237.096"
             xlink:href="#textext-c4e4329c-26" />
        </g>
        <g
           id="g3221"
           style="fill:rgb(0%,0%,0%);fill-opacity:1;">
          <use
             id="use3223"
             y="149.879"
             x="239.592"
             xlink:href="#textext-c4e4329c-21" />
        </g>
        <g
           id="g3225"
           style="fill:rgb(0%,0%,0%);fill-opacity:1;">
          <use
             id="use3227"
             y="149.879"
             x="244.16"
             xlink:href="#textext-c4e4329c-33" />
        </g>
        <g
           id="g3229"
           style="fill:rgb(0%,0%,0%);fill-opacity:1;">
          <use
             id="use3231"
             y="149.879"
             x="248.596"
             xlink:href="#textext-c4e4329c-27" />
          <use
             id="use3233"
             y="149.879"
             x="252.0829"
             xlink:href="#textext-c4e4329c-28" />
        </g>
        <g
           id="g3235"
           style="fill:rgb(0%,0%,0%);fill-opacity:1;">
          <use
             id="use3237"
             y="149.879"
             x="254.405"
             xlink:href="#textext-c4e4329c-33" />
        </g>
        <g
           id="g3239"
           style="fill:rgb(0%,0%,0%);fill-opacity:1;">
          <use
             id="use3241"
             y="150.535"
             x="258.84"
             xlink:href="#textext-c4e4329c-5" />
        </g>
        <g
           id="g3243"
           style="fill:rgb(0%,0%,0%);fill-opacity:1;">
          <use
             id="use3245"
             y="146.783"
             x="262.158"
             xlink:href="#textext-c4e4329c-35" />
        </g>
        <g
           id="g3247"
           style="fill:rgb(0%,0%,0%);fill-opacity:1;">
          <use
             id="use3249"
             y="152.285"
             x="262.158"
             xlink:href="#textext-c4e4329c-37" />
        </g>
        <g
           id="g3251"
           style="fill:rgb(0%,0%,0%);fill-opacity:1;">
          <use
             id="use3253"
             y="150.535"
             x="264.649"
             xlink:href="#textext-c4e4329c-7" />
        </g>
        <g
           id="g3255"
           style="fill:rgb(0%,0%,0%);fill-opacity:1;">
          <use
             id="use3257"
             y="149.879"
             x="268.489"
             xlink:href="#textext-c4e4329c-20" />
          <use
             id="use3259"
             y="149.879"
             x="271.9759"
             xlink:href="#textext-c4e4329c-22" />
        </g>
        <g
           id="g3261"
           style="fill:rgb(0%,0%,0%);fill-opacity:1;">
          <use
             id="use3263"
             y="147.348"
             x="275.463"
             xlink:href="#textext-c4e4329c-35" />
        </g>
        <g
           id="g3265"
           style="fill:rgb(0%,0%,0%);fill-opacity:1;">
          <use
             id="use3267"
             y="147.348"
             x="277.954"
             xlink:href="#textext-c4e4329c-39" />
        </g>
        <g
           id="g3269"
           style="fill:rgb(0%,0%,0%);fill-opacity:1;">
          <use
             id="use3271"
             y="147.348"
             x="281.122"
             xlink:href="#textext-c4e4329c-37" />
        </g>
        <g
           id="g3273"
           style="fill:rgb(0%,0%,0%);fill-opacity:1;">
          <use
             id="use3275"
             y="158.141"
             x="254.637"
             xlink:href="#textext-c4e4329c-41" />
        </g>
        <g
           id="g3277"
           style="fill:rgb(0%,0%,0%);fill-opacity:1;">
          <use
             id="use3279"
             y="158.141"
             x="259.072"
             xlink:href="#textext-c4e4329c-29" />
        </g>
        <g
           id="g3281"
           style="fill:rgb(0%,0%,0%);fill-opacity:1;">
          <use
             id="use3283"
             y="134.765"
             x="284.111"
             xlink:href="#textext-c4e4329c-7" />
        </g>
        <g
           id="g3285"
           style="fill:rgb(0%,0%,0%);fill-opacity:1;">
          <use
             id="use3287"
             y="134.765"
             x="290.195"
             xlink:href="#textext-c4e4329c-11" />
        </g>
        <g
           id="g3289"
           style="fill:rgb(0%,0%,0%);fill-opacity:1;">
          <use
             id="use3291"
             y="134.765"
             x="299.548"
             xlink:href="#textext-c4e4329c-1" />
        </g>
        <g
           id="g3293"
           style="fill:rgb(0%,0%,0%);fill-opacity:1;">
          <use
             id="use3295"
             y="134.765"
             x="305.635"
             xlink:href="#textext-c4e4329c-5" />
          <use
             id="use3297"
             y="134.765"
             x="308.952546"
             xlink:href="#textext-c4e4329c-6" />
        </g>
        <g
           id="g3299"
           style="fill:rgb(0%,0%,0%);fill-opacity:1;">
          <use
             id="use3301"
             y="134.765"
             x="316.701"
             xlink:href="#textext-c4e4329c-10" />
        </g>
        <g
           id="g3303"
           style="fill:rgb(0%,0%,0%);fill-opacity:1;">
          <use
             id="use3305"
             y="134.765"
             x="325.805"
             xlink:href="#textext-c4e4329c-3" />
        </g>
        <g
           id="g3307"
           style="fill:rgb(0%,0%,0%);fill-opacity:1;">
          <use
             id="use3309"
             y="134.765"
             x="334.879"
             xlink:href="#textext-c4e4329c-10" />
        </g>
        <g
           id="g3311"
           style="fill:rgb(0%,0%,0%);fill-opacity:1;">
          <use
             id="use3313"
             y="134.765"
             x="343.982"
             xlink:href="#textext-c4e4329c-6" />
        </g>
        <g
           id="g3315"
           style="fill:rgb(0%,0%,0%);fill-opacity:1;">
          <use
             id="use3317"
             y="139.218"
             x="308.953"
             xlink:href="#textext-c4e4329c-13" />
        </g>
        <g
           id="g3319"
           style="fill:rgb(0%,0%,0%);fill-opacity:1;">
          <use
             id="use3321"
             y="139.218"
             x="314.362"
             xlink:href="#textext-c4e4329c-18" />
        </g>
        <g
           id="g3323"
           style="fill:rgb(0%,0%,0%);fill-opacity:1;">
          <use
             id="use3325"
             y="139.218"
             x="315.796614"
             xlink:href="#textext-c4e4329c-18" />
        </g>
        <g
           id="g3327"
           style="fill:rgb(0%,0%,0%);fill-opacity:1;">
          <use
             id="use3329"
             y="139.218"
             x="317.241191"
             xlink:href="#textext-c4e4329c-18" />
        </g>
        <g
           id="g3331"
           style="fill:rgb(0%,0%,0%);fill-opacity:1;">
          <use
             id="use3333"
             y="139.218"
             x="318.675806"
             xlink:href="#textext-c4e4329c-18" />
        </g>
        <g
           id="g3335"
           style="fill:rgb(0%,0%,0%);fill-opacity:1;">
          <use
             id="use3337"
             y="139.218"
             x="320.120383"
             xlink:href="#textext-c4e4329c-18" />
        </g>
        <g
           id="g3339"
           style="fill:rgb(0%,0%,0%);fill-opacity:1;">
          <use
             id="use3341"
             y="139.218"
             x="321.554997"
             xlink:href="#textext-c4e4329c-18" />
        </g>
        <g
           id="g3343"
           style="fill:rgb(0%,0%,0%);fill-opacity:1;">
          <use
             id="use3345"
             y="139.218"
             x="322.761"
             xlink:href="#textext-c4e4329c-14" />
          <use
             id="use3347"
             y="139.218"
             x="328.957737"
             xlink:href="#textext-c4e4329c-15" />
        </g>
        <g
           id="g3349"
           style="fill:rgb(0%,0%,0%);fill-opacity:1;">
          <use
             id="use3351"
             y="139.218"
             x="334.367"
             xlink:href="#textext-c4e4329c-18" />
        </g>
        <g
           id="g3353"
           style="fill:rgb(0%,0%,0%);fill-opacity:1;">
          <use
             id="use3355"
             y="139.218"
             x="335.801614"
             xlink:href="#textext-c4e4329c-18" />
        </g>
        <g
           id="g3357"
           style="fill:rgb(0%,0%,0%);fill-opacity:1;">
          <use
             id="use3359"
             y="139.218"
             x="337.246191"
             xlink:href="#textext-c4e4329c-18" />
        </g>
        <g
           id="g3361"
           style="fill:rgb(0%,0%,0%);fill-opacity:1;">
          <use
             id="use3363"
             y="139.218"
             x="338.680806"
             xlink:href="#textext-c4e4329c-18" />
        </g>
        <g
           id="g3365"
           style="fill:rgb(0%,0%,0%);fill-opacity:1;">
          <use
             id="use3367"
             y="139.218"
             x="340.125383"
             xlink:href="#textext-c4e4329c-18" />
        </g>
        <g
           id="g3369"
           style="fill:rgb(0%,0%,0%);fill-opacity:1;">
          <use
             id="use3371"
             y="139.218"
             x="341.559997"
             xlink:href="#textext-c4e4329c-18" />
        </g>
        <g
           id="g3373"
           style="fill:rgb(0%,0%,0%);fill-opacity:1;">
          <use
             id="use3375"
             y="139.218"
             x="342.767"
             xlink:href="#textext-c4e4329c-16" />
        </g>
        <g
           id="g3377"
           style="fill:rgb(0%,0%,0%);fill-opacity:1;">
          <use
             id="use3379"
             y="148.536"
             x="314.463"
             xlink:href="#textext-c4e4329c-23" />
        </g>
        <g
           id="g3381"
           style="fill:rgb(0%,0%,0%);fill-opacity:1;">
          <use
             id="use3383"
             y="148.536"
             x="318.724"
             xlink:href="#textext-c4e4329c-26" />
        </g>
        <g
           id="g3385"
           style="fill:rgb(0%,0%,0%);fill-opacity:1;">
          <use
             id="use3387"
             y="148.536"
             x="321.046"
             xlink:href="#textext-c4e4329c-24" />
        </g>
        <g
           id="g3389"
           style="fill:rgb(0%,0%,0%);fill-opacity:1;">
          <use
             id="use3391"
             y="148.536"
             x="325.461"
             xlink:href="#textext-c4e4329c-33" />
        </g>
        <g
           id="g3393"
           style="fill:rgb(0%,0%,0%);fill-opacity:1;">
          <use
             id="use3395"
             y="148.536"
             x="329.896"
             xlink:href="#textext-c4e4329c-27" />
          <use
             id="use3397"
             y="148.536"
             x="333.3829"
             xlink:href="#textext-c4e4329c-28" />
        </g>
        <g
           id="g3399"
           style="fill:rgb(0%,0%,0%);fill-opacity:1;">
          <use
             id="use3401"
             y="148.536"
             x="335.705"
             xlink:href="#textext-c4e4329c-33" />
        </g>
        <g
           id="g3403"
           style="fill:rgb(0%,0%,0%);fill-opacity:1;">
          <use
             id="use3405"
             y="148.536"
             x="340.141"
             xlink:href="#textext-c4e4329c-29" />
        </g>
        <g
           id="g3407"
           style="fill:rgb(0%,0%,0%);fill-opacity:1;">
          <use
             id="use3409"
             y="155.611"
             x="323.923"
             xlink:href="#textext-c4e4329c-30" />
          <use
             id="use3411"
             y="155.611"
             x="328.958084"
             xlink:href="#textext-c4e4329c-31" />
        </g>
        <g
           id="g3413"
           style="fill:rgb(0%,0%,0%);fill-opacity:1;">
          <use
             id="use3415"
             y="134.765"
             x="348.963"
             xlink:href="#textext-c4e4329c-7" />
          <use
             id="use3417"
             y="134.765"
             x="352.280546"
             xlink:href="#textext-c4e4329c-8" />
        </g>
      </g>
    </g>
    <path
       style="fill:none;stroke:#000000;stroke-width:1px;stroke-linecap:butt;stroke-linejoin:miter;stroke-opacity:1;marker-end:url(#Arrow1Mend)"
       d="m 311.63206,182.24203 -13.95273,6.7554 -1.6415,-7.26047"
       id="path3658"
       inkscape:connector-curvature="0"
       sodipodi:nodetypes="ccc" />
  </g>
</svg>
