<?xml version="1.0" encoding="UTF-8" standalone="no"?>
<!-- Created with Inkscape (http://www.inkscape.org/) -->

<svg
   xmlns:ns0="http://www.iki.fi/pav/software/textext/"
   xmlns:dc="http://purl.org/dc/elements/1.1/"
   xmlns:cc="http://creativecommons.org/ns#"
   xmlns:rdf="http://www.w3.org/1999/02/22-rdf-syntax-ns#"
   xmlns:svg="http://www.w3.org/2000/svg"
   xmlns="http://www.w3.org/2000/svg"
   xmlns:xlink="http://www.w3.org/1999/xlink"
   xmlns:sodipodi="http://sodipodi.sourceforge.net/DTD/sodipodi-0.dtd"
   xmlns:inkscape="http://www.inkscape.org/namespaces/inkscape"
   width="460.62991"
   height="212.59842"
   id="svg2"
   version="1.1"
   inkscape:version="0.48.4 r9939"
   sodipodi:docname="fig4.eps">
  <sodipodi:namedview
     id="base"
     pagecolor="#ffffff"
     bordercolor="#666666"
     borderopacity="1.0"
     inkscape:pageopacity="0.0"
     inkscape:pageshadow="2"
     inkscape:zoom="1.9352179"
     inkscape:cx="327.56712"
     inkscape:cy="62.058714"
     inkscape:document-units="px"
     inkscape:current-layer="layer1"
     showgrid="false"
     units="cm"
     inkscape:window-width="1024"
     inkscape:window-height="744"
     inkscape:window-x="0"
     inkscape:window-y="24"
     inkscape:window-maximized="1" />
  <defs
     id="defs4">
    <marker
       style="overflow:visible"
       id="Arrow1Mstart"
       refX="0"
       refY="0"
       orient="auto"
       inkscape:stockid="Arrow1Mstart">
      <path
         inkscape:connector-curvature="0"
         transform="matrix(0.4,0,0,0.4,4,0)"
         style="fill-rule:evenodd;stroke:#000000;stroke-width:1pt"
         d="M 0,0 5,-5 -12.5,0 5,5 0,0 z"
         id="path3950" />
    </marker>
    <marker
       inkscape:stockid="Arrow1Mend"
       orient="auto"
       refY="0"
       refX="0"
       id="Arrow1Mend"
       style="overflow:visible">
      <path
         inkscape:connector-curvature="0"
         id="path3776"
         d="M 0,0 5,-5 -12.5,0 5,5 0,0 z"
         style="fill-rule:evenodd;stroke:#000000;stroke-width:1pt"
         transform="matrix(-0.4,0,0,-0.4,-4,0)" />
    </marker>
  </defs>
  <metadata
     id="metadata7">
    <rdf:RDF>
      <cc:Work
         rdf:about="">
        <dc:format>image/svg+xml</dc:format>
        <dc:type
           rdf:resource="http://purl.org/dc/dcmitype/StillImage" />
        <dc:title></dc:title>
      </cc:Work>
    </rdf:RDF>
  </metadata>
  <g
     inkscape:label="Layer 1"
     inkscape:groupmode="layer"
     id="layer1"
     transform="translate(0,-839.76245)">
    <path
       style="fill:none;stroke:#000000;stroke-width:1px;stroke-linecap:butt;stroke-linejoin:miter;stroke-opacity:1"
       d="m 238.77376,980.00502 195.69039,0"
       id="path2985"
       inkscape:connector-curvature="0"
       sodipodi:nodetypes="cc" />
    <path
       style="fill:none;stroke:#000000;stroke-width:1px;stroke-linecap:butt;stroke-linejoin:miter;stroke-opacity:1"
       d="m 239.68945,974.14786 c 54.00663,-7.11686 62.77765,-62.14149 90.16884,-62.47993 29.34528,-0.36259 31.65684,51.679 90.33673,64.12323"
       id="path2987"
       inkscape:connector-curvature="0"
       sodipodi:nodetypes="csc" />
    <g
       id="g3108"
       transform="matrix(1.142745,0,0,1.2,183.03254,820.64274)"
       ns0:preamble="/home/sriranga/Desktop/general-books/CSY/article4/figure/package.tex"
       ns0:text="$z$">
      <defs
         id="defs3110">
        <g
           id="g3112">
          <symbol
             id="textext-726555d1-0"
             overflow="visible"
             style="overflow:visible">
            <path
               id="path3115"
               d=""
               style="stroke:none"
               inkscape:connector-curvature="0" />
          </symbol>
          <symbol
             id="textext-726555d1-1"
             overflow="visible"
             style="overflow:visible">
            <path
               id="path3118"
               d="m 0.8125,-3.078125 c 0.203125,-0.5 0.328125,-0.59375 0.796875,-0.59375 l 1.46875,0 -3.09375,3.71875 L 0.0625,0.125 C 0.234375,0 0.359375,-0.046875 0.53125,-0.046875 c 0.234375,0 0.5625,0.125 1.03125,0.421875 0.5,0.296875 0.84375,0.4375 1.125,0.4375 0.5,0 0.9375,-0.359375 0.9375,-0.765625 C 3.625,-0.15625 3.484375,-0.3125 3.265625,-0.3125 3.078125,-0.3125 2.9375,-0.171875 2.9375,0 c 0,0.09375 0.015625,0.1875 0.078125,0.296875 0.03125,0.0625 0.0625,0.125 0.0625,0.15625 0,0.078125 -0.125,0.140625 -0.28125,0.140625 -0.25,0 -0.359375,-0.078125 -0.6875,-0.5 -0.4375,-0.5625 -0.640625,-0.6875 -1.21875,-0.828125 l 2.890625,-3.421875 0,-0.109375 -2.828125,0 -0.3125,1.140625 z m 0,0"
               style="stroke:none"
               inkscape:connector-curvature="0" />
          </symbol>
        </g>
      </defs>
      <g
         id="textext-726555d1-2">
        <g
           id="g3121"
           style="fill:#000000;fill-opacity:1">
          <use
             id="use3123"
             y="134.765"
             x="223.43201"
             xlink:href="#textext-726555d1-1"
             width="460.62991"
             height="212.59842" />
        </g>
      </g>
    </g>
    <g
       ns0:text="$f$"
       ns0:preamble="/home/sriranga/Desktop/general-books/CSY/article4/figure/package.tex"
       transform="matrix(1.142745,0,0,1.2,73.046082,740.60312)"
       id="g3187">
      <defs
         id="defs3189">
        <g
           id="g3191">
          <symbol
             style="overflow:visible"
             overflow="visible"
             id="textext-770efaee-0">
            <path
               inkscape:connector-curvature="0"
               style="stroke:none"
               d=""
               id="path3194" />
          </symbol>
          <symbol
             style="overflow:visible"
             overflow="visible"
             id="textext-770efaee-1">
            <path
               inkscape:connector-curvature="0"
               style="stroke:none"
               d="m 0.34375,-3.953125 0.90625,0 -0.875,4.1875 c -0.21875,1.078125 -0.546875,1.625 -0.96875,1.625 -0.125,0 -0.203125,-0.078125 -0.203125,-0.171875 0,-0.015625 0.015625,-0.046875 0.046875,-0.109375 0.03125,-0.046875 0.046875,-0.09375 0.046875,-0.15625 0,-0.203125 -0.1875,-0.375 -0.390625,-0.375 -0.21875,0 -0.375,0.171875 -0.375,0.40625 0,0.34375 0.359375,0.609375 0.796875,0.609375 0.875,0 1.578125,-0.984375 1.984375,-2.8125 l 0.71875,-3.203125 1.09375,0 0.0625,-0.3125 -1.078125,0 c 0.28125,-1.5625 0.65625,-2.28125 1.203125,-2.28125 0.140625,0 0.21875,0.0625 0.21875,0.125 0,0.03125 0,0.046875 -0.03125,0.109375 -0.046875,0.078125 -0.0625,0.125 -0.0625,0.203125 0,0.234375 0.15625,0.390625 0.375,0.390625 0.21875,0 0.421875,-0.171875 0.421875,-0.390625 0,-0.375 -0.375,-0.65625 -0.859375,-0.65625 -0.5,0 -0.875,0.21875 -1.234375,0.6875 -0.3125,0.390625 -0.5,0.859375 -0.8125,1.8125 l -0.90625,0 z m 0,0"
               id="path3197" />
          </symbol>
        </g>
      </defs>
      <g
         id="textext-770efaee-2">
        <g
           style="fill:#000000;fill-opacity:1"
           id="g3200">
          <use
             height="212.59842"
             width="460.62991"
             xlink:href="#textext-770efaee-1"
             x="224.92599"
             y="134.765"
             id="use3202" />
        </g>
      </g>
    </g>
    <text
       sodipodi:linespacing="125%"
       id="text3234"
       y="990.00745"
       x="320.45874"
       style="font-size:12px;font-style:normal;font-variant:normal;font-weight:normal;font-stretch:normal;line-height:125%;letter-spacing:0px;word-spacing:0px;fill:#000000;fill-opacity:1;stroke:none;font-family:Nimbus Roman No9 L;-inkscape-font-specification:Nimbus Roman No9 L"
       xml:space="preserve"><tspan
         y="990.00745"
         x="320.45874"
         id="tspan3236"
         sodipodi:role="line">0</tspan></text>
    <path
       style="fill:none;stroke:#000000;stroke-width:1px;stroke-linecap:butt;stroke-linejoin:miter;stroke-opacity:1"
       d="m 350.66686,896.89272 0,83.40738"
       id="path3411"
       inkscape:connector-curvature="0"
       sodipodi:nodetypes="cc" />
    <path
       sodipodi:nodetypes="cssc"
       inkscape:connector-curvature="0"
       id="path3413"
       d="m 239.68945,974.14786 c 54.00663,-7.11686 62.77765,-62.14148 90.16884,-62.47993 8.14402,-0.10063 14.20592,3.8349 19.96839,9.84006 15.00139,15.63317 27.97354,45.29251 70.36834,54.28317"
       style="fill:none;stroke:#000000;stroke-width:1px;stroke-linecap:butt;stroke-linejoin:miter;stroke-opacity:1" />
    <path
       style="fill:#cccccc;stroke:#000000;stroke-width:0;stroke-linecap:butt;stroke-linejoin:miter;stroke-miterlimit:4;stroke-opacity:1;stroke-dasharray:none"
       d="m 329.54529,912.04583 c 8.09149,-0.92896 18.18143,4.81265 20.91314,12.67431 -0.47269,13.33701 -0.46088,54.89281 -0.46088,54.89281 l -108.52347,0.0455 -1.97386,-5.0668 c 56.33921,-9.07222 60.76438,-59.18414 90.04507,-62.54579 z"
       id="path3415"
       inkscape:connector-curvature="0"
       sodipodi:nodetypes="sccccs" />
    <path
       sodipodi:nodetypes="cc"
       inkscape:connector-curvature="0"
       id="path4290"
       d="m 329.91106,907.17784 0,95.12226"
       style="fill:none;stroke:#000000;stroke-width:1px;stroke-linecap:butt;stroke-linejoin:miter;stroke-opacity:1" />
    <g
       ns0:text="$z$"
       ns0:preamble="/home/sriranga/Desktop/general-books/CSY/article4/figure/package.tex"
       transform="matrix(1.142745,0,0,1.2,93.03254,826.64274)"
       id="g4197">
      <defs
         id="defs4199">
        <g
           id="g4201">
          <symbol
             style="overflow:visible"
             overflow="visible"
             id="symbol4203">
            <path
               inkscape:connector-curvature="0"
               style="stroke:none"
               d=""
               id="path4205" />
          </symbol>
          <symbol
             style="overflow:visible"
             overflow="visible"
             id="symbol4207">
            <path
               inkscape:connector-curvature="0"
               style="stroke:none"
               d="m 0.8125,-3.078125 c 0.203125,-0.5 0.328125,-0.59375 0.796875,-0.59375 l 1.46875,0 -3.09375,3.71875 L 0.0625,0.125 C 0.234375,0 0.359375,-0.046875 0.53125,-0.046875 c 0.234375,0 0.5625,0.125 1.03125,0.421875 0.5,0.296875 0.84375,0.4375 1.125,0.4375 0.5,0 0.9375,-0.359375 0.9375,-0.765625 C 3.625,-0.15625 3.484375,-0.3125 3.265625,-0.3125 3.078125,-0.3125 2.9375,-0.171875 2.9375,0 c 0,0.09375 0.015625,0.1875 0.078125,0.296875 0.03125,0.0625 0.0625,0.125 0.0625,0.15625 0,0.078125 -0.125,0.140625 -0.28125,0.140625 -0.25,0 -0.359375,-0.078125 -0.6875,-0.5 -0.4375,-0.5625 -0.640625,-0.6875 -1.21875,-0.828125 l 2.890625,-3.421875 0,-0.109375 -2.828125,0 -0.3125,1.140625 z m 0,0"
               id="path4209" />
          </symbol>
        </g>
      </defs>
      <g
         id="g4211">
        <g
           style="fill:#000000;fill-opacity:1"
           id="g4213">
          <use
             height="212.59842"
             width="460.62991"
             xlink:href="#textext-726555d1-1"
             x="223.43201"
             y="134.765"
             id="use4215" />
        </g>
      </g>
    </g>
    <path
       transform="translate(0,839.76245)"
       inkscape:connector-curvature="0"
       id="path4217"
       d="m 261.33652,91.817122 53.44305,0"
       style="fill:none;stroke:#000000;stroke-width:1px;stroke-linecap:butt;stroke-linejoin:miter;stroke-opacity:1;marker-end:url(#Arrow1Mend)" />
    <g
       id="g4451"
       ns0:preamble="/home/sriranga/Desktop/general-books/CSY/article4/figure/package.tex"
       ns0:text="$\\Phi(z)$"
       transform="matrix(1.2,0,0,1.2,-30.912992,773.60579)">
      <defs
         id="defs4453">
        <g
           id="g4455">
          <symbol
             id="textext-968502a5-0"
             overflow="visible"
             style="overflow:visible">
            <path
               id="path4458"
               d=""
               style="stroke:none"
               inkscape:connector-curvature="0" />
          </symbol>
          <symbol
             id="textext-968502a5-1"
             overflow="visible"
             style="overflow:visible">
            <path
               id="path4461"
               d="m 6.9375,-3.296875 c 0,-1.609375 -1.40625,-2.328125 -2.828125,-2.375 0.03125,-0.546875 0.421875,-0.75 0.9375,-0.75 l 0,-0.171875 -2.796875,0 0,0.171875 c 0.5,0 0.875,0.203125 0.921875,0.75 -1.421875,0.0625 -2.828125,0.765625 -2.828125,2.375 0,1.5625 1.40625,2.375 2.828125,2.375 C 3.125,-0.375 2.75,-0.171875 2.25,-0.171875 L 2.25,0 l 2.796875,0 0,-0.171875 c -0.515625,0 -0.90625,-0.203125 -0.9375,-0.75 1.40625,0 2.828125,-0.8125 2.828125,-2.375 z M 5.890625,-3.375 c 0,1.25 -0.390625,2.125 -1.78125,2.171875 l 0,-4.203125 c 1.25,0.078125 1.78125,0.828125 1.78125,2.03125 z m -2.71875,2.171875 C 1.9375,-1.265625 1.390625,-2.03125 1.390625,-3.21875 c 0,-1.25 0.40625,-2.109375 1.78125,-2.1875 z m 0,0"
               style="stroke:none"
               inkscape:connector-curvature="0" />
          </symbol>
          <symbol
             id="textext-968502a5-2"
             overflow="visible"
             style="overflow:visible">
            <path
               id="path4464"
               d=""
               style="stroke:none"
               inkscape:connector-curvature="0" />
          </symbol>
          <symbol
             id="textext-968502a5-3"
             overflow="visible"
             style="overflow:visible">
            <path
               id="path4467"
               d="M 2.9375,-6.734375 C 2.203125,-6.265625 1.90625,-6 1.53125,-5.546875 c -0.703125,0.875 -1.046875,1.875 -1.046875,3.03125 0,1.265625 0.359375,2.25 1.234375,3.265625 0.421875,0.46875 0.671875,0.703125 1.1875,1.015625 l 0.125,-0.15625 C 2.234375,0.984375 1.953125,0.625 1.6875,-0.125 1.453125,-0.78125 1.328125,-1.546875 1.328125,-2.546875 1.328125,-3.59375 1.46875,-4.40625 1.734375,-5.03125 2.015625,-5.640625 2.3125,-6 3.03125,-6.578125 z m 0,0"
               style="stroke:none"
               inkscape:connector-curvature="0" />
          </symbol>
          <symbol
             id="textext-968502a5-4"
             overflow="visible"
             style="overflow:visible">
            <path
               id="path4470"
               d="M 0.375,1.765625 C 1.109375,1.28125 1.421875,1.03125 1.78125,0.5625 2.5,-0.296875 2.84375,-1.296875 2.84375,-2.46875 c 0,-1.265625 -0.375,-2.234375 -1.25,-3.25 C 1.1875,-6.203125 0.921875,-6.421875 0.40625,-6.734375 l -0.109375,0.15625 c 0.796875,0.625 1.0625,0.96875 1.34375,1.71875 0.234375,0.671875 0.34375,1.4375 0.34375,2.421875 0,1.046875 -0.125,1.875 -0.40625,2.484375 C 1.3125,0.671875 1,1.03125 0.296875,1.609375 z m 0,0"
               style="stroke:none"
               inkscape:connector-curvature="0" />
          </symbol>
          <symbol
             id="textext-968502a5-5"
             overflow="visible"
             style="overflow:visible">
            <path
               id="path4473"
               d=""
               style="stroke:none"
               inkscape:connector-curvature="0" />
          </symbol>
          <symbol
             id="textext-968502a5-6"
             overflow="visible"
             style="overflow:visible">
            <path
               id="path4476"
               d="m 0.8125,-3.078125 c 0.203125,-0.5 0.328125,-0.59375 0.796875,-0.59375 l 1.46875,0 -3.09375,3.71875 L 0.0625,0.125 C 0.234375,0 0.359375,-0.046875 0.53125,-0.046875 c 0.234375,0 0.5625,0.125 1.03125,0.421875 0.5,0.296875 0.84375,0.4375 1.125,0.4375 0.5,0 0.9375,-0.359375 0.9375,-0.765625 C 3.625,-0.15625 3.484375,-0.3125 3.265625,-0.3125 3.078125,-0.3125 2.9375,-0.171875 2.9375,0 c 0,0.09375 0.015625,0.1875 0.078125,0.296875 0.03125,0.0625 0.0625,0.125 0.0625,0.15625 0,0.078125 -0.125,0.140625 -0.28125,0.140625 -0.25,0 -0.359375,-0.078125 -0.6875,-0.5 -0.4375,-0.5625 -0.640625,-0.6875 -1.21875,-0.828125 l 2.890625,-3.421875 0,-0.109375 -2.828125,0 -0.3125,1.140625 z m 0,0"
               style="stroke:none"
               inkscape:connector-curvature="0" />
          </symbol>
        </g>
      </defs>
      <g
         id="textext-968502a5-7">
        <g
           id="g4479"
           style="fill:#000000;fill-opacity:1">
          <use
             id="use4481"
             y="134.765"
             x="223.43201"
             xlink:href="#textext-968502a5-1"
             width="460.62991"
             height="212.59842" />
        </g>
        <g
           id="g4483"
           style="fill:#000000;fill-opacity:1">
          <use
             id="use4485"
             y="134.765"
             x="230.715"
             xlink:href="#textext-968502a5-3"
             width="460.62991"
             height="212.59842" />
        </g>
        <g
           id="g4487"
           style="fill:#000000;fill-opacity:1">
          <use
             id="use4489"
             y="134.765"
             x="234.032"
             xlink:href="#textext-968502a5-6"
             width="460.62991"
             height="212.59842" />
        </g>
        <g
           id="g4491"
           style="fill:#000000;fill-opacity:1">
          <use
             id="use4493"
             y="134.765"
             x="237.908"
             xlink:href="#textext-968502a5-4"
             width="460.62991"
             height="212.59842" />
        </g>
      </g>
    </g>
    <text
       xml:space="preserve"
       style="font-size:12px;font-style:normal;font-variant:normal;font-weight:normal;font-stretch:normal;line-height:125%;letter-spacing:0px;word-spacing:0px;fill:#000000;fill-opacity:1;stroke:none;font-family:Nimbus Roman No9 L;-inkscape-font-specification:Nimbus Roman No9 L"
       x="181.44186"
       y="934.54468"
       id="text4567"
       sodipodi:linespacing="125%"><tspan
         sodipodi:role="line"
         id="tspan4569"
         x="181.44186"
         y="934.54468">this area is</tspan></text>
  </g>
</svg>
