<?xml version="1.0" encoding="UTF-8" standalone="no"?>
<!-- Created with Inkscape (http://www.inkscape.org/) -->

<svg
   xmlns:ns0="http://www.iki.fi/pav/software/textext/"
   xmlns:dc="http://purl.org/dc/elements/1.1/"
   xmlns:cc="http://creativecommons.org/ns#"
   xmlns:rdf="http://www.w3.org/1999/02/22-rdf-syntax-ns#"
   xmlns:svg="http://www.w3.org/2000/svg"
   xmlns="http://www.w3.org/2000/svg"
   xmlns:xlink="http://www.w3.org/1999/xlink"
   xmlns:sodipodi="http://sodipodi.sourceforge.net/DTD/sodipodi-0.dtd"
   xmlns:inkscape="http://www.inkscape.org/namespaces/inkscape"
   width="460.62991"
   height="212.59842"
   id="svg2"
   version="1.1"
   inkscape:version="0.48.4 r9939"
   sodipodi:docname="fig6.svg">
  <sodipodi:namedview
     id="base"
     pagecolor="#ffffff"
     bordercolor="#666666"
     borderopacity="1.0"
     inkscape:pageopacity="0.0"
     inkscape:pageshadow="2"
     inkscape:zoom="1.3231033"
     inkscape:cx="402.50346"
     inkscape:cy="-38.863749"
     inkscape:document-units="px"
     inkscape:current-layer="layer1"
     showgrid="false"
     units="cm"
     inkscape:window-width="1024"
     inkscape:window-height="744"
     inkscape:window-x="0"
     inkscape:window-y="24"
     inkscape:window-maximized="1" />
  <defs
     id="defs4">
    <marker
       style="overflow:visible"
       id="Arrow1Mstart"
       refX="0"
       refY="0"
       orient="auto"
       inkscape:stockid="Arrow1Mstart">
      <path
         inkscape:connector-curvature="0"
         transform="matrix(0.4,0,0,0.4,4,0)"
         style="fill-rule:evenodd;stroke:#000000;stroke-width:1pt"
         d="M 0,0 5,-5 -12.5,0 5,5 0,0 z"
         id="path3950" />
    </marker>
    <marker
       inkscape:stockid="Arrow1Mend"
       orient="auto"
       refY="0"
       refX="0"
       id="Arrow1Mend"
       style="overflow:visible">
      <path
         inkscape:connector-curvature="0"
         id="path3776"
         d="M 0,0 5,-5 -12.5,0 5,5 0,0 z"
         style="fill-rule:evenodd;stroke:#000000;stroke-width:1pt"
         transform="matrix(-0.4,0,0,-0.4,-4,0)" />
    </marker>
  </defs>
  <metadata
     id="metadata7">
    <rdf:RDF>
      <cc:Work
         rdf:about="">
        <dc:format>image/svg+xml</dc:format>
        <dc:type
           rdf:resource="http://purl.org/dc/dcmitype/StillImage" />
        <dc:title />
      </cc:Work>
    </rdf:RDF>
  </metadata>
  <g
     inkscape:label="Layer 1"
     inkscape:groupmode="layer"
     id="layer1"
     transform="translate(0,-839.76245)">
    <path
       style="fill:none;stroke:#000000;stroke-width:1px;stroke-linecap:butt;stroke-linejoin:miter;stroke-opacity:1"
       d="m 238.77376,980.00502 181.33021,0"
       id="path2985"
       inkscape:connector-curvature="0"
       sodipodi:nodetypes="cc" />
    <path
       style="fill:none;stroke:#000000;stroke-width:1px;stroke-linecap:butt;stroke-linejoin:miter;stroke-opacity:1"
       d="m 217.01548,973.89423 c 75.9248,5.09809 85.45162,-45.86414 112.84281,-46.11547 11.65032,-0.10689 98.76045,-0.67058 116.03985,-0.2416"
       id="path2987"
       inkscape:connector-curvature="0"
       sodipodi:nodetypes="csc" />
    <path
       sodipodi:nodetypes="cc"
       inkscape:connector-curvature="0"
       id="path4290"
       d="m 301.5686,919.27062 0,75.84939"
       style="fill:none;stroke:#000000;stroke-width:1px;stroke-linecap:butt;stroke-linejoin:miter;stroke-opacity:1" />
    <g
       id="g3108"
       transform="matrix(1.142745,0,0,1.2,169.03254,820.64274)"
       ns0:preamble="/home/sriranga/Desktop/general-books/CSY/article4/figure/package.tex"
       ns0:text="$z$">
      <defs
         id="defs3110">
        <g
           id="g3112">
          <symbol
             id="textext-726555d1-0"
             overflow="visible"
             style="overflow:visible">
            <path
               id="path3115"
               d=""
               style="stroke:none"
               inkscape:connector-curvature="0" />
          </symbol>
          <symbol
             id="textext-726555d1-1"
             overflow="visible"
             style="overflow:visible">
            <path
               id="path3118"
               d="m 0.8125,-3.078125 c 0.203125,-0.5 0.328125,-0.59375 0.796875,-0.59375 l 1.46875,0 -3.09375,3.71875 L 0.0625,0.125 C 0.234375,0 0.359375,-0.046875 0.53125,-0.046875 c 0.234375,0 0.5625,0.125 1.03125,0.421875 0.5,0.296875 0.84375,0.4375 1.125,0.4375 0.5,0 0.9375,-0.359375 0.9375,-0.765625 C 3.625,-0.15625 3.484375,-0.3125 3.265625,-0.3125 3.078125,-0.3125 2.9375,-0.171875 2.9375,0 c 0,0.09375 0.015625,0.1875 0.078125,0.296875 0.03125,0.0625 0.0625,0.125 0.0625,0.15625 0,0.078125 -0.125,0.140625 -0.28125,0.140625 -0.25,0 -0.359375,-0.078125 -0.6875,-0.5 -0.4375,-0.5625 -0.640625,-0.6875 -1.21875,-0.828125 l 2.890625,-3.421875 0,-0.109375 -2.828125,0 -0.3125,1.140625 z m 0,0"
               style="stroke:none"
               inkscape:connector-curvature="0" />
          </symbol>
        </g>
      </defs>
      <g
         id="textext-726555d1-2">
        <g
           id="g3121"
           style="fill:#000000;fill-opacity:1">
          <use
             id="use3123"
             y="134.765"
             x="223.43201"
             xlink:href="#textext-726555d1-1"
             width="460.62991"
             height="212.59842" />
        </g>
      </g>
    </g>
    <text
       sodipodi:linespacing="125%"
       id="text3234"
       y="966.19977"
       x="200.66461"
       style="font-size:12px;font-style:normal;font-variant:normal;font-weight:normal;font-stretch:normal;line-height:125%;letter-spacing:0px;word-spacing:0px;fill:#000000;fill-opacity:1;stroke:none;font-family:Nimbus Roman No9 L;-inkscape-font-specification:Nimbus Roman No9 L"
       xml:space="preserve"><tspan
         y="966.19977"
         x="200.66461"
         id="tspan3236"
         sodipodi:role="line">0</tspan></text>
    <g
       id="g3035"
       transform="matrix(1.142745,0,0,1.2,42.058327,754.49262)"
       ns0:preamble="/home/sriranga/Desktop/general-books/CSY/article4/figure/package.tex"
       ns0:text="$\\Phi$">
      <defs
         id="defs3037">
        <g
           id="g3039">
          <symbol
             id="textext-243f220f-0"
             overflow="visible"
             style="overflow:visible">
            <path
               id="path3042"
               d=""
               style="stroke:none"
               inkscape:connector-curvature="0" />
          </symbol>
          <symbol
             id="textext-243f220f-1"
             overflow="visible"
             style="overflow:visible">
            <path
               id="path3045"
               d="m 6.9375,-3.296875 c 0,-1.609375 -1.40625,-2.328125 -2.828125,-2.375 0.03125,-0.546875 0.421875,-0.75 0.9375,-0.75 l 0,-0.171875 -2.796875,0 0,0.171875 c 0.5,0 0.875,0.203125 0.921875,0.75 -1.421875,0.0625 -2.828125,0.765625 -2.828125,2.375 0,1.5625 1.40625,2.375 2.828125,2.375 C 3.125,-0.375 2.75,-0.171875 2.25,-0.171875 L 2.25,0 l 2.796875,0 0,-0.171875 c -0.515625,0 -0.90625,-0.203125 -0.9375,-0.75 1.40625,0 2.828125,-0.8125 2.828125,-2.375 z M 5.890625,-3.375 c 0,1.25 -0.390625,2.125 -1.78125,2.171875 l 0,-4.203125 c 1.25,0.078125 1.78125,0.828125 1.78125,2.03125 z m -2.71875,2.171875 C 1.9375,-1.265625 1.390625,-2.03125 1.390625,-3.21875 c 0,-1.25 0.40625,-2.109375 1.78125,-2.1875 z m 0,0"
               style="stroke:none"
               inkscape:connector-curvature="0" />
          </symbol>
        </g>
      </defs>
      <g
         id="textext-243f220f-2">
        <g
           id="g3048"
           style="fill:#000000;fill-opacity:1">
          <use
             id="use3050"
             y="134.765"
             x="223.43201"
             xlink:href="#textext-243f220f-1"
             width="460.62991"
             height="212.59842" />
        </g>
      </g>
    </g>
    <path
       style="fill:none;stroke:#000000;stroke-width:1px;stroke-linecap:butt;stroke-linejoin:miter;stroke-opacity:1;marker-end:url(#Arrow1Mend)"
       d="m 229.76286,122.65835 -19.27287,0"
       id="path3084"
       inkscape:connector-curvature="0"
       transform="translate(0,839.76245)" />
    <path
       inkscape:connector-curvature="0"
       id="path4050"
       d="m 429.73999,920.4208 19.27287,0"
       style="fill:none;stroke:#000000;stroke-width:1px;stroke-linecap:butt;stroke-linejoin:miter;stroke-opacity:1;marker-end:url(#Arrow1Mend)" />
    <text
       xml:space="preserve"
       style="font-size:12px;font-style:normal;font-variant:normal;font-weight:normal;font-stretch:normal;line-height:125%;letter-spacing:0px;word-spacing:0px;fill:#000000;fill-opacity:1;stroke:none;font-family:Nimbus Roman No9 L;-inkscape-font-specification:Nimbus Roman No9 L"
       x="453.10141"
       y="923.84637"
       id="text4052"
       sodipodi:linespacing="125%"><tspan
         sodipodi:role="line"
         id="tspan4054"
         x="453.10141"
         y="923.84637">1</tspan></text>
    <g
       ns0:text="$\\frac{1}{2}$"
       ns0:preamble="/home/sriranga/Desktop/general-books/CSY/article4/figure/package.tex"
       transform="matrix(1.142745,0,0,1.2,58.090384,804.64951)"
       id="g4114">
      <defs
         id="defs4116">
        <g
           id="g4118">
          <symbol
             style="overflow:visible"
             overflow="visible"
             id="textext-180289a9-0">
            <path
               inkscape:connector-curvature="0"
               style="stroke:none"
               d=""
               id="path4121" />
          </symbol>
          <symbol
             style="overflow:visible"
             overflow="visible"
             id="textext-180289a9-1">
            <path
               inkscape:connector-curvature="0"
               style="stroke:none"
               d="m 2.03125,-4.703125 -1.25,0.625 0,0.09375 c 0.078125,-0.03125 0.15625,-0.0625 0.1875,-0.078125 0.125,-0.046875 0.234375,-0.0625 0.3125,-0.0625 0.140625,0 0.203125,0.09375 0.203125,0.3125 l 0,3.171875 c 0,0.21875 -0.0625,0.375 -0.171875,0.453125 -0.09375,0.0625 -0.203125,0.078125 -0.484375,0.078125 L 0.828125,0 2.75,0 l 0,-0.109375 c -0.5625,0 -0.671875,-0.078125 -0.671875,-0.40625 l 0,-4.1875 z m 0,0"
               id="path4124" />
          </symbol>
          <symbol
             style="overflow:visible"
             overflow="visible"
             id="textext-180289a9-2">
            <path
               inkscape:connector-curvature="0"
               style="stroke:none"
               d="M 3.3125,-0.953125 3.21875,-0.984375 C 2.96875,-0.59375 2.875,-0.53125 2.5625,-0.53125 l -1.671875,0 L 2.0625,-1.75 c 0.625,-0.65625 0.890625,-1.1875 0.890625,-1.734375 0,-0.6875 -0.5625,-1.21875 -1.28125,-1.21875 -0.390625,0 -0.75,0.140625 -1.015625,0.421875 -0.21875,0.234375 -0.328125,0.46875 -0.4375,0.953125 l 0.140625,0.03125 C 0.640625,-3.96875 0.890625,-4.1875 1.375,-4.1875 c 0.578125,0 0.984375,0.390625 0.984375,0.96875 0,0.546875 -0.328125,1.203125 -0.90625,1.8125 l -1.25,1.328125 0,0.078125 2.71875,0 z m 0,0"
               id="path4127" />
          </symbol>
        </g>
      </defs>
      <g
         id="textext-180289a9-3">
        <g
           style="fill:#000000;fill-opacity:1"
           id="g4130">
          <use
             height="212.59842"
             width="460.62991"
             xlink:href="#textext-180289a9-1"
             x="224.62801"
             y="130.839"
             id="use4132" />
        </g>
        <path
           inkscape:connector-curvature="0"
           style="fill:none;stroke:#000000;stroke-width:0.55800003;stroke-linecap:butt;stroke-linejoin:miter;stroke-miterlimit:10;stroke-opacity:1"
           d="m 9.0625e-4,8.75e-4 3.48437475,0"
           transform="matrix(1,0,0,-1,224.628,132.204)"
           id="path4134" />
        <g
           style="fill:#000000;fill-opacity:1"
           id="g4136">
          <use
             height="212.59842"
             width="460.62991"
             xlink:href="#textext-180289a9-2"
             x="224.62801"
             y="138.202"
             id="use4138" />
        </g>
      </g>
    </g>
    <path
       sodipodi:nodetypes="ccccc"
       inkscape:connector-curvature="0"
       id="path4191"
       d="m 306.40236,956.43899 c 0.64529,2.19232 2.1314,2.21918 1.77282,5.07812 l 2.15894,1.76794 -2.15894,1.76794 c 0.35858,2.85896 -1.12753,2.88581 -1.77282,5.07813"
       style="fill:none;stroke:#000000;stroke-width:0.99999994px;stroke-linecap:butt;stroke-linejoin:miter;stroke-opacity:1" />
    <text
       sodipodi:linespacing="125%"
       id="text3031"
       y="905.39246"
       x="161.93245"
       style="font-size:12px;font-style:normal;font-variant:normal;font-weight:normal;font-stretch:normal;line-height:125%;letter-spacing:0px;word-spacing:0px;fill:#000000;fill-opacity:1;stroke:none;font-family:Nimbus Roman No9 L;-inkscape-font-specification:Nimbus Roman No9 L"
       xml:space="preserve"><tspan
         y="905.39246"
         x="161.93245"
         id="tspan3033"
         sodipodi:role="line">graph of</tspan></text>
    <g
       id="g3113"
       transform="matrix(1.142745,0,0,1.2,-48.706513,744.33844)"
       ns0:preamble="/home/sriranga/Desktop/general-books/CSY/article4/figure/package.tex"
       ns0:text="$\\Phi(z)$">
      <defs
         id="defs3115">
        <g
           id="g3117">
          <symbol
             id="textext-67a04087-0"
             overflow="visible"
             style="overflow:visible">
            <path
               id="path3120"
               d=""
               style="stroke:none"
               inkscape:connector-curvature="0" />
          </symbol>
          <symbol
             id="textext-67a04087-1"
             overflow="visible"
             style="overflow:visible">
            <path
               id="path3123"
               d="m 6.9375,-3.296875 c 0,-1.609375 -1.40625,-2.328125 -2.828125,-2.375 0.03125,-0.546875 0.421875,-0.75 0.9375,-0.75 l 0,-0.171875 -2.796875,0 0,0.171875 c 0.5,0 0.875,0.203125 0.921875,0.75 -1.421875,0.0625 -2.828125,0.765625 -2.828125,2.375 0,1.5625 1.40625,2.375 2.828125,2.375 C 3.125,-0.375 2.75,-0.171875 2.25,-0.171875 L 2.25,0 l 2.796875,0 0,-0.171875 c -0.515625,0 -0.90625,-0.203125 -0.9375,-0.75 1.40625,0 2.828125,-0.8125 2.828125,-2.375 z M 5.890625,-3.375 c 0,1.25 -0.390625,2.125 -1.78125,2.171875 l 0,-4.203125 c 1.25,0.078125 1.78125,0.828125 1.78125,2.03125 z m -2.71875,2.171875 C 1.9375,-1.265625 1.390625,-2.03125 1.390625,-3.21875 c 0,-1.25 0.40625,-2.109375 1.78125,-2.1875 z m 0,0"
               style="stroke:none"
               inkscape:connector-curvature="0" />
          </symbol>
          <symbol
             id="textext-67a04087-2"
             overflow="visible"
             style="overflow:visible">
            <path
               id="path3126"
               d=""
               style="stroke:none"
               inkscape:connector-curvature="0" />
          </symbol>
          <symbol
             id="textext-67a04087-3"
             overflow="visible"
             style="overflow:visible">
            <path
               id="path3129"
               d="M 2.9375,-6.734375 C 2.203125,-6.265625 1.90625,-6 1.53125,-5.546875 c -0.703125,0.875 -1.046875,1.875 -1.046875,3.03125 0,1.265625 0.359375,2.25 1.234375,3.265625 0.421875,0.46875 0.671875,0.703125 1.1875,1.015625 l 0.125,-0.15625 C 2.234375,0.984375 1.953125,0.625 1.6875,-0.125 1.453125,-0.78125 1.328125,-1.546875 1.328125,-2.546875 1.328125,-3.59375 1.46875,-4.40625 1.734375,-5.03125 2.015625,-5.640625 2.3125,-6 3.03125,-6.578125 z m 0,0"
               style="stroke:none"
               inkscape:connector-curvature="0" />
          </symbol>
          <symbol
             id="textext-67a04087-4"
             overflow="visible"
             style="overflow:visible">
            <path
               id="path3132"
               d="M 0.375,1.765625 C 1.109375,1.28125 1.421875,1.03125 1.78125,0.5625 2.5,-0.296875 2.84375,-1.296875 2.84375,-2.46875 c 0,-1.265625 -0.375,-2.234375 -1.25,-3.25 C 1.1875,-6.203125 0.921875,-6.421875 0.40625,-6.734375 l -0.109375,0.15625 c 0.796875,0.625 1.0625,0.96875 1.34375,1.71875 0.234375,0.671875 0.34375,1.4375 0.34375,2.421875 0,1.046875 -0.125,1.875 -0.40625,2.484375 C 1.3125,0.671875 1,1.03125 0.296875,1.609375 z m 0,0"
               style="stroke:none"
               inkscape:connector-curvature="0" />
          </symbol>
          <symbol
             id="textext-67a04087-5"
             overflow="visible"
             style="overflow:visible">
            <path
               id="path3135"
               d=""
               style="stroke:none"
               inkscape:connector-curvature="0" />
          </symbol>
          <symbol
             id="textext-67a04087-6"
             overflow="visible"
             style="overflow:visible">
            <path
               id="path3138"
               d="m 0.8125,-3.078125 c 0.203125,-0.5 0.328125,-0.59375 0.796875,-0.59375 l 1.46875,0 -3.09375,3.71875 L 0.0625,0.125 C 0.234375,0 0.359375,-0.046875 0.53125,-0.046875 c 0.234375,0 0.5625,0.125 1.03125,0.421875 0.5,0.296875 0.84375,0.4375 1.125,0.4375 0.5,0 0.9375,-0.359375 0.9375,-0.765625 C 3.625,-0.15625 3.484375,-0.3125 3.265625,-0.3125 3.078125,-0.3125 2.9375,-0.171875 2.9375,0 c 0,0.09375 0.015625,0.1875 0.078125,0.296875 0.03125,0.0625 0.0625,0.125 0.0625,0.15625 0,0.078125 -0.125,0.140625 -0.28125,0.140625 -0.25,0 -0.359375,-0.078125 -0.6875,-0.5 -0.4375,-0.5625 -0.640625,-0.6875 -1.21875,-0.828125 l 2.890625,-3.421875 0,-0.109375 -2.828125,0 -0.3125,1.140625 z m 0,0"
               style="stroke:none"
               inkscape:connector-curvature="0" />
          </symbol>
        </g>
      </defs>
      <g
         id="textext-67a04087-7">
        <g
           id="g3141"
           style="fill:#000000;fill-opacity:1">
          <use
             id="use3143"
             y="134.765"
             x="223.43201"
             xlink:href="#textext-67a04087-1"
             width="460.62991"
             height="212.59842" />
        </g>
        <g
           id="g3145"
           style="fill:#000000;fill-opacity:1">
          <use
             id="use3147"
             y="134.765"
             x="230.715"
             xlink:href="#textext-67a04087-3"
             width="460.62991"
             height="212.59842" />
        </g>
        <g
           id="g3149"
           style="fill:#000000;fill-opacity:1">
          <use
             id="use3151"
             y="134.765"
             x="234.032"
             xlink:href="#textext-67a04087-6"
             width="460.62991"
             height="212.59842" />
        </g>
        <g
           id="g3153"
           style="fill:#000000;fill-opacity:1">
          <use
             id="use3155"
             y="134.765"
             x="237.908"
             xlink:href="#textext-67a04087-4"
             width="460.62991"
             height="212.59842" />
        </g>
      </g>
    </g>
  </g>
</svg>
