<?xml version="1.0" encoding="UTF-8" standalone="no"?>
<!-- Created with Inkscape (http://www.inkscape.org/) -->

<svg
   xmlns:ns0="http://www.iki.fi/pav/software/textext/"
   xmlns:dc="http://purl.org/dc/elements/1.1/"
   xmlns:cc="http://creativecommons.org/ns#"
   xmlns:rdf="http://www.w3.org/1999/02/22-rdf-syntax-ns#"
   xmlns:svg="http://www.w3.org/2000/svg"
   xmlns="http://www.w3.org/2000/svg"
   xmlns:xlink="http://www.w3.org/1999/xlink"
   xmlns:sodipodi="http://sodipodi.sourceforge.net/DTD/sodipodi-0.dtd"
   xmlns:inkscape="http://www.inkscape.org/namespaces/inkscape"
   width="460.62991"
   height="212.59842"
   id="svg2"
   version="1.1"
   inkscape:version="0.48.4 r9939"
   sodipodi:docname="fig5.svg">
  <sodipodi:namedview
     id="base"
     pagecolor="#ffffff"
     bordercolor="#666666"
     borderopacity="1.0"
     inkscape:pageopacity="0.0"
     inkscape:pageshadow="2"
     inkscape:zoom="1.9343523"
     inkscape:cx="267.74093"
     inkscape:cy="68.208115"
     inkscape:document-units="px"
     inkscape:current-layer="layer1"
     showgrid="false"
     units="cm"
     inkscape:window-width="1024"
     inkscape:window-height="744"
     inkscape:window-x="0"
     inkscape:window-y="24"
     inkscape:window-maximized="1" />
  <defs
     id="defs4">
    <marker
       inkscape:stockid="Arrow1Mstart"
       orient="auto"
       refY="0"
       refX="0"
       id="Arrow1Mstart"
       style="overflow:visible">
      <path
         id="path3950"
         d="M 0,0 5,-5 -12.5,0 5,5 0,0 z"
         style="fill-rule:evenodd;stroke:#000000;stroke-width:1pt"
         transform="matrix(0.4,0,0,0.4,4,0)"
         inkscape:connector-curvature="0" />
    </marker>
    <marker
       style="overflow:visible"
       id="Arrow1Mend"
       refX="0"
       refY="0"
       orient="auto"
       inkscape:stockid="Arrow1Mend">
      <path
         transform="matrix(-0.4,0,0,-0.4,-4,0)"
         style="fill-rule:evenodd;stroke:#000000;stroke-width:1pt"
         d="M 0,0 5,-5 -12.5,0 5,5 0,0 z"
         id="path3776"
         inkscape:connector-curvature="0" />
    </marker>
  </defs>
  <metadata
     id="metadata7">
    <rdf:RDF>
      <cc:Work
         rdf:about="">
        <dc:format>image/svg+xml</dc:format>
        <dc:type
           rdf:resource="http://purl.org/dc/dcmitype/StillImage" />
        <dc:title></dc:title>
      </cc:Work>
    </rdf:RDF>
  </metadata>
  <g
     transform="translate(0,-839.76245)"
     id="layer1"
     inkscape:groupmode="layer"
     inkscape:label="Layer 1">
    <path
       sodipodi:nodetypes="cc"
       inkscape:connector-curvature="0"
       id="path2985"
       d="m 188.77376,980.00502 181.07484,0"
       style="fill:none;stroke:#000000;stroke-width:1px;stroke-linecap:butt;stroke-linejoin:miter;stroke-opacity:1" />
    <path
       sodipodi:nodetypes="csc"
       inkscape:connector-curvature="0"
       id="path2987"
       d="m 189.68945,974.14786 c 54.00663,-7.11686 62.77765,-62.14149 90.16884,-62.47993 29.34528,-0.36259 31.65684,51.679 90.33673,64.12323"
       style="fill:none;stroke:#000000;stroke-width:1px;stroke-linecap:butt;stroke-linejoin:miter;stroke-opacity:1" />
    <g
       id="g3187"
       transform="matrix(1.142745,0,0,1.2,17.878705,738.53617)"
       ns0:preamble="/home/sriranga/Desktop/general-books/CSY/article4/figure/package.tex"
       ns0:text="$f$">
      <defs
         id="defs3189">
        <g
           id="g3191">
          <symbol
             id="textext-770efaee-0"
             overflow="visible"
             style="overflow:visible">
            <path
               id="path3194"
               d=""
               style="stroke:none"
               inkscape:connector-curvature="0" />
          </symbol>
          <symbol
             id="textext-770efaee-1"
             overflow="visible"
             style="overflow:visible">
            <path
               id="path3197"
               d="m 0.34375,-3.953125 0.90625,0 -0.875,4.1875 c -0.21875,1.078125 -0.546875,1.625 -0.96875,1.625 -0.125,0 -0.203125,-0.078125 -0.203125,-0.171875 0,-0.015625 0.015625,-0.046875 0.046875,-0.109375 0.03125,-0.046875 0.046875,-0.09375 0.046875,-0.15625 0,-0.203125 -0.1875,-0.375 -0.390625,-0.375 -0.21875,0 -0.375,0.171875 -0.375,0.40625 0,0.34375 0.359375,0.609375 0.796875,0.609375 0.875,0 1.578125,-0.984375 1.984375,-2.8125 l 0.71875,-3.203125 1.09375,0 0.0625,-0.3125 -1.078125,0 c 0.28125,-1.5625 0.65625,-2.28125 1.203125,-2.28125 0.140625,0 0.21875,0.0625 0.21875,0.125 0,0.03125 0,0.046875 -0.03125,0.109375 -0.046875,0.078125 -0.0625,0.125 -0.0625,0.203125 0,0.234375 0.15625,0.390625 0.375,0.390625 0.21875,0 0.421875,-0.171875 0.421875,-0.390625 0,-0.375 -0.375,-0.65625 -0.859375,-0.65625 -0.5,0 -0.875,0.21875 -1.234375,0.6875 -0.3125,0.390625 -0.5,0.859375 -0.8125,1.8125 l -0.90625,0 z m 0,0"
               style="stroke:none"
               inkscape:connector-curvature="0" />
          </symbol>
        </g>
      </defs>
      <g
         id="textext-770efaee-2">
        <g
           id="g3200"
           style="fill:#000000;fill-opacity:1">
          <use
             id="use3202"
             y="134.765"
             x="224.92599"
             xlink:href="#textext-770efaee-1"
             width="460.62991"
             height="212.59842" />
        </g>
      </g>
    </g>
    <path
       sodipodi:nodetypes="cc"
       inkscape:connector-curvature="0"
       id="path3411"
       d="m 279.93608,900.89272 0,104.59988"
       style="fill:none;stroke:#000000;stroke-width:1px;stroke-linecap:butt;stroke-linejoin:miter;stroke-opacity:1" />
    <path
       style="fill:none;stroke:#000000;stroke-width:1px;stroke-linecap:butt;stroke-linejoin:miter;stroke-opacity:1"
       d="m 189.68945,974.14786 c 54.00663,-7.11686 62.77765,-62.14148 90.16884,-62.47993 8.14402,-0.10063 14.20592,3.8349 19.96839,9.84006 15.00139,15.63317 28.03813,44.12985 70.43293,53.12051"
       id="path3413"
       inkscape:connector-curvature="0"
       sodipodi:nodetypes="cssc" />
    <path
       sodipodi:nodetypes="ccccc"
       inkscape:connector-curvature="0"
       id="path3415"
       d="m 234.37187,979.61295 -44.63339,-0.0458 -0.23826,-4.97545 c 27.00739,-3.4584 44.17095,-21.46246 44.17095,-21.46246 z"
       style="fill:#cccccc;stroke:#000000;stroke-width:0;stroke-linecap:butt;stroke-linejoin:miter;stroke-miterlimit:4;stroke-opacity:1;stroke-dasharray:none" />
    <path
       style="fill:none;stroke:#000000;stroke-width:1px;stroke-linecap:butt;stroke-linejoin:miter;stroke-opacity:1"
       d="m 234.17978,921.90868 0,58.09249"
       id="path4290"
       inkscape:connector-curvature="0"
       sodipodi:nodetypes="cc" />
    <path
       style="fill:#cccccc;stroke:#000000;stroke-width:0;stroke-linecap:butt;stroke-linejoin:miter;stroke-miterlimit:4;stroke-opacity:1;stroke-dasharray:none"
       d="m 325.21768,979.61295 44.63339,-0.0458 0.23826,-4.97545 c -23.97156,-3.00625 -44.17095,-21.46246 -44.17095,-21.46246 z"
       id="path3053"
       inkscape:connector-curvature="0"
       sodipodi:nodetypes="ccccc" />
    <path
       sodipodi:nodetypes="cc"
       inkscape:connector-curvature="0"
       id="path3055"
       d="m 325.40977,920.42049 0,59.94607"
       style="fill:none;stroke:#000000;stroke-width:1px;stroke-linecap:butt;stroke-linejoin:miter;stroke-opacity:1" />
    <g
       id="g3157"
       ns0:preamble="/home/sriranga/Desktop/general-books/CSY/article4/figure/package.tex"
       ns0:text="$-a$"
       transform="matrix(1.2,0,0,1.2,-40.861195,826.87911)">
      <defs
         id="defs3159">
        <g
           id="g3161">
          <symbol
             id="textext-258fd4de-0"
             overflow="visible"
             style="overflow:visible">
            <path
               id="path3164"
               d=""
               style="stroke:none"
               inkscape:connector-curvature="0" />
          </symbol>
          <symbol
             id="textext-258fd4de-1"
             overflow="visible"
             style="overflow:visible">
            <path
               id="path3167"
               d="m 5.71875,-2.28125 0,-0.5625 -5.09375,0 0,0.5625 z m 0,0"
               style="stroke:none"
               inkscape:connector-curvature="0" />
          </symbol>
          <symbol
             id="textext-258fd4de-2"
             overflow="visible"
             style="overflow:visible">
            <path
               id="path3170"
               d=""
               style="stroke:none"
               inkscape:connector-curvature="0" />
          </symbol>
          <symbol
             id="textext-258fd4de-3"
             overflow="visible"
             style="overflow:visible">
            <path
               id="path3173"
               d="m 4.625,-1.09375 c -0.15625,0.140625 -0.203125,0.203125 -0.28125,0.28125 -0.296875,0.296875 -0.421875,0.40625 -0.515625,0.40625 -0.078125,0 -0.140625,-0.0625 -0.140625,-0.125 0,-0.203125 0.421875,-1.90625 0.890625,-3.625 0.03125,-0.09375 0.03125,-0.125 0.0625,-0.203125 L 4.5625,-4.390625 3.953125,-4.328125 3.921875,-4.296875 3.8125,-3.8125 c -0.078125,-0.375 -0.359375,-0.578125 -0.796875,-0.578125 -1.3125,0 -2.84375,1.8125 -2.84375,3.390625 0,0.703125 0.375,1.109375 1.015625,1.109375 0.703125,0 1.125,-0.328125 2,-1.5625 -0.203125,0.78125 -0.234375,0.90625 -0.234375,1.140625 0,0.296875 0.125,0.40625 0.40625,0.40625 C 3.765625,0.09375 4,-0.09375 4.75,-1 z M 3.078125,-4.171875 c 0.34375,0.015625 0.5625,0.25 0.5625,0.609375 0,0.828125 -0.5,2 -1.1875,2.75 C 2.21875,-0.546875 1.875,-0.375 1.578125,-0.375 1.234375,-0.375 1,-0.671875 1,-1.125 1,-1.671875 1.390625,-2.6875 1.8125,-3.3125 2.21875,-3.890625 2.6875,-4.203125 3.078125,-4.171875 z m 0,0"
               style="stroke:none"
               inkscape:connector-curvature="0" />
          </symbol>
        </g>
      </defs>
      <g
         id="textext-258fd4de-4">
        <g
           id="g3176"
           style="fill:#000000;fill-opacity:1">
          <use
             id="use3178"
             y="134.765"
             x="223.43201"
             xlink:href="#textext-258fd4de-1"
             width="460.62991"
             height="212.59842" />
        </g>
        <g
           id="g3180"
           style="fill:#000000;fill-opacity:1">
          <use
             id="use3182"
             y="134.765"
             x="229.76801"
             xlink:href="#textext-258fd4de-3"
             width="460.62991"
             height="212.59842" />
        </g>
      </g>
    </g>
    <g
       transform="matrix(1.2,0,0,1.2,17.124624,829.2552)"
       ns0:text="$-a$"
       ns0:preamble="/home/sriranga/Desktop/general-books/CSY/article4/figure/package.tex"
       id="g3225">
      <defs
         id="defs3227">
        <g
           id="g3229">
          <symbol
             style="overflow:visible"
             overflow="visible"
             id="symbol3231">
            <path
               inkscape:connector-curvature="0"
               style="stroke:none"
               d=""
               id="path3233" />
          </symbol>
          <symbol
             style="overflow:visible"
             overflow="visible"
             id="symbol3235">
            <path
               inkscape:connector-curvature="0"
               style="stroke:none"
               d="m 5.71875,-2.28125 0,-0.5625 -5.09375,0 0,0.5625 z m 0,0"
               id="path3237" />
          </symbol>
          <symbol
             style="overflow:visible"
             overflow="visible"
             id="symbol3239">
            <path
               inkscape:connector-curvature="0"
               style="stroke:none"
               d=""
               id="path3241" />
          </symbol>
          <symbol
             style="overflow:visible"
             overflow="visible"
             id="symbol3243">
            <path
               inkscape:connector-curvature="0"
               style="stroke:none"
               d="m 4.625,-1.09375 c -0.15625,0.140625 -0.203125,0.203125 -0.28125,0.28125 -0.296875,0.296875 -0.421875,0.40625 -0.515625,0.40625 -0.078125,0 -0.140625,-0.0625 -0.140625,-0.125 0,-0.203125 0.421875,-1.90625 0.890625,-3.625 0.03125,-0.09375 0.03125,-0.125 0.0625,-0.203125 L 4.5625,-4.390625 3.953125,-4.328125 3.921875,-4.296875 3.8125,-3.8125 c -0.078125,-0.375 -0.359375,-0.578125 -0.796875,-0.578125 -1.3125,0 -2.84375,1.8125 -2.84375,3.390625 0,0.703125 0.375,1.109375 1.015625,1.109375 0.703125,0 1.125,-0.328125 2,-1.5625 -0.203125,0.78125 -0.234375,0.90625 -0.234375,1.140625 0,0.296875 0.125,0.40625 0.40625,0.40625 C 3.765625,0.09375 4,-0.09375 4.75,-1 z M 3.078125,-4.171875 c 0.34375,0.015625 0.5625,0.25 0.5625,0.609375 0,0.828125 -0.5,2 -1.1875,2.75 C 2.21875,-0.546875 1.875,-0.375 1.578125,-0.375 1.234375,-0.375 1,-0.671875 1,-1.125 1,-1.671875 1.390625,-2.6875 1.8125,-3.3125 2.21875,-3.890625 2.6875,-4.203125 3.078125,-4.171875 z m 0,0"
               id="path3245" />
          </symbol>
        </g>
      </defs>
      <g
         id="g3247">
        <g
           style="fill:#000000;fill-opacity:1"
           id="g3253"
           transform="translate(24.692337,-0.60925369)">
          <use
             height="212.59842"
             width="460.62991"
             xlink:href="#textext-258fd4de-3"
             x="229.76801"
             y="134.765"
             id="use3255" />
        </g>
      </g>
    </g>
    <g
       ns0:text="$P(Z\\leq -a)$"
       ns0:preamble="/home/sriranga/Desktop/general-books/CSY/article4/figure/package.tex"
       transform="matrix(1.2,0,0,1.2,-135.4665,790.01253)"
       id="g3346">
      <defs
         id="defs3348">
        <g
           id="g3350">
          <symbol
             style="overflow:visible"
             overflow="visible"
             id="textext-dcb4634d-0">
            <path
               inkscape:connector-curvature="0"
               style="stroke:none"
               d=""
               id="path3353" />
          </symbol>
          <symbol
             style="overflow:visible"
             overflow="visible"
             id="textext-dcb4634d-1">
            <path
               inkscape:connector-curvature="0"
               style="stroke:none"
               d="M 1.453125,-6.34375 C 2.03125,-6.28125 2.15625,-6.1875 2.15625,-5.9375 2.15625,-5.796875 2.125,-5.578125 2,-5.140625 l -1.1875,4.25 C 0.640625,-0.296875 0.5625,-0.234375 0,-0.15625 L 0,0 l 2.4375,0 0,-0.15625 C 1.8125,-0.25 1.765625,-0.28125 1.765625,-0.625 c 0,-0.109375 0.015625,-0.21875 0.125,-0.578125 L 2.40625,-3.125 c 0.25,0.0625 0.515625,0.078125 0.921875,0.078125 0.8125,0 1.484375,-0.15625 1.921875,-0.46875 0.484375,-0.375 0.78125,-0.921875 0.78125,-1.515625 0,-0.953125 -0.75,-1.484375 -2.109375,-1.484375 l -2.46875,0 z m 1.75,0.40625 c 0.0625,-0.203125 0.1875,-0.265625 0.46875,-0.265625 0.390625,0 0.765625,0.09375 0.96875,0.234375 C 4.890625,-5.796875 5,-5.5 5,-5.03125 c 0,0.65625 -0.21875,1.109375 -0.65625,1.375 -0.3125,0.171875 -0.703125,0.25 -1.328125,0.25 -0.171875,0 -0.25,-0.015625 -0.515625,-0.046875 z m 0,0"
               id="path3356" />
          </symbol>
          <symbol
             style="overflow:visible"
             overflow="visible"
             id="textext-dcb4634d-2">
            <path
               inkscape:connector-curvature="0"
               style="stroke:none"
               d="m 6.046875,-6.515625 -4.84375,0 -0.46875,1.46875 L 0.921875,-5 c 0.21875,-0.4375 0.328125,-0.609375 0.53125,-0.78125 0.28125,-0.234375 0.8125,-0.375 1.5625,-0.375 l 1.703125,0 -4.78125,6.015625 0,0.140625 5.03125,0 0.546875,-1.671875 -0.1875,-0.03125 c -0.328125,0.640625 -0.5,0.875 -0.84375,1.0625 -0.34375,0.203125 -0.828125,0.28125 -1.65625,0.28125 l -1.609375,0 L 6.046875,-6.375 z m 0,0"
               id="path3359" />
          </symbol>
          <symbol
             style="overflow:visible"
             overflow="visible"
             id="textext-dcb4634d-3">
            <path
               inkscape:connector-curvature="0"
               style="stroke:none"
               d="m 4.625,-1.09375 c -0.15625,0.140625 -0.203125,0.203125 -0.28125,0.28125 -0.296875,0.296875 -0.421875,0.40625 -0.515625,0.40625 -0.078125,0 -0.140625,-0.0625 -0.140625,-0.125 0,-0.203125 0.421875,-1.90625 0.890625,-3.625 0.03125,-0.09375 0.03125,-0.125 0.0625,-0.203125 L 4.5625,-4.390625 3.953125,-4.328125 3.921875,-4.296875 3.8125,-3.8125 c -0.078125,-0.375 -0.359375,-0.578125 -0.796875,-0.578125 -1.3125,0 -2.84375,1.8125 -2.84375,3.390625 0,0.703125 0.375,1.109375 1.015625,1.109375 0.703125,0 1.125,-0.328125 2,-1.5625 -0.203125,0.78125 -0.234375,0.90625 -0.234375,1.140625 0,0.296875 0.125,0.40625 0.40625,0.40625 C 3.765625,0.09375 4,-0.09375 4.75,-1 z M 3.078125,-4.171875 c 0.34375,0.015625 0.5625,0.25 0.5625,0.609375 0,0.828125 -0.5,2 -1.1875,2.75 C 2.21875,-0.546875 1.875,-0.375 1.578125,-0.375 1.234375,-0.375 1,-0.671875 1,-1.125 1,-1.671875 1.390625,-2.6875 1.8125,-3.3125 2.21875,-3.890625 2.6875,-4.203125 3.078125,-4.171875 z m 0,0"
               id="path3362" />
          </symbol>
          <symbol
             style="overflow:visible"
             overflow="visible"
             id="textext-dcb4634d-4">
            <path
               inkscape:connector-curvature="0"
               style="stroke:none"
               d=""
               id="path3365" />
          </symbol>
          <symbol
             style="overflow:visible"
             overflow="visible"
             id="textext-dcb4634d-5">
            <path
               inkscape:connector-curvature="0"
               style="stroke:none"
               d="M 2.9375,-6.734375 C 2.203125,-6.265625 1.90625,-6 1.53125,-5.546875 c -0.703125,0.875 -1.046875,1.875 -1.046875,3.03125 0,1.265625 0.359375,2.25 1.234375,3.265625 0.421875,0.46875 0.671875,0.703125 1.1875,1.015625 l 0.125,-0.15625 C 2.234375,0.984375 1.953125,0.625 1.6875,-0.125 1.453125,-0.78125 1.328125,-1.546875 1.328125,-2.546875 1.328125,-3.59375 1.46875,-4.40625 1.734375,-5.03125 2.015625,-5.640625 2.3125,-6 3.03125,-6.578125 z m 0,0"
               id="path3368" />
          </symbol>
          <symbol
             style="overflow:visible"
             overflow="visible"
             id="textext-dcb4634d-6">
            <path
               inkscape:connector-curvature="0"
               style="stroke:none"
               d="M 0.375,1.765625 C 1.109375,1.28125 1.421875,1.03125 1.78125,0.5625 2.5,-0.296875 2.84375,-1.296875 2.84375,-2.46875 c 0,-1.265625 -0.375,-2.234375 -1.25,-3.25 C 1.1875,-6.203125 0.921875,-6.421875 0.40625,-6.734375 l -0.109375,0.15625 c 0.796875,0.625 1.0625,0.96875 1.34375,1.71875 0.234375,0.671875 0.34375,1.4375 0.34375,2.421875 0,1.046875 -0.125,1.875 -0.40625,2.484375 C 1.3125,0.671875 1,1.03125 0.296875,1.609375 z m 0,0"
               id="path3371" />
          </symbol>
          <symbol
             style="overflow:visible"
             overflow="visible"
             id="textext-dcb4634d-7">
            <path
               inkscape:connector-curvature="0"
               style="stroke:none"
               d=""
               id="path3374" />
          </symbol>
          <symbol
             style="overflow:visible"
             overflow="visible"
             id="textext-dcb4634d-8">
            <path
               inkscape:connector-curvature="0"
               style="stroke:none"
               d="m 5.71875,-0.71875 0,-0.5625 -4.140625,-1.9375 4.140625,-1.9375 0,-0.5625 -5.09375,2.40625 0,0.203125 z m 0,1.296875 0,-0.53125 -5.09375,0 0,0.53125 z m 0,0"
               id="path3377" />
          </symbol>
          <symbol
             style="overflow:visible"
             overflow="visible"
             id="textext-dcb4634d-9">
            <path
               inkscape:connector-curvature="0"
               style="stroke:none"
               d="m 5.71875,-2.28125 0,-0.5625 -5.09375,0 0,0.5625 z m 0,0"
               id="path3380" />
          </symbol>
        </g>
      </defs>
      <g
         id="textext-dcb4634d-10">
        <g
           style="fill:#000000;fill-opacity:1"
           id="g3383">
          <use
             height="212.59842"
             width="460.62991"
             xlink:href="#textext-dcb4634d-1"
             x="223.681"
             y="134.765"
             id="use3385" />
        </g>
        <g
           style="fill:#000000;fill-opacity:1"
           id="g3387">
          <use
             height="212.59842"
             width="460.62991"
             xlink:href="#textext-dcb4634d-5"
             x="229.76801"
             y="134.765"
             id="use3389" />
        </g>
        <g
           style="fill:#000000;fill-opacity:1"
           id="g3391">
          <use
             height="212.59842"
             width="460.62991"
             xlink:href="#textext-dcb4634d-2"
             x="233.086"
             y="134.765"
             id="use3393" />
        </g>
        <g
           style="fill:#000000;fill-opacity:1"
           id="g3395">
          <use
             height="212.59842"
             width="460.62991"
             xlink:href="#textext-dcb4634d-8"
             x="241.89101"
             y="134.765"
             id="use3397" />
        </g>
        <g
           style="fill:#000000;fill-opacity:1"
           id="g3399">
          <use
             height="212.59842"
             width="460.62991"
             xlink:href="#textext-dcb4634d-9"
             x="250.99681"
             y="134.765"
             id="use3401" />
        </g>
        <g
           style="fill:#000000;fill-opacity:1"
           id="g3403">
          <use
             height="212.59842"
             width="460.62991"
             xlink:href="#textext-dcb4634d-3"
             x="257.32999"
             y="134.765"
             id="use3405" />
        </g>
        <g
           style="fill:#000000;fill-opacity:1"
           id="g3407">
          <use
             height="212.59842"
             width="460.62991"
             xlink:href="#textext-dcb4634d-6"
             x="262.31201"
             y="134.765"
             id="use3409" />
        </g>
      </g>
    </g>
    <g
       id="g3675"
       transform="matrix(1.2,0,0,1.2,102.85429,790.5295)"
       ns0:preamble="/home/sriranga/Desktop/general-books/CSY/article4/figure/package.tex"
       ns0:text="$P(Z\\geq a)$">
      <defs
         id="defs3677">
        <g
           id="g3679">
          <symbol
             id="textext-e58ba6c9-0"
             overflow="visible"
             style="overflow:visible">
            <path
               id="path3682"
               d=""
               style="stroke:none"
               inkscape:connector-curvature="0" />
          </symbol>
          <symbol
             id="textext-e58ba6c9-1"
             overflow="visible"
             style="overflow:visible">
            <path
               id="path3685"
               d="M 1.453125,-6.34375 C 2.03125,-6.28125 2.15625,-6.1875 2.15625,-5.9375 2.15625,-5.796875 2.125,-5.578125 2,-5.140625 l -1.1875,4.25 C 0.640625,-0.296875 0.5625,-0.234375 0,-0.15625 L 0,0 l 2.4375,0 0,-0.15625 C 1.8125,-0.25 1.765625,-0.28125 1.765625,-0.625 c 0,-0.109375 0.015625,-0.21875 0.125,-0.578125 L 2.40625,-3.125 c 0.25,0.0625 0.515625,0.078125 0.921875,0.078125 0.8125,0 1.484375,-0.15625 1.921875,-0.46875 0.484375,-0.375 0.78125,-0.921875 0.78125,-1.515625 0,-0.953125 -0.75,-1.484375 -2.109375,-1.484375 l -2.46875,0 z m 1.75,0.40625 c 0.0625,-0.203125 0.1875,-0.265625 0.46875,-0.265625 0.390625,0 0.765625,0.09375 0.96875,0.234375 C 4.890625,-5.796875 5,-5.5 5,-5.03125 c 0,0.65625 -0.21875,1.109375 -0.65625,1.375 -0.3125,0.171875 -0.703125,0.25 -1.328125,0.25 -0.171875,0 -0.25,-0.015625 -0.515625,-0.046875 z m 0,0"
               style="stroke:none"
               inkscape:connector-curvature="0" />
          </symbol>
          <symbol
             id="textext-e58ba6c9-2"
             overflow="visible"
             style="overflow:visible">
            <path
               id="path3688"
               d="m 6.046875,-6.515625 -4.84375,0 -0.46875,1.46875 L 0.921875,-5 c 0.21875,-0.4375 0.328125,-0.609375 0.53125,-0.78125 0.28125,-0.234375 0.8125,-0.375 1.5625,-0.375 l 1.703125,0 -4.78125,6.015625 0,0.140625 5.03125,0 0.546875,-1.671875 -0.1875,-0.03125 c -0.328125,0.640625 -0.5,0.875 -0.84375,1.0625 -0.34375,0.203125 -0.828125,0.28125 -1.65625,0.28125 l -1.609375,0 L 6.046875,-6.375 z m 0,0"
               style="stroke:none"
               inkscape:connector-curvature="0" />
          </symbol>
          <symbol
             id="textext-e58ba6c9-3"
             overflow="visible"
             style="overflow:visible">
            <path
               id="path3691"
               d="m 4.625,-1.09375 c -0.15625,0.140625 -0.203125,0.203125 -0.28125,0.28125 -0.296875,0.296875 -0.421875,0.40625 -0.515625,0.40625 -0.078125,0 -0.140625,-0.0625 -0.140625,-0.125 0,-0.203125 0.421875,-1.90625 0.890625,-3.625 0.03125,-0.09375 0.03125,-0.125 0.0625,-0.203125 L 4.5625,-4.390625 3.953125,-4.328125 3.921875,-4.296875 3.8125,-3.8125 c -0.078125,-0.375 -0.359375,-0.578125 -0.796875,-0.578125 -1.3125,0 -2.84375,1.8125 -2.84375,3.390625 0,0.703125 0.375,1.109375 1.015625,1.109375 0.703125,0 1.125,-0.328125 2,-1.5625 -0.203125,0.78125 -0.234375,0.90625 -0.234375,1.140625 0,0.296875 0.125,0.40625 0.40625,0.40625 C 3.765625,0.09375 4,-0.09375 4.75,-1 z M 3.078125,-4.171875 c 0.34375,0.015625 0.5625,0.25 0.5625,0.609375 0,0.828125 -0.5,2 -1.1875,2.75 C 2.21875,-0.546875 1.875,-0.375 1.578125,-0.375 1.234375,-0.375 1,-0.671875 1,-1.125 1,-1.671875 1.390625,-2.6875 1.8125,-3.3125 2.21875,-3.890625 2.6875,-4.203125 3.078125,-4.171875 z m 0,0"
               style="stroke:none"
               inkscape:connector-curvature="0" />
          </symbol>
          <symbol
             id="textext-e58ba6c9-4"
             overflow="visible"
             style="overflow:visible">
            <path
               id="path3694"
               d=""
               style="stroke:none"
               inkscape:connector-curvature="0" />
          </symbol>
          <symbol
             id="textext-e58ba6c9-5"
             overflow="visible"
             style="overflow:visible">
            <path
               id="path3697"
               d="M 2.9375,-6.734375 C 2.203125,-6.265625 1.90625,-6 1.53125,-5.546875 c -0.703125,0.875 -1.046875,1.875 -1.046875,3.03125 0,1.265625 0.359375,2.25 1.234375,3.265625 0.421875,0.46875 0.671875,0.703125 1.1875,1.015625 l 0.125,-0.15625 C 2.234375,0.984375 1.953125,0.625 1.6875,-0.125 1.453125,-0.78125 1.328125,-1.546875 1.328125,-2.546875 1.328125,-3.59375 1.46875,-4.40625 1.734375,-5.03125 2.015625,-5.640625 2.3125,-6 3.03125,-6.578125 z m 0,0"
               style="stroke:none"
               inkscape:connector-curvature="0" />
          </symbol>
          <symbol
             id="textext-e58ba6c9-6"
             overflow="visible"
             style="overflow:visible">
            <path
               id="path3700"
               d="M 0.375,1.765625 C 1.109375,1.28125 1.421875,1.03125 1.78125,0.5625 2.5,-0.296875 2.84375,-1.296875 2.84375,-2.46875 c 0,-1.265625 -0.375,-2.234375 -1.25,-3.25 C 1.1875,-6.203125 0.921875,-6.421875 0.40625,-6.734375 l -0.109375,0.15625 c 0.796875,0.625 1.0625,0.96875 1.34375,1.71875 0.234375,0.671875 0.34375,1.4375 0.34375,2.421875 0,1.046875 -0.125,1.875 -0.40625,2.484375 C 1.3125,0.671875 1,1.03125 0.296875,1.609375 z m 0,0"
               style="stroke:none"
               inkscape:connector-curvature="0" />
          </symbol>
          <symbol
             id="textext-e58ba6c9-7"
             overflow="visible"
             style="overflow:visible">
            <path
               id="path3703"
               d=""
               style="stroke:none"
               inkscape:connector-curvature="0" />
          </symbol>
          <symbol
             id="textext-e58ba6c9-8"
             overflow="visible"
             style="overflow:visible">
            <path
               id="path3706"
               d="m 5.71875,-3.125 0,-0.1875 -5.09375,-2.40625 0,0.5625 4.140625,1.953125 -4.140625,1.9375 0,0.5625 z m 0,3.703125 0,-0.53125 -5.09375,0 0,0.53125 z m 0,0"
               style="stroke:none"
               inkscape:connector-curvature="0" />
          </symbol>
        </g>
      </defs>
      <g
         id="textext-e58ba6c9-9">
        <g
           id="g3709"
           style="fill:#000000;fill-opacity:1">
          <use
             id="use3711"
             y="134.765"
             x="223.681"
             xlink:href="#textext-e58ba6c9-1"
             width="460.62991"
             height="212.59842" />
        </g>
        <g
           id="g3713"
           style="fill:#000000;fill-opacity:1">
          <use
             id="use3715"
             y="134.765"
             x="229.76801"
             xlink:href="#textext-e58ba6c9-5"
             width="460.62991"
             height="212.59842" />
        </g>
        <g
           id="g3717"
           style="fill:#000000;fill-opacity:1">
          <use
             id="use3719"
             y="134.765"
             x="233.086"
             xlink:href="#textext-e58ba6c9-2"
             width="460.62991"
             height="212.59842" />
        </g>
        <g
           id="g3721"
           style="fill:#000000;fill-opacity:1">
          <use
             id="use3723"
             y="134.765"
             x="241.89101"
             xlink:href="#textext-e58ba6c9-8"
             width="460.62991"
             height="212.59842" />
        </g>
        <g
           id="g3725"
           style="fill:#000000;fill-opacity:1">
          <use
             id="use3727"
             y="134.765"
             x="250.994"
             xlink:href="#textext-e58ba6c9-3"
             width="460.62991"
             height="212.59842" />
        </g>
        <g
           id="g3729"
           style="fill:#000000;fill-opacity:1">
          <use
             id="use3731"
             y="134.765"
             x="255.97501"
             xlink:href="#textext-e58ba6c9-6"
             width="460.62991"
             height="212.59842" />
        </g>
      </g>
    </g>
    <path
       style="fill:none;stroke:#000000;stroke-width:1px;stroke-linecap:butt;stroke-linejoin:miter;stroke-opacity:1;marker-start:url(#Arrow1Mstart)"
       d="m 223.99352,971.19673 0,-22.22966 -35.67086,0"
       id="path3860"
       inkscape:connector-curvature="0" />
    <path
       inkscape:connector-curvature="0"
       id="path4826"
       d="m 334.07266,971.19673 0,-22.22966 35.67086,0"
       style="fill:none;stroke:#000000;stroke-width:1px;stroke-linecap:butt;stroke-linejoin:miter;stroke-opacity:1;marker-start:url(#Arrow1Mstart)" />
  </g>
</svg>
