<?xml version="1.0" encoding="UTF-8" standalone="no"?>
<!-- Created with Inkscape (http://www.inkscape.org/) -->

<svg
   xmlns:ns0="http://www.iki.fi/pav/software/textext/"
   xmlns:dc="http://purl.org/dc/elements/1.1/"
   xmlns:cc="http://creativecommons.org/ns#"
   xmlns:rdf="http://www.w3.org/1999/02/22-rdf-syntax-ns#"
   xmlns:svg="http://www.w3.org/2000/svg"
   xmlns="http://www.w3.org/2000/svg"
   xmlns:xlink="http://www.w3.org/1999/xlink"
   xmlns:sodipodi="http://sodipodi.sourceforge.net/DTD/sodipodi-0.dtd"
   xmlns:inkscape="http://www.inkscape.org/namespaces/inkscape"
   width="744.09448819"
   height="1052.3622047"
   id="svg2"
   version="1.1"
   inkscape:version="0.48.4 r9939"
   sodipodi:docname="New document 1">
  <sodipodi:namedview
     id="base"
     pagecolor="#ffffff"
     bordercolor="#666666"
     borderopacity="1.0"
     inkscape:pageopacity="0.0"
     inkscape:pageshadow="2"
     inkscape:zoom="1.979899"
     inkscape:cx="541.74107"
     inkscape:cy="888.28859"
     inkscape:document-units="px"
     inkscape:current-layer="textext-c42d794d-17"
     showgrid="false"
     inkscape:window-width="1024"
     inkscape:window-height="744"
     inkscape:window-x="0"
     inkscape:window-y="24"
     inkscape:window-maximized="1" />
  <defs
     id="defs4">
    <marker
       inkscape:stockid="Arrow1Mend"
       orient="auto"
       refY="0.0"
       refX="0.0"
       id="Arrow1Mend"
       style="overflow:visible;">
      <path
         id="path4310"
         d="M 0.0,0.0 L 5.0,-5.0 L -12.5,0.0 L 5.0,5.0 L 0.0,0.0 z "
         style="fill-rule:evenodd;stroke:#000000;stroke-width:1.0pt;"
         transform="scale(0.4) rotate(180) translate(10,0)" />
    </marker>
  </defs>
  <metadata
     id="metadata7">
    <rdf:RDF>
      <cc:Work
         rdf:about="">
        <dc:format>image/svg+xml</dc:format>
        <dc:type
           rdf:resource="http://purl.org/dc/dcmitype/StillImage" />
        <dc:title></dc:title>
      </cc:Work>
    </rdf:RDF>
  </metadata>
  <g
     id="layer1"
     inkscape:groupmode="layer"
     inkscape:label="Layer 1">
    <g
       id="g2990"
       ns0:preamble="/home/sriranga/Desktop/general-books/CSY/article4/figure/package.tex"
       ns0:text="\\begin{align*}\nP(-a\\leq Z\\leq a) &amp;= P(Z\\leq a)-P(Z&lt;a)\\\\\n                  &amp;= P(Z\\leq a)-P(Z\\leq -a)\\\\\n                  &amp;= P(Z\\leq a)-(1-P(Z\\leq a))\\\\\n                  &amp;= 2P(Z\\leq a)-1=2\\Phi(a)-1\n\\end{align*}"
       transform="scale(1.200000,1.200000)">
      <defs
         id="defs2992">
        <g
           id="g2994">
          <symbol
             id="textext-c42d794d-0"
             overflow="visible">
            <path
               id="path2997"
               d=""
               style="stroke:none;" />
          </symbol>
          <symbol
             id="textext-c42d794d-1"
             overflow="visible">
            <path
               id="path3000"
               d="M 1.453125 -6.34375 C 2.03125 -6.28125 2.15625 -6.1875 2.15625 -5.9375 C 2.15625 -5.796875 2.125 -5.578125 2 -5.140625 L 0.8125 -0.890625 C 0.640625 -0.296875 0.5625 -0.234375 0 -0.15625 L 0 0 L 2.4375 0 L 2.4375 -0.15625 C 1.8125 -0.25 1.765625 -0.28125 1.765625 -0.625 C 1.765625 -0.734375 1.78125 -0.84375 1.890625 -1.203125 L 2.40625 -3.125 C 2.65625 -3.0625 2.921875 -3.046875 3.328125 -3.046875 C 4.140625 -3.046875 4.8125 -3.203125 5.25 -3.515625 C 5.734375 -3.890625 6.03125 -4.4375 6.03125 -5.03125 C 6.03125 -5.984375 5.28125 -6.515625 3.921875 -6.515625 L 1.453125 -6.515625 Z M 3.203125 -5.9375 C 3.265625 -6.140625 3.390625 -6.203125 3.671875 -6.203125 C 4.0625 -6.203125 4.4375 -6.109375 4.640625 -5.96875 C 4.890625 -5.796875 5 -5.5 5 -5.03125 C 5 -4.375 4.78125 -3.921875 4.34375 -3.65625 C 4.03125 -3.484375 3.640625 -3.40625 3.015625 -3.40625 C 2.84375 -3.40625 2.765625 -3.421875 2.5 -3.453125 Z M 3.203125 -5.9375 "
               style="stroke:none;" />
          </symbol>
          <symbol
             id="textext-c42d794d-2"
             overflow="visible">
            <path
               id="path3003"
               d="M 4.625 -1.09375 C 4.46875 -0.953125 4.421875 -0.890625 4.34375 -0.8125 C 4.046875 -0.515625 3.921875 -0.40625 3.828125 -0.40625 C 3.75 -0.40625 3.6875 -0.46875 3.6875 -0.53125 C 3.6875 -0.734375 4.109375 -2.4375 4.578125 -4.15625 C 4.609375 -4.25 4.609375 -4.28125 4.640625 -4.359375 L 4.5625 -4.390625 L 3.953125 -4.328125 L 3.921875 -4.296875 L 3.8125 -3.8125 C 3.734375 -4.1875 3.453125 -4.390625 3.015625 -4.390625 C 1.703125 -4.390625 0.171875 -2.578125 0.171875 -1 C 0.171875 -0.296875 0.546875 0.109375 1.1875 0.109375 C 1.890625 0.109375 2.3125 -0.21875 3.1875 -1.453125 C 2.984375 -0.671875 2.953125 -0.546875 2.953125 -0.3125 C 2.953125 -0.015625 3.078125 0.09375 3.359375 0.09375 C 3.765625 0.09375 4 -0.09375 4.75 -1 Z M 3.078125 -4.171875 C 3.421875 -4.15625 3.640625 -3.921875 3.640625 -3.5625 C 3.640625 -2.734375 3.140625 -1.5625 2.453125 -0.8125 C 2.21875 -0.546875 1.875 -0.375 1.578125 -0.375 C 1.234375 -0.375 1 -0.671875 1 -1.125 C 1 -1.671875 1.390625 -2.6875 1.8125 -3.3125 C 2.21875 -3.890625 2.6875 -4.203125 3.078125 -4.171875 Z M 3.078125 -4.171875 "
               style="stroke:none;" />
          </symbol>
          <symbol
             id="textext-c42d794d-3"
             overflow="visible">
            <path
               id="path3006"
               d="M 6.046875 -6.515625 L 1.203125 -6.515625 L 0.734375 -5.046875 L 0.921875 -5 C 1.140625 -5.4375 1.25 -5.609375 1.453125 -5.78125 C 1.734375 -6.015625 2.265625 -6.15625 3.015625 -6.15625 L 4.71875 -6.15625 L -0.0625 -0.140625 L -0.0625 0 L 4.96875 0 L 5.515625 -1.671875 L 5.328125 -1.703125 C 5 -1.0625 4.828125 -0.828125 4.484375 -0.640625 C 4.140625 -0.4375 3.65625 -0.359375 2.828125 -0.359375 L 1.21875 -0.359375 L 6.046875 -6.375 Z M 6.046875 -6.515625 "
               style="stroke:none;" />
          </symbol>
          <symbol
             id="textext-c42d794d-4"
             overflow="visible">
            <path
               id="path3009"
               d=""
               style="stroke:none;" />
          </symbol>
          <symbol
             id="textext-c42d794d-5"
             overflow="visible">
            <path
               id="path3012"
               d="M 2.9375 -6.734375 C 2.203125 -6.265625 1.90625 -6 1.53125 -5.546875 C 0.828125 -4.671875 0.484375 -3.671875 0.484375 -2.515625 C 0.484375 -1.25 0.84375 -0.265625 1.71875 0.75 C 2.140625 1.21875 2.390625 1.453125 2.90625 1.765625 L 3.03125 1.609375 C 2.234375 0.984375 1.953125 0.625 1.6875 -0.125 C 1.453125 -0.78125 1.328125 -1.546875 1.328125 -2.546875 C 1.328125 -3.59375 1.46875 -4.40625 1.734375 -5.03125 C 2.015625 -5.640625 2.3125 -6 3.03125 -6.578125 Z M 2.9375 -6.734375 "
               style="stroke:none;" />
          </symbol>
          <symbol
             id="textext-c42d794d-6"
             overflow="visible">
            <path
               id="path3015"
               d="M 0.375 1.765625 C 1.109375 1.28125 1.421875 1.03125 1.78125 0.5625 C 2.5 -0.296875 2.84375 -1.296875 2.84375 -2.46875 C 2.84375 -3.734375 2.46875 -4.703125 1.59375 -5.71875 C 1.1875 -6.203125 0.921875 -6.421875 0.40625 -6.734375 L 0.296875 -6.578125 C 1.09375 -5.953125 1.359375 -5.609375 1.640625 -4.859375 C 1.875 -4.1875 1.984375 -3.421875 1.984375 -2.4375 C 1.984375 -1.390625 1.859375 -0.5625 1.578125 0.046875 C 1.3125 0.671875 1 1.03125 0.296875 1.609375 Z M 0.375 1.765625 "
               style="stroke:none;" />
          </symbol>
          <symbol
             id="textext-c42d794d-7"
             overflow="visible">
            <path
               id="path3018"
               d="M 2.90625 -6.734375 L 1.109375 -5.828125 L 1.109375 -5.6875 C 1.21875 -5.734375 1.328125 -5.78125 1.375 -5.796875 C 1.5625 -5.875 1.71875 -5.90625 1.828125 -5.90625 C 2.03125 -5.90625 2.125 -5.765625 2.125 -5.4375 L 2.125 -0.921875 C 2.125 -0.59375 2.046875 -0.375 1.890625 -0.28125 C 1.734375 -0.1875 1.59375 -0.15625 1.171875 -0.15625 L 1.171875 0 L 3.921875 0 L 3.921875 -0.15625 C 3.140625 -0.15625 2.984375 -0.265625 2.984375 -0.734375 L 2.984375 -6.71875 Z M 2.90625 -6.734375 "
               style="stroke:none;" />
          </symbol>
          <symbol
             id="textext-c42d794d-8"
             overflow="visible">
            <path
               id="path3021"
               d="M 4.734375 -1.359375 L 4.609375 -1.421875 C 4.234375 -0.84375 4.109375 -0.75 3.65625 -0.75 L 1.28125 -0.75 L 2.953125 -2.515625 C 3.84375 -3.4375 4.234375 -4.203125 4.234375 -4.96875 C 4.234375 -5.96875 3.421875 -6.734375 2.375 -6.734375 C 1.828125 -6.734375 1.3125 -6.515625 0.953125 -6.125 C 0.625 -5.78125 0.484375 -5.46875 0.3125 -4.75 L 0.515625 -4.703125 C 0.921875 -5.6875 1.28125 -6 1.96875 -6 C 2.796875 -6 3.375 -5.4375 3.375 -4.59375 C 3.375 -3.8125 2.90625 -2.890625 2.078125 -2 L 0.296875 -0.125 L 0.296875 0 L 4.1875 0 Z M 4.734375 -1.359375 "
               style="stroke:none;" />
          </symbol>
          <symbol
             id="textext-c42d794d-9"
             overflow="visible">
            <path
               id="path3024"
               d=""
               style="stroke:none;" />
          </symbol>
          <symbol
             id="textext-c42d794d-10"
             overflow="visible">
            <path
               id="path3027"
               d="M 5.71875 -2.28125 L 5.71875 -2.84375 L 0.625 -2.84375 L 0.625 -2.28125 Z M 5.71875 -2.28125 "
               style="stroke:none;" />
          </symbol>
          <symbol
             id="textext-c42d794d-11"
             overflow="visible">
            <path
               id="path3030"
               d="M 5.71875 -0.71875 L 5.71875 -1.28125 L 1.578125 -3.21875 L 5.71875 -5.15625 L 5.71875 -5.71875 L 0.625 -3.3125 L 0.625 -3.109375 Z M 5.71875 0.578125 L 5.71875 0.046875 L 0.625 0.046875 L 0.625 0.578125 Z M 5.71875 0.578125 "
               style="stroke:none;" />
          </symbol>
          <symbol
             id="textext-c42d794d-12"
             overflow="visible">
            <path
               id="path3033"
               d=""
               style="stroke:none;" />
          </symbol>
          <symbol
             id="textext-c42d794d-13"
             overflow="visible">
            <path
               id="path3036"
               d="M 5.71875 -3.296875 L 5.71875 -3.84375 L 0.625 -3.84375 L 0.625 -3.296875 Z M 5.71875 -1.265625 L 5.71875 -1.828125 L 0.625 -1.828125 L 0.625 -1.265625 Z M 5.71875 -1.265625 "
               style="stroke:none;" />
          </symbol>
          <symbol
             id="textext-c42d794d-14"
             overflow="visible">
            <path
               id="path3039"
               d="M 6.9375 -3.296875 C 6.9375 -4.90625 5.53125 -5.625 4.109375 -5.671875 C 4.140625 -6.21875 4.53125 -6.421875 5.046875 -6.421875 L 5.046875 -6.59375 L 2.25 -6.59375 L 2.25 -6.421875 C 2.75 -6.421875 3.125 -6.21875 3.171875 -5.671875 C 1.75 -5.609375 0.34375 -4.90625 0.34375 -3.296875 C 0.34375 -1.734375 1.75 -0.921875 3.171875 -0.921875 C 3.125 -0.375 2.75 -0.171875 2.25 -0.171875 L 2.25 0 L 5.046875 0 L 5.046875 -0.171875 C 4.53125 -0.171875 4.140625 -0.375 4.109375 -0.921875 C 5.515625 -0.921875 6.9375 -1.734375 6.9375 -3.296875 Z M 5.890625 -3.375 C 5.890625 -2.125 5.5 -1.25 4.109375 -1.203125 L 4.109375 -5.40625 C 5.359375 -5.328125 5.890625 -4.578125 5.890625 -3.375 Z M 3.171875 -1.203125 C 1.9375 -1.265625 1.390625 -2.03125 1.390625 -3.21875 C 1.390625 -4.46875 1.796875 -5.328125 3.171875 -5.40625 Z M 3.171875 -1.203125 "
               style="stroke:none;" />
          </symbol>
          <symbol
             id="textext-c42d794d-15"
             overflow="visible">
            <path
               id="path3042"
               d=""
               style="stroke:none;" />
          </symbol>
          <symbol
             id="textext-c42d794d-16"
             overflow="visible">
            <path
               id="path3045"
               d="M 5.71875 -0.0625 L 5.71875 -0.625 L 1.578125 -2.5625 L 5.71875 -4.5 L 5.71875 -5.0625 L 0.625 -2.65625 L 0.625 -2.46875 Z M 5.71875 -0.0625 "
               style="stroke:none;" />
          </symbol>
        </g>
      </defs>
      <g
         id="textext-c42d794d-17">
        <g
           id="g3048"
           style="fill:rgb(0%,0%,0%);fill-opacity:1;">
          <use
             id="use3050"
             y="134.765"
             x="306.035"
             xlink:href="#textext-c42d794d-1" />
        </g>
        <g
           id="g3052"
           style="fill:rgb(0%,0%,0%);fill-opacity:1;">
          <use
             id="use3054"
             y="134.765"
             x="312.122"
             xlink:href="#textext-c42d794d-5" />
        </g>
        <g
           id="g3056"
           style="fill:rgb(0%,0%,0%);fill-opacity:1;">
          <use
             id="use3058"
             y="134.765"
             x="315.439"
             xlink:href="#textext-c42d794d-10" />
        </g>
        <g
           id="g3060"
           style="fill:rgb(0%,0%,0%);fill-opacity:1;">
          <use
             id="use3062"
             y="134.765"
             x="321.775"
             xlink:href="#textext-c42d794d-2" />
        </g>
        <g
           id="g3064"
           style="fill:rgb(0%,0%,0%);fill-opacity:1;">
          <use
             id="use3066"
             y="134.765"
             x="329.524"
             xlink:href="#textext-c42d794d-11" />
        </g>
        <g
           id="g3068"
           style="fill:rgb(0%,0%,0%);fill-opacity:1;">
          <use
             id="use3070"
             y="134.765"
             x="338.628"
             xlink:href="#textext-c42d794d-3" />
        </g>
        <g
           id="g3072"
           style="fill:rgb(0%,0%,0%);fill-opacity:1;">
          <use
             id="use3074"
             y="134.765"
             x="347.432"
             xlink:href="#textext-c42d794d-11" />
        </g>
        <g
           id="g3076"
           style="fill:rgb(0%,0%,0%);fill-opacity:1;">
          <use
             id="use3078"
             y="134.765"
             x="356.536"
             xlink:href="#textext-c42d794d-2" />
        </g>
        <g
           id="g3080"
           style="fill:rgb(0%,0%,0%);fill-opacity:1;">
          <use
             id="use3082"
             y="134.765"
             x="361.517"
             xlink:href="#textext-c42d794d-6" />
        </g>
        <g
           id="g3084"
           style="fill:rgb(0%,0%,0%);fill-opacity:1;">
          <use
             id="use3086"
             y="134.765"
             x="367.602"
             xlink:href="#textext-c42d794d-13" />
        </g>
        <g
           id="g3088"
           style="fill:rgb(0%,0%,0%);fill-opacity:1;">
          <use
             id="use3090"
             y="134.765"
             x="376.955"
             xlink:href="#textext-c42d794d-1" />
        </g>
        <g
           id="g3092"
           style="fill:rgb(0%,0%,0%);fill-opacity:1;">
          <use
             id="use3094"
             y="134.765"
             x="383.042"
             xlink:href="#textext-c42d794d-5" />
        </g>
        <g
           id="g3096"
           style="fill:rgb(0%,0%,0%);fill-opacity:1;">
          <use
             id="use3098"
             y="134.765"
             x="386.36"
             xlink:href="#textext-c42d794d-3" />
        </g>
        <g
           id="g3100"
           style="fill:rgb(0%,0%,0%);fill-opacity:1;">
          <use
             id="use3102"
             y="134.765"
             x="395.164"
             xlink:href="#textext-c42d794d-11" />
        </g>
        <g
           id="g3104"
           style="fill:rgb(0%,0%,0%);fill-opacity:1;">
          <use
             id="use3106"
             y="134.765"
             x="404.268"
             xlink:href="#textext-c42d794d-2" />
        </g>
        <g
           id="g3108"
           style="fill:rgb(0%,0%,0%);fill-opacity:1;">
          <use
             id="use3110"
             y="134.765"
             x="409.249"
             xlink:href="#textext-c42d794d-6" />
        </g>
        <g
           id="g3112"
           style="fill:rgb(0%,0%,0%);fill-opacity:1;">
          <use
             id="use3114"
             y="134.765"
             x="414.781"
             xlink:href="#textext-c42d794d-10" />
        </g>
        <g
           id="g3116"
           style="fill:rgb(0%,0%,0%);fill-opacity:1;">
          <use
             id="use3118"
             y="134.765"
             x="423.58"
             xlink:href="#textext-c42d794d-1" />
        </g>
        <g
           id="g3120"
           style="fill:rgb(0%,0%,0%);fill-opacity:1;">
          <use
             id="use3122"
             y="134.765"
             x="429.667"
             xlink:href="#textext-c42d794d-5" />
        </g>
        <g
           id="g3124"
           style="fill:rgb(0%,0%,0%);fill-opacity:1;">
          <use
             id="use3126"
             y="134.765"
             x="432.984"
             xlink:href="#textext-c42d794d-3" />
        </g>
        <g
           id="g3128"
           style="fill:rgb(0%,0%,0%);fill-opacity:1;">
          <use
             id="use3130"
             y="134.765"
             x="441.789"
             xlink:href="#textext-c42d794d-16" />
        </g>
        <g
           id="g3132"
           style="fill:rgb(0%,0%,0%);fill-opacity:1;">
          <use
             id="use3134"
             y="134.765"
             x="450.893"
             xlink:href="#textext-c42d794d-2" />
        </g>
        <g
           id="g3136"
           style="fill:rgb(0%,0%,0%);fill-opacity:1;">
          <use
             id="use3138"
             y="134.765"
             x="455.874"
             xlink:href="#textext-c42d794d-6" />
        </g>
        <g
           id="g3140"
           style="fill:rgb(0%,0%,0%);fill-opacity:1;">
          <use
             id="use3142"
             y="149.709"
             x="367.602"
             xlink:href="#textext-c42d794d-13" />
        </g>
        <g
           id="g3144"
           style="fill:rgb(0%,0%,0%);fill-opacity:1;">
          <use
             id="use3146"
             y="149.709"
             x="376.955"
             xlink:href="#textext-c42d794d-1" />
        </g>
        <g
           id="g3148"
           style="fill:rgb(0%,0%,0%);fill-opacity:1;">
          <use
             id="use3150"
             y="149.709"
             x="383.042"
             xlink:href="#textext-c42d794d-5" />
        </g>
        <g
           id="g3152"
           style="fill:rgb(0%,0%,0%);fill-opacity:1;">
          <use
             id="use3154"
             y="149.709"
             x="386.36"
             xlink:href="#textext-c42d794d-3" />
        </g>
        <g
           id="g3156"
           style="fill:rgb(0%,0%,0%);fill-opacity:1;">
          <use
             id="use3158"
             y="149.709"
             x="395.164"
             xlink:href="#textext-c42d794d-11" />
        </g>
        <g
           id="g3160"
           style="fill:rgb(0%,0%,0%);fill-opacity:1;">
          <use
             id="use3162"
             y="149.709"
             x="404.268"
             xlink:href="#textext-c42d794d-2" />
        </g>
        <g
           id="g3164"
           style="fill:rgb(0%,0%,0%);fill-opacity:1;">
          <use
             id="use3166"
             y="149.709"
             x="409.249"
             xlink:href="#textext-c42d794d-6" />
        </g>
        <g
           id="g3168"
           style="fill:rgb(0%,0%,0%);fill-opacity:1;">
          <use
             id="use3170"
             y="149.709"
             x="414.781"
             xlink:href="#textext-c42d794d-10" />
        </g>
        <g
           id="g3172"
           style="fill:rgb(0%,0%,0%);fill-opacity:1;">
          <use
             id="use3174"
             y="149.709"
             x="423.58"
             xlink:href="#textext-c42d794d-1" />
        </g>
        <g
           id="g3176"
           style="fill:rgb(0%,0%,0%);fill-opacity:1;">
          <use
             id="use3178"
             y="149.709"
             x="429.667"
             xlink:href="#textext-c42d794d-5" />
        </g>
        <g
           id="g3180"
           style="fill:rgb(0%,0%,0%);fill-opacity:1;">
          <use
             id="use3182"
             y="149.709"
             x="432.984"
             xlink:href="#textext-c42d794d-3" />
        </g>
        <g
           id="g3184"
           style="fill:rgb(0%,0%,0%);fill-opacity:1;">
          <use
             id="use3186"
             y="149.709"
             x="441.789"
             xlink:href="#textext-c42d794d-11" />
        </g>
        <g
           id="g3188"
           style="fill:rgb(0%,0%,0%);fill-opacity:1;">
          <use
             id="use3190"
             y="149.709"
             x="450.894816"
             xlink:href="#textext-c42d794d-10" />
        </g>
        <g
           id="g3192"
           style="fill:rgb(0%,0%,0%);fill-opacity:1;">
          <use
             id="use3194"
             y="149.709"
             x="457.229"
             xlink:href="#textext-c42d794d-2" />
        </g>
        <g
           id="g3196"
           style="fill:rgb(0%,0%,0%);fill-opacity:1;">
          <use
             id="use3198"
             y="149.709"
             x="462.21"
             xlink:href="#textext-c42d794d-6" />
        </g>
        <g
           id="g3200"
           style="fill:#000000;fill-opacity:1"
           transform="translate(0,10)">
          <use
             id="use3202"
             y="164.653"
             x="367.60199"
             xlink:href="#textext-c42d794d-13"
             width="744.09448"
             height="1052.3622" />
        </g>
        <g
           id="g3204"
           style="fill:#000000;fill-opacity:1"
           transform="translate(0,10)">
          <use
             id="use3206"
             y="164.653"
             x="376.95499"
             xlink:href="#textext-c42d794d-1"
             width="744.09448"
             height="1052.3622" />
        </g>
        <g
           id="g3208"
           style="fill:#000000;fill-opacity:1"
           transform="translate(0,10)">
          <use
             id="use3210"
             y="164.653"
             x="383.04199"
             xlink:href="#textext-c42d794d-5"
             width="744.09448"
             height="1052.3622" />
        </g>
        <g
           id="g3212"
           style="fill:#000000;fill-opacity:1"
           transform="translate(0,10)">
          <use
             id="use3214"
             y="164.653"
             x="386.35999"
             xlink:href="#textext-c42d794d-3"
             width="744.09448"
             height="1052.3622" />
        </g>
        <g
           id="g3216"
           style="fill:#000000;fill-opacity:1"
           transform="translate(0,10)">
          <use
             id="use3218"
             y="164.653"
             x="395.164"
             xlink:href="#textext-c42d794d-11"
             width="744.09448"
             height="1052.3622" />
        </g>
        <g
           id="g3220"
           style="fill:#000000;fill-opacity:1"
           transform="translate(0,10)">
          <use
             id="use3222"
             y="164.653"
             x="404.26801"
             xlink:href="#textext-c42d794d-2"
             width="744.09448"
             height="1052.3622" />
        </g>
        <g
           id="g3224"
           style="fill:#000000;fill-opacity:1"
           transform="translate(0,10)">
          <use
             id="use3226"
             y="164.653"
             x="409.24899"
             xlink:href="#textext-c42d794d-6"
             width="744.09448"
             height="1052.3622" />
        </g>
        <g
           id="g3228"
           style="fill:#000000;fill-opacity:1"
           transform="translate(0,10)">
          <use
             id="use3230"
             y="164.653"
             x="414.78101"
             xlink:href="#textext-c42d794d-10"
             width="744.09448"
             height="1052.3622" />
        </g>
        <g
           id="g3232"
           style="fill:#000000;fill-opacity:1"
           transform="translate(0,10)">
          <use
             id="use3234"
             y="164.653"
             x="423.33099"
             xlink:href="#textext-c42d794d-5"
             width="744.09448"
             height="1052.3622" />
          <use
             id="use3236"
             y="164.653"
             x="426.64856"
             xlink:href="#textext-c42d794d-7"
             width="744.09448"
             height="1052.3622" />
        </g>
        <g
           id="g3238"
           style="fill:#000000;fill-opacity:1"
           transform="translate(0,10)">
          <use
             id="use3240"
             y="164.653"
             x="433.84299"
             xlink:href="#textext-c42d794d-10"
             width="744.09448"
             height="1052.3622" />
        </g>
        <g
           id="g3242"
           style="fill:#000000;fill-opacity:1"
           transform="translate(0,10)">
          <use
             id="use3244"
             y="164.653"
             x="442.64301"
             xlink:href="#textext-c42d794d-1"
             width="744.09448"
             height="1052.3622" />
        </g>
        <g
           id="g3246"
           style="fill:#000000;fill-opacity:1"
           transform="translate(0,10)">
          <use
             id="use3248"
             y="164.653"
             x="448.73001"
             xlink:href="#textext-c42d794d-5"
             width="744.09448"
             height="1052.3622" />
        </g>
        <g
           id="g3250"
           style="fill:#000000;fill-opacity:1"
           transform="translate(0,10)">
          <use
             id="use3252"
             y="164.653"
             x="452.047"
             xlink:href="#textext-c42d794d-3"
             width="744.09448"
             height="1052.3622" />
        </g>
        <g
           id="g3254"
           style="fill:#000000;fill-opacity:1"
           transform="translate(0,10)">
          <use
             id="use3256"
             y="164.653"
             x="460.85199"
             xlink:href="#textext-c42d794d-11"
             width="744.09448"
             height="1052.3622" />
        </g>
        <g
           id="g3258"
           style="fill:#000000;fill-opacity:1"
           transform="translate(0,10)">
          <use
             id="use3260"
             y="164.653"
             x="469.95599"
             xlink:href="#textext-c42d794d-2"
             width="744.09448"
             height="1052.3622" />
        </g>
        <g
           id="g3262"
           style="fill:#000000;fill-opacity:1"
           transform="translate(0,10)">
          <use
             id="use3264"
             y="164.653"
             x="474.93701"
             xlink:href="#textext-c42d794d-6"
             width="744.09448"
             height="1052.3622" />
          <use
             id="use3266"
             y="164.653"
             x="478.25455"
             xlink:href="#textext-c42d794d-6"
             width="744.09448"
             height="1052.3622" />
        </g>
        <g
           id="g3268"
           style="fill:#000000;fill-opacity:1"
           transform="translate(0,10)">
          <use
             id="use3270"
             y="179.597"
             x="367.60199"
             xlink:href="#textext-c42d794d-13"
             width="744.09448"
             height="1052.3622" />
        </g>
        <g
           id="g3272"
           style="fill:#000000;fill-opacity:1"
           transform="translate(0,10)">
          <use
             id="use3274"
             y="179.597"
             x="376.70599"
             xlink:href="#textext-c42d794d-8"
             width="744.09448"
             height="1052.3622" />
        </g>
        <g
           id="g3276"
           style="fill:#000000;fill-opacity:1"
           transform="translate(0,10)">
          <use
             id="use3278"
             y="179.597"
             x="381.936"
             xlink:href="#textext-c42d794d-1"
             width="744.09448"
             height="1052.3622" />
        </g>
        <g
           id="g3280"
           style="fill:#000000;fill-opacity:1"
           transform="translate(0,10)">
          <use
             id="use3282"
             y="179.597"
             x="388.02301"
             xlink:href="#textext-c42d794d-5"
             width="744.09448"
             height="1052.3622" />
        </g>
        <g
           id="g3284"
           style="fill:#000000;fill-opacity:1"
           transform="translate(0,10)">
          <use
             id="use3286"
             y="179.597"
             x="391.341"
             xlink:href="#textext-c42d794d-3"
             width="744.09448"
             height="1052.3622" />
        </g>
        <g
           id="g3288"
           style="fill:#000000;fill-opacity:1"
           transform="translate(0,10)">
          <use
             id="use3290"
             y="179.597"
             x="400.146"
             xlink:href="#textext-c42d794d-11"
             width="744.09448"
             height="1052.3622" />
        </g>
        <g
           id="g3292"
           style="fill:#000000;fill-opacity:1"
           transform="translate(0,10)">
          <use
             id="use3294"
             y="179.597"
             x="409.24899"
             xlink:href="#textext-c42d794d-2"
             width="744.09448"
             height="1052.3622" />
        </g>
        <g
           id="g3296"
           style="fill:#000000;fill-opacity:1"
           transform="translate(0,10)">
          <use
             id="use3298"
             y="179.597"
             x="414.23001"
             xlink:href="#textext-c42d794d-6"
             width="744.09448"
             height="1052.3622" />
        </g>
        <g
           id="g3300"
           style="fill:#000000;fill-opacity:1"
           transform="translate(0,10)">
          <use
             id="use3302"
             y="179.597"
             x="419.76199"
             xlink:href="#textext-c42d794d-10"
             width="744.09448"
             height="1052.3622" />
        </g>
        <g
           id="g3304"
           style="fill:#000000;fill-opacity:1"
           transform="translate(0,10)">
          <use
             id="use3306"
             y="179.597"
             x="428.31201"
             xlink:href="#textext-c42d794d-7"
             width="744.09448"
             height="1052.3622" />
        </g>
        <g
           id="g3308"
           style="fill:#000000;fill-opacity:1"
           transform="translate(0,10)">
          <use
             id="use3310"
             y="179.597"
             x="436.061"
             xlink:href="#textext-c42d794d-13"
             width="744.09448"
             height="1052.3622" />
        </g>
        <g
           id="g3312"
           style="fill:#000000;fill-opacity:1"
           transform="translate(0,10)">
          <use
             id="use3314"
             y="179.597"
             x="445.164"
             xlink:href="#textext-c42d794d-8"
             width="744.09448"
             height="1052.3622" />
        </g>
        <g
           id="g3316"
           style="fill:#000000;fill-opacity:1"
           transform="translate(0,10)">
          <use
             id="use3318"
             y="179.597"
             x="450.146"
             xlink:href="#textext-c42d794d-14"
             width="744.09448"
             height="1052.3622" />
        </g>
        <g
           id="g3320"
           style="fill:#000000;fill-opacity:1"
           transform="translate(0,10)">
          <use
             id="use3322"
             y="179.597"
             x="457.42801"
             xlink:href="#textext-c42d794d-5"
             width="744.09448"
             height="1052.3622" />
        </g>
        <g
           id="g3324"
           style="fill:#000000;fill-opacity:1"
           transform="translate(0,10)">
          <use
             id="use3326"
             y="179.597"
             x="460.746"
             xlink:href="#textext-c42d794d-2"
             width="744.09448"
             height="1052.3622" />
        </g>
        <g
           id="g3328"
           style="fill:#000000;fill-opacity:1"
           transform="translate(0,10)">
          <use
             id="use3330"
             y="179.597"
             x="465.72699"
             xlink:href="#textext-c42d794d-6"
             width="744.09448"
             height="1052.3622" />
        </g>
        <g
           id="g3332"
           style="fill:#000000;fill-opacity:1"
           transform="translate(0,10)">
          <use
             id="use3334"
             y="179.597"
             x="471.259"
             xlink:href="#textext-c42d794d-10"
             width="744.09448"
             height="1052.3622" />
        </g>
        <g
           id="g3336"
           style="fill:#000000;fill-opacity:1"
           transform="translate(0,10)">
          <use
             id="use3338"
             y="179.597"
             x="479.80899"
             xlink:href="#textext-c42d794d-7"
             width="744.09448"
             height="1052.3622" />
        </g>
        <path
           style="fill:none;stroke:#000000;stroke-width:1px;stroke-linecap:butt;stroke-linejoin:miter;stroke-opacity:1;marker-end:url(#Arrow1Mend)"
           d="m 538.91638,182.87338 c 0.5227,-0.89019 5.41374,-1.50652 8.4817,0.26786 1.19008,4.21918 0.55918,8.73329 0.35714,12.70087"
           id="path3527"
           inkscape:connector-curvature="0"
           transform="scale(0.83333333,0.83333333)"
           sodipodi:nodetypes="ccc" />
        <text
           xml:space="preserve"
           style="font-size:10px;font-style:normal;font-variant:normal;font-weight:normal;font-stretch:normal;line-height:125%;letter-spacing:0px;word-spacing:0px;fill:#000000;fill-opacity:1;stroke:none;font-family:Nimbus Roman No9 L;-inkscape-font-specification:Nimbus Roman No9 L"
           x="463.74744"
           y="162.66414"
           id="text4741"
           sodipodi:linespacing="125%"><tspan
             sodipodi:role="line"
             id="tspan4743"
             x="463.74744"
             y="162.66414">we just proved this</tspan></text>
      </g>
    </g>
  </g>
</svg>
