<?xml version="1.0" encoding="UTF-8" standalone="no"?>
<!-- Created with Inkscape (http://www.inkscape.org/) -->

<svg
   xmlns:ns0="http://www.iki.fi/pav/software/textext/"
   xmlns:dc="http://purl.org/dc/elements/1.1/"
   xmlns:cc="http://creativecommons.org/ns#"
   xmlns:rdf="http://www.w3.org/1999/02/22-rdf-syntax-ns#"
   xmlns:svg="http://www.w3.org/2000/svg"
   xmlns="http://www.w3.org/2000/svg"
   xmlns:sodipodi="http://sodipodi.sourceforge.net/DTD/sodipodi-0.dtd"
   xmlns:inkscape="http://www.inkscape.org/namespaces/inkscape"
   width="9cm"
   height="5cm"
   viewBox="0 0 318.89763 177.16535"
   id="svg2"
   version="1.1"
   inkscape:version="0.91 r13725"
   sodipodi:docname="ans25b.svg">
  <sodipodi:namedview
     id="base"
     pagecolor="#ffffff"
     bordercolor="#666666"
     borderopacity="1.0"
     inkscape:pageopacity="0.0"
     inkscape:pageshadow="2"
     inkscape:zoom="3.6130433"
     inkscape:cx="139.66987"
     inkscape:cy="118.83996"
     inkscape:document-units="cm"
     inkscape:current-layer="content"
     showgrid="true"
     units="cm"
     inkscape:object-nodes="true"
     inkscape:window-width="1366"
     inkscape:window-height="744"
     inkscape:window-x="0"
     inkscape:window-y="24"
     inkscape:window-maximized="1">
    <inkscape:grid
       id="grid4136"
       type="xygrid" />
  </sodipodi:namedview>
  <defs
     id="defs4">
    <marker
       inkscape:stockid="Arrow1Mend"
       orient="auto"
       refY="0"
       refX="0"
       id="marker17573"
       style="overflow:visible"
       inkscape:isstock="true">
      <path
         inkscape:connector-curvature="0"
         id="path17575"
         d="M 0,0 5,-5 -12.5,0 5,5 0,0 Z"
         style="fill:#000000;fill-opacity:1;fill-rule:evenodd;stroke:#000000;stroke-width:1pt;stroke-opacity:1"
         transform="matrix(-0.4,0,0,-0.4,-4,0)" />
    </marker>
    <marker
       inkscape:stockid="Arrow1Mend"
       orient="auto"
       refY="0"
       refX="0"
       id="marker14543"
       style="overflow:visible"
       inkscape:isstock="true">
      <path
         inkscape:connector-curvature="0"
         id="path14545"
         d="M 0,0 5,-5 -12.5,0 5,5 0,0 Z"
         style="fill:#000000;fill-opacity:1;fill-rule:evenodd;stroke:#000000;stroke-width:1pt;stroke-opacity:1"
         transform="matrix(-0.4,0,0,-0.4,-4,0)" />
    </marker>
    <marker
       inkscape:stockid="Arrow1Mend"
       orient="auto"
       refY="0"
       refX="0"
       id="marker14135"
       style="overflow:visible"
       inkscape:isstock="true">
      <path
         inkscape:connector-curvature="0"
         id="path14137"
         d="M 0,0 5,-5 -12.5,0 5,5 0,0 Z"
         style="fill:#000000;fill-opacity:1;fill-rule:evenodd;stroke:#000000;stroke-width:1pt;stroke-opacity:1"
         transform="matrix(-0.4,0,0,-0.4,-4,0)" />
    </marker>
    <marker
       inkscape:isstock="true"
       style="overflow:visible"
       id="marker8933"
       refX="0"
       refY="0"
       orient="auto"
       inkscape:stockid="Arrow1Mend">
      <path
         transform="matrix(-0.4,0,0,-0.4,-4,0)"
         style="fill:#000000;fill-opacity:1;fill-rule:evenodd;stroke:#000000;stroke-width:1pt;stroke-opacity:1"
         d="M 0,0 5,-5 -12.5,0 5,5 0,0 Z"
         id="path8935"
         inkscape:connector-curvature="0" />
    </marker>
    <marker
       inkscape:isstock="true"
       style="overflow:visible"
       id="marker10868"
       refX="0"
       refY="0"
       orient="auto"
       inkscape:stockid="Arrow1Mend">
      <path
         inkscape:connector-curvature="0"
         transform="matrix(-0.4,0,0,-0.4,-4,0)"
         style="fill:#000000;fill-opacity:1;fill-rule:evenodd;stroke:#000000;stroke-width:1pt;stroke-opacity:1"
         d="M 0,0 5,-5 -12.5,0 5,5 0,0 Z"
         id="path10870" />
    </marker>
    <marker
       inkscape:stockid="Arrow1Mend"
       orient="auto"
       refY="0"
       refX="0"
       id="marker10610"
       style="overflow:visible"
       inkscape:isstock="true">
      <path
         inkscape:connector-curvature="0"
         id="path10612"
         d="M 0,0 5,-5 -12.5,0 5,5 0,0 Z"
         style="fill:#000000;fill-opacity:1;fill-rule:evenodd;stroke:#000000;stroke-width:1pt;stroke-opacity:1"
         transform="matrix(-0.4,0,0,-0.4,-4,0)" />
    </marker>
    <marker
       inkscape:stockid="Arrow1Mend"
       orient="auto"
       refY="0"
       refX="0"
       id="marker10376"
       style="overflow:visible"
       inkscape:isstock="true">
      <path
         inkscape:connector-curvature="0"
         id="path10378"
         d="M 0,0 5,-5 -12.5,0 5,5 0,0 Z"
         style="fill:#000000;fill-opacity:1;fill-rule:evenodd;stroke:#000000;stroke-width:1pt;stroke-opacity:1"
         transform="matrix(-0.4,0,0,-0.4,-4,0)" />
    </marker>
    <marker
       inkscape:isstock="true"
       style="overflow:visible"
       id="marker9716"
       refX="0"
       refY="0"
       orient="auto"
       inkscape:stockid="Arrow1Mend">
      <path
         inkscape:connector-curvature="0"
         transform="matrix(-0.4,0,0,-0.4,-4,0)"
         style="fill:#000000;fill-opacity:1;fill-rule:evenodd;stroke:#000000;stroke-width:1pt;stroke-opacity:1"
         d="M 0,0 5,-5 -12.5,0 5,5 0,0 Z"
         id="path9718" />
    </marker>
    <marker
       inkscape:stockid="Arrow1Mend"
       orient="auto"
       refY="0"
       refX="0"
       id="marker8441"
       style="overflow:visible"
       inkscape:isstock="true">
      <path
         inkscape:connector-curvature="0"
         id="path8443"
         d="M 0,0 5,-5 -12.5,0 5,5 0,0 Z"
         style="fill:#000000;fill-opacity:1;fill-rule:evenodd;stroke:#000000;stroke-width:1pt;stroke-opacity:1"
         transform="matrix(-0.4,0,0,-0.4,-4,0)" />
    </marker>
    <marker
       inkscape:stockid="Arrow1Mend"
       orient="auto"
       refY="0"
       refX="0"
       id="marker6491"
       style="overflow:visible"
       inkscape:isstock="true">
      <path
         inkscape:connector-curvature="0"
         id="path6493"
         d="M 0,0 5,-5 -12.5,0 5,5 0,0 Z"
         style="fill:#000000;fill-opacity:1;fill-rule:evenodd;stroke:#000000;stroke-width:1pt;stroke-opacity:1"
         transform="matrix(-0.4,0,0,-0.4,-4,0)" />
    </marker>
    <marker
       inkscape:isstock="true"
       style="overflow:visible"
       id="marker4775"
       refX="0"
       refY="0"
       orient="auto"
       inkscape:stockid="Arrow1Mend">
      <path
         inkscape:connector-curvature="0"
         transform="matrix(-0.4,0,0,-0.4,-4,0)"
         style="fill:#ffffff;fill-opacity:1;fill-rule:evenodd;stroke:#000000;stroke-width:1pt;stroke-opacity:1"
         d="M 0,0 5,-5 -12.5,0 5,5 0,0 Z"
         id="path4777" />
    </marker>
    <marker
       inkscape:isstock="true"
       style="overflow:visible"
       id="Arrow1Mend"
       refX="0"
       refY="0"
       orient="auto"
       inkscape:stockid="Arrow1Mend">
      <path
         inkscape:connector-curvature="0"
         transform="matrix(-0.4,0,0,-0.4,-4,0)"
         style="fill:#ffffff;fill-opacity:1;fill-rule:evenodd;stroke:#000000;stroke-width:1pt;stroke-opacity:1"
         d="M 0,0 5,-5 -12.5,0 5,5 0,0 Z"
         id="path4322" />
    </marker>
    <inkscape:path-effect
       effect="clone_original"
       id="path-effect4994"
       is_visible="true"
       linkedpath="" />
    <inkscape:path-effect
       linkedpath=""
       is_visible="true"
       id="path-effect4990"
       effect="clone_original" />
    <inkscape:path-effect
       effect="clone_original"
       id="path-effect4986"
       is_visible="true"
       linkedpath="" />
    <inkscape:path-effect
       linkedpath=""
       is_visible="true"
       id="path-effect4982"
       effect="clone_original" />
    <inkscape:path-effect
       effect="clone_original"
       id="path-effect4978"
       is_visible="true"
       linkedpath="" />
    <inkscape:path-effect
       effect="clone_original"
       id="path-effect4974"
       is_visible="true"
       linkedpath="" />
    <inkscape:path-effect
       linkedpath=""
       is_visible="true"
       id="path-effect4970"
       effect="clone_original" />
    <inkscape:path-effect
       effect="clone_original"
       id="path-effect4966"
       is_visible="true"
       linkedpath="" />
    <inkscape:path-effect
       linkedpath=""
       is_visible="true"
       id="path-effect4962"
       effect="clone_original" />
    <inkscape:path-effect
       linkedpath=""
       is_visible="true"
       id="path-effect4958"
       effect="clone_original" />
    <inkscape:path-effect
       effect="clone_original"
       id="path-effect4954"
       is_visible="true"
       linkedpath="" />
    <inkscape:path-effect
       linkedpath=""
       is_visible="true"
       id="path-effect4950"
       effect="clone_original" />
    <inkscape:path-effect
       effect="clone_original"
       id="path-effect4946"
       is_visible="true"
       linkedpath="" />
    <inkscape:path-effect
       linkedpath=""
       is_visible="true"
       id="path-effect4942"
       effect="clone_original" />
    <inkscape:path-effect
       linkedpath=""
       is_visible="true"
       id="path-effect4938"
       effect="clone_original" />
    <inkscape:path-effect
       effect="clone_original"
       id="path-effect4934"
       is_visible="true"
       linkedpath="" />
    <inkscape:path-effect
       linkedpath=""
       is_visible="true"
       id="path-effect4930"
       effect="clone_original" />
    <inkscape:path-effect
       effect="clone_original"
       id="path-effect4926"
       is_visible="true"
       linkedpath="" />
    <inkscape:path-effect
       effect="clone_original"
       id="path-effect4922"
       is_visible="true"
       linkedpath="" />
    <inkscape:path-effect
       linkedpath=""
       is_visible="true"
       id="path-effect4918"
       effect="clone_original" />
    <inkscape:path-effect
       effect="clone_original"
       id="path-effect4914"
       is_visible="true"
       linkedpath="" />
    <inkscape:path-effect
       linkedpath=""
       is_visible="true"
       id="path-effect4910"
       effect="clone_original" />
    <inkscape:path-effect
       effect="clone_original"
       id="path-effect4906"
       is_visible="true"
       linkedpath="" />
    <inkscape:path-effect
       effect="clone_original"
       id="path-effect4902"
       is_visible="true"
       linkedpath="" />
    <inkscape:path-effect
       linkedpath=""
       is_visible="true"
       id="path-effect4898"
       effect="clone_original" />
    <inkscape:path-effect
       effect="clone_original"
       id="path-effect4894"
       is_visible="true"
       linkedpath="" />
    <inkscape:path-effect
       linkedpath=""
       is_visible="true"
       id="path-effect4890"
       effect="clone_original" />
    <inkscape:path-effect
       linkedpath=""
       is_visible="true"
       id="path-effect4886"
       effect="clone_original" />
    <inkscape:path-effect
       effect="clone_original"
       id="path-effect4882"
       is_visible="true"
       linkedpath="" />
    <inkscape:path-effect
       linkedpath=""
       is_visible="true"
       id="path-effect4878"
       effect="clone_original" />
    <inkscape:path-effect
       effect="clone_original"
       id="path-effect4874"
       is_visible="true"
       linkedpath="" />
    <inkscape:path-effect
       linkedpath=""
       is_visible="true"
       id="path-effect4870"
       effect="clone_original" />
    <inkscape:path-effect
       linkedpath=""
       is_visible="true"
       id="path-effect4866"
       effect="clone_original" />
    <inkscape:path-effect
       effect="clone_original"
       id="path-effect4862"
       is_visible="true"
       linkedpath="" />
    <inkscape:path-effect
       linkedpath=""
       is_visible="true"
       id="path-effect4858"
       effect="clone_original" />
    <inkscape:path-effect
       effect="clone_original"
       id="path-effect4854"
       is_visible="true"
       linkedpath="" />
    <inkscape:path-effect
       effect="clone_original"
       id="path-effect4850"
       is_visible="true"
       linkedpath="" />
    <inkscape:path-effect
       linkedpath=""
       is_visible="true"
       id="path-effect4846"
       effect="clone_original" />
    <inkscape:path-effect
       effect="clone_original"
       id="path-effect4842"
       is_visible="true"
       linkedpath="" />
    <inkscape:path-effect
       linkedpath=""
       is_visible="true"
       id="path-effect4838"
       effect="clone_original" />
    <inkscape:path-effect
       effect="clone_original"
       id="path-effect4834"
       is_visible="true"
       linkedpath="" />
    <inkscape:path-effect
       effect="clone_original"
       id="path-effect4830"
       is_visible="true"
       linkedpath="" />
    <inkscape:path-effect
       linkedpath=""
       is_visible="true"
       id="path-effect4826"
       effect="clone_original" />
    <inkscape:path-effect
       effect="clone_original"
       id="path-effect4822"
       is_visible="true"
       linkedpath="" />
    <inkscape:path-effect
       linkedpath=""
       is_visible="true"
       id="path-effect4818"
       effect="clone_original" />
    <inkscape:path-effect
       effect="clone_original"
       id="path-effect4814"
       is_visible="true"
       linkedpath="" />
    <inkscape:path-effect
       linkedpath=""
       is_visible="true"
       id="path-effect4810"
       effect="clone_original" />
    <inkscape:path-effect
       effect="clone_original"
       id="path-effect4806"
       is_visible="true"
       linkedpath="" />
    <inkscape:path-effect
       linkedpath=""
       is_visible="true"
       id="path-effect4802"
       effect="clone_original" />
    <inkscape:path-effect
       effect="clone_original"
       id="path-effect4798"
       is_visible="true"
       linkedpath="" />
    <inkscape:path-effect
       effect="clone_original"
       id="path-effect4794"
       is_visible="true"
       linkedpath="" />
    <inkscape:path-effect
       linkedpath=""
       is_visible="true"
       id="path-effect4790"
       effect="clone_original" />
    <inkscape:path-effect
       effect="clone_original"
       id="path-effect4786"
       is_visible="true"
       linkedpath="" />
    <inkscape:path-effect
       linkedpath=""
       is_visible="true"
       id="path-effect4782"
       effect="clone_original" />
    <inkscape:path-effect
       linkedpath=""
       is_visible="true"
       id="path-effect4778"
       effect="clone_original" />
    <inkscape:path-effect
       effect="clone_original"
       id="path-effect4774"
       is_visible="true"
       linkedpath="" />
    <inkscape:path-effect
       linkedpath=""
       is_visible="true"
       id="path-effect4770"
       effect="clone_original" />
    <inkscape:path-effect
       effect="clone_original"
       id="path-effect4766"
       is_visible="true"
       linkedpath="" />
    <inkscape:path-effect
       linkedpath=""
       is_visible="true"
       id="path-effect4762"
       effect="clone_original" />
    <inkscape:path-effect
       linkedpath=""
       is_visible="true"
       id="path-effect4758"
       effect="clone_original" />
    <inkscape:path-effect
       effect="clone_original"
       id="path-effect4754"
       is_visible="true"
       linkedpath="" />
    <inkscape:path-effect
       linkedpath=""
       is_visible="true"
       id="path-effect4750"
       effect="clone_original" />
    <inkscape:path-effect
       effect="clone_original"
       id="path-effect4746"
       is_visible="true"
       linkedpath="" />
    <inkscape:path-effect
       effect="clone_original"
       id="path-effect4742"
       is_visible="true"
       linkedpath="" />
    <inkscape:path-effect
       linkedpath=""
       is_visible="true"
       id="path-effect4738"
       effect="clone_original" />
    <inkscape:path-effect
       effect="clone_original"
       id="path-effect4734"
       is_visible="true"
       linkedpath="" />
    <inkscape:path-effect
       linkedpath=""
       is_visible="true"
       id="path-effect4730"
       effect="clone_original" />
    <inkscape:path-effect
       effect="clone_original"
       id="path-effect4726"
       is_visible="true"
       linkedpath="" />
    <inkscape:path-effect
       effect="clone_original"
       id="path-effect4722"
       is_visible="true"
       linkedpath="" />
    <inkscape:path-effect
       linkedpath=""
       is_visible="true"
       id="path-effect4718"
       effect="clone_original" />
    <inkscape:path-effect
       effect="clone_original"
       id="path-effect4714"
       is_visible="true"
       linkedpath="" />
    <inkscape:path-effect
       linkedpath=""
       is_visible="true"
       id="path-effect4710"
       effect="clone_original" />
    <inkscape:path-effect
       linkedpath=""
       is_visible="true"
       id="path-effect4706"
       effect="clone_original" />
    <inkscape:path-effect
       effect="clone_original"
       id="path-effect4702"
       is_visible="true"
       linkedpath="" />
    <inkscape:path-effect
       linkedpath=""
       is_visible="true"
       id="path-effect4698"
       effect="clone_original" />
    <inkscape:path-effect
       effect="clone_original"
       id="path-effect4694"
       is_visible="true"
       linkedpath="" />
    <inkscape:path-effect
       linkedpath=""
       is_visible="true"
       id="path-effect4690"
       effect="clone_original" />
    <inkscape:path-effect
       linkedpath=""
       is_visible="true"
       id="path-effect4686"
       effect="clone_original" />
    <inkscape:path-effect
       effect="clone_original"
       id="path-effect4682"
       is_visible="true"
       linkedpath="" />
    <inkscape:path-effect
       linkedpath=""
       is_visible="true"
       id="path-effect4678"
       effect="clone_original" />
    <inkscape:path-effect
       effect="clone_original"
       id="path-effect4674"
       is_visible="true"
       linkedpath="" />
    <inkscape:path-effect
       linkedpath=""
       is_visible="true"
       id="path-effect4651"
       effect="clone_original" />
    <inkscape:path-effect
       effect="clone_original"
       id="path-effect4647"
       is_visible="true"
       linkedpath="" />
    <inkscape:path-effect
       linkedpath=""
       is_visible="true"
       id="path-effect4643"
       effect="clone_original" />
    <inkscape:path-effect
       effect="clone_original"
       id="path-effect4639"
       is_visible="true"
       linkedpath="" />
    <inkscape:path-effect
       linkedpath=""
       is_visible="true"
       id="path-effect4635"
       effect="clone_original" />
    <inkscape:path-effect
       linkedpath=""
       is_visible="true"
       id="path-effect4631"
       effect="clone_original" />
    <inkscape:path-effect
       effect="clone_original"
       id="path-effect4627"
       is_visible="true"
       linkedpath="" />
    <inkscape:path-effect
       linkedpath=""
       is_visible="true"
       id="path-effect4623"
       effect="clone_original" />
    <inkscape:path-effect
       effect="clone_original"
       id="path-effect4619"
       is_visible="true"
       linkedpath="" />
    <inkscape:path-effect
       effect="clone_original"
       id="path-effect4615"
       is_visible="true"
       linkedpath="" />
    <inkscape:path-effect
       linkedpath=""
       is_visible="true"
       id="path-effect4611"
       effect="clone_original" />
    <inkscape:path-effect
       effect="clone_original"
       id="path-effect4607"
       is_visible="true"
       linkedpath="" />
    <inkscape:path-effect
       linkedpath=""
       is_visible="true"
       id="path-effect4603"
       effect="clone_original" />
    <inkscape:path-effect
       effect="clone_original"
       id="path-effect4599"
       is_visible="true"
       linkedpath="" />
    <inkscape:path-effect
       effect="clone_original"
       id="path-effect4595"
       is_visible="true"
       linkedpath="" />
    <inkscape:path-effect
       linkedpath=""
       is_visible="true"
       id="path-effect4591"
       effect="clone_original" />
    <inkscape:path-effect
       effect="clone_original"
       id="path-effect4587"
       is_visible="true"
       linkedpath="" />
    <inkscape:path-effect
       linkedpath=""
       is_visible="true"
       id="path-effect4583"
       effect="clone_original" />
    <inkscape:path-effect
       linkedpath=""
       is_visible="true"
       id="path-effect4579"
       effect="clone_original" />
    <inkscape:path-effect
       effect="clone_original"
       id="path-effect4575"
       is_visible="true"
       linkedpath="" />
    <inkscape:path-effect
       linkedpath=""
       is_visible="true"
       id="path-effect4571"
       effect="clone_original" />
    <inkscape:path-effect
       effect="clone_original"
       id="path-effect4567"
       is_visible="true"
       linkedpath="" />
    <inkscape:path-effect
       linkedpath=""
       is_visible="true"
       id="path-effect4563"
       effect="clone_original" />
    <inkscape:path-effect
       linkedpath=""
       is_visible="true"
       id="path-effect4559"
       effect="clone_original" />
    <inkscape:path-effect
       effect="clone_original"
       id="path-effect4555"
       is_visible="true"
       linkedpath="" />
    <inkscape:path-effect
       linkedpath=""
       is_visible="true"
       id="path-effect4551"
       effect="clone_original" />
    <inkscape:path-effect
       effect="clone_original"
       id="path-effect4547"
       is_visible="true"
       linkedpath="" />
    <inkscape:path-effect
       effect="clone_original"
       id="path-effect4543"
       is_visible="true"
       linkedpath="" />
    <inkscape:path-effect
       linkedpath=""
       is_visible="true"
       id="path-effect4539"
       effect="clone_original" />
    <inkscape:path-effect
       effect="clone_original"
       id="path-effect4535"
       is_visible="true"
       linkedpath="" />
    <inkscape:path-effect
       linkedpath=""
       is_visible="true"
       id="path-effect4531"
       effect="clone_original" />
    <inkscape:path-effect
       effect="clone_original"
       id="path-effect4527"
       is_visible="true"
       linkedpath="" />
    <inkscape:path-effect
       effect="clone_original"
       id="path-effect4523"
       is_visible="true"
       linkedpath="" />
    <inkscape:path-effect
       linkedpath=""
       is_visible="true"
       id="path-effect4519"
       effect="clone_original" />
    <inkscape:path-effect
       effect="clone_original"
       id="path-effect4515"
       is_visible="true"
       linkedpath="" />
    <inkscape:path-effect
       linkedpath=""
       is_visible="true"
       id="path-effect4511"
       effect="clone_original" />
    <inkscape:path-effect
       linkedpath=""
       is_visible="true"
       id="path-effect4507"
       effect="clone_original" />
    <inkscape:path-effect
       effect="clone_original"
       id="path-effect4503"
       is_visible="true"
       linkedpath="" />
    <inkscape:path-effect
       linkedpath=""
       is_visible="true"
       id="path-effect4499"
       effect="clone_original" />
    <inkscape:path-effect
       effect="clone_original"
       id="path-effect4495"
       is_visible="true"
       linkedpath="" />
    <inkscape:path-effect
       linkedpath=""
       is_visible="true"
       id="path-effect4491"
       effect="clone_original" />
    <inkscape:path-effect
       linkedpath=""
       is_visible="true"
       id="path-effect4487"
       effect="clone_original" />
    <inkscape:path-effect
       effect="clone_original"
       id="path-effect4483"
       is_visible="true"
       linkedpath="" />
    <inkscape:path-effect
       linkedpath=""
       is_visible="true"
       id="path-effect4479"
       effect="clone_original" />
    <inkscape:path-effect
       effect="clone_original"
       id="path-effect4475"
       is_visible="true"
       linkedpath="" />
    <inkscape:path-effect
       linkedpath=""
       is_visible="true"
       id="path-effect4471"
       effect="clone_original" />
    <inkscape:path-effect
       effect="clone_original"
       id="path-effect4467"
       is_visible="true"
       linkedpath="" />
    <inkscape:path-effect
       linkedpath=""
       is_visible="true"
       id="path-effect4463"
       effect="clone_original" />
    <inkscape:path-effect
       effect="clone_original"
       id="path-effect4459"
       is_visible="true"
       linkedpath="" />
    <inkscape:path-effect
       linkedpath=""
       is_visible="true"
       id="path-effect4455"
       effect="clone_original" />
    <inkscape:path-effect
       linkedpath=""
       is_visible="true"
       id="path-effect4451"
       effect="clone_original" />
    <inkscape:path-effect
       effect="clone_original"
       id="path-effect4447"
       is_visible="true"
       linkedpath="" />
    <inkscape:path-effect
       linkedpath=""
       is_visible="true"
       id="path-effect4443"
       effect="clone_original" />
    <inkscape:path-effect
       effect="clone_original"
       id="path-effect4439"
       is_visible="true"
       linkedpath="" />
    <inkscape:path-effect
       effect="clone_original"
       id="path-effect4435"
       is_visible="true"
       linkedpath="" />
    <inkscape:path-effect
       linkedpath=""
       is_visible="true"
       id="path-effect4431"
       effect="clone_original" />
    <inkscape:path-effect
       effect="clone_original"
       id="path-effect4427"
       is_visible="true"
       linkedpath="" />
    <inkscape:path-effect
       linkedpath=""
       is_visible="true"
       id="path-effect4423"
       effect="clone_original" />
    <inkscape:path-effect
       effect="clone_original"
       id="path-effect4419"
       is_visible="true"
       linkedpath="" />
    <inkscape:path-effect
       effect="clone_original"
       id="path-effect4415"
       is_visible="true"
       linkedpath="" />
    <inkscape:path-effect
       linkedpath=""
       is_visible="true"
       id="path-effect4411"
       effect="clone_original" />
    <inkscape:path-effect
       effect="clone_original"
       id="path-effect4407"
       is_visible="true"
       linkedpath="" />
    <inkscape:path-effect
       linkedpath=""
       is_visible="true"
       id="path-effect4403"
       effect="clone_original" />
    <inkscape:path-effect
       linkedpath=""
       is_visible="true"
       id="path-effect4399"
       effect="clone_original" />
    <inkscape:path-effect
       effect="clone_original"
       id="path-effect4395"
       is_visible="true"
       linkedpath="" />
    <inkscape:path-effect
       linkedpath=""
       is_visible="true"
       id="path-effect4391"
       effect="clone_original" />
    <inkscape:path-effect
       effect="clone_original"
       id="path-effect4387"
       is_visible="true"
       linkedpath="" />
    <inkscape:path-effect
       linkedpath=""
       is_visible="true"
       id="path-effect4383"
       effect="clone_original" />
    <inkscape:path-effect
       linkedpath=""
       is_visible="true"
       id="path-effect4379"
       effect="clone_original" />
    <inkscape:path-effect
       effect="clone_original"
       id="path-effect4375"
       is_visible="true"
       linkedpath="" />
    <inkscape:path-effect
       linkedpath=""
       is_visible="true"
       id="path-effect4371"
       effect="clone_original" />
    <inkscape:path-effect
       effect="clone_original"
       id="path-effect4367"
       is_visible="true"
       linkedpath="" />
    <inkscape:path-effect
       effect="clone_original"
       id="path-effect4363"
       is_visible="true"
       linkedpath="" />
    <inkscape:path-effect
       linkedpath=""
       is_visible="true"
       id="path-effect4359"
       effect="clone_original" />
    <inkscape:path-effect
       effect="clone_original"
       id="path-effect4355"
       is_visible="true"
       linkedpath="" />
    <inkscape:path-effect
       linkedpath=""
       is_visible="true"
       id="path-effect4351"
       effect="clone_original" />
    <inkscape:path-effect
       effect="clone_original"
       id="path-effect4347"
       is_visible="true"
       linkedpath="" />
    <inkscape:path-effect
       effect="clone_original"
       id="path-effect4343"
       is_visible="true"
       linkedpath="" />
    <inkscape:path-effect
       linkedpath=""
       is_visible="true"
       id="path-effect4339"
       effect="clone_original" />
    <inkscape:path-effect
       effect="clone_original"
       id="path-effect4335"
       is_visible="true"
       linkedpath="" />
    <inkscape:path-effect
       linkedpath=""
       is_visible="true"
       id="path-effect4323"
       effect="clone_original" />
  </defs>
  <metadata
     id="metadata7">
    <rdf:RDF>
      <cc:Work
         rdf:about="">
        <dc:format>image/svg+xml</dc:format>
        <dc:type
           rdf:resource="http://purl.org/dc/dcmitype/StillImage" />
        <dc:title />
      </cc:Work>
    </rdf:RDF>
  </metadata>
  <g
     transform="translate(0,-875.19688)"
     id="layer1"
     inkscape:groupmode="layer"
     inkscape:label="Layer 1">
    <rect
       y="917.36224"
       x="10"
       height="74.999977"
       width="75"
       id="rect5214"
       style="color:#000000;clip-rule:nonzero;display:inline;overflow:visible;visibility:visible;opacity:1;isolation:auto;mix-blend-mode:normal;color-interpolation:sRGB;color-interpolation-filters:linearRGB;solid-color:#000000;solid-opacity:1;fill:none;fill-opacity:1;fill-rule:evenodd;stroke:#000000;stroke-width:0.99999994;stroke-linecap:butt;stroke-linejoin:round;stroke-miterlimit:4;stroke-dasharray:none;stroke-dashoffset:0;stroke-opacity:1;color-rendering:auto;image-rendering:auto;shape-rendering:auto;text-rendering:auto;enable-background:accumulate" />
    <rect
       style="color:#000000;clip-rule:nonzero;display:inline;overflow:visible;visibility:visible;opacity:1;isolation:auto;mix-blend-mode:normal;color-interpolation:sRGB;color-interpolation-filters:linearRGB;solid-color:#000000;solid-opacity:1;fill:none;fill-opacity:1;fill-rule:evenodd;stroke:#000000;stroke-width:0.99999994;stroke-linecap:butt;stroke-linejoin:round;stroke-miterlimit:4;stroke-dasharray:none;stroke-dashoffset:0;stroke-opacity:1;color-rendering:auto;image-rendering:auto;shape-rendering:auto;text-rendering:auto;enable-background:accumulate"
       id="rect5238"
       width="75"
       height="74.999977"
       x="110"
       y="917.36224" />
    <rect
       y="917.36224"
       x="210"
       height="74.999977"
       width="75"
       id="rect5264"
       style="color:#000000;clip-rule:nonzero;display:inline;overflow:visible;visibility:visible;opacity:1;isolation:auto;mix-blend-mode:normal;color-interpolation:sRGB;color-interpolation-filters:linearRGB;solid-color:#000000;solid-opacity:1;fill:none;fill-opacity:1;fill-rule:evenodd;stroke:#000000;stroke-width:0.99999994;stroke-linecap:butt;stroke-linejoin:round;stroke-miterlimit:4;stroke-dasharray:none;stroke-dashoffset:0;stroke-opacity:1;color-rendering:auto;image-rendering:auto;shape-rendering:auto;text-rendering:auto;enable-background:accumulate" />
    <path
       inkscape:connector-curvature="0"
       id="path5366"
       d="M 10,917.36224 70.632645,932.40348 85,992.36224"
       style="color:#000000;clip-rule:nonzero;display:inline;overflow:visible;visibility:visible;opacity:1;isolation:auto;mix-blend-mode:normal;color-interpolation:sRGB;color-interpolation-filters:linearRGB;solid-color:#000000;solid-opacity:1;fill:none;fill-opacity:1;fill-rule:nonzero;stroke:#000000;stroke-width:1;stroke-linecap:round;stroke-linejoin:round;stroke-miterlimit:4;stroke-dasharray:none;stroke-dashoffset:0;stroke-opacity:1;color-rendering:auto;image-rendering:auto;shape-rendering:auto;text-rendering:auto;enable-background:accumulate" />
    <path
       inkscape:connector-curvature="0"
       id="path5370"
       d="m 10,917.36223 15,60 60,15"
       style="color:#000000;clip-rule:nonzero;display:inline;overflow:visible;visibility:visible;opacity:1;isolation:auto;mix-blend-mode:normal;color-interpolation:sRGB;color-interpolation-filters:linearRGB;solid-color:#000000;solid-opacity:1;fill:none;fill-opacity:1;fill-rule:nonzero;stroke:#000000;stroke-width:1;stroke-linecap:round;stroke-linejoin:round;stroke-miterlimit:4;stroke-dasharray:none;stroke-dashoffset:0;stroke-opacity:1;color-rendering:auto;image-rendering:auto;shape-rendering:auto;text-rendering:auto;enable-background:accumulate" />
    <path
       inkscape:connector-curvature="0"
       id="path5372"
       d="m 10,917.36223 30,45 45,30"
       style="color:#000000;clip-rule:nonzero;display:inline;overflow:visible;visibility:visible;opacity:1;isolation:auto;mix-blend-mode:normal;color-interpolation:sRGB;color-interpolation-filters:linearRGB;solid-color:#000000;solid-opacity:1;fill:none;fill-opacity:1;fill-rule:nonzero;stroke:#000000;stroke-width:1;stroke-linecap:round;stroke-linejoin:round;stroke-miterlimit:4;stroke-dasharray:none;stroke-dashoffset:0;stroke-opacity:1;color-rendering:auto;image-rendering:auto;shape-rendering:auto;text-rendering:auto;enable-background:accumulate" />
    <path
       inkscape:connector-curvature="0"
       id="path5374"
       d="m 10,917.36223 45,30 30,45"
       style="color:#000000;clip-rule:nonzero;display:inline;overflow:visible;visibility:visible;opacity:1;isolation:auto;mix-blend-mode:normal;color-interpolation:sRGB;color-interpolation-filters:linearRGB;solid-color:#000000;solid-opacity:1;fill:none;fill-opacity:1;fill-rule:nonzero;stroke:#000000;stroke-width:1;stroke-linecap:round;stroke-linejoin:round;stroke-miterlimit:4;stroke-dasharray:none;stroke-dashoffset:0;stroke-opacity:1;color-rendering:auto;image-rendering:auto;shape-rendering:auto;text-rendering:auto;enable-background:accumulate" />
    <path
       inkscape:connector-curvature="0"
       id="path5396"
       d="m 140,917.36223 -30,75 75,-30"
       style="color:#000000;clip-rule:nonzero;display:inline;overflow:visible;visibility:visible;opacity:1;isolation:auto;mix-blend-mode:normal;color-interpolation:sRGB;color-interpolation-filters:linearRGB;solid-color:#000000;solid-opacity:1;fill:none;fill-opacity:1;fill-rule:nonzero;stroke:#000000;stroke-width:1;stroke-linecap:round;stroke-linejoin:round;stroke-miterlimit:4;stroke-dasharray:none;stroke-dashoffset:0;stroke-opacity:1;color-rendering:auto;image-rendering:auto;shape-rendering:auto;text-rendering:auto;enable-background:accumulate" />
    <path
       inkscape:connector-curvature="0"
       id="path5398"
       d="m 185,932.36223 -75,60 60,-75"
       style="color:#000000;clip-rule:nonzero;display:inline;overflow:visible;visibility:visible;opacity:1;isolation:auto;mix-blend-mode:normal;color-interpolation:sRGB;color-interpolation-filters:linearRGB;solid-color:#000000;solid-opacity:1;fill:none;fill-opacity:1;fill-rule:nonzero;stroke:#000000;stroke-width:1;stroke-linecap:round;stroke-linejoin:round;stroke-miterlimit:4;stroke-dasharray:none;stroke-dashoffset:0;stroke-opacity:1;color-rendering:auto;image-rendering:auto;shape-rendering:auto;text-rendering:auto;enable-background:accumulate" />
    <circle
       r="22.5"
       cy="954.86224"
       cx="247.5"
       id="path5402"
       style="color:#000000;clip-rule:nonzero;display:inline;overflow:visible;visibility:visible;opacity:1;isolation:auto;mix-blend-mode:normal;color-interpolation:sRGB;color-interpolation-filters:linearRGB;solid-color:#000000;solid-opacity:1;fill:none;fill-opacity:1;fill-rule:nonzero;stroke:#000000;stroke-width:0.80000001;stroke-linecap:round;stroke-linejoin:round;stroke-miterlimit:4;stroke-dasharray:none;stroke-dashoffset:0;stroke-opacity:1;color-rendering:auto;image-rendering:auto;shape-rendering:auto;text-rendering:auto;enable-background:accumulate" />
    <path
       inkscape:connector-curvature="0"
       id="path5404"
       d="m 284.60294,954.86223 -14.24129,0"
       style="color:#000000;clip-rule:nonzero;display:inline;overflow:visible;visibility:visible;opacity:1;isolation:auto;mix-blend-mode:normal;color-interpolation:sRGB;color-interpolation-filters:linearRGB;solid-color:#000000;solid-opacity:1;fill:none;fill-opacity:1;fill-rule:nonzero;stroke:#000000;stroke-width:1;stroke-linecap:round;stroke-linejoin:round;stroke-miterlimit:4;stroke-dasharray:none;stroke-dashoffset:0;stroke-opacity:1;color-rendering:auto;image-rendering:auto;shape-rendering:auto;text-rendering:auto;enable-background:accumulate" />
    <path
       style="color:#000000;clip-rule:nonzero;display:inline;overflow:visible;visibility:visible;opacity:1;isolation:auto;mix-blend-mode:normal;color-interpolation:sRGB;color-interpolation-filters:linearRGB;solid-color:#000000;solid-opacity:1;fill:none;fill-opacity:1;fill-rule:nonzero;stroke:#000000;stroke-width:1;stroke-linecap:round;stroke-linejoin:round;stroke-miterlimit:4;stroke-dasharray:none;stroke-dashoffset:0;stroke-opacity:1;color-rendering:auto;image-rendering:auto;shape-rendering:auto;text-rendering:auto;enable-background:accumulate"
       d="m 224.64851,954.86223 -14.24129,0"
       id="path5406"
       inkscape:connector-curvature="0" />
    <path
       inkscape:connector-curvature="0"
       id="path5408"
       d="m 247.5,931.95406 0,-14.24129"
       style="color:#000000;clip-rule:nonzero;display:inline;overflow:visible;visibility:visible;opacity:1;isolation:auto;mix-blend-mode:normal;color-interpolation:sRGB;color-interpolation-filters:linearRGB;solid-color:#000000;solid-opacity:1;fill:none;fill-opacity:1;fill-rule:nonzero;stroke:#000000;stroke-width:1;stroke-linecap:round;stroke-linejoin:round;stroke-miterlimit:4;stroke-dasharray:none;stroke-dashoffset:0;stroke-opacity:1;color-rendering:auto;image-rendering:auto;shape-rendering:auto;text-rendering:auto;enable-background:accumulate" />
    <path
       style="color:#000000;clip-rule:nonzero;display:inline;overflow:visible;visibility:visible;opacity:1;isolation:auto;mix-blend-mode:normal;color-interpolation:sRGB;color-interpolation-filters:linearRGB;solid-color:#000000;solid-opacity:1;fill:none;fill-opacity:1;fill-rule:nonzero;stroke:#000000;stroke-width:1;stroke-linecap:round;stroke-linejoin:round;stroke-miterlimit:4;stroke-dasharray:none;stroke-dashoffset:0;stroke-opacity:1;color-rendering:auto;image-rendering:auto;shape-rendering:auto;text-rendering:auto;enable-background:accumulate"
       d="m 247.5,992.03672 0,-14.24129"
       id="path5410"
       inkscape:connector-curvature="0" />
    <g
       ns0:preamble="/home/sriranga/Desktop/general-books/Ganitha-Kalakshepa/images/chap8/kanlel.tex"
       ns0:text="$(4)$                                       $(5)$                             $(6)$"
       word-spacing="normal"
       letter-spacing="normal"
       font-size-adjust="none"
       font-stretch="normal"
       font-weight="normal"
       font-variant="normal"
       font-style="normal"
       stroke-miterlimit="10.433"
       xml:space="preserve"
       transform="matrix(1.2,0,0,-1.2,-151.97897,1752.6494)"
       id="content"
       style="font-style:normal;font-variant:normal;font-weight:normal;font-stretch:normal;letter-spacing:normal;word-spacing:normal;text-anchor:start;fill:none;fill-opacity:1;fill-rule:evenodd;stroke:#000000;stroke-linecap:butt;stroke-linejoin:miter;stroke-miterlimit:10.43299961;stroke-dasharray:none;stroke-dashoffset:0;stroke-opacity:1"><path
         id="path3741"
         d="m 162.14588,700.79005 0,0.01 0,0 0,0 0,0.01 0,0 0,0 0,0.01 0,0 0,0 -0.01,0.01 0,0 0,0.01 0,0 -0.01,0.01 0,0 -0.01,0.01 0,0.01 -0.01,0 0,0.01 -0.01,0 0,0.01 0,0 -0.01,0 0,0.01 0,0 -0.01,0.01 0,0 -0.01,0.01 0,0 -0.01,0.01 0,0 -0.01,0.01 0,0.01 -0.01,0 -0.01,0.01 0,0.01 -0.01,0 -0.01,0.01 0,0.01 -0.01,0 -0.01,0.01 -0.01,0.01 c -1.24,1.25 -1.56,3.13 -1.56,4.65 0,1.73 0.38,3.46 1.6,4.7 0.13,0.12 0.13,0.14 0.13,0.17 0,0.07 -0.04,0.1 -0.1,0.1 -0.1,0 -0.99,-0.68 -1.58,-1.94 -0.51,-1.09 -0.63,-2.2 -0.63,-3.03 0,-0.78 0.11,-1.98 0.66,-3.1 0.6,-1.22 1.45,-1.87 1.55,-1.87 0.06,0 0.1,0.03 0.1,0.1 z"
         inkscape:connector-curvature="0"
         style="fill:#000000;stroke-width:0" /><path
         id="path3743"
         d="m 165.65588,704.81005 0,-0.86 c 0,-0.36 -0.02,-0.47 -0.76,-0.47 l -0.21,0 0,-0.31 c 0.41,0.04 0.93,0.04 1.35,0.04 0.42,0 0.95,0 1.35,-0.04 l 0,0.31 -0.21,0 c -0.73,0 -0.75,0.11 -0.75,0.47 l 0,0.86 0.99,0 0,0.31 -0.99,0 0,4.52 c 0,0.2 0,0.26 -0.16,0.26 -0.09,0 -0.12,0 -0.2,-0.12 l -3.06,-4.66 0.28,0 2.43,3.71 0,-3.71 -2.43,0 -0.28,0 0,-0.31 z"
         inkscape:connector-curvature="0"
         style="fill:#000000;stroke-width:0" /><path
         id="path3745"
         d="m 170.58588,705.66005 0,0.07 0,0.08 0,0.08 -0.01,0.08 0,0.17 -0.02,0.17 -0.01,0.18 -0.02,0.19 -0.03,0.2 -0.03,0.2 -0.04,0.2 -0.05,0.21 -0.05,0.21 -0.06,0.21 -0.07,0.21 -0.08,0.21 -0.05,0.11 -0.04,0.11 -0.05,0.1 -0.05,0.11 c -0.6,1.22 -1.45,1.87 -1.55,1.87 -0.06,0 -0.1,-0.04 -0.1,-0.1 0,-0.03 0,-0.05 0.19,-0.23 0.97,-0.99 1.54,-2.57 1.54,-4.64 0,-1.7 -0.37,-3.45 -1.6,-4.7 -0.13,-0.12 -0.13,-0.14 -0.13,-0.17 0,-0.06 0.04,-0.1 0.1,-0.1 0.1,0 0.99,0.68 1.58,1.94 0.51,1.09 0.63,2.19 0.63,3.03 z"
         inkscape:connector-curvature="0"
         style="fill:#000000;stroke-width:0" /><path
         id="path3747"
         d="m 245.51334,699.73999 0,0.01 0,0 0,0 0,0.01 0,0 0,0 0,0.01 0,0 0,0 -0.01,0.01 0,0 0,0.01 0,0 -0.01,0.01 0,0 -0.01,0.01 0,0.01 -0.01,0 0,0.01 -0.01,0 0,0.01 0,0 -0.01,0 0,0.01 0,0 -0.01,0.01 0,0 -0.01,0.01 0,0 -0.01,0.01 0,0 -0.01,0.01 0,0.01 -0.01,0 -0.01,0.01 0,0.01 -0.01,0 -0.01,0.01 0,0.01 -0.01,0 -0.01,0.01 -0.01,0.01 c -1.24,1.25 -1.56,3.13 -1.56,4.65 0,1.73 0.38,3.46 1.6,4.7 0.13,0.12 0.13,0.14 0.13,0.17 0,0.07 -0.04,0.1 -0.1,0.1 -0.1,0 -0.99,-0.68 -1.58,-1.94 -0.51,-1.09 -0.63,-2.2 -0.63,-3.03 0,-0.78 0.11,-1.98 0.66,-3.1 0.6,-1.22 1.45,-1.87 1.55,-1.87 0.06,0 0.1,0.03 0.1,0.1 z"
         inkscape:connector-curvature="0"
         style="fill:#000000;stroke-width:0" /><path
         id="path3749"
         d="m 250.56334,704.11999 0,0.11 -0.01,0.11 -0.01,0.11 -0.01,0.1 -0.02,0.11 -0.03,0.1 -0.03,0.1 -0.03,0.1 -0.04,0.1 -0.04,0.09 -0.04,0.09 -0.05,0.09 -0.05,0.09 -0.06,0.08 -0.06,0.08 -0.06,0.07 -0.06,0.08 -0.07,0.06 -0.07,0.07 -0.08,0.06 -0.07,0.06 -0.08,0.05 -0.09,0.05 -0.08,0.04 -0.09,0.04 -0.09,0.04 -0.09,0.03 -0.09,0.02 -0.1,0.02 -0.09,0.02 -0.1,0 -0.1,0.01 c -0.48,0 -0.91,-0.16 -1.27,-0.51 l 0,1.94 c 0.2,-0.06 0.53,-0.13 0.85,-0.13 1.23,0 1.93,0.9 1.93,1.03 0,0.06 -0.03,0.11 -0.11,0.11 0,0 -0.03,0 -0.08,-0.03 -0.19,-0.09 -0.68,-0.29 -1.35,-0.29 -0.4,0 -0.86,0.07 -1.33,0.28 -0.08,0.03 -0.1,0.03 -0.12,0.03 -0.1,0 -0.1,-0.08 -0.1,-0.24 l 0,-2.94 c 0,-0.18 0,-0.26 0.14,-0.26 0.07,0 0.09,0.03 0.13,0.09 0.11,0.16 0.48,0.7 1.29,0.7 0.52,0 0.77,-0.46 0.85,-0.64 0.16,-0.36 0.18,-0.75 0.18,-1.25 0,-0.35 0,-0.94 -0.24,-1.36 -0.24,-0.39 -0.61,-0.65 -1.07,-0.65 -0.73,0 -1.3,0.53 -1.47,1.12 0.03,-0.01 0.06,-0.02 0.17,-0.02 0.33,0 0.5,0.25 0.5,0.48 0,0.24 -0.17,0.49 -0.5,0.49 -0.14,0 -0.48,-0.07 -0.48,-0.53 0,-0.85 0.68,-1.81 1.8,-1.81 1.16,0 2.17,0.95 2.17,2.21 z"
         inkscape:connector-curvature="0"
         style="fill:#000000;stroke-width:0" /><path
         id="path3751"
         d="m 253.95334,704.60999 0,0.07 0,0.08 0,0.08 -0.01,0.08 0,0.17 -0.02,0.17 -0.01,0.18 -0.02,0.19 -0.03,0.2 -0.03,0.2 -0.04,0.2 -0.05,0.21 -0.05,0.21 -0.06,0.21 -0.07,0.21 -0.08,0.21 -0.05,0.11 -0.04,0.11 -0.05,0.1 -0.05,0.11 c -0.6,1.22 -1.45,1.87 -1.55,1.87 -0.06,0 -0.1,-0.04 -0.1,-0.1 0,-0.03 0,-0.05 0.19,-0.23 0.97,-0.99 1.54,-2.57 1.54,-4.64 0,-1.7 -0.37,-3.45 -1.6,-4.7 -0.13,-0.12 -0.13,-0.14 -0.13,-0.17 0,-0.06 0.04,-0.1 0.1,-0.1 0.1,0 0.99,0.68 1.58,1.94 0.51,1.09 0.63,2.19 0.63,3.03 z"
         inkscape:connector-curvature="0"
         style="fill:#000000;stroke-width:0" /><path
         id="path3753"
         d="m 327.68581,700.50597 0,0.01 0,0 0,0 0,0.01 0,0 0,0 0,0.01 0,0 0,0 -0.01,0.01 0,0 0,0.01 0,0 -0.01,0.01 0,0 -0.01,0.01 0,0.01 -0.01,0 0,0.01 -0.01,0 0,0.01 0,0 -0.01,0 0,0.01 0,0 -0.01,0.01 0,0 -0.01,0.01 0,0 -0.01,0.01 0,0 -0.01,0.01 0,0.01 -0.01,0 -0.01,0.01 0,0.01 -0.01,0 -0.01,0.01 0,0.01 -0.01,0 -0.01,0.01 -0.01,0.01 c -1.24,1.25 -1.56,3.13 -1.56,4.65 0,1.73 0.38,3.46 1.6,4.7 0.13,0.12 0.13,0.14 0.13,0.17 0,0.07 -0.04,0.1 -0.1,0.1 -0.1,0 -0.99,-0.68 -1.58,-1.94 -0.51,-1.09 -0.63,-2.2 -0.63,-3.03 0,-0.78 0.11,-1.98 0.66,-3.1 0.6,-1.22 1.45,-1.87 1.55,-1.87 0.06,0 0.1,0.03 0.1,0.1 z"
         inkscape:connector-curvature="0"
         style="fill:#000000;stroke-width:0" /><path
         id="path3755"
         d="m 329.57581,706.14597 0,0.24 c 0,2.52 1.24,2.87 1.75,2.87 0.24,0 0.66,-0.06 0.87,-0.4 -0.14,0 -0.54,0 -0.54,-0.44 0,-0.31 0.24,-0.46 0.46,-0.46 0.16,0 0.45,0.09 0.45,0.48 0,0.59 -0.43,1.07 -1.26,1.07 -1.28,0 -2.62,-1.28 -2.62,-3.48 0,-2.65 1.15,-3.35 2.08,-3.35 1.11,0 2.05,0.93 2.05,2.24 0,1.26 -0.88,2.22 -1.99,2.22 l -0.01,-0.23 c 0.16,0 0.62,0 0.93,-0.62 0.18,-0.36 0.18,-0.87 0.18,-1.36 0,-0.48 0,-0.97 -0.17,-1.33 -0.3,-0.6 -0.76,-0.65 -0.99,-0.65 l 0,0 c -0.63,0 -0.93,0.6 -0.99,0.75 -0.18,0.47 -0.18,1.26 -0.18,1.44 0,0.78 0.32,1.77 1.22,1.77 l 0.01,0.23 c -0.68,0 -1.05,-0.51 -1.25,-0.99 z"
         inkscape:connector-curvature="0"
         style="fill:#000000;stroke-width:0" /><path
         id="path3757"
         d="m 336.12581,705.37597 0,0.07 0,0.08 0,0.08 -0.01,0.08 0,0.17 -0.02,0.17 -0.01,0.18 -0.02,0.19 -0.03,0.2 -0.03,0.2 -0.04,0.2 -0.05,0.21 -0.05,0.21 -0.06,0.21 -0.07,0.21 -0.08,0.21 -0.05,0.11 -0.04,0.11 -0.05,0.1 -0.05,0.11 c -0.6,1.22 -1.46,1.87 -1.55,1.87 -0.06,0 -0.1,-0.04 -0.1,-0.1 0,-0.03 0,-0.05 0.19,-0.23 0.97,-0.99 1.54,-2.57 1.54,-4.64 0,-1.7 -0.37,-3.45 -1.6,-4.7 -0.13,-0.12 -0.13,-0.14 -0.13,-0.17 0,-0.06 0.04,-0.1 0.1,-0.1 0.09,0 0.99,0.68 1.58,1.94 0.51,1.09 0.63,2.19 0.63,3.03 z"
         inkscape:connector-curvature="0"
         style="fill:#000000;stroke-width:0" /></g>  </g>
</svg>
