<?xml version="1.0" encoding="UTF-8" standalone="no"?>
<!-- Created with Inkscape (http://www.inkscape.org/) -->

<svg
   xmlns:ns0="http://www.iki.fi/pav/software/textext/"
   xmlns:dc="http://purl.org/dc/elements/1.1/"
   xmlns:cc="http://creativecommons.org/ns#"
   xmlns:rdf="http://www.w3.org/1999/02/22-rdf-syntax-ns#"
   xmlns:svg="http://www.w3.org/2000/svg"
   xmlns="http://www.w3.org/2000/svg"
   xmlns:xlink="http://www.w3.org/1999/xlink"
   xmlns:sodipodi="http://sodipodi.sourceforge.net/DTD/sodipodi-0.dtd"
   xmlns:inkscape="http://www.inkscape.org/namespaces/inkscape"
   width="744.09448819"
   height="1052.3622047"
   id="svg2"
   version="1.1"
   inkscape:version="0.48.4 r9939"
   sodipodi:docname="New document 1">
  <sodipodi:namedview
     id="base"
     pagecolor="#ffffff"
     bordercolor="#666666"
     borderopacity="1.0"
     inkscape:pageopacity="0.0"
     inkscape:pageshadow="2"
     inkscape:zoom="1.979899"
     inkscape:cx="241.35871"
     inkscape:cy="731.73617"
     inkscape:document-units="px"
     inkscape:current-layer="layer1"
     showgrid="false"
     inkscape:window-width="1024"
     inkscape:window-height="744"
     inkscape:window-x="0"
     inkscape:window-y="24"
     inkscape:window-maximized="1" />
  <defs
     id="defs4">
    <marker
       inkscape:stockid="Arrow1Mend"
       orient="auto"
       refY="0.0"
       refX="0.0"
       id="Arrow1Mend"
       style="overflow:visible;">
      <path
         id="path3827"
         d="M 0.0,0.0 L 5.0,-5.0 L -12.5,0.0 L 5.0,5.0 L 0.0,0.0 z "
         style="fill-rule:evenodd;stroke:#000000;stroke-width:1.0pt;"
         transform="scale(0.4) rotate(180) translate(10,0)" />
    </marker>
    <marker
       inkscape:stockid="Arrow1Mstart"
       orient="auto"
       refY="0.0"
       refX="0.0"
       id="Arrow1Mstart"
       style="overflow:visible">
      <path
         id="path3824"
         d="M 0.0,0.0 L 5.0,-5.0 L -12.5,0.0 L 5.0,5.0 L 0.0,0.0 z "
         style="fill-rule:evenodd;stroke:#000000;stroke-width:1.0pt"
         transform="scale(0.4) translate(10,0)" />
    </marker>
  </defs>
  <metadata
     id="metadata7">
    <rdf:RDF>
      <cc:Work
         rdf:about="">
        <dc:format>image/svg+xml</dc:format>
        <dc:type
           rdf:resource="http://purl.org/dc/dcmitype/StillImage" />
        <dc:title></dc:title>
      </cc:Work>
    </rdf:RDF>
  </metadata>
  <g
     id="layer1"
     inkscape:groupmode="layer"
     inkscape:label="Layer 1">
    <g
       id="g2990"
       ns0:preamble="/home/sriranga/Desktop/CSY/package.tex"
       ns0:text="$H$"
       transform="matrix(1.2,0,0,1.2,-5.3571429,86.071429)">
      <defs
         id="defs2992">
        <g
           id="g2994">
          <symbol
             id="textext-0f22f88e-0"
             overflow="visible"
             style="overflow:visible">
            <path
               id="path2997"
               d=""
               style="stroke:none"
               inkscape:connector-curvature="0" />
          </symbol>
          <symbol
             id="textext-0f22f88e-1"
             overflow="visible"
             style="overflow:visible">
            <path
               id="path3000"
               d="m 7.640625,-6.515625 -2.453125,0 0,0.171875 c 0.578125,0.0625 0.6875,0.140625 0.6875,0.421875 0,0.140625 -0.03125,0.375 -0.109375,0.625 l -0.453125,1.625 -2.84375,0 0.546875,-1.9375 c 0.140625,-0.515625 0.40625,-0.703125 1,-0.734375 l 0,-0.171875 -2.71875,0 0,0.171875 c 0.609375,0.046875 0.765625,0.140625 0.765625,0.421875 0,0.140625 -0.03125,0.375 -0.109375,0.625 l -1.21875,4.40625 c -0.1875,0.578125 -0.25,0.625 -0.8125,0.734375 l 0,0.15625 2.453125,0 0,-0.15625 C 1.78125,-0.234375 1.671875,-0.3125 1.671875,-0.59375 c 0,-0.078125 0,-0.15625 0.015625,-0.21875 L 2.359375,-3.25 5.1875,-3.25 4.546875,-0.890625 C 4.390625,-0.375 4.1875,-0.234375 3.53125,-0.15625 l 0,0.15625 2.734375,0 0,-0.15625 C 5.625,-0.21875 5.484375,-0.296875 5.484375,-0.578125 c 0,-0.09375 0.015625,-0.15625 0.03125,-0.234375 l 1.3125,-4.796875 C 7,-6.1875 7.078125,-6.25 7.640625,-6.34375 z m 0,0"
               style="stroke:none"
               inkscape:connector-curvature="0" />
          </symbol>
        </g>
      </defs>
      <g
         id="textext-0f22f88e-2">
        <g
           id="g3003"
           style="fill:#000000;fill-opacity:1">
          <use
             id="use3005"
             y="134.765"
             x="223.681"
             xlink:href="#textext-0f22f88e-1"
             width="744.09448"
             height="1052.3622" />
        </g>
      </g>
    </g>
    <g
       transform="matrix(1.2,0,0,1.2,24.642857,86.071429)"
       ns0:text="$H$"
       ns0:preamble="/home/sriranga/Desktop/CSY/package.tex"
       id="g3020">
      <defs
         id="defs3022">
        <g
           id="g3024">
          <symbol
             style="overflow:visible"
             overflow="visible"
             id="symbol3026">
            <path
               inkscape:connector-curvature="0"
               style="stroke:none"
               d=""
               id="path3028" />
          </symbol>
          <symbol
             style="overflow:visible"
             overflow="visible"
             id="symbol3030">
            <path
               inkscape:connector-curvature="0"
               style="stroke:none"
               d="m 7.640625,-6.515625 -2.453125,0 0,0.171875 c 0.578125,0.0625 0.6875,0.140625 0.6875,0.421875 0,0.140625 -0.03125,0.375 -0.109375,0.625 l -0.453125,1.625 -2.84375,0 0.546875,-1.9375 c 0.140625,-0.515625 0.40625,-0.703125 1,-0.734375 l 0,-0.171875 -2.71875,0 0,0.171875 c 0.609375,0.046875 0.765625,0.140625 0.765625,0.421875 0,0.140625 -0.03125,0.375 -0.109375,0.625 l -1.21875,4.40625 c -0.1875,0.578125 -0.25,0.625 -0.8125,0.734375 l 0,0.15625 2.453125,0 0,-0.15625 C 1.78125,-0.234375 1.671875,-0.3125 1.671875,-0.59375 c 0,-0.078125 0,-0.15625 0.015625,-0.21875 L 2.359375,-3.25 5.1875,-3.25 4.546875,-0.890625 C 4.390625,-0.375 4.1875,-0.234375 3.53125,-0.15625 l 0,0.15625 2.734375,0 0,-0.15625 C 5.625,-0.21875 5.484375,-0.296875 5.484375,-0.578125 c 0,-0.09375 0.015625,-0.15625 0.03125,-0.234375 l 1.3125,-4.796875 C 7,-6.1875 7.078125,-6.25 7.640625,-6.34375 z m 0,0"
               id="path3032" />
          </symbol>
        </g>
      </defs>
      <g
         id="g3034">
        <g
           style="fill:#000000;fill-opacity:1"
           id="g3036">
          <use
             height="1052.3622"
             width="744.09448"
             xlink:href="#textext-0f22f88e-1"
             x="223.681"
             y="134.765"
             id="use3038" />
        </g>
      </g>
    </g>
    <path
       style="fill:none;stroke:#000000;stroke-width:1px;stroke-linecap:butt;stroke-linejoin:miter;stroke-opacity:1"
       d="m 259.10413,250.5536 14.89975,0"
       id="path3040"
       inkscape:connector-curvature="0" />
    <path
       inkscape:connector-curvature="0"
       id="path3042"
       d="m 289.10413,250.5536 14.89975,0"
       style="fill:none;stroke:#000000;stroke-width:1px;stroke-linecap:butt;stroke-linejoin:miter;stroke-opacity:1" />
    <path
       style="fill:none;stroke:#000000;stroke-width:1px;stroke-linecap:butt;stroke-linejoin:miter;stroke-opacity:1;marker-start:none;marker-end:url(#Arrow1Mend)"
       d="m 250.04112,267.58578 c 4.04506,0 16.11377,0.0118 16.11377,0.0118 l 0,-11.99317"
       id="path3044"
       inkscape:connector-curvature="0"
       sodipodi:nodetypes="ccc" />
    <path
       sodipodi:nodetypes="ccc"
       inkscape:connector-curvature="0"
       id="path4626"
       d="m 312.66251,267.58578 c -4.04506,0 -16.11377,0.0118 -16.11377,0.0118 l 0,-11.99317"
       style="fill:none;stroke:#000000;stroke-width:1px;stroke-linecap:butt;stroke-linejoin:miter;stroke-opacity:1;marker-start:none;marker-end:url(#Arrow1Mend)" />
    <text
       xml:space="preserve"
       style="font-size:12px;font-style:normal;font-variant:normal;font-weight:normal;font-stretch:normal;line-height:125%;letter-spacing:0px;word-spacing:0px;fill:#000000;fill-opacity:1;stroke:none;font-family:Nimbus Roman No9 L;-inkscape-font-specification:Nimbus Roman No9 L"
       x="212.6371"
       y="269.99902"
       id="text4628"
       sodipodi:linespacing="125%"><tspan
         sodipodi:role="line"
         id="tspan4630"
         x="212.6371"
         y="269.99902"
         dy="0 -4.9999995 0 4.9999995">1<tspan
   style="font-size:9px"
   id="tspan4636">st</tspan> toss</tspan></text>
    <text
       xml:space="preserve"
       style="font-size:12px;font-style:normal;font-variant:normal;font-weight:normal;font-stretch:normal;line-height:125%;letter-spacing:0px;word-spacing:0px;fill:#000000;fill-opacity:1;stroke:none;font-family:Nimbus Roman No9 L;-inkscape-font-specification:Nimbus Roman No9 L"
       x="318.85724"
       y="270.49796"
       id="text4632"
       sodipodi:linespacing="125%"><tspan
         sodipodi:role="line"
         id="tspan4634"
         x="318.85724"
         y="270.49796"
         dy="0 -4.1071434 0 4.1071434">2<tspan
   style="font-size:9px"
   id="tspan4638">nd</tspan> toss</tspan></text>
  </g>
</svg>
