<?xml version="1.0" encoding="UTF-8" standalone="no"?>
<!-- Created with Inkscape (http://www.inkscape.org/) -->

<svg
   xmlns:dc="http://purl.org/dc/elements/1.1/"
   xmlns:cc="http://creativecommons.org/ns#"
   xmlns:rdf="http://www.w3.org/1999/02/22-rdf-syntax-ns#"
   xmlns:svg="http://www.w3.org/2000/svg"
   xmlns="http://www.w3.org/2000/svg"
   xmlns:sodipodi="http://sodipodi.sourceforge.net/DTD/sodipodi-0.dtd"
   xmlns:inkscape="http://www.inkscape.org/namespaces/inkscape"
   width="354.33069"
   height="248.03149"
   id="svg2"
   version="1.1"
   inkscape:version="0.48.4 r9939"
   sodipodi:docname="fig3.eps">
  <defs
     id="defs4" />
  <sodipodi:namedview
     id="base"
     pagecolor="#ffffff"
     bordercolor="#666666"
     borderopacity="1.0"
     inkscape:pageopacity="0.0"
     inkscape:pageshadow="2"
     inkscape:zoom="2.8"
     inkscape:cx="191.80832"
     inkscape:cy="130.34454"
     inkscape:document-units="px"
     inkscape:current-layer="layer1"
     showgrid="false"
     units="cm"
     inkscape:window-width="1366"
     inkscape:window-height="744"
     inkscape:window-x="0"
     inkscape:window-y="24"
     inkscape:window-maximized="1">
    <inkscape:grid
       type="xygrid"
       id="grid2987"
       empspacing="5"
       visible="true"
       enabled="true"
       snapvisiblegridlinesonly="true" />
  </sodipodi:namedview>
  <metadata
     id="metadata7">
    <rdf:RDF>
      <cc:Work
         rdf:about="">
        <dc:format>image/svg+xml</dc:format>
        <dc:type
           rdf:resource="http://purl.org/dc/dcmitype/StillImage" />
        <dc:title></dc:title>
      </cc:Work>
    </rdf:RDF>
  </metadata>
  <g
     inkscape:label="Layer 1"
     inkscape:groupmode="layer"
     id="layer1"
     transform="translate(0,-804.32938)">
    <path
       style="fill:none;stroke:#000000;stroke-width:1.25;stroke-linecap:butt;stroke-linejoin:miter;stroke-opacity:1;stroke-miterlimit:4;stroke-dasharray:none"
       d="m 92.857145,885.9323 148.462515,0 -74.23126,128.9267 z"
       id="path3926"
       inkscape:connector-curvature="0" />
    <path
       inkscape:connector-curvature="0"
       id="path3928"
       d="m 92.857145,968.859 148.462515,0 -74.23126,-128.9267 z"
       style="fill:none;stroke:#000000;stroke-width:1.25;stroke-linecap:butt;stroke-linejoin:miter;stroke-opacity:1;stroke-miterlimit:4;stroke-dasharray:none" />
    <path
       sodipodi:type="arc"
       style="fill:#ffffff;stroke:#000000;stroke-width:1.25000000000000000;stroke-linecap:round;stroke-linejoin:miter;stroke-miterlimit:4;stroke-opacity:1;stroke-dasharray:none;stroke-dashoffset:0"
       id="path3930"
       sodipodi:cx="146.60715"
       sodipodi:cy="36.424351"
       sodipodi:rx="5.1785712"
       sodipodi:ry="5.1785712"
       d="m 151.78572,36.424351 a 5.1785712,5.1785712 0 1 1 -10.35714,0 5.1785712,5.1785712 0 1 1 10.35714,0 z"
       transform="translate(20.357143,804.68652)" />
    <path
       transform="translate(-53.642857,849.04366)"
       d="m 151.78572,36.424351 a 5.1785712,5.1785712 0 1 1 -10.35714,0 5.1785712,5.1785712 0 1 1 10.35714,0 z"
       sodipodi:ry="5.1785712"
       sodipodi:rx="5.1785712"
       sodipodi:cy="36.424351"
       sodipodi:cx="146.60715"
       id="path3932"
       style="fill:#ffffff;stroke:#000000;stroke-width:1.25000000000000000;stroke-linecap:round;stroke-linejoin:miter;stroke-miterlimit:4;stroke-opacity:1;stroke-dasharray:none;stroke-dashoffset:0"
       sodipodi:type="arc" />
    <path
       sodipodi:type="arc"
       style="fill:#ffffff;stroke:#000000;stroke-width:1.25;stroke-linecap:round;stroke-linejoin:miter;stroke-miterlimit:4;stroke-opacity:1;stroke-dasharray:none;stroke-dashoffset:0"
       id="path3934"
       sodipodi:cx="146.60715"
       sodipodi:cy="36.424351"
       sodipodi:rx="5.1785712"
       sodipodi:ry="5.1785712"
       d="m 151.78572,36.424351 a 5.1785712,5.1785712 0 1 1 -10.35714,0 5.1785712,5.1785712 0 1 1 10.35714,0 z"
       transform="translate(-5.8571425,849.04366)" />
    <path
       transform="translate(46.714286,849.04366)"
       d="m 151.78572,36.424351 a 5.1785712,5.1785712 0 1 1 -10.35714,0 5.1785712,5.1785712 0 1 1 10.35714,0 z"
       sodipodi:ry="5.1785712"
       sodipodi:rx="5.1785712"
       sodipodi:cy="36.424351"
       sodipodi:cx="146.60715"
       id="path3936"
       style="fill:#ffffff;stroke:#000000;stroke-width:1.25;stroke-linecap:round;stroke-linejoin:miter;stroke-miterlimit:4;stroke-opacity:1;stroke-dasharray:none;stroke-dashoffset:0"
       sodipodi:type="arc" />
    <path
       sodipodi:type="arc"
       style="fill:#ffffff;stroke:#000000;stroke-width:1.25;stroke-linecap:round;stroke-linejoin:miter;stroke-miterlimit:4;stroke-opacity:1;stroke-dasharray:none;stroke-dashoffset:0"
       id="path3938"
       sodipodi:cx="146.60715"
       sodipodi:cy="36.424351"
       sodipodi:rx="5.1785712"
       sodipodi:ry="5.1785712"
       d="m 151.78572,36.424351 a 5.1785712,5.1785712 0 1 1 -10.35714,0 5.1785712,5.1785712 0 1 1 10.35714,0 z"
       transform="translate(93.428572,849.04366)" />
    <path
       transform="translate(93.428572,931.97224)"
       d="m 151.78572,36.424351 a 5.1785712,5.1785712 0 1 1 -10.35714,0 5.1785712,5.1785712 0 1 1 10.35714,0 z"
       sodipodi:ry="5.1785712"
       sodipodi:rx="5.1785712"
       sodipodi:cy="36.424351"
       sodipodi:cx="146.60715"
       id="path3940"
       style="fill:#ffffff;stroke:#000000;stroke-width:1.25;stroke-linecap:round;stroke-linejoin:miter;stroke-miterlimit:4;stroke-opacity:1;stroke-dasharray:none;stroke-dashoffset:0"
       sodipodi:type="arc" />
    <path
       transform="translate(-5.4285721,931.97224)"
       d="m 151.78572,36.424351 a 5.1785712,5.1785712 0 1 1 -10.35714,0 5.1785712,5.1785712 0 1 1 10.35714,0 z"
       sodipodi:ry="5.1785712"
       sodipodi:rx="5.1785712"
       sodipodi:cy="36.424351"
       sodipodi:cx="146.60715"
       id="path3944"
       style="fill:#ffffff;stroke:#000000;stroke-width:1.25;stroke-linecap:round;stroke-linejoin:miter;stroke-miterlimit:4;stroke-opacity:1;stroke-dasharray:none;stroke-dashoffset:0"
       sodipodi:type="arc" />
    <path
       sodipodi:type="arc"
       style="fill:#ffffff;stroke:#000000;stroke-width:1.25;stroke-linecap:round;stroke-linejoin:miter;stroke-miterlimit:4;stroke-opacity:1;stroke-dasharray:none;stroke-dashoffset:0"
       id="path3946"
       sodipodi:cx="146.60715"
       sodipodi:cy="36.424351"
       sodipodi:rx="5.1785712"
       sodipodi:ry="5.1785712"
       d="m 151.78572,36.424351 a 5.1785712,5.1785712 0 1 1 -10.35714,0 5.1785712,5.1785712 0 1 1 10.35714,0 z"
       transform="translate(-53.785715,931.97224)" />
    <path
       transform="translate(-29.785715,890.32938)"
       d="m 151.78572,36.424351 a 5.1785712,5.1785712 0 1 1 -10.35714,0 5.1785712,5.1785712 0 1 1 10.35714,0 z"
       sodipodi:ry="5.1785712"
       sodipodi:rx="5.1785712"
       sodipodi:cy="36.424351"
       sodipodi:cx="146.60715"
       id="path3948"
       style="fill:#ffffff;stroke:#000000;stroke-width:1.25;stroke-linecap:round;stroke-linejoin:miter;stroke-miterlimit:4;stroke-opacity:1;stroke-dasharray:none;stroke-dashoffset:0"
       sodipodi:type="arc" />
    <path
       sodipodi:type="arc"
       style="fill:#ffffff;stroke:#000000;stroke-width:1.25;stroke-linecap:round;stroke-linejoin:miter;stroke-miterlimit:4;stroke-opacity:1;stroke-dasharray:none;stroke-dashoffset:0"
       id="path3950"
       sodipodi:cx="146.60715"
       sodipodi:cy="36.424351"
       sodipodi:rx="5.1785712"
       sodipodi:ry="5.1785712"
       d="m 151.78572,36.424351 a 5.1785712,5.1785712 0 1 1 -10.35714,0 5.1785712,5.1785712 0 1 1 10.35714,0 z"
       transform="translate(70.571428,890.32938)" />
    <path
       sodipodi:type="arc"
       style="fill:#ffffff;stroke:#000000;stroke-width:1.25;stroke-linecap:round;stroke-linejoin:miter;stroke-miterlimit:4;stroke-opacity:1;stroke-dasharray:none;stroke-dashoffset:0"
       id="path3954"
       sodipodi:cx="146.60715"
       sodipodi:cy="36.424351"
       sodipodi:rx="5.1785712"
       sodipodi:ry="5.1785712"
       d="m 151.78572,36.424351 a 5.1785712,5.1785712 0 1 1 -10.35714,0 5.1785712,5.1785712 0 1 1 10.35714,0 z"
       transform="translate(46.714286,932.32938)" />
  </g>
</svg>
