<?xml version="1.0" encoding="UTF-8" standalone="no"?>
<!-- Created with Inkscape (http://www.inkscape.org/) -->

<svg
   xmlns:ns0="http://www.iki.fi/pav/software/textext/"
   xmlns:dc="http://purl.org/dc/elements/1.1/"
   xmlns:cc="http://creativecommons.org/ns#"
   xmlns:rdf="http://www.w3.org/1999/02/22-rdf-syntax-ns#"
   xmlns:svg="http://www.w3.org/2000/svg"
   xmlns="http://www.w3.org/2000/svg"
   xmlns:xlink="http://www.w3.org/1999/xlink"
   xmlns:sodipodi="http://sodipodi.sourceforge.net/DTD/sodipodi-0.dtd"
   xmlns:inkscape="http://www.inkscape.org/namespaces/inkscape"
   width="283.46457"
   height="212.59842"
   id="svg2"
   version="1.1"
   inkscape:version="0.48.4 r9939"
   sodipodi:docname="New document 1">
  <sodipodi:namedview
     id="base"
     pagecolor="#ffffff"
     bordercolor="#666666"
     borderopacity="1.0"
     inkscape:pageopacity="0.0"
     inkscape:pageshadow="2"
     inkscape:zoom="2.7350915"
     inkscape:cx="170.48756"
     inkscape:cy="108.15904"
     inkscape:document-units="px"
     inkscape:current-layer="layer1"
     showgrid="false"
     units="cm"
     inkscape:window-width="1024"
     inkscape:window-height="744"
     inkscape:window-x="0"
     inkscape:window-y="24"
     inkscape:window-maximized="1" />
  <defs
     id="defs4">
    <marker
       style="overflow:visible;"
       id="Arrow1Mend"
       refX="0.0"
       refY="0.0"
       orient="auto"
       inkscape:stockid="Arrow1Mend">
      <path
         transform="scale(0.4) rotate(180) translate(10,0)"
         style="fill-rule:evenodd;stroke:#000000;stroke-width:1.0pt;"
         d="M 0.0,0.0 L 5.0,-5.0 L -12.5,0.0 L 5.0,5.0 L 0.0,0.0 z "
         id="path3788" />
    </marker>
  </defs>
  <metadata
     id="metadata7">
    <rdf:RDF>
      <cc:Work
         rdf:about="">
        <dc:format>image/svg+xml</dc:format>
        <dc:type
           rdf:resource="http://purl.org/dc/dcmitype/StillImage" />
        <dc:title></dc:title>
      </cc:Work>
    </rdf:RDF>
  </metadata>
  <g
     transform="translate(0,-839.76245)"
     id="layer1"
     inkscape:groupmode="layer"
     inkscape:label="Layer 1">
    <path
       transform="translate(0,839.76245)"
       inkscape:connector-curvature="0"
       id="path2985"
       d="m 62.142857,118.66985 145.714283,0"
       style="fill:none;stroke:#000000;stroke-width:1px;stroke-linecap:butt;stroke-linejoin:miter;stroke-opacity:1" />
    <path
       inkscape:connector-curvature="0"
       id="path2987"
       d="m 118.92857,881.71801 0,123.92859"
       style="fill:none;stroke:#000000;stroke-width:1px;stroke-linecap:butt;stroke-linejoin:miter;stroke-opacity:1" />
    <path
       sodipodi:nodetypes="cc"
       inkscape:connector-curvature="0"
       id="path2989"
       d="m 112.14284,895.4323 13.21429,0"
       style="fill:none;stroke:#000000;stroke-width:1px;stroke-linecap:butt;stroke-linejoin:miter;stroke-opacity:1" />
    <path
       style="fill:none;stroke:#000000;stroke-width:1px;stroke-linecap:butt;stroke-linejoin:miter;stroke-opacity:1"
       d="m 112.14284,927.4323 13.21429,0"
       id="path2993"
       inkscape:connector-curvature="0"
       sodipodi:nodetypes="cc" />
    <path
       sodipodi:nodetypes="cc"
       inkscape:connector-curvature="0"
       id="path2995"
       d="m 151.24999,951.61086 0,13.21429"
       style="fill:none;stroke:#000000;stroke-width:1px;stroke-linecap:butt;stroke-linejoin:miter;stroke-opacity:1" />
    <path
       style="fill:none;stroke:#000000;stroke-width:1px;stroke-linecap:butt;stroke-linejoin:miter;stroke-opacity:1"
       d="m 191.24999,951.61086 0,13.21429"
       id="path2997"
       inkscape:connector-curvature="0"
       sodipodi:nodetypes="cc" />
    <rect
       y="898.43231"
       x="151.07144"
       height="32.142857"
       width="38.92857"
       id="rect2999"
       style="fill:#999999;fill-opacity:0.26484022;stroke:#000000;stroke-width:1;stroke-linecap:round;stroke-linejoin:miter;stroke-miterlimit:4;stroke-opacity:1;stroke-dasharray:none;stroke-dashoffset:0" />
    <path
       sodipodi:nodetypes="cc"
       inkscape:connector-curvature="0"
       id="path3769"
       d="M 86.785715,982.00372 C 101.99427,964.68878 133.18285,968.70901 145.71428,938.43229"
       style="fill:none;stroke:#000000;stroke-width:1px;stroke-linecap:butt;stroke-linejoin:miter;stroke-opacity:1;marker-end:url(#Arrow1Mend)" />
    <path
       transform="translate(0,839.76245)"
       inkscape:connector-curvature="0"
       id="path3771"
       d="M 223.21429,95.098419 C 221.42857,95.812705 179.28571,78.312705 179.28571,78.312705"
       style="fill:none;stroke:#000000;stroke-width:1px;stroke-linecap:butt;stroke-linejoin:miter;stroke-opacity:1;marker-end:url(#Arrow1Mend)" />
    <path
       transform="translate(0,839.76245)"
       inkscape:connector-curvature="0"
       id="path3773"
       d="m 206.78571,49.741276 c -2.85714,0.714286 -14.64285,10 -14.64285,10"
       style="fill:none;stroke:#000000;stroke-width:1px;stroke-linecap:butt;stroke-linejoin:miter;stroke-opacity:1;marker-end:url(#Arrow1Mend)" />
    <g
       id="g4600"
       ns0:preamble="/home/sriranga/Desktop/general-books/CSY/article4/figure/package.tex"
       ns0:text="$a$"
       transform="matrix(1.2,0,0,1.2,-119.92286,811.85584)">
      <defs
         id="defs4602">
        <g
           id="g4604">
          <symbol
             id="textext-847351e2-0"
             overflow="visible"
             style="overflow:visible">
            <path
               id="path4607"
               d=""
               style="stroke:none"
               inkscape:connector-curvature="0" />
          </symbol>
          <symbol
             id="textext-847351e2-1"
             overflow="visible"
             style="overflow:visible">
            <path
               id="path4610"
               d="m 4.625,-1.09375 c -0.15625,0.140625 -0.203125,0.203125 -0.28125,0.28125 -0.296875,0.296875 -0.421875,0.40625 -0.515625,0.40625 -0.078125,0 -0.140625,-0.0625 -0.140625,-0.125 0,-0.203125 0.421875,-1.90625 0.890625,-3.625 0.03125,-0.09375 0.03125,-0.125 0.0625,-0.203125 L 4.5625,-4.390625 3.953125,-4.328125 3.921875,-4.296875 3.8125,-3.8125 c -0.078125,-0.375 -0.359375,-0.578125 -0.796875,-0.578125 -1.3125,0 -2.84375,1.8125 -2.84375,3.390625 0,0.703125 0.375,1.109375 1.015625,1.109375 0.703125,0 1.125,-0.328125 2,-1.5625 -0.203125,0.78125 -0.234375,0.90625 -0.234375,1.140625 0,0.296875 0.125,0.40625 0.40625,0.40625 C 3.765625,0.09375 4,-0.09375 4.75,-1 z M 3.078125,-4.171875 c 0.34375,0.015625 0.5625,0.25 0.5625,0.609375 0,0.828125 -0.5,2 -1.1875,2.75 C 2.21875,-0.546875 1.875,-0.375 1.578125,-0.375 1.234375,-0.375 1,-0.671875 1,-1.125 1,-1.671875 1.390625,-2.6875 1.8125,-3.3125 2.21875,-3.890625 2.6875,-4.203125 3.078125,-4.171875 z m 0,0"
               style="stroke:none"
               inkscape:connector-curvature="0" />
          </symbol>
        </g>
      </defs>
      <g
         id="textext-847351e2-2">
        <g
           id="g4613"
           style="fill:#000000;fill-opacity:1">
          <use
             id="use4615"
             y="134.765"
             x="223.43201"
             xlink:href="#textext-847351e2-1"
             width="283.46457"
             height="212.59842" />
        </g>
      </g>
    </g>
    <g
       ns0:text="$b$"
       ns0:preamble="/home/sriranga/Desktop/general-books/CSY/article4/figure/package.tex"
       transform="matrix(1.2,0,0,1.2,-79.740051,813.49022)"
       id="g4689">
      <defs
         id="defs4691">
        <g
           id="g4693">
          <symbol
             style="overflow:visible"
             overflow="visible"
             id="textext-7311a153-0">
            <path
               inkscape:connector-curvature="0"
               style="stroke:none"
               d=""
               id="path4696" />
          </symbol>
          <symbol
             style="overflow:visible"
             overflow="visible"
             id="textext-7311a153-1">
            <path
               inkscape:connector-curvature="0"
               style="stroke:none"
               d="M 1.09375,-6.40625 C 1.6875,-6.390625 1.75,-6.359375 1.75,-6.140625 c 0,0.09375 -0.03125,0.203125 -0.09375,0.421875 -0.015625,0.078125 -0.046875,0.140625 -0.046875,0.203125 l -0.03125,0.0625 -1.34375,5 0,0.03125 c 0,0.234375 0.765625,0.53125 1.328125,0.53125 1.5,0 3.15625,-1.75 3.15625,-3.3125 0,-0.6875 -0.484375,-1.1875 -1.15625,-1.1875 -0.703125,0 -1.21875,0.40625 -1.921875,1.5 0.515625,-1.890625 0.578125,-2.15625 1.03125,-3.875 L 2.625,-6.8125 c -0.5,0.09375 -0.859375,0.15625 -1.53125,0.234375 z m 2.078125,2.5 c 0.421875,0 0.703125,0.328125 0.703125,0.859375 0,0.65625 -0.515625,1.71875 -1.109375,2.34375 -0.359375,0.375 -0.796875,0.578125 -1.21875,0.578125 -0.3125,0 -0.453125,-0.109375 -0.453125,-0.328125 0,-0.609375 0.296875,-1.578125 0.703125,-2.3125 C 2.25,-3.53125 2.6875,-3.90625 3.171875,-3.90625 z m 0,0"
               id="path4699" />
          </symbol>
        </g>
      </defs>
      <g
         id="textext-7311a153-2">
        <g
           style="fill:#000000;fill-opacity:1"
           id="g4702">
          <use
             height="212.59842"
             width="283.46457"
             xlink:href="#textext-7311a153-1"
             x="223.43201"
             y="134.765"
             id="use4704" />
        </g>
      </g>
    </g>
    <g
       id="g4798"
       transform="matrix(1.2,0,0,1.2,-162.88303,768.26003)"
       ns0:preamble="/home/sriranga/Desktop/general-books/CSY/article4/figure/package.tex"
       ns0:text="$c$">
      <defs
         id="defs4800">
        <g
           id="g4802">
          <symbol
             id="textext-d4a9eab1-0"
             overflow="visible"
             style="overflow:visible">
            <path
               id="path4805"
               d=""
               style="stroke:none"
               inkscape:connector-curvature="0" />
          </symbol>
          <symbol
             id="textext-d4a9eab1-1"
             overflow="visible"
             style="overflow:visible">
            <path
               id="path4808"
               d="M 3.484375,-1.0625 C 2.9375,-0.46875 2.546875,-0.25 2.0625,-0.25 1.5,-0.25 1.15625,-0.671875 1.15625,-1.390625 1.15625,-2.234375 1.5,-3.125 2.0625,-3.703125 2.359375,-4 2.75,-4.1875 3.140625,-4.1875 c 0.234375,0 0.375,0.078125 0.375,0.203125 0,0.046875 -0.015625,0.09375 -0.0625,0.1875 -0.0625,0.125 -0.078125,0.203125 -0.078125,0.28125 0,0.25 0.140625,0.390625 0.390625,0.390625 0.265625,0 0.46875,-0.203125 0.46875,-0.46875 0,-0.453125 -0.453125,-0.796875 -1.046875,-0.796875 -1.5,0 -2.890625,1.453125 -2.890625,3 0,0.953125 0.546875,1.5 1.46875,1.5 0.734375,0 1.28125,-0.3125 1.890625,-1.0625 z m 0,0"
               style="stroke:none"
               inkscape:connector-curvature="0" />
          </symbol>
        </g>
      </defs>
      <g
         id="textext-d4a9eab1-2">
        <g
           id="g4811"
           style="fill:#000000;fill-opacity:1">
          <use
             id="use4813"
             y="134.765"
             x="223.43201"
             xlink:href="#textext-d4a9eab1-1"
             width="283.46457"
             height="212.59842" />
        </g>
      </g>
    </g>
    <g
       ns0:text="$d$"
       ns0:preamble="/home/sriranga/Desktop/general-books/CSY/article4/figure/package.tex"
       transform="matrix(1.2,0,0,1.2,-162.88303,736.26003)"
       id="g4927">
      <defs
         id="defs4929">
        <g
           id="g4931">
          <symbol
             overflow="visible"
             id="textext-14fdbc8d-0">
            <path
               style="stroke:none;"
               d=""
               id="path4934" />
          </symbol>
          <symbol
             overflow="visible"
             id="textext-14fdbc8d-1">
            <path
               style="stroke:none;"
               d="M 4.609375 -1.109375 C 4.078125 -0.484375 3.96875 -0.40625 3.796875 -0.40625 C 3.703125 -0.40625 3.625 -0.484375 3.625 -0.59375 C 3.625 -0.734375 3.9375 -1.953125 4.265625 -3.046875 C 4.53125 -3.96875 4.75 -4.765625 5.25 -6.765625 L 5.203125 -6.8125 C 4.671875 -6.703125 4.3125 -6.640625 3.671875 -6.578125 L 3.671875 -6.40625 C 4.234375 -6.390625 4.296875 -6.359375 4.296875 -6.15625 C 4.296875 -6.015625 4.28125 -5.96875 4.140625 -5.453125 L 3.703125 -3.8125 C 3.625 -4.234375 3.453125 -4.390625 3.0625 -4.390625 C 1.765625 -4.390625 0.15625 -2.515625 0.15625 -1.03125 C 0.15625 -0.3125 0.546875 0.109375 1.203125 0.109375 C 1.875 0.109375 2.3125 -0.203125 2.984375 -1.203125 C 2.875 -0.703125 2.859375 -0.546875 2.859375 -0.3125 C 2.859375 -0.046875 3.03125 0.125 3.28125 0.125 C 3.703125 0.125 4.21875 -0.28125 4.734375 -1 Z M 3.09375 -4.171875 C 3.40625 -4.140625 3.546875 -3.953125 3.546875 -3.59375 C 3.546875 -2.078125 2.515625 -0.375 1.59375 -0.375 C 1.25 -0.375 1.015625 -0.640625 1.015625 -1.03125 C 1.015625 -1.859375 1.515625 -3.015625 2.171875 -3.703125 C 2.453125 -4 2.828125 -4.1875 3.09375 -4.171875 Z M 3.09375 -4.171875 "
               id="path4937" />
          </symbol>
        </g>
      </defs>
      <g
         id="textext-14fdbc8d-2">
        <g
           style="fill:rgb(0%,0%,0%);fill-opacity:1;"
           id="g4940">
          <use
             xlink:href="#textext-14fdbc8d-1"
             x="223.432"
             y="134.765"
             id="use4942" />
        </g>
      </g>
    </g>
    <g
       id="g5076"
       transform="matrix(1.2,0,0,1.2,-42.943404,777.65961)"
       ns0:preamble="/home/sriranga/Desktop/general-books/CSY/article4/figure/package.tex"
       ns0:text="$R$">
      <defs
         id="defs5078">
        <g
           id="g5080">
          <symbol
             id="textext-ff7ee217-0"
             overflow="visible"
             style="overflow:visible">
            <path
               id="path5083"
               d=""
               style="stroke:none"
               inkscape:connector-curvature="0" />
          </symbol>
          <symbol
             id="textext-ff7ee217-1"
             overflow="visible"
             style="overflow:visible">
            <path
               id="path5086"
               d="M 5.65625,-0.15625 C 5.21875,-0.1875 5.015625,-0.359375 4.828125,-0.875 l -0.9375,-2.4375 C 4.671875,-3.484375 5,-3.625 5.359375,-3.953125 c 0.328125,-0.28125 0.5,-0.671875 0.5,-1.125 0,-0.921875 -0.734375,-1.4375 -2.078125,-1.4375 l -2.46875,0 0,0.171875 c 0.421875,0.046875 0.46875,0.0625 0.578125,0.140625 0.078125,0.046875 0.140625,0.15625 0.140625,0.265625 0,0.125 -0.0625,0.359375 -0.125,0.640625 l -1.234375,4.40625 C 0.5,-0.3125 0.421875,-0.25 -0.125,-0.15625 l 0,0.15625 2.421875,0 0,-0.15625 C 1.6875,-0.234375 1.625,-0.296875 1.625,-0.625 c 0,-0.09375 0.03125,-0.21875 0.125,-0.578125 L 2.296875,-3.28125 2.953125,-3.234375 4.171875,0 5.65625,0 z M 3.078125,-5.9375 c 0.046875,-0.203125 0.1875,-0.265625 0.5,-0.265625 0.828125,0 1.234375,0.375 1.234375,1.109375 0,0.984375 -0.640625,1.5 -1.875,1.5 -0.171875,0 -0.28125,-0.015625 -0.515625,-0.0625 z m 0,0"
               style="stroke:none"
               inkscape:connector-curvature="0" />
          </symbol>
        </g>
      </defs>
      <g
         id="textext-ff7ee217-2">
        <g
           id="g5089"
           style="fill:#000000;fill-opacity:1">
          <use
             id="use5091"
             y="134.765"
             x="223.43201"
             xlink:href="#textext-ff7ee217-1"
             width="283.46457"
             height="212.59842" />
        </g>
      </g>
    </g>
    <g
       ns0:text="$(b,d)$"
       ns0:preamble="/home/sriranga/Desktop/general-books/CSY/article4/figure/package.tex"
       transform="matrix(1.2,0,0,1.2,-57.933762,729.31328)"
       id="g5245">
      <defs
         id="defs5247">
        <g
           id="g5249">
          <symbol
             style="overflow:visible"
             overflow="visible"
             id="textext-b75a8dc1-0">
            <path
               inkscape:connector-curvature="0"
               style="stroke:none"
               d=""
               id="path5252" />
          </symbol>
          <symbol
             style="overflow:visible"
             overflow="visible"
             id="textext-b75a8dc1-1">
            <path
               inkscape:connector-curvature="0"
               style="stroke:none"
               d="M 2.9375,-6.734375 C 2.203125,-6.265625 1.90625,-6 1.53125,-5.546875 c -0.703125,0.875 -1.046875,1.875 -1.046875,3.03125 0,1.265625 0.359375,2.25 1.234375,3.265625 0.421875,0.46875 0.671875,0.703125 1.1875,1.015625 l 0.125,-0.15625 C 2.234375,0.984375 1.953125,0.625 1.6875,-0.125 1.453125,-0.78125 1.328125,-1.546875 1.328125,-2.546875 1.328125,-3.59375 1.46875,-4.40625 1.734375,-5.03125 2.015625,-5.640625 2.3125,-6 3.03125,-6.578125 z m 0,0"
               id="path5255" />
          </symbol>
          <symbol
             style="overflow:visible"
             overflow="visible"
             id="textext-b75a8dc1-2">
            <path
               inkscape:connector-curvature="0"
               style="stroke:none"
               d="M 0.375,1.765625 C 1.109375,1.28125 1.421875,1.03125 1.78125,0.5625 2.5,-0.296875 2.84375,-1.296875 2.84375,-2.46875 c 0,-1.265625 -0.375,-2.234375 -1.25,-3.25 C 1.1875,-6.203125 0.921875,-6.421875 0.40625,-6.734375 l -0.109375,0.15625 c 0.796875,0.625 1.0625,0.96875 1.34375,1.71875 0.234375,0.671875 0.34375,1.4375 0.34375,2.421875 0,1.046875 -0.125,1.875 -0.40625,2.484375 C 1.3125,0.671875 1,1.03125 0.296875,1.609375 z m 0,0"
               id="path5258" />
          </symbol>
          <symbol
             style="overflow:visible"
             overflow="visible"
             id="textext-b75a8dc1-3">
            <path
               inkscape:connector-curvature="0"
               style="stroke:none"
               d=""
               id="path5261" />
          </symbol>
          <symbol
             style="overflow:visible"
             overflow="visible"
             id="textext-b75a8dc1-4">
            <path
               inkscape:connector-curvature="0"
               style="stroke:none"
               d="M 1.09375,-6.40625 C 1.6875,-6.390625 1.75,-6.359375 1.75,-6.140625 c 0,0.09375 -0.03125,0.203125 -0.09375,0.421875 -0.015625,0.078125 -0.046875,0.140625 -0.046875,0.203125 l -0.03125,0.0625 -1.34375,5 0,0.03125 c 0,0.234375 0.765625,0.53125 1.328125,0.53125 1.5,0 3.15625,-1.75 3.15625,-3.3125 0,-0.6875 -0.484375,-1.1875 -1.15625,-1.1875 -0.703125,0 -1.21875,0.40625 -1.921875,1.5 0.515625,-1.890625 0.578125,-2.15625 1.03125,-3.875 L 2.625,-6.8125 c -0.5,0.09375 -0.859375,0.15625 -1.53125,0.234375 z m 2.078125,2.5 c 0.421875,0 0.703125,0.328125 0.703125,0.859375 0,0.65625 -0.515625,1.71875 -1.109375,2.34375 -0.359375,0.375 -0.796875,0.578125 -1.21875,0.578125 -0.3125,0 -0.453125,-0.109375 -0.453125,-0.328125 0,-0.609375 0.296875,-1.578125 0.703125,-2.3125 C 2.25,-3.53125 2.6875,-3.90625 3.171875,-3.90625 z m 0,0"
               id="path5264" />
          </symbol>
          <symbol
             style="overflow:visible"
             overflow="visible"
             id="textext-b75a8dc1-5">
            <path
               inkscape:connector-curvature="0"
               style="stroke:none"
               d="m 4.609375,-1.109375 c -0.53125,0.625 -0.640625,0.703125 -0.8125,0.703125 -0.09375,0 -0.171875,-0.078125 -0.171875,-0.1875 0,-0.140625 0.3125,-1.359375 0.640625,-2.453125 C 4.53125,-3.96875 4.75,-4.765625 5.25,-6.765625 L 5.203125,-6.8125 c -0.53125,0.109375 -0.890625,0.171875 -1.53125,0.234375 l 0,0.171875 c 0.5625,0.015625 0.625,0.046875 0.625,0.25 0,0.140625 -0.015625,0.1875 -0.15625,0.703125 L 3.703125,-3.8125 C 3.625,-4.234375 3.453125,-4.390625 3.0625,-4.390625 c -1.296875,0 -2.90625,1.875 -2.90625,3.359375 0,0.71875 0.390625,1.140625 1.046875,1.140625 0.671875,0 1.109375,-0.3125 1.78125,-1.3125 -0.109375,0.5 -0.125,0.65625 -0.125,0.890625 0,0.265625 0.171875,0.4375 0.421875,0.4375 0.421875,0 0.9375,-0.40625 1.453125,-1.125 z m -1.515625,-3.0625 c 0.3125,0.03125 0.453125,0.21875 0.453125,0.578125 0,1.515625 -1.03125,3.21875 -1.953125,3.21875 -0.34375,0 -0.578125,-0.265625 -0.578125,-0.65625 0,-0.828125 0.5,-1.984375 1.15625,-2.671875 C 2.453125,-4 2.828125,-4.1875 3.09375,-4.171875 z m 0,0"
               id="path5267" />
          </symbol>
          <symbol
             style="overflow:visible"
             overflow="visible"
             id="textext-b75a8dc1-6">
            <path
               inkscape:connector-curvature="0"
               style="stroke:none"
               d=""
               id="path5270" />
          </symbol>
          <symbol
             style="overflow:visible"
             overflow="visible"
             id="textext-b75a8dc1-7">
            <path
               inkscape:connector-curvature="0"
               style="stroke:none"
               d="m 1.9375,-0.0625 c 0,-0.828125 -0.578125,-0.953125 -0.796875,-0.953125 -0.25,0 -0.578125,0.140625 -0.578125,0.578125 0,0.390625 0.359375,0.5 0.609375,0.5 0.078125,0 0.125,-0.015625 0.15625,-0.015625 0.03125,-0.015625 0.0625,-0.03125 0.09375,-0.03125 0.0625,0 0.140625,0.046875 0.140625,0.140625 0,0.1875 -0.171875,0.640625 -0.828125,1.0625 l 0.09375,0.1875 C 1.125,1.3125 1.9375,0.640625 1.9375,-0.0625 z m 0,0"
               id="path5273" />
          </symbol>
        </g>
      </defs>
      <g
         id="textext-b75a8dc1-8">
        <g
           style="fill:#000000;fill-opacity:1"
           id="g5276">
          <use
             height="212.59842"
             width="283.46457"
             xlink:href="#textext-b75a8dc1-1"
             x="223.43201"
             y="134.765"
             id="use5278" />
        </g>
        <g
           style="fill:#000000;fill-opacity:1"
           id="g5280">
          <use
             height="212.59842"
             width="283.46457"
             xlink:href="#textext-b75a8dc1-4"
             x="226.75"
             y="134.765"
             id="use5282" />
        </g>
        <g
           style="fill:#000000;fill-opacity:1"
           id="g5284">
          <use
             height="212.59842"
             width="283.46457"
             xlink:href="#textext-b75a8dc1-7"
             x="231.731"
             y="134.765"
             id="use5286" />
        </g>
        <g
           style="fill:#000000;fill-opacity:1"
           id="g5288">
          <use
             height="212.59842"
             width="283.46457"
             xlink:href="#textext-b75a8dc1-5"
             x="235.882"
             y="134.765"
             id="use5290" />
        </g>
        <g
           style="fill:#000000;fill-opacity:1"
           id="g5292">
          <use
             height="212.59842"
             width="283.46457"
             xlink:href="#textext-b75a8dc1-2"
             x="241.132"
             y="134.765"
             id="use5294" />
        </g>
      </g>
    </g>
    <g
       id="g5548"
       transform="matrix(1.2,0,0,1.2,-193.2126,830.8244)"
       ns0:preamble="/home/sriranga/Desktop/general-books/CSY/article4/figure/package.tex"
       ns0:text="$(a,c)$">
      <defs
         id="defs5550">
        <g
           id="g5552">
          <symbol
             id="textext-6feec938-0"
             overflow="visible"
             style="overflow:visible">
            <path
               id="path5555"
               d=""
               style="stroke:none"
               inkscape:connector-curvature="0" />
          </symbol>
          <symbol
             id="textext-6feec938-1"
             overflow="visible"
             style="overflow:visible">
            <path
               id="path5558"
               d="M 2.9375,-6.734375 C 2.203125,-6.265625 1.90625,-6 1.53125,-5.546875 c -0.703125,0.875 -1.046875,1.875 -1.046875,3.03125 0,1.265625 0.359375,2.25 1.234375,3.265625 0.421875,0.46875 0.671875,0.703125 1.1875,1.015625 l 0.125,-0.15625 C 2.234375,0.984375 1.953125,0.625 1.6875,-0.125 1.453125,-0.78125 1.328125,-1.546875 1.328125,-2.546875 1.328125,-3.59375 1.46875,-4.40625 1.734375,-5.03125 2.015625,-5.640625 2.3125,-6 3.03125,-6.578125 z m 0,0"
               style="stroke:none"
               inkscape:connector-curvature="0" />
          </symbol>
          <symbol
             id="textext-6feec938-2"
             overflow="visible"
             style="overflow:visible">
            <path
               id="path5561"
               d="M 0.375,1.765625 C 1.109375,1.28125 1.421875,1.03125 1.78125,0.5625 2.5,-0.296875 2.84375,-1.296875 2.84375,-2.46875 c 0,-1.265625 -0.375,-2.234375 -1.25,-3.25 C 1.1875,-6.203125 0.921875,-6.421875 0.40625,-6.734375 l -0.109375,0.15625 c 0.796875,0.625 1.0625,0.96875 1.34375,1.71875 0.234375,0.671875 0.34375,1.4375 0.34375,2.421875 0,1.046875 -0.125,1.875 -0.40625,2.484375 C 1.3125,0.671875 1,1.03125 0.296875,1.609375 z m 0,0"
               style="stroke:none"
               inkscape:connector-curvature="0" />
          </symbol>
          <symbol
             id="textext-6feec938-3"
             overflow="visible"
             style="overflow:visible">
            <path
               id="path5564"
               d=""
               style="stroke:none"
               inkscape:connector-curvature="0" />
          </symbol>
          <symbol
             id="textext-6feec938-4"
             overflow="visible"
             style="overflow:visible">
            <path
               id="path5567"
               d="m 4.625,-1.09375 c -0.15625,0.140625 -0.203125,0.203125 -0.28125,0.28125 -0.296875,0.296875 -0.421875,0.40625 -0.515625,0.40625 -0.078125,0 -0.140625,-0.0625 -0.140625,-0.125 0,-0.203125 0.421875,-1.90625 0.890625,-3.625 0.03125,-0.09375 0.03125,-0.125 0.0625,-0.203125 L 4.5625,-4.390625 3.953125,-4.328125 3.921875,-4.296875 3.8125,-3.8125 c -0.078125,-0.375 -0.359375,-0.578125 -0.796875,-0.578125 -1.3125,0 -2.84375,1.8125 -2.84375,3.390625 0,0.703125 0.375,1.109375 1.015625,1.109375 0.703125,0 1.125,-0.328125 2,-1.5625 -0.203125,0.78125 -0.234375,0.90625 -0.234375,1.140625 0,0.296875 0.125,0.40625 0.40625,0.40625 C 3.765625,0.09375 4,-0.09375 4.75,-1 z M 3.078125,-4.171875 c 0.34375,0.015625 0.5625,0.25 0.5625,0.609375 0,0.828125 -0.5,2 -1.1875,2.75 C 2.21875,-0.546875 1.875,-0.375 1.578125,-0.375 1.234375,-0.375 1,-0.671875 1,-1.125 1,-1.671875 1.390625,-2.6875 1.8125,-3.3125 2.21875,-3.890625 2.6875,-4.203125 3.078125,-4.171875 z m 0,0"
               style="stroke:none"
               inkscape:connector-curvature="0" />
          </symbol>
          <symbol
             id="textext-6feec938-5"
             overflow="visible"
             style="overflow:visible">
            <path
               id="path5570"
               d="M 3.484375,-1.0625 C 2.9375,-0.46875 2.546875,-0.25 2.0625,-0.25 1.5,-0.25 1.15625,-0.671875 1.15625,-1.390625 1.15625,-2.234375 1.5,-3.125 2.0625,-3.703125 2.359375,-4 2.75,-4.1875 3.140625,-4.1875 c 0.234375,0 0.375,0.078125 0.375,0.203125 0,0.046875 -0.015625,0.09375 -0.0625,0.1875 -0.0625,0.125 -0.078125,0.203125 -0.078125,0.28125 0,0.25 0.140625,0.390625 0.390625,0.390625 0.265625,0 0.46875,-0.203125 0.46875,-0.46875 0,-0.453125 -0.453125,-0.796875 -1.046875,-0.796875 -1.5,0 -2.890625,1.453125 -2.890625,3 0,0.953125 0.546875,1.5 1.46875,1.5 0.734375,0 1.28125,-0.3125 1.890625,-1.0625 z m 0,0"
               style="stroke:none"
               inkscape:connector-curvature="0" />
          </symbol>
          <symbol
             id="textext-6feec938-6"
             overflow="visible"
             style="overflow:visible">
            <path
               id="path5573"
               d=""
               style="stroke:none"
               inkscape:connector-curvature="0" />
          </symbol>
          <symbol
             id="textext-6feec938-7"
             overflow="visible"
             style="overflow:visible">
            <path
               id="path5576"
               d="m 1.9375,-0.0625 c 0,-0.828125 -0.578125,-0.953125 -0.796875,-0.953125 -0.25,0 -0.578125,0.140625 -0.578125,0.578125 0,0.390625 0.359375,0.5 0.609375,0.5 0.078125,0 0.125,-0.015625 0.15625,-0.015625 0.03125,-0.015625 0.0625,-0.03125 0.09375,-0.03125 0.0625,0 0.140625,0.046875 0.140625,0.140625 0,0.1875 -0.171875,0.640625 -0.828125,1.0625 l 0.09375,0.1875 C 1.125,1.3125 1.9375,0.640625 1.9375,-0.0625 z m 0,0"
               style="stroke:none"
               inkscape:connector-curvature="0" />
          </symbol>
        </g>
      </defs>
      <g
         id="textext-6feec938-8">
        <g
           id="g5579"
           style="fill:#000000;fill-opacity:1">
          <use
             id="use5581"
             y="134.765"
             x="223.43201"
             xlink:href="#textext-6feec938-1"
             width="283.46457"
             height="212.59842" />
        </g>
        <g
           id="g5583"
           style="fill:#000000;fill-opacity:1">
          <use
             id="use5585"
             y="134.765"
             x="226.75"
             xlink:href="#textext-6feec938-4"
             width="283.46457"
             height="212.59842" />
        </g>
        <g
           id="g5587"
           style="fill:#000000;fill-opacity:1">
          <use
             id="use5589"
             y="134.765"
             x="231.731"
             xlink:href="#textext-6feec938-7"
             width="283.46457"
             height="212.59842" />
        </g>
        <g
           id="g5591"
           style="fill:#000000;fill-opacity:1">
          <use
             id="use5593"
             y="134.765"
             x="235.882"
             xlink:href="#textext-6feec938-5"
             width="283.46457"
             height="212.59842" />
        </g>
        <g
           id="g5595"
           style="fill:#000000;fill-opacity:1">
          <use
             id="use5597"
             y="134.765"
             x="240.30499"
             xlink:href="#textext-6feec938-2"
             width="283.46457"
             height="212.59842" />
        </g>
      </g>
    </g>
  </g>
</svg>
