<?xml version="1.0" encoding="UTF-8" standalone="no"?>
<!-- Created with Inkscape (http://www.inkscape.org/) -->

<svg
   xmlns:ns0="http://www.iki.fi/pav/software/textext/"
   xmlns:dc="http://purl.org/dc/elements/1.1/"
   xmlns:cc="http://creativecommons.org/ns#"
   xmlns:rdf="http://www.w3.org/1999/02/22-rdf-syntax-ns#"
   xmlns:svg="http://www.w3.org/2000/svg"
   xmlns="http://www.w3.org/2000/svg"
   xmlns:xlink="http://www.w3.org/1999/xlink"
   xmlns:sodipodi="http://sodipodi.sourceforge.net/DTD/sodipodi-0.dtd"
   xmlns:inkscape="http://www.inkscape.org/namespaces/inkscape"
   width="283.46457"
   height="212.59842"
   id="svg2"
   version="1.1"
   inkscape:version="0.48.4 r9939"
   sodipodi:docname="fig4.svg">
  <sodipodi:namedview
     id="base"
     pagecolor="#ffffff"
     bordercolor="#666666"
     borderopacity="1.0"
     inkscape:pageopacity="0.0"
     inkscape:pageshadow="2"
     inkscape:zoom="2.7350915"
     inkscape:cx="157.90933"
     inkscape:cy="82.62863"
     inkscape:document-units="px"
     inkscape:current-layer="layer1"
     showgrid="false"
     units="cm"
     inkscape:window-width="1024"
     inkscape:window-height="744"
     inkscape:window-x="0"
     inkscape:window-y="24"
     inkscape:window-maximized="1" />
  <defs
     id="defs4">
    <marker
       inkscape:stockid="Arrow1Mend"
       orient="auto"
       refY="0.0"
       refX="0.0"
       id="Arrow1Mend"
       style="overflow:visible;">
      <path
         id="path3788"
         d="M 0.0,0.0 L 5.0,-5.0 L -12.5,0.0 L 5.0,5.0 L 0.0,0.0 z "
         style="fill-rule:evenodd;stroke:#000000;stroke-width:1.0pt;"
         transform="scale(0.4) rotate(180) translate(10,0)" />
    </marker>
  </defs>
  <metadata
     id="metadata7">
    <rdf:RDF>
      <cc:Work
         rdf:about="">
        <dc:format>image/svg+xml</dc:format>
        <dc:type
           rdf:resource="http://purl.org/dc/dcmitype/StillImage" />
        <dc:title></dc:title>
      </cc:Work>
    </rdf:RDF>
  </metadata>
  <g
     inkscape:label="Layer 1"
     inkscape:groupmode="layer"
     id="layer1"
     transform="translate(0,-839.76245)">
    <path
       style="fill:none;stroke:#000000;stroke-width:1px;stroke-linecap:butt;stroke-linejoin:miter;stroke-opacity:1"
       d="m 78.142857,958.4323 145.714283,0"
       id="path2985"
       inkscape:connector-curvature="0" />
    <path
       style="fill:none;stroke:#000000;stroke-width:1px;stroke-linecap:butt;stroke-linejoin:miter;stroke-opacity:1"
       d="m 118.92857,908.04254 0,77.12943"
       id="path2987"
       inkscape:connector-curvature="0"
       sodipodi:nodetypes="cc" />
    <path
       sodipodi:nodetypes="cc"
       inkscape:connector-curvature="0"
       id="path2993"
       d="m 114.97941,925.79792 7.78513,0"
       style="fill:none;stroke:#000000;stroke-width:1px;stroke-linecap:butt;stroke-linejoin:miter;stroke-opacity:1" />
    <rect
       style="fill:#999999;fill-opacity:0.26484022;stroke:#000000;stroke-width:1;stroke-linecap:round;stroke-linejoin:miter;stroke-miterlimit:4;stroke-opacity:1;stroke-dasharray:none;stroke-dashoffset:0"
       id="rect2999"
       width="38.92857"
       height="32.142857"
       x="151.43706"
       y="926.21936" />
    <path
       sodipodi:nodetypes="cc"
       style="fill:none;stroke:#000000;stroke-width:1px;stroke-linecap:butt;stroke-linejoin:miter;stroke-opacity:1;marker-end:url(#Arrow1Mend)"
       d="m 224.37768,941.19493 c -17.70613,-0.64633 -47.4555,-0.96464 -47.4555,-0.96464"
       id="path3771"
       inkscape:connector-curvature="0" />
    <g
       ns0:text="$R$"
       ns0:preamble="/home/sriranga/Desktop/general-books/CSY/article4/figure/package.tex"
       transform="matrix(1.2,0,0,1.2,-41.835785,782.56409)"
       id="g5076">
      <defs
         id="defs5078">
        <g
           id="g5080">
          <symbol
             style="overflow:visible"
             overflow="visible"
             id="textext-ff7ee217-0">
            <path
               inkscape:connector-curvature="0"
               style="stroke:none"
               d=""
               id="path5083" />
          </symbol>
          <symbol
             style="overflow:visible"
             overflow="visible"
             id="textext-ff7ee217-1">
            <path
               inkscape:connector-curvature="0"
               style="stroke:none"
               d="M 5.65625,-0.15625 C 5.21875,-0.1875 5.015625,-0.359375 4.828125,-0.875 l -0.9375,-2.4375 C 4.671875,-3.484375 5,-3.625 5.359375,-3.953125 c 0.328125,-0.28125 0.5,-0.671875 0.5,-1.125 0,-0.921875 -0.734375,-1.4375 -2.078125,-1.4375 l -2.46875,0 0,0.171875 c 0.421875,0.046875 0.46875,0.0625 0.578125,0.140625 0.078125,0.046875 0.140625,0.15625 0.140625,0.265625 0,0.125 -0.0625,0.359375 -0.125,0.640625 l -1.234375,4.40625 C 0.5,-0.3125 0.421875,-0.25 -0.125,-0.15625 l 0,0.15625 2.421875,0 0,-0.15625 C 1.6875,-0.234375 1.625,-0.296875 1.625,-0.625 c 0,-0.09375 0.03125,-0.21875 0.125,-0.578125 L 2.296875,-3.28125 2.953125,-3.234375 4.171875,0 5.65625,0 z M 3.078125,-5.9375 c 0.046875,-0.203125 0.1875,-0.265625 0.5,-0.265625 0.828125,0 1.234375,0.375 1.234375,1.109375 0,0.984375 -0.640625,1.5 -1.875,1.5 -0.171875,0 -0.28125,-0.015625 -0.515625,-0.0625 z m 0,0"
               id="path5086" />
          </symbol>
        </g>
      </defs>
      <g
         id="textext-ff7ee217-2">
        <g
           style="fill:#000000;fill-opacity:1"
           id="g5089">
          <use
             height="212.59842"
             width="283.46457"
             xlink:href="#textext-ff7ee217-1"
             x="223.43201"
             y="134.765"
             id="use5091" />
        </g>
      </g>
    </g>
    <path
       transform="translate(-13.345075,862.06518)"
       d="m 134.18198,96.240341 c 0,1.060109 -0.85939,1.919497 -1.9195,1.919497 -1.06011,0 -1.9195,-0.859388 -1.9195,-1.919497 0,-1.060109 0.85939,-1.919497 1.9195,-1.919497 1.06011,0 1.9195,0.859388 1.9195,1.919497 z"
       sodipodi:ry="1.919497"
       sodipodi:rx="1.919497"
       sodipodi:cy="96.240341"
       sodipodi:cx="132.26248"
       id="path3104"
       style="fill:#000000;fill-opacity:1;stroke:#000000;stroke-width:1;stroke-linecap:round;stroke-linejoin:miter;stroke-miterlimit:4;stroke-opacity:1;stroke-dasharray:none;stroke-dashoffset:0"
       sodipodi:type="arc" />
    <path
       sodipodi:type="arc"
       style="fill:#000000;fill-opacity:1;stroke:#000000;stroke-width:1;stroke-linecap:round;stroke-linejoin:miter;stroke-miterlimit:4;stroke-opacity:1;stroke-dasharray:none;stroke-dashoffset:0"
       id="path3880"
       sodipodi:cx="132.26248"
       sodipodi:cy="96.240341"
       sodipodi:rx="1.919497"
       sodipodi:ry="1.919497"
       d="m 134.18198,96.240341 c 0,1.060109 -0.85939,1.919497 -1.9195,1.919497 -1.06011,0 -1.9195,-0.859388 -1.9195,-1.919497 0,-1.060109 0.85939,-1.919497 1.9195,-1.919497 1.06011,0 1.9195,0.859388 1.9195,1.919497 z"
       transform="translate(19.020543,862.06518)" />
    <path
       transform="translate(58.117397,862.06518)"
       d="m 134.18198,96.240341 c 0,1.060109 -0.85939,1.919497 -1.9195,1.919497 -1.06011,0 -1.9195,-0.859388 -1.9195,-1.919497 0,-1.060109 0.85939,-1.919497 1.9195,-1.919497 1.06011,0 1.9195,0.859388 1.9195,1.919497 z"
       sodipodi:ry="1.919497"
       sodipodi:rx="1.919497"
       sodipodi:cy="96.240341"
       sodipodi:cx="132.26248"
       id="path3882"
       style="fill:#000000;fill-opacity:1;stroke:#000000;stroke-width:1;stroke-linecap:round;stroke-linejoin:miter;stroke-miterlimit:4;stroke-opacity:1;stroke-dasharray:none;stroke-dashoffset:0"
       sodipodi:type="arc" />
    <g
       id="g3979"
       transform="matrix(1.2,0,0,1.2,-68.902316,766.24075)"
       ns0:preamble="/home/sriranga/Desktop/general-books/CSY/article4/figure/package.tex"
       ns0:text="$(2,1)$">
      <defs
         id="defs3981">
        <g
           id="g3983">
          <symbol
             id="textext-e7e4d56e-0"
             overflow="visible"
             style="overflow:visible">
            <path
               id="path3986"
               d=""
               style="stroke:none"
               inkscape:connector-curvature="0" />
          </symbol>
          <symbol
             id="textext-e7e4d56e-1"
             overflow="visible"
             style="overflow:visible">
            <path
               id="path3989"
               d="M 2.9375,-6.734375 C 2.203125,-6.265625 1.90625,-6 1.53125,-5.546875 c -0.703125,0.875 -1.046875,1.875 -1.046875,3.03125 0,1.265625 0.359375,2.25 1.234375,3.265625 0.421875,0.46875 0.671875,0.703125 1.1875,1.015625 l 0.125,-0.15625 C 2.234375,0.984375 1.953125,0.625 1.6875,-0.125 1.453125,-0.78125 1.328125,-1.546875 1.328125,-2.546875 1.328125,-3.59375 1.46875,-4.40625 1.734375,-5.03125 2.015625,-5.640625 2.3125,-6 3.03125,-6.578125 z m 0,0"
               style="stroke:none"
               inkscape:connector-curvature="0" />
          </symbol>
          <symbol
             id="textext-e7e4d56e-2"
             overflow="visible"
             style="overflow:visible">
            <path
               id="path3992"
               d="m 4.734375,-1.359375 -0.125,-0.0625 C 4.234375,-0.84375 4.109375,-0.75 3.65625,-0.75 l -2.375,0 1.671875,-1.765625 c 0.890625,-0.921875 1.28125,-1.6875 1.28125,-2.453125 0,-1 -0.8125,-1.765625 -1.859375,-1.765625 -0.546875,0 -1.0625,0.21875 -1.421875,0.609375 C 0.625,-5.78125 0.484375,-5.46875 0.3125,-4.75 l 0.203125,0.046875 C 0.921875,-5.6875 1.28125,-6 1.96875,-6 2.796875,-6 3.375,-5.4375 3.375,-4.59375 3.375,-3.8125 2.90625,-2.890625 2.078125,-2 l -1.78125,1.875 0,0.125 3.890625,0 z m 0,0"
               style="stroke:none"
               inkscape:connector-curvature="0" />
          </symbol>
          <symbol
             id="textext-e7e4d56e-3"
             overflow="visible"
             style="overflow:visible">
            <path
               id="path3995"
               d="m 2.90625,-6.734375 -1.796875,0.90625 0,0.140625 C 1.21875,-5.734375 1.328125,-5.78125 1.375,-5.796875 1.5625,-5.875 1.71875,-5.90625 1.828125,-5.90625 2.03125,-5.90625 2.125,-5.765625 2.125,-5.4375 l 0,4.515625 c 0,0.328125 -0.078125,0.546875 -0.234375,0.640625 -0.15625,0.09375 -0.296875,0.125 -0.71875,0.125 l 0,0.15625 2.75,0 0,-0.15625 c -0.78125,0 -0.9375,-0.109375 -0.9375,-0.578125 l 0,-5.984375 z m 0,0"
               style="stroke:none"
               inkscape:connector-curvature="0" />
          </symbol>
          <symbol
             id="textext-e7e4d56e-4"
             overflow="visible"
             style="overflow:visible">
            <path
               id="path3998"
               d="M 0.375,1.765625 C 1.109375,1.28125 1.421875,1.03125 1.78125,0.5625 2.5,-0.296875 2.84375,-1.296875 2.84375,-2.46875 c 0,-1.265625 -0.375,-2.234375 -1.25,-3.25 C 1.1875,-6.203125 0.921875,-6.421875 0.40625,-6.734375 l -0.109375,0.15625 c 0.796875,0.625 1.0625,0.96875 1.34375,1.71875 0.234375,0.671875 0.34375,1.4375 0.34375,2.421875 0,1.046875 -0.125,1.875 -0.40625,2.484375 C 1.3125,0.671875 1,1.03125 0.296875,1.609375 z m 0,0"
               style="stroke:none"
               inkscape:connector-curvature="0" />
          </symbol>
          <symbol
             id="textext-e7e4d56e-5"
             overflow="visible"
             style="overflow:visible">
            <path
               id="path4001"
               d=""
               style="stroke:none"
               inkscape:connector-curvature="0" />
          </symbol>
          <symbol
             id="textext-e7e4d56e-6"
             overflow="visible"
             style="overflow:visible">
            <path
               id="path4004"
               d="m 1.9375,-0.0625 c 0,-0.828125 -0.578125,-0.953125 -0.796875,-0.953125 -0.25,0 -0.578125,0.140625 -0.578125,0.578125 0,0.390625 0.359375,0.5 0.609375,0.5 0.078125,0 0.125,-0.015625 0.15625,-0.015625 0.03125,-0.015625 0.0625,-0.03125 0.09375,-0.03125 0.0625,0 0.140625,0.046875 0.140625,0.140625 0,0.1875 -0.171875,0.640625 -0.828125,1.0625 l 0.09375,0.1875 C 1.125,1.3125 1.9375,0.640625 1.9375,-0.0625 z m 0,0"
               style="stroke:none"
               inkscape:connector-curvature="0" />
          </symbol>
        </g>
      </defs>
      <g
         id="textext-e7e4d56e-7">
        <g
           id="g4007"
           style="fill:#000000;fill-opacity:1">
          <use
             id="use4009"
             y="134.765"
             x="223.43201"
             xlink:href="#textext-e7e4d56e-1"
             width="283.46457"
             height="212.59842" />
          <use
             id="use4011"
             y="134.765"
             x="226.74954"
             xlink:href="#textext-e7e4d56e-2"
             width="283.46457"
             height="212.59842" />
        </g>
        <g
           id="g4013"
           style="fill:#000000;fill-opacity:1">
          <use
             id="use4015"
             y="134.765"
             x="231.731"
             xlink:href="#textext-e7e4d56e-6"
             width="283.46457"
             height="212.59842" />
        </g>
        <g
           id="g4017"
           style="fill:#000000;fill-opacity:1">
          <use
             id="use4019"
             y="134.765"
             x="235.882"
             xlink:href="#textext-e7e4d56e-3"
             width="283.46457"
             height="212.59842" />
          <use
             id="use4021"
             y="134.765"
             x="240.8633"
             xlink:href="#textext-e7e4d56e-4"
             width="283.46457"
             height="212.59842" />
        </g>
      </g>
    </g>
    <text
       xml:space="preserve"
       style="font-size:12px;font-style:normal;font-variant:normal;font-weight:normal;font-stretch:normal;line-height:125%;letter-spacing:0px;word-spacing:0px;fill:#000000;fill-opacity:1;stroke:none;font-family:Nimbus Roman No9 L;-inkscape-font-specification:Nimbus Roman No9 L"
       x="108.58869"
       y="970.46234"
       id="text4166"
       sodipodi:linespacing="125%"><tspan
         sodipodi:role="line"
         id="tspan4168"
         x="108.58869"
         y="970.46234">0</tspan></text>
    <text
       xml:space="preserve"
       style="font-size:12px;font-style:normal;font-variant:normal;font-weight:normal;font-stretch:normal;line-height:125%;letter-spacing:0px;word-spacing:0px;fill:#000000;fill-opacity:1;stroke:none;font-family:Nimbus Roman No9 L;-inkscape-font-specification:Nimbus Roman No9 L"
       x="106.7606"
       y="930.24432"
       id="text4170"
       sodipodi:linespacing="125%"><tspan
         sodipodi:role="line"
         id="tspan4172"
         x="106.7606"
         y="930.24432">1</tspan></text>
    <text
       xml:space="preserve"
       style="font-size:12px;font-style:normal;font-variant:normal;font-weight:normal;font-stretch:normal;line-height:125%;letter-spacing:0px;word-spacing:0px;fill:#000000;fill-opacity:1;stroke:none;font-family:Nimbus Roman No9 L;-inkscape-font-specification:Nimbus Roman No9 L"
       x="148.07549"
       y="971.9248"
       id="text4174"
       sodipodi:linespacing="125%"><tspan
         sodipodi:role="line"
         id="tspan4176"
         x="148.07549"
         y="971.9248">1</tspan></text>
    <text
       xml:space="preserve"
       style="font-size:12px;font-style:normal;font-variant:normal;font-weight:normal;font-stretch:normal;line-height:125%;letter-spacing:0px;word-spacing:0px;fill:#000000;fill-opacity:1;stroke:none;font-family:Nimbus Roman No9 L;-inkscape-font-specification:Nimbus Roman No9 L"
       x="187.9279"
       y="972.29041"
       id="text4178"
       sodipodi:linespacing="125%"><tspan
         sodipodi:role="line"
         id="tspan4180"
         x="187.9279"
         y="972.29041">2</tspan></text>
  </g>
</svg>
