<?xml version="1.0" encoding="UTF-8" standalone="no"?>
<!-- Created with Inkscape (http://www.inkscape.org/) -->

<svg
   xmlns:dc="http://purl.org/dc/elements/1.1/"
   xmlns:cc="http://creativecommons.org/ns#"
   xmlns:rdf="http://www.w3.org/1999/02/22-rdf-syntax-ns#"
   xmlns:svg="http://www.w3.org/2000/svg"
   xmlns="http://www.w3.org/2000/svg"
   xmlns:sodipodi="http://sodipodi.sourceforge.net/DTD/sodipodi-0.dtd"
   xmlns:inkscape="http://www.inkscape.org/namespaces/inkscape"
   width="11cm"
   height="10cm"
   viewBox="0 0 110 99.999997"
   version="1.1"
   id="svg7653"
   sodipodi:docname="fig3-37b.svg"
   inkscape:version="0.92.4 (unknown)">
  <defs
     id="defs7647">
    <marker
       inkscape:isstock="true"
       style="overflow:visible"
       id="marker10787"
       refX="0"
       refY="0"
       orient="auto"
       inkscape:stockid="Arrow1Mend">
      <path
         inkscape:connector-curvature="0"
         transform="matrix(-0.4,0,0,-0.4,-4,0)"
         style="fill:#000000;fill-opacity:1;fill-rule:evenodd;stroke:#000000;stroke-width:1.00000003pt;stroke-opacity:1"
         d="M 0,0 5,-5 -12.5,0 5,5 Z"
         id="path10785" />
    </marker>
    <marker
       inkscape:stockid="Arrow1Mstart"
       orient="auto"
       refY="0"
       refX="0"
       id="marker10699"
       style="overflow:visible"
       inkscape:isstock="true">
      <path
         id="path10697"
         d="M 0,0 5,-5 -12.5,0 5,5 Z"
         style="fill:#000000;fill-opacity:1;fill-rule:evenodd;stroke:#000000;stroke-width:1.00000003pt;stroke-opacity:1"
         transform="matrix(0.4,0,0,0.4,4,0)"
         inkscape:connector-curvature="0" />
    </marker>
    <marker
       inkscape:stockid="Arrow1Mend"
       orient="auto"
       refY="0"
       refX="0"
       id="marker6573"
       style="overflow:visible"
       inkscape:isstock="true">
      <path
         id="path6571"
         d="M 0,0 5,-5 -12.5,0 5,5 Z"
         style="fill:#000000;fill-opacity:1;fill-rule:evenodd;stroke:#000000;stroke-width:1.00000003pt;stroke-opacity:1"
         transform="matrix(-0.4,0,0,-0.4,-4,0)"
         inkscape:connector-curvature="0" />
    </marker>
    <marker
       inkscape:isstock="true"
       style="overflow:visible"
       id="marker6485"
       refX="0"
       refY="0"
       orient="auto"
       inkscape:stockid="Arrow1Mstart">
      <path
         inkscape:connector-curvature="0"
         transform="matrix(0.4,0,0,0.4,4,0)"
         style="fill:#000000;fill-opacity:1;fill-rule:evenodd;stroke:#000000;stroke-width:1.00000003pt;stroke-opacity:1"
         d="M 0,0 5,-5 -12.5,0 5,5 Z"
         id="path6483" />
    </marker>
    <marker
       inkscape:stockid="Arrow1Mend"
       orient="auto"
       refY="0"
       refX="0"
       id="marker16016"
       style="overflow:visible"
       inkscape:isstock="true">
      <path
         id="path16014"
         d="M 0,0 5,-5 -12.5,0 5,5 Z"
         style="fill:#000000;fill-opacity:1;fill-rule:evenodd;stroke:#000000;stroke-width:1.00000003pt;stroke-opacity:1"
         transform="matrix(-0.4,0,0,-0.4,-4,0)"
         inkscape:connector-curvature="0" />
    </marker>
    <marker
       inkscape:isstock="true"
       style="overflow:visible"
       id="marker15938"
       refX="0"
       refY="0"
       orient="auto"
       inkscape:stockid="Arrow1Mend"
       inkscape:collect="always">
      <path
         inkscape:connector-curvature="0"
         transform="matrix(-0.4,0,0,-0.4,-4,0)"
         style="fill:#000000;fill-opacity:1;fill-rule:evenodd;stroke:#000000;stroke-width:1.00000003pt;stroke-opacity:1"
         d="M 0,0 5,-5 -12.5,0 5,5 Z"
         id="path15936" />
    </marker>
    <marker
       inkscape:isstock="true"
       style="overflow:visible"
       id="marker14977"
       refX="0"
       refY="0"
       orient="auto"
       inkscape:stockid="Arrow1Mstart">
      <path
         inkscape:connector-curvature="0"
         transform="matrix(0.4,0,0,0.4,4,0)"
         style="fill:#000000;fill-opacity:1;fill-rule:evenodd;stroke:#000000;stroke-width:1.00000003pt;stroke-opacity:1"
         d="M 0,0 5,-5 -12.5,0 5,5 Z"
         id="path14975" />
    </marker>
    <marker
       inkscape:stockid="Arrow1Mend"
       orient="auto"
       refY="0"
       refX="0"
       id="marker10528"
       style="overflow:visible"
       inkscape:isstock="true">
      <path
         id="path10526"
         d="M 0,0 5,-5 -12.5,0 5,5 Z"
         style="fill:#000000;fill-opacity:1;fill-rule:evenodd;stroke:#000000;stroke-width:1.00000003pt;stroke-opacity:1"
         transform="matrix(-0.4,0,0,-0.4,-4,0)"
         inkscape:connector-curvature="0" />
    </marker>
    <marker
       inkscape:isstock="true"
       style="overflow:visible"
       id="marker3811"
       refX="0"
       refY="0"
       orient="auto"
       inkscape:stockid="Arrow1Mstart">
      <path
         inkscape:connector-curvature="0"
         transform="matrix(0.4,0,0,0.4,4,0)"
         style="fill:#000000;fill-opacity:1;fill-rule:evenodd;stroke:#000000;stroke-width:1.00000003pt;stroke-opacity:1"
         d="M 0,0 5,-5 -12.5,0 5,5 Z"
         id="path3809" />
    </marker>
    <marker
       inkscape:stockid="Arrow1Mend"
       orient="auto"
       refY="0"
       refX="0"
       id="marker4385"
       style="overflow:visible"
       inkscape:isstock="true">
      <path
         id="path4383"
         d="M 0,0 5,-5 -12.5,0 5,5 Z"
         style="fill:#000000;fill-opacity:1;fill-rule:evenodd;stroke:#000000;stroke-width:1.00000003pt;stroke-opacity:1"
         transform="matrix(-0.4,0,0,-0.4,-4,0)"
         inkscape:connector-curvature="0" />
    </marker>
  </defs>
  <sodipodi:namedview
     id="base"
     pagecolor="#ffffff"
     bordercolor="#666666"
     borderopacity="1.0"
     inkscape:pageopacity="0.0"
     inkscape:pageshadow="2"
     inkscape:zoom="1.3710227"
     inkscape:cx="172.91846"
     inkscape:cy="188.97638"
     inkscape:document-units="cm"
     inkscape:current-layer="layer1"
     showgrid="false"
     units="cm"
     inkscape:window-width="776"
     inkscape:window-height="716"
     inkscape:window-x="10"
     inkscape:window-y="24"
     inkscape:window-maximized="0">
    <inkscape:grid
       type="xygrid"
       id="grid4323" />
  </sodipodi:namedview>
  <metadata
     id="metadata7650">
    <rdf:RDF>
      <cc:Work
         rdf:about="">
        <dc:format>image/svg+xml</dc:format>
        <dc:type
           rdf:resource="http://purl.org/dc/dcmitype/StillImage" />
        <dc:title></dc:title>
      </cc:Work>
    </rdf:RDF>
  </metadata>
  <g
     inkscape:label="Layer 1"
     inkscape:groupmode="layer"
     id="layer1"
     transform="translate(0,-197.00001)">
    <path
       inkscape:connector-curvature="0"
       style="fill:#000000;fill-opacity:1;stroke:none;stroke-width:0"
       d="m 98.810825,239.89471 c 0.0265,-0.10584 0.12568,-0.4961 0.41672,-0.4961 0.0198,0 0.12568,0 0.21167,0.0529 -0.11907,0.0265 -0.19844,0.12568 -0.19844,0.23151 0,0.0661 0.0463,0.14552 0.15875,0.14552 0.0926,0 0.22489,-0.0728 0.22489,-0.24474 0,-0.21828 -0.24474,-0.27781 -0.39026,-0.27781 -0.24474,0 -0.39026,0.22489 -0.44317,0.3175 -0.10584,-0.27781 -0.33073,-0.3175 -0.456409,-0.3175 -0.436563,0 -0.681302,0.54239 -0.681302,0.64823 0,0.0463 0.0463,0.0463 0.05292,0.0463 0.03307,0 0.0463,-0.0132 0.05292,-0.0463 0.145521,-0.44979 0.423333,-0.55563 0.568854,-0.55563 0.07938,0 0.224897,0.0397 0.224897,0.28443 0,0.13229 -0.0728,0.4101 -0.224897,1.00542 -0.06615,0.25796 -0.218281,0.43656 -0.403489,0.43656 -0.02646,0 -0.119063,0 -0.211667,-0.0529 0.105833,-0.0265 0.198438,-0.11245 0.198438,-0.23151 0,-0.11245 -0.0926,-0.14552 -0.152136,-0.14552 -0.132291,0 -0.23151,0.10583 -0.23151,0.24474 0,0.19182 0.205052,0.27781 0.39026,0.27781 0.284427,0 0.436562,-0.29765 0.443177,-0.3175 0.05292,0.15214 0.205054,0.3175 0.456404,0.3175 0.43656,0 0.67469,-0.54239 0.67469,-0.64823 0,-0.0463 -0.0331,-0.0463 -0.0463,-0.0463 -0.0397,0 -0.0463,0.0198 -0.0595,0.0463 -0.13891,0.45641 -0.42333,0.55563 -0.55562,0.55563 -0.16537,0 -0.23151,-0.13229 -0.23151,-0.27781 0,-0.0926 0.0198,-0.18521 0.0661,-0.37042 z m 0,0"
       id="path15798" />
    <path
       inkscape:connector-curvature="0"
       style="fill:#000000;fill-opacity:1;stroke:none;stroke-width:0"
       d="m 66.441521,211.09493 c 0.01984,-0.0595 0.01984,-0.0661 0.01984,-0.0992 0,-0.0728 -0.05953,-0.11245 -0.125677,-0.11245 -0.03969,0 -0.105833,0.0265 -0.145521,0.086 -0.0066,0.0265 -0.0463,0.15214 -0.05953,0.23151 -0.03307,0.10583 -0.05953,0.2249 -0.08599,0.33734 l -0.191823,0.76068 c -0.01323,0.0595 -0.198438,0.35719 -0.47625,0.35719 -0.211666,0 -0.257968,-0.18521 -0.257968,-0.34396 0,-0.19182 0.07276,-0.45641 0.211666,-0.82682 0.06615,-0.17198 0.08599,-0.21828 0.08599,-0.30427 0,-0.18521 -0.132292,-0.34396 -0.343958,-0.34396 -0.40349,0 -0.555625,0.61515 -0.555625,0.64823 0,0.0463 0.03969,0.0463 0.0463,0.0463 0.0463,0 0.0463,-0.0132 0.06615,-0.0794 0.119062,-0.39687 0.284427,-0.52255 0.429947,-0.52255 0.03307,0 0.105834,0 0.105834,0.13229 0,0.10584 -0.0463,0.21829 -0.07276,0.29766 -0.171979,0.44979 -0.244739,0.68792 -0.244739,0.88635 0,0.37704 0.264583,0.50271 0.515937,0.50271 0.165364,0 0.304271,-0.0728 0.423333,-0.19182 -0.05292,0.21828 -0.105833,0.42995 -0.271198,0.65484 -0.112448,0.13891 -0.271197,0.26459 -0.46302,0.26459 -0.05953,0 -0.251354,-0.0132 -0.324115,-0.1786 0.06615,0 0.125677,0 0.178594,-0.0529 0.0463,-0.0331 0.08599,-0.0926 0.08599,-0.17198 0,-0.1323 -0.112448,-0.14552 -0.152136,-0.14552 -0.09922,0 -0.238125,0.0661 -0.238125,0.27119 0,0.21167 0.185209,0.37042 0.449792,0.37042 0.429947,0 0.86651,-0.38365 0.985572,-0.8599 z m 0,0"
       id="path15800" />
    <path
       style="color:#000000;clip-rule:nonzero;display:inline;overflow:visible;visibility:visible;opacity:1;isolation:auto;mix-blend-mode:normal;color-interpolation:sRGB;color-interpolation-filters:linearRGB;solid-color:#000000;solid-opacity:1;fill:none;fill-opacity:1;fill-rule:nonzero;stroke:#000000;stroke-width:0.26458332;stroke-linecap:round;stroke-linejoin:round;stroke-miterlimit:4;stroke-dasharray:none;stroke-dashoffset:0;stroke-opacity:1;marker-end:url(#marker15938);color-rendering:auto;image-rendering:auto;shape-rendering:auto;text-rendering:auto;enable-background:accumulate"
       d="M 67.593006,243.21073 V 213.22636"
       id="path15928"
       inkscape:connector-curvature="0" />
    <path
       inkscape:connector-curvature="0"
       id="path16012"
       d="M 64.822916,240.11459 H 96.572915"
       style="color:#000000;clip-rule:nonzero;display:inline;overflow:visible;visibility:visible;opacity:1;isolation:auto;mix-blend-mode:normal;color-interpolation:sRGB;color-interpolation-filters:linearRGB;solid-color:#000000;solid-opacity:1;fill:none;fill-opacity:1;fill-rule:nonzero;stroke:#000000;stroke-width:0.26458329;stroke-linecap:round;stroke-linejoin:round;stroke-miterlimit:4;stroke-dasharray:none;stroke-dashoffset:0;stroke-opacity:1;marker-end:url(#marker16016);color-rendering:auto;image-rendering:auto;shape-rendering:auto;text-rendering:auto;enable-background:accumulate" />
    <text
       xml:space="preserve"
       style="font-style:normal;font-variant:normal;font-weight:normal;font-stretch:normal;font-size:4.23333311px;line-height:125%;font-family:LMRoman12;-inkscape-font-specification:LMRoman12;text-align:center;letter-spacing:0px;word-spacing:0px;writing-mode:lr-tb;text-anchor:middle;fill:#000000;fill-opacity:1;stroke:none;stroke-width:0.26458332px;stroke-linecap:butt;stroke-linejoin:miter;stroke-opacity:1"
       x="66.028381"
       y="243.27811"
       id="text16678"><tspan
         sodipodi:role="line"
         id="tspan16676"
         x="66.028381"
         y="243.27811"
         style="stroke-width:0.26458332px">0</tspan></text>
    <path
       inkscape:connector-curvature="0"
       id="path6479"
       d="m 63.167118,218.14711 v 21.96748"
       style="color:#000000;clip-rule:nonzero;display:inline;overflow:visible;visibility:visible;opacity:1;isolation:auto;mix-blend-mode:normal;color-interpolation:sRGB;color-interpolation-filters:linearRGB;solid-color:#000000;solid-opacity:1;fill:none;fill-opacity:1;fill-rule:nonzero;stroke:#000000;stroke-width:0.25999999;stroke-linecap:round;stroke-linejoin:round;stroke-miterlimit:4;stroke-dasharray:none;stroke-dashoffset:0;stroke-opacity:1;marker-start:url(#marker6485);marker-end:url(#marker6573);color-rendering:auto;image-rendering:auto;shape-rendering:auto;text-rendering:auto;enable-background:accumulate" />
    <rect
       y="229.53125"
       x="67.612709"
       height="10.583337"
       width="10.583333"
       id="rect9903"
       style="color:#000000;clip-rule:nonzero;display:inline;overflow:visible;visibility:visible;opacity:1;isolation:auto;mix-blend-mode:normal;color-interpolation:sRGB;color-interpolation-filters:linearRGB;solid-color:#000000;solid-opacity:1;fill:none;fill-opacity:1;fill-rule:evenodd;stroke:#000000;stroke-width:0.26458332;stroke-linecap:butt;stroke-linejoin:round;stroke-miterlimit:4;stroke-dasharray:none;stroke-dashoffset:0;stroke-opacity:1;color-rendering:auto;image-rendering:auto;shape-rendering:auto;text-rendering:auto;enable-background:accumulate" />
    <rect
       style="color:#000000;clip-rule:nonzero;display:inline;overflow:visible;visibility:visible;opacity:1;isolation:auto;mix-blend-mode:normal;color-interpolation:sRGB;color-interpolation-filters:linearRGB;solid-color:#000000;solid-opacity:1;fill:none;fill-opacity:1;fill-rule:evenodd;stroke:#000000;stroke-width:0.26458332;stroke-linecap:butt;stroke-linejoin:round;stroke-miterlimit:4;stroke-dasharray:none;stroke-dashoffset:0;stroke-opacity:1;color-rendering:auto;image-rendering:auto;shape-rendering:auto;text-rendering:auto;enable-background:accumulate"
       id="rect9905"
       width="6.9359822"
       height="10.583337"
       x="78.196037"
       y="229.53125" />
    <path
       inkscape:connector-curvature="0"
       style="fill:#000000;fill-opacity:1;stroke:none;stroke-width:0"
       d="m 72.859097,234.72223 c -0.07937,-0.15875 -0.198438,-0.2712 -0.390261,-0.2712 -0.489478,0 -1.01203,0.62177 -1.01203,1.23693 0,0.39687 0.23151,0.67468 0.555625,0.67468 0.08599,0 0.297656,-0.0198 0.54901,-0.3175 0.03307,0.1786 0.185208,0.3175 0.383645,0.3175 0.152135,0 0.24474,-0.0992 0.3175,-0.23151 0.06615,-0.15213 0.125677,-0.4101 0.125677,-0.41672 0,-0.0463 -0.03969,-0.0463 -0.05292,-0.0463 -0.03969,0 -0.0463,0.0198 -0.05953,0.0794 -0.07276,0.27119 -0.145521,0.52255 -0.3175,0.52255 -0.119062,0 -0.125677,-0.11245 -0.125677,-0.19182 0,-0.0926 0.0066,-0.1323 0.05292,-0.3175 0.0463,-0.17198 0.05292,-0.21829 0.0926,-0.37704 l 0.152135,-0.58869 c 0.02646,-0.11907 0.02646,-0.12568 0.02646,-0.14552 0,-0.0728 -0.0463,-0.11245 -0.119063,-0.11245 -0.105833,0 -0.165364,0.0926 -0.178593,0.18521 z m -0.271198,1.0914 c -0.02646,0.0794 -0.02646,0.086 -0.08599,0.15875 -0.185208,0.23151 -0.357187,0.29766 -0.476249,0.29766 -0.211667,0 -0.271198,-0.23151 -0.271198,-0.39688 0,-0.21166 0.132292,-0.7276 0.23151,-0.92604 0.132292,-0.24474 0.3175,-0.40349 0.489479,-0.40349 0.271198,0 0.330729,0.34396 0.330729,0.37042 0,0.0265 -0.0066,0.0529 -0.01323,0.0728 z m 0,0"
       id="path9907" />
    <path
       inkscape:connector-curvature="0"
       style="fill:#000000;fill-opacity:1;stroke:none;stroke-width:0"
       d="m 75.002379,234.25021 h -0.09922 c -0.0066,0.0661 -0.03969,0.23812 -0.07937,0.26458 -0.01984,0.0198 -0.244739,0.0198 -0.291041,0.0198 h -0.542395 c 0.310885,-0.2712 0.416718,-0.35719 0.588697,-0.4961 0.218281,-0.17198 0.423333,-0.35718 0.423333,-0.635 0,-0.35718 -0.310885,-0.57547 -0.687916,-0.57547 -0.363802,0 -0.615156,0.25797 -0.615156,0.52917 0,0.14552 0.125677,0.16537 0.15875,0.16537 0.06615,0 0.152135,-0.0529 0.152135,-0.15875 0,-0.0529 -0.01984,-0.15875 -0.171979,-0.15875 0.0926,-0.20506 0.291042,-0.2712 0.429948,-0.2712 0.297656,0 0.449791,0.23151 0.449791,0.46963 0,0.25797 -0.185208,0.45641 -0.277812,0.56224 l -0.70776,0.70776 c -0.03307,0.0265 -0.03307,0.0331 -0.03307,0.11245 h 1.217083 z m 0,0"
       id="path9909" />
    <path
       inkscape:connector-curvature="0"
       style="fill:#000000;fill-opacity:1;stroke:none;stroke-width:0"
       d="m 81.827186,234.39685 c -0.07938,-0.15875 -0.198438,-0.2712 -0.390261,-0.2712 -0.489478,0 -1.01203,0.62177 -1.01203,1.23693 0,0.39687 0.23151,0.67468 0.555625,0.67468 0.08599,0 0.297656,-0.0198 0.54901,-0.3175 0.03307,0.1786 0.185208,0.3175 0.383645,0.3175 0.152135,0 0.244739,-0.0992 0.3175,-0.23151 0.06615,-0.15213 0.125677,-0.4101 0.125677,-0.41672 0,-0.0463 -0.03969,-0.0463 -0.05292,-0.0463 -0.03969,0 -0.0463,0.0198 -0.05953,0.0794 -0.07276,0.27119 -0.145521,0.52255 -0.3175,0.52255 -0.119062,0 -0.125677,-0.11245 -0.125677,-0.19182 0,-0.0926 0.0066,-0.1323 0.05292,-0.3175 0.0463,-0.17198 0.05292,-0.21829 0.0926,-0.37704 l 0.152135,-0.58869 c 0.02646,-0.11907 0.02646,-0.12568 0.02646,-0.14552 0,-0.0728 -0.0463,-0.11245 -0.119063,-0.11245 -0.105833,0 -0.165364,0.0926 -0.178593,0.18521 z m -0.271198,1.0914 c -0.02646,0.0794 -0.02646,0.086 -0.08599,0.15875 -0.185208,0.23151 -0.357187,0.29766 -0.476249,0.29766 -0.211667,0 -0.271198,-0.23151 -0.271198,-0.39688 0,-0.21166 0.132292,-0.7276 0.23151,-0.92604 0.132292,-0.24474 0.3175,-0.40349 0.489479,-0.40349 0.271198,0 0.330729,0.34396 0.330729,0.37042 0,0.0265 -0.0066,0.0529 -0.01323,0.0728 z m 0,0"
       id="path9911" />
    <rect
       y="229.53125"
       x="85.132019"
       height="10.583337"
       width="6.9359822"
       id="rect9913"
       style="color:#000000;clip-rule:nonzero;display:inline;overflow:visible;visibility:visible;opacity:1;isolation:auto;mix-blend-mode:normal;color-interpolation:sRGB;color-interpolation-filters:linearRGB;solid-color:#000000;solid-opacity:1;fill:none;fill-opacity:1;fill-rule:evenodd;stroke:#000000;stroke-width:0.26458332;stroke-linecap:butt;stroke-linejoin:round;stroke-miterlimit:4;stroke-dasharray:none;stroke-dashoffset:0;stroke-opacity:1;color-rendering:auto;image-rendering:auto;shape-rendering:auto;text-rendering:auto;enable-background:accumulate" />
    <path
       id="path9915"
       d="m 88.763168,234.39685 c -0.07938,-0.15875 -0.198438,-0.2712 -0.390261,-0.2712 -0.489478,0 -1.01203,0.62177 -1.01203,1.23693 0,0.39687 0.23151,0.67468 0.555625,0.67468 0.08599,0 0.297656,-0.0198 0.54901,-0.3175 0.03307,0.1786 0.185208,0.3175 0.383645,0.3175 0.152135,0 0.244739,-0.0992 0.3175,-0.23151 0.06615,-0.15213 0.125677,-0.4101 0.125677,-0.41672 0,-0.0463 -0.03969,-0.0463 -0.05292,-0.0463 -0.03969,0 -0.0463,0.0198 -0.05953,0.0794 -0.07276,0.27119 -0.145521,0.52255 -0.3175,0.52255 -0.119062,0 -0.125677,-0.11245 -0.125677,-0.19182 0,-0.0926 0.0066,-0.1323 0.05292,-0.3175 0.0463,-0.17198 0.05292,-0.21829 0.0926,-0.37704 l 0.152135,-0.58869 c 0.02646,-0.11907 0.02646,-0.12568 0.02646,-0.14552 0,-0.0728 -0.0463,-0.11245 -0.119063,-0.11245 -0.105833,0 -0.165364,0.0926 -0.178593,0.18521 z m -0.271198,1.0914 c -0.02646,0.0794 -0.02646,0.086 -0.08599,0.15875 -0.185208,0.23151 -0.357187,0.29766 -0.476249,0.29766 -0.211667,0 -0.271198,-0.23151 -0.271198,-0.39688 0,-0.21166 0.132292,-0.7276 0.23151,-0.92604 0.132292,-0.24474 0.3175,-0.40349 0.489479,-0.40349 0.271198,0 0.330729,0.34396 0.330729,0.37042 0,0.0265 -0.0066,0.0529 -0.01323,0.0728 z m 0,0"
       style="fill:#000000;fill-opacity:1;stroke:none;stroke-width:0"
       inkscape:connector-curvature="0" />
    <path
       style="color:#000000;clip-rule:nonzero;display:inline;overflow:visible;visibility:visible;opacity:1;isolation:auto;mix-blend-mode:normal;color-interpolation:sRGB;color-interpolation-filters:linearRGB;solid-color:#000000;solid-opacity:1;fill:none;fill-opacity:1;fill-rule:nonzero;stroke:#000000;stroke-width:0.25999999;stroke-linecap:round;stroke-linejoin:round;stroke-miterlimit:4;stroke-dasharray:none;stroke-dashoffset:0;stroke-opacity:1;marker-start:url(#marker10699);marker-end:url(#marker10787);color-rendering:auto;image-rendering:auto;shape-rendering:auto;text-rendering:auto;enable-background:accumulate"
       d="M 68.476807,245.92634 H 91.790431"
       id="path10663"
       inkscape:connector-curvature="0" />
    <path
       id="path10665"
       d="m 75.507687,250.96015 c 0,-0.0132 0,-0.0198 -0.07276,-0.0926 -0.522552,-0.52917 -0.661458,-1.32953 -0.661458,-1.97776 0,-0.73422 0.15875,-1.46844 0.681301,-1.99099 0.05292,-0.0529 0.05292,-0.0595 0.05292,-0.0728 0,-0.0331 -0.01323,-0.0463 -0.03969,-0.0463 -0.0463,0 -0.423333,0.29104 -0.674687,0.82682 -0.211667,0.46302 -0.264584,0.93265 -0.264584,1.28323 0,0.33073 0.0463,0.84005 0.277813,1.32291 0.257968,0.51594 0.615155,0.79375 0.661458,0.79375 0.02646,0 0.03969,-0.0132 0.03969,-0.0463 z m 0,0"
       style="fill:#000000;fill-opacity:1;stroke:none;stroke-width:0"
       inkscape:connector-curvature="0" />
    <path
       id="path10667"
       d="m 77.326273,248.35401 c -0.07937,-0.15875 -0.198438,-0.2712 -0.390261,-0.2712 -0.489478,0 -1.01203,0.62177 -1.01203,1.23693 0,0.39687 0.23151,0.67468 0.555625,0.67468 0.08599,0 0.297656,-0.0198 0.54901,-0.3175 0.03307,0.1786 0.185208,0.3175 0.383645,0.3175 0.152135,0 0.244739,-0.0992 0.3175,-0.23151 0.06615,-0.15213 0.125677,-0.4101 0.125677,-0.41672 0,-0.0463 -0.03969,-0.0463 -0.05292,-0.0463 -0.03969,0 -0.0463,0.0198 -0.05953,0.0794 -0.07276,0.27119 -0.145521,0.52255 -0.3175,0.52255 -0.119062,0 -0.125677,-0.11245 -0.125677,-0.19182 0,-0.0926 0.0066,-0.1323 0.05292,-0.3175 0.0463,-0.17198 0.05292,-0.21829 0.0926,-0.37704 l 0.152135,-0.58869 c 0.02646,-0.11907 0.02646,-0.12568 0.02646,-0.14552 0,-0.0728 -0.0463,-0.11245 -0.119063,-0.11245 -0.105833,0 -0.165364,0.0926 -0.178593,0.18521 z m -0.271198,1.0914 c -0.02646,0.0794 -0.02646,0.086 -0.08599,0.15875 -0.185208,0.23151 -0.357187,0.29766 -0.476249,0.29766 -0.211667,0 -0.271198,-0.23151 -0.271198,-0.39688 0,-0.21166 0.132292,-0.7276 0.23151,-0.92604 0.132292,-0.24474 0.3175,-0.40349 0.489479,-0.40349 0.271198,0 0.330729,0.34396 0.330729,0.37042 0,0.0265 -0.0066,0.0529 -0.01323,0.0728 z m 0,0"
       style="fill:#000000;fill-opacity:1;stroke:none;stroke-width:0"
       inkscape:connector-curvature="0" />
    <path
       id="path10669"
       d="m 81.696657,248.97578 c 0.07276,0 0.152135,0 0.152135,-0.086 0,-0.0794 -0.07938,-0.0794 -0.152135,-0.0794 h -2.28203 c -0.07276,0 -0.14552,0 -0.14552,0.0794 0,0.086 0.07276,0.086 0.14552,0.086 z m 0,0"
       style="fill:#000000;fill-opacity:1;stroke:none;stroke-width:0"
       inkscape:connector-curvature="0" />
    <path
       id="path10671"
       d="m 86.163455,248.88979 c 0,-0.32412 -0.0463,-0.83344 -0.277812,-1.3163 -0.251354,-0.51594 -0.615156,-0.79375 -0.654843,-0.79375 -0.02646,0 -0.0463,0.0198 -0.0463,0.0463 0,0.0132 0,0.0198 0.07937,0.0992 0.416718,0.41672 0.654843,1.08479 0.654843,1.96453 0,0.7276 -0.152135,1.46843 -0.674687,1.9976 -0.05953,0.0529 -0.05953,0.0595 -0.05953,0.0728 0,0.0265 0.01984,0.0463 0.0463,0.0463 0.03969,0 0.423333,-0.29104 0.668072,-0.82682 0.218281,-0.46302 0.264583,-0.93266 0.264583,-1.28984 z m 0,0"
       style="fill:#000000;fill-opacity:1;stroke:none;stroke-width:0"
       inkscape:connector-curvature="0" />
    <path
       id="path10673"
       d="m 82.250282,242.82779 c 0.07276,0 0.152135,0 0.152135,-0.086 0,-0.0794 -0.07937,-0.0794 -0.152135,-0.0794 h -2.28203 c -0.07276,0 -0.14552,0 -0.14552,0.0794 0,0.086 0.07276,0.086 0.14552,0.086 z m 0,0"
       style="fill:#000000;fill-opacity:1;stroke:none;stroke-width:0"
       inkscape:connector-curvature="0" />
    <path
       id="path10675"
       d="m 73.516765,242.20602 c -0.07938,-0.15875 -0.198438,-0.2712 -0.390261,-0.2712 -0.489478,0 -1.01203,0.62177 -1.01203,1.23693 0,0.39687 0.23151,0.67468 0.555625,0.67468 0.08599,0 0.297656,-0.0198 0.54901,-0.3175 0.03307,0.1786 0.185208,0.3175 0.383645,0.3175 0.152135,0 0.244739,-0.0992 0.3175,-0.23151 0.06615,-0.15213 0.125677,-0.4101 0.125677,-0.41672 0,-0.0463 -0.03969,-0.0463 -0.05292,-0.0463 -0.03969,0 -0.0463,0.0198 -0.05953,0.0794 -0.07276,0.27119 -0.145521,0.52255 -0.3175,0.52255 -0.119062,0 -0.125677,-0.11245 -0.125677,-0.19182 0,-0.0926 0.0066,-0.1323 0.05292,-0.3175 0.0463,-0.17198 0.05292,-0.21829 0.0926,-0.37704 l 0.152135,-0.58869 c 0.02646,-0.11907 0.02646,-0.12568 0.02646,-0.14552 0,-0.0728 -0.0463,-0.11245 -0.119063,-0.11245 -0.105833,0 -0.165364,0.0926 -0.178593,0.18521 z m -0.271198,1.0914 c -0.02646,0.0794 -0.02646,0.086 -0.08599,0.15875 -0.185208,0.23151 -0.357187,0.29766 -0.476249,0.29766 -0.211667,0 -0.271198,-0.23151 -0.271198,-0.39688 0,-0.21166 0.132292,-0.7276 0.23151,-0.92604 0.132292,-0.24474 0.3175,-0.40349 0.489479,-0.40349 0.271198,0 0.330729,0.34396 0.330729,0.37042 0,0.0265 -0.0066,0.0529 -0.01323,0.0728 z m 0,0"
       style="fill:#000000;fill-opacity:1;stroke:none;stroke-width:0"
       inkscape:connector-curvature="0" />
    <text
       id="text10679"
       y="244.12206"
       x="83.612236"
       style="font-style:normal;font-variant:normal;font-weight:normal;font-stretch:normal;font-size:4.23333311px;line-height:125%;font-family:LMRoman12;-inkscape-font-specification:LMRoman12;text-align:center;letter-spacing:0px;word-spacing:0px;writing-mode:lr-tb;text-anchor:middle;fill:#000000;fill-opacity:1;stroke:none;stroke-width:0.26458332px;stroke-linecap:butt;stroke-linejoin:miter;stroke-opacity:1"
       xml:space="preserve"><tspan
         style="stroke-width:0.26458332px"
         y="244.12206"
         x="83.612236"
         id="tspan10677"
         sodipodi:role="line">1</tspan></text>
    <text
       xml:space="preserve"
       style="font-style:normal;font-variant:normal;font-weight:normal;font-stretch:normal;font-size:4.23333311px;line-height:125%;font-family:LMRoman12;-inkscape-font-specification:LMRoman12;text-align:center;letter-spacing:0px;word-spacing:0px;writing-mode:lr-tb;text-anchor:middle;fill:#000000;fill-opacity:1;stroke:none;stroke-width:0.26458332px;stroke-linecap:butt;stroke-linejoin:miter;stroke-opacity:1"
       x="83.935997"
       y="250.201"
       id="text10683"><tspan
         sodipodi:role="line"
         id="tspan10681"
         x="83.935997"
         y="250.201"
         style="stroke-width:0.26458332px">2</tspan></text>
    <path
       inkscape:connector-curvature="0"
       style="fill:#000000;fill-opacity:1;stroke:none;stroke-width:0"
       d="m 81.029875,243.8828 c 0,0.0728 0,0.15213 0.086,0.15213 0.0794,0 0.0794,-0.0794 0.0794,-0.15213 v -2.28203 c 0,-0.0728 0,-0.14552 -0.0794,-0.14552 -0.086,0 -0.086,0.0728 -0.086,0.14552 z m 0,0"
       id="path10685" />
    <path
       inkscape:connector-curvature="0"
       style="fill:#000000;fill-opacity:1;stroke:none;stroke-width:0"
       d="m 89.141472,242.82779 c 0.07276,0 0.152135,0 0.152135,-0.086 0,-0.0794 -0.07937,-0.0794 -0.152135,-0.0794 h -2.28203 c -0.07276,0 -0.14552,0 -0.14552,0.0794 0,0.086 0.07276,0.086 0.14552,0.086 z m 0,0"
       id="path10687" />
    <text
       xml:space="preserve"
       style="font-style:normal;font-variant:normal;font-weight:normal;font-stretch:normal;font-size:4.23333311px;line-height:125%;font-family:LMRoman12;-inkscape-font-specification:LMRoman12;text-align:center;letter-spacing:0px;word-spacing:0px;writing-mode:lr-tb;text-anchor:middle;fill:#000000;fill-opacity:1;stroke:none;stroke-width:0.26458332px;stroke-linecap:butt;stroke-linejoin:miter;stroke-opacity:1"
       x="90.503426"
       y="244.12206"
       id="text10691"><tspan
         sodipodi:role="line"
         id="tspan10689"
         x="90.503426"
         y="244.12206"
         style="stroke-width:0.26458332px">1</tspan></text>
    <path
       id="path10693"
       d="m 87.921065,243.8828 c 0,0.0728 0,0.15213 0.086,0.15213 0.0794,0 0.0794,-0.0794 0.0794,-0.15213 v -2.28203 c 0,-0.0728 0,-0.14552 -0.0794,-0.14552 -0.086,0 -0.086,0.0728 -0.086,0.14552 z m 0,0"
       style="fill:#000000;fill-opacity:1;stroke:none;stroke-width:0"
       inkscape:connector-curvature="0" />
    <path
       inkscape:connector-curvature="0"
       style="fill:#000000;fill-opacity:1;stroke:none;stroke-width:0"
       d="m 80.641649,247.75537 c 0,-0.0728 0,-0.15213 -0.086,-0.15213 -0.0794,0 -0.0794,0.0794 -0.0794,0.15213 v 2.28203 c 0,0.0728 0,0.14552 0.0794,0.14552 0.086,0 0.086,-0.0728 0.086,-0.14552 z m 0,0"
       id="path10695" />
    <g
       transform="rotate(-90,34.003228,202.51849)"
       id="g11823">
      <path
         id="path11811"
         d="m 2.7227527,230.50401 c 0,-0.0132 0,-0.0198 -0.07276,-0.0926 -0.522552,-0.52917 -0.661458,-1.32953 -0.661458,-1.97776 0,-0.73422 0.15875,-1.46844 0.681301,-1.99099 0.05292,-0.0529 0.05292,-0.0595 0.05292,-0.0728 0,-0.0331 -0.01323,-0.0463 -0.03969,-0.0463 -0.0463,0 -0.423333,0.29104 -0.674687,0.82682 -0.211667,0.46302 -0.264584,0.93265 -0.264584,1.28323 0,0.33073 0.0463,0.84005 0.277813,1.32291 0.257968,0.51594 0.615155,0.79375 0.661458,0.79375 0.02646,0 0.03969,-0.0132 0.03969,-0.0463 z m 0,0"
         style="fill:#000000;fill-opacity:1;stroke:none;stroke-width:0"
         inkscape:connector-curvature="0" />
      <path
         id="path11813"
         d="m 4.5413387,227.89787 c -0.07937,-0.15875 -0.198438,-0.2712 -0.390261,-0.2712 -0.489478,0 -1.01203,0.62177 -1.01203,1.23693 0,0.39687 0.23151,0.67468 0.555625,0.67468 0.08599,0 0.297656,-0.0198 0.54901,-0.3175 0.03307,0.1786 0.185208,0.3175 0.383645,0.3175 0.152135,0 0.244739,-0.0992 0.3175,-0.23151 0.06615,-0.15213 0.125677,-0.4101 0.125677,-0.41672 0,-0.0463 -0.03969,-0.0463 -0.05292,-0.0463 -0.03969,0 -0.0463,0.0198 -0.05953,0.0794 -0.07276,0.27119 -0.145521,0.52255 -0.3175,0.52255 -0.119062,0 -0.125677,-0.11245 -0.125677,-0.19182 0,-0.0926 0.0066,-0.1323 0.05292,-0.3175 0.0463,-0.17198 0.05292,-0.21829 0.0926,-0.37704 l 0.152135,-0.58869 c 0.02646,-0.11907 0.02646,-0.12568 0.02646,-0.14552 0,-0.0728 -0.0463,-0.11245 -0.119063,-0.11245 -0.105833,0 -0.165364,0.0926 -0.178593,0.18521 z m -0.271198,1.0914 c -0.02646,0.0794 -0.02646,0.086 -0.08599,0.15875 -0.185208,0.23151 -0.357187,0.29766 -0.476249,0.29766 -0.211667,0 -0.271198,-0.23151 -0.271198,-0.39688 0,-0.21166 0.132292,-0.7276 0.23151,-0.92604 0.132292,-0.24474 0.3175,-0.40349 0.489479,-0.40349 0.271198,0 0.330729,0.34396 0.330729,0.37042 0,0.0265 -0.0066,0.0529 -0.01323,0.0728 z m 0,0"
         style="fill:#000000;fill-opacity:1;stroke:none;stroke-width:0"
         inkscape:connector-curvature="0" />
      <path
         id="path11815"
         d="m 8.9117227,228.51964 c 0.07276,0 0.152135,0 0.152135,-0.086 0,-0.0794 -0.07938,-0.0794 -0.152135,-0.0794 h -2.28203 c -0.07276,0 -0.14552,0 -0.14552,0.0794 0,0.086 0.07276,0.086 0.14552,0.086 z m 0,0"
         style="fill:#000000;fill-opacity:1;stroke:none;stroke-width:0"
         inkscape:connector-curvature="0" />
      <path
         id="path11817"
         d="m 13.378521,228.43365 c 0,-0.32412 -0.0463,-0.83344 -0.277812,-1.3163 -0.251354,-0.51594 -0.615156,-0.79375 -0.654843,-0.79375 -0.02646,0 -0.0463,0.0198 -0.0463,0.0463 0,0.0132 0,0.0198 0.07937,0.0992 0.416718,0.41672 0.654843,1.08479 0.654843,1.96453 0,0.7276 -0.152135,1.46843 -0.674687,1.9976 -0.05953,0.0529 -0.05953,0.0595 -0.05953,0.0728 0,0.0265 0.01984,0.0463 0.0463,0.0463 0.03969,0 0.423333,-0.29104 0.668072,-0.82682 0.218281,-0.46302 0.264583,-0.93266 0.264583,-1.28984 z m 0,0"
         style="fill:#000000;fill-opacity:1;stroke:none;stroke-width:0"
         inkscape:connector-curvature="0" />
      <text
         xml:space="preserve"
         style="font-style:normal;font-variant:normal;font-weight:normal;font-stretch:normal;font-size:4.23333311px;line-height:125%;font-family:LMRoman12;-inkscape-font-specification:LMRoman12;text-align:center;letter-spacing:0px;word-spacing:0px;writing-mode:lr-tb;text-anchor:middle;fill:#000000;fill-opacity:1;stroke:none;stroke-width:0.26458332px;stroke-linecap:butt;stroke-linejoin:miter;stroke-opacity:1"
         x="11.151065"
         y="229.74486"
         id="text11821"><tspan
           sodipodi:role="line"
           id="tspan11819"
           x="11.151065"
           y="229.74486"
           style="stroke-width:0.26458332px">2</tspan></text>
    </g>
    <g
       id="g11975">
      <rect
         y="223.45107"
         x="67.612709"
         height="6.080183"
         width="10.583333"
         id="rect9917"
         style="color:#000000;clip-rule:nonzero;display:inline;overflow:visible;visibility:visible;opacity:1;isolation:auto;mix-blend-mode:normal;color-interpolation:sRGB;color-interpolation-filters:linearRGB;solid-color:#000000;solid-opacity:1;fill:none;fill-opacity:1;fill-rule:evenodd;stroke:#000000;stroke-width:0.26458332;stroke-linecap:butt;stroke-linejoin:round;stroke-miterlimit:4;stroke-dasharray:none;stroke-dashoffset:0;stroke-opacity:1;color-rendering:auto;image-rendering:auto;shape-rendering:auto;text-rendering:auto;enable-background:accumulate" />
      <path
         id="path11973"
         style="stroke:#000000;stroke-width:0.26458332;fill:none"
         d="M 67.982447,223.451070 l -0.369738,0.640406 M 67.612709,225.784809 l 1.347385,-2.333739 M 69.937740,223.451070 l -2.325031,4.027072 M 67.612709,229.171476 l 3.302678,-5.720406 M 71.893033,223.451070 l -3.510395,6.080183 M 69.360284,229.531253 l 3.510395,-6.080183 M 73.848326,223.451070 l -3.510395,6.080183 M 71.315577,229.531253 l 3.510395,-6.080183 M 75.803619,223.451070 l -3.510395,6.080183 M 73.270870,229.531253 l 3.510395,-6.080183 M 77.758912,223.451070 l -3.510395,6.080183" />
    </g>
    <g
       id="g11980">
      <rect
         style="color:#000000;clip-rule:nonzero;display:inline;overflow:visible;visibility:visible;opacity:1;isolation:auto;mix-blend-mode:normal;color-interpolation:sRGB;color-interpolation-filters:linearRGB;solid-color:#000000;solid-opacity:1;fill:none;fill-opacity:1;fill-rule:evenodd;stroke:#000000;stroke-width:0.26458332;stroke-linecap:butt;stroke-linejoin:round;stroke-miterlimit:4;stroke-dasharray:none;stroke-dashoffset:0;stroke-opacity:1;color-rendering:auto;image-rendering:auto;shape-rendering:auto;text-rendering:auto;enable-background:accumulate"
         id="rect9927"
         width="6.9359822"
         height="6.080183"
         x="85.132019"
         y="217.37088" />
      <path
         id="path11978"
         style="stroke:#000000;stroke-width:0.26458332;fill:none"
         d="M 85.179897,217.370880 l -0.047878,0.082927 M 81.669502,223.451063 l 3.462517,-5.997255 M 86.157544,217.370880 l -1.025525,1.776261 M 82.647149,223.451063 l 2.484870,-4.303922 M 87.135190,217.370880 l -2.003171,3.469594 M 83.624795,223.451063 l 1.507224,-2.610588 M 88.112837,217.370880 l -2.980818,5.162928 M 84.602442,223.451063 l 0.529577,-0.917255 M 89.090483,217.370880 l -3.510395,6.080183 M 86.557734,223.451063 l 3.510395,-6.080183 M 91.045776,217.370880 l -3.510395,6.080183 M 88.513027,223.451063 l 3.510395,-6.080183 M 92.068001,218.987001 l -2.577327,4.464062 M 90.468320,223.451063 l 1.599681,-2.770728 M 92.068001,222.373668 l -0.622034,1.077395" />
    </g>
    <g
       id="g11985">
      <rect
         y="223.45107"
         x="85.132019"
         height="6.080183"
         width="6.9359822"
         id="rect9921"
         style="color:#000000;clip-rule:nonzero;display:inline;overflow:visible;visibility:visible;opacity:1;isolation:auto;mix-blend-mode:normal;color-interpolation:sRGB;color-interpolation-filters:linearRGB;solid-color:#000000;solid-opacity:1;fill:none;fill-opacity:1;fill-rule:evenodd;stroke:#000000;stroke-width:0.26458332;stroke-linecap:butt;stroke-linejoin:round;stroke-miterlimit:4;stroke-dasharray:none;stroke-dashoffset:0;stroke-opacity:1;color-rendering:auto;image-rendering:auto;shape-rendering:auto;text-rendering:auto;enable-background:accumulate" />
      <path
         id="path11983"
         style="stroke:#000000;stroke-width:0.26458332;fill:none"
         d="M 85.580084,223.451070 l -0.448065,0.776071 M 82.069689,229.531253 l 3.062330,-5.304112 M 86.557730,223.451070 l -1.425711,2.469404 M 83.047335,229.531253 l 2.084684,-3.610778 M 87.535377,223.451070 l -2.403358,4.162738 M 84.024982,229.531253 l 1.107037,-1.917445 M 88.513023,223.451070 l -3.381004,5.856071 M 85.002628,229.531253 l 0.129391,-0.224112 M 89.490670,223.451070 l -3.510395,6.080183 M 86.957921,229.531253 l 3.510395,-6.080183 M 91.445963,223.451070 l -3.510395,6.080183 M 88.913214,229.531253 l 3.154787,-5.464252 M 92.068001,225.760335 l -2.177141,3.770918 M 90.868507,229.531253 l 1.199494,-2.077585 M 92.068001,229.147001 l -0.221848,0.384252" />
    </g>
    <g
       id="g11990">
      <rect
         style="color:#000000;clip-rule:nonzero;display:inline;overflow:visible;visibility:visible;opacity:1;isolation:auto;mix-blend-mode:normal;color-interpolation:sRGB;color-interpolation-filters:linearRGB;solid-color:#000000;solid-opacity:1;fill:none;fill-opacity:1;fill-rule:evenodd;stroke:#000000;stroke-width:0.26458332;stroke-linecap:butt;stroke-linejoin:round;stroke-miterlimit:4;stroke-dasharray:none;stroke-dashoffset:0;stroke-opacity:1;color-rendering:auto;image-rendering:auto;shape-rendering:auto;text-rendering:auto;enable-background:accumulate"
         id="rect9919"
         width="6.9359822"
         height="6.080183"
         x="78.196037"
         y="223.45107" />
      <path
         id="path11988"
         style="stroke:#000000;stroke-width:0.26458332;fill:none"
         d="M 78.736559,223.451070 l -0.540517,0.936202 M 75.226163,229.531253 l 2.969874,-5.143972 M 79.714205,223.451070 l -1.518163,2.629536 M 76.203810,229.531253 l 1.992227,-3.450639 M 80.691852,223.451070 l -2.495810,4.322869 M 77.181456,229.531253 l 1.014581,-1.757305 M 81.669498,223.451070 l -3.473456,6.016202 M 78.159103,229.531253 l 0.036934,-0.063972 M 82.647145,223.451070 l -3.510395,6.080183 M 80.114396,229.531253 l 3.510395,-6.080183 M 84.602437,223.451070 l -3.510395,6.080183" />
    </g>
    <g
       id="g11995">
      <rect
         style="color:#000000;clip-rule:nonzero;display:inline;overflow:visible;visibility:visible;opacity:1;isolation:auto;mix-blend-mode:normal;color-interpolation:sRGB;color-interpolation-filters:linearRGB;solid-color:#000000;solid-opacity:1;fill:none;fill-opacity:1;fill-rule:evenodd;stroke:#000000;stroke-width:0.26458332;stroke-linecap:butt;stroke-linejoin:round;stroke-miterlimit:4;stroke-dasharray:none;stroke-dashoffset:0;stroke-opacity:1;color-rendering:auto;image-rendering:auto;shape-rendering:auto;text-rendering:auto;enable-background:accumulate"
         id="rect9923"
         width="10.583333"
         height="6.080183"
         x="67.612709"
         y="217.37088" />
      <path
         id="path11993"
         style="stroke:#000000;stroke-width:0.26458332;fill:none"
         d="M 68.559907,217.370880 l -0.947198,1.640595 M 67.612709,220.704809 l 1.924845,-3.333929 M 70.515200,217.370880 l -2.902491,5.027262 M 67.982451,223.451063 l 3.510395,-6.080183 M 72.470493,217.370880 l -3.510395,6.080183 M 69.937744,223.451063 l 3.510395,-6.080183 M 74.425786,217.370880 l -3.510395,6.080183 M 71.893037,223.451063 l 3.510395,-6.080183 M 76.381079,217.370880 l -3.510395,6.080183 M 73.848330,223.451063 l 3.510395,-6.080183" />
    </g>
    <g
       id="g12000">
      <rect
         y="217.37088"
         x="78.196037"
         height="6.080183"
         width="6.9359822"
         id="rect9925"
         style="color:#000000;clip-rule:nonzero;display:inline;overflow:visible;visibility:visible;opacity:1;isolation:auto;mix-blend-mode:normal;color-interpolation:sRGB;color-interpolation-filters:linearRGB;solid-color:#000000;solid-opacity:1;fill:none;fill-opacity:1;fill-rule:evenodd;stroke:#000000;stroke-width:0.26458332;stroke-linecap:butt;stroke-linejoin:round;stroke-miterlimit:4;stroke-dasharray:none;stroke-dashoffset:0;stroke-opacity:1;color-rendering:auto;image-rendering:auto;shape-rendering:auto;text-rendering:auto;enable-background:accumulate" />
      <path
         id="path11998"
         style="stroke:#000000;stroke-width:0.26458332;fill:none"
         d="M 78.336372,217.370880 l -0.140330,0.243059 M 74.825977,223.451063 l 3.370060,-5.837116 M 79.314019,217.370880 l -1.117977,1.936392 M 75.803623,223.451063 l 2.392414,-4.143782 M 80.291665,217.370880 l -2.095623,3.629725 M 76.781270,223.451063 l 1.414767,-2.450449 M 81.269311,217.370880 l -3.073269,5.323059 M 77.758916,223.451063 l 0.437121,-0.757115 M 82.246958,217.370880 l -3.510395,6.080183 M 79.714209,223.451063 l 3.510395,-6.080183 M 84.202251,217.370880 l -3.510395,6.080183" />
    </g>
    <g
       id="g12028"
       transform="translate(-26.102265)">
      <ellipse
         ry="1.6969557"
         rx="3.2704966"
         cy="220.5753"
         cx="99.163925"
         id="path12023"
         style="color:#000000;clip-rule:nonzero;display:inline;overflow:visible;visibility:visible;opacity:1;isolation:auto;mix-blend-mode:normal;color-interpolation:sRGB;color-interpolation-filters:linearRGB;solid-color:#000000;solid-opacity:1;fill:#ffffff;fill-opacity:1;fill-rule:nonzero;stroke:#000000;stroke-width:0.21166667;stroke-linecap:round;stroke-linejoin:round;stroke-miterlimit:4;stroke-dasharray:none;stroke-dashoffset:0;stroke-opacity:1;color-rendering:auto;image-rendering:auto;shape-rendering:auto;text-rendering:auto;enable-background:accumulate" />
      <path
         inkscape:connector-curvature="0"
         style="fill:#000000;fill-opacity:1;stroke:none;stroke-width:0"
         d="m 98.76663,220.34532 c 0.07276,0 0.152135,0 0.152135,-0.086 0,-0.0794 -0.07937,-0.0794 -0.152135,-0.0794 H 96.4846 c -0.07276,0 -0.14552,0 -0.14552,0.0794 0,0.086 0.07276,0.086 0.14552,0.086 z m 0,0"
         id="path9957" />
      <path
         id="path9959"
         d="m 100.95219,219.82668 c -0.0794,-0.15875 -0.19844,-0.2712 -0.39026,-0.2712 -0.48948,0 -1.012033,0.62177 -1.012033,1.23693 0,0.39687 0.23151,0.67468 0.555623,0.67468 0.086,0 0.29766,-0.0198 0.54901,-0.3175 0.0331,0.1786 0.18521,0.3175 0.38365,0.3175 0.15213,0 0.24474,-0.0992 0.3175,-0.23151 0.0661,-0.15213 0.12567,-0.4101 0.12567,-0.41672 0,-0.0463 -0.0397,-0.0463 -0.0529,-0.0463 -0.0397,0 -0.0463,0.0198 -0.0595,0.0794 -0.0728,0.27119 -0.14552,0.52255 -0.3175,0.52255 -0.11906,0 -0.12567,-0.11245 -0.12567,-0.19182 0,-0.0926 0.007,-0.1323 0.0529,-0.3175 0.0463,-0.17198 0.0529,-0.21829 0.0926,-0.37704 l 0.15213,-0.58869 c 0.0265,-0.11907 0.0265,-0.12568 0.0265,-0.14552 0,-0.0728 -0.0463,-0.11245 -0.11906,-0.11245 -0.10583,0 -0.16537,0.0926 -0.17859,0.18521 z m -0.2712,1.0914 c -0.0265,0.0794 -0.0265,0.086 -0.086,0.15875 -0.18521,0.23151 -0.35719,0.29766 -0.47625,0.29766 -0.211666,0 -0.271197,-0.23151 -0.271197,-0.39688 0,-0.21166 0.132292,-0.7276 0.231507,-0.92604 0.13229,-0.24474 0.3175,-0.40349 0.48948,-0.40349 0.2712,0 0.33073,0.34396 0.33073,0.37042 0,0.0265 -0.007,0.0529 -0.0132,0.0728 z m 0,0"
         style="fill:#000000;fill-opacity:1;stroke:none;stroke-width:0"
         inkscape:connector-curvature="0" />
    </g>
    <g
       transform="translate(-26.102265,6.2324556)"
       id="g12036">
      <ellipse
         style="color:#000000;clip-rule:nonzero;display:inline;overflow:visible;visibility:visible;opacity:1;isolation:auto;mix-blend-mode:normal;color-interpolation:sRGB;color-interpolation-filters:linearRGB;solid-color:#000000;solid-opacity:1;fill:#ffffff;fill-opacity:1;fill-rule:nonzero;stroke:#000000;stroke-width:0.21166667;stroke-linecap:round;stroke-linejoin:round;stroke-miterlimit:4;stroke-dasharray:none;stroke-dashoffset:0;stroke-opacity:1;color-rendering:auto;image-rendering:auto;shape-rendering:auto;text-rendering:auto;enable-background:accumulate"
         id="ellipse12030"
         cx="99.163925"
         cy="220.5753"
         rx="3.2704966"
         ry="1.6969557" />
      <path
         id="path12032"
         d="m 98.76663,220.34532 c 0.07276,0 0.152135,0 0.152135,-0.086 0,-0.0794 -0.07937,-0.0794 -0.152135,-0.0794 H 96.4846 c -0.07276,0 -0.14552,0 -0.14552,0.0794 0,0.086 0.07276,0.086 0.14552,0.086 z m 0,0"
         style="fill:#000000;fill-opacity:1;stroke:none;stroke-width:0"
         inkscape:connector-curvature="0" />
      <path
         inkscape:connector-curvature="0"
         style="fill:#000000;fill-opacity:1;stroke:none;stroke-width:0"
         d="m 100.95219,219.82668 c -0.0794,-0.15875 -0.19844,-0.2712 -0.39026,-0.2712 -0.48948,0 -1.012033,0.62177 -1.012033,1.23693 0,0.39687 0.23151,0.67468 0.555623,0.67468 0.086,0 0.29766,-0.0198 0.54901,-0.3175 0.0331,0.1786 0.18521,0.3175 0.38365,0.3175 0.15213,0 0.24474,-0.0992 0.3175,-0.23151 0.0661,-0.15213 0.12567,-0.4101 0.12567,-0.41672 0,-0.0463 -0.0397,-0.0463 -0.0529,-0.0463 -0.0397,0 -0.0463,0.0198 -0.0595,0.0794 -0.0728,0.27119 -0.14552,0.52255 -0.3175,0.52255 -0.11906,0 -0.12567,-0.11245 -0.12567,-0.19182 0,-0.0926 0.007,-0.1323 0.0529,-0.3175 0.0463,-0.17198 0.0529,-0.21829 0.0926,-0.37704 l 0.15213,-0.58869 c 0.0265,-0.11907 0.0265,-0.12568 0.0265,-0.14552 0,-0.0728 -0.0463,-0.11245 -0.11906,-0.11245 -0.10583,0 -0.16537,0.0926 -0.17859,0.18521 z m -0.2712,1.0914 c -0.0265,0.0794 -0.0265,0.086 -0.086,0.15875 -0.18521,0.23151 -0.35719,0.29766 -0.47625,0.29766 -0.211666,0 -0.271197,-0.23151 -0.271197,-0.39688 0,-0.21166 0.132292,-0.7276 0.231507,-0.92604 0.13229,-0.24474 0.3175,-0.40349 0.48948,-0.40349 0.2712,0 0.33073,0.34396 0.33073,0.37042 0,0.0265 -0.007,0.0529 -0.0132,0.0728 z m 0,0"
         id="path12034" />
    </g>
    <g
       id="g12044"
       transform="translate(-26.842755,-0.06170748)">
      <ellipse
         ry="2.0672007"
         rx="2.8385439"
         cy="220.45187"
         cx="108.35834"
         id="path12038"
         style="color:#000000;clip-rule:nonzero;display:inline;overflow:visible;visibility:visible;opacity:1;isolation:auto;mix-blend-mode:normal;color-interpolation:sRGB;color-interpolation-filters:linearRGB;solid-color:#000000;solid-opacity:1;fill:#ffffff;fill-opacity:1;fill-rule:nonzero;stroke:#000000;stroke-width:0.21166667;stroke-linecap:round;stroke-linejoin:round;stroke-miterlimit:4;stroke-dasharray:none;stroke-dashoffset:0;stroke-opacity:1;color-rendering:auto;image-rendering:auto;shape-rendering:auto;text-rendering:auto;enable-background:accumulate" />
      <path
         id="path9941"
         d="m 108.48461,220.34532 c 0.0728,0 0.15214,0 0.15214,-0.086 0,-0.0794 -0.0794,-0.0794 -0.15214,-0.0794 h -2.28203 c -0.0728,0 -0.14552,0 -0.14552,0.0794 0,0.086 0.0728,0.086 0.14552,0.086 z m 0,0"
         style="fill:#000000;fill-opacity:1;stroke:none;stroke-width:0"
         inkscape:connector-curvature="0" />
      <text
         id="text9945"
         y="221.63959"
         x="109.41459"
         style="font-style:normal;font-variant:normal;font-weight:normal;font-stretch:normal;font-size:4.23333311px;line-height:125%;font-family:LMRoman12;-inkscape-font-specification:LMRoman12;text-align:center;letter-spacing:0px;word-spacing:0px;writing-mode:lr-tb;text-anchor:middle;fill:#000000;fill-opacity:1;stroke:none;stroke-width:0.26458332px;stroke-linecap:butt;stroke-linejoin:miter;stroke-opacity:1"
         xml:space="preserve"><tspan
           style="stroke-width:0.26458332px"
           y="221.63959"
           x="109.41459"
           id="tspan9943"
           sodipodi:role="line">1</tspan></text>
    </g>
    <g
       transform="translate(-19.716757,-0.06170748)"
       id="g12054">
      <ellipse
         style="color:#000000;clip-rule:nonzero;display:inline;overflow:visible;visibility:visible;opacity:1;isolation:auto;mix-blend-mode:normal;color-interpolation:sRGB;color-interpolation-filters:linearRGB;solid-color:#000000;solid-opacity:1;fill:#ffffff;fill-opacity:1;fill-rule:nonzero;stroke:#000000;stroke-width:0.21166667;stroke-linecap:round;stroke-linejoin:round;stroke-miterlimit:4;stroke-dasharray:none;stroke-dashoffset:0;stroke-opacity:1;color-rendering:auto;image-rendering:auto;shape-rendering:auto;text-rendering:auto;enable-background:accumulate"
         id="ellipse12046"
         cx="108.35834"
         cy="220.45187"
         rx="2.8385439"
         ry="2.0672007" />
      <path
         inkscape:connector-curvature="0"
         style="fill:#000000;fill-opacity:1;stroke:none;stroke-width:0"
         d="m 108.48461,220.34532 c 0.0728,0 0.15214,0 0.15214,-0.086 0,-0.0794 -0.0794,-0.0794 -0.15214,-0.0794 h -2.28203 c -0.0728,0 -0.14552,0 -0.14552,0.0794 0,0.086 0.0728,0.086 0.14552,0.086 z m 0,0"
         id="path12048" />
      <text
         xml:space="preserve"
         style="font-style:normal;font-variant:normal;font-weight:normal;font-stretch:normal;font-size:4.23333311px;line-height:125%;font-family:LMRoman12;-inkscape-font-specification:LMRoman12;text-align:center;letter-spacing:0px;word-spacing:0px;writing-mode:lr-tb;text-anchor:middle;fill:#000000;fill-opacity:1;stroke:none;stroke-width:0.26458332px;stroke-linecap:butt;stroke-linejoin:miter;stroke-opacity:1"
         x="109.41459"
         y="221.63959"
         id="text12052"><tspan
           sodipodi:role="line"
           id="tspan12050"
           x="109.41459"
           y="221.63959"
           style="stroke-width:0.26458332px">1</tspan></text>
    </g>
    <g
       transform="translate(-26.842755,6.1707482)"
       id="g12064">
      <ellipse
         style="color:#000000;clip-rule:nonzero;display:inline;overflow:visible;visibility:visible;opacity:1;isolation:auto;mix-blend-mode:normal;color-interpolation:sRGB;color-interpolation-filters:linearRGB;solid-color:#000000;solid-opacity:1;fill:#ffffff;fill-opacity:1;fill-rule:nonzero;stroke:#000000;stroke-width:0.21166667;stroke-linecap:round;stroke-linejoin:round;stroke-miterlimit:4;stroke-dasharray:none;stroke-dashoffset:0;stroke-opacity:1;color-rendering:auto;image-rendering:auto;shape-rendering:auto;text-rendering:auto;enable-background:accumulate"
         id="ellipse12056"
         cx="108.35834"
         cy="220.45187"
         rx="2.8385439"
         ry="2.0672007" />
      <path
         inkscape:connector-curvature="0"
         style="fill:#000000;fill-opacity:1;stroke:none;stroke-width:0"
         d="m 108.48461,220.34532 c 0.0728,0 0.15214,0 0.15214,-0.086 0,-0.0794 -0.0794,-0.0794 -0.15214,-0.0794 h -2.28203 c -0.0728,0 -0.14552,0 -0.14552,0.0794 0,0.086 0.0728,0.086 0.14552,0.086 z m 0,0"
         id="path12058" />
      <text
         xml:space="preserve"
         style="font-style:normal;font-variant:normal;font-weight:normal;font-stretch:normal;font-size:4.23333311px;line-height:125%;font-family:LMRoman12;-inkscape-font-specification:LMRoman12;text-align:center;letter-spacing:0px;word-spacing:0px;writing-mode:lr-tb;text-anchor:middle;fill:#000000;fill-opacity:1;stroke:none;stroke-width:0.26458332px;stroke-linecap:butt;stroke-linejoin:miter;stroke-opacity:1"
         x="109.41459"
         y="221.63959"
         id="text12062"><tspan
           sodipodi:role="line"
           id="tspan12060"
           x="109.41459"
           y="221.63959"
           style="stroke-width:0.26458332px">1</tspan></text>
    </g>
    <g
       id="g12074"
       transform="translate(-19.716757,6.1707482)">
      <ellipse
         ry="2.0672007"
         rx="2.8385439"
         cy="220.45187"
         cx="108.35834"
         id="ellipse12066"
         style="color:#000000;clip-rule:nonzero;display:inline;overflow:visible;visibility:visible;opacity:1;isolation:auto;mix-blend-mode:normal;color-interpolation:sRGB;color-interpolation-filters:linearRGB;solid-color:#000000;solid-opacity:1;fill:#ffffff;fill-opacity:1;fill-rule:nonzero;stroke:#000000;stroke-width:0.21166667;stroke-linecap:round;stroke-linejoin:round;stroke-miterlimit:4;stroke-dasharray:none;stroke-dashoffset:0;stroke-opacity:1;color-rendering:auto;image-rendering:auto;shape-rendering:auto;text-rendering:auto;enable-background:accumulate" />
      <path
         id="path12068"
         d="m 108.48461,220.34532 c 0.0728,0 0.15214,0 0.15214,-0.086 0,-0.0794 -0.0794,-0.0794 -0.15214,-0.0794 h -2.28203 c -0.0728,0 -0.14552,0 -0.14552,0.0794 0,0.086 0.0728,0.086 0.14552,0.086 z m 0,0"
         style="fill:#000000;fill-opacity:1;stroke:none;stroke-width:0"
         inkscape:connector-curvature="0" />
      <text
         id="text12072"
         y="221.63959"
         x="109.41459"
         style="font-style:normal;font-variant:normal;font-weight:normal;font-stretch:normal;font-size:4.23333311px;line-height:125%;font-family:LMRoman12;-inkscape-font-specification:LMRoman12;text-align:center;letter-spacing:0px;word-spacing:0px;writing-mode:lr-tb;text-anchor:middle;fill:#000000;fill-opacity:1;stroke:none;stroke-width:0.26458332px;stroke-linecap:butt;stroke-linejoin:miter;stroke-opacity:1"
         xml:space="preserve"><tspan
           style="stroke-width:0.26458332px"
           y="221.63959"
           x="109.41459"
           id="tspan12070"
           sodipodi:role="line">1</tspan></text>
    </g>
  </g>
</svg>
