<?xml version="1.0" encoding="UTF-8" standalone="no"?>
<!-- Created with Inkscape (http://www.inkscape.org/) -->

<svg
   xmlns:ns0="http://www.iki.fi/pav/software/textext/"
   xmlns:dc="http://purl.org/dc/elements/1.1/"
   xmlns:cc="http://creativecommons.org/ns#"
   xmlns:rdf="http://www.w3.org/1999/02/22-rdf-syntax-ns#"
   xmlns:svg="http://www.w3.org/2000/svg"
   xmlns="http://www.w3.org/2000/svg"
   xmlns:sodipodi="http://sodipodi.sourceforge.net/DTD/sodipodi-0.dtd"
   xmlns:inkscape="http://www.inkscape.org/namespaces/inkscape"
   width="248.03149"
   height="141.73228"
   id="svg4992"
   version="1.1"
   inkscape:version="0.48.4 r9939"
   sodipodi:docname="New document 18">
  <sodipodi:namedview
     id="base"
     pagecolor="#ffffff"
     bordercolor="#666666"
     borderopacity="1.0"
     inkscape:pageopacity="0.0"
     inkscape:pageshadow="2"
     inkscape:zoom="2.8"
     inkscape:cx="125.02889"
     inkscape:cy="54.799228"
     inkscape:document-units="px"
     inkscape:current-layer="layer1"
     showgrid="false"
     units="cm"
     inkscape:window-width="1024"
     inkscape:window-height="744"
     inkscape:window-x="0"
     inkscape:window-y="24"
     inkscape:window-maximized="1" />
  <defs
     id="defs4994">
    <marker
       style="overflow:visible"
       id="Arrow1Mstart"
       refX="0"
       refY="0"
       orient="auto"
       inkscape:stockid="Arrow1Mstart">
      <path
         transform="matrix(0.4,0,0,0.4,4,0)"
         style="fill-rule:evenodd;stroke:#000000;stroke-width:1pt"
         d="M 0,0 5,-5 -12.5,0 5,5 0,0 z"
         id="path4085"
         inkscape:connector-curvature="0" />
    </marker>
    <inkscape:path-effect
       is_visible="true"
       id="path-effect3245-6-7"
       effect="spiro" />
    <inkscape:path-effect
       is_visible="true"
       id="path-effect3245-1"
       effect="spiro" />
    <inkscape:path-effect
       is_visible="true"
       id="path-effect3245-62"
       effect="spiro" />
    <inkscape:path-effect
       is_visible="true"
       id="path-effect3245-6"
       effect="spiro" />
    <inkscape:path-effect
       is_visible="true"
       id="path-effect3245"
       effect="spiro" />
  </defs>
  <metadata
     id="metadata4997">
    <rdf:RDF>
      <cc:Work
         rdf:about="">
        <dc:format>image/svg+xml</dc:format>
        <dc:type
           rdf:resource="http://purl.org/dc/dcmitype/StillImage" />
        <dc:title></dc:title>
      </cc:Work>
    </rdf:RDF>
  </metadata>
  <g
     inkscape:label="Layer 1"
     inkscape:groupmode="layer"
     id="layer1"
     transform="translate(0,-910.62859)">
    <path
       inkscape:connector-curvature="0"
       inkscape:original-d="m 37.77452,945.10975 0,49.09293"
       inkscape:path-effect="#path-effect3245"
       id="path3243"
       d="m 37.77452,945.10975 0,49.09293"
       style="fill:none;stroke:#000000;stroke-width:1.26760995px;stroke-linecap:butt;stroke-linejoin:miter;stroke-opacity:1" />
    <path
       inkscape:connector-curvature="0"
       inkscape:original-d="m 104.04181,945.44584 0,49.09288"
       inkscape:path-effect="#path-effect3245-6"
       id="path3243-0"
       d="m 104.04181,945.44584 0,49.09288"
       style="fill:none;stroke:#000000;stroke-width:1.26760995px;stroke-linecap:butt;stroke-linejoin:miter;stroke-opacity:1" />
    <path
       inkscape:connector-curvature="0"
       inkscape:original-d="m 104.79579,945.65524 -67.631829,0"
       inkscape:path-effect="#path-effect3245-62"
       id="path3243-6"
       d="m 104.79579,945.65524 -67.631829,0"
       style="fill:none;stroke:#000000;stroke-width:1.26760995px;stroke-linecap:butt;stroke-linejoin:miter;stroke-opacity:1" />
    <path
       inkscape:connector-curvature="0"
       inkscape:original-d="m 104.62071,994.02638 -67.631837,0"
       inkscape:path-effect="#path-effect3245-1"
       id="path3243-8"
       d="m 104.62071,994.02638 -67.631837,0"
       style="fill:none;stroke:#000000;stroke-width:1.26760995px;stroke-linecap:butt;stroke-linejoin:miter;stroke-opacity:1" />
    <path
       inkscape:connector-curvature="0"
       inkscape:original-d="m 149.30229,970.46997 -45.45687,0"
       inkscape:path-effect="#path-effect3245-6-7"
       id="path3243-0-9"
       d="m 149.30229,970.46997 -45.45687,0"
       style="fill:none;stroke:#000000;stroke-width:1.25;stroke-linecap:butt;stroke-linejoin:miter;stroke-miterlimit:4;stroke-opacity:1;stroke-dasharray:none;marker-start:url(#Arrow1Mstart)" />
    <g
       id="content"
       transform="matrix(1.2,0,0,-1.2,-113.81546,1545.5654)"
       xml:space="preserve"
       stroke-miterlimit="10.433"
       font-style="normal"
       font-variant="normal"
       font-weight="normal"
       font-stretch="normal"
       font-size-adjust="none"
       letter-spacing="normal"
       word-spacing="normal"
       ns0:text="$x_1, x_2, \\ldots, x_n$"
       ns0:preamble="/home/sriranga/Desktop/article23/figure/package.tex"
       style="font-style:normal;font-variant:normal;font-weight:normal;font-stretch:normal;letter-spacing:normal;word-spacing:normal;text-anchor:start;fill:none;stroke:#000000;stroke-linecap:butt;stroke-linejoin:miter;stroke-miterlimit:10.43299961;stroke-opacity:1;stroke-dasharray:none;stroke-dashoffset:0"><path
         style="fill:#000000;stroke-width:0"
         inkscape:connector-curvature="0"
         d="m 227.93,478.34 -0.01,-0.02 -0.02,-0.01 -0.01,-0.02 -0.02,-0.02 -0.01,-0.01 -0.01,-0.02 -0.01,-0.01 -0.02,-0.02 -0.01,-0.01 -0.01,-0.02 -0.01,-0.01 -0.02,-0.02 -0.01,-0.01 0,-0.01 -0.01,-0.01 -0.01,-0.01 0,-0.01 -0.01,-0.01 -0.01,-0.01 -0.01,-0.01 c -0.23,-0.3 -0.35,-0.4 -0.46,-0.4 -0.15,0 -0.24,0.13 -0.3,0.41 -0.02,0.08 -0.04,0.14 -0.05,0.17 -0.24,1 -0.35,1.46 -0.35,1.61 0.43,0.76 0.79,1.2 0.97,1.2 0.06,0 0.14,-0.03 0.24,-0.08 0.12,-0.07 0.19,-0.09 0.27,-0.09 0.21,0 0.35,0.15 0.35,0.36 0,0.21 -0.17,0.37 -0.41,0.37 -0.44,0 -0.82,-0.36 -1.5,-1.42 l -0.11,0.54 c -0.14,0.68 -0.25,0.88 -0.52,0.88 -0.22,0 -0.56,-0.09 -1.16,-0.29 l -0.11,-0.04 0.04,-0.15 c 0.38,0.09 0.46,0.11 0.55,0.11 0.25,0 0.31,-0.09 0.45,-0.69 l 0.29,-1.22 -0.82,-1.16 c -0.2,-0.3 -0.39,-0.48 -0.5,-0.48 -0.06,0 -0.16,0.03 -0.26,0.09 -0.13,0.07 -0.24,0.1 -0.32,0.1 -0.19,0 -0.34,-0.15 -0.34,-0.35 0,-0.25 0.2,-0.41 0.5,-0.41 0.31,0 0.43,0.08 0.92,0.69 0.27,0.32 0.48,0.59 0.9,1.16 l 0.3,-1.19 c 0.13,-0.5 0.26,-0.66 0.57,-0.66 0.38,0 0.64,0.23 1.22,1.13 z"
         id="path4763" /><path
         style="fill:#000000;stroke-width:0"
         inkscape:connector-curvature="0"
         d="m 230.38,480.44 -1.25,-0.63 v -0.1 c 0.08,0.04 0.16,0.06 0.19,0.08 0.12,0.05 0.24,0.07 0.31,0.07 0.14,0 0.21,-0.1 0.21,-0.32 v -3.15 c 0,-0.23 -0.06,-0.39 -0.17,-0.45 -0.1,-0.07 -0.2,-0.09 -0.49,-0.09 v -0.11 h 1.92 v 0.11 c -0.55,0 -0.66,0.07 -0.66,0.41 v 4.17 z"
         id="path4765" /><path
         style="fill:#000000;stroke-width:0"
         inkscape:connector-curvature="0"
         d="m 234.28,477.3 0,0.03 0,0.04 0,0.04 -0.01,0.03 0,0.04 -0.01,0.03 0,0.03 -0.01,0.03 0,0.03 -0.01,0.03 -0.01,0.03 -0.01,0.03 0,0.03 -0.01,0.02 -0.01,0.03 -0.01,0.02 -0.02,0.03 -0.01,0.02 -0.02,0.04 -0.03,0.04 -0.03,0.04 -0.02,0.03 -0.03,0.03 -0.04,0.03 -0.03,0.03 -0.03,0.02 -0.03,0.03 -0.04,0.02 -0.03,0.01 -0.04,0.02 -0.03,0.01 -0.03,0.01 -0.03,0.01 -0.04,0.01 -0.03,0.01 -0.03,0.01 -0.03,0 -0.02,0 -0.03,0.01 -0.02,0 -0.03,0 c -0.25,0 -0.57,-0.15 -0.57,-0.58 0,-0.4 0.35,-0.5 0.61,-0.5 0.07,0 0.12,0.01 0.15,0.03 0.04,0 0.07,0.01 0.09,0.01 0.07,0 0.14,-0.04 0.14,-0.13 0,-0.19 -0.16,-0.64 -0.82,-1.06 l 0.09,-0.19 c 0.3,0.1 1.12,0.76 1.12,1.47 z"
         id="path4767" /><path
         style="fill:#000000;stroke-width:0"
         inkscape:connector-curvature="0"
         d="m 240.99,478.34 -0.02,-0.02 -0.01,-0.01 -0.01,-0.02 -0.02,-0.02 -0.01,-0.01 -0.01,-0.02 -0.02,-0.01 -0.01,-0.02 -0.01,-0.01 -0.01,-0.02 -0.02,-0.01 -0.01,-0.02 -0.01,-0.01 0,-0.01 -0.01,-0.01 -0.01,-0.01 -0.01,-0.01 0,-0.01 -0.01,-0.01 -0.01,-0.01 c -0.23,-0.3 -0.35,-0.4 -0.46,-0.4 -0.15,0 -0.24,0.13 -0.31,0.41 -0.02,0.08 -0.03,0.14 -0.04,0.17 -0.25,1 -0.36,1.46 -0.36,1.61 0.44,0.76 0.8,1.2 0.98,1.2 0.06,0 0.14,-0.03 0.24,-0.08 0.12,-0.07 0.19,-0.09 0.27,-0.09 0.21,0 0.34,0.15 0.34,0.36 0,0.21 -0.16,0.37 -0.4,0.37 -0.44,0 -0.82,-0.36 -1.51,-1.42 l -0.1,0.54 c -0.14,0.68 -0.25,0.88 -0.52,0.88 -0.22,0 -0.56,-0.09 -1.17,-0.29 l -0.11,-0.04 0.04,-0.15 c 0.38,0.09 0.47,0.11 0.56,0.11 0.25,0 0.31,-0.09 0.45,-0.69 l 0.29,-1.22 -0.82,-1.16 c -0.2,-0.3 -0.4,-0.48 -0.51,-0.48 -0.06,0 -0.15,0.03 -0.25,0.09 -0.13,0.07 -0.24,0.1 -0.32,0.1 -0.19,0 -0.34,-0.15 -0.34,-0.35 0,-0.25 0.2,-0.41 0.5,-0.41 0.3,0 0.43,0.08 0.92,0.69 0.27,0.32 0.48,0.59 0.9,1.16 l 0.3,-1.19 c 0.12,-0.5 0.26,-0.66 0.57,-0.66 0.38,0 0.64,0.23 1.22,1.13 z"
         id="path4769" /><path
         style="fill:#000000;stroke-width:0"
         inkscape:connector-curvature="0"
         d="m 244.72,476.69 -0.09,0.04 c -0.26,-0.4 -0.35,-0.46 -0.66,-0.46 h -1.67 l 1.17,1.22 c 0.62,0.65 0.89,1.18 0.89,1.72 0,0.7 -0.56,1.23 -1.28,1.23 -0.39,0 -0.75,-0.15 -1.01,-0.43 -0.22,-0.24 -0.33,-0.46 -0.44,-0.95 l 0.14,-0.04 c 0.28,0.68 0.53,0.91 1.01,0.91 0.59,0 0.98,-0.4 0.98,-0.98 0,-0.55 -0.31,-1.19 -0.9,-1.81 l -1.24,-1.32 v -0.08 h 2.72 z"
         id="path4771" /><path
         style="fill:#000000;stroke-width:0"
         inkscape:connector-curvature="0"
         d="m 247.34,477.3 0,0.03 -0.01,0.04 0,0.04 0,0.03 0,0.04 -0.01,0.03 0,0.03 -0.01,0.03 -0.01,0.03 0,0.03 -0.01,0.03 -0.01,0.03 -0.01,0.03 -0.01,0.02 -0.01,0.03 -0.01,0.02 -0.01,0.03 -0.01,0.02 -0.02,0.04 -0.03,0.04 -0.03,0.04 -0.03,0.03 -0.03,0.03 -0.03,0.03 -0.03,0.03 -0.03,0.02 -0.04,0.03 -0.03,0.02 -0.03,0.01 -0.04,0.02 -0.03,0.01 -0.03,0.01 -0.04,0.01 -0.03,0.01 -0.03,0.01 -0.03,0.01 -0.03,0 -0.03,0 -0.02,0.01 -0.03,0 -0.02,0 c -0.25,0 -0.58,-0.15 -0.58,-0.58 0,-0.4 0.36,-0.5 0.62,-0.5 0.07,0 0.12,0.01 0.15,0.03 0.04,0 0.07,0.01 0.09,0.01 0.07,0 0.14,-0.04 0.14,-0.13 0,-0.19 -0.16,-0.64 -0.82,-1.06 l 0.09,-0.19 c 0.3,0.1 1.12,0.76 1.12,1.47 z"
         id="path4773" /><path
         style="fill:#000000;stroke-width:0"
         inkscape:connector-curvature="0"
         d="m 251.35,477.66 0,0.03 0,0.03 -0.01,0.03 0,0.02 -0.01,0.03 0,0.03 -0.01,0.02 -0.01,0.03 -0.02,0.03 -0.01,0.02 -0.01,0.02 -0.02,0.03 -0.01,0.02 -0.02,0.02 -0.02,0.02 -0.02,0.02 -0.02,0.02 -0.02,0.02 -0.02,0.01 -0.02,0.02 -0.02,0.01 -0.02,0.02 -0.03,0.01 -0.02,0.01 -0.03,0.01 -0.02,0.01 -0.03,0.01 -0.03,0.01 -0.02,0 -0.03,0.01 -0.03,0 -0.03,0 c -0.3,0 -0.54,-0.25 -0.54,-0.57 0,-0.37 0.34,-0.53 0.54,-0.53 0.21,0 0.56,0.17 0.56,0.53 z"
         id="path4775" /><path
         style="fill:#000000;stroke-width:0"
         inkscape:connector-curvature="0"
         d="m 255.5,477.66 0,0.03 -0.01,0.03 0,0.03 -0.01,0.02 0,0.03 -0.01,0.03 -0.01,0.02 -0.01,0.03 -0.01,0.03 -0.01,0.02 -0.02,0.02 -0.01,0.03 -0.02,0.02 -0.01,0.02 -0.02,0.02 -0.02,0.02 -0.02,0.02 -0.02,0.02 -0.02,0.01 -0.02,0.02 -0.03,0.01 -0.02,0.02 -0.02,0.01 -0.03,0.01 -0.02,0.01 -0.03,0.01 -0.03,0.01 -0.02,0.01 -0.03,0 -0.03,0.01 -0.02,0 -0.03,0 c -0.3,0 -0.55,-0.25 -0.55,-0.57 0,-0.37 0.34,-0.53 0.55,-0.53 0.21,0 0.56,0.17 0.56,0.53 z"
         id="path4777" /><path
         style="fill:#000000;stroke-width:0"
         inkscape:connector-curvature="0"
         d="m 259.65,477.66 0,0.03 0,0.03 -0.01,0.03 0,0.02 -0.01,0.03 -0.01,0.03 0,0.02 -0.02,0.03 -0.01,0.03 -0.01,0.02 -0.01,0.02 -0.02,0.03 -0.01,0.02 -0.02,0.02 -0.02,0.02 -0.02,0.02 -0.02,0.02 -0.02,0.02 -0.02,0.01 -0.02,0.02 -0.02,0.01 -0.03,0.02 -0.02,0.01 -0.02,0.01 -0.03,0.01 -0.02,0.01 -0.03,0.01 -0.03,0.01 -0.02,0 -0.03,0.01 -0.03,0 -0.03,0 c -0.3,0 -0.54,-0.25 -0.54,-0.57 0,-0.37 0.33,-0.53 0.54,-0.53 0.21,0 0.56,0.17 0.56,0.53 z"
         id="path4779" /><path
         style="fill:#000000;stroke-width:0"
         inkscape:connector-curvature="0"
         d="m 263.94,477.3 0,0.03 0,0.04 0,0.04 0,0.03 -0.01,0.04 0,0.03 -0.01,0.03 0,0.03 -0.01,0.03 0,0.03 -0.01,0.03 -0.01,0.03 -0.01,0.03 -0.01,0.02 -0.01,0.03 -0.01,0.02 -0.01,0.03 -0.01,0.02 -0.03,0.04 -0.02,0.04 -0.03,0.04 -0.03,0.03 -0.03,0.03 -0.03,0.03 -0.03,0.03 -0.04,0.02 -0.03,0.03 -0.03,0.02 -0.04,0.01 -0.03,0.02 -0.03,0.01 -0.04,0.01 -0.03,0.01 -0.03,0.01 -0.03,0.01 -0.03,0.01 -0.03,0 -0.03,0 -0.03,0.01 -0.02,0 -0.02,0 c -0.25,0 -0.58,-0.15 -0.58,-0.58 0,-0.4 0.36,-0.5 0.62,-0.5 0.07,0 0.12,0.01 0.15,0.03 0.04,0 0.07,0.01 0.09,0.01 0.07,0 0.14,-0.04 0.14,-0.13 0,-0.19 -0.16,-0.64 -0.82,-1.06 l 0.09,-0.19 c 0.3,0.1 1.11,0.76 1.11,1.47 z"
         id="path4781" /><path
         style="fill:#000000;stroke-width:0"
         inkscape:connector-curvature="0"
         d="m 270.65,478.34 -0.01,-0.02 -0.02,-0.01 -0.01,-0.02 -0.02,-0.02 -0.01,-0.01 -0.01,-0.02 -0.01,-0.01 -0.02,-0.02 -0.01,-0.01 -0.01,-0.02 -0.01,-0.01 -0.02,-0.02 -0.01,-0.01 0,-0.01 -0.01,-0.01 -0.01,-0.01 0,-0.01 -0.01,-0.01 -0.01,-0.01 -0.01,-0.01 c -0.23,-0.3 -0.35,-0.4 -0.46,-0.4 -0.15,0 -0.24,0.13 -0.3,0.41 -0.03,0.08 -0.03,0.14 -0.05,0.17 -0.24,1 -0.35,1.46 -0.35,1.61 0.43,0.76 0.79,1.2 0.97,1.2 0.06,0 0.14,-0.03 0.24,-0.08 0.12,-0.07 0.19,-0.09 0.27,-0.09 0.21,0 0.35,0.15 0.35,0.36 0,0.21 -0.17,0.37 -0.41,0.37 -0.44,0 -0.82,-0.36 -1.5,-1.42 l -0.11,0.54 c -0.14,0.68 -0.25,0.88 -0.52,0.88 -0.22,0 -0.56,-0.09 -1.16,-0.29 l -0.11,-0.04 0.04,-0.15 c 0.37,0.09 0.46,0.11 0.55,0.11 0.25,0 0.31,-0.09 0.45,-0.69 l 0.29,-1.22 -0.82,-1.16 c -0.19,-0.3 -0.39,-0.48 -0.5,-0.48 -0.06,0 -0.16,0.03 -0.26,0.09 -0.13,0.07 -0.24,0.1 -0.32,0.1 -0.19,0 -0.34,-0.15 -0.34,-0.35 0,-0.25 0.2,-0.41 0.5,-0.41 0.31,0 0.43,0.08 0.92,0.69 0.27,0.32 0.48,0.59 0.9,1.16 l 0.3,-1.19 c 0.13,-0.5 0.26,-0.66 0.58,-0.66 0.37,0 0.63,0.23 1.21,1.13 z"
         id="path4783" /><path
         style="fill:#000000;stroke-width:0"
         inkscape:connector-curvature="0"
         d="m 274.28,476.55 -0.15,-0.18 c -0.2,-0.25 -0.33,-0.36 -0.42,-0.36 -0.06,0 -0.12,0.05 -0.12,0.11 0,0.05 0,0.05 0.1,0.43 l 0.4,1.44 c 0.03,0.14 0.06,0.3 0.06,0.39 0,0.25 -0.19,0.43 -0.46,0.43 -0.44,0 -0.88,-0.42 -1.6,-1.53 l 0.47,1.51 -0.02,0.02 c -0.38,-0.08 -0.53,-0.11 -1.13,-0.22 v -0.11 c 0.35,-0.01 0.44,-0.05 0.44,-0.19 0,-0.04 0,-0.08 -0.01,-0.12 l -0.67,-2.43 h 0.52 c 0.33,1.1 0.39,1.25 0.7,1.73 0.42,0.64 0.77,0.98 1.03,0.98 0.1,0 0.17,-0.07 0.17,-0.2 0,-0.08 -0.04,-0.31 -0.1,-0.53 l -0.31,-1.14 c -0.09,-0.36 -0.11,-0.46 -0.11,-0.53 0,-0.26 0.1,-0.37 0.33,-0.37 0.31,0 0.49,0.14 0.97,0.78 z"
         id="path4785" /></g>    <g
       id="g5147"
       transform="matrix(1.2,0,0,-1.2,-203.64986,1535.4279)"
       xml:space="preserve"
       stroke-miterlimit="10.433"
       font-style="normal"
       font-variant="normal"
       font-weight="normal"
       font-stretch="normal"
       font-size-adjust="none"
       letter-spacing="normal"
       word-spacing="normal"
       ns0:text="$X$"
       ns0:preamble="/home/sriranga/Desktop/article23/figure/package.tex"
       style="font-style:normal;font-variant:normal;font-weight:normal;font-stretch:normal;letter-spacing:normal;word-spacing:normal;text-anchor:start;fill:none;stroke:#000000;stroke-linecap:butt;stroke-linejoin:miter;stroke-miterlimit:10.43299961;stroke-opacity:1;stroke-dasharray:none;stroke-dashoffset:0"><path
         d="m 230.2,483.72 h -2.07 v -0.16 c 0.49,-0.06 0.61,-0.13 0.61,-0.36 0,-0.12 -0.06,-0.24 -0.2,-0.4 l -1.45,-1.66 -0.58,1.46 c -0.11,0.26 -0.15,0.43 -0.15,0.56 0,0.24 0.16,0.33 0.7,0.4 v 0.16 h -2.62 v -0.16 c 0.57,-0.05 0.72,-0.15 0.91,-0.6 l 1.06,-2.62 c -0.37,-0.41 -0.7,-0.8 -0.83,-0.96 -1.38,-1.63 -1.66,-1.88 -2.19,-1.99 v -0.16 h 2.13 v 0.16 c -0.48,0 -0.64,0.09 -0.64,0.34 0,0.15 0.07,0.32 0.2,0.47 l 1.51,1.71 0.66,-1.64 c 0.07,-0.18 0.11,-0.34 0.11,-0.49 0,-0.29 -0.1,-0.34 -0.75,-0.39 v -0.16 h 2.71 v 0.16 c -0.69,0.08 -0.78,0.14 -1.03,0.74 l -1.02,2.56 1.68,1.93 c 0.52,0.58 0.82,0.8 1.25,0.94 z"
         id="path5149"
         inkscape:connector-curvature="0"
         style="fill:#000000;stroke-width:0" /></g>    <g
       style="font-style:normal;font-variant:normal;font-weight:normal;font-stretch:normal;letter-spacing:normal;word-spacing:normal;text-anchor:start;fill:none;stroke:#000000;stroke-linecap:butt;stroke-linejoin:miter;stroke-miterlimit:10.43299961;stroke-opacity:1;stroke-dasharray:none;stroke-dashoffset:0"
       ns0:preamble="/home/sriranga/Desktop/article23/figure/package.tex"
       ns0:text="$p_x (x,\\theta)$"
       word-spacing="normal"
       letter-spacing="normal"
       font-size-adjust="none"
       font-stretch="normal"
       font-weight="normal"
       font-variant="normal"
       font-style="normal"
       stroke-miterlimit="10.433"
       xml:space="preserve"
       transform="matrix(1.2,0,0,-1.2,-215.36829,1551.4308)"
       id="g5234"><path
         id="path5236"
         d="m 224.74,481.25 h 0.22 c 0,0 0.03,0 0.03,0.01 0.13,0.06 0.39,-0.13 0.39,-0.28 0,-0.09 -0.36,-1.5 -0.7,-2.81 -0.27,-1 -0.51,-1.94 -0.58,-2.23 -0.11,-0.45 -0.24,-0.57 -0.67,-0.58 v -0.16 h 2.04 v 0.15 c -0.46,0 -0.63,0.09 -0.63,0.3 0,0.14 0.17,0.91 0.36,1.65 0.25,-0.13 0.43,-0.17 0.66,-0.17 l -0.04,0.18 c -0.28,0 -0.48,0.15 -0.48,0.37 0,0.34 0.36,1.64 0.65,2.38 0.27,0.67 0.85,1.16 1.34,1.13 h 0 c 0.43,-0.02 0.62,-0.28 0.62,-0.86 0,-0.65 -0.29,-1.51 -0.72,-2.12 -0.41,-0.59 -0.89,-0.9 -1.41,-0.9 l 0.04,-0.18 c 1.45,0 2.99,1.67 2.99,3.24 0,0.78 -0.44,1.25 -1.15,1.25 -0.65,0 -1.12,-0.32 -1.7,-1.13 l 0.29,1 0.03,0.09 c 0,0 -0.01,0.01 -0.02,0.03 l -0.02,0.01 c 0,0.01 -0.01,0.01 -0.01,0.01 l -0.02,-0.01 -1.53,-0.22 z"
         inkscape:connector-curvature="0"
         style="fill:#000000;stroke-width:0" /><path
         id="path5238"
         d="m 232.31,476.51 -0.01,-0.01 -0.01,-0.01 -0.01,-0.01 -0.01,-0.01 -0.01,-0.01 -0.01,-0.01 -0.01,-0.01 -0.01,-0.01 0,-0.01 -0.01,-0.02 -0.01,-0.01 -0.01,-0.01 -0.01,-0.01 0,0 -0.01,-0.01 0,-0.01 -0.01,0 0,-0.01 -0.01,-0.01 -0.01,0 c -0.16,-0.21 -0.24,-0.28 -0.31,-0.28 -0.11,0 -0.17,0.09 -0.22,0.28 -0.02,0.06 -0.02,0.1 -0.03,0.12 -0.17,0.7 -0.25,1.02 -0.25,1.13 0.31,0.53 0.56,0.84 0.68,0.84 0.05,0 0.1,-0.02 0.17,-0.06 0.08,-0.05 0.13,-0.06 0.19,-0.06 0.14,0 0.24,0.1 0.24,0.25 0,0.15 -0.12,0.26 -0.28,0.26 -0.31,0 -0.58,-0.25 -1.05,-1 l -0.08,0.39 c -0.1,0.47 -0.18,0.61 -0.36,0.61 -0.16,0 -0.39,-0.07 -0.82,-0.2 l -0.07,-0.03 0.02,-0.11 c 0.27,0.07 0.33,0.08 0.39,0.08 0.18,0 0.22,-0.06 0.32,-0.48 l 0.2,-0.86 -0.57,-0.81 c -0.14,-0.21 -0.28,-0.33 -0.36,-0.33 -0.04,0 -0.11,0.02 -0.18,0.06 -0.09,0.05 -0.17,0.07 -0.22,0.07 -0.13,0 -0.24,-0.1 -0.24,-0.24 0,-0.18 0.14,-0.3 0.35,-0.3 0.21,0 0.3,0.07 0.65,0.49 0.19,0.22 0.33,0.41 0.62,0.81 l 0.21,-0.83 c 0.09,-0.35 0.18,-0.47 0.41,-0.47 0.26,0 0.44,0.17 0.85,0.8 z"
         inkscape:connector-curvature="0"
         style="fill:#000000;stroke-width:0" /><path
         id="path5240"
         d="m 236.06,483.95 -0.07,-0.04 -0.06,-0.05 -0.07,-0.04 -0.06,-0.04 -0.05,-0.04 -0.06,-0.04 -0.06,-0.04 -0.05,-0.03 -0.05,-0.04 -0.05,-0.04 -0.04,-0.03 -0.05,-0.04 -0.04,-0.03 -0.05,-0.04 -0.08,-0.06 -0.08,-0.07 -0.07,-0.07 -0.07,-0.07 -0.07,-0.07 -0.07,-0.07 -0.07,-0.08 -0.06,-0.08 -0.07,-0.08 c -0.71,-0.87 -1.06,-1.86 -1.06,-3.02 0,-1.26 0.37,-2.24 1.25,-3.25 0.4,-0.48 0.66,-0.69 1.18,-1.01 l 0.12,0.16 c -0.8,0.62 -1.08,0.97 -1.34,1.71 -0.24,0.67 -0.35,1.42 -0.35,2.42 0,1.04 0.13,1.86 0.4,2.47 0.27,0.62 0.57,0.97 1.29,1.55 z"
         inkscape:connector-curvature="0"
         style="fill:#000000;stroke-width:0" /><path
         id="path5242"
         d="m 240.94,478.34 -0.01,-0.02 -0.02,-0.01 -0.01,-0.02 -0.02,-0.02 -0.01,-0.01 -0.01,-0.02 -0.01,-0.01 -0.02,-0.02 -0.01,-0.01 -0.01,-0.02 -0.01,-0.01 -0.02,-0.02 -0.01,-0.01 0,-0.01 -0.01,-0.01 -0.01,-0.01 0,-0.01 -0.01,-0.01 -0.01,-0.01 -0.01,-0.01 c -0.23,-0.3 -0.35,-0.4 -0.46,-0.4 -0.15,0 -0.24,0.13 -0.3,0.41 -0.03,0.08 -0.03,0.14 -0.05,0.17 -0.24,1 -0.35,1.46 -0.35,1.61 0.43,0.76 0.79,1.2 0.97,1.2 0.06,0 0.14,-0.03 0.24,-0.08 0.12,-0.07 0.19,-0.09 0.27,-0.09 0.21,0 0.35,0.15 0.35,0.36 0,0.21 -0.17,0.37 -0.41,0.37 -0.44,0 -0.82,-0.36 -1.5,-1.42 l -0.11,0.54 c -0.14,0.68 -0.25,0.88 -0.52,0.88 -0.22,0 -0.56,-0.09 -1.16,-0.29 l -0.11,-0.04 0.04,-0.15 c 0.37,0.09 0.46,0.11 0.55,0.11 0.25,0 0.31,-0.09 0.45,-0.69 l 0.29,-1.22 -0.82,-1.16 c -0.19,-0.3 -0.39,-0.48 -0.5,-0.48 -0.06,0 -0.16,0.03 -0.26,0.09 -0.13,0.07 -0.24,0.1 -0.32,0.1 -0.19,0 -0.34,-0.15 -0.34,-0.35 0,-0.25 0.2,-0.41 0.5,-0.41 0.31,0 0.43,0.08 0.92,0.69 0.27,0.32 0.48,0.59 0.9,1.16 l 0.3,-1.19 c 0.13,-0.5 0.26,-0.66 0.58,-0.66 0.37,0 0.63,0.23 1.21,1.13 z"
         inkscape:connector-curvature="0"
         style="fill:#000000;stroke-width:0" /><path
         id="path5244"
         d="m 243.33,477.3 0,0.03 0,0.04 0,0.04 0,0.03 -0.01,0.04 0,0.03 -0.01,0.03 0,0.03 -0.01,0.03 0,0.03 -0.01,0.03 -0.01,0.03 -0.01,0.03 -0.01,0.02 -0.01,0.03 -0.01,0.02 -0.01,0.03 -0.01,0.02 -0.03,0.04 -0.02,0.04 -0.03,0.04 -0.03,0.03 -0.03,0.03 -0.03,0.03 -0.03,0.03 -0.04,0.02 -0.03,0.03 -0.03,0.02 -0.04,0.01 -0.03,0.02 -0.03,0.01 -0.04,0.01 -0.03,0.01 -0.03,0.01 -0.03,0.01 -0.03,0.01 -0.03,0 -0.03,0 -0.03,0.01 -0.02,0 -0.02,0 c -0.25,0 -0.58,-0.15 -0.58,-0.58 0,-0.4 0.36,-0.5 0.62,-0.5 0.07,0 0.12,0.01 0.15,0.03 0.04,0 0.07,0.01 0.09,0.01 0.07,0 0.14,-0.04 0.14,-0.13 0,-0.19 -0.16,-0.64 -0.82,-1.06 l 0.09,-0.19 c 0.3,0.1 1.11,0.76 1.11,1.47 z"
         inkscape:connector-curvature="0"
         style="fill:#000000;stroke-width:0" /><path
         id="path5246"
         d="m 250.05,482.03 0,0.01 0,0.02 0,0.01 0,0.01 0,0.02 0,0.02 0,0.04 0,0.05 0,0.05 -0.01,0.06 -0.01,0.06 -0.01,0.07 -0.01,0.07 -0.01,0.07 -0.01,0.07 -0.02,0.07 -0.02,0.08 -0.03,0.07 -0.02,0.08 -0.03,0.07 -0.04,0.08 -0.03,0.07 -0.05,0.07 -0.04,0.06 -0.05,0.07 -0.03,0.03 -0.03,0.03 -0.03,0.03 -0.03,0.02 -0.03,0.03 -0.04,0.03 -0.03,0.02 -0.04,0.02 -0.03,0.02 -0.04,0.02 -0.04,0.02 -0.05,0.02 -0.04,0.01 -0.04,0.01 -0.05,0.02 -0.05,0.01 -0.05,0 -0.05,0.01 -0.05,0 -0.06,0 -0.01,-0.21 c 0.4,0 0.56,-0.35 0.56,-0.91 h 0 c 0,-0.54 -0.14,-1.27 -0.34,-2.08 h -2.16 c 0.36,1.44 0.99,2.99 1.94,2.99 l 0.01,0.21 c -1.76,0 -3.01,-2.76 -3.01,-4.67 0,-0.36 0.06,-1.93 1.32,-1.93 l 0.14,0.21 c -0.55,0 -0.75,0.48 -0.75,1.15 0,0.48 0.11,1.08 0.25,1.68 h 2.16 c -0.31,-1.16 -0.66,-2.83 -1.66,-2.83 l -0.14,-0.21 c 1.98,0 2.89,3.37 2.89,4.9 z"
         inkscape:connector-curvature="0"
         style="fill:#000000;stroke-width:0" /><path
         id="path5248"
         d="m 250.44,475.48 0.06,0.04 0.07,0.04 0.06,0.05 0.06,0.04 0.06,0.04 0.06,0.03 0.05,0.04 0.05,0.04 0.05,0.04 0.05,0.03 0.05,0.04 0.05,0.03 0.04,0.04 0.04,0.03 0.09,0.07 0.07,0.07 0.08,0.07 0.07,0.07 0.07,0.07 0.07,0.07 0.06,0.08 0.07,0.08 0.07,0.08 c 0.7,0.86 1.05,1.86 1.05,3.02 0,1.27 -0.37,2.23 -1.24,3.25 -0.41,0.47 -0.67,0.69 -1.18,1.01 l -0.12,-0.16 c 0.79,-0.62 1.06,-0.97 1.34,-1.72 0.24,-0.66 0.35,-1.42 0.35,-2.41 0,-1.03 -0.13,-1.86 -0.4,-2.46 -0.28,-0.63 -0.58,-0.99 -1.29,-1.56 z"
         inkscape:connector-curvature="0"
         style="fill:#000000;stroke-width:0" /></g>  </g>
</svg>
