<?xml version="1.0" encoding="UTF-8" standalone="no"?>
<!-- Created with Inkscape (http://www.inkscape.org/) -->

<svg
   xmlns:ns0="http://www.iki.fi/pav/software/textext/"
   xmlns:dc="http://purl.org/dc/elements/1.1/"
   xmlns:cc="http://creativecommons.org/ns#"
   xmlns:rdf="http://www.w3.org/1999/02/22-rdf-syntax-ns#"
   xmlns:svg="http://www.w3.org/2000/svg"
   xmlns="http://www.w3.org/2000/svg"
   xmlns:sodipodi="http://sodipodi.sourceforge.net/DTD/sodipodi-0.dtd"
   xmlns:inkscape="http://www.inkscape.org/namespaces/inkscape"
   width="248.03149"
   height="141.73228"
   id="svg4599"
   version="1.1"
   inkscape:version="0.48.4 r9939"
   sodipodi:docname="New document 14">
  <sodipodi:namedview
     id="base"
     pagecolor="#ffffff"
     bordercolor="#666666"
     borderopacity="1.0"
     inkscape:pageopacity="0.0"
     inkscape:pageshadow="2"
     inkscape:zoom="2.8"
     inkscape:cx="143.91932"
     inkscape:cy="58.789785"
     inkscape:document-units="px"
     inkscape:current-layer="layer1"
     showgrid="false"
     units="cm"
     inkscape:window-width="1024"
     inkscape:window-height="744"
     inkscape:window-x="0"
     inkscape:window-y="24"
     inkscape:window-maximized="1" />
  <defs
     id="defs4601">
    <marker
       style="overflow:visible"
       id="Arrow1Mstart"
       refX="0"
       refY="0"
       orient="auto"
       inkscape:stockid="Arrow1Mstart">
      <path
         transform="matrix(0.4,0,0,0.4,4,0)"
         style="fill-rule:evenodd;stroke:#000000;stroke-width:1pt"
         d="M 0,0 5,-5 -12.5,0 5,5 0,0 z"
         id="path4085"
         inkscape:connector-curvature="0" />
    </marker>
    <inkscape:path-effect
       is_visible="true"
       id="path-effect3245-6-7"
       effect="spiro" />
    <inkscape:path-effect
       is_visible="true"
       id="path-effect3245-1"
       effect="spiro" />
    <inkscape:path-effect
       is_visible="true"
       id="path-effect3245-62"
       effect="spiro" />
    <inkscape:path-effect
       is_visible="true"
       id="path-effect3245-6"
       effect="spiro" />
    <inkscape:path-effect
       is_visible="true"
       id="path-effect3245"
       effect="spiro" />
  </defs>
  <metadata
     id="metadata4604">
    <rdf:RDF>
      <cc:Work
         rdf:about="">
        <dc:format>image/svg+xml</dc:format>
        <dc:type
           rdf:resource="http://purl.org/dc/dcmitype/StillImage" />
        <dc:title></dc:title>
      </cc:Work>
    </rdf:RDF>
  </metadata>
  <g
     inkscape:label="Layer 1"
     inkscape:groupmode="layer"
     id="layer1"
     transform="translate(0,-910.62859)">
    <path
       inkscape:connector-curvature="0"
       inkscape:original-d="m 32.29837,958.41718 0,50.40212"
       inkscape:path-effect="#path-effect3245"
       id="path3243"
       d="m 32.29837,958.41718 0,50.40212"
       style="fill:none;stroke:#000000;stroke-width:1.37803459px;stroke-linecap:butt;stroke-linejoin:miter;stroke-opacity:1" />
    <path
       inkscape:connector-curvature="0"
       inkscape:original-d="m 108.57972,958.76223 0,50.40207"
       inkscape:path-effect="#path-effect3245-6"
       id="path3243-0"
       d="m 108.57972,958.76223 0,50.40207"
       style="fill:none;stroke:#000000;stroke-width:1.37803459px;stroke-linecap:butt;stroke-linejoin:miter;stroke-opacity:1" />
    <path
       inkscape:connector-curvature="0"
       inkscape:original-d="m 109.44764,958.97722 -77.852095,0"
       inkscape:path-effect="#path-effect3245-62"
       id="path3243-6"
       d="m 109.44764,958.97722 -77.852095,0"
       style="fill:none;stroke:#000000;stroke-width:1.37803459px;stroke-linecap:butt;stroke-linejoin:miter;stroke-opacity:1" />
    <path
       inkscape:connector-curvature="0"
       inkscape:original-d="m 109.2461,1008.6383 -77.852102,0"
       inkscape:path-effect="#path-effect3245-1"
       id="path3243-8"
       d="m 109.2461,1008.6383 -77.852102,0"
       style="fill:none;stroke:#000000;stroke-width:1.37803459px;stroke-linecap:butt;stroke-linejoin:miter;stroke-opacity:1" />
    <path
       inkscape:connector-curvature="0"
       inkscape:original-d="m 154.00935,983.72219 -45.45687,0"
       inkscape:path-effect="#path-effect3245-6-7"
       id="path3243-0-9"
       d="m 154.00935,983.72219 -45.45687,0"
       style="fill:none;stroke:#000000;stroke-width:1.25;stroke-linecap:butt;stroke-linejoin:miter;stroke-miterlimit:4;stroke-opacity:1;stroke-dasharray:none;marker-start:url(#Arrow1Mstart)" />
    <g
       id="content"
       transform="matrix(1.2,0,0,-1.2,-109.10841,1558.8176)"
       xml:space="preserve"
       stroke="black"
       stroke-linecap="butt"
       stroke-linejoin="miter"
       stroke-miterlimit="10.433"
       stroke-dasharray="none"
       stroke-dashoffset="0"
       stroke-opacity="1"
       fill="none"
       fill-rule="evenodd"
       fill-opacity="1"
       font-style="normal"
       font-variant="normal"
       font-weight="normal"
       font-stretch="normal"
       font-size-adjust="none"
       letter-spacing="normal"
       word-spacing="normal"
       text-anchor="start"
       ns0:text="$x_1, x_2, \\ldots, x_n$"
       ns0:preamble="/home/sriranga/Desktop/article23/figure/package.tex"
       style="font-style:normal;font-variant:normal;font-weight:normal;font-stretch:normal;letter-spacing:normal;word-spacing:normal;text-anchor:start;fill:none;stroke:#000000;stroke-linecap:butt;stroke-linejoin:miter;stroke-miterlimit:10.43299961;stroke-opacity:1;stroke-dasharray:none;stroke-dashoffset:0"><path
         d="M227.93,478.34 L227.92,478.32 L227.9,478.31 L227.89,478.29 L227.87,478.27 L227.86,478.26 L227.85,478.24 L227.84,478.23 L227.82,478.21 L227.81,478.2 L227.8,478.18 L227.79,478.17 L227.77,478.15 L227.76,478.14 L227.76,478.13 L227.75,478.12 L227.74,478.11 L227.74,478.1 L227.73,478.09 L227.72,478.08 L227.71,478.07 C227.48,477.77,227.36,477.67,227.25,477.67 C227.1,477.67,227.01,477.8,226.95,478.08 C226.93,478.16,226.91,478.22,226.9,478.25 C226.66,479.25,226.55,479.71,226.55,479.86 C226.98,480.62,227.34,481.06,227.52,481.06 C227.58,481.06,227.66,481.03,227.76,480.98 C227.88,480.91,227.95,480.89,228.03,480.89 C228.24,480.89,228.38,481.04,228.38,481.25 C228.38,481.46,228.21,481.62,227.97,481.62 C227.53,481.62,227.15,481.26,226.47,480.2 L226.36,480.74 C226.22,481.42,226.11,481.62,225.84,481.62 C225.62,481.62,225.28,481.53,224.68,481.33 L224.57,481.29 L224.61,481.14 C224.99,481.23,225.07,481.25,225.16,481.25 C225.41,481.25,225.47,481.16,225.61,480.56 L225.9,479.34 L225.08,478.18 C224.88,477.88,224.69,477.7,224.58,477.7 C224.52,477.7,224.42,477.73,224.32,477.79 C224.19,477.86,224.08,477.89,224,477.89 C223.81,477.89,223.66,477.74,223.66,477.54 C223.66,477.29,223.86,477.13,224.16,477.13 C224.47,477.13,224.59,477.21,225.08,477.82 C225.35,478.14,225.56,478.41,225.98,478.98 L226.28,477.79 C226.41,477.29,226.54,477.13,226.85,477.13 C227.23,477.13,227.49,477.36,228.07,478.26 Z "
         stroke-width="0"
         fill="black"
         id="path4763" /><path
         d="M230.38,480.44 L229.13,479.81 V479.71 C229.21,479.75,229.29,479.77,229.32,479.79 C229.44,479.84,229.56,479.86,229.63,479.86 C229.77,479.86,229.84,479.76,229.84,479.54 V476.39 C229.84,476.16,229.78,476,229.67,475.94 C229.57,475.87,229.47,475.85,229.18,475.85 V475.74 H231.1 V475.85 C230.55,475.85,230.44,475.92,230.44,476.26 V480.43 Z "
         stroke-width="0"
         fill="black"
         id="path4765" /><path
         d="M234.28,477.3 L234.28,477.33 L234.28,477.37 L234.28,477.41 L234.27,477.44 L234.27,477.48 L234.26,477.51 L234.26,477.54 L234.25,477.57 L234.25,477.6 L234.24,477.63 L234.23,477.66 L234.22,477.69 L234.22,477.72 L234.21,477.74 L234.2,477.77 L234.19,477.79 L234.17,477.82 L234.16,477.84 L234.14,477.88 L234.11,477.92 L234.08,477.96 L234.06,477.99 L234.03,478.02 L233.99,478.05 L233.96,478.08 L233.93,478.1 L233.9,478.13 L233.86,478.15 L233.83,478.16 L233.79,478.18 L233.76,478.19 L233.73,478.2 L233.7,478.21 L233.66,478.22 L233.63,478.23 L233.6,478.24 L233.57,478.24 L233.55,478.24 L233.52,478.25 L233.5,478.25 L233.47,478.25 C233.22,478.25,232.9,478.1,232.9,477.67 C232.9,477.27,233.25,477.17,233.51,477.17 C233.58,477.17,233.63,477.18,233.66,477.2 C233.7,477.2,233.73,477.21,233.75,477.21 C233.82,477.21,233.89,477.17,233.89,477.08 C233.89,476.89,233.73,476.44,233.07,476.02 L233.16,475.83 C233.46,475.93,234.28,476.59,234.28,477.3 Z "
         stroke-width="0"
         fill="black"
         id="path4767" /><path
         d="M240.99,478.34 L240.97,478.32 L240.96,478.31 L240.95,478.29 L240.93,478.27 L240.92,478.26 L240.91,478.24 L240.89,478.23 L240.88,478.21 L240.87,478.2 L240.86,478.18 L240.84,478.17 L240.83,478.15 L240.82,478.14 L240.82,478.13 L240.81,478.12 L240.8,478.11 L240.79,478.1 L240.79,478.09 L240.78,478.08 L240.77,478.07 C240.54,477.77,240.42,477.67,240.31,477.67 C240.16,477.67,240.07,477.8,240,478.08 C239.98,478.16,239.97,478.22,239.96,478.25 C239.71,479.25,239.6,479.71,239.6,479.86 C240.04,480.62,240.4,481.06,240.58,481.06 C240.64,481.06,240.72,481.03,240.82,480.98 C240.94,480.91,241.01,480.89,241.09,480.89 C241.3,480.89,241.43,481.04,241.43,481.25 C241.43,481.46,241.27,481.62,241.03,481.62 C240.59,481.62,240.21,481.26,239.52,480.2 L239.42,480.74 C239.28,481.42,239.17,481.62,238.9,481.62 C238.68,481.62,238.34,481.53,237.73,481.33 L237.62,481.29 L237.66,481.14 C238.04,481.23,238.13,481.25,238.22,481.25 C238.47,481.25,238.53,481.16,238.67,480.56 L238.96,479.34 L238.14,478.18 C237.94,477.88,237.74,477.7,237.63,477.7 C237.57,477.7,237.48,477.73,237.38,477.79 C237.25,477.86,237.14,477.89,237.06,477.89 C236.87,477.89,236.72,477.74,236.72,477.54 C236.72,477.29,236.92,477.13,237.22,477.13 C237.52,477.13,237.65,477.21,238.14,477.82 C238.41,478.14,238.62,478.41,239.04,478.98 L239.34,477.79 C239.46,477.29,239.6,477.13,239.91,477.13 C240.29,477.13,240.55,477.36,241.13,478.26 Z "
         stroke-width="0"
         fill="black"
         id="path4769" /><path
         d="M244.72,476.69 L244.63,476.73 C244.37,476.33,244.28,476.27,243.97,476.27 H242.3 L243.47,477.49 C244.09,478.14,244.36,478.67,244.36,479.21 C244.36,479.91,243.8,480.44,243.08,480.44 C242.69,480.44,242.33,480.29,242.07,480.01 C241.85,479.77,241.74,479.55,241.63,479.06 L241.77,479.02 C242.05,479.7,242.3,479.93,242.78,479.93 C243.37,479.93,243.76,479.53,243.76,478.95 C243.76,478.4,243.45,477.76,242.86,477.14 L241.62,475.82 V475.74 H244.34 Z "
         stroke-width="0"
         fill="black"
         id="path4771" /><path
         d="M247.34,477.3 L247.34,477.33 L247.33,477.37 L247.33,477.41 L247.33,477.44 L247.33,477.48 L247.32,477.51 L247.32,477.54 L247.31,477.57 L247.3,477.6 L247.3,477.63 L247.29,477.66 L247.28,477.69 L247.27,477.72 L247.26,477.74 L247.25,477.77 L247.24,477.79 L247.23,477.82 L247.22,477.84 L247.2,477.88 L247.17,477.92 L247.14,477.96 L247.11,477.99 L247.08,478.02 L247.05,478.05 L247.02,478.08 L246.99,478.1 L246.95,478.13 L246.92,478.15 L246.89,478.16 L246.85,478.18 L246.82,478.19 L246.79,478.2 L246.75,478.21 L246.72,478.22 L246.69,478.23 L246.66,478.24 L246.63,478.24 L246.6,478.24 L246.58,478.25 L246.55,478.25 L246.53,478.25 C246.28,478.25,245.95,478.1,245.95,477.67 C245.95,477.27,246.31,477.17,246.57,477.17 C246.64,477.17,246.69,477.18,246.72,477.2 C246.76,477.2,246.79,477.21,246.81,477.21 C246.88,477.21,246.95,477.17,246.95,477.08 C246.95,476.89,246.79,476.44,246.13,476.02 L246.22,475.83 C246.52,475.93,247.34,476.59,247.34,477.3 Z "
         stroke-width="0"
         fill="black"
         id="path4773" /><path
         d="M251.35,477.66 L251.35,477.69 L251.35,477.72 L251.34,477.75 L251.34,477.77 L251.33,477.8 L251.33,477.83 L251.32,477.85 L251.31,477.88 L251.29,477.91 L251.28,477.93 L251.27,477.95 L251.25,477.98 L251.24,478 L251.22,478.02 L251.2,478.04 L251.18,478.06 L251.16,478.08 L251.14,478.1 L251.12,478.11 L251.1,478.13 L251.08,478.14 L251.06,478.16 L251.03,478.17 L251.01,478.18 L250.98,478.19 L250.96,478.2 L250.93,478.21 L250.9,478.22 L250.88,478.22 L250.85,478.23 L250.82,478.23 L250.79,478.23 C250.49,478.23,250.25,477.98,250.25,477.66 C250.25,477.29,250.59,477.13,250.79,477.13 C251,477.13,251.35,477.3,251.35,477.66 Z "
         stroke-width="0"
         fill="black"
         id="path4775" /><path
         d="M255.5,477.66 L255.5,477.69 L255.49,477.72 L255.49,477.75 L255.48,477.77 L255.48,477.8 L255.47,477.83 L255.46,477.85 L255.45,477.88 L255.44,477.91 L255.43,477.93 L255.41,477.95 L255.4,477.98 L255.38,478 L255.37,478.02 L255.35,478.04 L255.33,478.06 L255.31,478.08 L255.29,478.1 L255.27,478.11 L255.25,478.13 L255.22,478.14 L255.2,478.16 L255.18,478.17 L255.15,478.18 L255.13,478.19 L255.1,478.2 L255.07,478.21 L255.05,478.22 L255.02,478.22 L254.99,478.23 L254.97,478.23 L254.94,478.23 C254.64,478.23,254.39,477.98,254.39,477.66 C254.39,477.29,254.73,477.13,254.94,477.13 C255.15,477.13,255.5,477.3,255.5,477.66 Z "
         stroke-width="0"
         fill="black"
         id="path4777" /><path
         d="M259.65,477.66 L259.65,477.69 L259.65,477.72 L259.64,477.75 L259.64,477.77 L259.63,477.8 L259.62,477.83 L259.62,477.85 L259.6,477.88 L259.59,477.91 L259.58,477.93 L259.57,477.95 L259.55,477.98 L259.54,478 L259.52,478.02 L259.5,478.04 L259.48,478.06 L259.46,478.08 L259.44,478.1 L259.42,478.11 L259.4,478.13 L259.38,478.14 L259.35,478.16 L259.33,478.17 L259.31,478.18 L259.28,478.19 L259.26,478.2 L259.23,478.21 L259.2,478.22 L259.18,478.22 L259.15,478.23 L259.12,478.23 L259.09,478.23 C258.79,478.23,258.55,477.98,258.55,477.66 C258.55,477.29,258.88,477.13,259.09,477.13 C259.3,477.13,259.65,477.3,259.65,477.66 Z "
         stroke-width="0"
         fill="black"
         id="path4779" /><path
         d="M263.94,477.3 L263.94,477.33 L263.94,477.37 L263.94,477.41 L263.94,477.44 L263.93,477.48 L263.93,477.51 L263.92,477.54 L263.92,477.57 L263.91,477.6 L263.91,477.63 L263.9,477.66 L263.89,477.69 L263.88,477.72 L263.87,477.74 L263.86,477.77 L263.85,477.79 L263.84,477.82 L263.83,477.84 L263.8,477.88 L263.78,477.92 L263.75,477.96 L263.72,477.99 L263.69,478.02 L263.66,478.05 L263.63,478.08 L263.59,478.1 L263.56,478.13 L263.53,478.15 L263.49,478.16 L263.46,478.18 L263.43,478.19 L263.39,478.2 L263.36,478.21 L263.33,478.22 L263.3,478.23 L263.27,478.24 L263.24,478.24 L263.21,478.24 L263.18,478.25 L263.16,478.25 L263.14,478.25 C262.89,478.25,262.56,478.1,262.56,477.67 C262.56,477.27,262.92,477.17,263.18,477.17 C263.25,477.17,263.3,477.18,263.33,477.2 C263.37,477.2,263.4,477.21,263.42,477.21 C263.49,477.21,263.56,477.17,263.56,477.08 C263.56,476.89,263.4,476.44,262.74,476.02 L262.83,475.83 C263.13,475.93,263.94,476.59,263.94,477.3 Z "
         stroke-width="0"
         fill="black"
         id="path4781" /><path
         d="M270.65,478.34 L270.64,478.32 L270.62,478.31 L270.61,478.29 L270.59,478.27 L270.58,478.26 L270.57,478.24 L270.56,478.23 L270.54,478.21 L270.53,478.2 L270.52,478.18 L270.51,478.17 L270.49,478.15 L270.48,478.14 L270.48,478.13 L270.47,478.12 L270.46,478.11 L270.46,478.1 L270.45,478.09 L270.44,478.08 L270.43,478.07 C270.2,477.77,270.08,477.67,269.97,477.67 C269.82,477.67,269.73,477.8,269.67,478.08 C269.64,478.16,269.64,478.22,269.62,478.25 C269.38,479.25,269.27,479.71,269.27,479.86 C269.7,480.62,270.06,481.06,270.24,481.06 C270.3,481.06,270.38,481.03,270.48,480.98 C270.6,480.91,270.67,480.89,270.75,480.89 C270.96,480.89,271.1,481.04,271.1,481.25 C271.1,481.46,270.93,481.62,270.69,481.62 C270.25,481.62,269.87,481.26,269.19,480.2 L269.08,480.74 C268.94,481.42,268.83,481.62,268.56,481.62 C268.34,481.62,268,481.53,267.4,481.33 L267.29,481.29 L267.33,481.14 C267.7,481.23,267.79,481.25,267.88,481.25 C268.13,481.25,268.19,481.16,268.33,480.56 L268.62,479.34 L267.8,478.18 C267.61,477.88,267.41,477.7,267.3,477.7 C267.24,477.7,267.14,477.73,267.04,477.79 C266.91,477.86,266.8,477.89,266.72,477.89 C266.53,477.89,266.38,477.74,266.38,477.54 C266.38,477.29,266.58,477.13,266.88,477.13 C267.19,477.13,267.31,477.21,267.8,477.82 C268.07,478.14,268.28,478.41,268.7,478.98 L269,477.79 C269.13,477.29,269.26,477.13,269.58,477.13 C269.95,477.13,270.21,477.36,270.79,478.26 Z "
         stroke-width="0"
         fill="black"
         id="path4783" /><path
         d="M274.28,476.55 L274.13,476.37 C273.93,476.12,273.8,476.01,273.71,476.01 C273.65,476.01,273.59,476.06,273.59,476.12 C273.59,476.17,273.59,476.17,273.69,476.55 L274.09,477.99 C274.12,478.13,274.15,478.29,274.15,478.38 C274.15,478.63,273.96,478.81,273.69,478.81 C273.25,478.81,272.81,478.39,272.09,477.28 L272.56,478.79 L272.54,478.81 C272.16,478.73,272.01,478.7,271.41,478.59 V478.48 C271.76,478.47,271.85,478.43,271.85,478.29 C271.85,478.25,271.85,478.21,271.84,478.17 L271.17,475.74 H271.69 C272.02,476.84,272.08,476.99,272.39,477.47 C272.81,478.11,273.16,478.45,273.42,478.45 C273.52,478.45,273.59,478.38,273.59,478.25 C273.59,478.17,273.55,477.94,273.49,477.72 L273.18,476.58 C273.09,476.22,273.07,476.12,273.07,476.05 C273.07,475.79,273.17,475.68,273.4,475.68 C273.71,475.68,273.89,475.82,274.37,476.46 Z "
         stroke-width="0"
         fill="black"
         id="path4785" /></g>    <g
       style="font-style:normal;font-variant:normal;font-weight:normal;font-stretch:normal;letter-spacing:normal;word-spacing:normal;text-anchor:start;fill:none;stroke:#000000;stroke-linecap:butt;stroke-linejoin:miter;stroke-miterlimit:10.43299961;stroke-opacity:1;stroke-dasharray:none;stroke-dashoffset:0"
       ns0:preamble="/home/sriranga/Desktop/article23/figure/package.tex"
       ns0:text="$X \\sim \\bigcup (0, B)$"
       word-spacing="normal"
       letter-spacing="normal"
       font-size-adjust="none"
       font-stretch="normal"
       font-weight="normal"
       font-variant="normal"
       font-style="normal"
       stroke-miterlimit="10.433"
       xml:space="preserve"
       transform="matrix(1.2,0,0,-1.2,-225.72852,1561.8944)"
       id="g4857"><path
         id="path4859"
         d="m 230.2,483.72 h -2.07 v -0.16 c 0.49,-0.06 0.61,-0.13 0.61,-0.36 0,-0.12 -0.06,-0.24 -0.2,-0.4 l -1.45,-1.66 -0.58,1.46 c -0.11,0.26 -0.15,0.43 -0.15,0.56 0,0.24 0.16,0.33 0.7,0.4 v 0.16 h -2.62 v -0.16 c 0.57,-0.05 0.72,-0.15 0.91,-0.6 l 1.06,-2.62 c -0.37,-0.41 -0.7,-0.8 -0.83,-0.96 -1.38,-1.63 -1.66,-1.88 -2.19,-1.99 v -0.16 h 2.13 v 0.16 c -0.48,0 -0.64,0.09 -0.64,0.34 0,0.15 0.07,0.32 0.2,0.47 l 1.51,1.71 0.66,-1.64 c 0.07,-0.18 0.11,-0.34 0.11,-0.49 0,-0.29 -0.1,-0.34 -0.75,-0.39 v -0.16 h 2.71 v 0.16 c -0.69,0.08 -0.78,0.14 -1.03,0.74 l -1.02,2.56 1.68,1.93 c 0.52,0.58 0.82,0.8 1.25,0.94 z"
         inkscape:connector-curvature="0"
         style="fill:#000000;stroke-width:0" /><path
         id="path4861"
         d="m 238.76,480.48 -0.2,0.09 c -0.16,-0.57 -0.48,-1.07 -1.14,-1.07 -0.77,0 -1.43,1.08 -2.33,1.08 -0.86,0 -1.33,-0.51 -1.56,-1.31 l 0.2,-0.08 c 0.23,0.51 0.59,0.88 1.17,0.88 0.78,0 1.36,-1.08 2.32,-1.08 0.96,0 1.4,0.61 1.54,1.49 z"
         inkscape:connector-curvature="0"
         style="fill:#000000;stroke-width:0" /><path
         id="path4863"
         d="m 249.75,478.63 v 5.45 h -0.5 v -5.51 c 0,-1.44 -1.27,-2.86 -2.92,-2.86 -1.57,0 -2.94,1.24 -2.94,2.87 v 5.5 h -0.5 v -5.46 c 0,-1.92 1.6,-3.4 3.44,-3.4 1.84,0 3.42,1.48 3.42,3.41 z"
         inkscape:connector-curvature="0"
         style="fill:#000000;stroke-width:0" /><path
         id="path4865"
         d="m 253.51,483.95 -0.07,-0.04 -0.06,-0.05 -0.06,-0.04 -0.07,-0.04 -0.05,-0.04 -0.06,-0.04 -0.05,-0.04 -0.06,-0.03 -0.05,-0.04 -0.05,-0.04 -0.04,-0.03 -0.05,-0.04 -0.04,-0.03 -0.05,-0.04 -0.08,-0.06 -0.08,-0.07 -0.07,-0.07 -0.07,-0.07 -0.07,-0.07 -0.07,-0.07 -0.07,-0.08 -0.06,-0.08 -0.07,-0.08 c -0.71,-0.87 -1.06,-1.86 -1.06,-3.02 0,-1.26 0.37,-2.24 1.25,-3.25 0.41,-0.48 0.66,-0.69 1.18,-1.01 l 0.12,0.16 c -0.8,0.62 -1.07,0.97 -1.34,1.71 -0.24,0.67 -0.35,1.42 -0.35,2.42 0,1.04 0.13,1.86 0.4,2.47 0.28,0.62 0.57,0.97 1.29,1.55 z"
         inkscape:connector-curvature="0"
         style="fill:#000000;stroke-width:0" /><path
         id="path4867"
         d="m 256.42,483.95 -0.05,0 -0.05,0 -0.05,0 -0.05,-0.01 -0.05,0 -0.04,-0.01 -0.05,0 -0.05,-0.01 -0.04,-0.01 -0.05,-0.01 -0.04,-0.01 -0.04,-0.01 -0.05,-0.01 -0.04,-0.02 -0.04,-0.01 -0.04,-0.02 -0.04,-0.01 -0.04,-0.02 -0.04,-0.02 -0.04,-0.02 -0.04,-0.02 -0.04,-0.02 -0.04,-0.03 -0.04,-0.02 -0.03,-0.02 -0.04,-0.03 -0.04,-0.03 -0.03,-0.02 -0.04,-0.03 -0.03,-0.03 -0.04,-0.03 -0.03,-0.04 c -0.58,-0.55 -0.96,-1.7 -0.96,-2.86 0,-1.08 0.33,-2.24 0.8,-2.8 0.37,-0.44 0.87,-0.67 1.45,-0.67 v 0.25 c -0.86,0 -1.29,1.07 -1.29,3.13 0,2.11 0.45,3.21 1.3,3.21 h 0 c 0.84,0 1.28,-1.12 1.28,-3.2 0,-2.07 -0.43,-3.14 -1.29,-3.14 v -0.25 c 0.51,0 0.94,0.17 1.29,0.51 0.58,0.55 0.96,1.7 0.96,2.9 0,2.04 -0.91,3.44 -2.21,3.44 z"
         inkscape:connector-curvature="0"
         style="fill:#000000;stroke-width:0" /><path
         id="path4869"
         d="m 260.82,477.3 -0.01,0.03 0,0.04 0,0.04 0,0.03 -0.01,0.04 0,0.03 0,0.03 -0.01,0.03 -0.01,0.03 0,0.03 -0.01,0.03 -0.01,0.03 -0.01,0.03 -0.01,0.02 -0.01,0.03 -0.01,0.02 -0.01,0.03 -0.01,0.02 -0.03,0.04 -0.02,0.04 -0.03,0.04 -0.03,0.03 -0.03,0.03 -0.03,0.03 -0.03,0.03 -0.03,0.02 -0.04,0.03 -0.03,0.02 -0.04,0.01 -0.03,0.02 -0.03,0.01 -0.04,0.01 -0.03,0.01 -0.03,0.01 -0.03,0.01 -0.03,0.01 -0.03,0 -0.03,0 -0.02,0.01 -0.03,0 -0.02,0 c -0.25,0 -0.58,-0.15 -0.58,-0.58 0,-0.4 0.36,-0.5 0.62,-0.5 0.07,0 0.12,0.01 0.15,0.03 0.04,0 0.07,0.01 0.09,0.01 0.07,0 0.14,-0.04 0.14,-0.13 0,-0.19 -0.16,-0.64 -0.82,-1.06 l 0.09,-0.19 c 0.3,0.1 1.12,0.76 1.12,1.47 z"
         inkscape:connector-curvature="0"
         style="fill:#000000;stroke-width:0" /><path
         id="path4871"
         d="m 263.29,477.23 h 2.81 c 1.56,0 2.64,0.82 2.64,1.99 0,0.37 -0.12,0.72 -0.34,0.94 -0.2,0.22 -0.4,0.34 -0.92,0.56 0.71,0.17 1,0.29 1.32,0.57 0.28,0.24 0.42,0.57 0.42,0.97 0,0.94 -0.7,1.46 -1.99,1.46 l -0.18,-0.3 c 0.8,0 1.17,-0.33 1.17,-1.07 0,-0.56 -0.24,-1 -0.67,-1.24 -0.34,-0.2 -0.81,-0.27 -1.71,-0.27 l -0.1,-0.32 c 0.65,0 1.07,-0.04 1.27,-0.12 0.4,-0.17 0.65,-0.6 0.65,-1.14 0,-1.07 -0.73,-1.73 -1.95,-1.73 -0.42,0 -0.63,0.15 -0.63,0.42 0,0.12 0.12,0.6 0.34,1.39 0.13,0.45 0.19,0.68 0.32,1.18 h 0 l 0.1,0.32 0.65,2.31 c 0.06,0.21 0.18,0.27 0.56,0.27 l 0.18,0.3 h -2.56 v -0.16 c 0.61,-0.05 0.76,-0.13 0.76,-0.4 0,-0.15 -0.04,-0.4 -0.11,-0.64 l -1.22,-4.39 c -0.18,-0.58 -0.25,-0.64 -0.81,-0.74 z"
         inkscape:connector-curvature="0"
         style="fill:#000000;stroke-width:0" /><path
         id="path4873"
         d="m 269.74,475.48 0.07,0.04 0.06,0.04 0.07,0.05 0.06,0.04 0.05,0.04 0.06,0.03 0.06,0.04 0.05,0.04 0.05,0.04 0.05,0.03 0.04,0.04 0.05,0.03 0.04,0.04 0.05,0.03 0.08,0.07 0.08,0.07 0.07,0.07 0.07,0.07 0.07,0.07 0.07,0.07 0.07,0.08 0.06,0.08 0.07,0.08 c 0.71,0.86 1.06,1.86 1.06,3.02 0,1.27 -0.37,2.23 -1.25,3.25 -0.4,0.47 -0.66,0.69 -1.18,1.01 l -0.12,-0.16 c 0.8,-0.62 1.06,-0.97 1.34,-1.72 0.24,-0.66 0.35,-1.42 0.35,-2.41 0,-1.03 -0.13,-1.86 -0.4,-2.46 -0.27,-0.63 -0.57,-0.99 -1.29,-1.56 z"
         inkscape:connector-curvature="0"
         style="fill:#000000;stroke-width:0" /></g>  </g>
</svg>
