<?xml version="1.0" encoding="UTF-8" standalone="no"?>
<!-- Created with Inkscape (http://www.inkscape.org/) -->

<svg
   xmlns:ns0="http://www.iki.fi/pav/software/textext/"
   xmlns:dc="http://purl.org/dc/elements/1.1/"
   xmlns:cc="http://creativecommons.org/ns#"
   xmlns:rdf="http://www.w3.org/1999/02/22-rdf-syntax-ns#"
   xmlns:svg="http://www.w3.org/2000/svg"
   xmlns="http://www.w3.org/2000/svg"
   xmlns:sodipodi="http://sodipodi.sourceforge.net/DTD/sodipodi-0.dtd"
   xmlns:inkscape="http://www.inkscape.org/namespaces/inkscape"
   width="248.03149"
   height="141.73228"
   id="svg2"
   version="1.1"
   inkscape:version="0.48.4 r9939"
   sodipodi:docname="New document 1">
  <sodipodi:namedview
     id="base"
     pagecolor="#ffffff"
     bordercolor="#666666"
     borderopacity="1.0"
     inkscape:pageopacity="0.0"
     inkscape:pageshadow="2"
     inkscape:zoom="1.4"
     inkscape:cx="-25.676535"
     inkscape:cy="1.8141092"
     inkscape:document-units="px"
     inkscape:current-layer="layer1"
     showgrid="false"
     units="cm"
     inkscape:window-width="1024"
     inkscape:window-height="744"
     inkscape:window-x="0"
     inkscape:window-y="24"
     inkscape:window-maximized="1" />
  <defs
     id="defs4">
    <marker
       inkscape:stockid="Arrow1Mstart"
       orient="auto"
       refY="0.0"
       refX="0.0"
       id="Arrow1Mstart"
       style="overflow:visible">
      <path
         id="path4085"
         d="M 0.0,0.0 L 5.0,-5.0 L -12.5,0.0 L 5.0,5.0 L 0.0,0.0 z "
         style="fill-rule:evenodd;stroke:#000000;stroke-width:1.0pt"
         transform="scale(0.4) translate(10,0)" />
    </marker>
    <inkscape:path-effect
       effect="spiro"
       id="path-effect3245"
       is_visible="true" />
    <inkscape:path-effect
       effect="spiro"
       id="path-effect3245-6"
       is_visible="true" />
    <inkscape:path-effect
       effect="spiro"
       id="path-effect3245-62"
       is_visible="true" />
    <inkscape:path-effect
       effect="spiro"
       id="path-effect3245-1"
       is_visible="true" />
    <inkscape:path-effect
       effect="spiro"
       id="path-effect3245-6-7"
       is_visible="true" />
  </defs>
  <metadata
     id="metadata7">
    <rdf:RDF>
      <cc:Work
         rdf:about="">
        <dc:format>image/svg+xml</dc:format>
        <dc:type
           rdf:resource="http://purl.org/dc/dcmitype/StillImage" />
        <dc:title></dc:title>
      </cc:Work>
    </rdf:RDF>
  </metadata>
  <g
     inkscape:label="Layer 1"
     inkscape:groupmode="layer"
     id="layer1"
     transform="translate(0,-910.62859)">
    <g
       style="font-style:normal;font-variant:normal;font-weight:normal;font-stretch:normal;letter-spacing:normal;word-spacing:normal;text-anchor:start;fill:none;stroke:#000000;stroke-linecap:butt;stroke-linejoin:miter;stroke-miterlimit:10.43299961;stroke-opacity:1;stroke-dasharray:none;stroke-dashoffset:0"
       id="content"
       transform="matrix(1.2,0,0,-1.2,-150.2227,1548.6442)"
       xml:space="preserve"
       stroke-miterlimit="10.433"
       font-style="normal"
       font-variant="normal"
       font-weight="normal"
       font-stretch="normal"
       font-size-adjust="none"
       letter-spacing="normal"
       word-spacing="normal"
       ns0:text="$x_1, x_2, \\ldots, x_n$"
       ns0:preamble="/home/sriranga/Desktop/article23/figure/package.tex"><path
         style="fill:#000000;stroke-width:0"
         inkscape:connector-curvature="0"
         d="m 227.93,478.34 -0.01,-0.02 -0.02,-0.01 -0.01,-0.02 -0.02,-0.02 -0.01,-0.01 -0.01,-0.02 -0.01,-0.01 -0.02,-0.02 -0.01,-0.01 -0.01,-0.02 -0.01,-0.01 -0.02,-0.02 -0.01,-0.01 0,-0.01 -0.01,-0.01 -0.01,-0.01 0,-0.01 -0.01,-0.01 -0.01,-0.01 -0.01,-0.01 c -0.23,-0.3 -0.35,-0.4 -0.46,-0.4 -0.15,0 -0.24,0.13 -0.3,0.41 -0.02,0.08 -0.04,0.14 -0.05,0.17 -0.24,1 -0.35,1.46 -0.35,1.61 0.43,0.76 0.79,1.2 0.97,1.2 0.06,0 0.14,-0.03 0.24,-0.08 0.12,-0.07 0.19,-0.09 0.27,-0.09 0.21,0 0.35,0.15 0.35,0.36 0,0.21 -0.17,0.37 -0.41,0.37 -0.44,0 -0.82,-0.36 -1.5,-1.42 l -0.11,0.54 c -0.14,0.68 -0.25,0.88 -0.52,0.88 -0.22,0 -0.56,-0.09 -1.16,-0.29 l -0.11,-0.04 0.04,-0.15 c 0.38,0.09 0.46,0.11 0.55,0.11 0.25,0 0.31,-0.09 0.45,-0.69 l 0.29,-1.22 -0.82,-1.16 c -0.2,-0.3 -0.39,-0.48 -0.5,-0.48 -0.06,0 -0.16,0.03 -0.26,0.09 -0.13,0.07 -0.24,0.1 -0.32,0.1 -0.19,0 -0.34,-0.15 -0.34,-0.35 0,-0.25 0.2,-0.41 0.5,-0.41 0.31,0 0.43,0.08 0.92,0.69 0.27,0.32 0.48,0.59 0.9,1.16 l 0.3,-1.19 c 0.13,-0.5 0.26,-0.66 0.57,-0.66 0.38,0 0.64,0.23 1.22,1.13 z"
         id="path2991" /><path
         style="fill:#000000;stroke-width:0"
         inkscape:connector-curvature="0"
         d="m 230.38,480.44 -1.25,-0.63 v -0.1 c 0.08,0.04 0.16,0.06 0.19,0.08 0.12,0.05 0.24,0.07 0.31,0.07 0.14,0 0.21,-0.1 0.21,-0.32 v -3.15 c 0,-0.23 -0.06,-0.39 -0.17,-0.45 -0.1,-0.07 -0.2,-0.09 -0.49,-0.09 v -0.11 h 1.92 v 0.11 c -0.55,0 -0.66,0.07 -0.66,0.41 v 4.17 z"
         id="path2993" /><path
         style="fill:#000000;stroke-width:0"
         inkscape:connector-curvature="0"
         d="m 234.28,477.3 0,0.03 0,0.04 0,0.04 -0.01,0.03 0,0.04 -0.01,0.03 0,0.03 -0.01,0.03 0,0.03 -0.01,0.03 -0.01,0.03 -0.01,0.03 0,0.03 -0.01,0.02 -0.01,0.03 -0.01,0.02 -0.02,0.03 -0.01,0.02 -0.02,0.04 -0.03,0.04 -0.03,0.04 -0.02,0.03 -0.03,0.03 -0.04,0.03 -0.03,0.03 -0.03,0.02 -0.03,0.03 -0.04,0.02 -0.03,0.01 -0.04,0.02 -0.03,0.01 -0.03,0.01 -0.03,0.01 -0.04,0.01 -0.03,0.01 -0.03,0.01 -0.03,0 -0.02,0 -0.03,0.01 -0.02,0 -0.03,0 c -0.25,0 -0.57,-0.15 -0.57,-0.58 0,-0.4 0.35,-0.5 0.61,-0.5 0.07,0 0.12,0.01 0.15,0.03 0.04,0 0.07,0.01 0.09,0.01 0.07,0 0.14,-0.04 0.14,-0.13 0,-0.19 -0.16,-0.64 -0.82,-1.06 l 0.09,-0.19 c 0.3,0.1 1.12,0.76 1.12,1.47 z"
         id="path2995" /><path
         style="fill:#000000;stroke-width:0"
         inkscape:connector-curvature="0"
         d="m 240.99,478.34 -0.02,-0.02 -0.01,-0.01 -0.01,-0.02 -0.02,-0.02 -0.01,-0.01 -0.01,-0.02 -0.02,-0.01 -0.01,-0.02 -0.01,-0.01 -0.01,-0.02 -0.02,-0.01 -0.01,-0.02 -0.01,-0.01 0,-0.01 -0.01,-0.01 -0.01,-0.01 -0.01,-0.01 0,-0.01 -0.01,-0.01 -0.01,-0.01 c -0.23,-0.3 -0.35,-0.4 -0.46,-0.4 -0.15,0 -0.24,0.13 -0.31,0.41 -0.02,0.08 -0.03,0.14 -0.04,0.17 -0.25,1 -0.36,1.46 -0.36,1.61 0.44,0.76 0.8,1.2 0.98,1.2 0.06,0 0.14,-0.03 0.24,-0.08 0.12,-0.07 0.19,-0.09 0.27,-0.09 0.21,0 0.34,0.15 0.34,0.36 0,0.21 -0.16,0.37 -0.4,0.37 -0.44,0 -0.82,-0.36 -1.51,-1.42 l -0.1,0.54 c -0.14,0.68 -0.25,0.88 -0.52,0.88 -0.22,0 -0.56,-0.09 -1.17,-0.29 l -0.11,-0.04 0.04,-0.15 c 0.38,0.09 0.47,0.11 0.56,0.11 0.25,0 0.31,-0.09 0.45,-0.69 l 0.29,-1.22 -0.82,-1.16 c -0.2,-0.3 -0.4,-0.48 -0.51,-0.48 -0.06,0 -0.15,0.03 -0.25,0.09 -0.13,0.07 -0.24,0.1 -0.32,0.1 -0.19,0 -0.34,-0.15 -0.34,-0.35 0,-0.25 0.2,-0.41 0.5,-0.41 0.3,0 0.43,0.08 0.92,0.69 0.27,0.32 0.48,0.59 0.9,1.16 l 0.3,-1.19 c 0.12,-0.5 0.26,-0.66 0.57,-0.66 0.38,0 0.64,0.23 1.22,1.13 z"
         id="path2997" /><path
         style="fill:#000000;stroke-width:0"
         inkscape:connector-curvature="0"
         d="m 244.72,476.69 -0.09,0.04 c -0.26,-0.4 -0.35,-0.46 -0.66,-0.46 h -1.67 l 1.17,1.22 c 0.62,0.65 0.89,1.18 0.89,1.72 0,0.7 -0.56,1.23 -1.28,1.23 -0.39,0 -0.75,-0.15 -1.01,-0.43 -0.22,-0.24 -0.33,-0.46 -0.44,-0.95 l 0.14,-0.04 c 0.28,0.68 0.53,0.91 1.01,0.91 0.59,0 0.98,-0.4 0.98,-0.98 0,-0.55 -0.31,-1.19 -0.9,-1.81 l -1.24,-1.32 v -0.08 h 2.72 z"
         id="path2999" /><path
         style="fill:#000000;stroke-width:0"
         inkscape:connector-curvature="0"
         d="m 247.34,477.3 0,0.03 -0.01,0.04 0,0.04 0,0.03 0,0.04 -0.01,0.03 0,0.03 -0.01,0.03 -0.01,0.03 0,0.03 -0.01,0.03 -0.01,0.03 -0.01,0.03 -0.01,0.02 -0.01,0.03 -0.01,0.02 -0.01,0.03 -0.01,0.02 -0.02,0.04 -0.03,0.04 -0.03,0.04 -0.03,0.03 -0.03,0.03 -0.03,0.03 -0.03,0.03 -0.03,0.02 -0.04,0.03 -0.03,0.02 -0.03,0.01 -0.04,0.02 -0.03,0.01 -0.03,0.01 -0.04,0.01 -0.03,0.01 -0.03,0.01 -0.03,0.01 -0.03,0 -0.03,0 -0.02,0.01 -0.03,0 -0.02,0 c -0.25,0 -0.58,-0.15 -0.58,-0.58 0,-0.4 0.36,-0.5 0.62,-0.5 0.07,0 0.12,0.01 0.15,0.03 0.04,0 0.07,0.01 0.09,0.01 0.07,0 0.14,-0.04 0.14,-0.13 0,-0.19 -0.16,-0.64 -0.82,-1.06 l 0.09,-0.19 c 0.3,0.1 1.12,0.76 1.12,1.47 z"
         id="path3001" /><path
         style="fill:#000000;stroke-width:0"
         inkscape:connector-curvature="0"
         d="m 251.35,477.66 0,0.03 0,0.03 -0.01,0.03 0,0.02 -0.01,0.03 0,0.03 -0.01,0.02 -0.01,0.03 -0.02,0.03 -0.01,0.02 -0.01,0.02 -0.02,0.03 -0.01,0.02 -0.02,0.02 -0.02,0.02 -0.02,0.02 -0.02,0.02 -0.02,0.02 -0.02,0.01 -0.02,0.02 -0.02,0.01 -0.02,0.02 -0.03,0.01 -0.02,0.01 -0.03,0.01 -0.02,0.01 -0.03,0.01 -0.03,0.01 -0.02,0 -0.03,0.01 -0.03,0 -0.03,0 c -0.3,0 -0.54,-0.25 -0.54,-0.57 0,-0.37 0.34,-0.53 0.54,-0.53 0.21,0 0.56,0.17 0.56,0.53 z"
         id="path3003" /><path
         style="fill:#000000;stroke-width:0"
         inkscape:connector-curvature="0"
         d="m 255.5,477.66 0,0.03 -0.01,0.03 0,0.03 -0.01,0.02 0,0.03 -0.01,0.03 -0.01,0.02 -0.01,0.03 -0.01,0.03 -0.01,0.02 -0.02,0.02 -0.01,0.03 -0.02,0.02 -0.01,0.02 -0.02,0.02 -0.02,0.02 -0.02,0.02 -0.02,0.02 -0.02,0.01 -0.02,0.02 -0.03,0.01 -0.02,0.02 -0.02,0.01 -0.03,0.01 -0.02,0.01 -0.03,0.01 -0.03,0.01 -0.02,0.01 -0.03,0 -0.03,0.01 -0.02,0 -0.03,0 c -0.3,0 -0.55,-0.25 -0.55,-0.57 0,-0.37 0.34,-0.53 0.55,-0.53 0.21,0 0.56,0.17 0.56,0.53 z"
         id="path3005" /><path
         style="fill:#000000;stroke-width:0"
         inkscape:connector-curvature="0"
         d="m 259.65,477.66 0,0.03 0,0.03 -0.01,0.03 0,0.02 -0.01,0.03 -0.01,0.03 0,0.02 -0.02,0.03 -0.01,0.03 -0.01,0.02 -0.01,0.02 -0.02,0.03 -0.01,0.02 -0.02,0.02 -0.02,0.02 -0.02,0.02 -0.02,0.02 -0.02,0.02 -0.02,0.01 -0.02,0.02 -0.02,0.01 -0.03,0.02 -0.02,0.01 -0.02,0.01 -0.03,0.01 -0.02,0.01 -0.03,0.01 -0.03,0.01 -0.02,0 -0.03,0.01 -0.03,0 -0.03,0 c -0.3,0 -0.54,-0.25 -0.54,-0.57 0,-0.37 0.33,-0.53 0.54,-0.53 0.21,0 0.56,0.17 0.56,0.53 z"
         id="path3007" /><path
         style="fill:#000000;stroke-width:0"
         inkscape:connector-curvature="0"
         d="m 263.94,477.3 0,0.03 0,0.04 0,0.04 0,0.03 -0.01,0.04 0,0.03 -0.01,0.03 0,0.03 -0.01,0.03 0,0.03 -0.01,0.03 -0.01,0.03 -0.01,0.03 -0.01,0.02 -0.01,0.03 -0.01,0.02 -0.01,0.03 -0.01,0.02 -0.03,0.04 -0.02,0.04 -0.03,0.04 -0.03,0.03 -0.03,0.03 -0.03,0.03 -0.03,0.03 -0.04,0.02 -0.03,0.03 -0.03,0.02 -0.04,0.01 -0.03,0.02 -0.03,0.01 -0.04,0.01 -0.03,0.01 -0.03,0.01 -0.03,0.01 -0.03,0.01 -0.03,0 -0.03,0 -0.03,0.01 -0.02,0 -0.02,0 c -0.25,0 -0.58,-0.15 -0.58,-0.58 0,-0.4 0.36,-0.5 0.62,-0.5 0.07,0 0.12,0.01 0.15,0.03 0.04,0 0.07,0.01 0.09,0.01 0.07,0 0.14,-0.04 0.14,-0.13 0,-0.19 -0.16,-0.64 -0.82,-1.06 l 0.09,-0.19 c 0.3,0.1 1.11,0.76 1.11,1.47 z"
         id="path3009" /><path
         style="fill:#000000;stroke-width:0"
         inkscape:connector-curvature="0"
         d="m 270.65,478.34 -0.01,-0.02 -0.02,-0.01 -0.01,-0.02 -0.02,-0.02 -0.01,-0.01 -0.01,-0.02 -0.01,-0.01 -0.02,-0.02 -0.01,-0.01 -0.01,-0.02 -0.01,-0.01 -0.02,-0.02 -0.01,-0.01 0,-0.01 -0.01,-0.01 -0.01,-0.01 0,-0.01 -0.01,-0.01 -0.01,-0.01 -0.01,-0.01 c -0.23,-0.3 -0.35,-0.4 -0.46,-0.4 -0.15,0 -0.24,0.13 -0.3,0.41 -0.03,0.08 -0.03,0.14 -0.05,0.17 -0.24,1 -0.35,1.46 -0.35,1.61 0.43,0.76 0.79,1.2 0.97,1.2 0.06,0 0.14,-0.03 0.24,-0.08 0.12,-0.07 0.19,-0.09 0.27,-0.09 0.21,0 0.35,0.15 0.35,0.36 0,0.21 -0.17,0.37 -0.41,0.37 -0.44,0 -0.82,-0.36 -1.5,-1.42 l -0.11,0.54 c -0.14,0.68 -0.25,0.88 -0.52,0.88 -0.22,0 -0.56,-0.09 -1.16,-0.29 l -0.11,-0.04 0.04,-0.15 c 0.37,0.09 0.46,0.11 0.55,0.11 0.25,0 0.31,-0.09 0.45,-0.69 l 0.29,-1.22 -0.82,-1.16 c -0.19,-0.3 -0.39,-0.48 -0.5,-0.48 -0.06,0 -0.16,0.03 -0.26,0.09 -0.13,0.07 -0.24,0.1 -0.32,0.1 -0.19,0 -0.34,-0.15 -0.34,-0.35 0,-0.25 0.2,-0.41 0.5,-0.41 0.31,0 0.43,0.08 0.92,0.69 0.27,0.32 0.48,0.59 0.9,1.16 l 0.3,-1.19 c 0.13,-0.5 0.26,-0.66 0.58,-0.66 0.37,0 0.63,0.23 1.21,1.13 z"
         id="path3011" /><path
         style="fill:#000000;stroke-width:0"
         inkscape:connector-curvature="0"
         d="m 274.28,476.55 -0.15,-0.18 c -0.2,-0.25 -0.33,-0.36 -0.42,-0.36 -0.06,0 -0.12,0.05 -0.12,0.11 0,0.05 0,0.05 0.1,0.43 l 0.4,1.44 c 0.03,0.14 0.06,0.3 0.06,0.39 0,0.25 -0.19,0.43 -0.46,0.43 -0.44,0 -0.88,-0.42 -1.6,-1.53 l 0.47,1.51 -0.02,0.02 c -0.38,-0.08 -0.53,-0.11 -1.13,-0.22 v -0.11 c 0.35,-0.01 0.44,-0.05 0.44,-0.19 0,-0.04 0,-0.08 -0.01,-0.12 l -0.67,-2.43 h 0.52 c 0.33,1.1 0.39,1.25 0.7,1.73 0.42,0.64 0.77,0.98 1.03,0.98 0.1,0 0.17,-0.07 0.17,-0.2 0,-0.08 -0.04,-0.31 -0.1,-0.53 l -0.31,-1.14 c -0.09,-0.36 -0.11,-0.46 -0.11,-0.53 0,-0.26 0.1,-0.37 0.33,-0.37 0.31,0 0.49,0.14 0.97,0.78 z"
         id="path3013" /></g>    <g
       style="font-style:normal;font-variant:normal;font-weight:normal;font-stretch:normal;letter-spacing:normal;word-spacing:normal;text-anchor:start;fill:none;stroke:#000000;stroke-linecap:butt;stroke-linejoin:miter;stroke-miterlimit:10.43299961;stroke-opacity:1;stroke-dasharray:none;stroke-dashoffset:0"
       ns0:preamble="/home/sriranga/Desktop/article23/figure/package.tex"
       ns0:text="$x$"
       word-spacing="normal"
       letter-spacing="normal"
       font-size-adjust="none"
       font-stretch="normal"
       font-weight="normal"
       font-variant="normal"
       font-style="normal"
       stroke-miterlimit="10.433"
       xml:space="preserve"
       transform="matrix(1.2,0,0,-1.2,-228.13218,1536.687)"
       id="g3103"><path
         id="path3105"
         d="m 227.93,478.34 -0.01,-0.02 -0.02,-0.01 -0.01,-0.02 -0.02,-0.02 -0.01,-0.01 -0.01,-0.02 -0.01,-0.01 -0.02,-0.02 -0.01,-0.01 -0.01,-0.02 -0.01,-0.01 -0.02,-0.02 -0.01,-0.01 0,-0.01 -0.01,-0.01 -0.01,-0.01 0,-0.01 -0.01,-0.01 -0.01,-0.01 -0.01,-0.01 c -0.23,-0.3 -0.35,-0.4 -0.46,-0.4 -0.15,0 -0.24,0.13 -0.3,0.41 -0.02,0.08 -0.04,0.14 -0.05,0.17 -0.24,1 -0.35,1.46 -0.35,1.61 0.43,0.76 0.79,1.2 0.97,1.2 0.06,0 0.14,-0.03 0.24,-0.08 0.12,-0.07 0.19,-0.09 0.27,-0.09 0.21,0 0.35,0.15 0.35,0.36 0,0.21 -0.17,0.37 -0.41,0.37 -0.44,0 -0.82,-0.36 -1.5,-1.42 l -0.11,0.54 c -0.14,0.68 -0.25,0.88 -0.52,0.88 -0.22,0 -0.56,-0.09 -1.16,-0.29 l -0.11,-0.04 0.04,-0.15 c 0.38,0.09 0.46,0.11 0.55,0.11 0.25,0 0.31,-0.09 0.45,-0.69 l 0.29,-1.22 -0.82,-1.16 c -0.2,-0.3 -0.39,-0.48 -0.5,-0.48 -0.06,0 -0.16,0.03 -0.26,0.09 -0.13,0.07 -0.24,0.1 -0.32,0.1 -0.19,0 -0.34,-0.15 -0.34,-0.35 0,-0.25 0.2,-0.41 0.5,-0.41 0.31,0 0.43,0.08 0.92,0.69 0.27,0.32 0.48,0.59 0.9,1.16 l 0.3,-1.19 c 0.13,-0.5 0.26,-0.66 0.57,-0.66 0.38,0 0.64,0.23 1.22,1.13 z"
         inkscape:connector-curvature="0"
         style="fill:#000000;stroke-width:0" /></g>    <g
       style="font-style:normal;font-variant:normal;font-weight:normal;font-stretch:normal;letter-spacing:normal;word-spacing:normal;text-anchor:start;fill:none;stroke:#000000;stroke-linecap:butt;stroke-linejoin:miter;stroke-miterlimit:10.43299961;stroke-opacity:1;stroke-dasharray:none;stroke-dashoffset:0"
       ns0:preamble="/home/sriranga/Desktop/article23/figure/package.tex"
       ns0:text="$\\theta = \\mu$"
       word-spacing="normal"
       letter-spacing="normal"
       font-size-adjust="none"
       font-stretch="normal"
       font-weight="normal"
       font-variant="normal"
       font-style="normal"
       stroke-miterlimit="10.433"
       xml:space="preserve"
       transform="matrix(1.2,0,0,-1.2,-237.60308,1556.3438)"
       id="g3210"><path
         id="path3212"
         d="m 227.94,482.03 0,0.01 0,0.02 0,0.01 0,0.01 0,0.02 0,0.02 0,0.04 -0.01,0.05 0,0.05 -0.01,0.06 0,0.06 -0.01,0.07 -0.01,0.07 -0.01,0.07 -0.02,0.07 -0.02,0.07 -0.02,0.08 -0.02,0.07 -0.03,0.08 -0.03,0.07 -0.03,0.08 -0.04,0.07 -0.04,0.07 -0.05,0.06 -0.05,0.07 -0.03,0.03 -0.03,0.03 -0.03,0.03 -0.03,0.02 -0.03,0.03 -0.03,0.03 -0.04,0.02 -0.03,0.02 -0.04,0.02 -0.04,0.02 -0.04,0.02 -0.04,0.02 -0.05,0.01 -0.04,0.01 -0.05,0.02 -0.05,0.01 -0.05,0 -0.05,0.01 -0.05,0 -0.05,0 -0.01,-0.21 c 0.39,0 0.55,-0.35 0.55,-0.91 h 0 c 0,-0.54 -0.14,-1.27 -0.34,-2.08 h -2.15 c 0.35,1.44 0.98,2.99 1.94,2.99 l 0.01,0.21 c -1.77,0 -3.02,-2.76 -3.02,-4.67 0,-0.36 0.06,-1.93 1.32,-1.93 l 0.14,0.21 c -0.54,0 -0.74,0.48 -0.74,1.15 0,0.48 0.11,1.08 0.25,1.68 h 2.16 c -0.31,-1.16 -0.66,-2.83 -1.67,-2.83 l -0.14,-0.21 c 1.98,0 2.9,3.37 2.9,4.9 z"
         inkscape:connector-curvature="0"
         style="fill:#000000;stroke-width:0" /><polygon
         id="polygon3214"
         points="231.33,481.07 231.33,480.51 236.42,480.51 236.42,481.07 "
         style="fill:#000000;stroke-width:0" /><polygon
         id="polygon3216"
         points="231.33,479.05 231.33,478.5 236.42,478.5 236.42,479.05 "
         style="fill:#000000;stroke-width:0" /><path
         id="path3218"
         d="m 244.74,478 0,0.01 0,0 0,0.01 0,0 0,0.01 0,0 0,0 0,0.01 0,0 0,0.01 0,0 0,0 0,0.01 -0.01,0 0,0 0,0.01 0,0 0,0 0,0 0,0.01 0,0 -0.01,0 0,0 0,0 0,0 0,0.01 -0.01,0 0,0 0,0 0,0 -0.01,0 0,0 c -0.15,0 -0.14,-0.59 -0.68,-0.59 -0.14,0 -0.2,0.13 -0.2,0.32 0,0.26 0.09,0.64 0.19,1.03 l 0.7,2.77 -0.86,-0.15 -0.8,-2.99 c -0.02,-0.05 -0.61,-0.88 -1.21,-0.88 -0.57,0 -0.75,0.52 -0.75,0.91 0,0.12 0.02,0.22 0.04,0.31 l 0.71,2.8 -0.74,-0.13 -1.09,-4.26 c -0.2,-0.8 -0.6,-1.87 -0.68,-2.05 h 0.87 l 0.64,2.48 h 0.01 c 0,-0.01 0.04,-0.53 0.76,-0.53 0.79,0 1.28,0.78 1.38,0.9 -0.01,-0.08 -0.02,-0.15 -0.02,-0.22 0,-0.65 0.61,-0.68 0.78,-0.68 h 0.03 c 0.68,0 0.96,0.64 0.96,0.87 z"
         inkscape:connector-curvature="0"
         style="fill:#000000;stroke-width:0" /></g>    <path
       style="fill:none;stroke:#000000;stroke-width:1px;stroke-linecap:butt;stroke-linejoin:miter;stroke-opacity:1"
       d="m 22.475894,40.211954 0,45.456864"
       id="path3243"
       inkscape:path-effect="#path-effect3245"
       inkscape:original-d="m 22.475894,40.211954 0,45.456864"
       inkscape:connector-curvature="0"
       transform="translate(0,910.62859)" />
    <path
       style="fill:none;stroke:#000000;stroke-width:1px;stroke-linecap:butt;stroke-linejoin:miter;stroke-opacity:1"
       d="m 67.015609,951.15173 0,45.45686"
       id="path3243-0"
       inkscape:path-effect="#path-effect3245-6"
       inkscape:original-d="m 67.015609,951.15173 0,45.45686"
       inkscape:connector-curvature="0" />
    <path
       style="fill:none;stroke:#000000;stroke-width:1px;stroke-linecap:butt;stroke-linejoin:miter;stroke-opacity:1"
       d="m 67.522383,951.34563 -45.45686,0"
       id="path3243-6"
       inkscape:path-effect="#path-effect3245-62"
       inkscape:original-d="m 67.522383,951.34563 -45.45686,0"
       inkscape:connector-curvature="0" />
    <path
       style="fill:none;stroke:#000000;stroke-width:1px;stroke-linecap:butt;stroke-linejoin:miter;stroke-opacity:1"
       d="m 67.404702,996.13416 -45.45686,0"
       id="path3243-8"
       inkscape:path-effect="#path-effect3245-1"
       inkscape:original-d="m 67.404702,996.13416 -45.45686,0"
       inkscape:connector-curvature="0" />
    <path
       style="fill:none;stroke:#000000;stroke-width:1;stroke-linecap:butt;stroke-linejoin:miter;stroke-opacity:1;stroke-miterlimit:4;stroke-dasharray:none;marker-start:url(#Arrow1Mstart)"
       d="m 112.89506,973.54885 -45.456862,0"
       id="path3243-0-9"
       inkscape:path-effect="#path-effect3245-6-7"
       inkscape:original-d="m 112.89506,973.54885 -45.456862,0"
       inkscape:connector-curvature="0" />
  </g>
</svg>
