<?xml version="1.0" encoding="UTF-8" standalone="no"?>
<!-- Created with Inkscape (http://www.inkscape.org/) -->

<svg
   xmlns:ns0="http://www.iki.fi/pav/software/textext/"
   xmlns:dc="http://purl.org/dc/elements/1.1/"
   xmlns:cc="http://creativecommons.org/ns#"
   xmlns:rdf="http://www.w3.org/1999/02/22-rdf-syntax-ns#"
   xmlns:svg="http://www.w3.org/2000/svg"
   xmlns="http://www.w3.org/2000/svg"
   xmlns:sodipodi="http://sodipodi.sourceforge.net/DTD/sodipodi-0.dtd"
   xmlns:inkscape="http://www.inkscape.org/namespaces/inkscape"
   width="248.03149"
   height="106.29921"
   id="svg2"
   version="1.1"
   inkscape:version="0.48.4 r9939"
   sodipodi:docname="New document 1">
  <sodipodi:namedview
     id="base"
     pagecolor="#ffffff"
     bordercolor="#666666"
     borderopacity="1.0"
     inkscape:pageopacity="0.0"
     inkscape:pageshadow="2"
     inkscape:zoom="2.8"
     inkscape:cx="-14.358136"
     inkscape:cy="82.291575"
     inkscape:document-units="px"
     inkscape:current-layer="layer1"
     showgrid="false"
     inkscape:window-width="1024"
     inkscape:window-height="744"
     inkscape:window-x="0"
     inkscape:window-y="24"
     inkscape:window-maximized="1"
     units="cm" />
  <defs
     id="defs4">
    <marker
       style="overflow:visible"
       id="Arrow1Mstart"
       refX="0.0"
       refY="0.0"
       orient="auto"
       inkscape:stockid="Arrow1Mstart">
      <path
         transform="scale(0.4) translate(10,0)"
         style="fill-rule:evenodd;stroke:#000000;stroke-width:1.0pt"
         d="M 0.0,0.0 L 5.0,-5.0 L -12.5,0.0 L 5.0,5.0 L 0.0,0.0 z "
         id="path4245" />
    </marker>
  </defs>
  <metadata
     id="metadata7">
    <rdf:RDF>
      <cc:Work
         rdf:about="">
        <dc:format>image/svg+xml</dc:format>
        <dc:type
           rdf:resource="http://purl.org/dc/dcmitype/StillImage" />
        <dc:title></dc:title>
      </cc:Work>
    </rdf:RDF>
  </metadata>
  <g
     transform="translate(0,-946.06166)"
     id="layer1"
     inkscape:groupmode="layer"
     inkscape:label="Layer 1">
    <g
       id="content"
       transform="matrix(1.2,0,0,-1.2,-254.92856,1580.3572)"
       xml:space="preserve"
       stroke-miterlimit="10.433"
       font-style="normal"
       font-variant="normal"
       font-weight="normal"
       font-stretch="normal"
       font-size-adjust="none"
       letter-spacing="normal"
       word-spacing="normal"
       ns0:text="Then  \\quad   $h\'(x) = \\dfrac{d}{dx}lnf(x) = \\dfrac{1}{f(x)} \\dfrac{df}{dx} = \\dfrac{f\'(x)}{f(x)}$"
       ns0:preamble="/home/sriranga/Desktop/article23/figure/package.tex"
       style="font-style:normal;font-variant:normal;font-weight:normal;font-stretch:normal;letter-spacing:normal;word-spacing:normal;text-anchor:start;fill:none;stroke:#000000;stroke-linecap:butt;stroke-linejoin:miter;stroke-miterlimit:10.43299961;stroke-opacity:1;stroke-dasharray:none;stroke-dashoffset:0"><path
         style="fill:#000000;stroke-width:0"
         inkscape:connector-curvature="0"
         d="m 225.96,479.71 v -4.97 c 0,-0.84 -0.11,-0.95 -0.94,-1 v -0.19 h 2.91 v 0.19 c -0.82,0.04 -0.96,0.17 -0.96,0.9 v 5.07 h 0.54 c 1.14,0 1.35,-0.18 1.58,-1.27 h 0.24 l -0.06,1.69 h -5.61 l -0.06,-1.69 h 0.24 c 0.24,1.08 0.47,1.27 1.58,1.27 z"
         id="path3139" /><path
         style="fill:#000000;stroke-width:0"
         inkscape:connector-curvature="0"
         d="m 231.08,476.96 0.04,0.04 0.04,0.04 0.04,0.04 0.03,0.04 0.04,0.03 0.03,0.04 0.04,0.03 0.04,0.03 0.03,0.03 0.03,0.03 0.04,0.02 0.03,0.03 0.04,0.02 0.03,0.02 0.03,0.02 0.03,0.02 0.04,0.02 0.03,0.02 0.03,0.01 0.04,0.02 0.03,0.01 0.03,0.01 0.04,0.01 0.03,0.01 0.03,0.01 0.04,0.01 0.03,0 0.03,0.01 0.04,0 0.03,0 0.04,0 0.04,0 c 0.49,0 0.74,-0.35 0.74,-1.05 v -1.96 c 0,-0.68 -0.1,-0.81 -0.67,-0.87 v -0.15 h 2.1 v 0.15 c -0.53,0.1 -0.59,0.18 -0.59,0.87 v 1.97 c 0,1.04 -0.42,1.58 -1.23,1.58 -0.58,0 -1,-0.24 -1.46,-0.83 v 3.02 l -0.05,0.03 c -0.34,-0.12 -0.59,-0.2 -1.14,-0.36 l -0.27,-0.08 v -0.16 c 0.04,0.01 0.07,0.01 0.12,0.01 0.43,0 0.5,-0.08 0.5,-0.51 v -4.67 c 0,-0.7 -0.05,-0.79 -0.63,-0.87 v -0.15 h 2.15 v 0.15 c -0.58,0.06 -0.68,0.18 -0.68,0.87 z"
         id="path3141" /><path
         style="fill:#000000;stroke-width:0"
         inkscape:connector-curvature="0"
         d="m 238.56,475.18 -0.04,-0.07 -0.05,-0.07 -0.04,-0.06 -0.05,-0.06 -0.04,-0.06 -0.05,-0.06 -0.04,-0.05 -0.04,-0.05 -0.05,-0.05 -0.04,-0.05 -0.05,-0.04 -0.04,-0.04 -0.05,-0.04 -0.04,-0.04 -0.05,-0.03 -0.04,-0.03 -0.05,-0.03 -0.05,-0.03 -0.04,-0.03 -0.05,-0.02 -0.05,-0.02 -0.05,-0.02 -0.05,-0.02 -0.05,-0.02 -0.05,-0.01 -0.05,-0.01 -0.06,-0.01 -0.05,-0.01 -0.06,0 -0.06,-0.01 -0.05,0 -0.06,0 c -0.57,0 -1,0.29 -1.29,0.85 -0.18,0.38 -0.24,0.71 -0.27,1.31 l 0.03,0.32 c 0.11,0.78 0.44,1.14 1.05,1.14 0.61,0 0.85,-0.27 0.97,-1.14 h -2.02 l -0.03,-0.32 h 3.07 c -0.08,0.65 -0.18,0.94 -0.43,1.25 -0.3,0.36 -0.75,0.57 -1.27,0.57 -0.5,0 -0.97,-0.18 -1.34,-0.51 -0.47,-0.41 -0.74,-1.12 -0.74,-1.93 0,-1.37 0.71,-2.23 1.86,-2.23 0.94,0 1.69,0.59 2.11,1.66 z"
         id="path3143" /><path
         style="fill:#000000;stroke-width:0"
         inkscape:connector-curvature="0"
         d="m 239.08,477.51 0.01,0 0,0 0.01,0 0.01,0.01 0,0 0.01,0 0.01,0 0,0 0.01,0.01 0.01,0 0.02,0 0.01,0 0.02,0.01 0.02,0 0.01,0 0.02,0 0.02,0 0.02,0 0.02,0 0.02,0 0.02,0.01 c 0.28,0 0.37,-0.15 0.37,-0.64 v -2.46 c 0,-0.57 -0.11,-0.71 -0.62,-0.75 v -0.15 h 2.11 v 0.15 c -0.5,0.04 -0.65,0.16 -0.65,0.52 v 2.79 c 0.47,0.45 0.69,0.57 1.02,0.57 0.49,0 0.73,-0.31 0.73,-0.97 v -2.07 c 0,-0.63 -0.13,-0.8 -0.63,-0.84 v -0.15 h 2.07 v 0.15 c -0.49,0.05 -0.61,0.17 -0.61,0.66 v 2.27 c 0,0.94 -0.43,1.49 -1.17,1.49 -0.46,0 -0.77,-0.17 -1.44,-0.8 v 0.78 l -0.07,0.02 c -0.49,-0.18 -0.83,-0.29 -1.38,-0.45 z"
         id="path3145" /><path
         style="fill:#000000;stroke-width:0"
         inkscape:connector-curvature="0"
         d="m 260.98,474.71 -0.02,-0.03 -0.02,-0.03 -0.03,-0.03 -0.02,-0.03 -0.02,-0.02 -0.03,-0.03 -0.02,-0.03 -0.02,-0.02 -0.02,-0.03 -0.02,-0.02 -0.02,-0.03 -0.02,-0.02 -0.01,-0.02 -0.02,-0.02 -0.04,-0.04 -0.03,-0.04 -0.03,-0.04 -0.03,-0.03 -0.03,-0.03 -0.02,-0.03 -0.03,-0.03 -0.02,-0.02 -0.02,-0.02 -0.03,-0.02 -0.02,-0.02 -0.02,-0.02 -0.01,-0.01 -0.02,-0.01 -0.02,-0.01 -0.02,-0.01 -0.01,-0.01 -0.02,-0.01 -0.01,-0.01 -0.02,0 -0.01,0 -0.02,-0.01 -0.01,0 -0.03,0 c -0.09,0 -0.16,0.09 -0.16,0.18 0,0.1 0.16,0.72 0.33,1.24 0.29,0.94 0.48,1.68 0.48,1.92 0,0.4 -0.27,0.66 -0.66,0.66 -0.65,0 -1.35,-0.65 -2.28,-2.09 l 1.2,4.45 -0.06,0.05 c -0.57,-0.13 -0.96,-0.2 -1.56,-0.27 v -0.15 h 0.26 c 0.01,0 0.02,0 0.03,0.01 0.14,0.06 0.38,-0.11 0.38,-0.25 0,-0.14 -0.05,-0.39 -0.14,-0.67 -0.01,-0.01 -0.04,-0.15 -0.1,-0.37 l -1.34,-5.09 h 0.74 c 0.4,1.53 0.53,1.87 0.93,2.47 0.52,0.79 1.19,1.41 1.54,1.41 0.15,0 0.28,-0.12 0.28,-0.25 0,-0.04 -0.03,-0.17 -0.07,-0.33 l -0.55,-2.06 c -0.13,-0.48 -0.2,-0.79 -0.2,-0.91 0,-0.26 0.17,-0.42 0.44,-0.42 0.51,0 0.86,0.27 1.45,1.14 z"
         id="path3147" /><path
         style="fill:#000000;stroke-width:0"
         inkscape:connector-curvature="0"
         d="m 263.41,480.03 0,0.02 0,0.02 -0.01,0.02 0,0.02 -0.01,0.02 -0.01,0.03 0,0.01 -0.01,0.02 -0.02,0.02 -0.01,0.02 -0.01,0.02 -0.01,0.01 -0.02,0.02 -0.01,0.01 -0.02,0.02 -0.01,0.01 -0.02,0.02 -0.02,0.01 -0.02,0.01 -0.02,0.01 -0.02,0.01 -0.02,0.01 -0.02,0.01 -0.02,0.01 -0.02,0 -0.02,0.01 -0.02,0.01 -0.02,0 -0.02,0 -0.02,0.01 -0.02,0 -0.03,0 c -0.25,0 -0.38,-0.25 -0.45,-0.46 l -0.72,-2.11 c -0.02,-0.05 -0.07,-0.18 -0.07,-0.24 0,-0.06 0.04,-0.15 0.11,-0.15 0.1,0 0.22,0.15 0.27,0.22 l 1.14,1.81 c 0.1,0.14 0.2,0.34 0.2,0.52 z"
         id="path3149" /><path
         style="fill:#000000;stroke-width:0"
         inkscape:connector-curvature="0"
         d="m 267.19,480.27 -0.06,-0.05 -0.07,-0.04 -0.06,-0.04 -0.06,-0.04 -0.06,-0.04 -0.06,-0.04 -0.05,-0.04 -0.05,-0.04 -0.06,-0.03 -0.04,-0.04 -0.05,-0.03 -0.05,-0.04 -0.04,-0.03 -0.04,-0.04 -0.09,-0.07 -0.07,-0.06 -0.08,-0.07 -0.07,-0.07 -0.07,-0.07 -0.07,-0.08 -0.06,-0.07 -0.07,-0.08 -0.07,-0.08 c -0.71,-0.87 -1.05,-1.86 -1.05,-3.03 0,-1.26 0.36,-2.23 1.24,-3.24 0.41,-0.48 0.67,-0.7 1.18,-1.02 l 0.12,0.16 c -0.79,0.63 -1.07,0.98 -1.34,1.72 -0.24,0.67 -0.35,1.42 -0.35,2.41 0,1.05 0.13,1.86 0.4,2.48 0.28,0.61 0.58,0.97 1.29,1.55 z"
         id="path3151" /><path
         style="fill:#000000;stroke-width:0"
         inkscape:connector-curvature="0"
         d="m 272.07,474.65 -0.01,-0.01 -0.01,-0.02 -0.02,-0.01 -0.01,-0.02 -0.01,-0.01 -0.02,-0.02 -0.01,-0.01 -0.01,-0.02 -0.01,-0.01 -0.02,-0.02 -0.01,-0.02 -0.01,-0.01 -0.01,-0.01 -0.01,-0.01 -0.01,-0.01 0,-0.01 -0.01,-0.01 -0.01,-0.01 -0.01,-0.01 0,-0.01 c -0.23,-0.3 -0.35,-0.4 -0.46,-0.4 -0.15,0 -0.24,0.13 -0.31,0.41 -0.02,0.08 -0.03,0.14 -0.04,0.17 -0.25,1 -0.36,1.45 -0.36,1.6 0.44,0.77 0.8,1.21 0.98,1.21 0.06,0 0.13,-0.03 0.23,-0.08 0.12,-0.07 0.19,-0.09 0.27,-0.09 0.21,0 0.35,0.15 0.35,0.36 0,0.2 -0.17,0.36 -0.41,0.36 -0.43,0 -0.81,-0.35 -1.5,-1.42 l -0.11,0.55 c -0.14,0.67 -0.25,0.87 -0.52,0.87 -0.21,0 -0.55,-0.09 -1.16,-0.29 l -0.11,-0.03 0.04,-0.15 c 0.38,0.09 0.47,0.11 0.56,0.11 0.25,0 0.31,-0.09 0.45,-0.69 l 0.28,-1.22 -0.81,-1.16 c -0.2,-0.3 -0.4,-0.48 -0.51,-0.48 -0.06,0 -0.16,0.03 -0.26,0.09 -0.13,0.07 -0.24,0.1 -0.32,0.1 -0.19,0 -0.34,-0.15 -0.34,-0.35 0,-0.26 0.2,-0.42 0.5,-0.42 0.31,0 0.43,0.09 0.93,0.7 0.27,0.32 0.48,0.58 0.89,1.16 l 0.3,-1.19 c 0.13,-0.51 0.26,-0.67 0.58,-0.67 0.38,0 0.64,0.24 1.21,1.14 z"
         id="path3153" /><path
         style="fill:#000000;stroke-width:0"
         inkscape:connector-curvature="0"
         d="m 272.9,471.79 0.07,0.05 0.07,0.04 0.06,0.04 0.06,0.04 0.06,0.04 0.06,0.04 0.05,0.04 0.05,0.04 0.05,0.03 0.05,0.04 0.05,0.04 0.05,0.03 0.04,0.03 0.04,0.04 0.08,0.07 0.08,0.07 0.08,0.06 0.07,0.07 0.07,0.07 0.06,0.08 0.07,0.07 0.07,0.08 0.07,0.09 c 0.7,0.86 1.05,1.85 1.05,3.02 0,1.27 -0.37,2.23 -1.24,3.24 -0.41,0.48 -0.67,0.7 -1.19,1.02 l -0.11,-0.16 c 0.79,-0.63 1.06,-0.97 1.34,-1.72 0.24,-0.67 0.35,-1.42 0.35,-2.41 0,-1.04 -0.13,-1.86 -0.4,-2.47 -0.28,-0.62 -0.58,-0.98 -1.29,-1.56 z"
         id="path3155" /><polygon
         style="fill:#000000;stroke-width:0"
         points="279.23,476.83 284.32,476.83 284.32,477.39 279.23,477.39 "
         id="polygon3157" /><polygon
         style="fill:#000000;stroke-width:0"
         points="279.23,474.81 284.32,474.81 284.32,475.37 279.23,475.37 "
         id="polygon3159" /><path
         style="fill:#000000;stroke-width:0"
         inkscape:connector-curvature="0"
         d="m 295.99,481.4 -0.02,-0.03 -0.03,-0.03 -0.02,-0.02 -0.02,-0.03 -0.02,-0.02 -0.03,-0.03 -0.02,-0.02 -0.02,-0.03 -0.02,-0.02 -0.02,-0.02 -0.02,-0.02 -0.02,-0.02 -0.01,-0.02 -0.02,-0.02 -0.04,-0.04 -0.03,-0.03 -0.03,-0.04 -0.03,-0.03 -0.03,-0.02 -0.02,-0.03 -0.03,-0.02 -0.02,-0.02 -0.02,-0.02 -0.02,-0.02 -0.02,-0.02 -0.02,-0.01 -0.02,-0.02 -0.02,-0.01 -0.02,-0.01 -0.01,0 -0.02,-0.01 -0.01,-0.01 -0.02,0 -0.02,-0.01 -0.01,0 -0.02,0 -0.01,0 -0.03,-0.01 c -0.1,0 -0.18,0.09 -0.18,0.2 0,0.14 0.32,1.35 0.64,2.45 0.27,0.91 0.48,1.71 0.99,3.69 l -0.05,0.05 c -0.53,-0.11 -0.88,-0.17 -1.52,-0.23 v -0.17 c 0.55,-0.01 0.61,-0.04 0.61,-0.25 0,-0.13 0,-0.19 -0.14,-0.7 l -0.44,-1.63 c -0.08,0.42 -0.26,0.58 -0.65,0.58 l 0.04,-0.23 c 0.3,-0.02 0.45,-0.21 0.45,-0.57 0,-1.51 -1.04,-3.22 -1.95,-3.22 -0.34,0 -0.58,0.27 -0.58,0.66 0,0.82 0.5,1.98 1.16,2.67 0.27,0.29 0.64,0.48 0.92,0.46 h 0 l -0.04,0.23 c -1.29,0 -2.9,-1.87 -2.9,-3.36 0,-0.71 0.39,-1.13 1.04,-1.13 0.68,0 1.12,0.32 1.79,1.31 -0.11,-0.51 -0.13,-0.66 -0.13,-0.89 0,-0.26 0.17,-0.44 0.42,-0.44 0.42,0 0.94,0.41 1.45,1.13 z"
         id="path3161" /><line
         style="stroke-width:0.55800003"
         x1="288.91"
         y1="476.10999"
         x2="299.10999"
         y2="476.10999"
         id="line3163" /><path
         style="fill:#000000;stroke-width:0"
         inkscape:connector-curvature="0"
         d="m 293.52,467.82 -0.03,-0.03 -0.02,-0.03 -0.02,-0.02 -0.03,-0.03 -0.02,-0.02 -0.02,-0.03 -0.02,-0.02 -0.02,-0.03 -0.02,-0.02 -0.02,-0.02 -0.02,-0.02 -0.02,-0.02 -0.02,-0.02 -0.02,-0.02 -0.03,-0.04 -0.04,-0.03 -0.03,-0.04 -0.02,-0.03 -0.03,-0.02 -0.03,-0.03 -0.02,-0.02 -0.03,-0.02 -0.02,-0.02 -0.02,-0.02 -0.02,-0.02 -0.02,-0.01 -0.02,-0.01 -0.02,-0.02 -0.01,-0.01 -0.02,0 -0.01,-0.01 -0.02,-0.01 -0.02,0 -0.01,-0.01 -0.02,0 -0.01,0 -0.02,0 -0.03,-0.01 c -0.1,0 -0.18,0.09 -0.18,0.2 0,0.14 0.32,1.36 0.65,2.45 0.27,0.91 0.48,1.71 0.98,3.69 l -0.04,0.05 c -0.53,-0.11 -0.89,-0.17 -1.53,-0.23 v -0.16 c 0.55,-0.02 0.62,-0.05 0.62,-0.26 0,-0.13 -0.01,-0.19 -0.15,-0.7 l -0.44,-1.63 c -0.08,0.42 -0.26,0.58 -0.65,0.58 l 0.05,-0.23 c 0.29,-0.02 0.44,-0.21 0.44,-0.57 0,-1.51 -1.03,-3.22 -1.95,-3.22 -0.33,0 -0.57,0.27 -0.57,0.66 0,0.83 0.49,1.98 1.15,2.67 0.28,0.29 0.65,0.48 0.93,0.46 h 0 l -0.05,0.23 c -1.29,0 -2.9,-1.87 -2.9,-3.36 0,-0.7 0.4,-1.13 1.05,-1.13 0.67,0 1.11,0.32 1.79,1.31 -0.11,-0.51 -0.13,-0.66 -0.13,-0.88 0,-0.27 0.17,-0.45 0.41,-0.45 0.42,0 0.94,0.41 1.46,1.13 z"
         id="path3165" /><path
         style="fill:#000000;stroke-width:0"
         inkscape:connector-curvature="0"
         d="m 298.66,467.82 -0.02,-0.02 -0.01,-0.01 -0.01,-0.02 -0.02,-0.01 -0.01,-0.02 -0.01,-0.01 -0.01,-0.02 -0.02,-0.01 -0.01,-0.02 -0.01,-0.01 -0.02,-0.02 0,-0.01 -0.01,-0.01 -0.01,-0.01 0,-0.01 -0.01,-0.01 -0.01,-0.01 -0.01,-0.01 0,-0.01 -0.01,-0.01 -0.01,-0.01 c -0.23,-0.3 -0.35,-0.4 -0.46,-0.4 -0.15,0 -0.24,0.13 -0.31,0.41 -0.02,0.08 -0.03,0.14 -0.04,0.17 -0.24,1 -0.35,1.46 -0.35,1.61 0.43,0.77 0.79,1.2 0.97,1.2 0.06,0 0.14,-0.03 0.24,-0.08 0.12,-0.07 0.19,-0.09 0.27,-0.09 0.21,0 0.35,0.15 0.35,0.36 0,0.21 -0.17,0.37 -0.41,0.37 -0.44,0 -0.82,-0.36 -1.5,-1.42 l -0.11,0.55 c -0.14,0.67 -0.25,0.87 -0.52,0.87 -0.22,0 -0.56,-0.09 -1.16,-0.29 l -0.11,-0.04 0.04,-0.15 c 0.37,0.09 0.46,0.11 0.55,0.11 0.25,0 0.31,-0.09 0.45,-0.68 l 0.29,-1.23 -0.82,-1.16 c -0.2,-0.3 -0.39,-0.48 -0.5,-0.48 -0.06,0 -0.16,0.03 -0.26,0.09 -0.13,0.07 -0.24,0.1 -0.32,0.1 -0.19,0 -0.34,-0.14 -0.34,-0.34 0,-0.26 0.2,-0.42 0.5,-0.42 0.31,0 0.43,0.09 0.92,0.69 0.27,0.32 0.48,0.59 0.9,1.17 l 0.3,-1.2 c 0.13,-0.5 0.26,-0.66 0.57,-0.66 0.38,0 0.64,0.24 1.22,1.13 z"
         id="path3167" /><path
         style="fill:#000000;stroke-width:0"
         inkscape:connector-curvature="0"
         d="m 302.58,474.77 -0.07,-0.08 -0.03,-0.04 -0.04,-0.04 -0.03,-0.04 -0.04,-0.05 -0.03,-0.04 -0.03,-0.04 c -0.32,-0.42 -0.51,-0.57 -0.69,-0.57 -0.1,0 -0.15,0.07 -0.15,0.18 0,0.07 0.03,0.19 0.08,0.39 0.01,0.03 0.02,0.08 0.03,0.1 l 1.5,5.75 -0.05,0.05 c -0.58,-0.13 -0.96,-0.2 -1.55,-0.27 v -0.16 c 0.48,0 0.68,-0.07 0.68,-0.23 0,-0.03 -0.01,-0.09 -0.04,-0.18 l -1.36,-5.24 c -0.03,-0.11 -0.05,-0.21 -0.05,-0.26 0,-0.36 0.17,-0.56 0.48,-0.56 0.52,0 0.87,0.29 1.52,1.24 z"
         id="path3169" /><path
         style="fill:#000000;stroke-width:0"
         inkscape:connector-curvature="0"
         d="m 307.66,474.71 -0.21,-0.25 c -0.28,-0.37 -0.46,-0.53 -0.6,-0.53 -0.08,0 -0.16,0.08 -0.16,0.16 0,0.07 0,0.07 0.14,0.62 l 0.57,2.05 c 0.05,0.21 0.08,0.43 0.08,0.57 0,0.35 -0.26,0.6 -0.65,0.6 -0.64,0 -1.26,-0.59 -2.29,-2.18 l 0.67,2.16 -0.03,0.02 c -0.54,-0.11 -0.75,-0.15 -1.61,-0.31 v -0.15 c 0.5,-0.01 0.63,-0.07 0.63,-0.27 0,-0.06 -0.01,-0.12 -0.02,-0.17 l -0.95,-3.48 h 0.74 c 0.47,1.57 0.56,1.79 1,2.47 0.6,0.91 1.1,1.41 1.47,1.41 0.15,0 0.24,-0.11 0.24,-0.29 0,-0.12 -0.06,-0.45 -0.14,-0.76 l -0.44,-1.64 c -0.13,-0.5 -0.16,-0.64 -0.16,-0.74 0,-0.38 0.14,-0.54 0.47,-0.54 0.45,0 0.71,0.21 1.39,1.12 z"
         id="path3171" /><path
         style="fill:#000000;stroke-width:0"
         inkscape:connector-curvature="0"
         d="m 309.91,477.49 h 0.9 l -0.88,-4.18 c -0.22,-1.06 -0.55,-1.61 -0.96,-1.61 -0.12,0 -0.2,0.07 -0.2,0.16 0,0.03 0.01,0.06 0.04,0.11 0.04,0.06 0.05,0.1 0.05,0.16 0,0.21 -0.18,0.38 -0.39,0.38 -0.21,0 -0.37,-0.18 -0.37,-0.41 0,-0.34 0.35,-0.6 0.79,-0.6 0.88,0 1.58,0.98 1.99,2.81 l 0.71,3.18 h 1.09 l 0.06,0.31 h -1.08 c 0.29,1.56 0.66,2.27 1.22,2.27 0.13,0 0.22,-0.05 0.22,-0.12 0,-0.03 -0.02,-0.05 -0.05,-0.1 -0.03,-0.09 -0.05,-0.14 -0.05,-0.21 0,-0.24 0.14,-0.4 0.36,-0.4 0.23,0 0.42,0.18 0.42,0.4 0,0.37 -0.37,0.65 -0.85,0.65 -0.49,0 -0.88,-0.22 -1.24,-0.69 -0.3,-0.39 -0.49,-0.84 -0.79,-1.8 h -0.92 z"
         id="path3173" /><path
         style="fill:#000000;stroke-width:0"
         inkscape:connector-curvature="0"
         d="m 316.72,480.27 -0.06,-0.05 -0.07,-0.04 -0.06,-0.04 -0.06,-0.04 -0.06,-0.04 -0.06,-0.04 -0.05,-0.04 -0.05,-0.04 -0.06,-0.03 -0.04,-0.04 -0.05,-0.03 -0.05,-0.04 -0.04,-0.03 -0.04,-0.04 -0.09,-0.07 -0.07,-0.06 -0.08,-0.07 -0.07,-0.07 -0.07,-0.07 -0.07,-0.08 -0.06,-0.07 -0.07,-0.08 -0.07,-0.08 c -0.71,-0.87 -1.05,-1.86 -1.05,-3.03 0,-1.26 0.36,-2.23 1.24,-3.24 0.41,-0.48 0.67,-0.7 1.18,-1.02 l 0.12,0.16 c -0.79,0.63 -1.07,0.98 -1.34,1.72 -0.24,0.67 -0.35,1.42 -0.35,2.41 0,1.05 0.13,1.86 0.4,2.48 0.28,0.61 0.58,0.97 1.29,1.55 z"
         id="path3175" /><path
         style="fill:#000000;stroke-width:0"
         inkscape:connector-curvature="0"
         d="m 321.6,474.65 -0.01,-0.01 -0.02,-0.02 -0.01,-0.01 -0.01,-0.02 -0.02,-0.01 -0.01,-0.02 -0.01,-0.01 -0.01,-0.02 -0.02,-0.01 -0.01,-0.02 -0.01,-0.02 -0.02,-0.01 0,-0.01 -0.01,-0.01 -0.01,-0.01 0,-0.01 -0.01,-0.01 -0.01,-0.01 -0.01,-0.01 -0.01,-0.01 c -0.23,-0.3 -0.34,-0.4 -0.45,-0.4 -0.15,0 -0.24,0.13 -0.31,0.41 -0.02,0.08 -0.03,0.14 -0.04,0.17 -0.25,1 -0.36,1.45 -0.36,1.6 0.44,0.77 0.8,1.21 0.98,1.21 0.05,0 0.13,-0.03 0.23,-0.08 0.12,-0.07 0.19,-0.09 0.27,-0.09 0.21,0 0.35,0.15 0.35,0.36 0,0.2 -0.17,0.36 -0.41,0.36 -0.44,0 -0.81,-0.35 -1.5,-1.42 l -0.11,0.55 c -0.14,0.67 -0.25,0.87 -0.52,0.87 -0.22,0 -0.55,-0.09 -1.16,-0.29 l -0.11,-0.03 0.04,-0.15 c 0.38,0.09 0.47,0.11 0.56,0.11 0.24,0 0.3,-0.09 0.44,-0.69 l 0.29,-1.22 -0.81,-1.16 c -0.2,-0.3 -0.4,-0.48 -0.51,-0.48 -0.06,0 -0.16,0.03 -0.26,0.09 -0.13,0.07 -0.24,0.1 -0.32,0.1 -0.19,0 -0.34,-0.15 -0.34,-0.35 0,-0.26 0.2,-0.42 0.5,-0.42 0.31,0 0.43,0.09 0.93,0.7 0.27,0.32 0.47,0.58 0.89,1.16 l 0.3,-1.19 c 0.13,-0.51 0.26,-0.67 0.58,-0.67 0.38,0 0.64,0.24 1.21,1.14 z"
         id="path3177" /><path
         style="fill:#000000;stroke-width:0"
         inkscape:connector-curvature="0"
         d="m 322.43,471.79 0.07,0.05 0.07,0.04 0.06,0.04 0.06,0.04 0.06,0.04 0.06,0.04 0.05,0.04 0.05,0.04 0.05,0.03 0.05,0.04 0.05,0.04 0.05,0.03 0.04,0.03 0.04,0.04 0.08,0.07 0.08,0.07 0.08,0.06 0.07,0.07 0.07,0.07 0.06,0.08 0.07,0.07 0.07,0.08 0.07,0.09 c 0.7,0.86 1.05,1.85 1.05,3.02 0,1.27 -0.37,2.23 -1.24,3.24 -0.41,0.48 -0.67,0.7 -1.19,1.02 l -0.11,-0.16 c 0.79,-0.63 1.06,-0.97 1.34,-1.72 0.24,-0.67 0.35,-1.42 0.35,-2.41 0,-1.04 -0.13,-1.86 -0.4,-2.47 -0.28,-0.62 -0.58,-0.98 -1.29,-1.56 z"
         id="path3179" /><polygon
         style="fill:#000000;stroke-width:0"
         points="328.76,476.83 333.85,476.83 333.85,477.39 328.76,477.39 "
         id="polygon3181" /><polygon
         style="fill:#000000;stroke-width:0"
         points="328.76,474.81 333.85,474.81 333.85,475.37 328.76,475.37 "
         id="polygon3183" /><path
         style="fill:#000000;stroke-width:0"
         inkscape:connector-curvature="0"
         d="m 347.5,487.01 -1.79,-0.9 v -0.14 c 0.12,0.05 0.23,0.09 0.27,0.11 0.17,0.07 0.34,0.11 0.44,0.11 0.21,0 0.3,-0.15 0.3,-0.47 v -4.5 c 0,-0.33 -0.08,-0.56 -0.24,-0.64 -0.15,-0.09 -0.28,-0.12 -0.7,-0.13 v -0.15 h 2.74 v 0.15 c -0.78,0.01 -0.94,0.1 -0.94,0.58 v 5.96 z"
         id="path3185" /><line
         style="stroke-width:0.55800003"
         x1="338.44"
         y1="476.10999"
         x2="355.75"
         y2="476.10999"
         id="line3187" /><path
         style="fill:#000000;stroke-width:0"
         inkscape:connector-curvature="0"
         d="m 340.28,470.65 h 0.9 l -0.88,-4.17 c -0.22,-1.06 -0.54,-1.61 -0.96,-1.61 -0.12,0 -0.2,0.07 -0.2,0.16 0,0.03 0.01,0.06 0.04,0.11 0.04,0.06 0.05,0.1 0.05,0.16 0,0.21 -0.18,0.37 -0.39,0.37 -0.21,0 -0.37,-0.17 -0.37,-0.4 0,-0.34 0.35,-0.61 0.79,-0.61 0.88,0 1.58,0.98 1.99,2.81 l 0.71,3.18 h 1.09 l 0.06,0.32 h -1.08 c 0.29,1.56 0.66,2.26 1.22,2.26 0.13,0 0.22,-0.05 0.22,-0.12 0,-0.02 -0.01,-0.04 -0.04,-0.09 -0.04,-0.09 -0.06,-0.14 -0.06,-0.21 0,-0.24 0.15,-0.4 0.37,-0.4 0.22,0 0.41,0.18 0.41,0.4 0,0.36 -0.36,0.64 -0.85,0.64 -0.49,0 -0.88,-0.22 -1.24,-0.68 -0.29,-0.39 -0.49,-0.85 -0.79,-1.8 h -0.92 z"
         id="path3189" /><path
         style="fill:#000000;stroke-width:0"
         inkscape:connector-curvature="0"
         d="m 347.09,473.43 -0.06,-0.04 -0.07,-0.04 -0.06,-0.05 -0.06,-0.04 -0.06,-0.04 -0.06,-0.03 -0.05,-0.04 -0.05,-0.04 -0.05,-0.04 -0.05,-0.03 -0.05,-0.04 -0.05,-0.03 -0.04,-0.04 -0.04,-0.03 -0.09,-0.07 -0.07,-0.07 -0.08,-0.07 -0.07,-0.07 -0.07,-0.07 -0.07,-0.07 -0.06,-0.08 -0.07,-0.08 -0.07,-0.08 c -0.71,-0.86 -1.05,-1.86 -1.05,-3.02 0,-1.26 0.37,-2.23 1.24,-3.25 0.41,-0.47 0.67,-0.69 1.18,-1.01 l 0.12,0.16 c -0.79,0.62 -1.07,0.97 -1.34,1.72 -0.24,0.66 -0.35,1.42 -0.35,2.41 0,1.04 0.13,1.86 0.4,2.48 0.28,0.61 0.58,0.97 1.29,1.54 z"
         id="path3191" /><path
         style="fill:#000000;stroke-width:0"
         inkscape:connector-curvature="0"
         d="m 351.98,467.82 -0.02,-0.02 -0.01,-0.01 -0.02,-0.02 -0.01,-0.01 -0.01,-0.02 -0.02,-0.01 -0.01,-0.02 -0.01,-0.01 -0.01,-0.02 -0.02,-0.01 -0.01,-0.02 -0.01,-0.02 -0.01,-0.01 -0.01,-0.01 0,-0.01 -0.01,-0.01 -0.01,-0.01 -0.01,-0.01 -0.01,-0.01 0,-0.01 c -0.23,-0.3 -0.35,-0.4 -0.46,-0.4 -0.15,0 -0.24,0.13 -0.31,0.41 -0.02,0.08 -0.03,0.14 -0.04,0.17 -0.25,1 -0.36,1.46 -0.36,1.61 0.44,0.77 0.8,1.2 0.98,1.2 0.06,0 0.14,-0.03 0.23,-0.08 0.12,-0.07 0.19,-0.09 0.27,-0.09 0.21,0 0.35,0.15 0.35,0.36 0,0.21 -0.17,0.37 -0.41,0.37 -0.43,0 -0.81,-0.36 -1.5,-1.42 l -0.11,0.55 c -0.14,0.67 -0.25,0.87 -0.51,0.87 -0.22,0 -0.56,-0.09 -1.17,-0.29 l -0.11,-0.04 0.04,-0.15 c 0.38,0.09 0.47,0.11 0.56,0.11 0.25,0 0.31,-0.09 0.45,-0.68 l 0.29,-1.23 -0.82,-1.16 c -0.2,-0.3 -0.4,-0.48 -0.51,-0.48 -0.06,0 -0.16,0.03 -0.26,0.09 -0.13,0.07 -0.24,0.1 -0.31,0.1 -0.19,0 -0.34,-0.14 -0.34,-0.34 0,-0.26 0.19,-0.42 0.49,-0.42 0.31,0 0.43,0.09 0.93,0.69 0.27,0.32 0.48,0.59 0.89,1.17 l 0.3,-1.2 c 0.13,-0.5 0.26,-0.66 0.58,-0.66 0.38,0 0.64,0.24 1.21,1.13 z"
         id="path3193" /><path
         style="fill:#000000;stroke-width:0"
         inkscape:connector-curvature="0"
         d="m 352.81,464.96 0.06,0.04 0.07,0.05 0.06,0.04 0.06,0.04 0.06,0.04 0.06,0.04 0.05,0.04 0.05,0.03 0.05,0.04 0.05,0.04 0.05,0.03 0.05,0.04 0.04,0.03 0.04,0.04 0.09,0.06 0.07,0.07 0.08,0.07 0.07,0.07 0.07,0.07 0.07,0.07 0.06,0.08 0.07,0.08 0.07,0.08 c 0.71,0.87 1.05,1.86 1.05,3.02 0,1.27 -0.37,2.24 -1.24,3.25 -0.41,0.48 -0.67,0.69 -1.18,1.01 l -0.12,-0.16 c 0.79,-0.62 1.06,-0.97 1.34,-1.71 0.24,-0.67 0.35,-1.42 0.35,-2.42 0,-1.03 -0.13,-1.86 -0.4,-2.46 -0.28,-0.63 -0.58,-0.98 -1.29,-1.56 z"
         id="path3195" /><path
         style="fill:#000000;stroke-width:0"
         inkscape:connector-curvature="0"
         d="m 362.74,481.4 -0.02,-0.03 -0.03,-0.03 -0.02,-0.02 -0.02,-0.03 -0.02,-0.02 -0.03,-0.03 -0.02,-0.02 -0.02,-0.03 -0.02,-0.02 -0.02,-0.02 -0.02,-0.02 -0.02,-0.02 -0.01,-0.02 -0.02,-0.02 -0.04,-0.04 -0.03,-0.03 -0.03,-0.04 -0.03,-0.03 -0.03,-0.02 -0.02,-0.03 -0.03,-0.02 -0.02,-0.02 -0.02,-0.02 -0.02,-0.02 -0.02,-0.02 -0.02,-0.01 -0.02,-0.02 -0.02,-0.01 -0.02,-0.01 -0.01,0 -0.02,-0.01 -0.01,-0.01 -0.02,0 -0.02,-0.01 -0.01,0 -0.02,0 -0.01,0 -0.03,-0.01 c -0.1,0 -0.18,0.09 -0.18,0.2 0,0.14 0.32,1.35 0.64,2.45 0.27,0.91 0.48,1.71 0.99,3.69 l -0.05,0.05 c -0.53,-0.11 -0.88,-0.17 -1.52,-0.23 v -0.17 c 0.55,-0.01 0.61,-0.04 0.61,-0.25 0,-0.13 0,-0.19 -0.14,-0.7 l -0.44,-1.63 c -0.08,0.42 -0.26,0.58 -0.65,0.58 l 0.04,-0.23 c 0.3,-0.02 0.45,-0.21 0.45,-0.57 0,-1.51 -1.04,-3.22 -1.95,-3.22 -0.34,0 -0.58,0.27 -0.58,0.66 0,0.82 0.5,1.98 1.16,2.67 0.27,0.29 0.64,0.48 0.92,0.46 h 0 l -0.04,0.23 c -1.29,0 -2.9,-1.87 -2.9,-3.36 0,-0.71 0.39,-1.13 1.04,-1.13 0.68,0 1.12,0.32 1.79,1.31 -0.11,-0.51 -0.13,-0.66 -0.13,-0.89 0,-0.26 0.17,-0.44 0.42,-0.44 0.42,0 0.94,0.41 1.45,1.13 z"
         id="path3197" /><path
         style="fill:#000000;stroke-width:0"
         inkscape:connector-curvature="0"
         d="m 365.23,484.23 h 0.89 l -0.87,-4.17 c -0.22,-1.06 -0.55,-1.61 -0.96,-1.61 -0.12,0 -0.2,0.07 -0.2,0.16 0,0.03 0.01,0.06 0.04,0.11 0.04,0.06 0.04,0.1 0.04,0.16 0,0.2 -0.17,0.37 -0.38,0.37 -0.21,0 -0.37,-0.17 -0.37,-0.4 0,-0.34 0.35,-0.61 0.78,-0.61 0.89,0 1.59,0.98 2,2.81 l 0.71,3.18 H 368 l 0.05,0.32 h -1.07 c 0.29,1.56 0.66,2.26 1.22,2.26 0.12,0 0.21,-0.05 0.21,-0.12 0,-0.02 -0.01,-0.05 -0.04,-0.09 -0.04,-0.09 -0.06,-0.14 -0.06,-0.21 0,-0.24 0.15,-0.4 0.37,-0.4 0.23,0 0.42,0.18 0.42,0.4 0,0.36 -0.37,0.64 -0.86,0.64 -0.48,0 -0.87,-0.22 -1.23,-0.68 -0.3,-0.39 -0.5,-0.85 -0.8,-1.8 h -0.91 z"
         id="path3199" /><line
         style="stroke-width:0.55800003"
         x1="358.14001"
         y1="476.10999"
         x2="369.10999"
         y2="476.10999"
         id="line3201" /><path
         style="fill:#000000;stroke-width:0"
         inkscape:connector-curvature="0"
         d="m 363.13,467.82 -0.03,-0.03 -0.02,-0.03 -0.03,-0.02 -0.02,-0.03 -0.02,-0.02 -0.02,-0.03 -0.02,-0.02 -0.03,-0.03 -0.02,-0.02 -0.02,-0.02 -0.01,-0.02 -0.02,-0.02 -0.02,-0.02 -0.02,-0.02 -0.03,-0.04 -0.04,-0.03 -0.03,-0.04 -0.03,-0.03 -0.02,-0.02 -0.03,-0.03 -0.02,-0.02 -0.03,-0.02 -0.02,-0.02 -0.02,-0.02 -0.02,-0.02 -0.02,-0.01 -0.02,-0.01 -0.02,-0.02 -0.01,-0.01 -0.02,0 -0.02,-0.01 -0.01,-0.01 -0.02,0 -0.01,-0.01 -0.02,0 -0.01,0 -0.02,0 -0.03,-0.01 c -0.1,0 -0.18,0.09 -0.18,0.2 0,0.14 0.32,1.36 0.65,2.45 0.27,0.91 0.48,1.71 0.98,3.69 l -0.05,0.05 c -0.52,-0.11 -0.88,-0.17 -1.52,-0.23 v -0.16 c 0.55,-0.02 0.62,-0.05 0.62,-0.26 0,-0.13 -0.01,-0.19 -0.15,-0.7 l -0.44,-1.63 c -0.08,0.42 -0.26,0.58 -0.65,0.58 l 0.04,-0.23 c 0.3,-0.02 0.45,-0.21 0.45,-0.57 0,-1.51 -1.03,-3.22 -1.95,-3.22 -0.34,0 -0.57,0.27 -0.57,0.66 0,0.83 0.49,1.98 1.15,2.67 0.28,0.29 0.65,0.48 0.92,0.46 h 0 l -0.04,0.23 c -1.29,0 -2.9,-1.87 -2.9,-3.36 0,-0.7 0.4,-1.13 1.04,-1.13 0.68,0 1.12,0.32 1.8,1.31 -0.12,-0.51 -0.13,-0.66 -0.13,-0.88 0,-0.27 0.17,-0.45 0.41,-0.45 0.42,0 0.94,0.41 1.46,1.13 z"
         id="path3203" /><path
         style="fill:#000000;stroke-width:0"
         inkscape:connector-curvature="0"
         d="m 368.27,467.82 -0.02,-0.02 -0.01,-0.01 -0.01,-0.02 -0.02,-0.01 -0.01,-0.02 -0.01,-0.01 -0.02,-0.02 -0.01,-0.01 -0.01,-0.02 -0.01,-0.01 -0.02,-0.02 0,-0.01 -0.01,-0.01 -0.01,-0.01 0,-0.01 -0.01,-0.01 -0.01,-0.01 -0.01,-0.01 0,-0.01 -0.01,-0.01 -0.01,-0.01 c -0.23,-0.3 -0.35,-0.4 -0.46,-0.4 -0.15,0 -0.24,0.13 -0.31,0.41 -0.02,0.08 -0.03,0.14 -0.04,0.17 -0.25,1 -0.35,1.46 -0.35,1.61 0.43,0.77 0.79,1.2 0.97,1.2 0.06,0 0.14,-0.03 0.24,-0.08 0.12,-0.07 0.19,-0.09 0.27,-0.09 0.21,0 0.35,0.15 0.35,0.36 0,0.21 -0.17,0.37 -0.41,0.37 -0.44,0 -0.82,-0.36 -1.51,-1.42 l -0.1,0.55 c -0.14,0.67 -0.25,0.87 -0.52,0.87 -0.22,0 -0.56,-0.09 -1.16,-0.29 l -0.12,-0.04 0.05,-0.15 c 0.37,0.09 0.46,0.11 0.55,0.11 0.25,0 0.31,-0.09 0.45,-0.68 l 0.29,-1.23 -0.82,-1.16 c -0.2,-0.3 -0.4,-0.48 -0.5,-0.48 -0.06,0 -0.16,0.03 -0.26,0.09 -0.13,0.07 -0.24,0.1 -0.32,0.1 -0.19,0 -0.34,-0.14 -0.34,-0.34 0,-0.26 0.2,-0.42 0.5,-0.42 0.31,0 0.42,0.09 0.92,0.69 0.27,0.32 0.48,0.59 0.9,1.17 l 0.3,-1.2 c 0.13,-0.5 0.26,-0.66 0.57,-0.66 0.38,0 0.64,0.24 1.22,1.13 z"
         id="path3205" /><polygon
         style="fill:#000000;stroke-width:0"
         points="373.68,476.83 378.78,476.83 378.78,477.39 373.68,477.39 "
         id="polygon3207" /><polygon
         style="fill:#000000;stroke-width:0"
         points="373.68,474.81 378.78,474.81 378.78,475.37 373.68,475.37 "
         id="polygon3209" /><path
         style="fill:#000000;stroke-width:0"
         inkscape:connector-curvature="0"
         d="m 385.21,484.23 h 0.9 l -0.88,-4.17 c -0.22,-1.06 -0.55,-1.61 -0.96,-1.61 -0.12,0 -0.2,0.07 -0.2,0.16 0,0.03 0.01,0.06 0.04,0.11 0.04,0.06 0.05,0.1 0.05,0.16 0,0.2 -0.18,0.37 -0.39,0.37 -0.21,0 -0.37,-0.17 -0.37,-0.4 0,-0.34 0.35,-0.61 0.78,-0.61 0.89,0 1.59,0.98 1.99,2.81 l 0.72,3.18 h 1.09 l 0.06,0.32 h -1.08 c 0.29,1.56 0.66,2.26 1.21,2.26 0.13,0 0.22,-0.05 0.22,-0.12 0,-0.02 -0.01,-0.05 -0.04,-0.09 -0.04,-0.09 -0.06,-0.14 -0.06,-0.21 0,-0.24 0.15,-0.4 0.37,-0.4 0.23,0 0.42,0.18 0.42,0.4 0,0.36 -0.37,0.64 -0.85,0.64 -0.49,0 -0.88,-0.22 -1.24,-0.68 -0.3,-0.39 -0.5,-0.85 -0.79,-1.8 h -0.92 z"
         id="path3211" /><path
         style="fill:#000000;stroke-width:0"
         inkscape:connector-curvature="0"
         d="m 391.15,486.77 0,0.02 0,0.03 0,0.02 -0.01,0.02 0,0.02 -0.01,0.02 -0.01,0.02 -0.01,0.02 -0.01,0.02 -0.01,0.01 -0.01,0.02 -0.02,0.02 -0.01,0.01 -0.02,0.02 -0.01,0.01 -0.02,0.02 -0.02,0.01 -0.01,0.01 -0.02,0.01 -0.02,0.02 -0.02,0.01 -0.02,0 -0.02,0.01 -0.02,0.01 -0.02,0.01 -0.02,0 -0.02,0.01 -0.02,0 -0.03,0.01 -0.02,0 -0.02,0 -0.02,0 c -0.26,0 -0.38,-0.25 -0.45,-0.46 l -0.73,-2.11 c -0.02,-0.05 -0.07,-0.18 -0.07,-0.24 0,-0.06 0.05,-0.14 0.12,-0.14 0.1,0 0.22,0.14 0.27,0.22 l 1.14,1.8 c 0.1,0.15 0.19,0.34 0.19,0.52 z"
         id="path3213" /><path
         style="fill:#000000;stroke-width:0"
         inkscape:connector-curvature="0"
         d="m 394.94,487.01 -0.07,-0.04 -0.06,-0.04 -0.07,-0.05 -0.06,-0.04 -0.06,-0.04 -0.05,-0.04 -0.06,-0.03 -0.05,-0.04 -0.05,-0.04 -0.05,-0.03 -0.05,-0.04 -0.04,-0.03 -0.05,-0.04 -0.04,-0.03 -0.08,-0.07 -0.08,-0.07 -0.07,-0.07 -0.07,-0.07 -0.07,-0.07 -0.07,-0.07 -0.07,-0.08 -0.07,-0.08 -0.06,-0.08 c -0.71,-0.86 -1.06,-1.86 -1.06,-3.02 0,-1.26 0.37,-2.23 1.25,-3.25 0.4,-0.47 0.66,-0.69 1.18,-1.01 l 0.12,0.16 c -0.8,0.62 -1.08,0.97 -1.35,1.72 -0.23,0.66 -0.34,1.42 -0.34,2.41 0,1.04 0.13,1.86 0.39,2.47 0.28,0.62 0.58,0.98 1.3,1.55 z"
         id="path3215" /><path
         style="fill:#000000;stroke-width:0"
         inkscape:connector-curvature="0"
         d="m 399.82,481.4 -0.01,-0.02 -0.02,-0.01 -0.01,-0.02 -0.02,-0.01 -0.01,-0.02 -0.01,-0.01 -0.01,-0.02 -0.02,-0.01 -0.01,-0.02 -0.01,-0.01 -0.01,-0.02 -0.02,-0.02 -0.01,-0.01 0,-0.01 -0.01,-0.01 -0.01,-0.01 0,-0.01 -0.01,-0.01 -0.01,-0.01 -0.01,-0.01 c -0.23,-0.3 -0.35,-0.4 -0.46,-0.4 -0.15,0 -0.24,0.13 -0.31,0.41 -0.01,0.08 -0.03,0.14 -0.03,0.17 -0.25,1 -0.36,1.46 -0.36,1.61 0.43,0.76 0.79,1.2 0.97,1.2 0.06,0 0.14,-0.03 0.24,-0.08 0.12,-0.07 0.19,-0.09 0.27,-0.09 0.21,0 0.35,0.15 0.35,0.36 0,0.21 -0.17,0.37 -0.41,0.37 -0.44,0 -0.82,-0.36 -1.5,-1.42 l -0.11,0.54 c -0.14,0.68 -0.25,0.88 -0.52,0.88 -0.22,0 -0.56,-0.09 -1.16,-0.29 l -0.11,-0.04 0.04,-0.15 c 0.38,0.09 0.46,0.11 0.55,0.11 0.25,0 0.31,-0.09 0.45,-0.69 l 0.29,-1.22 -0.82,-1.16 c -0.2,-0.3 -0.39,-0.48 -0.5,-0.48 -0.06,0 -0.16,0.03 -0.26,0.09 -0.13,0.07 -0.24,0.1 -0.32,0.1 -0.19,0 -0.34,-0.15 -0.34,-0.34 0,-0.26 0.2,-0.42 0.5,-0.42 0.31,0 0.43,0.09 0.92,0.69 0.27,0.32 0.48,0.59 0.9,1.17 l 0.3,-1.2 c 0.13,-0.5 0.26,-0.66 0.57,-0.66 0.38,0 0.64,0.24 1.22,1.13 z"
         id="path3217" /><path
         style="fill:#000000;stroke-width:0"
         inkscape:connector-curvature="0"
         d="m 400.65,478.54 0.07,0.04 0.06,0.05 0.07,0.04 0.06,0.04 0.06,0.04 0.05,0.04 0.06,0.03 0.05,0.04 0.05,0.04 0.05,0.03 0.05,0.04 0.04,0.04 0.05,0.03 0.04,0.03 0.08,0.07 0.08,0.07 0.07,0.07 0.07,0.07 0.07,0.07 0.07,0.07 0.07,0.08 0.07,0.08 0.06,0.08 c 0.71,0.87 1.06,1.86 1.06,3.02 0,1.27 -0.37,2.24 -1.25,3.25 -0.4,0.48 -0.66,0.69 -1.18,1.01 l -0.12,-0.16 c 0.8,-0.62 1.07,-0.97 1.34,-1.71 0.24,-0.67 0.35,-1.43 0.35,-2.42 0,-1.03 -0.13,-1.86 -0.39,-2.46 -0.28,-0.63 -0.58,-0.99 -1.3,-1.56 z"
         id="path3219" /><line
         style="stroke-width:0.55800003"
         x1="383.37"
         y1="476.10999"
         x2="403.59"
         y2="476.10999"
         id="line3221" /><path
         style="fill:#000000;stroke-width:0"
         inkscape:connector-curvature="0"
         d="m 386.67,470.65 h 0.9 l -0.88,-4.17 c -0.22,-1.06 -0.55,-1.61 -0.97,-1.61 -0.11,0 -0.2,0.07 -0.2,0.16 0,0.03 0.02,0.06 0.05,0.11 0.04,0.06 0.04,0.1 0.04,0.16 0,0.21 -0.17,0.37 -0.38,0.37 -0.21,0 -0.37,-0.17 -0.37,-0.4 0,-0.34 0.35,-0.61 0.78,-0.61 0.89,0 1.59,0.98 1.99,2.81 l 0.72,3.18 h 1.08 l 0.06,0.32 h -1.07 c 0.29,1.56 0.66,2.26 1.21,2.26 0.13,0 0.22,-0.05 0.22,-0.12 0,-0.02 -0.01,-0.04 -0.04,-0.09 -0.04,-0.09 -0.06,-0.14 -0.06,-0.21 0,-0.24 0.15,-0.4 0.37,-0.4 0.23,0 0.42,0.18 0.42,0.4 0,0.36 -0.37,0.64 -0.86,0.64 -0.48,0 -0.87,-0.22 -1.23,-0.68 -0.3,-0.39 -0.5,-0.85 -0.8,-1.8 h -0.91 z"
         id="path3223" /><path
         style="fill:#000000;stroke-width:0"
         inkscape:connector-curvature="0"
         d="m 393.48,473.43 -0.07,-0.04 -0.06,-0.04 -0.07,-0.05 -0.06,-0.04 -0.05,-0.04 -0.06,-0.03 -0.06,-0.04 -0.05,-0.04 -0.05,-0.04 -0.05,-0.03 -0.04,-0.04 -0.05,-0.03 -0.04,-0.04 -0.05,-0.03 -0.08,-0.07 -0.08,-0.07 -0.07,-0.07 -0.07,-0.07 -0.07,-0.07 -0.07,-0.07 -0.07,-0.08 -0.06,-0.08 -0.07,-0.08 c -0.71,-0.86 -1.06,-1.86 -1.06,-3.02 0,-1.26 0.37,-2.23 1.25,-3.25 0.4,-0.47 0.66,-0.69 1.18,-1.01 l 0.12,0.16 c -0.8,0.62 -1.08,0.97 -1.34,1.72 -0.24,0.66 -0.35,1.42 -0.35,2.41 0,1.04 0.13,1.86 0.4,2.48 0.27,0.61 0.57,0.97 1.29,1.54 z"
         id="path3225" /><path
         style="fill:#000000;stroke-width:0"
         inkscape:connector-curvature="0"
         d="m 398.36,467.82 -0.01,-0.02 -0.02,-0.01 -0.01,-0.02 -0.01,-0.01 -0.02,-0.02 -0.01,-0.01 -0.01,-0.02 -0.02,-0.01 -0.01,-0.02 -0.01,-0.01 -0.01,-0.02 -0.02,-0.02 0,-0.01 -0.01,-0.01 -0.01,-0.01 -0.01,-0.01 0,-0.01 -0.01,-0.01 -0.01,-0.01 -0.01,-0.01 c -0.23,-0.3 -0.35,-0.4 -0.46,-0.4 -0.14,0 -0.23,0.13 -0.3,0.41 -0.02,0.08 -0.03,0.14 -0.04,0.17 -0.25,1 -0.36,1.46 -0.36,1.61 0.44,0.77 0.79,1.2 0.97,1.2 0.06,0 0.14,-0.03 0.24,-0.08 0.12,-0.07 0.19,-0.09 0.27,-0.09 0.21,0 0.35,0.15 0.35,0.36 0,0.21 -0.17,0.37 -0.41,0.37 -0.44,0 -0.82,-0.36 -1.5,-1.42 l -0.11,0.55 c -0.14,0.67 -0.25,0.87 -0.52,0.87 -0.22,0 -0.56,-0.09 -1.16,-0.29 l -0.11,-0.04 0.04,-0.15 c 0.38,0.09 0.47,0.11 0.56,0.11 0.24,0 0.3,-0.09 0.44,-0.68 l 0.29,-1.23 -0.81,-1.16 c -0.2,-0.3 -0.4,-0.48 -0.51,-0.48 -0.06,0 -0.16,0.03 -0.26,0.09 -0.13,0.07 -0.24,0.1 -0.32,0.1 -0.19,0 -0.34,-0.14 -0.34,-0.34 0,-0.26 0.2,-0.42 0.5,-0.42 0.31,0 0.43,0.09 0.93,0.69 0.26,0.32 0.47,0.59 0.89,1.17 l 0.3,-1.2 c 0.13,-0.5 0.26,-0.66 0.58,-0.66 0.37,0 0.63,0.24 1.21,1.13 z"
         id="path3227" /><path
         style="fill:#000000;stroke-width:0"
         inkscape:connector-curvature="0"
         d="m 399.19,464.96 0.07,0.04 0.06,0.05 0.07,0.04 0.06,0.04 0.06,0.04 0.05,0.04 0.06,0.04 0.05,0.03 0.05,0.04 0.05,0.04 0.05,0.03 0.04,0.04 0.05,0.03 0.04,0.04 0.08,0.06 0.08,0.07 0.07,0.07 0.07,0.07 0.07,0.07 0.07,0.07 0.07,0.08 0.07,0.08 0.07,0.08 c 0.7,0.87 1.05,1.86 1.05,3.02 0,1.27 -0.37,2.24 -1.24,3.25 -0.41,0.48 -0.67,0.69 -1.19,1.01 l -0.12,-0.16 c 0.8,-0.62 1.07,-0.97 1.35,-1.71 0.23,-0.67 0.34,-1.42 0.34,-2.42 0,-1.03 -0.12,-1.86 -0.39,-2.46 -0.28,-0.63 -0.58,-0.98 -1.3,-1.56 z"
         id="path3229" /></g>    <path
       inkscape:connector-curvature="0"
       id="path3285"
       d="m 143.08974,1004.1153 6.60153,-28.49409 17.32903,0"
       style="fill:none;stroke:#000000;stroke-width:1.25;stroke-linecap:butt;stroke-linejoin:miter;stroke-miterlimit:4;stroke-opacity:1;stroke-dasharray:none;marker-start:url(#Arrow1Mstart);marker-mid:none" />
    <g
       style="font-style:normal;font-variant:normal;font-weight:normal;font-stretch:normal;letter-spacing:normal;word-spacing:normal;text-anchor:start;fill:none;stroke:#000000;stroke-linecap:butt;stroke-linejoin:miter;stroke-miterlimit:10.43299961;stroke-opacity:1;stroke-dasharray:none;stroke-dashoffset:0"
       ns0:preamble="/home/sriranga/Desktop/article23/figure/package.tex"
       ns0:text="chain rule"
       word-spacing="normal"
       letter-spacing="normal"
       font-size-adjust="none"
       font-stretch="normal"
       font-weight="normal"
       font-variant="normal"
       font-style="normal"
       stroke-miterlimit="10.433"
       xml:space="preserve"
       transform="matrix(1.2,0,0,-1.2,-95.699598,1550.4318)"
       id="g4890"><path
         id="path4892"
         d="m 227.39,478.79 -0.04,-0.07 -0.05,-0.06 -0.04,-0.06 -0.04,-0.05 -0.04,-0.06 -0.05,-0.05 -0.04,-0.05 -0.04,-0.04 -0.04,-0.05 -0.04,-0.04 -0.04,-0.04 -0.04,-0.04 -0.04,-0.03 -0.04,-0.03 -0.04,-0.03 -0.05,-0.03 -0.04,-0.03 -0.04,-0.02 -0.04,-0.03 -0.04,-0.02 -0.05,-0.02 -0.04,-0.01 -0.04,-0.02 -0.05,-0.01 -0.05,-0.01 -0.04,-0.01 -0.05,-0.01 -0.05,-0.01 -0.05,0 -0.05,-0.01 -0.05,0 -0.05,0 c -0.91,0 -1.54,0.8 -1.54,1.94 0,1.02 0.54,1.73 1.35,1.73 0.36,0 0.49,-0.11 0.59,-0.48 l 0.06,-0.22 c 0.08,-0.28 0.26,-0.46 0.46,-0.46 0.26,0 0.48,0.19 0.48,0.42 0,0.56 -0.69,1.02 -1.53,1.02 -0.49,0 -0.99,-0.19 -1.4,-0.55 -0.5,-0.44 -0.78,-1.11 -0.78,-1.9 0,-1.29 0.79,-2.21 1.89,-2.21 0.45,0 0.85,0.16 1.2,0.46 0.27,0.24 0.46,0.51 0.76,1.1 z"
         inkscape:connector-curvature="0"
         style="fill:#000000;stroke-width:0" /><path
         id="path4894"
         d="m 229.42,480.64 0.04,0.04 0.03,0.04 0.04,0.04 0.04,0.04 0.04,0.04 0.03,0.03 0.04,0.03 0.03,0.03 0.04,0.03 0.03,0.03 0.03,0.03 0.04,0.02 0.03,0.02 0.03,0.03 0.04,0.02 0.03,0.02 0.03,0.01 0.04,0.02 0.03,0.02 0.03,0.01 0.03,0.01 0.04,0.01 0.03,0.02 0.03,0 0.04,0.01 0.03,0.01 0.04,0.01 0.03,0 0.04,0 0.03,0.01 0.04,0 0.03,0 c 0.5,0 0.75,-0.36 0.75,-1.06 v -1.96 c 0,-0.68 -0.1,-0.81 -0.68,-0.87 v -0.15 h 2.11 v 0.15 c -0.54,0.1 -0.6,0.18 -0.6,0.87 v 1.98 c 0,1.04 -0.41,1.57 -1.22,1.57 -0.59,0 -1,-0.23 -1.46,-0.83 v 3.02 l -0.05,0.03 c -0.34,-0.12 -0.59,-0.2 -1.15,-0.36 l -0.26,-0.08 v -0.16 c 0.03,0.01 0.06,0.01 0.11,0.01 0.43,0 0.51,-0.08 0.51,-0.5 v -4.68 c 0,-0.7 -0.06,-0.79 -0.63,-0.87 v -0.15 h 2.14 v 0.15 c -0.57,0.06 -0.67,0.18 -0.67,0.87 z"
         inkscape:connector-curvature="0"
         style="fill:#000000;stroke-width:0" /><path
         id="path4896"
         d="m 237.23,477.89 -0.01,-0.01 -0.02,-0.01 -0.01,-0.02 -0.02,-0.01 -0.01,-0.01 -0.02,-0.01 -0.01,-0.01 -0.01,-0.01 -0.02,-0.01 -0.01,0 -0.02,-0.01 -0.01,-0.01 -0.01,-0.01 -0.02,0 -0.01,-0.01 -0.01,-0.01 -0.02,0 -0.01,-0.01 -0.01,0 -0.01,0 -0.02,-0.01 -0.01,0 -0.01,-0.01 -0.02,0 -0.02,0 -0.03,-0.01 -0.03,0 -0.02,0 c -0.23,0 -0.3,0.14 -0.3,0.58 v 1.93 c 0,0.52 -0.05,0.81 -0.2,1.05 -0.22,0.36 -0.65,0.54 -1.23,0.54 -0.94,0 -1.68,-0.48 -1.68,-1.11 0,-0.23 0.2,-0.42 0.43,-0.42 0.24,0 0.45,0.19 0.45,0.41 0,0.04 -0.01,0.09 -0.02,0.16 -0.02,0.09 -0.03,0.17 -0.03,0.24 0,0.27 0.32,0.49 0.72,0.49 0.48,0 0.75,-0.29 0.75,-0.83 v -0.6 -0.24 -1.44 c 0,-0.31 -0.05,-0.4 -0.26,-0.52 -0.23,-0.14 -0.51,-0.23 -0.72,-0.23 -0.35,0 -0.63,0.34 -0.63,0.77 v 0.04 c 0,0.58 0.41,0.94 1.61,1.38 v 0.24 c -1.53,-0.62 -1.7,-0.7 -2.13,-1.08 -0.22,-0.2 -0.35,-0.53 -0.35,-0.86 0,-0.63 0.43,-1.06 1.04,-1.06 0.44,0 0.85,0.2 1.45,0.72 0.05,-0.52 0.23,-0.72 0.64,-0.72 0.34,0 0.55,0.12 0.89,0.49 z"
         inkscape:connector-curvature="0"
         style="fill:#000000;stroke-width:0" /><path
         id="path4898"
         d="m 239,481.8 -1.54,-0.54 v -0.15 l 0.08,0.01 c 0.12,0.02 0.25,0.03 0.34,0.03 0.24,0 0.33,-0.16 0.33,-0.6 v -2.3 c 0,-0.72 -0.1,-0.83 -0.79,-0.87 v -0.15 h 2.36 v 0.15 c -0.66,0.05 -0.74,0.15 -0.74,0.87 v 3.52 z"
         inkscape:connector-curvature="0"
         style="fill:#000000;stroke-width:0" /><path
         id="path4900"
         d="m 238.53,484.02 -0.02,0 -0.03,0 -0.02,-0.01 -0.02,0 -0.03,-0.01 -0.02,0 -0.02,-0.01 -0.03,-0.01 -0.02,-0.01 -0.02,-0.01 -0.02,-0.01 -0.02,-0.02 -0.02,-0.01 -0.02,-0.02 -0.02,-0.01 -0.02,-0.02 -0.01,-0.02 -0.02,-0.02 -0.01,-0.01 -0.02,-0.02 -0.01,-0.03 -0.01,-0.02 -0.01,-0.02 -0.01,-0.02 -0.01,-0.02 -0.01,-0.03 -0.01,-0.02 0,-0.03 -0.01,-0.02 0,-0.03 0,-0.02 0,-0.03 c 0,-0.28 0.22,-0.5 0.49,-0.5 0.29,0 0.52,0.22 0.52,0.5 0,0.28 -0.23,0.51 -0.52,0.51 z"
         inkscape:connector-curvature="0"
         style="fill:#000000;stroke-width:0" /><path
         id="path4902"
         d="m 240.19,481.19 0,0 0.01,0 0.01,0.01 0,0 0.01,0 0.01,0 0,0.01 0.01,0 0.01,0 0.01,0 0.01,0 0.02,0.01 0.01,0 0.02,0 0.02,0 0.02,0 0.02,0.01 0.02,0 0.02,0 0.02,0 0.02,0 c 0.28,0 0.37,-0.15 0.37,-0.64 v -2.46 c 0,-0.57 -0.11,-0.71 -0.62,-0.75 v -0.15 h 2.11 v 0.15 c -0.51,0.04 -0.66,0.16 -0.66,0.52 v 2.79 c 0.48,0.45 0.7,0.57 1.03,0.57 0.48,0 0.72,-0.31 0.72,-0.96 v -2.08 c 0,-0.63 -0.13,-0.8 -0.62,-0.84 v -0.15 h 2.06 v 0.15 c -0.48,0.05 -0.6,0.17 -0.6,0.66 v 2.27 c 0,0.94 -0.44,1.49 -1.18,1.49 -0.45,0 -0.76,-0.16 -1.44,-0.8 v 0.79 l -0.07,0.01 c -0.49,-0.17 -0.82,-0.28 -1.37,-0.44 z"
         inkscape:connector-curvature="0"
         style="fill:#000000;stroke-width:0" /><path
         id="path4904"
         d="m 247.57,481.11 0.01,0 0.02,0 0.01,0.01 0.01,0 0.01,0 0.01,0 0.03,0.01 0.02,0 0.02,0 0.02,0.01 0.02,0 0.02,0 0.02,0 0.02,0.01 0.02,0 0.02,0 0.03,0 0.02,0 0.02,0 c 0.25,0 0.34,-0.16 0.34,-0.6 v -2.48 c 0,-0.5 -0.07,-0.57 -0.71,-0.69 v -0.15 h 2.39 v 0.15 c -0.68,0.03 -0.85,0.18 -0.85,0.75 v 2.23 c 0,0.32 0.43,0.82 0.7,0.82 0.06,0 0.15,-0.05 0.26,-0.15 0.16,-0.14 0.27,-0.2 0.4,-0.2 0.23,0 0.39,0.17 0.39,0.45 0,0.33 -0.21,0.52 -0.55,0.52 -0.42,0 -0.71,-0.22 -1.2,-0.93 v 0.92 l -0.05,0.01 c -0.52,-0.21 -0.88,-0.34 -1.47,-0.53 z"
         inkscape:connector-curvature="0"
         style="fill:#000000;stroke-width:0" /><path
         id="path4906"
         d="m 255.59,477.73 h -0.05 c -0.46,0 -0.57,0.11 -0.57,0.57 v 3.4 h -1.57 v -0.16 c 0.61,-0.03 0.73,-0.13 0.73,-0.63 v -2.33 c 0,-0.28 -0.05,-0.42 -0.19,-0.53 -0.27,-0.22 -0.57,-0.34 -0.87,-0.34 -0.39,0 -0.71,0.34 -0.71,0.76 v 3.23 h -1.45 v -0.13 c 0.48,-0.03 0.62,-0.18 0.62,-0.64 v -2.5 c 0,-0.79 0.47,-1.29 1.2,-1.29 0.37,0 0.76,0.16 1.02,0.42 l 0.43,0.43 v -0.82 l 0.04,-0.02 c 0.5,0.19 0.86,0.3 1.37,0.44 z"
         inkscape:connector-curvature="0"
         style="fill:#000000;stroke-width:0" /><path
         id="path4908"
         d="m 255.99,483.42 h 0.06 c 0.11,0.01 0.23,0.02 0.31,0.02 0.32,0 0.41,-0.14 0.41,-0.6 v -4.74 c 0,-0.54 -0.13,-0.67 -0.76,-0.72 v -0.15 h 2.35 v 0.15 c -0.63,0.04 -0.75,0.14 -0.75,0.69 V 484 l -0.04,0.02 c -0.52,-0.17 -0.89,-0.27 -1.58,-0.44 z"
         inkscape:connector-curvature="0"
         style="fill:#000000;stroke-width:0" /><path
         id="path4910"
         d="m 262.63,478.86 -0.05,-0.07 -0.04,-0.06 -0.04,-0.07 -0.05,-0.06 -0.04,-0.06 -0.05,-0.05 -0.04,-0.06 -0.04,-0.05 -0.05,-0.05 -0.04,-0.04 -0.05,-0.05 -0.04,-0.04 -0.05,-0.04 -0.04,-0.03 -0.05,-0.04 -0.04,-0.03 -0.05,-0.03 -0.05,-0.03 -0.04,-0.02 -0.05,-0.03 -0.05,-0.02 -0.05,-0.02 -0.05,-0.02 -0.05,-0.01 -0.05,-0.02 -0.06,-0.01 -0.05,-0.01 -0.05,-0.01 -0.06,0 -0.06,-0.01 -0.05,0 -0.06,0 c -0.57,0 -1,0.29 -1.29,0.85 -0.18,0.38 -0.25,0.71 -0.26,1.32 l 0.01,0.31 c 0.11,0.78 0.45,1.15 1.06,1.15 0.61,0 0.84,-0.28 0.97,-1.15 h -2.03 l -0.01,-0.31 h 3.06 c -0.08,0.64 -0.18,0.93 -0.43,1.25 -0.3,0.36 -0.75,0.56 -1.27,0.56 -0.5,0 -0.97,-0.17 -1.35,-0.51 -0.46,-0.41 -0.73,-1.12 -0.73,-1.93 0,-1.37 0.72,-2.22 1.86,-2.22 0.94,0 1.69,0.58 2.11,1.66 z"
         inkscape:connector-curvature="0"
         style="fill:#000000;stroke-width:0" /></g>  </g>
</svg>
