<?xml version="1.0" encoding="UTF-8" standalone="no"?>
<!-- Created with Inkscape (http://www.inkscape.org/) -->

<svg
   xmlns:dc="http://purl.org/dc/elements/1.1/"
   xmlns:cc="http://creativecommons.org/ns#"
   xmlns:rdf="http://www.w3.org/1999/02/22-rdf-syntax-ns#"
   xmlns:svg="http://www.w3.org/2000/svg"
   xmlns="http://www.w3.org/2000/svg"
   xmlns:sodipodi="http://sodipodi.sourceforge.net/DTD/sodipodi-0.dtd"
   xmlns:inkscape="http://www.inkscape.org/namespaces/inkscape"
   width="5cm"
   height="4cm"
   viewBox="0 0 0 1052.3622"
   id="svg2"
   version="1.1"
   inkscape:version="0.91 r13725"
   sodipodi:docname="ans16.svg">
  <defs
     id="defs4" />
  <sodipodi:namedview
     id="base"
     pagecolor="#ffffff"
     bordercolor="#666666"
     borderopacity="1.0"
     inkscape:pageopacity="0.0"
     inkscape:pageshadow="2"
     inkscape:zoom="4.2827222"
     inkscape:cx="84.496491"
     inkscape:cy="70.866142"
     inkscape:document-units="cm"
     inkscape:current-layer="layer1"
     showgrid="false"
     units="cm"
     inkscape:object-nodes="true"
     inkscape:window-width="1366"
     inkscape:window-height="744"
     inkscape:window-x="0"
     inkscape:window-y="24"
     inkscape:window-maximized="1">
    <inkscape:grid
       type="xygrid"
       id="grid4136" />
  </sodipodi:namedview>
  <metadata
     id="metadata7">
    <rdf:RDF>
      <cc:Work
         rdf:about="">
        <dc:format>image/svg+xml</dc:format>
        <dc:type
           rdf:resource="http://purl.org/dc/dcmitype/StillImage" />
        <dc:title></dc:title>
      </cc:Work>
    </rdf:RDF>
  </metadata>
  <g
     inkscape:label="Layer 1"
     inkscape:groupmode="layer"
     id="layer1"
     transform="translate(0,-910.63)">
    <g
       style="font-style:normal;font-variant:normal;font-weight:normal;font-stretch:normal;font-size:10px;line-height:125%;font-family:LMRoman12;-inkscape-font-specification:'LMRoman12, Normal';text-align:start;letter-spacing:0px;word-spacing:0px;writing-mode:lr-tb;text-anchor:start;fill:#000000;fill-opacity:1;stroke:none;stroke-width:1px;stroke-linecap:butt;stroke-linejoin:miter;stroke-opacity:1"
       id="text4318">
      <path
         d="m 91.704599,1000.8236 0,-0.29 -0.31,0 c -0.88,0 -0.91,-0.12 -0.91,-0.48 l 0,-5.63999 c 0,-0.23 0,-0.24 -0.2,-0.24 -0.24,0.27 -0.74,0.64 -1.77,0.64 l 0,0.29 c 0.23,0 0.73,0 1.28,-0.26 l 0,5.20999 c 0,0.36 -0.03,0.48 -0.91,0.48 l -0.31,0 0,0.29 c 0.27,-0.02 1.24,-0.02 1.57,-0.02 0.33,0 1.29,0 1.56,0.02 z"
         style=""
         id="path4173" />
    </g>
    <g
       style="font-style:normal;font-variant:normal;font-weight:normal;font-stretch:normal;font-size:10px;line-height:125%;font-family:LMRoman12;-inkscape-font-specification:'LMRoman12, Normal';text-align:start;letter-spacing:0px;word-spacing:0px;writing-mode:lr-tb;text-anchor:start;fill:#000000;fill-opacity:1;stroke:none;stroke-width:1px;stroke-linecap:butt;stroke-linejoin:miter;stroke-opacity:1"
       id="text4322">
      <path
         d="m 132.23352,999.55468 -0.22,0 c -0.03,0.17 -0.11,0.72002 -0.21,0.88002 -0.07,0.09 -0.64,0.09 -0.94,0.09 l -1.85,0 c 0.27,-0.23 0.88,-0.87002 1.14,-1.11002 1.52,-1.4 2.08,-1.92 2.08,-2.91 0,-1.15 -0.91,-1.92 -2.07,-1.92 -1.16,0 -1.84,0.99 -1.84,1.85 0,0.51 0.44,0.51 0.47,0.51 0.21,0 0.47,-0.15 0.47,-0.47 0,-0.28 -0.19,-0.47 -0.47,-0.47 -0.09,0 -0.11,0 -0.14,0.01 0.19,-0.68 0.73,-1.14 1.38,-1.14 0.85,0 1.37,0.71 1.37,1.63 0,0.85 -0.49,1.59 -1.06,2.23 l -2.02,2.26002 0,0.24 3.65,0 0.26,-1.68002 z"
         style=""
         id="path4176" />
    </g>
    <g
       style="font-style:normal;font-variant:normal;font-weight:normal;font-stretch:normal;font-size:10px;line-height:125%;font-family:LMRoman12;-inkscape-font-specification:'LMRoman12, Normal';text-align:start;letter-spacing:0px;word-spacing:0px;writing-mode:lr-tb;text-anchor:start;fill:#000000;fill-opacity:1;stroke:none;stroke-width:1px;stroke-linecap:butt;stroke-linejoin:miter;stroke-opacity:1"
       id="text4326">
      <path
         d="m 58.008706,976.36849 c 0,-0.92 -0.74,-1.64 -1.7,-1.81 0.87,-0.25 1.43,-0.98 1.43,-1.76 0,-0.79 -0.82,-1.37 -1.79,-1.37 -1,0 -1.74,0.61 -1.74,1.34 0,0.4 0.31,0.48 0.46,0.48 0.21,0 0.45,-0.15 0.45,-0.45 0,-0.32 -0.24,-0.46 -0.46,-0.46 -0.06,0 -0.08,0 -0.11,0.01 0.38,-0.68 1.32,-0.68 1.37,-0.68 0.33,0 0.98,0.15 0.98,1.13 0,0.19 -0.03,0.75 -0.32,1.18 -0.3,0.44 -0.64,0.47 -0.91,0.48 l -0.3,0.03 c -0.17,0.01 -0.21,0.02 -0.21,0.11 0,0.1 0.05,0.1 0.23,0.1 l 0.46,0 c 0.85,0 1.23,0.7 1.23,1.66 0,1.31 -0.68,1.66 -1.17,1.66 -0.48,0 -1.3,-0.23 -1.59,-0.89 0.32,0.05 0.61,-0.13 0.61,-0.49 0,-0.29 -0.21,-0.49 -0.49,-0.49 -0.24,0 -0.5,0.14 -0.5,0.52 0,0.89 0.89,1.62 2,1.62 1.19,0 2.07,-0.91 2.07,-1.92 z"
         style=""
         id="path4179" />
    </g>
    <g
       style="font-style:normal;font-variant:normal;font-weight:normal;font-stretch:normal;font-size:10px;line-height:125%;font-family:LMRoman12;-inkscape-font-specification:'LMRoman12, Normal';text-align:start;letter-spacing:0px;word-spacing:0px;writing-mode:lr-tb;text-anchor:start;fill:#000000;fill-opacity:1;stroke:none;stroke-width:1px;stroke-linecap:butt;stroke-linejoin:miter;stroke-opacity:1"
       id="text4330">
      <path
         d="m 79.697095,974.1165 0,-0.29 -1.01,0 0,-4.55 c 0,-0.19 0,-0.24 -0.14,-0.24 -0.08,0 -0.11,0 -0.19,0.12 l -3.01,4.67 0,0.29 2.63,0 0,0.91 c 0,0.37 -0.02,0.47 -0.75,0.47 l -0.2,0 0,0.29 c 0.23,-0.02 1.02,-0.02 1.3,-0.02 0.28,0 1.08,0 1.31,0.02 l 0,-0.29 -0.2,0 c -0.72,0 -0.75,-0.1 -0.75,-0.47 l 0,-0.91 1.01,0 z m -1.67,-0.29 -2.43,0 2.43,-3.77 0,3.77 z"
         style=""
         id="path4182" />
    </g>
    <g
       style="font-style:normal;font-variant:normal;font-weight:normal;font-stretch:normal;font-size:10px;line-height:125%;font-family:LMRoman12;-inkscape-font-specification:'LMRoman12, Normal';text-align:start;letter-spacing:0px;word-spacing:0px;writing-mode:lr-tb;text-anchor:start;fill:#000000;fill-opacity:1;stroke:none;stroke-width:1px;stroke-linecap:butt;stroke-linejoin:miter;stroke-opacity:1"
       id="text4338">
      <path
         d="m 144.07782,970.71651 0,-0.23 -2.41,0 c -1.21,0 -1.23,-0.13 -1.27,-0.32 l -0.22,0 -0.31,2 0.22,0 c 0.03,-0.18 0.12,-0.8 0.25,-0.91 0.08,-0.06 0.83,-0.06 0.97,-0.06 l 2.12,0 -1.06,1.52 c -0.27,0.39 -1.28,2.03 -1.28,3.91 0,0.11 0,0.51 0.41,0.51 0.42,0 0.42,-0.39 0.42,-0.52 l 0,-0.5 c 0,-1.49 0.24,-2.65 0.71,-3.32 l 1.45,-2.08 z"
         style=""
         id="path4188" />
    </g>
    <g
       style="font-style:normal;font-variant:normal;font-weight:normal;font-stretch:normal;font-size:10px;line-height:125%;font-family:LMRoman12;-inkscape-font-specification:'LMRoman12, Normal';text-align:start;letter-spacing:0px;word-spacing:0px;writing-mode:lr-tb;text-anchor:start;fill:#000000;fill-opacity:1;stroke:none;stroke-width:1px;stroke-linecap:butt;stroke-linejoin:miter;stroke-opacity:1"
       id="text4342">
      <path
         d="m 74.329739,955.17405 c 0,-1.02 -0.72,-1.47 -1.5,-1.95 0.5,-0.27 1.23,-0.73 1.23,-1.57 0,-0.87 -0.84,-1.47 -1.76,-1.47 -0.99,0 -1.77,0.73 -1.77,1.64 0,0.34 0.1,0.68 0.38,1.02 0.11,0.13 0.12,0.14 0.82,0.63 -0.97,0.45 -1.47,1.12 -1.47,1.85 0,1.06 1.01,1.72 2.03,1.72 1.11,0 2.04,-0.82 2.04,-1.87 z m -0.68,-3.51 c 0,0.61 -0.44,1.1 -1.02,1.42 l -1.16,-0.76 c -0.13,-0.09 -0.53,-0.35 -0.53,-0.84 0,-0.65 0.68,-1.06 1.35,-1.06 0.72,0 1.36,0.52 1.36,1.24 z m 0.22,3.83 c 0,0.76 -0.77,1.28 -1.57,1.28 -0.85,0 -1.58,-0.62 -1.58,-1.45 0,-0.78 0.57,-1.41 1.22,-1.71 l 1.21,0.79 c 0.26,0.17 0.72,0.48 0.72,1.09 z"
         style=""
         id="path4191" />
    </g>
    <g
       style="font-style:normal;font-variant:normal;font-weight:normal;font-stretch:normal;font-size:10px;line-height:125%;font-family:LMRoman12;-inkscape-font-specification:'LMRoman12, Normal';text-align:start;letter-spacing:0px;word-spacing:0px;writing-mode:lr-tb;text-anchor:start;fill:#000000;fill-opacity:1;stroke:none;stroke-width:1px;stroke-linecap:butt;stroke-linejoin:miter;stroke-opacity:1"
       id="text4350">
      <path
         d="m 93.476915,941.34656 0,-0.29 -0.31,0 c -0.88,0 -0.91,-0.12 -0.91,-0.48 l 0,-5.64 c 0,-0.23 0,-0.24 -0.2,-0.24 -0.24,0.27 -0.74,0.64 -1.77,0.64 l 0,0.29 c 0.23,0 0.73,0 1.28,-0.26 l 0,5.21 c 0,0.36 -0.03,0.48 -0.91,0.48 l -0.31,0 0,0.29 c 0.27,-0.02 1.24,-0.02 1.57,-0.02 0.33,0 1.29,0 1.56,0.02 z"
         style=""
         id="path4197" />
      <path
         d="m 98.759259,938.14656 c 0,-0.83 -0.05,-1.64 -0.41,-2.4 -0.41,-0.83 -1.13,-1.05 -1.62,-1.05 -0.58,0 -1.29,0.29 -1.66,1.12 -0.28,0.63 -0.38,1.25 -0.38,2.33 0,0.97 0.07,1.7 0.43,2.41 0.39,0.76 1.08,1 1.6,1 0.87,0 1.37,-0.52 1.66,-1.1 0.36,-0.75 0.38,-1.73 0.38,-2.31 z m -0.76,-0.12 c 0,0.67 0,1.43 -0.11,2.04 -0.19,1.1 -0.82,1.29 -1.17,1.29 -0.32,0 -0.97,-0.18 -1.16,-1.27 -0.11,-0.6 -0.11,-1.36 -0.11,-2.06 0,-0.82 0,-1.56 0.16,-2.15 0.17,-0.67 0.68,-0.98 1.11,-0.98 0.38,0 0.96,0.23 1.15,1.09 0.13,0.57 0.13,1.36 0.13,2.04 z"
         style=""
         id="path4199" />
    </g>
    <g
       style="font-style:normal;font-variant:normal;font-weight:normal;font-stretch:normal;font-size:10px;line-height:125%;font-family:LMRoman12;-inkscape-font-specification:'LMRoman12, Normal';text-align:start;letter-spacing:0px;word-spacing:0px;writing-mode:lr-tb;text-anchor:start;fill:#000000;fill-opacity:1;stroke:none;stroke-width:1px;stroke-linecap:butt;stroke-linejoin:miter;stroke-opacity:1"
       id="text4354">
      <path
         d="m 124.76068,941.36884 0,-0.29 -0.31,0 c -0.88,0 -0.91,-0.12 -0.91,-0.48 l 0,-5.64 c 0,-0.23 0,-0.24 -0.2,-0.24 -0.24,0.27 -0.74,0.64 -1.77,0.64 l 0,0.29 c 0.23,0 0.73,0 1.28,-0.26 l 0,5.21 c 0,0.36 -0.03,0.48 -0.91,0.48 l -0.31,0 0,0.29 c 0.27,-0.02 1.24,-0.02 1.57,-0.02 0.33,0 1.29,0 1.56,0.02 z"
         style=""
         id="path4202" />
      <path
         d="m 129.66303,941.36884 0,-0.29 -0.31,0 c -0.88,0 -0.91,-0.12 -0.91,-0.48 l 0,-5.64 c 0,-0.23 0,-0.24 -0.2,-0.24 -0.24,0.27 -0.74,0.64 -1.77,0.64 l 0,0.29 c 0.23,0 0.73,0 1.28,-0.26 l 0,5.21 c 0,0.36 -0.03,0.48 -0.91,0.48 l -0.31,0 0,0.29 c 0.27,-0.02 1.24,-0.02 1.57,-0.02 0.33,0 1.29,0 1.56,0.02 z"
         style=""
         id="path4204" />
    </g>
    <g
       style="font-style:normal;font-variant:normal;font-weight:normal;font-stretch:normal;font-size:10px;line-height:125%;font-family:LMRoman12;-inkscape-font-specification:'LMRoman12, Normal';text-align:start;letter-spacing:0px;word-spacing:0px;writing-mode:lr-tb;text-anchor:start;fill:#000000;fill-opacity:1;stroke:none;stroke-width:1px;stroke-linecap:butt;stroke-linejoin:miter;stroke-opacity:1"
       id="text4358">
      <path
         d="m 143.74963,947.1214 0,-0.29 -0.31,0 c -0.88,0 -0.91,-0.12 -0.91,-0.48 l 0,-5.64 c 0,-0.23 0,-0.24 -0.2,-0.24 -0.24,0.27 -0.74,0.64 -1.77,0.64 l 0,0.29 c 0.23,0 0.73,0 1.28,-0.26 l 0,5.21 c 0,0.36 -0.03,0.48 -0.91,0.48 l -0.31,0 0,0.29 c 0.27,-0.02 1.24,-0.02 1.57,-0.02 0.33,0 1.29,0 1.56,0.02 z"
         style=""
         id="path4207" />
      <path
         d="m 148.95197,945.4414 -0.22,0 c -0.03,0.17 -0.11,0.72 -0.21,0.88 -0.07,0.09 -0.64,0.09 -0.94,0.09 l -1.85,0 c 0.27,-0.23 0.88,-0.87 1.14,-1.11 1.52,-1.4 2.08,-1.92 2.08,-2.91 0,-1.15 -0.91,-1.92 -2.07,-1.92 -1.16,0 -1.84,0.99 -1.84,1.85 0,0.51 0.44,0.51 0.47,0.51 0.21,0 0.47,-0.15 0.47,-0.47 0,-0.28 -0.19,-0.47 -0.47,-0.47 -0.09,0 -0.11,0 -0.14,0.01 0.19,-0.68 0.73,-1.14 1.38,-1.14 0.85,0 1.37,0.71 1.37,1.63 0,0.85 -0.49,1.59 -1.06,2.23 l -2.02,2.26 0,0.24 3.65,0 0.26,-1.68 z"
         style=""
         id="path4209" />
    </g>
    <path
       transform="translate(0,910.63)"
       style="opacity:1;fill:none;fill-opacity:1;stroke:#000000;stroke-width:0.79999995;stroke-linecap:round;stroke-linejoin:round;stroke-miterlimit:4;stroke-dasharray:none;stroke-dashoffset:0;stroke-opacity:1"
       inkscape:transform-center-y="-5.5901699"
       d="M 90.635083,47.912624 110,14.371605 129.36492,47.912624"
       id="path4424"
       inkscape:connector-curvature="0"
       sodipodi:nodetypes="ccc" />
    <path
       transform="translate(-19.364917,944.17102)"
       style="opacity:1;fill:none;fill-opacity:1;stroke:#000000;stroke-width:0.79999995;stroke-linecap:round;stroke-linejoin:round;stroke-miterlimit:4;stroke-dasharray:none;stroke-dashoffset:0;stroke-opacity:1"
       inkscape:transform-center-y="-5.5901699"
       d="m 129.36492,47.912624 -38.729837,0 L 110,14.371605"
       id="path4426"
       inkscape:connector-curvature="0"
       sodipodi:nodetypes="ccc" />
    <path
       transform="translate(19.364916,944.17102)"
       style="opacity:1;fill:none;fill-opacity:1;stroke:#000000;stroke-width:0.79999995;stroke-linecap:round;stroke-linejoin:round;stroke-miterlimit:4;stroke-dasharray:none;stroke-dashoffset:0;stroke-opacity:1"
       inkscape:transform-center-y="-5.5901699"
       d="m 110,14.371605 19.36492,33.541019 -38.729837,0"
       id="path4428"
       inkscape:connector-curvature="0"
       sodipodi:nodetypes="ccc" />
    <path
       transform="matrix(1,0,0,-1,-38.729833,1006.4552)"
       style="opacity:1;fill:none;fill-opacity:1;stroke:#000000;stroke-width:0.79999995;stroke-linecap:round;stroke-linejoin:round;stroke-miterlimit:4;stroke-dasharray:none;stroke-dashoffset:0;stroke-opacity:1"
       inkscape:transform-center-y="5.5902005"
       d="m 129.36492,47.912624 -38.729837,0 L 110,14.371605 Z"
       id="path4430" />
    <path
       transform="matrix(1,0,0,-1,19.364917,972.91423)"
       style="opacity:1;fill:none;fill-opacity:1;stroke:#000000;stroke-width:0.79999995;stroke-linecap:round;stroke-linejoin:round;stroke-miterlimit:4;stroke-dasharray:none;stroke-dashoffset:0;stroke-opacity:1"
       inkscape:transform-center-y="5.5902005"
       d="m 129.36492,47.912624 -38.729837,0 L 110,14.371605 Z"
       id="path4432" />
    <path
       style="fill:#000000;stroke:none"
       d="m 111.75,925.00159 a 1.75,1.75 0 0 1 -1.75,1.75 1.75,1.75 0 0 1 -1.75,-1.75 1.75,1.75 0 0 1 1.75,-1.75 1.75,1.75 0 0 1 1.75,1.75 z"
       id="path4434" />
    <path
       style="fill:#000000;stroke:none"
       d="m 131.11491,958.5426 a 1.75,1.75 0 0 1 -1.75,1.75 1.75,1.75 0 0 1 -1.75,-1.75 1.75,1.75 0 0 1 1.75,-1.75 1.75,1.75 0 0 1 1.75,1.75 z"
       id="path4436" />
    <path
       style="fill:#000000;stroke:none"
       d="m 92.385086,958.5426 a 1.75,1.75 0 0 1 -1.75,1.75 1.75,1.75 0 0 1 -1.75,-1.75 1.75,1.75 0 0 1 1.75,-1.75 1.75,1.75 0 0 1 1.75,1.75 z"
       id="path4438" />
    <path
       style="fill:#000000;stroke:none"
       d="m 111.75,992.08362 a 1.75,1.75 0 0 1 -1.75,1.75 1.75,1.75 0 0 1 -1.75,-1.75 1.75,1.75 0 0 1 1.75,-1.75 1.75,1.75 0 0 1 1.75,1.75 z"
       id="path4440" />
    <path
       style="fill:#000000;stroke:none"
       d="m 150.47983,992.08362 a 1.75,1.75 0 0 1 -1.75,1.75 1.75,1.75 0 0 1 -1.75,-1.75 1.75,1.75 0 0 1 1.75,-1.75 1.75,1.75 0 0 1 1.75,1.75 z"
       id="path4442" />
    <path
       style="fill:#000000;stroke:none"
       d="m 53.655251,958.5426 a 1.75,1.75 0 0 1 -1.75,1.75 1.75,1.75 0 0 1 -1.75,-1.75 1.75,1.75 0 0 1 1.75,-1.75 1.75,1.75 0 0 1 1.75,1.75 z"
       id="path4444" />
    <path
       style="fill:#000000;stroke:none"
       d="m 73.020164,992.08362 a 1.75,1.75 0 0 1 -1.75,1.75 1.75,1.75 0 0 1 -1.75,-1.75 1.75,1.75 0 0 1 1.75,-1.75 1.75,1.75 0 0 1 1.75,1.75 z"
       id="path4446" />
    <g
       style="font-style:normal;font-variant:normal;font-weight:normal;font-stretch:normal;font-size:10px;line-height:125%;font-family:LMRoman12;-inkscape-font-specification:'LMRoman12, Normal';text-align:start;letter-spacing:0px;word-spacing:0px;writing-mode:lr-tb;text-anchor:start;fill:#000000;fill-opacity:1;stroke:none;stroke-width:1px;stroke-linecap:butt;stroke-linejoin:miter;stroke-opacity:1"
       id="text4448">
      <path
         d="m 128.96362,923.62311 0,-0.29 -0.31,0 c -0.88,0 -0.91,-0.12 -0.91,-0.48 l 0,-5.64 c 0,-0.23 0,-0.24 -0.2,-0.24 -0.24,0.27 -0.74,0.64 -1.77,0.64 l 0,0.29 c 0.23,0 0.73,0 1.28,-0.26 l 0,5.21 c 0,0.36 -0.03,0.48 -0.91,0.48 l -0.31,0 0,0.29 c 0.27,-0.02 1.24,-0.02 1.57,-0.02 0.33,0 1.29,0 1.56,0.02 z"
         style=""
         id="path4227" />
      <path
         d="m 134.24596,921.91311 c 0,-0.92 -0.74,-1.64 -1.7,-1.81 0.87,-0.25 1.43,-0.98 1.43,-1.76 0,-0.79 -0.82,-1.37 -1.79,-1.37 -1,0 -1.74,0.61 -1.74,1.34 0,0.4 0.31,0.48 0.46,0.48 0.21,0 0.45,-0.15 0.45,-0.45 0,-0.32 -0.24,-0.46 -0.46,-0.46 -0.06,0 -0.08,0 -0.11,0.01 0.38,-0.68 1.32,-0.68 1.37,-0.68 0.33,0 0.98,0.15 0.98,1.13 0,0.19 -0.03,0.75 -0.32,1.18 -0.3,0.44 -0.64,0.47 -0.91,0.48 l -0.3,0.03 c -0.17,0.01 -0.21,0.02 -0.21,0.11 0,0.1 0.05,0.1 0.23,0.1 l 0.46,0 c 0.85,0 1.23,0.7 1.23,1.66 0,1.31 -0.68,1.66 -1.17,1.66 -0.48,0 -1.3,-0.23 -1.59,-0.89 0.32,0.05 0.61,-0.13 0.61,-0.49 0,-0.29 -0.21,-0.49 -0.49,-0.49 -0.24,0 -0.5,0.14 -0.5,0.52 0,0.89 0.89,1.62 2,1.62 1.19,0 2.07,-0.91 2.07,-1.92 z"
         style=""
         id="path4229" />
    </g>
  </g>
</svg>
