<?xml version="1.0" encoding="UTF-8" standalone="no"?>
<!-- Created with Inkscape (http://www.inkscape.org/) -->

<svg
   xmlns:dc="http://purl.org/dc/elements/1.1/"
   xmlns:cc="http://creativecommons.org/ns#"
   xmlns:rdf="http://www.w3.org/1999/02/22-rdf-syntax-ns#"
   xmlns:svg="http://www.w3.org/2000/svg"
   xmlns="http://www.w3.org/2000/svg"
   xmlns:sodipodi="http://sodipodi.sourceforge.net/DTD/sodipodi-0.dtd"
   xmlns:inkscape="http://www.inkscape.org/namespaces/inkscape"
   id="svg2"
   version="1.1"
   inkscape:version="0.48.4 r9939"
   width="117.5"
   height="77.5"
   xml:space="preserve"
   sodipodi:docname="1.eps"><metadata
     id="metadata8"><rdf:RDF><cc:Work
         rdf:about=""><dc:format>image/svg+xml</dc:format><dc:type
           rdf:resource="http://purl.org/dc/dcmitype/StillImage" /><dc:title></dc:title></cc:Work></rdf:RDF></metadata><defs
     id="defs6" /><sodipodi:namedview
     pagecolor="#ffffff"
     bordercolor="#666666"
     borderopacity="1"
     objecttolerance="10"
     gridtolerance="10"
     guidetolerance="10"
     inkscape:pageopacity="0"
     inkscape:pageshadow="2"
     inkscape:window-width="1024"
     inkscape:window-height="744"
     id="namedview4"
     showgrid="false"
     inkscape:zoom="3.0451613"
     inkscape:cx="58.75"
     inkscape:cy="38.75"
     inkscape:window-x="0"
     inkscape:window-y="24"
     inkscape:window-maximized="1"
     inkscape:current-layer="g10" /><g
     id="g10"
     inkscape:groupmode="layer"
     inkscape:label="ink_ext_XXXXXX"
     transform="matrix(1.25,0,0,-1.25,0,77.5)"><g
       id="g12"
       transform="scale(0.1,0.1)"><path
         d="M 474.301,555.68 73.3203,87.8711 875.27,87.8711 474.301,555.68 z"
         style="fill:none;stroke:#000000;stroke-opacity:1;stroke-width:9.18909;stroke-linecap:butt;stroke-linejoin:miter;stroke-miterlimit:4;stroke-dasharray:none"
         id="path14" /><path
         d="M 78.3984,85.1797 473.012,251.891 880.039,86.8594"
         style="fill:none;stroke:#000000;stroke-opacity:1;stroke-width:6.68297;stroke-linecap:butt;stroke-linejoin:miter;stroke-miterlimit:4;stroke-dasharray:none"
         id="path16" /><path
         d="m 473.32,556.07 0,-306.48"
         style="fill:none;stroke:#000000;stroke-opacity:1;stroke-width:6.68297;stroke-linecap:butt;stroke-linejoin:miter;stroke-miterlimit:4;stroke-dasharray:none"
         id="path18" /><path
         d="m 388.012,566.578 c -3.133,-5.226 -6.25,-6.367 -9.731,-6.598 -1.011,-0.16 -1.761,-0.16 -1.761,-1.64 0,-0.512 0.511,-0.86 1.14,-0.86 2.11,0 4.61,0.231 6.719,0.231 2.769,0 5.5,-0.231 8,-0.231 0.512,0 1.531,0 1.531,1.481 0,0.859 -0.629,1.019 -1.25,1.019 -1.762,0.122 -3.75,0.739 -3.75,2.731 0,1.019 0.469,1.879 1.09,3.008 l 6.129,10.121 20,0 c 0.121,-1.641 1.25,-12.5 1.25,-13.238 0,-2.391 -4.098,-2.622 -5.738,-2.622 -1.129,0 -1.871,0 -1.871,-1.64 0,-0.86 0.851,-0.86 1.128,-0.86 3.243,0 6.602,0.231 9.883,0.231 1.989,0 7.11,-0.231 9.098,-0.231 0.391,0 1.371,0 1.371,1.598 0,0.902 -0.738,0.902 -1.871,0.902 -4.848,0 -4.848,0.469 -5.117,2.848 l -4.883,49.774 c -0.117,1.597 -0.117,1.988 -1.488,1.988 -1.25,0 -1.641,-0.629 -2.11,-1.371 l -27.769,-46.641 z m 9.648,11.762 15.621,26.371 2.617,-26.371 -18.238,0 z"
         style="fill:#000000;fill-opacity:1;fill-rule:nonzero;stroke:none"
         id="path20" /><path
         d="m 9.37891,17.9883 c -0.75,-3.1289 -1.01953,-3.75 -7.26953,-3.75 C 0.738281,14.2383 0,14.2383 0,12.6406 0,11.7383 0.738281,11.7383 2.10938,11.7383 l 28.51172,0 c 12.6172,0 22,9.3711 22,17.2617 0,5.75 -4.6094,10.3906 -12.3906,11.25 8.289,1.4883 16.6484,7.3906 16.6484,15 0,5.8594 -5.2383,11.0195 -14.7695,11.0195 l -26.8789,0 c -1.4805,0 -2.2188,0 -2.2188,-1.6406 0,-0.8594 0.7383,-0.8594 2.2188,-0.8594 0.1601,0 1.6484,0 3.0078,-0.1601 1.3711,-0.2305 2.1523,-0.2305 2.1523,-1.3594 0,-0.2383 -0.1601,-0.5117 -0.2695,-1.4883 L 9.37891,17.9883 z M 21.3711,41 l 5,19.7617 c 0.7383,2.7383 0.8984,3.0078 4.25,3.0078 l 10.3984,0 c 6.9922,0 8.5899,-4.7695 8.5899,-8.2812 C 49.6094,48.5 42.7305,41 33.1211,41 l -11.75,0 z m -3.4805,-26.7617 -1.7617,0 C 15.2305,14.3906 15,14.5117 15,15.1406 c 0,0.2305 0,0.3477 0.5117,1.75 l 5.5078,22.2305 15,0 c 7.6094,0 9.211,-5.8594 9.211,-9.2617 0,-7.8477 -7.1094,-15.6211 -16.6016,-15.6211 l -10.7383,0 z"
         style="fill:#000000;fill-opacity:1;fill-rule:nonzero;stroke:none"
         id="path22" /><path
         d="m 934.379,67.1289 c 0,0.2305 -0.117,0.8594 -0.859,0.8594 -0.239,0 -0.399,-0.1172 -1.25,-0.9766 l -5.508,-6.1328 c -0.742,1.1328 -4.383,7.1094 -13.242,7.1094 -17.899,0 -35.75,-17.6172 -35.75,-36.0977 0,-13.1211 9.378,-21.8711 21.609,-21.8711 6.871,0 13,3.1211 17.262,6.8711 7.379,6.4883 8.75,13.75 8.75,13.9883 0,0.8594 -0.86,0.8594 -1.012,0.8594 -0.469,0 -0.859,-0.2383 -0.981,-0.8594 -0.738,-2.2695 -2.617,-8.0078 -8.128,-12.6172 -5.5,-4.3711 -10.5,-5.7422 -14.649,-5.7422 C 893.52,12.5195 885,16.6211 885,29 c 0,4.6094 1.641,17.5 9.648,26.8789 4.883,5.6211 12.383,9.6094 19.493,9.6094 8.129,0 12.89,-6.0977 12.89,-15.3477 0,-3.25 -0.269,-3.25 -0.269,-4.1406 0,-0.75 0.898,-0.75 1.129,-0.75 1.019,0 1.019,0.1211 1.488,1.6406 l 5,20.2383 z"
         style="fill:#000000;fill-opacity:1;fill-rule:nonzero;stroke:none"
         id="path24" /><path
         d="m 531.051,314.391 c 0.629,2.89 0.898,3.64 7.269,3.64 1.879,0 2.5,0 2.5,1.52 0,0.98 -0.859,0.98 -1.129,0.98 -2.39,0 -8.242,-0.242 -10.632,-0.242 -2.379,0 -8.118,0.242 -10.618,0.242 -0.511,0 -1.492,0 -1.492,-1.601 0,-0.899 0.629,-0.899 2.231,-0.899 3.281,0 5.511,0 5.511,-1.492 0,-0.391 0,-0.617 -0.242,-1.25 l -10.738,-43.008 c -0.781,-3 -0.902,-3.75 -7.262,-3.75 -1.879,0 -2.5,0 -2.5,-1.64 0,-0.86 0.852,-0.86 1.129,-0.86 2.383,0 8.121,0.239 10.512,0.239 2.34,0 8.238,-0.239 10.621,-0.239 0.629,0 1.598,0 1.598,1.489 0,1.011 -0.618,1.011 -2.379,1.011 -1.481,0 -1.879,0 -3.36,0.117 -1.761,0.122 -1.992,0.512 -1.992,1.372 0,0.621 0.121,1.25 0.231,1.871 l 10.742,42.5 z"
         style="fill:#000000;fill-opacity:1;fill-rule:nonzero;stroke:none"
         id="path26" /></g></g></svg>