<?xml version="1.0" encoding="UTF-8" standalone="no"?>
<!-- Created with Inkscape (http://www.inkscape.org/) -->

<svg
   xmlns:ns0="http://www.iki.fi/pav/software/textext/"
   xmlns:dc="http://purl.org/dc/elements/1.1/"
   xmlns:cc="http://creativecommons.org/ns#"
   xmlns:rdf="http://www.w3.org/1999/02/22-rdf-syntax-ns#"
   xmlns:svg="http://www.w3.org/2000/svg"
   xmlns="http://www.w3.org/2000/svg"
   xmlns:sodipodi="http://sodipodi.sourceforge.net/DTD/sodipodi-0.dtd"
   xmlns:inkscape="http://www.inkscape.org/namespaces/inkscape"
   width="212.59842"
   height="141.73228"
   id="svg2"
   version="1.1"
   inkscape:version="0.48.4 r9939"
   sodipodi:docname="New document 1">
  <defs
     id="defs4" />
  <sodipodi:namedview
     id="base"
     pagecolor="#ffffff"
     bordercolor="#666666"
     borderopacity="1.0"
     inkscape:pageopacity="0.0"
     inkscape:pageshadow="2"
     inkscape:zoom="2.8237917"
     inkscape:cx="106.29921"
     inkscape:cy="70.866142"
     inkscape:document-units="cm"
     inkscape:current-layer="layer1"
     showgrid="false"
     units="cm"
     inkscape:object-nodes="true"
     inkscape:window-width="1366"
     inkscape:window-height="744"
     inkscape:window-x="0"
     inkscape:window-y="24"
     inkscape:window-maximized="1">
    <inkscape:grid
       type="xygrid"
       id="grid2985"
       empspacing="5"
       visible="true"
       enabled="true"
       snapvisiblegridlinesonly="true" />
  </sodipodi:namedview>
  <metadata
     id="metadata7">
    <rdf:RDF>
      <cc:Work
         rdf:about="">
        <dc:format>image/svg+xml</dc:format>
        <dc:type
           rdf:resource="http://purl.org/dc/dcmitype/StillImage" />
        <dc:title></dc:title>
      </cc:Work>
    </rdf:RDF>
  </metadata>
  <g
     inkscape:label="Layer 1"
     inkscape:groupmode="layer"
     id="layer1"
     transform="translate(0,-910.62859)">
    <path
       style="fill:none;stroke:#000000;stroke-width:1;stroke-linecap:butt;stroke-linejoin:miter;stroke-miterlimit:4;stroke-opacity:1;stroke-dasharray:none"
       d="m 44.999995,992.36087 95.000005,0"
       id="path2987"
       inkscape:connector-curvature="0" />
    <path
       style="fill:none;stroke:#000000;stroke-width:1px;stroke-linecap:butt;stroke-linejoin:round;stroke-opacity:1"
       d="m 75,81.732285 0,-55 35,15 0,40"
       id="path3757"
       inkscape:connector-curvature="0"
       transform="translate(0,910.62859)" />
    <rect
       style="color:#000000;fill:none;stroke:#000000;stroke-width:0.8;stroke-linecap:butt;stroke-linejoin:miter;stroke-miterlimit:4;stroke-opacity:1;stroke-dasharray:none;stroke-dashoffset:0;marker:none;visibility:visible;display:inline;overflow:visible;enable-background:accumulate"
       id="rect3759"
       width="5"
       height="5"
       x="105"
       y="76.732285"
       transform="translate(0,910.62859)" />
    <rect
       y="987.3609"
       x="75"
       height="5"
       width="5"
       id="rect3761"
       style="color:#000000;fill:none;stroke:#000000;stroke-width:0.8;stroke-linecap:butt;stroke-linejoin:miter;stroke-miterlimit:4;stroke-opacity:1;stroke-dasharray:none;stroke-dashoffset:0;marker:none;visibility:visible;display:inline;overflow:visible;enable-background:accumulate" />
    <g
       ns0:preamble="/home/sriranga/Desktop/Rani_Figure/package.tex"
       ns0:text="$P$"
       word-spacing="normal"
       letter-spacing="normal"
       font-size-adjust="none"
       font-stretch="normal"
       font-weight="normal"
       font-variant="normal"
       font-style="normal"
       stroke-miterlimit="10.433"
       xml:space="preserve"
       transform="matrix(1.2,0,0,-1.2,-197.50611,1852.6114)"
       id="content"
       style="font-style:normal;font-variant:normal;font-weight:normal;font-stretch:normal;letter-spacing:normal;word-spacing:normal;text-anchor:start;fill:none;stroke:#000000;stroke-width:1;stroke-linecap:butt;stroke-linejoin:miter;stroke-miterlimit:10.43299961;stroke-opacity:1;stroke-dasharray:none;stroke-dashoffset:0"><path
         id="path8108"
         d="m 226.45,710.26 0.04,0.26 0.67,2.7 c 0.09,0.35 0.11,0.38 0.54,0.38 h 0.95 c 0.83,0 1.36,-0.27 1.36,-0.95 0,-0.39 -0.2,-1.24 -0.59,-1.6 -0.5,-0.45 -1.09,-0.53 -1.53,-0.53 h -1.4 l -0.04,-0.26 h 1.69 c 1.41,0 2.79,1.04 2.79,2.15 0,0.76 -0.65,1.5 -1.96,1.5 h -3.22 c -0.19,0 -0.3,0 -0.3,-0.19 0,-0.12 0.09,-0.12 0.29,-0.12 0.13,0 0.31,-0.01 0.43,-0.02 0.16,-0.02 0.22,-0.05 0.22,-0.16 0,-0.04 -0.01,-0.07 -0.04,-0.19 l -1.34,-5.33 c -0.1,-0.39 -0.11,-0.47 -0.9,-0.47 -0.17,0 -0.28,0 -0.28,-0.19 0,-0.12 0.12,-0.12 0.15,-0.12 0.28,0 0.98,0.04 1.26,0.04 0.21,0 0.43,-0.01 0.64,-0.01 0.22,0 0.44,-0.03 0.65,-0.03 0.07,0 0.2,0 0.2,0.2 0,0.11 -0.09,0.11 -0.28,0.11 -0.37,0 -0.65,0 -0.65,0.18 0,0.06 0.02,0.11 0.03,0.17 z"
         inkscape:connector-curvature="0"
         style="fill:#000000;stroke-width:0" /></g>    <g
       id="g9206"
       transform="matrix(1.2,0,0,-1.2,-162.76171,1851.7505)"
       xml:space="preserve"
       stroke-miterlimit="10.433"
       font-style="normal"
       font-variant="normal"
       font-weight="normal"
       font-stretch="normal"
       font-size-adjust="none"
       letter-spacing="normal"
       word-spacing="normal"
       ns0:text="$Q$"
       ns0:preamble="/home/sriranga/Desktop/Rani_Figure/package.tex"
       style="font-style:normal;font-variant:normal;font-weight:normal;font-stretch:normal;letter-spacing:normal;word-spacing:normal;text-anchor:start;fill:none;stroke:#000000;stroke-width:1;stroke-linecap:butt;stroke-linejoin:miter;stroke-miterlimit:10.43299961;stroke-opacity:1;stroke-dasharray:none;stroke-dashoffset:0"><path
         style="fill:#000000;stroke-width:0"
         inkscape:connector-curvature="0"
         d="m 227.79,707.18 0.14,0.06 0.15,0.07 0.14,0.07 0.14,0.08 0.14,0.08 0.14,0.09 0.14,0.1 0.13,0.1 0.13,0.11 0.13,0.11 0.13,0.12 0.12,0.12 0.12,0.13 0.11,0.13 0.11,0.13 0.11,0.14 0.1,0.14 0.1,0.15 0.09,0.15 0.09,0.16 0.08,0.15 0.08,0.16 0.07,0.17 0.06,0.16 0.06,0.17 0.05,0.17 0.04,0.17 0.04,0.18 0.03,0.17 0.02,0.18 0.01,0.18 0,0.18 c 0,1.59 -1.05,2.67 -2.53,2.67 l -0.06,-0.25 c 0.99,0 1.72,-0.78 1.72,-2.11 0,-0.99 -0.51,-3.31 -2.18,-4.25 -0.05,0.35 -0.15,1.07 -0.88,1.07 v -0.21 c 0.42,0 0.61,-0.24 0.61,-0.85 0,-0.15 -0.01,-0.16 -0.11,-0.2 -0.26,-0.11 -0.56,-0.17 -0.83,-0.17 h 0 c -0.14,0 -0.46,0 -0.46,0.42 0,0.4 0.38,0.8 0.79,0.8 v 0.21 c -0.52,0 -1.01,-0.49 -1.01,-1.01 0,-0.2 0.06,-0.31 0.06,-0.32 h 0 c -0.78,0.31 -1.12,1.09 -1.12,1.98 0,0.69 0.26,2.1 1.02,3.17 0.73,1.01 1.66,1.47 2.39,1.47 l 0.06,0.25 c -2.15,0 -4.34,-2.26 -4.34,-4.57 0,-1.65 1.11,-2.65 2.55,-2.65 0.24,0 0.58,0.04 0.97,0.14 -0.04,-0.61 -0.04,-0.63 -0.04,-0.76 0,-0.32 0,-1.09 0.83,-1.09 1.18,0 1.66,1.82 1.66,1.92 0,0.07 -0.07,0.1 -0.11,0.1 -0.08,0 -0.1,-0.05 -0.12,-0.11 -0.24,-0.7 -0.82,-0.95 -1.16,-0.95 -0.46,0 -0.61,0.27 -0.71,1.02 z"
         id="path9208" /></g>    <g
       style="font-style:normal;font-variant:normal;font-weight:normal;font-stretch:normal;letter-spacing:normal;word-spacing:normal;text-anchor:start;fill:none;stroke:#000000;stroke-width:1;stroke-linecap:butt;stroke-linejoin:miter;stroke-miterlimit:10.43299961;stroke-opacity:1;stroke-dasharray:none;stroke-dashoffset:0"
       ns0:preamble="/home/sriranga/Desktop/Rani_Figure/package.tex"
       ns0:text="$X$"
       word-spacing="normal"
       letter-spacing="normal"
       font-size-adjust="none"
       font-stretch="normal"
       font-weight="normal"
       font-variant="normal"
       font-style="normal"
       stroke-miterlimit="10.433"
       xml:space="preserve"
       transform="matrix(1.2,0,0,-1.2,-233.38738,1845.3363)"
       id="g31923"><path
         style="fill:#000000;stroke-width:0"
         inkscape:connector-curvature="0"
         id="path31925"
         d="m 228.26,711.21 -0.84,1.97 c -0.03,0.08 -0.05,0.12 -0.05,0.13 0,0.06 0.17,0.25 0.59,0.29 0.1,0.01 0.2,0.02 0.2,0.19 0,0.12 -0.12,0.12 -0.15,0.12 -0.41,0 -0.84,-0.03 -1.25,-0.03 -0.25,0 -0.87,0.03 -1.12,0.03 -0.06,0 -0.18,0 -0.18,-0.2 0,-0.11 0.1,-0.11 0.23,-0.11 0.6,0 0.66,-0.1 0.75,-0.32 l 1.17,-2.77 -2.1,-2.25 -0.13,-0.11 c -0.48,-0.53 -0.95,-0.69 -1.46,-0.72 -0.13,-0.01 -0.22,-0.01 -0.22,-0.2 0,-0.01 0,-0.11 0.13,-0.11 0.3,0 0.63,0.04 0.93,0.04 0.37,0 0.76,-0.04 1.12,-0.04 0.06,0 0.18,0 0.18,0.2 0,0.1 -0.1,0.11 -0.12,0.11 -0.09,0.01 -0.4,0.03 -0.4,0.31 0,0.16 0.15,0.32 0.27,0.45 l 1.01,1.07 0.9,0.97 1.01,-2.37 c 0.03,-0.11 0.04,-0.12 0.04,-0.14 0,-0.08 -0.18,-0.25 -0.57,-0.29 -0.11,-0.01 -0.2,-0.02 -0.2,-0.19 0,-0.12 0.11,-0.12 0.15,-0.12 0.28,0 0.97,0.04 1.25,0.04 0.25,0 0.86,-0.04 1.11,-0.04 0.07,0 0.19,0 0.19,0.19 0,0.12 -0.1,0.12 -0.18,0.12 -0.67,0.01 -0.69,0.04 -0.86,0.44 -0.39,0.92 -1.05,2.47 -1.28,3.07 0.67,0.7 1.72,1.88 2.04,2.15 0.29,0.24 0.66,0.48 1.26,0.51 0.13,0.01 0.22,0.01 0.22,0.2 0,0.01 0,0.11 -0.13,0.11 -0.3,0 -0.63,-0.03 -0.94,-0.03 -0.36,0 -0.74,0.03 -1.1,0.03 -0.06,0 -0.19,0 -0.19,-0.2 0,-0.07 0.05,-0.1 0.12,-0.11 0.09,-0.01 0.4,-0.03 0.4,-0.31 0,-0.13 -0.11,-0.26 -0.19,-0.35 z" /></g>    <g
       id="g33749"
       transform="matrix(1.2,0,0,-1.2,-126.59716,1845.6463)"
       xml:space="preserve"
       stroke-miterlimit="10.433"
       font-style="normal"
       font-variant="normal"
       font-weight="normal"
       font-stretch="normal"
       font-size-adjust="none"
       letter-spacing="normal"
       word-spacing="normal"
       ns0:text="$Y$"
       ns0:preamble="/home/sriranga/Desktop/Rani_Figure/package.tex"
       style="font-style:normal;font-variant:normal;font-weight:normal;font-stretch:normal;letter-spacing:normal;word-spacing:normal;text-anchor:start;fill:none;stroke:#000000;stroke-width:1;stroke-linecap:butt;stroke-linejoin:miter;stroke-miterlimit:10.43299961;stroke-opacity:1;stroke-dasharray:none;stroke-dashoffset:0"><path
         style="fill:#000000;stroke-width:0"
         inkscape:connector-curvature="0"
         d="m 229.37,712.78 0.14,0.14 c 0.3,0.29 0.63,0.63 1.3,0.68 0.11,0.01 0.2,0.01 0.2,0.19 0,0.08 -0.05,0.12 -0.13,0.12 -0.26,0 -0.54,-0.03 -0.81,-0.03 -0.33,0 -0.68,0.03 -1,0.03 -0.06,0 -0.19,0 -0.19,-0.19 0,-0.11 0.1,-0.12 0.15,-0.12 0.07,0 0.36,-0.02 0.36,-0.23 0,-0.16 -0.23,-0.42 -0.27,-0.47 l -2.3,-2.66 -1.1,2.96 c -0.06,0.13 -0.06,0.15 -0.06,0.16 0,0.24 0.49,0.24 0.59,0.24 0.14,0 0.24,0 0.24,0.2 0,0.11 -0.12,0.11 -0.15,0.11 -0.28,0 -0.98,-0.03 -1.26,-0.03 -0.24,0 -0.86,0.03 -1.11,0.03 -0.06,0 -0.19,0 -0.19,-0.2 0,-0.11 0.1,-0.11 0.23,-0.11 0.6,0 0.64,-0.09 0.73,-0.34 l 1.22,-3.26 c 0.01,-0.03 0.04,-0.14 0.04,-0.17 0,-0.03 -0.4,-1.63 -0.45,-1.81 -0.13,-0.55 -0.14,-0.58 -0.93,-0.59 -0.19,0 -0.27,0 -0.27,-0.2 0,-0.11 0.12,-0.11 0.14,-0.11 0.27,0 0.97,0.04 1.25,0.04 0.28,0 1,-0.04 1.27,-0.04 0.07,0 0.19,0 0.19,0.2 0,0.11 -0.09,0.11 -0.28,0.11 -0.02,0 -0.21,0 -0.37,0.02 -0.21,0.02 -0.27,0.04 -0.27,0.16 0,0.07 0.09,0.42 0.14,0.63 l 0.34,1.4 c 0.06,0.19 0.06,0.22 0.14,0.31 z"
         id="path33751" /></g>    <g
       style="font-style:normal;font-variant:normal;font-weight:normal;font-stretch:normal;letter-spacing:normal;word-spacing:normal;text-anchor:start;fill:none;stroke:#000000;stroke-width:1;stroke-linecap:butt;stroke-linejoin:miter;stroke-miterlimit:10.43299961;stroke-opacity:1;stroke-dasharray:none;stroke-dashoffset:0"
       id="content-9"
       transform="matrix(1.2,0,0,-1.2,-204.91337,1786.3155)"
       xml:space="preserve"
       stroke-miterlimit="10.433"
       font-style="normal"
       font-variant="normal"
       font-weight="normal"
       font-stretch="normal"
       font-size-adjust="none"
       letter-spacing="normal"
       word-spacing="normal"
       ns0:text="$A$"
       ns0:preamble="/home/sriranga/Desktop/Rani_Figure/package.tex"><path
         style="fill:#000000;stroke-width:0"
         inkscape:connector-curvature="0"
         d="m 225.21,708.27 -0.03,-0.06 -0.04,-0.06 -0.04,-0.06 -0.04,-0.05 -0.03,-0.05 -0.04,-0.04 -0.04,-0.05 -0.03,-0.04 -0.04,-0.04 -0.04,-0.04 -0.04,-0.03 -0.03,-0.03 -0.04,-0.03 -0.04,-0.03 -0.04,-0.02 -0.03,-0.03 -0.04,-0.02 -0.04,-0.02 -0.04,-0.02 -0.04,-0.02 -0.03,-0.01 -0.04,-0.01 -0.04,-0.02 -0.04,-0.01 -0.04,-0.01 -0.04,-0.01 -0.04,0 -0.04,-0.01 -0.08,-0.01 -0.08,-0.01 c -0.12,-0.01 -0.21,-0.01 -0.21,-0.2 0,-0.06 0.05,-0.11 0.13,-0.11 0.27,0 0.58,0.04 0.85,0.04 0.33,0 0.68,-0.04 1,-0.04 0.06,0 0.19,0 0.19,0.19 0,0.11 -0.09,0.12 -0.16,0.12 -0.23,0.02 -0.47,0.1 -0.47,0.35 0,0.12 0.06,0.23 0.14,0.37 l 0.76,1.27 h 2.49 l -0.03,0.31 h -2.27 l 1.96,3.28 0.31,-3.28 0.03,-0.31 c 0.03,-0.21 0.16,-1.56 0.16,-1.66 0,-0.3 -0.51,-0.33 -0.71,-0.33 -0.14,0 -0.24,0 -0.24,-0.2 0,-0.11 0.12,-0.11 0.14,-0.11 0.41,0 0.83,0.04 1.24,0.04 0.25,0 0.88,-0.04 1.13,-0.04 0.06,0 0.17,0 0.17,0.2 0,0.11 -0.09,0.11 -0.22,0.11 -0.62,0 -0.62,0.07 -0.65,0.36 l -0.61,6.21 c -0.02,0.2 -0.02,0.24 -0.19,0.24 -0.16,0 -0.19,-0.07 -0.25,-0.17 z"
         id="path4467" /></g>    <path
       id="path4501"
       d="m 113.98343,952.64823 -0.012,0.048 0,0.036 -0.012,0.036 -0.012,0.036 -0.012,0.036 -0.012,0.036 -0.012,0.024 -0.012,0.036 -0.012,0.024 -0.012,0.024 -0.024,0.024 -0.012,0.024 -0.012,0.024 -0.024,0.012 -0.024,0.024 -0.024,0.012 -0.024,0.012 -0.036,0.012 -0.036,0.012 -0.036,0.012 -0.036,0.012 -0.024,0 -0.012,0.012 -0.024,0 -0.024,0 -0.024,0.012 -0.024,0 -0.024,0 -0.036,0 -0.024,0.012 -0.036,0 -0.024,0 -0.036,0 -0.024,0 -0.036,0 -0.036,0 -0.036,0 -0.036,0.012 -0.036,0 -0.048,0 -0.036,0 -0.048,0 -0.036,0 c -0.204,0 -0.324,0 -0.324,0.24 0,0.132 0.108,0.132 0.324,0.132 h 4.26 c 1.884,0 3.3,-1.416 3.3,-2.58 0,-0.864 -0.696,-1.548 -1.86,-1.68 1.248,-0.228 2.496,-1.104 2.496,-2.244 0,-0.876 -0.78,-1.644 -2.22,-1.644 l -0.168,0.372 c 1.056,0 1.308,0.696 1.308,1.224 0,1.044 -1.032,2.184 -2.484,2.184 h -1.74 l -0.072,0.264 h 2.256 c 1.14,0 1.368,0.876 1.368,1.392 0,1.176 -1.056,2.34 -2.472,2.34 h -1.62 c -0.168,0 -0.192,0 -0.264,-0.012 -0.12,-0.012 -0.156,-0.024 -0.156,-0.12 0,-0.036 0,-0.06 0.06,-0.276 l 0.828,-3.324 0.072,-0.264 0.732,-2.952 c 0.108,-0.42 0.132,-0.456 0.648,-0.456 h 1.536 l 0.168,-0.372 h -4.008 c -0.228,0 -0.348,0 -0.348,0.24 0,0.132 0.108,0.132 0.336,0.132 0.024,0 0.252,0 0.456,0.024 0.216,0.024 0.324,0.036 0.324,0.192 0,0.048 -0.012,0.084 -0.048,0.228 z"
       inkscape:connector-curvature="0"
       style="font-style:normal;font-variant:normal;font-weight:normal;font-stretch:normal;letter-spacing:normal;word-spacing:normal;text-anchor:start;fill:#000000;stroke:#000000;stroke-width:0;stroke-linecap:butt;stroke-linejoin:miter;stroke-miterlimit:10.43299961;stroke-opacity:1;stroke-dasharray:none;stroke-dashoffset:0" />
  </g>
</svg>
