<?xml version="1.0" encoding="UTF-8" standalone="no"?>
<!-- Created with Inkscape (http://www.inkscape.org/) -->

<svg
   xmlns:ns0="http://www.iki.fi/pav/software/textext/"
   xmlns:dc="http://purl.org/dc/elements/1.1/"
   xmlns:cc="http://creativecommons.org/ns#"
   xmlns:rdf="http://www.w3.org/1999/02/22-rdf-syntax-ns#"
   xmlns:svg="http://www.w3.org/2000/svg"
   xmlns="http://www.w3.org/2000/svg"
   xmlns:sodipodi="http://sodipodi.sourceforge.net/DTD/sodipodi-0.dtd"
   xmlns:inkscape="http://www.inkscape.org/namespaces/inkscape"
   sodipodi:docname="167.eps"
   inkscape:version="0.48.4 r9939"
   version="1.1"
   id="svg2"
   height="124.01575"
   width="212.59842">
  <sodipodi:namedview
     id="base"
     pagecolor="#ffffff"
     bordercolor="#666666"
     borderopacity="1.0"
     inkscape:pageopacity="0.0"
     inkscape:pageshadow="2"
     inkscape:zoom="2.8237918"
     inkscape:cx="106.43431"
     inkscape:cy="45.029244"
     inkscape:document-units="cm"
     inkscape:current-layer="layer1"
     showgrid="false"
     units="cm"
     inkscape:window-width="1024"
     inkscape:window-height="744"
     inkscape:window-x="0"
     inkscape:window-y="24"
     inkscape:window-maximized="1"
     inkscape:object-nodes="true">
    <inkscape:grid
       snapvisiblegridlinesonly="true"
       enabled="true"
       visible="true"
       empspacing="5"
       id="grid2985"
       type="xygrid" />
  </sodipodi:namedview>
  <defs
     id="defs4">
    <marker
       style="overflow:visible"
       id="Arrow2Mstart"
       refX="0"
       refY="0"
       orient="auto"
       inkscape:stockid="Arrow2Mstart">
      <path
         transform="scale(0.6,0.6)"
         d="M 8.7185878,4.0337352 -2.2072895,0.01601326 8.7185884,-4.0017078 c -1.7454984,2.3720609 -1.7354408,5.6174519 -6e-7,8.035443 z"
         style="fill-rule:evenodd;stroke-width:0.625;stroke-linejoin:round"
         id="path3789"
         inkscape:connector-curvature="0" />
    </marker>
    <marker
       style="overflow:visible"
       id="Arrow1Mend"
       refX="0"
       refY="0"
       orient="auto"
       inkscape:stockid="Arrow1Mend">
      <path
         transform="matrix(-0.4,0,0,-0.4,-4,0)"
         style="fill-rule:evenodd;stroke:#000000;stroke-width:1pt"
         d="M 0,0 5,-5 -12.5,0 5,5 0,0 z"
         id="path3774"
         inkscape:connector-curvature="0" />
    </marker>
    <marker
       style="overflow:visible"
       id="Arrow1Mstart"
       refX="0"
       refY="0"
       orient="auto"
       inkscape:stockid="Arrow1Mstart">
      <path
         transform="matrix(0.4,0,0,0.4,4,0)"
         style="fill-rule:evenodd;stroke:#000000;stroke-width:1pt"
         d="M 0,0 5,-5 -12.5,0 5,5 0,0 z"
         id="path3771"
         inkscape:connector-curvature="0" />
    </marker>
    <marker
       style="overflow:visible"
       id="Arrow1Mstart-8"
       refX="0.0"
       refY="0.0"
       orient="auto"
       inkscape:stockid="Arrow1Mstart">
      <path
         transform="scale(0.4) translate(10,0)"
         style="fill-rule:evenodd;stroke:#000000;stroke-width:1.0pt"
         d="M 0.0,0.0 L 5.0,-5.0 L -12.5,0.0 L 5.0,5.0 L 0.0,0.0 z "
         id="path3771-9" />
    </marker>
    <marker
       inkscape:stockid="Arrow1Mstart"
       orient="auto"
       refY="0.0"
       refX="0.0"
       id="Arrow1Mstart-1"
       style="overflow:visible">
      <path
         id="path3771-2"
         d="M 0.0,0.0 L 5.0,-5.0 L -12.5,0.0 L 5.0,5.0 L 0.0,0.0 z "
         style="fill-rule:evenodd;stroke:#000000;stroke-width:1.0pt"
         transform="scale(0.4) translate(10,0)" />
    </marker>
    <marker
       inkscape:stockid="Arrow1Mstart"
       orient="auto"
       refY="0.0"
       refX="0.0"
       id="Arrow1Mstart-2"
       style="overflow:visible">
      <path
         id="path3771-0"
         d="M 0.0,0.0 L 5.0,-5.0 L -12.5,0.0 L 5.0,5.0 L 0.0,0.0 z "
         style="fill-rule:evenodd;stroke:#000000;stroke-width:1.0pt"
         transform="scale(0.4) translate(10,0)" />
    </marker>
    <marker
       inkscape:stockid="Arrow1Mend"
       orient="auto"
       refY="0.0"
       refX="0.0"
       id="Arrow1Mend-5"
       style="overflow:visible;">
      <path
         id="path3774-8"
         d="M 0.0,0.0 L 5.0,-5.0 L -12.5,0.0 L 5.0,5.0 L 0.0,0.0 z "
         style="fill-rule:evenodd;stroke:#000000;stroke-width:1.0pt;"
         transform="scale(0.4) rotate(180) translate(10,0)" />
    </marker>
    <marker
       inkscape:stockid="Arrow2Mstart"
       orient="auto"
       refY="0.0"
       refX="0.0"
       id="Arrow2Mstart-8"
       style="overflow:visible">
      <path
         id="path3789-0"
         style="fill-rule:evenodd;stroke-width:0.62500000;stroke-linejoin:round"
         d="M 8.7185878,4.0337352 L -2.2072895,0.016013256 L 8.7185884,-4.0017078 C 6.9730900,-1.6296469 6.9831476,1.6157441 8.7185878,4.0337352 z "
         transform="scale(0.6) translate(0,0)" />
    </marker>
    <marker
       style="overflow:visible"
       id="Arrow1Mstart-7"
       refX="0"
       refY="0"
       orient="auto"
       inkscape:stockid="Arrow1Mstart">
      <path
         transform="matrix(0.4,0,0,0.4,4,0)"
         style="fill-rule:evenodd;stroke:#000000;stroke-width:1pt"
         d="M 0,0 5,-5 -12.5,0 5,5 0,0 z"
         id="path3771-96"
         inkscape:connector-curvature="0" />
    </marker>
    <marker
       style="overflow:visible"
       id="Arrow1Mend-2"
       refX="0"
       refY="0"
       orient="auto"
       inkscape:stockid="Arrow1Mend">
      <path
         transform="matrix(-0.4,0,0,-0.4,-4,0)"
         style="fill-rule:evenodd;stroke:#000000;stroke-width:1pt"
         d="M 0,0 5,-5 -12.5,0 5,5 0,0 z"
         id="path3774-2"
         inkscape:connector-curvature="0" />
    </marker>
    <marker
       style="overflow:visible"
       id="Arrow2Mstart-2"
       refX="0"
       refY="0"
       orient="auto"
       inkscape:stockid="Arrow2Mstart">
      <path
         transform="scale(0.6,0.6)"
         d="M 8.7185878,4.0337352 -2.2072895,0.01601326 8.7185884,-4.0017078 c -1.7454984,2.3720609 -1.7354408,5.6174519 -6e-7,8.035443 z"
         style="fill-rule:evenodd;stroke-width:0.625;stroke-linejoin:round"
         id="path3789-8"
         inkscape:connector-curvature="0" />
    </marker>
    <marker
       style="overflow:visible"
       id="Arrow1Mstart-1-0"
       refX="0.0"
       refY="0.0"
       orient="auto"
       inkscape:stockid="Arrow1Mstart">
      <path
         transform="scale(0.4) translate(10,0)"
         style="fill-rule:evenodd;stroke:#000000;stroke-width:1.0pt"
         d="M 0.0,0.0 L 5.0,-5.0 L -12.5,0.0 L 5.0,5.0 L 0.0,0.0 z "
         id="path3771-2-4" />
    </marker>
    <marker
       inkscape:stockid="Arrow1Mstart"
       orient="auto"
       refY="0.0"
       refX="0.0"
       id="Arrow1Mstart-8-4"
       style="overflow:visible">
      <path
         id="path3771-9-1"
         d="M 0.0,0.0 L 5.0,-5.0 L -12.5,0.0 L 5.0,5.0 L 0.0,0.0 z "
         style="fill-rule:evenodd;stroke:#000000;stroke-width:1.0pt"
         transform="scale(0.4) translate(10,0)" />
    </marker>
    <marker
       inkscape:stockid="Arrow1Mstart"
       orient="auto"
       refY="0"
       refX="0"
       id="Arrow1Mstart-9"
       style="overflow:visible">
      <path
         inkscape:connector-curvature="0"
         id="path3771-4"
         d="M 0,0 5,-5 -12.5,0 5,5 0,0 z"
         style="fill-rule:evenodd;stroke:#000000;stroke-width:1pt"
         transform="matrix(0.4,0,0,0.4,4,0)" />
    </marker>
    <marker
       inkscape:stockid="Arrow1Mend"
       orient="auto"
       refY="0"
       refX="0"
       id="Arrow1Mend-8"
       style="overflow:visible">
      <path
         inkscape:connector-curvature="0"
         id="path3774-4"
         d="M 0,0 5,-5 -12.5,0 5,5 0,0 z"
         style="fill-rule:evenodd;stroke:#000000;stroke-width:1pt"
         transform="matrix(-0.4,0,0,-0.4,-4,0)" />
    </marker>
    <marker
       inkscape:stockid="Arrow2Mstart"
       orient="auto"
       refY="0"
       refX="0"
       id="Arrow2Mstart-5"
       style="overflow:visible">
      <path
         inkscape:connector-curvature="0"
         id="path3789-5"
         style="fill-rule:evenodd;stroke-width:0.625;stroke-linejoin:round"
         d="M 8.7185878,4.0337352 -2.2072895,0.01601326 8.7185884,-4.0017078 c -1.7454984,2.3720609 -1.7354408,5.6174519 -6e-7,8.035443 z"
         transform="scale(0.6,0.6)" />
    </marker>
  </defs>
  <metadata
     id="metadata7">
    <rdf:RDF>
      <cc:Work
         rdf:about="">
        <dc:format>image/svg+xml</dc:format>
        <dc:type
           rdf:resource="http://purl.org/dc/dcmitype/StillImage" />
        <dc:title></dc:title>
      </cc:Work>
    </rdf:RDF>
  </metadata>
  <g
     transform="translate(0,-928.34513)"
     id="layer1"
     inkscape:groupmode="layer"
     inkscape:label="Layer 1">
    <path
       sodipodi:nodetypes="cc"
       inkscape:connector-curvature="0"
       id="path9627"
       d="m 106.96224,982.36088 -54.999996,0"
       style="fill:none;stroke:#000000;stroke-width:1px;stroke-linecap:round;stroke-linejoin:miter;stroke-opacity:1;marker-mid:url(#Arrow1Mend)" />
    <path
       style="fill:none;stroke:#000000;stroke-width:1px;stroke-linecap:round;stroke-linejoin:miter;stroke-opacity:1;marker-mid:url(#Arrow1Mend)"
       d="M 106.96224,982.36088 68.071367,1021.2517"
       id="path10179"
       inkscape:connector-curvature="0"
       sodipodi:nodetypes="cc" />
    <rect
       y="1017.3609"
       x="61.962246"
       height="10"
       width="10"
       id="rect10181"
       style="fill:none;stroke:#000000;stroke-width:0.80000001;stroke-linecap:round;stroke-linejoin:round;stroke-miterlimit:4;stroke-opacity:1;stroke-dasharray:none;stroke-dashoffset:0" />
    <g
       style="font-style:normal;font-variant:normal;font-weight:normal;font-stretch:normal;letter-spacing:normal;word-spacing:normal;text-anchor:start;fill:none;stroke:#000000;stroke-width:1;stroke-linecap:butt;stroke-linejoin:miter;stroke-miterlimit:10.43299961;stroke-opacity:1;stroke-dasharray:none;stroke-dashoffset:0"
       ns0:preamble="/home/sriranga/Desktop/Rani_Figure/package.tex"
       ns0:text="$x$"
       word-spacing="normal"
       letter-spacing="normal"
       font-size-adjust="none"
       font-stretch="normal"
       font-weight="normal"
       font-variant="normal"
       font-style="normal"
       stroke-miterlimit="10.433"
       xml:space="preserve"
       transform="matrix(1.2,0,0,-1.2,-176.2936,1838.1253)"
       id="content"><path
         id="path10246"
         d="m 226.76,710.12 0,0.03 0.01,0.03 0.01,0.03 0.01,0.04 0.01,0.04 0.01,0.04 0.01,0.04 0.02,0.05 0.01,0.04 0.02,0.05 0.02,0.05 0.02,0.05 0.02,0.05 0.03,0.05 0.02,0.05 0.03,0.05 0.03,0.05 0.03,0.04 0.03,0.05 0.04,0.04 0.04,0.05 0.04,0.04 0.04,0.04 0.04,0.03 0.05,0.03 0.05,0.03 0.02,0.01 0.03,0.02 0.02,0.01 0.03,0.01 0.03,0.01 0.03,0 0.03,0.01 0.02,0.01 0.04,0 0.03,0 0.03,0.01 0.03,0 c 0.05,0 0.29,0 0.5,-0.13 -0.28,-0.05 -0.48,-0.3 -0.48,-0.54 0,-0.16 0.11,-0.35 0.38,-0.35 0.22,0 0.54,0.18 0.54,0.58 0,0.52 -0.59,0.66 -0.93,0.66 -0.58,0 -0.93,-0.53 -1.04,-0.76 -0.25,0.66 -0.79,0.76 -1.08,0.76 -1.03,0 -1.6,-1.29 -1.6,-1.53 0,-0.1 0.1,-0.1 0.12,-0.1 0.08,0 0.11,0.02 0.13,0.11 0.34,1.05 0.99,1.3 1.33,1.3 0.19,0 0.54,-0.09 0.54,-0.67 0,-0.31 -0.17,-0.97 -0.54,-2.36 -0.16,-0.62 -0.51,-1.04 -0.94,-1.04 -0.06,0 -0.29,0 -0.5,0.13 0.25,0.05 0.47,0.26 0.47,0.54 0,0.27 -0.22,0.35 -0.37,0.35 -0.3,0 -0.55,-0.26 -0.55,-0.58 0,-0.46 0.5,-0.65 0.94,-0.65 0.65,0 1.01,0.69 1.04,0.75 0.12,-0.37 0.48,-0.75 1.07,-0.75 1.03,0 1.6,1.28 1.6,1.53 0,0.1 -0.09,0.1 -0.12,0.1 -0.09,0 -0.11,-0.05 -0.13,-0.11 -0.33,-1.07 -1.01,-1.31 -1.33,-1.31 -0.38,0 -0.54,0.32 -0.54,0.66 0,0.22 0.06,0.44 0.17,0.87 z"
         inkscape:connector-curvature="0"
         style="fill:#000000;stroke-width:0" /></g>    <path
       style="fill:none;stroke:#000000;stroke-width:0.5;stroke-linecap:round;stroke-linejoin:miter;stroke-miterlimit:4;stroke-opacity:1;stroke-dasharray:none;marker-mid:url(#Arrow1Mend)"
       d="m 118.18685,980.54814 c -2.95075,-1.87906 -5.7836,-1.65944 -8.53556,0"
       id="path10289"
       inkscape:connector-curvature="0"
       sodipodi:nodetypes="cc" />
    <path
       sodipodi:nodetypes="cc"
       inkscape:connector-curvature="0"
       id="path10291"
       d="m 118.18685,983.381 c -2.95075,1.87906 -5.7836,1.65944 -8.53556,0"
       style="fill:none;stroke:#000000;stroke-width:0.5;stroke-linecap:round;stroke-linejoin:miter;stroke-miterlimit:4;stroke-opacity:1;stroke-dasharray:none;marker-mid:url(#Arrow1Mend)" />
    <path
       sodipodi:type="arc"
       style="fill:none;stroke:#000000;stroke-width:0.6081081;stroke-linecap:round;stroke-linejoin:round;stroke-miterlimit:4;stroke-opacity:1;stroke-dasharray:none;stroke-dashoffset:0"
       id="path10293"
       sodipodi:cx="153.20712"
       sodipodi:cy="37.341507"
       sodipodi:rx="1.9920025"
       sodipodi:ry="1.0624013"
       d="m 155.19913,37.341507 c 0,0.586748 -0.89185,1.062401 -1.99201,1.062401 -1.10015,0 -1.992,-0.475653 -1.992,-1.062401 0,-0.586748 0.89185,-1.062401 1.992,-1.062401 1.10016,0 1.99201,0.475653 1.99201,1.062401 z"
       transform="matrix(0.82222223,0,0,0.82222223,-12.00255,951.27378)" />
    <g
       id="g10345"
       transform="matrix(1.2,0,0,-1.2,-145.99394,1833.1171)"
       xml:space="preserve"
       stroke-miterlimit="10.433"
       font-style="normal"
       font-variant="normal"
       font-weight="normal"
       font-stretch="normal"
       font-size-adjust="none"
       letter-spacing="normal"
       word-spacing="normal"
       ns0:text="kaNuNx"
       ns0:preamble="/home/sriranga/Desktop/Rani_Figure/package.tex"
       style="font-style:normal;font-variant:normal;font-weight:normal;font-stretch:normal;letter-spacing:normal;word-spacing:normal;text-anchor:start;fill:none;stroke:#000000;stroke-width:1;stroke-linecap:butt;stroke-linejoin:miter;stroke-miterlimit:10.43299961;stroke-opacity:1;stroke-dasharray:none;stroke-dashoffset:0"><path
         style="fill:#000000;stroke-width:0"
         inkscape:connector-curvature="0"
         d="m 223.91,711.35 v -0.64 h 1.21 c 0.14,0 0.36,0.03 0.43,-0.13 0.08,-0.19 -0.14,-0.35 -0.3,-0.38 -0.15,-0.04 -0.32,-0.02 -0.48,-0.02 h -0.86 v -0.61 h 0.91 v -0.01 l 0.36,-0.05 c 0.52,0.2 1.21,-0.12 1.3,-0.69 0.02,-0.07 0.01,-0.16 0,-0.23 h 0 c -0.01,-0.07 -0.03,-0.15 -0.07,-0.23 -0.28,-0.59 -1.18,-0.66 -1.59,-0.18 -0.08,0.09 -0.12,0.19 -0.15,0.3 -0.02,0.1 -0.02,0.19 -0.01,0.29 0.05,0.31 0.22,0.62 0.52,0.74 l -0.36,0.05 c -0.12,-0.07 -0.23,-0.19 -0.32,-0.3 -0.35,-0.44 -0.43,-1.09 -0.1,-1.56 0.29,-0.4 0.73,-0.56 1.21,-0.54 0.53,0.02 1.05,0.34 1.25,0.85 0.06,0.15 0.08,0.3 0.08,0.46 0,0.12 -0.02,0.22 -0.05,0.33 -0.04,0.16 -0.13,0.31 -0.24,0.44 -0.1,0.12 -0.22,0.25 -0.35,0.32 v 0.01 h 0.83 v 0.61 h -1.4 c 0.1,0.15 0.13,0.34 0.08,0.51 -0.01,0.06 -0.06,0.11 -0.07,0.17 -0.01,0.06 0,0.11 0,0.17 v 0.32 z"
         id="path10347" /><path
         style="fill:#000000;stroke-width:0"
         inkscape:connector-curvature="0"
         d="m 226.54,712.98 0.03,-0.03 0.03,-0.03 0.03,-0.03 0.01,-0.02 0.02,-0.01 0.01,-0.02 0.02,-0.02 0.01,-0.01 0.01,-0.02 0.01,-0.01 0.02,-0.02 0.01,-0.02 0.01,-0.01 c 0.18,-0.24 0.33,-0.63 0.19,-0.92 -0.06,-0.1 -0.14,-0.17 -0.23,-0.26 -0.08,-0.06 -0.16,-0.13 -0.26,-0.16 -0.12,-0.05 -0.25,-0.04 -0.37,-0.04 h -0.55 v -0.64 h 0.47 c 0.14,0 0.28,0 0.42,0.02 0.25,0.05 0.49,0.17 0.67,0.35 0.23,0.24 0.37,0.58 0.32,0.92 -0.02,0.17 -0.09,0.34 -0.18,0.49 -0.08,0.14 -0.2,0.29 -0.34,0.38 -0.1,0.06 -0.24,0.09 -0.36,0.11 z"
         id="path10349" /><path
         style="fill:#000000;stroke-width:0"
         inkscape:connector-curvature="0"
         d="m 229.02,709.06 -0.03,-0.01 -0.04,-0.02 -0.04,-0.01 -0.04,-0.02 -0.04,-0.02 -0.03,-0.02 -0.04,-0.01 -0.04,-0.02 -0.03,-0.02 -0.04,-0.03 -0.03,-0.02 -0.04,-0.02 -0.01,-0.02 -0.02,-0.01 -0.01,-0.01 -0.02,-0.02 -0.01,-0.01 -0.02,-0.02 -0.01,-0.01 -0.01,-0.02 c -0.11,-0.12 -0.18,-0.27 -0.21,-0.43 -0.06,-0.26 -0.08,-0.55 0.07,-0.78 0.29,-0.42 0.96,-0.49 1.36,-0.19 0.16,0.12 0.26,0.32 0.31,0.51 -0.22,-0.13 -0.41,-0.27 -0.67,-0.27 -0.09,0 -0.18,0.01 -0.26,0.04 -0.33,0.13 -0.45,0.5 -0.33,0.83 0.09,0.25 0.32,0.43 0.56,0.58 0.1,0.05 0.21,0.1 0.3,0.17 -0.13,0.03 -0.26,0.05 -0.38,0.09 -0.19,0.06 -0.37,0.16 -0.48,0.32 -0.04,0.04 -0.08,0.1 -0.09,0.15 -0.13,0.35 0.09,0.68 0.38,0.85 0.36,0.19 0.82,0.13 1.14,-0.12 0.28,-0.22 0.43,-0.51 0.56,-0.83 0.06,0.11 0.11,0.25 0.17,0.37 0.14,0.27 0.35,0.55 0.66,0.64 0.13,0.04 0.27,0.05 0.41,0.05 0.66,0 1.32,-0.42 1.57,-1.04 0.13,-0.34 0.12,-0.73 0,-1.07 -0.1,-0.23 -0.25,-0.44 -0.43,-0.62 -0.17,-0.17 -0.37,-0.31 -0.6,-0.37 -0.22,-0.05 -0.46,-0.02 -0.67,0.05 -0.17,0.05 -0.33,0.14 -0.45,0.28 -0.05,0.06 -0.09,0.12 -0.11,0.19 -0.03,0.07 -0.05,0.14 -0.05,0.21 -0.01,0.29 0.26,0.52 0.54,0.58 0.19,0.03 0.38,-0.01 0.53,-0.14 0.1,-0.08 0.16,-0.18 0.13,-0.31 -0.04,-0.15 -0.19,-0.26 -0.32,-0.33 l 0.01,-0.1 c 0.15,0 0.31,0.03 0.42,0.13 0.19,0.17 0.22,0.51 0.11,0.73 -0.05,0.09 -0.11,0.17 -0.2,0.23 -0.21,0.16 -0.52,0.21 -0.77,0.12 -0.28,-0.1 -0.52,-0.37 -0.6,-0.65 -0.12,-0.42 0.06,-0.87 0.4,-1.15 0.14,-0.12 0.3,-0.21 0.48,-0.26 0.37,-0.1 0.8,-0.03 1.12,0.17 0.21,0.14 0.37,0.35 0.48,0.57 0.18,0.35 0.25,0.76 0.26,1.15 0,0.13 0.01,0.27 0,0.4 -0.03,0.35 -0.14,0.69 -0.3,0.99 -0.18,0.32 -0.43,0.62 -0.78,0.77 -0.19,0.08 -0.36,0.1 -0.56,0.1 -0.26,0 -0.53,-0.05 -0.76,-0.17 -0.24,-0.14 -0.41,-0.34 -0.55,-0.58 -0.05,-0.1 -0.1,-0.2 -0.13,-0.31 -0.03,0.08 -0.06,0.18 -0.09,0.26 -0.1,0.21 -0.24,0.4 -0.43,0.55 -0.11,0.08 -0.22,0.14 -0.35,0.19 -0.14,0.05 -0.29,0.06 -0.44,0.06 -0.4,0 -0.83,-0.12 -1.07,-0.48 -0.14,-0.23 -0.16,-0.51 -0.13,-0.76 0.03,-0.15 0.07,-0.31 0.14,-0.44 0.16,-0.27 0.39,-0.44 0.65,-0.59 z"
         id="path10351" /><path
         style="fill:#000000;stroke-width:0"
         inkscape:connector-curvature="0"
         d="m 233.99,708.75 0.01,-0.07 0,-0.07 0.01,-0.07 0.01,-0.07 0.01,-0.07 0.02,-0.07 0.01,-0.07 0.02,-0.07 0.02,-0.07 0.02,-0.07 0.03,-0.07 0.02,-0.06 0.03,-0.07 0.02,-0.07 0.03,-0.06 0.03,-0.07 c 0.06,-0.12 0.08,-0.25 0.18,-0.35 0.11,-0.09 0.25,-0.14 0.39,-0.14 0.28,-0.05 0.58,0.01 0.82,0.15 0.34,0.2 0.55,0.58 0.65,0.95 0.05,0.18 0.08,0.35 0.09,0.53 0.02,0.31 0.01,0.62 -0.08,0.92 -0.09,0.29 -0.24,0.55 -0.43,0.79 -0.28,0.35 -0.63,0.6 -1.08,0.65 -0.12,0.02 -0.29,0.03 -0.41,-0.01 -0.07,-0.03 -0.09,-0.1 -0.1,-0.17 -0.01,-0.14 0.03,-0.31 0.16,-0.38 0.11,-0.06 0.24,-0.05 0.36,-0.06 0.08,-0.01 0.15,-0.02 0.23,-0.04 0.31,-0.07 0.56,-0.25 0.79,-0.45 0.18,-0.17 0.33,-0.39 0.38,-0.64 0.08,-0.44 -0.14,-0.89 -0.45,-1.2 -0.16,-0.16 -0.35,-0.28 -0.57,-0.33 -0.24,-0.04 -0.49,-0.01 -0.7,0.12 -0.06,0.04 -0.14,0.1 -0.18,0.16 -0.03,0.05 -0.03,0.12 -0.05,0.18 -0.02,0.09 -0.06,0.17 -0.08,0.26 -0.02,0.03 -0.02,0.11 -0.06,0.14 -0.04,0.03 -0.11,0.02 -0.15,0.02 z"
         id="path10353" /><path
         style="fill:#000000;stroke-width:0"
         inkscape:connector-curvature="0"
         d="m 234.81,704.55 v -0.02 c -0.29,-0.14 -0.53,-0.48 -0.46,-0.82 0.07,-0.32 0.39,-0.5 0.69,-0.54 0.11,-0.02 0.24,-0.02 0.35,0.02 0.17,0.08 0.32,0.26 0.42,0.42 l -0.09,0.05 c -0.1,-0.15 -0.25,-0.19 -0.43,-0.19 -0.06,0 -0.13,0 -0.19,0.02 -0.15,0.06 -0.3,0.22 -0.33,0.39 -0.03,0.23 0.14,0.44 0.29,0.61 0.06,0.06 0.12,0.11 0.16,0.18 -0.23,0.06 -0.49,0.14 -0.62,0.36 -0.03,0.06 -0.05,0.14 -0.05,0.21 -0.01,0.41 0.42,0.69 0.81,0.67 0.11,-0.01 0.2,-0.05 0.29,-0.11 0.17,-0.11 0.31,-0.25 0.44,-0.4 0.07,-0.08 0.13,-0.17 0.21,-0.23 0.13,0.2 0.25,0.4 0.42,0.56 0.08,0.08 0.18,0.16 0.29,0.19 0.21,0.05 0.44,-0.07 0.6,-0.2 0.13,-0.1 0.24,-0.21 0.31,-0.36 0.18,-0.35 0.19,-0.83 0.06,-1.2 -0.05,-0.15 -0.14,-0.29 -0.29,-0.38 -0.12,-0.08 -0.26,-0.1 -0.4,-0.1 -0.07,0 -0.15,0.01 -0.21,0.04 -0.1,0.05 -0.16,0.15 -0.18,0.25 -0.04,0.14 -0.04,0.35 0.04,0.49 0.01,0.02 0.02,0.05 0.04,0.07 0.13,0.12 0.29,0 0.36,-0.12 0.03,0.01 0.06,0.01 0.08,0.03 0.06,0.07 -0.01,0.21 -0.06,0.26 -0.1,0.12 -0.29,0.16 -0.43,0.09 -0.12,-0.06 -0.21,-0.2 -0.24,-0.33 -0.04,-0.14 -0.04,-0.29 -0.03,-0.43 0.01,-0.15 0.03,-0.29 0.08,-0.43 0.06,-0.15 0.17,-0.29 0.34,-0.32 0.06,-0.01 0.11,-0.01 0.17,-0.01 0.45,0 0.82,0.31 0.94,0.74 0.07,0.22 0.09,0.45 0.09,0.69 0,0.5 -0.11,1 -0.41,1.41 -0.09,0.13 -0.21,0.25 -0.35,0.33 -0.26,0.14 -0.58,0.12 -0.82,-0.06 -0.08,-0.06 -0.15,-0.14 -0.19,-0.22 -0.12,-0.16 -0.18,-0.35 -0.23,-0.54 -0.12,0.25 -0.24,0.5 -0.46,0.68 -0.1,0.09 -0.22,0.16 -0.35,0.2 -0.11,0.03 -0.23,0.04 -0.35,0.02 -0.22,-0.02 -0.42,-0.12 -0.58,-0.28 -0.21,-0.22 -0.29,-0.51 -0.29,-0.8 0,-0.16 0.02,-0.33 0.1,-0.47 0.06,-0.11 0.14,-0.2 0.24,-0.27 0.06,-0.06 0.14,-0.12 0.22,-0.15 z"
         id="path10355" /></g>    <g
       style="font-style:normal;font-variant:normal;font-weight:normal;font-stretch:normal;letter-spacing:normal;word-spacing:normal;text-anchor:start;fill:none;stroke:#000000;stroke-width:1;stroke-linecap:butt;stroke-linejoin:miter;stroke-miterlimit:10.43299961;stroke-opacity:1;stroke-dasharray:none;stroke-dashoffset:0"
       ns0:preamble="/home/sriranga/Desktop/Rani_Figure/package.tex"
       ns0:text="vasutx"
       word-spacing="normal"
       letter-spacing="normal"
       font-size-adjust="none"
       font-stretch="normal"
       font-weight="normal"
       font-variant="normal"
       font-style="normal"
       stroke-miterlimit="10.433"
       xml:space="preserve"
       transform="matrix(1.2,0,0,-1.2,-192.57027,1875.9373)"
       id="g10471"><path
         style="fill:#000000;stroke-width:0"
         inkscape:connector-curvature="0"
         id="path10473"
         d="m 223.91,711.35 v -0.64 h 1.78 0.53 c 0.1,0 0.21,0.01 0.31,0 0.4,-0.04 0.79,-0.18 1.13,-0.4 0.45,-0.28 0.83,-0.72 0.91,-1.26 0.02,-0.12 0.03,-0.26 0.01,-0.38 -0.08,-0.48 -0.53,-0.76 -0.99,-0.8 -0.19,-0.02 -0.38,0 -0.55,0.09 -0.2,0.11 -0.36,0.29 -0.47,0.5 -0.05,0.09 -0.09,0.2 -0.14,0.29 -0.1,-0.16 -0.2,-0.33 -0.34,-0.47 -0.35,-0.34 -0.89,-0.51 -1.36,-0.37 -0.28,0.07 -0.58,0.24 -0.63,0.55 -0.01,0.05 -0.01,0.11 0,0.15 0.04,0.33 0.35,0.5 0.66,0.5 0.16,0 0.33,-0.05 0.44,-0.19 0.03,-0.04 0.07,-0.09 0.07,-0.14 0,-0.04 -0.02,-0.08 -0.03,-0.11 -0.04,-0.07 -0.09,-0.14 -0.14,-0.2 -0.05,-0.04 -0.13,-0.09 -0.14,-0.15 -0.01,-0.03 0,-0.05 0,-0.08 0.19,0 0.38,0.07 0.5,0.23 0.08,0.1 0.1,0.21 0.1,0.34 0,0.2 -0.05,0.4 -0.23,0.52 -0.28,0.18 -0.69,0.2 -0.98,0.03 -0.16,-0.1 -0.29,-0.25 -0.36,-0.43 -0.06,-0.15 -0.08,-0.31 -0.08,-0.46 0,-0.37 0.1,-0.77 0.39,-1.03 0.27,-0.24 0.64,-0.32 0.99,-0.28 0.25,0.02 0.48,0.09 0.68,0.24 0.23,0.18 0.37,0.45 0.44,0.73 h 0.01 c 0.02,-0.12 0.08,-0.23 0.13,-0.33 0.09,-0.16 0.21,-0.31 0.35,-0.42 0.45,-0.33 1.12,-0.29 1.56,0.04 0.39,0.3 0.52,0.8 0.5,1.27 -0.01,0.24 -0.05,0.47 -0.14,0.69 -0.14,0.3 -0.36,0.55 -0.61,0.76 -0.2,0.15 -0.42,0.28 -0.65,0.4 -0.12,0.06 -0.26,0.13 -0.39,0.16 v 0.01 h 0.39 v 0.64 z" /><path
         style="fill:#000000;stroke-width:0"
         inkscape:connector-curvature="0"
         id="path10475"
         d="m 228.36,712.98 0.03,-0.03 0.03,-0.03 0.02,-0.03 0.02,-0.02 0.01,-0.01 0.02,-0.02 0.01,-0.02 0.01,-0.01 0.02,-0.02 0.01,-0.01 0.01,-0.02 0.01,-0.02 0.01,-0.01 c 0.18,-0.24 0.33,-0.63 0.19,-0.92 -0.06,-0.1 -0.14,-0.17 -0.22,-0.26 -0.08,-0.06 -0.16,-0.13 -0.26,-0.16 -0.12,-0.05 -0.25,-0.04 -0.37,-0.04 h -0.56 v -0.64 h 0.48 c 0.14,0 0.28,0 0.42,0.02 0.24,0.05 0.48,0.17 0.66,0.35 0.23,0.24 0.37,0.58 0.32,0.92 -0.02,0.17 -0.09,0.34 -0.18,0.49 -0.08,0.14 -0.2,0.29 -0.34,0.38 -0.09,0.06 -0.23,0.09 -0.35,0.11 z" /><polygon
         style="fill:#000000;stroke-width:0"
         id="polygon10477"
         points="232.69,711.35 230.03,711.35 230.03,710.71 232.69,710.71 " /><path
         style="fill:#000000;stroke-width:0"
         inkscape:connector-curvature="0"
         id="path10479"
         d="m 231.51,710.43 -0.02,0 -0.02,0 -0.03,-0.01 -0.03,-0.01 -0.03,-0.02 -0.03,-0.01 -0.03,-0.02 -0.03,-0.02 -0.02,-0.02 -0.03,-0.02 -0.02,-0.02 -0.02,-0.03 -0.02,-0.03 -0.01,-0.02 -0.02,-0.03 -0.01,-0.03 -0.02,-0.03 -0.01,-0.03 0,-0.03 -0.01,-0.03 -0.01,-0.03 0,-0.04 0,-0.03 0,-0.03 0.01,-0.03 0,-0.03 0.01,-0.03 0.01,-0.04 0.01,-0.03 0.02,-0.03 0.02,-0.03 0,-0.01 0.01,-0.01 0.02,-0.02 0.01,-0.01 c 0.12,-0.15 0.31,-0.19 0.49,-0.16 0.06,0.01 0.13,0.03 0.18,0.07 0.23,0.15 0.28,0.48 0.13,0.69 -0.12,0.16 -0.31,0.25 -0.5,0.21 z" /><path
         style="fill:#000000;stroke-width:0"
         inkscape:connector-curvature="0"
         id="path10481"
         d="m 233.46,710.14 0.02,-0.05 0.01,-0.04 0.01,-0.04 0,-0.04 0.02,-0.08 0.02,-0.08 0.01,-0.08 0.02,-0.09 0.01,-0.08 0.01,-0.08 c 0.06,-0.42 0.11,-0.86 -0.02,-1.26 -0.06,-0.16 -0.11,-0.33 -0.23,-0.45 -0.05,-0.05 -0.14,-0.1 -0.21,-0.08 -0.06,0.02 -0.11,0.08 -0.15,0.13 -0.08,0.12 -0.15,0.26 -0.21,0.39 -0.05,0.12 -0.1,0.25 -0.17,0.37 -0.11,0.18 -0.28,0.33 -0.49,0.41 -0.19,0.07 -0.39,0.1 -0.59,0.1 -0.38,0 -0.78,-0.11 -1.06,-0.4 -0.39,-0.4 -0.46,-1 -0.29,-1.53 0.02,0.01 0.05,0.01 0.07,0.03 0.04,0.03 0.03,0.14 0.04,0.19 0.02,0.15 0.07,0.28 0.15,0.41 0.22,0.38 0.65,0.66 1.09,0.68 0.42,0.02 0.82,-0.11 1.08,-0.46 0.08,-0.11 0.14,-0.23 0.19,-0.36 0.07,-0.21 0.14,-0.48 0.4,-0.51 0.06,0 0.11,0 0.17,0.01 0.07,0.01 0.13,0.02 0.18,0.05 0.16,0.07 0.29,0.23 0.35,0.4 0.04,0.1 0.05,0.21 0.07,0.32 0.05,0.27 0.07,0.54 0.07,0.8 0,0.19 0,0.38 -0.04,0.56 -0.02,0.09 -0.06,0.17 -0.08,0.26 -0.08,0.23 -0.21,0.5 -0.45,0.6 z" /><path
         style="fill:#000000;stroke-width:0"
         inkscape:connector-curvature="0"
         id="path10483"
         d="m 233.4,712.98 0.03,-0.03 0.03,-0.03 0.03,-0.03 0.01,-0.02 0.02,-0.01 0.01,-0.02 0.02,-0.02 0.01,-0.01 0.01,-0.02 0.02,-0.01 0.01,-0.02 0.01,-0.02 0.01,-0.01 c 0.18,-0.24 0.33,-0.63 0.19,-0.92 -0.06,-0.1 -0.14,-0.17 -0.23,-0.26 -0.08,-0.06 -0.16,-0.13 -0.26,-0.16 -0.12,-0.05 -0.25,-0.04 -0.37,-0.04 h -0.55 v -0.64 h 0.48 c 0.13,0 0.27,0 0.41,0.02 0.25,0.05 0.49,0.17 0.67,0.35 0.23,0.24 0.37,0.58 0.32,0.92 -0.02,0.17 -0.09,0.34 -0.18,0.49 -0.08,0.14 -0.2,0.29 -0.34,0.38 -0.1,0.06 -0.24,0.09 -0.36,0.11 z" /><path
         style="fill:#000000;stroke-width:0"
         inkscape:connector-curvature="0"
         id="path10485"
         d="m 234.28,708.75 0.01,-0.07 0,-0.07 0.01,-0.07 0.01,-0.07 0.01,-0.07 0.02,-0.07 0.01,-0.07 0.02,-0.07 0.02,-0.07 0.02,-0.07 0.03,-0.07 0.02,-0.06 0.03,-0.07 0.02,-0.07 0.03,-0.06 0.03,-0.07 c 0.06,-0.12 0.08,-0.25 0.18,-0.35 0.11,-0.09 0.25,-0.14 0.39,-0.14 0.28,-0.05 0.59,0.01 0.82,0.15 0.34,0.2 0.55,0.58 0.65,0.95 0.05,0.18 0.08,0.35 0.09,0.53 0.02,0.31 0.01,0.62 -0.08,0.92 -0.09,0.29 -0.24,0.55 -0.43,0.79 -0.28,0.35 -0.63,0.6 -1.08,0.65 -0.12,0.02 -0.29,0.03 -0.41,-0.01 -0.07,-0.03 -0.09,-0.1 -0.1,-0.17 -0.01,-0.14 0.03,-0.31 0.16,-0.38 0.11,-0.06 0.24,-0.05 0.36,-0.06 0.08,-0.01 0.15,-0.02 0.23,-0.04 0.31,-0.07 0.56,-0.25 0.79,-0.45 0.18,-0.17 0.33,-0.39 0.38,-0.64 0.08,-0.44 -0.14,-0.89 -0.45,-1.2 -0.16,-0.16 -0.36,-0.28 -0.57,-0.33 -0.24,-0.04 -0.49,-0.01 -0.7,0.12 -0.06,0.04 -0.14,0.1 -0.18,0.16 -0.03,0.05 -0.03,0.12 -0.05,0.18 -0.02,0.09 -0.06,0.17 -0.08,0.26 -0.02,0.03 -0.02,0.11 -0.06,0.14 -0.04,0.03 -0.11,0.02 -0.15,0.02 z" /><path
         style="fill:#000000;stroke-width:0"
         inkscape:connector-curvature="0"
         id="path10487"
         d="m 237.53,705.13 h -2.86 v -0.61 h 2.37 0.51 c 0.24,0 0.47,0.01 0.68,0.12 0.51,0.27 0.61,0.91 0.54,1.43 l -0.2,-0.12 c 0.02,-0.07 0.01,-0.15 0,-0.22 h 0 c -0.02,-0.2 -0.1,-0.43 -0.29,-0.54 -0.06,-0.04 -0.13,-0.06 -0.2,-0.06 -0.11,0 -0.22,0.02 -0.31,0.08 -0.19,0.12 -0.29,0.38 -0.27,0.59 0.01,0.1 0.08,0.19 0.14,0.26 0.1,0.11 0.25,0.23 0.4,0.25 0.21,0.02 0.46,-0.16 0.53,-0.36 l 0.2,0.12 c -0.03,0.25 -0.1,0.52 -0.33,0.66 -0.2,0.12 -0.48,0.14 -0.69,0.03 -0.15,-0.08 -0.27,-0.22 -0.34,-0.37 -0.2,-0.39 -0.16,-0.92 0.12,-1.26 z" /></g>    <g
       id="g10627"
       transform="matrix(1.2,0,0,-1.2,-261.93395,1833.8684)"
       xml:space="preserve"
       stroke-miterlimit="10.433"
       font-style="normal"
       font-variant="normal"
       font-weight="normal"
       font-stretch="normal"
       font-size-adjust="none"
       letter-spacing="normal"
       word-spacing="normal"
       ns0:text="kiSxtija reVKe"
       ns0:preamble="/home/sriranga/Desktop/Rani_Figure/package.tex"
       style="font-style:normal;font-variant:normal;font-weight:normal;font-stretch:normal;letter-spacing:normal;word-spacing:normal;text-anchor:start;fill:none;stroke:#000000;stroke-width:1;stroke-linecap:butt;stroke-linejoin:miter;stroke-miterlimit:10.43299961;stroke-opacity:1;stroke-dasharray:none;stroke-dashoffset:0"><path
         style="fill:#000000;stroke-width:0"
         inkscape:connector-curvature="0"
         d="m 225.99,710.98 -0.13,0.28 c -0.11,-0.19 -0.37,-0.2 -0.56,-0.14 -0.18,0.06 -0.32,0.18 -0.29,0.39 0.02,0.14 0.09,0.25 0.21,0.33 0.25,0.14 0.63,0.05 0.69,-0.25 0.01,-0.05 0.01,-0.12 0,-0.18 h 0 c -0.01,-0.05 -0.02,-0.1 -0.05,-0.15 l 0.13,-0.28 H 226 c -0.02,-0.11 -0.05,-0.22 -0.1,-0.32 -0.14,-0.25 -0.4,-0.44 -0.68,-0.48 -0.16,-0.02 -0.34,-0.01 -0.51,-0.01 h -0.8 v -0.62 h 0.91 v -0.01 l 0.3,-0.07 c 0.5,0.24 1.24,-0.06 1.35,-0.63 0.02,-0.09 0.02,-0.18 0,-0.26 h 0 c -0.01,-0.08 -0.03,-0.16 -0.07,-0.24 -0.18,-0.37 -0.66,-0.55 -1.06,-0.47 -0.15,0.03 -0.3,0.1 -0.42,0.2 -0.13,0.1 -0.23,0.24 -0.26,0.41 -0.02,0.1 -0.02,0.18 -0.01,0.28 0.04,0.29 0.2,0.59 0.47,0.71 l -0.3,0.07 c -0.12,-0.07 -0.22,-0.17 -0.31,-0.27 -0.33,-0.39 -0.45,-1 -0.19,-1.46 0.15,-0.26 0.39,-0.48 0.66,-0.59 0.2,-0.07 0.41,-0.1 0.62,-0.08 0.56,0.02 1.1,0.37 1.27,0.91 0.04,0.13 0.06,0.27 0.06,0.41 0,0.12 -0.02,0.23 -0.06,0.35 -0.05,0.15 -0.13,0.29 -0.22,0.41 -0.1,0.12 -0.22,0.25 -0.36,0.32 v 0.01 h 0.83 v 0.62 h -1.37 c 0.3,0.26 0.59,0.61 0.65,1.02 0.01,0.15 0,0.32 -0.04,0.47 -0.07,0.2 -0.19,0.41 -0.37,0.54 -0.27,0.2 -0.67,0.22 -0.91,-0.03 -0.32,-0.35 -0.37,-0.98 -0.06,-1.35 0.26,-0.32 0.8,-0.2 0.97,0.16 z"
         id="path10629" /><path
         style="fill:#000000;stroke-width:0"
         inkscape:connector-curvature="0"
         d="m 228.16,706.81 0.02,-0.09 0.02,-0.08 0.04,-0.17 0.03,-0.08 0.02,-0.09 0.02,-0.08 0.03,-0.09 c 0.03,-0.13 0.09,-0.25 0.11,-0.38 0.02,-0.1 0,-0.23 -0.02,-0.34 -0.04,-0.28 -0.15,-0.62 -0.45,-0.7 -0.07,-0.01 -0.14,-0.02 -0.21,0.01 -0.09,0.03 -0.16,0.11 -0.22,0.18 -0.15,0.16 -0.27,0.34 -0.38,0.53 -0.09,-0.06 -0.15,-0.16 -0.22,-0.24 -0.13,-0.14 -0.27,-0.27 -0.43,-0.36 -0.15,-0.08 -0.31,-0.13 -0.48,-0.13 -0.15,0 -0.28,0.03 -0.41,0.11 -0.14,0.08 -0.28,0.2 -0.35,0.34 -0.18,0.33 0.09,0.7 0.4,0.82 0.3,0.11 0.61,-0.01 0.79,-0.27 h 0.01 c 0,0.16 -0.03,0.33 -0.14,0.45 -0.15,0.17 -0.38,0.19 -0.59,0.17 -0.15,-0.02 -0.3,-0.06 -0.43,-0.15 -0.16,-0.11 -0.24,-0.29 -0.28,-0.48 -0.03,-0.1 -0.03,-0.22 -0.03,-0.33 0,-0.45 0.14,-0.94 0.57,-1.17 0.07,-0.03 0.14,-0.05 0.21,-0.08 0.13,-0.02 0.28,-0.02 0.42,-0.01 0.14,0.02 0.27,0.06 0.39,0.14 0.27,0.18 0.43,0.47 0.56,0.77 0.13,-0.28 0.23,-0.66 0.5,-0.84 0.28,-0.17 0.64,-0.06 0.82,0.2 0.23,0.35 0.27,0.8 0.23,1.21 0.2,-0.34 0.26,-0.73 0.27,-1.12 0,-0.08 0,-0.15 0,-0.23 -0.01,-0.14 -0.04,-0.28 0.03,-0.42 0.07,-0.16 0.32,-0.17 0.44,-0.06 0.09,0.09 0.11,0.24 0.11,0.35 0,0.15 -0.01,0.31 -0.05,0.45 -0.02,0.07 -0.06,0.13 -0.09,0.19 -0.06,0.13 -0.12,0.27 -0.19,0.4 -0.17,0.35 -0.35,0.7 -0.52,1.05 -0.06,0.13 -0.14,0.26 -0.18,0.39 -0.03,0.07 -0.06,0.16 -0.13,0.21 -0.07,0.04 -0.17,0.02 -0.24,0.02 z"
         id="path10631" /><path
         style="fill:#000000;stroke-width:0"
         inkscape:connector-curvature="0"
         d="m 231.52,711.66 0.02,0 0.01,-0.01 0.03,-0.02 0.03,-0.02 0.03,-0.01 0.03,-0.02 0.03,-0.02 0.03,-0.02 0.02,0 0.01,-0.01 c 0.28,-0.21 0.51,-0.5 0.56,-0.85 0.01,-0.08 0,-0.16 -0.01,-0.24 -0.01,-0.1 -0.02,-0.21 -0.05,-0.3 -0.01,-0.04 -0.01,-0.09 -0.05,-0.1 -0.04,-0.02 -0.11,0.01 -0.15,0.03 -0.12,0.03 -0.24,0.07 -0.37,0.09 l -0.02,-0.21 c 0.15,-0.03 0.3,-0.07 0.45,-0.11 h 0 c -0.07,-0.12 -0.14,-0.22 -0.24,-0.31 -0.21,-0.17 -0.5,-0.25 -0.76,-0.24 -0.17,0 -0.39,0.06 -0.48,0.22 -0.07,0.13 0.01,0.28 0.12,0.36 0.14,0.09 0.31,0.12 0.47,0.13 0.08,0.01 0.18,0.02 0.26,0 0.06,-0.01 0.12,-0.03 0.18,-0.05 l 0.02,0.21 c -0.33,0.04 -0.7,0.04 -1.01,-0.09 -0.2,-0.09 -0.36,-0.23 -0.42,-0.45 -0.01,-0.07 -0.02,-0.14 -0.02,-0.21 0,-0.07 0.02,-0.14 0.04,-0.2 0.11,-0.26 0.43,-0.34 0.68,-0.36 0.43,-0.04 0.87,0.08 1.19,0.4 0.11,0.11 0.21,0.25 0.26,0.4 0.13,-0.11 0.26,-0.24 0.34,-0.39 0.12,-0.23 0.09,-0.52 -0.06,-0.72 -0.09,-0.15 -0.23,-0.26 -0.38,-0.35 -0.61,-0.37 -1.36,-0.44 -2.04,-0.22 -0.4,0.13 -0.76,0.38 -0.88,0.79 -0.05,0.14 -0.07,0.29 -0.07,0.44 -0.03,0 -0.07,0 -0.11,-0.01 -0.05,-0.03 -0.06,-0.13 -0.09,-0.19 -0.03,-0.17 -0.05,-0.34 -0.02,-0.52 0.08,-0.55 0.57,-0.97 1.06,-1.17 0.24,-0.1 0.49,-0.15 0.75,-0.16 0.62,-0.06 1.28,0.1 1.77,0.52 0.13,0.11 0.25,0.25 0.33,0.4 0.15,0.27 0.21,0.59 0.13,0.89 -0.05,0.25 -0.18,0.47 -0.36,0.65 -0.09,0.09 -0.19,0.19 -0.3,0.25 0.07,0.18 0.06,0.37 0.06,0.56 0,0.21 -0.01,0.42 -0.08,0.62 -0.1,0.31 -0.29,0.56 -0.52,0.79 -0.22,0.22 -0.49,0.43 -0.81,0.5 -0.09,0.02 -0.17,0.02 -0.25,0.02 -0.09,0 -0.17,-0.01 -0.25,-0.03 -0.09,-0.02 -0.17,-0.05 -0.25,-0.1 -0.06,-0.04 -0.11,-0.09 -0.15,-0.15 -0.08,-0.11 -0.13,-0.24 -0.13,-0.36 0,-0.05 0.02,-0.12 0.03,-0.16 0.01,-0.06 0.01,-0.13 0.04,-0.19 l 0.18,0.03 c -0.01,0.06 -0.01,0.11 0.01,0.16 0.01,0.05 0.02,0.11 0.05,0.16 0.08,0.13 0.23,0.19 0.39,0.19 0.07,0 0.13,0 0.19,-0.02 0.17,-0.06 0.34,-0.23 0.37,-0.42 0.03,-0.17 -0.1,-0.31 -0.24,-0.37 -0.2,-0.09 -0.41,-0.07 -0.59,0.05 -0.09,0.06 -0.17,0.14 -0.18,0.25 h 0 l -0.18,-0.03 c 0.09,-0.25 0.3,-0.48 0.53,-0.61 0.08,-0.05 0.17,-0.08 0.26,-0.1 0.06,-0.02 0.14,-0.02 0.21,-0.01 0.05,0 0.1,0.01 0.14,0.03 0.31,0.14 0.33,0.56 0.26,0.85 -0.01,0.05 -0.03,0.09 -0.05,0.14 z"
         id="path10633" /><path
         style="fill:#000000;stroke-width:0"
         inkscape:connector-curvature="0"
         d="m 234.82,709.83 0.04,0.09 c -0.09,0.06 -0.17,0.13 -0.24,0.22 -0.04,0.04 -0.07,0.1 -0.09,0.16 -0.08,0.27 0.12,0.5 0.37,0.57 0.28,0.07 0.55,-0.03 0.66,-0.31 0.13,-0.33 -0.06,-0.66 -0.27,-0.91 -0.14,-0.17 -0.32,-0.3 -0.47,-0.46 -0.24,-0.26 -0.42,-0.58 -0.4,-0.93 0.01,-0.2 0.05,-0.4 0.14,-0.58 0.07,-0.15 0.18,-0.28 0.32,-0.37 0.15,-0.1 0.32,-0.14 0.49,-0.15 0.24,-0.04 0.51,0 0.74,0.1 0.38,0.19 0.65,0.55 0.75,0.95 h 0.01 c 0.04,-0.25 0.19,-0.49 0.37,-0.67 0.15,-0.16 0.35,-0.28 0.57,-0.35 0.31,-0.08 0.67,-0.08 0.96,0.08 0.11,0.07 0.21,0.15 0.3,0.25 0.07,0.08 0.11,0.16 0.17,0.25 0.25,0.49 0.2,1.24 -0.34,1.51 -0.15,0.08 -0.32,0.1 -0.49,0.1 0,-0.03 -0.01,-0.07 0.01,-0.09 0.02,-0.04 0.07,-0.05 0.11,-0.06 0.08,-0.03 0.16,-0.07 0.23,-0.11 0.15,-0.09 0.29,-0.21 0.33,-0.39 0.02,-0.07 0.02,-0.14 0,-0.22 -0.06,-0.45 -0.57,-0.71 -0.99,-0.69 -0.16,0.01 -0.31,0.06 -0.45,0.13 -0.26,0.15 -0.48,0.38 -0.63,0.64 -0.06,0.1 -0.09,0.23 -0.15,0.34 -0.05,-0.1 -0.1,-0.2 -0.15,-0.28 -0.18,-0.3 -0.43,-0.62 -0.77,-0.74 -0.45,-0.17 -1.03,0.04 -1.15,0.54 -0.01,0.07 -0.02,0.14 -0.02,0.21 0.02,0.12 0.08,0.24 0.16,0.35 0.13,0.19 0.3,0.34 0.47,0.49 0.34,0.29 0.63,0.67 0.55,1.14 0.48,-0.44 1.07,-0.89 1.75,-0.79 0.11,0.01 0.22,0.05 0.32,0.09 0.43,0.16 0.89,0.56 0.9,1.06 0,0.14 -0.03,0.26 -0.09,0.38 -0.03,0.04 -0.05,0.09 -0.09,0.12 -0.06,0.04 -0.1,-0.02 -0.1,-0.07 0.01,-0.09 0.02,-0.18 -0.01,-0.27 -0.1,-0.33 -0.46,-0.52 -0.76,-0.62 -0.64,-0.22 -1.34,0.02 -1.88,0.41 -0.07,0.05 -0.14,0.1 -0.21,0.16 -0.09,0.09 -0.16,0.18 -0.26,0.26 -0.18,0.15 -0.42,0.22 -0.66,0.17 -0.27,-0.05 -0.55,-0.28 -0.66,-0.53 -0.12,-0.28 -0.08,-0.63 0.1,-0.87 0.13,-0.17 0.31,-0.25 0.51,-0.31 z"
         id="path10635" /><path
         style="fill:#000000;stroke-width:0"
         inkscape:connector-curvature="0"
         d="m 243.06,711.35 v -0.64 h 1.11 v -0.01 l 0.22,-0.1 c 0.63,0.27 1.38,0.09 1.86,-0.39 0.21,-0.19 0.36,-0.46 0.38,-0.75 0.05,-0.42 -0.14,-0.8 -0.43,-1.08 -0.3,-0.3 -0.67,-0.5 -1.1,-0.52 -0.59,-0.03 -1.24,0.3 -1.52,0.83 -0.09,0.17 -0.13,0.35 -0.15,0.54 h 0 c -0.03,0.38 0.14,0.73 0.4,0.98 0.16,0.16 0.35,0.3 0.56,0.39 l -0.22,0.1 c -0.08,-0.03 -0.14,-0.08 -0.21,-0.12 -0.13,-0.09 -0.26,-0.19 -0.37,-0.3 -0.16,-0.16 -0.29,-0.34 -0.38,-0.54 -0.07,-0.14 -0.11,-0.29 -0.13,-0.44 -0.11,-0.75 0.29,-1.49 0.93,-1.87 0.34,-0.21 0.75,-0.31 1.15,-0.27 0.69,0.04 1.35,0.41 1.66,1.05 0.24,0.47 0.27,1.08 0.05,1.57 -0.16,0.34 -0.44,0.64 -0.78,0.83 -0.14,0.08 -0.31,0.17 -0.47,0.2 v 0.54 z"
         id="path10637" /><path
         style="fill:#000000;stroke-width:0"
         inkscape:connector-curvature="0"
         d="m 245.99,712.08 -0.01,0.01 -0.01,0 -0.01,0.01 -0.01,0.01 -0.01,0 -0.01,0.01 -0.01,0.01 -0.01,0 0,0.01 -0.01,0.01 -0.01,0.01 -0.01,0.01 -0.01,0 0,0.01 -0.01,0.01 0,0.01 0,0 c -0.13,0.21 -0.05,0.48 0.15,0.6 0.2,0.13 0.5,0.1 0.71,0 0.09,-0.04 0.18,-0.1 0.25,-0.17 0.18,-0.19 0.23,-0.49 0.13,-0.73 -0.07,-0.16 -0.2,-0.3 -0.35,-0.38 -0.26,-0.16 -0.54,-0.17 -0.83,-0.17 h -0.59 v -0.64 h 0.65 c 0.35,0 0.76,0.01 1.07,0.23 0.1,0.07 0.19,0.16 0.26,0.26 0.24,0.32 0.3,0.68 0.23,1.07 -0.05,0.22 -0.14,0.45 -0.3,0.61 -0.22,0.21 -0.52,0.29 -0.82,0.3 -0.1,0.02 -0.19,0.02 -0.27,-0.01 -0.36,-0.07 -0.63,-0.4 -0.6,-0.77 0.02,-0.23 0.16,-0.48 0.37,-0.58 0.15,-0.08 0.33,-0.08 0.49,-0.03 0.08,0.03 0.17,0.07 0.22,0.14 0.16,0.17 0.14,0.52 -0.06,0.66 -0.08,0.05 -0.17,0.06 -0.27,0.05 -0.06,0 -0.12,-0.01 -0.18,-0.04 -0.08,-0.06 -0.14,-0.17 -0.16,-0.28 -0.02,-0.08 0.01,-0.16 0.03,-0.24 z"
         id="path10639" /><path
         style="fill:#000000;stroke-width:0"
         inkscape:connector-curvature="0"
         d="m 250.48,707.14 v 0.01 c -0.21,0.11 -0.4,0.26 -0.59,0.4 -0.57,0.42 -1.16,0.9 -1.33,1.61 -0.02,0.11 -0.04,0.23 -0.04,0.34 0,0.14 0.02,0.28 0.05,0.42 0.04,0.16 0.1,0.3 0.19,0.44 0.11,0.19 0.28,0.36 0.45,0.48 l 0.09,-0.28 c 0.09,0.38 0.57,0.49 0.88,0.33 0.14,-0.07 0.26,-0.19 0.28,-0.35 0,-0.05 0,-0.1 -0.01,-0.15 -0.04,-0.27 -0.33,-0.36 -0.57,-0.38 -0.21,-0.02 -0.44,0.04 -0.54,0.23 -0.02,0.05 -0.04,0.11 -0.04,0.16 h 0 c -0.01,0.05 -0.01,0.11 0,0.16 l -0.09,0.28 c -0.22,-0.41 -0.2,-1.07 0.27,-1.32 0.06,-0.03 0.12,-0.05 0.19,-0.06 0.09,-0.01 0.19,-0.01 0.28,0.01 0.08,0.01 0.16,0.05 0.24,0.09 0.53,0.3 0.57,1.02 0.3,1.51 -0.07,0.13 -0.16,0.25 -0.28,0.33 -0.15,0.11 -0.33,0.13 -0.51,0.13 -0.14,0 -0.29,-0.04 -0.42,-0.1 -0.4,-0.19 -0.66,-0.59 -0.8,-1.01 -0.11,-0.34 -0.14,-0.71 -0.12,-1.08 0.01,-0.25 0.05,-0.5 0.13,-0.74 0.08,-0.26 0.22,-0.52 0.38,-0.75 0.12,-0.19 0.25,-0.36 0.41,-0.52 0.06,-0.06 0.11,-0.13 0.18,-0.17 0.08,-0.05 0.22,-0.01 0.31,-0.01 0.24,0 0.47,-0.01 0.71,-0.01 z"
         id="path10641" /><path
         style="fill:#000000;stroke-width:0"
         inkscape:connector-curvature="0"
         d="m 253.12,710.04 -0.02,0 -0.02,0 -0.02,0.01 -0.02,0 -0.02,0.01 -0.03,0.01 -0.02,0.01 -0.02,0.01 -0.02,0.01 -0.02,0.01 -0.02,0.01 -0.02,0.02 -0.02,0.01 -0.02,0.02 -0.02,0.01 -0.01,0.02 -0.02,0.02 -0.01,0.01 -0.01,0.02 -0.02,0.02 -0.01,0.02 0,0.02 -0.01,0.02 -0.01,0.02 0,0.01 0,0.01 0,0.01 0,0.02 0,0.01 0,0.01 0,0.01 0,0.01 0,0.01 0.01,0.01 0,0.01 0,0.02 0.01,0.01 0,0.01 0.01,0.01 0,0.01 c 0.09,0.17 0.3,0.27 0.48,0.33 0.1,0.03 0.2,0.04 0.31,0.04 0.12,0 0.23,-0.02 0.34,-0.05 0.53,-0.18 0.79,-0.8 0.76,-1.32 -0.01,-0.23 -0.12,-0.48 -0.22,-0.69 -0.04,-0.08 -0.09,-0.16 -0.13,-0.24 -0.19,0.12 -0.4,0.23 -0.61,0.29 -0.16,0.04 -0.32,0.05 -0.48,0.05 -0.36,0 -0.7,-0.07 -1,-0.24 l 0.18,-0.15 c 0.21,0.11 0.45,0.18 0.69,0.19 0.14,0 0.28,-0.02 0.42,-0.05 0.16,-0.03 0.32,-0.1 0.46,-0.2 0.04,-0.02 0.13,-0.08 0.12,-0.13 h 0 c -0.01,-0.04 -0.05,-0.07 -0.08,-0.1 -0.06,-0.07 -0.13,-0.13 -0.21,-0.19 -0.24,-0.2 -0.52,-0.34 -0.83,-0.37 -0.14,-0.01 -0.28,0.01 -0.42,0.01 -0.2,0.01 -0.47,0.04 -0.54,0.29 -0.01,0.04 -0.01,0.07 0,0.11 0.03,0.22 0.21,0.36 0.39,0.44 l -0.18,0.15 c -0.15,-0.08 -0.29,-0.17 -0.4,-0.3 -0.16,-0.19 -0.22,-0.46 -0.15,-0.7 0.12,-0.38 0.53,-0.51 0.88,-0.54 0.42,-0.02 0.86,0.01 1.23,0.23 0.14,0.08 0.27,0.18 0.38,0.3 0.1,0.1 0.2,0.22 0.27,0.35 h 0 c 0.06,-0.1 0.14,-0.18 0.22,-0.26 0.12,-0.13 0.25,-0.27 0.4,-0.37 0.21,-0.15 0.48,-0.23 0.74,-0.25 0.48,-0.04 0.96,0.06 1.32,0.41 0.47,0.47 0.61,1.23 0.44,1.86 -0.11,0.38 -0.34,0.73 -0.64,0.98 -0.2,0.17 -0.43,0.34 -0.69,0.39 v 0.55 H 255 v -0.64 h 0.49 c 0.09,0 0.19,0.01 0.28,0 0.25,-0.03 0.49,-0.1 0.69,-0.24 0.11,-0.08 0.21,-0.17 0.3,-0.27 0.32,-0.35 0.53,-0.9 0.4,-1.38 -0.06,-0.2 -0.18,-0.36 -0.32,-0.51 -0.1,-0.1 -0.2,-0.19 -0.32,-0.26 -0.14,-0.09 -0.3,-0.14 -0.47,-0.17 -0.29,-0.04 -0.62,-0.02 -0.89,0.09 -0.1,0.05 -0.2,0.11 -0.29,0.18 -0.07,0.05 -0.13,0.1 -0.2,0.15 -0.03,0.02 -0.07,0.04 -0.08,0.08 0,0.02 0.01,0.06 0.02,0.08 0.02,0.05 0.04,0.09 0.05,0.14 0.06,0.18 0.11,0.37 0.14,0.56 0.07,0.55 -0.02,1.11 -0.29,1.59 -0.16,0.28 -0.39,0.52 -0.69,0.64 -0.51,0.2 -1.21,-0.02 -1.36,-0.59 -0.14,-0.51 0.25,-1.11 0.81,-1.06 0.09,0.01 0.18,0.04 0.26,0.09 0.06,0.03 0.12,0.08 0.16,0.15 0.1,0.18 0.01,0.46 -0.18,0.54 -0.19,0.08 -0.41,-0.07 -0.43,-0.27 0,-0.08 0.02,-0.15 0.04,-0.21 z"
         id="path10643" /><path
         style="fill:#000000;stroke-width:0"
         inkscape:connector-curvature="0"
         d="m 256.4,712.08 -0.01,0.01 -0.01,0 -0.01,0.01 -0.01,0.01 -0.01,0 -0.01,0.01 -0.01,0.01 -0.01,0 0,0.01 -0.01,0.01 -0.01,0.01 -0.01,0.01 0,0 -0.01,0.01 -0.01,0.01 0,0.01 0,0 c -0.13,0.21 -0.05,0.48 0.15,0.6 0.2,0.13 0.5,0.1 0.71,0 0.09,-0.04 0.18,-0.1 0.25,-0.17 0.18,-0.19 0.23,-0.49 0.13,-0.73 -0.07,-0.16 -0.2,-0.3 -0.35,-0.38 -0.26,-0.16 -0.54,-0.17 -0.83,-0.17 h -0.59 v -0.64 h 0.65 c 0.35,0 0.76,0.01 1.07,0.23 0.1,0.07 0.19,0.16 0.26,0.26 0.24,0.32 0.3,0.68 0.23,1.07 -0.05,0.22 -0.14,0.45 -0.3,0.61 -0.22,0.21 -0.52,0.29 -0.82,0.3 -0.1,0.02 -0.19,0.02 -0.27,-0.01 -0.36,-0.07 -0.63,-0.4 -0.6,-0.77 0.02,-0.23 0.16,-0.48 0.37,-0.58 0.15,-0.08 0.34,-0.08 0.49,-0.03 0.08,0.03 0.17,0.07 0.22,0.14 0.16,0.17 0.14,0.52 -0.06,0.66 -0.08,0.05 -0.17,0.06 -0.27,0.05 -0.06,0 -0.11,-0.01 -0.17,-0.04 -0.09,-0.06 -0.15,-0.17 -0.17,-0.28 -0.02,-0.08 0.01,-0.16 0.03,-0.24 z"
         id="path10645" /></g>    <g
       style="font-style:normal;font-variant:normal;font-weight:normal;font-stretch:normal;letter-spacing:normal;word-spacing:normal;text-anchor:start;fill:none;stroke:#000000;stroke-width:1;stroke-linecap:butt;stroke-linejoin:miter;stroke-miterlimit:10.43299961;stroke-opacity:1;stroke-dasharray:none;stroke-dashoffset:0"
       ns0:preamble="/home/sriranga/Desktop/Rani_Figure/package.tex"
       ns0:text="$x^\\circ$ avanata koVna"
       word-spacing="normal"
       letter-spacing="normal"
       font-size-adjust="none"
       font-stretch="normal"
       font-weight="normal"
       font-variant="normal"
       font-style="normal"
       stroke-miterlimit="10.433"
       xml:space="preserve"
       transform="matrix(1.2,0,0,-1.2,-160.26734,1860.6622)"
       id="g10791"><path
         id="path10793"
         d="m 226.76,710.12 0,0.03 0.01,0.03 0.01,0.03 0.01,0.04 0.01,0.04 0.01,0.04 0.01,0.04 0.02,0.05 0.01,0.04 0.02,0.05 0.02,0.05 0.02,0.05 0.02,0.05 0.03,0.05 0.02,0.05 0.03,0.05 0.03,0.05 0.03,0.04 0.03,0.05 0.04,0.04 0.04,0.05 0.04,0.04 0.04,0.04 0.04,0.03 0.05,0.03 0.05,0.03 0.02,0.01 0.03,0.02 0.02,0.01 0.03,0.01 0.03,0.01 0.03,0 0.03,0.01 0.02,0.01 0.04,0 0.03,0 0.03,0.01 0.03,0 c 0.05,0 0.29,0 0.5,-0.13 -0.28,-0.05 -0.48,-0.3 -0.48,-0.54 0,-0.16 0.11,-0.35 0.38,-0.35 0.22,0 0.54,0.18 0.54,0.58 0,0.52 -0.59,0.66 -0.93,0.66 -0.58,0 -0.93,-0.53 -1.04,-0.76 -0.25,0.66 -0.79,0.76 -1.08,0.76 -1.03,0 -1.6,-1.29 -1.6,-1.53 0,-0.1 0.1,-0.1 0.12,-0.1 0.08,0 0.11,0.02 0.13,0.11 0.34,1.05 0.99,1.3 1.33,1.3 0.19,0 0.54,-0.09 0.54,-0.67 0,-0.31 -0.17,-0.97 -0.54,-2.36 -0.16,-0.62 -0.51,-1.04 -0.94,-1.04 -0.06,0 -0.29,0 -0.5,0.13 0.25,0.05 0.47,0.26 0.47,0.54 0,0.27 -0.22,0.35 -0.37,0.35 -0.3,0 -0.55,-0.26 -0.55,-0.58 0,-0.46 0.5,-0.65 0.94,-0.65 0.65,0 1.01,0.69 1.04,0.75 0.12,-0.37 0.48,-0.75 1.07,-0.75 1.03,0 1.6,1.28 1.6,1.53 0,0.1 -0.09,0.1 -0.12,0.1 -0.09,0 -0.11,-0.05 -0.13,-0.11 -0.33,-1.07 -1.01,-1.31 -1.33,-1.31 -0.38,0 -0.54,0.32 -0.54,0.66 0,0.22 0.06,0.44 0.17,0.87 z"
         inkscape:connector-curvature="0"
         style="fill:#000000;stroke-width:0" /><path
         id="path10795"
         d="m 232.66,712.48 0,0.08 -0.01,0.07 -0.01,0.08 -0.01,0.07 -0.02,0.08 -0.02,0.07 -0.02,0.07 -0.03,0.07 -0.03,0.06 -0.03,0.07 -0.04,0.06 -0.04,0.06 -0.04,0.06 -0.05,0.06 -0.04,0.05 -0.05,0.05 -0.06,0.05 -0.05,0.05 -0.06,0.04 -0.06,0.04 -0.06,0.04 -0.06,0.04 -0.06,0.03 -0.07,0.03 -0.07,0.02 -0.07,0.03 -0.07,0.02 -0.07,0.01 -0.07,0.02 -0.08,0.01 -0.07,0 -0.08,0 v -0.34 c 0.65,0 1.16,-0.53 1.16,-1.15 0,-0.64 -0.52,-1.15 -1.16,-1.15 h 0 c -0.65,0 -1.16,0.53 -1.16,1.15 0,0.64 0.52,1.15 1.16,1.15 v 0.34 c -0.84,0 -1.5,-0.67 -1.5,-1.49 0,-0.84 0.68,-1.49 1.5,-1.49 0.83,0 1.5,0.67 1.5,1.49 z"
         inkscape:connector-curvature="0"
         style="fill:#000000;stroke-width:0" /><path
         id="path10797"
         d="m 240.43,709.91 v -0.01 h -1.52 v -0.62 h 1.47 0.43 l 0.2,0.01 0.19,0.19 0.39,0.41 -0.02,0.01 h -0.42 c -0.07,0 -0.15,-0.01 -0.21,0.01 -0.09,0.04 -0.17,0.13 -0.23,0.18 -0.2,0.2 -0.4,0.52 -0.23,0.79 0.03,0.04 0.06,0.08 0.1,0.12 0.11,0.09 0.3,0.13 0.44,0.09 0.09,-0.03 0.18,-0.11 0.25,-0.18 0.09,-0.1 0.13,-0.23 0.18,-0.36 0.07,-0.22 0.12,-0.43 0.12,-0.65 h 0 l 0.02,-0.01 c 0,-0.12 0.01,-0.25 0,-0.37 -0.02,-0.24 -0.1,-0.48 -0.22,-0.69 -0.47,-0.76 -1.42,-1.03 -2.26,-0.98 -0.25,0.01 -0.49,0.05 -0.73,0.13 -0.53,0.18 -1.05,0.57 -1.23,1.11 -0.06,0.2 -0.06,0.4 -0.05,0.61 0.01,0.2 0.05,0.42 0.12,0.61 l 0.25,0.12 c -0.03,0.14 0.01,0.33 0.12,0.43 0.06,0.06 0.14,0.09 0.22,0.1 0.08,0.01 0.17,0.02 0.25,0 0.17,-0.05 0.28,-0.21 0.3,-0.38 0.02,-0.14 0,-0.29 -0.11,-0.38 -0.24,-0.21 -0.74,-0.11 -0.78,0.23 h 0 l -0.25,-0.12 c 0.05,-0.22 0.08,-0.44 0.23,-0.61 0.27,-0.3 0.75,-0.12 0.94,0.18 0.19,0.28 0.2,0.66 0.14,0.99 -0.03,0.16 -0.08,0.33 -0.21,0.43 -0.14,0.12 -0.32,0.14 -0.49,0.14 -0.11,0 -0.21,-0.03 -0.32,-0.08 -0.15,-0.09 -0.27,-0.24 -0.36,-0.4 -0.13,-0.26 -0.19,-0.55 -0.22,-0.84 -0.02,-0.17 -0.02,-0.34 -0.02,-0.52 0,-0.53 0.08,-1.05 0.37,-1.5 0.1,-0.16 0.23,-0.29 0.37,-0.42 0.11,-0.11 0.25,-0.2 0.4,-0.28 0.32,-0.16 0.68,-0.24 1.04,-0.25 0.29,-0.03 0.57,-0.01 0.86,0.04 0.52,0.12 1,0.42 1.32,0.84 0.35,0.48 0.47,1.06 0.49,1.65 0.02,0.56 -0.05,1.18 -0.47,1.6 -0.09,0.09 -0.21,0.14 -0.33,0.17 -0.27,0.06 -0.6,0 -0.78,-0.22 -0.14,-0.16 -0.22,-0.42 -0.22,-0.63 0.01,-0.09 0.03,-0.18 0.06,-0.26 0.03,-0.1 0.07,-0.2 0.15,-0.29 0.07,-0.06 0.17,-0.11 0.26,-0.14 z"
         inkscape:connector-curvature="0"
         style="fill:#000000;stroke-width:0" /><path
         id="path10799"
         d="m 242.73,711.35 v -0.64 h 1.78 0.53 c 0.1,0 0.21,0.01 0.31,0 0.41,-0.04 0.8,-0.18 1.13,-0.4 0.45,-0.28 0.83,-0.72 0.91,-1.26 0.02,-0.12 0.03,-0.26 0.01,-0.38 -0.08,-0.48 -0.53,-0.76 -0.99,-0.8 -0.18,-0.02 -0.37,0 -0.54,0.09 -0.21,0.11 -0.36,0.29 -0.48,0.5 -0.05,0.09 -0.09,0.2 -0.14,0.29 -0.1,-0.16 -0.2,-0.33 -0.34,-0.47 -0.35,-0.34 -0.88,-0.51 -1.36,-0.37 -0.28,0.07 -0.58,0.24 -0.63,0.55 -0.01,0.05 -0.01,0.11 0,0.15 0.04,0.33 0.35,0.5 0.66,0.5 0.17,0 0.34,-0.05 0.45,-0.19 0.03,-0.04 0.07,-0.09 0.07,-0.14 0,-0.04 -0.02,-0.08 -0.03,-0.11 -0.04,-0.07 -0.09,-0.14 -0.14,-0.2 -0.05,-0.04 -0.13,-0.09 -0.14,-0.15 -0.01,-0.03 0,-0.05 0,-0.08 0.19,0 0.37,0.07 0.5,0.23 0.07,0.1 0.09,0.21 0.09,0.34 0,0.2 -0.04,0.4 -0.23,0.52 -0.27,0.18 -0.69,0.2 -0.98,0.03 -0.16,-0.1 -0.29,-0.25 -0.36,-0.43 -0.06,-0.15 -0.08,-0.31 -0.08,-0.46 0,-0.37 0.1,-0.77 0.39,-1.03 0.27,-0.24 0.65,-0.32 1,-0.28 0.24,0.02 0.47,0.09 0.67,0.24 0.23,0.18 0.37,0.45 0.44,0.73 h 0.01 c 0.02,-0.12 0.08,-0.23 0.13,-0.33 0.09,-0.16 0.21,-0.31 0.36,-0.42 0.45,-0.33 1.11,-0.29 1.55,0.04 0.4,0.3 0.53,0.8 0.51,1.27 -0.01,0.24 -0.05,0.47 -0.15,0.69 -0.14,0.3 -0.36,0.55 -0.61,0.76 -0.2,0.15 -0.42,0.28 -0.65,0.4 -0.12,0.06 -0.26,0.13 -0.38,0.16 v 0.01 h 0.38 v 0.64 z"
         inkscape:connector-curvature="0"
         style="fill:#000000;stroke-width:0" /><path
         id="path10801"
         d="m 247.18,712.98 0.03,-0.03 0.03,-0.03 0.03,-0.03 0.01,-0.02 0.02,-0.01 0.01,-0.02 0.01,-0.02 0.02,-0.01 0.01,-0.02 0.01,-0.01 0.01,-0.02 0.02,-0.02 0.01,-0.01 c 0.18,-0.24 0.33,-0.63 0.19,-0.92 -0.06,-0.1 -0.14,-0.17 -0.23,-0.26 -0.08,-0.06 -0.16,-0.13 -0.26,-0.16 -0.12,-0.05 -0.25,-0.04 -0.37,-0.04 h -0.56 v -0.64 h 0.48 c 0.14,0 0.28,0 0.42,0.02 0.25,0.05 0.49,0.17 0.67,0.35 0.22,0.24 0.36,0.58 0.31,0.92 -0.01,0.17 -0.09,0.34 -0.17,0.49 -0.08,0.14 -0.2,0.29 -0.34,0.38 -0.1,0.06 -0.24,0.09 -0.36,0.11 z"
         inkscape:connector-curvature="0"
         style="fill:#000000;stroke-width:0" /><path
         id="path10803"
         d="m 248.89,711.35 v -0.64 h 1.4 c 0.21,0 0.44,0.01 0.64,0 0.38,-0.03 0.73,-0.17 1.02,-0.41 0.32,-0.26 0.58,-0.62 0.67,-1.03 0.05,-0.2 0.04,-0.43 0.01,-0.63 -0.06,-0.32 -0.21,-0.63 -0.54,-0.73 -0.29,-0.1 -0.6,-0.04 -0.83,0.16 -0.08,0.08 -0.15,0.17 -0.21,0.27 -0.09,0.17 -0.14,0.34 -0.21,0.52 -0.14,0.3 -0.35,0.58 -0.68,0.67 -0.1,0.03 -0.2,0.04 -0.3,0.04 -0.12,0 -0.24,-0.03 -0.35,-0.08 -0.1,-0.05 -0.18,-0.11 -0.26,-0.18 -0.08,-0.07 -0.16,-0.15 -0.21,-0.24 -0.17,-0.27 -0.21,-0.61 -0.16,-0.93 0.01,-0.09 0.03,-0.18 0.07,-0.27 0.06,-0.21 0.14,-0.43 0.3,-0.57 0.14,-0.12 0.3,-0.14 0.47,-0.18 0.06,-0.01 0.12,-0.03 0.19,-0.03 0.08,0 0.16,0.02 0.24,0.05 -0.03,0.2 -0.3,0.22 -0.46,0.3 -0.18,0.09 -0.37,0.22 -0.5,0.38 -0.06,0.07 -0.12,0.16 -0.12,0.26 0,0.1 0.03,0.21 0.09,0.29 0.05,0.08 0.12,0.14 0.19,0.2 0.32,0.27 0.88,0.4 1.24,0.11 0.16,-0.13 0.28,-0.3 0.37,-0.49 0.05,-0.12 0.08,-0.24 0.12,-0.36 0.1,-0.23 0.24,-0.44 0.46,-0.57 0.06,-0.04 0.13,-0.06 0.2,-0.08 0.09,-0.02 0.19,-0.02 0.28,-0.02 0.08,0 0.16,0.01 0.24,0.03 0.53,0.16 0.7,0.78 0.75,1.27 0.01,0.2 0.01,0.4 -0.02,0.59 -0.11,0.52 -0.41,0.97 -0.81,1.29 -0.17,0.14 -0.37,0.3 -0.58,0.37 v 0.01 h 0.05 v 0.63 z"
         inkscape:connector-curvature="0"
         style="fill:#000000;stroke-width:0" /><path
         id="path10805"
         d="m 252.41,712.98 0.03,-0.03 0.03,-0.03 0.03,-0.03 0.02,-0.02 0.01,-0.01 0.02,-0.02 0.01,-0.02 0.01,-0.01 0.02,-0.02 0.01,-0.01 0.01,-0.02 0.01,-0.02 0.01,-0.01 c 0.18,-0.24 0.33,-0.63 0.19,-0.92 -0.06,-0.1 -0.14,-0.17 -0.23,-0.26 -0.08,-0.06 -0.16,-0.13 -0.25,-0.16 -0.12,-0.05 -0.25,-0.04 -0.37,-0.04 h -0.56 v -0.64 h 0.48 c 0.14,0 0.28,0 0.41,0.02 0.25,0.05 0.49,0.17 0.67,0.35 0.23,0.24 0.37,0.58 0.32,0.92 -0.02,0.17 -0.09,0.34 -0.18,0.49 -0.08,0.14 -0.2,0.29 -0.34,0.38 -0.1,0.06 -0.24,0.09 -0.36,0.11 z"
         inkscape:connector-curvature="0"
         style="fill:#000000;stroke-width:0" /><path
         id="path10807"
         d="m 254.09,711.35 v -0.64 h 1.69 0.55 c 0.11,0 0.22,0.01 0.32,-0.01 0.19,-0.03 0.41,-0.15 0.49,-0.33 0.04,-0.1 0.04,-0.2 0.04,-0.3 l -0.04,-0.18 c -0.11,-0.37 -0.51,-0.55 -0.86,-0.58 -0.18,-0.02 -0.38,0 -0.52,0.12 -0.14,0.11 -0.12,0.3 0.01,0.41 0.1,0.1 0.25,0.13 0.38,0.16 0.13,0.02 0.27,0.02 0.4,0.02 0.21,0 0.39,-0.09 0.59,-0.13 h 0 l 0.04,0.18 c -0.23,0.09 -0.48,0.11 -0.74,0.11 -0.31,0 -0.62,-0.02 -0.88,-0.2 -0.26,-0.18 -0.36,-0.64 -0.14,-0.89 0.15,-0.16 0.39,-0.21 0.6,-0.23 0.4,-0.04 0.78,0.09 1.09,0.33 0.16,0.12 0.29,0.28 0.36,0.47 0.13,-0.11 0.25,-0.24 0.32,-0.39 0.11,-0.24 0.07,-0.53 -0.07,-0.73 -0.09,-0.14 -0.23,-0.25 -0.37,-0.34 -0.15,-0.09 -0.31,-0.18 -0.49,-0.23 -0.14,-0.05 -0.28,-0.08 -0.43,-0.09 -0.16,-0.02 -0.31,-0.03 -0.47,-0.01 -0.53,0.04 -1.11,0.2 -1.41,0.68 -0.06,0.07 -0.09,0.17 -0.12,0.26 -0.04,0.13 -0.06,0.27 -0.06,0.4 -0.03,0 -0.07,0 -0.1,-0.02 -0.04,-0.02 -0.06,-0.08 -0.08,-0.12 -0.04,-0.12 -0.08,-0.23 -0.08,-0.36 -0.01,-0.48 0.28,-0.88 0.67,-1.15 0.75,-0.52 1.87,-0.54 2.65,-0.07 0.43,0.25 0.76,0.64 0.79,1.16 0.01,0.07 0.01,0.16 -0.01,0.24 -0.04,0.27 -0.18,0.53 -0.37,0.73 -0.06,0.06 -0.12,0.12 -0.19,0.17 -0.04,0.03 -0.09,0.06 -0.11,0.1 -0.02,0.04 -0.02,0.07 -0.02,0.11 0,0.05 -0.01,0.09 -0.02,0.15 -0.03,0.13 -0.1,0.27 -0.17,0.39 -0.09,0.1 -0.18,0.19 -0.27,0.26 -0.05,0.03 -0.15,0.05 -0.18,0.11 -0.03,0.03 -0.02,0.09 -0.02,0.13 v 0.31 z"
         inkscape:connector-curvature="0"
         style="fill:#000000;stroke-width:0" /><path
         id="path10809"
         d="m 257.57,712.98 0.03,-0.03 0.03,-0.03 0.03,-0.03 0.01,-0.02 0.02,-0.01 0.01,-0.02 0.01,-0.02 0.02,-0.01 0.01,-0.02 0.01,-0.01 0.02,-0.02 0.01,-0.02 0.01,-0.01 c 0.18,-0.24 0.33,-0.63 0.19,-0.92 -0.06,-0.1 -0.14,-0.17 -0.23,-0.26 -0.08,-0.06 -0.16,-0.13 -0.26,-0.16 -0.12,-0.05 -0.25,-0.04 -0.37,-0.04 h -0.55 v -0.64 h 0.47 c 0.14,0 0.28,0 0.42,0.02 0.25,0.05 0.49,0.17 0.67,0.35 0.23,0.24 0.37,0.58 0.32,0.92 -0.02,0.17 -0.09,0.34 -0.18,0.49 -0.08,0.14 -0.2,0.29 -0.34,0.38 -0.1,0.06 -0.24,0.09 -0.36,0.11 z"
         inkscape:connector-curvature="0"
         style="fill:#000000;stroke-width:0" /><path
         id="path10811"
         d="m 261.97,711.35 v -0.64 h 1.21 c 0.14,0 0.36,0.03 0.43,-0.13 0.08,-0.19 -0.14,-0.35 -0.3,-0.38 -0.15,-0.04 -0.32,-0.02 -0.48,-0.02 h -0.86 v -0.61 h 0.91 v -0.01 l 0.36,-0.05 c 0.52,0.2 1.2,-0.12 1.29,-0.69 0.02,-0.07 0.01,-0.16 0,-0.23 h 0 c -0.01,-0.07 -0.03,-0.15 -0.07,-0.23 -0.28,-0.59 -1.17,-0.66 -1.58,-0.18 -0.08,0.09 -0.13,0.19 -0.16,0.3 -0.02,0.1 -0.02,0.19 -0.01,0.29 0.05,0.31 0.23,0.62 0.53,0.74 l -0.36,0.05 c -0.13,-0.07 -0.24,-0.19 -0.33,-0.3 -0.35,-0.44 -0.42,-1.09 -0.1,-1.56 0.29,-0.4 0.74,-0.56 1.22,-0.54 0.53,0.02 1.05,0.34 1.25,0.85 0.06,0.15 0.08,0.3 0.08,0.46 0,0.12 -0.02,0.22 -0.05,0.33 -0.05,0.16 -0.14,0.31 -0.25,0.44 -0.1,0.12 -0.22,0.25 -0.35,0.32 v 0.01 h 0.84 v 0.61 h -1.4 c 0.1,0.15 0.13,0.34 0.08,0.51 -0.01,0.06 -0.06,0.11 -0.07,0.17 -0.01,0.06 0,0.11 0,0.17 v 0.32 z"
         inkscape:connector-curvature="0"
         style="fill:#000000;stroke-width:0" /><path
         id="path10813"
         d="m 264.07,712.08 -0.01,0.01 -0.01,0 -0.01,0.01 -0.01,0.01 -0.01,0 0,0.01 -0.01,0.01 -0.01,0 -0.01,0.01 -0.01,0.01 -0.01,0.01 0,0.01 -0.01,0 -0.01,0.01 0,0.01 -0.01,0.01 0,0 c -0.13,0.21 -0.05,0.48 0.15,0.6 0.21,0.13 0.51,0.1 0.72,0 0.09,-0.04 0.18,-0.1 0.24,-0.17 0.18,-0.19 0.23,-0.49 0.13,-0.73 -0.07,-0.16 -0.19,-0.3 -0.34,-0.38 -0.26,-0.16 -0.54,-0.17 -0.84,-0.17 h -0.59 v -0.64 h 0.65 c 0.36,0 0.77,0.01 1.08,0.23 0.09,0.07 0.18,0.16 0.25,0.26 0.24,0.32 0.3,0.68 0.23,1.07 -0.05,0.22 -0.14,0.45 -0.3,0.61 -0.21,0.21 -0.51,0.29 -0.81,0.3 -0.1,0.02 -0.19,0.02 -0.28,-0.01 -0.36,-0.07 -0.63,-0.4 -0.6,-0.77 0.02,-0.23 0.16,-0.48 0.37,-0.58 0.15,-0.08 0.34,-0.08 0.5,-0.03 0.08,0.03 0.17,0.07 0.22,0.14 0.16,0.17 0.14,0.52 -0.06,0.66 -0.08,0.05 -0.17,0.06 -0.27,0.05 -0.06,0 -0.12,-0.01 -0.18,-0.04 -0.09,-0.06 -0.15,-0.17 -0.17,-0.28 -0.02,-0.08 0.01,-0.16 0.03,-0.24 z"
         inkscape:connector-curvature="0"
         style="fill:#000000;stroke-width:0" /><path
         id="path10815"
         d="m 265.67,708.83 0.02,-0.06 0.02,-0.07 0.02,-0.07 0.02,-0.07 0.02,-0.06 0.01,-0.07 0.01,-0.04 0.01,-0.03 0.01,-0.04 0.01,-0.03 c 0.04,-0.22 0.05,-0.47 0.17,-0.66 0.24,-0.37 0.65,-0.54 1.09,-0.48 0.15,0.01 0.3,0.06 0.42,0.15 0.11,0.08 0.2,0.18 0.27,0.3 0.12,0.2 0.18,0.44 0.21,0.67 0.02,0.14 0.03,0.28 0,0.41 -0.04,0.24 -0.18,0.47 -0.16,0.72 0.02,0.24 0.15,0.43 0.32,0.59 0.1,0.1 0.23,0.18 0.37,0.25 0.32,0.16 0.65,0.22 1,0.18 0.38,-0.05 0.72,-0.21 1.02,-0.43 0.19,-0.14 0.37,-0.32 0.48,-0.54 0.25,-0.51 0.09,-1.18 -0.36,-1.52 -0.22,-0.16 -0.48,-0.23 -0.75,-0.25 -0.28,-0.01 -0.59,0.05 -0.8,0.25 -0.26,0.26 -0.22,0.74 0.08,0.95 -0.01,-0.13 -0.04,-0.24 0,-0.37 0.02,-0.08 0.06,-0.15 0.11,-0.21 0.19,-0.24 0.54,-0.23 0.73,0.01 0.17,0.23 0.13,0.62 -0.11,0.79 -0.08,0.05 -0.18,0.08 -0.28,0.09 -0.2,0.01 -0.41,-0.02 -0.58,-0.14 -0.25,-0.18 -0.36,-0.48 -0.38,-0.77 -0.01,-0.14 -0.01,-0.28 0.04,-0.41 0.25,-0.65 1.08,-0.87 1.69,-0.66 0.09,0.03 0.17,0.07 0.25,0.12 0.5,0.32 0.65,0.97 0.66,1.51 0,0.11 0.01,0.21 0,0.32 -0.02,0.14 -0.04,0.28 -0.08,0.42 -0.17,0.59 -0.64,1.15 -1.21,1.4 -0.27,0.13 -0.57,0.17 -0.87,0.17 -0.2,0 -0.4,-0.02 -0.6,-0.07 -0.23,-0.06 -0.44,-0.18 -0.6,-0.34 -0.29,-0.29 -0.41,-0.7 -0.38,-1.1 0.02,-0.23 0.09,-0.46 0.12,-0.69 0.02,-0.25 -0.03,-0.49 -0.17,-0.7 -0.06,-0.08 -0.12,-0.14 -0.19,-0.2 -0.08,-0.07 -0.18,-0.13 -0.28,-0.16 -0.26,-0.09 -0.58,-0.05 -0.81,0.1 -0.07,0.05 -0.16,0.11 -0.2,0.2 -0.08,0.15 -0.07,0.32 -0.13,0.47 -0.01,0.05 -0.03,0.12 -0.08,0.15 -0.04,0.03 -0.11,0.02 -0.16,0.02 z"
         inkscape:connector-curvature="0"
         style="fill:#000000;stroke-width:0" /><path
         id="path10817"
         d="m 274.41,707.14 v 0.01 c -0.21,0.11 -0.4,0.26 -0.59,0.4 -0.57,0.42 -1.16,0.9 -1.33,1.61 -0.02,0.11 -0.04,0.23 -0.04,0.34 0,0.14 0.02,0.28 0.05,0.42 0.04,0.16 0.1,0.3 0.19,0.44 0.11,0.19 0.27,0.36 0.45,0.48 l 0.09,-0.28 c 0.09,0.38 0.57,0.49 0.88,0.33 0.14,-0.07 0.26,-0.19 0.28,-0.35 0,-0.05 0,-0.1 -0.01,-0.15 -0.04,-0.27 -0.33,-0.36 -0.57,-0.38 -0.21,-0.02 -0.44,0.04 -0.54,0.23 -0.02,0.05 -0.04,0.11 -0.04,0.16 h 0 c -0.01,0.05 -0.01,0.11 0,0.16 l -0.09,0.28 c -0.23,-0.41 -0.2,-1.07 0.27,-1.32 0.06,-0.03 0.12,-0.05 0.19,-0.06 0.09,-0.01 0.19,-0.01 0.28,0.01 0.08,0.01 0.16,0.05 0.24,0.09 0.53,0.3 0.56,1.02 0.3,1.51 -0.07,0.13 -0.16,0.25 -0.28,0.33 -0.15,0.11 -0.33,0.13 -0.51,0.13 -0.14,0 -0.29,-0.04 -0.42,-0.1 -0.41,-0.19 -0.66,-0.59 -0.8,-1.01 -0.11,-0.34 -0.14,-0.71 -0.12,-1.08 0.01,-0.25 0.05,-0.5 0.13,-0.74 0.08,-0.26 0.22,-0.52 0.38,-0.75 0.11,-0.19 0.25,-0.36 0.41,-0.52 0.06,-0.06 0.11,-0.13 0.18,-0.17 0.08,-0.05 0.22,-0.01 0.31,-0.01 0.24,0 0.47,-0.01 0.71,-0.01 z"
         inkscape:connector-curvature="0"
         style="fill:#000000;stroke-width:0" /><path
         id="path10819"
         d="m 275.57,711.35 v -0.64 h 1.4 c 0.21,0 0.44,0.01 0.65,0 0.38,-0.03 0.72,-0.17 1.01,-0.41 0.32,-0.26 0.58,-0.62 0.67,-1.03 0.05,-0.2 0.04,-0.43 0.01,-0.63 -0.06,-0.32 -0.21,-0.63 -0.54,-0.73 -0.29,-0.1 -0.6,-0.04 -0.82,0.16 -0.08,0.08 -0.15,0.17 -0.21,0.27 -0.09,0.17 -0.14,0.34 -0.22,0.52 -0.14,0.3 -0.35,0.58 -0.68,0.67 -0.1,0.03 -0.2,0.04 -0.3,0.04 -0.12,0 -0.24,-0.03 -0.34,-0.08 -0.1,-0.05 -0.18,-0.11 -0.26,-0.18 -0.08,-0.07 -0.16,-0.15 -0.22,-0.24 -0.17,-0.27 -0.21,-0.61 -0.16,-0.93 0.01,-0.09 0.04,-0.18 0.07,-0.27 0.06,-0.21 0.14,-0.43 0.31,-0.57 0.14,-0.12 0.29,-0.14 0.46,-0.18 0.06,-0.01 0.12,-0.03 0.19,-0.03 0.08,0 0.16,0.02 0.24,0.05 -0.03,0.2 -0.3,0.22 -0.46,0.3 -0.17,0.09 -0.36,0.22 -0.49,0.38 -0.06,0.07 -0.12,0.16 -0.13,0.26 0,0.1 0.04,0.21 0.1,0.29 0.05,0.08 0.12,0.14 0.19,0.2 0.31,0.27 0.87,0.4 1.23,0.11 0.16,-0.13 0.28,-0.3 0.37,-0.49 0.05,-0.12 0.08,-0.24 0.13,-0.36 0.1,-0.23 0.24,-0.44 0.46,-0.57 0.05,-0.04 0.12,-0.06 0.19,-0.08 0.09,-0.02 0.19,-0.02 0.28,-0.02 0.08,0 0.16,0.01 0.24,0.03 0.53,0.16 0.71,0.78 0.76,1.27 0.01,0.2 0.01,0.4 -0.03,0.59 -0.1,0.52 -0.41,0.97 -0.81,1.29 -0.17,0.14 -0.37,0.3 -0.58,0.37 v 0.01 h 0.05 v 0.63 z"
         inkscape:connector-curvature="0"
         style="fill:#000000;stroke-width:0" /><path
         id="path10821"
         d="m 279.1,712.98 0.03,-0.03 0.03,-0.03 0.03,-0.03 0.01,-0.02 0.01,-0.01 0.02,-0.02 0.01,-0.02 0.01,-0.01 0.02,-0.02 0.01,-0.01 0.01,-0.02 0.01,-0.02 0.02,-0.01 c 0.17,-0.24 0.32,-0.63 0.19,-0.92 -0.06,-0.1 -0.14,-0.17 -0.23,-0.26 -0.08,-0.06 -0.16,-0.13 -0.26,-0.16 -0.12,-0.05 -0.25,-0.04 -0.37,-0.04 h -0.56 v -0.64 h 0.48 c 0.14,0 0.28,0 0.42,0.02 0.25,0.05 0.49,0.17 0.66,0.35 0.23,0.24 0.37,0.58 0.32,0.92 -0.02,0.17 -0.09,0.34 -0.18,0.49 -0.08,0.14 -0.19,0.29 -0.34,0.38 -0.09,0.06 -0.23,0.09 -0.35,0.11 z"
         inkscape:connector-curvature="0"
         style="fill:#000000;stroke-width:0" /></g>    <path
       sodipodi:type="arc"
       style="fill:none;stroke:#000000;stroke-width:1;stroke-linejoin:miter;stroke-miterlimit:4;stroke-opacity:1;stroke-dasharray:none"
       id="path3064"
       sodipodi:cx="106.96224"
       sodipodi:cy="54.015751"
       sodipodi:rx="19.917919"
       sodipodi:ry="19.917919"
       d="M 92.848771,68.07041 A 19.917919,19.917919 0 0 1 87.044668,54.13291"
       transform="translate(0,928.34513)"
       sodipodi:start="2.3582824"
       sodipodi:end="3.1357105"
       sodipodi:open="true" />
  </g>
</svg>
