<?xml version="1.0" encoding="UTF-8" standalone="no"?>
<!-- Created with Inkscape (http://www.inkscape.org/) -->

<svg
   xmlns:ns0="http://www.iki.fi/pav/software/textext/"
   xmlns:dc="http://purl.org/dc/elements/1.1/"
   xmlns:cc="http://creativecommons.org/ns#"
   xmlns:rdf="http://www.w3.org/1999/02/22-rdf-syntax-ns#"
   xmlns:svg="http://www.w3.org/2000/svg"
   xmlns="http://www.w3.org/2000/svg"
   xmlns:sodipodi="http://sodipodi.sourceforge.net/DTD/sodipodi-0.dtd"
   xmlns:inkscape="http://www.inkscape.org/namespaces/inkscape"
   sodipodi:docname="1547.svg"
   inkscape:version="0.48.4 r9939"
   version="1.1"
   id="svg2"
   height="141.73228"
   width="212.59842">
  <sodipodi:namedview
     id="base"
     pagecolor="#ffffff"
     bordercolor="#666666"
     borderopacity="1.0"
     inkscape:pageopacity="0.0"
     inkscape:pageshadow="2"
     inkscape:zoom="2.5876446"
     inkscape:cx="76.470725"
     inkscape:cy="75.731491"
     inkscape:document-units="cm"
     inkscape:current-layer="layer1"
     showgrid="false"
     units="cm"
     inkscape:window-width="1366"
     inkscape:window-height="744"
     inkscape:window-x="0"
     inkscape:window-y="24"
     inkscape:window-maximized="1"
     inkscape:object-nodes="true">
    <inkscape:grid
       type="xygrid"
       id="grid2985"
       empspacing="5"
       visible="true"
       enabled="true"
       snapvisiblegridlinesonly="true" />
  </sodipodi:namedview>
  <defs
     id="defs4" />
  <metadata
     id="metadata7">
    <rdf:RDF>
      <cc:Work
         rdf:about="">
        <dc:format>image/svg+xml</dc:format>
        <dc:type
           rdf:resource="http://purl.org/dc/dcmitype/StillImage" />
        <dc:title></dc:title>
      </cc:Work>
    </rdf:RDF>
  </metadata>
  <g
     inkscape:label="Layer 1"
     inkscape:groupmode="layer"
     id="layer1"
     transform="translate(0,-910.62859)">
    <rect
       style="color:#000000;fill:none;stroke:#000000;stroke-width:1px;stroke-linecap:round;stroke-linejoin:round;stroke-miterlimit:4;stroke-opacity:1;stroke-dasharray:none;stroke-dashoffset:0;marker:none;visibility:visible;display:inline;overflow:visible;enable-background:accumulate"
       id="rect3890"
       width="30"
       height="30"
       x="942.36084"
       y="36.61837"
       transform="matrix(0,1,1,0,0,0)" />
    <rect
       style="color:#000000;fill:none;stroke:#000000;stroke-width:1px;stroke-linecap:round;stroke-linejoin:round;stroke-miterlimit:4;stroke-opacity:1;stroke-dasharray:none;stroke-dashoffset:0;marker:none;visibility:visible;display:inline;overflow:visible;enable-background:accumulate"
       id="rect3860"
       width="30"
       height="30"
       x="110"
       y="942.3609" />
    <g
       transform="translate(35,19.999989)"
       id="g3864">
      <path
         sodipodi:nodetypes="ccccc"
         style="fill:none;stroke:#000000;stroke-width:0.99212599;stroke-linecap:butt;stroke-linejoin:round;stroke-miterlimit:4;stroke-opacity:1;stroke-dasharray:none"
         d="m 65,962.36087 10,-10 30,0 -10,10 z"
         id="path3866"
         inkscape:connector-curvature="0" />
      <path
         sodipodi:nodetypes="cccccccccccccc"
         inkscape:connector-curvature="0"
         d="m 66.117191,962.36087 10,-10 m 4.242641,0 -10,10 m 4.242641,0 10,-10 m 4.24264,0 -10,10 m 4.242641,0 10,-10 m 4.242641,0 -10,10 m 4.242641,0 10.000004,-10"
         style="fill:none;stroke:#808080;stroke-width:1"
         id="path3868" />
      <path
         inkscape:connector-curvature="0"
         id="path3870"
         d="m 65,962.36087 10,-10 30,0 -10,10 z"
         style="fill:none;stroke:#000000;stroke-width:0.99212599;stroke-linecap:butt;stroke-linejoin:round;stroke-miterlimit:4;stroke-opacity:1;stroke-dasharray:none"
         sodipodi:nodetypes="ccccc" />
    </g>
    <g
       id="g3794"
       transform="translate(35,-10.00001)">
      <path
         inkscape:connector-curvature="0"
         id="path3008"
         d="m 65,962.36087 10,-10 30,0 -10,10 z"
         style="fill:none;stroke:#000000;stroke-width:0.99212599;stroke-linecap:butt;stroke-linejoin:round;stroke-miterlimit:4;stroke-opacity:1;stroke-dasharray:none"
         sodipodi:nodetypes="ccccc" />
      <path
         id="path3797"
         style="fill:none;stroke:#808080;stroke-width:1"
         d="m 66.117191,962.36087 10,-10 m 4.242641,0 -10,10 m 4.242641,0 10,-10 m 4.24264,0 -10,10 m 4.242641,0 10,-10 m 4.242641,0 -10,10 m 4.242641,0 10.000004,-10"
         inkscape:connector-curvature="0"
         sodipodi:nodetypes="cccccccccccccc" />
      <path
         sodipodi:nodetypes="ccccc"
         style="fill:none;stroke:#000000;stroke-width:0.99212599;stroke-linecap:butt;stroke-linejoin:round;stroke-miterlimit:4;stroke-opacity:1;stroke-dasharray:none"
         d="m 65,962.36087 10,-10 30,0 -10,10 z"
         id="path3862"
         inkscape:connector-curvature="0" />
    </g>
    <rect
       y="952.3609"
       x="100"
       height="30"
       width="30"
       id="rect3848"
       style="color:#000000;fill:none;stroke:#000000;stroke-width:1px;stroke-linecap:round;stroke-linejoin:round;stroke-miterlimit:4;stroke-opacity:1;stroke-dasharray:none;stroke-dashoffset:0;marker:none;visibility:visible;display:inline;overflow:visible;enable-background:accumulate" />
    <g
       id="g3874"
       transform="matrix(0,1,1,0,-895.74253,877.36087)">
      <path
         inkscape:connector-curvature="0"
         id="path3876"
         d="m 65,962.36087 10,-10 30,0 -10,10 z"
         style="fill:none;stroke:#000000;stroke-width:0.99212599;stroke-linecap:butt;stroke-linejoin:round;stroke-miterlimit:4;stroke-opacity:1;stroke-dasharray:none"
         sodipodi:nodetypes="ccccc" />
      <path
         id="path3878"
         style="fill:none;stroke:#808080;stroke-width:1"
         d="m 66.117191,962.36087 10,-10 m 4.242641,0 -10,10 m 4.242641,0 10,-10 m 4.24264,0 -10,10 m 4.242641,0 10,-10 m 4.242641,0 -10,10 m 4.242641,0 10.000004,-10"
         inkscape:connector-curvature="0"
         sodipodi:nodetypes="cccccccccccccc" />
      <path
         sodipodi:nodetypes="ccccc"
         style="fill:none;stroke:#000000;stroke-width:0.99212599;stroke-linecap:butt;stroke-linejoin:round;stroke-miterlimit:4;stroke-opacity:1;stroke-dasharray:none"
         d="m 65,962.36087 10,-10 30,0 -10,10 z"
         id="path3880"
         inkscape:connector-curvature="0" />
    </g>
    <g
       transform="matrix(0,1,1,0,-925.74252,877.36087)"
       id="g3882">
      <path
         sodipodi:nodetypes="ccccc"
         style="fill:none;stroke:#000000;stroke-width:0.99212599;stroke-linecap:butt;stroke-linejoin:round;stroke-miterlimit:4;stroke-opacity:1;stroke-dasharray:none"
         d="m 65,962.36087 10,-10 30,0 -10,10 z"
         id="path3884"
         inkscape:connector-curvature="0" />
      <path
         sodipodi:nodetypes="cccccccccccccc"
         inkscape:connector-curvature="0"
         d="m 66.117191,962.36087 10,-10 m 4.242641,0 -10,10 m 4.242641,0 10,-10 m 4.24264,0 -10,10 m 4.242641,0 10,-10 m 4.242641,0 -10,10 m 4.242641,0 10.000004,-10"
         style="fill:none;stroke:#808080;stroke-width:1"
         id="path3886" />
      <path
         inkscape:connector-curvature="0"
         id="path3888"
         d="m 65,962.36087 10,-10 30,0 -10,10 z"
         style="fill:none;stroke:#000000;stroke-width:0.99212599;stroke-linecap:butt;stroke-linejoin:round;stroke-miterlimit:4;stroke-opacity:1;stroke-dasharray:none"
         sodipodi:nodetypes="ccccc" />
    </g>
    <g
       ns0:preamble="/home/sriranga/Desktop/Rani_Figure/package.tex"
       ns0:text="$P$"
       word-spacing="normal"
       letter-spacing="normal"
       font-size-adjust="none"
       font-stretch="normal"
       font-weight="normal"
       font-variant="normal"
       font-style="normal"
       stroke-miterlimit="10.433"
       xml:space="preserve"
       transform="matrix(1.2,0,0,-1.2,-252.97153,1820.2344)"
       id="content"
       style="font-style:normal;font-variant:normal;font-weight:normal;font-stretch:normal;letter-spacing:normal;word-spacing:normal;text-anchor:start;fill:none;stroke:#000000;stroke-width:1;stroke-linecap:butt;stroke-linejoin:miter;stroke-miterlimit:10.43299961;stroke-opacity:1;stroke-dasharray:none;stroke-dashoffset:0"><path
         id="path8108"
         d="m 226.45,710.26 0.04,0.26 0.67,2.7 c 0.09,0.35 0.11,0.38 0.54,0.38 h 0.95 c 0.83,0 1.36,-0.27 1.36,-0.95 0,-0.39 -0.2,-1.24 -0.59,-1.6 -0.5,-0.45 -1.09,-0.53 -1.53,-0.53 h -1.4 l -0.04,-0.26 h 1.69 c 1.41,0 2.79,1.04 2.79,2.15 0,0.76 -0.65,1.5 -1.96,1.5 h -3.22 c -0.19,0 -0.3,0 -0.3,-0.19 0,-0.12 0.09,-0.12 0.29,-0.12 0.13,0 0.31,-0.01 0.43,-0.02 0.16,-0.02 0.22,-0.05 0.22,-0.16 0,-0.04 -0.01,-0.07 -0.04,-0.19 l -1.34,-5.33 c -0.1,-0.39 -0.11,-0.47 -0.9,-0.47 -0.17,0 -0.28,0 -0.28,-0.19 0,-0.12 0.12,-0.12 0.15,-0.12 0.28,0 0.98,0.04 1.26,0.04 0.21,0 0.43,-0.01 0.64,-0.01 0.22,0 0.44,-0.03 0.65,-0.03 0.07,0 0.2,0 0.2,0.2 0,0.11 -0.09,0.11 -0.28,0.11 -0.37,0 -0.65,0 -0.65,0.18 0,0.06 0.02,0.11 0.03,0.17 z"
         inkscape:connector-curvature="0"
         style="fill:#000000;stroke-width:0" /></g>    <g
       id="g9206"
       transform="matrix(1.2,0,0,-1.2,-200.27087,1812.0187)"
       xml:space="preserve"
       stroke-miterlimit="10.433"
       font-style="normal"
       font-variant="normal"
       font-weight="normal"
       font-stretch="normal"
       font-size-adjust="none"
       letter-spacing="normal"
       word-spacing="normal"
       ns0:text="$Q$"
       ns0:preamble="/home/sriranga/Desktop/Rani_Figure/package.tex"
       style="font-style:normal;font-variant:normal;font-weight:normal;font-stretch:normal;letter-spacing:normal;word-spacing:normal;text-anchor:start;fill:none;stroke:#000000;stroke-width:1;stroke-linecap:butt;stroke-linejoin:miter;stroke-miterlimit:10.43299961;stroke-opacity:1;stroke-dasharray:none;stroke-dashoffset:0"><path
         style="fill:#000000;stroke-width:0"
         inkscape:connector-curvature="0"
         d="m 227.79,707.18 0.14,0.06 0.15,0.07 0.14,0.07 0.14,0.08 0.14,0.08 0.14,0.09 0.14,0.1 0.13,0.1 0.13,0.11 0.13,0.11 0.13,0.12 0.12,0.12 0.12,0.13 0.11,0.13 0.11,0.13 0.11,0.14 0.1,0.14 0.1,0.15 0.09,0.15 0.09,0.16 0.08,0.15 0.08,0.16 0.07,0.17 0.06,0.16 0.06,0.17 0.05,0.17 0.04,0.17 0.04,0.18 0.03,0.17 0.02,0.18 0.01,0.18 0,0.18 c 0,1.59 -1.05,2.67 -2.53,2.67 l -0.06,-0.25 c 0.99,0 1.72,-0.78 1.72,-2.11 0,-0.99 -0.51,-3.31 -2.18,-4.25 -0.05,0.35 -0.15,1.07 -0.88,1.07 v -0.21 c 0.42,0 0.61,-0.24 0.61,-0.85 0,-0.15 -0.01,-0.16 -0.11,-0.2 -0.26,-0.11 -0.56,-0.17 -0.83,-0.17 h 0 c -0.14,0 -0.46,0 -0.46,0.42 0,0.4 0.38,0.8 0.79,0.8 v 0.21 c -0.52,0 -1.01,-0.49 -1.01,-1.01 0,-0.2 0.06,-0.31 0.06,-0.32 h 0 c -0.78,0.31 -1.12,1.09 -1.12,1.98 0,0.69 0.26,2.1 1.02,3.17 0.73,1.01 1.66,1.47 2.39,1.47 l 0.06,0.25 c -2.15,0 -4.34,-2.26 -4.34,-4.57 0,-1.65 1.11,-2.65 2.55,-2.65 0.24,0 0.58,0.04 0.97,0.14 -0.04,-0.61 -0.04,-0.63 -0.04,-0.76 0,-0.32 0,-1.09 0.83,-1.09 1.18,0 1.66,1.82 1.66,1.92 0,0.07 -0.07,0.1 -0.11,0.1 -0.08,0 -0.1,-0.05 -0.12,-0.11 -0.24,-0.7 -0.82,-0.95 -1.16,-0.95 -0.46,0 -0.61,0.27 -0.71,1.02 z"
         id="path9208" /></g>    <g
       style="font-style:normal;font-variant:normal;font-weight:normal;font-stretch:normal;letter-spacing:normal;word-spacing:normal;text-anchor:start;fill:none;stroke:#000000;stroke-width:1;stroke-linecap:butt;stroke-linejoin:miter;stroke-miterlimit:10.43299961;stroke-opacity:1;stroke-dasharray:none;stroke-dashoffset:0"
       ns0:preamble="/home/sriranga/Desktop/Rani_Figure/package.tex"
       ns0:text="$X$"
       word-spacing="normal"
       letter-spacing="normal"
       font-size-adjust="none"
       font-stretch="normal"
       font-weight="normal"
       font-variant="normal"
       font-style="normal"
       stroke-miterlimit="10.433"
       xml:space="preserve"
       transform="matrix(1.2,0,0,-1.2,-151.05452,1788.3372)"
       id="g31923"><path
         style="fill:#000000;stroke-width:0"
         inkscape:connector-curvature="0"
         id="path31925"
         d="m 228.26,711.21 -0.84,1.97 c -0.03,0.08 -0.05,0.12 -0.05,0.13 0,0.06 0.17,0.25 0.59,0.29 0.1,0.01 0.2,0.02 0.2,0.19 0,0.12 -0.12,0.12 -0.15,0.12 -0.41,0 -0.84,-0.03 -1.25,-0.03 -0.25,0 -0.87,0.03 -1.12,0.03 -0.06,0 -0.18,0 -0.18,-0.2 0,-0.11 0.1,-0.11 0.23,-0.11 0.6,0 0.66,-0.1 0.75,-0.32 l 1.17,-2.77 -2.1,-2.25 -0.13,-0.11 c -0.48,-0.53 -0.95,-0.69 -1.46,-0.72 -0.13,-0.01 -0.22,-0.01 -0.22,-0.2 0,-0.01 0,-0.11 0.13,-0.11 0.3,0 0.63,0.04 0.93,0.04 0.37,0 0.76,-0.04 1.12,-0.04 0.06,0 0.18,0 0.18,0.2 0,0.1 -0.1,0.11 -0.12,0.11 -0.09,0.01 -0.4,0.03 -0.4,0.31 0,0.16 0.15,0.32 0.27,0.45 l 1.01,1.07 0.9,0.97 1.01,-2.37 c 0.03,-0.11 0.04,-0.12 0.04,-0.14 0,-0.08 -0.18,-0.25 -0.57,-0.29 -0.11,-0.01 -0.2,-0.02 -0.2,-0.19 0,-0.12 0.11,-0.12 0.15,-0.12 0.28,0 0.97,0.04 1.25,0.04 0.25,0 0.86,-0.04 1.11,-0.04 0.07,0 0.19,0 0.19,0.19 0,0.12 -0.1,0.12 -0.18,0.12 -0.67,0.01 -0.69,0.04 -0.86,0.44 -0.39,0.92 -1.05,2.47 -1.28,3.07 0.67,0.7 1.72,1.88 2.04,2.15 0.29,0.24 0.66,0.48 1.26,0.51 0.13,0.01 0.22,0.01 0.22,0.2 0,0.01 0,0.11 -0.13,0.11 -0.3,0 -0.63,-0.03 -0.94,-0.03 -0.36,0 -0.74,0.03 -1.1,0.03 -0.06,0 -0.19,0 -0.19,-0.2 0,-0.07 0.05,-0.1 0.12,-0.11 0.09,-0.01 0.4,-0.03 0.4,-0.31 0,-0.13 -0.11,-0.26 -0.19,-0.35 z" /></g>    <g
       id="g33749"
       transform="matrix(1.2,0,0,-1.2,-155.34765,1842.0425)"
       xml:space="preserve"
       stroke-miterlimit="10.433"
       font-style="normal"
       font-variant="normal"
       font-weight="normal"
       font-stretch="normal"
       font-size-adjust="none"
       letter-spacing="normal"
       word-spacing="normal"
       ns0:text="$Y$"
       ns0:preamble="/home/sriranga/Desktop/Rani_Figure/package.tex"
       style="font-style:normal;font-variant:normal;font-weight:normal;font-stretch:normal;letter-spacing:normal;word-spacing:normal;text-anchor:start;fill:none;stroke:#000000;stroke-width:1;stroke-linecap:butt;stroke-linejoin:miter;stroke-miterlimit:10.43299961;stroke-opacity:1;stroke-dasharray:none;stroke-dashoffset:0"><path
         style="fill:#000000;stroke-width:0"
         inkscape:connector-curvature="0"
         d="m 229.37,712.78 0.14,0.14 c 0.3,0.29 0.63,0.63 1.3,0.68 0.11,0.01 0.2,0.01 0.2,0.19 0,0.08 -0.05,0.12 -0.13,0.12 -0.26,0 -0.54,-0.03 -0.81,-0.03 -0.33,0 -0.68,0.03 -1,0.03 -0.06,0 -0.19,0 -0.19,-0.19 0,-0.11 0.1,-0.12 0.15,-0.12 0.07,0 0.36,-0.02 0.36,-0.23 0,-0.16 -0.23,-0.42 -0.27,-0.47 l -2.3,-2.66 -1.1,2.96 c -0.06,0.13 -0.06,0.15 -0.06,0.16 0,0.24 0.49,0.24 0.59,0.24 0.14,0 0.24,0 0.24,0.2 0,0.11 -0.12,0.11 -0.15,0.11 -0.28,0 -0.98,-0.03 -1.26,-0.03 -0.24,0 -0.86,0.03 -1.11,0.03 -0.06,0 -0.19,0 -0.19,-0.2 0,-0.11 0.1,-0.11 0.23,-0.11 0.6,0 0.64,-0.09 0.73,-0.34 l 1.22,-3.26 c 0.01,-0.03 0.04,-0.14 0.04,-0.17 0,-0.03 -0.4,-1.63 -0.45,-1.81 -0.13,-0.55 -0.14,-0.58 -0.93,-0.59 -0.19,0 -0.27,0 -0.27,-0.2 0,-0.11 0.12,-0.11 0.14,-0.11 0.27,0 0.97,0.04 1.25,0.04 0.28,0 1,-0.04 1.27,-0.04 0.07,0 0.19,0 0.19,0.2 0,0.11 -0.09,0.11 -0.28,0.11 -0.02,0 -0.21,0 -0.37,0.02 -0.21,0.02 -0.27,0.04 -0.27,0.16 0,0.07 0.09,0.42 0.14,0.63 l 0.34,1.4 c 0.06,0.19 0.06,0.22 0.14,0.31 z"
         id="path33751" /></g>    <rect
       y="26.61837"
       x="952.36084"
       height="30"
       width="30"
       id="rect3872"
       style="color:#000000;fill:none;stroke:#000000;stroke-width:1px;stroke-linecap:round;stroke-linejoin:round;stroke-miterlimit:4;stroke-opacity:1;stroke-dasharray:none;stroke-dashoffset:0;marker:none;visibility:visible;display:inline;overflow:visible;enable-background:accumulate"
       transform="matrix(0,1,1,0,0,0)" />
  </g>
</svg>
