<?xml version="1.0" encoding="UTF-8" standalone="no"?>
<!-- Created with Inkscape (http://www.inkscape.org/) -->

<svg
   xmlns:ns0="http://www.iki.fi/pav/software/textext/"
   xmlns:dc="http://purl.org/dc/elements/1.1/"
   xmlns:cc="http://creativecommons.org/ns#"
   xmlns:rdf="http://www.w3.org/1999/02/22-rdf-syntax-ns#"
   xmlns:svg="http://www.w3.org/2000/svg"
   xmlns="http://www.w3.org/2000/svg"
   xmlns:xlink="http://www.w3.org/1999/xlink"
   xmlns:sodipodi="http://sodipodi.sourceforge.net/DTD/sodipodi-0.dtd"
   xmlns:inkscape="http://www.inkscape.org/namespaces/inkscape"
   width="212.59842"
   height="141.73228"
   id="svg2"
   version="1.1"
   inkscape:version="0.48.4 r9939"
   sodipodi:docname="14.svg">
  <sodipodi:namedview
     id="base"
     pagecolor="#ffffff"
     bordercolor="#666666"
     borderopacity="1.0"
     inkscape:pageopacity="0.0"
     inkscape:pageshadow="2"
     inkscape:zoom="2"
     inkscape:cx="38.58823"
     inkscape:cy="61.129717"
     inkscape:document-units="px"
     inkscape:current-layer="layer1"
     showgrid="false"
     units="cm"
     inkscape:window-width="1024"
     inkscape:window-height="744"
     inkscape:window-x="0"
     inkscape:window-y="24"
     inkscape:window-maximized="1">
    <inkscape:grid
       snapvisiblegridlinesonly="true"
       enabled="true"
       visible="true"
       empspacing="5"
       id="grid2985"
       type="xygrid" />
  </sodipodi:namedview>
  <defs
     id="defs4">
    <marker
       inkscape:stockid="Arrow1Mend"
       orient="auto"
       refY="0.0"
       refX="0.0"
       id="Arrow1Mend"
       style="overflow:visible;">
      <path
         id="path4470"
         d="M 0.0,0.0 L 5.0,-5.0 L -12.5,0.0 L 5.0,5.0 L 0.0,0.0 z "
         style="fill-rule:evenodd;stroke:#000000;stroke-width:1.0pt;"
         transform="scale(0.4) rotate(180) translate(10,0)" />
    </marker>
    <marker
       inkscape:stockid="DotM"
       orient="auto"
       refY="0"
       refX="0"
       id="DotM"
       style="overflow:visible">
      <path
         id="path3936"
         d="m -2.5,-1 c 0,2.76 -2.24,5 -5,5 -2.76,0 -5,-2.24 -5,-5 0,-2.76 2.24,-5 5,-5 2.76,0 5,2.24 5,5 z"
         style="fill-rule:evenodd;stroke:#000000;stroke-width:1pt"
         transform="matrix(0.4,0,0,0.4,2.96,0.4)"
         inkscape:connector-curvature="0" />
    </marker>
  </defs>
  <metadata
     id="metadata7">
    <rdf:RDF>
      <cc:Work
         rdf:about="">
        <dc:format>image/svg+xml</dc:format>
        <dc:type
           rdf:resource="http://purl.org/dc/dcmitype/StillImage" />
        <dc:title></dc:title>
      </cc:Work>
    </rdf:RDF>
  </metadata>
  <g
     transform="translate(0,-910.62859)"
     id="layer1"
     inkscape:groupmode="layer"
     inkscape:label="Layer 1">
    <g
       ns0:text="$A$"
       ns0:preamble=""
       transform="translate(-165.3949,900.17628)"
       id="g3049">
      <defs
         id="defs3051">
        <g
           id="g3053">
          <symbol
             overflow="visible"
             id="textext-ee65654d-0"
             style="overflow:visible">
            <path
               style="stroke:none"
               d=""
               id="path3056"
               inkscape:connector-curvature="0" />
          </symbol>
          <symbol
             overflow="visible"
             id="textext-ee65654d-1"
             style="overflow:visible">
            <path
               style="stroke:none"
               d="M 1.78125,-1.140625 C 1.390625,-0.484375 1,-0.34375 0.5625,-0.3125 0.4375,-0.296875 0.34375,-0.296875 0.34375,-0.109375 0.34375,-0.046875 0.40625,0 0.484375,0 0.75,0 1.0625,-0.03125 1.328125,-0.03125 c 0.34375,0 0.6875,0.03125 1,0.03125 0.0625,0 0.1875,0 0.1875,-0.1875 0,-0.109375 -0.078125,-0.125 -0.15625,-0.125 -0.21875,-0.015625 -0.46875,-0.09375 -0.46875,-0.34375 0,-0.125 0.0625,-0.234375 0.140625,-0.375 l 0.765625,-1.265625 2.5,0 c 0.015625,0.203125 0.15625,1.5625 0.15625,1.65625 0,0.296875 -0.515625,0.328125 -0.71875,0.328125 C 4.59375,-0.3125 4.5,-0.3125 4.5,-0.109375 4.5,0 4.609375,0 4.640625,0 5.046875,0 5.46875,-0.03125 5.875,-0.03125 6.125,-0.03125 6.765625,0 7.015625,0 7.0625,0 7.1875,0 7.1875,-0.203125 7.1875,-0.3125 7.09375,-0.3125 6.953125,-0.3125 6.34375,-0.3125 6.34375,-0.375 6.3125,-0.671875 l -0.609375,-6.21875 c -0.015625,-0.203125 -0.015625,-0.25 -0.1875,-0.25 -0.15625,0 -0.203125,0.078125 -0.265625,0.171875 z M 2.984375,-2.609375 4.9375,-5.90625 5.265625,-2.609375 z m 0,0"
               id="path3059"
               inkscape:connector-curvature="0" />
          </symbol>
        </g>
      </defs>
      <g
         id="textext-ee65654d-2">
        <g
           style="fill:#000000;fill-opacity:1"
           id="g3062">
          <use
             xlink:href="#textext-ee65654d-1"
             x="223.43201"
             y="134.765"
             id="use3064"
             width="212.59842"
             height="141.73228" />
        </g>
      </g>
    </g>
    <g
       id="g3125"
       transform="translate(-89.88344,900.85952)"
       ns0:preamble=""
       ns0:text="$B$">
      <defs
         id="defs3127">
        <g
           id="g3129">
          <symbol
             id="textext-45618403-0"
             overflow="visible"
             style="overflow:visible">
            <path
               id="path3132"
               d=""
               style="stroke:none"
               inkscape:connector-curvature="0" />
          </symbol>
          <symbol
             id="textext-45618403-1"
             overflow="visible"
             style="overflow:visible">
            <path
               id="path3135"
               d="M 1.59375,-0.78125 C 1.5,-0.390625 1.46875,-0.3125 0.6875,-0.3125 c -0.171875,0 -0.265625,0 -0.265625,0.203125 C 0.421875,0 0.515625,0 0.6875,0 L 4.25,0 C 5.828125,0 7,-1.171875 7,-2.15625 7,-2.875 6.421875,-3.453125 5.453125,-3.5625 6.484375,-3.75 7.53125,-4.484375 7.53125,-5.4375 c 0,-0.734375 -0.65625,-1.375 -1.84375,-1.375 l -3.359375,0 c -0.1875,0 -0.28125,0 -0.28125,0.203125 0,0.109375 0.09375,0.109375 0.28125,0.109375 0.015625,0 0.203125,0 0.375,0.015625 0.171875,0.03125 0.265625,0.03125 0.265625,0.171875 0,0.03125 -0.015625,0.0625 -0.03125,0.1875 z m 1.5,-2.875 0.625,-2.46875 C 3.8125,-6.46875 3.828125,-6.5 4.25,-6.5 l 1.296875,0 c 0.875,0 1.078125,0.59375 1.078125,1.03125 0,0.875 -0.859375,1.8125 -2.0625,1.8125 z m -0.4375,3.34375 c -0.140625,0 -0.15625,0 -0.21875,0 -0.109375,-0.015625 -0.140625,-0.03125 -0.140625,-0.109375 0,-0.03125 0,-0.046875 0.0625,-0.21875 l 0.6875,-2.78125 1.875,0 c 0.953125,0 1.15625,0.734375 1.15625,1.15625 C 6.078125,-1.28125 5.1875,-0.3125 4,-0.3125 z m 0,0"
               style="stroke:none"
               inkscape:connector-curvature="0" />
          </symbol>
        </g>
      </defs>
      <g
         id="textext-45618403-2">
        <g
           id="g3138"
           style="fill:#000000;fill-opacity:1">
          <use
             id="use3140"
             y="134.765"
             x="223.43201"
             xlink:href="#textext-45618403-1"
             width="212.59842"
             height="141.73228" />
        </g>
      </g>
    </g>
    <path
       sodipodi:type="arc"
       style="fill:none;stroke:#000000;stroke-width:1.25;stroke-miterlimit:4;stroke-opacity:1;stroke-dasharray:none;stroke-dashoffset:0"
       id="path4449"
       sodipodi:cx="85"
       sodipodi:cy="79.857285"
       sodipodi:rx="21"
       sodipodi:ry="33.125"
       d="m 106,79.857285 c 0,18.294432 -9.40202,33.124995 -21,33.124995 -11.59798,0 -21,-14.830563 -21,-33.124995 0,-18.294433 9.40202,-33.125 21,-33.125 11.59798,0 21,14.830567 21,33.125 z"
       transform="translate(-20,910.62859)" />
    <path
       transform="translate(52,910.62859)"
       d="m 106,79.857285 c 0,18.294432 -9.40202,33.124995 -21,33.124995 -11.59798,0 -21,-14.830563 -21,-33.124995 0,-18.294433 9.40202,-33.125 21,-33.125 11.59798,0 21,14.830567 21,33.125 z"
       sodipodi:ry="33.125"
       sodipodi:rx="21"
       sodipodi:cy="79.857285"
       sodipodi:cx="85"
       id="path4451"
       style="fill:none;stroke:#000000;stroke-width:1.25;stroke-miterlimit:4;stroke-opacity:1;stroke-dasharray:none;stroke-dashoffset:0"
       sodipodi:type="arc" />
    <path
       style="fill:none;stroke:#000000;stroke-width:1px;stroke-linecap:butt;stroke-linejoin:miter;stroke-opacity:1;marker-end:url(#Arrow1Mend)"
       d="m 69.175143,979.17533 62.932497,0"
       id="path4453"
       inkscape:connector-curvature="0"
       sodipodi:nodetypes="cc" />
    <path
       sodipodi:nodetypes="cc"
       inkscape:connector-curvature="0"
       id="path4903"
       d="m 69.175143,991.17533 62.932497,0"
       style="fill:none;stroke:#000000;stroke-width:1px;stroke-linecap:butt;stroke-linejoin:miter;stroke-opacity:1;marker-end:url(#Arrow1Mend)" />
    <path
       style="fill:none;stroke:#000000;stroke-width:1px;stroke-linecap:butt;stroke-linejoin:miter;stroke-opacity:1;marker-end:url(#Arrow1Mend)"
       d="m 69.175143,1003.1752 62.932497,0"
       id="path4905"
       inkscape:connector-curvature="0"
       sodipodi:nodetypes="cc" />
    <text
       xml:space="preserve"
       style="font-size:9px;font-style:normal;font-variant:normal;font-weight:500;font-stretch:normal;line-height:125%;letter-spacing:0px;word-spacing:0px;fill:#000000;fill-opacity:1;stroke:none;font-family:aakar;-inkscape-font-specification:aakar Medium"
       x="136.11806"
       y="982.00372"
       id="text4907"
       sodipodi:linespacing="125%"><tspan
         sodipodi:role="line"
         id="tspan4909"
         x="136.11806"
         y="982.00372">1</tspan></text>
    <text
       xml:space="preserve"
       style="font-size:9px;font-style:normal;font-variant:normal;font-weight:500;font-stretch:normal;line-height:125%;letter-spacing:0px;word-spacing:0px;fill:#000000;fill-opacity:1;stroke:none;font-family:aakar;-inkscape-font-specification:aakar Medium"
       x="136.4716"
       y="993.67102"
       id="text4911"
       sodipodi:linespacing="125%"><tspan
         sodipodi:role="line"
         id="tspan4913"
         x="136.4716"
         y="993.67102">2</tspan></text>
    <text
       xml:space="preserve"
       style="font-size:9px;font-style:normal;font-variant:normal;font-weight:500;font-stretch:normal;line-height:125%;letter-spacing:0px;word-spacing:0px;fill:#000000;fill-opacity:1;stroke:none;font-family:aakar;-inkscape-font-specification:aakar Medium"
       x="136.47159"
       y="1005.6918"
       id="text4915"
       sodipodi:linespacing="125%"><tspan
         sodipodi:role="line"
         id="tspan4917"
         x="136.47159"
         y="1005.6918">3</tspan></text>
    <path
       style="fill:none;stroke:#000000;stroke-width:1.25;stroke-linecap:butt;stroke-linejoin:miter;stroke-miterlimit:4;stroke-opacity:1;stroke-dasharray:none;marker-mid:url(#Arrow1Mend)"
       d="M 64.250001,46.482284 C 75.522356,40.308854 87.43967,35.64033 101.50605,35.986296 111.94801,36.243118 123.57423,39.263225 137,46.482284"
       id="path4919"
       inkscape:connector-curvature="0"
       transform="translate(0,910.62859)"
       sodipodi:nodetypes="csc" />
    <g
       ns0:text="$a$"
       ns0:preamble=""
       transform="translate(-161.8949,846.42628)"
       id="g5167">
      <defs
         id="defs5169">
        <g
           id="g5171">
          <symbol
             style="overflow:visible"
             overflow="visible"
             id="textext-b79f6a5e-0">
            <path
               inkscape:connector-curvature="0"
               style="stroke:none"
               d=""
               id="path5174" />
          </symbol>
          <symbol
             style="overflow:visible"
             overflow="visible"
             id="textext-b79f6a5e-1">
            <path
               inkscape:connector-curvature="0"
               style="stroke:none"
               d="M 3.71875,-3.765625 C 3.53125,-4.140625 3.25,-4.40625 2.796875,-4.40625 c -1.15625,0 -2.390625,1.46875 -2.390625,2.921875 0,0.9375 0.546875,1.59375 1.3125,1.59375 0.203125,0 0.703125,-0.046875 1.296875,-0.75 0.078125,0.421875 0.4375,0.75 0.90625,0.75 0.359375,0 0.578125,-0.234375 0.75,-0.546875 0.15625,-0.359375 0.296875,-0.96875 0.296875,-0.984375 0,-0.109375 -0.09375,-0.109375 -0.125,-0.109375 -0.09375,0 -0.109375,0.046875 -0.140625,0.1875 -0.171875,0.640625 -0.34375,1.234375 -0.75,1.234375 -0.28125,0 -0.296875,-0.265625 -0.296875,-0.453125 0,-0.21875 0.015625,-0.3125 0.125,-0.75 C 3.890625,-1.71875 3.90625,-1.828125 4,-2.203125 L 4.359375,-3.59375 c 0.0625,-0.28125 0.0625,-0.296875 0.0625,-0.34375 0,-0.171875 -0.109375,-0.265625 -0.28125,-0.265625 -0.25,0 -0.390625,0.21875 -0.421875,0.4375 z M 3.078125,-1.1875 C 3.015625,-1 3.015625,-0.984375 2.875,-0.8125 2.4375,-0.265625 2.03125,-0.109375 1.75,-0.109375 c -0.5,0 -0.640625,-0.546875 -0.640625,-0.9375 0,-0.5 0.3125,-1.71875 0.546875,-2.1875 0.3125,-0.578125 0.75,-0.953125 1.15625,-0.953125 0.640625,0 0.78125,0.8125 0.78125,0.875 0,0.0625 -0.015625,0.125 -0.03125,0.171875 z m 0,0"
               id="path5177" />
          </symbol>
        </g>
      </defs>
      <g
         id="textext-b79f6a5e-2">
        <g
           style="fill:#000000;fill-opacity:1"
           id="g5180">
          <use
             height="141.73228"
             width="212.59842"
             xlink:href="#textext-b79f6a5e-1"
             x="223.43201"
             y="134.765"
             id="use5182" />
        </g>
      </g>
    </g>
    <g
       id="g5306"
       transform="translate(-161.8949,859.17628)"
       ns0:preamble=""
       ns0:text="$b$">
      <defs
         id="defs5308">
        <g
           id="g5310">
          <symbol
             style="overflow:visible"
             id="textext-4737a377-0"
             overflow="visible">
            <path
               inkscape:connector-curvature="0"
               id="path5313"
               d=""
               style="stroke:none" />
          </symbol>
          <symbol
             style="overflow:visible"
             id="textext-4737a377-1"
             overflow="visible">
            <path
               inkscape:connector-curvature="0"
               id="path5316"
               d="m 2.375,-6.8125 c 0,0 0,-0.109375 -0.125,-0.109375 -0.21875,0 -0.953125,0.078125 -1.21875,0.109375 -0.078125,0 -0.1875,0.015625 -0.1875,0.1875 0,0.125 0.09375,0.125 0.25,0.125 0.46875,0 0.484375,0.0625 0.484375,0.171875 0,0.0625 -0.078125,0.40625 -0.125,0.609375 l -0.828125,3.25 c -0.109375,0.5 -0.15625,0.671875 -0.15625,1.015625 0,0.9375 0.53125,1.5625 1.265625,1.5625 1.171875,0 2.40625,-1.484375 2.40625,-2.921875 0,-0.90625 -0.53125,-1.59375 -1.328125,-1.59375 -0.453125,0 -0.875,0.296875 -1.171875,0.59375 z M 1.453125,-3.046875 C 1.5,-3.265625 1.5,-3.28125 1.59375,-3.390625 2.078125,-4.03125 2.53125,-4.1875 2.796875,-4.1875 c 0.359375,0 0.625,0.296875 0.625,0.9375 0,0.59375 -0.328125,1.734375 -0.515625,2.109375 -0.328125,0.671875 -0.78125,1.03125 -1.171875,1.03125 -0.34375,0 -0.671875,-0.265625 -0.671875,-1 0,-0.203125 0,-0.390625 0.15625,-1.015625 z m 0,0"
               style="stroke:none" />
          </symbol>
        </g>
      </defs>
      <g
         id="textext-4737a377-2">
        <g
           id="g5319"
           style="fill:#000000;fill-opacity:1">
          <use
             height="141.73228"
             width="212.59842"
             id="use5321"
             y="134.765"
             x="223.43201"
             xlink:href="#textext-4737a377-1" />
        </g>
      </g>
    </g>
    <g
       ns0:text="$c$"
       ns0:preamble=""
       transform="translate(-161.8949,870.17628)"
       id="g5465">
      <defs
         id="defs5467">
        <g
           id="g5469">
          <symbol
             style="overflow:visible"
             overflow="visible"
             id="textext-3585a5bb-0">
            <path
               inkscape:connector-curvature="0"
               style="stroke:none"
               d=""
               id="path5472" />
          </symbol>
          <symbol
             style="overflow:visible"
             overflow="visible"
             id="textext-3585a5bb-1">
            <path
               inkscape:connector-curvature="0"
               style="stroke:none"
               d="m 3.953125,-3.78125 c -0.171875,0 -0.296875,0 -0.4375,0.125 -0.171875,0.15625 -0.1875,0.328125 -0.1875,0.390625 0,0.25 0.1875,0.359375 0.375,0.359375 0.28125,0 0.546875,-0.25 0.546875,-0.640625 0,-0.484375 -0.46875,-0.859375 -1.171875,-0.859375 -1.34375,0 -2.671875,1.421875 -2.671875,2.828125 0,0.90625 0.578125,1.6875 1.625,1.6875 1.421875,0 2.25,-1.0625 2.25,-1.171875 0,-0.0625 -0.046875,-0.140625 -0.109375,-0.140625 -0.0625,0 -0.078125,0.03125 -0.140625,0.109375 -0.78125,0.984375 -1.875,0.984375 -1.984375,0.984375 -0.625,0 -0.90625,-0.484375 -0.90625,-1.09375 0,-0.40625 0.203125,-1.375 0.546875,-1.984375 0.3125,-0.578125 0.859375,-1 1.40625,-1 0.328125,0 0.71875,0.125 0.859375,0.40625 z m 0,0"
               id="path5475" />
          </symbol>
        </g>
      </defs>
      <g
         id="textext-3585a5bb-2">
        <g
           style="fill:#000000;fill-opacity:1"
           id="g5478">
          <use
             height="141.73228"
             width="212.59842"
             xlink:href="#textext-3585a5bb-1"
             x="223.43201"
             y="134.765"
             id="use5480" />
        </g>
      </g>
    </g>
    <g
       id="g3142"
       transform="translate(-122.3949,806.17628)"
       ns0:preamble=""
       ns0:text="$f$">
      <defs
         id="defs3144">
        <g
           id="g3146">
          <symbol
             id="textext-2fa5c78e-0"
             overflow="visible"
             style="overflow:visible">
            <path
               id="path3149"
               d=""
               style="stroke:none"
               inkscape:connector-curvature="0" />
          </symbol>
          <symbol
             id="textext-2fa5c78e-1"
             overflow="visible"
             style="overflow:visible">
            <path
               id="path3152"
               d="m 3.65625,-3.984375 0.859375,0 c 0.203125,0 0.296875,0 0.296875,-0.203125 0,-0.109375 -0.09375,-0.109375 -0.265625,-0.109375 l -0.828125,0 0.203125,-1.140625 c 0.046875,-0.203125 0.1875,-0.90625 0.25,-1.03125 0.078125,-0.1875 0.25,-0.34375 0.46875,-0.34375 0.03125,0 0.296875,0 0.484375,0.1875 -0.4375,0.03125 -0.546875,0.390625 -0.546875,0.53125 0,0.234375 0.1875,0.359375 0.375,0.359375 C 5.21875,-5.734375 5.5,-5.96875 5.5,-6.34375 c 0,-0.453125 -0.453125,-0.6875 -0.859375,-0.6875 -0.34375,0 -0.96875,0.1875 -1.265625,1.171875 -0.0625,0.203125 -0.09375,0.3125 -0.328125,1.5625 l -0.6875,0 c -0.203125,0 -0.3125,0 -0.3125,0.1875 0,0.125 0.09375,0.125 0.28125,0.125 l 0.65625,0 -0.734375,3.9375 c -0.1875,0.96875 -0.359375,1.875 -0.875,1.875 -0.046875,0 -0.28125,0 -0.484375,-0.1875 C 1.359375,1.609375 1.453125,1.25 1.453125,1.109375 1.453125,0.875 1.265625,0.75 1.078125,0.75 0.8125,0.75 0.53125,0.984375 0.53125,1.359375 c 0,0.4375 0.4375,0.6875 0.84375,0.6875 0.546875,0 0.953125,-0.59375 1.125,-0.96875 0.328125,-0.625 0.546875,-1.828125 0.5625,-1.90625 z m 0,0"
               style="stroke:none"
               inkscape:connector-curvature="0" />
          </symbol>
        </g>
      </defs>
      <g
         id="textext-2fa5c78e-2">
        <g
           id="g3155"
           style="fill:#000000;fill-opacity:1">
          <use
             id="use3157"
             y="134.765"
             x="223.43201"
             xlink:href="#textext-2fa5c78e-1"
             width="212.59842"
             height="141.73228" />
        </g>
      </g>
    </g>
  </g>
</svg>
