<?xml version="1.0" encoding="UTF-8" standalone="no"?>
<!-- Created with Inkscape (http://www.inkscape.org/) -->

<svg
   xmlns:ns0="http://www.iki.fi/pav/software/textext/"
   xmlns:dc="http://purl.org/dc/elements/1.1/"
   xmlns:cc="http://creativecommons.org/ns#"
   xmlns:rdf="http://www.w3.org/1999/02/22-rdf-syntax-ns#"
   xmlns:svg="http://www.w3.org/2000/svg"
   xmlns="http://www.w3.org/2000/svg"
   xmlns:sodipodi="http://sodipodi.sourceforge.net/DTD/sodipodi-0.dtd"
   xmlns:inkscape="http://www.inkscape.org/namespaces/inkscape"
   width="212.59842"
   height="141.73228"
   id="svg2"
   version="1.1"
   inkscape:version="0.48.4 r9939"
   sodipodi:docname="New document 1">
  <sodipodi:namedview
     id="base"
     pagecolor="#ffffff"
     bordercolor="#666666"
     borderopacity="1.0"
     inkscape:pageopacity="0.0"
     inkscape:pageshadow="2"
     inkscape:zoom="2.9784516"
     inkscape:cx="97.522594"
     inkscape:cy="61.47492"
     inkscape:document-units="cm"
     inkscape:current-layer="layer1"
     showgrid="false"
     units="cm"
     inkscape:window-width="1366"
     inkscape:window-height="744"
     inkscape:window-x="0"
     inkscape:window-y="24"
     inkscape:window-maximized="1" />
  <defs
     id="defs4" />
  <metadata
     id="metadata7">
    <rdf:RDF>
      <cc:Work
         rdf:about="">
        <dc:format>image/svg+xml</dc:format>
        <dc:type
           rdf:resource="http://purl.org/dc/dcmitype/StillImage" />
        <dc:title></dc:title>
      </cc:Work>
    </rdf:RDF>
  </metadata>
  <g
     transform="translate(0,-910.63)"
     id="layer1"
     inkscape:groupmode="layer"
     inkscape:label="Layer 1">
    <path
       transform="translate(0,910.63)"
       d="m 108.49846,58.639656 -6.66571,20.51496 -17.451069,12.678942 -21.570705,0 -17.451067,-12.678942 -6.665714,-20.51496 6.665714,-20.51496 17.451067,-12.678942 21.570705,0 17.451069,12.678942 z"
       inkscape:randomized="0"
       inkscape:rounded="0"
       inkscape:flatsided="true"
       sodipodi:arg2="0.31415927"
       sodipodi:arg1="0"
       sodipodi:r2="33.193902"
       sodipodi:r1="34.902134"
       sodipodi:cy="58.639655"
       sodipodi:cx="73.596329"
       sodipodi:sides="10"
       id="path2985"
       style="fill:none;stroke:#000000;stroke-width:1;stroke-linecap:round;stroke-linejoin:round;stroke-miterlimit:4;stroke-opacity:1;stroke-dasharray:none;stroke-dashoffset:0"
       sodipodi:type="star" />
    <g
       style="font-style:normal;font-variant:normal;font-weight:normal;font-stretch:normal;letter-spacing:normal;word-spacing:normal;text-anchor:start;fill:none;stroke:#000000;stroke-width:1;stroke-linecap:butt;stroke-linejoin:miter;stroke-miterlimit:10.43299961;stroke-opacity:1;stroke-dasharray:none;stroke-dashoffset:0"
       id="content-9"
       transform="matrix(1.2,0,0,-1.2,-212.07201,1862.3999)"
       xml:space="preserve"
       stroke-miterlimit="10.433"
       font-style="normal"
       font-variant="normal"
       font-weight="normal"
       font-stretch="normal"
       font-size-adjust="none"
       letter-spacing="normal"
       word-spacing="normal"
       ns0:text="$A$"
       ns0:preamble="/home/sriranga/Desktop/Rani_Figure/package.tex"><path
         style="fill:#000000;stroke-width:0"
         inkscape:connector-curvature="0"
         d="m 225.21,708.27 -0.03,-0.06 -0.04,-0.06 -0.04,-0.06 -0.04,-0.05 -0.03,-0.05 -0.04,-0.04 -0.04,-0.05 -0.03,-0.04 -0.04,-0.04 -0.04,-0.04 -0.04,-0.03 -0.03,-0.03 -0.04,-0.03 -0.04,-0.03 -0.04,-0.02 -0.03,-0.03 -0.04,-0.02 -0.04,-0.02 -0.04,-0.02 -0.04,-0.02 -0.03,-0.01 -0.04,-0.01 -0.04,-0.02 -0.04,-0.01 -0.04,-0.01 -0.04,-0.01 -0.04,0 -0.04,-0.01 -0.08,-0.01 -0.08,-0.01 c -0.12,-0.01 -0.21,-0.01 -0.21,-0.2 0,-0.06 0.05,-0.11 0.13,-0.11 0.27,0 0.58,0.04 0.85,0.04 0.33,0 0.68,-0.04 1,-0.04 0.06,0 0.19,0 0.19,0.19 0,0.11 -0.09,0.12 -0.16,0.12 -0.23,0.02 -0.47,0.1 -0.47,0.35 0,0.12 0.06,0.23 0.14,0.37 l 0.76,1.27 h 2.49 l -0.03,0.31 h -2.27 l 1.96,3.28 0.31,-3.28 0.03,-0.31 c 0.03,-0.21 0.16,-1.56 0.16,-1.66 0,-0.3 -0.51,-0.33 -0.71,-0.33 -0.14,0 -0.24,0 -0.24,-0.2 0,-0.11 0.12,-0.11 0.14,-0.11 0.41,0 0.83,0.04 1.24,0.04 0.25,0 0.88,-0.04 1.13,-0.04 0.06,0 0.17,0 0.17,0.2 0,0.11 -0.09,0.11 -0.22,0.11 -0.62,0 -0.62,0.07 -0.65,0.36 l -0.61,6.21 c -0.02,0.2 -0.02,0.24 -0.19,0.24 -0.16,0 -0.19,-0.07 -0.25,-0.17 z"
         id="path4467" /></g>    <g
       style="font-style:normal;font-variant:normal;font-weight:normal;font-stretch:normal;letter-spacing:normal;word-spacing:normal;text-anchor:start;fill:none;stroke:#000000;stroke-width:1;stroke-linecap:butt;stroke-linejoin:miter;stroke-miterlimit:10.43299961;stroke-opacity:1;stroke-dasharray:none;stroke-dashoffset:0"
       ns0:preamble="/home/sriranga/Desktop/Rani_Figure/package.tex"
       ns0:text="$B$"
       word-spacing="normal"
       letter-spacing="normal"
       font-size-adjust="none"
       font-stretch="normal"
       font-weight="normal"
       font-variant="normal"
       font-style="normal"
       stroke-miterlimit="10.433"
       xml:space="preserve"
       transform="matrix(1.2,0,0,-1.2,-185.69412,1860.7539)"
       id="g4499"><path
         id="path4501"
         d="m 225.02,707.9 -0.01,-0.04 0,-0.03 -0.01,-0.03 -0.01,-0.03 -0.01,-0.03 -0.01,-0.03 -0.01,-0.02 -0.01,-0.03 -0.01,-0.02 -0.01,-0.02 -0.02,-0.02 -0.01,-0.02 -0.01,-0.02 -0.02,-0.01 -0.02,-0.02 -0.02,-0.01 -0.02,-0.01 -0.03,-0.01 -0.03,-0.01 -0.03,-0.01 -0.03,-0.01 -0.02,0 -0.01,-0.01 -0.02,0 -0.02,0 -0.02,-0.01 -0.02,0 -0.02,0 -0.03,0 -0.02,-0.01 -0.03,0 -0.02,0 -0.03,0 -0.02,0 -0.03,0 -0.03,0 -0.03,0 -0.03,-0.01 -0.03,0 -0.04,0 -0.03,0 -0.04,0 -0.03,0 c -0.17,0 -0.27,0 -0.27,-0.2 0,-0.11 0.09,-0.11 0.27,-0.11 h 3.55 c 1.57,0 2.75,1.18 2.75,2.15 0,0.72 -0.58,1.29 -1.55,1.4 1.04,0.19 2.08,0.92 2.08,1.87 0,0.73 -0.65,1.37 -1.85,1.37 l -0.14,-0.31 c 0.88,0 1.09,-0.58 1.09,-1.02 0,-0.87 -0.86,-1.82 -2.07,-1.82 h -1.45 l -0.06,-0.22 h 1.88 c 0.95,0 1.14,-0.73 1.14,-1.16 0,-0.98 -0.88,-1.95 -2.06,-1.95 h -1.35 c -0.14,0 -0.16,0 -0.22,0.01 -0.1,0.01 -0.13,0.02 -0.13,0.1 0,0.03 0,0.05 0.05,0.23 l 0.69,2.77 0.06,0.22 0.61,2.46 c 0.09,0.35 0.11,0.38 0.54,0.38 h 1.28 l 0.14,0.31 h -3.34 c -0.19,0 -0.29,0 -0.29,-0.2 0,-0.11 0.09,-0.11 0.28,-0.11 0.02,0 0.21,0 0.38,-0.02 0.18,-0.02 0.27,-0.03 0.27,-0.16 0,-0.04 -0.01,-0.07 -0.04,-0.19 z"
         inkscape:connector-curvature="0"
         style="fill:#000000;stroke-width:0" /></g>    <g
       id="g4537"
       transform="matrix(1.2,0,0,-1.2,-163.31973,1844.4203)"
       xml:space="preserve"
       stroke-miterlimit="10.433"
       font-style="normal"
       font-variant="normal"
       font-weight="normal"
       font-stretch="normal"
       font-size-adjust="none"
       letter-spacing="normal"
       word-spacing="normal"
       ns0:text="$C$"
       ns0:preamble="/home/sriranga/Desktop/Rani_Figure/package.tex"
       style="font-style:normal;font-variant:normal;font-weight:normal;font-stretch:normal;letter-spacing:normal;word-spacing:normal;text-anchor:start;fill:none;stroke:#000000;stroke-width:1;stroke-linecap:butt;stroke-linejoin:miter;stroke-miterlimit:10.43299961;stroke-opacity:1;stroke-dasharray:none;stroke-dashoffset:0"><path
         d="m 230.99,714.03 0,0 0,0.01 0,0 0,0 0,0.01 0,0 0,0 0,0.01 0,0 0,0.01 -0.01,0 0,0 0,0.01 0,0 -0.01,0.01 0,0 0,0 0,0.01 -0.01,0 0,0 -0.01,0.01 0,0 -0.01,0 0,0.01 -0.01,0 0,0 0,0 -0.01,0 0,0 0,0 -0.01,0 0,0.01 0,0 -0.01,0 0,0 0,0 -0.01,0 0,0 -0.01,0 c -0.03,0 -0.04,-0.01 -0.14,-0.12 l -0.7,-0.77 c -0.09,0.14 -0.55,0.89 -1.65,0.89 -2.22,0 -4.46,-2.2 -4.46,-4.5 0,-1.64 1.17,-2.72 2.7,-2.72 0.86,0 1.62,0.39 2.14,0.85 0.93,0.82 1.1,1.72 1.1,1.75 0,0.1 -0.1,0.1 -0.12,0.1 -0.06,0 -0.11,-0.02 -0.13,-0.1 -0.09,-0.29 -0.32,-0.99 -1,-1.57 -0.69,-0.56 -1.32,-0.73 -1.83,-0.73 -0.9,0 -1.95,0.52 -1.95,2.07 0,0.57 0.2,2.18 1.2,3.34 0.61,0.7 1.54,1.2 2.43,1.2 1.01,0 1.6,-0.77 1.6,-1.92 0,-0.39 -0.03,-0.4 -0.03,-0.5 0,-0.1 0.11,-0.1 0.15,-0.1 0.13,0 0.13,0.02 0.18,0.2 z"
         id="path4539"
         inkscape:connector-curvature="0"
         style="fill:#000000;stroke-width:0" /></g>    <g
       id="g9016"
       transform="matrix(1.2,0,0,-1.2,-156.66804,1822.2672)"
       xml:space="preserve"
       stroke-miterlimit="10.433"
       font-style="normal"
       font-variant="normal"
       font-weight="normal"
       font-stretch="normal"
       font-size-adjust="none"
       letter-spacing="normal"
       word-spacing="normal"
       ns0:text="$D$"
       ns0:preamble="/home/sriranga/Desktop/Rani_Figure/package.tex"
       style="font-style:normal;font-variant:normal;font-weight:normal;font-stretch:normal;letter-spacing:normal;word-spacing:normal;text-anchor:start;fill:none;stroke:#000000;stroke-width:1;stroke-linecap:butt;stroke-linejoin:miter;stroke-miterlimit:10.43299961;stroke-opacity:1;stroke-dasharray:none;stroke-dashoffset:0"><path
         d="m 225.01,707.9 -0.01,-0.04 0,-0.03 -0.01,-0.03 -0.01,-0.03 -0.01,-0.03 -0.01,-0.03 -0.01,-0.02 -0.01,-0.03 -0.01,-0.02 -0.01,-0.02 -0.01,-0.02 -0.02,-0.02 -0.01,-0.02 -0.02,-0.01 -0.02,-0.02 -0.02,-0.01 -0.02,-0.01 -0.03,-0.01 -0.03,-0.01 -0.03,-0.01 -0.03,-0.01 -0.02,0 -0.01,-0.01 -0.02,0 -0.02,0 -0.02,-0.01 -0.02,0 -0.02,0 -0.03,0 -0.02,-0.01 -0.02,0 -0.03,0 -0.03,0 -0.02,0 -0.03,0 -0.03,0 -0.03,0 -0.03,-0.01 -0.03,0 -0.04,0 -0.03,0 -0.03,0 -0.04,0 c -0.17,0 -0.28,0 -0.28,-0.19 0,-0.12 0.09,-0.12 0.28,-0.12 h 3.29 l -0.18,0.31 h -1.12 c -0.14,0 -0.16,0 -0.22,0.01 -0.1,0.01 -0.13,0.02 -0.13,0.1 0,0.03 0,0.05 0.05,0.23 l 1.36,5.45 c 0.09,0.35 0.11,0.38 0.54,0.38 h 1.06 c 0.98,0 1.81,-0.52 1.81,-1.84 0,-0.48 -0.2,-2.11 -1.05,-3.21 -0.29,-0.36 -1.07,-1.12 -2.3,-1.12 l 0.18,-0.31 c 2.07,0 4.03,2.1 4.03,4.28 0,1.4 -0.84,2.51 -2.34,2.51 h -3.34 c -0.19,0 -0.3,0 -0.3,-0.19 0,-0.12 0.09,-0.12 0.29,-0.12 0.13,0 0.31,-0.01 0.43,-0.02 0.16,-0.02 0.22,-0.05 0.22,-0.16 0,-0.04 -0.01,-0.07 -0.04,-0.19 z"
         id="path9018"
         inkscape:connector-curvature="0"
         style="fill:#000000;stroke-width:0" /></g>    <g
       style="font-style:normal;font-variant:normal;font-weight:normal;font-stretch:normal;letter-spacing:normal;word-spacing:normal;text-anchor:start;fill:none;stroke:#000000;stroke-width:1;stroke-linecap:butt;stroke-linejoin:miter;stroke-miterlimit:10.43299961;stroke-opacity:1;stroke-dasharray:none;stroke-dashoffset:0"
       ns0:preamble="/home/sriranga/Desktop/Rani_Figure/package.tex"
       ns0:text="$E$"
       word-spacing="normal"
       letter-spacing="normal"
       font-size-adjust="none"
       font-stretch="normal"
       font-weight="normal"
       font-variant="normal"
       font-style="normal"
       stroke-miterlimit="10.433"
       xml:space="preserve"
       transform="matrix(1.2,0,0,-1.2,-163.951,1798.8295)"
       id="g54331"><path
         id="path54333"
         d="m 230.48,709.44 0,0 0,0.01 0,0.01 0.01,0.01 0,0.01 0.01,0.01 0,0.01 0,0.01 0.01,0.01 0,0.01 0,0 0,0 0.01,0.01 0,0 0,0.01 0,0 0,0.01 0,0 0,0 0,0.01 0,0 0.01,0 0,0 0,0.01 0,0 c 0,0.01 0,0.11 -0.12,0.11 -0.09,0 -0.11,-0.06 -0.13,-0.12 -0.65,-1.47 -1.02,-2.14 -2.72,-2.14 h -1.45 c -0.14,0 -0.16,0 -0.22,0.01 -0.1,0.01 -0.13,0.02 -0.13,0.1 0,0.03 0,0.05 0.05,0.23 l 0.68,2.71 h 0.98 c 0.85,0 0.85,-0.21 0.85,-0.45 0,-0.07 0,-0.19 -0.07,-0.49 -0.02,-0.05 -0.03,-0.08 -0.03,-0.11 0,-0.05 0.04,-0.11 0.13,-0.11 0.08,0 0.11,0.05 0.15,0.2 l 0.56,2.32 c 0,0.06 -0.05,0.11 -0.12,0.11 -0.09,0 -0.11,-0.06 -0.14,-0.18 -0.2,-0.75 -0.38,-0.98 -1.3,-0.98 h -0.93 l 0.59,2.39 c 0.09,0.35 0.1,0.39 0.54,0.39 h 1.4 c 1.22,0 1.52,-0.29 1.52,-1.1 0,-0.24 0,-0.26 -0.04,-0.53 0,-0.06 -0.01,-0.13 -0.01,-0.18 0,-0.05 0.03,-0.11 0.11,-0.11 0.11,0 0.12,0.06 0.14,0.24 l 0.2,1.72 c 0.03,0.27 -0.02,0.27 -0.26,0.27 h -5.03 c -0.2,0 -0.3,0 -0.3,-0.2 0,-0.11 0.09,-0.11 0.28,-0.11 0.37,0 0.65,0 0.65,-0.18 0,-0.04 0,-0.06 -0.05,-0.23 l -1.32,-5.26 c -0.09,-0.39 -0.11,-0.47 -0.9,-0.47 -0.17,0 -0.28,0 -0.28,-0.19 0,-0.12 0.09,-0.12 0.28,-0.12 h 5.16 c 0.23,0 0.24,0.02 0.31,0.17 z"
         inkscape:connector-curvature="0"
         style="fill:#000000;stroke-width:0" /></g>    <g
       style="font-style:normal;font-variant:normal;font-weight:normal;font-stretch:normal;letter-spacing:normal;word-spacing:normal;text-anchor:start;fill:none;stroke:#000000;stroke-width:1;stroke-linecap:butt;stroke-linejoin:miter;stroke-miterlimit:10.43299961;stroke-opacity:1;stroke-dasharray:none;stroke-dashoffset:0"
       ns0:preamble="/home/sriranga/Desktop/Rani_Figure/package.tex"
       ns0:text="$F$"
       text-anchor="start"
       word-spacing="normal"
       letter-spacing="normal"
       font-size-adjust="none"
       font-stretch="normal"
       font-weight="normal"
       font-variant="normal"
       font-style="normal"
       fill-opacity="1"
       fill-rule="evenodd"
       fill="none"
       stroke-opacity="1"
       stroke-dashoffset="0"
       stroke-dasharray="none"
       stroke-miterlimit="10.433"
       stroke-linejoin="miter"
       stroke-linecap="butt"
       stroke="black"
       xml:space="preserve"
       transform="matrix(1.2,0,0,-1.2,-185.79249,1781.4988)"
       id="content"><path
         id="path3033"
         fill="black"
         stroke-width="0"
         d="M226.45,710.35 H227.41 C228.16,710.35,228.24,710.2,228.24,709.91 C228.24,709.84,228.24,709.72,228.17,709.42 C228.15,709.37,228.14,709.33,228.14,709.31 C228.14,709.23,228.2,709.19,228.26,709.19 C228.36,709.19,228.36,709.22,228.41,709.4 L228.95,711.55 C228.98,711.66,228.98,711.68,228.98,711.71 C228.98,711.73,228.96,711.82,228.86,711.82 C228.76,711.82,228.76,711.77,228.71,711.61 C228.51,710.84,228.28,710.66,227.43,710.66 H226.53 L227.16,713.18 C227.25,713.53,227.26,713.57,227.7,713.57 H229.01 C230.24,713.57,230.47,713.24,230.47,712.48 C230.47,712.25,230.47,712.21,230.44,711.94 C230.42,711.81,230.42,711.79,230.42,711.76 C230.42,711.71,230.45,711.65,230.54,711.65 C230.65,711.65,230.65,711.71,230.68,711.89 L230.87,713.61 C230.9,713.88,230.85,713.88,230.6,713.88 H225.73 C225.53,713.88,225.43,713.88,225.43,713.68 C225.43,713.57,225.52,713.57,225.71,713.57 C226.08,713.57,226.36,713.57,226.36,713.39 C226.36,713.35,226.36,713.33,226.31,713.16 L224.99,707.9 C224.9,707.51,224.88,707.43,224.09,707.43 C223.92,707.43,223.81,707.43,223.81,707.24 C223.81,707.12,223.93,707.12,223.96,707.12 C224.25,707.12,224.98,707.16,225.27,707.16 C225.6,707.16,226.43,707.12,226.76,707.12 C226.85,707.12,226.96,707.12,226.96,707.31 C226.96,707.39,226.9,707.41,226.9,707.42 C226.87,707.43,226.85,707.43,226.63,707.43 C226.41,707.43,226.36,707.43,226.11,707.45 C225.82,707.48,225.79,707.52,225.79,707.65 C225.79,707.67,225.79,707.73,225.83,707.88 Z " /></g>    <g
       id="g3073"
       transform="matrix(1.2,0,0,-1.2,-209.29583,1780.5492)"
       xml:space="preserve"
       stroke="black"
       stroke-linecap="butt"
       stroke-linejoin="miter"
       stroke-miterlimit="10.433"
       stroke-dasharray="none"
       stroke-dashoffset="0"
       stroke-opacity="1"
       fill="none"
       fill-rule="evenodd"
       fill-opacity="1"
       font-style="normal"
       font-variant="normal"
       font-weight="normal"
       font-stretch="normal"
       font-size-adjust="none"
       letter-spacing="normal"
       word-spacing="normal"
       text-anchor="start"
       ns0:text="$G$"
       ns0:preamble="/home/sriranga/Desktop/Rani_Figure/package.tex"
       style="font-style:normal;font-variant:normal;font-weight:normal;font-stretch:normal;letter-spacing:normal;word-spacing:normal;text-anchor:start;fill:none;stroke:#000000;stroke-width:1;stroke-linecap:butt;stroke-linejoin:miter;stroke-miterlimit:10.43299961;stroke-opacity:1;stroke-dasharray:none;stroke-dashoffset:0"><path
         d="M230.99,714.03 L230.99,714.03 L230.99,714.04 L230.99,714.04 L230.99,714.04 L230.99,714.05 L230.99,714.05 L230.99,714.05 L230.99,714.06 L230.99,714.06 L230.99,714.07 L230.98,714.07 L230.98,714.07 L230.98,714.08 L230.98,714.08 L230.97,714.09 L230.97,714.09 L230.97,714.09 L230.97,714.1 L230.96,714.1 L230.96,714.1 L230.95,714.11 L230.95,714.11 L230.94,714.11 L230.94,714.12 L230.93,714.12 L230.93,714.12 L230.93,714.12 L230.92,714.12 L230.92,714.12 L230.92,714.12 L230.91,714.12 L230.91,714.13 L230.91,714.13 L230.9,714.13 L230.9,714.13 L230.9,714.13 L230.89,714.13 L230.89,714.13 L230.88,714.13 C230.85,714.13,230.84,714.12,230.74,714.01 L230.04,713.24 C229.95,713.38,229.49,714.13,228.39,714.13 C226.17,714.13,223.93,711.93,223.93,709.63 C223.93,708.05,225.03,706.91,226.65,706.91 C227.08,706.91,227.53,707,227.89,707.15 C228.39,707.34,228.58,707.55,228.76,707.75 C228.84,707.5,229.1,707.14,229.2,707.14 C229.25,707.14,229.27,707.16,229.27,707.17 C229.29,707.19,229.39,707.57,229.44,707.78 L229.63,708.55 C229.67,708.71,229.72,708.88,229.76,709.05 C229.87,709.5,229.88,709.52,230.45,709.53 C230.5,709.53,230.6,709.54,230.6,709.73 C230.6,709.8,230.56,709.84,230.48,709.84 C230.25,709.84,229.66,709.81,229.43,709.81 C229.12,709.81,228.35,709.84,228.04,709.84 C227.95,709.84,227.83,709.84,227.83,709.64 C227.83,709.53,227.91,709.53,228.13,709.53 C228.14,709.53,228.43,709.53,228.65,709.51 C228.91,709.48,228.96,709.45,228.96,709.32 C228.96,709.23,228.85,708.78,228.76,708.42 C228.48,707.32,227.18,707.21,226.84,707.21 C225.88,707.21,224.84,707.78,224.84,709.3 C224.84,709.61,224.93,711.25,225.98,712.54 C226.52,713.21,227.48,713.82,228.47,713.82 C229.48,713.82,230.07,713.05,230.07,711.9 C230.07,711.51,230.04,711.5,230.04,711.4 C230.04,711.3,230.15,711.3,230.19,711.3 C230.32,711.3,230.32,711.32,230.37,711.5 Z "
         stroke-width="0"
         fill="black"
         id="path3075" /></g>    <g
       style="font-style:normal;font-variant:normal;font-weight:normal;font-stretch:normal;letter-spacing:normal;word-spacing:normal;text-anchor:start;fill:none;stroke:#000000;stroke-width:1;stroke-linecap:butt;stroke-linejoin:miter;stroke-miterlimit:10.43299961;stroke-opacity:1;stroke-dasharray:none;stroke-dashoffset:0"
       ns0:preamble="/home/sriranga/Desktop/Rani_Figure/package.tex"
       ns0:text="$H$"
       text-anchor="start"
       word-spacing="normal"
       letter-spacing="normal"
       font-size-adjust="none"
       font-stretch="normal"
       font-weight="normal"
       font-variant="normal"
       font-style="normal"
       fill-opacity="1"
       fill-rule="evenodd"
       fill="none"
       stroke-opacity="1"
       stroke-dashoffset="0"
       stroke-dasharray="none"
       stroke-miterlimit="10.433"
       stroke-linejoin="miter"
       stroke-linecap="butt"
       stroke="black"
       xml:space="preserve"
       transform="matrix(1.2,0,0,-1.2,-233.03658,1794.7937)"
       id="g3119"><path
         id="path3121"
         fill="black"
         stroke-width="0"
         d="M231.02,713.15 L231.03,713.18 L231.04,713.21 L231.05,713.24 L231.05,713.27 L231.06,713.29 L231.07,713.32 L231.08,713.34 L231.09,713.37 L231.1,713.39 L231.11,713.41 L231.12,713.43 L231.14,713.45 L231.15,713.46 L231.17,713.48 L231.18,713.49 L231.2,713.51 L231.22,713.52 L231.25,713.53 L231.27,713.54 L231.3,713.55 L231.33,713.56 L231.36,713.57 L231.38,713.57 L231.4,713.57 L231.42,713.58 L231.43,713.58 L231.45,713.58 L231.48,713.59 L231.5,713.59 L231.52,713.59 L231.54,713.59 L231.57,713.59 L231.59,713.6 L231.62,713.6 L231.65,713.6 L231.67,713.6 L231.7,713.6 L231.73,713.6 L231.76,713.6 L231.79,713.6 L231.83,713.6 L231.86,713.6 C232.12,713.6,232.2,713.6,232.2,713.8 C232.2,713.91,232.09,713.91,232.06,713.91 C231.78,713.91,231.06,713.88,230.78,713.88 C230.5,713.88,229.79,713.91,229.5,713.91 C229.42,713.91,229.31,713.91,229.31,713.71 C229.31,713.6,229.4,713.6,229.59,713.6 C229.61,713.6,229.8,713.6,229.97,713.58 C230.15,713.56,230.24,713.55,230.24,713.42 C230.24,713.38,230.23,713.36,230.2,713.23 L229.6,710.81 H226.57 L227.15,713.15 C227.24,713.5,227.27,713.6,227.99,713.6 C228.25,713.6,228.33,713.6,228.33,713.8 C228.33,713.91,228.22,713.91,228.19,713.91 C227.91,713.91,227.19,713.88,226.91,713.88 C226.63,713.88,225.92,713.91,225.63,713.91 C225.55,713.91,225.44,713.91,225.44,713.71 C225.44,713.6,225.53,713.6,225.72,713.6 C225.74,713.6,225.93,713.6,226.1,713.58 C226.28,713.56,226.37,713.55,226.37,713.42 C226.37,713.38,226.36,713.35,226.33,713.23 L224.99,707.9 C224.9,707.51,224.88,707.43,224.09,707.43 C223.91,707.43,223.82,707.43,223.82,707.23 C223.82,707.12,223.94,707.12,223.96,707.12 C224.24,707.12,224.94,707.16,225.22,707.16 C225.43,707.16,225.65,707.15,225.86,707.15 C226.08,707.15,226.3,707.12,226.51,707.12 C226.59,707.12,226.71,707.12,226.71,707.32 C226.71,707.43,226.62,707.43,226.43,707.43 C226.06,707.43,225.78,707.43,225.78,707.61 C225.78,707.67,225.8,707.72,225.81,707.78 L226.49,710.5 H229.52 C229.1,708.85,228.87,707.91,228.83,707.76 C228.74,707.44,228.55,707.43,227.93,707.43 C227.78,707.43,227.69,707.43,227.69,707.23 C227.69,707.12,227.81,707.12,227.83,707.12 C228.11,707.12,228.82,707.16,229.09,707.16 C229.3,707.16,229.52,707.15,229.73,707.15 C229.95,707.15,230.17,707.12,230.38,707.12 C230.46,707.12,230.58,707.12,230.58,707.32 C230.58,707.43,230.49,707.43,230.3,707.43 C229.93,707.43,229.65,707.43,229.65,707.61 C229.65,707.67,229.67,707.72,229.68,707.78 Z " /></g>    <g
       id="g3169"
       transform="matrix(1.2,0,0,-1.2,-238.25955,1821.1459)"
       xml:space="preserve"
       stroke-miterlimit="10.433"
       font-style="normal"
       font-variant="normal"
       font-weight="normal"
       font-stretch="normal"
       font-size-adjust="none"
       letter-spacing="normal"
       word-spacing="normal"
       ns0:text="$I$"
       ns0:preamble="/home/sriranga/Desktop/Rani_Figure/package.tex"
       style="font-style:normal;font-variant:normal;font-weight:normal;font-stretch:normal;letter-spacing:normal;word-spacing:normal;text-anchor:start;fill:none;stroke:#000000;stroke-width:1;stroke-linecap:butt;stroke-linejoin:miter;stroke-miterlimit:10.43299961;stroke-opacity:1;stroke-dasharray:none;stroke-dashoffset:0"><path
         d="m 227.15,713.15 0.01,0.03 0.01,0.03 0.01,0.03 0.01,0.03 0,0.02 0.01,0.03 0.01,0.02 0.01,0.03 0.01,0.02 0.01,0.02 0.02,0.02 0.01,0.02 0.02,0.01 0.01,0.02 0.02,0.01 0.02,0.02 0.03,0.01 0.02,0.01 0.03,0.01 0.03,0.01 0.03,0.01 0.02,0 0.02,0.01 0.02,0 0.02,0 0.02,0.01 0.02,0 0.02,0 0.02,0.01 0.03,0 0.02,0 0.03,0 0.02,0 0.03,0.01 0.03,0 0.03,0 0.03,0 0.03,0 0.03,0 0.03,0 0.04,0 0.03,0 0.04,0 c 0.24,0 0.32,0 0.32,0.19 0,0.12 -0.11,0.12 -0.15,0.12 -0.29,0 -1.03,-0.03 -1.32,-0.03 -0.29,0 -1.02,0.03 -1.32,0.03 -0.07,0 -0.2,0 -0.2,-0.2 0,-0.11 0.09,-0.11 0.28,-0.11 0.42,0 0.69,0 0.69,-0.19 0,-0.05 0,-0.07 -0.02,-0.16 l -1.35,-5.35 c -0.09,-0.37 -0.11,-0.47 -0.9,-0.47 -0.23,0 -0.32,0 -0.32,-0.2 0,-0.11 0.12,-0.11 0.15,-0.11 0.29,0 1.01,0.04 1.3,0.04 0.3,0 1.04,-0.04 1.34,-0.04 0.08,0 0.2,0 0.2,0.19 0,0.12 -0.08,0.12 -0.3,0.12 -0.18,0 -0.23,0 -0.43,0.02 -0.21,0.02 -0.25,0.06 -0.25,0.17 0,0.08 0.02,0.16 0.04,0.23 z"
         id="path3171"
         inkscape:connector-curvature="0"
         style="fill:#000000;stroke-width:0" /></g>    <g
       style="font-style:normal;font-variant:normal;font-weight:normal;font-stretch:normal;letter-spacing:normal;word-spacing:normal;text-anchor:start;fill:none;stroke:#000000;stroke-width:1;stroke-linecap:butt;stroke-linejoin:miter;stroke-miterlimit:10.43299961;stroke-opacity:1;stroke-dasharray:none;stroke-dashoffset:0"
       ns0:preamble="/home/sriranga/Desktop/Rani_Figure/package.tex"
       ns0:text="$J$"
       text-anchor="start"
       word-spacing="normal"
       letter-spacing="normal"
       font-size-adjust="none"
       font-stretch="normal"
       font-weight="normal"
       font-variant="normal"
       font-style="normal"
       fill-opacity="1"
       fill-rule="evenodd"
       fill="none"
       stroke-opacity="1"
       stroke-dashoffset="0"
       stroke-dasharray="none"
       stroke-miterlimit="10.433"
       stroke-linejoin="miter"
       stroke-linecap="butt"
       stroke="black"
       xml:space="preserve"
       transform="matrix(1.2,0,0,-1.2,-233.5114,1845.5989)"
       id="g3223"><path
         id="path3225"
         fill="black"
         stroke-width="0"
         d="M228.82,713.18 L228.82,713.21 L228.83,713.24 L228.84,713.27 L228.84,713.3 L228.85,713.32 L228.86,713.34 L228.86,713.37 L228.87,713.39 L228.88,713.41 L228.89,713.43 L228.9,713.44 L228.91,713.46 L228.92,713.48 L228.93,713.49 L228.95,713.5 L228.96,713.52 L228.98,713.53 L229,713.54 L229.02,713.55 L229.04,713.56 L229.06,713.56 L229.08,713.57 L229.11,713.58 L229.13,713.58 L229.14,713.58 L229.16,713.59 L229.17,713.59 L229.19,713.59 L229.21,713.59 L229.22,713.59 L229.24,713.59 L229.26,713.6 L229.28,713.6 L229.3,713.6 L229.32,713.6 L229.34,713.6 L229.36,713.6 L229.39,713.6 L229.41,713.6 L229.44,713.6 L229.46,713.6 C229.62,713.6,229.73,713.6,229.73,713.79 C229.73,713.88,229.67,713.91,229.59,713.91 C229.34,713.91,228.74,713.88,228.49,713.88 C228.16,713.88,227.35,713.91,227.02,713.91 C226.93,713.91,226.82,713.91,226.82,713.71 C226.82,713.6,226.89,713.6,227.15,713.6 C227.38,713.6,227.48,713.6,227.73,713.58 C227.97,713.55,228.04,713.52,228.04,713.38 C228.04,713.32,228.02,713.25,228,713.17 L226.85,708.61 C226.62,707.65,225.94,707.12,225.42,707.12 C225.16,707.12,224.64,707.22,224.48,707.74 C224.51,707.73,224.58,707.73,224.6,707.73 C224.98,707.73,225.24,708.07,225.24,708.37 C225.24,708.68,224.97,708.78,224.8,708.78 C224.63,708.78,224.14,708.66,224.14,707.99 C224.14,707.37,224.67,706.91,225.45,706.91 C226.37,706.91,227.4,707.56,227.65,708.55 Z " /></g>  </g>
</svg>
