<?xml version="1.0" encoding="UTF-8" standalone="no"?>
<!-- Created with Inkscape (http://www.inkscape.org/) -->

<svg
   xmlns:ns0="http://www.iki.fi/pav/software/textext/"
   xmlns:dc="http://purl.org/dc/elements/1.1/"
   xmlns:cc="http://creativecommons.org/ns#"
   xmlns:rdf="http://www.w3.org/1999/02/22-rdf-syntax-ns#"
   xmlns:svg="http://www.w3.org/2000/svg"
   xmlns="http://www.w3.org/2000/svg"
   xmlns:xlink="http://www.w3.org/1999/xlink"
   xmlns:sodipodi="http://sodipodi.sourceforge.net/DTD/sodipodi-0.dtd"
   xmlns:inkscape="http://www.inkscape.org/namespaces/inkscape"
   width="212.59842"
   height="141.73228"
   id="svg2"
   version="1.1"
   inkscape:version="0.48.4 r9939"
   sodipodi:docname="7.eps">
  <sodipodi:namedview
     id="base"
     pagecolor="#ffffff"
     bordercolor="#666666"
     borderopacity="1.0"
     inkscape:pageopacity="0.0"
     inkscape:pageshadow="2"
     inkscape:zoom="2.8284271"
     inkscape:cx="97.097161"
     inkscape:cy="64.000902"
     inkscape:document-units="px"
     inkscape:current-layer="layer1"
     showgrid="false"
     units="cm"
     inkscape:window-width="1024"
     inkscape:window-height="744"
     inkscape:window-x="0"
     inkscape:window-y="24"
     inkscape:window-maximized="1">
    <inkscape:grid
       snapvisiblegridlinesonly="true"
       enabled="true"
       visible="true"
       empspacing="5"
       id="grid2985"
       type="xygrid" />
  </sodipodi:namedview>
  <defs
     id="defs4">
    <marker
       inkscape:stockid="DotM"
       orient="auto"
       refY="0"
       refX="0"
       id="DotM"
       style="overflow:visible">
      <path
         id="path3936"
         d="m -2.5,-1 c 0,2.76 -2.24,5 -5,5 -2.76,0 -5,-2.24 -5,-5 0,-2.76 2.24,-5 5,-5 2.76,0 5,2.24 5,5 z"
         style="fill-rule:evenodd;stroke:#000000;stroke-width:1pt"
         transform="matrix(0.4,0,0,0.4,2.96,0.4)"
         inkscape:connector-curvature="0" />
    </marker>
  </defs>
  <metadata
     id="metadata7">
    <rdf:RDF>
      <cc:Work
         rdf:about="">
        <dc:format>image/svg+xml</dc:format>
        <dc:type
           rdf:resource="http://purl.org/dc/dcmitype/StillImage" />
        <dc:title></dc:title>
      </cc:Work>
    </rdf:RDF>
  </metadata>
  <g
     transform="translate(0,-910.62859)"
     id="layer1"
     inkscape:groupmode="layer"
     inkscape:label="Layer 1">
    <path
       transform="matrix(1.2874399,0,0,1.2874399,-4.777124,867.62914)"
       d="m 97.14286,82.982285 c 0,14.497474 -11.752525,26.249995 -26.25,26.249995 -14.497474,0 -26.25,-11.752521 -26.25,-26.249995 0,-14.497475 11.752526,-26.25 26.25,-26.25 14.497475,0 26.25,11.752525 26.25,26.25 z"
       sodipodi:ry="26.25"
       sodipodi:rx="26.25"
       sodipodi:cy="82.982285"
       sodipodi:cx="70.89286"
       id="path3050"
       style="fill:#999999;stroke:#000000;stroke-width:0.97091913;stroke-miterlimit:4;stroke-opacity:1;stroke-dasharray:none;stroke-dashoffset:0"
       sodipodi:type="arc" />
    <path
       transform="matrix(0,-1.2874399,1.2874399,0,13.658469,1065.7341)"
       d="m 97.14286,82.982285 c 0,14.497474 -11.752525,26.249995 -26.25,26.249995 -14.497474,0 -26.25,-11.752521 -26.25,-26.249995 0,-14.497475 11.752526,-26.25 26.25,-26.25 14.497475,0 26.25,11.752525 26.25,26.25 z"
       sodipodi:ry="26.25"
       sodipodi:rx="26.25"
       sodipodi:cy="82.982285"
       sodipodi:cx="70.89286"
       id="path4973"
       style="fill:#ffffff;stroke:#000000;stroke-width:0.97091913;stroke-miterlimit:4;stroke-opacity:1;stroke-dasharray:none;stroke-dashoffset:0"
       sodipodi:type="arc" />
    <g
       ns0:text="$A$"
       ns0:preamble=""
       transform="translate(-148.77988,885.22296)"
       id="g4325">
      <defs
         id="defs4327">
        <g
           id="g4329">
          <symbol
             style="overflow:visible"
             overflow="visible"
             id="textext-ee65654d-0">
            <path
               inkscape:connector-curvature="0"
               style="stroke:none"
               d=""
               id="path4332" />
          </symbol>
          <symbol
             style="overflow:visible"
             overflow="visible"
             id="textext-ee65654d-1">
            <path
               inkscape:connector-curvature="0"
               style="stroke:none"
               d="M 1.78125,-1.140625 C 1.390625,-0.484375 1,-0.34375 0.5625,-0.3125 0.4375,-0.296875 0.34375,-0.296875 0.34375,-0.109375 0.34375,-0.046875 0.40625,0 0.484375,0 0.75,0 1.0625,-0.03125 1.328125,-0.03125 c 0.34375,0 0.6875,0.03125 1,0.03125 0.0625,0 0.1875,0 0.1875,-0.1875 0,-0.109375 -0.078125,-0.125 -0.15625,-0.125 -0.21875,-0.015625 -0.46875,-0.09375 -0.46875,-0.34375 0,-0.125 0.0625,-0.234375 0.140625,-0.375 l 0.765625,-1.265625 2.5,0 c 0.015625,0.203125 0.15625,1.5625 0.15625,1.65625 0,0.296875 -0.515625,0.328125 -0.71875,0.328125 C 4.59375,-0.3125 4.5,-0.3125 4.5,-0.109375 4.5,0 4.609375,0 4.640625,0 5.046875,0 5.46875,-0.03125 5.875,-0.03125 6.125,-0.03125 6.765625,0 7.015625,0 7.0625,0 7.1875,0 7.1875,-0.203125 7.1875,-0.3125 7.09375,-0.3125 6.953125,-0.3125 6.34375,-0.3125 6.34375,-0.375 6.3125,-0.671875 l -0.609375,-6.21875 c -0.015625,-0.203125 -0.015625,-0.25 -0.1875,-0.25 -0.15625,0 -0.203125,0.078125 -0.265625,0.171875 z M 2.984375,-2.609375 4.9375,-5.90625 5.265625,-2.609375 z m 0,0"
               id="path4335" />
          </symbol>
        </g>
      </defs>
      <g
         id="textext-ee65654d-2">
        <g
           style="fill:#000000;fill-opacity:1"
           id="g4338">
          <use
             height="141.73228"
             width="212.59842"
             xlink:href="#textext-ee65654d-1"
             x="223.43201"
             y="134.765"
             id="use4340" />
        </g>
      </g>
    </g>
    <path
       sodipodi:type="arc"
       style="fill:none;stroke:#000000;stroke-width:0.97091913;stroke-miterlimit:4;stroke-opacity:1;stroke-dasharray:none;stroke-dashoffset:0"
       id="path4971"
       sodipodi:cx="70.89286"
       sodipodi:cy="82.982285"
       sodipodi:rx="26.25"
       sodipodi:ry="26.25"
       d="m 97.14286,82.982285 c 0,14.497474 -11.752525,26.249995 -26.25,26.249995 -14.497474,0 -26.25,-11.752521 -26.25,-26.249995 0,-14.497475 11.752526,-26.25 26.25,-26.25 14.497475,0 26.25,11.752525 26.25,26.25 z"
       transform="matrix(1.2874399,0,0,-1.2874399,-4.777124,1081.2985)" />
    <rect
       style="fill:none;stroke:#000000;stroke-width:1.19844913;stroke-miterlimit:4;stroke-opacity:1;stroke-dasharray:none;stroke-dashoffset:0"
       id="rect4975"
       width="157.38281"
       height="103.28914"
       x="24.23768"
       y="922.59143" />
    <text
       xml:space="preserve"
       style="font-size:9px;font-style:normal;font-variant:normal;font-weight:500;font-stretch:normal;line-height:125%;letter-spacing:0px;word-spacing:0px;fill:#000000;fill-opacity:1;stroke:none;font-family:aakar;-inkscape-font-specification:aakar Medium"
       x="56.214989"
       y="973.87201"
       id="text4977"
       sodipodi:linespacing="125%"><tspan
         sodipodi:role="line"
         id="tspan4979"
         x="56.214989"
         y="973.87201">1, 3, 5</tspan></text>
    <text
       xml:space="preserve"
       style="font-size:9px;font-style:normal;font-variant:normal;font-weight:500;font-stretch:normal;line-height:125%;letter-spacing:0px;word-spacing:0px;fill:#000000;fill-opacity:1;stroke:none;font-family:aakar;-inkscape-font-specification:aakar Medium"
       x="101.46983"
       y="964.67963"
       id="text4981"
       sodipodi:linespacing="125%"><tspan
         sodipodi:role="line"
         id="tspan4983"
         x="101.46983"
         y="964.67963">2</tspan></text>
    <text
       xml:space="preserve"
       style="font-size:9px;font-style:normal;font-variant:normal;font-weight:500;font-stretch:normal;line-height:125%;letter-spacing:0px;word-spacing:0px;fill:#000000;fill-opacity:1;stroke:none;font-family:aakar;-inkscape-font-specification:aakar Medium"
       x="101.46983"
       y="975.63977"
       id="text4985"
       sodipodi:linespacing="125%"><tspan
         sodipodi:role="line"
         id="tspan4987"
         x="101.46983"
         y="975.63977">4</tspan></text>
    <text
       xml:space="preserve"
       style="font-size:9px;font-style:normal;font-variant:normal;font-weight:500;font-stretch:normal;line-height:125%;letter-spacing:0px;word-spacing:0px;fill:#000000;fill-opacity:1;stroke:none;font-family:aakar;-inkscape-font-specification:aakar Medium"
       x="101.82338"
       y="985.18573"
       id="text4989"
       sodipodi:linespacing="125%"><tspan
         sodipodi:role="line"
         id="tspan4991"
         x="101.82338"
         y="985.18573">6</tspan></text>
    <text
       xml:space="preserve"
       style="font-size:9px;font-style:normal;font-variant:normal;font-weight:500;font-stretch:normal;line-height:125%;letter-spacing:0px;word-spacing:0px;fill:#000000;fill-opacity:1;stroke:none;font-family:aakar;-inkscape-font-specification:aakar Medium"
       x="129.48022"
       y="975.63977"
       id="text4993"
       sodipodi:linespacing="125%"><tspan
         sodipodi:role="line"
         id="tspan4995"
         x="129.48022"
         y="975.63977">8</tspan></text>
    <g
       ns0:text="$B$"
       ns0:preamble=""
       transform="translate(-96.77988,885.22296)"
       id="g5049">
      <defs
         id="defs5051">
        <g
           id="g5053">
          <symbol
             overflow="visible"
             id="textext-45618403-0">
            <path
               style="stroke:none;"
               d=""
               id="path5056" />
          </symbol>
          <symbol
             overflow="visible"
             id="textext-45618403-1">
            <path
               style="stroke:none;"
               d="M 1.59375 -0.78125 C 1.5 -0.390625 1.46875 -0.3125 0.6875 -0.3125 C 0.515625 -0.3125 0.421875 -0.3125 0.421875 -0.109375 C 0.421875 0 0.515625 0 0.6875 0 L 4.25 0 C 5.828125 0 7 -1.171875 7 -2.15625 C 7 -2.875 6.421875 -3.453125 5.453125 -3.5625 C 6.484375 -3.75 7.53125 -4.484375 7.53125 -5.4375 C 7.53125 -6.171875 6.875 -6.8125 5.6875 -6.8125 L 2.328125 -6.8125 C 2.140625 -6.8125 2.046875 -6.8125 2.046875 -6.609375 C 2.046875 -6.5 2.140625 -6.5 2.328125 -6.5 C 2.34375 -6.5 2.53125 -6.5 2.703125 -6.484375 C 2.875 -6.453125 2.96875 -6.453125 2.96875 -6.3125 C 2.96875 -6.28125 2.953125 -6.25 2.9375 -6.125 Z M 3.09375 -3.65625 L 3.71875 -6.125 C 3.8125 -6.46875 3.828125 -6.5 4.25 -6.5 L 5.546875 -6.5 C 6.421875 -6.5 6.625 -5.90625 6.625 -5.46875 C 6.625 -4.59375 5.765625 -3.65625 4.5625 -3.65625 Z M 2.65625 -0.3125 C 2.515625 -0.3125 2.5 -0.3125 2.4375 -0.3125 C 2.328125 -0.328125 2.296875 -0.34375 2.296875 -0.421875 C 2.296875 -0.453125 2.296875 -0.46875 2.359375 -0.640625 L 3.046875 -3.421875 L 4.921875 -3.421875 C 5.875 -3.421875 6.078125 -2.6875 6.078125 -2.265625 C 6.078125 -1.28125 5.1875 -0.3125 4 -0.3125 Z M 2.65625 -0.3125 "
               id="path5059" />
          </symbol>
        </g>
      </defs>
      <g
         id="textext-45618403-2">
        <g
           style="fill:rgb(0%,0%,0%);fill-opacity:1;"
           id="g5062">
          <use
             xlink:href="#textext-45618403-1"
             x="223.432"
             y="134.765"
             id="use5064" />
        </g>
      </g>
    </g>
    <g
       id="g5168"
       transform="translate(-55.677589,798.24883)"
       ns0:preamble=""
       ns0:text="$\\cup$">
      <defs
         id="defs5170">
        <g
           id="g5172">
          <symbol
             id="textext-863326bd-0"
             overflow="visible"
             style="overflow:visible">
            <path
               id="path5175"
               d=""
               style="stroke:none"
               inkscape:connector-curvature="0" />
          </symbol>
          <symbol
             id="textext-863326bd-1"
             overflow="visible"
             style="overflow:visible">
            <path
               id="path5178"
               d="m 6.09375,-5.609375 c 0,-0.171875 0,-0.359375 -0.203125,-0.359375 -0.203125,0 -0.203125,0.1875 -0.203125,0.359375 L 5.6875,-2 c 0,1.5 -1.625,1.828125 -2.375,1.828125 -0.4375,0 -1.0625,-0.09375 -1.59375,-0.4375 C 0.953125,-1.09375 0.953125,-1.734375 0.953125,-2 l 0,-3.609375 c 0,-0.171875 0,-0.359375 -0.203125,-0.359375 -0.203125,0 -0.203125,0.1875 -0.203125,0.359375 l 0,3.65625 c 0,1.515625 1.53125,2.171875 2.765625,2.171875 1.296875,0 2.78125,-0.703125 2.78125,-2.15625 z m 0,0"
               style="stroke:none"
               inkscape:connector-curvature="0" />
          </symbol>
        </g>
      </defs>
      <g
         id="textext-863326bd-2">
        <g
           id="g5181"
           style="fill:#000000;fill-opacity:1">
          <use
             id="use5183"
             y="134.765"
             x="223.43201"
             xlink:href="#textext-863326bd-1"
             width="212.59842"
             height="141.73228" />
        </g>
      </g>
    </g>
  </g>
</svg>
