<?xml version="1.0" encoding="UTF-8" standalone="no"?>
<!-- Created with Inkscape (http://www.inkscape.org/) -->

<svg
   xmlns:ns0="http://www.iki.fi/pav/software/textext/"
   xmlns:dc="http://purl.org/dc/elements/1.1/"
   xmlns:cc="http://creativecommons.org/ns#"
   xmlns:rdf="http://www.w3.org/1999/02/22-rdf-syntax-ns#"
   xmlns:svg="http://www.w3.org/2000/svg"
   xmlns="http://www.w3.org/2000/svg"
   xmlns:sodipodi="http://sodipodi.sourceforge.net/DTD/sodipodi-0.dtd"
   xmlns:inkscape="http://www.inkscape.org/namespaces/inkscape"
   width="212.59842"
   height="141.73228"
   id="svg2"
   version="1.1"
   inkscape:version="0.48.4 r9939"
   sodipodi:docname="912.eps">
  <sodipodi:namedview
     id="base"
     pagecolor="#ffffff"
     bordercolor="#666666"
     borderopacity="1.0"
     inkscape:pageopacity="0.0"
     inkscape:pageshadow="2"
     inkscape:zoom="3.9934446"
     inkscape:cx="106.29921"
     inkscape:cy="70.866142"
     inkscape:document-units="cm"
     inkscape:current-layer="layer1"
     showgrid="false"
     units="cm"
     inkscape:object-nodes="true"
     inkscape:window-width="1366"
     inkscape:window-height="744"
     inkscape:window-x="0"
     inkscape:window-y="24"
     inkscape:window-maximized="1">
    <inkscape:grid
       type="xygrid"
       id="grid2985"
       empspacing="5"
       visible="true"
       enabled="true"
       snapvisiblegridlinesonly="true" />
  </sodipodi:namedview>
  <defs
     id="defs4">
    <marker
       style="overflow:visible;"
       id="Arrow2Mend-0"
       refX="0.0"
       refY="0.0"
       orient="auto"
       inkscape:stockid="Arrow2Mend">
      <path
         transform="scale(0.6) rotate(180) translate(0,0)"
         d="M 8.7185878,4.0337352 L -2.2072895,0.016013256 L 8.7185884,-4.0017078 C 6.9730900,-1.6296469 6.9831476,1.6157441 8.7185878,4.0337352 z "
         style="fill-rule:evenodd;stroke-width:0.62500000;stroke-linejoin:round;"
         id="path4770-8" />
    </marker>
    <marker
       style="overflow:visible"
       id="Arrow2Mstart-9"
       refX="0"
       refY="0"
       orient="auto"
       inkscape:stockid="Arrow2Mstart">
      <path
         transform="scale(0.6,0.6)"
         d="M 8.7185878,4.0337352 -2.2072895,0.01601326 8.7185884,-4.0017078 c -1.7454984,2.3720609 -1.7354408,5.6174519 -6e-7,8.035443 z"
         style="fill-rule:evenodd;stroke-width:0.625;stroke-linejoin:round"
         id="path3789-2"
         inkscape:connector-curvature="0" />
    </marker>
    <marker
       style="overflow:visible"
       id="Arrow1Mend-94"
       refX="0"
       refY="0"
       orient="auto"
       inkscape:stockid="Arrow1Mend">
      <path
         transform="matrix(-0.4,0,0,-0.4,-4,0)"
         style="fill-rule:evenodd;stroke:#000000;stroke-width:1pt"
         d="M 0,0 5,-5 -12.5,0 5,5 0,0 z"
         id="path3774-42"
         inkscape:connector-curvature="0" />
    </marker>
    <marker
       style="overflow:visible"
       id="Arrow1Mstart-77"
       refX="0"
       refY="0"
       orient="auto"
       inkscape:stockid="Arrow1Mstart">
      <path
         transform="matrix(0.4,0,0,0.4,4,0)"
         style="fill-rule:evenodd;stroke:#000000;stroke-width:1pt"
         d="M 0,0 5,-5 -12.5,0 5,5 0,0 z"
         id="path3771-7"
         inkscape:connector-curvature="0" />
    </marker>
    <marker
       style="overflow:visible"
       id="Arrow1Mstart-8-0"
       refX="0.0"
       refY="0.0"
       orient="auto"
       inkscape:stockid="Arrow1Mstart">
      <path
         transform="scale(0.4) translate(10,0)"
         style="fill-rule:evenodd;stroke:#000000;stroke-width:1.0pt"
         d="M 0.0,0.0 L 5.0,-5.0 L -12.5,0.0 L 5.0,5.0 L 0.0,0.0 z "
         id="path3771-9-9" />
    </marker>
    <marker
       inkscape:stockid="Arrow1Mstart"
       orient="auto"
       refY="0.0"
       refX="0.0"
       id="Arrow1Mstart-1-6"
       style="overflow:visible">
      <path
         id="path3771-2-2"
         d="M 0.0,0.0 L 5.0,-5.0 L -12.5,0.0 L 5.0,5.0 L 0.0,0.0 z "
         style="fill-rule:evenodd;stroke:#000000;stroke-width:1.0pt"
         transform="scale(0.4) translate(10,0)" />
    </marker>
    <marker
       inkscape:stockid="Arrow1Mstart"
       orient="auto"
       refY="0.0"
       refX="0.0"
       id="Arrow1Mstart-2-5"
       style="overflow:visible">
      <path
         id="path3771-0-2"
         d="M 0.0,0.0 L 5.0,-5.0 L -12.5,0.0 L 5.0,5.0 L 0.0,0.0 z "
         style="fill-rule:evenodd;stroke:#000000;stroke-width:1.0pt"
         transform="scale(0.4) translate(10,0)" />
    </marker>
    <marker
       inkscape:stockid="Arrow1Mend"
       orient="auto"
       refY="0.0"
       refX="0.0"
       id="Arrow1Mend-5-7"
       style="overflow:visible;">
      <path
         id="path3774-8-4"
         d="M 0.0,0.0 L 5.0,-5.0 L -12.5,0.0 L 5.0,5.0 L 0.0,0.0 z "
         style="fill-rule:evenodd;stroke:#000000;stroke-width:1.0pt;"
         transform="scale(0.4) rotate(180) translate(10,0)" />
    </marker>
    <marker
       inkscape:stockid="Arrow2Mstart"
       orient="auto"
       refY="0.0"
       refX="0.0"
       id="Arrow2Mstart-8-8"
       style="overflow:visible">
      <path
         id="path3789-0-8"
         style="fill-rule:evenodd;stroke-width:0.62500000;stroke-linejoin:round"
         d="M 8.7185878,4.0337352 L -2.2072895,0.016013256 L 8.7185884,-4.0017078 C 6.9730900,-1.6296469 6.9831476,1.6157441 8.7185878,4.0337352 z "
         transform="scale(0.6) translate(0,0)" />
    </marker>
    <marker
       style="overflow:visible"
       id="Arrow1Mstart-7-3"
       refX="0"
       refY="0"
       orient="auto"
       inkscape:stockid="Arrow1Mstart">
      <path
         transform="matrix(0.4,0,0,0.4,4,0)"
         style="fill-rule:evenodd;stroke:#000000;stroke-width:1pt"
         d="M 0,0 5,-5 -12.5,0 5,5 0,0 z"
         id="path3771-96-1"
         inkscape:connector-curvature="0" />
    </marker>
    <marker
       style="overflow:visible"
       id="Arrow1Mend-2-6"
       refX="0"
       refY="0"
       orient="auto"
       inkscape:stockid="Arrow1Mend">
      <path
         transform="matrix(-0.4,0,0,-0.4,-4,0)"
         style="fill-rule:evenodd;stroke:#000000;stroke-width:1pt"
         d="M 0,0 5,-5 -12.5,0 5,5 0,0 z"
         id="path3774-2-2"
         inkscape:connector-curvature="0" />
    </marker>
    <marker
       style="overflow:visible"
       id="Arrow2Mstart-2-8"
       refX="0"
       refY="0"
       orient="auto"
       inkscape:stockid="Arrow2Mstart">
      <path
         transform="scale(0.6,0.6)"
         d="M 8.7185878,4.0337352 -2.2072895,0.01601326 8.7185884,-4.0017078 c -1.7454984,2.3720609 -1.7354408,5.6174519 -6e-7,8.035443 z"
         style="fill-rule:evenodd;stroke-width:0.625;stroke-linejoin:round"
         id="path3789-8-0"
         inkscape:connector-curvature="0" />
    </marker>
    <marker
       style="overflow:visible"
       id="Arrow1Mstart-1-0-7"
       refX="0.0"
       refY="0.0"
       orient="auto"
       inkscape:stockid="Arrow1Mstart">
      <path
         transform="scale(0.4) translate(10,0)"
         style="fill-rule:evenodd;stroke:#000000;stroke-width:1.0pt"
         d="M 0.0,0.0 L 5.0,-5.0 L -12.5,0.0 L 5.0,5.0 L 0.0,0.0 z "
         id="path3771-2-4-5" />
    </marker>
    <marker
       inkscape:stockid="Arrow1Mstart"
       orient="auto"
       refY="0.0"
       refX="0.0"
       id="Arrow1Mstart-8-4-9"
       style="overflow:visible">
      <path
         id="path3771-9-1-6"
         d="M 0.0,0.0 L 5.0,-5.0 L -12.5,0.0 L 5.0,5.0 L 0.0,0.0 z "
         style="fill-rule:evenodd;stroke:#000000;stroke-width:1.0pt"
         transform="scale(0.4) translate(10,0)" />
    </marker>
    <marker
       inkscape:stockid="Arrow1Mstart"
       orient="auto"
       refY="0"
       refX="0"
       id="Arrow1Mstart-9-8"
       style="overflow:visible">
      <path
         inkscape:connector-curvature="0"
         id="path3771-4-9"
         d="M 0,0 5,-5 -12.5,0 5,5 0,0 z"
         style="fill-rule:evenodd;stroke:#000000;stroke-width:1pt"
         transform="matrix(0.4,0,0,0.4,4,0)" />
    </marker>
    <marker
       inkscape:stockid="Arrow1Mend"
       orient="auto"
       refY="0"
       refX="0"
       id="Arrow1Mend-8-50"
       style="overflow:visible">
      <path
         inkscape:connector-curvature="0"
         id="path3774-4-8"
         d="M 0,0 5,-5 -12.5,0 5,5 0,0 z"
         style="fill-rule:evenodd;stroke:#000000;stroke-width:1pt"
         transform="matrix(-0.4,0,0,-0.4,-4,0)" />
    </marker>
    <marker
       inkscape:stockid="Arrow2Mstart"
       orient="auto"
       refY="0"
       refX="0"
       id="Arrow2Mstart-5-1"
       style="overflow:visible">
      <path
         inkscape:connector-curvature="0"
         id="path3789-5-4"
         style="fill-rule:evenodd;stroke-width:0.625;stroke-linejoin:round"
         d="M 8.7185878,4.0337352 -2.2072895,0.01601326 8.7185884,-4.0017078 c -1.7454984,2.3720609 -1.7354408,5.6174519 -6e-7,8.035443 z"
         transform="scale(0.6,0.6)" />
    </marker>
    <marker
       inkscape:stockid="Arrow2Mstart"
       orient="auto"
       refY="0"
       refX="0"
       id="Arrow2Mstart-50"
       style="overflow:visible">
      <path
         inkscape:connector-curvature="0"
         id="path3789-58"
         style="fill-rule:evenodd;stroke-width:0.625;stroke-linejoin:round"
         d="M 8.7185878,4.0337352 -2.2072895,0.01601326 8.7185884,-4.0017078 c -1.7454984,2.3720609 -1.7354408,5.6174519 -6e-7,8.035443 z"
         transform="scale(0.6,0.6)" />
    </marker>
    <marker
       inkscape:stockid="Arrow1Mend"
       orient="auto"
       refY="0"
       refX="0"
       id="Arrow1Mend-9"
       style="overflow:visible">
      <path
         inkscape:connector-curvature="0"
         id="path3774-1"
         d="M 0,0 5,-5 -12.5,0 5,5 0,0 z"
         style="fill-rule:evenodd;stroke:#000000;stroke-width:1pt"
         transform="matrix(-0.4,0,0,-0.4,-4,0)" />
    </marker>
    <marker
       inkscape:stockid="Arrow1Mstart"
       orient="auto"
       refY="0"
       refX="0"
       id="Arrow1Mstart-5"
       style="overflow:visible">
      <path
         inkscape:connector-curvature="0"
         id="path3771-00"
         d="M 0,0 5,-5 -12.5,0 5,5 0,0 z"
         style="fill-rule:evenodd;stroke:#000000;stroke-width:1pt"
         transform="matrix(0.4,0,0,0.4,4,0)" />
    </marker>
    <marker
       inkscape:stockid="Arrow1Mstart"
       orient="auto"
       refY="0"
       refX="0"
       id="Arrow1Mstart-8-6"
       style="overflow:visible">
      <path
         inkscape:connector-curvature="0"
         id="path3771-9-5"
         d="M 0,0 5,-5 -12.5,0 5,5 0,0 z"
         style="fill-rule:evenodd;stroke:#000000;stroke-width:1pt"
         transform="matrix(0.4,0,0,0.4,4,0)" />
    </marker>
    <marker
       style="overflow:visible"
       id="Arrow1Mstart-1-4"
       refX="0"
       refY="0"
       orient="auto"
       inkscape:stockid="Arrow1Mstart">
      <path
         inkscape:connector-curvature="0"
         transform="matrix(0.4,0,0,0.4,4,0)"
         style="fill-rule:evenodd;stroke:#000000;stroke-width:1pt"
         d="M 0,0 5,-5 -12.5,0 5,5 0,0 z"
         id="path3771-2-9" />
    </marker>
    <marker
       style="overflow:visible"
       id="Arrow1Mstart-2-8"
       refX="0"
       refY="0"
       orient="auto"
       inkscape:stockid="Arrow1Mstart">
      <path
         inkscape:connector-curvature="0"
         transform="matrix(0.4,0,0,0.4,4,0)"
         style="fill-rule:evenodd;stroke:#000000;stroke-width:1pt"
         d="M 0,0 5,-5 -12.5,0 5,5 0,0 z"
         id="path3771-0-3" />
    </marker>
    <marker
       style="overflow:visible"
       id="Arrow1Mend-5-4"
       refX="0"
       refY="0"
       orient="auto"
       inkscape:stockid="Arrow1Mend">
      <path
         inkscape:connector-curvature="0"
         transform="matrix(-0.4,0,0,-0.4,-4,0)"
         style="fill-rule:evenodd;stroke:#000000;stroke-width:1pt"
         d="M 0,0 5,-5 -12.5,0 5,5 0,0 z"
         id="path3774-8-1" />
    </marker>
    <marker
       style="overflow:visible"
       id="Arrow2Mstart-8-2"
       refX="0"
       refY="0"
       orient="auto"
       inkscape:stockid="Arrow2Mstart">
      <path
         inkscape:connector-curvature="0"
         transform="scale(0.6,0.6)"
         d="M 8.7185878,4.0337352 -2.2072895,0.01601326 8.7185884,-4.0017078 c -1.7454984,2.3720609 -1.7354408,5.6174519 -6e-7,8.035443 z"
         style="fill-rule:evenodd;stroke-width:0.625;stroke-linejoin:round"
         id="path3789-0-7" />
    </marker>
    <marker
       inkscape:stockid="Arrow1Mstart"
       orient="auto"
       refY="0"
       refX="0"
       id="Arrow1Mstart-7-5"
       style="overflow:visible">
      <path
         inkscape:connector-curvature="0"
         id="path3771-96-8"
         d="M 0,0 5,-5 -12.5,0 5,5 0,0 z"
         style="fill-rule:evenodd;stroke:#000000;stroke-width:1pt"
         transform="matrix(0.4,0,0,0.4,4,0)" />
    </marker>
    <marker
       inkscape:stockid="Arrow1Mend"
       orient="auto"
       refY="0"
       refX="0"
       id="Arrow1Mend-2-9"
       style="overflow:visible">
      <path
         inkscape:connector-curvature="0"
         id="path3774-2-1"
         d="M 0,0 5,-5 -12.5,0 5,5 0,0 z"
         style="fill-rule:evenodd;stroke:#000000;stroke-width:1pt"
         transform="matrix(-0.4,0,0,-0.4,-4,0)" />
    </marker>
    <marker
       inkscape:stockid="Arrow2Mstart"
       orient="auto"
       refY="0"
       refX="0"
       id="Arrow2Mstart-2-4"
       style="overflow:visible">
      <path
         inkscape:connector-curvature="0"
         id="path3789-8-4"
         style="fill-rule:evenodd;stroke-width:0.625;stroke-linejoin:round"
         d="M 8.7185878,4.0337352 -2.2072895,0.01601326 8.7185884,-4.0017078 c -1.7454984,2.3720609 -1.7354408,5.6174519 -6e-7,8.035443 z"
         transform="scale(0.6,0.6)" />
    </marker>
    <marker
       inkscape:stockid="Arrow1Mstart"
       orient="auto"
       refY="0"
       refX="0"
       id="Arrow1Mstart-1-0-9"
       style="overflow:visible">
      <path
         inkscape:connector-curvature="0"
         id="path3771-2-4-2"
         d="M 0,0 5,-5 -12.5,0 5,5 0,0 z"
         style="fill-rule:evenodd;stroke:#000000;stroke-width:1pt"
         transform="matrix(0.4,0,0,0.4,4,0)" />
    </marker>
    <marker
       style="overflow:visible"
       id="Arrow1Mstart-8-4-0"
       refX="0"
       refY="0"
       orient="auto"
       inkscape:stockid="Arrow1Mstart">
      <path
         inkscape:connector-curvature="0"
         transform="matrix(0.4,0,0,0.4,4,0)"
         style="fill-rule:evenodd;stroke:#000000;stroke-width:1pt"
         d="M 0,0 5,-5 -12.5,0 5,5 0,0 z"
         id="path3771-9-1-8" />
    </marker>
    <marker
       style="overflow:visible"
       id="Arrow1Mstart-9-4"
       refX="0"
       refY="0"
       orient="auto"
       inkscape:stockid="Arrow1Mstart">
      <path
         transform="matrix(0.4,0,0,0.4,4,0)"
         style="fill-rule:evenodd;stroke:#000000;stroke-width:1pt"
         d="M 0,0 5,-5 -12.5,0 5,5 0,0 z"
         id="path3771-4-3"
         inkscape:connector-curvature="0" />
    </marker>
    <marker
       style="overflow:visible"
       id="Arrow1Mend-8-5"
       refX="0"
       refY="0"
       orient="auto"
       inkscape:stockid="Arrow1Mend">
      <path
         transform="matrix(-0.4,0,0,-0.4,-4,0)"
         style="fill-rule:evenodd;stroke:#000000;stroke-width:1pt"
         d="M 0,0 5,-5 -12.5,0 5,5 0,0 z"
         id="path3774-4-5"
         inkscape:connector-curvature="0" />
    </marker>
    <marker
       style="overflow:visible"
       id="Arrow2Mstart-5-8"
       refX="0"
       refY="0"
       orient="auto"
       inkscape:stockid="Arrow2Mstart">
      <path
         transform="scale(0.6,0.6)"
         d="M 8.7185878,4.0337352 -2.2072895,0.01601326 8.7185884,-4.0017078 c -1.7454984,2.3720609 -1.7354408,5.6174519 -6e-7,8.035443 z"
         style="fill-rule:evenodd;stroke-width:0.625;stroke-linejoin:round"
         id="path3789-5-3"
         inkscape:connector-curvature="0" />
    </marker>
    <marker
       style="overflow:visible"
       id="Arrow2Mstart-5"
       refX="0"
       refY="0"
       orient="auto"
       inkscape:stockid="Arrow2Mstart">
      <path
         transform="scale(0.6,0.6)"
         d="M 8.7185878,4.0337352 -2.2072895,0.01601326 8.7185884,-4.0017078 c -1.7454984,2.3720609 -1.7354408,5.6174519 -6e-7,8.035443 z"
         style="fill-rule:evenodd;stroke-width:0.625;stroke-linejoin:round"
         id="path3789-5"
         inkscape:connector-curvature="0" />
    </marker>
    <marker
       style="overflow:visible"
       id="Arrow1Mend-8"
       refX="0"
       refY="0"
       orient="auto"
       inkscape:stockid="Arrow1Mend">
      <path
         transform="matrix(-0.4,0,0,-0.4,-4,0)"
         style="fill-rule:evenodd;stroke:#000000;stroke-width:1pt"
         d="M 0,0 5,-5 -12.5,0 5,5 0,0 z"
         id="path3774-4"
         inkscape:connector-curvature="0" />
    </marker>
    <marker
       style="overflow:visible"
       id="Arrow1Mstart-9"
       refX="0"
       refY="0"
       orient="auto"
       inkscape:stockid="Arrow1Mstart">
      <path
         transform="matrix(0.4,0,0,0.4,4,0)"
         style="fill-rule:evenodd;stroke:#000000;stroke-width:1pt"
         d="M 0,0 5,-5 -12.5,0 5,5 0,0 z"
         id="path3771-4"
         inkscape:connector-curvature="0" />
    </marker>
    <marker
       style="overflow:visible"
       id="Arrow1Mstart-8-4"
       refX="0"
       refY="0"
       orient="auto"
       inkscape:stockid="Arrow1Mstart">
      <path
         inkscape:connector-curvature="0"
         transform="matrix(0.4,0,0,0.4,4,0)"
         style="fill-rule:evenodd;stroke:#000000;stroke-width:1pt"
         d="M 0,0 5,-5 -12.5,0 5,5 0,0 z"
         id="path3771-9-1" />
    </marker>
    <marker
       inkscape:stockid="Arrow1Mstart"
       orient="auto"
       refY="0"
       refX="0"
       id="Arrow1Mstart-1-0"
       style="overflow:visible">
      <path
         inkscape:connector-curvature="0"
         id="path3771-2-4"
         d="M 0,0 5,-5 -12.5,0 5,5 0,0 z"
         style="fill-rule:evenodd;stroke:#000000;stroke-width:1pt"
         transform="matrix(0.4,0,0,0.4,4,0)" />
    </marker>
    <marker
       inkscape:stockid="Arrow2Mstart"
       orient="auto"
       refY="0"
       refX="0"
       id="Arrow2Mstart-2"
       style="overflow:visible">
      <path
         inkscape:connector-curvature="0"
         id="path3789-8"
         style="fill-rule:evenodd;stroke-width:0.625;stroke-linejoin:round"
         d="M 8.7185878,4.0337352 -2.2072895,0.01601326 8.7185884,-4.0017078 c -1.7454984,2.3720609 -1.7354408,5.6174519 -6e-7,8.035443 z"
         transform="scale(0.6,0.6)" />
    </marker>
    <marker
       inkscape:stockid="Arrow1Mend"
       orient="auto"
       refY="0"
       refX="0"
       id="Arrow1Mend-2"
       style="overflow:visible">
      <path
         inkscape:connector-curvature="0"
         id="path3774-2"
         d="M 0,0 5,-5 -12.5,0 5,5 0,0 z"
         style="fill-rule:evenodd;stroke:#000000;stroke-width:1pt"
         transform="matrix(-0.4,0,0,-0.4,-4,0)" />
    </marker>
    <marker
       inkscape:stockid="Arrow1Mstart"
       orient="auto"
       refY="0"
       refX="0"
       id="Arrow1Mstart-7"
       style="overflow:visible">
      <path
         inkscape:connector-curvature="0"
         id="path3771-96"
         d="M 0,0 5,-5 -12.5,0 5,5 0,0 z"
         style="fill-rule:evenodd;stroke:#000000;stroke-width:1pt"
         transform="matrix(0.4,0,0,0.4,4,0)" />
    </marker>
    <marker
       style="overflow:visible"
       id="Arrow2Mstart-8"
       refX="0"
       refY="0"
       orient="auto"
       inkscape:stockid="Arrow2Mstart">
      <path
         inkscape:connector-curvature="0"
         transform="scale(0.6,0.6)"
         d="M 8.7185878,4.0337352 -2.2072895,0.01601326 8.7185884,-4.0017078 c -1.7454984,2.3720609 -1.7354408,5.6174519 -6e-7,8.035443 z"
         style="fill-rule:evenodd;stroke-width:0.625;stroke-linejoin:round"
         id="path3789-0" />
    </marker>
    <marker
       style="overflow:visible"
       id="Arrow1Mend-5"
       refX="0"
       refY="0"
       orient="auto"
       inkscape:stockid="Arrow1Mend">
      <path
         inkscape:connector-curvature="0"
         transform="matrix(-0.4,0,0,-0.4,-4,0)"
         style="fill-rule:evenodd;stroke:#000000;stroke-width:1pt"
         d="M 0,0 5,-5 -12.5,0 5,5 0,0 z"
         id="path3774-8" />
    </marker>
    <marker
       style="overflow:visible"
       id="Arrow1Mstart-2"
       refX="0"
       refY="0"
       orient="auto"
       inkscape:stockid="Arrow1Mstart">
      <path
         inkscape:connector-curvature="0"
         transform="matrix(0.4,0,0,0.4,4,0)"
         style="fill-rule:evenodd;stroke:#000000;stroke-width:1pt"
         d="M 0,0 5,-5 -12.5,0 5,5 0,0 z"
         id="path3771-0" />
    </marker>
    <marker
       style="overflow:visible"
       id="Arrow1Mstart-1"
       refX="0"
       refY="0"
       orient="auto"
       inkscape:stockid="Arrow1Mstart">
      <path
         inkscape:connector-curvature="0"
         transform="matrix(0.4,0,0,0.4,4,0)"
         style="fill-rule:evenodd;stroke:#000000;stroke-width:1pt"
         d="M 0,0 5,-5 -12.5,0 5,5 0,0 z"
         id="path3771-2" />
    </marker>
    <marker
       inkscape:stockid="Arrow1Mstart"
       orient="auto"
       refY="0"
       refX="0"
       id="Arrow1Mstart-8"
       style="overflow:visible">
      <path
         inkscape:connector-curvature="0"
         id="path3771-9"
         d="M 0,0 5,-5 -12.5,0 5,5 0,0 z"
         style="fill-rule:evenodd;stroke:#000000;stroke-width:1pt"
         transform="matrix(0.4,0,0,0.4,4,0)" />
    </marker>
    <marker
       inkscape:stockid="Arrow1Mstart"
       orient="auto"
       refY="0"
       refX="0"
       id="Arrow1Mstart"
       style="overflow:visible">
      <path
         inkscape:connector-curvature="0"
         id="path3771"
         d="M 0,0 5,-5 -12.5,0 5,5 0,0 z"
         style="fill-rule:evenodd;stroke:#000000;stroke-width:1pt"
         transform="matrix(0.4,0,0,0.4,4,0)" />
    </marker>
    <marker
       inkscape:stockid="Arrow1Mend"
       orient="auto"
       refY="0"
       refX="0"
       id="Arrow1Mend"
       style="overflow:visible">
      <path
         inkscape:connector-curvature="0"
         id="path3774"
         d="M 0,0 5,-5 -12.5,0 5,5 0,0 z"
         style="fill-rule:evenodd;stroke:#000000;stroke-width:1pt"
         transform="matrix(-0.4,0,0,-0.4,-4,0)" />
    </marker>
    <marker
       inkscape:stockid="Arrow2Mstart"
       orient="auto"
       refY="0"
       refX="0"
       id="Arrow2Mstart"
       style="overflow:visible">
      <path
         inkscape:connector-curvature="0"
         id="path3789"
         style="fill-rule:evenodd;stroke-width:0.625;stroke-linejoin:round"
         d="M 8.7185878,4.0337352 -2.2072895,0.01601326 8.7185884,-4.0017078 c -1.7454984,2.3720609 -1.7354408,5.6174519 -6e-7,8.035443 z"
         transform="scale(0.6,0.6)" />
    </marker>
    <marker
       inkscape:stockid="Arrow2Mend"
       orient="auto"
       refY="0"
       refX="0"
       id="Arrow2Mend"
       style="overflow:visible">
      <path
         inkscape:connector-curvature="0"
         id="path4770"
         style="fill-rule:evenodd;stroke-width:0.625;stroke-linejoin:round"
         d="M 8.7185878,4.0337352 -2.2072895,0.01601326 8.7185884,-4.0017078 c -1.7454984,2.3720609 -1.7354408,5.6174519 -6e-7,8.035443 z"
         transform="scale(-0.6,-0.6)" />
    </marker>
  </defs>
  <metadata
     id="metadata7">
    <rdf:RDF>
      <cc:Work
         rdf:about="">
        <dc:format>image/svg+xml</dc:format>
        <dc:type
           rdf:resource="http://purl.org/dc/dcmitype/StillImage" />
        <dc:title></dc:title>
      </cc:Work>
    </rdf:RDF>
  </metadata>
  <g
     inkscape:label="Layer 1"
     inkscape:groupmode="layer"
     id="layer1"
     transform="translate(0,-910.62859)">
    <path
       inkscape:connector-curvature="0"
       id="path3021"
       d="m 57.716724,972.47224 69.999996,0"
       style="fill:none;stroke:#000000;stroke-width:1;stroke-linecap:butt;stroke-linejoin:miter;stroke-miterlimit:4;stroke-opacity:1;stroke-dasharray:none;marker-start:url(#Arrow2Mstart-5);marker-end:url(#Arrow2Mend)" />
    <path
       style="fill:none;stroke:#000000;stroke-width:1;stroke-linecap:butt;stroke-linejoin:miter;stroke-miterlimit:4;stroke-opacity:1;stroke-dasharray:none;marker-start:url(#Arrow2Mstart-5);marker-end:url(#Arrow2Mend)"
       d="m 92.716724,1007.4723 0,-70.00006"
       id="path5215"
       inkscape:connector-curvature="0" />
    <path
       inkscape:connector-curvature="0"
       id="path5217"
       d="M 67.917488,997.23925 92.666204,972.49053"
       style="fill:none;stroke:#000000;stroke-width:1px;stroke-linecap:butt;stroke-linejoin:miter;stroke-opacity:1" />
    <g
       id="g5369"
       transform="matrix(1.2,0,0,-1.2,-137.95879,1823.8571)"
       xml:space="preserve"
       stroke-miterlimit="10.433"
       font-style="normal"
       font-variant="normal"
       font-weight="normal"
       font-stretch="normal"
       font-size-adjust="none"
       letter-spacing="normal"
       word-spacing="normal"
       ns0:text="pUvaR"
       ns0:preamble="/home/sriranga/Desktop/Rani_Figure/package.tex"
       style="font-style:normal;font-variant:normal;font-weight:normal;font-stretch:normal;letter-spacing:normal;word-spacing:normal;text-anchor:start;fill:none;stroke:#000000;stroke-width:1;stroke-linecap:butt;stroke-linejoin:miter;stroke-miterlimit:10.43299961;stroke-opacity:1;stroke-dasharray:none;stroke-dashoffset:0"><polygon
         style="fill:#000000;stroke-width:0"
         points="227.93,710.71 227.93,711.35 223.91,711.35 223.91,710.71 "
         id="polygon5371" /><path
         style="fill:#000000;stroke-width:0"
         inkscape:connector-curvature="0"
         d="m 226.21,710.45 -0.02,0 -0.01,0 -0.01,0 -0.01,-0.01 -0.01,0 -0.02,0 -0.01,-0.01 -0.01,0 -0.01,-0.01 -0.01,0 -0.02,-0.01 -0.01,0 -0.01,-0.01 -0.01,0 -0.01,-0.01 -0.01,-0.01 c -0.06,-0.03 -0.12,-0.08 -0.16,-0.14 -0.16,-0.22 -0.06,-0.55 0.15,-0.7 0.1,-0.07 0.25,-0.1 0.37,-0.08 0.33,0.04 0.52,0.46 0.36,0.75 -0.1,0.2 -0.32,0.28 -0.53,0.24 z"
         id="path5373" /><path
         style="fill:#000000;stroke-width:0"
         inkscape:connector-curvature="0"
         d="m 226.4,708.73 -0.04,-0.06 -0.04,-0.06 -0.04,-0.06 -0.02,-0.04 -0.02,-0.03 -0.02,-0.03 -0.02,-0.03 -0.02,-0.02 -0.02,-0.03 -0.03,-0.03 -0.02,-0.03 -0.03,-0.03 -0.02,-0.02 c -0.34,-0.33 -0.86,-0.49 -1.32,-0.37 -0.3,0.07 -0.64,0.24 -0.68,0.59 0,0.05 0,0.1 0.01,0.14 0.05,0.32 0.36,0.48 0.66,0.48 0.17,0 0.36,-0.07 0.46,-0.23 0.1,-0.15 -0.05,-0.32 -0.15,-0.43 -0.07,-0.07 -0.13,-0.12 -0.12,-0.22 0.18,0 0.37,0.07 0.49,0.21 0.21,0.24 0.16,0.7 -0.11,0.89 -0.14,0.09 -0.33,0.13 -0.5,0.13 -0.09,0 -0.18,0 -0.28,-0.03 -0.24,-0.05 -0.43,-0.22 -0.52,-0.44 -0.07,-0.17 -0.09,-0.34 -0.09,-0.52 0,-0.4 0.1,-0.82 0.44,-1.07 0.25,-0.18 0.55,-0.23 0.85,-0.22 0.24,0.01 0.5,0.07 0.71,0.2 0.25,0.17 0.4,0.45 0.47,0.73 0.03,-0.08 0.05,-0.16 0.09,-0.23 0.08,-0.18 0.19,-0.34 0.35,-0.46 0.11,-0.08 0.24,-0.14 0.37,-0.18 0.45,-0.14 1.07,-0.05 1.4,0.32 0.21,0.26 0.24,0.6 0.23,0.93 0,0.4 -0.03,0.81 -0.14,1.21 -0.03,0.16 -0.09,0.32 -0.17,0.46 -0.04,0.06 -0.08,0.13 -0.14,0.17 -0.1,0.07 -0.21,0.03 -0.27,-0.06 -0.07,-0.09 -0.08,-0.21 -0.06,-0.31 0.02,-0.07 0.06,-0.12 0.11,-0.18 0.05,-0.07 0.1,-0.13 0.15,-0.2 0.2,-0.28 0.41,-0.66 0.33,-1.02 -0.03,-0.19 -0.17,-0.35 -0.33,-0.46 -0.21,-0.15 -0.47,-0.21 -0.72,-0.23 -0.22,-0.02 -0.43,0 -0.62,0.11 -0.2,0.12 -0.34,0.32 -0.45,0.52 -0.04,0.08 -0.07,0.17 -0.11,0.24 z"
         id="path5375" /><path
         style="fill:#000000;stroke-width:0"
         inkscape:connector-curvature="0"
         d="m 228.25,712.98 0.03,-0.03 0.03,-0.03 0.03,-0.03 0.01,-0.02 0.01,-0.01 0.02,-0.02 0.01,-0.02 0.01,-0.01 0.02,-0.02 0.01,-0.01 0.01,-0.02 0.01,-0.02 0.01,-0.01 c 0.19,-0.24 0.33,-0.63 0.19,-0.92 -0.05,-0.1 -0.14,-0.17 -0.22,-0.26 -0.08,-0.06 -0.16,-0.13 -0.26,-0.16 -0.12,-0.05 -0.25,-0.04 -0.37,-0.04 h -0.56 v -0.64 h 0.48 c 0.14,0 0.28,0 0.42,0.02 0.25,0.05 0.48,0.17 0.66,0.35 0.23,0.24 0.37,0.58 0.32,0.92 -0.02,0.17 -0.09,0.34 -0.18,0.49 -0.08,0.14 -0.2,0.29 -0.34,0.38 -0.09,0.06 -0.23,0.09 -0.35,0.11 z"
         id="path5377" /><path
         style="fill:#000000;stroke-width:0"
         inkscape:connector-curvature="0"
         d="m 231.26,708.43 -0.01,-0.03 0,-0.02 -0.01,-0.04 0,-0.03 -0.01,-0.02 0,-0.02 0,-0.03 0,-0.02 0,-0.02 0,-0.03 0,-0.01 0,-0.01 0,-0.01 0,-0.01 0,-0.01 0,-0.02 0.01,-0.01 0,-0.01 0,-0.01 0.01,-0.01 c 0.1,-0.27 0.41,-0.37 0.65,-0.23 0.09,0.05 0.17,0.13 0.21,0.23 0.07,0.19 -0.02,0.45 -0.17,0.56 -0.23,0.19 -0.61,0.17 -0.85,0 -0.14,-0.09 -0.22,-0.24 -0.27,-0.4 -0.1,-0.34 -0.07,-0.78 0.21,-1.03 0.08,-0.08 0.19,-0.12 0.29,-0.16 0.28,-0.11 0.61,-0.12 0.91,-0.02 0.12,0.04 0.24,0.08 0.34,0.15 0.5,0.34 0.55,1.01 0.55,1.55 0,0.6 -0.22,1.2 -0.58,1.66 -0.19,0.26 -0.43,0.48 -0.72,0.62 -0.34,0.17 -0.75,0.22 -1.14,0.16 -0.15,-0.02 -0.29,-0.06 -0.43,-0.12 -0.16,-0.08 -0.32,-0.18 -0.43,-0.33 -0.05,-0.08 -0.08,-0.17 -0.12,-0.25 -0.06,-0.13 -0.13,-0.25 -0.16,-0.38 -0.05,-0.23 -0.05,-0.47 -0.03,-0.71 0.01,-0.29 0.06,-0.58 0.11,-0.86 0.01,-0.18 0.05,-0.36 0.08,-0.54 0.07,-0.31 0.13,-0.65 0.07,-0.95 -0.03,-0.1 -0.05,-0.2 -0.1,-0.28 -0.16,-0.23 -0.44,-0.36 -0.7,-0.43 -0.47,-0.13 -0.94,-0.11 -1.4,0.05 -0.18,0.06 -0.36,0.14 -0.52,0.25 -0.17,0.13 -0.34,0.3 -0.46,0.48 -0.04,0.04 -0.07,0.09 -0.1,0.14 -0.02,0.03 -0.03,0.06 -0.07,0.08 -0.03,0.02 -0.08,0.01 -0.12,0.01 -0.09,-0.01 -0.03,-0.12 -0.02,-0.16 0.07,-0.17 0.14,-0.34 0.23,-0.49 0.31,-0.49 0.8,-0.87 1.35,-1.01 0.29,-0.08 0.58,-0.08 0.87,-0.06 0.23,0.03 0.45,0.08 0.66,0.17 0.15,0.06 0.28,0.14 0.4,0.24 0.33,0.28 0.42,0.71 0.42,1.11 0,0.36 -0.12,0.71 -0.22,1.05 -0.11,0.38 -0.21,0.77 -0.2,1.17 0,0.2 0.01,0.41 0.11,0.59 0.3,0.56 1.07,0.61 1.62,0.46 0.1,-0.03 0.2,-0.07 0.3,-0.12 0.47,-0.23 0.89,-0.7 1.01,-1.22 0.08,-0.33 0.04,-0.7 -0.09,-1.01 -0.14,-0.33 -0.39,-0.63 -0.75,-0.7 -0.24,-0.05 -0.51,-0.02 -0.71,0.12 -0.1,0.08 -0.2,0.19 -0.25,0.31 -0.06,0.16 -0.03,0.38 0.07,0.52 0.04,0.06 0.1,0.11 0.16,0.15 z"
         id="path5379" /><path
         style="fill:#000000;stroke-width:0"
         inkscape:connector-curvature="0"
         d="m 234.1,711.35 v -0.64 h 1.78 0.53 c 0.1,0 0.21,0.01 0.31,0 0.41,-0.04 0.79,-0.18 1.13,-0.4 0.45,-0.28 0.83,-0.72 0.91,-1.26 0.02,-0.12 0.03,-0.26 0.01,-0.38 -0.08,-0.48 -0.53,-0.76 -0.99,-0.8 -0.19,-0.02 -0.38,0 -0.54,0.09 -0.21,0.11 -0.36,0.29 -0.48,0.5 -0.05,0.09 -0.09,0.2 -0.14,0.29 -0.1,-0.16 -0.2,-0.33 -0.34,-0.47 -0.35,-0.34 -0.88,-0.51 -1.36,-0.37 -0.28,0.07 -0.58,0.24 -0.63,0.55 -0.01,0.05 -0.01,0.11 0,0.15 0.04,0.33 0.35,0.5 0.66,0.5 0.17,0 0.34,-0.05 0.45,-0.19 0.03,-0.04 0.06,-0.09 0.06,-0.14 0,-0.04 -0.02,-0.08 -0.03,-0.11 -0.03,-0.07 -0.08,-0.14 -0.14,-0.2 -0.05,-0.04 -0.12,-0.09 -0.13,-0.15 -0.01,-0.03 0,-0.05 0,-0.08 0.19,0 0.37,0.07 0.49,0.23 0.08,0.1 0.1,0.21 0.1,0.34 0,0.2 -0.05,0.4 -0.23,0.52 -0.28,0.18 -0.69,0.2 -0.98,0.03 -0.16,-0.1 -0.29,-0.25 -0.36,-0.43 -0.06,-0.15 -0.08,-0.31 -0.08,-0.46 0,-0.37 0.1,-0.77 0.39,-1.03 0.27,-0.24 0.65,-0.32 0.99,-0.28 0.25,0.02 0.48,0.09 0.68,0.24 0.23,0.18 0.37,0.45 0.44,0.73 h 0.01 c 0.02,-0.12 0.08,-0.23 0.13,-0.33 0.09,-0.16 0.21,-0.31 0.36,-0.42 0.44,-0.33 1.11,-0.29 1.55,0.04 0.4,0.3 0.53,0.8 0.5,1.27 0,0.24 -0.04,0.47 -0.14,0.69 -0.14,0.3 -0.36,0.55 -0.61,0.76 -0.2,0.15 -0.42,0.28 -0.65,0.4 -0.12,0.06 -0.26,0.13 -0.38,0.16 v 0.01 h 0.38 v 0.64 z"
         id="path5381" /><path
         style="fill:#000000;stroke-width:0"
         inkscape:connector-curvature="0"
         d="m 238.55,712.98 0.03,-0.03 0.03,-0.03 0.03,-0.03 0.01,-0.02 0.01,-0.01 0.02,-0.02 0.01,-0.02 0.02,-0.01 0.01,-0.02 0.01,-0.01 0.01,-0.02 0.02,-0.02 0.01,-0.01 c 0.18,-0.24 0.33,-0.63 0.19,-0.92 -0.06,-0.1 -0.14,-0.17 -0.23,-0.26 -0.08,-0.06 -0.16,-0.13 -0.26,-0.16 -0.12,-0.05 -0.25,-0.04 -0.37,-0.04 h -0.56 v -0.64 h 0.48 c 0.14,0 0.28,0 0.42,0.02 0.25,0.05 0.49,0.17 0.66,0.35 0.23,0.24 0.37,0.58 0.32,0.92 -0.02,0.17 -0.09,0.34 -0.18,0.49 -0.08,0.14 -0.2,0.29 -0.33,0.38 -0.1,0.06 -0.24,0.09 -0.36,0.11 z"
         id="path5383" /><path
         style="fill:#000000;stroke-width:0"
         inkscape:connector-curvature="0"
         d="m 241.09,709.16 v -0.01 c -0.56,-0.19 -0.99,-0.75 -0.83,-1.36 0.02,-0.09 0.06,-0.19 0.12,-0.27 0.06,-0.1 0.15,-0.19 0.25,-0.25 0.24,-0.15 0.51,-0.13 0.78,-0.13 h 1.02 v 0.54 h -0.94 c -0.2,0 -0.4,-0.02 -0.59,0.07 -0.13,0.07 -0.27,0.18 -0.32,0.32 -0.12,0.29 0.16,0.62 0.42,0.72 0.17,0.07 0.36,0.04 0.54,0.04 h 0.99 v 0.62 h -0.92 c -0.21,0 -0.41,-0.02 -0.6,0.08 -0.13,0.07 -0.26,0.18 -0.31,0.32 -0.03,0.08 -0.02,0.16 -0.01,0.24 0.04,0.2 0.16,0.39 0.36,0.47 0.15,0.07 0.3,0.06 0.46,0.06 h 0.59 2.16 v 0.71 h -2.25 -0.49 c -0.24,0 -0.48,-0.01 -0.7,-0.11 -0.13,-0.06 -0.25,-0.14 -0.35,-0.24 -0.29,-0.31 -0.32,-0.83 -0.13,-1.2 0.11,-0.2 0.28,-0.34 0.47,-0.47 0.09,-0.05 0.18,-0.12 0.28,-0.15 z"
         id="path5385" /></g>    <g
       style="font-style:normal;font-variant:normal;font-weight:normal;font-stretch:normal;letter-spacing:normal;word-spacing:normal;text-anchor:start;fill:none;stroke:#000000;stroke-width:1;stroke-linecap:butt;stroke-linejoin:miter;stroke-miterlimit:10.43299961;stroke-opacity:1;stroke-dasharray:none;stroke-dashoffset:0"
       ns0:preamble="/home/sriranga/Desktop/Rani_Figure/package.tex"
       ns0:text="pashicxma"
       word-spacing="normal"
       letter-spacing="normal"
       font-size-adjust="none"
       font-stretch="normal"
       font-weight="normal"
       font-variant="normal"
       font-style="normal"
       stroke-miterlimit="10.433"
       xml:space="preserve"
       transform="matrix(1.2,0,0,-1.2,-240.48689,1823.8571)"
       id="g5515"><polygon
         id="polygon5517"
         points="227.93,711.35 223.91,711.35 223.91,710.71 227.93,710.71 "
         style="fill:#000000;stroke-width:0" /><path
         id="path5519"
         d="m 226.21,710.45 -0.02,0 -0.01,0 -0.01,0 -0.01,-0.01 -0.01,0 -0.02,0 -0.01,-0.01 -0.01,0 -0.01,-0.01 -0.01,0 -0.02,-0.01 -0.01,0 -0.01,-0.01 -0.01,0 -0.01,-0.01 -0.01,-0.01 c -0.06,-0.03 -0.12,-0.08 -0.16,-0.14 -0.16,-0.22 -0.06,-0.55 0.15,-0.7 0.1,-0.07 0.25,-0.1 0.37,-0.08 0.33,0.04 0.52,0.46 0.36,0.75 -0.1,0.2 -0.32,0.28 -0.53,0.24 z"
         inkscape:connector-curvature="0"
         style="fill:#000000;stroke-width:0" /><path
         id="path5521"
         d="m 226.4,708.73 -0.04,-0.06 -0.04,-0.06 -0.04,-0.06 -0.02,-0.04 -0.02,-0.03 -0.02,-0.03 -0.02,-0.03 -0.02,-0.02 -0.02,-0.03 -0.03,-0.03 -0.02,-0.03 -0.03,-0.03 -0.02,-0.02 c -0.34,-0.33 -0.86,-0.49 -1.32,-0.37 -0.3,0.07 -0.64,0.24 -0.68,0.59 0,0.05 0,0.1 0.01,0.14 0.05,0.32 0.36,0.48 0.66,0.48 0.17,0 0.36,-0.07 0.46,-0.23 0.1,-0.15 -0.05,-0.32 -0.15,-0.43 -0.07,-0.07 -0.13,-0.12 -0.12,-0.22 0.18,0 0.37,0.07 0.49,0.21 0.21,0.24 0.16,0.7 -0.11,0.89 -0.14,0.09 -0.33,0.13 -0.5,0.13 -0.09,0 -0.18,0 -0.28,-0.03 -0.24,-0.05 -0.43,-0.22 -0.52,-0.44 -0.07,-0.17 -0.09,-0.34 -0.09,-0.52 0,-0.4 0.1,-0.82 0.44,-1.07 0.25,-0.18 0.55,-0.23 0.85,-0.22 0.24,0.01 0.5,0.07 0.71,0.2 0.25,0.17 0.4,0.45 0.47,0.73 0.03,-0.08 0.05,-0.16 0.09,-0.23 0.08,-0.18 0.19,-0.34 0.35,-0.46 0.11,-0.08 0.24,-0.14 0.37,-0.18 0.45,-0.14 1.07,-0.05 1.4,0.32 0.21,0.26 0.24,0.6 0.23,0.93 0,0.4 -0.03,0.81 -0.14,1.21 -0.03,0.16 -0.09,0.32 -0.17,0.46 -0.04,0.06 -0.08,0.13 -0.14,0.17 -0.1,0.07 -0.21,0.03 -0.27,-0.06 -0.07,-0.09 -0.08,-0.21 -0.06,-0.31 0.02,-0.07 0.06,-0.12 0.11,-0.18 0.05,-0.07 0.1,-0.13 0.15,-0.2 0.2,-0.28 0.41,-0.66 0.33,-1.02 -0.03,-0.19 -0.17,-0.35 -0.33,-0.46 -0.21,-0.15 -0.47,-0.21 -0.72,-0.23 -0.22,-0.02 -0.43,0 -0.62,0.11 -0.2,0.12 -0.34,0.32 -0.45,0.52 -0.04,0.08 -0.07,0.17 -0.11,0.24 z"
         inkscape:connector-curvature="0"
         style="fill:#000000;stroke-width:0" /><path
         id="path5523"
         d="m 228.25,712.98 0.03,-0.03 0.03,-0.03 0.03,-0.03 0.01,-0.02 0.01,-0.01 0.02,-0.02 0.01,-0.02 0.01,-0.01 0.02,-0.02 0.01,-0.01 0.01,-0.02 0.01,-0.02 0.01,-0.01 c 0.19,-0.24 0.33,-0.63 0.19,-0.92 -0.05,-0.1 -0.14,-0.17 -0.22,-0.26 -0.08,-0.06 -0.16,-0.13 -0.26,-0.16 -0.12,-0.05 -0.25,-0.04 -0.37,-0.04 h -0.56 v -0.64 h 0.48 c 0.14,0 0.28,0 0.42,0.02 0.25,0.05 0.48,0.17 0.66,0.35 0.23,0.24 0.37,0.58 0.32,0.92 -0.02,0.17 -0.09,0.34 -0.18,0.49 -0.08,0.14 -0.2,0.29 -0.34,0.38 -0.09,0.06 -0.23,0.09 -0.35,0.11 z"
         inkscape:connector-curvature="0"
         style="fill:#000000;stroke-width:0" /><path
         id="path5525"
         d="m 231.4,711.93 0.04,-0.02 0.04,-0.02 0.04,-0.02 0.02,-0.01 0.01,-0.01 0.02,-0.02 0.02,-0.01 0.02,-0.01 0.01,-0.01 0.02,-0.01 0.02,-0.02 0.02,-0.01 0.01,-0.02 c 0.26,-0.2 0.42,-0.48 0.56,-0.78 -0.06,0.01 -0.12,0.02 -0.18,0.03 -0.1,0.01 -0.19,0 -0.29,0 -0.27,0 -0.54,-0.03 -0.78,-0.17 -0.11,-0.07 -0.2,-0.16 -0.26,-0.27 -0.12,-0.22 -0.12,-0.53 0.05,-0.72 0.11,-0.12 0.26,-0.16 0.41,-0.18 0.05,-0.01 0.1,-0.01 0.15,0 0.14,0.02 0.3,0.11 0.37,0.25 0.03,0.07 0.04,0.15 0.03,0.21 -0.01,0.05 -0.02,0.1 -0.05,0.14 -0.16,0.34 -0.66,0.23 -0.81,-0.08 -0.05,0.18 0.06,0.33 0.2,0.43 0.26,0.18 0.54,0.2 0.84,0.2 0.09,0 0.17,-0.01 0.26,-0.02 0.04,-0.01 0.08,-0.01 0.11,-0.03 0.05,-0.04 0.06,-0.14 0.06,-0.19 l 0.18,0.09 c 0.3,-0.13 0.56,-0.32 0.73,-0.6 0.08,-0.15 0.14,-0.32 0.19,-0.5 0.05,-0.24 0.08,-0.53 -0.01,-0.77 -0.07,-0.17 -0.17,-0.31 -0.3,-0.44 -0.36,-0.35 -0.86,-0.5 -1.35,-0.55 -0.15,-0.02 -0.31,-0.03 -0.45,-0.02 -0.07,0.01 -0.15,0.02 -0.22,0.03 -0.3,0.05 -0.7,0.1 -0.82,0.43 -0.01,0.04 -0.02,0.09 -0.02,0.13 0,0.07 0.01,0.14 0.03,0.19 0.02,0.07 0.05,0.13 0.09,0.19 0.03,0.05 0.07,0.09 0.12,0.12 0.15,0.11 0.35,0.16 0.54,0.15 0.12,-0.01 0.25,-0.03 0.36,-0.04 0.09,0 0.18,0.01 0.27,0.03 0.09,0.01 0.18,0.04 0.27,0.08 0.08,0.04 0.15,0.08 0.21,0.14 0.3,0.26 0.39,0.66 0.39,1.03 0,0.14 0,0.27 -0.03,0.4 h 0 l -0.18,-0.09 c 0.03,-0.18 0.03,-0.38 0.01,-0.55 -0.02,-0.12 -0.05,-0.23 -0.11,-0.34 -0.16,-0.32 -0.52,-0.47 -0.86,-0.47 -0.13,0 -0.26,0.04 -0.39,0.06 -0.34,0.03 -0.73,-0.03 -0.94,-0.33 -0.04,-0.07 -0.08,-0.16 -0.11,-0.24 -0.03,-0.11 -0.04,-0.24 -0.04,-0.37 0,-0.16 0.03,-0.32 0.09,-0.47 0.23,-0.53 0.84,-0.67 1.36,-0.7 0.17,-0.01 0.34,-0.01 0.51,0 0.57,0.02 1.19,0.15 1.58,0.61 0.09,0.11 0.17,0.23 0.23,0.36 0.08,0.17 0.13,0.35 0.15,0.53 0.07,0.41 0.04,0.88 -0.15,1.27 -0.11,0.24 -0.29,0.44 -0.49,0.61 -0.13,0.1 -0.28,0.19 -0.44,0.26 -0.05,0.03 -0.11,0.05 -0.16,0.07 -0.03,0.01 -0.07,0.02 -0.1,0.05 -0.04,0.04 -0.04,0.12 -0.06,0.18 -0.05,0.12 -0.09,0.24 -0.15,0.35 -0.23,0.42 -0.62,0.77 -1.09,0.88 -0.12,0.03 -0.23,0.03 -0.35,0.03 -0.16,0 -0.32,-0.01 -0.46,-0.1 -0.26,-0.17 -0.24,-0.57 -0.13,-0.81 0.03,-0.07 0.07,-0.13 0.12,-0.18 l 0.16,0.18 c -0.04,0.06 -0.06,0.11 -0.06,0.18 h 0 c -0.01,0.04 -0.01,0.09 0,0.12 0,0.03 0.01,0.07 0.03,0.1 0.09,0.18 0.32,0.17 0.49,0.13 0.13,-0.04 0.27,-0.11 0.29,-0.26 0,-0.05 0,-0.1 -0.01,-0.14 -0.09,-0.33 -0.54,-0.41 -0.74,-0.13 l -0.16,-0.18 c 0.28,-0.28 0.87,-0.24 1.05,0.13 0.08,0.16 0.05,0.37 -0.03,0.54 z"
         inkscape:connector-curvature="0"
         style="fill:#000000;stroke-width:0" /><path
         id="path5527"
         d="m 232.19,705.25 0,0.02 -0.01,0.01 0,0.02 -0.01,0.02 -0.02,0.04 -0.01,0.04 -0.02,0.04 -0.02,0.03 -0.01,0.04 -0.02,0.04 0,0.02 -0.01,0.02 0,0.02 -0.01,0.02 0,0.02 -0.01,0.02 0,0.02 0,0.02 0,0.02 0,0.02 0,0.02 0.01,0.01 0,0.02 0.01,0.02 0,0.02 0.01,0.02 c 0.02,0.06 0.08,0.11 0.13,0.15 0.05,0.04 0.1,0.06 0.15,0.08 0.32,0.11 0.59,-0.18 0.62,-0.48 0.03,-0.18 -0.13,-0.28 -0.25,-0.4 -0.22,-0.22 -0.52,-0.45 -0.57,-0.78 -0.01,-0.15 -0.03,-0.28 -0.01,-0.43 0.01,-0.08 0.04,-0.16 0.07,-0.23 0.14,-0.28 0.45,-0.33 0.73,-0.28 0.28,0.06 0.5,0.2 0.71,0.38 0.12,0.11 0.25,0.22 0.33,0.37 H 234 c 0.07,-0.15 0.17,-0.28 0.26,-0.42 0.07,-0.09 0.12,-0.19 0.22,-0.25 0.08,-0.06 0.17,-0.07 0.27,-0.07 0.33,0 0.61,0.24 0.74,0.53 0.05,0.12 0.08,0.26 0.07,0.39 -0.04,0.27 -0.27,0.49 -0.51,0.59 v 0.01 h 0.82 v 0.52 h -0.52 c 0.07,0.06 0.13,0.13 0.16,0.22 0.07,0.22 -0.06,0.46 -0.26,0.55 -0.09,0.05 -0.2,0.03 -0.3,0.03 0.07,-0.1 0.16,-0.18 0.21,-0.29 0.03,-0.05 0.06,-0.11 0.06,-0.17 0,-0.15 -0.15,-0.29 -0.28,-0.34 -0.1,-0.03 -0.23,-0.01 -0.33,-0.01 h -0.68 v -0.51 h 0.4 c 0.07,0 0.15,0.01 0.22,0 0.06,-0.02 0.12,-0.05 0.17,-0.08 0.13,-0.07 0.29,-0.16 0.36,-0.29 0.07,-0.11 0.03,-0.23 -0.04,-0.32 -0.12,-0.15 -0.36,-0.26 -0.55,-0.21 -0.05,0.03 -0.09,0.05 -0.13,0.09 -0.09,0.07 -0.17,0.15 -0.24,0.24 -0.05,0.06 -0.09,0.13 -0.16,0.17 -0.2,-0.32 -0.54,-0.53 -0.92,-0.53 -0.23,0 -0.46,0.11 -0.49,0.36 -0.02,0.14 0.05,0.22 0.13,0.32 0.05,0.06 0.09,0.13 0.14,0.19 0.12,0.16 0.27,0.3 0.35,0.49 0.15,0.34 0.02,0.81 -0.33,0.98 -0.25,0.12 -0.57,0.14 -0.81,0 -0.24,-0.14 -0.37,-0.45 -0.29,-0.73 0.02,-0.1 0.08,-0.18 0.16,-0.25 0.08,-0.09 0.18,-0.15 0.29,-0.2 z"
         inkscape:connector-curvature="0"
         style="fill:#000000;stroke-width:0" /><path
         id="path5529"
         d="m 236.18,711.35 v -0.64 h 1.79 0.52 c 0.1,0 0.21,0.01 0.31,0 0.41,-0.04 0.8,-0.18 1.14,-0.4 0.44,-0.28 0.82,-0.72 0.9,-1.26 0.02,-0.12 0.03,-0.26 0.01,-0.38 -0.08,-0.48 -0.53,-0.76 -0.98,-0.8 -0.19,-0.02 -0.38,0 -0.55,0.09 -0.21,0.11 -0.36,0.29 -0.48,0.5 -0.05,0.09 -0.09,0.2 -0.14,0.29 -0.1,-0.16 -0.2,-0.33 -0.34,-0.47 -0.34,-0.34 -0.88,-0.51 -1.36,-0.37 -0.28,0.07 -0.58,0.24 -0.63,0.55 -0.01,0.05 -0.01,0.11 0,0.15 0.04,0.33 0.35,0.5 0.66,0.5 0.17,0 0.34,-0.05 0.45,-0.19 0.03,-0.04 0.07,-0.09 0.07,-0.14 0,-0.04 -0.02,-0.08 -0.03,-0.11 -0.04,-0.07 -0.09,-0.14 -0.14,-0.2 -0.05,-0.04 -0.13,-0.09 -0.14,-0.15 -0.01,-0.03 0,-0.05 0,-0.08 0.19,0 0.38,0.07 0.5,0.23 0.08,0.1 0.1,0.21 0.1,0.34 0,0.2 -0.05,0.4 -0.23,0.52 -0.28,0.18 -0.7,0.2 -0.99,0.03 -0.16,-0.1 -0.28,-0.25 -0.36,-0.43 -0.05,-0.15 -0.08,-0.31 -0.08,-0.46 0,-0.37 0.11,-0.77 0.39,-1.03 0.27,-0.24 0.65,-0.32 1,-0.28 0.25,0.02 0.48,0.09 0.67,0.24 0.23,0.18 0.37,0.45 0.44,0.73 h 0.01 c 0.02,-0.12 0.08,-0.23 0.13,-0.33 0.09,-0.16 0.21,-0.31 0.36,-0.42 0.45,-0.33 1.11,-0.29 1.55,0.04 0.4,0.3 0.53,0.8 0.51,1.27 -0.01,0.24 -0.05,0.47 -0.15,0.69 -0.14,0.3 -0.36,0.55 -0.61,0.76 -0.19,0.15 -0.41,0.28 -0.64,0.4 -0.12,0.06 -0.26,0.13 -0.39,0.16 v 0.01 h 0.39 v 0.64 z"
         inkscape:connector-curvature="0"
         style="fill:#000000;stroke-width:0" /><path
         id="path5531"
         d="m 240.63,712.98 0.03,-0.03 0.03,-0.03 0.03,-0.03 0.01,-0.02 0.02,-0.01 0.01,-0.02 0.02,-0.02 0.01,-0.01 0.01,-0.02 0.02,-0.01 0.01,-0.02 0.01,-0.02 0.01,-0.01 c 0.18,-0.24 0.33,-0.63 0.19,-0.92 -0.06,-0.1 -0.14,-0.17 -0.23,-0.26 -0.08,-0.06 -0.16,-0.13 -0.26,-0.16 -0.12,-0.05 -0.25,-0.04 -0.37,-0.04 h -0.55 v -0.64 h 0.47 c 0.14,0 0.28,0 0.42,0.02 0.25,0.05 0.49,0.17 0.67,0.35 0.23,0.24 0.37,0.58 0.32,0.92 -0.02,0.17 -0.09,0.34 -0.18,0.49 -0.08,0.14 -0.2,0.29 -0.34,0.38 -0.1,0.06 -0.24,0.09 -0.36,0.11 z"
         inkscape:connector-curvature="0"
         style="fill:#000000;stroke-width:0" /><path
         id="path5533"
         d="m 241.51,708.75 0.01,-0.07 0,-0.07 0.01,-0.07 0.01,-0.07 0.01,-0.07 0.02,-0.07 0.01,-0.07 0.02,-0.07 0.02,-0.07 0.02,-0.07 0.03,-0.07 0.02,-0.06 0.03,-0.07 0.02,-0.07 0.03,-0.06 0.03,-0.07 c 0.06,-0.12 0.08,-0.25 0.18,-0.35 0.11,-0.09 0.25,-0.14 0.39,-0.14 0.28,-0.05 0.59,0.01 0.82,0.15 0.34,0.2 0.55,0.58 0.65,0.95 0.05,0.18 0.08,0.35 0.09,0.53 0.02,0.31 0.01,0.62 -0.08,0.92 -0.09,0.29 -0.24,0.55 -0.43,0.79 -0.28,0.35 -0.63,0.6 -1.08,0.65 -0.12,0.02 -0.29,0.03 -0.41,-0.01 -0.07,-0.03 -0.09,-0.1 -0.1,-0.17 -0.01,-0.14 0.03,-0.31 0.16,-0.38 0.11,-0.06 0.24,-0.05 0.36,-0.06 0.08,-0.01 0.15,-0.02 0.23,-0.04 0.3,-0.07 0.56,-0.25 0.79,-0.45 0.18,-0.17 0.33,-0.39 0.38,-0.64 0.08,-0.44 -0.14,-0.89 -0.45,-1.2 -0.16,-0.16 -0.35,-0.28 -0.57,-0.33 -0.24,-0.04 -0.49,-0.01 -0.7,0.12 -0.06,0.04 -0.14,0.1 -0.18,0.16 -0.03,0.05 -0.03,0.12 -0.05,0.18 -0.02,0.09 -0.06,0.17 -0.08,0.26 -0.02,0.03 -0.02,0.11 -0.06,0.14 -0.04,0.03 -0.11,0.02 -0.15,0.02 z"
         inkscape:connector-curvature="0"
         style="fill:#000000;stroke-width:0" /></g>    <g
       id="g5685"
       transform="matrix(1.2,0,0,-1.2,-186.13819,1782.7283)"
       xml:space="preserve"
       stroke-miterlimit="10.433"
       font-style="normal"
       font-variant="normal"
       font-weight="normal"
       font-stretch="normal"
       font-size-adjust="none"
       letter-spacing="normal"
       word-spacing="normal"
       ns0:text="utatxra"
       ns0:preamble="/home/sriranga/Desktop/Rani_Figure/package.tex"
       style="font-style:normal;font-variant:normal;font-weight:normal;font-stretch:normal;letter-spacing:normal;word-spacing:normal;text-anchor:start;fill:none;stroke:#000000;stroke-width:1;stroke-linecap:butt;stroke-linejoin:miter;stroke-miterlimit:10.43299961;stroke-opacity:1;stroke-dasharray:none;stroke-dashoffset:0"><path
         style="fill:#000000;stroke-width:0"
         inkscape:connector-curvature="0"
         d="m 224.36,710.43 0.21,-0.07 c -0.02,0.11 -0.01,0.27 0.06,0.36 0.07,0.08 0.17,0.13 0.27,0.15 0.1,0.03 0.22,0.04 0.33,0.02 0.2,-0.04 0.41,-0.22 0.44,-0.43 0.02,-0.2 -0.12,-0.36 -0.28,-0.44 -0.1,-0.06 -0.23,-0.11 -0.35,-0.1 -0.22,0.02 -0.44,0.22 -0.47,0.44 h 0 l -0.21,0.07 c 0.03,-0.08 0.03,-0.17 0.05,-0.25 0.03,-0.13 0.08,-0.28 0.15,-0.41 0.06,-0.11 0.15,-0.2 0.24,-0.27 0.26,-0.17 0.68,-0.18 0.9,0.06 0.14,0.16 0.16,0.38 0.16,0.58 0,0.38 -0.05,0.78 -0.35,1.07 -0.3,0.29 -0.84,0.34 -1.16,0.05 -0.11,-0.11 -0.19,-0.26 -0.25,-0.41 -0.15,-0.35 -0.2,-0.69 -0.18,-1.07 0.02,-0.32 0,-0.66 0.1,-0.97 0.07,-0.2 0.17,-0.37 0.28,-0.54 0.4,-0.62 1.01,-1.12 1.78,-1.12 0.15,0 0.31,0.01 0.45,0.06 0.08,0.02 0.15,0.06 0.21,0.11 0.47,0.31 0.54,0.94 0.47,1.45 -0.01,0.1 -0.03,0.2 -0.06,0.3 -0.02,0.1 -0.07,0.2 -0.11,0.3 -0.02,0.08 -0.04,0.17 -0.06,0.26 -0.02,0.07 -0.04,0.15 -0.05,0.22 0,0.26 0.13,0.5 0.32,0.69 0.09,0.09 0.18,0.16 0.3,0.21 0.14,0.05 0.3,0.06 0.45,0.04 0.44,-0.07 0.76,-0.41 0.84,-0.83 0.05,-0.26 0.03,-0.53 0.03,-0.79 0,-0.19 0.01,-0.37 0.03,-0.56 0.02,-0.24 0.04,-0.49 0.11,-0.73 0.06,-0.2 0.17,-0.39 0.33,-0.52 0.35,-0.29 0.92,-0.27 1.29,-0.06 0.32,0.18 0.54,0.51 0.68,0.84 0.36,0.78 0.3,1.69 -0.12,2.43 -0.19,0.34 -0.43,0.65 -0.75,0.86 -0.12,0.08 -0.27,0.18 -0.42,0.14 -0.04,-0.02 -0.07,-0.04 -0.1,-0.06 -0.19,-0.19 -0.05,-0.47 0.13,-0.6 0.17,-0.13 0.36,-0.23 0.52,-0.36 0.08,-0.06 0.14,-0.13 0.21,-0.2 0.41,-0.4 0.75,-1.05 0.48,-1.63 -0.07,-0.13 -0.16,-0.24 -0.26,-0.35 -0.14,-0.15 -0.3,-0.27 -0.48,-0.38 -0.1,-0.05 -0.2,-0.09 -0.31,-0.12 -0.08,-0.01 -0.16,-0.02 -0.24,-0.02 -0.1,0.01 -0.19,0.03 -0.28,0.07 -0.29,0.13 -0.45,0.45 -0.52,0.74 -0.05,0.19 -0.08,0.39 -0.1,0.59 -0.01,0.13 -0.01,0.25 -0.01,0.38 0,0.08 -0.01,0.17 -0.01,0.25 0,0.5 -0.03,1.16 -0.49,1.48 -0.06,0.04 -0.12,0.08 -0.19,0.1 -0.12,0.05 -0.25,0.08 -0.38,0.09 -0.31,0.02 -0.65,-0.02 -0.89,-0.24 -0.05,-0.05 -0.1,-0.11 -0.14,-0.17 -0.05,-0.08 -0.09,-0.16 -0.11,-0.25 -0.06,-0.17 -0.09,-0.35 -0.09,-0.53 -0.02,-0.31 0,-0.6 0.06,-0.9 0.03,-0.12 0.05,-0.25 0.07,-0.37 0.02,-0.07 0.04,-0.15 0.05,-0.22 0.02,-0.28 -0.1,-0.58 -0.31,-0.77 -0.52,-0.47 -1.33,-0.23 -1.79,0.18 -0.23,0.21 -0.42,0.44 -0.55,0.72 -0.13,0.3 -0.16,0.67 -0.1,0.99 0.03,0.16 0.1,0.29 0.17,0.44 z"
         id="path5687" /><path
         style="fill:#000000;stroke-width:0"
         inkscape:connector-curvature="0"
         d="m 232.51,711.35 v -0.64 h 1.7 0.54 c 0.11,0 0.22,0.01 0.32,-0.01 0.19,-0.03 0.41,-0.15 0.49,-0.33 0.05,-0.1 0.05,-0.2 0.05,-0.3 l -0.05,-0.18 c -0.11,-0.37 -0.51,-0.55 -0.86,-0.58 -0.18,-0.02 -0.37,0 -0.51,0.12 -0.14,0.11 -0.12,0.3 0.01,0.41 0.1,0.1 0.25,0.13 0.37,0.16 0.13,0.02 0.27,0.02 0.4,0.02 0.21,0 0.39,-0.09 0.59,-0.13 h 0 l 0.05,0.18 c -0.24,0.09 -0.49,0.11 -0.75,0.11 -0.31,0 -0.61,-0.02 -0.87,-0.2 -0.26,-0.18 -0.37,-0.64 -0.14,-0.89 0.15,-0.16 0.39,-0.21 0.6,-0.23 0.39,-0.04 0.77,0.09 1.08,0.33 0.16,0.12 0.3,0.28 0.37,0.47 0.13,-0.11 0.25,-0.24 0.32,-0.39 0.11,-0.24 0.07,-0.53 -0.07,-0.73 -0.09,-0.14 -0.23,-0.25 -0.37,-0.34 -0.16,-0.09 -0.32,-0.18 -0.5,-0.23 -0.14,-0.05 -0.28,-0.08 -0.43,-0.09 -0.16,-0.02 -0.31,-0.03 -0.46,-0.01 -0.53,0.04 -1.12,0.2 -1.42,0.68 -0.06,0.07 -0.09,0.17 -0.12,0.26 -0.04,0.13 -0.06,0.27 -0.06,0.4 -0.03,0 -0.07,0 -0.1,-0.02 -0.04,-0.02 -0.06,-0.08 -0.07,-0.12 -0.05,-0.12 -0.08,-0.23 -0.08,-0.36 -0.02,-0.48 0.27,-0.88 0.66,-1.15 0.76,-0.52 1.87,-0.54 2.66,-0.07 0.43,0.25 0.75,0.64 0.78,1.16 0.01,0.07 0.01,0.16 -0.01,0.24 -0.04,0.27 -0.17,0.53 -0.36,0.73 -0.06,0.06 -0.12,0.12 -0.19,0.17 -0.04,0.03 -0.09,0.06 -0.11,0.1 -0.02,0.04 -0.02,0.07 -0.02,0.11 0,0.05 -0.01,0.09 -0.02,0.15 -0.03,0.13 -0.1,0.27 -0.18,0.39 -0.08,0.1 -0.17,0.19 -0.27,0.26 -0.05,0.03 -0.15,0.05 -0.18,0.11 -0.03,0.03 -0.02,0.09 -0.02,0.13 v 0.31 z"
         id="path5689" /><path
         style="fill:#000000;stroke-width:0"
         inkscape:connector-curvature="0"
         d="m 235.99,712.98 0.03,-0.03 0.03,-0.03 0.03,-0.03 0.02,-0.02 0.01,-0.01 0.02,-0.02 0.01,-0.02 0.01,-0.01 0.02,-0.02 0.01,-0.01 0.01,-0.02 0.01,-0.02 0.01,-0.01 c 0.18,-0.24 0.33,-0.63 0.19,-0.92 -0.06,-0.1 -0.14,-0.17 -0.23,-0.26 -0.08,-0.06 -0.16,-0.13 -0.26,-0.16 -0.11,-0.05 -0.24,-0.04 -0.36,-0.04 h -0.56 v -0.64 h 0.48 c 0.14,0 0.28,0 0.41,0.02 0.25,0.05 0.49,0.17 0.67,0.35 0.23,0.24 0.37,0.58 0.32,0.92 -0.02,0.17 -0.09,0.34 -0.18,0.49 -0.08,0.14 -0.2,0.29 -0.34,0.38 -0.1,0.06 -0.24,0.09 -0.36,0.11 z"
         id="path5691" /><path
         style="fill:#000000;stroke-width:0"
         inkscape:connector-curvature="0"
         d="m 237.53,705.13 h -2.86 v -0.61 h 2.37 0.51 c 0.24,0 0.47,0.01 0.68,0.12 0.51,0.27 0.61,0.91 0.54,1.43 l -0.2,-0.12 c 0.02,-0.07 0.01,-0.15 0,-0.22 h 0 c -0.02,-0.2 -0.1,-0.43 -0.29,-0.54 -0.06,-0.04 -0.13,-0.06 -0.2,-0.06 -0.11,0 -0.22,0.02 -0.31,0.08 -0.19,0.12 -0.29,0.38 -0.27,0.59 0.01,0.1 0.08,0.19 0.14,0.26 0.1,0.11 0.25,0.23 0.4,0.25 0.21,0.02 0.46,-0.16 0.53,-0.36 l 0.2,0.12 c -0.03,0.25 -0.1,0.52 -0.33,0.66 -0.2,0.12 -0.48,0.14 -0.69,0.03 -0.15,-0.08 -0.27,-0.22 -0.34,-0.37 -0.2,-0.39 -0.16,-0.92 0.12,-1.26 z"
         id="path5693" /><path
         style="fill:#000000;stroke-width:0"
         inkscape:connector-curvature="0"
         d="m 239.36,711.35 v -0.64 h 1.1 v -0.01 l 0.22,-0.1 c 0.64,0.27 1.38,0.09 1.86,-0.39 0.21,-0.19 0.36,-0.46 0.39,-0.75 0.04,-0.42 -0.15,-0.8 -0.44,-1.08 -0.3,-0.3 -0.67,-0.5 -1.09,-0.52 -0.6,-0.03 -1.25,0.3 -1.53,0.83 -0.09,0.17 -0.13,0.35 -0.14,0.54 h 0 c -0.03,0.38 0.13,0.73 0.39,0.98 0.16,0.16 0.35,0.3 0.56,0.39 l -0.22,0.1 c -0.08,-0.03 -0.14,-0.08 -0.21,-0.12 -0.13,-0.09 -0.26,-0.19 -0.37,-0.3 -0.15,-0.16 -0.28,-0.34 -0.37,-0.54 -0.07,-0.14 -0.11,-0.29 -0.13,-0.44 -0.11,-0.75 0.28,-1.49 0.92,-1.87 0.34,-0.21 0.76,-0.31 1.16,-0.27 0.68,0.04 1.34,0.41 1.66,1.05 0.24,0.47 0.27,1.08 0.05,1.57 -0.16,0.34 -0.45,0.64 -0.79,0.83 -0.14,0.08 -0.31,0.17 -0.47,0.2 v 0.54 z"
         id="path5695" /><path
         style="fill:#000000;stroke-width:0"
         inkscape:connector-curvature="0"
         d="m 242.81,712.98 0.03,-0.03 0.03,-0.03 0.02,-0.03 0.02,-0.02 0.01,-0.01 0.02,-0.02 0.01,-0.02 0.01,-0.01 0.02,-0.02 0.01,-0.01 0.01,-0.02 0.01,-0.02 0.01,-0.01 c 0.18,-0.24 0.33,-0.63 0.19,-0.92 -0.06,-0.1 -0.14,-0.17 -0.22,-0.26 -0.09,-0.06 -0.16,-0.13 -0.26,-0.16 -0.12,-0.05 -0.25,-0.04 -0.37,-0.04 h -0.56 v -0.64 h 0.48 c 0.14,0 0.28,0 0.42,0.02 0.25,0.05 0.48,0.17 0.66,0.35 0.23,0.24 0.37,0.58 0.32,0.92 -0.02,0.17 -0.09,0.34 -0.18,0.49 -0.08,0.14 -0.2,0.29 -0.34,0.38 -0.1,0.06 -0.23,0.09 -0.35,0.11 z"
         id="path5697" /></g>    <g
       style="font-style:normal;font-variant:normal;font-weight:normal;font-stretch:normal;letter-spacing:normal;word-spacing:normal;text-anchor:start;fill:none;stroke:#000000;stroke-width:1;stroke-linecap:butt;stroke-linejoin:miter;stroke-miterlimit:10.43299961;stroke-opacity:1;stroke-dasharray:none;stroke-dashoffset:0"
       ns0:preamble="/home/sriranga/Desktop/Rani_Figure/package.tex"
       ns0:text="dakiSxNa"
       word-spacing="normal"
       letter-spacing="normal"
       font-size-adjust="none"
       font-stretch="normal"
       font-weight="normal"
       font-variant="normal"
       font-style="normal"
       stroke-miterlimit="10.433"
       xml:space="preserve"
       transform="matrix(1.2,0,0,-1.2,-184.96308,1865.8672)"
       id="g5857"><path
         id="path5859"
         d="m 223.91,711.35 v -0.64 h 1.44 v -0.01 c -0.17,-0.06 -0.33,-0.17 -0.47,-0.27 -0.19,-0.14 -0.38,-0.29 -0.53,-0.49 -0.33,-0.42 -0.48,-0.97 -0.43,-1.49 0.03,-0.36 0.15,-0.74 0.42,-1 0.26,-0.25 0.62,-0.33 0.97,-0.29 0.16,0.02 0.31,0.06 0.45,0.14 0.32,0.19 0.57,0.54 0.66,0.9 h 0.01 c 0.03,-0.14 0.11,-0.28 0.19,-0.4 0.11,-0.18 0.25,-0.36 0.44,-0.48 0.42,-0.25 1.03,-0.23 1.41,0.09 0.32,0.29 0.46,0.7 0.48,1.13 0.01,0.22 -0.01,0.45 -0.07,0.67 -0.14,0.49 -0.47,0.91 -0.88,1.2 -0.15,0.11 -0.33,0.23 -0.51,0.29 l -0.02,-0.18 c 0.63,-0.28 1.12,-0.86 1.12,-1.57 0,-0.11 0,-0.22 -0.03,-0.33 -0.08,-0.29 -0.3,-0.57 -0.59,-0.69 -0.28,-0.12 -0.66,-0.09 -0.93,0.05 -0.22,0.12 -0.38,0.34 -0.5,0.55 -0.04,0.06 -0.08,0.14 -0.11,0.22 h 0 c -0.07,-0.09 -0.11,-0.2 -0.17,-0.29 -0.14,-0.23 -0.33,-0.44 -0.59,-0.53 -0.13,-0.05 -0.28,-0.07 -0.42,-0.07 -0.12,0 -0.23,0.02 -0.34,0.05 -0.09,0.04 -0.17,0.08 -0.24,0.14 -0.55,0.44 -0.46,1.3 -0.09,1.82 0.07,0.1 0.15,0.18 0.24,0.28 0.44,0.41 1.02,0.57 1.62,0.57 0.35,0 0.7,-0.05 1.03,-0.2 l 0.02,0.18 v 0.01 h 0.29 v 0.64 z"
         inkscape:connector-curvature="0"
         style="fill:#000000;stroke-width:0" /><path
         id="path5861"
         d="m 228.31,712.98 0.03,-0.03 0.03,-0.03 0.02,-0.03 0.02,-0.02 0.01,-0.01 0.02,-0.02 0.01,-0.02 0.01,-0.01 0.02,-0.02 0.01,-0.01 0.01,-0.02 0.01,-0.02 0.01,-0.01 c 0.18,-0.24 0.33,-0.63 0.19,-0.92 -0.06,-0.1 -0.14,-0.17 -0.22,-0.26 -0.08,-0.06 -0.16,-0.13 -0.26,-0.16 -0.12,-0.05 -0.25,-0.04 -0.37,-0.04 h -0.56 v -0.64 h 0.48 c 0.14,0 0.28,0 0.42,0.02 0.25,0.05 0.48,0.17 0.66,0.35 0.23,0.24 0.37,0.58 0.32,0.92 -0.02,0.17 -0.09,0.34 -0.18,0.49 -0.08,0.14 -0.2,0.29 -0.34,0.38 -0.09,0.06 -0.23,0.09 -0.35,0.11 z"
         inkscape:connector-curvature="0"
         style="fill:#000000;stroke-width:0" /><path
         id="path5863"
         d="m 232.06,710.98 -0.13,0.28 c -0.11,-0.19 -0.36,-0.2 -0.55,-0.14 -0.18,0.06 -0.32,0.18 -0.29,0.39 0.02,0.14 0.09,0.25 0.21,0.33 0.24,0.14 0.62,0.05 0.68,-0.25 0.01,-0.05 0.01,-0.12 0,-0.18 h 0 c -0.01,-0.05 -0.02,-0.1 -0.05,-0.15 l 0.13,-0.28 h 0.01 c -0.02,-0.11 -0.05,-0.22 -0.1,-0.32 -0.14,-0.25 -0.4,-0.44 -0.67,-0.48 -0.16,-0.02 -0.34,-0.01 -0.51,-0.01 h -0.81 v -0.62 h 0.91 v -0.01 l 0.31,-0.07 c 0.49,0.24 1.23,-0.06 1.34,-0.63 0.02,-0.09 0.02,-0.18 0,-0.26 h 0 c -0.01,-0.08 -0.03,-0.16 -0.07,-0.24 -0.18,-0.37 -0.66,-0.55 -1.06,-0.47 -0.14,0.03 -0.29,0.1 -0.41,0.2 -0.13,0.1 -0.24,0.24 -0.27,0.41 -0.02,0.1 -0.02,0.18 -0.01,0.28 0.04,0.29 0.21,0.59 0.48,0.71 l -0.31,0.07 c -0.12,-0.07 -0.22,-0.17 -0.31,-0.27 -0.33,-0.39 -0.45,-1 -0.19,-1.46 0.15,-0.26 0.39,-0.48 0.67,-0.59 0.2,-0.07 0.4,-0.1 0.61,-0.08 0.56,0.02 1.1,0.37 1.28,0.91 0.04,0.13 0.06,0.27 0.06,0.41 0,0.12 -0.02,0.23 -0.06,0.35 -0.05,0.15 -0.13,0.29 -0.23,0.41 -0.1,0.12 -0.22,0.25 -0.36,0.32 v 0.01 h 0.84 v 0.62 h -1.38 c 0.3,0.26 0.59,0.61 0.65,1.02 0.01,0.15 0,0.32 -0.04,0.47 -0.07,0.2 -0.19,0.41 -0.37,0.54 -0.27,0.2 -0.66,0.22 -0.9,-0.03 -0.33,-0.35 -0.38,-0.98 -0.06,-1.35 0.26,-0.32 0.79,-0.2 0.96,0.16 z"
         inkscape:connector-curvature="0"
         style="fill:#000000;stroke-width:0" /><path
         id="path5865"
         d="m 234.23,706.81 0.02,-0.09 0.02,-0.08 0.05,-0.17 0.02,-0.08 0.02,-0.09 0.02,-0.08 0.03,-0.09 c 0.03,-0.13 0.09,-0.25 0.11,-0.38 0.02,-0.1 0,-0.23 -0.02,-0.34 -0.04,-0.28 -0.15,-0.62 -0.45,-0.7 -0.07,-0.01 -0.14,-0.02 -0.21,0.01 -0.09,0.03 -0.16,0.11 -0.22,0.18 -0.14,0.16 -0.27,0.34 -0.37,0.53 -0.09,-0.06 -0.15,-0.16 -0.22,-0.24 -0.13,-0.14 -0.27,-0.27 -0.44,-0.36 -0.15,-0.08 -0.31,-0.13 -0.48,-0.13 -0.15,0 -0.28,0.03 -0.41,0.11 -0.14,0.08 -0.27,0.2 -0.35,0.34 -0.17,0.33 0.1,0.7 0.4,0.82 0.3,0.11 0.61,-0.01 0.79,-0.27 h 0.01 c 0,0.16 -0.03,0.33 -0.14,0.45 -0.15,0.17 -0.38,0.19 -0.59,0.17 -0.15,-0.02 -0.3,-0.06 -0.42,-0.15 -0.16,-0.11 -0.24,-0.29 -0.28,-0.48 -0.03,-0.1 -0.03,-0.22 -0.03,-0.33 0,-0.45 0.14,-0.94 0.56,-1.17 0.07,-0.03 0.14,-0.05 0.21,-0.08 0.13,-0.02 0.28,-0.02 0.42,-0.01 0.14,0.02 0.27,0.06 0.39,0.14 0.28,0.18 0.44,0.47 0.57,0.77 0.13,-0.28 0.22,-0.66 0.49,-0.84 0.28,-0.17 0.64,-0.06 0.82,0.2 0.24,0.35 0.28,0.8 0.23,1.21 0.21,-0.34 0.27,-0.73 0.28,-1.12 0,-0.08 0,-0.15 0,-0.23 -0.01,-0.14 -0.04,-0.28 0.03,-0.42 0.07,-0.16 0.31,-0.17 0.43,-0.06 0.09,0.09 0.11,0.24 0.11,0.35 0,0.15 -0.01,0.31 -0.05,0.45 -0.02,0.07 -0.06,0.13 -0.09,0.19 -0.06,0.13 -0.11,0.27 -0.19,0.4 -0.16,0.35 -0.34,0.7 -0.52,1.05 -0.06,0.13 -0.13,0.26 -0.18,0.39 -0.03,0.07 -0.06,0.16 -0.13,0.21 -0.07,0.04 -0.17,0.02 -0.24,0.02 z"
         inkscape:connector-curvature="0"
         style="fill:#000000;stroke-width:0" /><path
         id="path5867"
         d="m 235.96,709.06 -0.03,-0.01 -0.04,-0.02 -0.04,-0.01 -0.04,-0.02 -0.04,-0.02 -0.03,-0.02 -0.04,-0.01 -0.04,-0.02 -0.03,-0.02 -0.04,-0.03 -0.03,-0.02 -0.04,-0.02 -0.01,-0.02 -0.02,-0.01 -0.01,-0.01 -0.02,-0.02 -0.01,-0.01 -0.02,-0.02 -0.01,-0.01 -0.01,-0.02 c -0.11,-0.12 -0.18,-0.27 -0.21,-0.43 -0.06,-0.26 -0.08,-0.55 0.07,-0.78 0.29,-0.42 0.96,-0.49 1.36,-0.19 0.16,0.12 0.26,0.32 0.31,0.51 -0.22,-0.13 -0.41,-0.27 -0.67,-0.27 -0.09,0 -0.18,0.01 -0.26,0.04 -0.33,0.13 -0.45,0.5 -0.33,0.83 0.09,0.25 0.32,0.43 0.56,0.58 0.1,0.05 0.21,0.1 0.3,0.17 -0.13,0.03 -0.26,0.05 -0.38,0.09 -0.19,0.06 -0.37,0.16 -0.48,0.32 -0.04,0.04 -0.07,0.1 -0.09,0.15 -0.13,0.35 0.09,0.68 0.38,0.85 0.36,0.19 0.82,0.13 1.14,-0.12 0.28,-0.22 0.43,-0.51 0.55,-0.83 0.08,0.11 0.13,0.25 0.19,0.37 0.13,0.27 0.34,0.55 0.65,0.64 0.13,0.04 0.27,0.05 0.41,0.05 0.67,0 1.32,-0.42 1.57,-1.04 0.13,-0.34 0.12,-0.73 0,-1.07 -0.1,-0.23 -0.25,-0.44 -0.43,-0.62 -0.17,-0.17 -0.37,-0.31 -0.6,-0.37 -0.22,-0.05 -0.46,-0.02 -0.67,0.05 -0.17,0.05 -0.33,0.14 -0.45,0.28 -0.05,0.06 -0.09,0.12 -0.11,0.19 -0.03,0.07 -0.05,0.14 -0.05,0.21 -0.01,0.29 0.26,0.52 0.54,0.58 0.19,0.03 0.38,-0.01 0.53,-0.14 0.1,-0.08 0.16,-0.18 0.13,-0.31 -0.04,-0.15 -0.19,-0.26 -0.32,-0.33 l 0.01,-0.1 c 0.15,0 0.31,0.03 0.43,0.13 0.19,0.17 0.22,0.51 0.11,0.73 -0.05,0.09 -0.12,0.17 -0.21,0.23 -0.21,0.16 -0.52,0.21 -0.77,0.12 -0.28,-0.1 -0.52,-0.37 -0.6,-0.65 -0.12,-0.42 0.06,-0.87 0.4,-1.15 0.14,-0.12 0.3,-0.21 0.48,-0.26 0.37,-0.1 0.81,-0.03 1.12,0.17 0.21,0.14 0.37,0.35 0.48,0.57 0.18,0.35 0.25,0.76 0.26,1.15 0,0.13 0.01,0.27 0,0.4 -0.03,0.35 -0.14,0.69 -0.3,0.99 -0.18,0.32 -0.43,0.62 -0.78,0.77 -0.18,0.08 -0.36,0.1 -0.56,0.1 -0.26,0 -0.53,-0.05 -0.76,-0.17 -0.24,-0.14 -0.41,-0.34 -0.54,-0.58 -0.06,-0.1 -0.11,-0.2 -0.14,-0.31 -0.03,0.08 -0.05,0.18 -0.09,0.26 -0.1,0.21 -0.24,0.4 -0.43,0.55 -0.11,0.08 -0.22,0.14 -0.35,0.19 -0.14,0.05 -0.29,0.06 -0.44,0.06 -0.4,0 -0.83,-0.12 -1.07,-0.48 -0.14,-0.23 -0.16,-0.51 -0.13,-0.76 0.03,-0.15 0.07,-0.31 0.14,-0.44 0.16,-0.27 0.39,-0.44 0.65,-0.59 z"
         inkscape:connector-curvature="0"
         style="fill:#000000;stroke-width:0" /></g>    <g
       id="g5459"
       transform="matrix(0.75353072,0,0,-0.71920116,-91.091133,1487.2308)"
       xml:space="preserve"
       stroke-miterlimit="10.433"
       font-style="normal"
       font-variant="normal"
       font-weight="normal"
       font-stretch="normal"
       font-size-adjust="none"
       letter-spacing="normal"
       word-spacing="normal"
       ns0:text="$45^\\circ$"
       ns0:preamble="/home/sriranga/Desktop/Rani_Figure/package.tex"
       style="font-style:normal;font-variant:normal;font-weight:normal;font-stretch:normal;letter-spacing:normal;word-spacing:normal;text-anchor:start;fill:none;stroke:#000000;stroke-width:1.63006747;stroke-linecap:butt;stroke-linejoin:miter;stroke-miterlimit:10.43299961;stroke-opacity:1;stroke-dasharray:none;stroke-dashoffset:0"><path
         style="fill:#000000;stroke-width:0"
         inkscape:connector-curvature="0"
         d="m 226.36,708.76 v -0.86 c 0,-0.36 -0.02,-0.47 -0.76,-0.47 h -0.21 v -0.31 c 0.41,0.04 0.93,0.04 1.35,0.04 0.41,0 0.94,0 1.35,-0.04 v 0.31 h -0.21 c -0.74,0 -0.76,0.11 -0.76,0.47 v 0.86 h 1 v 0.31 h -1 v 4.52 c 0,0.2 0,0.26 -0.16,0.26 -0.09,0 -0.11,0 -0.2,-0.12 l -3.05,-4.66 h 0.28 l 2.43,3.71 v -3.71 h -2.43 -0.28 v -0.31 z"
         id="path5461" /><path
         style="fill:#000000;stroke-width:0"
         inkscape:connector-curvature="0"
         d="m 232.88,709.12 0,0.11 -0.01,0.11 -0.01,0.11 -0.02,0.1 -0.02,0.11 -0.02,0.1 -0.03,0.1 -0.03,0.1 -0.04,0.1 -0.04,0.09 -0.05,0.09 -0.04,0.09 -0.06,0.09 -0.05,0.08 -0.06,0.08 -0.06,0.07 -0.07,0.08 -0.06,0.06 -0.08,0.07 -0.07,0.06 -0.08,0.06 -0.08,0.05 -0.08,0.05 -0.08,0.04 -0.09,0.04 -0.09,0.04 -0.09,0.03 -0.09,0.02 -0.09,0.02 -0.1,0.02 -0.1,0 -0.1,0.01 c -0.48,0 -0.9,-0.16 -1.26,-0.51 v 1.94 c 0.2,-0.06 0.52,-0.13 0.84,-0.13 1.23,0 1.92,0.9 1.92,1.03 0,0.06 -0.03,0.11 -0.1,0.11 -0.01,0 -0.03,0 -0.08,-0.03 -0.2,-0.09 -0.68,-0.29 -1.35,-0.29 -0.4,0 -0.86,0.07 -1.32,0.28 -0.08,0.03 -0.1,0.03 -0.12,0.03 -0.1,0 -0.1,-0.08 -0.1,-0.24 v -2.94 c 0,-0.18 0,-0.26 0.14,-0.26 0.07,0 0.09,0.03 0.13,0.09 0.11,0.16 0.47,0.7 1.28,0.7 0.52,0 0.77,-0.46 0.85,-0.64 0.16,-0.36 0.17,-0.75 0.17,-1.25 0,-0.35 0,-0.94 -0.23,-1.36 -0.24,-0.39 -0.61,-0.65 -1.07,-0.65 -0.73,0 -1.29,0.53 -1.46,1.12 0.03,-0.01 0.06,-0.02 0.17,-0.02 0.33,0 0.5,0.25 0.5,0.48 0,0.24 -0.17,0.49 -0.5,0.49 -0.14,0 -0.49,-0.07 -0.49,-0.53 0,-0.85 0.69,-1.81 1.8,-1.81 1.16,0 2.17,0.95 2.17,2.21 z"
         id="path5463" /><path
         style="fill:#000000;stroke-width:0"
         inkscape:connector-curvature="0"
         d="m 236.93,712.48 -0.01,0.08 0,0.07 -0.01,0.08 -0.01,0.07 -0.02,0.08 -0.02,0.07 -0.03,0.07 -0.02,0.07 -0.03,0.06 -0.04,0.07 -0.03,0.06 -0.04,0.06 -0.04,0.06 -0.05,0.06 -0.04,0.05 -0.05,0.05 -0.06,0.05 -0.05,0.05 -0.06,0.04 -0.06,0.04 -0.06,0.04 -0.06,0.04 -0.06,0.03 -0.07,0.03 -0.07,0.02 -0.07,0.03 -0.07,0.02 -0.07,0.01 -0.07,0.02 -0.08,0.01 -0.07,0 -0.08,0 v -0.34 c 0.65,0 1.16,-0.53 1.16,-1.15 0,-0.64 -0.52,-1.15 -1.16,-1.15 h 0 c -0.66,0 -1.16,0.53 -1.16,1.15 0,0.64 0.52,1.15 1.16,1.15 v 0.34 c -0.84,0 -1.5,-0.67 -1.5,-1.49 0,-0.84 0.68,-1.49 1.5,-1.49 0.83,0 1.5,0.67 1.5,1.49 z"
         id="path5465" /></g>    <g
       style="font-style:normal;font-variant:normal;font-weight:normal;font-stretch:normal;letter-spacing:normal;word-spacing:normal;text-anchor:start;fill:none;stroke:#000000;stroke-width:1;stroke-linecap:butt;stroke-linejoin:miter;stroke-miterlimit:10.43299961;stroke-opacity:1;stroke-dasharray:none;stroke-dashoffset:0"
       ns0:preamble="/home/sriranga/Desktop/Rani_Figure/package.tex"
       ns0:text="neYQutayx"
       word-spacing="normal"
       letter-spacing="normal"
       font-size-adjust="none"
       font-stretch="normal"
       font-weight="normal"
       font-variant="normal"
       font-style="normal"
       stroke-miterlimit="10.433"
       xml:space="preserve"
       transform="matrix(1.2,0,0,-1.2,-220.2608,1853.9187)"
       id="content"><path
         id="path4785"
         d="m 223.94,711.35 v -0.64 h 1.4 c 0.21,0 0.44,0.01 0.65,0 0.38,-0.03 0.72,-0.17 1.01,-0.41 0.32,-0.26 0.58,-0.62 0.67,-1.03 0.05,-0.2 0.04,-0.43 0.01,-0.63 -0.06,-0.32 -0.21,-0.63 -0.54,-0.73 -0.29,-0.1 -0.59,-0.04 -0.82,0.16 -0.08,0.08 -0.15,0.17 -0.21,0.27 -0.09,0.17 -0.14,0.34 -0.22,0.52 -0.14,0.3 -0.35,0.58 -0.68,0.67 -0.1,0.03 -0.2,0.04 -0.3,0.04 -0.12,0 -0.23,-0.03 -0.34,-0.08 -0.1,-0.05 -0.18,-0.11 -0.26,-0.18 -0.08,-0.07 -0.16,-0.15 -0.22,-0.24 -0.17,-0.27 -0.21,-0.61 -0.16,-0.93 0.01,-0.09 0.04,-0.18 0.07,-0.27 0.06,-0.21 0.14,-0.43 0.31,-0.57 0.14,-0.12 0.3,-0.14 0.46,-0.18 0.07,-0.01 0.13,-0.03 0.19,-0.03 0.08,0 0.16,0.02 0.24,0.05 -0.03,0.2 -0.3,0.22 -0.46,0.3 -0.17,0.09 -0.36,0.22 -0.49,0.38 -0.06,0.07 -0.12,0.16 -0.13,0.26 0,0.1 0.04,0.21 0.1,0.29 0.05,0.08 0.12,0.14 0.19,0.2 0.32,0.27 0.87,0.4 1.23,0.11 0.16,-0.13 0.28,-0.3 0.37,-0.49 0.05,-0.12 0.08,-0.24 0.13,-0.36 0.1,-0.23 0.24,-0.44 0.46,-0.57 0.06,-0.04 0.13,-0.06 0.19,-0.08 0.09,-0.02 0.19,-0.02 0.28,-0.02 0.08,0 0.16,0.01 0.24,0.03 0.53,0.16 0.71,0.78 0.76,1.27 0.01,0.2 0.01,0.4 -0.03,0.59 -0.1,0.52 -0.41,0.97 -0.81,1.29 -0.17,0.14 -0.37,0.3 -0.57,0.37 v 0.01 h 0.05 v 0.63 z"
         inkscape:connector-curvature="0"
         style="fill:#000000;stroke-width:0" /><path
         id="path4787"
         d="m 226.94,712.08 -0.01,0.01 -0.01,0 -0.01,0.01 -0.01,0.01 -0.01,0 0,0.01 -0.01,0.01 -0.01,0 -0.01,0.01 -0.01,0.01 0,0.01 -0.01,0.01 -0.01,0 -0.01,0.01 0,0.01 -0.01,0.01 c -0.13,0.21 -0.05,0.48 0.15,0.6 0.21,0.13 0.51,0.1 0.72,0 0.09,-0.04 0.18,-0.1 0.25,-0.17 0.17,-0.19 0.22,-0.49 0.12,-0.73 -0.06,-0.16 -0.19,-0.3 -0.34,-0.38 -0.26,-0.16 -0.54,-0.17 -0.84,-0.17 h -0.58 v -0.64 h 0.64 c 0.36,0 0.77,0.01 1.08,0.23 0.09,0.07 0.19,0.16 0.25,0.26 0.24,0.32 0.3,0.68 0.23,1.07 -0.05,0.22 -0.14,0.45 -0.29,0.61 -0.22,0.21 -0.52,0.29 -0.82,0.3 -0.1,0.02 -0.19,0.02 -0.28,-0.01 -0.36,-0.07 -0.63,-0.4 -0.6,-0.77 0.02,-0.23 0.16,-0.48 0.37,-0.58 0.15,-0.08 0.34,-0.08 0.5,-0.03 0.08,0.03 0.17,0.07 0.22,0.14 0.16,0.17 0.14,0.52 -0.06,0.66 -0.08,0.05 -0.17,0.06 -0.27,0.05 -0.06,0 -0.12,-0.01 -0.18,-0.04 -0.09,-0.06 -0.15,-0.17 -0.17,-0.28 -0.02,-0.08 0.01,-0.16 0.03,-0.24 z"
         inkscape:connector-curvature="0"
         style="fill:#000000;stroke-width:0" /><path
         id="path4789"
         d="m 230.54,708.5 0.02,-0.05 0.02,-0.04 0.02,-0.05 0.02,-0.05 0.02,-0.04 0.01,-0.05 0.02,-0.05 0.02,-0.05 0.01,-0.05 0.01,-0.03 0,-0.02 0.01,-0.03 0,-0.02 0.01,-0.03 0,-0.02 0,-0.03 0,-0.02 0,-0.03 0,-0.02 0,-0.03 0,-0.02 -0.01,-0.02 0,-0.03 c -0.02,-0.12 -0.1,-0.22 -0.19,-0.31 -0.15,-0.15 -0.32,-0.26 -0.5,-0.36 0.09,-0.13 0.28,-0.19 0.41,-0.26 0.25,-0.14 0.48,-0.34 0.56,-0.63 0.04,-0.2 0.04,-0.43 0.03,-0.63 -0.01,-0.14 -0.03,-0.28 -0.1,-0.41 -0.05,-0.1 -0.12,-0.18 -0.19,-0.26 -0.1,-0.11 -0.21,-0.21 -0.34,-0.28 -0.3,-0.17 -0.66,-0.21 -1,-0.15 -0.1,0.02 -0.19,0.04 -0.3,0.09 -0.4,0.19 -0.65,0.61 -0.71,1.05 -0.03,0.19 -0.03,0.39 0.03,0.58 h 0.01 l 0.1,0.2 c -0.02,0.12 -0.01,0.3 0.07,0.4 0.05,0.07 0.16,0.15 0.25,0.13 0.08,-0.01 0.15,-0.1 0.18,-0.17 0.03,-0.07 0.04,-0.14 0.04,-0.21 0.03,-0.14 0.03,-0.34 -0.06,-0.46 -0.1,-0.12 -0.27,-0.1 -0.37,0.01 -0.07,0.08 -0.1,0.2 -0.11,0.3 h 0 l -0.1,-0.2 c 0.02,-0.15 0.06,-0.3 0.16,-0.41 0.05,-0.06 0.12,-0.12 0.19,-0.15 0.18,-0.07 0.38,-0.02 0.5,0.13 0.07,0.09 0.09,0.2 0.1,0.31 0.01,0.07 0.01,0.13 0.01,0.2 0,0.23 -0.03,0.51 -0.18,0.69 -0.24,0.27 -0.67,0.18 -0.9,-0.06 -0.22,-0.25 -0.26,-0.61 -0.26,-0.93 0,-0.36 0.05,-0.75 0.2,-1.08 0.1,-0.22 0.25,-0.42 0.42,-0.59 0.11,-0.1 0.23,-0.21 0.37,-0.28 0.17,-0.1 0.37,-0.12 0.57,-0.12 0.26,0 0.51,0.04 0.75,0.12 0.51,0.18 0.94,0.61 1.11,1.12 0.13,0.41 0.08,0.84 -0.09,1.23 -0.08,0.17 -0.17,0.34 -0.31,0.45 -0.08,0.07 -0.18,0.1 -0.27,0.13 -0.07,0.03 -0.13,0.06 -0.2,0.07 0.08,0.07 0.18,0.1 0.27,0.14 0.08,0.04 0.15,0.1 0.18,0.18 0.08,0.12 0.08,0.26 0.07,0.4 -0.03,0.18 -0.09,0.38 -0.22,0.52 -0.09,0.12 -0.23,0.21 -0.36,0.28 z"
         inkscape:connector-curvature="0"
         style="fill:#000000;stroke-width:0" /><path
         id="path4791"
         d="m 237.15,712.77 0.02,-0.03 0.03,-0.03 0.02,-0.02 0.02,-0.03 0.05,-0.05 0.03,-0.02 0.02,-0.03 0.02,-0.03 0.03,-0.02 0.02,-0.03 0.02,-0.03 0.02,-0.03 0.01,-0.01 0.01,-0.02 0.01,-0.01 0,-0.02 0.01,-0.01 0.01,-0.02 c 0.18,-0.36 -0.07,-0.75 -0.42,-0.9 -0.16,-0.06 -0.34,-0.04 -0.5,-0.04 h -0.84 v -0.62 c 0.24,0 0.49,0.03 0.72,-0.05 0.18,-0.07 0.34,-0.19 0.48,-0.33 0.27,-0.28 0.49,-0.63 0.59,-1 0.11,-0.39 0.05,-0.81 -0.18,-1.15 -0.16,-0.25 -0.41,-0.42 -0.71,-0.43 -0.11,0 -0.21,0.01 -0.32,0.03 -0.59,0.13 -0.91,0.71 -1.03,1.26 -0.02,0.08 -0.01,0.16 -0.01,0.24 -0.02,0.18 -0.04,0.36 -0.09,0.54 -0.13,0.52 -0.44,1.06 -0.9,1.37 -0.27,0.18 -0.57,0.25 -0.89,0.25 -0.29,0 -0.59,-0.07 -0.8,-0.3 -0.05,-0.07 -0.09,-0.14 -0.14,-0.22 -0.04,-0.1 -0.07,-0.22 -0.09,-0.33 -0.01,-0.13 -0.02,-0.26 0.01,-0.38 0.05,-0.17 0.16,-0.32 0.31,-0.41 0.25,-0.14 0.63,-0.13 0.82,0.11 0.16,0.19 0.18,0.52 0.04,0.73 -0.06,0.09 -0.15,0.15 -0.25,0.2 l -0.21,-0.14 c 0.11,-0.05 0.16,-0.18 0.17,-0.29 0.01,-0.06 0.02,-0.13 -0.01,-0.19 -0.04,-0.08 -0.12,-0.12 -0.21,-0.12 -0.19,-0.04 -0.38,0.06 -0.4,0.26 h 0 c -0.02,0.19 0.12,0.32 0.3,0.35 0.05,0 0.1,0.01 0.15,-0.01 l 0.21,0.14 c -0.2,0.08 -0.44,0.04 -0.63,-0.04 0.04,0.09 0.08,0.18 0.15,0.25 0.22,0.23 0.62,0.25 0.89,0.09 0.19,-0.1 0.33,-0.27 0.45,-0.45 0.33,-0.53 0.48,-1.17 0.48,-1.79 0,-0.29 -0.03,-0.57 -0.1,-0.85 -0.05,-0.12 -0.09,-0.24 -0.16,-0.35 -0.18,-0.26 -0.51,-0.46 -0.83,-0.37 -0.08,0.02 -0.15,0.05 -0.22,0.09 -0.15,0.09 -0.27,0.22 -0.37,0.37 0.2,-0.04 0.39,-0.08 0.59,-0.01 l -0.19,0.16 c -0.17,-0.04 -0.4,0.07 -0.44,0.25 h 0 c -0.04,0.15 0.08,0.3 0.22,0.34 0.2,0.05 0.43,-0.01 0.48,-0.23 0.04,-0.16 -0.11,-0.33 -0.26,-0.36 l 0.19,-0.16 c 0.09,0.03 0.17,0.07 0.24,0.14 0.18,0.2 0.14,0.53 0.01,0.73 -0.06,0.08 -0.13,0.16 -0.22,0.2 -0.09,0.05 -0.19,0.06 -0.29,0.06 -0.2,0 -0.42,-0.05 -0.57,-0.2 -0.18,-0.18 -0.23,-0.5 -0.17,-0.75 0.07,-0.21 0.19,-0.39 0.35,-0.52 0.1,-0.09 0.21,-0.17 0.33,-0.23 0.33,-0.13 0.77,-0.13 1.1,0.01 0.48,0.22 0.82,0.75 0.9,1.27 h 0.01 c 0.03,-0.16 0.13,-0.32 0.21,-0.47 0.09,-0.17 0.2,-0.34 0.34,-0.48 0.34,-0.34 0.82,-0.5 1.29,-0.4 0.18,0.03 0.34,0.11 0.48,0.22 0.3,0.27 0.43,0.64 0.47,1.03 0.02,0.21 0.02,0.4 -0.01,0.61 -0.07,0.44 -0.27,0.84 -0.56,1.17 -0.13,0.15 -0.27,0.3 -0.44,0.41 -0.06,0.05 -0.13,0.09 -0.2,0.12 0.11,0.03 0.22,0.04 0.33,0.08 0.27,0.11 0.51,0.35 0.63,0.61 0.14,0.33 0.1,0.72 -0.1,1.03 -0.08,0.11 -0.18,0.24 -0.31,0.28 -0.07,0.02 -0.15,0.01 -0.22,0.01 z"
         inkscape:connector-curvature="0"
         style="fill:#000000;stroke-width:0" /><path
         id="path4793"
         d="m 238.21,708.75 0,-0.07 0.01,-0.07 0.01,-0.07 0.01,-0.07 0.01,-0.07 0.01,-0.07 0.02,-0.07 0.02,-0.07 0.02,-0.07 0.02,-0.07 0.02,-0.07 0.03,-0.06 0.02,-0.07 0.03,-0.07 0.03,-0.06 0.03,-0.07 c 0.06,-0.12 0.08,-0.25 0.18,-0.35 0.11,-0.09 0.25,-0.14 0.39,-0.14 0.28,-0.05 0.58,0.01 0.82,0.15 0.34,0.2 0.55,0.58 0.65,0.95 0.05,0.18 0.08,0.35 0.09,0.53 0.02,0.31 0.01,0.62 -0.08,0.92 -0.09,0.29 -0.24,0.55 -0.43,0.79 -0.28,0.35 -0.64,0.6 -1.08,0.65 -0.12,0.02 -0.29,0.03 -0.41,-0.01 -0.07,-0.03 -0.09,-0.1 -0.1,-0.17 -0.01,-0.14 0.03,-0.31 0.16,-0.38 0.11,-0.06 0.24,-0.05 0.36,-0.06 0.08,-0.01 0.15,-0.02 0.22,-0.04 0.31,-0.07 0.57,-0.25 0.8,-0.45 0.18,-0.17 0.33,-0.39 0.38,-0.64 0.08,-0.44 -0.14,-0.89 -0.45,-1.2 -0.16,-0.16 -0.36,-0.28 -0.57,-0.33 -0.24,-0.04 -0.49,-0.01 -0.7,0.12 -0.06,0.04 -0.14,0.1 -0.18,0.16 -0.03,0.05 -0.03,0.12 -0.05,0.18 -0.02,0.09 -0.06,0.17 -0.08,0.26 -0.02,0.03 -0.02,0.11 -0.06,0.14 -0.04,0.03 -0.11,0.02 -0.15,0.02 z"
         inkscape:connector-curvature="0"
         style="fill:#000000;stroke-width:0" /><path
         id="path4795"
         d="m 241.6,711.35 v -0.64 h 1.69 0.55 c 0.11,0 0.22,0.01 0.32,-0.01 0.19,-0.03 0.4,-0.15 0.48,-0.33 0.05,-0.1 0.05,-0.2 0.05,-0.3 l -0.05,-0.18 c -0.11,-0.37 -0.5,-0.55 -0.85,-0.58 -0.18,-0.02 -0.38,0 -0.52,0.12 -0.14,0.11 -0.12,0.3 0.01,0.41 0.1,0.1 0.25,0.13 0.38,0.16 0.13,0.02 0.27,0.02 0.4,0.02 0.2,0 0.39,-0.09 0.58,-0.13 h 0 l 0.05,0.18 c -0.24,0.09 -0.48,0.11 -0.74,0.11 -0.31,0 -0.62,-0.02 -0.88,-0.2 -0.26,-0.18 -0.37,-0.64 -0.14,-0.89 0.15,-0.16 0.39,-0.21 0.6,-0.23 0.4,-0.04 0.77,0.09 1.08,0.33 0.16,0.12 0.3,0.28 0.37,0.47 0.13,-0.11 0.25,-0.24 0.32,-0.39 0.11,-0.24 0.07,-0.53 -0.07,-0.73 -0.09,-0.14 -0.23,-0.25 -0.37,-0.34 -0.16,-0.09 -0.32,-0.18 -0.49,-0.23 -0.14,-0.05 -0.28,-0.08 -0.43,-0.09 -0.16,-0.02 -0.31,-0.03 -0.47,-0.01 -0.53,0.04 -1.12,0.2 -1.41,0.68 -0.06,0.07 -0.09,0.17 -0.12,0.26 -0.04,0.13 -0.06,0.27 -0.06,0.4 -0.03,0 -0.07,0 -0.1,-0.02 -0.04,-0.02 -0.06,-0.08 -0.08,-0.12 -0.04,-0.12 -0.08,-0.23 -0.08,-0.36 -0.01,-0.48 0.28,-0.88 0.67,-1.15 0.75,-0.52 1.87,-0.54 2.65,-0.07 0.43,0.25 0.76,0.64 0.79,1.16 0.01,0.07 0.01,0.16 -0.01,0.24 -0.04,0.27 -0.18,0.53 -0.37,0.73 -0.06,0.06 -0.12,0.12 -0.19,0.17 -0.04,0.03 -0.09,0.06 -0.11,0.1 -0.02,0.04 -0.02,0.07 -0.02,0.11 0,0.05 -0.01,0.09 -0.02,0.15 -0.03,0.13 -0.1,0.27 -0.18,0.39 -0.08,0.1 -0.17,0.19 -0.27,0.26 -0.05,0.03 -0.15,0.05 -0.18,0.11 -0.03,0.03 -0.01,0.09 -0.01,0.13 v 0.31 z"
         inkscape:connector-curvature="0"
         style="fill:#000000;stroke-width:0" /><path
         id="path4797"
         d="m 245.08,712.98 0.03,-0.03 0.03,-0.03 0.03,-0.03 0.01,-0.02 0.02,-0.01 0.01,-0.02 0.01,-0.02 0.02,-0.01 0.01,-0.02 0.01,-0.01 0.01,-0.02 0.02,-0.02 0.01,-0.01 c 0.18,-0.24 0.32,-0.63 0.19,-0.92 -0.06,-0.1 -0.14,-0.17 -0.23,-0.26 -0.08,-0.06 -0.16,-0.13 -0.26,-0.16 -0.12,-0.05 -0.25,-0.04 -0.37,-0.04 h -0.56 v -0.64 h 0.48 c 0.14,0 0.28,0 0.42,0.02 0.25,0.05 0.49,0.17 0.66,0.35 0.23,0.24 0.37,0.58 0.32,0.92 -0.02,0.17 -0.09,0.34 -0.18,0.49 -0.07,0.14 -0.19,0.29 -0.33,0.38 -0.1,0.06 -0.24,0.09 -0.36,0.11 z"
         inkscape:connector-curvature="0"
         style="fill:#000000;stroke-width:0" /><path
         id="path4799"
         d="m 245.31,705.36 0.2,0.17 c -0.04,0.13 -0.15,0.28 -0.1,0.42 0.03,0.07 0.1,0.12 0.16,0.16 0.05,0.03 0.12,0.06 0.18,0.07 0.27,0.01 0.5,-0.26 0.49,-0.52 -0.01,-0.2 -0.2,-0.36 -0.36,-0.47 -0.3,-0.21 -0.71,-0.31 -0.81,-0.71 -0.02,-0.06 -0.02,-0.13 -0.02,-0.19 0,-0.09 0.03,-0.17 0.07,-0.24 0.06,-0.13 0.17,-0.22 0.28,-0.3 0.08,-0.06 0.17,-0.11 0.26,-0.15 0.17,-0.07 0.35,-0.09 0.53,-0.09 0.27,0 0.55,0.01 0.8,0.11 0.36,0.14 0.64,0.48 0.75,0.84 0.17,0.55 -0.07,1.16 -0.43,1.57 -0.09,0.09 -0.19,0.17 -0.28,0.26 -0.09,0.09 -0.17,0.2 -0.24,0.31 -0.08,0.12 -0.17,0.24 -0.21,0.38 -0.02,0.09 0,0.26 0.1,0.28 0.06,0.01 0.13,-0.01 0.18,-0.03 0.16,-0.05 0.33,-0.14 0.35,-0.33 h 0.23 c -0.01,0.28 -0.23,0.58 -0.5,0.69 -0.18,0.07 -0.39,0.06 -0.52,-0.11 -0.11,-0.15 -0.15,-0.39 -0.1,-0.55 0.04,-0.15 0.13,-0.29 0.22,-0.42 0.06,-0.1 0.12,-0.21 0.2,-0.3 0.09,-0.12 0.21,-0.21 0.31,-0.33 0.19,-0.22 0.34,-0.5 0.38,-0.8 0.01,-0.12 0.01,-0.24 -0.03,-0.36 -0.03,-0.1 -0.08,-0.2 -0.14,-0.28 -0.28,-0.4 -0.79,-0.51 -1.26,-0.44 -0.24,0.05 -0.56,0.1 -0.61,0.38 -0.03,0.14 0.04,0.24 0.14,0.33 0.16,0.14 0.35,0.22 0.53,0.34 0.06,0.04 0.12,0.09 0.17,0.14 0.16,0.19 0.19,0.42 0.17,0.66 -0.01,0.14 -0.04,0.28 -0.11,0.4 -0.14,0.23 -0.44,0.33 -0.69,0.26 -0.12,-0.04 -0.23,-0.13 -0.31,-0.23 -0.2,-0.28 -0.15,-0.64 0.02,-0.92 z"
         inkscape:connector-curvature="0"
         style="fill:#000000;stroke-width:0" /></g>  </g>
</svg>
