<?xml version="1.0" encoding="UTF-8" standalone="no"?>
<!-- Created with Inkscape (http://www.inkscape.org/) -->

<svg
   xmlns:ns0="http://www.iki.fi/pav/software/textext/"
   xmlns:dc="http://purl.org/dc/elements/1.1/"
   xmlns:cc="http://creativecommons.org/ns#"
   xmlns:rdf="http://www.w3.org/1999/02/22-rdf-syntax-ns#"
   xmlns:svg="http://www.w3.org/2000/svg"
   xmlns="http://www.w3.org/2000/svg"
   xmlns:xlink="http://www.w3.org/1999/xlink"
   xmlns:sodipodi="http://sodipodi.sourceforge.net/DTD/sodipodi-0.dtd"
   xmlns:inkscape="http://www.inkscape.org/namespaces/inkscape"
   width="88.582672"
   height="70.866142"
   id="svg2"
   version="1.1"
   inkscape:version="0.48.4 r9939"
   sodipodi:docname="addfig1.svg">
  <sodipodi:namedview
     id="base"
     pagecolor="#ffffff"
     bordercolor="#666666"
     borderopacity="1.0"
     inkscape:pageopacity="0.0"
     inkscape:pageshadow="2"
     inkscape:zoom="5.6"
     inkscape:cx="29.358644"
     inkscape:cy="27.720707"
     inkscape:document-units="px"
     inkscape:current-layer="textext-4f42acf2-7"
     showgrid="false"
     units="cm"
     inkscape:window-width="1024"
     inkscape:window-height="744"
     inkscape:window-x="0"
     inkscape:window-y="24"
     inkscape:window-maximized="1" />
  <defs
     id="defs4">
    <marker
       style="overflow:visible"
       id="Arrow1Mend"
       refX="0"
       refY="0"
       orient="auto"
       inkscape:stockid="Arrow1Mend">
      <path
         transform="matrix(-0.4,0,0,-0.4,-4,0)"
         style="fill-rule:evenodd;stroke:#000000;stroke-width:1pt"
         d="M 0,0 5,-5 -12.5,0 5,5 0,0 z"
         id="path3768"
         inkscape:connector-curvature="0" />
    </marker>
    <marker
       style="overflow:visible"
       id="Arrow1Mstart"
       refX="0"
       refY="0"
       orient="auto"
       inkscape:stockid="Arrow1Mstart">
      <path
         transform="matrix(0.4,0,0,0.4,4,0)"
         style="fill-rule:evenodd;stroke:#000000;stroke-width:1pt"
         d="M 0,0 5,-5 -12.5,0 5,5 0,0 z"
         id="path3765"
         inkscape:connector-curvature="0" />
    </marker>
  </defs>
  <metadata
     id="metadata7">
    <rdf:RDF>
      <cc:Work
         rdf:about="">
        <dc:format>image/svg+xml</dc:format>
        <dc:type
           rdf:resource="http://purl.org/dc/dcmitype/StillImage" />
        <dc:title />
      </cc:Work>
    </rdf:RDF>
  </metadata>
  <g
     transform="translate(0,-981.49474)"
     id="layer1"
     inkscape:groupmode="layer"
     inkscape:label="Layer 1">
    <path
       sodipodi:nodetypes="cc"
       inkscape:connector-curvature="0"
       id="path2985"
       d="m 40.174031,995.90967 0,41.61493"
       style="fill:none;stroke:#000000;stroke-width:1px;stroke-linecap:butt;stroke-linejoin:miter;stroke-opacity:1;marker-start:url(#Arrow1Mstart);marker-end:url(#Arrow1Mend)" />
    <path
       style="fill:none;stroke:#000000;stroke-width:1px;stroke-linecap:butt;stroke-linejoin:miter;stroke-opacity:1;marker-start:url(#Arrow1Mstart);marker-end:url(#Arrow1Mend)"
       d="m 60.75633,1016.7171 -41.614895,0"
       id="path4385"
       inkscape:connector-curvature="0"
       sodipodi:nodetypes="cc" />
    <path
       sodipodi:nodetypes="cc"
       inkscape:connector-curvature="0"
       id="path4387"
       d="m 40.022152,1016.5653 15.491687,15.1879"
       style="fill:none;stroke:#000000;stroke-width:1px;stroke-linecap:butt;stroke-linejoin:miter;stroke-opacity:1;marker-end:url(#Arrow1Mend)" />
    <g
       id="g5071"
       ns0:preamble="/home/sriranga/Desktop/Maths-Dictionary/package.tex"
       ns0:text="u da pU pa A"
       transform="matrix(1.2,0,0,1.2,-311.07143,891.42857)">
      <defs
         id="defs5073">
        <g
           id="g5075">
          <symbol
             id="textext-4f42acf2-0"
             overflow="visible"
             style="overflow:visible">
            <path
               id="path5078"
               d=""
               style="stroke:none"
               inkscape:connector-curvature="0" />
          </symbol>
          <symbol
             id="textext-4f42acf2-1"
             overflow="visible"
             style="overflow:visible">
            <path
               id="path5081"
               d="m 0.921875,-3.3125 c 0.03125,0.078125 0.03125,0.15625 0.0625,0.234375 C 1,-2.9375 1.0625,-2.78125 1.125,-2.65625 1.1875,-2.546875 1.28125,-2.453125 1.375,-2.375 1.640625,-2.21875 2.046875,-2.203125 2.265625,-2.4375 2.40625,-2.609375 2.4375,-2.828125 2.4375,-3.015625 2.4375,-3.40625 2.375,-3.8125 2.078125,-4.09375 1.78125,-4.390625 1.234375,-4.453125 0.921875,-4.140625 c -0.109375,0.109375 -0.1875,0.25 -0.25,0.40625 -0.15625,0.34375 -0.203125,0.6875 -0.1875,1.078125 0.03125,0.3125 0,0.65625 0.109375,0.96875 0.0625,0.1875 0.15625,0.375 0.28125,0.546875 0.390625,0.609375 1.015625,1.125 1.78125,1.125 0.140625,0 0.296875,-0.03125 0.4375,-0.078125 C 3.1875,-0.109375 3.25,-0.15625 3.3125,-0.203125 3.78125,-0.515625 3.859375,-1.140625 3.78125,-1.65625 3.78125,-1.75 3.765625,-1.859375 3.734375,-1.953125 3.703125,-2.046875 3.65625,-2.15625 3.625,-2.25 3.59375,-2.328125 3.578125,-2.421875 3.5625,-2.515625 3.53125,-2.578125 3.515625,-2.65625 3.515625,-2.734375 c 0,-0.265625 0.125,-0.5 0.3125,-0.6875 C 3.921875,-3.515625 4,-3.59375 4.125,-3.640625 c 0.140625,-0.046875 0.296875,-0.0625 0.453125,-0.03125 0.4375,0.0625 0.75,0.40625 0.84375,0.828125 0.046875,0.265625 0.03125,0.53125 0.03125,0.796875 0,0.1875 0.015625,0.359375 0.03125,0.546875 0.015625,0.25 0.03125,0.5 0.109375,0.75 0.0625,0.1875 0.171875,0.375 0.328125,0.515625 0.34375,0.296875 0.921875,0.28125 1.296875,0.0625 C 7.53125,-0.359375 7.75,-0.6875 7.890625,-1.015625 8.25,-1.796875 8.1875,-2.71875 7.78125,-3.453125 7.59375,-3.796875 7.34375,-4.109375 7.015625,-4.3125 6.890625,-4.390625 6.75,-4.5 6.59375,-4.453125 6.5625,-4.4375 6.53125,-4.421875 6.5,-4.390625 c -0.1875,0.1875 -0.046875,0.46875 0.125,0.59375 0.171875,0.125 0.359375,0.234375 0.515625,0.359375 0.09375,0.0625 0.15625,0.125 0.21875,0.203125 0.421875,0.40625 0.75,1.046875 0.484375,1.625 -0.0625,0.140625 -0.15625,0.25 -0.25,0.359375 -0.140625,0.15625 -0.3125,0.265625 -0.5,0.375 C 7,-0.8125 6.890625,-0.78125 6.78125,-0.75 6.703125,-0.734375 6.625,-0.734375 6.546875,-0.734375 c -0.09375,0 -0.1875,-0.015625 -0.28125,-0.0625 -0.28125,-0.125 -0.4375,-0.453125 -0.515625,-0.75 -0.046875,-0.1875 -0.078125,-0.390625 -0.09375,-0.59375 -0.015625,-0.125 -0.015625,-0.234375 -0.015625,-0.375 0,-0.078125 -0.015625,-0.171875 -0.015625,-0.25 0,-0.5 -0.015625,-1.15625 -0.484375,-1.484375 C 5.078125,-4.28125 5.015625,-4.328125 4.9375,-4.34375 4.828125,-4.390625 4.6875,-4.421875 4.5625,-4.4375 4.25,-4.453125 3.921875,-4.421875 3.671875,-4.203125 3.625,-4.140625 3.578125,-4.09375 3.53125,-4.03125 3.484375,-3.953125 3.453125,-3.875 3.421875,-3.78125 3.359375,-3.609375 3.34375,-3.421875 3.328125,-3.25 3.3125,-2.9375 3.34375,-2.640625 3.40625,-2.34375 c 0.015625,0.125 0.046875,0.25 0.0625,0.375 0.015625,0.0625 0.046875,0.140625 0.046875,0.21875 0.015625,0.28125 -0.109375,0.578125 -0.3125,0.765625 C 2.6875,-0.515625 1.875,-0.75 1.40625,-1.15625 1.171875,-1.359375 0.984375,-1.609375 0.859375,-1.890625 0.734375,-2.1875 0.703125,-2.546875 0.75,-2.875 0.78125,-3.03125 0.859375,-3.171875 0.921875,-3.3125 z M 1.140625,-3.25 C 1.109375,-3.359375 1.125,-3.515625 1.203125,-3.609375 1.265625,-3.6875 1.375,-3.734375 1.46875,-3.765625 1.578125,-3.78125 1.6875,-3.796875 1.796875,-3.78125 2,-3.734375 2.21875,-3.5625 2.25,-3.34375 c 0.015625,0.1875 -0.125,0.359375 -0.28125,0.4375 -0.109375,0.0625 -0.234375,0.109375 -0.359375,0.109375 -0.21875,-0.03125 -0.4375,-0.21875 -0.46875,-0.453125 z m 0,0"
               style="stroke:none"
               inkscape:connector-curvature="0" />
          </symbol>
          <symbol
             id="textext-4f42acf2-2"
             overflow="visible"
             style="overflow:visible">
            <path
               id="path5084"
               d="m 0.484375,-4.234375 0,0.640625 1.4375,0 C 1.75,-3.53125 1.59375,-3.421875 1.453125,-3.3125 1.25,-3.1875 1.0625,-3.015625 0.921875,-2.828125 c -0.328125,0.421875 -0.484375,0.96875 -0.4375,1.5 0.03125,0.359375 0.15625,0.734375 0.421875,1 0.265625,0.25 0.625,0.328125 0.984375,0.28125 0.15625,-0.015625 0.296875,-0.046875 0.4375,-0.125 C 2.65625,-0.375 2.90625,-0.71875 2.984375,-1.078125 l 0.015625,0 c 0.03125,0.140625 0.109375,0.28125 0.1875,0.40625 C 3.296875,-0.5 3.453125,-0.3125 3.640625,-0.203125 4.0625,0.0625 4.671875,0.03125 5.046875,-0.296875 5.375,-0.578125 5.515625,-0.984375 5.53125,-1.421875 5.546875,-1.640625 5.515625,-1.875 5.46875,-2.09375 5.3125,-2.578125 4.984375,-3.015625 4.578125,-3.296875 4.421875,-3.40625 4.25,-3.53125 4.0625,-3.59375 l 0.296875,0 0,-0.640625 z M 3,-1.640625 C 2.9375,-1.546875 2.890625,-1.4375 2.828125,-1.328125 2.6875,-1.109375 2.5,-0.890625 2.25,-0.8125 2.109375,-0.75 1.96875,-0.734375 1.828125,-0.734375 1.703125,-0.734375 1.59375,-0.75 1.484375,-0.78125 1.390625,-0.828125 1.3125,-0.875 1.234375,-0.921875 0.6875,-1.359375 0.78125,-2.234375 1.140625,-2.75 c 0.078125,-0.09375 0.15625,-0.1875 0.25,-0.28125 0.4375,-0.421875 1.015625,-0.578125 1.625,-0.578125 0.34375,0 0.703125,0.046875 1.03125,0.203125 0.625,0.28125 1.109375,0.859375 1.109375,1.578125 0,0.109375 0,0.21875 -0.015625,0.328125 -0.09375,0.296875 -0.3125,0.578125 -0.59375,0.6875 C 4.265625,-0.6875 3.890625,-0.71875 3.625,-0.859375 3.40625,-0.984375 3.234375,-1.203125 3.109375,-1.40625 3.078125,-1.46875 3.03125,-1.5625 3,-1.640625 z m 0,0"
               style="stroke:none"
               inkscape:connector-curvature="0" />
          </symbol>
          <symbol
             id="textext-4f42acf2-3"
             overflow="visible"
             style="overflow:visible">
            <path
               id="path5087"
               d="m 1,-5.875 c 0.09375,0.078125 0.171875,0.15625 0.21875,0.25 0.1875,0.234375 0.34375,0.625 0.203125,0.921875 -0.0625,0.09375 -0.140625,0.171875 -0.234375,0.25 C 1.109375,-4.375 1.03125,-4.3125 0.921875,-4.28125 0.8125,-4.234375 0.671875,-4.234375 0.5625,-4.234375 l -0.5625,0 0,0.640625 0.484375,0 c 0.140625,0 0.265625,0 0.40625,-0.03125 0.25,-0.046875 0.5,-0.15625 0.671875,-0.34375 0.234375,-0.234375 0.375,-0.59375 0.328125,-0.921875 -0.03125,-0.171875 -0.09375,-0.34375 -0.1875,-0.5 C 1.625,-5.515625 1.5,-5.671875 1.359375,-5.765625 1.265625,-5.828125 1.125,-5.859375 1,-5.875 z m 0,0"
               style="stroke:none"
               inkscape:connector-curvature="0" />
          </symbol>
          <symbol
             id="textext-4f42acf2-4"
             overflow="visible"
             style="overflow:visible">
            <path
               id="path5090"
               d="m 0.484375,-4.234375 0,0.640625 4.015625,0 0,-0.640625 z M 2.78125,-3.34375 c -0.0625,0.015625 -0.125,0.03125 -0.1875,0.078125 -0.0625,0.03125 -0.125,0.078125 -0.15625,0.140625 -0.171875,0.21875 -0.0625,0.546875 0.140625,0.703125 0.109375,0.0625 0.25,0.09375 0.375,0.078125 0.34375,-0.03125 0.53125,-0.453125 0.359375,-0.75 -0.109375,-0.203125 -0.328125,-0.28125 -0.53125,-0.25 z m 0.1875,1.734375 C 2.875,-1.453125 2.765625,-1.28125 2.625,-1.140625 c -0.328125,0.328125 -0.84375,0.5 -1.3125,0.375 C 1,-0.84375 0.671875,-1 0.625,-1.359375 0.625,-1.40625 0.625,-1.453125 0.640625,-1.5 0.6875,-1.828125 1,-1.984375 1.296875,-1.984375 c 0.171875,0 0.375,0.078125 0.46875,0.234375 0.09375,0.140625 -0.046875,0.328125 -0.15625,0.4375 -0.0625,0.0625 -0.125,0.109375 -0.109375,0.21875 0.171875,0 0.359375,-0.078125 0.484375,-0.21875 0.203125,-0.25 0.15625,-0.703125 -0.109375,-0.890625 -0.140625,-0.09375 -0.328125,-0.125 -0.5,-0.125 -0.09375,0 -0.1875,0 -0.28125,0.03125 -0.25,0.046875 -0.4375,0.21875 -0.53125,0.4375 -0.0625,0.171875 -0.078125,0.34375 -0.078125,0.53125 0,0.390625 0.09375,0.8125 0.4375,1.0625 0.25,0.171875 0.546875,0.21875 0.859375,0.21875 C 2.015625,-0.0625 2.265625,-0.125 2.484375,-0.25 2.734375,-0.421875 2.875,-0.703125 2.953125,-0.984375 2.984375,-0.890625 3,-0.8125 3.046875,-0.75 c 0.078125,0.1875 0.1875,0.34375 0.359375,0.453125 0.109375,0.09375 0.234375,0.140625 0.359375,0.1875 0.453125,0.140625 1.0625,0.046875 1.390625,-0.3125 0.234375,-0.265625 0.25,-0.609375 0.25,-0.9375 C 5.390625,-1.765625 5.375,-2.171875 5.265625,-2.578125 5.21875,-2.734375 5.15625,-2.890625 5.078125,-3.03125 5.046875,-3.09375 5,-3.171875 4.9375,-3.203125 4.84375,-3.28125 4.734375,-3.234375 4.671875,-3.15625 c -0.0625,0.09375 -0.078125,0.21875 -0.0625,0.328125 0.03125,0.0625 0.0625,0.109375 0.109375,0.171875 0.0625,0.078125 0.109375,0.140625 0.15625,0.203125 0.203125,0.28125 0.421875,0.65625 0.34375,1.015625 C 5.171875,-1.234375 5.03125,-1.078125 4.875,-0.96875 4.671875,-0.8125 4.40625,-0.75 4.15625,-0.734375 c -0.21875,0.015625 -0.421875,0 -0.625,-0.109375 -0.1875,-0.125 -0.34375,-0.328125 -0.453125,-0.515625 -0.03125,-0.09375 -0.0625,-0.171875 -0.109375,-0.25 z m 0,0"
               style="stroke:none"
               inkscape:connector-curvature="0" />
          </symbol>
          <symbol
             id="textext-4f42acf2-5"
             overflow="visible"
             style="overflow:visible">
            <path
               id="path5093"
               d="m 1.8125,-1.3125 c -0.015625,0.125 -0.046875,0.25 -0.015625,0.375 0.109375,0.265625 0.421875,0.375 0.671875,0.234375 C 2.546875,-0.75 2.625,-0.84375 2.671875,-0.9375 2.734375,-1.125 2.65625,-1.390625 2.5,-1.5 2.265625,-1.6875 1.890625,-1.671875 1.640625,-1.5 1.5,-1.40625 1.421875,-1.25 1.375,-1.09375 1.28125,-0.75 1.3125,-0.3125 1.578125,-0.0625 1.671875,0.015625 1.78125,0.0625 1.875,0.09375 2.15625,0.203125 2.5,0.21875 2.796875,0.125 2.90625,0.078125 3.03125,0.03125 3.125,-0.046875 c 0.5,-0.328125 0.546875,-1 0.546875,-1.546875 0,-0.59375 -0.21875,-1.203125 -0.578125,-1.671875 C 2.90625,-3.515625 2.671875,-3.734375 2.375,-3.875 2.03125,-4.046875 1.625,-4.09375 1.234375,-4.03125 1.09375,-4.015625 0.953125,-3.984375 0.8125,-3.921875 0.640625,-3.84375 0.484375,-3.734375 0.375,-3.59375 0.328125,-3.515625 0.296875,-3.421875 0.265625,-3.34375 0.203125,-3.203125 0.125,-3.09375 0.09375,-2.953125 0.046875,-2.71875 0.046875,-2.484375 0.0625,-2.25 c 0.015625,0.296875 0.0625,0.578125 0.109375,0.875 0.015625,0.171875 0.0625,0.359375 0.09375,0.53125 0.0625,0.3125 0.125,0.65625 0.0625,0.96875 C 0.296875,0.21875 0.28125,0.3125 0.234375,0.40625 0.0625,0.625 -0.21875,0.75 -0.484375,0.828125 -0.953125,0.953125 -1.421875,0.9375 -1.875,0.78125 -2.0625,0.71875 -2.25,0.640625 -2.40625,0.53125 -2.578125,0.40625 -2.734375,0.234375 -2.859375,0.046875 -2.90625,0 -2.9375,-0.046875 -2.953125,-0.09375 -2.984375,-0.125 -2.984375,-0.15625 -3.03125,-0.171875 -3.0625,-0.203125 -3.109375,-0.1875 -3.15625,-0.1875 -3.234375,-0.171875 -3.1875,-0.0625 -3.171875,-0.015625 -3.09375,0.15625 -3.03125,0.3125 -2.9375,0.46875 -2.625,0.953125 -2.140625,1.328125 -1.578125,1.484375 -1.296875,1.5625 -1,1.5625 -0.71875,1.53125 -0.484375,1.5 -0.265625,1.453125 -0.0625,1.359375 0.09375,1.3125 0.234375,1.21875 0.34375,1.125 0.671875,0.84375 0.765625,0.421875 0.765625,0.015625 c 0,-0.359375 -0.125,-0.71875 -0.21875,-1.046875 C 0.4375,-1.421875 0.34375,-1.8125 0.34375,-2.21875 c 0,-0.1875 0.015625,-0.40625 0.109375,-0.578125 0.296875,-0.578125 1.078125,-0.625 1.625,-0.46875 0.109375,0.03125 0.203125,0.0625 0.296875,0.109375 0.46875,0.25 0.890625,0.71875 1.015625,1.234375 0.078125,0.328125 0.03125,0.703125 -0.09375,1.015625 -0.140625,0.328125 -0.390625,0.625 -0.75,0.703125 -0.234375,0.046875 -0.515625,0.015625 -0.71875,-0.125 -0.09375,-0.078125 -0.1875,-0.1875 -0.25,-0.3125 C 1.53125,-0.796875 1.5625,-1.015625 1.65625,-1.15625 1.6875,-1.21875 1.75,-1.265625 1.8125,-1.3125 z m 0,0"
               style="stroke:none"
               inkscape:connector-curvature="0" />
          </symbol>
          <symbol
             id="textext-4f42acf2-6"
             overflow="visible"
             style="overflow:visible">
            <path
               id="path5096"
               d="m 4.15625,-2.953125 -1.671875,0 0,0.609375 1.1875,0 c 0.21875,0 0.4375,0.015625 0.65625,-0.015625 0.0625,0 0.140625,0 0.21875,0 0.03125,0 0.078125,-0.015625 0.125,0 0.015625,0.015625 0.046875,0.0625 0.078125,0.09375 0.046875,0.0625 0.078125,0.15625 0.109375,0.234375 0.046875,0.09375 0.078125,0.21875 0.078125,0.328125 0,0.09375 -0.03125,0.1875 -0.0625,0.28125 -0.109375,0.21875 -0.28125,0.421875 -0.5,0.53125 -0.3125,0.15625 -0.65625,0.21875 -1,0.25 C 2.59375,-0.59375 1.78125,-0.6875 1.171875,-1.21875 0.96875,-1.421875 0.78125,-1.65625 0.703125,-1.9375 0.65625,-2.125 0.65625,-2.3125 0.671875,-2.515625 0.671875,-2.71875 0.71875,-2.9375 0.78125,-3.109375 0.828125,-2.9375 0.859375,-2.75 0.953125,-2.59375 c 0.03125,0.078125 0.078125,0.125 0.140625,0.171875 0.25,0.171875 0.625,0.046875 0.8125,-0.171875 0.234375,-0.265625 0.25,-0.609375 0.21875,-0.9375 -0.015625,-0.171875 -0.046875,-0.359375 -0.15625,-0.5 C 1.75,-4.3125 1.25,-4.296875 0.984375,-4.09375 0.8125,-3.953125 0.6875,-3.734375 0.625,-3.515625 0.5,-3.203125 0.484375,-2.84375 0.484375,-2.5 c 0,0.203125 0,0.421875 0.03125,0.625 0.046875,0.484375 0.234375,0.953125 0.59375,1.3125 0.21875,0.203125 0.53125,0.34375 0.8125,0.421875 0.40625,0.125 0.84375,0.15625 1.28125,0.125 0.328125,-0.03125 0.671875,-0.078125 1,-0.1875 C 4.40625,-0.296875 4.609375,-0.40625 4.765625,-0.5625 5.03125,-0.84375 5.1875,-1.21875 5.15625,-1.609375 5.140625,-1.8125 5.09375,-2.015625 5,-2.203125 4.96875,-2.28125 4.921875,-2.359375 4.875,-2.4375 c 0.765625,-0.265625 0.765625,-1.578125 0.015625,-1.859375 -0.375,-0.140625 -0.859375,0.09375 -0.9375,0.5 -0.015625,0.078125 -0.015625,0.140625 0,0.21875 0,0.125 0.015625,0.234375 0.046875,0.34375 0.046875,0.109375 0.09375,0.1875 0.15625,0.28125 z m -0.015625,-0.46875 c 0,-0.140625 0.09375,-0.25 0.203125,-0.328125 C 4.546875,-3.890625 4.828125,-3.90625 5.046875,-3.765625 5.15625,-3.703125 5.25,-3.625 5.25,-3.484375 c 0.015625,0.140625 0,0.28125 -0.09375,0.390625 -0.125,0.140625 -0.375,0.140625 -0.5625,0.140625 -0.0625,0 -0.140625,0 -0.203125,-0.03125 C 4.359375,-3 4.328125,-3.046875 4.296875,-3.09375 4.234375,-3.203125 4.140625,-3.296875 4.140625,-3.421875 z m -3.109375,0.1875 C 1,-3.375 1.046875,-3.5625 1.15625,-3.65625 1.21875,-3.71875 1.3125,-3.75 1.390625,-3.765625 c 0.078125,0 0.15625,-0.015625 0.234375,0 0.171875,0.0625 0.28125,0.21875 0.3125,0.390625 0.015625,0.125 0,0.265625 -0.09375,0.359375 -0.234375,0.25 -0.75,0.140625 -0.8125,-0.21875 z m 0,0"
               style="stroke:none"
               inkscape:connector-curvature="0" />
          </symbol>
        </g>
      </defs>
      <g
         id="textext-4f42acf2-7">
        <g
           id="g5099"
           style="fill:#000000;fill-opacity:1"
           transform="translate(64.795596,-51.258311)">
          <use
             id="use5101"
             y="134.765"
             x="223.43201"
             xlink:href="#textext-4f42acf2-1"
             width="53.149605"
             height="53.149605" />
        </g>
        <g
           id="g3022"
           transform="translate(5.9523809,3.9047617e-7)">
          <g
             transform="translate(49.617025,-4.3833101)"
             style="fill:#000000;fill-opacity:1"
             id="g5103">
            <use
               height="53.149605"
               width="53.149605"
               xlink:href="#textext-4f42acf2-2"
               x="234.76744"
               y="134.765"
               id="use5105" />
          </g>
          <g
             transform="translate(49.617025,-4.3833101)"
             style="fill:#000000;fill-opacity:1"
             id="g5107">
            <use
               height="53.149605"
               width="53.149605"
               xlink:href="#textext-4f42acf2-3"
               x="238.62695"
               y="134.765"
               id="use5109" />
          </g>
        </g>
        <g
           id="g5111"
           style="fill:#000000;fill-opacity:1"
           transform="translate(69.557501,-28.490453)">
          <use
             id="use5113"
             y="134.765"
             x="243.56044"
             xlink:href="#textext-4f42acf2-4"
             width="53.149605"
             height="53.149605" />
          <use
             id="use5115"
             y="134.765"
             x="247.37013"
             xlink:href="#textext-4f42acf2-3"
             width="53.149605"
             height="53.149605" />
          <use
             id="use5117"
             y="134.765"
             x="249.57387"
             xlink:href="#textext-4f42acf2-5"
             width="53.149605"
             height="53.149605" />
        </g>
        <g
           id="g5119"
           style="fill:#000000;fill-opacity:1"
           transform="translate(9.5872639,-27.597596)">
          <use
             id="use5121"
             y="134.765"
             x="256.47195"
             xlink:href="#textext-4f42acf2-4"
             width="53.149605"
             height="53.149605" />
          <use
             id="use5123"
             y="134.765"
             x="260.28168"
             xlink:href="#textext-4f42acf2-3"
             width="53.149605"
             height="53.149605" />
        </g>
        <g
           id="g5125"
           style="fill:#000000;fill-opacity:1"
           transform="translate(41.58131,-11.228548)">
          <use
             id="use5127"
             y="134.765"
             x="265.21515"
             xlink:href="#textext-4f42acf2-6"
             width="53.149605"
             height="53.149605" />
        </g>
      </g>
    </g>
  </g>
</svg>
