<?xml version="1.0" encoding="UTF-8" standalone="no"?>
<!-- Created with Inkscape (http://www.inkscape.org/) -->

<svg
   xmlns:ns0="http://www.iki.fi/pav/software/textext/"
   xmlns:dc="http://purl.org/dc/elements/1.1/"
   xmlns:cc="http://creativecommons.org/ns#"
   xmlns:rdf="http://www.w3.org/1999/02/22-rdf-syntax-ns#"
   xmlns:svg="http://www.w3.org/2000/svg"
   xmlns="http://www.w3.org/2000/svg"
   xmlns:xlink="http://www.w3.org/1999/xlink"
   xmlns:sodipodi="http://sodipodi.sourceforge.net/DTD/sodipodi-0.dtd"
   xmlns:inkscape="http://www.inkscape.org/namespaces/inkscape"
   width="744.09448819"
   height="1052.3622047"
   id="svg2"
   version="1.1"
   inkscape:version="0.48.4 r9939"
   sodipodi:docname="New document 1">
  <sodipodi:namedview
     id="base"
     pagecolor="#ffffff"
     bordercolor="#666666"
     borderopacity="1.0"
     inkscape:pageopacity="0.0"
     inkscape:pageshadow="2"
     inkscape:zoom="0.98994949"
     inkscape:cx="318.72801"
     inkscape:cy="853.01743"
     inkscape:document-units="px"
     inkscape:current-layer="layer1"
     showgrid="false"
     inkscape:window-width="1024"
     inkscape:window-height="744"
     inkscape:window-x="0"
     inkscape:window-y="24"
     inkscape:window-maximized="1" />
  <defs
     id="defs4" />
  <metadata
     id="metadata7">
    <rdf:RDF>
      <cc:Work
         rdf:about="">
        <dc:format>image/svg+xml</dc:format>
        <dc:type
           rdf:resource="http://purl.org/dc/dcmitype/StillImage" />
        <dc:title></dc:title>
      </cc:Work>
    </rdf:RDF>
  </metadata>
  <g
     id="layer1"
     inkscape:groupmode="layer"
     inkscape:label="Layer 1">
    <g
       id="g3222"
       transform="scale(1.200000,1.200000)"
       ns0:preamble="/home/sriranga/Desktop/Maths-Dictionary/hindipackage.tex"
       ns0:text="{\\dn 1}, {\\dn 2}, {\\dn 3}, {\\dn 4},\\ldots">
      <defs
         id="defs3224">
        <g
           id="g3226">
          <symbol
             id="textext-19efeb56-0"
             overflow="visible">
            <path
               id="path3229"
               d=""
               style="stroke:none;" />
          </symbol>
          <symbol
             id="textext-19efeb56-1"
             overflow="visible">
            <path
               id="path3232"
               d="M 2.875 1.5 C 2.875 1.421875 2.71875 1.21875 2.625 1.140625 L 0.84375 -0.796875 C 1.421875 -1.28125 2.875 -2.5 2.875 -3.59375 C 2.875 -4.0625 2.796875 -4.515625 2.609375 -4.859375 C 2.390625 -5.28125 1.71875 -6.078125 1.109375 -6.078125 C 0.40625 -6.078125 -0.015625 -5.34375 -0.015625 -4.625 C -0.015625 -3.828125 1.0625 -3.03125 1.390625 -2.859375 C 0.9375 -2.3125 0.484375 -1.921875 0 -1.53125 C 0 -1.53125 -0.015625 -1.515625 -0.015625 -1.5 C -0.015625 -1.421875 0.15625 -1.21875 0.234375 -1.140625 L 2.03125 0.8125 C 1.78125 1.078125 1.5 1.3125 1.5 1.34375 C 1.5 1.5 2.125 2.109375 2.265625 2.109375 C 2.296875 2.109375 2.875 1.53125 2.875 1.5 Z M 2.078125 -4.34375 C 2.078125 -4.140625 2.03125 -3.9375 1.953125 -3.734375 C 1.75 -3.5625 1.53125 -3.5 1.296875 -3.5 C 1.109375 -3.5 0.953125 -3.53125 0.828125 -3.59375 C 0.796875 -3.671875 0.78125 -3.78125 0.78125 -3.890625 C 0.78125 -4.578125 1.1875 -5.28125 1.859375 -5.28125 C 1.890625 -5.28125 1.90625 -5.28125 1.953125 -5.28125 C 2.046875 -5.015625 2.078125 -4.671875 2.078125 -4.34375 Z M 2.078125 -4.34375 "
               style="stroke:none;" />
          </symbol>
          <symbol
             id="textext-19efeb56-2"
             overflow="visible">
            <path
               id="path3235"
               d="M 4.359375 1.5 C 4.359375 1.484375 4.359375 1.46875 4.34375 1.453125 C 3.84375 0.421875 3.046875 -0.84375 2.34375 -1.6875 C 3.421875 -1.90625 4.359375 -2.546875 4.359375 -3.59375 C 4.359375 -3.984375 4.171875 -4.28125 3.96875 -4.515625 C 3.390625 -5.21875 2.71875 -5.65625 1.375 -5.65625 C 0.921875 -5.65625 0.46875 -5.609375 0.03125 -5.5 C -0.015625 -5.5 -0.015625 -5.484375 -0.015625 -5.46875 C -0.015625 -5.328125 0.609375 -4.71875 0.75 -4.71875 C 0.78125 -4.71875 1.328125 -4.875 2.109375 -4.875 C 2.65625 -4.875 3.171875 -4.796875 3.53125 -4.609375 C 3.5625 -4.53125 3.578125 -4.453125 3.578125 -4.34375 C 3.578125 -3.125 2.359375 -2.625 1.578125 -2.46875 C 1.359375 -2.640625 1 -2.953125 0.6875 -2.953125 C 0.5 -2.953125 0.34375 -2.828125 0.34375 -2.625 C 0.34375 -2.28125 1.0625 -1.59375 1.359375 -1.59375 C 1.609375 -1.59375 1.859375 -1.609375 2.078125 -1.640625 C 2.703125 -0.796875 3.25 0.140625 3.59375 0.828125 C 3.671875 0.984375 4.171875 1.53125 4.34375 1.53125 C 4.359375 1.53125 4.359375 1.53125 4.359375 1.5 Z M 4.359375 1.5 "
               style="stroke:none;" />
          </symbol>
          <symbol
             id="textext-19efeb56-3"
             overflow="visible">
            <path
               id="path3238"
               d="M 3.765625 1.5 C 3.765625 1.328125 2.671875 -0.09375 2.328125 -0.515625 C 3.015625 -0.59375 3.765625 -0.84375 3.765625 -1.609375 C 3.765625 -2.296875 3.3125 -2.78125 2.984375 -3.09375 C 3.328125 -3.265625 3.59375 -3.625 3.59375 -4.0625 C 3.59375 -4.484375 3.296875 -4.8125 3.078125 -5.03125 C 2.359375 -5.71875 1.78125 -5.78125 0.4375 -5.78125 L 0.015625 -5.78125 C 0 -5.78125 -0.015625 -5.78125 -0.015625 -5.765625 C -0.015625 -5.609375 0.609375 -5 0.75 -5 L 1.171875 -5 C 1.828125 -5 2.390625 -4.96875 2.8125 -4.84375 L 2.8125 -4.796875 C 2.8125 -4.25 2.359375 -3.796875 1.828125 -3.796875 L 0.3125 -3.796875 C 0.296875 -3.796875 0.28125 -3.796875 0.28125 -3.765625 C 0.28125 -3.625 0.890625 -3.015625 1.046875 -3.015625 L 2.5625 -3.015625 C 2.671875 -2.984375 2.78125 -2.953125 2.859375 -2.90625 C 2.9375 -2.765625 2.984375 -2.578125 2.984375 -2.359375 C 2.984375 -1.609375 2.203125 -1.375 1.5625 -1.296875 C 1.359375 -1.46875 0.953125 -1.8125 0.671875 -1.8125 C 0.484375 -1.8125 0.34375 -1.6875 0.34375 -1.5 C 0.34375 -1.140625 1.09375 -0.453125 1.390625 -0.453125 C 1.609375 -0.453125 1.828125 -0.453125 2.0625 -0.484375 C 2.4375 -0.03125 2.8125 0.53125 3.03125 0.875 C 3.125 1.03125 3.59375 1.53125 3.75 1.53125 C 3.765625 1.53125 3.765625 1.53125 3.765625 1.5 Z M 3.765625 1.5 "
               style="stroke:none;" />
          </symbol>
          <symbol
             id="textext-19efeb56-4"
             overflow="visible">
            <path
               id="path3241"
               d="M 5.6875 -5.296875 C 5.6875 -5.453125 5.078125 -6.078125 4.921875 -6.078125 L 2.296875 -4.0625 C 1.96875 -4.359375 1.46875 -4.734375 0.59375 -5.609375 L 0.46875 -5.734375 C 0.375 -5.828125 0.109375 -6.078125 0.015625 -6.078125 C 0 -6.078125 -0.015625 -6.0625 -0.015625 -6.046875 C -0.015625 -5.765625 2.109375 -3.9375 2.140625 -3.921875 C 1.734375 -3.578125 1.328125 -3.0625 1.328125 -2.453125 C 1.328125 -2.234375 1.390625 -2.046875 1.46875 -1.90625 C 1.640625 -1.578125 2.3125 -0.734375 3.015625 -0.734375 C 3.578125 -0.734375 3.9375 -1.140625 3.9375 -1.703125 C 3.9375 -2.375 3.453125 -2.953125 3.125 -3.3125 L 5.6875 -5.28125 C 5.6875 -5.28125 5.6875 -5.296875 5.6875 -5.296875 Z M 3.15625 -2.4375 C 3.15625 -1.90625 2.8125 -1.53125 2.28125 -1.53125 C 2.234375 -1.53125 2.1875 -1.53125 2.140625 -1.53125 C 2.125 -1.59375 2.125 -1.65625 2.125 -1.71875 C 2.125 -2.296875 2.515625 -2.828125 2.9375 -3.171875 C 3.0625 -2.984375 3.15625 -2.71875 3.15625 -2.4375 Z M 3.15625 -2.4375 "
               style="stroke:none;" />
          </symbol>
          <symbol
             id="textext-19efeb56-5"
             overflow="visible">
            <path
               id="path3244"
               d=""
               style="stroke:none;" />
          </symbol>
          <symbol
             id="textext-19efeb56-6"
             overflow="visible">
            <path
               id="path3247"
               d="M 2.03125 -0.015625 C 2.03125 -0.640625 1.78125 -1.0625 1.390625 -1.0625 C 1.03125 -1.0625 0.859375 -0.78125 0.859375 -0.53125 C 0.859375 -0.265625 1.03125 0 1.390625 0 C 1.546875 0 1.671875 -0.0625 1.765625 -0.140625 L 1.78125 -0.15625 C 1.796875 -0.15625 1.796875 -0.15625 1.796875 -0.015625 C 1.796875 0.625 1.53125 1.234375 1.09375 1.703125 C 1.03125 1.765625 1.015625 1.78125 1.015625 1.8125 C 1.015625 1.890625 1.0625 1.921875 1.109375 1.921875 C 1.234375 1.921875 2.03125 1.140625 2.03125 -0.015625 Z M 2.03125 -0.015625 "
               style="stroke:none;" />
          </symbol>
          <symbol
             id="textext-19efeb56-7"
             overflow="visible">
            <path
               id="path3250"
               d="M 1.90625 -0.53125 C 1.90625 -0.8125 1.671875 -1.0625 1.390625 -1.0625 C 1.09375 -1.0625 0.859375 -0.8125 0.859375 -0.53125 C 0.859375 -0.234375 1.09375 0 1.390625 0 C 1.671875 0 1.90625 -0.234375 1.90625 -0.53125 Z M 1.90625 -0.53125 "
               style="stroke:none;" />
          </symbol>
        </g>
      </defs>
      <g
         id="textext-19efeb56-8">
        <g
           id="g3253"
           style="fill:rgb(0%,0%,0%);fill-opacity:1;">
          <use
             id="use3255"
             y="134.765"
             x="223.432"
             xlink:href="#textext-19efeb56-1" />
        </g>
        <g
           id="g3257"
           style="fill:rgb(0%,0%,0%);fill-opacity:1;">
          <use
             id="use3259"
             y="134.765"
             x="227.613"
             xlink:href="#textext-19efeb56-6" />
        </g>
        <g
           id="g3261"
           style="fill:rgb(0%,0%,0%);fill-opacity:1;">
          <use
             id="use3263"
             y="134.765"
             x="233.701"
             xlink:href="#textext-19efeb56-2" />
        </g>
        <g
           id="g3265"
           style="fill:rgb(0%,0%,0%);fill-opacity:1;">
          <use
             id="use3267"
             y="134.765"
             x="239.371"
             xlink:href="#textext-19efeb56-6" />
        </g>
        <g
           id="g3269"
           style="fill:rgb(0%,0%,0%);fill-opacity:1;">
          <use
             id="use3271"
             y="134.765"
             x="245.459"
             xlink:href="#textext-19efeb56-3" />
        </g>
        <g
           id="g3273"
           style="fill:rgb(0%,0%,0%);fill-opacity:1;">
          <use
             id="use3275"
             y="134.765"
             x="250.533"
             xlink:href="#textext-19efeb56-6" />
        </g>
        <g
           id="g3277"
           style="fill:rgb(0%,0%,0%);fill-opacity:1;">
          <use
             id="use3279"
             y="134.765"
             x="256.621"
             xlink:href="#textext-19efeb56-4" />
        </g>
        <g
           id="g3281"
           style="fill:rgb(0%,0%,0%);fill-opacity:1;">
          <use
             id="use3283"
             y="134.765"
             x="263.613"
             xlink:href="#textext-19efeb56-6" />
          <use
             id="use3285"
             y="134.765"
             x="266.38061"
             xlink:href="#textext-19efeb56-7" />
        </g>
        <g
           id="g3287"
           style="fill:rgb(0%,0%,0%);fill-opacity:1;">
          <use
             id="use3289"
             y="134.765"
             x="270.811975"
             xlink:href="#textext-19efeb56-7" />
        </g>
        <g
           id="g3291"
           style="fill:rgb(0%,0%,0%);fill-opacity:1;">
          <use
             id="use3293"
             y="134.765"
             x="275.233377"
             xlink:href="#textext-19efeb56-7" />
        </g>
      </g>
    </g>
  </g>
</svg>
