<?xml version="1.0" encoding="UTF-8" standalone="no"?>
<!-- Created with Inkscape (http://www.inkscape.org/) -->

<svg
   xmlns:ns0="http://www.iki.fi/pav/software/textext/"
   xmlns:dc="http://purl.org/dc/elements/1.1/"
   xmlns:cc="http://creativecommons.org/ns#"
   xmlns:rdf="http://www.w3.org/1999/02/22-rdf-syntax-ns#"
   xmlns:svg="http://www.w3.org/2000/svg"
   xmlns="http://www.w3.org/2000/svg"
   xmlns:sodipodi="http://sodipodi.sourceforge.net/DTD/sodipodi-0.dtd"
   xmlns:inkscape="http://www.inkscape.org/namespaces/inkscape"
   width="212.59842"
   height="141.73228"
   id="svg2"
   version="1.1"
   inkscape:version="0.48.4 r9939"
   sodipodi:docname="art19(1).svg">
  <sodipodi:namedview
     id="base"
     pagecolor="#ffffff"
     bordercolor="#666666"
     borderopacity="1.0"
     inkscape:pageopacity="0.0"
     inkscape:pageshadow="2"
     inkscape:zoom="1.979899"
     inkscape:cx="178.94055"
     inkscape:cy="32.336953"
     inkscape:document-units="px"
     inkscape:current-layer="content"
     showgrid="false"
     units="cm"
     inkscape:window-width="1024"
     inkscape:window-height="744"
     inkscape:window-x="0"
     inkscape:window-y="24"
     inkscape:window-maximized="1" />
  <defs
     id="defs4">
    <inkscape:path-effect
       is_visible="true"
       id="path-effect4981"
       effect="spiro" />
    <marker
       style="overflow:visible;"
       id="Arrow1Mend"
       refX="0.0"
       refY="0.0"
       orient="auto"
       inkscape:stockid="Arrow1Mend">
      <path
         transform="scale(0.4) rotate(180) translate(10,0)"
         style="fill-rule:evenodd;stroke:#000000;stroke-width:1.0pt;"
         d="M 0.0,0.0 L 5.0,-5.0 L -12.5,0.0 L 5.0,5.0 L 0.0,0.0 z "
         id="path3983" />
    </marker>
    <inkscape:path-effect
       is_visible="true"
       id="path-effect4981-3"
       effect="spiro" />
  </defs>
  <metadata
     id="metadata7">
    <rdf:RDF>
      <cc:Work
         rdf:about="">
        <dc:format>image/svg+xml</dc:format>
        <dc:type
           rdf:resource="http://purl.org/dc/dcmitype/StillImage" />
        <dc:title />
      </cc:Work>
    </rdf:RDF>
  </metadata>
  <g
     inkscape:label="Layer 1"
     inkscape:groupmode="layer"
     id="layer1"
     transform="translate(0,-910.6286)">
    <g
       style="font-style:normal;font-variant:normal;font-weight:normal;font-stretch:normal;letter-spacing:normal;word-spacing:normal;text-anchor:start;fill:none;stroke:#000000;stroke-linecap:butt;stroke-linejoin:miter;stroke-miterlimit:10.43299961;stroke-opacity:1;stroke-dasharray:none;stroke-dashoffset:0"
       id="content"
       transform="matrix(1.2,0,0,-1.2,-364.24876,1524.7793)"
       xml:space="preserve"
       stroke-miterlimit="10.433"
       font-style="normal"
       font-variant="normal"
       font-weight="normal"
       font-stretch="normal"
       font-size-adjust="none"
       letter-spacing="normal"
       word-spacing="normal"
       ns0:text="\\begin{align*}\nP_{X,Y} (x,y) &amp; = \\sum\\limits_{\\text{all } z} P_X(x) P_Y (y) P_Z (z)\\\\\n&amp; = P_X (x) P_Y(y) \\sum\\limits_{\\text{all } z} P_{Z} (z)\\\\\n&amp; = P_X (x) P_Y(y)\n\\end{align*}"
       ns0:preamble="/home/sriranga/Desktop/Beamer-prathi/article24/figure/package.tex"><path
         style="fill:#000000;stroke-width:0"
         inkscape:connector-curvature="0"
         d="m 322.19665,483.33 0.02,0 0.03,0 0.05,-0.01 0.05,-0.01 0.04,-0.01 0.04,0 0.04,-0.01 0.04,-0.01 0.04,-0.01 0.03,0 0.03,-0.01 0.03,-0.01 0.03,-0.01 0.03,-0.01 0.02,-0.01 0.02,-0.01 0.02,-0.02 0.02,-0.01 0.02,-0.01 0.01,-0.01 0.02,-0.02 0.01,-0.01 0.01,-0.02 0.01,-0.01 0.01,-0.02 0.01,-0.02 0.01,-0.02 0,-0.02 0.01,-0.02 0,-0.02 0,-0.02 0,-0.02 0,-0.02 c 0,-0.14 -0.04,-0.35 -0.17,-0.8 l -1.17,-4.22 c -0.18,-0.6 -0.25,-0.66 -0.82,-0.74 V 477 h 2.44 v 0.16 c -0.62,0.09 -0.68,0.12 -0.68,0.46 0,0.12 0.03,0.22 0.12,0.58 l 0.53,1.91 0.09,0.34 0.71,2.47 c 0.06,0.2 0.18,0.27 0.45,0.27 0.39,0 0.77,-0.1 0.97,-0.24 0.26,-0.17 0.37,-0.47 0.37,-0.94 0,-0.65 -0.23,-1.1 -0.67,-1.36 -0.31,-0.17 -0.7,-0.25 -1.31,-0.25 -0.17,0 -0.25,0.01 -0.52,0.05 l -0.09,-0.34 c 0.25,-0.06 0.51,-0.08 0.92,-0.08 0.81,0 1.48,0.17 1.91,0.48 0.49,0.37 0.78,0.91 0.78,1.5 0,0.95 -0.74,1.48 -2.1,1.48 h -2.46 z"
         id="path2991" /><path
         style="fill:#000000;stroke-width:0"
         inkscape:connector-curvature="0"
         d="m 331.56665,480.05 h -1.45 v -0.11 c 0.34,-0.04 0.42,-0.09 0.42,-0.25 0,-0.09 -0.04,-0.18 -0.14,-0.29 l -1.01,-1.16 -0.41,1.02 c -0.07,0.19 -0.1,0.3 -0.1,0.39 0,0.18 0.11,0.24 0.49,0.29 v 0.11 h -1.84 v -0.11 c 0.41,-0.04 0.51,-0.11 0.65,-0.43 l 0.73,-1.82 c -0.25,-0.3 -0.48,-0.57 -0.57,-0.68 -0.97,-1.14 -1.17,-1.31 -1.54,-1.39 v -0.11 h 1.49 v 0.11 c -0.33,0 -0.45,0.06 -0.45,0.24 0,0.1 0.06,0.22 0.15,0.32 l 1.05,1.2 0.46,-1.15 c 0.05,-0.12 0.08,-0.23 0.08,-0.34 0,-0.2 -0.07,-0.24 -0.53,-0.27 v -0.11 h 1.9 v 0.11 c -0.48,0.06 -0.55,0.1 -0.72,0.52 l -0.71,1.79 1.18,1.35 c 0.36,0.4 0.57,0.56 0.87,0.66 z"
         id="path2993" /><path
         style="fill:#000000;stroke-width:0"
         inkscape:connector-curvature="0"
         d="m 332.54665,475.55 0,0.03 0,0.02 0,0.03 -0.01,0.02 0,0.03 0,0.02 -0.01,0.02 0,0.03 0,0.02 -0.01,0.02 0,0.02 -0.01,0.02 -0.01,0.02 0,0.01 -0.01,0.02 -0.01,0.02 -0.01,0.02 0,0.01 -0.02,0.03 -0.02,0.03 -0.02,0.03 -0.02,0.02 -0.02,0.02 -0.02,0.02 -0.02,0.02 -0.03,0.02 -0.02,0.01 -0.02,0.02 -0.03,0.01 -0.02,0.01 -0.02,0.01 -0.03,0.01 -0.02,0 -0.02,0.01 -0.02,0.01 -0.03,0 -0.02,0 -0.02,0.01 -0.01,0 -0.02,0 -0.02,0 c -0.17,0 -0.4,-0.11 -0.4,-0.4 0,-0.28 0.25,-0.35 0.43,-0.35 0.05,0 0.08,0 0.11,0.01 0.02,0.01 0.04,0.01 0.06,0.01 0.05,0 0.1,-0.03 0.1,-0.09 0,-0.13 -0.12,-0.45 -0.57,-0.74 l 0.06,-0.13 c 0.21,0.07 0.78,0.53 0.78,1.02 z"
         id="path2995" /><path
         style="fill:#000000;stroke-width:0"
         inkscape:connector-curvature="0"
         d="m 333.56665,479.94 0.02,0 0.01,-0.01 0.04,0 0.03,-0.01 0.03,0 0.02,-0.01 0.03,0 0.02,-0.01 0.03,0 0.02,-0.01 0.02,-0.01 0.02,0 0.01,-0.01 0.02,-0.01 0.02,-0.01 0.01,-0.01 0.01,-0.01 0.02,-0.01 0.01,-0.01 0.01,-0.02 0.01,-0.01 0.01,-0.02 0.01,-0.02 0.01,-0.01 0.01,-0.03 0.01,-0.02 0.01,-0.02 0.01,-0.03 0.01,-0.02 0,-0.03 0.01,-0.03 0.01,-0.02 0.01,-0.02 0,-0.01 0.01,-0.02 0.53,-1.87 -0.42,-1.47 c -0.12,-0.38 -0.27,-0.49 -0.73,-0.52 v -0.11 h 2.01 v 0.11 c -0.11,0.01 -0.21,0.01 -0.25,0.02 -0.27,0.01 -0.37,0.08 -0.37,0.26 0,0.14 0.05,0.35 0.22,0.9 0.02,0.06 0.03,0.11 0.04,0.13 l 0.2,0.71 1.52,1.87 c 0.23,0.28 0.28,0.33 0.49,0.43 v 0.11 h -1.31 v -0.11 c 0.08,-0.01 0.16,-0.02 0.18,-0.02 0.2,-0.02 0.3,-0.08 0.3,-0.2 0,-0.18 -0.32,-0.64 -1.05,-1.48 -0.12,-0.14 -0.16,-0.19 -0.26,-0.32 -0.09,0.31 -0.11,0.4 -0.22,0.77 -0.17,0.6 -0.25,0.89 -0.25,1 0,0.17 0.08,0.21 0.5,0.25 v 0.11 h -1.66 z"
         id="path2997" /><path
         style="fill:#000000;stroke-width:0"
         inkscape:connector-curvature="0"
         d="m 340.77665,483.72 -0.07,-0.05 -0.06,-0.04 -0.06,-0.04 -0.07,-0.04 -0.05,-0.04 -0.06,-0.04 -0.05,-0.04 -0.06,-0.03 -0.05,-0.04 -0.05,-0.04 -0.04,-0.03 -0.05,-0.04 -0.04,-0.03 -0.05,-0.04 -0.08,-0.06 -0.08,-0.07 -0.07,-0.07 -0.07,-0.07 -0.07,-0.07 -0.07,-0.07 -0.07,-0.08 -0.06,-0.08 -0.07,-0.08 c -0.71,-0.87 -1.06,-1.86 -1.06,-3.02 0,-1.26 0.37,-2.24 1.25,-3.25 0.4,-0.48 0.66,-0.7 1.18,-1.01 l 0.12,0.15 c -0.8,0.63 -1.07,0.98 -1.34,1.72 -0.24,0.67 -0.35,1.42 -0.35,2.42 0,1.04 0.13,1.85 0.4,2.47 0.28,0.62 0.57,0.97 1.29,1.55 z"
         id="path2999" /><path
         style="fill:#000000;stroke-width:0"
         inkscape:connector-curvature="0"
         d="m 345.65665,478.11 -0.01,-0.02 -0.02,-0.02 -0.01,-0.01 -0.01,-0.02 -0.02,-0.01 -0.01,-0.02 -0.01,-0.01 -0.02,-0.02 -0.01,-0.01 -0.01,-0.02 -0.01,-0.01 -0.02,-0.02 0,-0.01 -0.01,-0.01 -0.01,-0.01 -0.01,-0.01 0,-0.01 -0.01,-0.01 -0.01,-0.01 -0.01,-0.01 c -0.23,-0.3 -0.35,-0.4 -0.46,-0.4 -0.14,0 -0.23,0.13 -0.3,0.41 -0.02,0.08 -0.03,0.14 -0.04,0.17 -0.25,1 -0.36,1.46 -0.36,1.61 0.44,0.76 0.79,1.2 0.97,1.2 0.06,0 0.14,-0.03 0.24,-0.08 0.12,-0.07 0.19,-0.09 0.27,-0.09 0.21,0 0.35,0.15 0.35,0.36 0,0.21 -0.17,0.37 -0.41,0.37 -0.44,0 -0.82,-0.36 -1.5,-1.43 l -0.11,0.55 c -0.14,0.68 -0.25,0.88 -0.52,0.88 -0.22,0 -0.56,-0.09 -1.16,-0.29 l -0.11,-0.04 0.04,-0.15 c 0.38,0.09 0.47,0.11 0.56,0.11 0.24,0 0.3,-0.09 0.44,-0.69 l 0.29,-1.22 -0.82,-1.16 c -0.19,-0.3 -0.39,-0.48 -0.5,-0.48 -0.06,0 -0.16,0.03 -0.26,0.09 -0.13,0.07 -0.24,0.1 -0.32,0.1 -0.19,0 -0.34,-0.15 -0.34,-0.35 0,-0.26 0.2,-0.42 0.5,-0.42 0.31,0 0.43,0.09 0.92,0.7 0.27,0.32 0.48,0.59 0.9,1.16 l 0.3,-1.19 c 0.13,-0.51 0.26,-0.67 0.58,-0.67 0.37,0 0.63,0.24 1.21,1.14 z"
         id="path3001" /><path
         style="fill:#000000;stroke-width:0"
         inkscape:connector-curvature="0"
         d="m 348.05665,477.06 -0.01,0.04 0,0.04 0,0.04 0,0.03 -0.01,0.03 0,0.04 0,0.03 -0.01,0.03 -0.01,0.03 0,0.03 -0.01,0.03 -0.01,0.03 -0.01,0.02 -0.01,0.03 -0.01,0.03 -0.01,0.02 -0.01,0.02 -0.01,0.03 -0.03,0.04 -0.02,0.04 -0.03,0.04 -0.03,0.03 -0.03,0.03 -0.03,0.03 -0.03,0.03 -0.03,0.02 -0.04,0.03 -0.03,0.02 -0.04,0.01 -0.03,0.02 -0.03,0.01 -0.04,0.01 -0.03,0.01 -0.03,0.01 -0.03,0.01 -0.03,0.01 -0.03,0 -0.03,0 -0.02,0.01 -0.03,0 -0.02,0 c -0.25,0 -0.58,-0.15 -0.58,-0.58 0,-0.4 0.36,-0.5 0.62,-0.5 0.07,0 0.12,0.01 0.15,0.02 0.04,0.01 0.07,0.02 0.09,0.02 0.07,0 0.14,-0.05 0.14,-0.13 0,-0.19 -0.16,-0.64 -0.82,-1.06 l 0.09,-0.19 c 0.3,0.1 1.12,0.76 1.12,1.46 z"
         id="path3003" /><path
         style="fill:#000000;stroke-width:0"
         inkscape:connector-curvature="0"
         d="m 350.40665,480.98 0.02,0 0.01,0 0.01,0.01 0.01,0 0.01,0 0.01,0 0.01,0 0.01,0.01 0.02,0 0.02,0 0.02,0.01 0.02,0 0.01,0 0.02,0 0.02,0 0.02,0 0.02,0.01 0.01,0 0.02,0 0.01,0 0.01,0 c 0.57,0 0.72,-0.25 1.18,-1.96 0.17,-0.64 0.41,-1.81 0.41,-1.98 0,-0.16 -0.06,-0.31 -0.21,-0.49 -0.31,-0.41 -0.51,-0.67 -0.62,-0.79 -0.21,-0.22 -0.33,-0.3 -0.46,-0.3 -0.06,0 -0.13,0.03 -0.24,0.11 -0.15,0.12 -0.25,0.17 -0.37,0.17 -0.21,0 -0.38,-0.17 -0.38,-0.39 0,-0.24 0.22,-0.43 0.5,-0.43 0.64,0 1.94,1.49 3.02,3.46 0.68,1.22 0.95,1.93 0.95,2.42 0,0.3 -0.24,0.55 -0.54,0.55 -0.23,0 -0.39,-0.15 -0.39,-0.37 0,-0.15 0.08,-0.26 0.28,-0.39 0.19,-0.11 0.26,-0.2 0.26,-0.34 0,-0.4 -0.37,-1.17 -1.22,-2.57 l -0.2,1.15 c -0.15,0.88 -0.7,2.52 -0.85,2.52 h -0.04 c -0.01,-0.01 -0.05,-0.01 -0.09,-0.01 -0.09,-0.02 -0.45,-0.08 -0.98,-0.17 -0.05,-0.01 -0.17,-0.04 -0.32,-0.06 z"
         id="path3005" /><path
         style="fill:#000000;stroke-width:0"
         inkscape:connector-curvature="0"
         d="m 355.06665,475.25 0.06,0.04 0.07,0.04 0.06,0.04 0.06,0.05 0.06,0.04 0.06,0.03 0.05,0.04 0.05,0.04 0.06,0.04 0.04,0.03 0.05,0.04 0.05,0.03 0.04,0.04 0.04,0.03 0.09,0.07 0.07,0.07 0.08,0.07 0.07,0.07 0.07,0.07 0.07,0.07 0.06,0.08 0.07,0.07 0.07,0.09 c 0.71,0.86 1.05,1.86 1.05,3.02 0,1.27 -0.36,2.23 -1.24,3.25 -0.41,0.47 -0.67,0.69 -1.18,1.01 l -0.12,-0.16 c 0.79,-0.63 1.06,-0.97 1.34,-1.72 0.24,-0.66 0.35,-1.42 0.35,-2.41 0,-1.04 -0.13,-1.86 -0.4,-2.47 -0.28,-0.62 -0.58,-0.98 -1.29,-1.56 z"
         id="path3007" /><polygon
         transform="translate(-8.3333335,0)"
         style="fill:#000000;stroke-width:0"
         points="374.82,480.84 369.72,480.84 369.72,480.28 374.82,480.28 "
         id="polygon3009" /><polygon
         transform="translate(-8.3333335,0)"
         style="fill:#000000;stroke-width:0"
         points="374.82,478.82 369.72,478.82 369.72,478.27 374.82,478.27 "
         id="polygon3011" /><path
         style="fill:#000000;stroke-width:0"
         inkscape:connector-curvature="0"
         d="m 385.54999,476.25 h -0.24 c -0.35,-2.17 -1.17,-3.33 -2.38,-3.33 h -7.61 l 5.43,6.95 -4.64,6.81 h 6.27 c 1.27,0 1.96,-0.72 2.33,-2.93 h 0.22 l -0.1,3.45 h -10.46 l 5.33,-7.63 -6.06,-7.67 h 11.72 z"
         id="path3013" /><path
         style="fill:#000000;stroke-width:0"
         inkscape:connector-curvature="0"
         d="m 377.15999,465.97 -0.01,-0.01 -0.01,-0.01 -0.01,-0.01 -0.01,-0.01 -0.01,-0.01 -0.01,0 -0.01,-0.01 -0.01,-0.01 -0.01,0 -0.01,-0.01 -0.01,0 -0.01,-0.01 -0.01,0 -0.01,-0.01 -0.01,0 -0.01,-0.01 -0.01,0 -0.01,0 0,-0.01 -0.01,0 -0.01,0 -0.01,0 -0.01,-0.01 -0.01,0 -0.02,0 -0.02,0 -0.02,-0.01 -0.01,0 c -0.16,0 -0.21,0.1 -0.21,0.41 v 1.35 c 0,0.36 -0.04,0.57 -0.14,0.73 -0.16,0.25 -0.46,0.39 -0.87,0.39 -0.65,0 -1.17,-0.35 -1.17,-0.78 0,-0.16 0.14,-0.3 0.3,-0.3 0.17,0 0.32,0.14 0.32,0.29 0,0.03 -0.01,0.06 -0.02,0.11 -0.01,0.06 -0.02,0.12 -0.02,0.17 0,0.19 0.22,0.34 0.5,0.34 0.34,0 0.53,-0.2 0.53,-0.58 v -0.42 -0.17 -1.01 c 0,-0.21 -0.03,-0.28 -0.18,-0.36 -0.17,-0.1 -0.36,-0.16 -0.51,-0.16 -0.24,0 -0.44,0.24 -0.44,0.54 v 0.02 c 0,0.41 0.29,0.67 1.13,0.97 v 0.17 c -1.07,-0.43 -1.19,-0.49 -1.49,-0.75 -0.15,-0.14 -0.25,-0.38 -0.25,-0.61 0,-0.44 0.31,-0.74 0.73,-0.74 0.31,0 0.59,0.14 1.02,0.51 0.03,-0.37 0.16,-0.51 0.44,-0.51 0.24,0 0.39,0.08 0.63,0.35 z"
         id="path3015" /><path
         style="fill:#000000;stroke-width:0"
         inkscape:connector-curvature="0"
         d="m 377.30999,469.84 h 0.04 c 0.08,0.01 0.16,0.01 0.22,0.01 0.22,0 0.29,-0.09 0.29,-0.42 v -3.32 c 0,-0.37 -0.1,-0.46 -0.53,-0.5 v -0.1 h 1.64 v 0.1 c -0.44,0.03 -0.52,0.1 -0.52,0.48 v 4.15 l -0.03,0.02 c -0.36,-0.12 -0.63,-0.19 -1.11,-0.31 z"
         id="path3017" /><path
         style="fill:#000000;stroke-width:0"
         inkscape:connector-curvature="0"
         d="m 379.24999,469.84 h 0.04 c 0.08,0.01 0.16,0.01 0.22,0.01 0.22,0 0.29,-0.09 0.29,-0.42 v -3.32 c 0,-0.37 -0.1,-0.46 -0.54,-0.5 v -0.1 h 1.65 v 0.1 c -0.44,0.03 -0.52,0.1 -0.52,0.48 v 4.15 l -0.03,0.02 c -0.36,-0.12 -0.63,-0.19 -1.11,-0.31 z"
         id="path3019" /><path
         style="fill:#000000;stroke-width:0"
         inkscape:connector-curvature="0"
         d="m 383.35999,467.66 0.02,0.03 0.01,0.03 0.01,0.03 0.02,0.02 0.01,0.03 0.01,0.02 0.01,0.03 0.02,0.02 0.01,0.02 0.01,0.01 0.02,0.02 0.01,0.02 0.01,0.01 0.02,0.02 0.01,0.01 0.02,0.01 0.01,0.01 0.02,0.01 0.02,0.01 0.01,0.01 0.02,0 0.02,0.01 0.02,0.01 0.02,0 0.02,0 0.03,0.01 0.02,0 0.03,0 0.02,0 0.03,0.01 0.03,0 0.03,0 h 1.02 l -2.16,-2.59 0.06,-0.06 c 0.11,0.09 0.2,0.12 0.32,0.12 0.17,0 0.4,-0.09 0.72,-0.29 0.35,-0.22 0.59,-0.31 0.78,-0.31 0.35,0 0.66,0.25 0.66,0.53 0,0.15 -0.1,0.25 -0.25,0.25 -0.13,0 -0.23,-0.09 -0.23,-0.21 0,-0.07 0.02,-0.13 0.06,-0.21 0.02,-0.04 0.04,-0.09 0.04,-0.11 0,-0.06 -0.08,-0.1 -0.19,-0.1 -0.18,0 -0.26,0.05 -0.49,0.35 -0.31,0.39 -0.44,0.48 -0.84,0.58 l 2.02,2.39 v 0.07 h -1.98 l -0.22,-0.8 z"
         id="path3021" /><path
         style="fill:#000000;stroke-width:0"
         inkscape:connector-curvature="0"
         d="m 389.74999,483.33 0.03,0 0.02,0 0.05,-0.01 0.05,-0.01 0.04,-0.01 0.05,0 0.04,-0.01 0.03,-0.01 0.04,-0.01 0.03,0 0.04,-0.01 0.03,-0.01 0.02,-0.01 0.03,-0.01 0.02,-0.01 0.03,-0.01 0.02,-0.02 0.02,-0.01 0.01,-0.01 0.02,-0.01 0.01,-0.02 0.02,-0.01 0.01,-0.02 0.01,-0.01 0.01,-0.02 0,-0.02 0.01,-0.02 0.01,-0.02 0,-0.02 0,-0.02 0.01,-0.02 0,-0.02 0,-0.02 c 0,-0.14 -0.04,-0.35 -0.17,-0.8 l -1.18,-4.22 c -0.18,-0.6 -0.25,-0.66 -0.81,-0.74 V 477 h 2.44 v 0.16 c -0.63,0.09 -0.68,0.12 -0.68,0.46 0,0.12 0.02,0.22 0.12,0.58 l 0.53,1.91 0.09,0.34 0.7,2.47 c 0.06,0.2 0.18,0.27 0.46,0.27 0.39,0 0.77,-0.1 0.96,-0.24 0.26,-0.17 0.37,-0.47 0.37,-0.94 0,-0.65 -0.23,-1.1 -0.66,-1.36 -0.31,-0.17 -0.7,-0.25 -1.32,-0.25 -0.17,0 -0.25,0.01 -0.51,0.05 l -0.09,-0.34 c 0.24,-0.06 0.5,-0.08 0.91,-0.08 0.82,0 1.48,0.17 1.91,0.48 0.5,0.37 0.79,0.91 0.79,1.5 0,0.95 -0.75,1.48 -2.1,1.48 h -2.47 z"
         id="path3023" /><path
         style="fill:#000000;stroke-width:0"
         inkscape:connector-curvature="0"
         d="m 399.11999,480.05 h -1.45 v -0.11 c 0.34,-0.04 0.43,-0.09 0.43,-0.25 0,-0.09 -0.05,-0.18 -0.14,-0.29 l -1.01,-1.16 -0.41,1.02 c -0.08,0.19 -0.11,0.3 -0.11,0.39 0,0.18 0.11,0.24 0.5,0.29 v 0.11 h -1.84 v -0.11 c 0.4,-0.04 0.51,-0.11 0.64,-0.43 l 0.74,-1.82 c -0.26,-0.3 -0.49,-0.57 -0.58,-0.68 -0.97,-1.14 -1.16,-1.31 -1.53,-1.39 v -0.11 h 1.49 v 0.11 c -0.34,0 -0.46,0.06 -0.46,0.24 0,0.1 0.06,0.22 0.15,0.32 l 1.05,1.2 0.47,-1.15 c 0.05,-0.12 0.08,-0.23 0.08,-0.34 0,-0.2 -0.07,-0.24 -0.53,-0.27 v -0.11 h 1.9 v 0.11 c -0.49,0.06 -0.55,0.1 -0.73,0.52 l -0.71,1.79 1.18,1.35 c 0.36,0.4 0.57,0.56 0.87,0.66 z"
         id="path3025" /><path
         style="fill:#000000;stroke-width:0"
         inkscape:connector-curvature="0"
         d="m 402.55999,483.72 -0.07,-0.05 -0.06,-0.04 -0.07,-0.04 -0.06,-0.04 -0.05,-0.04 -0.06,-0.04 -0.06,-0.04 -0.05,-0.03 -0.05,-0.04 -0.05,-0.04 -0.04,-0.03 -0.05,-0.04 -0.04,-0.03 -0.05,-0.04 -0.08,-0.06 -0.08,-0.07 -0.07,-0.07 -0.07,-0.07 -0.07,-0.07 -0.07,-0.07 -0.07,-0.08 -0.06,-0.08 -0.07,-0.08 c -0.71,-0.87 -1.06,-1.86 -1.06,-3.02 0,-1.26 0.37,-2.24 1.25,-3.25 0.4,-0.48 0.66,-0.7 1.18,-1.01 l 0.12,0.15 c -0.8,0.63 -1.07,0.98 -1.34,1.72 -0.24,0.67 -0.35,1.42 -0.35,2.42 0,1.04 0.13,1.85 0.4,2.47 0.28,0.62 0.57,0.97 1.29,1.55 z"
         id="path3027" /><path
         style="fill:#000000;stroke-width:0"
         inkscape:connector-curvature="0"
         d="m 407.43999,478.11 -0.01,-0.02 -0.02,-0.02 -0.01,-0.01 -0.01,-0.02 -0.02,-0.01 -0.01,-0.02 -0.01,-0.01 -0.02,-0.02 -0.01,-0.01 -0.01,-0.02 -0.01,-0.01 -0.02,-0.02 0,-0.01 -0.01,-0.01 -0.01,-0.01 -0.01,-0.01 0,-0.01 -0.01,-0.01 -0.01,-0.01 -0.01,-0.01 c -0.23,-0.3 -0.35,-0.4 -0.46,-0.4 -0.15,0 -0.24,0.13 -0.3,0.41 -0.02,0.08 -0.03,0.14 -0.04,0.17 -0.25,1 -0.36,1.46 -0.36,1.61 0.43,0.76 0.79,1.2 0.97,1.2 0.06,0 0.14,-0.03 0.24,-0.08 0.12,-0.07 0.19,-0.09 0.27,-0.09 0.21,0 0.35,0.15 0.35,0.36 0,0.21 -0.17,0.37 -0.41,0.37 -0.44,0 -0.81,-0.36 -1.5,-1.43 l -0.11,0.55 c -0.14,0.68 -0.25,0.88 -0.52,0.88 -0.22,0 -0.56,-0.09 -1.16,-0.29 l -0.11,-0.04 0.04,-0.15 c 0.38,0.09 0.46,0.11 0.55,0.11 0.25,0 0.31,-0.09 0.45,-0.69 l 0.29,-1.22 -0.81,-1.16 c -0.2,-0.3 -0.4,-0.48 -0.51,-0.48 -0.06,0 -0.16,0.03 -0.26,0.09 -0.13,0.07 -0.24,0.1 -0.32,0.1 -0.19,0 -0.34,-0.15 -0.34,-0.35 0,-0.26 0.2,-0.42 0.5,-0.42 0.31,0 0.43,0.09 0.93,0.7 0.26,0.32 0.47,0.59 0.89,1.16 l 0.3,-1.19 c 0.13,-0.51 0.26,-0.67 0.58,-0.67 0.37,0 0.63,0.24 1.21,1.14 z"
         id="path3029" /><path
         style="fill:#000000;stroke-width:0"
         inkscape:connector-curvature="0"
         d="m 408.26999,475.25 0.07,0.04 0.07,0.04 0.06,0.04 0.06,0.05 0.06,0.04 0.05,0.03 0.06,0.04 0.05,0.04 0.05,0.04 0.05,0.03 0.05,0.04 0.04,0.03 0.05,0.04 0.04,0.03 0.08,0.07 0.08,0.07 0.07,0.07 0.07,0.07 0.07,0.07 0.07,0.07 0.07,0.08 0.07,0.07 0.06,0.09 c 0.71,0.86 1.06,1.86 1.06,3.02 0,1.27 -0.37,2.23 -1.24,3.25 -0.41,0.47 -0.67,0.69 -1.19,1.01 l -0.12,-0.16 c 0.8,-0.63 1.07,-0.97 1.35,-1.72 0.23,-0.66 0.34,-1.42 0.34,-2.41 0,-1.04 -0.13,-1.86 -0.39,-2.47 -0.28,-0.62 -0.58,-0.98 -1.3,-1.56 z"
         id="path3031" /><path
         style="fill:#000000;stroke-width:0"
         inkscape:connector-curvature="0"
         d="m 412.90999,483.33 0.03,0 0.03,0 0.05,-0.01 0.04,-0.01 0.05,-0.01 0.04,0 0.04,-0.01 0.04,-0.01 0.03,-0.01 0.04,0 0.03,-0.01 0.03,-0.01 0.03,-0.01 0.02,-0.01 0.03,-0.01 0.02,-0.01 0.02,-0.02 0.02,-0.01 0.02,-0.01 0.01,-0.01 0.02,-0.02 0.01,-0.01 0.01,-0.02 0.01,-0.01 0.01,-0.02 0.01,-0.02 0,-0.02 0.01,-0.02 0,-0.02 0.01,-0.02 0,-0.02 0,-0.02 0,-0.02 c 0,-0.14 -0.04,-0.35 -0.17,-0.8 l -1.17,-4.22 c -0.18,-0.6 -0.25,-0.66 -0.82,-0.74 V 477 h 2.44 v 0.16 c -0.63,0.09 -0.68,0.12 -0.68,0.46 0,0.12 0.02,0.22 0.12,0.58 l 0.53,1.91 0.09,0.34 0.71,2.47 c 0.05,0.2 0.17,0.27 0.45,0.27 0.39,0 0.77,-0.1 0.97,-0.24 0.26,-0.17 0.37,-0.47 0.37,-0.94 0,-0.65 -0.23,-1.1 -0.67,-1.36 -0.31,-0.17 -0.7,-0.25 -1.31,-0.25 -0.17,0 -0.25,0.01 -0.52,0.05 l -0.09,-0.34 c 0.25,-0.06 0.51,-0.08 0.91,-0.08 0.82,0 1.49,0.17 1.91,0.48 0.5,0.37 0.79,0.91 0.79,1.5 0,0.95 -0.75,1.48 -2.1,1.48 h -2.47 z"
         id="path3033" /><path
         style="fill:#000000;stroke-width:0"
         inkscape:connector-curvature="0"
         d="m 418.17999,479.94 0.02,0 0.02,-0.01 0.03,0 0.03,-0.01 0.03,0 0.03,-0.01 0.03,0 0.02,-0.01 0.02,0 0.02,-0.01 0.02,-0.01 0.02,0 0.02,-0.01 0.02,-0.01 0.01,-0.01 0.02,-0.01 0.01,-0.01 0.01,-0.01 0.01,-0.01 0.01,-0.02 0.01,-0.01 0.01,-0.02 0.01,-0.02 0.01,-0.01 0.01,-0.03 0.01,-0.02 0.01,-0.02 0.01,-0.03 0.01,-0.02 0.01,-0.03 0.01,-0.03 0,-0.02 0.01,-0.02 0.01,-0.01 0,-0.02 0.54,-1.87 -0.43,-1.47 c -0.12,-0.38 -0.27,-0.49 -0.73,-0.52 v -0.11 h 2.01 v 0.11 c -0.11,0.01 -0.21,0.01 -0.25,0.02 -0.27,0.01 -0.37,0.08 -0.37,0.26 0,0.14 0.05,0.35 0.22,0.9 0.02,0.06 0.03,0.11 0.04,0.13 l 0.2,0.71 1.53,1.87 c 0.22,0.28 0.28,0.33 0.49,0.43 v 0.11 h -1.32 v -0.11 c 0.08,-0.01 0.16,-0.02 0.19,-0.02 0.2,-0.02 0.29,-0.08 0.29,-0.2 0,-0.18 -0.32,-0.64 -1.04,-1.48 -0.12,-0.14 -0.16,-0.19 -0.27,-0.32 -0.08,0.31 -0.1,0.4 -0.21,0.77 -0.18,0.6 -0.25,0.89 -0.25,1 0,0.17 0.08,0.21 0.5,0.25 v 0.11 h -1.67 z"
         id="path3035" /><path
         style="fill:#000000;stroke-width:0"
         inkscape:connector-curvature="0"
         d="m 425.38999,483.72 -0.06,-0.05 -0.07,-0.04 -0.06,-0.04 -0.06,-0.04 -0.06,-0.04 -0.06,-0.04 -0.05,-0.04 -0.05,-0.03 -0.05,-0.04 -0.05,-0.04 -0.05,-0.03 -0.05,-0.04 -0.04,-0.03 -0.04,-0.04 -0.08,-0.06 -0.08,-0.07 -0.08,-0.07 -0.07,-0.07 -0.07,-0.07 -0.06,-0.07 -0.07,-0.08 -0.07,-0.08 -0.07,-0.08 c -0.7,-0.87 -1.05,-1.86 -1.05,-3.02 0,-1.26 0.37,-2.24 1.24,-3.25 0.41,-0.48 0.67,-0.7 1.18,-1.01 l 0.12,0.15 c -0.79,0.63 -1.07,0.98 -1.34,1.72 -0.24,0.67 -0.35,1.42 -0.35,2.42 0,1.04 0.13,1.85 0.4,2.47 0.28,0.62 0.58,0.97 1.29,1.55 z"
         id="path3037" /><path
         style="fill:#000000;stroke-width:0"
         inkscape:connector-curvature="0"
         d="m 425.92999,480.98 0.01,0 0.01,0 0.01,0.01 0.01,0 0.01,0 0.01,0 0.01,0 0.01,0.01 0.02,0 0.02,0 0.02,0.01 0.02,0 0.02,0 0.01,0 0.02,0 0.02,0 0.02,0.01 0.02,0 0.02,0 0.01,0 0.01,0 c 0.56,0 0.71,-0.25 1.17,-1.96 0.17,-0.64 0.41,-1.81 0.41,-1.98 0,-0.16 -0.06,-0.31 -0.21,-0.49 -0.31,-0.41 -0.51,-0.67 -0.62,-0.79 -0.21,-0.22 -0.33,-0.3 -0.46,-0.3 -0.06,0 -0.13,0.03 -0.23,0.11 -0.15,0.12 -0.26,0.17 -0.37,0.17 -0.22,0 -0.39,-0.17 -0.39,-0.39 0,-0.24 0.22,-0.43 0.51,-0.43 0.63,0 1.94,1.49 3.01,3.46 0.68,1.22 0.96,1.93 0.96,2.42 0,0.3 -0.25,0.55 -0.55,0.55 -0.23,0 -0.39,-0.15 -0.39,-0.37 0,-0.15 0.08,-0.26 0.28,-0.39 0.19,-0.11 0.26,-0.2 0.26,-0.34 0,-0.4 -0.37,-1.17 -1.22,-2.57 l -0.19,1.15 c -0.15,0.88 -0.71,2.52 -0.86,2.52 h -0.04 c -0.01,-0.01 -0.05,-0.01 -0.09,-0.01 -0.09,-0.02 -0.45,-0.08 -0.97,-0.17 -0.05,-0.01 -0.18,-0.04 -0.32,-0.06 z"
         id="path3039" /><path
         style="fill:#000000;stroke-width:0"
         inkscape:connector-curvature="0"
         d="m 430.57999,475.25 0.07,0.04 0.06,0.04 0.06,0.04 0.07,0.05 0.05,0.04 0.06,0.03 0.05,0.04 0.06,0.04 0.05,0.04 0.05,0.03 0.04,0.04 0.05,0.03 0.04,0.04 0.05,0.03 0.08,0.07 0.08,0.07 0.07,0.07 0.07,0.07 0.07,0.07 0.07,0.07 0.07,0.08 0.06,0.07 0.07,0.09 c 0.71,0.86 1.06,1.86 1.06,3.02 0,1.27 -0.37,2.23 -1.25,3.25 -0.4,0.47 -0.66,0.69 -1.18,1.01 l -0.12,-0.16 c 0.8,-0.63 1.06,-0.97 1.34,-1.72 0.24,-0.66 0.35,-1.42 0.35,-2.41 0,-1.04 -0.13,-1.86 -0.4,-2.47 -0.28,-0.62 -0.57,-0.98 -1.29,-1.56 z"
         id="path3041" /><path
         style="fill:#000000;stroke-width:0"
         inkscape:connector-curvature="0"
         d="m 435.21999,483.33 0.03,0 0.02,0 0.05,-0.01 0.05,-0.01 0.04,-0.01 0.05,0 0.04,-0.01 0.03,-0.01 0.04,-0.01 0.03,0 0.04,-0.01 0.03,-0.01 0.02,-0.01 0.03,-0.01 0.02,-0.01 0.03,-0.01 0.02,-0.02 0.02,-0.01 0.01,-0.01 0.02,-0.01 0.01,-0.02 0.02,-0.01 0.01,-0.02 0.01,-0.01 0.01,-0.02 0,-0.02 0.01,-0.02 0.01,-0.02 0,-0.02 0,-0.02 0.01,-0.02 0,-0.02 0,-0.02 c 0,-0.14 -0.04,-0.35 -0.17,-0.8 l -1.18,-4.22 c -0.18,-0.6 -0.25,-0.66 -0.81,-0.74 V 477 h 2.43 v 0.16 c -0.62,0.09 -0.67,0.12 -0.67,0.46 0,0.12 0.02,0.22 0.12,0.58 l 0.53,1.91 0.09,0.34 0.7,2.47 c 0.06,0.2 0.18,0.27 0.46,0.27 0.39,0 0.77,-0.1 0.96,-0.24 0.26,-0.17 0.37,-0.47 0.37,-0.94 0,-0.65 -0.23,-1.1 -0.66,-1.36 -0.31,-0.17 -0.7,-0.25 -1.32,-0.25 -0.17,0 -0.25,0.01 -0.51,0.05 l -0.09,-0.34 c 0.24,-0.06 0.5,-0.08 0.91,-0.08 0.82,0 1.48,0.17 1.91,0.48 0.5,0.37 0.79,0.91 0.79,1.5 0,0.95 -0.75,1.48 -2.1,1.48 h -2.47 z"
         id="path3043" /><path
         style="fill:#000000;stroke-width:0"
         inkscape:connector-curvature="0"
         d="m 444.07999,480.05 h -3.39 l -0.32,-1.01 0.13,-0.04 c 0.15,0.31 0.23,0.42 0.36,0.54 0.21,0.17 0.58,0.26 1.1,0.26 h 1.19 l -3.34,-4.19 v -0.1 h 3.52 l 0.38,1.17 -0.14,0.02 c -0.22,-0.45 -0.34,-0.61 -0.58,-0.75 -0.24,-0.13 -0.59,-0.19 -1.16,-0.19 h -1.12 l 3.37,4.19 z"
         id="path3045" /><path
         style="fill:#000000;stroke-width:0"
         inkscape:connector-curvature="0"
         d="m 447.50999,483.72 -0.06,-0.05 -0.07,-0.04 -0.06,-0.04 -0.06,-0.04 -0.06,-0.04 -0.06,-0.04 -0.05,-0.04 -0.05,-0.03 -0.05,-0.04 -0.05,-0.04 -0.05,-0.03 -0.05,-0.04 -0.04,-0.03 -0.04,-0.04 -0.09,-0.06 -0.07,-0.07 -0.08,-0.07 -0.07,-0.07 -0.07,-0.07 -0.07,-0.07 -0.06,-0.08 -0.07,-0.08 -0.07,-0.08 c -0.71,-0.87 -1.05,-1.86 -1.05,-3.02 0,-1.26 0.36,-2.24 1.24,-3.25 0.41,-0.48 0.67,-0.7 1.18,-1.01 l 0.12,0.15 c -0.79,0.63 -1.07,0.98 -1.34,1.72 -0.24,0.67 -0.35,1.42 -0.35,2.42 0,1.04 0.13,1.85 0.4,2.47 0.28,0.62 0.58,0.97 1.29,1.55 z"
         id="path3047" /><path
         style="fill:#000000;stroke-width:0"
         inkscape:connector-curvature="0"
         d="m 448.69999,480.07 0.02,0.05 0.02,0.04 0.02,0.04 0.02,0.04 0.02,0.04 0.01,0.03 0.02,0.03 0.02,0.03 0.02,0.03 0.02,0.03 0.02,0.02 0.02,0.03 0.02,0.02 0.02,0.02 0.02,0.02 0.02,0.01 0.02,0.02 0.02,0.01 0.03,0.01 0.02,0.02 0.03,0.01 0.03,0 0.03,0.01 0.03,0.01 0.03,0 0.03,0.01 0.03,0 0.04,0.01 0.04,0 0.04,0 0.04,0 0.04,0 h 1.45 l -3.08,-3.7 0.09,-0.08 c 0.16,0.12 0.29,0.17 0.45,0.17 0.24,0 0.57,-0.13 1.04,-0.41 0.5,-0.31 0.84,-0.44 1.11,-0.44 0.5,0 0.94,0.36 0.94,0.75 0,0.21 -0.14,0.36 -0.35,0.36 -0.2,0 -0.34,-0.13 -0.34,-0.31 0,-0.08 0.03,-0.18 0.09,-0.29 0.03,-0.06 0.05,-0.12 0.05,-0.15 0,-0.09 -0.11,-0.15 -0.27,-0.15 -0.25,0 -0.36,0.08 -0.69,0.49 -0.44,0.57 -0.63,0.7 -1.21,0.83 l 2.89,3.42 v 0.11 h -2.83 l -0.31,-1.15 z"
         id="path3049" /><path
         style="fill:#000000;stroke-width:0"
         inkscape:connector-curvature="0"
         d="m 452.14999,475.25 0.07,0.04 0.06,0.04 0.07,0.04 0.06,0.05 0.05,0.04 0.06,0.03 0.06,0.04 0.05,0.04 0.05,0.04 0.05,0.03 0.04,0.04 0.05,0.03 0.04,0.04 0.05,0.03 0.08,0.07 0.08,0.07 0.07,0.07 0.07,0.07 0.07,0.07 0.07,0.07 0.07,0.08 0.06,0.07 0.07,0.09 c 0.71,0.86 1.06,1.86 1.06,3.02 0,1.27 -0.37,2.23 -1.25,3.25 -0.4,0.47 -0.66,0.69 -1.18,1.01 l -0.12,-0.16 c 0.8,-0.63 1.06,-0.97 1.34,-1.72 0.24,-0.66 0.35,-1.42 0.35,-2.41 0,-1.04 -0.13,-1.86 -0.4,-2.47 -0.27,-0.62 -0.57,-0.98 -1.29,-1.56 z"
         id="path3051" /><polygon
         transform="translate(-8.3333335,0)"
         style="fill:#000000;stroke-width:0"
         points="374.82,453.6 369.72,453.6 369.72,453.04 374.82,453.04 "
         id="polygon3053" /><polygon
         transform="translate(-8.3333335,0)"
         style="fill:#000000;stroke-width:0"
         points="374.82,451.58 369.72,451.58 369.72,451.03 374.82,451.03 "
         id="polygon3055" /><path
         style="fill:#000000;stroke-width:0"
         inkscape:connector-curvature="0"
         d="m 371.57665,456.09 0.03,0 0.02,0 0.03,-0.01 0.02,0 0.05,-0.01 0.04,0 0.04,-0.01 0.05,-0.01 0.03,-0.01 0.04,0 0.03,-0.01 0.03,-0.01 0.03,-0.01 0.03,-0.01 0.03,-0.01 0.02,-0.01 0.02,-0.01 0.03,-0.01 0.01,-0.02 0.02,-0.01 0.02,-0.01 0.01,-0.02 0.01,-0.01 0.02,-0.02 0.01,-0.01 0.01,-0.02 0,-0.02 0.01,-0.01 0,-0.02 0.01,-0.02 0,-0.02 0,-0.03 0.01,-0.02 0,-0.02 c 0,-0.14 -0.04,-0.35 -0.17,-0.8 l -1.18,-4.22 c -0.18,-0.6 -0.25,-0.66 -0.81,-0.74 v -0.15 h 2.43 v 0.15 c -0.62,0.09 -0.67,0.12 -0.67,0.46 0,0.12 0.02,0.22 0.12,0.58 l 0.52,1.92 0.09,0.33 0.71,2.47 c 0.06,0.21 0.18,0.27 0.46,0.27 0.39,0 0.76,-0.09 0.96,-0.23 0.26,-0.18 0.37,-0.48 0.37,-0.95 0,-0.64 -0.23,-1.1 -0.66,-1.36 -0.31,-0.17 -0.7,-0.25 -1.32,-0.25 -0.17,0 -0.25,0.01 -0.52,0.05 l -0.09,-0.33 c 0.25,-0.06 0.51,-0.08 0.92,-0.08 0.82,0 1.48,0.16 1.91,0.47 0.5,0.37 0.79,0.92 0.79,1.5 0,0.96 -0.75,1.48 -2.1,1.48 h -2.47 z"
         id="path3057" /><path
         style="fill:#000000;stroke-width:0"
         inkscape:connector-curvature="0"
         d="m 380.94665,452.81 h -1.45 v -0.11 c 0.34,-0.04 0.43,-0.09 0.43,-0.25 0,-0.09 -0.05,-0.17 -0.14,-0.28 l -1.01,-1.16 -0.41,1.02 c -0.08,0.18 -0.11,0.3 -0.11,0.39 0,0.17 0.11,0.23 0.5,0.28 v 0.11 h -1.84 v -0.11 c 0.4,-0.03 0.51,-0.1 0.64,-0.42 l 0.74,-1.83 c -0.26,-0.29 -0.49,-0.56 -0.58,-0.68 -0.97,-1.14 -1.16,-1.31 -1.53,-1.39 v -0.11 h 1.49 v 0.11 c -0.34,0 -0.46,0.07 -0.46,0.24 0,0.1 0.06,0.22 0.15,0.33 l 1.05,1.19 0.47,-1.15 c 0.05,-0.12 0.08,-0.23 0.08,-0.34 0,-0.2 -0.07,-0.23 -0.53,-0.27 v -0.11 h 1.9 v 0.11 c -0.49,0.06 -0.55,0.1 -0.73,0.52 l -0.71,1.79 1.18,1.35 c 0.36,0.4 0.57,0.56 0.87,0.66 z"
         id="path3059" /><path
         style="fill:#000000;stroke-width:0"
         inkscape:connector-curvature="0"
         d="m 384.38665,456.48 -0.07,-0.04 -0.06,-0.05 -0.07,-0.04 -0.06,-0.04 -0.06,-0.04 -0.05,-0.04 -0.06,-0.03 -0.05,-0.04 -0.05,-0.04 -0.05,-0.03 -0.05,-0.04 -0.04,-0.04 -0.05,-0.03 -0.04,-0.03 -0.08,-0.07 -0.08,-0.07 -0.07,-0.07 -0.07,-0.07 -0.07,-0.07 -0.07,-0.07 -0.07,-0.08 -0.07,-0.08 -0.06,-0.08 c -0.71,-0.87 -1.06,-1.86 -1.06,-3.02 0,-1.26 0.37,-2.24 1.25,-3.25 0.4,-0.48 0.66,-0.69 1.18,-1.01 l 0.12,0.16 c -0.8,0.62 -1.08,0.97 -1.35,1.72 -0.23,0.66 -0.34,1.42 -0.34,2.41 0,1.04 0.13,1.86 0.4,2.47 0.27,0.62 0.57,0.98 1.29,1.55 z"
         id="path3061" /><path
         style="fill:#000000;stroke-width:0"
         inkscape:connector-curvature="0"
         d="m 389.26665,450.87 -0.01,-0.02 -0.02,-0.01 -0.01,-0.02 -0.02,-0.01 -0.01,-0.02 -0.01,-0.01 -0.01,-0.02 -0.02,-0.01 -0.01,-0.02 -0.01,-0.02 -0.01,-0.01 -0.02,-0.02 -0.01,-0.01 0,-0.01 -0.01,-0.01 -0.01,-0.01 0,-0.01 -0.01,-0.01 -0.01,-0.01 -0.01,-0.01 c -0.23,-0.3 -0.35,-0.4 -0.46,-0.4 -0.15,0 -0.24,0.13 -0.31,0.41 -0.01,0.08 -0.03,0.14 -0.03,0.17 -0.25,1 -0.36,1.46 -0.36,1.61 0.43,0.76 0.79,1.2 0.97,1.2 0.06,0 0.14,-0.03 0.24,-0.08 0.12,-0.07 0.19,-0.09 0.27,-0.09 0.21,0 0.35,0.15 0.35,0.36 0,0.21 -0.17,0.37 -0.41,0.37 -0.44,0 -0.82,-0.36 -1.5,-1.42 l -0.11,0.54 c -0.14,0.68 -0.25,0.88 -0.52,0.88 -0.22,0 -0.56,-0.09 -1.16,-0.29 l -0.11,-0.04 0.04,-0.15 c 0.37,0.09 0.46,0.11 0.55,0.11 0.25,0 0.31,-0.09 0.45,-0.69 l 0.29,-1.22 -0.82,-1.16 c -0.2,-0.3 -0.39,-0.48 -0.5,-0.48 -0.06,0 -0.16,0.03 -0.26,0.09 -0.13,0.07 -0.24,0.1 -0.32,0.1 -0.19,0 -0.34,-0.15 -0.34,-0.35 0,-0.25 0.2,-0.41 0.5,-0.41 0.31,0 0.43,0.09 0.92,0.69 0.27,0.32 0.48,0.59 0.9,1.16 l 0.3,-1.19 c 0.13,-0.5 0.26,-0.66 0.57,-0.66 0.38,0 0.64,0.23 1.22,1.13 z"
         id="path3063" /><path
         style="fill:#000000;stroke-width:0"
         inkscape:connector-curvature="0"
         d="m 390.09665,448.01 0.07,0.04 0.06,0.04 0.07,0.05 0.06,0.04 0.06,0.04 0.05,0.04 0.06,0.03 0.05,0.04 0.05,0.04 0.05,0.03 0.05,0.04 0.04,0.03 0.05,0.04 0.04,0.03 0.08,0.07 0.08,0.07 0.07,0.07 0.07,0.07 0.07,0.07 0.07,0.07 0.07,0.08 0.07,0.08 0.06,0.08 c 0.71,0.86 1.06,1.86 1.06,3.02 0,1.27 -0.37,2.23 -1.25,3.25 -0.4,0.48 -0.66,0.69 -1.18,1.01 l -0.12,-0.16 c 0.8,-0.62 1.07,-0.97 1.34,-1.72 0.24,-0.66 0.35,-1.42 0.35,-2.41 0,-1.03 -0.13,-1.86 -0.39,-2.46 -0.28,-0.63 -0.58,-0.99 -1.3,-1.56 z"
         id="path3065" /><path
         style="fill:#000000;stroke-width:0"
         inkscape:connector-curvature="0"
         d="m 394.73665,456.09 0.03,0 0.02,0 0.05,-0.01 0.05,-0.01 0.05,0 0.04,-0.01 0.04,-0.01 0.04,-0.01 0.03,0 0.04,-0.01 0.03,-0.01 0.03,-0.01 0.03,-0.01 0.02,-0.01 0.03,-0.01 0.02,-0.01 0.02,-0.01 0.02,-0.02 0.01,-0.01 0.02,-0.01 0.02,-0.02 0.01,-0.01 0.01,-0.02 0.01,-0.01 0.01,-0.02 0.01,-0.02 0,-0.01 0.01,-0.02 0,-0.02 0.01,-0.02 0,-0.03 0,-0.02 0,-0.02 c 0,-0.14 -0.04,-0.35 -0.17,-0.8 l -1.17,-4.22 c -0.18,-0.6 -0.25,-0.66 -0.82,-0.74 v -0.15 h 2.44 v 0.15 c -0.63,0.09 -0.68,0.12 -0.68,0.46 0,0.12 0.02,0.22 0.12,0.58 l 0.53,1.92 0.09,0.33 0.7,2.47 c 0.06,0.21 0.18,0.27 0.46,0.27 0.39,0 0.77,-0.09 0.97,-0.23 0.26,-0.18 0.36,-0.48 0.36,-0.95 0,-0.64 -0.22,-1.1 -0.66,-1.36 -0.31,-0.17 -0.7,-0.25 -1.31,-0.25 -0.18,0 -0.25,0.01 -0.52,0.05 l -0.09,-0.33 c 0.25,-0.06 0.51,-0.08 0.91,-0.08 0.82,0 1.48,0.16 1.91,0.47 0.5,0.37 0.79,0.92 0.79,1.5 0,0.96 -0.75,1.48 -2.1,1.48 h -2.47 z"
         id="path3067" /><path
         style="fill:#000000;stroke-width:0"
         inkscape:connector-curvature="0"
         d="m 400.00665,452.7 0.02,0 0.02,0 0.03,-0.01 0.03,0 0.03,-0.01 0.03,0 0.02,-0.01 0.03,0 0.02,-0.01 0.02,-0.01 0.02,0 0.02,-0.01 0.02,-0.01 0.01,-0.01 0.02,0 0.01,-0.01 0.02,-0.02 0.01,-0.01 0.01,-0.01 0.01,-0.01 0.01,-0.02 0.01,-0.01 0.01,-0.02 0.01,-0.02 0.01,-0.02 0.01,-0.02 0.01,-0.03 0.01,-0.02 0.01,-0.03 0.01,-0.03 0.01,-0.03 0,-0.02 0.01,-0.01 0,-0.02 0.01,-0.02 0.54,-1.87 -0.43,-1.47 c -0.12,-0.38 -0.27,-0.49 -0.73,-0.52 v -0.11 h 2.01 v 0.11 c -0.11,0.01 -0.21,0.02 -0.25,0.02 -0.27,0.02 -0.37,0.09 -0.37,0.26 0,0.15 0.05,0.36 0.22,0.9 0.02,0.06 0.03,0.11 0.04,0.14 l 0.2,0.7 1.53,1.88 c 0.22,0.27 0.28,0.32 0.48,0.42 v 0.11 h -1.31 v -0.11 c 0.08,0 0.16,-0.01 0.19,-0.02 0.2,-0.02 0.29,-0.08 0.29,-0.19 0,-0.19 -0.32,-0.64 -1.05,-1.48 -0.11,-0.14 -0.15,-0.2 -0.26,-0.33 -0.08,0.31 -0.1,0.4 -0.22,0.77 -0.17,0.6 -0.25,0.9 -0.25,1 0,0.17 0.09,0.21 0.51,0.25 v 0.11 h -1.67 z"
         id="path3069" /><path
         style="fill:#000000;stroke-width:0"
         inkscape:connector-curvature="0"
         d="m 407.21665,456.48 -0.06,-0.04 -0.07,-0.05 -0.06,-0.04 -0.06,-0.04 -0.06,-0.04 -0.06,-0.04 -0.05,-0.03 -0.05,-0.04 -0.05,-0.04 -0.05,-0.03 -0.05,-0.04 -0.05,-0.04 -0.04,-0.03 -0.04,-0.03 -0.09,-0.07 -0.07,-0.07 -0.08,-0.07 -0.07,-0.07 -0.07,-0.07 -0.07,-0.07 -0.06,-0.08 -0.07,-0.08 -0.07,-0.08 c -0.7,-0.87 -1.05,-1.86 -1.05,-3.02 0,-1.26 0.36,-2.24 1.24,-3.25 0.41,-0.48 0.67,-0.69 1.18,-1.01 l 0.12,0.16 c -0.79,0.62 -1.07,0.97 -1.34,1.72 -0.24,0.66 -0.35,1.42 -0.35,2.41 0,1.04 0.13,1.86 0.4,2.47 0.28,0.62 0.58,0.98 1.29,1.55 z"
         id="path3071" /><path
         style="fill:#000000;stroke-width:0"
         inkscape:connector-curvature="0"
         d="m 407.75665,453.74 0.01,0 0.01,0.01 0.01,0 0.01,0 0.01,0 0.01,0 0.01,0.01 0.01,0 0.02,0 0.02,0.01 0.02,0 0.02,0 0.02,0 0.01,0 0.02,0.01 0.02,0 0.02,0 0.02,0 0.01,0 0.01,0 0.01,0 c 0.57,0 0.72,-0.25 1.18,-1.96 0.17,-0.64 0.41,-1.81 0.41,-1.97 0,-0.16 -0.06,-0.32 -0.21,-0.5 -0.31,-0.41 -0.51,-0.67 -0.62,-0.79 -0.21,-0.21 -0.33,-0.29 -0.46,-0.29 -0.06,0 -0.13,0.03 -0.24,0.11 -0.15,0.11 -0.25,0.16 -0.36,0.16 -0.22,0 -0.39,-0.16 -0.39,-0.38 0,-0.25 0.22,-0.44 0.51,-0.44 0.63,0 1.94,1.49 3.01,3.46 0.68,1.22 0.95,1.93 0.95,2.42 0,0.3 -0.24,0.55 -0.54,0.55 -0.23,0 -0.39,-0.15 -0.39,-0.37 0,-0.15 0.08,-0.26 0.28,-0.39 0.19,-0.11 0.26,-0.2 0.26,-0.34 0,-0.39 -0.37,-1.17 -1.22,-2.57 l -0.2,1.15 c -0.15,0.88 -0.7,2.52 -0.85,2.52 h -0.04 c -0.01,-0.01 -0.05,-0.01 -0.09,-0.01 -0.09,-0.01 -0.45,-0.07 -0.98,-0.17 -0.04,-0.01 -0.17,-0.04 -0.31,-0.06 z"
         id="path3073" /><path
         style="fill:#000000;stroke-width:0"
         inkscape:connector-curvature="0"
         d="m 412.40665,448.01 0.07,0.04 0.06,0.04 0.06,0.05 0.06,0.04 0.06,0.04 0.06,0.04 0.05,0.03 0.06,0.04 0.05,0.04 0.05,0.03 0.04,0.04 0.05,0.03 0.04,0.04 0.05,0.03 0.08,0.07 0.08,0.07 0.07,0.07 0.07,0.07 0.07,0.07 0.07,0.07 0.07,0.08 0.06,0.08 0.07,0.08 c 0.71,0.86 1.06,1.86 1.06,3.02 0,1.27 -0.37,2.23 -1.25,3.25 -0.41,0.48 -0.66,0.69 -1.18,1.01 l -0.12,-0.16 c 0.79,-0.62 1.06,-0.97 1.34,-1.72 0.24,-0.66 0.35,-1.42 0.35,-2.41 0,-1.03 -0.13,-1.86 -0.4,-2.46 -0.28,-0.63 -0.58,-0.99 -1.29,-1.56 z"
         id="path3075" /><path
         style="fill:#000000;stroke-width:0"
         inkscape:connector-curvature="0"
         d="m 437.68,450.67667 h -0.24 c -0.35,-2.17 -1.17,-3.32 -2.38,-3.32 h -7.61 l 5.43,6.94 -4.64,6.81 h 6.27 c 1.28,0 1.96,-0.72 2.33,-2.93 h 0.22 l -0.1,3.45 H 426.5 l 5.33,-7.63 -6.06,-7.67 h 11.72 z"
         id="path3077" /><path
         style="fill:#000000;stroke-width:0"
         inkscape:connector-curvature="0"
         d="m 429.29,440.39667 -0.01,-0.01 -0.01,-0.01 -0.01,-0.01 -0.01,0 -0.01,-0.01 -0.01,-0.01 -0.01,-0.01 -0.01,0 -0.01,-0.01 -0.01,0 -0.01,-0.01 -0.01,-0.01 -0.01,0 -0.01,0 -0.01,-0.01 -0.01,0 -0.01,-0.01 0,0 -0.01,0 -0.01,-0.01 -0.01,0 -0.01,0 -0.01,0 -0.01,-0.01 -0.02,0 -0.02,0 -0.01,0 -0.02,0 c -0.16,0 -0.21,0.09 -0.21,0.4 v 1.36 c 0,0.36 -0.04,0.56 -0.14,0.73 -0.16,0.25 -0.46,0.38 -0.87,0.38 -0.65,0 -1.17,-0.34 -1.17,-0.78 0,-0.16 0.14,-0.3 0.3,-0.3 0.17,0 0.32,0.14 0.32,0.29 0,0.03 -0.01,0.06 -0.02,0.11 -0.01,0.07 -0.02,0.12 -0.02,0.17 0,0.19 0.22,0.34 0.5,0.34 0.34,0 0.53,-0.2 0.53,-0.57 v -0.43 -0.17 -1.01 c 0,-0.21 -0.03,-0.27 -0.18,-0.36 -0.17,-0.09 -0.36,-0.16 -0.51,-0.16 -0.24,0 -0.44,0.24 -0.44,0.54 v 0.03 c 0,0.41 0.29,0.66 1.13,0.96 v 0.17 c -1.07,-0.43 -1.19,-0.49 -1.49,-0.75 -0.15,-0.14 -0.25,-0.38 -0.25,-0.6 0,-0.44 0.31,-0.75 0.73,-0.75 0.31,0 0.6,0.15 1.02,0.51 0.04,-0.36 0.16,-0.51 0.45,-0.51 0.23,0 0.38,0.08 0.62,0.35 z"
         id="path3079" /><path
         style="fill:#000000;stroke-width:0"
         inkscape:connector-curvature="0"
         d="m 429.44,444.26667 h 0.04 c 0.08,0.01 0.16,0.02 0.22,0.02 0.22,0 0.29,-0.1 0.29,-0.43 v -3.31 c 0,-0.38 -0.1,-0.47 -0.53,-0.51 v -0.1 h 1.64 v 0.1 c -0.44,0.03 -0.52,0.1 -0.52,0.48 v 4.16 l -0.03,0.01 c -0.36,-0.12 -0.63,-0.19 -1.11,-0.31 z"
         id="path3081" /><path
         style="fill:#000000;stroke-width:0"
         inkscape:connector-curvature="0"
         d="m 431.38,444.26667 h 0.04 c 0.08,0.01 0.16,0.02 0.22,0.02 0.22,0 0.29,-0.1 0.29,-0.43 v -3.31 c 0,-0.38 -0.1,-0.47 -0.54,-0.51 v -0.1 h 1.65 v 0.1 c -0.44,0.03 -0.52,0.1 -0.52,0.48 v 4.16 l -0.03,0.01 c -0.36,-0.12 -0.63,-0.19 -1.11,-0.31 z"
         id="path3083" /><path
         style="fill:#000000;stroke-width:0"
         inkscape:connector-curvature="0"
         d="m 435.49,442.08667 0.02,0.03 0.01,0.03 0.01,0.03 0.02,0.03 0.01,0.02 0.01,0.03 0.02,0.02 0.01,0.02 0.01,0.02 0.01,0.02 0.02,0.02 0.01,0.01 0.02,0.02 0.01,0.01 0.01,0.01 0.02,0.01 0.01,0.01 0.02,0.01 0.02,0.01 0.02,0.01 0.01,0.01 0.02,0 0.02,0.01 0.02,0 0.03,0.01 0.02,0 0.02,0 0.03,0.01 0.02,0 0.03,0 0.03,0 0.03,0 h 1.02 l -2.16,-2.59 0.06,-0.06 c 0.11,0.09 0.2,0.12 0.32,0.12 0.17,0 0.4,-0.09 0.72,-0.29 0.35,-0.21 0.59,-0.3 0.78,-0.3 0.35,0 0.66,0.25 0.66,0.52 0,0.15 -0.1,0.26 -0.25,0.26 -0.13,0 -0.23,-0.1 -0.23,-0.22 0,-0.06 0.02,-0.13 0.06,-0.21 0.02,-0.04 0.04,-0.08 0.04,-0.1 0,-0.07 -0.08,-0.11 -0.19,-0.11 -0.18,0 -0.26,0.06 -0.49,0.35 -0.31,0.4 -0.44,0.49 -0.84,0.58 l 2.02,2.39 v 0.08 h -1.98 l -0.22,-0.8 z"
         id="path3085" /><path
         style="fill:#000000;stroke-width:0"
         inkscape:connector-curvature="0"
         d="m 441.88,457.75667 0.03,0 0.02,0 0.03,-0.01 0.02,0 0.05,-0.01 0.04,0 0.05,-0.01 0.04,-0.01 0.03,-0.01 0.04,0 0.03,-0.01 0.04,-0.01 0.03,-0.01 0.02,-0.01 0.03,-0.01 0.02,-0.01 0.03,-0.01 0.02,-0.01 0.02,-0.02 0.01,-0.01 0.02,-0.01 0.01,-0.02 0.02,-0.01 0.01,-0.02 0.01,-0.01 0.01,-0.02 0,-0.02 0.01,-0.01 0.01,-0.02 0,-0.02 0,-0.02 0.01,-0.03 0,-0.02 0,-0.02 c 0,-0.14 -0.04,-0.35 -0.17,-0.8 l -1.18,-4.22 c -0.17,-0.6 -0.25,-0.66 -0.81,-0.74 v -0.15 h 2.43 v 0.15 c -0.62,0.09 -0.67,0.12 -0.67,0.46 0,0.12 0.02,0.22 0.12,0.58 l 0.53,1.92 0.08,0.33 0.71,2.47 c 0.06,0.21 0.18,0.27 0.46,0.27 0.39,0 0.77,-0.09 0.96,-0.23 0.26,-0.18 0.37,-0.48 0.37,-0.95 0,-0.64 -0.23,-1.1 -0.66,-1.36 -0.31,-0.17 -0.7,-0.25 -1.32,-0.25 -0.17,0 -0.25,0.01 -0.52,0.05 l -0.08,-0.33 c 0.24,-0.06 0.5,-0.08 0.91,-0.08 0.82,0 1.48,0.16 1.91,0.47 0.5,0.37 0.79,0.92 0.79,1.5 0,0.96 -0.75,1.48 -2.1,1.48 h -2.47 z"
         id="path3087" /><path
         style="fill:#000000;stroke-width:0"
         inkscape:connector-curvature="0"
         d="m 450.74,454.47667 h -3.39 l -0.32,-1.01 0.13,-0.04 c 0.15,0.31 0.23,0.43 0.37,0.54 0.2,0.17 0.57,0.26 1.09,0.26 h 1.19 l -3.34,-4.19 v -0.1 h 3.52 l 0.38,1.17 -0.14,0.02 c -0.22,-0.44 -0.34,-0.61 -0.58,-0.74 -0.24,-0.14 -0.58,-0.2 -1.16,-0.2 h -1.12 l 3.37,4.19 z"
         id="path3089" /><path
         style="fill:#000000;stroke-width:0"
         inkscape:connector-curvature="0"
         d="m 454.17,458.14667 -0.06,-0.04 -0.07,-0.05 -0.06,-0.04 -0.06,-0.04 -0.06,-0.04 -0.06,-0.04 -0.05,-0.03 -0.05,-0.04 -0.05,-0.04 -0.05,-0.03 -0.05,-0.04 -0.05,-0.04 -0.04,-0.03 -0.04,-0.03 -0.08,-0.07 -0.08,-0.07 -0.08,-0.07 -0.07,-0.07 -0.07,-0.07 -0.06,-0.07 -0.07,-0.08 -0.07,-0.08 -0.07,-0.08 c -0.7,-0.87 -1.05,-1.86 -1.05,-3.02 0,-1.26 0.37,-2.24 1.24,-3.25 0.41,-0.48 0.67,-0.69 1.18,-1.01 l 0.13,0.16 c -0.8,0.62 -1.08,0.97 -1.35,1.72 -0.24,0.66 -0.35,1.42 -0.35,2.41 0,1.04 0.13,1.86 0.4,2.47 0.28,0.62 0.58,0.98 1.3,1.55 z"
         id="path3091" /><path
         style="fill:#000000;stroke-width:0"
         inkscape:connector-curvature="0"
         d="m 455.36,454.50667 0.02,0.04 0.02,0.04 0.02,0.05 0.02,0.03 0.02,0.04 0.01,0.03 0.02,0.04 0.02,0.03 0.02,0.03 0.02,0.02 0.02,0.03 0.02,0.02 0.02,0.02 0.02,0.02 0.02,0.02 0.02,0.01 0.02,0.02 0.02,0.01 0.03,0.02 0.02,0.01 0.03,0.01 0.03,0.01 0.03,0 0.03,0.01 0.03,0.01 0.03,0 0.03,0 0.04,0.01 0.04,0 0.04,0 0.04,0 0.04,0 h 1.45 l -3.08,-3.69 0.09,-0.09 c 0.16,0.13 0.29,0.18 0.45,0.18 0.24,0 0.57,-0.13 1.04,-0.42 0.5,-0.31 0.83,-0.44 1.11,-0.44 0.5,0 0.94,0.36 0.94,0.76 0,0.2 -0.14,0.35 -0.35,0.35 -0.2,0 -0.34,-0.12 -0.34,-0.3 0,-0.09 0.03,-0.19 0.09,-0.3 0.03,-0.06 0.05,-0.12 0.05,-0.15 0,-0.09 -0.11,-0.15 -0.27,-0.15 -0.25,0 -0.37,0.08 -0.69,0.5 -0.44,0.56 -0.63,0.69 -1.21,0.82 l 2.89,3.42 v 0.11 h -2.83 l -0.31,-1.14 z"
         id="path3093" /><path
         style="fill:#000000;stroke-width:0"
         inkscape:connector-curvature="0"
         d="m 458.81,449.67667 0.07,0.04 0.06,0.04 0.07,0.05 0.06,0.04 0.06,0.04 0.05,0.04 0.06,0.03 0.05,0.04 0.05,0.04 0.05,0.03 0.05,0.04 0.04,0.03 0.05,0.04 0.04,0.03 0.08,0.07 0.08,0.07 0.07,0.07 0.07,0.07 0.07,0.07 0.07,0.07 0.07,0.08 0.07,0.08 0.06,0.08 c 0.71,0.86 1.06,1.86 1.06,3.02 0,1.27 -0.37,2.23 -1.25,3.25 -0.4,0.48 -0.66,0.69 -1.18,1.01 l -0.12,-0.16 c 0.8,-0.62 1.07,-0.97 1.35,-1.72 0.23,-0.66 0.34,-1.42 0.34,-2.41 0,-1.03 -0.13,-1.86 -0.39,-2.46 -0.28,-0.63 -0.58,-0.99 -1.3,-1.56 z"
         id="path3095" /><polygon
         transform="translate(-8.3333335,0)"
         style="fill:#000000;stroke-width:0"
         points="374.82,428.19 369.72,428.19 369.72,427.63 374.82,427.63 "
         id="polygon3097" /><polygon
         transform="translate(-8.3333335,0)"
         style="fill:#000000;stroke-width:0"
         points="374.82,426.17 369.72,426.17 369.72,425.62 374.82,425.62 "
         id="polygon3099" /><path
         style="fill:#000000;stroke-width:0"
         inkscape:connector-curvature="0"
         d="m 371.57665,430.68 0.03,0 0.02,0 0.03,-0.01 0.02,0 0.05,-0.01 0.04,0 0.04,-0.01 0.05,-0.01 0.03,-0.01 0.04,-0.01 0.03,0 0.03,-0.01 0.03,-0.01 0.03,-0.01 0.03,-0.01 0.02,-0.01 0.02,-0.01 0.03,-0.02 0.01,-0.01 0.02,-0.01 0.02,-0.01 0.01,-0.02 0.01,-0.01 0.02,-0.02 0.01,-0.01 0.01,-0.02 0,-0.02 0.01,-0.02 0,-0.01 0.01,-0.02 0,-0.03 0,-0.02 0.01,-0.02 0,-0.02 c 0,-0.14 -0.04,-0.35 -0.17,-0.8 l -1.18,-4.22 c -0.18,-0.6 -0.25,-0.66 -0.81,-0.74 v -0.15 h 2.43 v 0.15 c -0.62,0.09 -0.67,0.12 -0.67,0.46 0,0.12 0.02,0.22 0.12,0.58 l 0.52,1.91 0.09,0.34 0.71,2.47 c 0.06,0.2 0.18,0.27 0.46,0.27 0.39,0 0.76,-0.1 0.96,-0.24 0.26,-0.17 0.37,-0.47 0.37,-0.94 0,-0.64 -0.23,-1.1 -0.66,-1.36 -0.31,-0.17 -0.7,-0.25 -1.32,-0.25 -0.17,0 -0.25,0.01 -0.52,0.05 l -0.09,-0.34 c 0.25,-0.06 0.51,-0.07 0.92,-0.07 0.82,0 1.48,0.16 1.91,0.47 0.5,0.37 0.79,0.92 0.79,1.5 0,0.96 -0.75,1.48 -2.1,1.48 h -2.47 z"
         id="path3101" /><path
         style="fill:#000000;stroke-width:0"
         inkscape:connector-curvature="0"
         d="m 380.94665,427.4 h -1.45 v -0.11 c 0.34,-0.04 0.43,-0.09 0.43,-0.25 0,-0.09 -0.05,-0.18 -0.14,-0.29 l -1.01,-1.16 -0.41,1.02 c -0.08,0.19 -0.11,0.3 -0.11,0.39 0,0.18 0.11,0.24 0.5,0.29 v 0.11 h -1.84 v -0.11 c 0.4,-0.03 0.51,-0.11 0.64,-0.43 l 0.74,-1.82 c -0.26,-0.3 -0.49,-0.57 -0.58,-0.68 -0.97,-1.14 -1.16,-1.31 -1.53,-1.39 v -0.11 h 1.49 v 0.11 c -0.34,0 -0.46,0.06 -0.46,0.24 0,0.1 0.06,0.22 0.15,0.33 l 1.05,1.19 0.47,-1.15 c 0.05,-0.12 0.08,-0.23 0.08,-0.34 0,-0.2 -0.07,-0.23 -0.53,-0.27 v -0.11 h 1.9 v 0.11 c -0.49,0.06 -0.55,0.1 -0.73,0.52 l -0.71,1.79 1.18,1.35 c 0.36,0.4 0.57,0.56 0.87,0.66 z"
         id="path3103" /><path
         style="fill:#000000;stroke-width:0"
         inkscape:connector-curvature="0"
         d="m 384.38665,431.07 -0.07,-0.04 -0.06,-0.05 -0.07,-0.04 -0.06,-0.04 -0.06,-0.04 -0.05,-0.04 -0.06,-0.04 -0.05,-0.03 -0.05,-0.04 -0.05,-0.04 -0.05,-0.03 -0.04,-0.04 -0.05,-0.03 -0.04,-0.04 -0.08,-0.06 -0.08,-0.07 -0.07,-0.07 -0.07,-0.07 -0.07,-0.07 -0.07,-0.07 -0.07,-0.08 -0.07,-0.08 -0.06,-0.08 c -0.71,-0.87 -1.06,-1.86 -1.06,-3.02 0,-1.26 0.37,-2.24 1.25,-3.25 0.4,-0.48 0.66,-0.7 1.18,-1.01 l 0.12,0.16 c -0.8,0.62 -1.08,0.97 -1.35,1.71 -0.23,0.67 -0.34,1.42 -0.34,2.42 0,1.04 0.13,1.86 0.4,2.47 0.27,0.62 0.57,0.97 1.29,1.55 z"
         id="path3105" /><path
         style="fill:#000000;stroke-width:0"
         inkscape:connector-curvature="0"
         d="m 389.26665,425.46 -0.01,-0.02 -0.02,-0.01 -0.01,-0.02 -0.02,-0.02 -0.01,-0.01 -0.01,-0.02 -0.01,-0.01 -0.02,-0.02 -0.01,-0.01 -0.01,-0.02 -0.01,-0.01 -0.02,-0.02 -0.01,-0.01 0,-0.01 -0.01,-0.01 -0.01,-0.01 0,-0.01 -0.01,-0.01 -0.01,-0.01 -0.01,-0.01 c -0.23,-0.3 -0.35,-0.4 -0.46,-0.4 -0.15,0 -0.24,0.13 -0.31,0.41 -0.01,0.08 -0.03,0.14 -0.03,0.17 -0.25,1 -0.36,1.46 -0.36,1.61 0.43,0.76 0.79,1.2 0.97,1.2 0.06,0 0.14,-0.03 0.24,-0.08 0.12,-0.07 0.19,-0.09 0.27,-0.09 0.21,0 0.35,0.15 0.35,0.36 0,0.21 -0.17,0.37 -0.41,0.37 -0.44,0 -0.82,-0.36 -1.5,-1.42 l -0.11,0.54 c -0.14,0.68 -0.25,0.88 -0.52,0.88 -0.22,0 -0.56,-0.09 -1.16,-0.29 l -0.11,-0.04 0.04,-0.15 c 0.37,0.09 0.46,0.11 0.55,0.11 0.25,0 0.31,-0.09 0.45,-0.69 l 0.29,-1.22 -0.82,-1.16 c -0.2,-0.3 -0.39,-0.48 -0.5,-0.48 -0.06,0 -0.16,0.03 -0.26,0.09 -0.13,0.07 -0.24,0.1 -0.32,0.1 -0.19,0 -0.34,-0.15 -0.34,-0.35 0,-0.26 0.2,-0.41 0.5,-0.41 0.31,0 0.43,0.08 0.92,0.69 0.27,0.32 0.48,0.59 0.9,1.16 l 0.3,-1.19 c 0.13,-0.51 0.26,-0.66 0.57,-0.66 0.38,0 0.64,0.23 1.22,1.13 z"
         id="path3107" /><path
         style="fill:#000000;stroke-width:0"
         inkscape:connector-curvature="0"
         d="m 390.09665,422.6 0.07,0.04 0.06,0.04 0.07,0.05 0.06,0.04 0.06,0.04 0.05,0.03 0.06,0.04 0.05,0.04 0.05,0.04 0.05,0.03 0.05,0.04 0.04,0.03 0.05,0.04 0.04,0.03 0.08,0.07 0.08,0.07 0.07,0.07 0.07,0.07 0.07,0.07 0.07,0.07 0.07,0.08 0.07,0.08 0.06,0.08 c 0.71,0.86 1.06,1.86 1.06,3.02 0,1.27 -0.37,2.23 -1.25,3.25 -0.4,0.47 -0.66,0.69 -1.18,1.01 l -0.12,-0.16 c 0.8,-0.62 1.07,-0.97 1.34,-1.72 0.24,-0.66 0.35,-1.42 0.35,-2.41 0,-1.03 -0.13,-1.86 -0.39,-2.46 -0.28,-0.63 -0.58,-0.99 -1.3,-1.56 z"
         id="path3109" /><path
         style="fill:#000000;stroke-width:0"
         inkscape:connector-curvature="0"
         d="m 394.73665,430.68 0.03,0 0.02,0 0.05,-0.01 0.05,-0.01 0.05,0 0.04,-0.01 0.04,-0.01 0.04,-0.01 0.03,-0.01 0.04,0 0.03,-0.01 0.03,-0.01 0.03,-0.01 0.02,-0.01 0.03,-0.01 0.02,-0.01 0.02,-0.02 0.02,-0.01 0.01,-0.01 0.02,-0.01 0.02,-0.02 0.01,-0.01 0.01,-0.02 0.01,-0.01 0.01,-0.02 0.01,-0.02 0,-0.02 0.01,-0.01 0,-0.02 0.01,-0.03 0,-0.02 0,-0.02 0,-0.02 c 0,-0.14 -0.04,-0.35 -0.17,-0.8 l -1.17,-4.22 c -0.18,-0.6 -0.25,-0.66 -0.82,-0.74 v -0.15 h 2.44 v 0.15 c -0.63,0.09 -0.68,0.12 -0.68,0.46 0,0.12 0.02,0.22 0.12,0.58 l 0.53,1.91 0.09,0.34 0.7,2.47 c 0.06,0.2 0.18,0.27 0.46,0.27 0.39,0 0.77,-0.1 0.97,-0.24 0.26,-0.17 0.36,-0.47 0.36,-0.94 0,-0.64 -0.22,-1.1 -0.66,-1.36 -0.31,-0.17 -0.7,-0.25 -1.31,-0.25 -0.18,0 -0.25,0.01 -0.52,0.05 l -0.09,-0.34 c 0.25,-0.06 0.51,-0.07 0.91,-0.07 0.82,0 1.48,0.16 1.91,0.47 0.5,0.37 0.79,0.92 0.79,1.5 0,0.96 -0.75,1.48 -2.1,1.48 h -2.47 z"
         id="path3111" /><path
         style="fill:#000000;stroke-width:0"
         inkscape:connector-curvature="0"
         d="m 400.00665,427.29 0.02,0 0.02,-0.01 0.03,0 0.03,-0.01 0.03,0 0.03,-0.01 0.02,0 0.03,-0.01 0.02,0 0.02,-0.01 0.02,0 0.02,-0.01 0.02,-0.01 0.01,-0.01 0.02,-0.01 0.01,-0.01 0.02,-0.01 0.01,-0.01 0.01,-0.01 0.01,-0.02 0.01,-0.01 0.01,-0.02 0.01,-0.01 0.01,-0.02 0.01,-0.02 0.01,-0.03 0.01,-0.02 0.01,-0.02 0.01,-0.03 0.01,-0.03 0.01,-0.03 0,-0.02 0.01,-0.01 0,-0.02 0.01,-0.02 0.54,-1.87 -0.43,-1.47 c -0.12,-0.38 -0.27,-0.49 -0.73,-0.52 v -0.11 h 2.01 v 0.11 c -0.11,0.01 -0.21,0.01 -0.25,0.02 -0.27,0.02 -0.37,0.09 -0.37,0.26 0,0.14 0.05,0.35 0.22,0.9 0.02,0.06 0.03,0.11 0.04,0.14 l 0.2,0.7 1.53,1.87 c 0.22,0.28 0.28,0.33 0.48,0.43 v 0.11 h -1.31 v -0.11 c 0.08,-0.01 0.16,-0.01 0.19,-0.02 0.2,-0.02 0.29,-0.08 0.29,-0.2 0,-0.18 -0.32,-0.64 -1.05,-1.48 -0.11,-0.14 -0.15,-0.19 -0.26,-0.32 -0.08,0.31 -0.1,0.4 -0.22,0.77 -0.17,0.6 -0.25,0.89 -0.25,1 0,0.17 0.09,0.21 0.51,0.25 v 0.11 h -1.67 z"
         id="path3113" /><path
         style="fill:#000000;stroke-width:0"
         inkscape:connector-curvature="0"
         d="m 407.21665,431.07 -0.06,-0.04 -0.07,-0.05 -0.06,-0.04 -0.06,-0.04 -0.06,-0.04 -0.06,-0.04 -0.05,-0.04 -0.05,-0.03 -0.05,-0.04 -0.05,-0.04 -0.05,-0.03 -0.05,-0.04 -0.04,-0.03 -0.04,-0.04 -0.09,-0.06 -0.07,-0.07 -0.08,-0.07 -0.07,-0.07 -0.07,-0.07 -0.07,-0.07 -0.06,-0.08 -0.07,-0.08 -0.07,-0.08 c -0.7,-0.87 -1.05,-1.86 -1.05,-3.02 0,-1.26 0.36,-2.24 1.24,-3.25 0.41,-0.48 0.67,-0.7 1.18,-1.01 l 0.12,0.16 c -0.79,0.62 -1.07,0.97 -1.34,1.71 -0.24,0.67 -0.35,1.42 -0.35,2.42 0,1.04 0.13,1.86 0.4,2.47 0.28,0.62 0.58,0.97 1.29,1.55 z"
         id="path3115" /><path
         style="fill:#000000;stroke-width:0"
         inkscape:connector-curvature="0"
         d="m 407.75665,428.33 0.01,0 0.01,0 0.01,0.01 0.01,0 0.01,0 0.01,0 0.01,0.01 0.01,0 0.02,0 0.02,0 0.02,0.01 0.02,0 0.02,0 0.01,0 0.02,0 0.02,0.01 0.02,0 0.02,0 0.01,0 0.01,0 0.01,0 c 0.57,0 0.72,-0.25 1.18,-1.96 0.17,-0.64 0.41,-1.81 0.41,-1.98 0,-0.15 -0.06,-0.31 -0.21,-0.49 -0.31,-0.41 -0.51,-0.67 -0.62,-0.79 -0.21,-0.22 -0.33,-0.29 -0.46,-0.29 -0.06,0 -0.13,0.03 -0.24,0.1 -0.15,0.12 -0.25,0.17 -0.36,0.17 -0.22,0 -0.39,-0.17 -0.39,-0.38 0,-0.25 0.22,-0.44 0.51,-0.44 0.63,0 1.94,1.49 3.01,3.46 0.68,1.22 0.95,1.93 0.95,2.42 0,0.3 -0.24,0.55 -0.54,0.55 -0.23,0 -0.39,-0.15 -0.39,-0.37 0,-0.15 0.08,-0.26 0.28,-0.39 0.19,-0.11 0.26,-0.2 0.26,-0.34 0,-0.39 -0.37,-1.17 -1.22,-2.57 l -0.2,1.15 c -0.15,0.88 -0.7,2.52 -0.85,2.52 h -0.04 c -0.01,-0.01 -0.05,-0.01 -0.09,-0.01 -0.09,-0.01 -0.45,-0.07 -0.98,-0.17 -0.04,-0.01 -0.17,-0.04 -0.31,-0.06 z"
         id="path3117" /><path
         style="fill:#000000;stroke-width:0"
         inkscape:connector-curvature="0"
         d="m 412.40665,422.6 0.07,0.04 0.06,0.04 0.06,0.05 0.06,0.04 0.06,0.04 0.06,0.03 0.05,0.04 0.06,0.04 0.05,0.04 0.05,0.03 0.04,0.04 0.05,0.03 0.04,0.04 0.05,0.03 0.08,0.07 0.08,0.07 0.07,0.07 0.07,0.07 0.07,0.07 0.07,0.07 0.07,0.08 0.06,0.08 0.07,0.08 c 0.71,0.86 1.06,1.86 1.06,3.02 0,1.27 -0.37,2.23 -1.25,3.25 -0.41,0.47 -0.66,0.69 -1.18,1.01 l -0.12,-0.16 c 0.79,-0.62 1.06,-0.97 1.34,-1.72 0.24,-0.66 0.35,-1.42 0.35,-2.41 0,-1.03 -0.13,-1.86 -0.4,-2.46 -0.28,-0.63 -0.58,-0.99 -1.29,-1.56 z"
         id="path3119" /><path
         transform="matrix(0.77153687,0,0,-0.75285202,306.97326,509.10519)"
         d="m 210.11174,77.840134 c 0,12.692039 -14.92461,22.980966 -33.33504,22.980966 -18.41043,0 -33.33503,-10.288927 -33.33503,-22.980966 0,-12.69204 14.9246,-22.980971 33.33503,-22.980971 18.41043,0 33.33504,10.288931 33.33504,22.980971 z"
         sodipodi:ry="22.98097"
         sodipodi:rx="33.335033"
         sodipodi:cy="77.840134"
         sodipodi:cx="176.7767"
         id="path3190"
         style="fill:none;stroke-width:1.25;stroke-miterlimit:4;stroke-dasharray:none;stroke-dashoffset:0"
         sodipodi:type="arc" /><path
         sodipodi:nodetypes="csc"
         inkscape:connector-curvature="0"
         id="path3196"
         d="m 424.21883,484.59574 c 0,0 -9.77988,9.3336 -28.00822,8.57914 -12.2163,-0.50562 -22.9203,-10.68362 -22.9203,-10.68362"
         style="fill:none;stroke:#000000;stroke-width:0.83333331px;stroke-linecap:butt;stroke-linejoin:miter;stroke-opacity:1;marker-end:url(#Arrow1Mend)" /><path
         sodipodi:nodetypes="csc"
         inkscape:connector-curvature="0"
         id="path3200"
         d="m 402.31104,485.83291 c 0,0 -10.44399,8.28355 -18.36628,6.55124 -5.70409,-1.24728 -15.75629,-9.54859 -15.75629,-9.54859"
         style="fill:none;stroke:#000000;stroke-width:0.83333331;stroke-linecap:butt;stroke-linejoin:miter;stroke-miterlimit:10.43299961;stroke-opacity:1;stroke-dasharray:none;marker-start:none;marker-end:url(#Arrow1Mend)" /><path
         transform="matrix(0.83333333,0,0,-0.83333333,303.54063,511.79225)"
         inkscape:connector-curvature="0"
         inkscape:original-d="m 187.63584,95.517806 2.52538,3.914341"
         inkscape:path-effect="#path-effect4981"
         id="path4979"
         d="m 187.63584,95.517806 2.52538,3.914341"
         style="fill:none;stroke:#000000;stroke-width:1px;stroke-linecap:butt;stroke-linejoin:miter;stroke-opacity:1" /><path
         inkscape:connector-curvature="0"
         inkscape:original-d="m 458.35629,431.15141 2.10448,-3.26195"
         inkscape:path-effect="#path-effect4981-3"
         id="path4979-6"
         d="m 458.35629,431.15141 2.10448,-3.26195"
         style="font-style:normal;font-variant:normal;font-weight:normal;font-stretch:normal;letter-spacing:normal;word-spacing:normal;text-anchor:start;fill:none;stroke:#000000;stroke-width:0.83333331px;stroke-linecap:butt;stroke-linejoin:miter;stroke-miterlimit:10.43299961;stroke-opacity:1;stroke-dasharray:none;stroke-dashoffset:0" /><g
         ns0:preamble="/home/sriranga/Desktop/Beamer-prathi/article24/figure/package.tex"
         ns0:text="1"
         word-spacing="normal"
         letter-spacing="normal"
         font-size-adjust="none"
         font-stretch="normal"
         font-weight="normal"
         font-variant="normal"
         font-style="normal"
         stroke-miterlimit="10.433"
         xml:space="preserve"
         transform="matrix(1.2,0,0,1.2,194.26034,-152.08507)"
         id="g5084"
         style="font-style:normal;font-variant:normal;font-weight:normal;font-stretch:normal;letter-spacing:normal;word-spacing:normal;text-anchor:start;fill:none;stroke:#000000;stroke-linecap:butt;stroke-linejoin:miter;stroke-miterlimit:10.43299961;stroke-opacity:1;stroke-dasharray:none;stroke-dashoffset:0"><path
           id="path5086"
           d="m 226.33,483.95 -1.79,-0.9 v -0.14 c 0.12,0.05 0.22,0.09 0.26,0.11 0.18,0.07 0.35,0.11 0.45,0.11 0.21,0 0.3,-0.15 0.3,-0.47 v -4.5 c 0,-0.33 -0.08,-0.56 -0.24,-0.65 -0.15,-0.09 -0.29,-0.12 -0.7,-0.13 v -0.15 h 2.74 v 0.15 c -0.78,0.01 -0.94,0.11 -0.94,0.59 v 5.96 z"
           inkscape:connector-curvature="0"
           style="fill:#000000;stroke-width:0" /></g></g>  </g>
</svg>
