<?xml version="1.0" encoding="UTF-8" standalone="no"?>
<!-- Created with Inkscape (http://www.inkscape.org/) -->

<svg
   xmlns:ns0="http://www.iki.fi/pav/software/textext/"
   xmlns:dc="http://purl.org/dc/elements/1.1/"
   xmlns:cc="http://creativecommons.org/ns#"
   xmlns:rdf="http://www.w3.org/1999/02/22-rdf-syntax-ns#"
   xmlns:svg="http://www.w3.org/2000/svg"
   xmlns="http://www.w3.org/2000/svg"
   xmlns:sodipodi="http://sodipodi.sourceforge.net/DTD/sodipodi-0.dtd"
   xmlns:inkscape="http://www.inkscape.org/namespaces/inkscape"
   inkscape:version="0.48.4 r9939"
   version="1.1"
   id="svg5011"
   height="141.73228"
   width="283.46457"
   sodipodi:docname="art24(e).svg">
  <sodipodi:namedview
     id="base"
     pagecolor="#ffffff"
     bordercolor="#666666"
     borderopacity="1.0"
     inkscape:pageopacity="0.0"
     inkscape:pageshadow="2"
     inkscape:zoom="2.9186601"
     inkscape:cx="154.58257"
     inkscape:cy="56.827519"
     inkscape:document-units="px"
     inkscape:current-layer="layer1"
     showgrid="false"
     units="cm"
     inkscape:window-width="1024"
     inkscape:window-height="744"
     inkscape:window-x="0"
     inkscape:window-y="24"
     inkscape:window-maximized="1" />
  <defs
     id="defs5013">
    <marker
       inkscape:stockid="Arrow1Mstart"
       orient="auto"
       refY="0"
       refX="0"
       id="Arrow1Mstart"
       style="overflow:visible">
      <path
         inkscape:connector-curvature="0"
         id="path3799"
         d="M 0,0 5,-5 -12.5,0 5,5 0,0 z"
         style="fill-rule:evenodd;stroke:#000000;stroke-width:1pt"
         transform="matrix(0.4,0,0,0.4,4,0)" />
    </marker>
    <marker
       inkscape:stockid="Arrow1Mstart"
       orient="auto"
       refY="0"
       refX="0"
       id="marker5428"
       style="overflow:visible">
      <path
         inkscape:connector-curvature="0"
         id="path5430"
         d="M 0,0 5,-5 -12.5,0 5,5 0,0 z"
         style="fill-rule:evenodd;stroke:#000000;stroke-width:1pt"
         transform="matrix(0.4,0,0,0.4,4,0)" />
    </marker>
  </defs>
  <metadata
     id="metadata5016">
    <rdf:RDF>
      <cc:Work
         rdf:about="">
        <dc:format>image/svg+xml</dc:format>
        <dc:type
           rdf:resource="http://purl.org/dc/dcmitype/StillImage" />
        <dc:title />
      </cc:Work>
    </rdf:RDF>
  </metadata>
  <g
     inkscape:label="Layer 1"
     inkscape:groupmode="layer"
     id="layer1"
     transform="translate(0,-910.62859)">
    <path
       style="fill:none;stroke:#000000;stroke-width:1px;stroke-linecap:butt;stroke-linejoin:miter;stroke-opacity:1;marker-start:url(#Arrow1Mstart)"
       d="m 134.50004,977.21254 0,21.21321 -17.42513,0"
       id="path3019"
       inkscape:connector-curvature="0" />
    <path
       style="fill:none;stroke:#000000;stroke-width:1px;stroke-linecap:butt;stroke-linejoin:miter;stroke-opacity:1;marker-start:url(#Arrow1Mstart)"
       d="m 165.04829,978.09263 0,21.2132 17.42512,0"
       id="path3019-7"
       inkscape:connector-curvature="0" />
    <g
       ns0:preamble="/home/sriranga/Desktop/Beamer-prathi/article24/figure/package.tex"
       ns0:text="Population Variance"
       word-spacing="normal"
       letter-spacing="normal"
       font-size-adjust="none"
       font-stretch="normal"
       font-weight="normal"
       font-variant="normal"
       font-style="normal"
       stroke-miterlimit="10.433"
       xml:space="preserve"
       transform="matrix(1.2,0,0,-1.2,-80.14336,1574.7819)"
       id="g6602"
       style="font-style:normal;font-variant:normal;font-weight:normal;font-stretch:normal;letter-spacing:normal;word-spacing:normal;text-anchor:start;fill:none;stroke:#000000;stroke-linecap:butt;stroke-linejoin:miter;stroke-miterlimit:10.43299961;stroke-opacity:1;stroke-dasharray:none;stroke-dashoffset:0"><path
         id="path6604"
         d="m 225.44,480.13 v 0.39 2.59 c 0,0.26 0.07,0.33 0.34,0.33 1.34,0 1.96,-0.46 1.96,-1.49 0,-0.96 -0.59,-1.46 -1.73,-1.46 -0.2,0 -0.34,0.01 -0.57,0.03 v -0.39 c 0.26,-0.02 0.43,-0.03 0.69,-0.03 0.77,0 1.31,0.1 1.74,0.33 0.6,0.32 0.95,0.93 0.95,1.58 0,0.42 -0.14,0.8 -0.4,1.09 -0.4,0.43 -1.27,0.71 -2.2,0.71 h -2.63 v -0.19 c 0.74,-0.08 0.84,-0.18 0.84,-0.89 v -4.3 c 0,-0.84 -0.08,-0.94 -0.84,-1.01 v -0.19 h 2.79 v 0.19 c -0.79,0.03 -0.94,0.17 -0.94,0.9 z"
         inkscape:connector-curvature="0"
         style="fill:#000000;stroke-width:0" /><path
         id="path6606"
         d="m 231.46,481.8 -0.12,0 -0.12,-0.01 -0.11,-0.01 -0.12,-0.02 -0.11,-0.02 -0.1,-0.03 -0.11,-0.04 -0.1,-0.04 -0.1,-0.04 -0.09,-0.05 -0.1,-0.05 -0.09,-0.06 -0.08,-0.06 -0.08,-0.07 -0.08,-0.07 -0.08,-0.07 -0.07,-0.08 -0.06,-0.08 -0.07,-0.09 -0.06,-0.09 -0.05,-0.1 -0.05,-0.09 -0.05,-0.1 -0.04,-0.11 -0.04,-0.11 -0.03,-0.11 -0.03,-0.11 -0.02,-0.12 -0.02,-0.12 -0.01,-0.12 -0.01,-0.12 0,-0.13 c 0,-1.34 0.92,-2.34 2.18,-2.34 l 0.12,0.27 c -0.39,0 -0.76,0.24 -0.97,0.64 -0.28,0.52 -0.44,1.21 -0.44,1.92 0,0.94 0.47,1.56 1.18,1.56 h 0 c 0.83,0 1.42,-0.96 1.42,-2.32 0,-1.12 -0.45,-1.8 -1.19,-1.8 l -0.12,-0.27 c 1.25,0 2.21,1.05 2.21,2.42 0,1.3 -0.92,2.24 -2.19,2.24 z"
         inkscape:connector-curvature="0"
         style="fill:#000000;stroke-width:0" /><path
         id="path6608"
         d="m 234.04,481.14 0.02,0 0.01,0 0.02,0 0.02,0 0.01,0.01 0.02,0 0.01,0 0.02,0 0.03,0 0.01,0 0.02,0 0.01,0 0.02,0 0.01,0 0.02,0 c 0.34,0 0.41,-0.1 0.41,-0.57 v -4.65 c 0,-0.51 -0.11,-0.62 -0.7,-0.68 v -0.17 h 2.41 v 0.18 c -0.75,0.01 -0.88,0.12 -0.88,0.74 v 1.56 c 0.35,-0.33 0.59,-0.42 1.01,-0.42 l 0.03,0.31 c -0.47,0 -1.04,0.36 -1.04,0.66 v 2.44 c 0,0.3 0.56,0.66 1.02,0.66 0.74,0 1.22,-0.76 1.22,-1.91 0,-1.1 -0.48,-1.85 -1.2,-1.85 l -0.03,-0.31 c 1.17,0 2.09,1.11 2.09,2.55 0,1.23 -0.7,2.11 -1.66,2.11 -0.56,0 -1,-0.24 -1.44,-0.78 v 0.77 l -0.05,0.01 c -0.54,-0.2 -0.89,-0.33 -1.44,-0.5 z"
         inkscape:connector-curvature="0"
         style="fill:#000000;stroke-width:0" /><path
         id="path6610"
         d="m 243.7,477.73 h -0.05 c -0.46,0 -0.57,0.11 -0.57,0.57 v 3.4 h -1.57 v -0.16 c 0.62,-0.03 0.74,-0.13 0.74,-0.63 v -2.33 c 0,-0.28 -0.05,-0.42 -0.19,-0.53 -0.27,-0.22 -0.58,-0.34 -0.88,-0.34 -0.39,0 -0.7,0.34 -0.7,0.76 v 3.23 h -1.46 v -0.13 c 0.48,-0.03 0.62,-0.18 0.62,-0.64 v -2.5 c 0,-0.79 0.48,-1.29 1.2,-1.29 0.37,0 0.76,0.16 1.03,0.42 l 0.43,0.43 v -0.82 l 0.04,-0.02 c 0.49,0.19 0.85,0.3 1.36,0.44 z"
         inkscape:connector-curvature="0"
         style="fill:#000000;stroke-width:0" /><path
         id="path6612"
         d="m 244.1,483.42 h 0.06 c 0.11,0.01 0.23,0.02 0.31,0.02 0.32,0 0.42,-0.14 0.42,-0.6 v -4.74 c 0,-0.54 -0.14,-0.67 -0.77,-0.72 v -0.15 h 2.35 v 0.15 c -0.62,0.04 -0.74,0.14 -0.74,0.69 V 484 l -0.04,0.02 c -0.52,-0.17 -0.9,-0.27 -1.59,-0.44 z"
         inkscape:connector-curvature="0"
         style="fill:#000000;stroke-width:0" /><path
         id="path6614"
         d="m 251.08,477.89 -0.01,-0.01 -0.02,-0.01 -0.01,-0.02 -0.02,-0.01 -0.01,-0.01 -0.02,-0.01 -0.01,-0.01 -0.02,-0.01 -0.01,-0.01 -0.01,0 -0.02,-0.01 -0.01,-0.01 -0.01,-0.01 -0.02,0 -0.01,-0.01 -0.01,-0.01 -0.02,0 -0.01,-0.01 -0.01,0 -0.02,0 -0.01,-0.01 -0.01,0 -0.01,-0.01 -0.02,0 -0.02,0 -0.03,-0.01 -0.03,0 -0.03,0 c -0.22,0 -0.29,0.14 -0.29,0.58 v 1.93 c 0,0.52 -0.05,0.81 -0.2,1.05 -0.22,0.36 -0.65,0.54 -1.24,0.54 -0.93,0 -1.67,-0.48 -1.67,-1.11 0,-0.23 0.2,-0.42 0.43,-0.42 0.24,0 0.45,0.19 0.45,0.41 0,0.04 -0.01,0.09 -0.02,0.16 -0.02,0.09 -0.03,0.17 -0.03,0.24 0,0.27 0.32,0.49 0.71,0.49 0.49,0 0.76,-0.29 0.76,-0.83 v -0.6 -0.24 -1.44 c 0,-0.31 -0.05,-0.4 -0.26,-0.52 -0.24,-0.14 -0.52,-0.23 -0.73,-0.23 -0.34,0 -0.62,0.34 -0.62,0.77 v 0.04 c 0,0.58 0.41,0.94 1.61,1.38 v 0.24 c -1.53,-0.62 -1.7,-0.7 -2.13,-1.08 -0.22,-0.2 -0.36,-0.53 -0.36,-0.86 0,-0.63 0.44,-1.06 1.05,-1.06 0.44,0 0.84,0.2 1.45,0.72 0.05,-0.52 0.23,-0.72 0.64,-0.72 0.33,0 0.54,0.12 0.89,0.49 z"
         inkscape:connector-curvature="0"
         style="fill:#000000;stroke-width:0" /><path
         id="path6616"
         d="m 253.65,481.7 h -1.01 v 1.16 c 0,0.1 -0.01,0.13 -0.07,0.13 -0.07,-0.09 -0.13,-0.18 -0.2,-0.28 -0.38,-0.55 -0.8,-1.03 -0.96,-1.06 -0.11,-0.07 -0.17,-0.14 -0.17,-0.19 0,-0.03 0.01,-0.05 0.04,-0.07 h 0.52 v -2.99 c 0,-0.84 0.3,-1.26 0.89,-1.26 0.49,0 0.86,0.23 1.19,0.75 l -0.13,0.11 c -0.2,-0.25 -0.37,-0.35 -0.59,-0.35 -0.37,0 -0.52,0.27 -0.52,0.9 v 2.84 h 1.01 z"
         inkscape:connector-curvature="0"
         style="fill:#000000;stroke-width:0" /><path
         id="path6618"
         d="m 255.62,481.8 -1.54,-0.54 v -0.15 l 0.08,0.01 c 0.12,0.02 0.24,0.03 0.33,0.03 0.24,0 0.33,-0.16 0.33,-0.6 v -2.3 c 0,-0.72 -0.1,-0.83 -0.78,-0.87 v -0.15 h 2.35 v 0.15 c -0.65,0.05 -0.73,0.15 -0.73,0.87 v 3.52 z"
         inkscape:connector-curvature="0"
         style="fill:#000000;stroke-width:0" /><path
         id="path6620"
         d="m 255.15,484.02 -0.02,0 -0.03,0 -0.02,-0.01 -0.03,0 -0.02,-0.01 -0.02,0 -0.03,-0.01 -0.02,-0.01 -0.02,-0.01 -0.02,-0.01 -0.02,-0.01 -0.02,-0.02 -0.02,-0.01 -0.02,-0.02 -0.02,-0.01 -0.02,-0.02 -0.01,-0.02 -0.02,-0.02 -0.02,-0.01 -0.01,-0.02 -0.01,-0.03 -0.01,-0.02 -0.02,-0.02 -0.01,-0.02 -0.01,-0.02 0,-0.03 -0.01,-0.02 -0.01,-0.03 0,-0.02 0,-0.03 -0.01,-0.02 0,-0.03 c 0,-0.28 0.22,-0.5 0.5,-0.5 0.29,0 0.52,0.22 0.52,0.5 0,0.28 -0.23,0.51 -0.52,0.51 z"
         inkscape:connector-curvature="0"
         style="fill:#000000;stroke-width:0" /><path
         id="path6622"
         d="m 259.13,481.8 -0.12,0 -0.11,-0.01 -0.12,-0.01 -0.11,-0.02 -0.11,-0.02 -0.11,-0.03 -0.1,-0.04 -0.1,-0.04 -0.1,-0.04 -0.1,-0.05 -0.09,-0.05 -0.09,-0.06 -0.09,-0.06 -0.08,-0.07 -0.08,-0.07 -0.07,-0.07 -0.07,-0.08 -0.07,-0.08 -0.06,-0.09 -0.06,-0.09 -0.05,-0.1 -0.05,-0.09 -0.05,-0.1 -0.04,-0.11 -0.04,-0.11 -0.03,-0.11 -0.03,-0.11 -0.02,-0.12 -0.02,-0.12 -0.01,-0.12 -0.01,-0.12 0,-0.13 c 0,-1.34 0.92,-2.34 2.17,-2.34 l 0.12,0.27 c -0.38,0 -0.75,0.24 -0.96,0.64 -0.28,0.52 -0.44,1.21 -0.44,1.92 0,0.94 0.47,1.56 1.18,1.56 h 0 c 0.83,0 1.42,-0.96 1.42,-2.32 0,-1.12 -0.45,-1.8 -1.2,-1.8 l -0.12,-0.27 c 1.26,0 2.21,1.05 2.21,2.42 0,1.3 -0.91,2.24 -2.19,2.24 z"
         inkscape:connector-curvature="0"
         style="fill:#000000;stroke-width:0" /><path
         id="path6624"
         d="m 261.79,481.19 0,0 0.01,0 0.01,0.01 0,0 0.01,0 0.01,0 0,0.01 0.01,0 0.01,0 0,0 0.01,0 0.01,0 0.02,0.01 0.01,0 0.02,0 0.02,0 0.02,0 0.02,0.01 0.02,0 0.02,0 0.02,0 0.02,0 c 0.27,0 0.36,-0.15 0.36,-0.64 v -2.46 c 0,-0.57 -0.1,-0.71 -0.61,-0.75 v -0.15 h 2.11 v 0.15 c -0.51,0.04 -0.66,0.16 -0.66,0.52 v 2.79 c 0.48,0.45 0.7,0.57 1.03,0.57 0.48,0 0.72,-0.31 0.72,-0.96 v -2.08 c 0,-0.63 -0.13,-0.8 -0.63,-0.84 v -0.15 h 2.07 v 0.15 c -0.48,0.05 -0.6,0.17 -0.6,0.66 v 2.27 c 0,0.94 -0.44,1.49 -1.18,1.49 -0.46,0 -0.76,-0.16 -1.44,-0.8 v 0.79 l -0.07,0.01 c -0.49,-0.17 -0.83,-0.28 -1.37,-0.44 z"
         inkscape:connector-curvature="0"
         style="fill:#000000;stroke-width:0" /><path
         id="path6626"
         d="m 234.7921,472.44578 h -2.05 v -0.19 c 0.55,-0.03 0.73,-0.14 0.73,-0.42 0,-0.15 -0.07,-0.42 -0.19,-0.72 l -1.46,-3.65 -1.5,3.36 c -0.33,0.73 -0.41,0.96 -0.41,1.11 0,0.18 0.14,0.28 0.46,0.3 0.04,0 0.15,0.01 0.29,0.02 v 0.19 h -2.65 v -0.19 c 0.49,-0.02 0.63,-0.16 1.05,-1.04 l 2.45,-5.45 h 0.15 l 2.21,5.57 c 0.33,0.78 0.44,0.89 0.92,0.92 z"
         inkscape:connector-curvature="0"
         style="fill:#000000;stroke-width:0" /><path
         id="path6628"
         d="m 238.3321,466.52578 -0.01,-0.01 -0.02,-0.01 -0.01,-0.02 -0.02,-0.01 -0.01,-0.01 -0.02,-0.01 -0.01,-0.01 -0.01,-0.01 -0.02,-0.01 -0.01,0 -0.01,-0.01 -0.02,-0.01 -0.01,-0.01 -0.01,0 -0.02,-0.01 -0.01,-0.01 -0.01,0 -0.02,-0.01 -0.01,0 -0.01,0 -0.02,-0.01 -0.01,0 -0.01,-0.01 -0.02,0 -0.02,0 -0.03,-0.01 -0.03,0 -0.02,0 c -0.23,0 -0.3,0.14 -0.3,0.58 v 1.93 c 0,0.52 -0.05,0.81 -0.2,1.05 -0.22,0.36 -0.65,0.54 -1.23,0.54 -0.94,0 -1.68,-0.48 -1.68,-1.11 0,-0.23 0.2,-0.42 0.43,-0.42 0.24,0 0.45,0.19 0.45,0.41 0,0.04 -0.01,0.09 -0.02,0.16 -0.02,0.09 -0.03,0.17 -0.03,0.24 0,0.27 0.32,0.49 0.72,0.49 0.48,0 0.75,-0.29 0.75,-0.83 v -0.6 -0.24 -1.44 c 0,-0.31 -0.05,-0.4 -0.26,-0.52 -0.23,-0.14 -0.51,-0.23 -0.72,-0.23 -0.35,0 -0.63,0.34 -0.63,0.77 v 0.04 c 0,0.58 0.41,0.94 1.61,1.38 v 0.24 c -1.53,-0.62 -1.7,-0.7 -2.13,-1.08 -0.21,-0.2 -0.35,-0.53 -0.35,-0.86 0,-0.63 0.43,-1.06 1.04,-1.06 0.44,0 0.85,0.2 1.45,0.72 0.05,-0.52 0.23,-0.72 0.64,-0.72 0.34,0 0.55,0.12 0.89,0.49 z"
         inkscape:connector-curvature="0"
         style="fill:#000000;stroke-width:0" /><path
         id="path6630"
         d="m 238.4321,469.74578 0.01,0 0.02,0 0.01,0.01 0.01,0 0.02,0 0.03,0.01 0.02,0 0.02,0 0.02,0.01 0.02,0 0.02,0 0.02,0 0.02,0.01 0.02,0 0.02,0 0.03,0 0.02,0 0.02,0 c 0.25,0 0.34,-0.16 0.34,-0.6 v -2.48 c 0,-0.5 -0.07,-0.57 -0.71,-0.69 v -0.15 h 2.39 v 0.15 c -0.68,0.03 -0.85,0.18 -0.85,0.75 v 2.23 c 0,0.32 0.43,0.82 0.7,0.82 0.06,0 0.15,-0.05 0.26,-0.15 0.16,-0.14 0.27,-0.2 0.4,-0.2 0.24,0 0.38,0.17 0.38,0.45 0,0.33 -0.21,0.52 -0.54,0.52 -0.42,0 -0.71,-0.22 -1.2,-0.93 v 0.92 l -0.05,0.01 c -0.52,-0.21 -0.88,-0.34 -1.47,-0.53 z"
         inkscape:connector-curvature="0"
         style="fill:#000000;stroke-width:0" /><path
         id="path6632"
         d="m 243.4221,470.43578 -1.54,-0.54 v -0.15 l 0.08,0.01 c 0.12,0.02 0.25,0.03 0.34,0.03 0.23,0 0.32,-0.16 0.32,-0.6 v -2.3 c 0,-0.72 -0.1,-0.83 -0.78,-0.87 v -0.15 h 2.36 v 0.15 c -0.66,0.05 -0.74,0.15 -0.74,0.87 v 3.52 z"
         inkscape:connector-curvature="0"
         style="fill:#000000;stroke-width:0" /><path
         id="path6634"
         d="m 242.9521,472.65578 -0.02,0 -0.03,0 -0.02,-0.01 -0.03,0 -0.02,-0.01 -0.02,0 -0.03,-0.01 -0.02,-0.01 -0.02,-0.01 -0.02,-0.01 -0.02,-0.01 -0.02,-0.02 -0.02,-0.01 -0.02,-0.02 -0.02,-0.01 -0.02,-0.02 -0.01,-0.02 -0.02,-0.02 -0.02,-0.01 -0.01,-0.02 -0.01,-0.03 -0.01,-0.02 -0.02,-0.02 -0.01,-0.02 -0.01,-0.02 0,-0.03 -0.01,-0.02 -0.01,-0.03 0,-0.02 0,-0.03 -0.01,-0.02 0,-0.03 c 0,-0.28 0.22,-0.5 0.5,-0.5 0.29,0 0.52,0.22 0.52,0.5 0,0.28 -0.23,0.51 -0.52,0.51 z"
         inkscape:connector-curvature="0"
         style="fill:#000000;stroke-width:0" /><path
         id="path6636"
         d="m 248.8521,466.52578 -0.02,-0.01 -0.02,-0.01 -0.01,-0.02 -0.02,-0.01 -0.01,-0.01 -0.01,-0.01 -0.02,-0.01 -0.01,-0.01 -0.02,-0.01 -0.01,0 -0.01,-0.01 -0.02,-0.01 -0.01,-0.01 -0.01,0 -0.02,-0.01 -0.01,-0.01 -0.01,0 -0.02,-0.01 -0.01,0 -0.01,0 -0.02,-0.01 -0.01,0 -0.01,-0.01 -0.01,0 -0.03,0 -0.03,-0.01 -0.02,0 -0.03,0 c -0.23,0 -0.3,0.14 -0.3,0.58 v 1.93 c 0,0.52 -0.05,0.81 -0.2,1.05 -0.22,0.36 -0.65,0.54 -1.23,0.54 -0.94,0 -1.67,-0.48 -1.67,-1.11 0,-0.23 0.19,-0.42 0.42,-0.42 0.24,0 0.45,0.19 0.45,0.41 0,0.04 -0.01,0.09 -0.02,0.16 -0.02,0.09 -0.03,0.17 -0.03,0.24 0,0.27 0.32,0.49 0.72,0.49 0.49,0 0.75,-0.29 0.75,-0.83 v -0.6 -0.24 -1.44 c 0,-0.31 -0.05,-0.4 -0.25,-0.52 -0.24,-0.14 -0.52,-0.23 -0.73,-0.23 -0.35,0 -0.63,0.34 -0.63,0.77 v 0.04 c 0,0.58 0.41,0.94 1.61,1.38 v 0.24 c -1.53,-0.62 -1.7,-0.7 -2.13,-1.08 -0.22,-0.2 -0.35,-0.53 -0.35,-0.86 0,-0.63 0.43,-1.06 1.04,-1.06 0.44,0 0.85,0.2 1.45,0.72 0.05,-0.52 0.23,-0.72 0.64,-0.72 0.34,0 0.55,0.12 0.9,0.49 z"
         inkscape:connector-curvature="0"
         style="fill:#000000;stroke-width:0" /><path
         id="path6638"
         d="m 249.0321,469.82578 0.01,0 0,0 0.01,0.01 0,0 0.01,0 0.01,0 0.01,0.01 0,0 0.01,0 0.01,0 0.01,0 0,0 0.02,0.01 0.02,0 0.01,0 0.02,0 0.02,0 0.02,0.01 0.02,0 0.02,0 0.02,0 0.02,0 c 0.28,0 0.37,-0.15 0.37,-0.64 v -2.46 c 0,-0.57 -0.11,-0.71 -0.62,-0.75 v -0.15 h 2.11 v 0.15 c -0.51,0.04 -0.66,0.16 -0.66,0.52 v 2.79 c 0.48,0.45 0.7,0.57 1.03,0.57 0.49,0 0.72,-0.31 0.72,-0.96 v -2.08 c 0,-0.63 -0.12,-0.8 -0.62,-0.84 v -0.15 h 2.07 v 0.15 c -0.49,0.05 -0.61,0.17 -0.61,0.66 v 2.27 c 0,0.94 -0.44,1.49 -1.17,1.49 -0.46,0 -0.77,-0.16 -1.45,-0.8 v 0.79 l -0.07,0.01 c -0.48,-0.17 -0.82,-0.28 -1.37,-0.44 z"
         inkscape:connector-curvature="0"
         style="fill:#000000;stroke-width:0" /><path
         id="path6640"
         d="m 257.8121,467.42578 -0.04,-0.07 -0.05,-0.06 -0.04,-0.06 -0.04,-0.05 -0.04,-0.06 -0.05,-0.05 -0.04,-0.05 -0.04,-0.04 -0.04,-0.05 -0.04,-0.04 -0.04,-0.04 -0.04,-0.04 -0.04,-0.03 -0.04,-0.03 -0.04,-0.03 -0.05,-0.03 -0.04,-0.03 -0.04,-0.02 -0.04,-0.03 -0.04,-0.02 -0.05,-0.02 -0.04,-0.01 -0.04,-0.02 -0.05,-0.01 -0.04,-0.01 -0.05,-0.01 -0.05,-0.01 -0.05,-0.01 -0.05,0 -0.05,-0.01 -0.05,0 -0.05,0 c -0.91,0 -1.54,0.8 -1.54,1.94 0,1.02 0.55,1.73 1.35,1.73 0.36,0 0.49,-0.11 0.59,-0.48 l 0.06,-0.22 c 0.08,-0.28 0.26,-0.46 0.46,-0.46 0.26,0 0.48,0.19 0.48,0.42 0,0.56 -0.69,1.02 -1.53,1.02 -0.49,0 -0.99,-0.19 -1.4,-0.55 -0.5,-0.44 -0.78,-1.11 -0.78,-1.9 0,-1.29 0.79,-2.21 1.89,-2.21 0.45,0 0.85,0.16 1.21,0.46 0.26,0.24 0.45,0.51 0.75,1.1 z"
         inkscape:connector-curvature="0"
         style="fill:#000000;stroke-width:0" /><path
         id="path6642"
         d="m 262.3321,467.49578 -0.04,-0.07 -0.04,-0.06 -0.05,-0.07 -0.04,-0.06 -0.05,-0.06 -0.04,-0.05 -0.04,-0.06 -0.05,-0.05 -0.04,-0.05 -0.05,-0.04 -0.04,-0.05 -0.04,-0.04 -0.05,-0.04 -0.04,-0.03 -0.05,-0.04 -0.05,-0.03 -0.04,-0.03 -0.05,-0.03 -0.05,-0.02 -0.04,-0.03 -0.05,-0.02 -0.05,-0.02 -0.05,-0.02 -0.05,-0.01 -0.06,-0.02 -0.05,-0.01 -0.05,-0.01 -0.06,-0.01 -0.05,0 -0.06,-0.01 -0.06,0 -0.06,0 c -0.56,0 -0.99,0.29 -1.28,0.85 -0.18,0.38 -0.25,0.71 -0.27,1.32 l 0.02,0.31 c 0.11,0.78 0.45,1.15 1.06,1.15 0.6,0 0.84,-0.28 0.97,-1.15 h -2.03 l -0.02,-0.31 h 3.06 c -0.07,0.64 -0.17,0.93 -0.42,1.25 -0.3,0.36 -0.76,0.56 -1.28,0.56 -0.49,0 -0.96,-0.17 -1.34,-0.51 -0.47,-0.41 -0.74,-1.12 -0.74,-1.93 0,-1.37 0.72,-2.22 1.87,-2.22 0.94,0 1.69,0.58 2.1,1.66 z"
         inkscape:connector-curvature="0"
         style="fill:#000000;stroke-width:0" /><g
         style="font-style:normal;font-variant:normal;font-weight:normal;font-stretch:normal;letter-spacing:normal;word-spacing:normal;text-anchor:start;fill:none;stroke:#000000;stroke-linecap:butt;stroke-linejoin:miter;stroke-miterlimit:10.43299961;stroke-opacity:1;stroke-dasharray:none;stroke-dashoffset:0"
         id="g6795"
         transform="matrix(1.2,0,0,1.2,-185.14323,-112.3543)"
         xml:space="preserve"
         stroke-miterlimit="10.433"
         font-style="normal"
         font-variant="normal"
         font-weight="normal"
         font-stretch="normal"
         font-size-adjust="none"
         letter-spacing="normal"
         word-spacing="normal"
         ns0:text="Sample Variance"
         ns0:preamble="/home/sriranga/Desktop/Beamer-prathi/article24/figure/package.tex"><path
           style="fill:#000000;stroke-width:0"
           inkscape:connector-curvature="0"
           d="m 257.69353,499.73363 h -0.21 c -0.04,-0.23 -0.15,-0.34 -0.32,-0.34 -0.1,0 -0.27,0.04 -0.44,0.12 -0.36,0.14 -0.73,0.22 -1.05,0.22 -0.43,0 -0.87,-0.17 -1.19,-0.46 -0.35,-0.31 -0.53,-0.72 -0.53,-1.24 0,-0.79 0.44,-1.35 1.55,-1.94 0.72,-0.37 1.23,-0.78 1.48,-1.16 0.09,-0.13 0.14,-0.34 0.14,-0.57 0,-0.67 -0.49,-1.13 -1.22,-1.13 -0.89,0 -1.51,0.55 -2.01,1.76 h -0.23 l 0.3,-2.1 h 0.22 c 0.01,0.19 0.13,0.32 0.28,0.32 0.11,0 0.27,-0.04 0.46,-0.11 0.38,-0.15 0.78,-0.22 1.18,-0.22 1.14,0 2.03,0.78 2.03,1.8 0,0.82 -0.55,1.46 -1.86,2.17 -1.05,0.58 -1.47,1.01 -1.47,1.55 0,0.55 0.42,0.92 1.04,0.92 0.45,0 0.86,-0.19 1.21,-0.54 0.31,-0.32 0.45,-0.58 0.61,-1.17 h 0.25 z"
           id="path6797" /><path
           style="fill:#000000;stroke-width:0"
           inkscape:connector-curvature="0"
           d="m 263.18353,493.67363 -0.02,-0.01 -0.01,-0.01 -0.02,-0.02 -0.01,-0.01 -0.02,-0.01 -0.01,-0.01 -0.02,-0.01 -0.01,-0.01 -0.01,-0.01 -0.02,0 -0.01,-0.01 -0.01,-0.01 -0.02,-0.01 -0.01,0 -0.01,-0.01 -0.02,-0.01 -0.01,0 -0.01,-0.01 -0.02,0 -0.01,0 -0.01,-0.01 -0.02,0 -0.01,-0.01 -0.01,0 -0.03,0 -0.02,-0.01 -0.03,0 -0.03,0 c -0.23,0 -0.3,0.14 -0.3,0.58 v 1.93 c 0,0.52 -0.05,0.81 -0.2,1.05 -0.22,0.36 -0.64,0.54 -1.23,0.54 -0.94,0 -1.67,-0.48 -1.67,-1.11 0,-0.23 0.2,-0.42 0.43,-0.42 0.24,0 0.44,0.19 0.44,0.41 0,0.04 -0.01,0.09 -0.02,0.16 -0.02,0.09 -0.03,0.17 -0.03,0.24 0,0.27 0.32,0.49 0.72,0.49 0.49,0 0.76,-0.29 0.76,-0.83 v -0.6 -0.24 -1.44 c 0,-0.31 -0.05,-0.4 -0.26,-0.52 -0.24,-0.14 -0.52,-0.23 -0.73,-0.23 -0.35,0 -0.63,0.34 -0.63,0.77 v 0.04 c 0,0.58 0.41,0.94 1.62,1.38 v 0.24 c -1.54,-0.62 -1.71,-0.7 -2.13,-1.08 -0.22,-0.2 -0.36,-0.53 -0.36,-0.86 0,-0.63 0.44,-1.06 1.04,-1.06 0.44,0 0.85,0.2 1.46,0.72 0.05,-0.52 0.23,-0.72 0.63,-0.72 0.34,0 0.55,0.12 0.9,0.49 z"
           id="path6799" /><path
           style="fill:#000000;stroke-width:0"
           inkscape:connector-curvature="0"
           d="m 263.39353,496.97363 0.02,0 0.01,0 0.01,0.01 0.01,0 0.01,0 0.01,0 0.02,0.01 0.02,0 0.02,0 0.02,0.01 0.02,0 0.02,0 0.02,0 0.02,0 0.01,0.01 0.02,0 0.02,0 0.02,0 0.02,0 c 0.26,0 0.35,-0.16 0.35,-0.64 v -2.51 c 0,-0.54 -0.14,-0.69 -0.7,-0.7 v -0.15 h 2.21 v 0.15 c -0.52,0.02 -0.67,0.13 -0.67,0.52 v 2.8 c 0,0.02 0.08,0.12 0.15,0.19 0.24,0.23 0.67,0.4 1.02,0.4 0.44,0 0.66,-0.35 0.66,-1.05 v -2.15 c 0,-0.56 -0.11,-0.67 -0.68,-0.71 v -0.15 h 2.23 v 0.15 c -0.57,0.01 -0.72,0.18 -0.72,0.8 v 2.5 c 0.3,0.43 0.63,0.61 1.09,0.61 0.56,0 0.74,-0.27 0.74,-1.09 v -2.1 c 0,-0.57 -0.08,-0.65 -0.65,-0.72 v -0.15 h 2.17 v 0.15 l -0.25,0.02 c -0.3,0.02 -0.43,0.2 -0.43,0.59 v 2.05 c 0,1.17 -0.39,1.76 -1.16,1.76 -0.57,0 -1.08,-0.25 -1.62,-0.83 -0.18,0.57 -0.52,0.83 -1.05,0.83 -0.44,0 -0.72,-0.13 -1.54,-0.76 v 0.75 l -0.07,0.01 c -0.51,-0.18 -0.85,-0.29 -1.4,-0.44 z"
           id="path6801" /><path
           style="fill:#000000;stroke-width:0"
           inkscape:connector-curvature="0"
           d="m 271.05353,496.92363 0.01,0 0.02,0 0.01,0 0.02,0 0.01,0.01 0.02,0 0.01,0 0.02,0 0.03,0 0.01,0 0.02,0 0.02,0 0.01,0 0.02,0 0.01,0 c 0.34,0 0.41,-0.1 0.41,-0.57 v -4.65 c 0,-0.51 -0.11,-0.62 -0.69,-0.68 v -0.17 h 2.4 v 0.18 c -0.74,0.01 -0.87,0.12 -0.87,0.74 v 1.56 c 0.35,-0.33 0.58,-0.42 1,-0.42 l 0.03,0.31 c -0.47,0 -1.03,0.36 -1.03,0.66 v 2.44 c 0,0.3 0.56,0.66 1.01,0.66 0.74,0 1.23,-0.76 1.23,-1.91 0,-1.1 -0.49,-1.85 -1.21,-1.85 l -0.03,-0.31 c 1.18,0 2.09,1.11 2.09,2.55 0,1.23 -0.7,2.11 -1.66,2.11 -0.56,0 -1,-0.24 -1.43,-0.78 v 0.77 l -0.06,0.01 c -0.54,-0.2 -0.89,-0.33 -1.43,-0.5 z"
           id="path6803" /><path
           style="fill:#000000;stroke-width:0"
           inkscape:connector-curvature="0"
           d="m 276.13353,499.20363 h 0.06 c 0.11,0.01 0.22,0.02 0.3,0.02 0.32,0 0.42,-0.14 0.42,-0.6 v -4.74 c 0,-0.54 -0.14,-0.67 -0.76,-0.72 v -0.15 h 2.34 v 0.15 c -0.62,0.04 -0.74,0.14 -0.74,0.69 v 5.93 l -0.04,0.02 c -0.52,-0.17 -0.9,-0.27 -1.58,-0.44 z"
           id="path6805" /><path
           style="fill:#000000;stroke-width:0"
           inkscape:connector-curvature="0"
           d="m 282.77353,494.64363 -0.05,-0.07 -0.04,-0.06 -0.05,-0.07 -0.04,-0.06 -0.05,-0.06 -0.04,-0.05 -0.04,-0.06 -0.05,-0.05 -0.04,-0.05 -0.05,-0.04 -0.04,-0.05 -0.04,-0.04 -0.05,-0.04 -0.04,-0.03 -0.05,-0.04 -0.05,-0.03 -0.04,-0.03 -0.05,-0.03 -0.05,-0.02 -0.04,-0.03 -0.05,-0.02 -0.05,-0.02 -0.05,-0.02 -0.05,-0.01 -0.06,-0.02 -0.05,-0.01 -0.05,-0.01 -0.06,-0.01 -0.05,0 -0.06,-0.01 -0.06,0 -0.06,0 c -0.56,0 -0.99,0.29 -1.28,0.85 -0.18,0.38 -0.25,0.71 -0.27,1.32 l 0.02,0.31 c 0.11,0.78 0.45,1.15 1.06,1.15 0.6,0 0.84,-0.28 0.97,-1.15 h -2.03 l -0.02,-0.31 h 3.07 c -0.08,0.64 -0.18,0.93 -0.43,1.25 -0.3,0.36 -0.76,0.56 -1.27,0.56 -0.5,0 -0.97,-0.17 -1.35,-0.51 -0.47,-0.41 -0.73,-1.12 -0.73,-1.93 0,-1.37 0.71,-2.22 1.86,-2.22 0.94,0 1.69,0.58 2.11,1.66 z"
           id="path6807" /><path
           style="fill:#000000;stroke-width:0"
           inkscape:connector-curvature="0"
           d="m 262.03851,489.24658 h -2.04 v -0.19 c 0.55,-0.03 0.73,-0.14 0.73,-0.42 0,-0.15 -0.07,-0.42 -0.19,-0.72 l -1.46,-3.65 -1.5,3.36 c -0.33,0.73 -0.41,0.96 -0.41,1.11 0,0.18 0.14,0.28 0.46,0.3 0.04,0 0.15,0.01 0.29,0.02 v 0.19 h -2.65 v -0.19 c 0.49,-0.02 0.63,-0.16 1.05,-1.04 l 2.45,-5.45 h 0.15 l 2.21,5.57 c 0.33,0.78 0.44,0.89 0.91,0.92 z"
           id="path6809" /><path
           style="fill:#000000;stroke-width:0"
           inkscape:connector-curvature="0"
           d="m 265.59851,483.32658 -0.02,-0.01 -0.02,-0.01 -0.01,-0.02 -0.02,-0.01 -0.01,-0.01 -0.02,-0.01 -0.01,-0.01 -0.01,-0.01 -0.02,-0.01 -0.01,0 -0.01,-0.01 -0.02,-0.01 -0.01,-0.01 -0.01,0 -0.02,-0.01 -0.01,-0.01 -0.01,0 -0.02,-0.01 -0.01,0 -0.01,0 -0.02,-0.01 -0.01,0 -0.01,-0.01 -0.02,0 -0.02,0 -0.03,-0.01 -0.03,0 -0.02,0 c -0.23,0 -0.3,0.14 -0.3,0.58 v 1.93 c 0,0.52 -0.05,0.81 -0.2,1.05 -0.22,0.36 -0.65,0.54 -1.23,0.54 -0.94,0 -1.68,-0.48 -1.68,-1.11 0,-0.23 0.2,-0.42 0.43,-0.42 0.24,0 0.45,0.19 0.45,0.41 0,0.04 -0.01,0.09 -0.02,0.16 -0.02,0.09 -0.03,0.17 -0.03,0.24 0,0.27 0.32,0.49 0.72,0.49 0.48,0 0.75,-0.29 0.75,-0.83 v -0.6 -0.24 -1.44 c 0,-0.31 -0.05,-0.4 -0.26,-0.52 -0.23,-0.14 -0.51,-0.23 -0.72,-0.23 -0.35,0 -0.63,0.34 -0.63,0.77 v 0.04 c 0,0.58 0.41,0.94 1.61,1.38 v 0.24 c -1.53,-0.62 -1.7,-0.7 -2.13,-1.08 -0.22,-0.2 -0.35,-0.53 -0.35,-0.86 0,-0.63 0.43,-1.06 1.04,-1.06 0.44,0 0.85,0.2 1.45,0.72 0.05,-0.52 0.23,-0.72 0.64,-0.72 0.34,0 0.55,0.12 0.9,0.49 z"
           id="path6811" /><path
           style="fill:#000000;stroke-width:0"
           inkscape:connector-curvature="0"
           d="m 265.68851,486.54658 0.01,0 0.02,0 0.01,0.01 0.01,0 0.02,0 0.03,0.01 0.02,0 0.02,0 0.02,0.01 0.02,0 0.02,0 0.02,0 0.02,0.01 0.02,0 0.02,0 0.03,0 0.02,0 0.02,0 c 0.25,0 0.34,-0.16 0.34,-0.6 v -2.48 c 0,-0.5 -0.07,-0.57 -0.71,-0.69 v -0.15 h 2.39 v 0.15 c -0.68,0.03 -0.85,0.18 -0.85,0.75 v 2.23 c 0,0.32 0.43,0.82 0.7,0.82 0.06,0 0.15,-0.05 0.26,-0.15 0.16,-0.14 0.27,-0.2 0.4,-0.2 0.24,0 0.38,0.17 0.38,0.45 0,0.33 -0.2,0.52 -0.54,0.52 -0.42,0 -0.71,-0.22 -1.2,-0.93 v 0.92 l -0.05,0.01 c -0.52,-0.21 -0.88,-0.34 -1.47,-0.53 z"
           id="path6813" /><path
           style="fill:#000000;stroke-width:0"
           inkscape:connector-curvature="0"
           d="m 270.67851,487.23658 -1.54,-0.54 v -0.15 l 0.08,0.01 c 0.12,0.02 0.25,0.03 0.34,0.03 0.23,0 0.32,-0.16 0.32,-0.6 v -2.3 c 0,-0.72 -0.1,-0.83 -0.78,-0.87 v -0.15 h 2.36 v 0.15 c -0.66,0.05 -0.74,0.15 -0.74,0.87 v 3.52 z"
           id="path6815" /><path
           style="fill:#000000;stroke-width:0"
           inkscape:connector-curvature="0"
           d="m 270.20851,489.45658 -0.02,0 -0.03,0 -0.02,-0.01 -0.03,0 -0.02,-0.01 -0.02,0 -0.03,-0.01 -0.02,-0.01 -0.02,-0.01 -0.02,-0.01 -0.02,-0.01 -0.02,-0.02 -0.02,-0.01 -0.02,-0.02 -0.02,-0.01 -0.02,-0.02 -0.01,-0.02 -0.02,-0.02 -0.02,-0.01 -0.01,-0.02 -0.01,-0.03 -0.01,-0.02 -0.02,-0.02 -0.01,-0.02 -0.01,-0.02 0,-0.03 -0.01,-0.02 -0.01,-0.03 0,-0.02 0,-0.03 -0.01,-0.02 0,-0.03 c 0,-0.28 0.22,-0.5 0.5,-0.5 0.29,0 0.52,0.22 0.52,0.5 0,0.28 -0.23,0.51 -0.52,0.51 z"
           id="path6817" /><path
           style="fill:#000000;stroke-width:0"
           inkscape:connector-curvature="0"
           d="m 276.10851,483.32658 -0.02,-0.01 -0.02,-0.01 -0.01,-0.02 -0.02,-0.01 -0.01,-0.01 -0.01,-0.01 -0.02,-0.01 -0.01,-0.01 -0.02,-0.01 -0.01,0 -0.01,-0.01 -0.02,-0.01 -0.01,-0.01 -0.01,0 -0.02,-0.01 -0.01,-0.01 -0.01,0 -0.02,-0.01 -0.01,0 -0.01,0 -0.02,-0.01 -0.01,0 -0.01,-0.01 -0.01,0 -0.03,0 -0.03,-0.01 -0.02,0 -0.03,0 c -0.23,0 -0.3,0.14 -0.3,0.58 v 1.93 c 0,0.52 -0.05,0.81 -0.2,1.05 -0.22,0.36 -0.65,0.54 -1.23,0.54 -0.94,0 -1.68,-0.48 -1.68,-1.11 0,-0.23 0.2,-0.42 0.43,-0.42 0.24,0 0.45,0.19 0.45,0.41 0,0.04 -0.01,0.09 -0.02,0.16 -0.02,0.09 -0.03,0.17 -0.03,0.24 0,0.27 0.32,0.49 0.72,0.49 0.48,0 0.75,-0.29 0.75,-0.83 v -0.6 -0.24 -1.44 c 0,-0.31 -0.05,-0.4 -0.25,-0.52 -0.24,-0.14 -0.52,-0.23 -0.73,-0.23 -0.35,0 -0.63,0.34 -0.63,0.77 v 0.04 c 0,0.58 0.41,0.94 1.61,1.38 v 0.24 c -1.53,-0.62 -1.7,-0.7 -2.13,-1.08 -0.21,-0.2 -0.35,-0.53 -0.35,-0.86 0,-0.63 0.43,-1.06 1.04,-1.06 0.44,0 0.85,0.2 1.45,0.72 0.05,-0.52 0.23,-0.72 0.64,-0.72 0.34,0 0.55,0.12 0.9,0.49 z"
           id="path6819" /><path
           style="fill:#000000;stroke-width:0"
           inkscape:connector-curvature="0"
           d="m 276.28851,486.62658 0.01,0 0,0 0.01,0.01 0,0 0.01,0 0.01,0 0.01,0.01 0,0 0.01,0 0.01,0 0.01,0 0,0 0.02,0.01 0.02,0 0.01,0 0.02,0 0.02,0 0.02,0.01 0.02,0 0.02,0 0.02,0 0.02,0 c 0.28,0 0.37,-0.15 0.37,-0.64 v -2.46 c 0,-0.57 -0.11,-0.71 -0.62,-0.75 v -0.15 h 2.11 v 0.15 c -0.51,0.04 -0.66,0.16 -0.66,0.52 v 2.79 c 0.48,0.45 0.7,0.57 1.03,0.57 0.49,0 0.72,-0.31 0.72,-0.96 v -2.08 c 0,-0.63 -0.13,-0.8 -0.62,-0.84 v -0.15 h 2.07 v 0.15 c -0.49,0.05 -0.61,0.17 -0.61,0.66 v 2.27 c 0,0.94 -0.44,1.49 -1.17,1.49 -0.46,0 -0.77,-0.16 -1.45,-0.8 v 0.79 l -0.07,0.01 c -0.48,-0.17 -0.82,-0.28 -1.37,-0.44 z"
           id="path6821" /><path
           style="fill:#000000;stroke-width:0"
           inkscape:connector-curvature="0"
           d="m 285.06851,484.22658 -0.04,-0.07 -0.05,-0.06 -0.04,-0.06 -0.04,-0.05 -0.04,-0.06 -0.05,-0.05 -0.04,-0.05 -0.04,-0.04 -0.04,-0.05 -0.04,-0.04 -0.04,-0.04 -0.04,-0.04 -0.04,-0.03 -0.04,-0.03 -0.04,-0.03 -0.05,-0.03 -0.04,-0.03 -0.04,-0.02 -0.04,-0.03 -0.04,-0.02 -0.05,-0.02 -0.04,-0.01 -0.04,-0.02 -0.05,-0.01 -0.04,-0.01 -0.05,-0.01 -0.05,-0.01 -0.05,-0.01 -0.05,0 -0.05,-0.01 -0.05,0 -0.05,0 c -0.91,0 -1.54,0.8 -1.54,1.94 0,1.02 0.55,1.73 1.35,1.73 0.36,0 0.49,-0.11 0.59,-0.48 l 0.06,-0.22 c 0.08,-0.28 0.26,-0.46 0.47,-0.46 0.25,0 0.47,0.19 0.47,0.42 0,0.56 -0.69,1.02 -1.53,1.02 -0.49,0 -1,-0.19 -1.4,-0.55 -0.5,-0.44 -0.78,-1.11 -0.78,-1.9 0,-1.29 0.79,-2.21 1.89,-2.21 0.45,0 0.85,0.16 1.21,0.46 0.26,0.24 0.45,0.51 0.75,1.1 z"
           id="path6823" /><path
           style="fill:#000000;stroke-width:0"
           inkscape:connector-curvature="0"
           d="m 289.59851,484.29658 -0.05,-0.07 -0.04,-0.06 -0.05,-0.07 -0.04,-0.06 -0.05,-0.06 -0.04,-0.05 -0.04,-0.06 -0.05,-0.05 -0.04,-0.05 -0.05,-0.04 -0.04,-0.05 -0.04,-0.04 -0.05,-0.04 -0.04,-0.03 -0.05,-0.04 -0.05,-0.03 -0.04,-0.03 -0.05,-0.03 -0.05,-0.02 -0.04,-0.03 -0.05,-0.02 -0.05,-0.02 -0.05,-0.02 -0.05,-0.01 -0.06,-0.02 -0.05,-0.01 -0.05,-0.01 -0.06,-0.01 -0.05,0 -0.06,-0.01 -0.06,0 -0.06,0 c -0.56,0 -0.99,0.29 -1.28,0.85 -0.18,0.38 -0.25,0.71 -0.27,1.32 l 0.02,0.31 c 0.11,0.78 0.45,1.15 1.06,1.15 0.6,0 0.84,-0.28 0.97,-1.15 h -2.03 l -0.02,-0.31 h 3.07 c -0.08,0.64 -0.18,0.93 -0.43,1.25 -0.3,0.36 -0.76,0.56 -1.28,0.56 -0.49,0 -0.96,-0.17 -1.34,-0.51 -0.47,-0.41 -0.74,-1.12 -0.74,-1.93 0,-1.37 0.72,-2.22 1.87,-2.22 0.94,0 1.69,0.58 2.1,1.66 z"
           id="path6825" /></g></g>    <g
       style="font-style:normal;font-variant:normal;font-weight:normal;font-stretch:normal;letter-spacing:normal;word-spacing:normal;text-anchor:start;fill:none;stroke:#000000;stroke-linecap:butt;stroke-linejoin:miter;stroke-miterlimit:10.43299961;stroke-opacity:1;stroke-dasharray:none;stroke-dashoffset:0"
       ns0:preamble="/home/sriranga/Desktop/Beamer-prathi/article24/figure/package.tex"
       ns0:text="$E (S^2) = \\sigma^2$"
       word-spacing="normal"
       letter-spacing="normal"
       font-size-adjust="none"
       font-stretch="normal"
       font-weight="normal"
       font-variant="normal"
       font-style="normal"
       stroke-miterlimit="10.433"
       xml:space="preserve"
       transform="matrix(1.2,0,0,-1.2,-145.94658,1543.6313)"
       id="content"><path
         id="path6956"
         d="m 229.99,483.72 h -4.95 v -0.16 c 0.62,-0.06 0.77,-0.14 0.77,-0.4 0,-0.11 -0.06,-0.46 -0.11,-0.64 l -1.22,-4.39 c -0.17,-0.57 -0.25,-0.64 -0.81,-0.74 v -0.16 h 5.04 l 0.62,1.61 -0.16,0.08 c -0.46,-0.63 -0.72,-0.89 -1.15,-1.09 -0.37,-0.17 -1.05,-0.27 -1.79,-0.27 -0.56,0 -0.8,0.1 -0.8,0.34 0,0.11 0.11,0.58 0.36,1.45 0.13,0.44 0.22,0.77 0.32,1.14 0.35,-0.02 0.65,-0.03 0.77,-0.03 0.39,0.01 0.67,-0.05 0.78,-0.15 0.05,-0.04 0.07,-0.14 0.07,-0.3 0,-0.17 -0.02,-0.3 -0.07,-0.52 l 0.2,-0.05 0.68,2.3 -0.18,0.05 c -0.38,-0.85 -0.47,-0.91 -1.38,-0.95 -0.11,0 -0.43,-0.01 -0.78,-0.02 l 0.65,2.32 c 0.06,0.21 0.17,0.25 0.73,0.25 1.56,0 1.91,-0.12 1.91,-0.72 0,-0.13 -0.01,-0.28 -0.02,-0.45 l 0.21,-0.02 z"
         inkscape:connector-curvature="0"
         style="fill:#000000;stroke-width:0" /><path
         id="path6958"
         d="m 233.18,483.95 -0.07,-0.04 -0.06,-0.05 -0.06,-0.04 -0.06,-0.04 -0.06,-0.04 -0.06,-0.04 -0.05,-0.04 -0.06,-0.03 -0.05,-0.04 -0.05,-0.04 -0.04,-0.03 -0.05,-0.04 -0.04,-0.03 -0.05,-0.04 -0.08,-0.06 -0.08,-0.07 -0.07,-0.07 -0.07,-0.07 -0.07,-0.07 -0.07,-0.07 -0.07,-0.08 -0.06,-0.08 -0.07,-0.08 c -0.71,-0.87 -1.05,-1.86 -1.05,-3.02 0,-1.26 0.36,-2.24 1.24,-3.25 0.41,-0.48 0.66,-0.69 1.18,-1.01 l 0.12,0.16 c -0.79,0.62 -1.07,0.97 -1.34,1.71 -0.24,0.67 -0.35,1.42 -0.35,2.42 0,1.04 0.13,1.86 0.4,2.47 0.28,0.62 0.57,0.97 1.29,1.55 z"
         inkscape:connector-curvature="0"
         style="fill:#000000;stroke-width:0" /><path
         id="path6960"
         d="m 238.22,481.88 0.4,1.98 h -0.23 c -0.14,-0.21 -0.23,-0.26 -0.45,-0.26 -0.12,0 -0.23,0.03 -0.46,0.11 -0.22,0.09 -0.53,0.14 -0.84,0.14 -1.04,0 -1.77,-0.68 -1.77,-1.66 0,-0.53 0.15,-0.82 0.74,-1.46 0.09,-0.09 0.22,-0.23 0.39,-0.42 0.18,-0.18 0.32,-0.33 0.39,-0.41 0.47,-0.49 0.6,-0.75 0.6,-1.17 0,-0.75 -0.56,-1.33 -1.29,-1.33 -0.82,0 -1.45,0.71 -1.45,1.65 0,0.08 0.01,0.16 0.02,0.23 l -0.2,0.02 -0.34,-2.21 h 0.18 c 0.07,0.22 0.18,0.32 0.38,0.32 0.11,0 0.26,-0.04 0.52,-0.12 0.45,-0.17 0.72,-0.23 1.03,-0.23 1.15,0 2.01,0.86 2.01,1.98 0,0.65 -0.23,1.04 -1.12,1.94 -0.9,0.9 -0.99,1.04 -0.99,1.53 0,0.63 0.42,1.01 1.1,1.01 0.37,0 0.67,-0.13 0.88,-0.36 0.22,-0.25 0.3,-0.59 0.32,-1.25 z"
         inkscape:connector-curvature="0"
         style="fill:#000000;stroke-width:0" /><path
         id="path6962"
         d="m 243.43,481.8 -0.09,0.04 c -0.26,-0.4 -0.35,-0.46 -0.66,-0.46 h -1.67 l 1.17,1.22 c 0.62,0.65 0.89,1.18 0.89,1.72 0,0.7 -0.56,1.23 -1.28,1.23 -0.39,0 -0.75,-0.15 -1.01,-0.43 -0.22,-0.23 -0.33,-0.46 -0.44,-0.95 l 0.14,-0.04 c 0.28,0.69 0.53,0.91 1.01,0.91 0.59,0 0.98,-0.4 0.98,-0.98 0,-0.54 -0.32,-1.19 -0.9,-1.81 l -1.24,-1.32 v -0.08 h 2.71 z"
         inkscape:connector-curvature="0"
         style="fill:#000000;stroke-width:0" /><path
         id="path6964"
         d="m 244.48,475.48 0.07,0.04 0.07,0.04 0.06,0.05 0.06,0.04 0.06,0.04 0.05,0.03 0.06,0.04 0.05,0.04 0.05,0.04 0.05,0.03 0.05,0.04 0.04,0.03 0.05,0.04 0.04,0.03 0.08,0.07 0.08,0.07 0.07,0.07 0.08,0.07 0.07,0.07 0.06,0.07 0.07,0.08 0.07,0.08 0.07,0.08 c 0.7,0.86 1.05,1.86 1.05,3.02 0,1.27 -0.37,2.23 -1.24,3.25 -0.41,0.47 -0.67,0.69 -1.19,1.01 l -0.12,-0.16 c 0.8,-0.62 1.07,-0.97 1.35,-1.72 0.24,-0.66 0.35,-1.42 0.35,-2.41 0,-1.03 -0.13,-1.86 -0.4,-2.46 -0.28,-0.63 -0.58,-0.99 -1.3,-1.56 z"
         inkscape:connector-curvature="0"
         style="fill:#000000;stroke-width:0" /><polygon
         id="polygon6966"
         points="250.81,481.07 250.81,480.51 255.9,480.51 255.9,481.07 "
         style="fill:#000000;stroke-width:0" /><polygon
         id="polygon6968"
         points="250.81,479.05 250.81,478.5 255.9,478.5 255.9,479.05 "
         style="fill:#000000;stroke-width:0" /><path
         id="path6970"
         d="m 266.02,481.62 h -3.63 c -1.5,0 -2.85,-1.26 -2.85,-2.92 0,-1.01 0.54,-1.57 1.55,-1.57 l 0.14,0.24 c -0.76,0 -0.86,1 -0.86,1.3 0,1.91 1.02,2.68 1.76,2.68 0.37,0 0.95,-0.1 0.95,-1.28 h 0 c 0,-1.48 -0.82,-2.7 -1.85,-2.7 l -0.14,-0.24 c 1.23,0 2.75,1.18 2.75,2.95 0,0.56 -0.19,0.78 -0.19,0.79 h 2.17 z"
         inkscape:connector-curvature="0"
         style="fill:#000000;stroke-width:0" /><path
         id="path6972"
         d="m 269.37,481.8 -0.09,0.04 c -0.26,-0.4 -0.35,-0.46 -0.67,-0.46 h -1.66 l 1.17,1.22 c 0.62,0.65 0.89,1.18 0.89,1.72 0,0.7 -0.56,1.23 -1.29,1.23 -0.38,0 -0.74,-0.15 -1,-0.43 -0.22,-0.23 -0.33,-0.46 -0.45,-0.95 l 0.15,-0.04 c 0.28,0.69 0.53,0.91 1.01,0.91 0.59,0 0.98,-0.4 0.98,-0.98 0,-0.54 -0.32,-1.19 -0.9,-1.81 l -1.24,-1.32 v -0.08 h 2.71 z"
         inkscape:connector-curvature="0"
         style="fill:#000000;stroke-width:0" /></g>  </g>
</svg>
