<?xml version="1.0" encoding="UTF-8" standalone="no"?>
<!-- Created with Inkscape (http://www.inkscape.org/) -->

<svg
   xmlns:ns0="http://www.iki.fi/pav/software/textext/"
   xmlns:dc="http://purl.org/dc/elements/1.1/"
   xmlns:cc="http://creativecommons.org/ns#"
   xmlns:rdf="http://www.w3.org/1999/02/22-rdf-syntax-ns#"
   xmlns:svg="http://www.w3.org/2000/svg"
   xmlns="http://www.w3.org/2000/svg"
   xmlns:sodipodi="http://sodipodi.sourceforge.net/DTD/sodipodi-0.dtd"
   xmlns:inkscape="http://www.inkscape.org/namespaces/inkscape"
   width="354.33069"
   height="141.73228"
   id="svg2"
   version="1.1"
   inkscape:version="0.48.4 r9939"
   sodipodi:docname="New document 1">
  <sodipodi:namedview
     id="base"
     pagecolor="#ffffff"
     bordercolor="#666666"
     borderopacity="1.0"
     inkscape:pageopacity="0.0"
     inkscape:pageshadow="2"
     inkscape:zoom="2.8"
     inkscape:cx="88.539089"
     inkscape:cy="39.327844"
     inkscape:document-units="px"
     inkscape:current-layer="layer1"
     showgrid="false"
     inkscape:window-width="1024"
     inkscape:window-height="744"
     inkscape:window-x="0"
     inkscape:window-y="24"
     inkscape:window-maximized="1"
     units="cm" />
  <defs
     id="defs4">
    <marker
       inkscape:stockid="Arrow1Mstart"
       orient="auto"
       refY="0.0"
       refX="0.0"
       id="Arrow1Mstart"
       style="overflow:visible">
      <path
         id="path4477"
         d="M 0.0,0.0 L 5.0,-5.0 L -12.5,0.0 L 5.0,5.0 L 0.0,0.0 z "
         style="fill-rule:evenodd;stroke:#000000;stroke-width:1.0pt"
         transform="scale(0.4) translate(10,0)" />
    </marker>
    <inkscape:path-effect
       effect="spiro"
       id="path-effect3697"
       is_visible="true" />
    <inkscape:path-effect
       effect="spiro"
       id="path-effect3241"
       is_visible="true" />
    <inkscape:path-effect
       effect="spiro"
       id="path-effect3241-3"
       is_visible="true" />
    <inkscape:path-effect
       effect="spiro"
       id="path-effect3241-7"
       is_visible="true" />
    <inkscape:path-effect
       effect="spiro"
       id="path-effect3241-7-3"
       is_visible="true" />
  </defs>
  <metadata
     id="metadata7">
    <rdf:RDF>
      <cc:Work
         rdf:about="">
        <dc:format>image/svg+xml</dc:format>
        <dc:type
           rdf:resource="http://purl.org/dc/dcmitype/StillImage" />
        <dc:title></dc:title>
      </cc:Work>
    </rdf:RDF>
  </metadata>
  <g
     inkscape:label="Layer 1"
     inkscape:groupmode="layer"
     id="layer1"
     transform="translate(0,-910.62859)">
    <g
       style="font-style:normal;font-variant:normal;font-weight:normal;font-stretch:normal;letter-spacing:normal;word-spacing:normal;text-anchor:start;fill:none;stroke:#000000;stroke-linecap:butt;stroke-linejoin:miter;stroke-miterlimit:10.43299961;stroke-opacity:1;stroke-dasharray:none;stroke-dashoffset:0"
       ns0:preamble="/home/sriranga/Desktop/Beamer-prathi/article24/figure/package.tex"
       ns0:text="$x_1, x_2, \\ldots,  x_n  \\xrightarrow \\;  s^2 = \\dfrac{1}{n-1} \\sum\\limits^n_{i=1} (x_i -\\overline{x})^2$"
       word-spacing="normal"
       letter-spacing="normal"
       font-size-adjust="none"
       font-stretch="normal"
       font-weight="normal"
       font-variant="normal"
       font-style="normal"
       stroke-miterlimit="10.433"
       xml:space="preserve"
       transform="matrix(1.2,0,0,-1.2,-114.85714,1551)"
       id="content"><path
         id="path3118"
         d="m 227.93,474.89 -0.01,-0.02 -0.02,-0.01 -0.01,-0.02 -0.02,-0.01 -0.01,-0.02 -0.01,-0.01 -0.01,-0.02 -0.02,-0.01 -0.01,-0.02 -0.01,-0.01 -0.01,-0.02 -0.02,-0.02 -0.01,-0.01 0,-0.01 -0.01,-0.01 -0.01,-0.01 0,-0.01 -0.01,-0.01 -0.01,-0.01 -0.01,-0.01 c -0.23,-0.3 -0.35,-0.39 -0.46,-0.39 -0.15,0 -0.24,0.12 -0.3,0.4 -0.02,0.08 -0.04,0.14 -0.05,0.17 -0.24,1 -0.35,1.46 -0.35,1.61 0.43,0.76 0.79,1.2 0.97,1.2 0.06,0 0.14,-0.03 0.24,-0.08 0.12,-0.07 0.19,-0.09 0.27,-0.09 0.21,0 0.35,0.15 0.35,0.36 0,0.21 -0.17,0.37 -0.41,0.37 -0.44,0 -0.82,-0.36 -1.5,-1.42 l -0.11,0.55 c -0.14,0.67 -0.25,0.87 -0.52,0.87 -0.22,0 -0.56,-0.09 -1.16,-0.29 l -0.11,-0.04 0.04,-0.15 c 0.38,0.09 0.46,0.11 0.55,0.11 0.25,0 0.31,-0.09 0.45,-0.68 l 0.29,-1.23 -0.82,-1.16 c -0.2,-0.3 -0.39,-0.47 -0.5,-0.47 -0.06,0 -0.16,0.03 -0.26,0.08 -0.13,0.07 -0.24,0.1 -0.32,0.1 -0.19,0 -0.34,-0.14 -0.34,-0.34 0,-0.26 0.2,-0.42 0.5,-0.42 0.31,0 0.43,0.09 0.92,0.69 0.27,0.32 0.48,0.59 0.9,1.17 l 0.3,-1.2 c 0.13,-0.5 0.26,-0.66 0.57,-0.66 0.38,0 0.64,0.24 1.22,1.13 z"
         inkscape:connector-curvature="0"
         style="fill:#000000;stroke-width:0" /><path
         id="path3120"
         d="m 230.38,476.99 -1.25,-0.63 v -0.09 c 0.08,0.03 0.16,0.06 0.19,0.07 0.12,0.05 0.24,0.08 0.31,0.08 0.14,0 0.21,-0.11 0.21,-0.33 v -3.15 c 0,-0.23 -0.06,-0.39 -0.17,-0.45 -0.1,-0.06 -0.2,-0.09 -0.49,-0.09 v -0.11 h 1.92 v 0.11 c -0.55,0 -0.66,0.08 -0.66,0.41 v 4.17 z"
         inkscape:connector-curvature="0"
         style="fill:#000000;stroke-width:0" /><path
         id="path3122"
         d="m 234.28,473.85 0,0.04 0,0.03 0,0.04 -0.01,0.03 0,0.04 -0.01,0.03 0,0.03 -0.01,0.04 0,0.03 -0.01,0.03 -0.01,0.02 -0.01,0.03 0,0.03 -0.01,0.02 -0.01,0.03 -0.01,0.02 -0.02,0.03 -0.01,0.02 -0.02,0.04 -0.03,0.04 -0.03,0.04 -0.02,0.04 -0.03,0.03 -0.04,0.03 -0.03,0.02 -0.03,0.03 -0.03,0.02 -0.04,0.02 -0.03,0.02 -0.04,0.01 -0.03,0.02 -0.03,0.01 -0.03,0.01 -0.04,0.01 -0.03,0 -0.03,0.01 -0.03,0 -0.02,0.01 -0.03,0 -0.02,0 -0.03,0 c -0.25,0 -0.57,-0.15 -0.57,-0.57 0,-0.4 0.35,-0.5 0.61,-0.5 0.07,0 0.12,0.01 0.15,0.02 0.04,0.01 0.07,0.02 0.09,0.02 0.07,0 0.14,-0.05 0.14,-0.14 0,-0.19 -0.16,-0.64 -0.82,-1.05 l 0.09,-0.19 c 0.3,0.1 1.12,0.75 1.12,1.46 z"
         inkscape:connector-curvature="0"
         style="fill:#000000;stroke-width:0" /><path
         id="path3124"
         d="m 240.99,474.89 -0.02,-0.02 -0.01,-0.01 -0.01,-0.02 -0.02,-0.01 -0.01,-0.02 -0.01,-0.01 -0.02,-0.02 -0.01,-0.01 -0.01,-0.02 -0.01,-0.01 -0.02,-0.02 -0.01,-0.02 -0.01,-0.01 0,-0.01 -0.01,-0.01 -0.01,-0.01 -0.01,-0.01 0,-0.01 -0.01,-0.01 -0.01,-0.01 c -0.23,-0.3 -0.35,-0.39 -0.46,-0.39 -0.15,0 -0.24,0.12 -0.31,0.4 -0.02,0.08 -0.03,0.14 -0.04,0.17 -0.25,1 -0.36,1.46 -0.36,1.61 0.44,0.76 0.8,1.2 0.98,1.2 0.06,0 0.14,-0.03 0.24,-0.08 0.12,-0.07 0.19,-0.09 0.27,-0.09 0.21,0 0.34,0.15 0.34,0.36 0,0.21 -0.16,0.37 -0.4,0.37 -0.44,0 -0.82,-0.36 -1.51,-1.42 l -0.1,0.55 c -0.14,0.67 -0.25,0.87 -0.52,0.87 -0.22,0 -0.56,-0.09 -1.17,-0.29 l -0.11,-0.04 0.04,-0.15 c 0.38,0.09 0.47,0.11 0.56,0.11 0.25,0 0.31,-0.09 0.45,-0.68 l 0.29,-1.23 -0.82,-1.16 c -0.2,-0.3 -0.4,-0.47 -0.51,-0.47 -0.06,0 -0.15,0.03 -0.25,0.08 -0.13,0.07 -0.24,0.1 -0.32,0.1 -0.19,0 -0.34,-0.14 -0.34,-0.34 0,-0.26 0.2,-0.42 0.5,-0.42 0.3,0 0.43,0.09 0.92,0.69 0.27,0.32 0.48,0.59 0.9,1.17 l 0.3,-1.2 c 0.12,-0.5 0.26,-0.66 0.57,-0.66 0.38,0 0.64,0.24 1.22,1.13 z"
         inkscape:connector-curvature="0"
         style="fill:#000000;stroke-width:0" /><path
         id="path3126"
         d="m 244.72,473.25 -0.09,0.03 c -0.26,-0.39 -0.35,-0.46 -0.66,-0.46 h -1.67 l 1.17,1.23 c 0.62,0.64 0.89,1.17 0.89,1.71 0,0.7 -0.56,1.23 -1.28,1.23 -0.39,0 -0.75,-0.15 -1.01,-0.43 -0.22,-0.23 -0.33,-0.45 -0.44,-0.95 l 0.14,-0.03 c 0.28,0.68 0.53,0.9 1.01,0.9 0.59,0 0.98,-0.4 0.98,-0.98 0,-0.54 -0.31,-1.19 -0.9,-1.81 l -1.24,-1.31 v -0.09 h 2.72 z"
         inkscape:connector-curvature="0"
         style="fill:#000000;stroke-width:0" /><path
         id="path3128"
         d="m 247.34,473.85 0,0.04 -0.01,0.03 0,0.04 0,0.03 0,0.04 -0.01,0.03 0,0.03 -0.01,0.04 -0.01,0.03 0,0.03 -0.01,0.02 -0.01,0.03 -0.01,0.03 -0.01,0.02 -0.01,0.03 -0.01,0.02 -0.01,0.03 -0.01,0.02 -0.02,0.04 -0.03,0.04 -0.03,0.04 -0.03,0.04 -0.03,0.03 -0.03,0.03 -0.03,0.02 -0.03,0.03 -0.04,0.02 -0.03,0.02 -0.03,0.02 -0.04,0.01 -0.03,0.02 -0.03,0.01 -0.04,0.01 -0.03,0.01 -0.03,0 -0.03,0.01 -0.03,0 -0.03,0.01 -0.02,0 -0.03,0 -0.02,0 c -0.25,0 -0.58,-0.15 -0.58,-0.57 0,-0.4 0.36,-0.5 0.62,-0.5 0.07,0 0.12,0.01 0.15,0.02 0.04,0.01 0.07,0.02 0.09,0.02 0.07,0 0.14,-0.05 0.14,-0.14 0,-0.19 -0.16,-0.64 -0.82,-1.05 l 0.09,-0.19 c 0.3,0.1 1.12,0.75 1.12,1.46 z"
         inkscape:connector-curvature="0"
         style="fill:#000000;stroke-width:0" /><path
         id="path3130"
         d="m 251.35,474.21 0,0.03 0,0.03 -0.01,0.03 0,0.03 -0.01,0.02 0,0.03 -0.01,0.03 -0.01,0.02 -0.02,0.03 -0.01,0.02 -0.01,0.03 -0.02,0.02 -0.01,0.02 -0.02,0.02 -0.02,0.02 -0.02,0.02 -0.02,0.02 -0.02,0.02 -0.02,0.02 -0.02,0.01 -0.02,0.02 -0.02,0.01 -0.03,0.01 -0.02,0.02 -0.03,0.01 -0.02,0.01 -0.03,0 -0.03,0.01 -0.02,0 -0.03,0.01 -0.03,0 -0.03,0 c -0.3,0 -0.54,-0.25 -0.54,-0.57 0,-0.37 0.34,-0.53 0.54,-0.53 0.21,0 0.56,0.17 0.56,0.53 z"
         inkscape:connector-curvature="0"
         style="fill:#000000;stroke-width:0" /><path
         id="path3132"
         d="m 255.5,474.21 0,0.03 -0.01,0.03 0,0.03 -0.01,0.03 0,0.02 -0.01,0.03 -0.01,0.03 -0.01,0.02 -0.01,0.03 -0.01,0.02 -0.02,0.03 -0.01,0.02 -0.02,0.02 -0.01,0.02 -0.02,0.02 -0.02,0.02 -0.02,0.02 -0.02,0.02 -0.02,0.02 -0.02,0.01 -0.03,0.02 -0.02,0.01 -0.02,0.01 -0.03,0.02 -0.02,0.01 -0.03,0.01 -0.03,0 -0.02,0.01 -0.03,0 -0.03,0.01 -0.02,0 -0.03,0 c -0.3,0 -0.55,-0.25 -0.55,-0.57 0,-0.37 0.34,-0.53 0.55,-0.53 0.21,0 0.56,0.17 0.56,0.53 z"
         inkscape:connector-curvature="0"
         style="fill:#000000;stroke-width:0" /><path
         id="path3134"
         d="m 259.65,474.21 0,0.03 0,0.03 -0.01,0.03 0,0.03 -0.01,0.02 -0.01,0.03 0,0.03 -0.02,0.02 -0.01,0.03 -0.01,0.02 -0.01,0.03 -0.02,0.02 -0.01,0.02 -0.02,0.02 -0.02,0.02 -0.02,0.02 -0.02,0.02 -0.02,0.02 -0.02,0.02 -0.02,0.01 -0.02,0.02 -0.03,0.01 -0.02,0.01 -0.02,0.02 -0.03,0.01 -0.02,0.01 -0.03,0 -0.03,0.01 -0.02,0 -0.03,0.01 -0.03,0 -0.03,0 c -0.3,0 -0.54,-0.25 -0.54,-0.57 0,-0.37 0.33,-0.53 0.54,-0.53 0.21,0 0.56,0.17 0.56,0.53 z"
         inkscape:connector-curvature="0"
         style="fill:#000000;stroke-width:0" /><path
         id="path3136"
         d="m 263.94,473.85 0,0.04 0,0.03 0,0.04 0,0.03 -0.01,0.04 0,0.03 -0.01,0.03 0,0.04 -0.01,0.03 0,0.03 -0.01,0.02 -0.01,0.03 -0.01,0.03 -0.01,0.02 -0.01,0.03 -0.01,0.02 -0.01,0.03 -0.01,0.02 -0.03,0.04 -0.02,0.04 -0.03,0.04 -0.03,0.04 -0.03,0.03 -0.03,0.03 -0.03,0.02 -0.04,0.03 -0.03,0.02 -0.03,0.02 -0.04,0.02 -0.03,0.01 -0.03,0.02 -0.04,0.01 -0.03,0.01 -0.03,0.01 -0.03,0 -0.03,0.01 -0.03,0 -0.03,0.01 -0.03,0 -0.02,0 -0.02,0 c -0.25,0 -0.58,-0.15 -0.58,-0.57 0,-0.4 0.36,-0.5 0.62,-0.5 0.07,0 0.12,0.01 0.15,0.02 0.04,0.01 0.07,0.02 0.09,0.02 0.07,0 0.14,-0.05 0.14,-0.14 0,-0.19 -0.16,-0.64 -0.82,-1.05 l 0.09,-0.19 c 0.3,0.1 1.11,0.75 1.11,1.46 z"
         inkscape:connector-curvature="0"
         style="fill:#000000;stroke-width:0" /><path
         id="path3138"
         d="m 270.65,474.89 -0.01,-0.02 -0.02,-0.01 -0.01,-0.02 -0.02,-0.01 -0.01,-0.02 -0.01,-0.01 -0.01,-0.02 -0.02,-0.01 -0.01,-0.02 -0.01,-0.01 -0.01,-0.02 -0.02,-0.02 -0.01,-0.01 0,-0.01 -0.01,-0.01 -0.01,-0.01 0,-0.01 -0.01,-0.01 -0.01,-0.01 -0.01,-0.01 c -0.23,-0.3 -0.35,-0.39 -0.46,-0.39 -0.15,0 -0.24,0.12 -0.3,0.4 -0.03,0.08 -0.03,0.14 -0.05,0.17 -0.24,1 -0.35,1.46 -0.35,1.61 0.43,0.76 0.79,1.2 0.97,1.2 0.06,0 0.14,-0.03 0.24,-0.08 0.12,-0.07 0.19,-0.09 0.27,-0.09 0.21,0 0.35,0.15 0.35,0.36 0,0.21 -0.17,0.37 -0.41,0.37 -0.44,0 -0.82,-0.36 -1.5,-1.42 l -0.11,0.55 c -0.14,0.67 -0.25,0.87 -0.52,0.87 -0.22,0 -0.56,-0.09 -1.16,-0.29 l -0.11,-0.04 0.04,-0.15 c 0.37,0.09 0.46,0.11 0.55,0.11 0.25,0 0.31,-0.09 0.45,-0.68 l 0.29,-1.23 -0.82,-1.16 c -0.19,-0.3 -0.39,-0.47 -0.5,-0.47 -0.06,0 -0.16,0.03 -0.26,0.08 -0.13,0.07 -0.24,0.1 -0.32,0.1 -0.19,0 -0.34,-0.14 -0.34,-0.34 0,-0.26 0.2,-0.42 0.5,-0.42 0.31,0 0.43,0.09 0.92,0.69 0.27,0.32 0.48,0.59 0.9,1.17 l 0.3,-1.2 c 0.13,-0.5 0.26,-0.66 0.58,-0.66 0.37,0 0.63,0.24 1.21,1.13 z"
         inkscape:connector-curvature="0"
         style="fill:#000000;stroke-width:0" /><path
         id="path3140"
         d="m 274.28,473.11 -0.15,-0.18 c -0.2,-0.26 -0.33,-0.37 -0.42,-0.37 -0.06,0 -0.12,0.05 -0.12,0.11 0,0.05 0,0.05 0.1,0.44 l 0.4,1.43 c 0.03,0.15 0.06,0.3 0.06,0.4 0,0.25 -0.19,0.42 -0.46,0.42 -0.44,0 -0.88,-0.42 -1.6,-1.53 l 0.47,1.52 -0.02,0.01 c -0.38,-0.08 -0.53,-0.1 -1.13,-0.22 v -0.11 c 0.35,0 0.44,-0.05 0.44,-0.18 0,-0.05 0,-0.09 -0.01,-0.12 l -0.67,-2.44 h 0.52 c 0.33,1.1 0.39,1.26 0.7,1.73 0.42,0.64 0.77,0.99 1.03,0.99 0.1,0 0.17,-0.08 0.17,-0.21 0,-0.08 -0.04,-0.31 -0.1,-0.52 l -0.31,-1.15 c -0.09,-0.36 -0.11,-0.45 -0.11,-0.52 0,-0.27 0.1,-0.38 0.33,-0.38 0.31,0 0.49,0.15 0.97,0.79 z"
         inkscape:connector-curvature="0"
         style="fill:#000000;stroke-width:0" /><polygon
         id="polygon3142"
         points="283.54,476.62 278.44,476.62 278.44,476.06 283.54,476.06 "
         style="fill:#000000;stroke-width:0" /><polygon
         id="polygon3144"
         points="283.13,478.05 284.31,476.62 277.03,476.62 277.03,476.06 284.31,476.06 283.13,474.63 283.43,474.3 285.39,476.35 283.43,478.38 "
         style="fill:#000000;stroke-width:0" /><path
         id="path3146"
         d="m 289.64,475.24 -0.2,-1.58 h 0.16 c 0.08,0.16 0.14,0.21 0.24,0.21 0.11,0 0.29,-0.04 0.49,-0.09 0.22,-0.07 0.39,-0.1 0.55,-0.1 0.83,0 1.43,0.53 1.43,1.29 0,0.38 -0.21,0.82 -0.68,1.39 -0.38,0.47 -0.54,0.78 -0.54,1.04 0,0.33 0.21,0.54 0.56,0.54 0.52,0 0.82,-0.37 0.92,-1.14 h 0.16 l 0.19,1.38 h -0.13 c -0.08,-0.14 -0.16,-0.18 -0.3,-0.18 -0.07,0 -0.17,0.02 -0.36,0.07 -0.25,0.08 -0.4,0.1 -0.56,0.1 -0.72,0 -1.2,-0.43 -1.2,-1.09 0,-0.32 0.21,-0.75 0.62,-1.28 0.39,-0.51 0.56,-0.86 0.56,-1.15 0,-0.45 -0.3,-0.76 -0.73,-0.76 -0.55,0 -0.86,0.41 -1.02,1.35 z"
         inkscape:connector-curvature="0"
         style="fill:#000000;stroke-width:0" /><path
         id="path3148"
         d="m 296.47,478.36 -0.09,0.03 c -0.26,-0.39 -0.35,-0.46 -0.67,-0.46 h -1.66 l 1.17,1.23 c 0.62,0.64 0.89,1.17 0.89,1.72 0,0.69 -0.56,1.23 -1.29,1.23 -0.38,0 -0.74,-0.16 -1,-0.44 -0.22,-0.23 -0.33,-0.45 -0.45,-0.95 l 0.15,-0.03 c 0.28,0.68 0.53,0.9 1.01,0.9 0.58,0 0.98,-0.39 0.98,-0.98 0,-0.54 -0.32,-1.19 -0.9,-1.81 l -1.24,-1.31 v -0.09 h 2.71 z"
         inkscape:connector-curvature="0"
         style="fill:#000000;stroke-width:0" /><polygon
         id="polygon3150"
         points="305.62,477.62 300.53,477.62 300.53,477.07 305.62,477.07 "
         style="fill:#000000;stroke-width:0" /><polygon
         id="polygon3152"
         points="305.62,475.61 300.53,475.61 300.53,475.05 305.62,475.05 "
         style="fill:#000000;stroke-width:0" /><path
         id="path3154"
         d="m 320.98,487.25 -1.79,-0.91 v -0.14 c 0.12,0.06 0.23,0.1 0.26,0.12 0.18,0.06 0.35,0.1 0.45,0.1 0.21,0 0.3,-0.15 0.3,-0.46 v -4.5 c 0,-0.33 -0.08,-0.56 -0.24,-0.65 -0.15,-0.09 -0.29,-0.12 -0.7,-0.13 v -0.15 H 322 v 0.15 c -0.78,0.01 -0.94,0.11 -0.94,0.59 v 5.96 z"
         inkscape:connector-curvature="0"
         style="fill:#000000;stroke-width:0" /><line
         id="line3156"
         y2="476.35001"
         x2="330.94"
         y1="476.35001"
         x1="310.20999"
         style="stroke-width:0.55800003" /><path
         id="path3158"
         d="m 314.79,468.12 -0.21,-0.26 c -0.29,-0.37 -0.47,-0.53 -0.61,-0.53 -0.08,0 -0.16,0.08 -0.16,0.16 0,0.07 0,0.07 0.14,0.63 l 0.57,2.04 c 0.05,0.21 0.09,0.43 0.09,0.57 0,0.36 -0.27,0.6 -0.66,0.6 -0.64,0 -1.26,-0.59 -2.29,-2.18 l 0.67,2.17 -0.03,0.01 c -0.54,-0.1 -0.75,-0.14 -1.61,-0.3 v -0.16 c 0.51,-0.01 0.63,-0.07 0.63,-0.27 0,-0.06 -0.01,-0.12 -0.02,-0.17 l -0.95,-3.48 h 0.75 c 0.46,1.57 0.55,1.79 0.99,2.47 0.6,0.91 1.11,1.41 1.47,1.41 0.15,0 0.24,-0.11 0.24,-0.29 0,-0.12 -0.06,-0.45 -0.14,-0.75 l -0.43,-1.64 c -0.13,-0.51 -0.16,-0.65 -0.16,-0.75 0,-0.38 0.13,-0.54 0.46,-0.54 0.45,0 0.71,0.21 1.4,1.13 z"
         inkscape:connector-curvature="0"
         style="fill:#000000;stroke-width:0" /><polygon
         id="polygon3160"
         points="323.12,469.79 318.02,469.79 318.02,469.23 323.12,469.23 "
         style="fill:#000000;stroke-width:0" /><path
         id="path3162"
         d="m 328.85,473.67 -1.79,-0.9 v -0.14 c 0.12,0.05 0.23,0.09 0.27,0.11 0.18,0.06 0.35,0.11 0.45,0.11 0.2,0 0.29,-0.15 0.29,-0.47 v -4.5 c 0,-0.33 -0.08,-0.56 -0.24,-0.65 -0.14,-0.09 -0.28,-0.12 -0.7,-0.13 v -0.15 h 2.75 v 0.15 c -0.79,0.01 -0.95,0.11 -0.95,0.59 v 5.96 z"
         inkscape:connector-curvature="0"
         style="fill:#000000;stroke-width:0" /><path
         id="path3164"
         d="m 340.18,483.44 -0.14,-0.18 c -0.21,-0.26 -0.33,-0.37 -0.43,-0.37 -0.05,0 -0.11,0.06 -0.11,0.11 0,0.05 0,0.05 0.1,0.44 l 0.39,1.43 c 0.04,0.15 0.07,0.3 0.07,0.4 0,0.25 -0.19,0.43 -0.46,0.43 -0.45,0 -0.89,-0.42 -1.6,-1.53 l 0.46,1.51 -0.02,0.02 c -0.37,-0.08 -0.52,-0.11 -1.13,-0.22 v -0.11 c 0.36,-0.01 0.45,-0.05 0.45,-0.19 0,-0.04 -0.01,-0.08 -0.02,-0.12 l -0.66,-2.43 h 0.52 c 0.33,1.1 0.39,1.25 0.7,1.72 0.41,0.64 0.77,0.99 1.03,0.99 0.1,0 0.16,-0.08 0.16,-0.2 0,-0.09 -0.04,-0.31 -0.09,-0.53 l -0.31,-1.15 c -0.09,-0.35 -0.11,-0.45 -0.11,-0.52 0,-0.26 0.1,-0.37 0.32,-0.37 0.32,0 0.5,0.14 0.98,0.78 z"
         inkscape:connector-curvature="0"
         style="fill:#000000;stroke-width:0" /><path
         id="path3166"
         d="m 341.92,474.55 h -0.21 c -0.2,-1.25 -0.65,-1.8 -1.35,-1.8 h -3.9 l 2.88,3.69 -2.56,3.81 h 3.18 c 0.73,0 1.18,-0.4 1.39,-1.66 h 0.22 l -0.06,2.05 h -5.97 l 3.05,-4.37 -3.46,-4.38 h 6.68 z"
         inkscape:connector-curvature="0"
         style="fill:#000000;stroke-width:0" /><path
         id="path3168"
         d="m 335.34,466.53 -0.02,-0.02 -0.01,-0.02 -0.02,-0.02 -0.01,-0.02 -0.01,-0.02 -0.01,-0.01 -0.02,-0.02 -0.01,-0.01 -0.01,-0.02 -0.01,-0.01 -0.01,-0.01 -0.01,-0.01 -0.01,-0.02 0,-0.01 -0.01,-0.01 -0.01,-0.01 -0.01,-0.01 -0.01,0 0,-0.01 -0.01,-0.01 -0.01,-0.01 0,-0.01 -0.02,-0.01 -0.01,-0.02 -0.01,-0.01 -0.01,-0.01 -0.02,-0.02 c -0.12,-0.12 -0.22,-0.19 -0.28,-0.19 -0.06,0 -0.11,0.06 -0.11,0.11 0,0.07 0.02,0.17 0.07,0.3 0,0.02 0.02,0.07 0.03,0.13 v 0.01 l 0.01,0.02 0.61,2.24 -0.02,0.01 c -0.7,-0.13 -0.84,-0.15 -1.12,-0.17 v -0.12 c 0.37,0 0.44,-0.02 0.44,-0.16 0,-0.06 -0.02,-0.17 -0.06,-0.31 l -0.33,-1.23 c -0.12,-0.4 -0.16,-0.62 -0.16,-0.76 0,-0.25 0.11,-0.39 0.32,-0.39 0.32,0 0.58,0.2 0.98,0.79 z"
         inkscape:connector-curvature="0"
         style="fill:#000000;stroke-width:0" /><path
         id="path3170"
         d="m 335.28,470.28 -0.02,0 -0.01,0 -0.02,0 -0.02,-0.01 -0.01,0 -0.02,-0.01 -0.01,0 -0.02,-0.01 -0.01,0 -0.02,-0.01 -0.01,-0.01 -0.01,-0.01 -0.02,-0.01 -0.01,-0.01 -0.01,-0.01 -0.01,-0.02 -0.01,-0.01 -0.01,-0.01 -0.01,-0.01 -0.01,-0.02 -0.01,-0.01 -0.01,-0.02 0,-0.02 -0.01,-0.01 -0.01,-0.02 0,-0.02 -0.01,-0.01 0,-0.02 0,-0.02 0,-0.02 0,-0.02 -0.01,-0.02 c 0,-0.22 0.14,-0.37 0.34,-0.37 0.18,0 0.34,0.16 0.34,0.36 0,0.2 -0.16,0.38 -0.35,0.38 z"
         inkscape:connector-curvature="0"
         style="fill:#000000;stroke-width:0" /><polygon
         id="polygon3172"
         points="339.73,468.42 336.16,468.42 336.16,468.03 339.73,468.03 "
         style="fill:#000000;stroke-width:0" /><polygon
         id="polygon3174"
         points="339.73,467.01 336.16,467.01 336.16,466.62 339.73,466.62 "
         style="fill:#000000;stroke-width:0" /><path
         id="path3176"
         d="m 342.19,470.43 -1.25,-0.63 v -0.1 c 0.08,0.04 0.16,0.07 0.19,0.08 0.12,0.05 0.24,0.08 0.31,0.08 0.15,0 0.21,-0.11 0.21,-0.33 v -3.15 c 0,-0.23 -0.06,-0.39 -0.17,-0.45 -0.1,-0.07 -0.2,-0.09 -0.49,-0.09 v -0.11 h 1.92 v 0.11 c -0.55,0 -0.66,0.07 -0.66,0.41 v 4.17 z"
         inkscape:connector-curvature="0"
         style="fill:#000000;stroke-width:0" /><path
         id="path3178"
         d="m 346.59,480.5 -0.07,-0.04 -0.06,-0.04 -0.07,-0.05 -0.06,-0.04 -0.06,-0.04 -0.05,-0.03 -0.06,-0.04 -0.05,-0.04 -0.05,-0.04 -0.05,-0.03 -0.05,-0.04 -0.04,-0.03 -0.05,-0.04 -0.04,-0.03 -0.08,-0.07 -0.08,-0.07 -0.07,-0.07 -0.07,-0.07 -0.07,-0.07 -0.07,-0.07 -0.07,-0.08 -0.07,-0.08 -0.07,-0.08 c -0.7,-0.86 -1.05,-1.86 -1.05,-3.02 0,-1.26 0.37,-2.23 1.24,-3.25 0.41,-0.47 0.67,-0.69 1.19,-1.01 l 0.12,0.16 c -0.8,0.63 -1.08,0.97 -1.35,1.72 -0.23,0.66 -0.34,1.42 -0.34,2.41 0,1.04 0.12,1.86 0.39,2.48 0.28,0.61 0.58,0.97 1.3,1.54 z"
         inkscape:connector-curvature="0"
         style="fill:#000000;stroke-width:0" /><path
         id="path3180"
         d="m 351.47,474.89 -0.02,-0.02 -0.01,-0.01 -0.01,-0.02 -0.02,-0.01 -0.01,-0.02 -0.01,-0.01 -0.01,-0.02 -0.02,-0.01 -0.01,-0.02 -0.01,-0.01 -0.02,-0.02 -0.01,-0.02 -0.01,-0.01 0,-0.01 -0.01,-0.01 -0.01,-0.01 -0.01,-0.01 0,-0.01 -0.01,-0.01 -0.01,-0.01 c -0.23,-0.3 -0.35,-0.39 -0.46,-0.39 -0.15,0 -0.24,0.12 -0.31,0.4 -0.02,0.08 -0.03,0.14 -0.04,0.17 -0.24,1 -0.35,1.46 -0.35,1.61 0.43,0.76 0.79,1.2 0.97,1.2 0.06,0 0.14,-0.03 0.24,-0.08 0.12,-0.07 0.19,-0.09 0.27,-0.09 0.21,0 0.35,0.15 0.35,0.36 0,0.21 -0.17,0.37 -0.41,0.37 -0.44,0 -0.82,-0.36 -1.5,-1.42 l -0.11,0.55 c -0.14,0.67 -0.25,0.87 -0.52,0.87 -0.22,0 -0.56,-0.09 -1.17,-0.29 l -0.1,-0.04 0.04,-0.15 c 0.37,0.09 0.46,0.11 0.55,0.11 0.25,0 0.31,-0.09 0.45,-0.68 l 0.29,-1.23 -0.82,-1.16 c -0.2,-0.3 -0.39,-0.47 -0.5,-0.47 -0.06,0 -0.16,0.03 -0.26,0.08 -0.13,0.07 -0.24,0.1 -0.32,0.1 -0.19,0 -0.34,-0.14 -0.34,-0.34 0,-0.26 0.2,-0.42 0.5,-0.42 0.31,0 0.43,0.09 0.92,0.69 0.27,0.32 0.48,0.59 0.9,1.17 l 0.3,-1.2 c 0.13,-0.5 0.26,-0.66 0.57,-0.66 0.38,0 0.64,0.24 1.22,1.13 z"
         inkscape:connector-curvature="0"
         style="fill:#000000;stroke-width:0" /><path
         id="path3182"
         d="m 353.44,473.09 -0.02,-0.02 -0.01,-0.02 -0.02,-0.02 -0.01,-0.02 -0.01,-0.02 -0.01,-0.01 -0.02,-0.02 -0.01,-0.01 -0.01,-0.02 -0.01,-0.01 -0.01,-0.01 -0.01,-0.01 -0.01,-0.01 0,-0.02 -0.01,-0.01 -0.01,-0.01 -0.01,0 -0.01,-0.01 0,-0.01 -0.01,-0.01 -0.01,-0.01 0,-0.01 -0.02,-0.01 -0.01,-0.02 -0.01,-0.01 -0.01,-0.01 -0.02,-0.02 c -0.12,-0.12 -0.22,-0.19 -0.28,-0.19 -0.06,0 -0.11,0.06 -0.11,0.11 0,0.07 0.02,0.17 0.07,0.3 0,0.03 0.02,0.07 0.03,0.13 v 0.01 l 0.01,0.02 0.61,2.24 -0.02,0.01 c -0.7,-0.13 -0.84,-0.15 -1.11,-0.17 v -0.11 c 0.36,-0.01 0.43,-0.03 0.43,-0.17 0,-0.06 -0.02,-0.17 -0.06,-0.31 l -0.33,-1.23 c -0.12,-0.4 -0.16,-0.62 -0.16,-0.76 0,-0.25 0.12,-0.39 0.32,-0.39 0.32,0 0.58,0.21 0.98,0.79 z"
         inkscape:connector-curvature="0"
         style="fill:#000000;stroke-width:0" /><path
         id="path3184"
         d="m 353.38,476.84 -0.02,0 -0.01,0 -0.02,0 -0.02,-0.01 -0.01,0 -0.02,0 -0.01,-0.01 -0.02,-0.01 -0.01,0 -0.02,-0.01 -0.01,-0.01 -0.01,-0.01 -0.02,-0.01 -0.01,-0.01 -0.01,-0.01 -0.01,-0.01 -0.01,-0.02 -0.01,-0.01 -0.01,-0.01 -0.01,-0.02 -0.01,-0.01 -0.01,-0.02 0,-0.01 -0.01,-0.02 -0.01,-0.02 0,-0.02 -0.01,-0.01 0,-0.02 0,-0.02 0,-0.02 0,-0.02 -0.01,-0.02 c 0,-0.22 0.14,-0.36 0.34,-0.36 0.18,0 0.34,0.16 0.34,0.35 0,0.2 -0.16,0.38 -0.35,0.38 z"
         inkscape:connector-curvature="0"
         style="fill:#000000;stroke-width:0" /><polygon
         id="polygon3186"
         points="362.25,476.62 357.16,476.62 357.16,476.06 362.25,476.06 "
         style="fill:#000000;stroke-width:0" /><line
         id="line3188"
         y2="480.14001"
         x2="370.04001"
         y1="480.14001"
         x1="365.09"
         style="stroke-width:0.55800003" /><path
         id="path3190"
         d="m 369.59,474.89 -0.01,-0.02 -0.02,-0.01 -0.01,-0.02 -0.01,-0.01 -0.02,-0.02 -0.01,-0.01 -0.01,-0.02 -0.02,-0.01 -0.01,-0.02 -0.01,-0.01 -0.01,-0.02 -0.02,-0.02 0,-0.01 -0.01,-0.01 -0.01,-0.01 -0.01,-0.01 0,-0.01 -0.01,-0.01 -0.01,-0.01 -0.01,-0.01 c -0.23,-0.3 -0.35,-0.39 -0.46,-0.39 -0.14,0 -0.24,0.12 -0.3,0.4 -0.02,0.08 -0.03,0.14 -0.04,0.17 -0.25,1 -0.36,1.46 -0.36,1.61 0.43,0.76 0.79,1.2 0.97,1.2 0.06,0 0.14,-0.03 0.24,-0.08 0.12,-0.07 0.19,-0.09 0.27,-0.09 0.21,0 0.35,0.15 0.35,0.36 0,0.21 -0.17,0.37 -0.41,0.37 -0.44,0 -0.81,-0.36 -1.5,-1.42 l -0.11,0.55 c -0.14,0.67 -0.25,0.87 -0.52,0.87 -0.22,0 -0.56,-0.09 -1.16,-0.29 l -0.11,-0.04 0.04,-0.15 c 0.38,0.09 0.46,0.11 0.56,0.11 0.24,0 0.3,-0.09 0.44,-0.68 l 0.29,-1.23 -0.82,-1.16 c -0.19,-0.3 -0.39,-0.47 -0.5,-0.47 -0.06,0 -0.16,0.03 -0.26,0.08 -0.13,0.07 -0.24,0.1 -0.32,0.1 -0.19,0 -0.34,-0.14 -0.34,-0.34 0,-0.26 0.2,-0.42 0.5,-0.42 0.31,0 0.43,0.09 0.92,0.69 0.27,0.32 0.48,0.59 0.9,1.17 l 0.3,-1.2 c 0.13,-0.5 0.26,-0.66 0.58,-0.66 0.37,0 0.63,0.24 1.21,1.13 z"
         inkscape:connector-curvature="0"
         style="fill:#000000;stroke-width:0" /><path
         id="path3192"
         d="m 370.42,472.03 0.07,0.04 0.07,0.05 0.06,0.04 0.06,0.04 0.06,0.04 0.05,0.04 0.06,0.04 0.05,0.03 0.05,0.04 0.05,0.04 0.05,0.03 0.04,0.04 0.05,0.03 0.04,0.04 0.08,0.06 0.08,0.07 0.07,0.07 0.08,0.07 0.07,0.07 0.06,0.07 0.07,0.08 0.07,0.08 0.07,0.08 c 0.7,0.87 1.05,1.86 1.05,3.02 0,1.27 -0.37,2.24 -1.24,3.25 -0.41,0.48 -0.67,0.69 -1.19,1.01 l -0.12,-0.16 c 0.8,-0.62 1.07,-0.97 1.35,-1.71 0.24,-0.67 0.34,-1.43 0.34,-2.42 0,-1.03 -0.12,-1.86 -0.39,-2.46 -0.28,-0.63 -0.58,-0.98 -1.3,-1.56 z"
         inkscape:connector-curvature="0"
         style="fill:#000000;stroke-width:0" /><path
         id="path3194"
         d="m 376.67,478.36 -0.09,0.03 c -0.26,-0.39 -0.35,-0.46 -0.66,-0.46 h -1.67 l 1.17,1.23 c 0.62,0.64 0.9,1.17 0.9,1.72 0,0.69 -0.57,1.23 -1.29,1.23 -0.39,0 -0.75,-0.16 -1.01,-0.44 -0.22,-0.23 -0.32,-0.45 -0.44,-0.95 l 0.14,-0.03 c 0.28,0.68 0.53,0.9 1.01,0.9 0.59,0 0.99,-0.39 0.99,-0.98 0,-0.54 -0.32,-1.19 -0.91,-1.81 l -1.24,-1.31 v -0.09 h 2.72 z"
         inkscape:connector-curvature="0"
         style="fill:#000000;stroke-width:0" /></g>    <path
       style="fill:none;stroke:#000000;stroke-width:1.25;stroke-linecap:butt;stroke-linejoin:miter;stroke-opacity:1;stroke-miterlimit:4;stroke-dasharray:none"
       d="m 28.349383,951.98101 0,61.35569"
       id="path3239"
       inkscape:path-effect="#path-effect3241"
       inkscape:original-d="m 28.349383,951.98101 0,61.35569"
       inkscape:connector-curvature="0" />
    <path
       style="fill:none;stroke:#000000;stroke-width:1.25;stroke-linecap:butt;stroke-linejoin:miter;stroke-opacity:1;stroke-miterlimit:4;stroke-dasharray:none"
       d="m 89.332812,952.12993 0,61.35567"
       id="path3239-6"
       inkscape:path-effect="#path-effect3241-3"
       inkscape:original-d="m 89.332812,952.12993 0,61.35567"
       inkscape:connector-curvature="0" />
    <path
       style="fill:none;stroke:#000000;stroke-width:1.25;stroke-linecap:butt;stroke-linejoin:miter;stroke-opacity:1;stroke-miterlimit:4;stroke-dasharray:none"
       d="m 89.886166,952.48802 -61.355739,0"
       id="path3239-5"
       inkscape:path-effect="#path-effect3241-7"
       inkscape:original-d="m 89.886166,952.48802 -61.355739,0"
       inkscape:connector-curvature="0" />
    <path
       style="fill:none;stroke:#000000;stroke-width:1.25;stroke-linecap:butt;stroke-linejoin:miter;stroke-opacity:1;stroke-miterlimit:4;stroke-dasharray:none"
       d="m 89.332816,1012.8155 -61.355739,0"
       id="path3239-5-5"
       inkscape:path-effect="#path-effect3241-7-3"
       inkscape:original-d="m 89.332816,1012.8155 -61.355739,0"
       inkscape:connector-curvature="0" />
    <g
       id="g3482"
       transform="matrix(1.2,0,0,-1.2,-214.31582,1542.0159)"
       xml:space="preserve"
       stroke-miterlimit="10.433"
       font-style="normal"
       font-variant="normal"
       font-weight="normal"
       font-stretch="normal"
       font-size-adjust="none"
       letter-spacing="normal"
       word-spacing="normal"
       ns0:text="$X$"
       ns0:preamble="/home/sriranga/Desktop/Beamer-prathi/article24/figure/package.tex"
       style="font-style:normal;font-variant:normal;font-weight:normal;font-stretch:normal;letter-spacing:normal;word-spacing:normal;text-anchor:start;fill:none;stroke:#000000;stroke-linecap:butt;stroke-linejoin:miter;stroke-miterlimit:10.43299961;stroke-opacity:1;stroke-dasharray:none;stroke-dashoffset:0"><path
         style="fill:#000000;stroke-width:0"
         inkscape:connector-curvature="0"
         d="m 230.2,483.72 h -2.07 v -0.16 c 0.49,-0.06 0.61,-0.13 0.61,-0.36 0,-0.12 -0.06,-0.24 -0.2,-0.4 l -1.45,-1.66 -0.58,1.46 c -0.11,0.26 -0.15,0.43 -0.15,0.56 0,0.24 0.16,0.33 0.7,0.4 v 0.16 h -2.62 v -0.16 c 0.57,-0.05 0.72,-0.15 0.91,-0.6 l 1.06,-2.62 c -0.37,-0.41 -0.7,-0.8 -0.83,-0.96 -1.38,-1.63 -1.66,-1.88 -2.19,-1.99 v -0.16 h 2.13 v 0.16 c -0.48,0 -0.64,0.09 -0.64,0.34 0,0.15 0.07,0.32 0.2,0.47 l 1.51,1.71 0.66,-1.64 c 0.07,-0.18 0.11,-0.34 0.11,-0.49 0,-0.29 -0.1,-0.34 -0.75,-0.39 v -0.16 h 2.71 v 0.16 c -0.69,0.08 -0.78,0.14 -1.03,0.74 l -1.02,2.56 1.68,1.93 c 0.52,0.58 0.82,0.8 1.25,0.94 z"
         id="path3484" /></g>    <g
       style="font-style:normal;font-variant:normal;font-weight:normal;font-stretch:normal;letter-spacing:normal;word-spacing:normal;text-anchor:start;fill:none;stroke:#000000;stroke-linecap:butt;stroke-linejoin:miter;stroke-miterlimit:10.43299961;stroke-opacity:1;stroke-dasharray:none;stroke-dashoffset:0"
       ns0:preamble="/home/sriranga/Desktop/Beamer-prathi/article24/figure/package.tex"
       ns0:text="$V(x) = \\sigma^2$"
       word-spacing="normal"
       letter-spacing="normal"
       font-size-adjust="none"
       font-stretch="normal"
       font-weight="normal"
       font-variant="normal"
       font-style="normal"
       stroke-miterlimit="10.433"
       xml:space="preserve"
       transform="matrix(1.2,0,0,-1.2,-233.66413,1571.1783)"
       id="g3615"><path
         id="path3617"
         d="m 230.28,483.72 h -1.85 v -0.16 c 0.44,-0.05 0.62,-0.15 0.62,-0.33 0,-0.19 -0.19,-0.62 -0.51,-1.19 l -2.05,-3.53 -0.66,4.4 c -0.01,0.05 -0.01,0.09 -0.01,0.15 0,0.33 0.14,0.43 0.77,0.5 v 0.16 h -2.4 v -0.16 c 0.55,-0.07 0.57,-0.1 0.78,-1.34 l 0.85,-5.16 h 0.19 l 3.71,6.11 c 0.17,0.26 0.33,0.38 0.56,0.39 z"
         inkscape:connector-curvature="0"
         style="fill:#000000;stroke-width:0" /><path
         id="path3619"
         d="m 233.22,483.95 -0.07,-0.04 -0.06,-0.05 -0.06,-0.04 -0.07,-0.04 -0.05,-0.04 -0.06,-0.04 -0.05,-0.04 -0.06,-0.03 -0.05,-0.04 -0.05,-0.04 -0.04,-0.03 -0.05,-0.04 -0.04,-0.03 -0.05,-0.04 -0.08,-0.06 -0.08,-0.07 -0.07,-0.07 -0.07,-0.07 -0.07,-0.07 -0.07,-0.07 -0.07,-0.08 -0.06,-0.08 -0.07,-0.08 c -0.71,-0.87 -1.06,-1.86 -1.06,-3.02 0,-1.26 0.37,-2.24 1.25,-3.25 0.4,-0.48 0.66,-0.69 1.18,-1.01 l 0.12,0.16 c -0.8,0.62 -1.07,0.97 -1.34,1.71 -0.24,0.67 -0.35,1.42 -0.35,2.42 0,1.04 0.13,1.86 0.4,2.47 0.28,0.62 0.57,0.97 1.29,1.55 z"
         inkscape:connector-curvature="0"
         style="fill:#000000;stroke-width:0" /><path
         id="path3621"
         d="m 238.1,478.34 -0.01,-0.02 -0.02,-0.01 -0.01,-0.02 -0.01,-0.02 -0.02,-0.01 -0.01,-0.02 -0.01,-0.01 -0.01,-0.02 -0.02,-0.01 -0.01,-0.02 -0.01,-0.01 -0.02,-0.02 0,-0.01 -0.01,-0.01 -0.01,-0.01 -0.01,-0.01 0,-0.01 -0.01,-0.01 -0.01,-0.01 -0.01,-0.01 c -0.23,-0.3 -0.35,-0.4 -0.45,-0.4 -0.15,0 -0.24,0.13 -0.31,0.41 -0.02,0.08 -0.03,0.14 -0.04,0.17 -0.25,1 -0.36,1.46 -0.36,1.61 0.44,0.76 0.79,1.2 0.97,1.2 0.06,0 0.14,-0.03 0.24,-0.08 0.12,-0.07 0.19,-0.09 0.27,-0.09 0.21,0 0.35,0.15 0.35,0.36 0,0.21 -0.17,0.37 -0.41,0.37 -0.44,0 -0.81,-0.36 -1.5,-1.42 l -0.11,0.54 c -0.14,0.68 -0.25,0.88 -0.52,0.88 -0.22,0 -0.55,-0.09 -1.16,-0.29 l -0.11,-0.04 0.04,-0.15 c 0.38,0.09 0.47,0.11 0.56,0.11 0.24,0 0.3,-0.09 0.44,-0.69 l 0.29,-1.22 -0.81,-1.16 c -0.2,-0.3 -0.4,-0.48 -0.51,-0.48 -0.06,0 -0.16,0.03 -0.26,0.09 -0.13,0.07 -0.24,0.1 -0.32,0.1 -0.19,0 -0.34,-0.15 -0.34,-0.35 0,-0.25 0.2,-0.41 0.5,-0.41 0.31,0 0.43,0.08 0.93,0.69 0.26,0.32 0.47,0.59 0.89,1.16 l 0.3,-1.19 c 0.13,-0.5 0.26,-0.66 0.58,-0.66 0.37,0 0.63,0.23 1.21,1.13 z"
         inkscape:connector-curvature="0"
         style="fill:#000000;stroke-width:0" /><path
         id="path3623"
         d="m 238.93,475.48 0.07,0.04 0.07,0.04 0.06,0.05 0.06,0.04 0.06,0.04 0.05,0.03 0.06,0.04 0.05,0.04 0.05,0.04 0.05,0.03 0.05,0.04 0.04,0.03 0.05,0.04 0.04,0.03 0.08,0.07 0.08,0.07 0.07,0.07 0.08,0.07 0.07,0.07 0.06,0.07 0.07,0.08 0.07,0.08 0.07,0.08 c 0.7,0.86 1.05,1.86 1.05,3.02 0,1.27 -0.37,2.23 -1.24,3.25 -0.41,0.47 -0.67,0.69 -1.19,1.01 l -0.12,-0.16 c 0.8,-0.62 1.07,-0.97 1.35,-1.72 0.24,-0.66 0.35,-1.42 0.35,-2.41 0,-1.03 -0.13,-1.86 -0.4,-2.46 -0.28,-0.63 -0.58,-0.99 -1.3,-1.56 z"
         inkscape:connector-curvature="0"
         style="fill:#000000;stroke-width:0" /><polygon
         id="polygon3625"
         points="245.26,480.51 250.35,480.51 250.35,481.07 245.26,481.07 "
         style="fill:#000000;stroke-width:0" /><polygon
         id="polygon3627"
         points="245.26,478.5 250.35,478.5 250.35,479.05 245.26,479.05 "
         style="fill:#000000;stroke-width:0" /><path
         id="path3629"
         d="m 260.47,481.62 h -3.63 c -1.5,0 -2.85,-1.26 -2.85,-2.92 0,-1.01 0.54,-1.57 1.55,-1.57 l 0.14,0.24 c -0.76,0 -0.86,1 -0.86,1.3 0,1.91 1.02,2.68 1.76,2.68 0.37,0 0.96,-0.1 0.96,-1.28 h 0 c 0,-1.48 -0.83,-2.7 -1.86,-2.7 l -0.14,-0.24 c 1.23,0 2.75,1.18 2.75,2.95 0,0.56 -0.19,0.78 -0.19,0.79 h 2.17 z"
         inkscape:connector-curvature="0"
         style="fill:#000000;stroke-width:0" /><path
         id="path3631"
         d="m 263.82,481.8 -0.09,0.04 c -0.26,-0.4 -0.35,-0.46 -0.67,-0.46 h -1.66 l 1.17,1.22 c 0.62,0.65 0.89,1.18 0.89,1.72 0,0.7 -0.56,1.23 -1.29,1.23 -0.38,0 -0.74,-0.15 -1,-0.43 -0.22,-0.23 -0.33,-0.46 -0.45,-0.95 l 0.15,-0.04 c 0.28,0.69 0.53,0.91 1.01,0.91 0.58,0 0.98,-0.4 0.98,-0.98 0,-0.54 -0.32,-1.19 -0.9,-1.81 l -1.24,-1.32 v -0.08 h 2.71 z"
         inkscape:connector-curvature="0"
         style="fill:#000000;stroke-width:0" /></g>    <path
       style="fill:none;stroke:#000000;stroke-width:1.25;stroke-linecap:butt;stroke-linejoin:miter;stroke-miterlimit:4;stroke-opacity:1;stroke-dasharray:none;marker-start:url(#Arrow1Mstart)"
       d="m 147.24998,981.21799 -58.392815,0"
       id="path3695"
       inkscape:path-effect="#path-effect3697"
       inkscape:original-d="m 147.24998,981.21799 -58.392815,0"
       inkscape:connector-curvature="0" />
  </g>
</svg>
