<?xml version="1.0" encoding="UTF-8" standalone="no"?>
<!-- Created with Inkscape (http://www.inkscape.org/) -->

<svg
   xmlns:ns0="http://www.iki.fi/pav/software/textext/"
   xmlns:dc="http://purl.org/dc/elements/1.1/"
   xmlns:cc="http://creativecommons.org/ns#"
   xmlns:rdf="http://www.w3.org/1999/02/22-rdf-syntax-ns#"
   xmlns:svg="http://www.w3.org/2000/svg"
   xmlns="http://www.w3.org/2000/svg"
   xmlns:sodipodi="http://sodipodi.sourceforge.net/DTD/sodipodi-0.dtd"
   xmlns:inkscape="http://www.inkscape.org/namespaces/inkscape"
   width="354.33069"
   height="177.16534"
   id="svg4953"
   version="1.1"
   inkscape:version="0.48.4 r9939"
   sodipodi:docname="New document 10">
  <defs
     id="defs4955">
    <inkscape:path-effect
       effect="spiro"
       id="path-effect3033-3-2"
       is_visible="true" />
    <inkscape:path-effect
       effect="spiro"
       id="path-effect3033-3-3"
       is_visible="true" />
    <inkscape:path-effect
       effect="spiro"
       id="path-effect3033-3-7"
       is_visible="true" />
    <inkscape:path-effect
       effect="spiro"
       id="path-effect3033-3"
       is_visible="true" />
    <marker
       inkscape:stockid="Arrow1Mstart"
       orient="auto"
       refY="0"
       refX="0"
       id="Arrow1Mstart"
       style="overflow:visible">
      <path
         inkscape:connector-curvature="0"
         id="path4057"
         d="M 0,0 5,-5 -12.5,0 5,5 0,0 z"
         style="fill-rule:evenodd;stroke:#000000;stroke-width:1pt"
         transform="matrix(0.4,0,0,0.4,4,0)" />
    </marker>
    <inkscape:path-effect
       effect="spiro"
       id="path-effect3033"
       is_visible="true" />
  </defs>
  <sodipodi:namedview
     id="base"
     pagecolor="#ffffff"
     bordercolor="#666666"
     borderopacity="1.0"
     inkscape:pageopacity="0.0"
     inkscape:pageshadow="2"
     inkscape:zoom="1.979899"
     inkscape:cx="168.577"
     inkscape:cy="47.462921"
     inkscape:document-units="px"
     inkscape:current-layer="layer1"
     showgrid="false"
     units="cm"
     inkscape:window-width="1024"
     inkscape:window-height="744"
     inkscape:window-x="0"
     inkscape:window-y="24"
     inkscape:window-maximized="1" />
  <metadata
     id="metadata4958">
    <rdf:RDF>
      <cc:Work
         rdf:about="">
        <dc:format>image/svg+xml</dc:format>
        <dc:type
           rdf:resource="http://purl.org/dc/dcmitype/StillImage" />
        <dc:title></dc:title>
      </cc:Work>
    </rdf:RDF>
  </metadata>
  <g
     inkscape:label="Layer 1"
     inkscape:groupmode="layer"
     id="layer1"
     transform="translate(0,-875.19551)">
    <g
       ns0:preamble="/home/sriranga/Desktop/Beamer-prathi/article24/figure/package.tex"
       ns0:text="$X_1, X_2, \\ldots, X_n$"
       word-spacing="normal"
       letter-spacing="normal"
       font-size-adjust="none"
       font-stretch="normal"
       font-weight="normal"
       font-variant="normal"
       font-style="normal"
       stroke-miterlimit="10.433"
       xml:space="preserve"
       transform="matrix(1.2,0,0,-1.2,-58.20487,1546.0125)"
       id="content"
       style="font-style:normal;font-variant:normal;font-weight:normal;font-stretch:normal;letter-spacing:normal;word-spacing:normal;text-anchor:start;fill:none;stroke:#000000;stroke-linecap:butt;stroke-linejoin:miter;stroke-miterlimit:10.43299961;stroke-opacity:1;stroke-dasharray:none;stroke-dashoffset:0"><path
         id="path2991"
         d="m 230.2,483.72 h -2.07 v -0.16 c 0.49,-0.06 0.61,-0.13 0.61,-0.36 0,-0.12 -0.06,-0.24 -0.2,-0.4 l -1.45,-1.66 -0.58,1.46 c -0.11,0.26 -0.15,0.43 -0.15,0.56 0,0.24 0.16,0.33 0.7,0.4 v 0.16 h -2.62 v -0.16 c 0.57,-0.05 0.72,-0.15 0.91,-0.6 l 1.06,-2.62 c -0.37,-0.41 -0.7,-0.8 -0.83,-0.96 -1.38,-1.63 -1.66,-1.88 -2.19,-1.99 v -0.16 h 2.13 v 0.16 c -0.48,0 -0.64,0.09 -0.64,0.34 0,0.15 0.07,0.32 0.2,0.47 l 1.51,1.71 0.66,-1.64 c 0.07,-0.18 0.11,-0.34 0.11,-0.49 0,-0.29 -0.1,-0.34 -0.75,-0.39 v -0.16 h 2.71 v 0.16 c -0.69,0.08 -0.78,0.14 -1.03,0.74 l -1.02,2.56 1.68,1.93 c 0.52,0.58 0.82,0.8 1.25,0.94 z"
         inkscape:connector-curvature="0"
         style="fill:#000000;stroke-width:0" /><path
         id="path2993"
         d="m 231.79,480.44 -1.25,-0.63 v -0.1 c 0.08,0.04 0.16,0.06 0.19,0.08 0.12,0.05 0.24,0.07 0.31,0.07 0.15,0 0.21,-0.1 0.21,-0.32 v -3.15 c 0,-0.23 -0.05,-0.39 -0.17,-0.45 -0.1,-0.07 -0.2,-0.09 -0.49,-0.09 v -0.11 h 1.92 v 0.11 c -0.55,0 -0.66,0.07 -0.66,0.41 v 4.17 z"
         inkscape:connector-curvature="0"
         style="fill:#000000;stroke-width:0" /><path
         id="path2995"
         d="m 235.69,477.3 0,0.03 0,0.04 0,0.04 0,0.03 -0.01,0.04 0,0.03 -0.01,0.03 0,0.03 -0.01,0.03 -0.01,0.03 0,0.03 -0.01,0.03 -0.01,0.03 -0.01,0.02 -0.01,0.03 -0.01,0.02 -0.01,0.03 -0.01,0.02 -0.03,0.04 -0.02,0.04 -0.03,0.04 -0.03,0.03 -0.03,0.03 -0.03,0.03 -0.03,0.03 -0.04,0.02 -0.03,0.03 -0.03,0.02 -0.04,0.01 -0.03,0.02 -0.03,0.01 -0.04,0.01 -0.03,0.01 -0.03,0.01 -0.03,0.01 -0.03,0.01 -0.03,0 -0.03,0 -0.03,0.01 -0.02,0 -0.02,0 c -0.25,0 -0.58,-0.15 -0.58,-0.58 0,-0.4 0.36,-0.5 0.62,-0.5 0.07,0 0.12,0.01 0.15,0.03 0.04,0 0.07,0.01 0.09,0.01 0.07,0 0.13,-0.04 0.13,-0.13 0,-0.19 -0.15,-0.64 -0.81,-1.06 l 0.09,-0.19 c 0.3,0.1 1.11,0.76 1.11,1.47 z"
         inkscape:connector-curvature="0"
         style="fill:#000000;stroke-width:0" /><path
         id="path2997"
         d="m 244.67,483.72 h -2.07 v -0.16 c 0.49,-0.06 0.61,-0.13 0.61,-0.36 0,-0.12 -0.06,-0.24 -0.2,-0.4 l -1.44,-1.66 -0.59,1.46 c -0.11,0.26 -0.15,0.43 -0.15,0.56 0,0.24 0.16,0.33 0.71,0.4 v 0.16 h -2.63 v -0.16 c 0.58,-0.05 0.72,-0.15 0.91,-0.6 l 1.06,-2.62 c -0.37,-0.41 -0.7,-0.8 -0.83,-0.96 -1.38,-1.63 -1.66,-1.88 -2.18,-1.99 v -0.16 h 2.12 v 0.16 c -0.47,0 -0.64,0.09 -0.64,0.34 0,0.15 0.08,0.32 0.21,0.47 l 1.5,1.71 0.67,-1.64 c 0.06,-0.18 0.1,-0.34 0.1,-0.49 0,-0.29 -0.09,-0.34 -0.75,-0.39 v -0.16 h 2.71 v 0.16 c -0.69,0.08 -0.78,0.14 -1.03,0.74 l -1.02,2.56 1.69,1.93 c 0.51,0.58 0.81,0.8 1.24,0.94 z"
         inkscape:connector-curvature="0"
         style="fill:#000000;stroke-width:0" /><path
         id="path2999"
         d="m 247.55,476.69 -0.09,0.04 c -0.26,-0.4 -0.35,-0.46 -0.66,-0.46 h -1.67 l 1.17,1.22 c 0.62,0.65 0.89,1.18 0.89,1.72 0,0.7 -0.56,1.23 -1.28,1.23 -0.39,0 -0.75,-0.15 -1.01,-0.43 -0.22,-0.24 -0.33,-0.46 -0.44,-0.95 l 0.14,-0.04 c 0.28,0.68 0.53,0.91 1.01,0.91 0.59,0 0.99,-0.4 0.99,-0.98 0,-0.55 -0.33,-1.19 -0.91,-1.81 l -1.24,-1.32 v -0.08 h 2.72 z"
         inkscape:connector-curvature="0"
         style="fill:#000000;stroke-width:0" /><path
         id="path3001"
         d="m 250.17,477.3 0,0.03 -0.01,0.04 0,0.04 0,0.03 0,0.04 -0.01,0.03 0,0.03 -0.01,0.03 -0.01,0.03 0,0.03 -0.01,0.03 -0.01,0.03 -0.01,0.03 -0.01,0.02 -0.01,0.03 -0.01,0.02 -0.01,0.03 -0.01,0.02 -0.02,0.04 -0.03,0.04 -0.03,0.04 -0.03,0.03 -0.03,0.03 -0.03,0.03 -0.03,0.03 -0.03,0.02 -0.04,0.03 -0.03,0.02 -0.03,0.01 -0.04,0.02 -0.03,0.01 -0.03,0.01 -0.04,0.01 -0.03,0.01 -0.03,0.01 -0.03,0.01 -0.03,0 -0.03,0 -0.02,0.01 -0.03,0 -0.02,0 c -0.25,0 -0.58,-0.15 -0.58,-0.58 0,-0.4 0.36,-0.5 0.62,-0.5 0.07,0 0.12,0.01 0.15,0.03 0.04,0 0.07,0.01 0.09,0.01 0.07,0 0.14,-0.04 0.14,-0.13 0,-0.19 -0.16,-0.64 -0.82,-1.06 l 0.09,-0.19 c 0.3,0.1 1.12,0.76 1.12,1.47 z"
         inkscape:connector-curvature="0"
         style="fill:#000000;stroke-width:0" /><path
         id="path3003"
         d="m 254.18,477.66 0,0.03 0,0.03 -0.01,0.03 0,0.02 -0.01,0.03 0,0.03 -0.01,0.02 -0.01,0.03 -0.02,0.03 -0.01,0.02 -0.01,0.02 -0.02,0.03 -0.01,0.02 -0.02,0.02 -0.02,0.02 -0.02,0.02 -0.02,0.02 -0.02,0.02 -0.02,0.01 -0.02,0.02 -0.02,0.01 -0.02,0.02 -0.03,0.01 -0.02,0.01 -0.03,0.01 -0.02,0.01 -0.03,0.01 -0.03,0.01 -0.02,0 -0.03,0.01 -0.03,0 -0.03,0 c -0.3,0 -0.54,-0.25 -0.54,-0.57 0,-0.37 0.33,-0.53 0.54,-0.53 0.21,0 0.56,0.17 0.56,0.53 z"
         inkscape:connector-curvature="0"
         style="fill:#000000;stroke-width:0" /><path
         id="path3005"
         d="m 258.33,477.66 0,0.03 -0.01,0.03 0,0.03 -0.01,0.02 0,0.03 -0.01,0.03 -0.01,0.02 -0.01,0.03 -0.01,0.03 -0.01,0.02 -0.02,0.02 -0.01,0.03 -0.02,0.02 -0.01,0.02 -0.02,0.02 -0.02,0.02 -0.02,0.02 -0.02,0.02 -0.02,0.01 -0.02,0.02 -0.03,0.01 -0.02,0.02 -0.02,0.01 -0.03,0.01 -0.02,0.01 -0.03,0.01 -0.03,0.01 -0.02,0.01 -0.03,0 -0.03,0.01 -0.02,0 -0.03,0 c -0.3,0 -0.55,-0.25 -0.55,-0.57 0,-0.37 0.34,-0.53 0.55,-0.53 0.21,0 0.56,0.17 0.56,0.53 z"
         inkscape:connector-curvature="0"
         style="fill:#000000;stroke-width:0" /><path
         id="path3007"
         d="m 262.48,477.66 0,0.03 0,0.03 -0.01,0.03 0,0.02 -0.01,0.03 -0.01,0.03 0,0.02 -0.02,0.03 -0.01,0.03 -0.01,0.02 -0.01,0.02 -0.02,0.03 -0.01,0.02 -0.02,0.02 -0.02,0.02 -0.02,0.02 -0.02,0.02 -0.02,0.02 -0.02,0.01 -0.02,0.02 -0.02,0.01 -0.03,0.02 -0.02,0.01 -0.02,0.01 -0.03,0.01 -0.02,0.01 -0.03,0.01 -0.03,0.01 -0.02,0 -0.03,0.01 -0.03,0 -0.03,0 c -0.3,0 -0.54,-0.25 -0.54,-0.57 0,-0.37 0.33,-0.53 0.54,-0.53 0.21,0 0.56,0.17 0.56,0.53 z"
         inkscape:connector-curvature="0"
         style="fill:#000000;stroke-width:0" /><path
         id="path3009"
         d="m 266.77,477.3 0,0.03 0,0.04 0,0.04 0,0.03 -0.01,0.04 0,0.03 -0.01,0.03 0,0.03 -0.01,0.03 0,0.03 -0.01,0.03 -0.01,0.03 -0.01,0.03 -0.01,0.02 -0.01,0.03 -0.01,0.02 -0.01,0.03 -0.01,0.02 -0.03,0.04 -0.02,0.04 -0.03,0.04 -0.03,0.03 -0.03,0.03 -0.03,0.03 -0.03,0.03 -0.04,0.02 -0.03,0.03 -0.03,0.02 -0.04,0.01 -0.03,0.02 -0.03,0.01 -0.04,0.01 -0.03,0.01 -0.03,0.01 -0.03,0.01 -0.03,0.01 -0.03,0 -0.03,0 -0.03,0.01 -0.02,0 -0.02,0 c -0.25,0 -0.58,-0.15 -0.58,-0.58 0,-0.4 0.36,-0.5 0.62,-0.5 0.07,0 0.12,0.01 0.15,0.03 0.04,0 0.07,0.01 0.09,0.01 0.07,0 0.14,-0.04 0.14,-0.13 0,-0.19 -0.16,-0.64 -0.82,-1.06 l 0.09,-0.19 c 0.3,0.1 1.11,0.76 1.11,1.47 z"
         inkscape:connector-curvature="0"
         style="fill:#000000;stroke-width:0" /><path
         id="path3011"
         d="m 275.75,483.72 h -2.07 v -0.16 c 0.49,-0.06 0.6,-0.13 0.6,-0.36 0,-0.12 -0.05,-0.24 -0.2,-0.4 l -1.44,-1.66 -0.58,1.46 c -0.11,0.26 -0.15,0.43 -0.15,0.56 0,0.24 0.16,0.33 0.7,0.4 v 0.16 h -2.62 v -0.16 c 0.57,-0.05 0.72,-0.15 0.91,-0.6 l 1.06,-2.62 c -0.37,-0.41 -0.7,-0.8 -0.83,-0.96 -1.38,-1.63 -1.66,-1.88 -2.19,-1.99 v -0.16 h 2.13 v 0.16 c -0.48,0 -0.65,0.09 -0.65,0.34 0,0.15 0.08,0.32 0.21,0.47 l 1.51,1.71 0.66,-1.64 c 0.07,-0.18 0.11,-0.34 0.11,-0.49 0,-0.29 -0.1,-0.34 -0.76,-0.39 v -0.16 h 2.72 v 0.16 c -0.7,0.08 -0.79,0.14 -1.03,0.74 l -1.02,2.56 1.68,1.93 c 0.52,0.58 0.82,0.8 1.25,0.94 z"
         inkscape:connector-curvature="0"
         style="fill:#000000;stroke-width:0" /><path
         id="path3013"
         d="m 278.52,476.55 -0.15,-0.18 c -0.2,-0.25 -0.32,-0.36 -0.42,-0.36 -0.06,0 -0.11,0.05 -0.11,0.11 0,0.05 0,0.05 0.1,0.43 l 0.39,1.44 c 0.04,0.14 0.06,0.3 0.06,0.39 0,0.25 -0.18,0.43 -0.45,0.43 -0.45,0 -0.89,-0.42 -1.61,-1.53 l 0.47,1.51 -0.02,0.02 c -0.38,-0.08 -0.52,-0.11 -1.13,-0.22 v -0.11 c 0.36,-0.01 0.45,-0.05 0.45,-0.19 0,-0.04 -0.01,-0.08 -0.02,-0.12 l -0.66,-2.43 h 0.52 c 0.32,1.1 0.39,1.25 0.69,1.73 0.42,0.64 0.78,0.98 1.03,0.98 0.11,0 0.17,-0.07 0.17,-0.2 0,-0.08 -0.04,-0.31 -0.1,-0.53 l -0.3,-1.14 c -0.09,-0.36 -0.11,-0.46 -0.11,-0.53 0,-0.26 0.09,-0.37 0.32,-0.37 0.32,0 0.5,0.14 0.98,0.78 z"
         inkscape:connector-curvature="0"
         style="fill:#000000;stroke-width:0" /></g>    <path
       style="fill:none;stroke:#000000;stroke-width:1.25;stroke-linecap:butt;stroke-linejoin:miter;stroke-miterlimit:4;stroke-opacity:1;stroke-dasharray:5,5;marker-start:url(#Arrow1Mstart);stroke-dashoffset:0"
       d="m 198.89803,970.7799 -70.12359,0"
       id="path3031"
       inkscape:path-effect="#path-effect3033"
       inkscape:original-d="m 198.89803,970.7799 -70.12359,0"
       inkscape:connector-curvature="0" />
    <path
       style="fill:none;stroke:#000000;stroke-width:1.38268471;stroke-linecap:butt;stroke-linejoin:miter;stroke-miterlimit:4;stroke-opacity:1;stroke-dasharray:none"
       d="m 120.40498,949.17328 -77.567051,0"
       id="path3031-6"
       inkscape:path-effect="#path-effect3033-3"
       inkscape:original-d="m 120.40498,949.17328 -77.567051,0"
       inkscape:connector-curvature="0" />
    <path
       style="fill:none;stroke:#000000;stroke-width:1.38268471;stroke-linecap:butt;stroke-linejoin:miter;stroke-miterlimit:4;stroke-opacity:1;stroke-dasharray:none"
       d="m 120.40498,992.6291 -77.567051,0"
       id="path3031-6-5"
       inkscape:path-effect="#path-effect3033-3-7"
       inkscape:original-d="m 120.40498,992.6291 -77.567051,0"
       inkscape:connector-curvature="0" />
    <path
       style="fill:none;stroke:#000000;stroke-width:1.42112827;stroke-linecap:butt;stroke-linejoin:miter;stroke-miterlimit:4;stroke-opacity:1;stroke-dasharray:none"
       d="m 42.906285,993.3272 0,-44.78714"
       id="path3031-6-56"
       inkscape:path-effect="#path-effect3033-3-3"
       inkscape:original-d="m 42.906285,993.3272 0,-44.78714"
       inkscape:connector-curvature="0" />
    <path
       style="fill:none;stroke:#000000;stroke-width:1.38268471;stroke-linecap:butt;stroke-linejoin:miter;stroke-miterlimit:4;stroke-opacity:1;stroke-dasharray:none"
       d="m 120.33662,993.275 0,-44.74765"
       id="path3031-6-9"
       inkscape:path-effect="#path-effect3033-3-2"
       inkscape:original-d="m 120.33662,993.275 0,-44.74765"
       inkscape:connector-curvature="0" />
    <g
       style="font-style:normal;font-variant:normal;font-weight:normal;font-stretch:normal;letter-spacing:normal;word-spacing:normal;text-anchor:start;fill:none;stroke:#000000;stroke-linecap:butt;stroke-linejoin:miter;stroke-miterlimit:10.43299961;stroke-opacity:1;stroke-dasharray:none;stroke-dashoffset:0"
       id="g4706"
       transform="matrix(1.2,0,0,-1.2,-218.54043,1508.0891)"
       xml:space="preserve"
       stroke-miterlimit="10.433"
       font-style="normal"
       font-variant="normal"
       font-weight="normal"
       font-stretch="normal"
       font-size-adjust="none"
       letter-spacing="normal"
       word-spacing="normal"
       ns0:text="Population\nof\nthe U.S."
       ns0:preamble="/home/sriranga/Desktop/Beamer-prathi/article24/figure/package.tex"><path
         style="fill:#000000;stroke-width:0"
         inkscape:connector-curvature="0"
         d="m 231.43779,458.55904 v 0.39 2.59 c 0,0.26 0.07,0.33 0.34,0.33 1.34,0 1.96,-0.46 1.96,-1.49 0,-0.96 -0.59,-1.46 -1.73,-1.46 -0.2,0 -0.34,0.01 -0.57,0.03 v -0.39 c 0.26,-0.02 0.43,-0.03 0.69,-0.03 0.77,0 1.31,0.1 1.74,0.33 0.6,0.32 0.95,0.93 0.95,1.58 0,0.42 -0.14,0.8 -0.4,1.09 -0.4,0.43 -1.27,0.71 -2.2,0.71 h -2.63 v -0.19 c 0.74,-0.08 0.84,-0.18 0.84,-0.89 v -4.3 c 0,-0.84 -0.08,-0.94 -0.84,-1.01 v -0.19 h 2.79 v 0.19 c -0.79,0.03 -0.94,0.17 -0.94,0.9 z"
         id="path4708" /><path
         style="fill:#000000;stroke-width:0"
         inkscape:connector-curvature="0"
         d="m 237.45779,460.22904 -0.12,0 -0.12,-0.01 -0.11,-0.01 -0.12,-0.02 -0.11,-0.02 -0.1,-0.03 -0.11,-0.04 -0.1,-0.04 -0.1,-0.04 -0.09,-0.05 -0.1,-0.05 -0.09,-0.06 -0.08,-0.06 -0.08,-0.07 -0.08,-0.07 -0.08,-0.07 -0.07,-0.08 -0.06,-0.08 -0.07,-0.09 -0.06,-0.09 -0.05,-0.1 -0.05,-0.09 -0.05,-0.1 -0.04,-0.11 -0.04,-0.11 -0.03,-0.11 -0.03,-0.11 -0.02,-0.12 -0.02,-0.12 -0.01,-0.12 -0.01,-0.12 0,-0.13 c 0,-1.34 0.92,-2.34 2.18,-2.34 l 0.12,0.27 c -0.39,0 -0.76,0.24 -0.97,0.64 -0.28,0.52 -0.44,1.21 -0.44,1.92 0,0.94 0.47,1.56 1.18,1.56 h 0 c 0.83,0 1.42,-0.96 1.42,-2.32 0,-1.12 -0.45,-1.8 -1.19,-1.8 l -0.12,-0.27 c 1.25,0 2.21,1.05 2.21,2.42 0,1.3 -0.92,2.24 -2.19,2.24 z"
         id="path4710" /><path
         style="fill:#000000;stroke-width:0"
         inkscape:connector-curvature="0"
         d="m 240.03779,459.56904 0.02,0 0.01,0 0.02,0 0.02,0 0.01,0.01 0.02,0 0.01,0 0.02,0 0.03,0 0.01,0 0.02,0 0.01,0 0.02,0 0.01,0 0.02,0 c 0.34,0 0.41,-0.1 0.41,-0.57 v -4.65 c 0,-0.51 -0.11,-0.62 -0.7,-0.68 v -0.17 h 2.41 v 0.18 c -0.75,0.01 -0.88,0.12 -0.88,0.74 v 1.56 c 0.35,-0.33 0.59,-0.42 1.01,-0.42 l 0.03,0.31 c -0.47,0 -1.04,0.36 -1.04,0.66 v 2.44 c 0,0.3 0.56,0.66 1.02,0.66 0.74,0 1.22,-0.76 1.22,-1.91 0,-1.1 -0.48,-1.85 -1.2,-1.85 l -0.03,-0.31 c 1.17,0 2.09,1.11 2.09,2.55 0,1.23 -0.7,2.11 -1.66,2.11 -0.56,0 -1,-0.24 -1.44,-0.78 v 0.77 l -0.05,0.01 c -0.54,-0.2 -0.89,-0.33 -1.44,-0.5 z"
         id="path4712" /><path
         style="fill:#000000;stroke-width:0"
         inkscape:connector-curvature="0"
         d="m 249.69779,456.15904 h -0.05 c -0.46,0 -0.57,0.11 -0.57,0.57 v 3.4 h -1.57 v -0.16 c 0.62,-0.03 0.74,-0.13 0.74,-0.63 v -2.33 c 0,-0.28 -0.05,-0.42 -0.19,-0.53 -0.27,-0.22 -0.58,-0.34 -0.88,-0.34 -0.39,0 -0.7,0.34 -0.7,0.76 v 3.23 h -1.46 v -0.13 c 0.48,-0.03 0.62,-0.18 0.62,-0.64 v -2.5 c 0,-0.79 0.48,-1.29 1.2,-1.29 0.37,0 0.76,0.16 1.03,0.42 l 0.43,0.43 v -0.82 l 0.04,-0.02 c 0.49,0.19 0.85,0.3 1.36,0.44 z"
         id="path4714" /><path
         style="fill:#000000;stroke-width:0"
         inkscape:connector-curvature="0"
         d="m 250.09779,461.84904 h 0.06 c 0.11,0.01 0.23,0.02 0.31,0.02 0.32,0 0.42,-0.14 0.42,-0.6 v -4.74 c 0,-0.54 -0.14,-0.67 -0.77,-0.72 v -0.15 h 2.35 v 0.15 c -0.62,0.04 -0.74,0.14 -0.74,0.69 v 5.93 l -0.04,0.02 c -0.52,-0.17 -0.9,-0.27 -1.59,-0.44 z"
         id="path4716" /><path
         style="fill:#000000;stroke-width:0"
         inkscape:connector-curvature="0"
         d="m 257.07779,456.31904 -0.01,-0.01 -0.02,-0.01 -0.01,-0.02 -0.02,-0.01 -0.01,-0.01 -0.02,-0.01 -0.01,-0.01 -0.02,-0.01 -0.01,-0.01 -0.01,0 -0.02,-0.01 -0.01,-0.01 -0.01,-0.01 -0.02,0 -0.01,-0.01 -0.01,-0.01 -0.02,0 -0.01,-0.01 -0.01,0 -0.02,0 -0.01,-0.01 -0.01,0 -0.01,-0.01 -0.02,0 -0.02,0 -0.03,-0.01 -0.03,0 -0.03,0 c -0.22,0 -0.29,0.14 -0.29,0.58 v 1.93 c 0,0.52 -0.05,0.81 -0.2,1.05 -0.22,0.36 -0.65,0.54 -1.24,0.54 -0.93,0 -1.67,-0.48 -1.67,-1.11 0,-0.23 0.2,-0.42 0.43,-0.42 0.24,0 0.45,0.19 0.45,0.41 0,0.04 -0.01,0.09 -0.02,0.16 -0.02,0.09 -0.03,0.17 -0.03,0.24 0,0.27 0.32,0.49 0.71,0.49 0.49,0 0.76,-0.29 0.76,-0.83 v -0.6 -0.24 -1.44 c 0,-0.31 -0.05,-0.4 -0.26,-0.52 -0.24,-0.14 -0.52,-0.23 -0.73,-0.23 -0.34,0 -0.62,0.34 -0.62,0.77 v 0.04 c 0,0.58 0.41,0.94 1.61,1.38 v 0.24 c -1.53,-0.62 -1.7,-0.7 -2.13,-1.08 -0.22,-0.2 -0.36,-0.53 -0.36,-0.86 0,-0.63 0.44,-1.06 1.05,-1.06 0.44,0 0.84,0.2 1.45,0.72 0.05,-0.52 0.23,-0.72 0.64,-0.72 0.33,0 0.54,0.12 0.89,0.49 z"
         id="path4718" /><path
         style="fill:#000000;stroke-width:0"
         inkscape:connector-curvature="0"
         d="m 259.64779,460.12904 h -1.01 v 1.16 c 0,0.1 -0.01,0.13 -0.07,0.13 -0.07,-0.09 -0.13,-0.18 -0.2,-0.28 -0.38,-0.55 -0.8,-1.03 -0.96,-1.06 -0.11,-0.07 -0.17,-0.14 -0.17,-0.19 0,-0.03 0.01,-0.05 0.04,-0.07 h 0.52 v -2.99 c 0,-0.84 0.3,-1.26 0.89,-1.26 0.49,0 0.86,0.23 1.19,0.75 l -0.13,0.11 c -0.2,-0.25 -0.37,-0.35 -0.59,-0.35 -0.37,0 -0.52,0.27 -0.52,0.9 v 2.84 h 1.01 z"
         id="path4720" /><path
         style="fill:#000000;stroke-width:0"
         inkscape:connector-curvature="0"
         d="m 261.61779,460.22904 -1.54,-0.54 v -0.15 l 0.08,0.01 c 0.12,0.02 0.24,0.03 0.33,0.03 0.24,0 0.33,-0.16 0.33,-0.6 v -2.3 c 0,-0.72 -0.1,-0.83 -0.78,-0.87 v -0.15 h 2.35 v 0.15 c -0.65,0.05 -0.73,0.15 -0.73,0.87 v 3.52 z"
         id="path4722" /><path
         style="fill:#000000;stroke-width:0"
         inkscape:connector-curvature="0"
         d="m 261.14779,462.44904 -0.02,0 -0.03,0 -0.02,-0.01 -0.03,0 -0.02,-0.01 -0.02,0 -0.03,-0.01 -0.02,-0.01 -0.02,-0.01 -0.02,-0.01 -0.02,-0.01 -0.02,-0.02 -0.02,-0.01 -0.02,-0.02 -0.02,-0.01 -0.02,-0.02 -0.01,-0.02 -0.02,-0.02 -0.02,-0.01 -0.01,-0.02 -0.01,-0.03 -0.01,-0.02 -0.02,-0.02 -0.01,-0.02 -0.01,-0.02 0,-0.03 -0.01,-0.02 -0.01,-0.03 0,-0.02 0,-0.03 -0.01,-0.02 0,-0.03 c 0,-0.28 0.22,-0.5 0.5,-0.5 0.29,0 0.52,0.22 0.52,0.5 0,0.28 -0.23,0.51 -0.52,0.51 z"
         id="path4724" /><path
         style="fill:#000000;stroke-width:0"
         inkscape:connector-curvature="0"
         d="m 265.12779,460.22904 -0.12,0 -0.11,-0.01 -0.12,-0.01 -0.11,-0.02 -0.11,-0.02 -0.11,-0.03 -0.1,-0.04 -0.1,-0.04 -0.1,-0.04 -0.1,-0.05 -0.09,-0.05 -0.09,-0.06 -0.09,-0.06 -0.08,-0.07 -0.08,-0.07 -0.07,-0.07 -0.07,-0.08 -0.07,-0.08 -0.06,-0.09 -0.06,-0.09 -0.05,-0.1 -0.05,-0.09 -0.05,-0.1 -0.04,-0.11 -0.04,-0.11 -0.03,-0.11 -0.03,-0.11 -0.02,-0.12 -0.02,-0.12 -0.01,-0.12 -0.01,-0.12 0,-0.13 c 0,-1.34 0.92,-2.34 2.17,-2.34 l 0.12,0.27 c -0.38,0 -0.75,0.24 -0.96,0.64 -0.28,0.52 -0.44,1.21 -0.44,1.92 0,0.94 0.47,1.56 1.18,1.56 h 0 c 0.83,0 1.42,-0.96 1.42,-2.32 0,-1.12 -0.45,-1.8 -1.2,-1.8 l -0.12,-0.27 c 1.26,0 2.21,1.05 2.21,2.42 0,1.3 -0.91,2.24 -2.19,2.24 z"
         id="path4726" /><path
         style="fill:#000000;stroke-width:0"
         inkscape:connector-curvature="0"
         d="m 267.78779,459.61904 0,0 0.01,0 0.01,0.01 0,0 0.01,0 0.01,0 0,0.01 0.01,0 0.01,0 0,0 0.01,0 0.01,0 0.02,0.01 0.01,0 0.02,0 0.02,0 0.02,0 0.02,0.01 0.02,0 0.02,0 0.02,0 0.02,0 c 0.27,0 0.36,-0.15 0.36,-0.64 v -2.46 c 0,-0.57 -0.1,-0.71 -0.61,-0.75 v -0.15 h 2.11 v 0.15 c -0.51,0.04 -0.66,0.16 -0.66,0.52 v 2.79 c 0.48,0.45 0.7,0.57 1.03,0.57 0.48,0 0.72,-0.31 0.72,-0.96 v -2.08 c 0,-0.63 -0.13,-0.8 -0.63,-0.84 v -0.15 h 2.07 v 0.15 c -0.48,0.05 -0.6,0.17 -0.6,0.66 v 2.27 c 0,0.94 -0.44,1.49 -1.18,1.49 -0.46,0 -0.76,-0.16 -1.44,-0.8 v 0.79 l -0.07,0.01 c -0.49,-0.17 -0.83,-0.28 -1.37,-0.44 z"
         id="path4728" /><path
         style="fill:#000000;stroke-width:0"
         inkscape:connector-curvature="0"
         d="m 249.17725,449.49617 -0.12,0 -0.12,-0.01 -0.12,-0.01 -0.11,-0.02 -0.11,-0.02 -0.11,-0.03 -0.1,-0.04 -0.1,-0.04 -0.1,-0.04 -0.1,-0.05 -0.09,-0.05 -0.09,-0.06 -0.08,-0.06 -0.08,-0.07 -0.08,-0.07 -0.08,-0.07 -0.07,-0.08 -0.06,-0.08 -0.07,-0.09 -0.06,-0.09 -0.05,-0.1 -0.05,-0.09 -0.05,-0.1 -0.04,-0.11 -0.04,-0.11 -0.03,-0.11 -0.03,-0.11 -0.02,-0.12 -0.02,-0.12 -0.01,-0.12 -0.01,-0.12 0,-0.13 c 0,-1.34 0.92,-2.34 2.18,-2.34 l 0.12,0.27 c -0.39,0 -0.76,0.24 -0.97,0.64 -0.28,0.52 -0.44,1.21 -0.44,1.92 0,0.94 0.47,1.56 1.18,1.56 h 0 c 0.83,0 1.42,-0.96 1.42,-2.32 0,-1.12 -0.45,-1.8 -1.19,-1.8 l -0.12,-0.27 c 1.25,0 2.21,1.05 2.21,2.42 0,1.3 -0.92,2.24 -2.19,2.24 z"
         id="path4730" /><path
         style="fill:#000000;stroke-width:0"
         inkscape:connector-curvature="0"
         d="m 254.74725,449.39617 h -1.23 v 1.16 c 0,0.57 0.19,0.88 0.57,0.88 0.21,0 0.35,-0.1 0.53,-0.39 0.16,-0.25 0.27,-0.35 0.44,-0.35 0.23,0 0.42,0.17 0.42,0.4 0,0.36 -0.44,0.62 -1.03,0.62 -0.62,0 -1.15,-0.27 -1.41,-0.72 -0.25,-0.44 -0.33,-0.8 -0.34,-1.6 h -0.82 v -0.31 h 0.82 v -3.12 c 0,-0.73 -0.11,-0.85 -0.83,-0.89 v -0.15 h 2.59 v 0.15 c -0.82,0.03 -0.93,0.14 -0.93,0.89 v 3.12 h 1.22 z"
         id="path4732" /><path
         style="fill:#000000;stroke-width:0"
         inkscape:connector-curvature="0"
         d="m 237.49926,439.08419 h -1.01 v 1.16 c 0,0.1 -0.01,0.13 -0.07,0.13 -0.07,-0.09 -0.13,-0.18 -0.2,-0.28 -0.38,-0.55 -0.8,-1.03 -0.96,-1.06 -0.11,-0.07 -0.17,-0.14 -0.17,-0.19 0,-0.03 0.01,-0.05 0.04,-0.07 h 0.53 v -2.99 c 0,-0.84 0.3,-1.26 0.88,-1.26 0.49,0 0.87,0.23 1.2,0.75 l -0.13,0.11 c -0.21,-0.25 -0.38,-0.35 -0.6,-0.35 -0.37,0 -0.52,0.27 -0.52,0.9 v 2.84 h 1.01 z"
         id="path4734" /><path
         style="fill:#000000;stroke-width:0"
         inkscape:connector-curvature="0"
         d="m 239.28926,438.02419 0.04,0.04 0.04,0.04 0.04,0.04 0.03,0.04 0.04,0.04 0.03,0.03 0.04,0.03 0.04,0.03 0.03,0.03 0.03,0.03 0.04,0.03 0.03,0.02 0.04,0.02 0.03,0.03 0.03,0.02 0.03,0.02 0.04,0.01 0.03,0.02 0.03,0.02 0.04,0.01 0.03,0.01 0.03,0.01 0.04,0.02 0.03,0 0.03,0.01 0.04,0.01 0.03,0.01 0.03,0 0.04,0 0.03,0.01 0.04,0 0.04,0 c 0.49,0 0.74,-0.36 0.74,-1.06 v -1.96 c 0,-0.68 -0.1,-0.81 -0.68,-0.87 v -0.15 h 2.12 v 0.15 c -0.54,0.1 -0.6,0.18 -0.6,0.87 v 1.98 c 0,1.04 -0.42,1.57 -1.23,1.57 -0.58,0 -1,-0.23 -1.46,-0.83 v 3.02 l -0.05,0.03 c -0.34,-0.12 -0.59,-0.2 -1.14,-0.36 l -0.27,-0.08 v -0.16 c 0.04,0.01 0.07,0.01 0.12,0.01 0.43,0 0.51,-0.08 0.51,-0.5 v -4.68 c 0,-0.7 -0.06,-0.79 -0.64,-0.87 v -0.15 h 2.15 v 0.15 c -0.58,0.06 -0.68,0.18 -0.68,0.87 z"
         id="path4736" /><path
         style="fill:#000000;stroke-width:0"
         inkscape:connector-curvature="0"
         d="m 246.76926,436.24419 -0.04,-0.07 -0.05,-0.06 -0.04,-0.07 -0.05,-0.06 -0.04,-0.06 -0.05,-0.05 -0.04,-0.06 -0.04,-0.05 -0.05,-0.05 -0.04,-0.04 -0.05,-0.05 -0.04,-0.04 -0.04,-0.04 -0.05,-0.03 -0.05,-0.04 -0.04,-0.03 -0.05,-0.03 -0.04,-0.03 -0.05,-0.02 -0.05,-0.03 -0.05,-0.02 -0.05,-0.02 -0.05,-0.02 -0.05,-0.01 -0.05,-0.02 -0.05,-0.01 -0.06,-0.01 -0.05,-0.01 -0.06,0 -0.05,-0.01 -0.06,0 -0.06,0 c -0.57,0 -1,0.29 -1.29,0.85 -0.17,0.38 -0.24,0.71 -0.26,1.32 l 0.02,0.31 c 0.1,0.78 0.44,1.15 1.05,1.15 0.61,0 0.85,-0.28 0.97,-1.15 h -2.02 l -0.02,-0.31 h 3.06 c -0.08,0.64 -0.18,0.93 -0.43,1.25 -0.3,0.36 -0.75,0.56 -1.27,0.56 -0.5,0 -0.97,-0.17 -1.34,-0.51 -0.47,-0.41 -0.74,-1.12 -0.74,-1.93 0,-1.37 0.72,-2.22 1.86,-2.22 0.95,0 1.69,0.58 2.11,1.66 z"
         id="path4738" /><path
         style="fill:#000000;stroke-width:0"
         inkscape:connector-curvature="0"
         d="m 255.69926,439.73419 0,0.05 0,0.04 0,0.05 0.01,0.04 0,0.04 0,0.04 0,0.08 0,0.08 0.01,0.07 0.01,0.06 0.01,0.06 0.01,0.06 0.01,0.05 0.01,0.06 0.01,0.04 0.02,0.05 0.02,0.04 0.02,0.03 0.03,0.04 0.02,0.03 0.03,0.03 0.03,0.03 0.03,0.02 0.04,0.03 0.04,0.02 0.04,0.02 0.05,0.01 0.05,0.02 0.05,0.01 0.06,0.02 0.05,0.01 0.07,0.01 0.06,0.01 0.07,0.01 0.08,0.01 v 0.19 h -2.31 v -0.19 c 0.78,-0.06 0.94,-0.28 0.94,-1.27 v -2.68 c 0,-0.68 -0.07,-1.05 -0.23,-1.35 -0.27,-0.48 -0.91,-0.79 -1.65,-0.79 -0.71,0 -1.2,0.24 -1.47,0.71 -0.18,0.32 -0.25,0.68 -0.25,1.31 v 3.18 c 0,0.71 0.11,0.82 0.91,0.89 v 0.19 h -2.82 v -0.19 c 0.79,-0.06 0.9,-0.17 0.9,-0.89 v -3.1 c 0,-1.72 0.8,-2.53 2.5,-2.53 1.08,0 1.83,0.34 2.21,1.02 0.24,0.42 0.33,0.87 0.33,1.64 z"
         id="path4740" /><path
         style="fill:#000000;stroke-width:0"
         inkscape:connector-curvature="0"
         d="m 258.05926,435.61419 -0.03,0 -0.02,0 -0.03,-0.01 -0.03,0 -0.02,-0.01 -0.03,-0.01 -0.03,-0.01 -0.02,-0.01 -0.02,-0.01 -0.03,-0.01 -0.02,-0.02 -0.02,-0.01 -0.02,-0.02 -0.03,-0.01 -0.02,-0.02 -0.01,-0.02 -0.02,-0.02 -0.02,-0.02 -0.02,-0.02 -0.01,-0.02 -0.02,-0.03 -0.01,-0.02 -0.01,-0.02 -0.01,-0.03 -0.01,-0.03 -0.01,-0.02 -0.01,-0.03 0,-0.03 -0.01,-0.02 0,-0.03 -0.01,-0.03 0,-0.03 c 0,-0.29 0.25,-0.53 0.54,-0.53 0.31,0 0.57,0.24 0.57,0.53 0,0.31 -0.26,0.57 -0.56,0.57 z"
         id="path4742" /><path
         style="fill:#000000;stroke-width:0"
         inkscape:connector-curvature="0"
         d="m 263.75926,441.33419 h -0.21 c -0.04,-0.23 -0.15,-0.34 -0.32,-0.34 -0.1,0 -0.27,0.04 -0.44,0.12 -0.37,0.14 -0.74,0.22 -1.05,0.22 -0.43,0 -0.87,-0.17 -1.2,-0.46 -0.35,-0.31 -0.52,-0.72 -0.52,-1.24 0,-0.79 0.43,-1.35 1.55,-1.94 0.71,-0.37 1.23,-0.78 1.48,-1.16 0.09,-0.13 0.14,-0.34 0.14,-0.57 0,-0.67 -0.5,-1.13 -1.23,-1.13 -0.88,0 -1.51,0.55 -2,1.76 h -0.23 l 0.29,-2.1 h 0.22 c 0.01,0.19 0.13,0.32 0.28,0.32 0.11,0 0.28,-0.04 0.47,-0.11 0.38,-0.15 0.78,-0.22 1.17,-0.22 1.15,0 2.03,0.78 2.03,1.8 0,0.82 -0.54,1.46 -1.86,2.17 -1.04,0.58 -1.46,1.01 -1.46,1.55 0,0.55 0.42,0.92 1.03,0.92 0.45,0 0.87,-0.19 1.22,-0.54 0.31,-0.32 0.45,-0.58 0.61,-1.17 h 0.24 z"
         id="path4744" /><path
         style="fill:#000000;stroke-width:0"
         inkscape:connector-curvature="0"
         d="m 266.08926,435.61419 -0.03,0 -0.02,0 -0.03,-0.01 -0.03,0 -0.02,-0.01 -0.03,-0.01 -0.03,-0.01 -0.02,-0.01 -0.02,-0.01 -0.03,-0.01 -0.02,-0.02 -0.02,-0.01 -0.02,-0.02 -0.03,-0.01 -0.02,-0.02 -0.01,-0.02 -0.02,-0.02 -0.02,-0.02 -0.02,-0.02 -0.01,-0.02 -0.02,-0.03 -0.01,-0.02 -0.01,-0.02 -0.01,-0.03 -0.01,-0.03 -0.01,-0.02 -0.01,-0.03 0,-0.03 -0.01,-0.02 0,-0.03 -0.01,-0.03 0,-0.03 c 0,-0.29 0.25,-0.53 0.54,-0.53 0.31,0 0.57,0.24 0.57,0.53 0,0.31 -0.26,0.57 -0.56,0.57 z"
         id="path4746" /></g>  </g>
</svg>
