<?xml version="1.0" encoding="UTF-8" standalone="no"?>
<!-- Created with Inkscape (http://www.inkscape.org/) -->

<svg
   xmlns:ns0="http://www.iki.fi/pav/software/textext/"
   xmlns:dc="http://purl.org/dc/elements/1.1/"
   xmlns:cc="http://creativecommons.org/ns#"
   xmlns:rdf="http://www.w3.org/1999/02/22-rdf-syntax-ns#"
   xmlns:svg="http://www.w3.org/2000/svg"
   xmlns="http://www.w3.org/2000/svg"
   xmlns:sodipodi="http://sodipodi.sourceforge.net/DTD/sodipodi-0.dtd"
   xmlns:inkscape="http://www.inkscape.org/namespaces/inkscape"
   width="283.46457"
   height="141.73228"
   id="svg3545"
   version="1.1"
   inkscape:version="0.48.4 r9939"
   sodipodi:docname="New document 7">
  <defs
     id="defs3547">
    <inkscape:path-effect
       is_visible="true"
       id="path-effect3033-3-2"
       effect="spiro" />
    <inkscape:path-effect
       is_visible="true"
       id="path-effect3033-3-3"
       effect="spiro" />
    <inkscape:path-effect
       is_visible="true"
       id="path-effect3033-3-7"
       effect="spiro" />
    <inkscape:path-effect
       is_visible="true"
       id="path-effect3033-3"
       effect="spiro" />
    <marker
       style="overflow:visible"
       id="Arrow1Mstart"
       refX="0"
       refY="0"
       orient="auto"
       inkscape:stockid="Arrow1Mstart">
      <path
         transform="matrix(0.4,0,0,0.4,4,0)"
         style="fill-rule:evenodd;stroke:#000000;stroke-width:1pt"
         d="M 0,0 5,-5 -12.5,0 5,5 0,0 z"
         id="path4057"
         inkscape:connector-curvature="0" />
    </marker>
    <inkscape:path-effect
       is_visible="true"
       id="path-effect3033"
       effect="spiro" />
  </defs>
  <sodipodi:namedview
     id="base"
     pagecolor="#ffffff"
     bordercolor="#666666"
     borderopacity="1.0"
     inkscape:pageopacity="0.0"
     inkscape:pageshadow="2"
     inkscape:zoom="2.8"
     inkscape:cx="159.38253"
     inkscape:cy="53.319237"
     inkscape:document-units="px"
     inkscape:current-layer="layer1"
     showgrid="false"
     units="cm"
     inkscape:window-width="1024"
     inkscape:window-height="744"
     inkscape:window-x="0"
     inkscape:window-y="24"
     inkscape:window-maximized="1" />
  <metadata
     id="metadata3550">
    <rdf:RDF>
      <cc:Work
         rdf:about="">
        <dc:format>image/svg+xml</dc:format>
        <dc:type
           rdf:resource="http://purl.org/dc/dcmitype/StillImage" />
        <dc:title></dc:title>
      </cc:Work>
    </rdf:RDF>
  </metadata>
  <g
     inkscape:label="Layer 1"
     inkscape:groupmode="layer"
     id="layer1"
     transform="translate(0,-910.62859)">
    <g
       style="font-style:normal;font-variant:normal;font-weight:normal;font-stretch:normal;letter-spacing:normal;word-spacing:normal;text-anchor:start;fill:none;stroke:#000000;stroke-linecap:butt;stroke-linejoin:miter;stroke-miterlimit:10.43299961;stroke-opacity:1;stroke-dasharray:none;stroke-dashoffset:0"
       id="content"
       transform="matrix(1.2,0,0,-1.2,-70.204868,1556.7255)"
       xml:space="preserve"
       stroke-miterlimit="10.433"
       font-style="normal"
       font-variant="normal"
       font-weight="normal"
       font-stretch="normal"
       font-size-adjust="none"
       letter-spacing="normal"
       word-spacing="normal"
       ns0:text="$X_1, X_2, \\ldots, X_n$"
       ns0:preamble="/home/sriranga/Desktop/Beamer-prathi/article24/figure/package.tex"><path
         style="fill:#000000;stroke-width:0"
         inkscape:connector-curvature="0"
         d="m 230.2,483.72 h -2.07 v -0.16 c 0.49,-0.06 0.61,-0.13 0.61,-0.36 0,-0.12 -0.06,-0.24 -0.2,-0.4 l -1.45,-1.66 -0.58,1.46 c -0.11,0.26 -0.15,0.43 -0.15,0.56 0,0.24 0.16,0.33 0.7,0.4 v 0.16 h -2.62 v -0.16 c 0.57,-0.05 0.72,-0.15 0.91,-0.6 l 1.06,-2.62 c -0.37,-0.41 -0.7,-0.8 -0.83,-0.96 -1.38,-1.63 -1.66,-1.88 -2.19,-1.99 v -0.16 h 2.13 v 0.16 c -0.48,0 -0.64,0.09 -0.64,0.34 0,0.15 0.07,0.32 0.2,0.47 l 1.51,1.71 0.66,-1.64 c 0.07,-0.18 0.11,-0.34 0.11,-0.49 0,-0.29 -0.1,-0.34 -0.75,-0.39 v -0.16 h 2.71 v 0.16 c -0.69,0.08 -0.78,0.14 -1.03,0.74 l -1.02,2.56 1.68,1.93 c 0.52,0.58 0.82,0.8 1.25,0.94 z"
         id="path2991" /><path
         style="fill:#000000;stroke-width:0"
         inkscape:connector-curvature="0"
         d="m 231.79,480.44 -1.25,-0.63 v -0.1 c 0.08,0.04 0.16,0.06 0.19,0.08 0.12,0.05 0.24,0.07 0.31,0.07 0.15,0 0.21,-0.1 0.21,-0.32 v -3.15 c 0,-0.23 -0.05,-0.39 -0.17,-0.45 -0.1,-0.07 -0.2,-0.09 -0.49,-0.09 v -0.11 h 1.92 v 0.11 c -0.55,0 -0.66,0.07 -0.66,0.41 v 4.17 z"
         id="path2993" /><path
         style="fill:#000000;stroke-width:0"
         inkscape:connector-curvature="0"
         d="m 235.69,477.3 0,0.03 0,0.04 0,0.04 0,0.03 -0.01,0.04 0,0.03 -0.01,0.03 0,0.03 -0.01,0.03 -0.01,0.03 0,0.03 -0.01,0.03 -0.01,0.03 -0.01,0.02 -0.01,0.03 -0.01,0.02 -0.01,0.03 -0.01,0.02 -0.03,0.04 -0.02,0.04 -0.03,0.04 -0.03,0.03 -0.03,0.03 -0.03,0.03 -0.03,0.03 -0.04,0.02 -0.03,0.03 -0.03,0.02 -0.04,0.01 -0.03,0.02 -0.03,0.01 -0.04,0.01 -0.03,0.01 -0.03,0.01 -0.03,0.01 -0.03,0.01 -0.03,0 -0.03,0 -0.03,0.01 -0.02,0 -0.02,0 c -0.25,0 -0.58,-0.15 -0.58,-0.58 0,-0.4 0.36,-0.5 0.62,-0.5 0.07,0 0.12,0.01 0.15,0.03 0.04,0 0.07,0.01 0.09,0.01 0.07,0 0.13,-0.04 0.13,-0.13 0,-0.19 -0.15,-0.64 -0.81,-1.06 l 0.09,-0.19 c 0.3,0.1 1.11,0.76 1.11,1.47 z"
         id="path2995" /><path
         style="fill:#000000;stroke-width:0"
         inkscape:connector-curvature="0"
         d="m 244.67,483.72 h -2.07 v -0.16 c 0.49,-0.06 0.61,-0.13 0.61,-0.36 0,-0.12 -0.06,-0.24 -0.2,-0.4 l -1.44,-1.66 -0.59,1.46 c -0.11,0.26 -0.15,0.43 -0.15,0.56 0,0.24 0.16,0.33 0.71,0.4 v 0.16 h -2.63 v -0.16 c 0.58,-0.05 0.72,-0.15 0.91,-0.6 l 1.06,-2.62 c -0.37,-0.41 -0.7,-0.8 -0.83,-0.96 -1.38,-1.63 -1.66,-1.88 -2.18,-1.99 v -0.16 h 2.12 v 0.16 c -0.47,0 -0.64,0.09 -0.64,0.34 0,0.15 0.08,0.32 0.21,0.47 l 1.5,1.71 0.67,-1.64 c 0.06,-0.18 0.1,-0.34 0.1,-0.49 0,-0.29 -0.09,-0.34 -0.75,-0.39 v -0.16 h 2.71 v 0.16 c -0.69,0.08 -0.78,0.14 -1.03,0.74 l -1.02,2.56 1.69,1.93 c 0.51,0.58 0.81,0.8 1.24,0.94 z"
         id="path2997" /><path
         style="fill:#000000;stroke-width:0"
         inkscape:connector-curvature="0"
         d="m 247.55,476.69 -0.09,0.04 c -0.26,-0.4 -0.35,-0.46 -0.66,-0.46 h -1.67 l 1.17,1.22 c 0.62,0.65 0.89,1.18 0.89,1.72 0,0.7 -0.56,1.23 -1.28,1.23 -0.39,0 -0.75,-0.15 -1.01,-0.43 -0.22,-0.24 -0.33,-0.46 -0.44,-0.95 l 0.14,-0.04 c 0.28,0.68 0.53,0.91 1.01,0.91 0.59,0 0.99,-0.4 0.99,-0.98 0,-0.55 -0.33,-1.19 -0.91,-1.81 l -1.24,-1.32 v -0.08 h 2.72 z"
         id="path2999" /><path
         style="fill:#000000;stroke-width:0"
         inkscape:connector-curvature="0"
         d="m 250.17,477.3 0,0.03 -0.01,0.04 0,0.04 0,0.03 0,0.04 -0.01,0.03 0,0.03 -0.01,0.03 -0.01,0.03 0,0.03 -0.01,0.03 -0.01,0.03 -0.01,0.03 -0.01,0.02 -0.01,0.03 -0.01,0.02 -0.01,0.03 -0.01,0.02 -0.02,0.04 -0.03,0.04 -0.03,0.04 -0.03,0.03 -0.03,0.03 -0.03,0.03 -0.03,0.03 -0.03,0.02 -0.04,0.03 -0.03,0.02 -0.03,0.01 -0.04,0.02 -0.03,0.01 -0.03,0.01 -0.04,0.01 -0.03,0.01 -0.03,0.01 -0.03,0.01 -0.03,0 -0.03,0 -0.02,0.01 -0.03,0 -0.02,0 c -0.25,0 -0.58,-0.15 -0.58,-0.58 0,-0.4 0.36,-0.5 0.62,-0.5 0.07,0 0.12,0.01 0.15,0.03 0.04,0 0.07,0.01 0.09,0.01 0.07,0 0.14,-0.04 0.14,-0.13 0,-0.19 -0.16,-0.64 -0.82,-1.06 l 0.09,-0.19 c 0.3,0.1 1.12,0.76 1.12,1.47 z"
         id="path3001" /><path
         style="fill:#000000;stroke-width:0"
         inkscape:connector-curvature="0"
         d="m 254.18,477.66 0,0.03 0,0.03 -0.01,0.03 0,0.02 -0.01,0.03 0,0.03 -0.01,0.02 -0.01,0.03 -0.02,0.03 -0.01,0.02 -0.01,0.02 -0.02,0.03 -0.01,0.02 -0.02,0.02 -0.02,0.02 -0.02,0.02 -0.02,0.02 -0.02,0.02 -0.02,0.01 -0.02,0.02 -0.02,0.01 -0.02,0.02 -0.03,0.01 -0.02,0.01 -0.03,0.01 -0.02,0.01 -0.03,0.01 -0.03,0.01 -0.02,0 -0.03,0.01 -0.03,0 -0.03,0 c -0.3,0 -0.54,-0.25 -0.54,-0.57 0,-0.37 0.33,-0.53 0.54,-0.53 0.21,0 0.56,0.17 0.56,0.53 z"
         id="path3003" /><path
         style="fill:#000000;stroke-width:0"
         inkscape:connector-curvature="0"
         d="m 258.33,477.66 0,0.03 -0.01,0.03 0,0.03 -0.01,0.02 0,0.03 -0.01,0.03 -0.01,0.02 -0.01,0.03 -0.01,0.03 -0.01,0.02 -0.02,0.02 -0.01,0.03 -0.02,0.02 -0.01,0.02 -0.02,0.02 -0.02,0.02 -0.02,0.02 -0.02,0.02 -0.02,0.01 -0.02,0.02 -0.03,0.01 -0.02,0.02 -0.02,0.01 -0.03,0.01 -0.02,0.01 -0.03,0.01 -0.03,0.01 -0.02,0.01 -0.03,0 -0.03,0.01 -0.02,0 -0.03,0 c -0.3,0 -0.55,-0.25 -0.55,-0.57 0,-0.37 0.34,-0.53 0.55,-0.53 0.21,0 0.56,0.17 0.56,0.53 z"
         id="path3005" /><path
         style="fill:#000000;stroke-width:0"
         inkscape:connector-curvature="0"
         d="m 262.48,477.66 0,0.03 0,0.03 -0.01,0.03 0,0.02 -0.01,0.03 -0.01,0.03 0,0.02 -0.02,0.03 -0.01,0.03 -0.01,0.02 -0.01,0.02 -0.02,0.03 -0.01,0.02 -0.02,0.02 -0.02,0.02 -0.02,0.02 -0.02,0.02 -0.02,0.02 -0.02,0.01 -0.02,0.02 -0.02,0.01 -0.03,0.02 -0.02,0.01 -0.02,0.01 -0.03,0.01 -0.02,0.01 -0.03,0.01 -0.03,0.01 -0.02,0 -0.03,0.01 -0.03,0 -0.03,0 c -0.3,0 -0.54,-0.25 -0.54,-0.57 0,-0.37 0.33,-0.53 0.54,-0.53 0.21,0 0.56,0.17 0.56,0.53 z"
         id="path3007" /><path
         style="fill:#000000;stroke-width:0"
         inkscape:connector-curvature="0"
         d="m 266.77,477.3 0,0.03 0,0.04 0,0.04 0,0.03 -0.01,0.04 0,0.03 -0.01,0.03 0,0.03 -0.01,0.03 0,0.03 -0.01,0.03 -0.01,0.03 -0.01,0.03 -0.01,0.02 -0.01,0.03 -0.01,0.02 -0.01,0.03 -0.01,0.02 -0.03,0.04 -0.02,0.04 -0.03,0.04 -0.03,0.03 -0.03,0.03 -0.03,0.03 -0.03,0.03 -0.04,0.02 -0.03,0.03 -0.03,0.02 -0.04,0.01 -0.03,0.02 -0.03,0.01 -0.04,0.01 -0.03,0.01 -0.03,0.01 -0.03,0.01 -0.03,0.01 -0.03,0 -0.03,0 -0.03,0.01 -0.02,0 -0.02,0 c -0.25,0 -0.58,-0.15 -0.58,-0.58 0,-0.4 0.36,-0.5 0.62,-0.5 0.07,0 0.12,0.01 0.15,0.03 0.04,0 0.07,0.01 0.09,0.01 0.07,0 0.14,-0.04 0.14,-0.13 0,-0.19 -0.16,-0.64 -0.82,-1.06 l 0.09,-0.19 c 0.3,0.1 1.11,0.76 1.11,1.47 z"
         id="path3009" /><path
         style="fill:#000000;stroke-width:0"
         inkscape:connector-curvature="0"
         d="m 275.75,483.72 h -2.07 v -0.16 c 0.49,-0.06 0.6,-0.13 0.6,-0.36 0,-0.12 -0.05,-0.24 -0.2,-0.4 l -1.44,-1.66 -0.58,1.46 c -0.11,0.26 -0.15,0.43 -0.15,0.56 0,0.24 0.16,0.33 0.7,0.4 v 0.16 h -2.62 v -0.16 c 0.57,-0.05 0.72,-0.15 0.91,-0.6 l 1.06,-2.62 c -0.37,-0.41 -0.7,-0.8 -0.83,-0.96 -1.38,-1.63 -1.66,-1.88 -2.19,-1.99 v -0.16 h 2.13 v 0.16 c -0.48,0 -0.65,0.09 -0.65,0.34 0,0.15 0.08,0.32 0.21,0.47 l 1.51,1.71 0.66,-1.64 c 0.07,-0.18 0.11,-0.34 0.11,-0.49 0,-0.29 -0.1,-0.34 -0.76,-0.39 v -0.16 h 2.72 v 0.16 c -0.7,0.08 -0.79,0.14 -1.03,0.74 l -1.02,2.56 1.68,1.93 c 0.52,0.58 0.82,0.8 1.25,0.94 z"
         id="path3011" /><path
         style="fill:#000000;stroke-width:0"
         inkscape:connector-curvature="0"
         d="m 278.52,476.55 -0.15,-0.18 c -0.2,-0.25 -0.32,-0.36 -0.42,-0.36 -0.06,0 -0.11,0.05 -0.11,0.11 0,0.05 0,0.05 0.1,0.43 l 0.39,1.44 c 0.04,0.14 0.06,0.3 0.06,0.39 0,0.25 -0.18,0.43 -0.45,0.43 -0.45,0 -0.89,-0.42 -1.61,-1.53 l 0.47,1.51 -0.02,0.02 c -0.38,-0.08 -0.52,-0.11 -1.13,-0.22 v -0.11 c 0.36,-0.01 0.45,-0.05 0.45,-0.19 0,-0.04 -0.01,-0.08 -0.02,-0.12 l -0.66,-2.43 h 0.52 c 0.32,1.1 0.39,1.25 0.69,1.73 0.42,0.64 0.78,0.98 1.03,0.98 0.11,0 0.17,-0.07 0.17,-0.2 0,-0.08 -0.04,-0.31 -0.1,-0.53 l -0.3,-1.14 c -0.09,-0.36 -0.11,-0.46 -0.11,-0.53 0,-0.26 0.09,-0.37 0.32,-0.37 0.32,0 0.5,0.14 0.98,0.78 z"
         id="path3013" /></g>    <path
       inkscape:connector-curvature="0"
       inkscape:original-d="m 186.89804,981.49288 -70.1236,0"
       inkscape:path-effect="#path-effect3033"
       id="path3031"
       d="m 186.89804,981.49288 -70.1236,0"
       style="fill:none;stroke:#000000;stroke-width:1.25;stroke-linecap:butt;stroke-linejoin:miter;stroke-miterlimit:4;stroke-opacity:1;stroke-dasharray:5,5;marker-start:url(#Arrow1Mstart);stroke-dashoffset:0" />
    <path
       inkscape:connector-curvature="0"
       inkscape:original-d="m 108.40498,959.88627 -77.56705,0"
       inkscape:path-effect="#path-effect3033-3"
       id="path3031-6"
       d="m 108.40498,959.88627 -77.56705,0"
       style="fill:none;stroke:#000000;stroke-width:1.38268471;stroke-linecap:butt;stroke-linejoin:miter;stroke-miterlimit:4;stroke-opacity:1;stroke-dasharray:none" />
    <path
       inkscape:connector-curvature="0"
       inkscape:original-d="m 108.40498,1003.3421 -77.56705,0"
       inkscape:path-effect="#path-effect3033-3-7"
       id="path3031-6-5"
       d="m 108.40498,1003.3421 -77.56705,0"
       style="fill:none;stroke:#000000;stroke-width:1.38268471;stroke-linecap:butt;stroke-linejoin:miter;stroke-miterlimit:4;stroke-opacity:1;stroke-dasharray:none" />
    <path
       inkscape:connector-curvature="0"
       inkscape:original-d="m 30.90629,1004.0401 0,-44.78705"
       inkscape:path-effect="#path-effect3033-3-3"
       id="path3031-6-56"
       d="m 30.90629,1004.0401 0,-44.78705"
       style="fill:none;stroke:#000000;stroke-width:1.42112827;stroke-linecap:butt;stroke-linejoin:miter;stroke-miterlimit:4;stroke-opacity:1;stroke-dasharray:none" />
    <path
       inkscape:connector-curvature="0"
       inkscape:original-d="m 108.33662,1003.988 0,-44.74766"
       inkscape:path-effect="#path-effect3033-3-2"
       id="path3031-6-9"
       d="m 108.33662,1003.988 0,-44.74766"
       style="fill:none;stroke:#000000;stroke-width:1.38268471;stroke-linecap:butt;stroke-linejoin:miter;stroke-miterlimit:4;stroke-opacity:1;stroke-dasharray:none" />
    <path
       id="path3358"
       d="m 54.445144,970.60005 h -3.048 v 0.216 c 0.516,0.036 0.66,0.072 0.804,0.168 0.168,0.108 0.24,0.372 0.24,0.888 v 1.932 c 0,0.384 -0.72,0.708 -1.584,0.708 -1.944,0 -3.144,-1.368 -3.144,-3.576 0,-1.128 0.336,-2.208 0.864,-2.796 0.528,-0.588 1.272,-0.9 2.076,-0.9 0.672,0 1.26,0.228 1.716,0.648 0.36,0.336 0.552,0.66 0.852,1.392 h 0.276 l -0.096,-2.52 h -0.264 c -0.072,0.228 -0.288,0.396 -0.54,0.396 -0.12,0 -0.3,-0.036 -0.516,-0.12 -0.54,-0.18 -1.092,-0.276 -1.632,-0.276 -2.388,0 -4.092,1.752 -4.092,4.188 0,1.164 0.324,2.064 0.996,2.76 0.792,0.828 1.944,1.272 3.252,1.272 1.032,0 2.52,-0.408 3,-0.828 v -2.424 c 0,-0.696 0.144,-0.852 0.84,-0.912 z"
       inkscape:connector-curvature="0"
       style="font-style:normal;font-variant:normal;font-weight:normal;font-stretch:normal;letter-spacing:normal;word-spacing:normal;text-anchor:start;fill:#000000;stroke:#000000;stroke-width:0;stroke-linecap:butt;stroke-linejoin:miter;stroke-miterlimit:10.43299961;stroke-opacity:1;stroke-dasharray:none;stroke-dashoffset:0" />
    <path
       id="path3360"
       d="m 59.881144,974.03205 -0.012,0.012 -0.024,0.012 -0.012,0.024 -0.024,0.012 -0.012,0.012 -0.024,0.012 -0.012,0.012 -0.024,0.012 -0.012,0.012 -0.012,0 -0.024,0.012 -0.012,0.012 -0.012,0.012 -0.024,0 -0.012,0.012 -0.012,0.012 -0.024,0 -0.012,0.012 -0.012,0 -0.024,0 -0.012,0.012 -0.012,0 -0.012,0.012 -0.024,0 -0.024,0 -0.036,0.012 -0.036,0 -0.024,0 c -0.276,0 -0.36,-0.168 -0.36,-0.696 v -2.316 c 0,-0.624 -0.06,-0.972 -0.24,-1.26 -0.264,-0.432 -0.78,-0.648 -1.488,-0.648 -1.116,0 -2.004,0.576 -2.004,1.332 0,0.276 0.24,0.504 0.516,0.504 0.288,0 0.54,-0.228 0.54,-0.492 0,-0.048 -0.012,-0.108 -0.024,-0.192 -0.024,-0.108 -0.036,-0.204 -0.036,-0.288 0,-0.324 0.384,-0.588 0.852,-0.588 0.588,0 0.912,0.348 0.912,0.996 v 0.72 0.288 1.728 c 0,0.372 -0.06,0.48 -0.312,0.624 -0.288,0.168 -0.624,0.276 -0.876,0.276 -0.408,0 -0.744,-0.408 -0.744,-0.924 v -0.048 c 0,-0.696 0.492,-1.128 1.932,-1.656 v -0.288 c -1.836,0.744 -2.04,0.84 -2.556,1.296 -0.264,0.24 -0.432,0.636 -0.432,1.032 0,0.756 0.528,1.272 1.26,1.272 0.528,0 1.008,-0.24 1.74,-0.864 0.06,0.624 0.276,0.864 0.768,0.864 0.396,0 0.648,-0.144 1.068,-0.588 z"
       inkscape:connector-curvature="0"
       style="font-style:normal;font-variant:normal;font-weight:normal;font-stretch:normal;letter-spacing:normal;word-spacing:normal;text-anchor:start;fill:#000000;stroke:#000000;stroke-width:0;stroke-linecap:butt;stroke-linejoin:miter;stroke-miterlimit:10.43299961;stroke-opacity:1;stroke-dasharray:none;stroke-dashoffset:0" />
    <path
       id="path3362"
       d="m 62.965143,969.46005 h -1.212 v -1.392 c 0,-0.12 -0.012,-0.156 -0.084,-0.156 -0.084,0.108 -0.156,0.216 -0.24,0.336 -0.455999,0.66 -0.959999,1.236 -1.151999,1.272 -0.132,0.084 -0.204,0.168 -0.204,0.228 0,0.036 0.012,0.06 0.048,0.084 h 0.624 v 3.588 c 0,1.008 0.36,1.512 1.067999,1.512 0.588,0 1.044,-0.276 1.428,-0.9 l -0.144,-0.132 c -0.252,0.3 -0.456,0.42 -0.72,0.42 -0.444,0 -0.624,-0.324 -0.624,-1.08 v -3.408 h 1.212 z"
       inkscape:connector-curvature="0"
       style="font-style:normal;font-variant:normal;font-weight:normal;font-stretch:normal;letter-spacing:normal;word-spacing:normal;text-anchor:start;fill:#000000;stroke:#000000;stroke-width:0;stroke-linecap:butt;stroke-linejoin:miter;stroke-miterlimit:10.43299961;stroke-opacity:1;stroke-dasharray:none;stroke-dashoffset:0" />
    <path
       id="path3364"
       d="m 68.113143,972.86805 -0.06,0.084 -0.048,0.072 -0.06,0.084 -0.048,0.072 -0.048,0.072 -0.06,0.06 -0.048,0.072 -0.06,0.06 -0.048,0.06 -0.048,0.048 -0.06,0.06 -0.048,0.048 -0.06,0.048 -0.048,0.036 -0.06,0.048 -0.048,0.036 -0.06,0.036 -0.06,0.036 -0.048,0.024 -0.06,0.036 -0.06,0.024 -0.06,0.024 -0.06,0.024 -0.06,0.012 -0.06,0.024 -0.072,0.012 -0.06,0.012 -0.072,0.012 -0.06,0 -0.072,0.012 -0.072,0 -0.06,0 c -0.684,0 -1.2,-0.348 -1.548,-1.02 -0.216,-0.456 -0.3,-0.852 -0.324,-1.584 l 0.024,-0.372 c 0.132,-0.936 0.54,-1.38 1.272,-1.38 0.72,0 1.008,0.336 1.164,1.38 h -2.436 l -0.024,0.372 h 3.684 c -0.096,-0.768 -0.216,-1.116 -0.516,-1.5 -0.36,-0.432 -0.912,-0.672 -1.524,-0.672 -0.6,0 -1.164,0.204 -1.62,0.612 -0.552,0.492 -0.876,1.344 -0.876,2.316 0,1.644 0.852,2.664 2.232,2.664 1.128,0 2.028,-0.696 2.532,-1.992 z"
       inkscape:connector-curvature="0"
       style="font-style:normal;font-variant:normal;font-weight:normal;font-stretch:normal;letter-spacing:normal;word-spacing:normal;text-anchor:start;fill:#000000;stroke:#000000;stroke-width:0;stroke-linecap:butt;stroke-linejoin:miter;stroke-miterlimit:10.43299961;stroke-opacity:1;stroke-dasharray:none;stroke-dashoffset:0" />
    <path
       id="path3366"
       d="m 75.061143,969.46005 v 0.168 c 0.408,0.084 0.528,0.168 0.528,0.372 0,0.18 -0.072,0.468 -0.204,0.792 l -1.068,2.64 -1.008,-2.664 c -0.204,-0.552 -0.204,-0.552 -0.204,-0.708 0,-0.264 0.132,-0.348 0.696,-0.432 v -0.168 h -2.424 v 0.168 c 0.444,0.048 0.588,0.18 0.828,0.828 0.072,0.228 0.168,0.456 0.228,0.672 l -1.08,2.364 -1.188,-3.108 c -0.048,-0.12 -0.072,-0.24 -0.072,-0.36 0,-0.252 0.144,-0.348 0.552,-0.396 v -0.168 h -2.148 v 0.168 c 0.276,0.024 0.372,0.144 0.636,0.756 l 1.608,4.08 c 0.144,0.36 0.24,0.516 0.312,0.516 0.06,0 0.156,-0.156 0.3,-0.456 l 1.332,-2.868 1.092,2.82 c 0.168,0.432 0.216,0.504 0.288,0.504 0.084,0 0.144,-0.096 0.336,-0.576 l 1.644,-4.128 c 0.216,-0.504 0.252,-0.564 0.492,-0.648 v -0.168 z"
       inkscape:connector-curvature="0"
       style="font-style:normal;font-variant:normal;font-weight:normal;font-stretch:normal;letter-spacing:normal;word-spacing:normal;text-anchor:start;fill:#000000;stroke:#000000;stroke-width:0;stroke-linecap:butt;stroke-linejoin:miter;stroke-miterlimit:10.43299961;stroke-opacity:1;stroke-dasharray:none;stroke-dashoffset:0" />
    <path
       id="path3368"
       d="m 82.033144,974.03205 -0.012,0.012 -0.024,0.012 -0.012,0.024 -0.024,0.012 -0.012,0.012 -0.024,0.012 -0.012,0.012 -0.024,0.012 -0.012,0.012 -0.012,0 -0.024,0.012 -0.012,0.012 -0.012,0.012 -0.024,0 -0.012,0.012 -0.012,0.012 -0.024,0 -0.012,0.012 -0.012,0 -0.024,0 -0.012,0.012 -0.012,0 -0.012,0.012 -0.024,0 -0.024,0 -0.036,0.012 -0.036,0 -0.036,0 c -0.264001,0 -0.348001,-0.168 -0.348001,-0.696 v -2.316 c 0,-0.624 -0.06,-0.972 -0.24,-1.26 -0.264,-0.432 -0.78,-0.648 -1.488,-0.648 -1.116,0 -2.004,0.576 -2.004,1.332 0,0.276 0.24,0.504 0.516,0.504 0.288,0 0.54,-0.228 0.54,-0.492 0,-0.048 -0.012,-0.108 -0.024,-0.192 -0.024,-0.108 -0.036,-0.204 -0.036,-0.288 0,-0.324 0.384,-0.588 0.852,-0.588 0.588,0 0.912,0.348 0.912,0.996 v 0.72 0.288 1.728 c 0,0.372 -0.06,0.48 -0.312,0.624 -0.288,0.168 -0.624,0.276 -0.864,0.276 -0.42,0 -0.756,-0.408 -0.756,-0.924 v -0.048 c 0,-0.696 0.492,-1.128 1.932,-1.656 v -0.288 c -1.836,0.744 -2.04,0.84 -2.556,1.296 -0.264,0.24 -0.432,0.636 -0.432,1.032 0,0.756 0.528,1.272 1.26,1.272 0.528,0 1.008,-0.24 1.74,-0.864 0.06,0.624 0.276,0.864 0.768,0.864 0.408,0 0.648001,-0.144 1.068001,-0.588 z"
       inkscape:connector-curvature="0"
       style="font-style:normal;font-variant:normal;font-weight:normal;font-stretch:normal;letter-spacing:normal;word-spacing:normal;text-anchor:start;fill:#000000;stroke:#000000;stroke-width:0;stroke-linecap:butt;stroke-linejoin:miter;stroke-miterlimit:10.43299961;stroke-opacity:1;stroke-dasharray:none;stroke-dashoffset:0" />
    <path
       id="path3370"
       d="m 87.733144,969.46005 h -1.608 v 0.168 c 0.384,0 0.576,0.108 0.576,0.3 0,0.048 -0.012,0.12 -0.048,0.204 l -1.164,3.288 -1.368,-3.012 c -0.072,-0.168 -0.12,-0.324 -0.12,-0.456 0,-0.216 0.18,-0.3 0.696,-0.324 v -0.168 h -2.46 v 0.156 c 0.312,0.048 0.516,0.18 0.612,0.384 l 1.356,2.94 0.036,0.084 0.18,0.36 c 0.336,0.6 0.528,1.032 0.528,1.212 0,0.18 -0.276,0.924 -0.48,1.284 -0.168,0.312 -0.432,0.54 -0.6,0.54 -0.072,0 -0.18,-0.024 -0.3,-0.084 -0.228,-0.084 -0.432,-0.132 -0.624,-0.132 -0.276,0 -0.516,0.24 -0.516,0.516 0,0.396 0.384,0.696 0.876,0.696 0.804,0 1.38,-0.672 2.028,-2.388 l 1.836,-4.86 c 0.156,-0.384 0.288,-0.504 0.564,-0.54 z"
       inkscape:connector-curvature="0"
       style="font-style:normal;font-variant:normal;font-weight:normal;font-stretch:normal;letter-spacing:normal;word-spacing:normal;text-anchor:start;fill:#000000;stroke:#000000;stroke-width:0;stroke-linecap:butt;stroke-linejoin:miter;stroke-miterlimit:10.43299961;stroke-opacity:1;stroke-dasharray:none;stroke-dashoffset:0" />
    <path
       id="path3372"
       d="m 48.285148,985.09491 -0.048,0.084 -0.06,0.072 -0.048,0.072 -0.048,0.06 -0.06,0.072 -0.048,0.06 -0.048,0.06 -0.048,0.048 -0.048,0.06 -0.048,0.048 -0.048,0.048 -0.048,0.048 -0.048,0.036 -0.06,0.036 -0.048,0.036 -0.048,0.036 -0.048,0.036 -0.048,0.024 -0.048,0.036 -0.048,0.024 -0.06,0.024 -0.048,0.012 -0.06,0.024 -0.048,0.012 -0.06,0.012 -0.048,0.012 -0.06,0.012 -0.06,0.012 -0.06,0 -0.06,0.012 -0.06,0 -0.06,0 c -1.092,0 -1.848,-0.96 -1.848,-2.328 0,-1.224 0.648,-2.076 1.62,-2.076 0.432,0 0.588,0.132 0.708,0.576 l 0.072,0.264 c 0.096,0.336 0.3,0.552 0.552,0.552 0.312,0 0.576,-0.228 0.576,-0.504 0,-0.672 -0.84,-1.224 -1.836,-1.224 -0.588,0 -1.2,0.228 -1.68,0.66 -0.6,0.528 -0.936,1.332 -0.936,2.28 0,1.548 0.948,2.652 2.268,2.652 0.54,0 1.02,-0.192 1.44,-0.552 0.324,-0.288 0.552,-0.612 0.912,-1.32 z"
       inkscape:connector-curvature="0"
       style="font-style:normal;font-variant:normal;font-weight:normal;font-stretch:normal;letter-spacing:normal;word-spacing:normal;text-anchor:start;fill:#000000;stroke:#000000;stroke-width:0;stroke-linecap:butt;stroke-linejoin:miter;stroke-miterlimit:10.43299961;stroke-opacity:1;stroke-dasharray:none;stroke-dashoffset:0" />
    <path
       id="path3374"
       d="m 51.825148,981.48291 -0.144,0 -0.144,0.012 -0.132,0.012 -0.132,0.024 -0.132,0.024 -0.132,0.036 -0.132,0.048 -0.12,0.048 -0.12,0.048 -0.108,0.06 -0.108,0.06 -0.108,0.072 -0.108,0.072 -0.096,0.084 -0.096,0.084 -0.084,0.084 -0.084,0.096 -0.084,0.096 -0.072,0.108 -0.072,0.108 -0.072,0.12 -0.06,0.108 -0.048,0.12 -0.06,0.132 -0.036,0.132 -0.036,0.132 -0.036,0.132 -0.036,0.144 -0.012,0.144 -0.024,0.144 0,0.144 -0.012,0.156 c 0,1.608 1.116,2.808 2.616,2.808 l 0.144,-0.324 c -0.468,0 -0.912,-0.288 -1.152,-0.768 -0.336,-0.624 -0.528,-1.452 -0.528,-2.304 0,-1.128 0.564,-1.872 1.404,-1.872 h 0 c 1.008,0 1.704,1.152 1.704,2.784 0,1.344 -0.528,2.16 -1.428,2.16 l -0.144,0.324 c 1.5,0 2.652,-1.26 2.652,-2.904 0,-1.56 -1.092,-2.688 -2.628,-2.688 z"
       inkscape:connector-curvature="0"
       style="font-style:normal;font-variant:normal;font-weight:normal;font-stretch:normal;letter-spacing:normal;word-spacing:normal;text-anchor:start;fill:#000000;stroke:#000000;stroke-width:0;stroke-linecap:butt;stroke-linejoin:miter;stroke-miterlimit:10.43299961;stroke-opacity:1;stroke-dasharray:none;stroke-dashoffset:0" />
    <path
       id="path3376"
       d="m 55.053148,982.21491 0.012,0 0.012,0 0.012,-0.012 0.012,0 0.012,0 0.012,0 0.024,-0.012 0.024,0 0.024,0 0.024,-0.012 0.024,0 0.024,0 0.024,0 0.024,0 0.024,-0.012 0.012,0 0.024,0 0.024,0 0.024,0 c 0.312,0 0.42,0.192 0.42,0.768 v 3.012 c 0,0.648 -0.168,0.828 -0.828,0.84 v 0.18 h 2.64 v -0.18 c -0.624,-0.024 -0.804,-0.156 -0.804,-0.624 v -3.36 c 0,-0.024 0.096,-0.144 0.18,-0.228 0.3,-0.276 0.804,-0.48 1.224,-0.48 0.528,0 0.792,0.42 0.792,1.26 v 2.58 c 0,0.672 -0.132,0.804 -0.816,0.852 v 0.18 h 2.676 v -0.18 c -0.684,-0.012 -0.864,-0.216 -0.864,-0.96 v -3 c 0.36,-0.516 0.756,-0.732 1.308,-0.732 0.671999,0 0.887999,0.324 0.887999,1.308 v 2.52 c 0,0.684 -0.096,0.78 -0.78,0.864 v 0.18 h 2.616 v -0.18 l -0.312,-0.024 c -0.36,-0.024 -0.516,-0.24 -0.516,-0.708 v -2.46 c 0,-1.404 -0.468,-2.112 -1.38,-2.112 -0.695999,0 -1.307999,0.3 -1.955999,0.996 -0.216,-0.684 -0.612,-0.996 -1.26,-0.996 -0.528,0 -0.864,0.156 -1.848,0.912 v -0.9 l -0.084,-0.012 c -0.612,0.216 -1.02,0.348 -1.668,0.528 z"
       inkscape:connector-curvature="0"
       style="font-style:normal;font-variant:normal;font-weight:normal;font-stretch:normal;letter-spacing:normal;word-spacing:normal;text-anchor:start;fill:#000000;stroke:#000000;stroke-width:0;stroke-linecap:butt;stroke-linejoin:miter;stroke-miterlimit:10.43299961;stroke-opacity:1;stroke-dasharray:none;stroke-dashoffset:0" />
    <path
       id="path3378"
       d="m 64.233147,982.27491 0.012,0 0.024,0 0.012,0 0.024,0 0.024,-0.012 0.012,0 0.024,0 0.012,0 0.036,0 0.024,0 0.012,0 0.024,0 0.012,0 0.024,0 0.024,0 c 0.396,0 0.48,0.12 0.48,0.684 v 5.58 c 0,0.612 -0.132,0.744 -0.828,0.816 v 0.204 h 2.88 v -0.216 c -0.888,-0.012 -1.044,-0.144 -1.044,-0.888 v -1.872 c 0.42,0.396 0.696,0.504 1.2,0.504 l 0.036,-0.372 c -0.552,0 -1.236,-0.432 -1.236,-0.792 v -2.928 c 0,-0.36 0.672,-0.792 1.212,-0.792 0.888,0 1.476,0.912 1.476,2.292 0,1.32 -0.588,2.22 -1.452,2.22 l -0.036,0.372 c 1.416,0 2.508,-1.332 2.508,-3.06 0,-1.476 -0.828,-2.532 -1.992,-2.532 -0.672,0 -1.188,0.288 -1.716,0.936 v -0.924 l -0.072,-0.012 c -0.648,0.24 -1.068,0.396 -1.716,0.6 z"
       inkscape:connector-curvature="0"
       style="font-style:normal;font-variant:normal;font-weight:normal;font-stretch:normal;letter-spacing:normal;word-spacing:normal;text-anchor:start;fill:#000000;stroke:#000000;stroke-width:0;stroke-linecap:butt;stroke-linejoin:miter;stroke-miterlimit:10.43299961;stroke-opacity:1;stroke-dasharray:none;stroke-dashoffset:0" />
    <path
       id="path3380"
       d="m 75.813147,986.36691 h -0.06 c -0.54,0 -0.672,-0.132 -0.672,-0.684 v -4.08 h -1.884 v 0.192 c 0.732,0.036 0.876,0.156 0.876,0.756 v 2.796 c 0,0.336 -0.06,0.504 -0.228,0.636 -0.324,0.264 -0.684,0.408 -1.044,0.408 -0.468,0 -0.852,-0.408 -0.852,-0.912 v -3.876 h -1.74 v 0.156 c 0.564,0.036 0.732,0.216 0.732,0.768 v 3 c 0,0.948 0.576,1.548 1.452,1.548 0.444,0 0.9,-0.192 1.224,-0.504 l 0.516,-0.516 v 0.984 l 0.048,0.024 c 0.6,-0.228 1.032,-0.36 1.632,-0.528 z"
       inkscape:connector-curvature="0"
       style="font-style:normal;font-variant:normal;font-weight:normal;font-stretch:normal;letter-spacing:normal;word-spacing:normal;text-anchor:start;fill:#000000;stroke:#000000;stroke-width:0;stroke-linecap:butt;stroke-linejoin:miter;stroke-miterlimit:10.43299961;stroke-opacity:1;stroke-dasharray:none;stroke-dashoffset:0" />
    <path
       id="path3382"
       d="m 79.125147,981.60291 h -1.212 v -1.392 c 0,-0.12 -0.012,-0.156 -0.084,-0.156 -0.084,0.108 -0.156,0.216 -0.24,0.336 -0.456,0.66 -0.96,1.236 -1.152,1.272 -0.132,0.084 -0.204,0.168 -0.204,0.228 0,0.036 0.012,0.06 0.048,0.084 h 0.636 v 3.588 c 0,1.008 0.348,1.512 1.056,1.512 0.588,0 1.044,-0.276 1.44,-0.9 l -0.156,-0.132 c -0.252,0.3 -0.456,0.42 -0.72,0.42 -0.444,0 -0.624,-0.324 -0.624,-1.08 v -3.408 h 1.212 z"
       inkscape:connector-curvature="0"
       style="font-style:normal;font-variant:normal;font-weight:normal;font-stretch:normal;letter-spacing:normal;word-spacing:normal;text-anchor:start;fill:#000000;stroke:#000000;stroke-width:0;stroke-linecap:butt;stroke-linejoin:miter;stroke-miterlimit:10.43299961;stroke-opacity:1;stroke-dasharray:none;stroke-dashoffset:0" />
    <path
       id="path3384"
       d="m 84.273148,985.01091 -0.06,0.084 -0.048,0.072 -0.06,0.084 -0.048,0.072 -0.048,0.072 -0.06,0.06 -0.048,0.072 -0.06,0.06 -0.048,0.06 -0.048,0.048 -0.06,0.06 -0.048,0.048 -0.06,0.048 -0.048,0.036 -0.06,0.048 -0.048,0.036 -0.06,0.036 -0.06,0.036 -0.048,0.024 -0.06,0.036 -0.06,0.024 -0.06,0.024 -0.06,0.024 -0.06,0.012 -0.06,0.024 -0.072,0.012 -0.06,0.012 -0.06,0.012 -0.072,0 -0.072,0.012 -0.06,0 -0.072,0 c -0.684,0 -1.200001,-0.348 -1.548001,-1.02 -0.216,-0.456 -0.3,-0.852 -0.324,-1.584 l 0.024,-0.372 c 0.132,-0.936 0.54,-1.38 1.272001,-1.38 0.732,0 1.008,0.336 1.164,1.38 h -2.436001 l -0.024,0.372 h 3.684001 c -0.096,-0.768 -0.216,-1.116 -0.516,-1.5 -0.36,-0.432 -0.912,-0.672 -1.524,-0.672 -0.6,0 -1.164001,0.204 -1.620001,0.612 -0.552,0.492 -0.876,1.344 -0.876,2.316 0,1.644 0.852,2.664 2.232001,2.664 1.128,0 2.028,-0.696 2.532,-1.992 z"
       inkscape:connector-curvature="0"
       style="font-style:normal;font-variant:normal;font-weight:normal;font-stretch:normal;letter-spacing:normal;word-spacing:normal;text-anchor:start;fill:#000000;stroke:#000000;stroke-width:0;stroke-linecap:butt;stroke-linejoin:miter;stroke-miterlimit:10.43299961;stroke-opacity:1;stroke-dasharray:none;stroke-dashoffset:0" />
    <path
       id="path3386"
       d="m 84.789148,982.31091 0.012,0 0.024,0 0.012,-0.012 0.012,0 0.036,0 0.024,-0.012 0.024,0 0.024,0 0.024,-0.012 0.024,0 0.024,0 0.024,0 0.024,-0.012 0.024,0 0.036,0 0.024,0 0.024,0 0.024,0 c 0.3,0 0.408,0.192 0.408,0.72 v 2.976 c 0,0.6 -0.084,0.684 -0.852,0.828 v 0.18 h 2.868 v -0.18 c -0.816,-0.036 -1.02,-0.216 -1.02,-0.9 v -2.676 c 0,-0.384 0.516,-0.984 0.84,-0.984 0.072,0 0.18,0.06 0.312,0.18 0.192,0.168 0.324,0.24 0.48,0.24 0.288,0 0.456,-0.204 0.456,-0.54 0,-0.396 -0.24,-0.624 -0.648,-0.624 -0.504,0 -0.852,0.264 -1.44,1.116 v -1.104 l -0.06,-0.012 c -0.624,0.252 -1.056,0.408 -1.764,0.636 z"
       inkscape:connector-curvature="0"
       style="font-style:normal;font-variant:normal;font-weight:normal;font-stretch:normal;letter-spacing:normal;word-spacing:normal;text-anchor:start;fill:#000000;stroke:#000000;stroke-width:0;stroke-linecap:butt;stroke-linejoin:miter;stroke-miterlimit:10.43299961;stroke-opacity:1;stroke-dasharray:none;stroke-dashoffset:0" />
    <path
       id="path3388"
       d="m 92.445148,983.22291 -0.048,-1.62 h -0.132 l -0.024,0.024 c -0.108,0.072 -0.108,0.084 -0.168,0.084 -0.06,0 -0.18,-0.024 -0.312,-0.072 -0.264,-0.108 -0.528,-0.156 -0.84,-0.156 -0.948,0 -1.62,0.612 -1.62,1.476 0,0.66 0.372,1.14 1.392,1.716 l 0.696,0.396 c 0.42,0.228 0.624,0.516 0.624,0.888 0,0.528 -0.384,0.864 -0.996,0.864 -0.408,0 -0.78,-0.156 -1.008,-0.42 -0.24,-0.3 -0.348,-0.576 -0.504,-1.248 h -0.192 v 1.848 h 0.156 c 0.084,-0.12 0.132,-0.132 0.264,-0.132 0.12,0 0.276,0.012 0.552,0.096 0.336,0.072 0.66,0.108 0.876,0.108 0.912,0 1.68,-0.684 1.68,-1.524 0,-0.588 -0.288,-0.984 -0.996,-1.416 l -1.296,-0.768 c -0.336,-0.18 -0.516,-0.48 -0.516,-0.804 0,-0.48 0.372,-0.816 0.924,-0.816 0.684,0 1.032,0.408 1.308,1.476 z"
       inkscape:connector-curvature="0"
       style="font-style:normal;font-variant:normal;font-weight:normal;font-stretch:normal;letter-spacing:normal;word-spacing:normal;text-anchor:start;fill:#000000;stroke:#000000;stroke-width:0;stroke-linecap:butt;stroke-linejoin:miter;stroke-miterlimit:10.43299961;stroke-opacity:1;stroke-dasharray:none;stroke-dashoffset:0" />
  </g>
</svg>
