<?xml version="1.0" encoding="UTF-8" standalone="no"?>
<!-- Created with Inkscape (http://www.inkscape.org/) -->

<svg
   xmlns:ns0="http://www.iki.fi/pav/software/textext/"
   xmlns:dc="http://purl.org/dc/elements/1.1/"
   xmlns:cc="http://creativecommons.org/ns#"
   xmlns:rdf="http://www.w3.org/1999/02/22-rdf-syntax-ns#"
   xmlns:svg="http://www.w3.org/2000/svg"
   xmlns="http://www.w3.org/2000/svg"
   xmlns:sodipodi="http://sodipodi.sourceforge.net/DTD/sodipodi-0.dtd"
   xmlns:inkscape="http://www.inkscape.org/namespaces/inkscape"
   width="354.33069"
   height="177.16534"
   id="svg2"
   version="1.1"
   inkscape:version="0.48.4 r9939"
   sodipodi:docname="New document 1">
  <sodipodi:namedview
     id="base"
     pagecolor="#ffffff"
     bordercolor="#666666"
     borderopacity="1.0"
     inkscape:pageopacity="0.0"
     inkscape:pageshadow="2"
     inkscape:zoom="2.8"
     inkscape:cx="179.37772"
     inkscape:cy="103.22866"
     inkscape:document-units="px"
     inkscape:current-layer="g3356"
     showgrid="false"
     units="cm"
     inkscape:window-width="1024"
     inkscape:window-height="744"
     inkscape:window-x="0"
     inkscape:window-y="24"
     inkscape:window-maximized="1" />
  <defs
     id="defs4">
    <inkscape:path-effect
       is_visible="true"
       id="path-effect3033-3-2"
       effect="spiro" />
    <inkscape:path-effect
       is_visible="true"
       id="path-effect3033-3-3"
       effect="spiro" />
    <inkscape:path-effect
       is_visible="true"
       id="path-effect3033-3-7"
       effect="spiro" />
    <inkscape:path-effect
       is_visible="true"
       id="path-effect3033-3"
       effect="spiro" />
    <marker
       style="overflow:visible"
       id="Arrow1Mstart"
       refX="0"
       refY="0"
       orient="auto"
       inkscape:stockid="Arrow1Mstart">
      <path
         transform="matrix(0.4,0,0,0.4,4,0)"
         style="fill-rule:evenodd;stroke:#000000;stroke-width:1pt"
         d="M 0,0 5,-5 -12.5,0 5,5 0,0 z"
         id="path4057"
         inkscape:connector-curvature="0" />
    </marker>
    <inkscape:path-effect
       is_visible="true"
       id="path-effect3033"
       effect="spiro" />
  </defs>
  <metadata
     id="metadata7">
    <rdf:RDF>
      <cc:Work
         rdf:about="">
        <dc:format>image/svg+xml</dc:format>
        <dc:type
           rdf:resource="http://purl.org/dc/dcmitype/StillImage" />
        <dc:title></dc:title>
      </cc:Work>
    </rdf:RDF>
  </metadata>
  <g
     transform="translate(0,-875.19552)"
     id="layer1"
     inkscape:groupmode="layer"
     inkscape:label="Layer 1">
    <g
       style="font-style:normal;font-variant:normal;font-weight:normal;font-stretch:normal;letter-spacing:normal;word-spacing:normal;text-anchor:start;fill:none;stroke:#000000;stroke-linecap:butt;stroke-linejoin:miter;stroke-miterlimit:10.43299961;stroke-opacity:1;stroke-dasharray:none;stroke-dashoffset:0"
       id="content"
       transform="matrix(1.2,0,0,-1.2,-38.062014,1542.4398)"
       xml:space="preserve"
       stroke-miterlimit="10.433"
       font-style="normal"
       font-variant="normal"
       font-weight="normal"
       font-stretch="normal"
       font-size-adjust="none"
       letter-spacing="normal"
       word-spacing="normal"
       ns0:text="$X_1, X_2, \\ldots, X_n$"
       ns0:preamble="/home/sriranga/Desktop/Beamer-prathi/article24/figure/package.tex"><path
         style="fill:#000000;stroke-width:0"
         inkscape:connector-curvature="0"
         d="m 230.2,483.72 h -2.07 v -0.16 c 0.49,-0.06 0.61,-0.13 0.61,-0.36 0,-0.12 -0.06,-0.24 -0.2,-0.4 l -1.45,-1.66 -0.58,1.46 c -0.11,0.26 -0.15,0.43 -0.15,0.56 0,0.24 0.16,0.33 0.7,0.4 v 0.16 h -2.62 v -0.16 c 0.57,-0.05 0.72,-0.15 0.91,-0.6 l 1.06,-2.62 c -0.37,-0.41 -0.7,-0.8 -0.83,-0.96 -1.38,-1.63 -1.66,-1.88 -2.19,-1.99 v -0.16 h 2.13 v 0.16 c -0.48,0 -0.64,0.09 -0.64,0.34 0,0.15 0.07,0.32 0.2,0.47 l 1.51,1.71 0.66,-1.64 c 0.07,-0.18 0.11,-0.34 0.11,-0.49 0,-0.29 -0.1,-0.34 -0.75,-0.39 v -0.16 h 2.71 v 0.16 c -0.69,0.08 -0.78,0.14 -1.03,0.74 l -1.02,2.56 1.68,1.93 c 0.52,0.58 0.82,0.8 1.25,0.94 z"
         id="path2991" /><path
         style="fill:#000000;stroke-width:0"
         inkscape:connector-curvature="0"
         d="m 231.79,480.44 -1.25,-0.63 v -0.1 c 0.08,0.04 0.16,0.06 0.19,0.08 0.12,0.05 0.24,0.07 0.31,0.07 0.15,0 0.21,-0.1 0.21,-0.32 v -3.15 c 0,-0.23 -0.05,-0.39 -0.17,-0.45 -0.1,-0.07 -0.2,-0.09 -0.49,-0.09 v -0.11 h 1.92 v 0.11 c -0.55,0 -0.66,0.07 -0.66,0.41 v 4.17 z"
         id="path2993" /><path
         style="fill:#000000;stroke-width:0"
         inkscape:connector-curvature="0"
         d="m 235.69,477.3 0,0.03 0,0.04 0,0.04 0,0.03 -0.01,0.04 0,0.03 -0.01,0.03 0,0.03 -0.01,0.03 -0.01,0.03 0,0.03 -0.01,0.03 -0.01,0.03 -0.01,0.02 -0.01,0.03 -0.01,0.02 -0.01,0.03 -0.01,0.02 -0.03,0.04 -0.02,0.04 -0.03,0.04 -0.03,0.03 -0.03,0.03 -0.03,0.03 -0.03,0.03 -0.04,0.02 -0.03,0.03 -0.03,0.02 -0.04,0.01 -0.03,0.02 -0.03,0.01 -0.04,0.01 -0.03,0.01 -0.03,0.01 -0.03,0.01 -0.03,0.01 -0.03,0 -0.03,0 -0.03,0.01 -0.02,0 -0.02,0 c -0.25,0 -0.58,-0.15 -0.58,-0.58 0,-0.4 0.36,-0.5 0.62,-0.5 0.07,0 0.12,0.01 0.15,0.03 0.04,0 0.07,0.01 0.09,0.01 0.07,0 0.13,-0.04 0.13,-0.13 0,-0.19 -0.15,-0.64 -0.81,-1.06 l 0.09,-0.19 c 0.3,0.1 1.11,0.76 1.11,1.47 z"
         id="path2995" /><path
         style="fill:#000000;stroke-width:0"
         inkscape:connector-curvature="0"
         d="m 244.67,483.72 h -2.07 v -0.16 c 0.49,-0.06 0.61,-0.13 0.61,-0.36 0,-0.12 -0.06,-0.24 -0.2,-0.4 l -1.44,-1.66 -0.59,1.46 c -0.11,0.26 -0.15,0.43 -0.15,0.56 0,0.24 0.16,0.33 0.71,0.4 v 0.16 h -2.63 v -0.16 c 0.58,-0.05 0.72,-0.15 0.91,-0.6 l 1.06,-2.62 c -0.37,-0.41 -0.7,-0.8 -0.83,-0.96 -1.38,-1.63 -1.66,-1.88 -2.18,-1.99 v -0.16 h 2.12 v 0.16 c -0.47,0 -0.64,0.09 -0.64,0.34 0,0.15 0.08,0.32 0.21,0.47 l 1.5,1.71 0.67,-1.64 c 0.06,-0.18 0.1,-0.34 0.1,-0.49 0,-0.29 -0.09,-0.34 -0.75,-0.39 v -0.16 h 2.71 v 0.16 c -0.69,0.08 -0.78,0.14 -1.03,0.74 l -1.02,2.56 1.69,1.93 c 0.51,0.58 0.81,0.8 1.24,0.94 z"
         id="path2997" /><path
         style="fill:#000000;stroke-width:0"
         inkscape:connector-curvature="0"
         d="m 247.55,476.69 -0.09,0.04 c -0.26,-0.4 -0.35,-0.46 -0.66,-0.46 h -1.67 l 1.17,1.22 c 0.62,0.65 0.89,1.18 0.89,1.72 0,0.7 -0.56,1.23 -1.28,1.23 -0.39,0 -0.75,-0.15 -1.01,-0.43 -0.22,-0.24 -0.33,-0.46 -0.44,-0.95 l 0.14,-0.04 c 0.28,0.68 0.53,0.91 1.01,0.91 0.59,0 0.99,-0.4 0.99,-0.98 0,-0.55 -0.33,-1.19 -0.91,-1.81 l -1.24,-1.32 v -0.08 h 2.72 z"
         id="path2999" /><path
         style="fill:#000000;stroke-width:0"
         inkscape:connector-curvature="0"
         d="m 250.17,477.3 0,0.03 -0.01,0.04 0,0.04 0,0.03 0,0.04 -0.01,0.03 0,0.03 -0.01,0.03 -0.01,0.03 0,0.03 -0.01,0.03 -0.01,0.03 -0.01,0.03 -0.01,0.02 -0.01,0.03 -0.01,0.02 -0.01,0.03 -0.01,0.02 -0.02,0.04 -0.03,0.04 -0.03,0.04 -0.03,0.03 -0.03,0.03 -0.03,0.03 -0.03,0.03 -0.03,0.02 -0.04,0.03 -0.03,0.02 -0.03,0.01 -0.04,0.02 -0.03,0.01 -0.03,0.01 -0.04,0.01 -0.03,0.01 -0.03,0.01 -0.03,0.01 -0.03,0 -0.03,0 -0.02,0.01 -0.03,0 -0.02,0 c -0.25,0 -0.58,-0.15 -0.58,-0.58 0,-0.4 0.36,-0.5 0.62,-0.5 0.07,0 0.12,0.01 0.15,0.03 0.04,0 0.07,0.01 0.09,0.01 0.07,0 0.14,-0.04 0.14,-0.13 0,-0.19 -0.16,-0.64 -0.82,-1.06 l 0.09,-0.19 c 0.3,0.1 1.12,0.76 1.12,1.47 z"
         id="path3001" /><path
         style="fill:#000000;stroke-width:0"
         inkscape:connector-curvature="0"
         d="m 254.18,477.66 0,0.03 0,0.03 -0.01,0.03 0,0.02 -0.01,0.03 0,0.03 -0.01,0.02 -0.01,0.03 -0.02,0.03 -0.01,0.02 -0.01,0.02 -0.02,0.03 -0.01,0.02 -0.02,0.02 -0.02,0.02 -0.02,0.02 -0.02,0.02 -0.02,0.02 -0.02,0.01 -0.02,0.02 -0.02,0.01 -0.02,0.02 -0.03,0.01 -0.02,0.01 -0.03,0.01 -0.02,0.01 -0.03,0.01 -0.03,0.01 -0.02,0 -0.03,0.01 -0.03,0 -0.03,0 c -0.3,0 -0.54,-0.25 -0.54,-0.57 0,-0.37 0.33,-0.53 0.54,-0.53 0.21,0 0.56,0.17 0.56,0.53 z"
         id="path3003" /><path
         style="fill:#000000;stroke-width:0"
         inkscape:connector-curvature="0"
         d="m 258.33,477.66 0,0.03 -0.01,0.03 0,0.03 -0.01,0.02 0,0.03 -0.01,0.03 -0.01,0.02 -0.01,0.03 -0.01,0.03 -0.01,0.02 -0.02,0.02 -0.01,0.03 -0.02,0.02 -0.01,0.02 -0.02,0.02 -0.02,0.02 -0.02,0.02 -0.02,0.02 -0.02,0.01 -0.02,0.02 -0.03,0.01 -0.02,0.02 -0.02,0.01 -0.03,0.01 -0.02,0.01 -0.03,0.01 -0.03,0.01 -0.02,0.01 -0.03,0 -0.03,0.01 -0.02,0 -0.03,0 c -0.3,0 -0.55,-0.25 -0.55,-0.57 0,-0.37 0.34,-0.53 0.55,-0.53 0.21,0 0.56,0.17 0.56,0.53 z"
         id="path3005" /><path
         style="fill:#000000;stroke-width:0"
         inkscape:connector-curvature="0"
         d="m 262.48,477.66 0,0.03 0,0.03 -0.01,0.03 0,0.02 -0.01,0.03 -0.01,0.03 0,0.02 -0.02,0.03 -0.01,0.03 -0.01,0.02 -0.01,0.02 -0.02,0.03 -0.01,0.02 -0.02,0.02 -0.02,0.02 -0.02,0.02 -0.02,0.02 -0.02,0.02 -0.02,0.01 -0.02,0.02 -0.02,0.01 -0.03,0.02 -0.02,0.01 -0.02,0.01 -0.03,0.01 -0.02,0.01 -0.03,0.01 -0.03,0.01 -0.02,0 -0.03,0.01 -0.03,0 -0.03,0 c -0.3,0 -0.54,-0.25 -0.54,-0.57 0,-0.37 0.33,-0.53 0.54,-0.53 0.21,0 0.56,0.17 0.56,0.53 z"
         id="path3007" /><path
         style="fill:#000000;stroke-width:0"
         inkscape:connector-curvature="0"
         d="m 266.77,477.3 0,0.03 0,0.04 0,0.04 0,0.03 -0.01,0.04 0,0.03 -0.01,0.03 0,0.03 -0.01,0.03 0,0.03 -0.01,0.03 -0.01,0.03 -0.01,0.03 -0.01,0.02 -0.01,0.03 -0.01,0.02 -0.01,0.03 -0.01,0.02 -0.03,0.04 -0.02,0.04 -0.03,0.04 -0.03,0.03 -0.03,0.03 -0.03,0.03 -0.03,0.03 -0.04,0.02 -0.03,0.03 -0.03,0.02 -0.04,0.01 -0.03,0.02 -0.03,0.01 -0.04,0.01 -0.03,0.01 -0.03,0.01 -0.03,0.01 -0.03,0.01 -0.03,0 -0.03,0 -0.03,0.01 -0.02,0 -0.02,0 c -0.25,0 -0.58,-0.15 -0.58,-0.58 0,-0.4 0.36,-0.5 0.62,-0.5 0.07,0 0.12,0.01 0.15,0.03 0.04,0 0.07,0.01 0.09,0.01 0.07,0 0.14,-0.04 0.14,-0.13 0,-0.19 -0.16,-0.64 -0.82,-1.06 l 0.09,-0.19 c 0.3,0.1 1.11,0.76 1.11,1.47 z"
         id="path3009" /><path
         style="fill:#000000;stroke-width:0"
         inkscape:connector-curvature="0"
         d="m 275.75,483.72 h -2.07 v -0.16 c 0.49,-0.06 0.6,-0.13 0.6,-0.36 0,-0.12 -0.05,-0.24 -0.2,-0.4 l -1.44,-1.66 -0.58,1.46 c -0.11,0.26 -0.15,0.43 -0.15,0.56 0,0.24 0.16,0.33 0.7,0.4 v 0.16 h -2.62 v -0.16 c 0.57,-0.05 0.72,-0.15 0.91,-0.6 l 1.06,-2.62 c -0.37,-0.41 -0.7,-0.8 -0.83,-0.96 -1.38,-1.63 -1.66,-1.88 -2.19,-1.99 v -0.16 h 2.13 v 0.16 c -0.48,0 -0.65,0.09 -0.65,0.34 0,0.15 0.08,0.32 0.21,0.47 l 1.51,1.71 0.66,-1.64 c 0.07,-0.18 0.11,-0.34 0.11,-0.49 0,-0.29 -0.1,-0.34 -0.76,-0.39 v -0.16 h 2.72 v 0.16 c -0.7,0.08 -0.79,0.14 -1.03,0.74 l -1.02,2.56 1.68,1.93 c 0.52,0.58 0.82,0.8 1.25,0.94 z"
         id="path3011" /><path
         style="fill:#000000;stroke-width:0"
         inkscape:connector-curvature="0"
         d="m 278.52,476.55 -0.15,-0.18 c -0.2,-0.25 -0.32,-0.36 -0.42,-0.36 -0.06,0 -0.11,0.05 -0.11,0.11 0,0.05 0,0.05 0.1,0.43 l 0.39,1.44 c 0.04,0.14 0.06,0.3 0.06,0.39 0,0.25 -0.18,0.43 -0.45,0.43 -0.45,0 -0.89,-0.42 -1.61,-1.53 l 0.47,1.51 -0.02,0.02 c -0.38,-0.08 -0.52,-0.11 -1.13,-0.22 v -0.11 c 0.36,-0.01 0.45,-0.05 0.45,-0.19 0,-0.04 -0.01,-0.08 -0.02,-0.12 l -0.66,-2.43 h 0.52 c 0.32,1.1 0.39,1.25 0.69,1.73 0.42,0.64 0.78,0.98 1.03,0.98 0.11,0 0.17,-0.07 0.17,-0.2 0,-0.08 -0.04,-0.31 -0.1,-0.53 l -0.3,-1.14 c -0.09,-0.36 -0.11,-0.46 -0.11,-0.53 0,-0.26 0.09,-0.37 0.32,-0.37 0.32,0 0.5,0.14 0.98,0.78 z"
         id="path3013" /></g>    <path
       inkscape:connector-curvature="0"
       inkscape:original-d="m 219.04089,967.20715 -70.12359,0"
       inkscape:path-effect="#path-effect3033"
       id="path3031"
       d="m 219.04089,967.20715 -70.12359,0"
       style="fill:none;stroke:#000000;stroke-width:1.25;stroke-linecap:butt;stroke-linejoin:miter;stroke-miterlimit:4;stroke-opacity:1;stroke-dasharray:none;marker-start:url(#Arrow1Mstart)" />
    <path
       inkscape:connector-curvature="0"
       inkscape:original-d="m 140.54784,945.60054 -77.567054,0"
       inkscape:path-effect="#path-effect3033-3"
       id="path3031-6"
       d="m 140.54784,945.60054 -77.567054,0"
       style="fill:none;stroke:#000000;stroke-width:1.38268471;stroke-linecap:butt;stroke-linejoin:miter;stroke-miterlimit:4;stroke-opacity:1;stroke-dasharray:none" />
    <path
       inkscape:connector-curvature="0"
       inkscape:original-d="m 140.54784,989.05639 -77.567054,0"
       inkscape:path-effect="#path-effect3033-3-7"
       id="path3031-6-5"
       d="m 140.54784,989.05639 -77.567054,0"
       style="fill:none;stroke:#000000;stroke-width:1.38268471;stroke-linecap:butt;stroke-linejoin:miter;stroke-miterlimit:4;stroke-opacity:1;stroke-dasharray:none" />
    <path
       inkscape:connector-curvature="0"
       inkscape:original-d="m 63.049146,989.75439 0,-44.78707"
       inkscape:path-effect="#path-effect3033-3-3"
       id="path3031-6-56"
       d="m 63.049146,989.75439 0,-44.78707"
       style="fill:none;stroke:#000000;stroke-width:1.42112827;stroke-linecap:butt;stroke-linejoin:miter;stroke-miterlimit:4;stroke-opacity:1;stroke-dasharray:none" />
    <path
       inkscape:connector-curvature="0"
       inkscape:original-d="m 140.47948,989.70229 0,-44.74768"
       inkscape:path-effect="#path-effect3033-3-2"
       id="path3031-6-9"
       d="m 140.47948,989.70229 0,-44.74768"
       style="fill:none;stroke:#000000;stroke-width:1.38268471;stroke-linecap:butt;stroke-linejoin:miter;stroke-miterlimit:4;stroke-opacity:1;stroke-dasharray:none" />
    <g
       ns0:preamble="/home/sriranga/Desktop/Beamer-prathi/article24/figure/package.tex"
       ns0:text="Gateway computers"
       word-spacing="normal"
       letter-spacing="normal"
       font-size-adjust="none"
       font-stretch="normal"
       font-weight="normal"
       font-variant="normal"
       font-style="normal"
       stroke-miterlimit="10.433"
       xml:space="preserve"
       transform="matrix(1.2,0,0,-1.2,-190,1491.4286)"
       id="g3356"
       style="font-style:normal;font-variant:normal;font-weight:normal;font-stretch:normal;letter-spacing:normal;word-spacing:normal;text-anchor:start;fill:none;stroke:#000000;stroke-linecap:butt;stroke-linejoin:miter;stroke-miterlimit:10.43299961;stroke-opacity:1;stroke-dasharray:none;stroke-dashoffset:0"><path
         id="path3358"
         d="m 230.49,445.92857 h -2.54 v -0.18 c 0.43,-0.03 0.55,-0.06 0.67,-0.14 0.14,-0.09 0.2,-0.31 0.2,-0.74 v -1.61 c 0,-0.32 -0.6,-0.59 -1.32,-0.59 -1.62,0 -2.62,1.14 -2.62,2.98 0,0.94 0.28,1.84 0.72,2.33 0.44,0.49 1.06,0.75 1.73,0.75 0.56,0 1.05,-0.19 1.43,-0.54 0.3,-0.28 0.46,-0.55 0.71,-1.16 h 0.23 l -0.08,2.1 h -0.22 c -0.06,-0.19 -0.24,-0.33 -0.45,-0.33 -0.1,0 -0.25,0.03 -0.43,0.1 -0.45,0.15 -0.91,0.23 -1.36,0.23 -1.99,0 -3.41,-1.46 -3.41,-3.49 0,-0.97 0.27,-1.72 0.83,-2.3 0.66,-0.69 1.62,-1.06 2.71,-1.06 0.86,0 2.1,0.34 2.5,0.69 v 2.02 c 0,0.58 0.12,0.71 0.7,0.76 z"
         inkscape:connector-curvature="0"
         style="fill:#000000;stroke-width:0" /><path
         id="path3360"
         d="m 235.02,443.06857 -0.01,-0.01 -0.02,-0.01 -0.01,-0.02 -0.02,-0.01 -0.01,-0.01 -0.02,-0.01 -0.01,-0.01 -0.02,-0.01 -0.01,-0.01 -0.01,0 -0.02,-0.01 -0.01,-0.01 -0.01,-0.01 -0.02,0 -0.01,-0.01 -0.01,-0.01 -0.02,0 -0.01,-0.01 -0.01,0 -0.02,0 -0.01,-0.01 -0.01,0 -0.01,-0.01 -0.02,0 -0.02,0 -0.03,-0.01 -0.03,0 -0.02,0 c -0.23,0 -0.3,0.14 -0.3,0.58 v 1.93 c 0,0.52 -0.05,0.81 -0.2,1.05 -0.22,0.36 -0.65,0.54 -1.24,0.54 -0.93,0 -1.67,-0.48 -1.67,-1.11 0,-0.23 0.2,-0.42 0.43,-0.42 0.24,0 0.45,0.19 0.45,0.41 0,0.04 -0.01,0.09 -0.02,0.16 -0.02,0.09 -0.03,0.17 -0.03,0.24 0,0.27 0.32,0.49 0.71,0.49 0.49,0 0.76,-0.29 0.76,-0.83 v -0.6 -0.24 -1.44 c 0,-0.31 -0.05,-0.4 -0.26,-0.52 -0.24,-0.14 -0.52,-0.23 -0.73,-0.23 -0.34,0 -0.62,0.34 -0.62,0.77 v 0.04 c 0,0.58 0.41,0.94 1.61,1.38 v 0.24 c -1.53,-0.62 -1.7,-0.7 -2.13,-1.08 -0.22,-0.2 -0.36,-0.53 -0.36,-0.86 0,-0.63 0.44,-1.06 1.05,-1.06 0.44,0 0.84,0.2 1.45,0.72 0.05,-0.52 0.23,-0.72 0.64,-0.72 0.33,0 0.54,0.12 0.89,0.49 z"
         inkscape:connector-curvature="0"
         style="fill:#000000;stroke-width:0" /><path
         id="path3362"
         d="m 237.59,446.87857 h -1.01 v 1.16 c 0,0.1 -0.01,0.13 -0.07,0.13 -0.07,-0.09 -0.13,-0.18 -0.2,-0.28 -0.38,-0.55 -0.8,-1.03 -0.96,-1.06 -0.11,-0.07 -0.17,-0.14 -0.17,-0.19 0,-0.03 0.01,-0.05 0.04,-0.07 h 0.52 v -2.99 c 0,-0.84 0.3,-1.26 0.89,-1.26 0.49,0 0.87,0.23 1.19,0.75 l -0.12,0.11 c -0.21,-0.25 -0.38,-0.35 -0.6,-0.35 -0.37,0 -0.52,0.27 -0.52,0.9 v 2.84 h 1.01 z"
         inkscape:connector-curvature="0"
         style="fill:#000000;stroke-width:0" /><path
         id="path3364"
         d="m 241.88,444.03857 -0.05,-0.07 -0.04,-0.06 -0.05,-0.07 -0.04,-0.06 -0.04,-0.06 -0.05,-0.05 -0.04,-0.06 -0.05,-0.05 -0.04,-0.05 -0.04,-0.04 -0.05,-0.05 -0.04,-0.04 -0.05,-0.04 -0.04,-0.03 -0.05,-0.04 -0.04,-0.03 -0.05,-0.03 -0.05,-0.03 -0.04,-0.02 -0.05,-0.03 -0.05,-0.02 -0.05,-0.02 -0.05,-0.02 -0.05,-0.01 -0.05,-0.02 -0.06,-0.01 -0.05,-0.01 -0.06,-0.01 -0.05,0 -0.06,-0.01 -0.06,0 -0.05,0 c -0.57,0 -1,0.29 -1.29,0.85 -0.18,0.38 -0.25,0.71 -0.27,1.32 l 0.02,0.31 c 0.11,0.78 0.45,1.15 1.06,1.15 0.6,0 0.84,-0.28 0.97,-1.15 h -2.03 l -0.02,-0.31 h 3.07 c -0.08,0.64 -0.18,0.93 -0.43,1.25 -0.3,0.36 -0.76,0.56 -1.27,0.56 -0.5,0 -0.97,-0.17 -1.35,-0.51 -0.46,-0.41 -0.73,-1.12 -0.73,-1.93 0,-1.37 0.71,-2.22 1.86,-2.22 0.94,0 1.69,0.58 2.11,1.66 z"
         inkscape:connector-curvature="0"
         style="fill:#000000;stroke-width:0" /><path
         id="path3366"
         d="m 247.67,446.87857 v -0.14 c 0.34,-0.07 0.44,-0.14 0.44,-0.31 0,-0.15 -0.06,-0.39 -0.17,-0.66 l -0.89,-2.2 -0.84,2.22 c -0.17,0.46 -0.17,0.46 -0.17,0.59 0,0.22 0.11,0.29 0.58,0.36 v 0.14 h -2.02 v -0.14 c 0.37,-0.04 0.49,-0.15 0.69,-0.69 0.06,-0.19 0.14,-0.38 0.19,-0.56 l -0.9,-1.97 -0.99,2.59 c -0.04,0.1 -0.06,0.2 -0.06,0.3 0,0.21 0.12,0.29 0.46,0.33 v 0.14 h -1.79 v -0.14 c 0.23,-0.02 0.31,-0.12 0.53,-0.63 l 1.34,-3.4 c 0.12,-0.3 0.2,-0.43 0.26,-0.43 0.05,0 0.13,0.13 0.25,0.38 l 1.11,2.39 0.91,-2.35 c 0.14,-0.36 0.18,-0.42 0.24,-0.42 0.07,0 0.12,0.08 0.28,0.48 l 1.37,3.44 c 0.18,0.42 0.21,0.47 0.41,0.54 v 0.14 z"
         inkscape:connector-curvature="0"
         style="fill:#000000;stroke-width:0" /><path
         id="path3368"
         d="m 253.48,443.06857 -0.01,-0.01 -0.02,-0.01 -0.01,-0.02 -0.02,-0.01 -0.01,-0.01 -0.02,-0.01 -0.01,-0.01 -0.02,-0.01 -0.01,-0.01 -0.01,0 -0.02,-0.01 -0.01,-0.01 -0.01,-0.01 -0.02,0 -0.01,-0.01 -0.01,-0.01 -0.02,0 -0.01,-0.01 -0.01,0 -0.02,0 -0.01,-0.01 -0.01,0 -0.01,-0.01 -0.02,0 -0.02,0 -0.03,-0.01 -0.03,0 -0.03,0 c -0.22,0 -0.29,0.14 -0.29,0.58 v 1.93 c 0,0.52 -0.05,0.81 -0.2,1.05 -0.22,0.36 -0.65,0.54 -1.24,0.54 -0.93,0 -1.67,-0.48 -1.67,-1.11 0,-0.23 0.2,-0.42 0.43,-0.42 0.24,0 0.45,0.19 0.45,0.41 0,0.04 -0.01,0.09 -0.02,0.16 -0.02,0.09 -0.03,0.17 -0.03,0.24 0,0.27 0.32,0.49 0.71,0.49 0.49,0 0.76,-0.29 0.76,-0.83 v -0.6 -0.24 -1.44 c 0,-0.31 -0.05,-0.4 -0.26,-0.52 -0.24,-0.14 -0.52,-0.23 -0.72,-0.23 -0.35,0 -0.63,0.34 -0.63,0.77 v 0.04 c 0,0.58 0.41,0.94 1.61,1.38 v 0.24 c -1.53,-0.62 -1.7,-0.7 -2.13,-1.08 -0.22,-0.2 -0.36,-0.53 -0.36,-0.86 0,-0.63 0.44,-1.06 1.05,-1.06 0.44,0 0.84,0.2 1.45,0.72 0.05,-0.52 0.23,-0.72 0.64,-0.72 0.34,0 0.54,0.12 0.89,0.49 z"
         inkscape:connector-curvature="0"
         style="fill:#000000;stroke-width:0" /><path
         id="path3370"
         d="m 258.23,446.87857 h -1.34 v -0.14 c 0.32,0 0.48,-0.09 0.48,-0.25 0,-0.04 -0.01,-0.1 -0.04,-0.17 l -0.97,-2.74 -1.14,2.51 c -0.06,0.14 -0.1,0.27 -0.1,0.38 0,0.18 0.15,0.25 0.58,0.27 v 0.14 h -2.05 v -0.13 c 0.26,-0.04 0.43,-0.15 0.51,-0.32 l 1.13,-2.45 0.03,-0.07 0.15,-0.3 c 0.28,-0.5 0.44,-0.86 0.44,-1.01 0,-0.15 -0.23,-0.77 -0.4,-1.07 -0.14,-0.26 -0.36,-0.45 -0.5,-0.45 -0.06,0 -0.15,0.02 -0.25,0.07 -0.19,0.07 -0.36,0.11 -0.52,0.11 -0.23,0 -0.43,-0.2 -0.43,-0.43 0,-0.33 0.32,-0.58 0.73,-0.58 0.67,0 1.15,0.56 1.69,1.99 l 1.53,4.05 c 0.13,0.32 0.24,0.42 0.47,0.45 z"
         inkscape:connector-curvature="0"
         style="fill:#000000;stroke-width:0" /><path
         id="path3372"
         d="m 225.35667,433.84952 -0.04,-0.07 -0.05,-0.06 -0.04,-0.06 -0.04,-0.05 -0.05,-0.06 -0.04,-0.05 -0.04,-0.05 -0.04,-0.04 -0.04,-0.05 -0.04,-0.04 -0.04,-0.04 -0.04,-0.04 -0.04,-0.03 -0.05,-0.03 -0.04,-0.03 -0.04,-0.03 -0.04,-0.03 -0.04,-0.02 -0.04,-0.03 -0.04,-0.02 -0.05,-0.02 -0.04,-0.01 -0.05,-0.02 -0.04,-0.01 -0.05,-0.01 -0.04,-0.01 -0.05,-0.01 -0.05,-0.01 -0.05,0 -0.05,-0.01 -0.05,0 -0.05,0 c -0.91,0 -1.54,0.8 -1.54,1.94 0,1.02 0.54,1.73 1.35,1.73 0.36,0 0.49,-0.11 0.59,-0.48 l 0.06,-0.22 c 0.08,-0.28 0.25,-0.46 0.46,-0.46 0.26,0 0.48,0.19 0.48,0.42 0,0.56 -0.7,1.02 -1.53,1.02 -0.49,0 -1,-0.19 -1.4,-0.55 -0.5,-0.44 -0.78,-1.11 -0.78,-1.9 0,-1.29 0.79,-2.21 1.89,-2.21 0.45,0 0.85,0.16 1.2,0.46 0.27,0.24 0.46,0.51 0.76,1.1 z"
         inkscape:connector-curvature="0"
         style="fill:#000000;stroke-width:0" /><path
         id="path3374"
         d="m 228.30667,436.85952 -0.12,0 -0.12,-0.01 -0.11,-0.01 -0.11,-0.02 -0.11,-0.02 -0.11,-0.03 -0.11,-0.04 -0.1,-0.04 -0.1,-0.04 -0.09,-0.05 -0.09,-0.05 -0.09,-0.06 -0.09,-0.06 -0.08,-0.07 -0.08,-0.07 -0.07,-0.07 -0.07,-0.08 -0.07,-0.08 -0.06,-0.09 -0.06,-0.09 -0.06,-0.1 -0.05,-0.09 -0.04,-0.1 -0.05,-0.11 -0.03,-0.11 -0.03,-0.11 -0.03,-0.11 -0.03,-0.12 -0.01,-0.12 -0.02,-0.12 0,-0.12 -0.01,-0.13 c 0,-1.34 0.93,-2.34 2.18,-2.34 l 0.12,0.27 c -0.39,0 -0.76,0.24 -0.96,0.64 -0.28,0.52 -0.44,1.21 -0.44,1.92 0,0.94 0.47,1.56 1.17,1.56 h 0 c 0.84,0 1.42,-0.96 1.42,-2.32 0,-1.12 -0.44,-1.8 -1.19,-1.8 l -0.12,-0.27 c 1.25,0 2.21,1.05 2.21,2.42 0,1.3 -0.91,2.24 -2.19,2.24 z"
         inkscape:connector-curvature="0"
         style="fill:#000000;stroke-width:0" /><path
         id="path3376"
         d="m 230.99667,436.24952 0.01,0 0.01,0 0.01,0.01 0.01,0 0.01,0 0.01,0 0.02,0.01 0.02,0 0.02,0 0.02,0.01 0.02,0 0.02,0 0.02,0 0.02,0 0.02,0.01 0.01,0 0.02,0 0.02,0 0.02,0 c 0.26,0 0.35,-0.16 0.35,-0.64 v -2.51 c 0,-0.54 -0.14,-0.69 -0.69,-0.7 v -0.15 h 2.2 v 0.15 c -0.52,0.02 -0.67,0.13 -0.67,0.52 v 2.8 c 0,0.02 0.08,0.12 0.15,0.19 0.25,0.23 0.67,0.4 1.02,0.4 0.44,0 0.66,-0.35 0.66,-1.05 v -2.15 c 0,-0.56 -0.11,-0.67 -0.68,-0.71 v -0.15 h 2.23 v 0.15 c -0.57,0.01 -0.72,0.18 -0.72,0.8 v 2.5 c 0.3,0.43 0.63,0.61 1.09,0.61 0.56,0 0.74,-0.27 0.74,-1.09 v -2.1 c 0,-0.57 -0.08,-0.65 -0.65,-0.72 v -0.15 h 2.18 v 0.15 l -0.26,0.02 c -0.3,0.02 -0.43,0.2 -0.43,0.59 v 2.05 c 0,1.17 -0.39,1.76 -1.15,1.76 -0.58,0 -1.09,-0.25 -1.63,-0.83 -0.18,0.57 -0.51,0.83 -1.05,0.83 -0.44,0 -0.72,-0.13 -1.54,-0.76 v 0.75 l -0.07,0.01 c -0.51,-0.18 -0.85,-0.29 -1.39,-0.44 z"
         inkscape:connector-curvature="0"
         style="fill:#000000;stroke-width:0" /><path
         id="path3378"
         d="m 238.64667,436.19952 0.01,0 0.02,0 0.01,0 0.02,0 0.02,0.01 0.01,0 0.02,0 0.01,0 0.03,0 0.02,0 0.01,0 0.02,0 0.01,0 0.02,0 0.02,0 c 0.33,0 0.4,-0.1 0.4,-0.57 v -4.65 c 0,-0.51 -0.11,-0.62 -0.69,-0.68 v -0.17 h 2.4 v 0.18 c -0.74,0.01 -0.87,0.12 -0.87,0.74 v 1.56 c 0.35,-0.33 0.58,-0.42 1,-0.42 l 0.03,0.31 c -0.46,0 -1.03,0.36 -1.03,0.66 v 2.44 c 0,0.3 0.56,0.66 1.01,0.66 0.74,0 1.23,-0.76 1.23,-1.91 0,-1.1 -0.49,-1.85 -1.21,-1.85 l -0.03,-0.31 c 1.18,0 2.09,1.11 2.09,2.55 0,1.23 -0.69,2.11 -1.66,2.11 -0.56,0 -0.99,-0.24 -1.43,-0.78 v 0.77 l -0.06,0.01 c -0.54,-0.2 -0.89,-0.33 -1.43,-0.5 z"
         inkscape:connector-curvature="0"
         style="fill:#000000;stroke-width:0" /><path
         id="path3380"
         d="m 248.29667,432.78952 h -0.05 c -0.45,0 -0.56,0.11 -0.56,0.57 v 3.4 h -1.57 v -0.16 c 0.61,-0.03 0.73,-0.13 0.73,-0.63 v -2.33 c 0,-0.28 -0.05,-0.42 -0.19,-0.53 -0.27,-0.22 -0.57,-0.34 -0.87,-0.34 -0.39,0 -0.71,0.34 -0.71,0.76 v 3.23 h -1.45 v -0.13 c 0.47,-0.03 0.61,-0.18 0.61,-0.64 v -2.5 c 0,-0.79 0.48,-1.29 1.21,-1.29 0.37,0 0.75,0.16 1.02,0.42 l 0.43,0.43 v -0.82 l 0.04,-0.02 c 0.5,0.19 0.86,0.3 1.36,0.44 z"
         inkscape:connector-curvature="0"
         style="fill:#000000;stroke-width:0" /><path
         id="path3382"
         d="m 251.05667,436.75952 h -1.01 v 1.16 c 0,0.1 -0.01,0.13 -0.07,0.13 -0.07,-0.09 -0.13,-0.18 -0.2,-0.28 -0.38,-0.55 -0.8,-1.03 -0.96,-1.06 -0.11,-0.07 -0.17,-0.14 -0.17,-0.19 0,-0.03 0.01,-0.05 0.04,-0.07 h 0.53 v -2.99 c 0,-0.84 0.29,-1.26 0.88,-1.26 0.49,0 0.87,0.23 1.2,0.75 l -0.13,0.11 c -0.21,-0.25 -0.38,-0.35 -0.6,-0.35 -0.37,0 -0.52,0.27 -0.52,0.9 v 2.84 h 1.01 z"
         inkscape:connector-curvature="0"
         style="fill:#000000;stroke-width:0" /><path
         id="path3384"
         d="m 255.34667,433.91952 -0.05,-0.07 -0.04,-0.06 -0.05,-0.07 -0.04,-0.06 -0.04,-0.06 -0.05,-0.05 -0.04,-0.06 -0.05,-0.05 -0.04,-0.05 -0.04,-0.04 -0.05,-0.05 -0.04,-0.04 -0.05,-0.04 -0.04,-0.03 -0.05,-0.04 -0.04,-0.03 -0.05,-0.03 -0.05,-0.03 -0.04,-0.02 -0.05,-0.03 -0.05,-0.02 -0.05,-0.02 -0.05,-0.02 -0.05,-0.01 -0.05,-0.02 -0.06,-0.01 -0.05,-0.01 -0.05,-0.01 -0.06,0 -0.06,-0.01 -0.05,0 -0.06,0 c -0.57,0 -1,0.29 -1.29,0.85 -0.18,0.38 -0.25,0.71 -0.27,1.32 l 0.02,0.31 c 0.11,0.78 0.45,1.15 1.06,1.15 0.61,0 0.84,-0.28 0.97,-1.15 h -2.03 l -0.02,-0.31 h 3.07 c -0.08,0.64 -0.18,0.93 -0.43,1.25 -0.3,0.36 -0.76,0.56 -1.27,0.56 -0.5,0 -0.97,-0.17 -1.35,-0.51 -0.46,-0.41 -0.73,-1.12 -0.73,-1.93 0,-1.37 0.71,-2.22 1.86,-2.22 0.94,0 1.69,0.58 2.11,1.66 z"
         inkscape:connector-curvature="0"
         style="fill:#000000;stroke-width:0" /><path
         id="path3386"
         d="m 255.77667,436.16952 0.01,0 0.02,0 0.01,0.01 0.01,0 0.03,0 0.02,0.01 0.02,0 0.02,0 0.02,0.01 0.02,0 0.02,0 0.02,0 0.02,0.01 0.02,0 0.03,0 0.02,0 0.02,0 0.02,0 c 0.25,0 0.34,-0.16 0.34,-0.6 v -2.48 c 0,-0.5 -0.07,-0.57 -0.71,-0.69 v -0.15 h 2.39 v 0.15 c -0.68,0.03 -0.85,0.18 -0.85,0.75 v 2.23 c 0,0.32 0.43,0.82 0.7,0.82 0.06,0 0.15,-0.05 0.26,-0.15 0.16,-0.14 0.27,-0.2 0.4,-0.2 0.24,0 0.38,0.17 0.38,0.45 0,0.33 -0.2,0.52 -0.54,0.52 -0.42,0 -0.71,-0.22 -1.2,-0.93 v 0.92 l -0.05,0.01 c -0.52,-0.21 -0.88,-0.34 -1.47,-0.53 z"
         inkscape:connector-curvature="0"
         style="fill:#000000;stroke-width:0" /><path
         id="path3388"
         d="m 262.15667,435.40952 -0.04,1.35 h -0.11 l -0.02,-0.02 c -0.09,-0.06 -0.09,-0.07 -0.14,-0.07 -0.05,0 -0.15,0.02 -0.26,0.06 -0.22,0.09 -0.44,0.13 -0.7,0.13 -0.79,0 -1.35,-0.51 -1.35,-1.23 0,-0.55 0.31,-0.95 1.16,-1.43 l 0.58,-0.33 c 0.35,-0.19 0.52,-0.43 0.52,-0.74 0,-0.44 -0.32,-0.72 -0.83,-0.72 -0.34,0 -0.65,0.13 -0.84,0.35 -0.2,0.25 -0.29,0.48 -0.42,1.04 h -0.16 v -1.54 h 0.13 c 0.07,0.1 0.11,0.11 0.22,0.11 0.1,0 0.23,-0.01 0.46,-0.08 0.28,-0.06 0.55,-0.09 0.73,-0.09 0.76,0 1.4,0.57 1.4,1.27 0,0.49 -0.24,0.82 -0.83,1.18 l -1.08,0.64 c -0.28,0.15 -0.43,0.4 -0.43,0.67 0,0.4 0.31,0.68 0.77,0.68 0.57,0 0.86,-0.34 1.09,-1.23 z"
         inkscape:connector-curvature="0"
         style="fill:#000000;stroke-width:0" /></g>  </g>
</svg>
