<?xml version="1.0" encoding="UTF-8" standalone="no"?>
<!-- Created with Inkscape (http://www.inkscape.org/) -->

<svg
   xmlns:ns0="http://www.iki.fi/pav/software/textext/"
   xmlns:dc="http://purl.org/dc/elements/1.1/"
   xmlns:cc="http://creativecommons.org/ns#"
   xmlns:rdf="http://www.w3.org/1999/02/22-rdf-syntax-ns#"
   xmlns:svg="http://www.w3.org/2000/svg"
   xmlns="http://www.w3.org/2000/svg"
   xmlns:xlink="http://www.w3.org/1999/xlink"
   xmlns:sodipodi="http://sodipodi.sourceforge.net/DTD/sodipodi-0.dtd"
   xmlns:inkscape="http://www.inkscape.org/namespaces/inkscape"
   width="248.03149"
   height="141.73228"
   id="svg2985"
   version="1.1"
   inkscape:version="0.48.1 r9760"
   sodipodi:docname="New document 2">
  <sodipodi:namedview
     id="base"
     pagecolor="#ffffff"
     bordercolor="#666666"
     borderopacity="1.0"
     inkscape:pageopacity="0.0"
     inkscape:pageshadow="2"
     inkscape:zoom="3.959798"
     inkscape:cx="178.12777"
     inkscape:cy="74.611408"
     inkscape:document-units="px"
     inkscape:current-layer="layer1"
     showgrid="false"
     units="cm"
     inkscape:window-width="1600"
     inkscape:window-height="852"
     inkscape:window-x="0"
     inkscape:window-y="24"
     inkscape:window-maximized="1" />
  <defs
     id="defs2987">
    <marker
       style="overflow:visible"
       id="Arrow1Mend"
       refX="0"
       refY="0"
       orient="auto"
       inkscape:stockid="Arrow1Mend">
      <path
         transform="matrix(-0.4,0,0,-0.4,-4,0)"
         style="fill-rule:evenodd;stroke:#000000;stroke-width:1pt"
         d="M 0,0 5,-5 -12.5,0 5,5 0,0 z"
         id="path3818"
         inkscape:connector-curvature="0" />
    </marker>
  </defs>
  <metadata
     id="metadata2990">
    <rdf:RDF>
      <cc:Work
         rdf:about="">
        <dc:format>image/svg+xml</dc:format>
        <dc:type
           rdf:resource="http://purl.org/dc/dcmitype/StillImage" />
        <dc:title></dc:title>
      </cc:Work>
    </rdf:RDF>
  </metadata>
  <g
     inkscape:label="Layer 1"
     inkscape:groupmode="layer"
     id="layer1"
     transform="translate(0,-910.62858)">
    <path
       inkscape:connector-curvature="0"
       id="path2985"
       d="m 18.946508,953.95305 51.880172,0"
       style="fill:none;stroke:#000000;stroke-width:1.25;stroke-linecap:butt;stroke-linejoin:miter;stroke-miterlimit:4;stroke-opacity:1;stroke-dasharray:none" />
    <path
       inkscape:connector-curvature="0"
       id="path2985-3"
       d="m 19.050269,1005.5237 51.880171,0"
       style="fill:none;stroke:#000000;stroke-width:1.25;stroke-linecap:butt;stroke-linejoin:miter;stroke-miterlimit:4;stroke-opacity:1;stroke-dasharray:none" />
    <path
       inkscape:connector-curvature="0"
       id="path2985-6"
       d="m 19.361548,953.64177 0,51.88193"
       style="fill:none;stroke:#000000;stroke-width:1.25;stroke-linecap:butt;stroke-linejoin:miter;stroke-miterlimit:4;stroke-opacity:1;stroke-dasharray:none" />
    <path
       inkscape:connector-curvature="0"
       id="path2985-7"
       d="m 70.51541,953.95306 0,51.88194"
       style="fill:none;stroke:#000000;stroke-width:1.25;stroke-linecap:butt;stroke-linejoin:miter;stroke-miterlimit:4;stroke-opacity:1;stroke-dasharray:none" />
    <path
       inkscape:connector-curvature="0"
       id="path2985-7-5"
       d="m 70.45628,979.87612 53.95125,0"
       style="fill:none;stroke:#000000;stroke-width:1.25;stroke-linecap:butt;stroke-linejoin:miter;stroke-miterlimit:4;stroke-opacity:1;stroke-dasharray:5, 5;stroke-dashoffset:0;marker-start:none;marker-end:url(#Arrow1Mend)" />
    <g
       id="g3702"
       transform="matrix(1.2,0,0,1.2,-129.54627,820.49012)"
       ns0:preamble=""
       ns0:text="$X_1, X_2, \\ldots, X_n$">
      <defs
         id="defs3704">
        <g
           id="g3706">
          <symbol
             style="overflow:visible"
             id="textext-48025fa5-0"
             overflow="visible">
            <path
               inkscape:connector-curvature="0"
               id="path3709"
               d="M 4.828125,-4.09375 4,-6.078125 c -0.03125,-0.078125 -0.046875,-0.125 -0.046875,-0.125 0,-0.0625 0.15625,-0.25 0.578125,-0.296875 0.109375,-0.015625 0.203125,-0.015625 0.203125,-0.1875 0,-0.125 -0.125,-0.125 -0.15625,-0.125 -0.40625,0 -0.828125,0.03125 -1.25,0.03125 -0.25,0 -0.859375,-0.03125 -1.109375,-0.03125 -0.0625,0 -0.1875,0 -0.1875,0.203125 C 2.03125,-6.5 2.140625,-6.5 2.265625,-6.5 c 0.59375,0 0.65625,0.09375 0.75,0.3125 l 1.171875,2.78125 -2.109375,2.265625 -0.125,0.109375 C 1.46875,-0.5 1,-0.34375 0.484375,-0.3125 c -0.125,0.015625 -0.21875,0.015625 -0.21875,0.203125 0,0.015625 0,0.109375 0.140625,0.109375 0.296875,0 0.625,-0.03125 0.921875,-0.03125 C 1.703125,-0.03125 2.09375,0 2.453125,0 2.515625,0 2.625,0 2.625,-0.203125 2.625,-0.296875 2.53125,-0.3125 2.515625,-0.3125 c -0.09375,0 -0.40625,-0.03125 -0.40625,-0.3125 0,-0.15625 0.15625,-0.3125 0.265625,-0.4375 L 3.40625,-2.140625 4.296875,-3.125 l 1,2.390625 c 0.046875,0.109375 0.0625,0.109375 0.0625,0.140625 0,0.078125 -0.203125,0.25 -0.578125,0.28125 C 4.671875,-0.296875 4.578125,-0.296875 4.578125,-0.125 4.578125,0 4.6875,0 4.71875,0 5,0 5.703125,-0.03125 5.984375,-0.03125 6.234375,-0.03125 6.84375,0 7.09375,0 c 0.0625,0 0.1875,0 0.1875,-0.1875 0,-0.125 -0.109375,-0.125 -0.1875,-0.125 -0.65625,0 -0.6875,-0.03125 -0.859375,-0.4375 C 5.859375,-1.671875 5.1875,-3.234375 4.953125,-3.828125 5.625,-4.53125 6.671875,-5.71875 7,-5.984375 7.28125,-6.234375 7.671875,-6.46875 8.265625,-6.5 c 0.125,-0.015625 0.21875,-0.015625 0.21875,-0.203125 0,0 0,-0.109375 -0.125,-0.109375 -0.296875,0 -0.640625,0.03125 -0.9375,0.03125 -0.375,0 -0.75,-0.03125 -1.109375,-0.03125 -0.0625,0 -0.1875,0 -0.1875,0.203125 0,0.0625 0.046875,0.09375 0.109375,0.109375 0.09375,0.015625 0.40625,0.03125 0.40625,0.3125 0,0.140625 -0.109375,0.265625 -0.1875,0.359375 z m 0,0"
               style="stroke:none" />
          </symbol>
          <symbol
             style="overflow:visible"
             id="textext-48025fa5-1"
             overflow="visible">
            <path
               inkscape:connector-curvature="0"
               id="path3712"
               d="m 2.03125,-0.015625 c 0,-0.65625 -0.25,-1.046875 -0.640625,-1.046875 -0.328125,0 -0.53125,0.25 -0.53125,0.53125 C 0.859375,-0.265625 1.0625,0 1.390625,0 1.5,0 1.640625,-0.046875 1.734375,-0.125 1.765625,-0.15625 1.78125,-0.15625 1.78125,-0.15625 c 0.015625,0 0.015625,0 0.015625,0.140625 0,0.75 -0.34375,1.34375 -0.671875,1.671875 -0.109375,0.109375 -0.109375,0.125 -0.109375,0.15625 0,0.078125 0.046875,0.109375 0.09375,0.109375 0.109375,0 0.921875,-0.765625 0.921875,-1.9375 z m 0,0"
               style="stroke:none" />
          </symbol>
          <symbol
             style="overflow:visible"
             id="textext-48025fa5-2"
             overflow="visible">
            <path
               inkscape:connector-curvature="0"
               id="path3715"
               d="m 1.90625,-0.53125 c 0,-0.28125 -0.234375,-0.53125 -0.515625,-0.53125 -0.296875,0 -0.53125,0.25 -0.53125,0.53125 C 0.859375,-0.234375 1.09375,0 1.390625,0 1.671875,0 1.90625,-0.234375 1.90625,-0.53125 z m 0,0"
               style="stroke:none" />
          </symbol>
          <symbol
             style="overflow:visible"
             id="textext-48025fa5-3"
             overflow="visible">
            <path
               inkscape:connector-curvature="0"
               id="path3718"
               d="m 2.328125,-4.4375 c 0,-0.1875 0,-0.1875 -0.203125,-0.1875 -0.453125,0.4375 -1.078125,0.4375 -1.359375,0.4375 l 0,0.25 c 0.15625,0 0.625,0 1,-0.1875 l 0,3.546875 c 0,0.234375 0,0.328125 -0.6875,0.328125 l -0.265625,0 0,0.25 c 0.125,0 0.984375,-0.03125 1.234375,-0.03125 0.21875,0 1.09375,0.03125 1.25,0.03125 l 0,-0.25 -0.265625,0 c -0.703125,0 -0.703125,-0.09375 -0.703125,-0.328125 z m 0,0"
               style="stroke:none" />
          </symbol>
          <symbol
             style="overflow:visible"
             id="textext-48025fa5-4"
             overflow="visible">
            <path
               inkscape:connector-curvature="0"
               id="path3721"
               d="m 3.515625,-1.265625 -0.234375,0 c -0.015625,0.15625 -0.09375,0.5625 -0.1875,0.625 -0.046875,0.046875 -0.578125,0.046875 -0.6875,0.046875 l -1.28125,0 c 0.734375,-0.640625 0.984375,-0.84375 1.390625,-1.171875 0.515625,-0.40625 1,-0.84375 1,-1.5 0,-0.84375 -0.734375,-1.359375 -1.625,-1.359375 -0.859375,0 -1.453125,0.609375 -1.453125,1.25 0,0.34375 0.296875,0.390625 0.375,0.390625 0.15625,0 0.359375,-0.125 0.359375,-0.375 0,-0.125 -0.046875,-0.375 -0.40625,-0.375 C 0.984375,-4.21875 1.453125,-4.375 1.78125,-4.375 c 0.703125,0 1.0625,0.546875 1.0625,1.109375 0,0.609375 -0.4375,1.078125 -0.65625,1.328125 L 0.515625,-0.265625 C 0.4375,-0.203125 0.4375,-0.1875 0.4375,0 l 2.875,0 z m 0,0"
               style="stroke:none" />
          </symbol>
          <symbol
             style="overflow:visible"
             id="textext-48025fa5-5"
             overflow="visible">
            <path
               inkscape:connector-curvature="0"
               id="path3724"
               d="m 0.84375,-0.4375 c -0.015625,0.09375 -0.0625,0.265625 -0.0625,0.28125 0,0.15625 0.125,0.21875 0.234375,0.21875 0.125,0 0.234375,-0.078125 0.28125,-0.140625 0.03125,-0.0625 0.078125,-0.296875 0.125,-0.4375 0.03125,-0.125 0.109375,-0.453125 0.140625,-0.625 0.046875,-0.15625 0.09375,-0.3125 0.125,-0.46875 0.078125,-0.28125 0.09375,-0.34375 0.296875,-0.625 C 2.171875,-2.515625 2.5,-2.875 3.03125,-2.875 c 0.390625,0 0.40625,0.359375 0.40625,0.484375 0,0.421875 -0.296875,1.1875 -0.40625,1.484375 -0.078125,0.203125 -0.109375,0.265625 -0.109375,0.375 0,0.375 0.296875,0.59375 0.65625,0.59375 0.703125,0 1,-0.953125 1,-1.0625 0,-0.09375 -0.078125,-0.09375 -0.109375,-0.09375 -0.09375,0 -0.09375,0.046875 -0.125,0.125 C 4.1875,-0.40625 3.875,-0.125 3.609375,-0.125 c -0.15625,0 -0.1875,-0.09375 -0.1875,-0.25 0,-0.15625 0.046875,-0.25 0.171875,-0.5625 0.078125,-0.21875 0.359375,-0.953125 0.359375,-1.34375 0,-0.671875 -0.53125,-0.796875 -0.90625,-0.796875 -0.578125,0 -0.96875,0.359375 -1.171875,0.640625 -0.046875,-0.484375 -0.453125,-0.640625 -0.75,-0.640625 -0.296875,0 -0.453125,0.21875 -0.546875,0.375 -0.15625,0.265625 -0.25,0.65625 -0.25,0.703125 0,0.078125 0.09375,0.078125 0.125,0.078125 0.09375,0 0.09375,-0.015625 0.140625,-0.203125 0.109375,-0.40625 0.25,-0.75 0.515625,-0.75 0.1875,0 0.234375,0.15625 0.234375,0.34375 0,0.125 -0.0625,0.390625 -0.125,0.578125 -0.046875,0.1875 -0.109375,0.46875 -0.140625,0.625 z m 0,0"
               style="stroke:none" />
          </symbol>
        </g>
      </defs>
      <g
         id="textext-48025fa5-6">
        <g
           id="g3727"
           style="fill:#000000;fill-opacity:1">
          <use
             height="1052.3622"
             width="744.09448"
             id="use3729"
             y="134.765"
             x="223.43201"
             xlink:href="#textext-48025fa5-0" />
        </g>
        <g
           id="g3731"
           style="fill:#000000;fill-opacity:1">
          <use
             height="1052.3622"
             width="744.09448"
             id="use3733"
             y="136.259"
             x="231.686"
             xlink:href="#textext-48025fa5-3" />
        </g>
        <g
           id="g3735"
           style="fill:#000000;fill-opacity:1">
          <use
             height="1052.3622"
             width="744.09448"
             id="use3737"
             y="134.765"
             x="236.155"
             xlink:href="#textext-48025fa5-1" />
        </g>
        <g
           id="g3739"
           style="fill:#000000;fill-opacity:1">
          <use
             height="1052.3622"
             width="744.09448"
             id="use3741"
             y="134.765"
             x="240.58636"
             xlink:href="#textext-48025fa5-0" />
        </g>
        <g
           id="g3743"
           style="fill:#000000;fill-opacity:1">
          <use
             height="1052.3622"
             width="744.09448"
             id="use3745"
             y="136.259"
             x="248.83701"
             xlink:href="#textext-48025fa5-4" />
        </g>
        <g
           id="g3747"
           style="fill:#000000;fill-opacity:1">
          <use
             height="1052.3622"
             width="744.09448"
             id="use3749"
             y="134.765"
             x="253.306"
             xlink:href="#textext-48025fa5-1" />
        </g>
        <g
           id="g3751"
           style="fill:#000000;fill-opacity:1">
          <use
             height="1052.3622"
             width="744.09448"
             id="use3753"
             y="134.765"
             x="257.73737"
             xlink:href="#textext-48025fa5-2" />
        </g>
        <g
           id="g3755"
           style="fill:#000000;fill-opacity:1">
          <use
             height="1052.3622"
             width="744.09448"
             id="use3757"
             y="134.765"
             x="262.15875"
             xlink:href="#textext-48025fa5-2" />
        </g>
        <g
           id="g3759"
           style="fill:#000000;fill-opacity:1">
          <use
             height="1052.3622"
             width="744.09448"
             id="use3761"
             y="134.765"
             x="266.59012"
             xlink:href="#textext-48025fa5-2" />
        </g>
        <g
           id="g3763"
           style="fill:#000000;fill-opacity:1">
          <use
             height="1052.3622"
             width="744.09448"
             id="use3765"
             y="134.765"
             x="271.02148"
             xlink:href="#textext-48025fa5-1" />
        </g>
        <g
           id="g3767"
           style="fill:#000000;fill-opacity:1">
          <use
             height="1052.3622"
             width="744.09448"
             id="use3769"
             y="134.765"
             x="275.4429"
             xlink:href="#textext-48025fa5-0" />
        </g>
        <g
           id="g3771"
           style="fill:#000000;fill-opacity:1">
          <use
             height="1052.3622"
             width="744.09448"
             id="use3773"
             y="136.259"
             x="283.69901"
             xlink:href="#textext-48025fa5-5" />
        </g>
      </g>
    </g>
    <g
       ns0:text="$P_X (x, \\theta)$"
       ns0:preamble=""
       transform="matrix(1.2,0,0,1.2,-244.0468,830.0778)"
       id="g4399">
      <defs
         id="defs4401">
        <g
           id="g4403">
          <symbol
             style="overflow:visible"
             overflow="visible"
             id="textext-850a4cf4-0">
            <path
               inkscape:connector-curvature="0"
               style="stroke:none"
               d="m 3.015625,-3.15625 1.703125,0 c 1.40625,0 2.796875,-1.03125 2.796875,-2.140625 0,-0.78125 -0.65625,-1.515625 -1.96875,-1.515625 l -3.21875,0 c -0.1875,0 -0.296875,0 -0.296875,0.1875 0,0.125 0.078125,0.125 0.28125,0.125 0.125,0 0.3125,0.015625 0.421875,0.015625 0.171875,0.03125 0.21875,0.046875 0.21875,0.171875 0,0.03125 0,0.0625 -0.03125,0.1875 l -1.34375,5.34375 c -0.09375,0.390625 -0.109375,0.46875 -0.90625,0.46875 -0.15625,0 -0.265625,0 -0.265625,0.1875 C 0.40625,0 0.515625,0 0.546875,0 0.828125,0 1.53125,-0.03125 1.8125,-0.03125 c 0.21875,0 0.4375,0.015625 0.640625,0.015625 0.21875,0 0.4375,0.015625 0.640625,0.015625 0.078125,0 0.203125,0 0.203125,-0.203125 0,-0.109375 -0.09375,-0.109375 -0.28125,-0.109375 -0.359375,0 -0.640625,0 -0.640625,-0.171875 0,-0.0625 0.015625,-0.109375 0.03125,-0.171875 z M 3.734375,-6.125 C 3.828125,-6.46875 3.84375,-6.5 4.28125,-6.5 l 0.953125,0 c 0.828125,0 1.359375,0.265625 1.359375,0.953125 0,0.390625 -0.203125,1.25 -0.59375,1.609375 -0.5,0.453125 -1.09375,0.53125 -1.53125,0.53125 l -1.40625,0 z m 0,0"
               id="path4406" />
          </symbol>
          <symbol
             style="overflow:visible"
             overflow="visible"
             id="textext-850a4cf4-1">
            <path
               inkscape:connector-curvature="0"
               style="stroke:none"
               d="M 3.328125,-3.015625 C 3.390625,-3.265625 3.625,-4.1875 4.3125,-4.1875 c 0.046875,0 0.296875,0 0.5,0.125 C 4.53125,-4 4.34375,-3.765625 4.34375,-3.515625 c 0,0.15625 0.109375,0.34375 0.375,0.34375 0.21875,0 0.53125,-0.171875 0.53125,-0.578125 0,-0.515625 -0.578125,-0.65625 -0.921875,-0.65625 -0.578125,0 -0.921875,0.53125 -1.046875,0.75 -0.25,-0.65625 -0.78125,-0.75 -1.078125,-0.75 -1.03125,0 -1.609375,1.28125 -1.609375,1.53125 0,0.109375 0.109375,0.109375 0.125,0.109375 0.078125,0 0.109375,-0.03125 0.125,-0.109375 0.34375,-1.0625 1,-1.3125 1.34375,-1.3125 0.1875,0 0.53125,0.09375 0.53125,0.671875 0,0.3125 -0.171875,0.96875 -0.53125,2.375 -0.15625,0.609375 -0.515625,1.03125 -0.953125,1.03125 -0.0625,0 -0.28125,0 -0.5,-0.125 0.25,-0.0625 0.46875,-0.265625 0.46875,-0.546875 0,-0.265625 -0.21875,-0.34375 -0.359375,-0.34375 -0.3125,0 -0.546875,0.25 -0.546875,0.578125 0,0.453125 0.484375,0.65625 0.921875,0.65625 0.671875,0 1.03125,-0.703125 1.046875,-0.75 0.125,0.359375 0.484375,0.75 1.078125,0.75 1.03125,0 1.59375,-1.28125 1.59375,-1.53125 0,-0.109375 -0.078125,-0.109375 -0.109375,-0.109375 -0.09375,0 -0.109375,0.046875 -0.140625,0.109375 -0.328125,1.078125 -1,1.3125 -1.3125,1.3125 -0.390625,0 -0.546875,-0.3125 -0.546875,-0.65625 0,-0.21875 0.046875,-0.4375 0.15625,-0.875 z m 0,0"
               id="path4409" />
          </symbol>
          <symbol
             style="overflow:visible"
             overflow="visible"
             id="textext-850a4cf4-2">
            <path
               inkscape:connector-curvature="0"
               style="stroke:none"
               d="m 2.03125,-0.015625 c 0,-0.65625 -0.25,-1.046875 -0.640625,-1.046875 -0.328125,0 -0.53125,0.25 -0.53125,0.53125 C 0.859375,-0.265625 1.0625,0 1.390625,0 1.5,0 1.640625,-0.046875 1.734375,-0.125 1.765625,-0.15625 1.78125,-0.15625 1.78125,-0.15625 c 0.015625,0 0.015625,0 0.015625,0.140625 0,0.75 -0.34375,1.34375 -0.671875,1.671875 -0.109375,0.109375 -0.109375,0.125 -0.109375,0.15625 0,0.078125 0.046875,0.109375 0.09375,0.109375 0.109375,0 0.921875,-0.765625 0.921875,-1.9375 z m 0,0"
               id="path4412" />
          </symbol>
          <symbol
             style="overflow:visible"
             overflow="visible"
             id="textext-850a4cf4-3">
            <path
               inkscape:connector-curvature="0"
               style="stroke:none"
               d="m 4.53125,-4.984375 c 0,-0.65625 -0.171875,-2.046875 -1.1875,-2.046875 -1.390625,0 -2.921875,2.8125 -2.921875,5.09375 0,0.9375 0.28125,2.046875 1.1875,2.046875 1.40625,0 2.921875,-2.859375 2.921875,-5.09375 z M 1.46875,-3.625 C 1.640625,-4.25 1.84375,-5.046875 2.25,-5.765625 2.515625,-6.25 2.875,-6.8125 3.328125,-6.8125 c 0.484375,0 0.546875,0.640625 0.546875,1.203125 0,0.5 -0.078125,1 -0.3125,1.984375 z m 2,0.328125 C 3.359375,-2.84375 3.15625,-2 2.765625,-1.28125 c -0.34375,0.6875 -0.71875,1.171875 -1.15625,1.171875 -0.328125,0 -0.53125,-0.296875 -0.53125,-1.21875 0,-0.421875 0.0625,-1 0.3125,-1.96875 z m 0,0"
               id="path4415" />
          </symbol>
          <symbol
             style="overflow:visible"
             overflow="visible"
             id="textext-850a4cf4-4">
            <path
               inkscape:connector-curvature="0"
               style="stroke:none"
               d="m 3.875,-2.65625 0.65625,-0.671875 c 0.890625,-0.875 1.171875,-1.140625 1.796875,-1.1875 0.09375,0 0.171875,0 0.171875,-0.140625 0,-0.078125 -0.078125,-0.109375 -0.09375,-0.109375 -0.203125,0 -0.453125,0.03125 -0.65625,0.03125 -0.1875,0 -0.625,-0.03125 -0.8125,-0.03125 -0.046875,0 -0.140625,0.03125 -0.140625,0.15625 0,0.015625 0,0.09375 0.109375,0.09375 0.0625,0.015625 0.234375,0.03125 0.234375,0.1875 0,0.09375 -0.109375,0.203125 -0.171875,0.28125 C 4.90625,-4 4.03125,-3.140625 3.765625,-2.875 L 3.0625,-4.234375 C 3.046875,-4.265625 3.03125,-4.3125 3.03125,-4.328125 c 0,-0.0625 0.125,-0.171875 0.375,-0.1875 0.046875,0 0.140625,0 0.140625,-0.140625 0,-0.015625 0,-0.109375 -0.125,-0.109375 -0.140625,0 -0.3125,0.03125 -0.453125,0.03125 -0.15625,0 -0.3125,0 -0.453125,0 -0.125,0 -0.296875,0 -0.421875,0 -0.109375,-0.015625 -0.265625,-0.03125 -0.375,-0.03125 -0.03125,0 -0.140625,0 -0.140625,0.15625 0,0.09375 0.09375,0.09375 0.203125,0.09375 0.40625,0 0.4375,0.078125 0.5,0.21875 L 3.265625,-2.375 2.875,-1.984375 c -0.140625,0.125 -0.46875,0.4375 -0.59375,0.5625 -0.84375,0.84375 -1.125,1.140625 -1.765625,1.171875 -0.09375,0 -0.171875,0 -0.171875,0.15625 C 0.34375,-0.0625 0.375,0 0.453125,0 c 0.1875,0 0.4375,-0.03125 0.640625,-0.03125 0.125,0 0.296875,0 0.40625,0.015625 C 1.625,-0.015625 1.78125,0 1.90625,0 1.9375,0 2.046875,0 2.046875,-0.140625 2.046875,-0.25 1.96875,-0.25 1.921875,-0.25 c -0.0625,-0.015625 -0.21875,-0.03125 -0.21875,-0.171875 0,-0.109375 0.09375,-0.203125 0.25,-0.359375 l 1.40625,-1.390625 0.84375,1.65625 C 4.25,-0.453125 4.25,-0.4375 4.25,-0.421875 c 0,0.03125 -0.125,0.15625 -0.375,0.171875 -0.0625,0 -0.140625,0 -0.140625,0.15625 0,0 0,0.09375 0.109375,0.09375 C 4,0 4.171875,-0.015625 4.3125,-0.015625 c 0.140625,0 0.3125,-0.015625 0.453125,-0.015625 0.125,0 0.28125,0 0.40625,0.015625 C 5.296875,-0.015625 5.4375,0 5.546875,0 5.59375,0 5.703125,0 5.703125,-0.15625 5.703125,-0.25 5.609375,-0.25 5.5,-0.25 5.09375,-0.25 5.0625,-0.328125 5,-0.453125 z m 0,0"
               id="path4418" />
          </symbol>
          <symbol
             style="overflow:visible"
             overflow="visible"
             id="textext-850a4cf4-5">
            <path
               inkscape:connector-curvature="0"
               style="stroke:none"
               d="m 3.296875,2.390625 c 0,-0.03125 0,-0.046875 -0.171875,-0.21875 C 1.890625,0.921875 1.5625,-0.96875 1.5625,-2.5 c 0,-1.734375 0.375,-3.46875 1.609375,-4.703125 0.125,-0.125 0.125,-0.140625 0.125,-0.171875 0,-0.078125 -0.03125,-0.109375 -0.09375,-0.109375 -0.109375,0 -1,0.6875 -1.59375,1.953125 -0.5,1.09375 -0.625,2.203125 -0.625,3.03125 0,0.78125 0.109375,1.984375 0.65625,3.125 C 2.25,1.84375 3.09375,2.5 3.203125,2.5 c 0.0625,0 0.09375,-0.03125 0.09375,-0.109375 z m 0,0"
               id="path4421" />
          </symbol>
          <symbol
             style="overflow:visible"
             overflow="visible"
             id="textext-850a4cf4-6">
            <path
               inkscape:connector-curvature="0"
               style="stroke:none"
               d="m 2.875,-2.5 c 0,-0.765625 -0.109375,-1.96875 -0.65625,-3.109375 -0.59375,-1.21875 -1.453125,-1.875 -1.546875,-1.875 -0.0625,0 -0.109375,0.046875 -0.109375,0.109375 0,0.03125 0,0.046875 0.1875,0.234375 0.984375,0.984375 1.546875,2.5625 1.546875,4.640625 0,1.71875 -0.359375,3.46875 -1.59375,4.71875 C 0.5625,2.34375 0.5625,2.359375 0.5625,2.390625 0.5625,2.453125 0.609375,2.5 0.671875,2.5 0.765625,2.5 1.671875,1.8125 2.25,0.546875 2.765625,-0.546875 2.875,-1.65625 2.875,-2.5 z m 0,0"
               id="path4424" />
          </symbol>
        </g>
      </defs>
      <g
         id="textext-850a4cf4-7">
        <g
           style="fill:#000000;fill-opacity:1"
           id="g4427">
          <use
             height="177.16534"
             width="354.33069"
             xlink:href="#textext-850a4cf4-0"
             x="223.43201"
             y="134.765"
             id="use4429" />
        </g>
        <g
           style="fill:#000000;fill-opacity:1"
           id="g4431">
          <use
             height="177.16534"
             width="354.33069"
             xlink:href="#textext-850a4cf4-4"
             x="229.828"
             y="136.259"
             id="use4433" />
        </g>
        <g
           style="fill:#000000;fill-opacity:1"
           id="g4435">
          <use
             height="177.16534"
             width="354.33069"
             xlink:href="#textext-850a4cf4-5"
             x="237.40199"
             y="134.765"
             id="use4437" />
        </g>
        <g
           style="fill:#000000;fill-opacity:1"
           id="g4439">
          <use
             height="177.16534"
             width="354.33069"
             xlink:href="#textext-850a4cf4-1"
             x="241.276"
             y="134.765"
             id="use4441" />
          <use
             height="177.16534"
             width="354.33069"
             xlink:href="#textext-850a4cf4-2"
             x="246.96962"
             y="134.765"
             id="use4443" />
        </g>
        <g
           style="fill:#000000;fill-opacity:1"
           id="g4445">
          <use
             height="177.16534"
             width="354.33069"
             xlink:href="#textext-850a4cf4-3"
             x="251.40099"
             y="134.765"
             id="use4447" />
        </g>
        <g
           style="fill:#000000;fill-opacity:1"
           id="g4449">
          <use
             height="177.16534"
             width="354.33069"
             xlink:href="#textext-850a4cf4-6"
             x="256.35199"
             y="134.765"
             id="use4451" />
        </g>
      </g>
    </g>
    <g
       id="g4725"
       transform="matrix(1.2,0,0,1.2,-235.72364,809.45707)"
       ns0:preamble="/home/sriranga/Desktop/Beamer-prathibha/article30/package.tex"
       ns0:text="$ \\theta=\\mu$">
      <defs
         id="defs4727">
        <g
           id="g4729">
          <symbol
             id="textext-e301bd2f-0"
             overflow="visible"
             style="overflow:visible">
            <path
               id="path4732"
               d="m 4.515625,-4.8125 c 0,-0.203125 -0.015625,-1.703125 -1.203125,-1.703125 -1.765625,0 -3.015625,2.765625 -3.015625,4.6875 0,0.359375 0.046875,1.9375 1.3125,1.9375 1.984375,0 2.90625,-3.390625 2.90625,-4.921875 z m -0.65625,-0.578125 c 0,0.53125 -0.140625,1.28125 -0.34375,2.078125 l -2.15625,0 c 0.359375,-1.4375 0.984375,-3 1.9375,-3 0.40625,0 0.5625,0.34375 0.5625,0.921875 z m -0.4375,2.4375 C 3.109375,-1.78125 2.765625,-0.109375 1.75,-0.109375 1.203125,-0.109375 1,-0.59375 1,-1.25 1,-1.75 1.109375,-2.34375 1.25,-2.953125 z m 0,0"
               style="stroke:none"
               inkscape:connector-curvature="0" />
          </symbol>
          <symbol
             id="textext-e301bd2f-1"
             overflow="visible"
             style="overflow:visible">
            <path
               id="path4735"
               d="m 4.9375,-0.765625 c 0,-0.0625 -0.015625,-0.09375 -0.046875,-0.09375 C 4.75,-0.859375 4.75,-0.265625 4.21875,-0.265625 4.0625,-0.265625 4,-0.40625 4,-0.59375 c 0,-0.25 0.109375,-0.625 0.203125,-1.03125 L 4.90625,-4.390625 4.03125,-4.25 l -0.796875,3 C 3.21875,-1.203125 2.625,-0.375 2.03125,-0.375 c -0.578125,0 -0.75,-0.515625 -0.75,-0.90625 0,-0.109375 0.015625,-0.21875 0.03125,-0.3125 l 0.71875,-2.796875 -0.75,0.125 L 0.203125,0 c -0.21875,0.8125 -0.609375,1.890625 -0.6875,2.0625 l 0.875,0 0.640625,-2.484375 c 0,0 0.046875,0.53125 0.765625,0.53125 0.796875,0 1.28125,-0.78125 1.390625,-0.90625 -0.015625,0.078125 -0.03125,0.15625 -0.03125,0.21875 0,0.65625 0.609375,0.6875 0.78125,0.6875 l 0.03125,0 c 0.6875,0 0.96875,-0.640625 0.96875,-0.875 z m 0,0"
               style="stroke:none"
               inkscape:connector-curvature="0" />
          </symbol>
          <symbol
             id="textext-e301bd2f-2"
             overflow="visible"
             style="overflow:visible">
            <path
               id="path4738"
               d="m 5.71875,-3.296875 0,-0.546875 -5.09375,0 0,0.546875 z m 0,2.03125 0,-0.5625 -5.09375,0 0,0.5625 z m 0,0"
               style="stroke:none"
               inkscape:connector-curvature="0" />
          </symbol>
        </g>
      </defs>
      <g
         id="textext-e301bd2f-3">
        <g
           id="g4741"
           style="fill:#000000;fill-opacity:1">
          <use
             id="use4743"
             y="134.765"
             x="223.43201"
             xlink:href="#textext-e301bd2f-0"
             width="354.33069"
             height="177.16534" />
        </g>
        <g
           id="g4745"
           style="fill:#000000;fill-opacity:1">
          <use
             id="use4747"
             y="134.765"
             x="230.713"
             xlink:href="#textext-e301bd2f-2"
             width="354.33069"
             height="177.16534" />
        </g>
        <g
           id="g4749"
           style="fill:#000000;fill-opacity:1">
          <use
             id="use4751"
             y="134.765"
             x="239.81599"
             xlink:href="#textext-e301bd2f-1"
             width="354.33069"
             height="177.16534" />
        </g>
      </g>
    </g>
  </g>
</svg>
