<?xml version="1.0" encoding="UTF-8" standalone="no"?>
<!-- Created with Inkscape (http://www.inkscape.org/) -->

<svg
   xmlns:ns0="http://www.iki.fi/pav/software/textext/"
   xmlns:dc="http://purl.org/dc/elements/1.1/"
   xmlns:cc="http://creativecommons.org/ns#"
   xmlns:rdf="http://www.w3.org/1999/02/22-rdf-syntax-ns#"
   xmlns:svg="http://www.w3.org/2000/svg"
   xmlns="http://www.w3.org/2000/svg"
   xmlns:xlink="http://www.w3.org/1999/xlink"
   xmlns:sodipodi="http://sodipodi.sourceforge.net/DTD/sodipodi-0.dtd"
   xmlns:inkscape="http://www.inkscape.org/namespaces/inkscape"
   width="354.33069"
   height="177.16534"
   id="svg2"
   version="1.1"
   inkscape:version="0.48.4 r9939"
   sodipodi:docname="New document 1">
  <sodipodi:namedview
     id="base"
     pagecolor="#ffffff"
     bordercolor="#666666"
     borderopacity="1.0"
     inkscape:pageopacity="0.0"
     inkscape:pageshadow="2"
     inkscape:zoom="2.8"
     inkscape:cx="79.207836"
     inkscape:cy="77.086413"
     inkscape:document-units="px"
     inkscape:current-layer="layer1"
     showgrid="false"
     units="cm"
     inkscape:window-width="1024"
     inkscape:window-height="744"
     inkscape:window-x="0"
     inkscape:window-y="24"
     inkscape:window-maximized="1" />
  <defs
     id="defs4">
    <marker
       inkscape:stockid="Arrow1Mend"
       orient="auto"
       refY="0.0"
       refX="0.0"
       id="Arrow1Mend"
       style="overflow:visible;">
      <path
         id="path3818"
         d="M 0.0,0.0 L 5.0,-5.0 L -12.5,0.0 L 5.0,5.0 L 0.0,0.0 z "
         style="fill-rule:evenodd;stroke:#000000;stroke-width:1.0pt;"
         transform="scale(0.4) rotate(180) translate(10,0)" />
    </marker>
  </defs>
  <metadata
     id="metadata7">
    <rdf:RDF>
      <cc:Work
         rdf:about="">
        <dc:format>image/svg+xml</dc:format>
        <dc:type
           rdf:resource="http://purl.org/dc/dcmitype/StillImage" />
        <dc:title></dc:title>
      </cc:Work>
    </rdf:RDF>
  </metadata>
  <g
     inkscape:label="Layer 1"
     inkscape:groupmode="layer"
     id="layer1"
     transform="translate(0,-875.19551)">
    <path
       style="fill:none;stroke:#000000;stroke-width:1.25;stroke-linecap:butt;stroke-linejoin:miter;stroke-miterlimit:4;stroke-opacity:1;stroke-dasharray:none"
       d="m 14.395035,935.52405 51.880171,0"
       id="path2985"
       inkscape:connector-curvature="0" />
    <path
       style="fill:none;stroke:#000000;stroke-width:1.25;stroke-linecap:butt;stroke-linejoin:miter;stroke-miterlimit:4;stroke-opacity:1;stroke-dasharray:none"
       d="m 14.498796,987.0947 51.880169,0"
       id="path2985-3"
       inkscape:connector-curvature="0" />
    <path
       style="fill:none;stroke:#000000;stroke-width:1.25;stroke-linecap:butt;stroke-linejoin:miter;stroke-miterlimit:4;stroke-opacity:1;stroke-dasharray:none"
       d="m 14.810075,935.21277 0,51.88193"
       id="path2985-6"
       inkscape:connector-curvature="0" />
    <path
       style="fill:none;stroke:#000000;stroke-width:1.25;stroke-linecap:butt;stroke-linejoin:miter;stroke-miterlimit:4;stroke-opacity:1;stroke-dasharray:none"
       d="m 65.963928,935.52406 0,51.88193"
       id="path2985-7"
       inkscape:connector-curvature="0" />
    <path
       style="fill:none;stroke:#000000;stroke-width:1.25;stroke-linecap:butt;stroke-linejoin:miter;stroke-miterlimit:4;stroke-opacity:1;stroke-dasharray:none;marker-end:url(#Arrow1Mend)"
       d="m 65.904802,961.44712 53.951248,0"
       id="path2985-7-5"
       inkscape:connector-curvature="0" />
    <g
       transform="matrix(1.2,0,0,1.2,-134.09775,802.06112)"
       ns0:text="$x_1, x_2, \\ldots, x_n$"
       ns0:preamble="/home/sriranga/Desktop/general-books/CSY/article4/figure/package.tex"
       id="g4261">
      <defs
         id="defs4263">
        <g
           id="g4265">
          <symbol
             style="overflow:visible"
             overflow="visible"
             id="textext-f7ba6597-0">
            <path
               inkscape:connector-curvature="0"
               style="stroke:none"
               d=""
               id="path4268" />
          </symbol>
          <symbol
             style="overflow:visible"
             overflow="visible"
             id="textext-f7ba6597-1">
            <path
               inkscape:connector-curvature="0"
               style="stroke:none"
               d="M 4,-1.109375 C 3.921875,-1.015625 3.875,-0.953125 3.78125,-0.84375 3.5625,-0.53125 3.4375,-0.4375 3.328125,-0.4375 3.1875,-0.4375 3.09375,-0.5625 3.015625,-0.84375 3,-0.921875 2.984375,-0.984375 2.984375,-1.015625 2.734375,-2.03125 2.625,-2.484375 2.625,-2.625 c 0.4375,-0.78125 0.796875,-1.21875 0.96875,-1.21875 0.0625,0 0.140625,0.03125 0.25,0.078125 0.109375,0.078125 0.1875,0.09375 0.265625,0.09375 0.203125,0 0.34375,-0.140625 0.34375,-0.359375 0,-0.203125 -0.171875,-0.359375 -0.40625,-0.359375 -0.4375,0 -0.8125,0.359375 -1.5,1.421875 L 2.4375,-3.515625 c -0.140625,-0.6875 -0.25,-0.875 -0.53125,-0.875 -0.21875,0 -0.546875,0.078125 -1.15625,0.28125 L 0.640625,-4.0625 0.671875,-3.921875 C 1.0625,-4 1.140625,-4.03125 1.234375,-4.03125 c 0.25,0 0.3125,0.09375 0.453125,0.6875 l 0.28125,1.234375 -0.8125,1.15625 C 0.953125,-0.640625 0.75,-0.46875 0.640625,-0.46875 0.59375,-0.46875 0.484375,-0.5 0.390625,-0.5625 0.265625,-0.625 0.15625,-0.65625 0.0625,-0.65625 c -0.1875,0 -0.328125,0.140625 -0.328125,0.34375 0,0.265625 0.203125,0.421875 0.5,0.421875 0.296875,0 0.421875,-0.09375 0.921875,-0.703125 0.265625,-0.3125 0.484375,-0.578125 0.890625,-1.15625 l 0.3125,1.1875 c 0.125,0.515625 0.25,0.671875 0.578125,0.671875 0.375,0 0.625,-0.234375 1.203125,-1.140625 z m 0,0"
               id="path4271" />
          </symbol>
          <symbol
             style="overflow:visible"
             overflow="visible"
             id="textext-f7ba6597-2">
            <path
               inkscape:connector-curvature="0"
               style="stroke:none"
               d=""
               id="path4274" />
          </symbol>
          <symbol
             style="overflow:visible"
             overflow="visible"
             id="textext-f7ba6597-3">
            <path
               inkscape:connector-curvature="0"
               style="stroke:none"
               d="m 2.03125,-4.703125 -1.25,0.625 0,0.09375 c 0.078125,-0.03125 0.15625,-0.0625 0.1875,-0.078125 0.125,-0.046875 0.234375,-0.0625 0.3125,-0.0625 0.140625,0 0.203125,0.09375 0.203125,0.3125 l 0,3.171875 c 0,0.21875 -0.0625,0.375 -0.171875,0.453125 -0.09375,0.0625 -0.203125,0.078125 -0.484375,0.078125 L 0.828125,0 2.75,0 l 0,-0.109375 c -0.5625,0 -0.671875,-0.078125 -0.671875,-0.40625 l 0,-4.1875 z m 0,0"
               id="path4277" />
          </symbol>
          <symbol
             style="overflow:visible"
             overflow="visible"
             id="textext-f7ba6597-4">
            <path
               inkscape:connector-curvature="0"
               style="stroke:none"
               d="M 3.3125,-0.953125 3.21875,-0.984375 C 2.96875,-0.59375 2.875,-0.53125 2.5625,-0.53125 l -1.671875,0 L 2.0625,-1.75 c 0.625,-0.65625 0.890625,-1.1875 0.890625,-1.734375 0,-0.6875 -0.5625,-1.21875 -1.28125,-1.21875 -0.390625,0 -0.75,0.140625 -1.015625,0.421875 -0.21875,0.234375 -0.328125,0.46875 -0.4375,0.953125 l 0.140625,0.03125 C 0.640625,-3.96875 0.890625,-4.1875 1.375,-4.1875 c 0.578125,0 0.984375,0.390625 0.984375,0.96875 0,0.546875 -0.328125,1.203125 -0.90625,1.8125 l -1.25,1.328125 0,0.078125 2.71875,0 z m 0,0"
               id="path4280" />
          </symbol>
          <symbol
             style="overflow:visible"
             overflow="visible"
             id="textext-f7ba6597-5">
            <path
               inkscape:connector-curvature="0"
               style="stroke:none"
               d=""
               id="path4283" />
          </symbol>
          <symbol
             style="overflow:visible"
             overflow="visible"
             id="textext-f7ba6597-6">
            <path
               inkscape:connector-curvature="0"
               style="stroke:none"
               d="m 1.9375,-0.0625 c 0,-0.828125 -0.578125,-0.953125 -0.796875,-0.953125 -0.25,0 -0.578125,0.140625 -0.578125,0.578125 0,0.390625 0.359375,0.5 0.609375,0.5 0.078125,0 0.125,-0.015625 0.15625,-0.015625 0.03125,-0.015625 0.0625,-0.03125 0.09375,-0.03125 0.0625,0 0.140625,0.046875 0.140625,0.140625 0,0.1875 -0.171875,0.640625 -0.828125,1.0625 l 0.09375,0.1875 C 1.125,1.3125 1.9375,0.640625 1.9375,-0.0625 z m 0,0"
               id="path4286" />
          </symbol>
          <symbol
             style="overflow:visible"
             overflow="visible"
             id="textext-f7ba6597-7">
            <path
               inkscape:connector-curvature="0"
               style="stroke:none"
               d="M 1.796875,-0.421875 C 1.796875,-0.734375 1.546875,-1 1.25,-1 c -0.296875,0 -0.546875,0.25 -0.546875,0.578125 0,0.375 0.328125,0.53125 0.546875,0.53125 0.203125,0 0.546875,-0.171875 0.546875,-0.53125 z m 0,0"
               id="path4289" />
          </symbol>
          <symbol
             style="overflow:visible"
             overflow="visible"
             id="textext-f7ba6597-8">
            <path
               inkscape:connector-curvature="0"
               style="stroke:none"
               d=""
               id="path4292" />
          </symbol>
          <symbol
             style="overflow:visible"
             overflow="visible"
             id="textext-f7ba6597-9">
            <path
               inkscape:connector-curvature="0"
               style="stroke:none"
               d="M 3.203125,-0.8125 3.0625,-0.640625 c -0.203125,0.265625 -0.328125,0.375 -0.421875,0.375 -0.0625,0 -0.125,-0.0625 -0.125,-0.109375 0,-0.046875 0,-0.046875 0.109375,-0.4375 L 3.015625,-2.25 c 0.03125,-0.140625 0.0625,-0.296875 0.0625,-0.390625 0,-0.265625 -0.1875,-0.4375 -0.453125,-0.4375 -0.453125,0 -0.890625,0.421875 -1.609375,1.53125 L 1.484375,-3.0625 1.46875,-3.078125 C 1.09375,-3 0.9375,-2.96875 0.328125,-2.859375 l 0,0.109375 c 0.359375,0.015625 0.453125,0.046875 0.453125,0.1875 0,0.046875 0,0.09375 -0.015625,0.125 L 0.09375,0 0.625,0 C 0.953125,-1.09375 1.015625,-1.25 1.3125,-1.734375 1.734375,-2.375 2.09375,-2.71875 2.34375,-2.71875 c 0.109375,0 0.171875,0.078125 0.171875,0.203125 0,0.078125 -0.046875,0.3125 -0.09375,0.53125 l -0.3125,1.140625 C 2.015625,-0.484375 2,-0.390625 2,-0.3125 c 0,0.265625 0.09375,0.375 0.328125,0.375 0.3125,0 0.5,-0.140625 0.96875,-0.78125 z m 0,0"
               id="path4295" />
          </symbol>
        </g>
      </defs>
      <g
         id="textext-f7ba6597-10">
        <g
           style="fill:#000000;fill-opacity:1"
           id="g4298">
          <use
             height="177.16534"
             width="354.33069"
             xlink:href="#textext-f7ba6597-1"
             x="223.92999"
             y="134.765"
             id="use4300" />
        </g>
        <g
           style="fill:#000000;fill-opacity:1"
           id="g4302">
          <use
             height="177.16534"
             width="354.33069"
             xlink:href="#textext-f7ba6597-3"
             x="228.354"
             y="136.259"
             id="use4304" />
        </g>
        <g
           style="fill:#000000;fill-opacity:1"
           id="g4306">
          <use
             height="177.16534"
             width="354.33069"
             xlink:href="#textext-f7ba6597-6"
             x="232.339"
             y="134.765"
             id="use4308" />
        </g>
        <g
           style="fill:#000000;fill-opacity:1"
           id="g4310">
          <use
             height="177.16534"
             width="354.33069"
             xlink:href="#textext-f7ba6597-1"
             x="236.98801"
             y="134.765"
             id="use4312" />
        </g>
        <g
           style="fill:#000000;fill-opacity:1"
           id="g4314">
          <use
             height="177.16534"
             width="354.33069"
             xlink:href="#textext-f7ba6597-4"
             x="241.411"
             y="136.259"
             id="use4316" />
        </g>
        <g
           style="fill:#000000;fill-opacity:1"
           id="g4318">
          <use
             height="177.16534"
             width="354.33069"
             xlink:href="#textext-f7ba6597-6"
             x="245.396"
             y="134.765"
             id="use4320" />
        </g>
        <g
           style="fill:#000000;fill-opacity:1"
           id="g4322">
          <use
             height="177.16534"
             width="354.33069"
             xlink:href="#textext-f7ba6597-7"
             x="249.5504"
             y="134.765"
             id="use4324" />
        </g>
        <g
           style="fill:#000000;fill-opacity:1"
           id="g4326">
          <use
             height="177.16534"
             width="354.33069"
             xlink:href="#textext-f7ba6597-7"
             x="253.69484"
             y="134.765"
             id="use4328" />
        </g>
        <g
           style="fill:#000000;fill-opacity:1"
           id="g4330">
          <use
             height="177.16534"
             width="354.33069"
             xlink:href="#textext-f7ba6597-7"
             x="257.84924"
             y="134.765"
             id="use4332" />
        </g>
        <g
           style="fill:#000000;fill-opacity:1"
           id="g4334">
          <use
             height="177.16534"
             width="354.33069"
             xlink:href="#textext-f7ba6597-6"
             x="262.00366"
             y="134.765"
             id="use4336" />
        </g>
        <g
           style="fill:#000000;fill-opacity:1"
           id="g4338">
          <use
             height="177.16534"
             width="354.33069"
             xlink:href="#textext-f7ba6597-1"
             x="266.64999"
             y="134.765"
             id="use4340" />
        </g>
        <g
           style="fill:#000000;fill-opacity:1"
           id="g4342">
          <use
             height="177.16534"
             width="354.33069"
             xlink:href="#textext-f7ba6597-9"
             x="271.073"
             y="136.259"
             id="use4344" />
        </g>
      </g>
    </g>
    <g
       id="g4641"
       transform="matrix(1.2,0,0,1.2,-245.31528,803.0625)"
       ns0:preamble="/home/sriranga/Desktop/general-books/CSY/article4/figure/package.tex"
       ns0:text="$p_X (x, \\theta)$">
      <defs
         id="defs4643">
        <g
           id="g4645">
          <symbol
             id="textext-7553d7e2-0"
             overflow="visible"
             style="overflow:visible">
            <path
               id="path4648"
               d=""
               style="stroke:none"
               inkscape:connector-curvature="0" />
          </symbol>
          <symbol
             id="textext-7553d7e2-1"
             overflow="visible"
             style="overflow:visible">
            <path
               id="path4651"
               d="m 0.5625,-4.03125 0.21875,0 c 0,0 0.03125,0 0.03125,0 0.140625,-0.0625 0.390625,0.125 0.390625,0.265625 C 1.203125,-3.671875 0.84375,-2.25 0.5,-0.9375 0.234375,0.0625 -0.015625,1 -0.078125,1.296875 -0.1875,1.75 -0.3125,1.875 -0.75,1.890625 l 0,0.15625 2.046875,0 0,-0.15625 c -0.46875,0 -0.640625,-0.09375 -0.640625,-0.296875 0,-0.140625 0.171875,-0.921875 0.375,-1.65625 0.25,0.125 0.421875,0.171875 0.65625,0.171875 1.453125,0 2.984375,-1.671875 2.984375,-3.265625 0,-0.765625 -0.4375,-1.234375 -1.140625,-1.234375 -0.65625,0 -1.125,0.3125 -1.703125,1.125 l 0.28125,-1 0.03125,-0.09375 c 0,0 0,0 -0.015625,-0.03125 l -0.015625,0 c 0,-0.015625 -0.015625,-0.015625 -0.015625,-0.015625 l -0.015625,0.015625 -1.546875,0.21875 z m 2.59375,0.0625 c 0.4375,0.015625 0.625,0.28125 0.625,0.859375 0,0.65625 -0.296875,1.515625 -0.71875,2.125 -0.421875,0.59375 -0.90625,0.90625 -1.421875,0.90625 -0.28125,0 -0.46875,-0.15625 -0.46875,-0.375 0,-0.328125 0.359375,-1.640625 0.640625,-2.375 C 2.078125,-3.515625 2.65625,-4 3.15625,-3.96875 z m 0,0"
               style="stroke:none"
               inkscape:connector-curvature="0" />
          </symbol>
          <symbol
             id="textext-7553d7e2-2"
             overflow="visible"
             style="overflow:visible">
            <path
               id="path4654"
               d="M 4,-1.109375 C 3.921875,-1.015625 3.875,-0.953125 3.78125,-0.84375 3.5625,-0.53125 3.4375,-0.4375 3.328125,-0.4375 3.1875,-0.4375 3.09375,-0.5625 3.015625,-0.84375 3,-0.921875 2.984375,-0.984375 2.984375,-1.015625 2.734375,-2.03125 2.625,-2.484375 2.625,-2.625 c 0.4375,-0.78125 0.796875,-1.21875 0.96875,-1.21875 0.0625,0 0.140625,0.03125 0.25,0.078125 0.109375,0.078125 0.1875,0.09375 0.265625,0.09375 0.203125,0 0.34375,-0.140625 0.34375,-0.359375 0,-0.203125 -0.171875,-0.359375 -0.40625,-0.359375 -0.4375,0 -0.8125,0.359375 -1.5,1.421875 L 2.4375,-3.515625 c -0.140625,-0.6875 -0.25,-0.875 -0.53125,-0.875 -0.21875,0 -0.546875,0.078125 -1.15625,0.28125 L 0.640625,-4.0625 0.671875,-3.921875 C 1.0625,-4 1.140625,-4.03125 1.234375,-4.03125 c 0.25,0 0.3125,0.09375 0.453125,0.6875 l 0.28125,1.234375 -0.8125,1.15625 C 0.953125,-0.640625 0.75,-0.46875 0.640625,-0.46875 0.59375,-0.46875 0.484375,-0.5 0.390625,-0.5625 0.265625,-0.625 0.15625,-0.65625 0.0625,-0.65625 c -0.1875,0 -0.328125,0.140625 -0.328125,0.34375 0,0.265625 0.203125,0.421875 0.5,0.421875 0.296875,0 0.421875,-0.09375 0.921875,-0.703125 0.265625,-0.3125 0.484375,-0.578125 0.890625,-1.15625 l 0.3125,1.1875 c 0.125,0.515625 0.25,0.671875 0.578125,0.671875 0.375,0 0.625,-0.234375 1.203125,-1.140625 z m 0,0"
               style="stroke:none"
               inkscape:connector-curvature="0" />
          </symbol>
          <symbol
             id="textext-7553d7e2-3"
             overflow="visible"
             style="overflow:visible">
            <path
               id="path4657"
               d=""
               style="stroke:none"
               inkscape:connector-curvature="0" />
          </symbol>
          <symbol
             id="textext-7553d7e2-4"
             overflow="visible"
             style="overflow:visible">
            <path
               id="path4660"
               d="m 4.5625,-4.546875 -1.453125,0 0,0.109375 c 0.34375,0.046875 0.4375,0.09375 0.4375,0.25 0,0.09375 -0.046875,0.171875 -0.140625,0.28125 l -1.015625,1.171875 -0.40625,-1.03125 C 1.90625,-3.9375 1.875,-4.0625 1.875,-4.15625 c 0,-0.171875 0.109375,-0.234375 0.5,-0.28125 l 0,-0.109375 -1.84375,0 0,0.109375 c 0.40625,0.03125 0.5,0.109375 0.640625,0.421875 L 1.90625,-2.1875 c -0.25,0.296875 -0.484375,0.578125 -0.578125,0.6875 -0.96875,1.140625 -1.15625,1.3125 -1.53125,1.390625 l 0,0.109375 1.5,0 0,-0.109375 c -0.34375,0 -0.453125,-0.0625 -0.453125,-0.234375 0,-0.109375 0.046875,-0.234375 0.140625,-0.328125 L 2.03125,-1.875 2.5,-0.71875 c 0.046875,0.125 0.078125,0.234375 0.078125,0.328125 0,0.203125 -0.0625,0.25 -0.53125,0.28125 l 0,0.109375 1.90625,0 0,-0.109375 C 3.46875,-0.171875 3.40625,-0.203125 3.21875,-0.625 L 2.515625,-2.421875 3.6875,-3.78125 c 0.375,-0.40625 0.578125,-0.5625 0.875,-0.65625 z m 0,0"
               style="stroke:none"
               inkscape:connector-curvature="0" />
          </symbol>
          <symbol
             id="textext-7553d7e2-5"
             overflow="visible"
             style="overflow:visible">
            <path
               id="path4663"
               d=""
               style="stroke:none"
               inkscape:connector-curvature="0" />
          </symbol>
          <symbol
             id="textext-7553d7e2-6"
             overflow="visible"
             style="overflow:visible">
            <path
               id="path4666"
               d="M 2.9375,-6.734375 C 2.203125,-6.265625 1.90625,-6 1.53125,-5.546875 c -0.703125,0.875 -1.046875,1.875 -1.046875,3.03125 0,1.265625 0.359375,2.25 1.234375,3.265625 0.421875,0.46875 0.671875,0.703125 1.1875,1.015625 l 0.125,-0.15625 C 2.234375,0.984375 1.953125,0.625 1.6875,-0.125 1.453125,-0.78125 1.328125,-1.546875 1.328125,-2.546875 1.328125,-3.59375 1.46875,-4.40625 1.734375,-5.03125 2.015625,-5.640625 2.3125,-6 3.03125,-6.578125 z m 0,0"
               style="stroke:none"
               inkscape:connector-curvature="0" />
          </symbol>
          <symbol
             id="textext-7553d7e2-7"
             overflow="visible"
             style="overflow:visible">
            <path
               id="path4669"
               d="M 0.375,1.765625 C 1.109375,1.28125 1.421875,1.03125 1.78125,0.5625 2.5,-0.296875 2.84375,-1.296875 2.84375,-2.46875 c 0,-1.265625 -0.375,-2.234375 -1.25,-3.25 C 1.1875,-6.203125 0.921875,-6.421875 0.40625,-6.734375 l -0.109375,0.15625 c 0.796875,0.625 1.0625,0.96875 1.34375,1.71875 0.234375,0.671875 0.34375,1.4375 0.34375,2.421875 0,1.046875 -0.125,1.875 -0.40625,2.484375 C 1.3125,0.671875 1,1.03125 0.296875,1.609375 z m 0,0"
               style="stroke:none"
               inkscape:connector-curvature="0" />
          </symbol>
          <symbol
             id="textext-7553d7e2-8"
             overflow="visible"
             style="overflow:visible">
            <path
               id="path4672"
               d=""
               style="stroke:none"
               inkscape:connector-curvature="0" />
          </symbol>
          <symbol
             id="textext-7553d7e2-9"
             overflow="visible"
             style="overflow:visible">
            <path
               id="path4675"
               d="m 1.9375,-0.0625 c 0,-0.828125 -0.578125,-0.953125 -0.796875,-0.953125 -0.25,0 -0.578125,0.140625 -0.578125,0.578125 0,0.390625 0.359375,0.5 0.609375,0.5 0.078125,0 0.125,-0.015625 0.15625,-0.015625 0.03125,-0.015625 0.0625,-0.03125 0.09375,-0.03125 0.0625,0 0.140625,0.046875 0.140625,0.140625 0,0.1875 -0.171875,0.640625 -0.828125,1.0625 l 0.09375,0.1875 C 1.125,1.3125 1.9375,0.640625 1.9375,-0.0625 z m 0,0"
               style="stroke:none"
               inkscape:connector-curvature="0" />
          </symbol>
          <symbol
             id="textext-7553d7e2-10"
             overflow="visible"
             style="overflow:visible">
            <path
               id="path4678"
               d="m 4.515625,-4.8125 c 0,-0.203125 -0.015625,-1.703125 -1.203125,-1.703125 -1.765625,0 -3.015625,2.765625 -3.015625,4.6875 0,0.359375 0.046875,1.9375 1.3125,1.9375 1.984375,0 2.90625,-3.390625 2.90625,-4.921875 z m -0.65625,-0.578125 c 0,0.53125 -0.140625,1.28125 -0.34375,2.078125 l -2.15625,0 c 0.359375,-1.4375 0.984375,-3 1.9375,-3 0.40625,0 0.5625,0.34375 0.5625,0.921875 z m -0.4375,2.4375 C 3.109375,-1.78125 2.765625,-0.109375 1.75,-0.109375 1.203125,-0.109375 1,-0.59375 1,-1.25 1,-1.75 1.109375,-2.34375 1.25,-2.953125 z m 0,0"
               style="stroke:none"
               inkscape:connector-curvature="0" />
          </symbol>
        </g>
      </defs>
      <g
         id="textext-7553d7e2-11">
        <g
           id="g4681"
           style="fill:#000000;fill-opacity:1">
          <use
             id="use4683"
             y="134.765"
             x="224.179"
             xlink:href="#textext-7553d7e2-1"
             width="354.33069"
             height="177.16534" />
        </g>
        <g
           id="g4685"
           style="fill:#000000;fill-opacity:1">
          <use
             id="use4687"
             y="136.259"
             x="229.33501"
             xlink:href="#textext-7553d7e2-4"
             width="354.33069"
             height="177.16534" />
        </g>
        <g
           id="g4689"
           style="fill:#000000;fill-opacity:1">
          <use
             id="use4691"
             y="134.765"
             x="234.401"
             xlink:href="#textext-7553d7e2-6"
             width="354.33069"
             height="177.16534" />
        </g>
        <g
           id="g4693"
           style="fill:#000000;fill-opacity:1">
          <use
             id="use4695"
             y="134.765"
             x="238.217"
             xlink:href="#textext-7553d7e2-2"
             width="354.33069"
             height="177.16534" />
        </g>
        <g
           id="g4697"
           style="fill:#000000;fill-opacity:1">
          <use
             id="use4699"
             y="134.765"
             x="242.67"
             xlink:href="#textext-7553d7e2-9"
             width="354.33069"
             height="177.16534" />
        </g>
        <g
           id="g4701"
           style="fill:#000000;fill-opacity:1">
          <use
             id="use4703"
             y="134.765"
             x="246.8244"
             xlink:href="#textext-7553d7e2-10"
             width="354.33069"
             height="177.16534" />
        </g>
        <g
           id="g4705"
           style="fill:#000000;fill-opacity:1">
          <use
             id="use4707"
             y="134.765"
             x="251.334"
             xlink:href="#textext-7553d7e2-7"
             width="354.33069"
             height="177.16534" />
        </g>
      </g>
    </g>
  </g>
</svg>
