<?xml version="1.0" encoding="UTF-8" standalone="no"?>
<!-- Created with Inkscape (http://www.inkscape.org/) -->

<svg
   xmlns:dc="http://purl.org/dc/elements/1.1/"
   xmlns:cc="http://creativecommons.org/ns#"
   xmlns:rdf="http://www.w3.org/1999/02/22-rdf-syntax-ns#"
   xmlns:svg="http://www.w3.org/2000/svg"
   xmlns="http://www.w3.org/2000/svg"
   xmlns:sodipodi="http://sodipodi.sourceforge.net/DTD/sodipodi-0.dtd"
   xmlns:inkscape="http://www.inkscape.org/namespaces/inkscape"
   sodipodi:docname="fig1-39b.svg"
   inkscape:version="0.92.4 (unknown)"
   id="svg882"
   version="1.1"
   viewBox="0 0 110 100"
   height="10cm"
   width="11cm">
  <defs
     id="defs876">
    <marker
       inkscape:isstock="true"
       style="overflow:visible"
       id="marker2578"
       refX="0"
       refY="0"
       orient="auto"
       inkscape:stockid="Arrow1Mend">
      <path
         inkscape:connector-curvature="0"
         transform="matrix(-0.4,0,0,-0.4,-4,0)"
         style="fill:#000000;fill-opacity:1;fill-rule:evenodd;stroke:#000000;stroke-width:1.00000003pt;stroke-opacity:1"
         d="M 0,0 5,-5 -12.5,0 5,5 Z"
         id="path2576" />
    </marker>
    <marker
       inkscape:stockid="Arrow1Mend"
       orient="auto"
       refY="0"
       refX="0"
       id="marker1714"
       style="overflow:visible"
       inkscape:isstock="true"
       inkscape:collect="always">
      <path
         id="path1712"
         d="M 0,0 5,-5 -12.5,0 5,5 Z"
         style="fill:#000000;fill-opacity:1;fill-rule:evenodd;stroke:#000000;stroke-width:1.00000003pt;stroke-opacity:1"
         transform="matrix(-0.4,0,0,-0.4,-4,0)"
         inkscape:connector-curvature="0" />
    </marker>
    <marker
       inkscape:isstock="true"
       style="overflow:visible"
       id="marker1252"
       refX="0"
       refY="0"
       orient="auto"
       inkscape:stockid="Arrow1Mend"
       inkscape:collect="always">
      <path
         inkscape:connector-curvature="0"
         transform="matrix(-0.4,0,0,-0.4,-4,0)"
         style="fill:#000000;fill-opacity:1;fill-rule:evenodd;stroke:#000000;stroke-width:1.00000003pt;stroke-opacity:1"
         d="M 0,0 5,-5 -12.5,0 5,5 Z"
         id="path1250" />
    </marker>
    <marker
       inkscape:stockid="Arrow1Mend"
       orient="auto"
       refY="0"
       refX="0"
       id="marker2626"
       style="overflow:visible"
       inkscape:isstock="true">
      <path
         id="path2624"
         d="M 0,0 5,-5 -12.5,0 5,5 Z"
         style="fill:#000000;fill-opacity:1;fill-rule:evenodd;stroke:#000000;stroke-width:1.00000003pt;stroke-opacity:1"
         transform="matrix(-0.4,0,0,-0.4,-4,0)"
         inkscape:connector-curvature="0" />
    </marker>
    <marker
       inkscape:isstock="true"
       style="overflow:visible"
       id="marker34390"
       refX="0"
       refY="0"
       orient="auto"
       inkscape:stockid="Arrow1Mend">
      <path
         inkscape:connector-curvature="0"
         transform="matrix(-0.4,0,0,-0.4,-4,0)"
         style="fill:#000000;fill-opacity:1;fill-rule:evenodd;stroke:#000000;stroke-width:1.00000003pt;stroke-opacity:1"
         d="M 0,0 5,-5 -12.5,0 5,5 Z"
         id="path34388" />
    </marker>
    <marker
       inkscape:isstock="true"
       style="overflow:visible"
       id="marker31299"
       refX="0"
       refY="0"
       orient="auto"
       inkscape:stockid="Arrow1Mend">
      <path
         inkscape:connector-curvature="0"
         transform="matrix(-0.4,0,0,-0.4,-4,0)"
         style="fill:#000000;fill-opacity:1;fill-rule:evenodd;stroke:#000000;stroke-width:1.00000003pt;stroke-opacity:1"
         d="M 0,0 5,-5 -12.5,0 5,5 Z"
         id="path31297" />
    </marker>
    <marker
       inkscape:isstock="true"
       style="overflow:visible"
       id="marker26321"
       refX="0"
       refY="0"
       orient="auto"
       inkscape:stockid="Arrow1Mend">
      <path
         inkscape:connector-curvature="0"
         transform="matrix(-0.4,0,0,-0.4,-4,0)"
         style="fill:#000000;fill-opacity:1;fill-rule:evenodd;stroke:#000000;stroke-width:1.00000003pt;stroke-opacity:1"
         d="M 0,0 5,-5 -12.5,0 5,5 Z"
         id="path26319" />
    </marker>
    <marker
       inkscape:stockid="Arrow1Mend"
       orient="auto"
       refY="0"
       refX="0"
       id="marker24249"
       style="overflow:visible"
       inkscape:isstock="true">
      <path
         id="path24247"
         d="M 0,0 5,-5 -12.5,0 5,5 Z"
         style="fill:#000000;fill-opacity:1;fill-rule:evenodd;stroke:#000000;stroke-width:1.00000003pt;stroke-opacity:1"
         transform="matrix(-0.4,0,0,-0.4,-4,0)"
         inkscape:connector-curvature="0" />
    </marker>
    <marker
       inkscape:isstock="true"
       style="overflow:visible"
       id="marker20365"
       refX="0"
       refY="0"
       orient="auto"
       inkscape:stockid="Arrow1Mend">
      <path
         transform="matrix(-0.4,0,0,-0.4,-4,0)"
         style="fill:#000000;fill-opacity:1;fill-rule:evenodd;stroke:#000000;stroke-width:1.00000003pt;stroke-opacity:1"
         d="M 0,0 5,-5 -12.5,0 5,5 Z"
         id="path20363"
         inkscape:connector-curvature="0" />
    </marker>
    <marker
       inkscape:stockid="Arrow1Mend"
       orient="auto"
       refY="0"
       refX="0"
       id="marker19765"
       style="overflow:visible"
       inkscape:isstock="true">
      <path
         id="path19763"
         d="M 0,0 5,-5 -12.5,0 5,5 Z"
         style="fill:#000000;fill-opacity:1;fill-rule:evenodd;stroke:#000000;stroke-width:1.00000003pt;stroke-opacity:1"
         transform="matrix(-0.4,0,0,-0.4,-4,0)"
         inkscape:connector-curvature="0" />
    </marker>
    <marker
       inkscape:isstock="true"
       style="overflow:visible"
       id="marker19115"
       refX="0"
       refY="0"
       orient="auto"
       inkscape:stockid="Arrow1Mend">
      <path
         transform="matrix(-0.4,0,0,-0.4,-4,0)"
         style="fill:#000000;fill-opacity:1;fill-rule:evenodd;stroke:#000000;stroke-width:1.00000003pt;stroke-opacity:1"
         d="M 0,0 5,-5 -12.5,0 5,5 Z"
         id="path19113"
         inkscape:connector-curvature="0" />
    </marker>
    <marker
       inkscape:isstock="true"
       style="overflow:visible"
       id="marker15103"
       refX="0"
       refY="0"
       orient="auto"
       inkscape:stockid="Arrow1Mend">
      <path
         transform="matrix(-0.4,0,0,-0.4,-4,0)"
         style="fill:#000000;fill-opacity:1;fill-rule:evenodd;stroke:#000000;stroke-width:1.00000003pt;stroke-opacity:1"
         d="M 0,0 5,-5 -12.5,0 5,5 Z"
         id="path15101"
         inkscape:connector-curvature="0" />
    </marker>
    <marker
       inkscape:isstock="true"
       style="overflow:visible"
       id="marker8599"
       refX="0"
       refY="0"
       orient="auto"
       inkscape:stockid="Arrow1Mend">
      <path
         transform="matrix(-0.4,0,0,-0.4,-4,0)"
         style="fill:#000000;fill-opacity:1;fill-rule:evenodd;stroke:#000000;stroke-width:1.00000003pt;stroke-opacity:1"
         d="M 0,0 5,-5 -12.5,0 5,5 Z"
         id="path8597"
         inkscape:connector-curvature="0" />
    </marker>
    <marker
       inkscape:stockid="Arrow1Mend"
       orient="auto"
       refY="0"
       refX="0"
       id="marker7557"
       style="overflow:visible"
       inkscape:isstock="true">
      <path
         id="path7555"
         d="M 0,0 5,-5 -12.5,0 5,5 Z"
         style="fill:#000000;fill-opacity:1;fill-rule:evenodd;stroke:#000000;stroke-width:1.00000003pt;stroke-opacity:1"
         transform="matrix(-0.4,0,0,-0.4,-4,0)"
         inkscape:connector-curvature="0" />
    </marker>
    <marker
       inkscape:isstock="true"
       style="overflow:visible"
       id="marker4227"
       refX="0"
       refY="0"
       orient="auto"
       inkscape:stockid="Arrow1Mend">
      <path
         transform="matrix(-0.4,0,0,-0.4,-4,0)"
         style="fill:#000000;fill-opacity:1;fill-rule:evenodd;stroke:#000000;stroke-width:1.00000003pt;stroke-opacity:1"
         d="M 0,0 5,-5 -12.5,0 5,5 Z"
         id="path4225"
         inkscape:connector-curvature="0" />
    </marker>
    <marker
       inkscape:isstock="true"
       style="overflow:visible"
       id="marker15998"
       refX="0"
       refY="0"
       orient="auto"
       inkscape:stockid="Arrow1Mend">
      <path
         transform="matrix(-0.4,0,0,-0.4,-4,0)"
         style="fill:#000000;fill-opacity:1;fill-rule:evenodd;stroke:#000000;stroke-width:1.00000003pt;stroke-opacity:1"
         d="M 0,0 5,-5 -12.5,0 5,5 Z"
         id="path15996"
         inkscape:connector-curvature="0" />
    </marker>
    <marker
       inkscape:stockid="Arrow1Mend"
       orient="auto"
       refY="0"
       refX="0"
       id="marker11689"
       style="overflow:visible"
       inkscape:isstock="true">
      <path
         id="path11687"
         d="M 0,0 5,-5 -12.5,0 5,5 Z"
         style="fill:#000000;fill-opacity:1;fill-rule:evenodd;stroke:#000000;stroke-width:1.00000003pt;stroke-opacity:1"
         transform="matrix(-0.4,0,0,-0.4,-4,0)"
         inkscape:connector-curvature="0" />
    </marker>
    <marker
       inkscape:isstock="true"
       style="overflow:visible"
       id="marker31299-3"
       refX="0"
       refY="0"
       orient="auto"
       inkscape:stockid="Arrow1Mend">
      <path
         inkscape:connector-curvature="0"
         transform="matrix(-0.4,0,0,-0.4,-4,0)"
         style="fill:#000000;fill-opacity:1;fill-rule:evenodd;stroke:#000000;stroke-width:1.00000003pt;stroke-opacity:1"
         d="M 0,0 5,-5 -12.5,0 5,5 Z"
         id="path31297-6" />
    </marker>
  </defs>
  <sodipodi:namedview
     id="base"
     pagecolor="#ffffff"
     bordercolor="#666666"
     borderopacity="1.0"
     inkscape:pageopacity="0.0"
     inkscape:pageshadow="2"
     inkscape:zoom="1.9173721"
     inkscape:cx="121.74913"
     inkscape:cy="113.58831"
     inkscape:document-units="cm"
     inkscape:current-layer="layer1"
     showgrid="false"
     units="cm"
     inkscape:window-width="805"
     inkscape:window-height="716"
     inkscape:window-x="12"
     inkscape:window-y="24"
     inkscape:window-maximized="0"
     showguides="true"
     inkscape:guide-bbox="true">
    <inkscape:grid
       type="xygrid"
       id="grid1452" />
  </sodipodi:namedview>
  <metadata
     id="metadata879">
    <rdf:RDF>
      <cc:Work
         rdf:about="">
        <dc:format>image/svg+xml</dc:format>
        <dc:type
           rdf:resource="http://purl.org/dc/dcmitype/StillImage" />
        <dc:title></dc:title>
      </cc:Work>
    </rdf:RDF>
  </metadata>
  <g
     inkscape:label="Layer 1"
     inkscape:groupmode="layer"
     id="layer1"
     transform="translate(0,-197.00001)">
    <path
       sodipodi:nodetypes="ccccccc"
       inkscape:connector-curvature="0"
       id="path8429"
       d="m 39.687501,275.83335 -15.875,-11.90626 -15.8750009,11.90626 h 23.8125009 23.8125 l -7.9375,-11.90626 z"
       inkscape:transform-center-y="-3.7671813"
       style="color:#000000;clip-rule:nonzero;display:inline;overflow:visible;visibility:visible;opacity:1;isolation:auto;mix-blend-mode:normal;color-interpolation:sRGB;color-interpolation-filters:linearRGB;solid-color:#000000;solid-opacity:1;fill:none;fill-opacity:1;fill-rule:nonzero;stroke:#000000;stroke-width:0.26458335;stroke-linecap:round;stroke-linejoin:round;stroke-miterlimit:4;stroke-dasharray:none;stroke-dashoffset:0;stroke-opacity:1;color-rendering:auto;image-rendering:auto;shape-rendering:auto;text-rendering:auto;enable-background:accumulate"
       inkscape:transform-center-x="0.88086019" />
    <path
       inkscape:connector-curvature="0"
       style="fill:#000000;fill-opacity:1;stroke:none;stroke-width:0"
       d="m 37.580351,270.83638 c -0.165365,0.27781 -0.330729,0.33734 -0.515937,0.35057 -0.05292,0.007 -0.0926,0.007 -0.0926,0.086 0,0.0265 0.02646,0.0463 0.05953,0.0463 0.112448,0 0.244739,-0.0132 0.357187,-0.0132 0.145521,0 0.291042,0.0132 0.423333,0.0132 0.02646,0 0.07937,0 0.07937,-0.0794 0,-0.0463 -0.03307,-0.0529 -0.06615,-0.0529 -0.0926,-0.007 -0.198437,-0.0397 -0.198437,-0.14552 0,-0.0529 0.02646,-0.0992 0.05953,-0.15875 l 0.324114,-0.53578 h 1.058333 c 0.0066,0.086 0.06615,0.66145 0.06615,0.70114 0,0.12568 -0.218281,0.13891 -0.304271,0.13891 -0.05953,0 -0.09922,0 -0.09922,0.086 0,0.0463 0.0463,0.0463 0.05953,0.0463 0.171979,0 0.350572,-0.0132 0.522551,-0.0132 0.105834,0 0.377031,0.0132 0.482865,0.0132 0.01984,0 0.07276,0 0.07276,-0.086 0,-0.0463 -0.03969,-0.0463 -0.09922,-0.0463 -0.257968,0 -0.257968,-0.0265 -0.271197,-0.15214 l -0.257969,-2.6326 c -0.0066,-0.086 -0.0066,-0.10583 -0.07937,-0.10583 -0.06615,0 -0.08599,0.0331 -0.112448,0.0728 z m 0.509322,-0.62177 0.826823,-1.39568 0.138906,1.39568 z m 0,0"
       id="path983" />
    <path
       inkscape:connector-curvature="0"
       style="fill:#000000;fill-opacity:1;stroke:none;stroke-width:0"
       d="m 4.5769792,276.87099 c -0.03969,0.16537 -0.05292,0.19844 -0.383646,0.19844 -0.07276,0 -0.112447,0 -0.112447,0.086 0,0.0463 0.03969,0.0463 0.112447,0.0463 h 1.508124 c 0.668073,0 1.164166,-0.49609 1.164166,-0.91281 0,-0.30427 -0.244739,-0.54901 -0.654843,-0.59531 0.436562,-0.0794 0.879739,-0.39026 0.879739,-0.79375 0,-0.31089 -0.277813,-0.58209 -0.780521,-0.58209 h -1.422134 c -0.07937,0 -0.119062,0 -0.119062,0.086 0,0.0463 0.03969,0.0463 0.119062,0.0463 0.0066,0 0.08599,0 0.15875,0.007 0.07276,0.0132 0.112448,0.0132 0.112448,0.0728 0,0.0132 -0.0066,0.0265 -0.01323,0.0794 z m 0.634999,-1.21708 0.264584,-1.0451 c 0.03969,-0.14553 0.0463,-0.15875 0.224895,-0.15875 h 0.54901 c 0.370417,0 0.456406,0.25135 0.456406,0.43656 0,0.37041 -0.363802,0.76729 -0.873124,0.76729 z m -0.185208,1.41552 c -0.05953,0 -0.06615,0 -0.0926,0 -0.0463,-0.007 -0.05953,-0.0132 -0.05953,-0.0463 0,-0.0132 0,-0.0198 0.02646,-0.0926 l 0.291042,-1.17739 h 0.793749 c 0.403489,0 0.489479,0.31088 0.489479,0.48948 0,0.41671 -0.377031,0.82682 -0.879739,0.82682 z m 0,0"
       id="path985" />
    <path
       inkscape:connector-curvature="0"
       style="fill:#000000;fill-opacity:1;stroke:none;stroke-width:0"
       d="m 59.369622,274.68544 c 0,-0.0132 -0.0066,-0.0463 -0.0463,-0.0463 -0.01323,0 -0.01984,0.007 -0.06615,0.0529 l -0.291042,0.32411 c -0.03969,-0.0595 -0.23151,-0.37703 -0.701145,-0.37703 -0.945885,0 -1.891769,0.93266 -1.891769,1.91161 0,0.69453 0.496093,1.15755 1.144322,1.15755 0.363801,0 0.687916,-0.16536 0.912811,-0.3638 0.39026,-0.34396 0.463021,-0.7276 0.463021,-0.74083 0,-0.0463 -0.0463,-0.0463 -0.05292,-0.0463 -0.02646,0 -0.0463,0.0132 -0.05292,0.0463 -0.03969,0.11906 -0.138907,0.42333 -0.429948,0.66807 -0.291042,0.23151 -0.555625,0.30427 -0.773906,0.30427 -0.377031,0 -0.826822,-0.21828 -0.826822,-0.87312 0,-0.24474 0.08599,-0.92604 0.509323,-1.42214 0.257968,-0.29765 0.654843,-0.50932 1.031874,-0.50932 0.429947,0 0.681301,0.32412 0.681301,0.81359 0,0.17198 -0.01323,0.17198 -0.01323,0.21829 0,0.0397 0.0463,0.0397 0.05953,0.0397 0.05292,0 0.05292,-0.007 0.07937,-0.086 z m 0,0"
       id="path989" />
    <path
       inkscape:connector-curvature="0"
       style="fill:#000000;fill-opacity:1;stroke:none;stroke-width:0"
       d="m 20.321927,263.63637 c -0.03969,0.16537 -0.0463,0.19844 -0.383645,0.19844 -0.06615,0 -0.112448,0 -0.112448,0.0794 0,0.0529 0.03307,0.0529 0.112448,0.0529 h 1.40229 c 0.873125,0 1.706562,-0.89297 1.706562,-1.81239 0,-0.59532 -0.357188,-1.07157 -0.992187,-1.07157 h -1.41552 c -0.07937,0 -0.125677,0 -0.125677,0.0794 0,0.0529 0.03307,0.0529 0.119063,0.0529 0.05292,0 0.132291,0.007 0.178593,0.007 0.07276,0.0132 0.0926,0.0198 0.0926,0.0728 0,0.0132 0,0.0265 -0.01323,0.0794 z m 0.912812,-2.26218 c 0.03969,-0.14553 0.0463,-0.15875 0.23151,-0.15875 h 0.449792 c 0.410104,0 0.760676,0.22489 0.760676,0.78052 0,0.20505 -0.07938,0.89958 -0.443177,1.3626 -0.119062,0.15875 -0.449791,0.47625 -0.972343,0.47625 h -0.476249 c -0.05953,0 -0.06615,0 -0.0926,0 -0.03969,-0.007 -0.05292,-0.0132 -0.05292,-0.0463 0,-0.0132 0,-0.0198 0.01984,-0.0926 z m 0,0"
       id="path993" />
    <path
       inkscape:connector-curvature="0"
       style="fill:#000000;fill-opacity:1;stroke:none;stroke-width:0"
       d="m 51.549353,263.3649 c 0.0066,-0.0198 0.01984,-0.0463 0.01984,-0.0595 0,0 0,-0.0463 -0.05292,-0.0463 -0.03969,0 -0.0463,0.0265 -0.05292,0.0529 -0.277812,0.62177 -0.429948,0.9062 -1.150937,0.9062 H 49.69726 c -0.05953,0 -0.07276,0 -0.0926,0 -0.0463,-0.007 -0.05953,-0.0132 -0.05953,-0.0463 0,-0.0132 0,-0.0198 0.01984,-0.0926 l 0.291041,-1.15755 h 0.416719 c 0.357187,0 0.357187,0.0926 0.357187,0.19844 0,0.0265 0,0.0794 -0.02646,0.20505 -0.0066,0.0198 -0.01323,0.0331 -0.01323,0.0463 0,0.0199 0.01323,0.0463 0.05292,0.0463 0.03307,0 0.0463,-0.0198 0.06615,-0.086 l 0.238125,-0.98557 c 0,-0.0265 -0.01984,-0.0463 -0.05292,-0.0463 -0.03307,0 -0.0463,0.0265 -0.05292,0.0728 -0.0926,0.32412 -0.165364,0.42333 -0.555624,0.42333 h -0.396875 l 0.251354,-1.01864 c 0.03969,-0.15214 0.0463,-0.16537 0.23151,-0.16537 h 0.595312 c 0.509323,0 0.641615,0.11907 0.641615,0.46964 0,0.0992 0,0.10583 -0.01984,0.2249 0,0.0198 -0.0066,0.0529 -0.0066,0.0728 0,0.0198 0.01323,0.0529 0.05292,0.0529 0.0463,0 0.05292,-0.0265 0.05953,-0.10583 l 0.08599,-0.73422 c 0.01323,-0.11245 -0.0066,-0.11245 -0.112448,-0.11245 h -2.136509 c -0.07937,0 -0.125677,0 -0.125677,0.086 0,0.0463 0.03969,0.0463 0.119062,0.0463 0.15875,0 0.277813,0 0.277813,0.0728 0,0.0198 0,0.0265 -0.02646,0.10583 l -0.555624,2.22911 c -0.03969,0.16537 -0.0463,0.19844 -0.383646,0.19844 -0.07276,0 -0.119062,0 -0.119062,0.0794 0,0.0529 0.03969,0.0529 0.119062,0.0529 h 2.189426 c 0.09922,0 0.105833,-0.007 0.132291,-0.0728 z m 0,0"
       id="path997" />
    <circle
       id="path1146"
       style="fill:#000000;stroke:none"
       cx="47.714455"
       cy="263.97067"
       r="0.5" />
    <circle
       id="path1148"
       style="fill:#000000;stroke:none"
       cx="39.6875"
       cy="275.83334"
       r="0.5" />
    <circle
       id="path1150"
       style="fill:#000000;stroke:none"
       cx="23.8125"
       cy="263.92709"
       r="0.5" />
    <text
       xml:space="preserve"
       style="font-style:normal;font-variant:normal;font-weight:normal;font-stretch:normal;font-size:4.23333359px;line-height:125%;font-family:LMRoman12;-inkscape-font-specification:LMRoman12;text-align:center;letter-spacing:0px;word-spacing:0px;writing-mode:lr-tb;text-anchor:middle;fill:#000000;fill-opacity:1;stroke:none;stroke-width:0.26458335px;stroke-linecap:butt;stroke-linejoin:miter;stroke-opacity:1"
       x="39.908409"
       y="280.31458"
       id="text1154"><tspan
         sodipodi:role="line"
         id="tspan1152"
         x="39.908409"
         y="280.31458"
         style="stroke-width:0.26458335px">O</tspan></text>
    <path
       sodipodi:nodetypes="cc"
       inkscape:connector-curvature="0"
       id="path1248"
       d="m 35.69586,272.6653 c 2.031935,-1.28679 3.950897,-0.76596 5.854542,0"
       style="color:#000000;clip-rule:nonzero;display:inline;overflow:visible;visibility:visible;opacity:1;isolation:auto;mix-blend-mode:normal;color-interpolation:sRGB;color-interpolation-filters:linearRGB;solid-color:#000000;solid-opacity:1;fill:none;fill-opacity:1;fill-rule:nonzero;stroke:#000000;stroke-width:0.18520834;stroke-linecap:round;stroke-linejoin:round;stroke-miterlimit:4;stroke-dasharray:none;stroke-dashoffset:0;stroke-opacity:1;marker-end:url(#marker1252);color-rendering:auto;image-rendering:auto;shape-rendering:auto;text-rendering:auto;enable-background:accumulate" />
    <path
       style="color:#000000;clip-rule:nonzero;display:inline;overflow:visible;visibility:visible;opacity:1;isolation:auto;mix-blend-mode:normal;color-interpolation:sRGB;color-interpolation-filters:linearRGB;solid-color:#000000;solid-opacity:1;fill:none;fill-opacity:1;fill-rule:nonzero;stroke:#000000;stroke-width:0.18520834;stroke-linecap:round;stroke-linejoin:round;stroke-miterlimit:4;stroke-dasharray:none;stroke-dashoffset:0;stroke-opacity:1;marker-end:url(#marker1714);color-rendering:auto;image-rendering:auto;shape-rendering:auto;text-rendering:auto;enable-background:accumulate"
       d="m 15.229601,273.19065 c 1.579642,-0.9858 3.080829,-0.57201 4.5714,0.0316"
       id="path1710"
       inkscape:connector-curvature="0"
       sodipodi:nodetypes="cc" />
    <path
       sodipodi:nodetypes="cc"
       inkscape:connector-curvature="0"
       id="path2574"
       d="m 50.987011,273.46664 c -1.579642,-0.9858 -3.080829,-0.57201 -4.5714,0.0316"
       style="color:#000000;clip-rule:nonzero;display:inline;overflow:visible;visibility:visible;opacity:1;isolation:auto;mix-blend-mode:normal;color-interpolation:sRGB;color-interpolation-filters:linearRGB;solid-color:#000000;solid-opacity:1;fill:none;fill-opacity:1;fill-rule:nonzero;stroke:#000000;stroke-width:0.18520834;stroke-linecap:round;stroke-linejoin:round;stroke-miterlimit:4;stroke-dasharray:none;stroke-dashoffset:0;stroke-opacity:1;marker-end:url(#marker2578);color-rendering:auto;image-rendering:auto;shape-rendering:auto;text-rendering:auto;enable-background:accumulate" />
    <path
       style="color:#000000;clip-rule:nonzero;display:inline;overflow:visible;visibility:visible;opacity:1;isolation:auto;mix-blend-mode:normal;color-interpolation:sRGB;color-interpolation-filters:linearRGB;solid-color:#000000;solid-opacity:1;fill:none;fill-opacity:1;fill-rule:nonzero;stroke:#000000;stroke-width:0.26458335;stroke-linecap:round;stroke-linejoin:round;stroke-miterlimit:4;stroke-dasharray:none;stroke-dashoffset:0;stroke-opacity:1;color-rendering:auto;image-rendering:auto;shape-rendering:auto;text-rendering:auto;enable-background:accumulate"
       d="m 23.812501,263.9271 h 23.8125"
       id="path3590"
       inkscape:connector-curvature="0" />
  </g>
</svg>
