<?xml version="1.0" encoding="UTF-8" standalone="no"?>
<!-- Created with Inkscape (http://www.inkscape.org/) -->

<svg
   xmlns:ns1="http://www.iki.fi/pav/software/textext/"
   xmlns:dc="http://purl.org/dc/elements/1.1/"
   xmlns:cc="http://creativecommons.org/ns#"
   xmlns:rdf="http://www.w3.org/1999/02/22-rdf-syntax-ns#"
   xmlns:svg="http://www.w3.org/2000/svg"
   xmlns="http://www.w3.org/2000/svg"
   xmlns:sodipodi="http://sodipodi.sourceforge.net/DTD/sodipodi-0.dtd"
   xmlns:inkscape="http://www.inkscape.org/namespaces/inkscape"
   width="10cm"
   height="10cm"
   viewBox="0 0 100 100"
   version="1.1"
   id="svg882"
   inkscape:version="0.92.4 (unknown)"
   sodipodi:docname="fig1-16c2.svg">
  <defs
     id="defs876">
    <marker
       inkscape:stockid="Arrow1Mend"
       orient="auto"
       refY="0.0"
       refX="0.0"
       id="marker18323"
       style="overflow:visible;"
       inkscape:isstock="true">
      <path
         id="path18321"
         d="M 0.0,0.0 L 5.0,-5.0 L -12.5,0.0 L 5.0,5.0 L 0.0,0.0 z "
         style="fill-rule:evenodd;stroke:#000000;stroke-width:1pt;stroke-opacity:1;fill:#000000;fill-opacity:1"
         transform="scale(0.4) rotate(180) translate(10,0)" />
    </marker>
    <marker
       inkscape:isstock="true"
       style="overflow:visible;"
       id="marker15998"
       refX="0.0"
       refY="0.0"
       orient="auto"
       inkscape:stockid="Arrow1Mend">
      <path
         transform="scale(0.4) rotate(180) translate(10,0)"
         style="fill-rule:evenodd;stroke:#000000;stroke-width:1pt;stroke-opacity:1;fill:#000000;fill-opacity:1"
         d="M 0.0,0.0 L 5.0,-5.0 L -12.5,0.0 L 5.0,5.0 L 0.0,0.0 z "
         id="path15996" />
    </marker>
    <marker
       inkscape:stockid="Arrow1Mend"
       orient="auto"
       refY="0.0"
       refX="0.0"
       id="marker11689"
       style="overflow:visible;"
       inkscape:isstock="true">
      <path
         id="path11687"
         d="M 0.0,0.0 L 5.0,-5.0 L -12.5,0.0 L 5.0,5.0 L 0.0,0.0 z "
         style="fill-rule:evenodd;stroke:#000000;stroke-width:1pt;stroke-opacity:1;fill:#000000;fill-opacity:1"
         transform="scale(0.4) rotate(180) translate(10,0)" />
    </marker>
    <marker
       inkscape:stockid="Arrow1Mend"
       orient="auto"
       refY="0"
       refX="0"
       id="Arrow1Mend-7"
       style="overflow:visible"
       inkscape:isstock="true"
       inkscape:collect="always">
      <path
         inkscape:connector-curvature="0"
         id="path2024-5"
         d="M 0,0 5,-5 -12.5,0 5,5 Z"
         style="fill:#000000;fill-opacity:1;fill-rule:evenodd;stroke:#000000;stroke-width:1.00000003pt;stroke-opacity:1"
         transform="matrix(-0.4,0,0,-0.4,-4,0)" />
    </marker>
  </defs>
  <sodipodi:namedview
     id="base"
     pagecolor="#ffffff"
     bordercolor="#666666"
     borderopacity="1.0"
     inkscape:pageopacity="0.0"
     inkscape:pageshadow="2"
     inkscape:zoom="1.4472708"
     inkscape:cx="188.97638"
     inkscape:cy="188.97638"
     inkscape:document-units="cm"
     inkscape:current-layer="layer1"
     showgrid="false"
     units="cm"
     inkscape:window-width="753"
     inkscape:window-height="716"
     inkscape:window-x="12"
     inkscape:window-y="24"
     inkscape:window-maximized="0"
     showguides="false"
     inkscape:guide-bbox="true">
    <inkscape:grid
       type="xygrid"
       id="grid1452" />
  </sodipodi:namedview>
  <metadata
     id="metadata879">
    <rdf:RDF>
      <cc:Work
         rdf:about="">
        <dc:format>image/svg+xml</dc:format>
        <dc:type
           rdf:resource="http://purl.org/dc/dcmitype/StillImage" />
        <dc:title></dc:title>
      </cc:Work>
    </rdf:RDF>
  </metadata>
  <g
     inkscape:label="Layer 1"
     inkscape:groupmode="layer"
     id="layer1"
     transform="translate(0,-197.00001)">
    <path
       sodipodi:type="star"
       style="color:#000000;clip-rule:nonzero;display:inline;overflow:visible;visibility:visible;opacity:1;isolation:auto;mix-blend-mode:normal;color-interpolation:sRGB;color-interpolation-filters:linearRGB;solid-color:#000000;solid-opacity:1;fill:none;fill-opacity:1;fill-rule:nonzero;stroke:#000000;stroke-width:0.26458332;stroke-linecap:round;stroke-linejoin:round;stroke-miterlimit:4;stroke-dasharray:none;stroke-dashoffset:0;stroke-opacity:1;color-rendering:auto;image-rendering:auto;shape-rendering:auto;text-rendering:auto;enable-background:accumulate"
       id="path970"
       sodipodi:sides="7"
       sodipodi:cx="29.104166"
       sodipodi:cy="47.083336"
       sodipodi:r1="18.520832"
       sodipodi:r2="16.039513"
       sodipodi:arg1="0"
       sodipodi:arg2="0.44879895"
       inkscape:flatsided="true"
       inkscape:rounded="0"
       inkscape:randomized="2.08167e-17"
       d="m 47.624998,47.083336 -6.973282,14.480169 -15.668823,3.576307 -12.56542,-10.020588 0,-16.071776 12.56542,-10.020588 15.668823,3.576306 z"
       transform="rotate(12.92159,-839.60614,145.72183)" />
    <path
       style="color:#000000;clip-rule:nonzero;display:inline;overflow:visible;visibility:visible;opacity:1;isolation:auto;mix-blend-mode:normal;color-interpolation:sRGB;color-interpolation-filters:linearRGB;solid-color:#000000;solid-opacity:1;fill:none;fill-opacity:1;fill-rule:nonzero;stroke:#000000;stroke-width:0.26458332;stroke-linecap:round;stroke-linejoin:round;stroke-miterlimit:4;stroke-dasharray:none;stroke-dashoffset:0;stroke-opacity:1;marker-end:url(#Arrow1Mend-7);color-rendering:auto;image-rendering:auto;shape-rendering:auto;text-rendering:auto;enable-background:accumulate"
       d="m 32.741277,259.8963 c 1.12579,-2.59655 3.072635,-3.94209 6.703395,-3.31865"
       id="path2013"
       inkscape:connector-curvature="0"
       sodipodi:nodetypes="cc" />
    <g
       id="g2584"
       ns1:jacobian_sqrt="0.423333"
       inkscapeversion="0.92.4"
       ns1:alignment="middle center"
       ns1:scale="1.19999998463"
       ns1:preamble="/home/sriranga/.config/inkscape/extensions"
       ns1:text="$127^\\circ.57\'$"
       ns1:pdfconverter="pdf2svg"
       ns1:texconverter="pdflatex"
       ns1:version="0.8.1"
       transform="matrix(0.40890829,-0.10956665,0.10956665,0.40890829,-48.757787,219.06687)">
      <g
         id="surface1">
        <g
           id="g2563"
           style="fill:#000000;fill-opacity:1">
          <path
             id="path2557"
             transform="translate(148.712,134.765)"
             d="m 2.9375,-6.375 c 0,-0.25 0,-0.265625 -0.234375,-0.265625 C 2.078125,-6 1.203125,-6 0.890625,-6 v 0.3125 c 0.203125,0 0.78125,0 1.296875,-0.265625 v 5.171875 c 0,0.359375 -0.03125,0.46875 -0.921875,0.46875 h -0.3125 V 0 c 0.34375,-0.03125 1.203125,-0.03125 1.609375,-0.03125 0.390625,0 1.265625,0 1.609375,0.03125 v -0.3125 h -0.3125 c -0.90625,0 -0.921875,-0.109375 -0.921875,-0.46875 z m 0,0"
             style="stroke:none;stroke-width:0"
             inkscape:connector-curvature="0" />
          <path
             id="path2559"
             transform="translate(153.6933,134.765)"
             d="m 1.265625,-0.765625 1.0625,-1.03125 c 1.546875,-1.375 2.140625,-1.90625 2.140625,-2.90625 0,-1.140625 -0.890625,-1.9375 -2.109375,-1.9375 -1.125,0 -1.859375,0.921875 -1.859375,1.8125 0,0.546875 0.5,0.546875 0.53125,0.546875 0.171875,0 0.515625,-0.109375 0.515625,-0.53125 0,-0.25 -0.1875,-0.515625 -0.53125,-0.515625 -0.078125,0 -0.09375,0 -0.125,0.015625 0.21875,-0.65625 0.765625,-1.015625 1.34375,-1.015625 0.90625,0 1.328125,0.8125 1.328125,1.625 C 3.5625,-3.90625 3.078125,-3.125 2.515625,-2.5 l -1.90625,2.125 C 0.5,-0.265625 0.5,-0.234375 0.5,0 H 4.203125 L 4.46875,-1.734375 H 4.234375 C 4.171875,-1.4375 4.109375,-1 4,-0.84375 3.9375,-0.765625 3.28125,-0.765625 3.0625,-0.765625 Z m 0,0"
             style="stroke:none;stroke-width:0"
             inkscape:connector-curvature="0" />
          <path
             id="path2561"
             transform="translate(158.6746,134.765)"
             d="m 4.75,-6.078125 c 0.078125,-0.109375 0.078125,-0.125 0.078125,-0.34375 H 2.40625 c -1.203125,0 -1.234375,-0.125 -1.265625,-0.3125 h -0.25 L 0.5625,-4.6875 h 0.25 c 0.03125,-0.15625 0.109375,-0.78125 0.25,-0.90625 0.0625,-0.0625 0.84375,-0.0625 0.96875,-0.0625 h 2.0625 C 3.984375,-5.5 3.203125,-4.40625 2.984375,-4.078125 2.078125,-2.734375 1.75,-1.34375 1.75,-0.328125 c 0,0.09375 0,0.546875 0.46875,0.546875 0.453125,0 0.453125,-0.453125 0.453125,-0.546875 V -0.84375 c 0,-0.546875 0.03125,-1.09375 0.109375,-1.625 0.046875,-0.234375 0.171875,-1.09375 0.625,-1.703125 z m 0,0"
             style="stroke:none;stroke-width:0"
             inkscape:connector-curvature="0" />
        </g>
        <g
           id="g2567"
           style="fill:#000000;fill-opacity:1">
          <path
             id="path2565"
             transform="translate(163.656,131.15)"
             d="m 3.53125,-1.734375 c 0,-0.84375 -0.671875,-1.5 -1.5,-1.5 -0.828125,0 -1.5,0.671875 -1.5,1.484375 0,0.84375 0.6875,1.5 1.5,1.5 0.84375,0 1.5,-0.671875 1.5,-1.484375 z m -1.5,1.140625 C 1.375,-0.59375 0.875,-1.125 0.875,-1.734375 c 0,-0.65625 0.515625,-1.171875 1.15625,-1.171875 0.65625,0 1.15625,0.53125 1.15625,1.15625 0,0.65625 -0.515625,1.15625 -1.15625,1.15625 z m 0,0"
             style="stroke:none;stroke-width:0"
             inkscape:connector-curvature="0" />
        </g>
        <g
           id="g2571"
           style="fill:#000000;fill-opacity:1">
          <path
             id="path2569"
             transform="translate(168.236,134.765)"
             d="m 1.90625,-0.53125 c 0,-0.28125 -0.234375,-0.53125 -0.515625,-0.53125 -0.296875,0 -0.53125,0.25 -0.53125,0.53125 C 0.859375,-0.234375 1.09375,0 1.390625,0 1.671875,0 1.90625,-0.234375 1.90625,-0.53125 Z m 0,0"
             style="stroke:none;stroke-width:0"
             inkscape:connector-curvature="0" />
        </g>
        <g
           id="g2577"
           style="fill:#000000;fill-opacity:1">
          <path
             id="path2573"
             transform="translate(171.004,134.765)"
             d="m 4.46875,-2 c 0,-1.1875 -0.8125,-2.1875 -1.890625,-2.1875 -0.46875,0 -0.90625,0.15625 -1.265625,0.515625 V -5.625 c 0.203125,0.0625 0.53125,0.125 0.84375,0.125 1.234375,0 1.9375,-0.90625 1.9375,-1.03125 0,-0.0625 -0.03125,-0.109375 -0.109375,-0.109375 0,0 -0.03125,0 -0.078125,0.03125 C 3.703125,-6.515625 3.21875,-6.3125 2.546875,-6.3125 2.15625,-6.3125 1.6875,-6.390625 1.21875,-6.59375 1.140625,-6.625 1.125,-6.625 1.109375,-6.625 1,-6.625 1,-6.546875 1,-6.390625 V -3.4375 c 0,0.171875 0,0.25 0.140625,0.25 0.078125,0 0.09375,-0.015625 0.140625,-0.078125 C 1.390625,-3.421875 1.75,-3.96875 2.5625,-3.96875 c 0.515625,0 0.765625,0.453125 0.84375,0.640625 0.15625,0.375 0.1875,0.75 0.1875,1.25 0,0.359375 0,0.953125 -0.25,1.375 C 3.109375,-0.3125 2.734375,-0.0625 2.28125,-0.0625 c -0.71875,0 -1.296875,-0.53125 -1.46875,-1.109375 0.03125,0 0.0625,0.015625 0.171875,0.015625 0.328125,0 0.5,-0.25 0.5,-0.484375 0,-0.25 -0.171875,-0.5 -0.5,-0.5 C 0.84375,-2.140625 0.5,-2.0625 0.5,-1.609375 0.5,-0.75 1.1875,0.21875 2.296875,0.21875 3.453125,0.21875 4.46875,-0.734375 4.46875,-2 Z m 0,0"
             style="stroke:none;stroke-width:0"
             inkscape:connector-curvature="0" />
          <path
             id="path2575"
             transform="translate(175.9853,134.765)"
             d="m 4.75,-6.078125 c 0.078125,-0.109375 0.078125,-0.125 0.078125,-0.34375 H 2.40625 c -1.203125,0 -1.234375,-0.125 -1.265625,-0.3125 h -0.25 L 0.5625,-4.6875 h 0.25 c 0.03125,-0.15625 0.109375,-0.78125 0.25,-0.90625 0.0625,-0.0625 0.84375,-0.0625 0.96875,-0.0625 h 2.0625 C 3.984375,-5.5 3.203125,-4.40625 2.984375,-4.078125 2.078125,-2.734375 1.75,-1.34375 1.75,-0.328125 c 0,0.09375 0,0.546875 0.46875,0.546875 0.453125,0 0.453125,-0.453125 0.453125,-0.546875 V -0.84375 c 0,-0.546875 0.03125,-1.09375 0.109375,-1.625 0.046875,-0.234375 0.171875,-1.09375 0.625,-1.703125 z m 0,0"
             style="stroke:none;stroke-width:0"
             inkscape:connector-curvature="0" />
        </g>
        <g
           id="g2581"
           style="fill:#000000;fill-opacity:1">
          <path
             id="path2579"
             transform="translate(180.966,131.15)"
             d="m 2.015625,-3.296875 c 0.0625,-0.109375 0.0625,-0.171875 0.0625,-0.21875 0,-0.21875 -0.1875,-0.375 -0.40625,-0.375 -0.265625,0 -0.34375,0.21875 -0.375,0.328125 L 0.375,-0.546875 c -0.015625,0.015625 -0.046875,0.09375 -0.046875,0.109375 0,0.078125 0.21875,0.15625 0.28125,0.15625 0.046875,0 0.046875,-0.015625 0.09375,-0.125 z m 0,0"
             style="stroke:none;stroke-width:0"
             inkscape:connector-curvature="0" />
        </g>
      </g>
    </g>
    <path
       inkscape:connector-curvature="0"
       style="fill:#000000;fill-opacity:1;stroke:none;stroke-width:0"
       d="m 20.304905,262.46327 c 0.0066,-0.0198 0.01984,-0.0463 0.01984,-0.0595 0,0 0,-0.0463 -0.05292,-0.0463 -0.03969,0 -0.0463,0.0265 -0.05292,0.0529 -0.277812,0.62177 -0.429948,0.9062 -1.150937,0.9062 h -0.615156 c -0.05953,0 -0.07276,0 -0.0926,0 -0.0463,-0.007 -0.05953,-0.0132 -0.05953,-0.0463 0,-0.0132 0,-0.0199 0.01984,-0.0926 l 0.291041,-1.15755 h 0.416719 c 0.357187,0 0.357187,0.0926 0.357187,0.19844 0,0.0265 0,0.0794 -0.02646,0.20505 -0.0066,0.0198 -0.01323,0.0331 -0.01323,0.0463 0,0.0198 0.01323,0.0463 0.05292,0.0463 0.03307,0 0.0463,-0.0198 0.06615,-0.086 l 0.238125,-0.98557 c 0,-0.0265 -0.01984,-0.0463 -0.05292,-0.0463 -0.03307,0 -0.0463,0.0265 -0.05292,0.0728 -0.0926,0.32412 -0.165364,0.42333 -0.555624,0.42333 h -0.396875 l 0.251354,-1.01864 c 0.03969,-0.15214 0.0463,-0.16537 0.23151,-0.16537 h 0.595312 c 0.509323,0 0.641615,0.11907 0.641615,0.46964 0,0.0992 0,0.10583 -0.01984,0.2249 0,0.0198 -0.0066,0.0529 -0.0066,0.0728 0,0.0198 0.01323,0.0529 0.05292,0.0529 0.0463,0 0.05292,-0.0265 0.05953,-0.10583 l 0.08599,-0.73422 c 0.01323,-0.11245 -0.0066,-0.11245 -0.112448,-0.11245 h -2.136509 c -0.07938,0 -0.125677,0 -0.125677,0.086 0,0.0463 0.03969,0.0463 0.119062,0.0463 0.15875,0 0.277813,0 0.277813,0.0728 0,0.0198 0,0.0265 -0.02646,0.10583 l -0.555624,2.22911 c -0.03969,0.16537 -0.0463,0.19844 -0.383646,0.19844 -0.07276,0 -0.119062,0 -0.119062,0.0794 0,0.0529 0.03969,0.0529 0.119062,0.0529 h 2.189426 c 0.09922,0 0.105833,-0.007 0.132291,-0.0728 z m 0,0"
       id="path1733" />
    <path
       inkscape:connector-curvature="0"
       style="fill:#000000;fill-opacity:1;stroke:none;stroke-width:0"
       d="m 37.870057,262.34061 h 0.410103 c 0.3175,0 0.350573,0.0661 0.350573,0.18521 0,0.0331 0,0.0794 -0.02646,0.21167 -0.01323,0.0198 -0.01323,0.0331 -0.01323,0.0463 0,0.0331 0.02646,0.0463 0.0463,0.0463 0.0463,0 0.0463,-0.0132 0.06614,-0.086 l 0.231511,-0.91942 c 0.01323,-0.0463 0.01323,-0.0529 0.01323,-0.0661 0,-0.007 -0.0066,-0.0463 -0.05292,-0.0463 -0.03969,0 -0.0463,0.0198 -0.05953,0.0926 -0.0926,0.32412 -0.185208,0.40349 -0.54901,0.40349 h -0.383646 l 0.271198,-1.07156 c 0.03969,-0.15214 0.0463,-0.16537 0.23151,-0.16537 h 0.555625 c 0.515937,0 0.615156,0.13891 0.615156,0.46303 0,0.0992 0,0.11244 -0.01323,0.23151 -0.0066,0.0529 -0.0066,0.0595 -0.0066,0.0728 0,0.0198 0.01323,0.0529 0.05292,0.0529 0.0463,0 0.0463,-0.0265 0.05292,-0.10583 l 0.08599,-0.73422 c 0.01323,-0.11245 -0.0066,-0.11245 -0.112448,-0.11245 h -2.070363 c -0.07937,0 -0.125677,0 -0.125677,0.086 0,0.0463 0.03969,0.0463 0.119062,0.0463 0.15875,0 0.277813,0 0.277813,0.0728 0,0.0198 0,0.0265 -0.02646,0.10583 l -0.555624,2.22911 c -0.03969,0.16537 -0.0463,0.19844 -0.383646,0.19844 -0.07276,0 -0.119062,0 -0.119062,0.0794 0,0.0529 0.05292,0.0529 0.06615,0.0529 0.119062,0 0.436562,-0.0132 0.555624,-0.0132 0.138906,0 0.489479,0.0132 0.628385,0.0132 0.03969,0 0.08599,0 0.08599,-0.0794 0,-0.0331 -0.01984,-0.0463 -0.01984,-0.0463 -0.01323,-0.007 -0.02646,-0.007 -0.119062,-0.007 -0.0926,0 -0.112448,0 -0.218282,-0.007 -0.125677,-0.0132 -0.138906,-0.0331 -0.138906,-0.086 0,-0.007 0,-0.0331 0.01984,-0.0926 z m 0,0"
       id="path1737" />
    <path
       inkscape:connector-curvature="0"
       style="fill:#000000;fill-opacity:1;stroke:none;stroke-width:0"
       d="m 51.060195,246.81663 c 0,-0.0132 -0.0066,-0.0463 -0.0463,-0.0463 -0.01323,0 -0.01984,0.007 -0.06615,0.0529 l -0.291042,0.32411 c -0.03969,-0.0595 -0.23151,-0.37703 -0.701145,-0.37703 -0.945885,0 -1.89177,0.93266 -1.89177,1.91161 0,0.67469 0.469636,1.15755 1.150937,1.15755 0.185208,0 0.377031,-0.0397 0.529166,-0.0992 0.211667,-0.086 0.291042,-0.17198 0.363802,-0.25797 0.03969,0.10583 0.152135,0.25797 0.191823,0.25797 0.01984,0 0.03307,-0.0132 0.03307,-0.0132 0.0066,-0.007 0.0463,-0.17198 0.06615,-0.25797 l 0.07937,-0.32412 c 0.01984,-0.0728 0.03969,-0.14552 0.05953,-0.21828 0.0463,-0.18521 0.0463,-0.19844 0.291041,-0.19844 0.01984,0 0.06615,-0.007 0.06615,-0.086 0,-0.0331 -0.01984,-0.0463 -0.05292,-0.0463 -0.09922,0 -0.350572,0.0132 -0.443176,0.0132 -0.132292,0 -0.463021,-0.0132 -0.595312,-0.0132 -0.03307,0 -0.08599,0 -0.08599,0.086 0,0.0463 0.03307,0.0463 0.125677,0.0463 0.0066,0 0.125677,0 0.224896,0.007 0.112447,0.0132 0.132291,0.0265 0.132291,0.0794 0,0.0397 -0.0463,0.2249 -0.0926,0.38365 -0.119062,0.46302 -0.661458,0.50932 -0.813593,0.50932 -0.403489,0 -0.846666,-0.23812 -0.846666,-0.88635 0,-0.13229 0.03969,-0.82682 0.482864,-1.37583 0.23151,-0.28443 0.641614,-0.5424 1.058333,-0.5424 0.429947,0 0.681301,0.32412 0.681301,0.81359 0,0.17198 -0.01323,0.17198 -0.01323,0.21829 0,0.0397 0.0463,0.0397 0.05953,0.0397 0.05292,0 0.05292,-0.007 0.07937,-0.086 z m 0,0"
       id="path1741" />
    <path
       inkscape:connector-curvature="0"
       style="fill:#000000;fill-opacity:1;stroke:none;stroke-width:0"
       d="m 47.338711,230.87522 c 0.03969,-0.15214 0.0463,-0.19182 0.350572,-0.19182 0.112448,0 0.145521,0 0.145521,-0.086 0,-0.0463 -0.0463,-0.0463 -0.05953,-0.0463 -0.119063,0 -0.423333,0.0132 -0.542396,0.0132 -0.119062,0 -0.416718,-0.0132 -0.542395,-0.0132 -0.03307,0 -0.07937,0 -0.07937,0.086 0,0.0463 0.03969,0.0463 0.119062,0.0463 0.0066,0 0.08599,0 0.15875,0.007 0.07937,0.0132 0.112448,0.0132 0.112448,0.0728 0,0.0132 0,0.0198 -0.01323,0.0794 l -0.251354,1.02525 h -1.289843 l 0.251354,-0.99218 c 0.03307,-0.15214 0.0463,-0.19182 0.350573,-0.19182 0.112448,0 0.145521,0 0.145521,-0.086 0,-0.0463 -0.0463,-0.0463 -0.05953,-0.0463 -0.119062,0 -0.423333,0.0132 -0.542395,0.0132 -0.119062,0 -0.416719,-0.0132 -0.542395,-0.0132 -0.03307,0 -0.07937,0 -0.07937,0.086 0,0.0463 0.03969,0.0463 0.119062,0.0463 0.0066,0 0.08599,0 0.15875,0.007 0.07276,0.0132 0.112448,0.0132 0.112448,0.0728 0,0.0132 0,0.0265 -0.01323,0.0794 l -0.568854,2.26218 c -0.03969,0.16537 -0.0463,0.19844 -0.383646,0.19844 -0.07276,0 -0.112448,0 -0.112448,0.086 0,0.0463 0.05292,0.0463 0.05953,0.0463 0.119062,0 0.416718,-0.0132 0.53578,-0.0132 0.08599,0 0.178594,0.007 0.271198,0.007 0.0926,0 0.185208,0.007 0.271198,0.007 0.03307,0 0.08599,0 0.08599,-0.086 0,-0.0463 -0.03969,-0.0463 -0.119062,-0.0463 -0.15875,0 -0.271198,0 -0.271198,-0.0728 0,-0.0265 0.0066,-0.0463 0.0066,-0.0728 l 0.291041,-1.15755 h 1.283228 c -0.171979,0.70114 -0.271197,1.10463 -0.291041,1.16416 -0.03969,0.13891 -0.119062,0.13891 -0.383645,0.13891 -0.05953,0 -0.09922,0 -0.09922,0.086 0,0.0463 0.05292,0.0463 0.05953,0.0463 0.119062,0 0.416718,-0.0132 0.535781,-0.0132 0.08599,0 0.178593,0.007 0.271198,0.007 0.0926,0 0.185208,0.007 0.271197,0.007 0.03307,0 0.08599,0 0.08599,-0.086 0,-0.0463 -0.03969,-0.0463 -0.119063,-0.0463 -0.152135,0 -0.271197,0 -0.271197,-0.0728 0,-0.0265 0.0066,-0.0463 0.01323,-0.0728 z m 0,0"
       id="path1745" />
    <path
       inkscape:connector-curvature="0"
       style="fill:#000000;fill-opacity:1;stroke:none;stroke-width:0"
       d="m 30.367409,222.13207 c 0.03307,-0.15214 0.0463,-0.19182 0.383646,-0.19182 0.09922,0 0.132291,0 0.132291,-0.0794 0,-0.0529 -0.0463,-0.0529 -0.05953,-0.0529 -0.125677,0 -0.436562,0.0132 -0.562239,0.0132 -0.125677,0 -0.429948,-0.0132 -0.562239,-0.0132 -0.02646,0 -0.07937,0 -0.07937,0.086 0,0.0463 0.03307,0.0463 0.119062,0.0463 0.171979,0 0.291042,0 0.291042,0.0794 0,0.0198 0,0.0331 -0.01323,0.0661 l -0.568854,2.27541 c -0.03969,0.15875 -0.0463,0.19844 -0.383646,0.19844 -0.09922,0 -0.132291,0 -0.132291,0.086 0,0.0463 0.0463,0.0463 0.05953,0.0463 0.125677,0 0.429947,-0.0132 0.555624,-0.0132 0.125677,0 0.436563,0.0132 0.56224,0.0132 0.03307,0 0.08599,0 0.08599,-0.0794 0,-0.0529 -0.03307,-0.0529 -0.125677,-0.0529 -0.07937,0 -0.09922,0 -0.178593,-0.007 -0.0926,-0.007 -0.105834,-0.0264 -0.105834,-0.0728 0,-0.0331 0.0066,-0.0661 0.01323,-0.0992 z m 0,0"
       id="path1749" />
    <path
       inkscape:connector-curvature="0"
       style="fill:#000000;fill-opacity:1;stroke:none;stroke-width:0"
       d="m 13.938316,230.7315 c 0.03307,-0.13891 0.0463,-0.17859 0.277813,-0.17859 0.06615,0 0.112448,0 0.112448,-0.0794 0,-0.0397 -0.02646,-0.0529 -0.05953,-0.0529 -0.105833,0 -0.363801,0.0132 -0.469635,0.0132 -0.138906,0 -0.482864,-0.0132 -0.62177,-0.0132 -0.03307,0 -0.08599,0 -0.08599,0.086 0,0.0463 0.03307,0.0463 0.145521,0.0463 0.0926,0 0.138906,0 0.24474,0.007 0.09922,0.0132 0.125677,0.0265 0.125677,0.086 0,0.0265 -0.0066,0.0529 -0.01323,0.086 l -0.489478,1.93807 c -0.09922,0.4101 -0.383646,0.635 -0.601927,0.635 -0.112448,0 -0.337343,-0.0397 -0.403489,-0.26458 0.01323,0.007 0.03969,0.007 0.05292,0.007 0.165365,0 0.271198,-0.14552 0.271198,-0.2712 0,-0.13229 -0.112448,-0.17859 -0.185208,-0.17859 -0.07276,0 -0.284427,0.0529 -0.284427,0.33734 0,0.26459 0.224896,0.46302 0.562239,0.46302 0.383646,0 0.826822,-0.27781 0.932656,-0.69453 z m 0,0"
       id="path1753" />
    <path
       inkscape:connector-curvature="0"
       style="fill:#000000;fill-opacity:1;stroke:none;stroke-width:0"
       d="m 8.9808117,247.64885 c -0.0066,-0.0132 -0.01984,-0.0463 -0.01984,-0.0595 0,0 0.07276,-0.0595 0.119063,-0.0926 l 0.740832,-0.56885 c 0.3968753,-0.29766 0.5622393,-0.31089 0.6879163,-0.32411 0.03307,-0.007 0.07276,-0.007 0.07276,-0.086 0,-0.0132 -0.01323,-0.0463 -0.0463,-0.0463 -0.0926,0 -0.198438,0.0132 -0.297656,0.0132 -0.152136,0 -0.3175003,-0.0132 -0.4696353,-0.0132 -0.02646,0 -0.07937,0 -0.07937,0.086 0,0.0265 0.01984,0.0397 0.05292,0.0463 0.0926,0.007 0.125677,0.0264 0.125677,0.086 0,0.0794 -0.125677,0.17859 -0.152135,0.19843 l -1.640415,1.26339 0.337343,-1.35599 c 0.03307,-0.15214 0.0463,-0.19182 0.350573,-0.19182 0.105833,0 0.145521,0 0.145521,-0.086 0,-0.0331 -0.03307,-0.0463 -0.05953,-0.0463 -0.119062,0 -0.423333,0.0132 -0.542395,0.0132 -0.119062,0 -0.416719,-0.0132 -0.542395,-0.0132 -0.02646,0 -0.08599,0 -0.08599,0.0794 0,0.0529 0.03969,0.0529 0.125677,0.0529 0.05292,0 0.132292,0.007 0.178594,0.007 0.06614,0.0132 0.0926,0.0198 0.0926,0.0728 0,0.0132 0,0.0265 -0.01323,0.0794 l -0.568854,2.26218 c -0.03969,0.16537 -0.0463,0.19844 -0.383646,0.19844 -0.07276,0 -0.119062,0 -0.119062,0.0794 0,0.0529 0.05292,0.0529 0.06615,0.0529 0.119062,0 0.416718,-0.0132 0.53578,-0.0132 0.08599,0 0.178594,0.007 0.271198,0.007 0.0926,0 0.185208,0.007 0.271198,0.007 0.03307,0 0.08599,0 0.08599,-0.086 0,-0.0463 -0.03969,-0.0463 -0.119062,-0.0463 -0.15875,0 -0.271198,0 -0.271198,-0.0728 0,-0.0331 0.01984,-0.12568 0.03307,-0.18521 0.05953,-0.2249 0.119063,-0.44318 0.171979,-0.66807 l 0.628385,-0.48948 0.489479,1.13771 c 0.05292,0.11244 0.05292,0.12567 0.05292,0.14552 0,0.13229 -0.185209,0.13229 -0.224896,0.13229 -0.0463,0 -0.0926,0 -0.0926,0.086 0,0.0463 0.05292,0.0463 0.05953,0.0463 0.171979,0 0.350573,-0.0132 0.515937,-0.0132 0.0926,0 0.324114,0.0132 0.416719,0.0132 0.01984,0 0.07276,0 0.07276,-0.086 0,-0.0463 -0.0463,-0.0463 -0.08599,-0.0463 -0.171979,0 -0.224895,-0.0397 -0.291041,-0.18521 z m 0,0"
       id="path1757" />
  </g>
</svg>
