<?xml version="1.0" encoding="UTF-8" standalone="no"?>
<!-- Created with Inkscape (http://www.inkscape.org/) -->

<svg
   xmlns:dc="http://purl.org/dc/elements/1.1/"
   xmlns:cc="http://creativecommons.org/ns#"
   xmlns:rdf="http://www.w3.org/1999/02/22-rdf-syntax-ns#"
   xmlns:svg="http://www.w3.org/2000/svg"
   xmlns="http://www.w3.org/2000/svg"
   xmlns:sodipodi="http://sodipodi.sourceforge.net/DTD/sodipodi-0.dtd"
   xmlns:inkscape="http://www.inkscape.org/namespaces/inkscape"
   width="10cm"
   height="10cm"
   viewBox="0 0 100 100"
   version="1.1"
   id="svg882"
   inkscape:version="0.92.4 (unknown)"
   sodipodi:docname="fig1-15a.svg">
  <defs
     id="defs876">
    <marker
       inkscape:isstock="true"
       style="overflow:visible;"
       id="marker15998"
       refX="0.0"
       refY="0.0"
       orient="auto"
       inkscape:stockid="Arrow1Mend">
      <path
         transform="scale(0.4) rotate(180) translate(10,0)"
         style="fill-rule:evenodd;stroke:#000000;stroke-width:1pt;stroke-opacity:1;fill:#000000;fill-opacity:1"
         d="M 0.0,0.0 L 5.0,-5.0 L -12.5,0.0 L 5.0,5.0 L 0.0,0.0 z "
         id="path15996" />
    </marker>
    <marker
       inkscape:stockid="Arrow1Mend"
       orient="auto"
       refY="0.0"
       refX="0.0"
       id="marker15956"
       style="overflow:visible;"
       inkscape:isstock="true"
       inkscape:collect="always">
      <path
         id="path15954"
         d="M 0.0,0.0 L 5.0,-5.0 L -12.5,0.0 L 5.0,5.0 L 0.0,0.0 z "
         style="fill-rule:evenodd;stroke:#000000;stroke-width:1pt;stroke-opacity:1;fill:#000000;fill-opacity:1"
         transform="scale(0.4) rotate(180) translate(10,0)" />
    </marker>
    <marker
       inkscape:stockid="Arrow1Mend"
       orient="auto"
       refY="0.0"
       refX="0.0"
       id="marker11689"
       style="overflow:visible;"
       inkscape:isstock="true">
      <path
         id="path11687"
         d="M 0.0,0.0 L 5.0,-5.0 L -12.5,0.0 L 5.0,5.0 L 0.0,0.0 z "
         style="fill-rule:evenodd;stroke:#000000;stroke-width:1pt;stroke-opacity:1;fill:#000000;fill-opacity:1"
         transform="scale(0.4) rotate(180) translate(10,0)" />
    </marker>
  </defs>
  <sodipodi:namedview
     id="base"
     pagecolor="#ffffff"
     bordercolor="#666666"
     borderopacity="1.0"
     inkscape:pageopacity="0.0"
     inkscape:pageshadow="2"
     inkscape:zoom="1.4472708"
     inkscape:cx="188.97638"
     inkscape:cy="188.97638"
     inkscape:document-units="cm"
     inkscape:current-layer="layer1"
     showgrid="false"
     units="cm"
     inkscape:window-width="753"
     inkscape:window-height="716"
     inkscape:window-x="0"
     inkscape:window-y="24"
     inkscape:window-maximized="0">
    <inkscape:grid
       id="grid1452"
       type="xygrid" />
  </sodipodi:namedview>
  <metadata
     id="metadata879">
    <rdf:RDF>
      <cc:Work
         rdf:about="">
        <dc:format>image/svg+xml</dc:format>
        <dc:type
           rdf:resource="http://purl.org/dc/dcmitype/StillImage" />
        <dc:title></dc:title>
      </cc:Work>
    </rdf:RDF>
  </metadata>
  <g
     inkscape:label="Layer 1"
     inkscape:groupmode="layer"
     id="layer1"
     transform="translate(0,-197.00001)">
    <path
       inkscape:connector-curvature="0"
       id="path15317"
       d="m 27.299668,258.23657 h 9.81474"
       style="color:#000000;clip-rule:nonzero;display:inline;overflow:visible;visibility:visible;opacity:1;isolation:auto;mix-blend-mode:normal;color-interpolation:sRGB;color-interpolation-filters:linearRGB;solid-color:#000000;solid-opacity:1;fill:none;fill-opacity:1;fill-rule:nonzero;stroke:#000000;stroke-width:0.26458332;stroke-linecap:round;stroke-linejoin:round;stroke-miterlimit:4;stroke-dasharray:none;stroke-dashoffset:0;stroke-opacity:1;marker-end:url(#marker15956);color-rendering:auto;image-rendering:auto;shape-rendering:auto;text-rendering:auto;enable-background:accumulate"
       sodipodi:nodetypes="cc" />
    <rect
       style="color:#000000;clip-rule:nonzero;display:inline;overflow:visible;visibility:visible;opacity:1;isolation:auto;mix-blend-mode:normal;color-interpolation:sRGB;color-interpolation-filters:linearRGB;solid-color:#000000;solid-opacity:1;fill:none;fill-opacity:1;fill-rule:evenodd;stroke:#000000;stroke-width:0.26458332;stroke-linecap:butt;stroke-linejoin:round;stroke-miterlimit:4;stroke-dasharray:none;stroke-dashoffset:0;stroke-opacity:1;color-rendering:auto;image-rendering:auto;shape-rendering:auto;text-rendering:auto;enable-background:accumulate"
       id="rect15937"
       width="21.166666"
       height="29.104166"
       x="5.2916665"
       y="244.08334" />
    <rect
       y="265.25"
       x="39.6875"
       height="7.937499"
       width="21.166666"
       id="rect15939"
       style="color:#000000;clip-rule:nonzero;display:inline;overflow:visible;visibility:visible;opacity:1;isolation:auto;mix-blend-mode:normal;color-interpolation:sRGB;color-interpolation-filters:linearRGB;solid-color:#000000;solid-opacity:1;fill:none;fill-opacity:1;fill-rule:evenodd;stroke:#000000;stroke-width:0.26458332;stroke-linecap:butt;stroke-linejoin:round;stroke-miterlimit:4;stroke-dasharray:none;stroke-dashoffset:0;stroke-opacity:1;color-rendering:auto;image-rendering:auto;shape-rendering:auto;text-rendering:auto;enable-background:accumulate" />
    <path
       style="color:#000000;clip-rule:nonzero;display:inline;overflow:visible;visibility:visible;opacity:1;isolation:auto;mix-blend-mode:normal;color-interpolation:sRGB;color-interpolation-filters:linearRGB;solid-color:#000000;solid-opacity:1;fill:none;fill-opacity:1;fill-rule:evenodd;stroke:#000000;stroke-width:0.26458332;stroke-linecap:butt;stroke-linejoin:round;stroke-miterlimit:4;stroke-dasharray:none;stroke-dashoffset:0;stroke-opacity:1;color-rendering:auto;image-rendering:auto;shape-rendering:auto;text-rendering:auto;enable-background:accumulate"
       d="m 39.687498,244.08334 21.166666,21.16667 H 39.687498 Z"
       id="rect15941"
       inkscape:connector-curvature="0"
       sodipodi:nodetypes="cccc" />
    <rect
       style="color:#000000;clip-rule:nonzero;display:inline;overflow:visible;visibility:visible;opacity:1;isolation:auto;mix-blend-mode:normal;color-interpolation:sRGB;color-interpolation-filters:linearRGB;solid-color:#000000;solid-opacity:1;fill:none;fill-opacity:1;fill-rule:evenodd;stroke:#000000;stroke-width:0.26458332;stroke-linecap:butt;stroke-linejoin:round;stroke-miterlimit:4;stroke-dasharray:none;stroke-dashoffset:0;stroke-opacity:1;color-rendering:auto;image-rendering:auto;shape-rendering:auto;text-rendering:auto;enable-background:accumulate"
       id="rect15946"
       width="21.166666"
       height="21.166666"
       x="71.4375"
       y="244.08334" />
    <path
       sodipodi:nodetypes="cc"
       style="color:#000000;clip-rule:nonzero;display:inline;overflow:visible;visibility:visible;opacity:1;isolation:auto;mix-blend-mode:normal;color-interpolation:sRGB;color-interpolation-filters:linearRGB;solid-color:#000000;solid-opacity:1;fill:none;fill-opacity:1;fill-rule:nonzero;stroke:#000000;stroke-width:0.26458332;stroke-linecap:round;stroke-linejoin:round;stroke-miterlimit:4;stroke-dasharray:none;stroke-dashoffset:0;stroke-opacity:1;marker-end:url(#marker15998);color-rendering:auto;image-rendering:auto;shape-rendering:auto;text-rendering:auto;enable-background:accumulate"
       d="m 58.378278,258.23657 h 9.81474"
       id="path15994"
       inkscape:connector-curvature="0" />
    <path
       inkscape:connector-curvature="0"
       style="fill:#000000;fill-opacity:1;stroke:none;stroke-width:0"
       d="m 36.969265,244.32341 c -0.128553,0.21597 -0.257107,0.26225 -0.401087,0.27254 -0.04114,0.005 -0.07199,0.005 -0.07199,0.0669 0,0.0206 0.02057,0.036 0.04628,0.036 0.08742,0 0.19026,-0.0103 0.277676,-0.0103 0.113127,0 0.226254,0.0103 0.329097,0.0103 0.02057,0 0.06171,0 0.06171,-0.0617 0,-0.036 -0.02571,-0.0411 -0.05142,-0.0411 -0.07199,-0.005 -0.154264,-0.0309 -0.154264,-0.11313 0,-0.0411 0.02057,-0.0771 0.04628,-0.12341 l 0.251965,-0.41651 h 0.822743 c 0.0051,0.0668 0.05142,0.51421 0.05142,0.54506 0,0.0977 -0.169691,0.10799 -0.236538,0.10799 -0.04628,0 -0.07713,0 -0.07713,0.0669 0,0.036 0.03599,0.036 0.04628,0.036 0.133695,0 0.272533,-0.0103 0.406229,-0.0103 0.08227,0 0.293102,0.0103 0.375376,0.0103 0.01543,0 0.05656,0 0.05656,-0.0669 0,-0.036 -0.03085,-0.036 -0.07713,-0.036 -0.200544,0 -0.200544,-0.0206 -0.210828,-0.11827 l -0.200544,-2.04657 c -0.0051,-0.0668 -0.0051,-0.0823 -0.0617,-0.0823 -0.05142,0 -0.06685,0.0257 -0.08742,0.0566 z m 0.395945,-0.48336 0.642767,-1.08499 0.107985,1.08499 z m 0,0"
       id="path16290" />
    <path
       inkscape:connector-curvature="0"
       style="fill:#000000;fill-opacity:1;stroke:none;stroke-width:0"
       d="m 37.235884,275.21803 c -0.03085,0.12856 -0.04114,0.15427 -0.298244,0.15427 -0.05656,0 -0.08742,0 -0.08742,0.0669 0,0.036 0.03085,0.036 0.08742,0.036 h 1.172408 c 0.519356,0 0.905017,-0.38566 0.905017,-0.70962 0,-0.23653 -0.190259,-0.42679 -0.509072,-0.46279 0.339381,-0.0617 0.683905,-0.30338 0.683905,-0.61705 0,-0.24169 -0.21597,-0.45251 -0.606773,-0.45251 h -1.10556 c -0.06171,0 -0.09256,0 -0.09256,0.0668 0,0.036 0.03085,0.036 0.09256,0.036 0.0051,0 0.06685,0 0.123411,0.005 0.05656,0.0103 0.08742,0.0103 0.08742,0.0566 0,0.0103 -0.0051,0.0206 -0.01028,0.0617 z m 0.493646,-0.94615 0.205685,-0.81246 c 0.03085,-0.11313 0.03599,-0.12341 0.174833,-0.12341 h 0.426798 c 0.28796,0 0.354808,0.1954 0.354808,0.33938 0,0.28796 -0.282818,0.59649 -0.678763,0.59649 z m -0.14398,1.10042 c -0.04628,0 -0.05142,0 -0.07199,0 -0.03599,-0.005 -0.04628,-0.0103 -0.04628,-0.036 0,-0.0103 0,-0.0154 0.02057,-0.072 l 0.226254,-0.9153 h 0.617057 c 0.313671,0 0.380519,0.24168 0.380519,0.38052 0,0.32395 -0.293102,0.64277 -0.683905,0.64277 z m 0,0"
       id="path16292" />
    <path
       inkscape:connector-curvature="0"
       style="fill:#000000;fill-opacity:1;stroke:none;stroke-width:0"
       d="m 63.873055,272.01347 c 0,-0.0103 -0.0051,-0.036 -0.03599,-0.036 -0.01028,0 -0.01543,0.005 -0.05142,0.0411 l -0.226254,0.25197 c -0.03085,-0.0463 -0.179975,-0.2931 -0.545067,-0.2931 -0.735326,0 -1.470653,0.72504 -1.470653,1.48608 0,0.53992 0.385661,0.89987 0.889591,0.89987 0.282818,0 0.534782,-0.12855 0.709615,-0.28282 0.303387,-0.26739 0.35995,-0.56563 0.35995,-0.57592 0,-0.036 -0.03599,-0.036 -0.04114,-0.036 -0.02057,0 -0.03599,0.0103 -0.04114,0.036 -0.03085,0.0926 -0.107985,0.3291 -0.334239,0.51936 -0.226254,0.17997 -0.43194,0.23654 -0.601631,0.23654 -0.293102,0 -0.642767,-0.16969 -0.642767,-0.67877 0,-0.19025 0.06685,-0.7199 0.395944,-1.10556 0.200544,-0.23139 0.509072,-0.39594 0.802174,-0.39594 0.33424,0 0.529641,0.25196 0.529641,0.63248 0,0.1337 -0.01028,0.1337 -0.01028,0.16969 0,0.0309 0.03599,0.0309 0.04628,0.0309 0.04114,0 0.04114,-0.005 0.06171,-0.0668 z m 0,0"
       id="path16296" />
    <path
       inkscape:connector-curvature="0"
       style="fill:#000000;fill-opacity:1;stroke:none;stroke-width:0"
       d="m 36.779075,266.22187 c -0.03085,0.12856 -0.03599,0.15427 -0.298244,0.15427 -0.05142,0 -0.08742,0 -0.08742,0.0617 0,0.0411 0.02571,0.0411 0.08742,0.0411 h 1.090134 c 0.678762,0 1.326672,-0.69419 1.326672,-1.40895 0,-0.46279 -0.277675,-0.83302 -0.771321,-0.83302 h -1.100418 c -0.06171,0 -0.0977,0 -0.0977,0.0617 0,0.0411 0.02571,0.0411 0.09256,0.0411 0.04114,0 0.102843,0.005 0.138838,0.005 0.05656,0.0103 0.07199,0.0154 0.07199,0.0566 0,0.0103 0,0.0206 -0.01028,0.0617 z m 0.709616,-1.75861 c 0.03085,-0.11313 0.03599,-0.12341 0.179975,-0.12341 h 0.349665 c 0.318813,0 0.591346,0.17483 0.591346,0.60677 0,0.15941 -0.06171,0.69933 -0.344523,1.05928 -0.09256,0.12341 -0.349666,0.37024 -0.755895,0.37024 h -0.370234 c -0.04628,0 -0.05142,0 -0.07199,0 -0.03085,-0.005 -0.04114,-0.0103 -0.04114,-0.036 0,-0.0103 0,-0.0154 0.01543,-0.072 z m 0,0"
       id="path16300" />
    <path
       inkscape:connector-curvature="0"
       style="fill:#000000;fill-opacity:1;stroke:none;stroke-width:0"
       d="m 63.525478,265.47606 c 0.0051,-0.0154 0.01543,-0.036 0.01543,-0.0463 0,0 0,-0.036 -0.04114,-0.036 -0.03085,0 -0.03599,0.0206 -0.04114,0.0411 -0.21597,0.48337 -0.334239,0.70448 -0.894733,0.70448 h -0.478219 c -0.04628,0 -0.05656,0 -0.07199,0 -0.03599,-0.005 -0.04628,-0.0103 -0.04628,-0.036 0,-0.0103 0,-0.0154 0.01543,-0.072 l 0.226255,-0.89987 h 0.323954 c 0.277676,0 0.277676,0.072 0.277676,0.15426 0,0.0206 0,0.0617 -0.02057,0.15941 -0.0051,0.0154 -0.01028,0.0257 -0.01028,0.036 0,0.0154 0.01028,0.036 0.04114,0.036 0.02571,0 0.03599,-0.0154 0.05142,-0.0668 l 0.185117,-0.76618 c 0,-0.0206 -0.01543,-0.036 -0.04114,-0.036 -0.02571,0 -0.03599,0.0206 -0.04114,0.0566 -0.07199,0.25196 -0.128554,0.3291 -0.43194,0.3291 h -0.308529 l 0.195402,-0.79189 c 0.03085,-0.11827 0.03599,-0.12856 0.179975,-0.12856 h 0.462792 c 0.395945,0 0.498788,0.0926 0.498788,0.3651 0,0.0771 0,0.0823 -0.01543,0.17483 0,0.0154 -0.0051,0.0411 -0.0051,0.0566 0,0.0154 0.01028,0.0411 0.04114,0.0411 0.03599,0 0.04114,-0.0206 0.04628,-0.0823 l 0.06685,-0.57077 c 0.01028,-0.0874 -0.0051,-0.0874 -0.08742,-0.0874 h -1.660911 c -0.06171,0 -0.0977,0 -0.0977,0.0669 0,0.036 0.03085,0.036 0.09256,0.036 0.123411,0 0.215969,0 0.215969,0.0566 0,0.0154 0,0.0206 -0.02057,0.0823 l -0.43194,1.7329 c -0.03085,0.12856 -0.03599,0.15427 -0.298244,0.15427 -0.05656,0 -0.09256,0 -0.09256,0.0617 0,0.0411 0.03085,0.0411 0.09256,0.0411 h 1.702048 c 0.07713,0 0.08228,-0.005 0.102843,-0.0566 z m 0,0"
       id="path16304" />
    <path
       id="path16361"
       d="m 68.692588,244.91526 c -0.128553,0.21597 -0.257107,0.26225 -0.401087,0.27254 -0.04114,0.005 -0.07199,0.005 -0.07199,0.0669 0,0.0206 0.02057,0.036 0.04628,0.036 0.08742,0 0.19026,-0.0103 0.277676,-0.0103 0.113127,0 0.226254,0.0103 0.329097,0.0103 0.02057,0 0.06171,0 0.06171,-0.0617 0,-0.036 -0.02571,-0.0411 -0.05142,-0.0411 -0.07199,-0.005 -0.154264,-0.0309 -0.154264,-0.11313 0,-0.0411 0.02057,-0.0771 0.04628,-0.12341 l 0.251965,-0.41651 h 0.822743 c 0.0051,0.0668 0.05142,0.51421 0.05142,0.54506 0,0.0977 -0.169691,0.10799 -0.236538,0.10799 -0.04628,0 -0.07713,0 -0.07713,0.0669 0,0.036 0.03599,0.036 0.04628,0.036 0.133695,0 0.272533,-0.0103 0.406229,-0.0103 0.08227,0 0.293102,0.0103 0.375376,0.0103 0.01543,0 0.05656,0 0.05656,-0.0669 0,-0.036 -0.03085,-0.036 -0.07713,-0.036 -0.200544,0 -0.200544,-0.0206 -0.210828,-0.11827 l -0.200544,-2.04657 c -0.0051,-0.0668 -0.0051,-0.0823 -0.0617,-0.0823 -0.05142,0 -0.06685,0.0257 -0.08742,0.0566 z m 0.395945,-0.48336 0.642767,-1.08499 0.107985,1.08499 z m 0,0"
       style="fill:#000000;fill-opacity:1;stroke:none;stroke-width:0"
       inkscape:connector-curvature="0" />
    <path
       id="path16367"
       d="m 94.070449,244.67842 c -0.03085,0.12856 -0.03599,0.15427 -0.298244,0.15427 -0.05142,0 -0.08742,0 -0.08742,0.0617 0,0.0411 0.02571,0.0411 0.08742,0.0411 h 1.090134 c 0.678762,0 1.326672,-0.69419 1.326672,-1.40895 0,-0.46279 -0.277675,-0.83302 -0.771321,-0.83302 h -1.100418 c -0.06171,0 -0.0977,0 -0.0977,0.0617 0,0.0411 0.02571,0.0411 0.09256,0.0411 0.04114,0 0.102843,0.005 0.138838,0.005 0.05656,0.0103 0.07199,0.0154 0.07199,0.0566 0,0.0103 0,0.0206 -0.01028,0.0617 z m 0.709616,-1.75861 c 0.03085,-0.11313 0.03599,-0.12341 0.179975,-0.12341 h 0.349665 c 0.318813,0 0.591346,0.17483 0.591346,0.60677 0,0.15941 -0.06171,0.69933 -0.344523,1.05928 -0.09256,0.12341 -0.349666,0.37024 -0.755895,0.37024 h -0.370234 c -0.04628,0 -0.05142,0 -0.07199,0 -0.03085,-0.005 -0.04114,-0.0103 -0.04114,-0.036 0,-0.0103 0,-0.0154 0.01543,-0.072 z m 0,0"
       style="fill:#000000;fill-opacity:1;stroke:none;stroke-width:0"
       inkscape:connector-curvature="0" />
    <path
       id="path16369"
       d="m 95.485541,266.06791 c 0.0051,-0.0154 0.01543,-0.036 0.01543,-0.0463 0,0 0,-0.036 -0.04114,-0.036 -0.03085,0 -0.03599,0.0206 -0.04114,0.0411 -0.21597,0.48337 -0.334239,0.70448 -0.894733,0.70448 h -0.478219 c -0.04628,0 -0.05656,0 -0.07199,0 -0.03599,-0.005 -0.04628,-0.0103 -0.04628,-0.036 0,-0.0103 0,-0.0154 0.01543,-0.072 l 0.226255,-0.89987 h 0.323954 c 0.277676,0 0.277676,0.072 0.277676,0.15426 0,0.0206 0,0.0617 -0.02057,0.15941 -0.0051,0.0154 -0.01028,0.0257 -0.01028,0.036 0,0.0154 0.01028,0.036 0.04114,0.036 0.02571,0 0.03599,-0.0154 0.05142,-0.0668 l 0.185117,-0.76618 c 0,-0.0206 -0.01543,-0.036 -0.04114,-0.036 -0.02571,0 -0.03599,0.0206 -0.04114,0.0566 -0.07199,0.25196 -0.128554,0.3291 -0.43194,0.3291 h -0.308529 l 0.195402,-0.79189 c 0.03085,-0.11827 0.03599,-0.12856 0.179975,-0.12856 h 0.462792 c 0.395945,0 0.498788,0.0926 0.498788,0.3651 0,0.0771 0,0.0823 -0.01543,0.17483 0,0.0154 -0.0051,0.0411 -0.0051,0.0566 0,0.0154 0.01028,0.0411 0.04114,0.0411 0.03599,0 0.04114,-0.0206 0.04628,-0.0823 l 0.06685,-0.57077 c 0.01028,-0.0874 -0.0051,-0.0874 -0.08742,-0.0874 h -1.660911 c -0.06171,0 -0.0977,0 -0.0977,0.0669 0,0.036 0.03085,0.036 0.09256,0.036 0.123411,0 0.215969,0 0.215969,0.0566 0,0.0154 0,0.0206 -0.02057,0.0823 l -0.43194,1.7329 c -0.03085,0.12856 -0.03599,0.15427 -0.298244,0.15427 -0.05656,0 -0.09256,0 -0.09256,0.0617 0,0.0411 0.03085,0.0411 0.09256,0.0411 h 1.702048 c 0.07713,0 0.08228,-0.005 0.102843,-0.0566 z m 0,0"
       style="fill:#000000;fill-opacity:1;stroke:none;stroke-width:0"
       inkscape:connector-curvature="0" />
    <path
       id="path16371"
       d="m 69.298937,265.6513 h 0.318813 c 0.246823,0 0.272533,0.0514 0.272533,0.14398 0,0.0257 0,0.0617 -0.02057,0.16455 -0.01028,0.0154 -0.01028,0.0257 -0.01028,0.036 0,0.0257 0.02057,0.036 0.03599,0.036 0.03599,0 0.03599,-0.0103 0.05142,-0.0668 l 0.179975,-0.71476 c 0.01028,-0.036 0.01028,-0.0411 0.01028,-0.0514 0,-0.005 -0.0051,-0.036 -0.04114,-0.036 -0.03085,0 -0.03599,0.0154 -0.04628,0.072 -0.07199,0.25197 -0.14398,0.31367 -0.426798,0.31367 h -0.298244 l 0.210828,-0.83302 c 0.03085,-0.11827 0.03599,-0.12856 0.179975,-0.12856 h 0.431939 c 0.401087,0 0.478219,0.10799 0.478219,0.35995 0,0.0771 0,0.0874 -0.01028,0.17998 -0.0051,0.0411 -0.0051,0.0463 -0.0051,0.0566 0,0.0154 0.01028,0.0411 0.04114,0.0411 0.03599,0 0.03599,-0.0206 0.04114,-0.0823 l 0.06685,-0.57077 c 0.01028,-0.0874 -0.0051,-0.0874 -0.08742,-0.0874 h -1.60949 c -0.06171,0 -0.0977,0 -0.0977,0.0669 0,0.036 0.03085,0.036 0.09256,0.036 0.123411,0 0.215969,0 0.215969,0.0566 0,0.0154 0,0.0206 -0.02057,0.0823 l -0.43194,1.7329 c -0.03085,0.12856 -0.03599,0.15427 -0.298244,0.15427 -0.05656,0 -0.09256,0 -0.09256,0.0617 0,0.0411 0.04114,0.0411 0.05142,0.0411 0.09256,0 0.339381,-0.0103 0.43194,-0.0103 0.107985,0 0.380518,0.0103 0.488503,0.0103 0.03085,0 0.06685,0 0.06685,-0.0617 0,-0.0257 -0.01543,-0.036 -0.01543,-0.036 -0.01028,-0.005 -0.02057,-0.005 -0.09256,-0.005 -0.07199,0 -0.08742,0 -0.169691,-0.005 -0.0977,-0.0103 -0.107985,-0.0257 -0.107985,-0.0669 0,-0.005 0,-0.0257 0.01543,-0.072 z m 0,0"
       style="fill:#000000;fill-opacity:1;stroke:none;stroke-width:0"
       inkscape:connector-curvature="0" />
    <path
       inkscape:connector-curvature="0"
       style="fill:#000000;fill-opacity:1;stroke:none;stroke-width:0"
       d="m 2.8785304,244.44178 c -0.128553,0.21597 -0.257107,0.26225 -0.401087,0.27254 -0.04114,0.005 -0.07199,0.005 -0.07199,0.0669 0,0.0206 0.02057,0.036 0.04628,0.036 0.08742,0 0.19026,-0.0103 0.277676,-0.0103 0.113127,0 0.226254,0.0103 0.329097,0.0103 0.02057,0 0.06171,0 0.06171,-0.0617 0,-0.036 -0.02571,-0.0411 -0.05142,-0.0411 -0.07199,-0.005 -0.154264,-0.0309 -0.154264,-0.11313 0,-0.0411 0.02057,-0.0771 0.04628,-0.12341 l 0.251965,-0.41651 h 0.822743 c 0.0051,0.0668 0.05142,0.51421 0.05142,0.54506 0,0.0977 -0.169691,0.10799 -0.236538,0.10799 -0.04628,0 -0.07713,0 -0.07713,0.0669 0,0.036 0.03599,0.036 0.04628,0.036 0.133695,0 0.272533,-0.0103 0.406229,-0.0103 0.08227,0 0.293102,0.0103 0.375376,0.0103 0.01543,0 0.05656,0 0.05656,-0.0669 0,-0.036 -0.03085,-0.036 -0.07713,-0.036 -0.200544,0 -0.200544,-0.0206 -0.210828,-0.11827 l -0.200544,-2.04657 c -0.0051,-0.0668 -0.0051,-0.0823 -0.0617,-0.0823 -0.05142,0 -0.06685,0.0257 -0.08742,0.0566 z m 0.395945,-0.48336 0.642767,-1.08499 0.107985,1.08499 z m 0,0"
       id="path16373" />
    <path
       inkscape:connector-curvature="0"
       style="fill:#000000;fill-opacity:1;stroke:none;stroke-width:0"
       d="m 2.5532968,274.50782 c -0.03085,0.12856 -0.04114,0.15427 -0.2982443,0.15427 -0.05656,0 -0.08742,0 -0.08742,0.0669 0,0.036 0.03085,0.036 0.08742,0.036 h 1.1724083 c 0.519356,0 0.905017,-0.38566 0.905017,-0.70962 0,-0.23653 -0.190259,-0.42679 -0.509072,-0.46279 0.339381,-0.0617 0.683905,-0.30338 0.683905,-0.61705 0,-0.24169 -0.21597,-0.45251 -0.606773,-0.45251 h -1.10556 c -0.06171,0 -0.09256,0 -0.09256,0.0668 0,0.036 0.03085,0.036 0.09256,0.036 0.0051,0 0.06685,0 0.123411,0.005 0.05656,0.0103 0.08742,0.0103 0.08742,0.0566 0,0.0103 -0.0051,0.0206 -0.01028,0.0617 z m 0.493646,-0.94615 0.205685,-0.81246 c 0.03085,-0.11313 0.03599,-0.12341 0.174833,-0.12341 h 0.426798 c 0.28796,0 0.354808,0.1954 0.354808,0.33938 0,0.28796 -0.282818,0.59649 -0.678763,0.59649 z m -0.14398,1.10042 c -0.04628,0 -0.05142,0 -0.07199,0 -0.03599,-0.005 -0.04628,-0.0103 -0.04628,-0.036 0,-0.0103 0,-0.0154 0.02057,-0.072 l 0.226254,-0.9153 h 0.617057 c 0.313671,0 0.380519,0.24168 0.380519,0.38052 0,0.32395 -0.293102,0.64277 -0.683905,0.64277 z m 0,0"
       id="path16375" />
    <path
       inkscape:connector-curvature="0"
       style="fill:#000000;fill-opacity:1;stroke:none;stroke-width:0"
       d="m 29.782321,272.48696 c 0,-0.0103 -0.0051,-0.036 -0.03599,-0.036 -0.01028,0 -0.01543,0.005 -0.05142,0.0411 l -0.226254,0.25197 c -0.03085,-0.0463 -0.179975,-0.2931 -0.545067,-0.2931 -0.735326,0 -1.470653,0.72504 -1.470653,1.48608 0,0.53992 0.385661,0.89987 0.889591,0.89987 0.282818,0 0.534782,-0.12855 0.709615,-0.28282 0.303387,-0.26739 0.35995,-0.56563 0.35995,-0.57592 0,-0.036 -0.03599,-0.036 -0.04114,-0.036 -0.02057,0 -0.03599,0.0103 -0.04114,0.036 -0.03085,0.0926 -0.107985,0.3291 -0.334239,0.51936 -0.226254,0.17997 -0.43194,0.23654 -0.601631,0.23654 -0.293102,0 -0.642767,-0.16969 -0.642767,-0.67877 0,-0.19025 0.06685,-0.7199 0.395944,-1.10556 0.200544,-0.23139 0.509072,-0.39594 0.802174,-0.39594 0.33424,0 0.529641,0.25196 0.529641,0.63248 0,0.1337 -0.01028,0.1337 -0.01028,0.16969 0,0.0309 0.03599,0.0309 0.04628,0.0309 0.04114,0 0.04114,-0.005 0.06171,-0.0668 z m 0,0"
       id="path16377" />
    <path
       inkscape:connector-curvature="0"
       style="fill:#000000;fill-opacity:1;stroke:none;stroke-width:0"
       d="m 27.782909,244.91516 c -0.03085,0.12856 -0.03599,0.15427 -0.298244,0.15427 -0.05142,0 -0.08742,0 -0.08742,0.0617 0,0.0411 0.02571,0.0411 0.08742,0.0411 h 1.090134 c 0.678762,0 1.326672,-0.69419 1.326672,-1.40895 0,-0.46279 -0.277675,-0.83302 -0.771321,-0.83302 h -1.100418 c -0.06171,0 -0.0977,0 -0.0977,0.0617 0,0.0411 0.02571,0.0411 0.09256,0.0411 0.04114,0 0.102843,0.005 0.138838,0.005 0.05656,0.0103 0.07199,0.0154 0.07199,0.0566 0,0.0103 0,0.0206 -0.01028,0.0617 z m 0.709616,-1.75861 c 0.03085,-0.11313 0.03599,-0.12341 0.179975,-0.12341 h 0.349665 c 0.318813,0 0.591346,0.17483 0.591346,0.60677 0,0.15941 -0.06171,0.69933 -0.344523,1.05928 -0.09256,0.12341 -0.349666,0.37024 -0.755895,0.37024 h -0.370234 c -0.04628,0 -0.05142,0 -0.07199,0 -0.03085,-0.005 -0.04114,-0.0103 -0.04114,-0.036 0,-0.0103 0,-0.0154 0.01543,-0.072 z m 0,0"
       id="path16379" />
  </g>
</svg>
