<?xml version="1.0" encoding="UTF-8" standalone="no"?>
<!-- Created with Inkscape (http://www.inkscape.org/) -->

<svg
   xmlns:ns0="http://www.iki.fi/pav/software/textext/"
   xmlns:dc="http://purl.org/dc/elements/1.1/"
   xmlns:cc="http://creativecommons.org/ns#"
   xmlns:rdf="http://www.w3.org/1999/02/22-rdf-syntax-ns#"
   xmlns:svg="http://www.w3.org/2000/svg"
   xmlns="http://www.w3.org/2000/svg"
   xmlns:xlink="http://www.w3.org/1999/xlink"
   xmlns:sodipodi="http://sodipodi.sourceforge.net/DTD/sodipodi-0.dtd"
   xmlns:inkscape="http://www.inkscape.org/namespaces/inkscape"
   width="744.09448819"
   height="1052.3622047"
   id="svg2"
   version="1.1"
   inkscape:version="0.48.4 r9939"
   sodipodi:docname="New document 1">
  <sodipodi:namedview
     id="base"
     pagecolor="#ffffff"
     bordercolor="#666666"
     borderopacity="1.0"
     inkscape:pageopacity="0.0"
     inkscape:pageshadow="2"
     inkscape:zoom="1.7370784"
     inkscape:cx="532.29085"
     inkscape:cy="914.37368"
     inkscape:document-units="px"
     inkscape:current-layer="textext-e9654921-17"
     showgrid="false"
     inkscape:window-width="1024"
     inkscape:window-height="744"
     inkscape:window-x="0"
     inkscape:window-y="24"
     inkscape:window-maximized="1" />
  <defs
     id="defs4" />
  <metadata
     id="metadata7">
    <rdf:RDF>
      <cc:Work
         rdf:about="">
        <dc:format>image/svg+xml</dc:format>
        <dc:type
           rdf:resource="http://purl.org/dc/dcmitype/StillImage" />
        <dc:title></dc:title>
      </cc:Work>
    </rdf:RDF>
  </metadata>
  <g
     id="layer1"
     inkscape:groupmode="layer"
     inkscape:label="Layer 1">
    <g
       id="g2990"
       ns0:preamble="/home/sriranga/Desktop/general-books/CSY/article4/figure/package.tex"
       ns0:text="\\begin{align*}\n\\text{So}\\quad F(x) &amp;= \\text{shaded area}\\\\[3pt]\n                    &amp;= \\text{Area~ } \n\\end{align*}"
       transform="scale(1.200000,1.200000)">
      <defs
         id="defs2992">
        <g
           id="g2994">
          <symbol
             id="textext-e9654921-0"
             overflow="visible">
            <path
               id="path2997"
               d=""
               style="stroke:none;" />
          </symbol>
          <symbol
             id="textext-e9654921-1"
             overflow="visible">
            <path
               id="path3000"
               d="M 4.453125 -6.734375 L 4.25 -6.734375 C 4.203125 -6.515625 4.09375 -6.40625 3.921875 -6.40625 C 3.828125 -6.40625 3.65625 -6.4375 3.484375 -6.515625 C 3.125 -6.65625 2.75 -6.734375 2.4375 -6.734375 C 2 -6.734375 1.5625 -6.5625 1.234375 -6.28125 C 0.890625 -5.96875 0.703125 -5.546875 0.703125 -5.03125 C 0.703125 -4.234375 1.140625 -3.671875 2.265625 -3.09375 C 2.984375 -2.71875 3.5 -2.296875 3.75 -1.921875 C 3.84375 -1.796875 3.890625 -1.578125 3.890625 -1.34375 C 3.890625 -0.671875 3.390625 -0.21875 2.65625 -0.21875 C 1.78125 -0.21875 1.140625 -0.765625 0.640625 -1.984375 L 0.421875 -1.984375 L 0.71875 0.125 L 0.9375 0.125 C 0.953125 -0.0625 1.0625 -0.203125 1.21875 -0.203125 C 1.328125 -0.203125 1.5 -0.15625 1.6875 -0.09375 C 2.0625 0.0625 2.46875 0.140625 2.859375 0.140625 C 4 0.140625 4.890625 -0.640625 4.890625 -1.671875 C 4.890625 -2.5 4.34375 -3.140625 3.03125 -3.84375 C 1.984375 -4.421875 1.5625 -4.859375 1.5625 -5.40625 C 1.5625 -5.953125 1.984375 -6.328125 2.609375 -6.328125 C 3.046875 -6.328125 3.46875 -6.140625 3.8125 -5.78125 C 4.125 -5.46875 4.265625 -5.203125 4.421875 -4.609375 L 4.671875 -4.609375 Z M 4.453125 -6.734375 "
               style="stroke:none;" />
          </symbol>
          <symbol
             id="textext-e9654921-2"
             overflow="visible">
            <path
               id="path3003"
               d="M 2.5 -4.578125 C 1.203125 -4.578125 0.296875 -3.625 0.296875 -2.25 C 0.296875 -0.90625 1.21875 0.09375 2.46875 0.09375 C 3.734375 0.09375 4.6875 -0.953125 4.6875 -2.328125 C 4.6875 -3.640625 3.765625 -4.578125 2.5 -4.578125 Z M 2.359375 -4.3125 C 3.203125 -4.3125 3.78125 -3.34375 3.78125 -1.984375 C 3.78125 -0.859375 3.34375 -0.171875 2.59375 -0.171875 C 2.203125 -0.171875 1.828125 -0.421875 1.625 -0.8125 C 1.34375 -1.328125 1.1875 -2.03125 1.1875 -2.734375 C 1.1875 -3.6875 1.65625 -4.3125 2.359375 -4.3125 Z M 2.359375 -4.3125 "
               style="stroke:none;" />
          </symbol>
          <symbol
             id="textext-e9654921-3"
             overflow="visible">
            <path
               id="path3006"
               d="M 2.9375 -6.734375 C 2.203125 -6.265625 1.90625 -6 1.53125 -5.546875 C 0.828125 -4.671875 0.484375 -3.671875 0.484375 -2.515625 C 0.484375 -1.25 0.84375 -0.265625 1.71875 0.75 C 2.140625 1.21875 2.390625 1.453125 2.90625 1.765625 L 3.03125 1.609375 C 2.234375 0.984375 1.953125 0.625 1.6875 -0.125 C 1.453125 -0.78125 1.328125 -1.546875 1.328125 -2.546875 C 1.328125 -3.59375 1.46875 -4.40625 1.734375 -5.03125 C 2.015625 -5.640625 2.3125 -6 3.03125 -6.578125 Z M 2.9375 -6.734375 "
               style="stroke:none;" />
          </symbol>
          <symbol
             id="textext-e9654921-4"
             overflow="visible">
            <path
               id="path3009"
               d="M 0.375 1.765625 C 1.109375 1.28125 1.421875 1.03125 1.78125 0.5625 C 2.5 -0.296875 2.84375 -1.296875 2.84375 -2.46875 C 2.84375 -3.734375 2.46875 -4.703125 1.59375 -5.71875 C 1.1875 -6.203125 0.921875 -6.421875 0.40625 -6.734375 L 0.296875 -6.578125 C 1.09375 -5.953125 1.359375 -5.609375 1.640625 -4.859375 C 1.875 -4.1875 1.984375 -3.421875 1.984375 -2.4375 C 1.984375 -1.390625 1.859375 -0.5625 1.578125 0.046875 C 1.3125 0.671875 1 1.03125 0.296875 1.609375 Z M 0.375 1.765625 "
               style="stroke:none;" />
          </symbol>
          <symbol
             id="textext-e9654921-5"
             overflow="visible">
            <path
               id="path3012"
               d="M 3.140625 -3.125 L 3.09375 -4.484375 L 2.984375 -4.484375 L 2.96875 -4.46875 C 2.875 -4.390625 2.875 -4.390625 2.828125 -4.390625 C 2.765625 -4.390625 2.671875 -4.40625 2.5625 -4.453125 C 2.34375 -4.53125 2.125 -4.578125 1.859375 -4.578125 C 1.078125 -4.578125 0.515625 -4.0625 0.515625 -3.34375 C 0.515625 -2.796875 0.828125 -2.390625 1.671875 -1.90625 L 2.25 -1.578125 C 2.609375 -1.390625 2.765625 -1.140625 2.765625 -0.84375 C 2.765625 -0.40625 2.453125 -0.125 1.9375 -0.125 C 1.609375 -0.125 1.296875 -0.25 1.109375 -0.46875 C 0.890625 -0.71875 0.8125 -0.953125 0.671875 -1.515625 L 0.515625 -1.515625 L 0.515625 0.046875 L 0.640625 0.046875 C 0.71875 -0.0625 0.75 -0.078125 0.875 -0.078125 C 0.96875 -0.078125 1.109375 -0.0625 1.328125 0 C 1.609375 0.0625 1.890625 0.09375 2.0625 0.09375 C 2.828125 0.09375 3.46875 -0.484375 3.46875 -1.171875 C 3.46875 -1.671875 3.234375 -2 2.625 -2.359375 L 1.5625 -3 C 1.28125 -3.15625 1.125 -3.40625 1.125 -3.671875 C 1.125 -4.078125 1.4375 -4.359375 1.890625 -4.359375 C 2.46875 -4.359375 2.765625 -4.015625 2.984375 -3.125 Z M 3.140625 -3.125 "
               style="stroke:none;" />
          </symbol>
          <symbol
             id="textext-e9654921-6"
             overflow="visible">
            <path
               id="path3015"
               d="M 1.5625 -3.421875 C 1.984375 -3.875 2.28125 -4.046875 2.671875 -4.046875 C 3.171875 -4.046875 3.421875 -3.6875 3.421875 -2.984375 L 3.421875 -1.015625 C 3.421875 -0.34375 3.3125 -0.203125 2.734375 -0.15625 L 2.734375 0 L 4.859375 0 L 4.859375 -0.15625 C 4.3125 -0.25 4.25 -0.328125 4.25 -1.015625 L 4.25 -3 C 4.25 -4.046875 3.84375 -4.578125 3.03125 -4.578125 C 2.4375 -4.578125 2.03125 -4.34375 1.5625 -3.75 L 1.5625 -6.78125 L 1.515625 -6.8125 C 1.171875 -6.6875 0.921875 -6.609375 0.375 -6.453125 L 0.09375 -6.375 L 0.09375 -6.203125 C 0.140625 -6.21875 0.171875 -6.21875 0.21875 -6.21875 C 0.640625 -6.21875 0.734375 -6.140625 0.734375 -5.71875 L 0.734375 -1.015625 C 0.734375 -0.3125 0.671875 -0.234375 0.09375 -0.15625 L 0.09375 0 L 2.25 0 L 2.25 -0.15625 C 1.671875 -0.203125 1.5625 -0.328125 1.5625 -1.015625 Z M 1.5625 -3.421875 "
               style="stroke:none;" />
          </symbol>
          <symbol
             id="textext-e9654921-7"
             overflow="visible">
            <path
               id="path3018"
               d="M 4.40625 -0.65625 C 4.234375 -0.515625 4.109375 -0.46875 3.96875 -0.46875 C 3.734375 -0.46875 3.671875 -0.609375 3.671875 -1.046875 L 3.671875 -2.984375 C 3.671875 -3.515625 3.625 -3.796875 3.46875 -4.03125 C 3.25 -4.390625 2.828125 -4.578125 2.234375 -4.578125 C 1.296875 -4.578125 0.5625 -4.09375 0.5625 -3.46875 C 0.5625 -3.234375 0.75 -3.046875 0.984375 -3.046875 C 1.21875 -3.046875 1.4375 -3.234375 1.4375 -3.453125 C 1.4375 -3.5 1.421875 -3.546875 1.421875 -3.625 C 1.390625 -3.703125 1.390625 -3.78125 1.390625 -3.859375 C 1.390625 -4.125 1.703125 -4.34375 2.109375 -4.34375 C 2.59375 -4.34375 2.859375 -4.0625 2.859375 -3.515625 L 2.859375 -2.90625 C 1.328125 -2.296875 1.15625 -2.21875 0.734375 -1.828125 C 0.515625 -1.640625 0.375 -1.296875 0.375 -0.96875 C 0.375 -0.34375 0.8125 0.09375 1.421875 0.09375 C 1.859375 0.09375 2.265625 -0.109375 2.875 -0.625 C 2.921875 -0.109375 3.09375 0.09375 3.515625 0.09375 C 3.84375 0.09375 4.0625 -0.015625 4.40625 -0.40625 Z M 2.859375 -1.21875 C 2.859375 -0.921875 2.8125 -0.828125 2.609375 -0.703125 C 2.359375 -0.5625 2.078125 -0.484375 1.875 -0.484375 C 1.53125 -0.484375 1.25 -0.8125 1.25 -1.25 L 1.25 -1.28125 C 1.25 -1.875 1.65625 -2.234375 2.859375 -2.671875 Z M 2.859375 -1.21875 "
               style="stroke:none;" />
          </symbol>
          <symbol
             id="textext-e9654921-8"
             overflow="visible">
            <path
               id="path3021"
               d="M 3.421875 0.09375 L 4.890625 -0.421875 L 4.890625 -0.578125 C 4.71875 -0.5625 4.6875 -0.5625 4.671875 -0.5625 C 4.3125 -0.5625 4.234375 -0.671875 4.234375 -1.140625 L 4.234375 -6.78125 L 4.171875 -6.8125 C 3.703125 -6.640625 3.34375 -6.546875 2.71875 -6.375 L 2.71875 -6.203125 C 2.796875 -6.21875 2.84375 -6.21875 2.9375 -6.21875 C 3.296875 -6.21875 3.390625 -6.125 3.390625 -5.71875 L 3.390625 -4.15625 C 3.015625 -4.46875 2.734375 -4.578125 2.34375 -4.578125 C 1.203125 -4.578125 0.265625 -3.453125 0.265625 -2.046875 C 0.265625 -0.765625 1.015625 0.09375 2.109375 0.09375 C 2.671875 0.09375 3.046875 -0.09375 3.390625 -0.5625 L 3.390625 0.0625 Z M 3.390625 -1.015625 C 3.390625 -0.953125 3.3125 -0.828125 3.21875 -0.71875 C 3.046875 -0.515625 2.796875 -0.421875 2.5 -0.421875 C 1.671875 -0.421875 1.125 -1.21875 1.125 -2.4375 C 1.125 -3.5625 1.609375 -4.3125 2.375 -4.3125 C 2.90625 -4.3125 3.390625 -3.84375 3.390625 -3.3125 Z M 3.390625 -1.015625 "
               style="stroke:none;" />
          </symbol>
          <symbol
             id="textext-e9654921-9"
             overflow="visible">
            <path
               id="path3024"
               d="M 4.0625 -1.640625 C 3.59375 -0.875 3.15625 -0.59375 2.515625 -0.59375 C 1.953125 -0.59375 1.53125 -0.875 1.234375 -1.453125 C 1.0625 -1.828125 0.984375 -2.15625 0.96875 -2.765625 L 4.03125 -2.765625 C 3.953125 -3.40625 3.859375 -3.703125 3.609375 -4.015625 C 3.3125 -4.375 2.84375 -4.578125 2.328125 -4.578125 C 1.828125 -4.578125 1.359375 -4.40625 0.984375 -4.0625 C 0.515625 -3.65625 0.25 -2.953125 0.25 -2.140625 C 0.25 -0.75 0.96875 0.09375 2.109375 0.09375 C 3.0625 0.09375 3.8125 -0.484375 4.234375 -1.5625 Z M 0.984375 -3.078125 C 1.09375 -3.859375 1.4375 -4.234375 2.046875 -4.234375 C 2.65625 -4.234375 2.890625 -3.953125 3.015625 -3.078125 Z M 0.984375 -3.078125 "
               style="stroke:none;" />
          </symbol>
          <symbol
             id="textext-e9654921-10"
             overflow="visible">
            <path
               id="path3027"
               d="M 0.0625 -3.890625 C 0.203125 -3.921875 0.296875 -3.921875 0.421875 -3.921875 C 0.671875 -3.921875 0.75 -3.765625 0.75 -3.328125 L 0.75 -0.84375 C 0.75 -0.34375 0.6875 -0.265625 0.046875 -0.15625 L 0.046875 0 L 2.4375 0 L 2.4375 -0.15625 C 1.765625 -0.171875 1.59375 -0.328125 1.59375 -0.890625 L 1.59375 -3.140625 C 1.59375 -3.453125 2.03125 -3.953125 2.296875 -3.953125 C 2.359375 -3.953125 2.4375 -3.90625 2.546875 -3.8125 C 2.71875 -3.671875 2.828125 -3.609375 2.953125 -3.609375 C 3.1875 -3.609375 3.34375 -3.78125 3.34375 -4.0625 C 3.34375 -4.390625 3.125 -4.578125 2.796875 -4.578125 C 2.375 -4.578125 2.078125 -4.359375 1.59375 -3.65625 L 1.59375 -4.5625 L 1.546875 -4.578125 C 1.015625 -4.359375 0.65625 -4.234375 0.0625 -4.046875 Z M 0.0625 -3.890625 "
               style="stroke:none;" />
          </symbol>
          <symbol
             id="textext-e9654921-11"
             overflow="visible">
            <path
               id="path3030"
               d="M 7.03125 -0.1875 C 6.59375 -0.21875 6.484375 -0.3125 6.140625 -1.0625 L 3.65625 -6.71875 L 3.453125 -6.71875 L 1.390625 -1.828125 C 0.75 -0.375 0.625 -0.203125 0.15625 -0.1875 L 0.15625 0 L 2.125 0 L 2.125 -0.1875 C 1.640625 -0.1875 1.453125 -0.3125 1.453125 -0.59375 C 1.453125 -0.71875 1.46875 -0.859375 1.53125 -0.984375 L 1.984375 -2.15625 L 4.59375 -2.15625 L 5 -1.203125 C 5.125 -0.921875 5.1875 -0.671875 5.1875 -0.53125 C 5.1875 -0.28125 5.03125 -0.203125 4.5 -0.1875 L 4.5 0 L 7.03125 0 Z M 2.15625 -2.5625 L 3.296875 -5.296875 L 4.453125 -2.5625 Z M 2.15625 -2.5625 "
               style="stroke:none;" />
          </symbol>
          <symbol
             id="textext-e9654921-12"
             overflow="visible">
            <path
               id="path3033"
               d=""
               style="stroke:none;" />
          </symbol>
          <symbol
             id="textext-e9654921-13"
             overflow="visible">
            <path
               id="path3036"
               d="M 6.4375 -6.515625 L 1.46875 -6.515625 L 1.46875 -6.34375 C 2.109375 -6.296875 2.234375 -6.234375 2.234375 -5.9375 C 2.234375 -5.796875 2.1875 -5.546875 2.125 -5.296875 L 0.890625 -0.890625 C 0.71875 -0.296875 0.640625 -0.234375 0.078125 -0.15625 L 0.078125 0 L 2.59375 0 L 2.59375 -0.15625 C 2.015625 -0.1875 1.828125 -0.296875 1.828125 -0.59375 C 1.828125 -0.671875 1.859375 -0.828125 1.921875 -1.046875 L 2.546875 -3.265625 C 2.90625 -3.25 3.125 -3.234375 3.34375 -3.234375 C 3.734375 -3.234375 3.8125 -3.234375 3.890625 -3.1875 C 4.046875 -3.109375 4.109375 -2.984375 4.109375 -2.78125 C 4.109375 -2.625 4.09375 -2.5 4.03125 -2.1875 L 4.203125 -2.140625 L 4.96875 -4.46875 L 4.78125 -4.53125 C 4.34375 -3.625 4.3125 -3.625 2.625 -3.59375 L 3.296875 -5.921875 C 3.34375 -6.125 3.484375 -6.1875 3.890625 -6.1875 C 5.578125 -6.1875 5.9375 -6.046875 5.9375 -5.4375 C 5.9375 -5.375 5.9375 -5.328125 5.921875 -5.1875 C 5.90625 -5.140625 5.90625 -5.125 5.90625 -5 L 6.109375 -4.984375 Z M 6.4375 -6.515625 "
               style="stroke:none;" />
          </symbol>
          <symbol
             id="textext-e9654921-14"
             overflow="visible">
            <path
               id="path3039"
               d="M 4 -1.109375 C 3.921875 -1.015625 3.875 -0.953125 3.78125 -0.84375 C 3.5625 -0.53125 3.4375 -0.4375 3.328125 -0.4375 C 3.1875 -0.4375 3.09375 -0.5625 3.015625 -0.84375 C 3 -0.921875 2.984375 -0.984375 2.984375 -1.015625 C 2.734375 -2.03125 2.625 -2.484375 2.625 -2.625 C 3.0625 -3.40625 3.421875 -3.84375 3.59375 -3.84375 C 3.65625 -3.84375 3.734375 -3.8125 3.84375 -3.765625 C 3.953125 -3.6875 4.03125 -3.671875 4.109375 -3.671875 C 4.3125 -3.671875 4.453125 -3.8125 4.453125 -4.03125 C 4.453125 -4.234375 4.28125 -4.390625 4.046875 -4.390625 C 3.609375 -4.390625 3.234375 -4.03125 2.546875 -2.96875 L 2.4375 -3.515625 C 2.296875 -4.203125 2.1875 -4.390625 1.90625 -4.390625 C 1.6875 -4.390625 1.359375 -4.3125 0.75 -4.109375 L 0.640625 -4.0625 L 0.671875 -3.921875 C 1.0625 -4 1.140625 -4.03125 1.234375 -4.03125 C 1.484375 -4.03125 1.546875 -3.9375 1.6875 -3.34375 L 1.96875 -2.109375 L 1.15625 -0.953125 C 0.953125 -0.640625 0.75 -0.46875 0.640625 -0.46875 C 0.59375 -0.46875 0.484375 -0.5 0.390625 -0.5625 C 0.265625 -0.625 0.15625 -0.65625 0.0625 -0.65625 C -0.125 -0.65625 -0.265625 -0.515625 -0.265625 -0.3125 C -0.265625 -0.046875 -0.0625 0.109375 0.234375 0.109375 C 0.53125 0.109375 0.65625 0.015625 1.15625 -0.59375 C 1.421875 -0.90625 1.640625 -1.171875 2.046875 -1.75 L 2.359375 -0.5625 C 2.484375 -0.046875 2.609375 0.109375 2.9375 0.109375 C 3.3125 0.109375 3.5625 -0.125 4.140625 -1.03125 Z M 4 -1.109375 "
               style="stroke:none;" />
          </symbol>
          <symbol
             id="textext-e9654921-15"
             overflow="visible">
            <path
               id="path3042"
               d=""
               style="stroke:none;" />
          </symbol>
          <symbol
             id="textext-e9654921-16"
             overflow="visible">
            <path
               id="path3045"
               d="M 5.71875 -3.296875 L 5.71875 -3.84375 L 0.625 -3.84375 L 0.625 -3.296875 Z M 5.71875 -1.265625 L 5.71875 -1.828125 L 0.625 -1.828125 L 0.625 -1.265625 Z M 5.71875 -1.265625 "
               style="stroke:none;" />
          </symbol>
        </g>
      </defs>
      <g
         id="textext-e9654921-17">
        <g
           id="g3048"
           style="fill:rgb(0%,0%,0%);fill-opacity:1;">
          <use
             id="use3050"
             y="134.765"
             x="346.483"
             xlink:href="#textext-e9654921-1" />
          <use
             id="use3052"
             y="134.765"
             x="352.022206"
             xlink:href="#textext-e9654921-2" />
        </g>
        <g
           id="g3054"
           style="fill:rgb(0%,0%,0%);fill-opacity:1;">
          <use
             id="use3056"
             y="134.765"
             x="367.215"
             xlink:href="#textext-e9654921-13" />
        </g>
        <g
           id="g3058"
           style="fill:rgb(0%,0%,0%);fill-opacity:1;">
          <use
             id="use3060"
             y="134.765"
             x="373.89"
             xlink:href="#textext-e9654921-3" />
        </g>
        <g
           id="g3062"
           style="fill:rgb(0%,0%,0%);fill-opacity:1;">
          <use
             id="use3064"
             y="134.765"
             x="377.706"
             xlink:href="#textext-e9654921-14" />
        </g>
        <g
           id="g3066"
           style="fill:rgb(0%,0%,0%);fill-opacity:1;">
          <use
             id="use3068"
             y="134.765"
             x="382.159"
             xlink:href="#textext-e9654921-4" />
        </g>
        <g
           id="g3070"
           style="fill:rgb(0%,0%,0%);fill-opacity:1;">
          <use
             id="use3072"
             y="134.765"
             x="388.244"
             xlink:href="#textext-e9654921-16" />
        </g>
        <g
           id="g3074"
           style="fill:rgb(0%,0%,0%);fill-opacity:1;">
          <use
             id="use3076"
             y="134.765"
             x="397.348"
             xlink:href="#textext-e9654921-5" />
          <use
             id="use3078"
             y="134.765"
             x="401.223451"
             xlink:href="#textext-e9654921-6" />
          <use
             id="use3080"
             y="134.765"
             x="406.204751"
             xlink:href="#textext-e9654921-7" />
          <use
             id="use3082"
             y="134.765"
             x="410.628146"
             xlink:href="#textext-e9654921-8" />
          <use
             id="use3084"
             y="134.765"
             x="415.609446"
             xlink:href="#textext-e9654921-9" />
          <use
             id="use3086"
             y="134.765"
             x="420.03284"
             xlink:href="#textext-e9654921-8" />
        </g>
        <g
           id="g3088"
           style="fill:rgb(0%,0%,0%);fill-opacity:1;">
          <use
             id="use3090"
             y="134.765"
             x="427.50479"
             xlink:href="#textext-e9654921-7" />
          <use
             id="use3092"
             y="134.765"
             x="431.928185"
             xlink:href="#textext-e9654921-10" />
          <use
             id="use3094"
             y="134.765"
             x="435.24573"
             xlink:href="#textext-e9654921-9" />
          <use
             id="use3096"
             y="134.765"
             x="439.669125"
             xlink:href="#textext-e9654921-7" />
        </g>
        <g
           id="g3098"
           style="fill:#000000;fill-opacity:1"
           transform="translate(0,13.333334)">
          <use
             id="use3100"
             y="152.69701"
             x="388.24399"
             xlink:href="#textext-e9654921-16"
             width="744.09448"
             height="1052.3622" />
        </g>
        <g
           id="g3102"
           style="fill:#000000;fill-opacity:1"
           transform="translate(0,13.333334)">
          <use
             id="use3104"
             y="152.69701"
             x="397.34799"
             xlink:href="#textext-e9654921-11"
             width="744.09448"
             height="1052.3622" />
          <use
             id="use3106"
             y="152.69701"
             x="404.54099"
             xlink:href="#textext-e9654921-10"
             width="744.09448"
             height="1052.3622" />
          <use
             id="use3108"
             y="152.69701"
             x="407.85855"
             xlink:href="#textext-e9654921-9"
             width="744.09448"
             height="1052.3622" />
          <use
             id="use3110"
             y="152.69701"
             x="412.28195"
             xlink:href="#textext-e9654921-7"
             width="744.09448"
             height="1052.3622" />
        </g>
        <path
           style="fill:none;stroke:#000000;stroke-width:0.83333331px;stroke-linecap:butt;stroke-linejoin:miter;stroke-opacity:1"
           d="m 430.05952,141.90895 c -5.38536,12.53616 -4.9279,23.74148 0,33.92857"
           id="path3185"
           inkscape:connector-curvature="0"
           sodipodi:nodetypes="cc" />
        <path
           style="fill:none;stroke:#000000;stroke-width:0.83333331px;stroke-linecap:butt;stroke-linejoin:miter;stroke-opacity:1"
           d="m 437.79761,172.86133 24.40477,0 0,-28.86905 z"
           id="path3187"
           inkscape:connector-curvature="0" />
        <path
           sodipodi:nodetypes="cc"
           inkscape:connector-curvature="0"
           id="path3189"
           d="m 483.22558,141.90895 c 5.38536,12.53616 4.9279,23.74148 0,33.92857"
           style="fill:none;stroke:#000000;stroke-width:0.83333331px;stroke-linecap:butt;stroke-linejoin:miter;stroke-opacity:1" />
        <path
           style="fill:none;stroke:#000000;stroke-width:0.83333331px;stroke-linecap:butt;stroke-linejoin:miter;stroke-opacity:1"
           d="m 466.77846,150.98106 c 0.42534,1.43888 2.41236,2.81233 1.83079,7.09258 0.36495,0.50031 0.40101,0.78084 1.39839,2.23896 -0.99738,1.45812 -1.03344,1.73865 -1.39839,2.23896 0.56773,4.17839 -1.31233,5.58669 -1.79782,6.98992"
           id="path3191"
           inkscape:connector-curvature="0"
           sodipodi:nodetypes="ccccc" />
        <path
           sodipodi:nodetypes="ccccc"
           inkscape:connector-curvature="0"
           id="path3195"
           d="m 460.41136,176.08719 c -1.43888,0.42534 -2.81233,2.41236 -7.09258,1.83079 -0.50032,0.36495 -0.78085,0.40101 -2.23897,1.39839 -1.45812,-0.99738 -1.73865,-1.03344 -2.23896,-1.39839 -4.17839,0.56773 -5.58669,-1.31233 -6.98992,-1.79782"
           style="fill:none;stroke:#000000;stroke-width:0.83333331px;stroke-linecap:butt;stroke-linejoin:miter;stroke-opacity:1" />
        <g
           transform="matrix(1.2,0,0,1.2,179.89977,25.702893)"
           ns0:text="$x$"
           ns0:preamble="/home/sriranga/Desktop/general-books/CSY/article4/figure/package.tex"
           id="g3277">
          <defs
             id="defs3279">
            <g
               id="g3281">
              <symbol
                 style="overflow:visible"
                 overflow="visible"
                 id="textext-5d44e608-0">
                <path
                   inkscape:connector-curvature="0"
                   style="stroke:none"
                   d=""
                   id="path3284" />
              </symbol>
              <symbol
                 style="overflow:visible"
                 overflow="visible"
                 id="textext-5d44e608-1">
                <path
                   inkscape:connector-curvature="0"
                   style="stroke:none"
                   d="M 4,-1.109375 C 3.921875,-1.015625 3.875,-0.953125 3.78125,-0.84375 3.5625,-0.53125 3.4375,-0.4375 3.328125,-0.4375 3.1875,-0.4375 3.09375,-0.5625 3.015625,-0.84375 3,-0.921875 2.984375,-0.984375 2.984375,-1.015625 2.734375,-2.03125 2.625,-2.484375 2.625,-2.625 c 0.4375,-0.78125 0.796875,-1.21875 0.96875,-1.21875 0.0625,0 0.140625,0.03125 0.25,0.078125 0.109375,0.078125 0.1875,0.09375 0.265625,0.09375 0.203125,0 0.34375,-0.140625 0.34375,-0.359375 0,-0.203125 -0.171875,-0.359375 -0.40625,-0.359375 -0.4375,0 -0.8125,0.359375 -1.5,1.421875 L 2.4375,-3.515625 c -0.140625,-0.6875 -0.25,-0.875 -0.53125,-0.875 -0.21875,0 -0.546875,0.078125 -1.15625,0.28125 L 0.640625,-4.0625 0.671875,-3.921875 C 1.0625,-4 1.140625,-4.03125 1.234375,-4.03125 c 0.25,0 0.3125,0.09375 0.453125,0.6875 l 0.28125,1.234375 -0.8125,1.15625 C 0.953125,-0.640625 0.75,-0.46875 0.640625,-0.46875 0.59375,-0.46875 0.484375,-0.5 0.390625,-0.5625 0.265625,-0.625 0.15625,-0.65625 0.0625,-0.65625 c -0.1875,0 -0.328125,0.140625 -0.328125,0.34375 0,0.265625 0.203125,0.421875 0.5,0.421875 0.296875,0 0.421875,-0.09375 0.921875,-0.703125 0.265625,-0.3125 0.484375,-0.578125 0.890625,-1.15625 l 0.3125,1.1875 c 0.125,0.515625 0.25,0.671875 0.578125,0.671875 0.375,0 0.625,-0.234375 1.203125,-1.140625 z m 0,0"
                   id="path3287" />
              </symbol>
            </g>
          </defs>
          <g
             id="textext-5d44e608-2">
            <g
               style="fill:#000000;fill-opacity:1"
               id="g3290">
              <use
                 height="1052.3622"
                 width="744.09448"
                 xlink:href="#textext-5d44e608-1"
                 x="223.92999"
                 y="134.765"
                 id="use3292" />
            </g>
          </g>
        </g>
        <g
           id="g3492"
           transform="matrix(1.2,0,0,1.2,203.4098,2.9750023)"
           ns0:preamble="/home/sriranga/Desktop/general-books/CSY/article4/figure/package.tex"
           ns0:text="$2x$">
          <defs
             id="defs3494">
            <g
               id="g3496">
              <symbol
                 id="textext-5dc825b9-0"
                 overflow="visible"
                 style="overflow:visible">
                <path
                   id="path3499"
                   d=""
                   style="stroke:none"
                   inkscape:connector-curvature="0" />
              </symbol>
              <symbol
                 id="textext-5dc825b9-1"
                 overflow="visible"
                 style="overflow:visible">
                <path
                   id="path3502"
                   d="m 4.734375,-1.359375 -0.125,-0.0625 C 4.234375,-0.84375 4.109375,-0.75 3.65625,-0.75 l -2.375,0 1.671875,-1.765625 c 0.890625,-0.921875 1.28125,-1.6875 1.28125,-2.453125 0,-1 -0.8125,-1.765625 -1.859375,-1.765625 -0.546875,0 -1.0625,0.21875 -1.421875,0.609375 C 0.625,-5.78125 0.484375,-5.46875 0.3125,-4.75 l 0.203125,0.046875 C 0.921875,-5.6875 1.28125,-6 1.96875,-6 2.796875,-6 3.375,-5.4375 3.375,-4.59375 3.375,-3.8125 2.90625,-2.890625 2.078125,-2 l -1.78125,1.875 0,0.125 3.890625,0 z m 0,0"
                   style="stroke:none"
                   inkscape:connector-curvature="0" />
              </symbol>
              <symbol
                 id="textext-5dc825b9-2"
                 overflow="visible"
                 style="overflow:visible">
                <path
                   id="path3505"
                   d=""
                   style="stroke:none"
                   inkscape:connector-curvature="0" />
              </symbol>
              <symbol
                 id="textext-5dc825b9-3"
                 overflow="visible"
                 style="overflow:visible">
                <path
                   id="path3508"
                   d="M 4,-1.109375 C 3.921875,-1.015625 3.875,-0.953125 3.78125,-0.84375 3.5625,-0.53125 3.4375,-0.4375 3.328125,-0.4375 3.1875,-0.4375 3.09375,-0.5625 3.015625,-0.84375 3,-0.921875 2.984375,-0.984375 2.984375,-1.015625 2.734375,-2.03125 2.625,-2.484375 2.625,-2.625 c 0.4375,-0.78125 0.796875,-1.21875 0.96875,-1.21875 0.0625,0 0.140625,0.03125 0.25,0.078125 0.109375,0.078125 0.1875,0.09375 0.265625,0.09375 0.203125,0 0.34375,-0.140625 0.34375,-0.359375 0,-0.203125 -0.171875,-0.359375 -0.40625,-0.359375 -0.4375,0 -0.8125,0.359375 -1.5,1.421875 L 2.4375,-3.515625 c -0.140625,-0.6875 -0.25,-0.875 -0.53125,-0.875 -0.21875,0 -0.546875,0.078125 -1.15625,0.28125 L 0.640625,-4.0625 0.671875,-3.921875 C 1.0625,-4 1.140625,-4.03125 1.234375,-4.03125 c 0.25,0 0.3125,0.09375 0.453125,0.6875 l 0.28125,1.234375 -0.8125,1.15625 C 0.953125,-0.640625 0.75,-0.46875 0.640625,-0.46875 0.59375,-0.46875 0.484375,-0.5 0.390625,-0.5625 0.265625,-0.625 0.15625,-0.65625 0.0625,-0.65625 c -0.1875,0 -0.328125,0.140625 -0.328125,0.34375 0,0.265625 0.203125,0.421875 0.5,0.421875 0.296875,0 0.421875,-0.09375 0.921875,-0.703125 0.265625,-0.3125 0.484375,-0.578125 0.890625,-1.15625 l 0.3125,1.1875 c 0.125,0.515625 0.25,0.671875 0.578125,0.671875 0.375,0 0.625,-0.234375 1.203125,-1.140625 z m 0,0"
                   style="stroke:none"
                   inkscape:connector-curvature="0" />
              </symbol>
            </g>
          </defs>
          <g
             id="textext-5dc825b9-4">
            <g
               id="g3511"
               style="fill:#000000;fill-opacity:1">
              <use
                 id="use3513"
                 y="134.765"
                 x="223.43201"
                 xlink:href="#textext-5dc825b9-1"
                 width="744.09448"
                 height="1052.3622" />
            </g>
            <g
               id="g3515"
               style="fill:#000000;fill-opacity:1">
              <use
                 id="use3517"
                 y="134.765"
                 x="228.912"
                 xlink:href="#textext-5dc825b9-3"
                 width="744.09448"
                 height="1052.3622" />
            </g>
          </g>
        </g>
      </g>
    </g>
  </g>
</svg>
