<?xml version="1.0" encoding="UTF-8" standalone="no"?>
<!-- Created with Inkscape (http://www.inkscape.org/) -->

<svg
   xmlns:ns0="http://www.iki.fi/pav/software/textext/"
   xmlns:dc="http://purl.org/dc/elements/1.1/"
   xmlns:cc="http://creativecommons.org/ns#"
   xmlns:rdf="http://www.w3.org/1999/02/22-rdf-syntax-ns#"
   xmlns:svg="http://www.w3.org/2000/svg"
   xmlns="http://www.w3.org/2000/svg"
   xmlns:xlink="http://www.w3.org/1999/xlink"
   xmlns:sodipodi="http://sodipodi.sourceforge.net/DTD/sodipodi-0.dtd"
   xmlns:inkscape="http://www.inkscape.org/namespaces/inkscape"
   width="354.33069"
   height="212.59842"
   id="svg2"
   version="1.1"
   inkscape:version="0.48.4 r9939"
   sodipodi:docname="New document 1">
  <sodipodi:namedview
     id="base"
     pagecolor="#ffffff"
     bordercolor="#666666"
     borderopacity="1.0"
     inkscape:pageopacity="0.0"
     inkscape:pageshadow="2"
     inkscape:zoom="1.9075195"
     inkscape:cx="228.00184"
     inkscape:cy="96.091684"
     inkscape:document-units="px"
     inkscape:current-layer="layer1"
     showgrid="false"
     units="cm"
     inkscape:window-width="1024"
     inkscape:window-height="744"
     inkscape:window-x="0"
     inkscape:window-y="24"
     inkscape:window-maximized="1" />
  <defs
     id="defs4">
    <marker
       inkscape:stockid="Arrow1Mend"
       orient="auto"
       refY="0.0"
       refX="0.0"
       id="Arrow1Mend"
       style="overflow:visible;">
      <path
         id="path3776"
         d="M 0.0,0.0 L 5.0,-5.0 L -12.5,0.0 L 5.0,5.0 L 0.0,0.0 z "
         style="fill-rule:evenodd;stroke:#000000;stroke-width:1.0pt;"
         transform="scale(0.4) rotate(180) translate(10,0)" />
    </marker>
  </defs>
  <metadata
     id="metadata7">
    <rdf:RDF>
      <cc:Work
         rdf:about="">
        <dc:format>image/svg+xml</dc:format>
        <dc:type
           rdf:resource="http://purl.org/dc/dcmitype/StillImage" />
        <dc:title></dc:title>
      </cc:Work>
    </rdf:RDF>
  </metadata>
  <g
     inkscape:label="Layer 1"
     inkscape:groupmode="layer"
     id="layer1"
     transform="translate(0,-839.76245)">
    <path
       style="fill:none;stroke:#000000;stroke-width:1px;stroke-linecap:butt;stroke-linejoin:miter;stroke-opacity:1"
       d="m 83.337585,148.95881 209.606655,0"
       id="path2985"
       inkscape:connector-curvature="0"
       transform="translate(0,839.76245)" />
    <path
       style="fill:none;stroke:#000000;stroke-width:1px;stroke-linecap:butt;stroke-linejoin:miter;stroke-opacity:1"
       d="m 86.873119,145.42327 c 37.496451,4.57274 63.457631,-72.858529 110.106631,-75.25636 28.07526,-1.443112 54.32866,76.23828 81.82235,75.25636"
       id="path2987"
       inkscape:connector-curvature="0"
       transform="translate(0,839.76245)"
       sodipodi:nodetypes="csc" />
    <path
       style="fill:none;stroke:#000000;stroke-width:1px;stroke-linecap:butt;stroke-linejoin:miter;stroke-opacity:1"
       d="m 171.22086,57.034927 0,110.106623"
       id="path2989"
       inkscape:connector-curvature="0"
       transform="translate(0,839.76245)"
       sodipodi:nodetypes="cc" />
    <path
       style="fill:#cccccc;stroke:#000000;stroke-width:1px;stroke-linecap:butt;stroke-linejoin:miter;stroke-opacity:1"
       d="m 203.54574,71.682139 0,77.276671 28.28427,0 0,-49.497476 C 220.82038,83.559121 211.19071,73.452766 203.54574,71.682139 z"
       id="path2991"
       inkscape:connector-curvature="0"
       transform="translate(0,839.76245)"
       sodipodi:nodetypes="ccccc" />
    <path
       style="fill:none;stroke:#000000;stroke-width:1.875;stroke-linecap:butt;stroke-linejoin:miter;stroke-miterlimit:4;stroke-opacity:1;stroke-dasharray:none;marker-end:url(#Arrow1Mend)"
       d="m 216.67772,187.62252 0,-58.36169"
       id="path2993"
       inkscape:connector-curvature="0"
       transform="translate(0,839.76245)"
       sodipodi:nodetypes="cc" />
    <path
       style="fill:none;stroke:#000000;stroke-width:1px;stroke-linecap:butt;stroke-linejoin:miter;stroke-opacity:1;marker-end:url(#Arrow1Mend)"
       d="M 272.74119,96.430876 254.55844,120.67454"
       id="path4207"
       inkscape:connector-curvature="0"
       transform="translate(0,839.76245)" />
    <g
       transform="matrix(0.96831968,-0.24971382,0.24971382,0.96831968,-229.02868,95.527865)"
       id="g4454">
      <text
         transform="translate(0,839.76245)"
         sodipodi:linespacing="125%"
         id="text4391"
         y="93.400421"
         x="279.81226"
         style="font-size:12px;font-style:normal;font-variant:normal;font-weight:normal;font-stretch:normal;line-height:125%;letter-spacing:0px;word-spacing:0px;fill:#000000;fill-opacity:1;stroke:none;font-family:Nimbus Roman No9 L;-inkscape-font-specification:Nimbus Roman No9 L"
         xml:space="preserve"><tspan
           y="93.400421"
           x="279.81226"
           id="tspan4393"
           sodipodi:role="line">graph </tspan><tspan
           id="tspan4395"
           y="108.40042"
           x="279.81226"
           sodipodi:role="line">  of </tspan></text>
      <g
         id="g4413"
         ns0:preamble="/home/sriranga/Desktop/general-books/CSY/article4/figure/package.tex"
         ns0:text="$f$"
         transform="matrix(0.93669329,0,0,0.93669329,91.874179,820.66091)">
        <defs
           id="defs4415">
          <g
             id="g4417">
            <symbol
               id="textext-a1bc3201-0"
               overflow="visible"
               style="overflow:visible">
              <path
                 id="path4420"
                 d=""
                 style="stroke:none"
                 inkscape:connector-curvature="0" />
            </symbol>
            <symbol
               id="textext-a1bc3201-1"
               overflow="visible"
               style="overflow:visible">
              <path
                 id="path4423"
                 d="m 0.34375,-3.953125 0.90625,0 -0.875,4.1875 c -0.21875,1.078125 -0.546875,1.625 -0.96875,1.625 -0.125,0 -0.203125,-0.078125 -0.203125,-0.171875 0,-0.015625 0.015625,-0.046875 0.046875,-0.109375 0.03125,-0.046875 0.046875,-0.09375 0.046875,-0.15625 0,-0.203125 -0.1875,-0.375 -0.390625,-0.375 -0.21875,0 -0.375,0.171875 -0.375,0.40625 0,0.34375 0.359375,0.609375 0.796875,0.609375 0.875,0 1.578125,-0.984375 1.984375,-2.8125 l 0.71875,-3.203125 1.09375,0 0.0625,-0.3125 -1.078125,0 c 0.28125,-1.5625 0.65625,-2.28125 1.203125,-2.28125 0.140625,0 0.21875,0.0625 0.21875,0.125 0,0.03125 0,0.046875 -0.03125,0.109375 -0.046875,0.078125 -0.0625,0.125 -0.0625,0.203125 0,0.234375 0.15625,0.390625 0.375,0.390625 0.21875,0 0.421875,-0.171875 0.421875,-0.390625 0,-0.375 -0.375,-0.65625 -0.859375,-0.65625 -0.5,0 -0.875,0.21875 -1.234375,0.6875 -0.3125,0.390625 -0.5,0.859375 -0.8125,1.8125 l -0.90625,0 z m 0,0"
                 style="stroke:none"
                 inkscape:connector-curvature="0" />
            </symbol>
          </g>
        </defs>
        <g
           id="textext-a1bc3201-2">
          <g
             id="g4426"
             style="fill:#000000;fill-opacity:1">
            <use
               id="use4428"
               y="134.765"
               x="224.92599"
               xlink:href="#textext-a1bc3201-1"
               width="354.33069"
               height="212.59842" />
          </g>
        </g>
      </g>
    </g>
    <g
       id="g4496"
       ns0:preamble="/home/sriranga/Desktop/general-books/CSY/article4/figure/package.tex"
       ns0:text="$a$"
       transform="matrix(1.142745,0,0,1.2,-49.73634,838.28586)">
      <defs
         id="defs4498">
        <g
           id="g4500">
          <symbol
             id="textext-847351e2-0"
             overflow="visible"
             style="overflow:visible">
            <path
               id="path4503"
               d=""
               style="stroke:none"
               inkscape:connector-curvature="0" />
          </symbol>
          <symbol
             id="textext-847351e2-1"
             overflow="visible"
             style="overflow:visible">
            <path
               id="path4506"
               d="m 4.625,-1.09375 c -0.15625,0.140625 -0.203125,0.203125 -0.28125,0.28125 -0.296875,0.296875 -0.421875,0.40625 -0.515625,0.40625 -0.078125,0 -0.140625,-0.0625 -0.140625,-0.125 0,-0.203125 0.421875,-1.90625 0.890625,-3.625 0.03125,-0.09375 0.03125,-0.125 0.0625,-0.203125 L 4.5625,-4.390625 3.953125,-4.328125 3.921875,-4.296875 3.8125,-3.8125 c -0.078125,-0.375 -0.359375,-0.578125 -0.796875,-0.578125 -1.3125,0 -2.84375,1.8125 -2.84375,3.390625 0,0.703125 0.375,1.109375 1.015625,1.109375 0.703125,0 1.125,-0.328125 2,-1.5625 -0.203125,0.78125 -0.234375,0.90625 -0.234375,1.140625 0,0.296875 0.125,0.40625 0.40625,0.40625 C 3.765625,0.09375 4,-0.09375 4.75,-1 z M 3.078125,-4.171875 c 0.34375,0.015625 0.5625,0.25 0.5625,0.609375 0,0.828125 -0.5,2 -1.1875,2.75 C 2.21875,-0.546875 1.875,-0.375 1.578125,-0.375 1.234375,-0.375 1,-0.671875 1,-1.125 1,-1.671875 1.390625,-2.6875 1.8125,-3.3125 2.21875,-3.890625 2.6875,-4.203125 3.078125,-4.171875 z m 0,0"
               style="stroke:none"
               inkscape:connector-curvature="0" />
          </symbol>
        </g>
      </defs>
      <g
         id="textext-847351e2-2">
        <g
           id="g4509"
           style="fill:#000000;fill-opacity:1">
          <use
             id="use4511"
             y="134.765"
             x="223.43201"
             xlink:href="#textext-847351e2-1"
             width="354.33069"
             height="212.59842" />
        </g>
      </g>
    </g>
    <g
       ns0:text="$b$"
       ns0:preamble="/home/sriranga/Desktop/general-books/CSY/article4/figure/package.tex"
       transform="matrix(1.142745,0,0,1.2,-33.73634,838.28586)"
       id="g4605">
      <defs
         id="defs4607">
        <g
           id="g4609">
          <symbol
             overflow="visible"
             id="textext-7311a153-0">
            <path
               style="stroke:none;"
               d=""
               id="path4612" />
          </symbol>
          <symbol
             overflow="visible"
             id="textext-7311a153-1">
            <path
               style="stroke:none;"
               d="M 1.09375 -6.40625 C 1.6875 -6.390625 1.75 -6.359375 1.75 -6.140625 C 1.75 -6.046875 1.71875 -5.9375 1.65625 -5.71875 C 1.640625 -5.640625 1.609375 -5.578125 1.609375 -5.515625 L 1.578125 -5.453125 L 0.234375 -0.453125 L 0.234375 -0.421875 C 0.234375 -0.1875 1 0.109375 1.5625 0.109375 C 3.0625 0.109375 4.71875 -1.640625 4.71875 -3.203125 C 4.71875 -3.890625 4.234375 -4.390625 3.5625 -4.390625 C 2.859375 -4.390625 2.34375 -3.984375 1.640625 -2.890625 C 2.15625 -4.78125 2.21875 -5.046875 2.671875 -6.765625 L 2.625 -6.8125 C 2.125 -6.71875 1.765625 -6.65625 1.09375 -6.578125 Z M 3.171875 -3.90625 C 3.59375 -3.90625 3.875 -3.578125 3.875 -3.046875 C 3.875 -2.390625 3.359375 -1.328125 2.765625 -0.703125 C 2.40625 -0.328125 1.96875 -0.125 1.546875 -0.125 C 1.234375 -0.125 1.09375 -0.234375 1.09375 -0.453125 C 1.09375 -1.0625 1.390625 -2.03125 1.796875 -2.765625 C 2.25 -3.53125 2.6875 -3.90625 3.171875 -3.90625 Z M 3.171875 -3.90625 "
               id="path4615" />
          </symbol>
        </g>
      </defs>
      <g
         id="textext-7311a153-2">
        <g
           style="fill:rgb(0%,0%,0%);fill-opacity:1;"
           id="g4618">
          <use
             xlink:href="#textext-7311a153-1"
             x="223.432"
             y="134.765"
             id="use4620" />
        </g>
      </g>
    </g>
    <g
       id="g4734"
       transform="matrix(1.142745,0,0,1.2,-161.82758,865.00065)"
       ns0:preamble="/home/sriranga/Desktop/general-books/CSY/article4/figure/package.tex"
       ns0:text="$P(a\\leq X\\leq b) =$ this area">
      <defs
         id="defs4736">
        <g
           id="g4738">
          <symbol
             id="textext-6e9557bc-0"
             overflow="visible"
             style="overflow:visible">
            <path
               id="path4741"
               d=""
               style="stroke:none"
               inkscape:connector-curvature="0" />
          </symbol>
          <symbol
             id="textext-6e9557bc-1"
             overflow="visible"
             style="overflow:visible">
            <path
               id="path4744"
               d="M 1.453125,-6.34375 C 2.03125,-6.28125 2.15625,-6.1875 2.15625,-5.9375 2.15625,-5.796875 2.125,-5.578125 2,-5.140625 l -1.1875,4.25 C 0.640625,-0.296875 0.5625,-0.234375 0,-0.15625 L 0,0 l 2.4375,0 0,-0.15625 C 1.8125,-0.25 1.765625,-0.28125 1.765625,-0.625 c 0,-0.109375 0.015625,-0.21875 0.125,-0.578125 L 2.40625,-3.125 c 0.25,0.0625 0.515625,0.078125 0.921875,0.078125 0.8125,0 1.484375,-0.15625 1.921875,-0.46875 0.484375,-0.375 0.78125,-0.921875 0.78125,-1.515625 0,-0.953125 -0.75,-1.484375 -2.109375,-1.484375 l -2.46875,0 z m 1.75,0.40625 c 0.0625,-0.203125 0.1875,-0.265625 0.46875,-0.265625 0.390625,0 0.765625,0.09375 0.96875,0.234375 C 4.890625,-5.796875 5,-5.5 5,-5.03125 c 0,0.65625 -0.21875,1.109375 -0.65625,1.375 -0.3125,0.171875 -0.703125,0.25 -1.328125,0.25 -0.171875,0 -0.25,-0.015625 -0.515625,-0.046875 z m 0,0"
               style="stroke:none"
               inkscape:connector-curvature="0" />
          </symbol>
          <symbol
             id="textext-6e9557bc-2"
             overflow="visible"
             style="overflow:visible">
            <path
               id="path4747"
               d="m 4.625,-1.09375 c -0.15625,0.140625 -0.203125,0.203125 -0.28125,0.28125 -0.296875,0.296875 -0.421875,0.40625 -0.515625,0.40625 -0.078125,0 -0.140625,-0.0625 -0.140625,-0.125 0,-0.203125 0.421875,-1.90625 0.890625,-3.625 0.03125,-0.09375 0.03125,-0.125 0.0625,-0.203125 L 4.5625,-4.390625 3.953125,-4.328125 3.921875,-4.296875 3.8125,-3.8125 c -0.078125,-0.375 -0.359375,-0.578125 -0.796875,-0.578125 -1.3125,0 -2.84375,1.8125 -2.84375,3.390625 0,0.703125 0.375,1.109375 1.015625,1.109375 0.703125,0 1.125,-0.328125 2,-1.5625 -0.203125,0.78125 -0.234375,0.90625 -0.234375,1.140625 0,0.296875 0.125,0.40625 0.40625,0.40625 C 3.765625,0.09375 4,-0.09375 4.75,-1 z M 3.078125,-4.171875 c 0.34375,0.015625 0.5625,0.25 0.5625,0.609375 0,0.828125 -0.5,2 -1.1875,2.75 C 2.21875,-0.546875 1.875,-0.375 1.578125,-0.375 1.234375,-0.375 1,-0.671875 1,-1.125 1,-1.671875 1.390625,-2.6875 1.8125,-3.3125 2.21875,-3.890625 2.6875,-4.203125 3.078125,-4.171875 z m 0,0"
               style="stroke:none"
               inkscape:connector-curvature="0" />
          </symbol>
          <symbol
             id="textext-6e9557bc-3"
             overflow="visible"
             style="overflow:visible">
            <path
               id="path4750"
               d="m 6.53125,-6.515625 -2.078125,0 0,0.171875 c 0.484375,0.046875 0.609375,0.125 0.609375,0.359375 0,0.125 -0.0625,0.25 -0.203125,0.40625 l -1.4375,1.65625 -0.59375,-1.46875 C 2.71875,-5.640625 2.6875,-5.8125 2.6875,-5.9375 c 0,-0.25 0.15625,-0.34375 0.703125,-0.40625 l 0,-0.171875 -2.640625,0 0,0.171875 c 0.578125,0.046875 0.734375,0.140625 0.921875,0.609375 l 1.0625,2.609375 c -0.375,0.421875 -0.703125,0.8125 -0.828125,0.96875 -1.390625,1.640625 -1.671875,1.890625 -2.203125,2 l 0,0.15625 2.140625,0 0,-0.15625 C 1.359375,-0.15625 1.203125,-0.25 1.203125,-0.5 c 0,-0.140625 0.078125,-0.3125 0.203125,-0.46875 l 1.5,-1.71875 0.671875,1.65625 c 0.078125,0.171875 0.109375,0.328125 0.109375,0.484375 0,0.28125 -0.09375,0.34375 -0.75,0.390625 l 0,0.15625 2.71875,0 0,-0.15625 C 4.953125,-0.234375 4.859375,-0.296875 4.609375,-0.890625 L 3.59375,-3.46875 l 1.6875,-1.9375 c 0.515625,-0.578125 0.8125,-0.796875 1.25,-0.9375 z m 0,0"
               style="stroke:none"
               inkscape:connector-curvature="0" />
          </symbol>
          <symbol
             id="textext-6e9557bc-4"
             overflow="visible"
             style="overflow:visible">
            <path
               id="path4753"
               d="M 1.09375,-6.40625 C 1.6875,-6.390625 1.75,-6.359375 1.75,-6.140625 c 0,0.09375 -0.03125,0.203125 -0.09375,0.421875 -0.015625,0.078125 -0.046875,0.140625 -0.046875,0.203125 l -0.03125,0.0625 -1.34375,5 0,0.03125 c 0,0.234375 0.765625,0.53125 1.328125,0.53125 1.5,0 3.15625,-1.75 3.15625,-3.3125 0,-0.6875 -0.484375,-1.1875 -1.15625,-1.1875 -0.703125,0 -1.21875,0.40625 -1.921875,1.5 0.515625,-1.890625 0.578125,-2.15625 1.03125,-3.875 L 2.625,-6.8125 c -0.5,0.09375 -0.859375,0.15625 -1.53125,0.234375 z m 2.078125,2.5 c 0.421875,0 0.703125,0.328125 0.703125,0.859375 0,0.65625 -0.515625,1.71875 -1.109375,2.34375 -0.359375,0.375 -0.796875,0.578125 -1.21875,0.578125 -0.3125,0 -0.453125,-0.109375 -0.453125,-0.328125 0,-0.609375 0.296875,-1.578125 0.703125,-2.3125 C 2.25,-3.53125 2.6875,-3.90625 3.171875,-3.90625 z m 0,0"
               style="stroke:none"
               inkscape:connector-curvature="0" />
          </symbol>
          <symbol
             id="textext-6e9557bc-5"
             overflow="visible"
             style="overflow:visible">
            <path
               id="path4756"
               d=""
               style="stroke:none"
               inkscape:connector-curvature="0" />
          </symbol>
          <symbol
             id="textext-6e9557bc-6"
             overflow="visible"
             style="overflow:visible">
            <path
               id="path4759"
               d="M 2.9375,-6.734375 C 2.203125,-6.265625 1.90625,-6 1.53125,-5.546875 c -0.703125,0.875 -1.046875,1.875 -1.046875,3.03125 0,1.265625 0.359375,2.25 1.234375,3.265625 0.421875,0.46875 0.671875,0.703125 1.1875,1.015625 l 0.125,-0.15625 C 2.234375,0.984375 1.953125,0.625 1.6875,-0.125 1.453125,-0.78125 1.328125,-1.546875 1.328125,-2.546875 1.328125,-3.59375 1.46875,-4.40625 1.734375,-5.03125 2.015625,-5.640625 2.3125,-6 3.03125,-6.578125 z m 0,0"
               style="stroke:none"
               inkscape:connector-curvature="0" />
          </symbol>
          <symbol
             id="textext-6e9557bc-7"
             overflow="visible"
             style="overflow:visible">
            <path
               id="path4762"
               d="M 0.375,1.765625 C 1.109375,1.28125 1.421875,1.03125 1.78125,0.5625 2.5,-0.296875 2.84375,-1.296875 2.84375,-2.46875 c 0,-1.265625 -0.375,-2.234375 -1.25,-3.25 C 1.1875,-6.203125 0.921875,-6.421875 0.40625,-6.734375 l -0.109375,0.15625 c 0.796875,0.625 1.0625,0.96875 1.34375,1.71875 0.234375,0.671875 0.34375,1.4375 0.34375,2.421875 0,1.046875 -0.125,1.875 -0.40625,2.484375 C 1.3125,0.671875 1,1.03125 0.296875,1.609375 z m 0,0"
               style="stroke:none"
               inkscape:connector-curvature="0" />
          </symbol>
          <symbol
             id="textext-6e9557bc-8"
             overflow="visible"
             style="overflow:visible">
            <path
               id="path4765"
               d="m 2.546875,-4.484375 -1.015625,0 0,-1.15625 c 0,-0.09375 0,-0.125 -0.0625,-0.125 C 1.390625,-5.6875 1.328125,-5.59375 1.265625,-5.5 c -0.375,0.5625 -0.8125,1.03125 -0.96875,1.078125 C 0.1875,-4.359375 0.125,-4.28125 0.125,-4.234375 c 0,0.03125 0.015625,0.046875 0.046875,0.0625 l 0.53125,0 0,3 c 0,0.84375 0.296875,1.265625 0.875,1.265625 0.5,0 0.875,-0.234375 1.203125,-0.75 l -0.125,-0.109375 c -0.21875,0.25 -0.390625,0.34375 -0.609375,0.34375 C 1.6875,-0.421875 1.53125,-0.6875 1.53125,-1.3125 l 0,-2.859375 1.015625,0 z m 0,0"
               style="stroke:none"
               inkscape:connector-curvature="0" />
          </symbol>
          <symbol
             id="textext-6e9557bc-9"
             overflow="visible"
             style="overflow:visible">
            <path
               id="path4768"
               d="m 1.5625,-3.421875 c 0.421875,-0.453125 0.71875,-0.625 1.109375,-0.625 0.5,0 0.75,0.359375 0.75,1.0625 l 0,1.96875 c 0,0.671875 -0.109375,0.8125 -0.6875,0.859375 l 0,0.15625 2.125,0 0,-0.15625 C 4.3125,-0.25 4.25,-0.328125 4.25,-1.015625 L 4.25,-3 c 0,-1.046875 -0.40625,-1.578125 -1.21875,-1.578125 -0.59375,0 -1,0.234375 -1.46875,0.828125 l 0,-3.03125 L 1.515625,-6.8125 C 1.171875,-6.6875 0.921875,-6.609375 0.375,-6.453125 L 0.09375,-6.375 l 0,0.171875 c 0.046875,-0.015625 0.078125,-0.015625 0.125,-0.015625 0.421875,0 0.515625,0.078125 0.515625,0.5 l 0,4.703125 c 0,0.703125 -0.0625,0.78125 -0.640625,0.859375 L 0.09375,0 2.25,0 l 0,-0.15625 C 1.671875,-0.203125 1.5625,-0.328125 1.5625,-1.015625 z m 0,0"
               style="stroke:none"
               inkscape:connector-curvature="0" />
          </symbol>
          <symbol
             id="textext-6e9557bc-10"
             overflow="visible"
             style="overflow:visible">
            <path
               id="path4771"
               d="m 1.75,-4.578125 -1.546875,0.546875 0,0.140625 0.078125,0 c 0.125,-0.03125 0.25,-0.03125 0.34375,-0.03125 0.234375,0 0.328125,0.15625 0.328125,0.59375 l 0,2.3125 c 0,0.71875 -0.109375,0.828125 -0.796875,0.859375 l 0,0.15625 2.359375,0 0,-0.15625 C 1.859375,-0.203125 1.78125,-0.296875 1.78125,-1.015625 l 0,-3.546875 z M 1.28125,-6.8125 c -0.28125,0 -0.5,0.234375 -0.5,0.515625 0,0.28125 0.21875,0.5 0.5,0.5 0.28125,0 0.515625,-0.21875 0.515625,-0.5 0,-0.28125 -0.234375,-0.515625 -0.515625,-0.515625 z m 0,0"
               style="stroke:none"
               inkscape:connector-curvature="0" />
          </symbol>
          <symbol
             id="textext-6e9557bc-11"
             overflow="visible"
             style="overflow:visible">
            <path
               id="path4774"
               d="m 3.140625,-3.125 -0.046875,-1.359375 -0.109375,0 L 2.96875,-4.46875 C 2.875,-4.390625 2.875,-4.390625 2.828125,-4.390625 c -0.0625,0 -0.15625,-0.015625 -0.265625,-0.0625 -0.21875,-0.078125 -0.4375,-0.125 -0.703125,-0.125 -0.78125,0 -1.34375,0.515625 -1.34375,1.234375 0,0.546875 0.3125,0.953125 1.15625,1.4375 L 2.25,-1.578125 c 0.359375,0.1875 0.515625,0.4375 0.515625,0.734375 0,0.4375 -0.3125,0.71875 -0.828125,0.71875 -0.328125,0 -0.640625,-0.125 -0.828125,-0.34375 -0.21875,-0.25 -0.296875,-0.484375 -0.4375,-1.046875 l -0.15625,0 0,1.5625 0.125,0 C 0.71875,-0.0625 0.75,-0.078125 0.875,-0.078125 c 0.09375,0 0.234375,0.015625 0.453125,0.078125 0.28125,0.0625 0.5625,0.09375 0.734375,0.09375 0.765625,0 1.40625,-0.578125 1.40625,-1.265625 0,-0.5 -0.234375,-0.828125 -0.84375,-1.1875 L 1.5625,-3 C 1.28125,-3.15625 1.125,-3.40625 1.125,-3.671875 c 0,-0.40625 0.3125,-0.6875 0.765625,-0.6875 0.578125,0 0.875,0.34375 1.09375,1.234375 z m 0,0"
               style="stroke:none"
               inkscape:connector-curvature="0" />
          </symbol>
          <symbol
             id="textext-6e9557bc-12"
             overflow="visible"
             style="overflow:visible">
            <path
               id="path4777"
               d="m 4.40625,-0.65625 c -0.171875,0.140625 -0.296875,0.1875 -0.4375,0.1875 -0.234375,0 -0.296875,-0.140625 -0.296875,-0.578125 l 0,-1.9375 c 0,-0.53125 -0.046875,-0.8125 -0.203125,-1.046875 C 3.25,-4.390625 2.828125,-4.578125 2.234375,-4.578125 c -0.9375,0 -1.671875,0.484375 -1.671875,1.109375 0,0.234375 0.1875,0.421875 0.421875,0.421875 0.234375,0 0.453125,-0.1875 0.453125,-0.40625 0,-0.046875 -0.015625,-0.09375 -0.015625,-0.171875 -0.03125,-0.078125 -0.03125,-0.15625 -0.03125,-0.234375 0,-0.265625 0.3125,-0.484375 0.71875,-0.484375 0.484375,0 0.75,0.28125 0.75,0.828125 l 0,0.609375 c -1.53125,0.609375 -1.703125,0.6875 -2.125,1.078125 -0.21875,0.1875 -0.359375,0.53125 -0.359375,0.859375 0,0.625 0.4375,1.0625 1.046875,1.0625 0.4375,0 0.84375,-0.203125 1.453125,-0.71875 0.046875,0.515625 0.21875,0.71875 0.640625,0.71875 0.328125,0 0.546875,-0.109375 0.890625,-0.5 z m -1.546875,-0.5625 c 0,0.296875 -0.046875,0.390625 -0.25,0.515625 -0.25,0.140625 -0.53125,0.21875 -0.734375,0.21875 C 1.53125,-0.484375 1.25,-0.8125 1.25,-1.25 l 0,-0.03125 c 0,-0.59375 0.40625,-0.953125 1.609375,-1.390625 z m 0,0"
               style="stroke:none"
               inkscape:connector-curvature="0" />
          </symbol>
          <symbol
             id="textext-6e9557bc-13"
             overflow="visible"
             style="overflow:visible">
            <path
               id="path4780"
               d="m 0.0625,-3.890625 c 0.140625,-0.03125 0.234375,-0.03125 0.359375,-0.03125 0.25,0 0.328125,0.15625 0.328125,0.59375 l 0,2.484375 c 0,0.5 -0.0625,0.578125 -0.703125,0.6875 l 0,0.15625 2.390625,0 0,-0.15625 C 1.765625,-0.171875 1.59375,-0.328125 1.59375,-0.890625 l 0,-2.25 c 0,-0.3125 0.4375,-0.8125 0.703125,-0.8125 0.0625,0 0.140625,0.046875 0.25,0.140625 0.171875,0.140625 0.28125,0.203125 0.40625,0.203125 0.234375,0 0.390625,-0.171875 0.390625,-0.453125 0,-0.328125 -0.21875,-0.515625 -0.546875,-0.515625 -0.421875,0 -0.71875,0.21875 -1.203125,0.921875 l 0,-0.90625 -0.046875,-0.015625 c -0.53125,0.21875 -0.890625,0.34375 -1.484375,0.53125 z m 0,0"
               style="stroke:none"
               inkscape:connector-curvature="0" />
          </symbol>
          <symbol
             id="textext-6e9557bc-14"
             overflow="visible"
             style="overflow:visible">
            <path
               id="path4783"
               d="M 4.0625,-1.640625 C 3.59375,-0.875 3.15625,-0.59375 2.515625,-0.59375 c -0.5625,0 -0.984375,-0.28125 -1.28125,-0.859375 -0.171875,-0.375 -0.25,-0.703125 -0.265625,-1.3125 l 3.0625,0 c -0.078125,-0.640625 -0.171875,-0.9375 -0.421875,-1.25 -0.296875,-0.359375 -0.765625,-0.5625 -1.28125,-0.5625 -0.5,0 -0.96875,0.171875 -1.34375,0.515625 C 0.515625,-3.65625 0.25,-2.953125 0.25,-2.140625 0.25,-0.75 0.96875,0.09375 2.109375,0.09375 c 0.953125,0 1.703125,-0.578125 2.125,-1.65625 z m -3.078125,-1.4375 c 0.109375,-0.78125 0.453125,-1.15625 1.0625,-1.15625 0.609375,0 0.84375,0.28125 0.96875,1.15625 z m 0,0"
               style="stroke:none"
               inkscape:connector-curvature="0" />
          </symbol>
          <symbol
             id="textext-6e9557bc-15"
             overflow="visible"
             style="overflow:visible">
            <path
               id="path4786"
               d=""
               style="stroke:none"
               inkscape:connector-curvature="0" />
          </symbol>
          <symbol
             id="textext-6e9557bc-16"
             overflow="visible"
             style="overflow:visible">
            <path
               id="path4789"
               d="m 5.71875,-0.71875 0,-0.5625 -4.140625,-1.9375 4.140625,-1.9375 0,-0.5625 -5.09375,2.40625 0,0.203125 z m 0,1.296875 0,-0.53125 -5.09375,0 0,0.53125 z m 0,0"
               style="stroke:none"
               inkscape:connector-curvature="0" />
          </symbol>
          <symbol
             id="textext-6e9557bc-17"
             overflow="visible"
             style="overflow:visible">
            <path
               id="path4792"
               d=""
               style="stroke:none"
               inkscape:connector-curvature="0" />
          </symbol>
          <symbol
             id="textext-6e9557bc-18"
             overflow="visible"
             style="overflow:visible">
            <path
               id="path4795"
               d="m 5.71875,-3.296875 0,-0.546875 -5.09375,0 0,0.546875 z m 0,2.03125 0,-0.5625 -5.09375,0 0,0.5625 z m 0,0"
               style="stroke:none"
               inkscape:connector-curvature="0" />
          </symbol>
        </g>
      </defs>
      <g
         id="textext-6e9557bc-19">
        <g
           id="g4798"
           style="fill:#000000;fill-opacity:1">
          <use
             id="use4800"
             y="134.765"
             x="223.681"
             xlink:href="#textext-6e9557bc-1"
             width="354.33069"
             height="212.59842" />
        </g>
        <g
           id="g4802"
           style="fill:#000000;fill-opacity:1">
          <use
             id="use4804"
             y="134.765"
             x="229.76801"
             xlink:href="#textext-6e9557bc-6"
             width="354.33069"
             height="212.59842" />
        </g>
        <g
           id="g4806"
           style="fill:#000000;fill-opacity:1">
          <use
             id="use4808"
             y="134.765"
             x="233.086"
             xlink:href="#textext-6e9557bc-2"
             width="354.33069"
             height="212.59842" />
        </g>
        <g
           id="g4810"
           style="fill:#000000;fill-opacity:1">
          <use
             id="use4812"
             y="134.765"
             x="240.83501"
             xlink:href="#textext-6e9557bc-16"
             width="354.33069"
             height="212.59842" />
        </g>
        <g
           id="g4814"
           style="fill:#000000;fill-opacity:1">
          <use
             id="use4816"
             y="134.765"
             x="250.187"
             xlink:href="#textext-6e9557bc-3"
             width="354.33069"
             height="212.59842" />
        </g>
        <g
           id="g4818"
           style="fill:#000000;fill-opacity:1">
          <use
             id="use4820"
             y="134.765"
             x="259.48001"
             xlink:href="#textext-6e9557bc-16"
             width="354.33069"
             height="212.59842" />
        </g>
        <g
           id="g4822"
           style="fill:#000000;fill-opacity:1">
          <use
             id="use4824"
             y="134.765"
             x="268.58401"
             xlink:href="#textext-6e9557bc-4"
             width="354.33069"
             height="212.59842" />
        </g>
        <g
           id="g4826"
           style="fill:#000000;fill-opacity:1">
          <use
             id="use4828"
             y="134.765"
             x="273.565"
             xlink:href="#textext-6e9557bc-7"
             width="354.33069"
             height="212.59842" />
        </g>
        <g
           id="g4830"
           style="fill:#000000;fill-opacity:1">
          <use
             id="use4832"
             y="134.765"
             x="279.64999"
             xlink:href="#textext-6e9557bc-18"
             width="354.33069"
             height="212.59842" />
        </g>
        <g
           id="g4834"
           style="fill:#000000;fill-opacity:1">
          <use
             id="use4836"
             y="134.765"
             x="288.47699"
             xlink:href="#textext-6e9557bc-8"
             width="354.33069"
             height="212.59842" />
          <use
             id="use4838"
             y="134.765"
             x="291.24661"
             xlink:href="#textext-6e9557bc-9"
             width="354.33069"
             height="212.59842" />
          <use
             id="use4840"
             y="134.765"
             x="296.22791"
             xlink:href="#textext-6e9557bc-10"
             width="354.33069"
             height="212.59842" />
          <use
             id="use4842"
             y="134.765"
             x="298.9975"
             xlink:href="#textext-6e9557bc-11"
             width="354.33069"
             height="212.59842" />
        </g>
        <g
           id="g4844"
           style="fill:#000000;fill-opacity:1">
          <use
             id="use4846"
             y="134.765"
             x="305.36362"
             xlink:href="#textext-6e9557bc-12"
             width="354.33069"
             height="212.59842" />
          <use
             id="use4848"
             y="134.765"
             x="309.78699"
             xlink:href="#textext-6e9557bc-13"
             width="354.33069"
             height="212.59842" />
          <use
             id="use4850"
             y="134.765"
             x="313.10455"
             xlink:href="#textext-6e9557bc-14"
             width="354.33069"
             height="212.59842" />
          <use
             id="use4852"
             y="134.765"
             x="317.52795"
             xlink:href="#textext-6e9557bc-12"
             width="354.33069"
             height="212.59842" />
        </g>
      </g>
    </g>
  </g>
</svg>
