<?xml version="1.0" encoding="UTF-8" standalone="no"?>
<!-- Created with Inkscape (http://www.inkscape.org/) -->

<svg
   xmlns:ns0="http://www.iki.fi/pav/software/textext/"
   xmlns:dc="http://purl.org/dc/elements/1.1/"
   xmlns:cc="http://creativecommons.org/ns#"
   xmlns:rdf="http://www.w3.org/1999/02/22-rdf-syntax-ns#"
   xmlns:svg="http://www.w3.org/2000/svg"
   xmlns="http://www.w3.org/2000/svg"
   xmlns:xlink="http://www.w3.org/1999/xlink"
   xmlns:sodipodi="http://sodipodi.sourceforge.net/DTD/sodipodi-0.dtd"
   xmlns:inkscape="http://www.inkscape.org/namespaces/inkscape"
   width="354.33069"
   height="212.59842"
   id="svg2"
   version="1.1"
   inkscape:version="0.48.4 r9939"
   sodipodi:docname="New document 1">
  <sodipodi:namedview
     id="base"
     pagecolor="#ffffff"
     bordercolor="#666666"
     borderopacity="1.0"
     inkscape:pageopacity="0.0"
     inkscape:pageshadow="2"
     inkscape:zoom="1.9361513"
     inkscape:cx="175.57872"
     inkscape:cy="60.74437"
     inkscape:document-units="px"
     inkscape:current-layer="layer1"
     showgrid="false"
     units="cm"
     inkscape:window-width="1024"
     inkscape:window-height="744"
     inkscape:window-x="0"
     inkscape:window-y="24"
     inkscape:window-maximized="1" />
  <defs
     id="defs4" />
  <metadata
     id="metadata7">
    <rdf:RDF>
      <cc:Work
         rdf:about="">
        <dc:format>image/svg+xml</dc:format>
        <dc:type
           rdf:resource="http://purl.org/dc/dcmitype/StillImage" />
        <dc:title></dc:title>
      </cc:Work>
    </rdf:RDF>
  </metadata>
  <g
     inkscape:label="Layer 1"
     inkscape:groupmode="layer"
     id="layer1"
     transform="translate(0,-839.76245)">
    <path
       style="fill:none;stroke:#000000;stroke-width:1px;stroke-linecap:butt;stroke-linejoin:miter;stroke-opacity:1"
       d="m 75.761441,133.80652 152.533039,0"
       id="path2985"
       inkscape:connector-curvature="0"
       transform="translate(0,839.76245)" />
    <path
       style="fill:none;stroke:#000000;stroke-width:1px;stroke-linecap:butt;stroke-linejoin:miter;stroke-opacity:1"
       d="m 113.64216,84.309046 c 0,2.020305 0,77.781744 0,77.781744"
       id="path2987"
       inkscape:connector-curvature="0"
       transform="translate(0,839.76245)" />
    <path
       style="fill:none;stroke:#000000;stroke-width:1px;stroke-linecap:butt;stroke-linejoin:miter;stroke-opacity:1"
       d="m 114.14724,105.52225 61.11423,0 0,28.28427"
       id="path2989"
       inkscape:connector-curvature="0"
       transform="translate(0,839.76245)" />
    <path
       sodipodi:type="arc"
       style="fill:#000000;fill-opacity:1;stroke:#000000;stroke-width:2.41071439;stroke-linecap:round;stroke-linejoin:miter;stroke-miterlimit:4;stroke-opacity:1;stroke-dasharray:none;stroke-dashoffset:0"
       id="path2991"
       sodipodi:cx="26.428572"
       sodipodi:cy="78.312706"
       sodipodi:rx="3.2142856"
       sodipodi:ry="3.2142856"
       d="m 29.642857,78.312706 c 0,1.775201 -1.439084,3.214286 -3.214285,3.214286 -1.775201,0 -3.214286,-1.439085 -3.214286,-3.214286 0,-1.775201 1.439085,-3.214286 3.214286,-3.214286 1.775201,0 3.214285,1.439085 3.214285,3.214286 z"
       transform="matrix(0.77777777,0,0,0.77777777,93.015872,884.30813)" />
    <path
       transform="matrix(0.77777777,0,0,0.77777777,154.44443,884.30813)"
       d="m 29.642857,78.312706 c 0,1.775201 -1.439084,3.214286 -3.214285,3.214286 -1.775201,0 -3.214286,-1.439085 -3.214286,-3.214286 0,-1.775201 1.439085,-3.214286 3.214286,-3.214286 1.775201,0 3.214285,1.439085 3.214285,3.214286 z"
       sodipodi:ry="3.2142856"
       sodipodi:rx="3.2142856"
       sodipodi:cy="78.312706"
       sodipodi:cx="26.428572"
       id="path2993"
       style="fill:#000000;fill-opacity:1;stroke:#000000;stroke-width:2.41071439;stroke-linecap:round;stroke-linejoin:miter;stroke-miterlimit:4;stroke-opacity:1;stroke-dasharray:none;stroke-dashoffset:0"
       sodipodi:type="arc" />
    <g
       transform="matrix(1.2,0,0,1.2,-163.25001,757.08564)"
       ns0:text="$f(x)$"
       ns0:preamble="/home/sriranga/Desktop/general-books/CSY/article4/figure/package.tex"
       id="g3005">
      <defs
         id="defs3007">
        <g
           id="g3009">
          <symbol
             style="overflow:visible"
             overflow="visible"
             id="textext-c8b6bcad-0">
            <path
               inkscape:connector-curvature="0"
               style="stroke:none"
               d=""
               id="path3012" />
          </symbol>
          <symbol
             style="overflow:visible"
             overflow="visible"
             id="textext-c8b6bcad-1">
            <path
               inkscape:connector-curvature="0"
               style="stroke:none"
               d="m 0.34375,-3.953125 0.90625,0 -0.875,4.1875 c -0.21875,1.078125 -0.546875,1.625 -0.96875,1.625 -0.125,0 -0.203125,-0.078125 -0.203125,-0.171875 0,-0.015625 0.015625,-0.046875 0.046875,-0.109375 0.03125,-0.046875 0.046875,-0.09375 0.046875,-0.15625 0,-0.203125 -0.1875,-0.375 -0.390625,-0.375 -0.21875,0 -0.375,0.171875 -0.375,0.40625 0,0.34375 0.359375,0.609375 0.796875,0.609375 0.875,0 1.578125,-0.984375 1.984375,-2.8125 l 0.71875,-3.203125 1.09375,0 0.0625,-0.3125 -1.078125,0 c 0.28125,-1.5625 0.65625,-2.28125 1.203125,-2.28125 0.140625,0 0.21875,0.0625 0.21875,0.125 0,0.03125 0,0.046875 -0.03125,0.109375 -0.046875,0.078125 -0.0625,0.125 -0.0625,0.203125 0,0.234375 0.15625,0.390625 0.375,0.390625 0.21875,0 0.421875,-0.171875 0.421875,-0.390625 0,-0.375 -0.375,-0.65625 -0.859375,-0.65625 -0.5,0 -0.875,0.21875 -1.234375,0.6875 -0.3125,0.390625 -0.5,0.859375 -0.8125,1.8125 l -0.90625,0 z m 0,0"
               id="path3015" />
          </symbol>
          <symbol
             style="overflow:visible"
             overflow="visible"
             id="textext-c8b6bcad-2">
            <path
               inkscape:connector-curvature="0"
               style="stroke:none"
               d="M 4,-1.109375 C 3.921875,-1.015625 3.875,-0.953125 3.78125,-0.84375 3.5625,-0.53125 3.4375,-0.4375 3.328125,-0.4375 3.1875,-0.4375 3.09375,-0.5625 3.015625,-0.84375 3,-0.921875 2.984375,-0.984375 2.984375,-1.015625 2.734375,-2.03125 2.625,-2.484375 2.625,-2.625 c 0.4375,-0.78125 0.796875,-1.21875 0.96875,-1.21875 0.0625,0 0.140625,0.03125 0.25,0.078125 0.109375,0.078125 0.1875,0.09375 0.265625,0.09375 0.203125,0 0.34375,-0.140625 0.34375,-0.359375 0,-0.203125 -0.171875,-0.359375 -0.40625,-0.359375 -0.4375,0 -0.8125,0.359375 -1.5,1.421875 L 2.4375,-3.515625 c -0.140625,-0.6875 -0.25,-0.875 -0.53125,-0.875 -0.21875,0 -0.546875,0.078125 -1.15625,0.28125 L 0.640625,-4.0625 0.671875,-3.921875 C 1.0625,-4 1.140625,-4.03125 1.234375,-4.03125 c 0.25,0 0.3125,0.09375 0.453125,0.6875 l 0.28125,1.234375 -0.8125,1.15625 C 0.953125,-0.640625 0.75,-0.46875 0.640625,-0.46875 0.59375,-0.46875 0.484375,-0.5 0.390625,-0.5625 0.265625,-0.625 0.15625,-0.65625 0.0625,-0.65625 c -0.1875,0 -0.328125,0.140625 -0.328125,0.34375 0,0.265625 0.203125,0.421875 0.5,0.421875 0.296875,0 0.421875,-0.09375 0.921875,-0.703125 0.265625,-0.3125 0.484375,-0.578125 0.890625,-1.15625 l 0.3125,1.1875 c 0.125,0.515625 0.25,0.671875 0.578125,0.671875 0.375,0 0.625,-0.234375 1.203125,-1.140625 z m 0,0"
               id="path3018" />
          </symbol>
          <symbol
             style="overflow:visible"
             overflow="visible"
             id="textext-c8b6bcad-3">
            <path
               inkscape:connector-curvature="0"
               style="stroke:none"
               d=""
               id="path3021" />
          </symbol>
          <symbol
             style="overflow:visible"
             overflow="visible"
             id="textext-c8b6bcad-4">
            <path
               inkscape:connector-curvature="0"
               style="stroke:none"
               d="M 2.9375,-6.734375 C 2.203125,-6.265625 1.90625,-6 1.53125,-5.546875 c -0.703125,0.875 -1.046875,1.875 -1.046875,3.03125 0,1.265625 0.359375,2.25 1.234375,3.265625 0.421875,0.46875 0.671875,0.703125 1.1875,1.015625 l 0.125,-0.15625 C 2.234375,0.984375 1.953125,0.625 1.6875,-0.125 1.453125,-0.78125 1.328125,-1.546875 1.328125,-2.546875 1.328125,-3.59375 1.46875,-4.40625 1.734375,-5.03125 2.015625,-5.640625 2.3125,-6 3.03125,-6.578125 z m 0,0"
               id="path3024" />
          </symbol>
          <symbol
             style="overflow:visible"
             overflow="visible"
             id="textext-c8b6bcad-5">
            <path
               inkscape:connector-curvature="0"
               style="stroke:none"
               d="M 0.375,1.765625 C 1.109375,1.28125 1.421875,1.03125 1.78125,0.5625 2.5,-0.296875 2.84375,-1.296875 2.84375,-2.46875 c 0,-1.265625 -0.375,-2.234375 -1.25,-3.25 C 1.1875,-6.203125 0.921875,-6.421875 0.40625,-6.734375 l -0.109375,0.15625 c 0.796875,0.625 1.0625,0.96875 1.34375,1.71875 0.234375,0.671875 0.34375,1.4375 0.34375,2.421875 0,1.046875 -0.125,1.875 -0.40625,2.484375 C 1.3125,0.671875 1,1.03125 0.296875,1.609375 z m 0,0"
               id="path3027" />
          </symbol>
        </g>
      </defs>
      <g
         id="textext-c8b6bcad-6">
        <g
           style="fill:#000000;fill-opacity:1"
           id="g3030">
          <use
             height="212.59842"
             width="354.33069"
             xlink:href="#textext-c8b6bcad-1"
             x="224.92599"
             y="134.765"
             id="use3032" />
        </g>
        <g
           style="fill:#000000;fill-opacity:1"
           id="g3034">
          <use
             height="212.59842"
             width="354.33069"
             xlink:href="#textext-c8b6bcad-4"
             x="229.151"
             y="134.765"
             id="use3036" />
        </g>
        <g
           style="fill:#000000;fill-opacity:1"
           id="g3038">
          <use
             height="212.59842"
             width="354.33069"
             xlink:href="#textext-c8b6bcad-2"
             x="232.966"
             y="134.765"
             id="use3040" />
        </g>
        <g
           style="fill:#000000;fill-opacity:1"
           id="g3042">
          <use
             height="212.59842"
             width="354.33069"
             xlink:href="#textext-c8b6bcad-5"
             x="237.42"
             y="134.765"
             id="use3044" />
        </g>
      </g>
    </g>
    <text
       sodipodi:linespacing="125%"
       id="text3078"
       y="983.70093"
       x="105.91164"
       style="font-size:12px;font-style:normal;font-variant:normal;font-weight:normal;font-stretch:normal;line-height:125%;letter-spacing:0px;word-spacing:0px;fill:#000000;fill-opacity:1;stroke:none;font-family:Nimbus Roman No9 L;-inkscape-font-specification:Nimbus Roman No9 L"
       xml:space="preserve"><tspan
         y="983.70093"
         x="105.91164"
         id="tspan3080"
         sodipodi:role="line">0</tspan></text>
    <text
       sodipodi:linespacing="125%"
       id="text3082"
       y="984.06616"
       x="172.38036"
       style="font-size:12px;font-style:normal;font-variant:normal;font-weight:normal;font-stretch:normal;line-height:125%;letter-spacing:0px;word-spacing:0px;fill:#000000;fill-opacity:1;stroke:none;font-family:Nimbus Roman No9 L;-inkscape-font-specification:Nimbus Roman No9 L"
       xml:space="preserve"><tspan
         y="984.06616"
         x="172.38036"
         id="tspan3084"
         sodipodi:role="line">1</tspan></text>
    <g
       id="g3172"
       transform="matrix(1.2,0,0,1.2,-39.581657,819.17178)"
       ns0:preamble="/home/sriranga/Desktop/general-books/CSY/article4/figure/package.tex"
       ns0:text="$x$">
      <defs
         id="defs3174">
        <g
           id="g3176">
          <symbol
             id="textext-e6acebdb-0"
             overflow="visible"
             style="overflow:visible">
            <path
               id="path3179"
               d=""
               style="stroke:none"
               inkscape:connector-curvature="0" />
          </symbol>
          <symbol
             id="textext-e6acebdb-1"
             overflow="visible"
             style="overflow:visible">
            <path
               id="path3182"
               d="M 4,-1.109375 C 3.921875,-1.015625 3.875,-0.953125 3.78125,-0.84375 3.5625,-0.53125 3.4375,-0.4375 3.328125,-0.4375 3.1875,-0.4375 3.09375,-0.5625 3.015625,-0.84375 3,-0.921875 2.984375,-0.984375 2.984375,-1.015625 2.734375,-2.03125 2.625,-2.484375 2.625,-2.625 c 0.4375,-0.78125 0.796875,-1.21875 0.96875,-1.21875 0.0625,0 0.140625,0.03125 0.25,0.078125 0.109375,0.078125 0.1875,0.09375 0.265625,0.09375 0.203125,0 0.34375,-0.140625 0.34375,-0.359375 0,-0.203125 -0.171875,-0.359375 -0.40625,-0.359375 -0.4375,0 -0.8125,0.359375 -1.5,1.421875 L 2.4375,-3.515625 c -0.140625,-0.6875 -0.25,-0.875 -0.53125,-0.875 -0.21875,0 -0.546875,0.078125 -1.15625,0.28125 L 0.640625,-4.0625 0.671875,-3.921875 C 1.0625,-4 1.140625,-4.03125 1.234375,-4.03125 c 0.25,0 0.3125,0.09375 0.453125,0.6875 l 0.28125,1.234375 -0.8125,1.15625 C 0.953125,-0.640625 0.75,-0.46875 0.640625,-0.46875 0.59375,-0.46875 0.484375,-0.5 0.390625,-0.5625 0.265625,-0.625 0.15625,-0.65625 0.0625,-0.65625 c -0.1875,0 -0.328125,0.140625 -0.328125,0.34375 0,0.265625 0.203125,0.421875 0.5,0.421875 0.296875,0 0.421875,-0.09375 0.921875,-0.703125 0.265625,-0.3125 0.484375,-0.578125 0.890625,-1.15625 l 0.3125,1.1875 c 0.125,0.515625 0.25,0.671875 0.578125,0.671875 0.375,0 0.625,-0.234375 1.203125,-1.140625 z m 0,0"
               style="stroke:none"
               inkscape:connector-curvature="0" />
          </symbol>
        </g>
      </defs>
      <g
         id="textext-e6acebdb-2">
        <g
           id="g3185"
           style="fill:#000000;fill-opacity:1">
          <use
             id="use3187"
             y="134.765"
             x="223.92999"
             xlink:href="#textext-e6acebdb-1"
             width="354.33069"
             height="212.59842" />
        </g>
      </g>
    </g>
  </g>
</svg>
