<?xml version="1.0" encoding="UTF-8" standalone="no"?>
<!-- Created with Inkscape (http://www.inkscape.org/) -->

<svg
   xmlns:ns0="http://www.iki.fi/pav/software/textext/"
   xmlns:dc="http://purl.org/dc/elements/1.1/"
   xmlns:cc="http://creativecommons.org/ns#"
   xmlns:rdf="http://www.w3.org/1999/02/22-rdf-syntax-ns#"
   xmlns:svg="http://www.w3.org/2000/svg"
   xmlns="http://www.w3.org/2000/svg"
   xmlns:xlink="http://www.w3.org/1999/xlink"
   xmlns:sodipodi="http://sodipodi.sourceforge.net/DTD/sodipodi-0.dtd"
   xmlns:inkscape="http://www.inkscape.org/namespaces/inkscape"
   width="744.09448819"
   height="1052.3622047"
   id="svg2"
   version="1.1"
   inkscape:version="0.48.4 r9939"
   sodipodi:docname="New document 1">
  <sodipodi:namedview
     id="base"
     pagecolor="#ffffff"
     bordercolor="#666666"
     borderopacity="1.0"
     inkscape:pageopacity="0.0"
     inkscape:pageshadow="2"
     inkscape:zoom="1.4367863"
     inkscape:cx="540.03185"
     inkscape:cy="819.8911"
     inkscape:document-units="px"
     inkscape:current-layer="textext-25a7dcb0-28"
     showgrid="false"
     inkscape:window-width="1024"
     inkscape:window-height="744"
     inkscape:window-x="0"
     inkscape:window-y="24"
     inkscape:window-maximized="1" />
  <defs
     id="defs4">
    <marker
       inkscape:stockid="Arrow1Mend"
       orient="auto"
       refY="0.0"
       refX="0.0"
       id="Arrow1Mend"
       style="overflow:visible;">
      <path
         id="path4062"
         d="M 0.0,0.0 L 5.0,-5.0 L -12.5,0.0 L 5.0,5.0 L 0.0,0.0 z "
         style="fill-rule:evenodd;stroke:#000000;stroke-width:1.0pt;"
         transform="scale(0.4) rotate(180) translate(10,0)" />
    </marker>
  </defs>
  <metadata
     id="metadata7">
    <rdf:RDF>
      <cc:Work
         rdf:about="">
        <dc:format>image/svg+xml</dc:format>
        <dc:type
           rdf:resource="http://purl.org/dc/dcmitype/StillImage" />
        <dc:title></dc:title>
      </cc:Work>
    </rdf:RDF>
  </metadata>
  <g
     id="layer1"
     inkscape:groupmode="layer"
     inkscape:label="Layer 1">
    <g
       id="g2990"
       ns0:preamble="/home/sriranga/Desktop/general-books/CSY/article4/figure/package.tex"
       ns0:text="\\begin{align*}\n\\int\\limits^{\\infty}_{-\\infty}f(x)dx &amp;= \\text{ this area}\\\\[10pt]\n&amp;= b-a\\neq 1\n\\end{align*}"
       transform="scale(1.200000,1.200000)">
      <defs
         id="defs2992">
        <g
           id="g2994">
          <symbol
             id="textext-25a7dcb0-0"
             overflow="visible">
            <path
               id="path2997"
               d=""
               style="stroke:none;" />
          </symbol>
          <symbol
             id="textext-25a7dcb0-1"
             overflow="visible">
            <path
               id="path3000"
               d="M 5.578125 -1.875 C 5.578125 -2.515625 5.234375 -3.046875 4.546875 -3.046875 C 3.96875 -3.046875 3.421875 -2.5 3.0625 -2.078125 C 2.78125 -2.5625 2.203125 -3.0625 1.625 -3.0625 C 0.859375 -3.0625 0.359375 -2.328125 0.359375 -1.609375 C 0.359375 -0.984375 0.71875 -0.4375 1.40625 -0.4375 C 1.953125 -0.4375 2.578125 -1 2.890625 -1.421875 C 3.21875 -0.953125 3.71875 -0.4375 4.328125 -0.4375 C 5.09375 -0.4375 5.578125 -1.1875 5.578125 -1.875 Z M 5.1875 -1.5625 C 5.1875 -1.09375 4.953125 -0.71875 4.453125 -0.71875 C 3.9375 -0.71875 3.453125 -1.5 3.1875 -1.875 C 3.390625 -2.1875 3.953125 -2.703125 4.34375 -2.703125 C 4.90625 -2.703125 5.1875 -2.03125 5.1875 -1.5625 Z M 2.765625 -1.625 C 2.5625 -1.3125 2 -0.8125 1.609375 -0.8125 C 1.046875 -0.8125 0.78125 -1.484375 0.78125 -1.953125 C 0.78125 -2.421875 1.015625 -2.8125 1.515625 -2.8125 C 1.984375 -2.8125 2.5625 -2.015625 2.765625 -1.625 Z M 2.765625 -1.625 "
               style="stroke:none;" />
          </symbol>
          <symbol
             id="textext-25a7dcb0-2"
             overflow="visible">
            <path
               id="path3003"
               d="M 4 -1.59375 L 4 -1.984375 L 0.4375 -1.984375 L 0.4375 -1.59375 Z M 4 -1.59375 "
               style="stroke:none;" />
          </symbol>
          <symbol
             id="textext-25a7dcb0-3"
             overflow="visible">
            <path
               id="path3006"
               d=""
               style="stroke:none;" />
          </symbol>
          <symbol
             id="textext-25a7dcb0-4"
             overflow="visible">
            <path
               id="path3009"
               d="M 10.84375 1.234375 C 10.84375 0.421875 9.734375 0 9.0625 0 C 5.671875 0 5.375 5.09375 5.21875 7.53125 C 5.03125 10.5 4.8125 13.484375 4.71875 16.453125 C 4.671875 17.890625 4.6875 21.625 2.578125 21.625 C 2.234375 21.625 2 21.25 2 20.984375 C 2 20.53125 1.4375 20.09375 1.015625 20.09375 C 0.671875 20.09375 0.609375 20.453125 0.609375 20.71875 C 0.609375 21.578125 1.703125 22 2.4375 22 C 5.359375 22 5.5 17.734375 5.734375 15.59375 C 6.03125 12.890625 6.1875 10.15625 6.359375 7.4375 C 6.46875 5.875 6.609375 0.359375 8.90625 0.359375 C 9.359375 0.359375 9.515625 0.75 9.515625 0.984375 C 9.515625 1.40625 10.046875 1.796875 10.4375 1.796875 C 10.75 1.796875 10.84375 1.484375 10.84375 1.234375 Z M 10.84375 1.234375 "
               style="stroke:none;" />
          </symbol>
          <symbol
             id="textext-25a7dcb0-5"
             overflow="visible">
            <path
               id="path3012"
               d=""
               style="stroke:none;" />
          </symbol>
          <symbol
             id="textext-25a7dcb0-6"
             overflow="visible">
            <path
               id="path3015"
               d="M 0.34375 -3.953125 L 1.25 -3.953125 L 0.375 0.234375 C 0.15625 1.3125 -0.171875 1.859375 -0.59375 1.859375 C -0.71875 1.859375 -0.796875 1.78125 -0.796875 1.6875 C -0.796875 1.671875 -0.78125 1.640625 -0.75 1.578125 C -0.71875 1.53125 -0.703125 1.484375 -0.703125 1.421875 C -0.703125 1.21875 -0.890625 1.046875 -1.09375 1.046875 C -1.3125 1.046875 -1.46875 1.21875 -1.46875 1.453125 C -1.46875 1.796875 -1.109375 2.0625 -0.671875 2.0625 C 0.203125 2.0625 0.90625 1.078125 1.3125 -0.75 L 2.03125 -3.953125 L 3.125 -3.953125 L 3.1875 -4.265625 L 2.109375 -4.265625 C 2.390625 -5.828125 2.765625 -6.546875 3.3125 -6.546875 C 3.453125 -6.546875 3.53125 -6.484375 3.53125 -6.421875 C 3.53125 -6.390625 3.53125 -6.375 3.5 -6.3125 C 3.453125 -6.234375 3.4375 -6.1875 3.4375 -6.109375 C 3.4375 -5.875 3.59375 -5.71875 3.8125 -5.71875 C 4.03125 -5.71875 4.234375 -5.890625 4.234375 -6.109375 C 4.234375 -6.484375 3.859375 -6.765625 3.375 -6.765625 C 2.875 -6.765625 2.5 -6.546875 2.140625 -6.078125 C 1.828125 -5.6875 1.640625 -5.21875 1.328125 -4.265625 L 0.421875 -4.265625 Z M 0.34375 -3.953125 "
               style="stroke:none;" />
          </symbol>
          <symbol
             id="textext-25a7dcb0-7"
             overflow="visible">
            <path
               id="path3018"
               d="M 4 -1.109375 C 3.921875 -1.015625 3.875 -0.953125 3.78125 -0.84375 C 3.5625 -0.53125 3.4375 -0.4375 3.328125 -0.4375 C 3.1875 -0.4375 3.09375 -0.5625 3.015625 -0.84375 C 3 -0.921875 2.984375 -0.984375 2.984375 -1.015625 C 2.734375 -2.03125 2.625 -2.484375 2.625 -2.625 C 3.0625 -3.40625 3.421875 -3.84375 3.59375 -3.84375 C 3.65625 -3.84375 3.734375 -3.8125 3.84375 -3.765625 C 3.953125 -3.6875 4.03125 -3.671875 4.109375 -3.671875 C 4.3125 -3.671875 4.453125 -3.8125 4.453125 -4.03125 C 4.453125 -4.234375 4.28125 -4.390625 4.046875 -4.390625 C 3.609375 -4.390625 3.234375 -4.03125 2.546875 -2.96875 L 2.4375 -3.515625 C 2.296875 -4.203125 2.1875 -4.390625 1.90625 -4.390625 C 1.6875 -4.390625 1.359375 -4.3125 0.75 -4.109375 L 0.640625 -4.0625 L 0.671875 -3.921875 C 1.0625 -4 1.140625 -4.03125 1.234375 -4.03125 C 1.484375 -4.03125 1.546875 -3.9375 1.6875 -3.34375 L 1.96875 -2.109375 L 1.15625 -0.953125 C 0.953125 -0.640625 0.75 -0.46875 0.640625 -0.46875 C 0.59375 -0.46875 0.484375 -0.5 0.390625 -0.5625 C 0.265625 -0.625 0.15625 -0.65625 0.0625 -0.65625 C -0.125 -0.65625 -0.265625 -0.515625 -0.265625 -0.3125 C -0.265625 -0.046875 -0.0625 0.109375 0.234375 0.109375 C 0.53125 0.109375 0.65625 0.015625 1.15625 -0.59375 C 1.421875 -0.90625 1.640625 -1.171875 2.046875 -1.75 L 2.359375 -0.5625 C 2.484375 -0.046875 2.609375 0.109375 2.9375 0.109375 C 3.3125 0.109375 3.5625 -0.125 4.140625 -1.03125 Z M 4 -1.109375 "
               style="stroke:none;" />
          </symbol>
          <symbol
             id="textext-25a7dcb0-8"
             overflow="visible">
            <path
               id="path3021"
               d="M 4.609375 -1.109375 C 4.078125 -0.484375 3.96875 -0.40625 3.796875 -0.40625 C 3.703125 -0.40625 3.625 -0.484375 3.625 -0.59375 C 3.625 -0.734375 3.9375 -1.953125 4.265625 -3.046875 C 4.53125 -3.96875 4.75 -4.765625 5.25 -6.765625 L 5.203125 -6.8125 C 4.671875 -6.703125 4.3125 -6.640625 3.671875 -6.578125 L 3.671875 -6.40625 C 4.234375 -6.390625 4.296875 -6.359375 4.296875 -6.15625 C 4.296875 -6.015625 4.28125 -5.96875 4.140625 -5.453125 L 3.703125 -3.8125 C 3.625 -4.234375 3.453125 -4.390625 3.0625 -4.390625 C 1.765625 -4.390625 0.15625 -2.515625 0.15625 -1.03125 C 0.15625 -0.3125 0.546875 0.109375 1.203125 0.109375 C 1.875 0.109375 2.3125 -0.203125 2.984375 -1.203125 C 2.875 -0.703125 2.859375 -0.546875 2.859375 -0.3125 C 2.859375 -0.046875 3.03125 0.125 3.28125 0.125 C 3.703125 0.125 4.21875 -0.28125 4.734375 -1 Z M 3.09375 -4.171875 C 3.40625 -4.140625 3.546875 -3.953125 3.546875 -3.59375 C 3.546875 -2.078125 2.515625 -0.375 1.59375 -0.375 C 1.25 -0.375 1.015625 -0.640625 1.015625 -1.03125 C 1.015625 -1.859375 1.515625 -3.015625 2.171875 -3.703125 C 2.453125 -4 2.828125 -4.1875 3.09375 -4.171875 Z M 3.09375 -4.171875 "
               style="stroke:none;" />
          </symbol>
          <symbol
             id="textext-25a7dcb0-9"
             overflow="visible">
            <path
               id="path3024"
               d="M 1.09375 -6.40625 C 1.6875 -6.390625 1.75 -6.359375 1.75 -6.140625 C 1.75 -6.046875 1.71875 -5.9375 1.65625 -5.71875 C 1.640625 -5.640625 1.609375 -5.578125 1.609375 -5.515625 L 1.578125 -5.453125 L 0.234375 -0.453125 L 0.234375 -0.421875 C 0.234375 -0.1875 1 0.109375 1.5625 0.109375 C 3.0625 0.109375 4.71875 -1.640625 4.71875 -3.203125 C 4.71875 -3.890625 4.234375 -4.390625 3.5625 -4.390625 C 2.859375 -4.390625 2.34375 -3.984375 1.640625 -2.890625 C 2.15625 -4.78125 2.21875 -5.046875 2.671875 -6.765625 L 2.625 -6.8125 C 2.125 -6.71875 1.765625 -6.65625 1.09375 -6.578125 Z M 3.171875 -3.90625 C 3.59375 -3.90625 3.875 -3.578125 3.875 -3.046875 C 3.875 -2.390625 3.359375 -1.328125 2.765625 -0.703125 C 2.40625 -0.328125 1.96875 -0.125 1.546875 -0.125 C 1.234375 -0.125 1.09375 -0.234375 1.09375 -0.453125 C 1.09375 -1.0625 1.390625 -2.03125 1.796875 -2.765625 C 2.25 -3.53125 2.6875 -3.90625 3.171875 -3.90625 Z M 3.171875 -3.90625 "
               style="stroke:none;" />
          </symbol>
          <symbol
             id="textext-25a7dcb0-10"
             overflow="visible">
            <path
               id="path3027"
               d="M 4.625 -1.09375 C 4.46875 -0.953125 4.421875 -0.890625 4.34375 -0.8125 C 4.046875 -0.515625 3.921875 -0.40625 3.828125 -0.40625 C 3.75 -0.40625 3.6875 -0.46875 3.6875 -0.53125 C 3.6875 -0.734375 4.109375 -2.4375 4.578125 -4.15625 C 4.609375 -4.25 4.609375 -4.28125 4.640625 -4.359375 L 4.5625 -4.390625 L 3.953125 -4.328125 L 3.921875 -4.296875 L 3.8125 -3.8125 C 3.734375 -4.1875 3.453125 -4.390625 3.015625 -4.390625 C 1.703125 -4.390625 0.171875 -2.578125 0.171875 -1 C 0.171875 -0.296875 0.546875 0.109375 1.1875 0.109375 C 1.890625 0.109375 2.3125 -0.21875 3.1875 -1.453125 C 2.984375 -0.671875 2.953125 -0.546875 2.953125 -0.3125 C 2.953125 -0.015625 3.078125 0.09375 3.359375 0.09375 C 3.765625 0.09375 4 -0.09375 4.75 -1 Z M 3.078125 -4.171875 C 3.421875 -4.15625 3.640625 -3.921875 3.640625 -3.5625 C 3.640625 -2.734375 3.140625 -1.5625 2.453125 -0.8125 C 2.21875 -0.546875 1.875 -0.375 1.578125 -0.375 C 1.234375 -0.375 1 -0.671875 1 -1.125 C 1 -1.671875 1.390625 -2.6875 1.8125 -3.3125 C 2.21875 -3.890625 2.6875 -4.203125 3.078125 -4.171875 Z M 3.078125 -4.171875 "
               style="stroke:none;" />
          </symbol>
          <symbol
             id="textext-25a7dcb0-11"
             overflow="visible">
            <path
               id="path3030"
               d=""
               style="stroke:none;" />
          </symbol>
          <symbol
             id="textext-25a7dcb0-12"
             overflow="visible">
            <path
               id="path3033"
               d="M 2.9375 -6.734375 C 2.203125 -6.265625 1.90625 -6 1.53125 -5.546875 C 0.828125 -4.671875 0.484375 -3.671875 0.484375 -2.515625 C 0.484375 -1.25 0.84375 -0.265625 1.71875 0.75 C 2.140625 1.21875 2.390625 1.453125 2.90625 1.765625 L 3.03125 1.609375 C 2.234375 0.984375 1.953125 0.625 1.6875 -0.125 C 1.453125 -0.78125 1.328125 -1.546875 1.328125 -2.546875 C 1.328125 -3.59375 1.46875 -4.40625 1.734375 -5.03125 C 2.015625 -5.640625 2.3125 -6 3.03125 -6.578125 Z M 2.9375 -6.734375 "
               style="stroke:none;" />
          </symbol>
          <symbol
             id="textext-25a7dcb0-13"
             overflow="visible">
            <path
               id="path3036"
               d="M 0.375 1.765625 C 1.109375 1.28125 1.421875 1.03125 1.78125 0.5625 C 2.5 -0.296875 2.84375 -1.296875 2.84375 -2.46875 C 2.84375 -3.734375 2.46875 -4.703125 1.59375 -5.71875 C 1.1875 -6.203125 0.921875 -6.421875 0.40625 -6.734375 L 0.296875 -6.578125 C 1.09375 -5.953125 1.359375 -5.609375 1.640625 -4.859375 C 1.875 -4.1875 1.984375 -3.421875 1.984375 -2.4375 C 1.984375 -1.390625 1.859375 -0.5625 1.578125 0.046875 C 1.3125 0.671875 1 1.03125 0.296875 1.609375 Z M 0.375 1.765625 "
               style="stroke:none;" />
          </symbol>
          <symbol
             id="textext-25a7dcb0-14"
             overflow="visible">
            <path
               id="path3039"
               d="M 2.546875 -4.484375 L 1.53125 -4.484375 L 1.53125 -5.640625 C 1.53125 -5.734375 1.53125 -5.765625 1.46875 -5.765625 C 1.390625 -5.6875 1.328125 -5.59375 1.265625 -5.5 C 0.890625 -4.9375 0.453125 -4.46875 0.296875 -4.421875 C 0.1875 -4.359375 0.125 -4.28125 0.125 -4.234375 C 0.125 -4.203125 0.140625 -4.1875 0.171875 -4.171875 L 0.703125 -4.171875 L 0.703125 -1.171875 C 0.703125 -0.328125 1 0.09375 1.578125 0.09375 C 2.078125 0.09375 2.453125 -0.140625 2.78125 -0.65625 L 2.65625 -0.765625 C 2.4375 -0.515625 2.265625 -0.421875 2.046875 -0.421875 C 1.6875 -0.421875 1.53125 -0.6875 1.53125 -1.3125 L 1.53125 -4.171875 L 2.546875 -4.171875 Z M 2.546875 -4.484375 "
               style="stroke:none;" />
          </symbol>
          <symbol
             id="textext-25a7dcb0-15"
             overflow="visible">
            <path
               id="path3042"
               d="M 1.5625 -3.421875 C 1.984375 -3.875 2.28125 -4.046875 2.671875 -4.046875 C 3.171875 -4.046875 3.421875 -3.6875 3.421875 -2.984375 L 3.421875 -1.015625 C 3.421875 -0.34375 3.3125 -0.203125 2.734375 -0.15625 L 2.734375 0 L 4.859375 0 L 4.859375 -0.15625 C 4.3125 -0.25 4.25 -0.328125 4.25 -1.015625 L 4.25 -3 C 4.25 -4.046875 3.84375 -4.578125 3.03125 -4.578125 C 2.4375 -4.578125 2.03125 -4.34375 1.5625 -3.75 L 1.5625 -6.78125 L 1.515625 -6.8125 C 1.171875 -6.6875 0.921875 -6.609375 0.375 -6.453125 L 0.09375 -6.375 L 0.09375 -6.203125 C 0.140625 -6.21875 0.171875 -6.21875 0.21875 -6.21875 C 0.640625 -6.21875 0.734375 -6.140625 0.734375 -5.71875 L 0.734375 -1.015625 C 0.734375 -0.3125 0.671875 -0.234375 0.09375 -0.15625 L 0.09375 0 L 2.25 0 L 2.25 -0.15625 C 1.671875 -0.203125 1.5625 -0.328125 1.5625 -1.015625 Z M 1.5625 -3.421875 "
               style="stroke:none;" />
          </symbol>
          <symbol
             id="textext-25a7dcb0-16"
             overflow="visible">
            <path
               id="path3045"
               d="M 1.75 -4.578125 L 0.203125 -4.03125 L 0.203125 -3.890625 L 0.28125 -3.890625 C 0.40625 -3.921875 0.53125 -3.921875 0.625 -3.921875 C 0.859375 -3.921875 0.953125 -3.765625 0.953125 -3.328125 L 0.953125 -1.015625 C 0.953125 -0.296875 0.84375 -0.1875 0.15625 -0.15625 L 0.15625 0 L 2.515625 0 L 2.515625 -0.15625 C 1.859375 -0.203125 1.78125 -0.296875 1.78125 -1.015625 L 1.78125 -4.5625 Z M 1.28125 -6.8125 C 1 -6.8125 0.78125 -6.578125 0.78125 -6.296875 C 0.78125 -6.015625 1 -5.796875 1.28125 -5.796875 C 1.5625 -5.796875 1.796875 -6.015625 1.796875 -6.296875 C 1.796875 -6.578125 1.5625 -6.8125 1.28125 -6.8125 Z M 1.28125 -6.8125 "
               style="stroke:none;" />
          </symbol>
          <symbol
             id="textext-25a7dcb0-17"
             overflow="visible">
            <path
               id="path3048"
               d="M 3.140625 -3.125 L 3.09375 -4.484375 L 2.984375 -4.484375 L 2.96875 -4.46875 C 2.875 -4.390625 2.875 -4.390625 2.828125 -4.390625 C 2.765625 -4.390625 2.671875 -4.40625 2.5625 -4.453125 C 2.34375 -4.53125 2.125 -4.578125 1.859375 -4.578125 C 1.078125 -4.578125 0.515625 -4.0625 0.515625 -3.34375 C 0.515625 -2.796875 0.828125 -2.390625 1.671875 -1.90625 L 2.25 -1.578125 C 2.609375 -1.390625 2.765625 -1.140625 2.765625 -0.84375 C 2.765625 -0.40625 2.453125 -0.125 1.9375 -0.125 C 1.609375 -0.125 1.296875 -0.25 1.109375 -0.46875 C 0.890625 -0.71875 0.8125 -0.953125 0.671875 -1.515625 L 0.515625 -1.515625 L 0.515625 0.046875 L 0.640625 0.046875 C 0.71875 -0.0625 0.75 -0.078125 0.875 -0.078125 C 0.96875 -0.078125 1.109375 -0.0625 1.328125 0 C 1.609375 0.0625 1.890625 0.09375 2.0625 0.09375 C 2.828125 0.09375 3.46875 -0.484375 3.46875 -1.171875 C 3.46875 -1.671875 3.234375 -2 2.625 -2.359375 L 1.5625 -3 C 1.28125 -3.15625 1.125 -3.40625 1.125 -3.671875 C 1.125 -4.078125 1.4375 -4.359375 1.890625 -4.359375 C 2.46875 -4.359375 2.765625 -4.015625 2.984375 -3.125 Z M 3.140625 -3.125 "
               style="stroke:none;" />
          </symbol>
          <symbol
             id="textext-25a7dcb0-18"
             overflow="visible">
            <path
               id="path3051"
               d="M 4.40625 -0.65625 C 4.234375 -0.515625 4.109375 -0.46875 3.96875 -0.46875 C 3.734375 -0.46875 3.671875 -0.609375 3.671875 -1.046875 L 3.671875 -2.984375 C 3.671875 -3.515625 3.625 -3.796875 3.46875 -4.03125 C 3.25 -4.390625 2.828125 -4.578125 2.234375 -4.578125 C 1.296875 -4.578125 0.5625 -4.09375 0.5625 -3.46875 C 0.5625 -3.234375 0.75 -3.046875 0.984375 -3.046875 C 1.21875 -3.046875 1.4375 -3.234375 1.4375 -3.453125 C 1.4375 -3.5 1.421875 -3.546875 1.421875 -3.625 C 1.390625 -3.703125 1.390625 -3.78125 1.390625 -3.859375 C 1.390625 -4.125 1.703125 -4.34375 2.109375 -4.34375 C 2.59375 -4.34375 2.859375 -4.0625 2.859375 -3.515625 L 2.859375 -2.90625 C 1.328125 -2.296875 1.15625 -2.21875 0.734375 -1.828125 C 0.515625 -1.640625 0.375 -1.296875 0.375 -0.96875 C 0.375 -0.34375 0.8125 0.09375 1.421875 0.09375 C 1.859375 0.09375 2.265625 -0.109375 2.875 -0.625 C 2.921875 -0.109375 3.09375 0.09375 3.515625 0.09375 C 3.84375 0.09375 4.0625 -0.015625 4.40625 -0.40625 Z M 2.859375 -1.21875 C 2.859375 -0.921875 2.8125 -0.828125 2.609375 -0.703125 C 2.359375 -0.5625 2.078125 -0.484375 1.875 -0.484375 C 1.53125 -0.484375 1.25 -0.8125 1.25 -1.25 L 1.25 -1.28125 C 1.25 -1.875 1.65625 -2.234375 2.859375 -2.671875 Z M 2.859375 -1.21875 "
               style="stroke:none;" />
          </symbol>
          <symbol
             id="textext-25a7dcb0-19"
             overflow="visible">
            <path
               id="path3054"
               d="M 0.0625 -3.890625 C 0.203125 -3.921875 0.296875 -3.921875 0.421875 -3.921875 C 0.671875 -3.921875 0.75 -3.765625 0.75 -3.328125 L 0.75 -0.84375 C 0.75 -0.34375 0.6875 -0.265625 0.046875 -0.15625 L 0.046875 0 L 2.4375 0 L 2.4375 -0.15625 C 1.765625 -0.171875 1.59375 -0.328125 1.59375 -0.890625 L 1.59375 -3.140625 C 1.59375 -3.453125 2.03125 -3.953125 2.296875 -3.953125 C 2.359375 -3.953125 2.4375 -3.90625 2.546875 -3.8125 C 2.71875 -3.671875 2.828125 -3.609375 2.953125 -3.609375 C 3.1875 -3.609375 3.34375 -3.78125 3.34375 -4.0625 C 3.34375 -4.390625 3.125 -4.578125 2.796875 -4.578125 C 2.375 -4.578125 2.078125 -4.359375 1.59375 -3.65625 L 1.59375 -4.5625 L 1.546875 -4.578125 C 1.015625 -4.359375 0.65625 -4.234375 0.0625 -4.046875 Z M 0.0625 -3.890625 "
               style="stroke:none;" />
          </symbol>
          <symbol
             id="textext-25a7dcb0-20"
             overflow="visible">
            <path
               id="path3057"
               d="M 4.0625 -1.640625 C 3.59375 -0.875 3.15625 -0.59375 2.515625 -0.59375 C 1.953125 -0.59375 1.53125 -0.875 1.234375 -1.453125 C 1.0625 -1.828125 0.984375 -2.15625 0.96875 -2.765625 L 4.03125 -2.765625 C 3.953125 -3.40625 3.859375 -3.703125 3.609375 -4.015625 C 3.3125 -4.375 2.84375 -4.578125 2.328125 -4.578125 C 1.828125 -4.578125 1.359375 -4.40625 0.984375 -4.0625 C 0.515625 -3.65625 0.25 -2.953125 0.25 -2.140625 C 0.25 -0.75 0.96875 0.09375 2.109375 0.09375 C 3.0625 0.09375 3.8125 -0.484375 4.234375 -1.5625 Z M 0.984375 -3.078125 C 1.09375 -3.859375 1.4375 -4.234375 2.046875 -4.234375 C 2.65625 -4.234375 2.890625 -3.953125 3.015625 -3.078125 Z M 0.984375 -3.078125 "
               style="stroke:none;" />
          </symbol>
          <symbol
             id="textext-25a7dcb0-21"
             overflow="visible">
            <path
               id="path3060"
               d="M 2.90625 -6.734375 L 1.109375 -5.828125 L 1.109375 -5.6875 C 1.21875 -5.734375 1.328125 -5.78125 1.375 -5.796875 C 1.5625 -5.875 1.71875 -5.90625 1.828125 -5.90625 C 2.03125 -5.90625 2.125 -5.765625 2.125 -5.4375 L 2.125 -0.921875 C 2.125 -0.59375 2.046875 -0.375 1.890625 -0.28125 C 1.734375 -0.1875 1.59375 -0.15625 1.171875 -0.15625 L 1.171875 0 L 3.921875 0 L 3.921875 -0.15625 C 3.140625 -0.15625 2.984375 -0.265625 2.984375 -0.734375 L 2.984375 -6.71875 Z M 2.90625 -6.734375 "
               style="stroke:none;" />
          </symbol>
          <symbol
             id="textext-25a7dcb0-22"
             overflow="visible">
            <path
               id="path3063"
               d=""
               style="stroke:none;" />
          </symbol>
          <symbol
             id="textext-25a7dcb0-23"
             overflow="visible">
            <path
               id="path3066"
               d="M 5.71875 -3.296875 L 5.71875 -3.84375 L 0.625 -3.84375 L 0.625 -3.296875 Z M 5.71875 -1.265625 L 5.71875 -1.828125 L 0.625 -1.828125 L 0.625 -1.265625 Z M 5.71875 -1.265625 "
               style="stroke:none;" />
          </symbol>
          <symbol
             id="textext-25a7dcb0-24"
             overflow="visible">
            <path
               id="path3069"
               d=""
               style="stroke:none;" />
          </symbol>
          <symbol
             id="textext-25a7dcb0-25"
             overflow="visible">
            <path
               id="path3072"
               d="M 5.71875 -2.28125 L 5.71875 -2.84375 L 0.625 -2.84375 L 0.625 -2.28125 Z M 5.71875 -2.28125 "
               style="stroke:none;" />
          </symbol>
          <symbol
             id="textext-25a7dcb0-26"
             overflow="visible">
            <path
               id="path3075"
               d=""
               style="stroke:none;" />
          </symbol>
          <symbol
             id="textext-25a7dcb0-27"
             overflow="visible">
            <path
               id="path3078"
               d="M 5.71875 -1.28125 L 5.71875 -1.828125 L 3.15625 -1.828125 L 3.734375 -3.296875 L 5.71875 -3.296875 L 5.71875 -3.859375 L 3.953125 -3.859375 L 4.671875 -5.640625 L 4.125 -5.640625 L 3.421875 -3.84375 L 0.625 -3.84375 L 0.625 -3.296875 L 3.1875 -3.296875 L 2.609375 -1.828125 L 0.625 -1.828125 L 0.625 -1.265625 L 2.375 -1.265625 L 1.671875 0.515625 L 2.21875 0.515625 L 2.921875 -1.28125 Z M 5.71875 -1.28125 "
               style="stroke:none;" />
          </symbol>
        </g>
      </defs>
      <g
         id="textext-25a7dcb0-28">
        <g
           id="g3081"
           style="fill:rgb(0%,0%,0%);fill-opacity:1;">
          <use
             id="use3083"
             y="128.916"
             x="355.231"
             xlink:href="#textext-25a7dcb0-1" />
        </g>
        <g
           id="g3085"
           style="fill:rgb(0%,0%,0%);fill-opacity:1;">
          <use
             id="use3087"
             y="130.908"
             x="350.564"
             xlink:href="#textext-25a7dcb0-4" />
        </g>
        <g
           id="g3089"
           style="fill:rgb(0%,0%,0%);fill-opacity:1;">
          <use
             id="use3091"
             y="158.873"
             x="348.56"
             xlink:href="#textext-25a7dcb0-2" />
          <use
             id="use3093"
             y="158.873"
             x="352.995337"
             xlink:href="#textext-25a7dcb0-1" />
        </g>
        <g
           id="g3095"
           style="fill:rgb(0%,0%,0%);fill-opacity:1;">
          <use
             id="use3097"
             y="144.462"
             x="364.549"
             xlink:href="#textext-25a7dcb0-6" />
        </g>
        <g
           id="g3099"
           style="fill:rgb(0%,0%,0%);fill-opacity:1;">
          <use
             id="use3101"
             y="144.462"
             x="368.773"
             xlink:href="#textext-25a7dcb0-12" />
        </g>
        <g
           id="g3103"
           style="fill:rgb(0%,0%,0%);fill-opacity:1;">
          <use
             id="use3105"
             y="144.462"
             x="372.588"
             xlink:href="#textext-25a7dcb0-7" />
        </g>
        <g
           id="g3107"
           style="fill:rgb(0%,0%,0%);fill-opacity:1;">
          <use
             id="use3109"
             y="144.462"
             x="377.042"
             xlink:href="#textext-25a7dcb0-13" />
        </g>
        <g
           id="g3111"
           style="fill:rgb(0%,0%,0%);fill-opacity:1;">
          <use
             id="use3113"
             y="144.462"
             x="380.359"
             xlink:href="#textext-25a7dcb0-8" />
        </g>
        <g
           id="g3115"
           style="fill:rgb(0%,0%,0%);fill-opacity:1;">
          <use
             id="use3117"
             y="144.462"
             x="386.10742"
             xlink:href="#textext-25a7dcb0-7" />
        </g>
        <g
           id="g3119"
           style="fill:rgb(0%,0%,0%);fill-opacity:1;">
          <use
             id="use3121"
             y="144.462"
             x="393.328"
             xlink:href="#textext-25a7dcb0-23" />
        </g>
        <g
           id="g3123"
           style="fill:rgb(0%,0%,0%);fill-opacity:1;">
          <use
             id="use3125"
             y="144.462"
             x="404.923"
             xlink:href="#textext-25a7dcb0-14" />
          <use
             id="use3127"
             y="144.462"
             x="407.692603"
             xlink:href="#textext-25a7dcb0-15" />
          <use
             id="use3129"
             y="144.462"
             x="412.673903"
             xlink:href="#textext-25a7dcb0-16" />
          <use
             id="use3131"
             y="144.462"
             x="415.443506"
             xlink:href="#textext-25a7dcb0-17" />
        </g>
        <g
           id="g3133"
           style="fill:rgb(0%,0%,0%);fill-opacity:1;">
          <use
             id="use3135"
             y="144.462"
             x="421.809607"
             xlink:href="#textext-25a7dcb0-18" />
          <use
             id="use3137"
             y="144.462"
             x="426.233001"
             xlink:href="#textext-25a7dcb0-19" />
          <use
             id="use3139"
             y="144.462"
             x="429.550547"
             xlink:href="#textext-25a7dcb0-20" />
          <use
             id="use3141"
             y="144.462"
             x="433.973942"
             xlink:href="#textext-25a7dcb0-18" />
        </g>
        <g
           id="g3143"
           style="fill:#000000;fill-opacity:1"
           transform="translate(0,36.666672)">
          <use
             id="use3145"
             y="182.186"
             x="393.328"
             xlink:href="#textext-25a7dcb0-23"
             width="744.09448"
             height="1052.3622" />
        </g>
        <g
           id="g3147"
           style="fill:#000000;fill-opacity:1"
           transform="translate(0,36.666672)">
          <use
             id="use3149"
             y="182.186"
             x="402.43201"
             xlink:href="#textext-25a7dcb0-9"
             width="744.09448"
             height="1052.3622" />
        </g>
        <g
           id="g3151"
           style="fill:#000000;fill-opacity:1"
           transform="translate(0,36.666672)">
          <use
             id="use3153"
             y="182.186"
             x="409.62701"
             xlink:href="#textext-25a7dcb0-25"
             width="744.09448"
             height="1052.3622" />
        </g>
        <g
           id="g3155"
           style="fill:#000000;fill-opacity:1"
           transform="translate(0,36.666672)">
          <use
             id="use3157"
             y="182.186"
             x="418.177"
             xlink:href="#textext-25a7dcb0-10"
             width="744.09448"
             height="1052.3622" />
        </g>
        <g
           id="g3159"
           style="fill:#000000;fill-opacity:1"
           transform="translate(0,36.666672)">
          <use
             id="use3161"
             y="182.186"
             x="425.92599"
             xlink:href="#textext-25a7dcb0-27"
             width="744.09448"
             height="1052.3622" />
        </g>
        <g
           id="g3163"
           style="fill:#000000;fill-opacity:1"
           transform="translate(0,36.666672)">
          <use
             id="use3165"
             y="182.186"
             x="435.02899"
             xlink:href="#textext-25a7dcb0-21"
             width="744.09448"
             height="1052.3622" />
        </g>
        <path
           style="fill:none;stroke:#000000;stroke-width:1px;stroke-linecap:butt;stroke-linejoin:miter;stroke-opacity:1"
           d="m 501.42857,235.93361 135,0"
           id="path3273"
           inkscape:connector-curvature="0"
           transform="scale(0.83333333,0.83333333)" />
        <path
           style="fill:none;stroke:#000000;stroke-width:1px;stroke-linecap:butt;stroke-linejoin:miter;stroke-opacity:1"
           d="m 526.42857,193.07647 0,55"
           id="path3275"
           inkscape:connector-curvature="0"
           transform="scale(0.83333333,0.83333333)" />
        <path
           style="fill:#cccccc;stroke:#000000;stroke-width:1px;stroke-linecap:butt;stroke-linejoin:miter;stroke-opacity:1"
           d="m 541.42857,235.93361 0,-42.85714 64.28572,0 0,42.89675 z"
           id="path3277"
           inkscape:connector-curvature="0"
           transform="scale(0.83333333,0.83333333)"
           sodipodi:nodetypes="ccccc" />
        <path
           style="fill:none;stroke:#000000;stroke-width:1px;stroke-linecap:butt;stroke-linejoin:miter;stroke-opacity:1;marker-end:url(#Arrow1Mend)"
           d="m 528.81486,169.48886 35.1028,0 0,34.85026"
           id="path3279"
           inkscape:connector-curvature="0"
           transform="scale(0.83333333,0.83333333)" />
        <g
           id="g4499"
           transform="matrix(0,-0.63990002,-0.63990002,0,607.33933,516.99739)">
          <path
             sodipodi:nodetypes="csc"
             transform="scale(0.83333333,0.83333333)"
             inkscape:connector-curvature="0"
             id="path4493"
             d="m 635.48583,177.25824 c 1.64557,1.13965 2.28743,3.85398 6.22516,5.41641 3.16949,1.25761 8.7628,-0.71819 17.86584,1.84789"
             style="fill:none;stroke:#000000;stroke-width:1.56274414px;stroke-linecap:butt;stroke-linejoin:miter;stroke-opacity:1" />
          <path
             style="fill:none;stroke:#000000;stroke-width:1.30228674px;stroke-linecap:butt;stroke-linejoin:miter;stroke-opacity:1"
             d="m 529.64735,147.7152 c -1.3713,0.94971 -1.90619,3.21165 -5.18763,4.51367 -2.64124,1.04801 -7.30233,-0.59849 -14.8882,1.53991"
             id="path4497"
             inkscape:connector-curvature="0"
             sodipodi:nodetypes="csc" />
        </g>
        <text
           xml:space="preserve"
           style="font-size:10px;font-style:normal;font-variant:normal;font-weight:normal;font-stretch:normal;line-height:125%;letter-spacing:0px;word-spacing:0px;fill:#000000;fill-opacity:1;stroke:none;font-family:Nimbus Roman No9 L;-inkscape-font-specification:Nimbus Roman No9 L"
           x="514.58344"
           y="181.43275"
           id="text4503"
           sodipodi:linespacing="125%"><tspan
             sodipodi:role="line"
             id="tspan4505"
             x="514.58344"
             y="181.43275">1</tspan></text>
        <g
           transform="matrix(1.2,0,0,1.2,180.08941,43.716531)"
           ns0:text="$a$"
           ns0:preamble="/home/sriranga/Desktop/general-books/CSY/article4/figure/package.tex"
           id="g4626">
          <defs
             id="defs4628">
            <g
               id="g4630">
              <symbol
                 style="overflow:visible"
                 overflow="visible"
                 id="textext-847351e2-0">
                <path
                   inkscape:connector-curvature="0"
                   style="stroke:none"
                   d=""
                   id="path4633" />
              </symbol>
              <symbol
                 style="overflow:visible"
                 overflow="visible"
                 id="textext-847351e2-1">
                <path
                   inkscape:connector-curvature="0"
                   style="stroke:none"
                   d="m 4.625,-1.09375 c -0.15625,0.140625 -0.203125,0.203125 -0.28125,0.28125 -0.296875,0.296875 -0.421875,0.40625 -0.515625,0.40625 -0.078125,0 -0.140625,-0.0625 -0.140625,-0.125 0,-0.203125 0.421875,-1.90625 0.890625,-3.625 0.03125,-0.09375 0.03125,-0.125 0.0625,-0.203125 L 4.5625,-4.390625 3.953125,-4.328125 3.921875,-4.296875 3.8125,-3.8125 c -0.078125,-0.375 -0.359375,-0.578125 -0.796875,-0.578125 -1.3125,0 -2.84375,1.8125 -2.84375,3.390625 0,0.703125 0.375,1.109375 1.015625,1.109375 0.703125,0 1.125,-0.328125 2,-1.5625 -0.203125,0.78125 -0.234375,0.90625 -0.234375,1.140625 0,0.296875 0.125,0.40625 0.40625,0.40625 C 3.765625,0.09375 4,-0.09375 4.75,-1 z M 3.078125,-4.171875 c 0.34375,0.015625 0.5625,0.25 0.5625,0.609375 0,0.828125 -0.5,2 -1.1875,2.75 C 2.21875,-0.546875 1.875,-0.375 1.578125,-0.375 1.234375,-0.375 1,-0.671875 1,-1.125 1,-1.671875 1.390625,-2.6875 1.8125,-3.3125 2.21875,-3.890625 2.6875,-4.203125 3.078125,-4.171875 z m 0,0"
                   id="path4636" />
              </symbol>
            </g>
          </defs>
          <g
             id="textext-847351e2-2">
            <g
               style="fill:#000000;fill-opacity:1"
               id="g4639">
              <use
                 height="1052.3622"
                 width="744.09448"
                 xlink:href="#textext-847351e2-1"
                 x="223.43201"
                 y="134.765"
                 id="use4641" />
            </g>
          </g>
        </g>
        <g
           id="g4919"
           transform="matrix(1.2,0,0,1.2,233.71285,44.876527)"
           ns0:preamble="/home/sriranga/Desktop/general-books/CSY/article4/figure/package.tex"
           ns0:text="$b$">
          <defs
             id="defs4921">
            <g
               id="g4923">
              <symbol
                 id="textext-7311a153-0"
                 overflow="visible"
                 style="overflow:visible">
                <path
                   id="path4926"
                   d=""
                   style="stroke:none"
                   inkscape:connector-curvature="0" />
              </symbol>
              <symbol
                 id="textext-7311a153-1"
                 overflow="visible"
                 style="overflow:visible">
                <path
                   id="path4929"
                   d="M 1.09375,-6.40625 C 1.6875,-6.390625 1.75,-6.359375 1.75,-6.140625 c 0,0.09375 -0.03125,0.203125 -0.09375,0.421875 -0.015625,0.078125 -0.046875,0.140625 -0.046875,0.203125 l -0.03125,0.0625 -1.34375,5 0,0.03125 c 0,0.234375 0.765625,0.53125 1.328125,0.53125 1.5,0 3.15625,-1.75 3.15625,-3.3125 0,-0.6875 -0.484375,-1.1875 -1.15625,-1.1875 -0.703125,0 -1.21875,0.40625 -1.921875,1.5 0.515625,-1.890625 0.578125,-2.15625 1.03125,-3.875 L 2.625,-6.8125 c -0.5,0.09375 -0.859375,0.15625 -1.53125,0.234375 z m 2.078125,2.5 c 0.421875,0 0.703125,0.328125 0.703125,0.859375 0,0.65625 -0.515625,1.71875 -1.109375,2.34375 -0.359375,0.375 -0.796875,0.578125 -1.21875,0.578125 -0.3125,0 -0.453125,-0.109375 -0.453125,-0.328125 0,-0.609375 0.296875,-1.578125 0.703125,-2.3125 C 2.25,-3.53125 2.6875,-3.90625 3.171875,-3.90625 z m 0,0"
                   style="stroke:none"
                   inkscape:connector-curvature="0" />
              </symbol>
            </g>
          </defs>
          <g
             id="textext-7311a153-2">
            <g
               id="g4932"
               style="fill:#000000;fill-opacity:1">
              <use
                 id="use4934"
                 y="134.765"
                 x="223.43201"
                 xlink:href="#textext-7311a153-1"
                 width="744.09448"
                 height="1052.3622" />
            </g>
          </g>
        </g>
      </g>
    </g>
  </g>
</svg>
