<?xml version="1.0" encoding="UTF-8" standalone="no"?>
<!-- Created with Inkscape (http://www.inkscape.org/) -->

<svg
   xmlns:ns0="http://www.iki.fi/pav/software/textext/"
   xmlns:dc="http://purl.org/dc/elements/1.1/"
   xmlns:cc="http://creativecommons.org/ns#"
   xmlns:rdf="http://www.w3.org/1999/02/22-rdf-syntax-ns#"
   xmlns:svg="http://www.w3.org/2000/svg"
   xmlns="http://www.w3.org/2000/svg"
   xmlns:xlink="http://www.w3.org/1999/xlink"
   xmlns:sodipodi="http://sodipodi.sourceforge.net/DTD/sodipodi-0.dtd"
   xmlns:inkscape="http://www.inkscape.org/namespaces/inkscape"
   width="744.09448819"
   height="1052.3622047"
   id="svg2"
   version="1.1"
   inkscape:version="0.48.4 r9939"
   sodipodi:docname="New document 1">
  <sodipodi:namedview
     id="base"
     pagecolor="#ffffff"
     bordercolor="#666666"
     borderopacity="1.0"
     inkscape:pageopacity="0.0"
     inkscape:pageshadow="2"
     inkscape:zoom="1.979899"
     inkscape:cx="286.96615"
     inkscape:cy="980.74833"
     inkscape:document-units="px"
     inkscape:current-layer="layer1"
     showgrid="false"
     inkscape:window-width="1024"
     inkscape:window-height="744"
     inkscape:window-x="0"
     inkscape:window-y="24"
     inkscape:window-maximized="1" />
  <defs
     id="defs4">
    <marker
       style="overflow:visible;"
       id="Arrow1Mend"
       refX="0.0"
       refY="0.0"
       orient="auto"
       inkscape:stockid="Arrow1Mend">
      <path
         transform="scale(0.4) rotate(180) translate(10,0)"
         style="fill-rule:evenodd;stroke:#000000;stroke-width:1.0pt;"
         d="M 0.0,0.0 L 5.0,-5.0 L -12.5,0.0 L 5.0,5.0 L 0.0,0.0 z "
         id="path4029" />
    </marker>
  </defs>
  <metadata
     id="metadata7">
    <rdf:RDF>
      <cc:Work
         rdf:about="">
        <dc:format>image/svg+xml</dc:format>
        <dc:type
           rdf:resource="http://purl.org/dc/dcmitype/StillImage" />
        <dc:title></dc:title>
      </cc:Work>
    </rdf:RDF>
  </metadata>
  <g
     inkscape:label="Layer 1"
     inkscape:groupmode="layer"
     id="layer1">
    <g
       transform="scale(1.200000,1.200000)"
       ns0:text="In this case we write $X\\sim \\bigcup (a,b)$."
       ns0:preamble="/home/sriranga/Desktop/general-books/CSY/article4/figure/package.tex"
       id="g2990">
      <defs
         id="defs2992">
        <g
           id="g2994">
          <symbol
             overflow="visible"
             id="textext-add6dc45-0">
            <path
               style="stroke:none;"
               d=""
               id="path2997" />
          </symbol>
          <symbol
             overflow="visible"
             id="textext-add6dc45-1">
            <path
               style="stroke:none;"
               d="M 1.140625 -1.09375 C 1.140625 -0.34375 1.015625 -0.21875 0.171875 -0.1875 L 0.171875 0 L 3.140625 0 L 3.140625 -0.1875 C 2.328125 -0.21875 2.15625 -0.359375 2.15625 -1.09375 L 2.15625 -5.515625 C 2.15625 -6.234375 2.296875 -6.375 3.140625 -6.40625 L 3.140625 -6.59375 L 0.171875 -6.59375 L 0.171875 -6.40625 C 1.03125 -6.359375 1.140625 -6.25 1.140625 -5.515625 Z M 1.140625 -1.09375 "
               id="path3000" />
          </symbol>
          <symbol
             overflow="visible"
             id="textext-add6dc45-2">
            <path
               style="stroke:none;"
               d="M 0.15625 -3.96875 C 0.21875 -4 0.3125 -4 0.421875 -4 C 0.703125 -4 0.796875 -3.859375 0.796875 -3.375 L 0.796875 -0.890625 C 0.796875 -0.328125 0.6875 -0.1875 0.171875 -0.15625 L 0.171875 0 L 2.296875 0 L 2.296875 -0.15625 C 1.78125 -0.1875 1.640625 -0.3125 1.640625 -0.671875 L 1.640625 -3.46875 C 2.109375 -3.921875 2.328125 -4.03125 2.65625 -4.03125 C 3.15625 -4.03125 3.390625 -3.734375 3.390625 -3.078125 L 3.390625 -0.984375 C 3.390625 -0.359375 3.265625 -0.1875 2.765625 -0.15625 L 2.765625 0 L 4.828125 0 L 4.828125 -0.15625 C 4.34375 -0.203125 4.234375 -0.3125 4.234375 -0.8125 L 4.234375 -3.09375 C 4.234375 -4.03125 3.78125 -4.578125 3.046875 -4.578125 C 2.59375 -4.578125 2.28125 -4.421875 1.609375 -3.78125 L 1.609375 -4.5625 L 1.53125 -4.578125 C 1.046875 -4.40625 0.703125 -4.296875 0.15625 -4.140625 Z M 0.15625 -3.96875 "
               id="path3003" />
          </symbol>
          <symbol
             overflow="visible"
             id="textext-add6dc45-3">
            <path
               style="stroke:none;"
               d="M 2.546875 -4.484375 L 1.53125 -4.484375 L 1.53125 -5.640625 C 1.53125 -5.734375 1.53125 -5.765625 1.46875 -5.765625 C 1.390625 -5.6875 1.328125 -5.59375 1.265625 -5.5 C 0.890625 -4.9375 0.453125 -4.46875 0.296875 -4.421875 C 0.1875 -4.359375 0.125 -4.28125 0.125 -4.234375 C 0.125 -4.203125 0.140625 -4.1875 0.171875 -4.171875 L 0.703125 -4.171875 L 0.703125 -1.171875 C 0.703125 -0.328125 1 0.09375 1.578125 0.09375 C 2.078125 0.09375 2.453125 -0.140625 2.78125 -0.65625 L 2.65625 -0.765625 C 2.4375 -0.515625 2.265625 -0.421875 2.046875 -0.421875 C 1.6875 -0.421875 1.53125 -0.6875 1.53125 -1.3125 L 1.53125 -4.171875 L 2.546875 -4.171875 Z M 2.546875 -4.484375 "
               id="path3006" />
          </symbol>
          <symbol
             overflow="visible"
             id="textext-add6dc45-4">
            <path
               style="stroke:none;"
               d="M 1.5625 -3.421875 C 1.984375 -3.875 2.28125 -4.046875 2.671875 -4.046875 C 3.171875 -4.046875 3.421875 -3.6875 3.421875 -2.984375 L 3.421875 -1.015625 C 3.421875 -0.34375 3.3125 -0.203125 2.734375 -0.15625 L 2.734375 0 L 4.859375 0 L 4.859375 -0.15625 C 4.3125 -0.25 4.25 -0.328125 4.25 -1.015625 L 4.25 -3 C 4.25 -4.046875 3.84375 -4.578125 3.03125 -4.578125 C 2.4375 -4.578125 2.03125 -4.34375 1.5625 -3.75 L 1.5625 -6.78125 L 1.515625 -6.8125 C 1.171875 -6.6875 0.921875 -6.609375 0.375 -6.453125 L 0.09375 -6.375 L 0.09375 -6.203125 C 0.140625 -6.21875 0.171875 -6.21875 0.21875 -6.21875 C 0.640625 -6.21875 0.734375 -6.140625 0.734375 -5.71875 L 0.734375 -1.015625 C 0.734375 -0.3125 0.671875 -0.234375 0.09375 -0.15625 L 0.09375 0 L 2.25 0 L 2.25 -0.15625 C 1.671875 -0.203125 1.5625 -0.328125 1.5625 -1.015625 Z M 1.5625 -3.421875 "
               id="path3009" />
          </symbol>
          <symbol
             overflow="visible"
             id="textext-add6dc45-5">
            <path
               style="stroke:none;"
               d="M 1.75 -4.578125 L 0.203125 -4.03125 L 0.203125 -3.890625 L 0.28125 -3.890625 C 0.40625 -3.921875 0.53125 -3.921875 0.625 -3.921875 C 0.859375 -3.921875 0.953125 -3.765625 0.953125 -3.328125 L 0.953125 -1.015625 C 0.953125 -0.296875 0.84375 -0.1875 0.15625 -0.15625 L 0.15625 0 L 2.515625 0 L 2.515625 -0.15625 C 1.859375 -0.203125 1.78125 -0.296875 1.78125 -1.015625 L 1.78125 -4.5625 Z M 1.28125 -6.8125 C 1 -6.8125 0.78125 -6.578125 0.78125 -6.296875 C 0.78125 -6.015625 1 -5.796875 1.28125 -5.796875 C 1.5625 -5.796875 1.796875 -6.015625 1.796875 -6.296875 C 1.796875 -6.578125 1.5625 -6.8125 1.28125 -6.8125 Z M 1.28125 -6.8125 "
               id="path3012" />
          </symbol>
          <symbol
             overflow="visible"
             id="textext-add6dc45-6">
            <path
               style="stroke:none;"
               d="M 3.140625 -3.125 L 3.09375 -4.484375 L 2.984375 -4.484375 L 2.96875 -4.46875 C 2.875 -4.390625 2.875 -4.390625 2.828125 -4.390625 C 2.765625 -4.390625 2.671875 -4.40625 2.5625 -4.453125 C 2.34375 -4.53125 2.125 -4.578125 1.859375 -4.578125 C 1.078125 -4.578125 0.515625 -4.0625 0.515625 -3.34375 C 0.515625 -2.796875 0.828125 -2.390625 1.671875 -1.90625 L 2.25 -1.578125 C 2.609375 -1.390625 2.765625 -1.140625 2.765625 -0.84375 C 2.765625 -0.40625 2.453125 -0.125 1.9375 -0.125 C 1.609375 -0.125 1.296875 -0.25 1.109375 -0.46875 C 0.890625 -0.71875 0.8125 -0.953125 0.671875 -1.515625 L 0.515625 -1.515625 L 0.515625 0.046875 L 0.640625 0.046875 C 0.71875 -0.0625 0.75 -0.078125 0.875 -0.078125 C 0.96875 -0.078125 1.109375 -0.0625 1.328125 0 C 1.609375 0.0625 1.890625 0.09375 2.0625 0.09375 C 2.828125 0.09375 3.46875 -0.484375 3.46875 -1.171875 C 3.46875 -1.671875 3.234375 -2 2.625 -2.359375 L 1.5625 -3 C 1.28125 -3.15625 1.125 -3.40625 1.125 -3.671875 C 1.125 -4.078125 1.4375 -4.359375 1.890625 -4.359375 C 2.46875 -4.359375 2.765625 -4.015625 2.984375 -3.125 Z M 3.140625 -3.125 "
               id="path3015" />
          </symbol>
          <symbol
             overflow="visible"
             id="textext-add6dc45-7">
            <path
               style="stroke:none;"
               d="M 3.96875 -1.5625 C 3.484375 -0.859375 3.125 -0.625 2.5625 -0.625 C 1.65625 -0.625 1.015625 -1.421875 1.015625 -2.5625 C 1.015625 -3.59375 1.5625 -4.296875 2.375 -4.296875 C 2.734375 -4.296875 2.859375 -4.1875 2.953125 -3.8125 L 3.015625 -3.59375 C 3.09375 -3.3125 3.28125 -3.140625 3.484375 -3.140625 C 3.75 -3.140625 3.96875 -3.328125 3.96875 -3.5625 C 3.96875 -4.109375 3.265625 -4.578125 2.4375 -4.578125 C 1.9375 -4.578125 1.4375 -4.390625 1.03125 -4.03125 C 0.53125 -3.59375 0.25 -2.90625 0.25 -2.125 C 0.25 -0.828125 1.03125 0.09375 2.140625 0.09375 C 2.59375 0.09375 2.984375 -0.0625 3.34375 -0.375 C 3.625 -0.609375 3.8125 -0.875 4.109375 -1.46875 Z M 3.96875 -1.5625 "
               id="path3018" />
          </symbol>
          <symbol
             overflow="visible"
             id="textext-add6dc45-8">
            <path
               style="stroke:none;"
               d="M 4.40625 -0.65625 C 4.234375 -0.515625 4.109375 -0.46875 3.96875 -0.46875 C 3.734375 -0.46875 3.671875 -0.609375 3.671875 -1.046875 L 3.671875 -2.984375 C 3.671875 -3.515625 3.625 -3.796875 3.46875 -4.03125 C 3.25 -4.390625 2.828125 -4.578125 2.234375 -4.578125 C 1.296875 -4.578125 0.5625 -4.09375 0.5625 -3.46875 C 0.5625 -3.234375 0.75 -3.046875 0.984375 -3.046875 C 1.21875 -3.046875 1.4375 -3.234375 1.4375 -3.453125 C 1.4375 -3.5 1.421875 -3.546875 1.421875 -3.625 C 1.390625 -3.703125 1.390625 -3.78125 1.390625 -3.859375 C 1.390625 -4.125 1.703125 -4.34375 2.109375 -4.34375 C 2.59375 -4.34375 2.859375 -4.0625 2.859375 -3.515625 L 2.859375 -2.90625 C 1.328125 -2.296875 1.15625 -2.21875 0.734375 -1.828125 C 0.515625 -1.640625 0.375 -1.296875 0.375 -0.96875 C 0.375 -0.34375 0.8125 0.09375 1.421875 0.09375 C 1.859375 0.09375 2.265625 -0.109375 2.875 -0.625 C 2.921875 -0.109375 3.09375 0.09375 3.515625 0.09375 C 3.84375 0.09375 4.0625 -0.015625 4.40625 -0.40625 Z M 2.859375 -1.21875 C 2.859375 -0.921875 2.8125 -0.828125 2.609375 -0.703125 C 2.359375 -0.5625 2.078125 -0.484375 1.875 -0.484375 C 1.53125 -0.484375 1.25 -0.8125 1.25 -1.25 L 1.25 -1.28125 C 1.25 -1.875 1.65625 -2.234375 2.859375 -2.671875 Z M 2.859375 -1.21875 "
               id="path3021" />
          </symbol>
          <symbol
             overflow="visible"
             id="textext-add6dc45-9">
            <path
               style="stroke:none;"
               d="M 4.0625 -1.640625 C 3.59375 -0.875 3.15625 -0.59375 2.515625 -0.59375 C 1.953125 -0.59375 1.53125 -0.875 1.234375 -1.453125 C 1.0625 -1.828125 0.984375 -2.15625 0.96875 -2.765625 L 4.03125 -2.765625 C 3.953125 -3.40625 3.859375 -3.703125 3.609375 -4.015625 C 3.3125 -4.375 2.84375 -4.578125 2.328125 -4.578125 C 1.828125 -4.578125 1.359375 -4.40625 0.984375 -4.0625 C 0.515625 -3.65625 0.25 -2.953125 0.25 -2.140625 C 0.25 -0.75 0.96875 0.09375 2.109375 0.09375 C 3.0625 0.09375 3.8125 -0.484375 4.234375 -1.5625 Z M 0.984375 -3.078125 C 1.09375 -3.859375 1.4375 -4.234375 2.046875 -4.234375 C 2.65625 -4.234375 2.890625 -3.953125 3.015625 -3.078125 Z M 0.984375 -3.078125 "
               id="path3024" />
          </symbol>
          <symbol
             overflow="visible"
             id="textext-add6dc45-10">
            <path
               style="stroke:none;"
               d="M 5.6875 -4.484375 L 5.6875 -4.34375 C 6.03125 -4.265625 6.125 -4.203125 6.125 -4.03125 C 6.125 -3.875 6.078125 -3.640625 5.96875 -3.375 L 5.0625 -1.15625 L 4.234375 -3.390625 C 4.0625 -3.84375 4.0625 -3.84375 4.0625 -3.984375 C 4.0625 -4.203125 4.171875 -4.265625 4.640625 -4.34375 L 4.640625 -4.484375 L 2.609375 -4.484375 L 2.609375 -4.34375 C 2.984375 -4.296875 3.09375 -4.1875 3.296875 -3.65625 C 3.375 -3.453125 3.4375 -3.265625 3.5 -3.09375 L 2.59375 -1.109375 L 1.609375 -3.703125 C 1.5625 -3.8125 1.546875 -3.90625 1.546875 -4 C 1.546875 -4.21875 1.671875 -4.296875 2 -4.34375 L 2 -4.484375 L 0.203125 -4.484375 L 0.203125 -4.34375 C 0.4375 -4.3125 0.515625 -4.21875 0.734375 -3.703125 L 2.078125 -0.296875 C 2.203125 0 2.28125 0.140625 2.34375 0.140625 C 2.390625 0.140625 2.46875 0.015625 2.59375 -0.25 L 3.703125 -2.640625 L 4.609375 -0.296875 C 4.75 0.078125 4.796875 0.140625 4.859375 0.140625 C 4.921875 0.140625 4.96875 0.046875 5.140625 -0.34375 L 6.515625 -3.796875 C 6.6875 -4.21875 6.71875 -4.265625 6.921875 -4.34375 L 6.921875 -4.484375 Z M 5.6875 -4.484375 "
               id="path3027" />
          </symbol>
          <symbol
             overflow="visible"
             id="textext-add6dc45-11">
            <path
               style="stroke:none;"
               d="M 0.0625 -3.890625 C 0.203125 -3.921875 0.296875 -3.921875 0.421875 -3.921875 C 0.671875 -3.921875 0.75 -3.765625 0.75 -3.328125 L 0.75 -0.84375 C 0.75 -0.34375 0.6875 -0.265625 0.046875 -0.15625 L 0.046875 0 L 2.4375 0 L 2.4375 -0.15625 C 1.765625 -0.171875 1.59375 -0.328125 1.59375 -0.890625 L 1.59375 -3.140625 C 1.59375 -3.453125 2.03125 -3.953125 2.296875 -3.953125 C 2.359375 -3.953125 2.4375 -3.90625 2.546875 -3.8125 C 2.71875 -3.671875 2.828125 -3.609375 2.953125 -3.609375 C 3.1875 -3.609375 3.34375 -3.78125 3.34375 -4.0625 C 3.34375 -4.390625 3.125 -4.578125 2.796875 -4.578125 C 2.375 -4.578125 2.078125 -4.359375 1.59375 -3.65625 L 1.59375 -4.5625 L 1.546875 -4.578125 C 1.015625 -4.359375 0.65625 -4.234375 0.0625 -4.046875 Z M 0.0625 -3.890625 "
               id="path3030" />
          </symbol>
          <symbol
             overflow="visible"
             id="textext-add6dc45-12">
            <path
               style="stroke:none;"
               d="M 2.9375 -6.734375 C 2.203125 -6.265625 1.90625 -6 1.53125 -5.546875 C 0.828125 -4.671875 0.484375 -3.671875 0.484375 -2.515625 C 0.484375 -1.25 0.84375 -0.265625 1.71875 0.75 C 2.140625 1.21875 2.390625 1.453125 2.90625 1.765625 L 3.03125 1.609375 C 2.234375 0.984375 1.953125 0.625 1.6875 -0.125 C 1.453125 -0.78125 1.328125 -1.546875 1.328125 -2.546875 C 1.328125 -3.59375 1.46875 -4.40625 1.734375 -5.03125 C 2.015625 -5.640625 2.3125 -6 3.03125 -6.578125 Z M 2.9375 -6.734375 "
               id="path3033" />
          </symbol>
          <symbol
             overflow="visible"
             id="textext-add6dc45-13">
            <path
               style="stroke:none;"
               d="M 0.375 1.765625 C 1.109375 1.28125 1.421875 1.03125 1.78125 0.5625 C 2.5 -0.296875 2.84375 -1.296875 2.84375 -2.46875 C 2.84375 -3.734375 2.46875 -4.703125 1.59375 -5.71875 C 1.1875 -6.203125 0.921875 -6.421875 0.40625 -6.734375 L 0.296875 -6.578125 C 1.09375 -5.953125 1.359375 -5.609375 1.640625 -4.859375 C 1.875 -4.1875 1.984375 -3.421875 1.984375 -2.4375 C 1.984375 -1.390625 1.859375 -0.5625 1.578125 0.046875 C 1.3125 0.671875 1 1.03125 0.296875 1.609375 Z M 0.375 1.765625 "
               id="path3036" />
          </symbol>
          <symbol
             overflow="visible"
             id="textext-add6dc45-14">
            <path
               style="stroke:none;"
               d="M 1.25 -1 C 0.953125 -1 0.703125 -0.734375 0.703125 -0.421875 C 0.703125 -0.140625 0.953125 0.109375 1.234375 0.109375 C 1.546875 0.109375 1.796875 -0.140625 1.796875 -0.421875 C 1.796875 -0.734375 1.546875 -1 1.25 -1 Z M 1.25 -1 "
               id="path3039" />
          </symbol>
          <symbol
             overflow="visible"
             id="textext-add6dc45-15">
            <path
               style="stroke:none;"
               d=""
               id="path3042" />
          </symbol>
          <symbol
             overflow="visible"
             id="textext-add6dc45-16">
            <path
               style="stroke:none;"
               d="M 6.53125 -6.515625 L 4.453125 -6.515625 L 4.453125 -6.34375 C 4.9375 -6.296875 5.0625 -6.21875 5.0625 -5.984375 C 5.0625 -5.859375 5 -5.734375 4.859375 -5.578125 L 3.421875 -3.921875 L 2.828125 -5.390625 C 2.71875 -5.640625 2.6875 -5.8125 2.6875 -5.9375 C 2.6875 -6.1875 2.84375 -6.28125 3.390625 -6.34375 L 3.390625 -6.515625 L 0.75 -6.515625 L 0.75 -6.34375 C 1.328125 -6.296875 1.484375 -6.203125 1.671875 -5.734375 L 2.734375 -3.125 C 2.359375 -2.703125 2.03125 -2.3125 1.90625 -2.15625 C 0.515625 -0.515625 0.234375 -0.265625 -0.296875 -0.15625 L -0.296875 0 L 1.84375 0 L 1.84375 -0.15625 C 1.359375 -0.15625 1.203125 -0.25 1.203125 -0.5 C 1.203125 -0.640625 1.28125 -0.8125 1.40625 -0.96875 L 2.90625 -2.6875 L 3.578125 -1.03125 C 3.65625 -0.859375 3.6875 -0.703125 3.6875 -0.546875 C 3.6875 -0.265625 3.59375 -0.203125 2.9375 -0.15625 L 2.9375 0 L 5.65625 0 L 5.65625 -0.15625 C 4.953125 -0.234375 4.859375 -0.296875 4.609375 -0.890625 L 3.59375 -3.46875 L 5.28125 -5.40625 C 5.796875 -5.984375 6.09375 -6.203125 6.53125 -6.34375 Z M 6.53125 -6.515625 "
               id="path3045" />
          </symbol>
          <symbol
             overflow="visible"
             id="textext-add6dc45-17">
            <path
               style="stroke:none;"
               d="M 4.625 -1.09375 C 4.46875 -0.953125 4.421875 -0.890625 4.34375 -0.8125 C 4.046875 -0.515625 3.921875 -0.40625 3.828125 -0.40625 C 3.75 -0.40625 3.6875 -0.46875 3.6875 -0.53125 C 3.6875 -0.734375 4.109375 -2.4375 4.578125 -4.15625 C 4.609375 -4.25 4.609375 -4.28125 4.640625 -4.359375 L 4.5625 -4.390625 L 3.953125 -4.328125 L 3.921875 -4.296875 L 3.8125 -3.8125 C 3.734375 -4.1875 3.453125 -4.390625 3.015625 -4.390625 C 1.703125 -4.390625 0.171875 -2.578125 0.171875 -1 C 0.171875 -0.296875 0.546875 0.109375 1.1875 0.109375 C 1.890625 0.109375 2.3125 -0.21875 3.1875 -1.453125 C 2.984375 -0.671875 2.953125 -0.546875 2.953125 -0.3125 C 2.953125 -0.015625 3.078125 0.09375 3.359375 0.09375 C 3.765625 0.09375 4 -0.09375 4.75 -1 Z M 3.078125 -4.171875 C 3.421875 -4.15625 3.640625 -3.921875 3.640625 -3.5625 C 3.640625 -2.734375 3.140625 -1.5625 2.453125 -0.8125 C 2.21875 -0.546875 1.875 -0.375 1.578125 -0.375 C 1.234375 -0.375 1 -0.671875 1 -1.125 C 1 -1.671875 1.390625 -2.6875 1.8125 -3.3125 C 2.21875 -3.890625 2.6875 -4.203125 3.078125 -4.171875 Z M 3.078125 -4.171875 "
               id="path3048" />
          </symbol>
          <symbol
             overflow="visible"
             id="textext-add6dc45-18">
            <path
               style="stroke:none;"
               d="M 1.09375 -6.40625 C 1.6875 -6.390625 1.75 -6.359375 1.75 -6.140625 C 1.75 -6.046875 1.71875 -5.9375 1.65625 -5.71875 C 1.640625 -5.640625 1.609375 -5.578125 1.609375 -5.515625 L 1.578125 -5.453125 L 0.234375 -0.453125 L 0.234375 -0.421875 C 0.234375 -0.1875 1 0.109375 1.5625 0.109375 C 3.0625 0.109375 4.71875 -1.640625 4.71875 -3.203125 C 4.71875 -3.890625 4.234375 -4.390625 3.5625 -4.390625 C 2.859375 -4.390625 2.34375 -3.984375 1.640625 -2.890625 C 2.15625 -4.78125 2.21875 -5.046875 2.671875 -6.765625 L 2.625 -6.8125 C 2.125 -6.71875 1.765625 -6.65625 1.09375 -6.578125 Z M 3.171875 -3.90625 C 3.59375 -3.90625 3.875 -3.578125 3.875 -3.046875 C 3.875 -2.390625 3.359375 -1.328125 2.765625 -0.703125 C 2.40625 -0.328125 1.96875 -0.125 1.546875 -0.125 C 1.234375 -0.125 1.09375 -0.234375 1.09375 -0.453125 C 1.09375 -1.0625 1.390625 -2.03125 1.796875 -2.765625 C 2.25 -3.53125 2.6875 -3.90625 3.171875 -3.90625 Z M 3.171875 -3.90625 "
               id="path3051" />
          </symbol>
          <symbol
             overflow="visible"
             id="textext-add6dc45-19">
            <path
               style="stroke:none;"
               d=""
               id="path3054" />
          </symbol>
          <symbol
             overflow="visible"
             id="textext-add6dc45-20">
            <path
               style="stroke:none;"
               d="M 5.796875 -3.265625 L 5.59375 -3.34375 C 5.4375 -2.765625 5.109375 -2.265625 4.453125 -2.265625 C 3.671875 -2.265625 3.015625 -3.359375 2.125 -3.359375 C 1.25 -3.359375 0.78125 -2.84375 0.5625 -2.046875 L 0.75 -1.96875 C 0.984375 -2.46875 1.34375 -2.84375 1.9375 -2.84375 C 2.71875 -2.84375 3.296875 -1.765625 4.25 -1.765625 C 5.21875 -1.765625 5.65625 -2.375 5.796875 -3.265625 Z M 5.796875 -3.265625 "
               id="path3057" />
          </symbol>
          <symbol
             overflow="visible"
             id="textext-add6dc45-21">
            <path
               style="stroke:none;"
               d=""
               id="path3060" />
          </symbol>
          <symbol
             overflow="visible"
             id="textext-add6dc45-22">
            <path
               style="stroke:none;"
               d="M 7.6875 5.46875 L 7.6875 0 L 7.1875 0 L 7.1875 5.53125 C 7.1875 6.984375 5.90625 8.40625 4.25 8.40625 C 2.6875 8.40625 1.3125 7.15625 1.3125 5.515625 L 1.3125 0 L 0.8125 0 L 0.8125 5.484375 C 0.8125 7.40625 2.40625 8.890625 4.25 8.890625 C 6.09375 8.890625 7.6875 7.40625 7.6875 5.46875 Z M 7.6875 5.46875 "
               id="path3063" />
          </symbol>
          <symbol
             overflow="visible"
             id="textext-add6dc45-23">
            <path
               style="stroke:none;"
               d=""
               id="path3066" />
          </symbol>
          <symbol
             overflow="visible"
             id="textext-add6dc45-24">
            <path
               style="stroke:none;"
               d="M 1.9375 -0.0625 C 1.9375 -0.890625 1.359375 -1.015625 1.140625 -1.015625 C 0.890625 -1.015625 0.5625 -0.875 0.5625 -0.4375 C 0.5625 -0.046875 0.921875 0.0625 1.171875 0.0625 C 1.25 0.0625 1.296875 0.046875 1.328125 0.046875 C 1.359375 0.03125 1.390625 0.015625 1.421875 0.015625 C 1.484375 0.015625 1.5625 0.0625 1.5625 0.15625 C 1.5625 0.34375 1.390625 0.796875 0.734375 1.21875 L 0.828125 1.40625 C 1.125 1.3125 1.9375 0.640625 1.9375 -0.0625 Z M 1.9375 -0.0625 "
               id="path3069" />
          </symbol>
        </g>
      </defs>
      <g
         id="textext-add6dc45-25">
        <g
           style="fill:rgb(0%,0%,0%);fill-opacity:1;"
           id="g3072">
          <use
             xlink:href="#textext-add6dc45-1"
             x="223.432"
             y="134.765"
             id="use3074" />
          <use
             xlink:href="#textext-add6dc45-2"
             x="226.749546"
             y="134.765"
             id="use3076" />
        </g>
        <g
           style="fill:rgb(0%,0%,0%);fill-opacity:1;"
           id="g3078">
          <use
             xlink:href="#textext-add6dc45-3"
             x="234.221496"
             y="134.765"
             id="use3080" />
          <use
             xlink:href="#textext-add6dc45-4"
             x="236.991099"
             y="134.765"
             id="use3082" />
          <use
             xlink:href="#textext-add6dc45-5"
             x="241.972399"
             y="134.765"
             id="use3084" />
          <use
             xlink:href="#textext-add6dc45-6"
             x="244.742001"
             y="134.765"
             id="use3086" />
        </g>
        <g
           style="fill:rgb(0%,0%,0%);fill-opacity:1;"
           id="g3088">
          <use
             xlink:href="#textext-add6dc45-7"
             x="251.108103"
             y="134.765"
             id="use3090" />
          <use
             xlink:href="#textext-add6dc45-8"
             x="255.531497"
             y="134.765"
             id="use3092" />
          <use
             xlink:href="#textext-add6dc45-6"
             x="259.954892"
             y="134.765"
             id="use3094" />
          <use
             xlink:href="#textext-add6dc45-9"
             x="263.830343"
             y="134.765"
             id="use3096" />
        </g>
        <g
           style="fill:rgb(0%,0%,0%);fill-opacity:1;"
           id="g3098">
          <use
             xlink:href="#textext-add6dc45-10"
             x="270.744387"
             y="134.765"
             id="use3100" />
          <use
             xlink:href="#textext-add6dc45-9"
             x="277.937385"
             y="134.765"
             id="use3102" />
        </g>
        <g
           style="fill:rgb(0%,0%,0%);fill-opacity:1;"
           id="g3104">
          <use
             xlink:href="#textext-add6dc45-10"
             x="284.851429"
             y="134.765"
             id="use3106" />
          <use
             xlink:href="#textext-add6dc45-11"
             x="292.044426"
             y="134.765"
             id="use3108" />
          <use
             xlink:href="#textext-add6dc45-5"
             x="295.361972"
             y="134.765"
             id="use3110" />
          <use
             xlink:href="#textext-add6dc45-3"
             x="298.131575"
             y="134.765"
             id="use3112" />
          <use
             xlink:href="#textext-add6dc45-9"
             x="300.901178"
             y="134.765"
             id="use3114" />
        </g>
        <g
           style="fill:rgb(0%,0%,0%);fill-opacity:1;"
           id="g3116">
          <use
             xlink:href="#textext-add6dc45-16"
             x="308.065"
             y="134.765"
             id="use3118" />
        </g>
        <g
           style="fill:rgb(0%,0%,0%);fill-opacity:1;"
           id="g3120">
          <use
             xlink:href="#textext-add6dc45-20"
             x="317.358"
             y="134.765"
             id="use3122" />
        </g>
        <g
           style="fill:rgb(0%,0%,0%);fill-opacity:1;"
           id="g3124">
          <use
             xlink:href="#textext-add6dc45-22"
             x="326.461"
             y="127.918"
             id="use3126" />
        </g>
        <g
           style="fill:rgb(0%,0%,0%);fill-opacity:1;"
           id="g3128">
          <use
             xlink:href="#textext-add6dc45-12"
             x="334.959"
             y="134.765"
             id="use3130" />
        </g>
        <g
           style="fill:rgb(0%,0%,0%);fill-opacity:1;"
           id="g3132">
          <use
             xlink:href="#textext-add6dc45-17"
             x="338.277"
             y="134.765"
             id="use3134" />
        </g>
        <g
           style="fill:rgb(0%,0%,0%);fill-opacity:1;"
           id="g3136">
          <use
             xlink:href="#textext-add6dc45-24"
             x="343.258"
             y="134.765"
             id="use3138" />
        </g>
        <g
           style="fill:rgb(0%,0%,0%);fill-opacity:1;"
           id="g3140">
          <use
             xlink:href="#textext-add6dc45-18"
             x="347.409"
             y="134.765"
             id="use3142" />
        </g>
        <g
           style="fill:rgb(0%,0%,0%);fill-opacity:1;"
           id="g3144">
          <use
             xlink:href="#textext-add6dc45-13"
             x="352.391"
             y="134.765"
             id="use3146" />
          <use
             xlink:href="#textext-add6dc45-14"
             x="355.708546"
             y="134.765"
             id="use3148" />
        </g>
      </g>
    </g>
    <path
       inkscape:connector-curvature="0"
       id="path3246"
       d="m 396.42857,124.86218 8.57143,0 0,24.64286"
       style="fill:none;stroke:#000000;stroke-width:1px;stroke-linecap:butt;stroke-linejoin:miter;stroke-opacity:1;marker-end:url(#Arrow1Mend)" />
    <text
       sodipodi:linespacing="125%"
       id="text4460"
       y="101.29075"
       x="360.71429"
       style="font-size:12px;font-style:normal;font-variant:normal;font-weight:normal;font-stretch:normal;line-height:125%;letter-spacing:0px;word-spacing:0px;fill:#000000;fill-opacity:1;stroke:none;font-family:Nimbus Roman No9 L;-inkscape-font-specification:Nimbus Roman No9 L"
       xml:space="preserve"><tspan
         y="101.29075"
         x="360.71429"
         id="tspan4462"
         sodipodi:role="line">uniform</tspan><tspan
         id="tspan4464"
         y="116.29075"
         x="360.71429"
         sodipodi:role="line">distribution on</tspan></text>
    <g
       id="g4570"
       ns0:preamble="/home/sriranga/Desktop/general-books/CSY/article4/figure/package.tex"
       ns0:text="$[a,b]$"
       transform="matrix(1.2,0,0,1.2,165.35714,-45.357143)">
      <defs
         id="defs4572">
        <g
           id="g4574">
          <symbol
             id="textext-5483a944-0"
             overflow="visible"
             style="overflow:visible">
            <path
               id="path4577"
               d=""
               style="stroke:none"
               inkscape:connector-curvature="0" />
          </symbol>
          <symbol
             id="textext-5483a944-1"
             overflow="visible"
             style="overflow:visible">
            <path
               id="path4580"
               d="m 2.984375,1.3125 -0.859375,0 c -0.328125,0 -0.484375,-0.171875 -0.484375,-0.53125 l 0,-6.6875 c 0,-0.3125 0.125,-0.4375 0.4375,-0.4375 l 0.90625,0 0,-0.25 -2.109375,0 0,8.15625 2.109375,0 z m 0,0"
               style="stroke:none"
               inkscape:connector-curvature="0" />
          </symbol>
          <symbol
             id="textext-5483a944-2"
             overflow="visible"
             style="overflow:visible">
            <path
               id="path4583"
               d="m 0.34375,1.3125 0,0.25 2.09375,0 0,-8.15625 -2.09375,0 0,0.25 0.859375,0 c 0.328125,0 0.484375,0.15625 0.484375,0.515625 l 0,6.703125 c 0,0.296875 -0.140625,0.4375 -0.453125,0.4375 z m 0,0"
               style="stroke:none"
               inkscape:connector-curvature="0" />
          </symbol>
          <symbol
             id="textext-5483a944-3"
             overflow="visible"
             style="overflow:visible">
            <path
               id="path4586"
               d=""
               style="stroke:none"
               inkscape:connector-curvature="0" />
          </symbol>
          <symbol
             id="textext-5483a944-4"
             overflow="visible"
             style="overflow:visible">
            <path
               id="path4589"
               d="m 4.625,-1.09375 c -0.15625,0.140625 -0.203125,0.203125 -0.28125,0.28125 -0.296875,0.296875 -0.421875,0.40625 -0.515625,0.40625 -0.078125,0 -0.140625,-0.0625 -0.140625,-0.125 0,-0.203125 0.421875,-1.90625 0.890625,-3.625 0.03125,-0.09375 0.03125,-0.125 0.0625,-0.203125 L 4.5625,-4.390625 3.953125,-4.328125 3.921875,-4.296875 3.8125,-3.8125 c -0.078125,-0.375 -0.359375,-0.578125 -0.796875,-0.578125 -1.3125,0 -2.84375,1.8125 -2.84375,3.390625 0,0.703125 0.375,1.109375 1.015625,1.109375 0.703125,0 1.125,-0.328125 2,-1.5625 -0.203125,0.78125 -0.234375,0.90625 -0.234375,1.140625 0,0.296875 0.125,0.40625 0.40625,0.40625 C 3.765625,0.09375 4,-0.09375 4.75,-1 z M 3.078125,-4.171875 c 0.34375,0.015625 0.5625,0.25 0.5625,0.609375 0,0.828125 -0.5,2 -1.1875,2.75 C 2.21875,-0.546875 1.875,-0.375 1.578125,-0.375 1.234375,-0.375 1,-0.671875 1,-1.125 1,-1.671875 1.390625,-2.6875 1.8125,-3.3125 2.21875,-3.890625 2.6875,-4.203125 3.078125,-4.171875 z m 0,0"
               style="stroke:none"
               inkscape:connector-curvature="0" />
          </symbol>
          <symbol
             id="textext-5483a944-5"
             overflow="visible"
             style="overflow:visible">
            <path
               id="path4592"
               d="M 1.09375,-6.40625 C 1.6875,-6.390625 1.75,-6.359375 1.75,-6.140625 c 0,0.09375 -0.03125,0.203125 -0.09375,0.421875 -0.015625,0.078125 -0.046875,0.140625 -0.046875,0.203125 l -0.03125,0.0625 -1.34375,5 0,0.03125 c 0,0.234375 0.765625,0.53125 1.328125,0.53125 1.5,0 3.15625,-1.75 3.15625,-3.3125 0,-0.6875 -0.484375,-1.1875 -1.15625,-1.1875 -0.703125,0 -1.21875,0.40625 -1.921875,1.5 0.515625,-1.890625 0.578125,-2.15625 1.03125,-3.875 L 2.625,-6.8125 c -0.5,0.09375 -0.859375,0.15625 -1.53125,0.234375 z m 2.078125,2.5 c 0.421875,0 0.703125,0.328125 0.703125,0.859375 0,0.65625 -0.515625,1.71875 -1.109375,2.34375 -0.359375,0.375 -0.796875,0.578125 -1.21875,0.578125 -0.3125,0 -0.453125,-0.109375 -0.453125,-0.328125 0,-0.609375 0.296875,-1.578125 0.703125,-2.3125 C 2.25,-3.53125 2.6875,-3.90625 3.171875,-3.90625 z m 0,0"
               style="stroke:none"
               inkscape:connector-curvature="0" />
          </symbol>
          <symbol
             id="textext-5483a944-6"
             overflow="visible"
             style="overflow:visible">
            <path
               id="path4595"
               d=""
               style="stroke:none"
               inkscape:connector-curvature="0" />
          </symbol>
          <symbol
             id="textext-5483a944-7"
             overflow="visible"
             style="overflow:visible">
            <path
               id="path4598"
               d="m 1.9375,-0.0625 c 0,-0.828125 -0.578125,-0.953125 -0.796875,-0.953125 -0.25,0 -0.578125,0.140625 -0.578125,0.578125 0,0.390625 0.359375,0.5 0.609375,0.5 0.078125,0 0.125,-0.015625 0.15625,-0.015625 0.03125,-0.015625 0.0625,-0.03125 0.09375,-0.03125 0.0625,0 0.140625,0.046875 0.140625,0.140625 0,0.1875 -0.171875,0.640625 -0.828125,1.0625 l 0.09375,0.1875 C 1.125,1.3125 1.9375,0.640625 1.9375,-0.0625 z m 0,0"
               style="stroke:none"
               inkscape:connector-curvature="0" />
          </symbol>
        </g>
      </defs>
      <g
         id="textext-5483a944-8">
        <g
           id="g4601"
           style="fill:#000000;fill-opacity:1">
          <use
             id="use4603"
             y="134.765"
             x="223.43201"
             xlink:href="#textext-5483a944-1"
             width="744.09448"
             height="1052.3622" />
        </g>
        <g
           id="g4605"
           style="fill:#000000;fill-opacity:1">
          <use
             id="use4607"
             y="134.765"
             x="226.75"
             xlink:href="#textext-5483a944-4"
             width="744.09448"
             height="1052.3622" />
        </g>
        <g
           id="g4609"
           style="fill:#000000;fill-opacity:1">
          <use
             id="use4611"
             y="134.765"
             x="231.731"
             xlink:href="#textext-5483a944-7"
             width="744.09448"
             height="1052.3622" />
        </g>
        <g
           id="g4613"
           style="fill:#000000;fill-opacity:1">
          <use
             id="use4615"
             y="134.765"
             x="235.882"
             xlink:href="#textext-5483a944-5"
             width="744.09448"
             height="1052.3622" />
        </g>
        <g
           id="g4617"
           style="fill:#000000;fill-opacity:1">
          <use
             id="use4619"
             y="134.765"
             x="240.86301"
             xlink:href="#textext-5483a944-2"
             width="744.09448"
             height="1052.3622" />
        </g>
      </g>
    </g>
  </g>
</svg>
