<?xml version="1.0" encoding="UTF-8" standalone="no"?>
<!-- Created with Inkscape (http://www.inkscape.org/) -->

<svg
   xmlns:ns0="http://www.iki.fi/pav/software/textext/"
   xmlns:dc="http://purl.org/dc/elements/1.1/"
   xmlns:cc="http://creativecommons.org/ns#"
   xmlns:rdf="http://www.w3.org/1999/02/22-rdf-syntax-ns#"
   xmlns:svg="http://www.w3.org/2000/svg"
   xmlns="http://www.w3.org/2000/svg"
   xmlns:xlink="http://www.w3.org/1999/xlink"
   xmlns:sodipodi="http://sodipodi.sourceforge.net/DTD/sodipodi-0.dtd"
   xmlns:inkscape="http://www.inkscape.org/namespaces/inkscape"
   width="354.33069"
   height="177.16534"
   id="svg2"
   version="1.1"
   inkscape:version="0.48.4 r9939"
   sodipodi:docname="New document 1">
  <sodipodi:namedview
     id="base"
     pagecolor="#ffffff"
     bordercolor="#666666"
     borderopacity="1.0"
     inkscape:pageopacity="0.0"
     inkscape:pageshadow="2"
     inkscape:zoom="3.1237497"
     inkscape:cx="164.44801"
     inkscape:cy="116.50085"
     inkscape:document-units="px"
     inkscape:current-layer="layer1"
     showgrid="false"
     units="cm"
     inkscape:window-width="1024"
     inkscape:window-height="744"
     inkscape:window-x="0"
     inkscape:window-y="24"
     inkscape:window-maximized="1" />
  <defs
     id="defs4" />
  <metadata
     id="metadata7">
    <rdf:RDF>
      <cc:Work
         rdf:about="">
        <dc:format>image/svg+xml</dc:format>
        <dc:type
           rdf:resource="http://purl.org/dc/dcmitype/StillImage" />
        <dc:title></dc:title>
      </cc:Work>
    </rdf:RDF>
  </metadata>
  <g
     transform="translate(0,-875.19552)"
     id="layer1"
     inkscape:groupmode="layer"
     inkscape:label="Layer 1">
    <g
       id="g2990"
       ns0:preamble="/home/sriranga/Desktop/general-books/CSY/article4/figure/package.tex"
       ns0:text="$A=$"
       transform="matrix(1.2,0,0,1.2,-162.98261,800.31977)">
      <defs
         id="defs2992">
        <g
           id="g2994">
          <symbol
             id="textext-8a2bcbdb-0"
             overflow="visible"
             style="overflow:visible">
            <path
               id="path2997"
               d=""
               style="stroke:none"
               inkscape:connector-curvature="0" />
          </symbol>
          <symbol
             id="textext-8a2bcbdb-1"
             overflow="visible"
             style="overflow:visible">
            <path
               id="path3000"
               d="M 5.625,-0.15625 C 5.046875,-0.203125 5,-0.296875 4.859375,-1.015625 l -0.9375,-5.640625 -0.25,0 -2.890625,4.984375 c -0.796875,1.328125 -0.890625,1.4375 -1.296875,1.515625 l 0,0.15625 1.875,0 0,-0.15625 c -0.515625,-0.046875 -0.59375,-0.109375 -0.59375,-0.359375 0,-0.1875 0.03125,-0.265625 0.203125,-0.609375 l 0.5625,-1.125 2.203125,0 0.1875,1.296875 c 0.015625,0.09375 0.03125,0.1875 0.03125,0.265625 0,0.375 -0.140625,0.46875 -0.78125,0.53125 L 3.171875,0 5.625,0 z m -3.875,-2.453125 1.484375,-2.59375 0.4375,2.59375 z m 0,0"
               style="stroke:none"
               inkscape:connector-curvature="0" />
          </symbol>
          <symbol
             id="textext-8a2bcbdb-2"
             overflow="visible"
             style="overflow:visible">
            <path
               id="path3003"
               d=""
               style="stroke:none"
               inkscape:connector-curvature="0" />
          </symbol>
          <symbol
             id="textext-8a2bcbdb-3"
             overflow="visible"
             style="overflow:visible">
            <path
               id="path3006"
               d="m 5.71875,-3.296875 0,-0.546875 -5.09375,0 0,0.546875 z m 0,2.03125 0,-0.5625 -5.09375,0 0,0.5625 z m 0,0"
               style="stroke:none"
               inkscape:connector-curvature="0" />
          </symbol>
        </g>
      </defs>
      <g
         id="textext-8a2bcbdb-4">
        <g
           id="g3009"
           style="fill:#000000;fill-opacity:1">
          <use
             id="use3011"
             y="134.765"
             x="223.681"
             xlink:href="#textext-8a2bcbdb-1"
             width="354.33069"
             height="177.16534" />
        </g>
        <g
           id="g3013"
           style="fill:#000000;fill-opacity:1">
          <use
             id="use3015"
             y="134.765"
             x="232.536"
             xlink:href="#textext-8a2bcbdb-3"
             width="354.33069"
             height="177.16534" />
        </g>
      </g>
    </g>
    <rect
       style="fill:none;fill-opacity:1;stroke:#000000;stroke-width:1;stroke-linecap:round;stroke-linejoin:miter;stroke-miterlimit:4;stroke-opacity:1;stroke-dasharray:none;stroke-dashoffset:0"
       id="rect3036"
       width="58.903568"
       height="46.738701"
       x="155.88957"
       y="935.5141" />
    <path
       style="fill:none;stroke:#000000;stroke-width:1px;stroke-linecap:butt;stroke-linejoin:miter;stroke-opacity:1"
       d="m 155.58225,958.88347 -25.29012,0"
       id="path3038"
       inkscape:connector-curvature="0" />
    <path
       inkscape:connector-curvature="0"
       id="path3040"
       d="m 239.58225,958.88347 -25.29012,0"
       style="fill:none;stroke:#000000;stroke-width:1px;stroke-linecap:butt;stroke-linejoin:miter;stroke-opacity:1" />
    <rect
       y="926.8161"
       x="174.457"
       height="17.65521"
       width="22.408966"
       id="rect3042"
       style="fill:#ffffff;fill-opacity:1;stroke:#000000;stroke-width:1;stroke-linecap:round;stroke-linejoin:miter;stroke-miterlimit:4;stroke-opacity:1;stroke-dasharray:none;stroke-dashoffset:0" />
    <rect
       style="fill:#ffffff;fill-opacity:1;stroke:#000000;stroke-width:1;stroke-linecap:round;stroke-linejoin:miter;stroke-miterlimit:4;stroke-opacity:1;stroke-dasharray:none;stroke-dashoffset:0"
       id="rect3044"
       width="22.408966"
       height="17.65521"
       x="174.457"
       y="973.13623" />
    <g
       ns0:text="$C_{1}$"
       ns0:preamble="/home/sriranga/Desktop/general-books/CSY/article4/figure/package.tex"
       transform="matrix(1.2,0,0,1.2,-89.353151,777.04246)"
       id="g3104">
      <defs
         id="defs3106">
        <g
           id="g3108">
          <symbol
             style="overflow:visible"
             overflow="visible"
             id="textext-855dd4ed-0">
            <path
               inkscape:connector-curvature="0"
               style="stroke:none"
               d=""
               id="path3111" />
          </symbol>
          <symbol
             style="overflow:visible"
             overflow="visible"
             id="textext-855dd4ed-1">
            <path
               inkscape:connector-curvature="0"
               style="stroke:none"
               d="M 6.5,-4.640625 6.875,-6.625 l -0.21875,0 c -0.078125,0.171875 -0.171875,0.21875 -0.375,0.21875 -0.078125,0 -0.203125,-0.015625 -0.40625,-0.0625 -0.453125,-0.109375 -0.84375,-0.171875 -1.171875,-0.171875 -2.125,0 -4.046875,2 -4.046875,4.21875 0,1.53125 1.078125,2.59375 2.609375,2.59375 1.015625,0 1.8125,-0.4375 2.71875,-1.484375 L 5.8125,-1.453125 c -0.890625,0.890625 -1.46875,1.1875 -2.296875,1.1875 -1.109375,0 -1.734375,-0.765625 -1.734375,-2.046875 0,-1.1875 0.46875,-2.390625 1.25,-3.203125 C 3.515625,-6 4.140625,-6.28125 4.796875,-6.28125 c 0.921875,0 1.421875,0.546875 1.515625,1.609375 z m 0,0"
               id="path3114" />
          </symbol>
          <symbol
             style="overflow:visible"
             overflow="visible"
             id="textext-855dd4ed-2">
            <path
               inkscape:connector-curvature="0"
               style="stroke:none"
               d=""
               id="path3117" />
          </symbol>
          <symbol
             style="overflow:visible"
             overflow="visible"
             id="textext-855dd4ed-3">
            <path
               inkscape:connector-curvature="0"
               style="stroke:none"
               d="m 2.03125,-4.703125 -1.25,0.625 0,0.09375 c 0.078125,-0.03125 0.15625,-0.0625 0.1875,-0.078125 0.125,-0.046875 0.234375,-0.0625 0.3125,-0.0625 0.140625,0 0.203125,0.09375 0.203125,0.3125 l 0,3.171875 c 0,0.21875 -0.0625,0.375 -0.171875,0.453125 -0.09375,0.0625 -0.203125,0.078125 -0.484375,0.078125 L 0.828125,0 2.75,0 l 0,-0.109375 c -0.5625,0 -0.671875,-0.078125 -0.671875,-0.40625 l 0,-4.1875 z m 0,0"
               id="path3120" />
          </symbol>
        </g>
      </defs>
      <g
         id="textext-855dd4ed-4">
        <g
           style="fill:#000000;fill-opacity:1"
           id="g3123">
          <use
             height="177.16534"
             width="354.33069"
             xlink:href="#textext-855dd4ed-1"
             x="223.183"
             y="134.765"
             id="use3125" />
        </g>
        <g
           style="fill:#000000;fill-opacity:1"
           id="g3127">
          <use
             height="177.16534"
             width="354.33069"
             xlink:href="#textext-855dd4ed-3"
             x="230.077"
             y="136.259"
             id="use3129" />
        </g>
      </g>
    </g>
    <g
       id="g3245"
       transform="matrix(1.2,0,0,1.2,-89.353151,823.36259)"
       ns0:preamble="/home/sriranga/Desktop/general-books/CSY/article4/figure/package.tex"
       ns0:text="$C_{2}$">
      <defs
         id="defs3247">
        <g
           id="g3249">
          <symbol
             id="textext-59d9f549-0"
             overflow="visible">
            <path
               id="path3252"
               d=""
               style="stroke:none;" />
          </symbol>
          <symbol
             id="textext-59d9f549-1"
             overflow="visible">
            <path
               id="path3255"
               d="M 6.5 -4.640625 L 6.875 -6.625 L 6.65625 -6.625 C 6.578125 -6.453125 6.484375 -6.40625 6.28125 -6.40625 C 6.203125 -6.40625 6.078125 -6.421875 5.875 -6.46875 C 5.421875 -6.578125 5.03125 -6.640625 4.703125 -6.640625 C 2.578125 -6.640625 0.65625 -4.640625 0.65625 -2.421875 C 0.65625 -0.890625 1.734375 0.171875 3.265625 0.171875 C 4.28125 0.171875 5.078125 -0.265625 5.984375 -1.3125 L 5.8125 -1.453125 C 4.921875 -0.5625 4.34375 -0.265625 3.515625 -0.265625 C 2.40625 -0.265625 1.78125 -1.03125 1.78125 -2.3125 C 1.78125 -3.5 2.25 -4.703125 3.03125 -5.515625 C 3.515625 -6 4.140625 -6.28125 4.796875 -6.28125 C 5.71875 -6.28125 6.21875 -5.734375 6.3125 -4.671875 Z M 6.5 -4.640625 "
               style="stroke:none;" />
          </symbol>
          <symbol
             id="textext-59d9f549-2"
             overflow="visible">
            <path
               id="path3258"
               d=""
               style="stroke:none;" />
          </symbol>
          <symbol
             id="textext-59d9f549-3"
             overflow="visible">
            <path
               id="path3261"
               d="M 3.3125 -0.953125 L 3.21875 -0.984375 C 2.96875 -0.59375 2.875 -0.53125 2.5625 -0.53125 L 0.890625 -0.53125 L 2.0625 -1.75 C 2.6875 -2.40625 2.953125 -2.9375 2.953125 -3.484375 C 2.953125 -4.171875 2.390625 -4.703125 1.671875 -4.703125 C 1.28125 -4.703125 0.921875 -4.5625 0.65625 -4.28125 C 0.4375 -4.046875 0.328125 -3.8125 0.21875 -3.328125 L 0.359375 -3.296875 C 0.640625 -3.96875 0.890625 -4.1875 1.375 -4.1875 C 1.953125 -4.1875 2.359375 -3.796875 2.359375 -3.21875 C 2.359375 -2.671875 2.03125 -2.015625 1.453125 -1.40625 L 0.203125 -0.078125 L 0.203125 0 L 2.921875 0 Z M 3.3125 -0.953125 "
               style="stroke:none;" />
          </symbol>
        </g>
      </defs>
      <g
         id="textext-59d9f549-4">
        <g
           id="g3264"
           style="fill:rgb(0%,0%,0%);fill-opacity:1;">
          <use
             id="use3266"
             y="134.765"
             x="223.183"
             xlink:href="#textext-59d9f549-1" />
        </g>
        <g
           id="g3268"
           style="fill:rgb(0%,0%,0%);fill-opacity:1;">
          <use
             id="use3270"
             y="136.259"
             x="230.077"
             xlink:href="#textext-59d9f549-3" />
        </g>
      </g>
    </g>
  </g>
</svg>
