<?xml version="1.0" encoding="UTF-8" standalone="no"?>
<!-- Created with Inkscape (http://www.inkscape.org/) -->

<svg
   xmlns:ns0="http://www.iki.fi/pav/software/textext/"
   xmlns:dc="http://purl.org/dc/elements/1.1/"
   xmlns:cc="http://creativecommons.org/ns#"
   xmlns:rdf="http://www.w3.org/1999/02/22-rdf-syntax-ns#"
   xmlns:svg="http://www.w3.org/2000/svg"
   xmlns="http://www.w3.org/2000/svg"
   xmlns:xlink="http://www.w3.org/1999/xlink"
   xmlns:sodipodi="http://sodipodi.sourceforge.net/DTD/sodipodi-0.dtd"
   xmlns:inkscape="http://www.inkscape.org/namespaces/inkscape"
   width="744.09448819"
   height="1052.3622047"
   id="svg2"
   version="1.1"
   inkscape:version="0.48.4 r9939"
   sodipodi:docname="fig15.svg">
  <sodipodi:namedview
     id="base"
     pagecolor="#ffffff"
     bordercolor="#666666"
     borderopacity="1.0"
     inkscape:pageopacity="0.0"
     inkscape:pageshadow="2"
     inkscape:zoom="2.8"
     inkscape:cx="437.81679"
     inkscape:cy="899.13269"
     inkscape:document-units="px"
     inkscape:current-layer="layer1"
     showgrid="false"
     inkscape:window-width="1024"
     inkscape:window-height="744"
     inkscape:window-x="0"
     inkscape:window-y="24"
     inkscape:window-maximized="1" />
  <defs
     id="defs4">
    <marker
       style="overflow:visible;"
       id="Arrow1Mend"
       refX="0.0"
       refY="0.0"
       orient="auto"
       inkscape:stockid="Arrow1Mend">
      <path
         transform="scale(0.4) rotate(180) translate(10,0)"
         style="fill-rule:evenodd;stroke:#000000;stroke-width:1.0pt;"
         d="M 0.0,0.0 L 5.0,-5.0 L -12.5,0.0 L 5.0,5.0 L 0.0,0.0 z "
         id="path4299" />
    </marker>
  </defs>
  <metadata
     id="metadata7">
    <rdf:RDF>
      <cc:Work
         rdf:about="">
        <dc:format>image/svg+xml</dc:format>
        <dc:type
           rdf:resource="http://purl.org/dc/dcmitype/StillImage" />
        <dc:title />
      </cc:Work>
    </rdf:RDF>
  </metadata>
  <g
     inkscape:label="Layer 1"
     inkscape:groupmode="layer"
     id="layer1">
    <g
       transform="matrix(1.2577318,0,0,1.257936,-18.514557,-11.72019)"
       ns0:text="\\begin{align*}\nV(X) &amp;= \\frac{1}{3}(a^{2}+ab+b^{2})-\\left(\\dfrac{a+b}{2}\\right)^{2}\\\\\n     &amp;= \\frac{a^{2}+ab+b^{2}}{3}-\\frac{a^{2}+2ab+b^{2}}{4}\\\\\n     &amp;= \\frac{a^{2}-2ab+b^{2}}{12}=\\frac{(b-a)^{2}}{12}\n\\end{align*}"
       ns0:preamble="/home/sriranga/Desktop/general-books/CSY/article4/figure/package.tex"
       id="g2990">
      <defs
         id="defs2992">
        <g
           id="g2994">
          <symbol
             overflow="visible"
             id="textext-5a3a0763-0"
             style="overflow:visible">
            <path
               style="stroke:none"
               d=""
               id="path2997"
               inkscape:connector-curvature="0" />
          </symbol>
          <symbol
             overflow="visible"
             id="textext-5a3a0763-1"
             style="overflow:visible">
            <path
               style="stroke:none"
               d="m 6.859375,-6.515625 -1.859375,0 0,0.171875 c 0.453125,0.046875 0.625,0.140625 0.625,0.328125 0,0.1875 -0.1875,0.625 -0.515625,1.1875 L 3.0625,-1.28125 2.40625,-5.6875 C 2.390625,-5.734375 2.390625,-5.78125 2.390625,-5.84375 c 0,-0.34375 0.140625,-0.4375 0.765625,-0.5 l 0,-0.171875 -2.40625,0 0,0.171875 C 1.3125,-6.28125 1.328125,-6.25 1.546875,-5 l 0.84375,5.171875 0.1875,0 3.71875,-6.125 C 6.46875,-6.21875 6.625,-6.34375 6.859375,-6.34375 z m 0,0"
               id="path3000"
               inkscape:connector-curvature="0" />
          </symbol>
          <symbol
             overflow="visible"
             id="textext-5a3a0763-2"
             style="overflow:visible">
            <path
               style="stroke:none"
               d="m 6.53125,-6.515625 -2.078125,0 0,0.171875 c 0.484375,0.046875 0.609375,0.125 0.609375,0.359375 0,0.125 -0.0625,0.25 -0.203125,0.40625 l -1.4375,1.65625 -0.59375,-1.46875 C 2.71875,-5.640625 2.6875,-5.8125 2.6875,-5.9375 c 0,-0.25 0.15625,-0.34375 0.703125,-0.40625 l 0,-0.171875 -2.640625,0 0,0.171875 c 0.578125,0.046875 0.734375,0.140625 0.921875,0.609375 l 1.0625,2.609375 c -0.375,0.421875 -0.703125,0.8125 -0.828125,0.96875 -1.390625,1.640625 -1.671875,1.890625 -2.203125,2 l 0,0.15625 2.140625,0 0,-0.15625 C 1.359375,-0.15625 1.203125,-0.25 1.203125,-0.5 c 0,-0.140625 0.078125,-0.3125 0.203125,-0.46875 l 1.5,-1.71875 0.671875,1.65625 c 0.078125,0.171875 0.109375,0.328125 0.109375,0.484375 0,0.28125 -0.09375,0.34375 -0.75,0.390625 l 0,0.15625 2.71875,0 0,-0.15625 C 4.953125,-0.234375 4.859375,-0.296875 4.609375,-0.890625 L 3.59375,-3.46875 l 1.6875,-1.9375 c 0.515625,-0.578125 0.8125,-0.796875 1.25,-0.9375 z m 0,0"
               id="path3003"
               inkscape:connector-curvature="0" />
          </symbol>
          <symbol
             overflow="visible"
             id="textext-5a3a0763-3"
             style="overflow:visible">
            <path
               style="stroke:none"
               d="m 4.625,-1.09375 c -0.15625,0.140625 -0.203125,0.203125 -0.28125,0.28125 -0.296875,0.296875 -0.421875,0.40625 -0.515625,0.40625 -0.078125,0 -0.140625,-0.0625 -0.140625,-0.125 0,-0.203125 0.421875,-1.90625 0.890625,-3.625 0.03125,-0.09375 0.03125,-0.125 0.0625,-0.203125 L 4.5625,-4.390625 3.953125,-4.328125 3.921875,-4.296875 3.8125,-3.8125 c -0.078125,-0.375 -0.359375,-0.578125 -0.796875,-0.578125 -1.3125,0 -2.84375,1.8125 -2.84375,3.390625 0,0.703125 0.375,1.109375 1.015625,1.109375 0.703125,0 1.125,-0.328125 2,-1.5625 -0.203125,0.78125 -0.234375,0.90625 -0.234375,1.140625 0,0.296875 0.125,0.40625 0.40625,0.40625 C 3.765625,0.09375 4,-0.09375 4.75,-1 z M 3.078125,-4.171875 c 0.34375,0.015625 0.5625,0.25 0.5625,0.609375 0,0.828125 -0.5,2 -1.1875,2.75 C 2.21875,-0.546875 1.875,-0.375 1.578125,-0.375 1.234375,-0.375 1,-0.671875 1,-1.125 1,-1.671875 1.390625,-2.6875 1.8125,-3.3125 2.21875,-3.890625 2.6875,-4.203125 3.078125,-4.171875 z m 0,0"
               id="path3006"
               inkscape:connector-curvature="0" />
          </symbol>
          <symbol
             overflow="visible"
             id="textext-5a3a0763-4"
             style="overflow:visible">
            <path
               style="stroke:none"
               d="M 1.09375,-6.40625 C 1.6875,-6.390625 1.75,-6.359375 1.75,-6.140625 c 0,0.09375 -0.03125,0.203125 -0.09375,0.421875 -0.015625,0.078125 -0.046875,0.140625 -0.046875,0.203125 l -0.03125,0.0625 -1.34375,5 0,0.03125 c 0,0.234375 0.765625,0.53125 1.328125,0.53125 1.5,0 3.15625,-1.75 3.15625,-3.3125 0,-0.6875 -0.484375,-1.1875 -1.15625,-1.1875 -0.703125,0 -1.21875,0.40625 -1.921875,1.5 0.515625,-1.890625 0.578125,-2.15625 1.03125,-3.875 L 2.625,-6.8125 c -0.5,0.09375 -0.859375,0.15625 -1.53125,0.234375 z m 2.078125,2.5 c 0.421875,0 0.703125,0.328125 0.703125,0.859375 0,0.65625 -0.515625,1.71875 -1.109375,2.34375 -0.359375,0.375 -0.796875,0.578125 -1.21875,0.578125 -0.3125,0 -0.453125,-0.109375 -0.453125,-0.328125 0,-0.609375 0.296875,-1.578125 0.703125,-2.3125 C 2.25,-3.53125 2.6875,-3.90625 3.171875,-3.90625 z m 0,0"
               id="path3009"
               inkscape:connector-curvature="0" />
          </symbol>
          <symbol
             overflow="visible"
             id="textext-5a3a0763-5"
             style="overflow:visible">
            <path
               style="stroke:none"
               d=""
               id="path3012"
               inkscape:connector-curvature="0" />
          </symbol>
          <symbol
             overflow="visible"
             id="textext-5a3a0763-6"
             style="overflow:visible">
            <path
               style="stroke:none"
               d="M 2.9375,-6.734375 C 2.203125,-6.265625 1.90625,-6 1.53125,-5.546875 c -0.703125,0.875 -1.046875,1.875 -1.046875,3.03125 0,1.265625 0.359375,2.25 1.234375,3.265625 0.421875,0.46875 0.671875,0.703125 1.1875,1.015625 l 0.125,-0.15625 C 2.234375,0.984375 1.953125,0.625 1.6875,-0.125 1.453125,-0.78125 1.328125,-1.546875 1.328125,-2.546875 1.328125,-3.59375 1.46875,-4.40625 1.734375,-5.03125 2.015625,-5.640625 2.3125,-6 3.03125,-6.578125 z m 0,0"
               id="path3015"
               inkscape:connector-curvature="0" />
          </symbol>
          <symbol
             overflow="visible"
             id="textext-5a3a0763-7"
             style="overflow:visible">
            <path
               style="stroke:none"
               d="M 0.375,1.765625 C 1.109375,1.28125 1.421875,1.03125 1.78125,0.5625 2.5,-0.296875 2.84375,-1.296875 2.84375,-2.46875 c 0,-1.265625 -0.375,-2.234375 -1.25,-3.25 C 1.1875,-6.203125 0.921875,-6.421875 0.40625,-6.734375 l -0.109375,0.15625 c 0.796875,0.625 1.0625,0.96875 1.34375,1.71875 0.234375,0.671875 0.34375,1.4375 0.34375,2.421875 0,1.046875 -0.125,1.875 -0.40625,2.484375 C 1.3125,0.671875 1,1.03125 0.296875,1.609375 z m 0,0"
               id="path3018"
               inkscape:connector-curvature="0" />
          </symbol>
          <symbol
             overflow="visible"
             id="textext-5a3a0763-8"
             style="overflow:visible">
            <path
               style="stroke:none"
               d="m 2.90625,-6.734375 -1.796875,0.90625 0,0.140625 C 1.21875,-5.734375 1.328125,-5.78125 1.375,-5.796875 1.5625,-5.875 1.71875,-5.90625 1.828125,-5.90625 2.03125,-5.90625 2.125,-5.765625 2.125,-5.4375 l 0,4.515625 c 0,0.328125 -0.078125,0.546875 -0.234375,0.640625 -0.15625,0.09375 -0.296875,0.125 -0.71875,0.125 l 0,0.15625 2.75,0 0,-0.15625 c -0.78125,0 -0.9375,-0.109375 -0.9375,-0.578125 l 0,-5.984375 z m 0,0"
               id="path3021"
               inkscape:connector-curvature="0" />
          </symbol>
          <symbol
             overflow="visible"
             id="textext-5a3a0763-9"
             style="overflow:visible">
            <path
               style="stroke:none"
               d="m 1.53125,-3.296875 c 0.578125,0 0.8125,0.03125 1.046875,0.109375 0.625,0.234375 1.015625,0.796875 1.015625,1.484375 0,0.828125 -0.578125,1.484375 -1.3125,1.484375 -0.265625,0 -0.46875,-0.078125 -0.828125,-0.3125 -0.3125,-0.171875 -0.46875,-0.25 -0.640625,-0.25 -0.234375,0 -0.390625,0.140625 -0.390625,0.359375 0,0.34375 0.4375,0.5625 1.140625,0.5625 0.765625,0 1.546875,-0.265625 2.015625,-0.671875 C 4.046875,-0.9375 4.3125,-1.515625 4.3125,-2.1875 c 0,-0.5 -0.171875,-0.96875 -0.453125,-1.28125 C 3.65625,-3.6875 3.46875,-3.8125 3.03125,-4 c 0.6875,-0.46875 0.9375,-0.828125 0.9375,-1.375 0,-0.8125 -0.640625,-1.359375 -1.5625,-1.359375 -0.5,0 -0.9375,0.171875 -1.296875,0.484375 -0.296875,0.265625 -0.4375,0.53125 -0.65625,1.125 L 0.59375,-5.078125 C 1,-5.8125 1.453125,-6.140625 2.078125,-6.140625 c 0.65625,0 1.109375,0.4375 1.109375,1.0625 0,0.359375 -0.15625,0.71875 -0.40625,0.96875 -0.296875,0.296875 -0.578125,0.453125 -1.25,0.6875 z m 0,0"
               id="path3024"
               inkscape:connector-curvature="0" />
          </symbol>
          <symbol
             overflow="visible"
             id="textext-5a3a0763-10"
             style="overflow:visible">
            <path
               style="stroke:none"
               d="m 4.734375,-1.359375 -0.125,-0.0625 C 4.234375,-0.84375 4.109375,-0.75 3.65625,-0.75 l -2.375,0 1.671875,-1.765625 c 0.890625,-0.921875 1.28125,-1.6875 1.28125,-2.453125 0,-1 -0.8125,-1.765625 -1.859375,-1.765625 -0.546875,0 -1.0625,0.21875 -1.421875,0.609375 C 0.625,-5.78125 0.484375,-5.46875 0.3125,-4.75 l 0.203125,0.046875 C 0.921875,-5.6875 1.28125,-6 1.96875,-6 2.796875,-6 3.375,-5.4375 3.375,-4.59375 3.375,-3.8125 2.90625,-2.890625 2.078125,-2 l -1.78125,1.875 0,0.125 3.890625,0 z m 0,0"
               id="path3027"
               inkscape:connector-curvature="0" />
          </symbol>
          <symbol
             overflow="visible"
             id="textext-5a3a0763-11"
             style="overflow:visible">
            <path
               style="stroke:none"
               d="m 4.703125,-2.296875 -1.015625,0 0,-4.4375 -0.4375,0 -3.125,4.4375 0,0.625 2.796875,0 0,1.671875 0.765625,0 0,-1.671875 1.015625,0 z m -1.796875,0 -2.390625,0 2.390625,-3.421875 z m 0,0"
               id="path3030"
               inkscape:connector-curvature="0" />
          </symbol>
          <symbol
             overflow="visible"
             id="textext-5a3a0763-12"
             style="overflow:visible">
            <path
               style="stroke:none"
               d=""
               id="path3033"
               inkscape:connector-curvature="0" />
          </symbol>
          <symbol
             overflow="visible"
             id="textext-5a3a0763-13"
             style="overflow:visible">
            <path
               style="stroke:none"
               d="m 5.71875,-3.296875 0,-0.546875 -5.09375,0 0,0.546875 z m 0,2.03125 0,-0.5625 -5.09375,0 0,0.5625 z m 0,0"
               id="path3036"
               inkscape:connector-curvature="0" />
          </symbol>
          <symbol
             overflow="visible"
             id="textext-5a3a0763-14"
             style="overflow:visible">
            <path
               style="stroke:none"
               d="m 5.71875,-2.28125 0,-0.5625 -2.265625,0 0,-2.25 -0.5625,0 0,2.25 -2.265625,0 0,0.5625 2.265625,0 0,2.28125 0.5625,0 0,-2.28125 z m 0,0"
               id="path3039"
               inkscape:connector-curvature="0" />
          </symbol>
          <symbol
             overflow="visible"
             id="textext-5a3a0763-15"
             style="overflow:visible">
            <path
               style="stroke:none"
               d=""
               id="path3042"
               inkscape:connector-curvature="0" />
          </symbol>
          <symbol
             overflow="visible"
             id="textext-5a3a0763-16"
             style="overflow:visible">
            <path
               style="stroke:none"
               d="M 3.3125,-0.953125 3.21875,-0.984375 C 2.96875,-0.59375 2.875,-0.53125 2.5625,-0.53125 l -1.671875,0 L 2.0625,-1.75 c 0.625,-0.65625 0.890625,-1.1875 0.890625,-1.734375 0,-0.6875 -0.5625,-1.21875 -1.28125,-1.21875 -0.390625,0 -0.75,0.140625 -1.015625,0.421875 -0.21875,0.234375 -0.328125,0.46875 -0.4375,0.953125 l 0.140625,0.03125 C 0.640625,-3.96875 0.890625,-4.1875 1.375,-4.1875 c 0.578125,0 0.984375,0.390625 0.984375,0.96875 0,0.546875 -0.328125,1.203125 -0.90625,1.8125 l -1.25,1.328125 0,0.078125 2.71875,0 z m 0,0"
               id="path3045"
               inkscape:connector-curvature="0" />
          </symbol>
          <symbol
             overflow="visible"
             id="textext-5a3a0763-17"
             style="overflow:visible">
            <path
               style="stroke:none"
               d=""
               id="path3048"
               inkscape:connector-curvature="0" />
          </symbol>
          <symbol
             overflow="visible"
             id="textext-5a3a0763-18"
             style="overflow:visible">
            <path
               style="stroke:none"
               d="m 5.71875,-2.28125 0,-0.5625 -5.09375,0 0,0.5625 z m 0,0"
               id="path3051"
               inkscape:connector-curvature="0" />
          </symbol>
          <symbol
             overflow="visible"
             id="textext-5a3a0763-19"
             style="overflow:visible">
            <path
               style="stroke:none"
               d=""
               id="path3054"
               inkscape:connector-curvature="0" />
          </symbol>
          <symbol
             overflow="visible"
             id="textext-5a3a0763-20"
             style="overflow:visible">
            <path
               style="stroke:none"
               d="M 3.515625,23.09375 C 1.9375,20.25 1.5,16.125 1.5,11.53125 1.5,6.921875 1.9375,2.796875 3.515625,-0.046875 L 3.375,-0.5625 C 2.828125,0.421875 0.5,3.265625 0.5,11.53125 c 0,8.25 2.328125,11.09375 2.875,12.078125 z m 0,0"
               id="path3057"
               inkscape:connector-curvature="0" />
          </symbol>
          <symbol
             overflow="visible"
             id="textext-5a3a0763-21"
             style="overflow:visible">
            <path
               style="stroke:none"
               d="M 3.3125,11.53125 C 3.3125,3.265625 0.984375,0.421875 0.4375,-0.5625 l -0.140625,0.515625 c 1.578125,2.84375 2,6.96875 2,11.578125 0,4.59375 -0.421875,8.71875 -2,11.5625 L 0.4375,23.609375 C 0.984375,22.625 3.3125,19.78125 3.3125,11.53125 z m 0,0"
               id="path3060"
               inkscape:connector-curvature="0" />
          </symbol>
        </g>
      </defs>
      <g
         id="textext-5a3a0763-22">
        <g
           style="fill:#000000;fill-opacity:1"
           id="g3063">
          <use
             xlink:href="#textext-5a3a0763-1"
             x="319.53299"
             y="141.39101"
             id="use3065"
             width="744.09448"
             height="1052.3622" />
        </g>
        <g
           style="fill:#000000;fill-opacity:1"
           id="g3067">
          <use
             xlink:href="#textext-5a3a0763-6"
             x="326.388"
             y="141.39101"
             id="use3069"
             width="744.09448"
             height="1052.3622" />
        </g>
        <g
           style="fill:#000000;fill-opacity:1"
           id="g3071">
          <use
             xlink:href="#textext-5a3a0763-2"
             x="329.95401"
             y="141.39101"
             id="use3073"
             width="744.09448"
             height="1052.3622" />
        </g>
        <g
           style="fill:#000000;fill-opacity:1"
           id="g3075">
          <use
             xlink:href="#textext-5a3a0763-7"
             x="336.48001"
             y="141.39101"
             id="use3077"
             width="744.09448"
             height="1052.3622" />
        </g>
        <g
           style="fill:#000000;fill-opacity:1"
           id="g3079">
          <use
             xlink:href="#textext-5a3a0763-13"
             x="342.565"
             y="141.39101"
             id="use3081"
             width="744.09448"
             height="1052.3622" />
        </g>
        <g
           style="fill:#000000;fill-opacity:1"
           id="g3083">
          <use
             xlink:href="#textext-5a3a0763-8"
             x="352.86401"
             y="134.646"
             id="use3085"
             width="744.09448"
             height="1052.3622" />
        </g>
        <path
           style="fill:none;stroke:#000000;stroke-width:0.53234375;stroke-linecap:butt;stroke-linejoin:miter;stroke-miterlimit:10;stroke-opacity:1"
           d="m -7.1875e-4,0.001875 4.98046875,0"
           transform="matrix(1,0,0,-1,352.864,138.83)"
           id="path3087"
           inkscape:connector-curvature="0" />
        <g
           style="fill:#000000;fill-opacity:1"
           id="g3089">
          <use
             xlink:href="#textext-5a3a0763-9"
             x="352.86401"
             y="148.22501"
             id="use3091"
             width="744.09448"
             height="1052.3622" />
        </g>
        <g
           style="fill:#000000;fill-opacity:1"
           id="g3093">
          <use
             xlink:href="#textext-5a3a0763-6"
             x="359.04001"
             y="141.39101"
             id="use3095"
             width="744.09448"
             height="1052.3622" />
        </g>
        <g
           style="fill:#000000;fill-opacity:1"
           id="g3097">
          <use
             xlink:href="#textext-5a3a0763-3"
             x="362.358"
             y="141.39101"
             id="use3099"
             width="744.09448"
             height="1052.3622" />
        </g>
        <g
           style="fill:#000000;fill-opacity:1"
           id="g3101">
          <use
             xlink:href="#textext-5a3a0763-16"
             x="367.33899"
             y="137.276"
             id="use3103"
             width="744.09448"
             height="1052.3622" />
        </g>
        <g
           style="fill:#000000;fill-opacity:1"
           id="g3105">
          <use
             xlink:href="#textext-5a3a0763-14"
             x="373.53799"
             y="141.39101"
             id="use3107"
             width="744.09448"
             height="1052.3622" />
        </g>
        <g
           style="fill:#000000;fill-opacity:1"
           id="g3109">
          <use
             xlink:href="#textext-5a3a0763-3"
             x="382.08801"
             y="141.39101"
             id="use3111"
             width="744.09448"
             height="1052.3622" />
          <use
             xlink:href="#textext-5a3a0763-4"
             x="387.06931"
             y="141.39101"
             id="use3113"
             width="744.09448"
             height="1052.3622" />
        </g>
        <g
           style="fill:#000000;fill-opacity:1"
           id="g3115">
          <use
             xlink:href="#textext-5a3a0763-14"
             x="394.26501"
             y="141.39101"
             id="use3117"
             width="744.09448"
             height="1052.3622" />
        </g>
        <g
           style="fill:#000000;fill-opacity:1"
           id="g3119">
          <use
             xlink:href="#textext-5a3a0763-4"
             x="402.815"
             y="141.39101"
             id="use3121"
             width="744.09448"
             height="1052.3622" />
        </g>
        <g
           style="fill:#000000;fill-opacity:1"
           id="g3123">
          <use
             xlink:href="#textext-5a3a0763-16"
             x="407.79599"
             y="137.276"
             id="use3125"
             width="744.09448"
             height="1052.3622" />
        </g>
        <g
           style="fill:#000000;fill-opacity:1"
           id="g3127">
          <use
             xlink:href="#textext-5a3a0763-7"
             x="411.78101"
             y="141.39101"
             id="use3129"
             width="744.09448"
             height="1052.3622" />
        </g>
        <g
           style="fill:#000000;fill-opacity:1"
           id="g3131">
          <use
             xlink:href="#textext-5a3a0763-18"
             x="417.31299"
             y="141.39101"
             id="use3133"
             width="744.09448"
             height="1052.3622" />
        </g>
        <g
           style="fill:#000000;fill-opacity:1"
           id="g3135">
          <use
             xlink:href="#textext-5a3a0763-20"
             x="425.86301"
             y="127.333"
             id="use3137"
             width="744.09448"
             height="1052.3622" />
        </g>
        <g
           style="fill:#000000;fill-opacity:1"
           id="g3139">
          <use
             xlink:href="#textext-5a3a0763-3"
             x="430.86401"
             y="134.646"
             id="use3141"
             width="744.09448"
             height="1052.3622" />
        </g>
        <g
           style="fill:#000000;fill-opacity:1"
           id="g3143">
          <use
             xlink:href="#textext-5a3a0763-14"
             x="438.05899"
             y="134.646"
             id="use3145"
             width="744.09448"
             height="1052.3622" />
        </g>
        <g
           style="fill:#000000;fill-opacity:1"
           id="g3147">
          <use
             xlink:href="#textext-5a3a0763-4"
             x="446.60901"
             y="134.646"
             id="use3149"
             width="744.09448"
             height="1052.3622" />
        </g>
        <path
           style="fill:none;stroke:#000000;stroke-width:0.53234375;stroke-linecap:butt;stroke-linejoin:miter;stroke-miterlimit:10;stroke-opacity:1"
           d="m -7.1875e-4,0.001875 20.72656275,0"
           transform="matrix(1,0,0,-1,430.864,138.83)"
           id="path3151"
           inkscape:connector-curvature="0" />
        <g
           style="fill:#000000;fill-opacity:1"
           id="g3153">
          <use
             xlink:href="#textext-5a3a0763-10"
             x="438.737"
             y="148.22501"
             id="use3155"
             width="744.09448"
             height="1052.3622" />
        </g>
        <g
           style="fill:#000000;fill-opacity:1"
           id="g3157">
          <use
             xlink:href="#textext-5a3a0763-21"
             x="452.78601"
             y="127.333"
             id="use3159"
             width="744.09448"
             height="1052.3622" />
        </g>
        <g
           style="fill:#000000;fill-opacity:1"
           id="g3161">
          <use
             xlink:href="#textext-5a3a0763-16"
             x="456.59201"
             y="129.467"
             id="use3163"
             width="744.09448"
             height="1052.3622" />
        </g>
        <g
           style="fill:#000000;fill-opacity:1"
           id="g3165">
          <use
             xlink:href="#textext-5a3a0763-13"
             x="342.565"
             y="169.897"
             id="use3167"
             width="744.09448"
             height="1052.3622" />
        </g>
        <g
           style="fill:#000000;fill-opacity:1"
           id="g3169">
          <use
             xlink:href="#textext-5a3a0763-3"
             x="352.86401"
             y="163.15199"
             id="use3171"
             width="744.09448"
             height="1052.3622" />
        </g>
        <g
           style="fill:#000000;fill-opacity:1"
           id="g3173">
          <use
             xlink:href="#textext-5a3a0763-16"
             x="357.845"
             y="159.536"
             id="use3175"
             width="744.09448"
             height="1052.3622" />
        </g>
        <g
           style="fill:#000000;fill-opacity:1"
           id="g3177">
          <use
             xlink:href="#textext-5a3a0763-14"
             x="364.04401"
             y="163.15199"
             id="use3179"
             width="744.09448"
             height="1052.3622" />
        </g>
        <g
           style="fill:#000000;fill-opacity:1"
           id="g3181">
          <use
             xlink:href="#textext-5a3a0763-3"
             x="372.59399"
             y="163.15199"
             id="use3183"
             width="744.09448"
             height="1052.3622" />
          <use
             xlink:href="#textext-5a3a0763-4"
             x="377.57529"
             y="163.15199"
             id="use3185"
             width="744.09448"
             height="1052.3622" />
        </g>
        <g
           style="fill:#000000;fill-opacity:1"
           id="g3187">
          <use
             xlink:href="#textext-5a3a0763-14"
             x="384.771"
             y="163.15199"
             id="use3189"
             width="744.09448"
             height="1052.3622" />
        </g>
        <g
           style="fill:#000000;fill-opacity:1"
           id="g3191">
          <use
             xlink:href="#textext-5a3a0763-4"
             x="393.32101"
             y="163.15199"
             id="use3193"
             width="744.09448"
             height="1052.3622" />
        </g>
        <g
           style="fill:#000000;fill-opacity:1"
           id="g3195">
          <use
             xlink:href="#textext-5a3a0763-16"
             x="398.302"
             y="159.536"
             id="use3197"
             width="744.09448"
             height="1052.3622" />
        </g>
        <path
           style="fill:none;stroke:#000000;stroke-width:0.53234375;stroke-linecap:butt;stroke-linejoin:miter;stroke-miterlimit:10;stroke-opacity:1"
           d="m -7.1875e-4,6.25e-5 49.42187475,0"
           transform="matrix(1,0,0,-1,352.864,167.336)"
           id="path3199"
           inkscape:connector-curvature="0" />
        <g
           style="fill:#000000;fill-opacity:1"
           id="g3201">
          <use
             xlink:href="#textext-5a3a0763-9"
             x="375.08499"
             y="176.731"
             id="use3203"
             width="744.09448"
             height="1052.3622" />
        </g>
        <g
           style="fill:#000000;fill-opacity:1"
           id="g3205">
          <use
             xlink:href="#textext-5a3a0763-18"
             x="405.69601"
             y="169.897"
             id="use3207"
             width="744.09448"
             height="1052.3622" />
        </g>
        <g
           style="fill:#000000;fill-opacity:1"
           id="g3209">
          <use
             xlink:href="#textext-5a3a0763-3"
             x="415.44199"
             y="163.15199"
             id="use3211"
             width="744.09448"
             height="1052.3622" />
        </g>
        <g
           style="fill:#000000;fill-opacity:1"
           id="g3213">
          <use
             xlink:href="#textext-5a3a0763-16"
             x="420.423"
             y="159.536"
             id="use3215"
             width="744.09448"
             height="1052.3622" />
        </g>
        <g
           style="fill:#000000;fill-opacity:1"
           id="g3217">
          <use
             xlink:href="#textext-5a3a0763-14"
             x="426.62201"
             y="163.15199"
             id="use3219"
             width="744.09448"
             height="1052.3622" />
        </g>
        <g
           style="fill:#000000;fill-opacity:1"
           id="g3221">
          <use
             xlink:href="#textext-5a3a0763-10"
             x="435.172"
             y="163.15199"
             id="use3223"
             width="744.09448"
             height="1052.3622" />
        </g>
        <g
           style="fill:#000000;fill-opacity:1"
           id="g3225">
          <use
             xlink:href="#textext-5a3a0763-3"
             x="440.15399"
             y="163.15199"
             id="use3227"
             width="744.09448"
             height="1052.3622" />
          <use
             xlink:href="#textext-5a3a0763-4"
             x="445.13531"
             y="163.15199"
             id="use3229"
             width="744.09448"
             height="1052.3622" />
        </g>
        <g
           style="fill:#000000;fill-opacity:1"
           id="g3231">
          <use
             xlink:href="#textext-5a3a0763-14"
             x="452.32999"
             y="163.15199"
             id="use3233"
             width="744.09448"
             height="1052.3622" />
        </g>
        <g
           style="fill:#000000;fill-opacity:1"
           id="g3235">
          <use
             xlink:href="#textext-5a3a0763-4"
             x="460.88"
             y="163.15199"
             id="use3237"
             width="744.09448"
             height="1052.3622" />
        </g>
        <g
           style="fill:#000000;fill-opacity:1"
           id="g3239">
          <use
             xlink:href="#textext-5a3a0763-16"
             x="465.86099"
             y="159.536"
             id="use3241"
             width="744.09448"
             height="1052.3622" />
        </g>
        <path
           style="fill:none;stroke:#000000;stroke-width:0.53234375;stroke-linecap:butt;stroke-linejoin:miter;stroke-miterlimit:10;stroke-opacity:1"
           d="m -5.9375e-4,6.25e-5 54.40624975,0"
           transform="matrix(1,0,0,-1,415.442,167.336)"
           id="path3243"
           inkscape:connector-curvature="0" />
        <g
           style="fill:#000000;fill-opacity:1"
           id="g3245">
          <use
             xlink:href="#textext-5a3a0763-11"
             x="440.15399"
             y="176.731"
             id="use3247"
             width="744.09448"
             height="1052.3622" />
        </g>
        <g
           style="fill:#000000;fill-opacity:1"
           id="g3249">
          <use
             xlink:href="#textext-5a3a0763-13"
             x="342.565"
             y="195.877"
             id="use3251"
             width="744.09448"
             height="1052.3622" />
        </g>
        <g
           style="fill:#000000;fill-opacity:1"
           id="g3253">
          <use
             xlink:href="#textext-5a3a0763-3"
             x="352.86401"
             y="189.133"
             id="use3255"
             width="744.09448"
             height="1052.3622" />
        </g>
        <g
           style="fill:#000000;fill-opacity:1"
           id="g3257">
          <use
             xlink:href="#textext-5a3a0763-16"
             x="357.845"
             y="185.51601"
             id="use3259"
             width="744.09448"
             height="1052.3622" />
        </g>
        <g
           style="fill:#000000;fill-opacity:1"
           id="g3261">
          <use
             xlink:href="#textext-5a3a0763-18"
             x="364.04401"
             y="189.133"
             id="use3263"
             width="744.09448"
             height="1052.3622" />
        </g>
        <g
           style="fill:#000000;fill-opacity:1"
           id="g3265">
          <use
             xlink:href="#textext-5a3a0763-10"
             x="372.59399"
             y="189.133"
             id="use3267"
             width="744.09448"
             height="1052.3622" />
        </g>
        <g
           style="fill:#000000;fill-opacity:1"
           id="g3269">
          <use
             xlink:href="#textext-5a3a0763-3"
             x="377.57501"
             y="189.133"
             id="use3271"
             width="744.09448"
             height="1052.3622" />
          <use
             xlink:href="#textext-5a3a0763-4"
             x="382.5563"
             y="189.133"
             id="use3273"
             width="744.09448"
             height="1052.3622" />
        </g>
        <g
           style="fill:#000000;fill-opacity:1"
           id="g3275">
          <use
             xlink:href="#textext-5a3a0763-14"
             x="389.75201"
             y="189.133"
             id="use3277"
             width="744.09448"
             height="1052.3622" />
        </g>
        <g
           style="fill:#000000;fill-opacity:1"
           id="g3279">
          <use
             xlink:href="#textext-5a3a0763-4"
             x="398.302"
             y="189.133"
             id="use3281"
             width="744.09448"
             height="1052.3622" />
        </g>
        <g
           style="fill:#000000;fill-opacity:1"
           id="g3283">
          <use
             xlink:href="#textext-5a3a0763-16"
             x="403.28299"
             y="185.51601"
             id="use3285"
             width="744.09448"
             height="1052.3622" />
        </g>
        <path
           style="fill:none;stroke:#000000;stroke-width:0.53234375;stroke-linecap:butt;stroke-linejoin:miter;stroke-miterlimit:10;stroke-opacity:1"
           d="m -7.1875e-4,5.9375e-4 54.40624975,0"
           transform="matrix(1,0,0,-1,352.864,193.317)"
           id="path3287"
           inkscape:connector-curvature="0" />
        <g
           style="fill:#000000;fill-opacity:1"
           id="g3289">
          <use
             xlink:href="#textext-5a3a0763-8"
             x="375.08499"
             y="202.71201"
             id="use3291"
             width="744.09448"
             height="1052.3622" />
          <use
             xlink:href="#textext-5a3a0763-10"
             x="380.06631"
             y="202.71201"
             id="use3293"
             width="744.09448"
             height="1052.3622" />
        </g>
        <g
           style="fill:#000000;fill-opacity:1"
           id="g3295">
          <use
             xlink:href="#textext-5a3a0763-13"
             x="411.23099"
             y="195.877"
             id="use3297"
             width="744.09448"
             height="1052.3622" />
        </g>
        <g
           style="fill:#000000;fill-opacity:1"
           id="g3299">
          <use
             xlink:href="#textext-5a3a0763-6"
             x="421.53"
             y="189.133"
             id="use3301"
             width="744.09448"
             height="1052.3622" />
        </g>
        <g
           style="fill:#000000;fill-opacity:1"
           id="g3303">
          <use
             xlink:href="#textext-5a3a0763-4"
             x="424.84799"
             y="189.133"
             id="use3305"
             width="744.09448"
             height="1052.3622" />
        </g>
        <g
           style="fill:#000000;fill-opacity:1"
           id="g3307">
          <use
             xlink:href="#textext-5a3a0763-18"
             x="432.043"
             y="189.133"
             id="use3309"
             width="744.09448"
             height="1052.3622" />
        </g>
        <g
           style="fill:#000000;fill-opacity:1"
           id="g3311">
          <use
             xlink:href="#textext-5a3a0763-3"
             x="440.59299"
             y="189.133"
             id="use3313"
             width="744.09448"
             height="1052.3622" />
        </g>
        <g
           style="fill:#000000;fill-opacity:1"
           id="g3315">
          <use
             xlink:href="#textext-5a3a0763-7"
             x="445.57401"
             y="189.133"
             id="use3317"
             width="744.09448"
             height="1052.3622" />
        </g>
        <g
           style="fill:#000000;fill-opacity:1"
           id="g3319">
          <use
             xlink:href="#textext-5a3a0763-16"
             x="448.892"
             y="185.51601"
             id="use3321"
             width="744.09448"
             height="1052.3622" />
        </g>
        <path
           style="fill:none;stroke:#000000;stroke-width:0.53234375;stroke-linecap:butt;stroke-linejoin:miter;stroke-miterlimit:10;stroke-opacity:1"
           d="m 0.00125,5.9375e-4 31.347656,0"
           transform="matrix(1,0,0,-1,421.53,193.317)"
           id="path3323"
           inkscape:connector-curvature="0" />
        <g
           style="fill:#000000;fill-opacity:1"
           id="g3325">
          <use
             xlink:href="#textext-5a3a0763-8"
             x="432.22198"
             y="202.71201"
             id="use3327"
             width="744.09448"
             height="1052.3622" />
          <use
             xlink:href="#textext-5a3a0763-10"
             x="437.20331"
             y="202.71201"
             id="use3329"
             width="744.09448"
             height="1052.3622" />
        </g>
      </g>
    </g>
    <path
       inkscape:connector-curvature="0"
       id="path3516"
       d="m 569.09212,129.94822 -31.23314,0 0,16.94276"
       style="fill:none;stroke:#000000;stroke-width:1px;stroke-linecap:butt;stroke-linejoin:miter;stroke-opacity:1;marker-end:url(#Arrow1Mend)" />
    <g
       id="g4920"
       ns0:preamble="/home/sriranga/Desktop/general-books/CSY/article4/figure/package.tex"
       ns0:text="$\\mu^{2}$"
       transform="matrix(1.2577318,0,0,1.257936,291.53887,-35.294525)">
      <defs
         id="defs4922">
        <g
           id="g4924">
          <symbol
             id="textext-3831a06d-0"
             overflow="visible"
             style="overflow:visible">
            <path
               id="path4927"
               d=""
               style="stroke:none"
               inkscape:connector-curvature="0" />
          </symbol>
          <symbol
             id="textext-3831a06d-1"
             overflow="visible"
             style="overflow:visible">
            <path
               id="path4930"
               d="m 4.9375,-0.765625 c 0,-0.0625 -0.015625,-0.09375 -0.046875,-0.09375 C 4.75,-0.859375 4.75,-0.265625 4.21875,-0.265625 4.0625,-0.265625 4,-0.40625 4,-0.59375 c 0,-0.25 0.109375,-0.625 0.203125,-1.03125 L 4.90625,-4.390625 4.03125,-4.25 l -0.796875,3 C 3.21875,-1.203125 2.625,-0.375 2.03125,-0.375 c -0.578125,0 -0.75,-0.515625 -0.75,-0.90625 0,-0.109375 0.015625,-0.21875 0.03125,-0.3125 l 0.71875,-2.796875 -0.75,0.125 L 0.203125,0 c -0.21875,0.8125 -0.609375,1.890625 -0.6875,2.0625 l 0.875,0 0.640625,-2.484375 c 0,0 0.046875,0.53125 0.765625,0.53125 0.796875,0 1.28125,-0.78125 1.390625,-0.90625 -0.015625,0.078125 -0.03125,0.15625 -0.03125,0.21875 0,0.65625 0.609375,0.6875 0.78125,0.6875 l 0.03125,0 c 0.6875,0 0.96875,-0.640625 0.96875,-0.875 z m 0,0"
               style="stroke:none"
               inkscape:connector-curvature="0" />
          </symbol>
          <symbol
             id="textext-3831a06d-2"
             overflow="visible"
             style="overflow:visible">
            <path
               id="path4933"
               d=""
               style="stroke:none"
               inkscape:connector-curvature="0" />
          </symbol>
          <symbol
             id="textext-3831a06d-3"
             overflow="visible"
             style="overflow:visible">
            <path
               id="path4936"
               d="M 3.3125,-0.953125 3.21875,-0.984375 C 2.96875,-0.59375 2.875,-0.53125 2.5625,-0.53125 l -1.671875,0 L 2.0625,-1.75 c 0.625,-0.65625 0.890625,-1.1875 0.890625,-1.734375 0,-0.6875 -0.5625,-1.21875 -1.28125,-1.21875 -0.390625,0 -0.75,0.140625 -1.015625,0.421875 -0.21875,0.234375 -0.328125,0.46875 -0.4375,0.953125 l 0.140625,0.03125 C 0.640625,-3.96875 0.890625,-4.1875 1.375,-4.1875 c 0.578125,0 0.984375,0.390625 0.984375,0.96875 0,0.546875 -0.328125,1.203125 -0.90625,1.8125 l -1.25,1.328125 0,0.078125 2.71875,0 z m 0,0"
               style="stroke:none"
               inkscape:connector-curvature="0" />
          </symbol>
        </g>
      </defs>
      <g
         id="textext-3831a06d-4">
        <g
           id="g4939"
           style="fill:#000000;fill-opacity:1">
          <use
             id="use4941"
             y="134.765"
             x="223.43201"
             xlink:href="#textext-3831a06d-1"
             width="744.09448"
             height="1052.3622" />
        </g>
        <g
           id="g4943"
           style="fill:#000000;fill-opacity:1">
          <use
             id="use4945"
             y="131.14799"
             x="228.76199"
             xlink:href="#textext-3831a06d-3"
             width="744.09448"
             height="1052.3622" />
        </g>
      </g>
    </g>
    <text
       xml:space="preserve"
       style="font-size:12px;font-style:normal;font-variant:normal;font-weight:normal;font-stretch:normal;line-height:125%;letter-spacing:0px;word-spacing:0px;fill:#000000;fill-opacity:1;stroke:none;font-family:Nimbus Roman No9 L;-inkscape-font-specification:Nimbus Roman No9 L"
       x="332.14285"
       y="165.21933"
       id="text3183"
       sodipodi:linespacing="125%"><tspan
         sodipodi:role="line"
         id="tspan3185"
         x="332.14285"
         y="165.21933">So</tspan></text>
  </g>
</svg>
