<?xml version="1.0" encoding="UTF-8" standalone="no"?>
<!-- Created with Inkscape (http://www.inkscape.org/) -->

<svg
   xmlns:ns0="http://www.iki.fi/pav/software/textext/"
   xmlns:dc="http://purl.org/dc/elements/1.1/"
   xmlns:cc="http://creativecommons.org/ns#"
   xmlns:rdf="http://www.w3.org/1999/02/22-rdf-syntax-ns#"
   xmlns:svg="http://www.w3.org/2000/svg"
   xmlns="http://www.w3.org/2000/svg"
   xmlns:xlink="http://www.w3.org/1999/xlink"
   xmlns:sodipodi="http://sodipodi.sourceforge.net/DTD/sodipodi-0.dtd"
   xmlns:inkscape="http://www.inkscape.org/namespaces/inkscape"
   width="354.33069"
   height="212.59842"
   id="svg2"
   version="1.1"
   inkscape:version="0.48.4 r9939"
   sodipodi:docname="fig7.svg">
  <sodipodi:namedview
     id="base"
     pagecolor="#ffffff"
     bordercolor="#666666"
     borderopacity="1.0"
     inkscape:pageopacity="0.0"
     inkscape:pageshadow="2"
     inkscape:zoom="1.9075195"
     inkscape:cx="272.40687"
     inkscape:cy="82.24586"
     inkscape:document-units="px"
     inkscape:current-layer="layer1"
     showgrid="false"
     units="cm"
     inkscape:window-width="1024"
     inkscape:window-height="744"
     inkscape:window-x="0"
     inkscape:window-y="24"
     inkscape:window-maximized="1" />
  <defs
     id="defs4">
    <marker
       inkscape:stockid="Arrow1Mend"
       orient="auto"
       refY="0.0"
       refX="0.0"
       id="Arrow1Mend"
       style="overflow:visible;">
      <path
         id="path3776"
         d="M 0.0,0.0 L 5.0,-5.0 L -12.5,0.0 L 5.0,5.0 L 0.0,0.0 z "
         style="fill-rule:evenodd;stroke:#000000;stroke-width:1.0pt;"
         transform="scale(0.4) rotate(180) translate(10,0)" />
    </marker>
  </defs>
  <metadata
     id="metadata7">
    <rdf:RDF>
      <cc:Work
         rdf:about="">
        <dc:format>image/svg+xml</dc:format>
        <dc:type
           rdf:resource="http://purl.org/dc/dcmitype/StillImage" />
        <dc:title></dc:title>
      </cc:Work>
    </rdf:RDF>
  </metadata>
  <g
     inkscape:label="Layer 1"
     inkscape:groupmode="layer"
     id="layer1"
     transform="translate(0,-839.76245)">
    <path
       style="fill:none;stroke:#000000;stroke-width:1px;stroke-linecap:butt;stroke-linejoin:miter;stroke-opacity:1"
       d="m 83.337585,148.95881 209.130115,0"
       id="path2985"
       inkscape:connector-curvature="0"
       transform="translate(0,839.76245)"
       sodipodi:nodetypes="cc" />
    <path
       style="fill:none;stroke:#000000;stroke-width:1px;stroke-linecap:butt;stroke-linejoin:miter;stroke-opacity:1"
       d="m 86.873119,145.42327 c 37.496451,4.57274 63.425821,-73.588806 110.106631,-75.25636 27.42654,-0.979744 50.39685,70.73375 77.89054,69.75183"
       id="path2987"
       inkscape:connector-curvature="0"
       transform="translate(0,839.76245)"
       sodipodi:nodetypes="csc" />
    <path
       sodipodi:nodetypes="cc"
       inkscape:connector-curvature="0"
       id="path3094"
       d="m 243.22086,937.38842 0,51.62957"
       style="fill:none;stroke:#000000;stroke-width:1px;stroke-linecap:butt;stroke-linejoin:miter;stroke-opacity:1" />
    <path
       style="fill:#cccccc;stroke:#000000;stroke-width:0;stroke-linecap:butt;stroke-linejoin:miter;stroke-miterlimit:4;stroke-opacity:1;stroke-dasharray:none"
       d="m 96.99132,988.09967 19.39227,-13.94981 c 37.05135,-38.03896 52.09594,-62.24265 81.09786,-63.69011 14.10415,-1.46808 31.8947,25.77298 45.45018,44.28449 0.18361,-1.28533 -0.31957,33.26937 -0.31957,33.26937 z"
       id="path3096"
       inkscape:connector-curvature="0"
       sodipodi:nodetypes="cccccc" />
    <path
       style="fill:none;stroke:#000000;stroke-width:1px;stroke-linecap:butt;stroke-linejoin:miter;stroke-opacity:1"
       d="m 171.22086,57.034927 0,110.106623"
       id="path2989"
       inkscape:connector-curvature="0"
       transform="translate(0,839.76245)"
       sodipodi:nodetypes="cc" />
    <text
       xml:space="preserve"
       style="font-size:12px;font-style:normal;font-variant:normal;font-weight:normal;font-stretch:normal;line-height:125%;letter-spacing:0px;word-spacing:0px;fill:#000000;fill-opacity:1;stroke:none;font-family:Nimbus Roman No9 L;-inkscape-font-specification:Nimbus Roman No9 L"
       x="51.649204"
       y="941.30426"
       id="text3944"
       sodipodi:linespacing="125%"><tspan
         sodipodi:role="line"
         id="tspan3946"
         x="51.649204"
         y="941.30426">This area is</tspan></text>
    <path
       inkscape:connector-curvature="0"
       id="path4101"
       d="m 121.26,938.87455 61.52435,0"
       style="fill:none;stroke:#000000;stroke-width:1px;stroke-linecap:butt;stroke-linejoin:miter;stroke-opacity:1;marker-end:url(#Arrow1Mend)"
       sodipodi:nodetypes="cc" />
    <g
       ns0:text="$f$"
       ns0:preamble="/home/sriranga/Desktop/general-books/CSY/article4/figure/package.tex"
       transform="matrix(1.142745,0,0,1.2,13.259883,726.63063)"
       id="g4457">
      <defs
         id="defs4459">
        <g
           id="g4461">
          <symbol
             overflow="visible"
             id="textext-770efaee-0"
             style="overflow:visible">
            <path
               style="stroke:none"
               d=""
               id="path4464"
               inkscape:connector-curvature="0" />
          </symbol>
          <symbol
             overflow="visible"
             id="textext-770efaee-1"
             style="overflow:visible">
            <path
               style="stroke:none"
               d="m 0.34375,-3.953125 0.90625,0 -0.875,4.1875 c -0.21875,1.078125 -0.546875,1.625 -0.96875,1.625 -0.125,0 -0.203125,-0.078125 -0.203125,-0.171875 0,-0.015625 0.015625,-0.046875 0.046875,-0.109375 0.03125,-0.046875 0.046875,-0.09375 0.046875,-0.15625 0,-0.203125 -0.1875,-0.375 -0.390625,-0.375 -0.21875,0 -0.375,0.171875 -0.375,0.40625 0,0.34375 0.359375,0.609375 0.796875,0.609375 0.875,0 1.578125,-0.984375 1.984375,-2.8125 l 0.71875,-3.203125 1.09375,0 0.0625,-0.3125 -1.078125,0 c 0.28125,-1.5625 0.65625,-2.28125 1.203125,-2.28125 0.140625,0 0.21875,0.0625 0.21875,0.125 0,0.03125 0,0.046875 -0.03125,0.109375 -0.046875,0.078125 -0.0625,0.125 -0.0625,0.203125 0,0.234375 0.15625,0.390625 0.375,0.390625 0.21875,0 0.421875,-0.171875 0.421875,-0.390625 0,-0.375 -0.375,-0.65625 -0.859375,-0.65625 -0.5,0 -0.875,0.21875 -1.234375,0.6875 -0.3125,0.390625 -0.5,0.859375 -0.8125,1.8125 l -0.90625,0 z m 0,0"
               id="path4467"
               inkscape:connector-curvature="0" />
          </symbol>
        </g>
      </defs>
      <g
         id="textext-770efaee-2">
        <g
           style="fill:#000000;fill-opacity:1"
           id="g4470">
          <use
             xlink:href="#textext-770efaee-1"
             x="224.92599"
             y="134.765"
             id="use4472"
             width="354.33069"
             height="212.59842" />
        </g>
      </g>
    </g>
    <g
       id="g3071"
       transform="matrix(1.142745,0,0,1.2,-145.64975,780.52282)"
       ns0:preamble="/home/sriranga/Desktop/general-books/CSY/article4/figure/package.tex"
       ns0:text="$P$">
      <defs
         id="defs3073">
        <g
           id="g3075">
          <symbol
             id="textext-5dab64f7-0"
             overflow="visible"
             style="overflow:visible">
            <path
               id="path3078"
               d=""
               style="stroke:none"
               inkscape:connector-curvature="0" />
          </symbol>
          <symbol
             id="textext-5dab64f7-1"
             overflow="visible"
             style="overflow:visible">
            <path
               id="path3081"
               d="M 1.453125,-6.34375 C 2.03125,-6.28125 2.15625,-6.1875 2.15625,-5.9375 2.15625,-5.796875 2.125,-5.578125 2,-5.140625 l -1.1875,4.25 C 0.640625,-0.296875 0.5625,-0.234375 0,-0.15625 L 0,0 l 2.4375,0 0,-0.15625 C 1.8125,-0.25 1.765625,-0.28125 1.765625,-0.625 c 0,-0.109375 0.015625,-0.21875 0.125,-0.578125 L 2.40625,-3.125 c 0.25,0.0625 0.515625,0.078125 0.921875,0.078125 0.8125,0 1.484375,-0.15625 1.921875,-0.46875 0.484375,-0.375 0.78125,-0.921875 0.78125,-1.515625 0,-0.953125 -0.75,-1.484375 -2.109375,-1.484375 l -2.46875,0 z m 1.75,0.40625 c 0.0625,-0.203125 0.1875,-0.265625 0.46875,-0.265625 0.390625,0 0.765625,0.09375 0.96875,0.234375 C 4.890625,-5.796875 5,-5.5 5,-5.03125 c 0,0.65625 -0.21875,1.109375 -0.65625,1.375 -0.3125,0.171875 -0.703125,0.25 -1.328125,0.25 -0.171875,0 -0.25,-0.015625 -0.515625,-0.046875 z m 0,0"
               style="stroke:none"
               inkscape:connector-curvature="0" />
          </symbol>
        </g>
      </defs>
      <g
         id="textext-5dab64f7-2">
        <g
           id="g3084"
           style="fill:#000000;fill-opacity:1">
          <use
             id="use3086"
             y="134.765"
             x="223.681"
             xlink:href="#textext-5dab64f7-1"
             width="354.33069"
             height="212.59842" />
        </g>
      </g>
    </g>
    <path
       style="fill:none;stroke:#000000;stroke-width:1px;stroke-linecap:butt;stroke-linejoin:miter;stroke-opacity:1;marker-end:url(#Arrow1Mend)"
       d="M 230.66606,54.277626 213.3661,73.150303"
       id="path3131"
       inkscape:connector-curvature="0"
       transform="translate(0,839.76245)" />
    <text
       xml:space="preserve"
       style="font-size:12px;font-style:normal;font-variant:normal;font-weight:normal;font-stretch:normal;line-height:125%;letter-spacing:0px;word-spacing:0px;fill:#000000;fill-opacity:1;stroke:none;font-family:Nimbus Roman No9 L;-inkscape-font-specification:Nimbus Roman No9 L"
       x="224.37518"
       y="889.3219"
       id="text4089"
       sodipodi:linespacing="125%"><tspan
         sodipodi:role="line"
         id="tspan4091"
         x="224.37518"
         y="889.3219">graph of</tspan></text>
    <path
       style="fill:none;stroke:#000000;stroke-width:1px;stroke-linecap:butt;stroke-linejoin:miter;stroke-opacity:1;marker-end:url(#Arrow1Mend)"
       d="M 263.69324,99.886596 249.01449,113.51686"
       id="path4093"
       inkscape:connector-curvature="0"
       transform="translate(0,839.76245)" />
    <g
       ns0:text="$\\eta(P)$"
       ns0:preamble="/home/sriranga/Desktop/general-books/CSY/article4/figure/package.tex"
       transform="matrix(1.142745,0,0,1.2,-17.38853,839.85858)"
       id="g4316">
      <defs
         id="defs4318">
        <g
           id="g4320">
          <symbol
             style="overflow:visible"
             overflow="visible"
             id="textext-984bf988-0">
            <path
               inkscape:connector-curvature="0"
               style="stroke:none"
               d=""
               id="path4323" />
          </symbol>
          <symbol
             style="overflow:visible"
             overflow="visible"
             id="textext-984bf988-1">
            <path
               inkscape:connector-curvature="0"
               style="stroke:none"
               d="m 4.75,-3.59375 c 0,-0.546875 -0.28125,-0.796875 -0.84375,-0.796875 -0.921875,0 -1.84375,0.8125 -1.859375,0.8125 0,0 0.03125,-0.046875 0.03125,-0.171875 0,-0.25 -0.109375,-0.640625 -0.8125,-0.640625 -0.703125,0 -0.96875,0.625 -0.96875,0.859375 0,0.0625 0,0.09375 0.03125,0.09375 0.234375,0 0.125,-0.59375 0.734375,-0.59375 0.15625,0 0.234375,0.109375 0.234375,0.296875 0,0.28125 -0.125,0.671875 -0.265625,1.1875 L 0.625,-1 C 0.453125,-0.4375 0.28125,-0.09375 0.21875,0 l 0.9375,0 C 1.171875,-0.09375 1.25,-0.453125 1.40625,-1 L 2,-3.125 c 0.046875,-0.140625 0.71875,-0.796875 1.328125,-0.796875 0.453125,0 0.59375,0.1875 0.59375,0.46875 0,0.171875 -0.046875,0.390625 -0.109375,0.609375 l -0.984375,3.5 C 2.671875,1.1875 2.5625,1.9375 2.546875,2.0625 l 0.875,0 0,-0.03125 c 0,-0.171875 0,-0.671875 0.203125,-1.359375 l 1,-3.546875 C 4.703125,-3.15625 4.75,-3.40625 4.75,-3.59375 z m 0,0"
               id="path4326" />
          </symbol>
          <symbol
             style="overflow:visible"
             overflow="visible"
             id="textext-984bf988-2">
            <path
               inkscape:connector-curvature="0"
               style="stroke:none"
               d=""
               id="path4329" />
          </symbol>
          <symbol
             style="overflow:visible"
             overflow="visible"
             id="textext-984bf988-3">
            <path
               inkscape:connector-curvature="0"
               style="stroke:none"
               d="M 2.9375,-6.734375 C 2.203125,-6.265625 1.90625,-6 1.53125,-5.546875 c -0.703125,0.875 -1.046875,1.875 -1.046875,3.03125 0,1.265625 0.359375,2.25 1.234375,3.265625 0.421875,0.46875 0.671875,0.703125 1.1875,1.015625 l 0.125,-0.15625 C 2.234375,0.984375 1.953125,0.625 1.6875,-0.125 1.453125,-0.78125 1.328125,-1.546875 1.328125,-2.546875 1.328125,-3.59375 1.46875,-4.40625 1.734375,-5.03125 2.015625,-5.640625 2.3125,-6 3.03125,-6.578125 z m 0,0"
               id="path4332" />
          </symbol>
          <symbol
             style="overflow:visible"
             overflow="visible"
             id="textext-984bf988-4">
            <path
               inkscape:connector-curvature="0"
               style="stroke:none"
               d="M 0.375,1.765625 C 1.109375,1.28125 1.421875,1.03125 1.78125,0.5625 2.5,-0.296875 2.84375,-1.296875 2.84375,-2.46875 c 0,-1.265625 -0.375,-2.234375 -1.25,-3.25 C 1.1875,-6.203125 0.921875,-6.421875 0.40625,-6.734375 l -0.109375,0.15625 c 0.796875,0.625 1.0625,0.96875 1.34375,1.71875 0.234375,0.671875 0.34375,1.4375 0.34375,2.421875 0,1.046875 -0.125,1.875 -0.40625,2.484375 C 1.3125,0.671875 1,1.03125 0.296875,1.609375 z m 0,0"
               id="path4335" />
          </symbol>
          <symbol
             style="overflow:visible"
             overflow="visible"
             id="textext-984bf988-5">
            <path
               inkscape:connector-curvature="0"
               style="stroke:none"
               d=""
               id="path4338" />
          </symbol>
          <symbol
             style="overflow:visible"
             overflow="visible"
             id="textext-984bf988-6">
            <path
               inkscape:connector-curvature="0"
               style="stroke:none"
               d="M 1.453125,-6.34375 C 2.03125,-6.28125 2.15625,-6.1875 2.15625,-5.9375 2.15625,-5.796875 2.125,-5.578125 2,-5.140625 l -1.1875,4.25 C 0.640625,-0.296875 0.5625,-0.234375 0,-0.15625 L 0,0 l 2.4375,0 0,-0.15625 C 1.8125,-0.25 1.765625,-0.28125 1.765625,-0.625 c 0,-0.109375 0.015625,-0.21875 0.125,-0.578125 L 2.40625,-3.125 c 0.25,0.0625 0.515625,0.078125 0.921875,0.078125 0.8125,0 1.484375,-0.15625 1.921875,-0.46875 0.484375,-0.375 0.78125,-0.921875 0.78125,-1.515625 0,-0.953125 -0.75,-1.484375 -2.109375,-1.484375 l -2.46875,0 z m 1.75,0.40625 c 0.0625,-0.203125 0.1875,-0.265625 0.46875,-0.265625 0.390625,0 0.765625,0.09375 0.96875,0.234375 C 4.890625,-5.796875 5,-5.5 5,-5.03125 c 0,0.65625 -0.21875,1.109375 -0.65625,1.375 -0.3125,0.171875 -0.703125,0.25 -1.328125,0.25 -0.171875,0 -0.25,-0.015625 -0.515625,-0.046875 z m 0,0"
               id="path4341" />
          </symbol>
        </g>
      </defs>
      <g
         id="textext-984bf988-7">
        <g
           style="fill:#000000;fill-opacity:1"
           id="g4344">
          <use
             height="212.59842"
             width="354.33069"
             xlink:href="#textext-984bf988-1"
             x="223.43201"
             y="134.765"
             id="use4346" />
        </g>
        <g
           style="fill:#000000;fill-opacity:1"
           id="g4348">
          <use
             height="212.59842"
             width="354.33069"
             xlink:href="#textext-984bf988-3"
             x="228.364"
             y="134.765"
             id="use4350" />
        </g>
        <g
           style="fill:#000000;fill-opacity:1"
           id="g4352">
          <use
             height="212.59842"
             width="354.33069"
             xlink:href="#textext-984bf988-6"
             x="231.92999"
             y="134.765"
             id="use4354" />
        </g>
        <g
           style="fill:#000000;fill-opacity:1"
           id="g4356">
          <use
             height="212.59842"
             width="354.33069"
             xlink:href="#textext-984bf988-4"
             x="238.017"
             y="134.765"
             id="use4358" />
        </g>
      </g>
    </g>
    <g
       id="g4541"
       transform="matrix(1.142745,0,0,1.2,10.16607,780.0951)"
       ns0:preamble="/home/sriranga/Desktop/general-books/CSY/article4/figure/package.tex"
       ns0:text="$x=\\eta(P)$">
      <defs
         id="defs4543">
        <g
           id="g4545">
          <symbol
             id="textext-436615f4-0"
             overflow="visible"
             style="overflow:visible">
            <path
               id="path4548"
               d=""
               style="stroke:none"
               inkscape:connector-curvature="0" />
          </symbol>
          <symbol
             id="textext-436615f4-1"
             overflow="visible"
             style="overflow:visible">
            <path
               id="path4551"
               d="M 4,-1.109375 C 3.921875,-1.015625 3.875,-0.953125 3.78125,-0.84375 3.5625,-0.53125 3.4375,-0.4375 3.328125,-0.4375 3.1875,-0.4375 3.09375,-0.5625 3.015625,-0.84375 3,-0.921875 2.984375,-0.984375 2.984375,-1.015625 2.734375,-2.03125 2.625,-2.484375 2.625,-2.625 c 0.4375,-0.78125 0.796875,-1.21875 0.96875,-1.21875 0.0625,0 0.140625,0.03125 0.25,0.078125 0.109375,0.078125 0.1875,0.09375 0.265625,0.09375 0.203125,0 0.34375,-0.140625 0.34375,-0.359375 0,-0.203125 -0.171875,-0.359375 -0.40625,-0.359375 -0.4375,0 -0.8125,0.359375 -1.5,1.421875 L 2.4375,-3.515625 c -0.140625,-0.6875 -0.25,-0.875 -0.53125,-0.875 -0.21875,0 -0.546875,0.078125 -1.15625,0.28125 L 0.640625,-4.0625 0.671875,-3.921875 C 1.0625,-4 1.140625,-4.03125 1.234375,-4.03125 c 0.25,0 0.3125,0.09375 0.453125,0.6875 l 0.28125,1.234375 -0.8125,1.15625 C 0.953125,-0.640625 0.75,-0.46875 0.640625,-0.46875 0.59375,-0.46875 0.484375,-0.5 0.390625,-0.5625 0.265625,-0.625 0.15625,-0.65625 0.0625,-0.65625 c -0.1875,0 -0.328125,0.140625 -0.328125,0.34375 0,0.265625 0.203125,0.421875 0.5,0.421875 0.296875,0 0.421875,-0.09375 0.921875,-0.703125 0.265625,-0.3125 0.484375,-0.578125 0.890625,-1.15625 l 0.3125,1.1875 c 0.125,0.515625 0.25,0.671875 0.578125,0.671875 0.375,0 0.625,-0.234375 1.203125,-1.140625 z m 0,0"
               style="stroke:none"
               inkscape:connector-curvature="0" />
          </symbol>
          <symbol
             id="textext-436615f4-2"
             overflow="visible"
             style="overflow:visible">
            <path
               id="path4554"
               d="M 1.453125,-6.34375 C 2.03125,-6.28125 2.15625,-6.1875 2.15625,-5.9375 2.15625,-5.796875 2.125,-5.578125 2,-5.140625 l -1.1875,4.25 C 0.640625,-0.296875 0.5625,-0.234375 0,-0.15625 L 0,0 l 2.4375,0 0,-0.15625 C 1.8125,-0.25 1.765625,-0.28125 1.765625,-0.625 c 0,-0.109375 0.015625,-0.21875 0.125,-0.578125 L 2.40625,-3.125 c 0.25,0.0625 0.515625,0.078125 0.921875,0.078125 0.8125,0 1.484375,-0.15625 1.921875,-0.46875 0.484375,-0.375 0.78125,-0.921875 0.78125,-1.515625 0,-0.953125 -0.75,-1.484375 -2.109375,-1.484375 l -2.46875,0 z m 1.75,0.40625 c 0.0625,-0.203125 0.1875,-0.265625 0.46875,-0.265625 0.390625,0 0.765625,0.09375 0.96875,0.234375 C 4.890625,-5.796875 5,-5.5 5,-5.03125 c 0,0.65625 -0.21875,1.109375 -0.65625,1.375 -0.3125,0.171875 -0.703125,0.25 -1.328125,0.25 -0.171875,0 -0.25,-0.015625 -0.515625,-0.046875 z m 0,0"
               style="stroke:none"
               inkscape:connector-curvature="0" />
          </symbol>
          <symbol
             id="textext-436615f4-3"
             overflow="visible"
             style="overflow:visible">
            <path
               id="path4557"
               d=""
               style="stroke:none"
               inkscape:connector-curvature="0" />
          </symbol>
          <symbol
             id="textext-436615f4-4"
             overflow="visible"
             style="overflow:visible">
            <path
               id="path4560"
               d="m 5.71875,-3.296875 0,-0.546875 -5.09375,0 0,0.546875 z m 0,2.03125 0,-0.5625 -5.09375,0 0,0.5625 z m 0,0"
               style="stroke:none"
               inkscape:connector-curvature="0" />
          </symbol>
          <symbol
             id="textext-436615f4-5"
             overflow="visible"
             style="overflow:visible">
            <path
               id="path4563"
               d=""
               style="stroke:none"
               inkscape:connector-curvature="0" />
          </symbol>
          <symbol
             id="textext-436615f4-6"
             overflow="visible"
             style="overflow:visible">
            <path
               id="path4566"
               d="m 4.75,-3.59375 c 0,-0.546875 -0.28125,-0.796875 -0.84375,-0.796875 -0.921875,0 -1.84375,0.8125 -1.859375,0.8125 0,0 0.03125,-0.046875 0.03125,-0.171875 0,-0.25 -0.109375,-0.640625 -0.8125,-0.640625 -0.703125,0 -0.96875,0.625 -0.96875,0.859375 0,0.0625 0,0.09375 0.03125,0.09375 0.234375,0 0.125,-0.59375 0.734375,-0.59375 0.15625,0 0.234375,0.109375 0.234375,0.296875 0,0.28125 -0.125,0.671875 -0.265625,1.1875 L 0.625,-1 C 0.453125,-0.4375 0.28125,-0.09375 0.21875,0 l 0.9375,0 C 1.171875,-0.09375 1.25,-0.453125 1.40625,-1 L 2,-3.125 c 0.046875,-0.140625 0.71875,-0.796875 1.328125,-0.796875 0.453125,0 0.59375,0.1875 0.59375,0.46875 0,0.171875 -0.046875,0.390625 -0.109375,0.609375 l -0.984375,3.5 C 2.671875,1.1875 2.5625,1.9375 2.546875,2.0625 l 0.875,0 0,-0.03125 c 0,-0.171875 0,-0.671875 0.203125,-1.359375 l 1,-3.546875 C 4.703125,-3.15625 4.75,-3.40625 4.75,-3.59375 z m 0,0"
               style="stroke:none"
               inkscape:connector-curvature="0" />
          </symbol>
          <symbol
             id="textext-436615f4-7"
             overflow="visible"
             style="overflow:visible">
            <path
               id="path4569"
               d=""
               style="stroke:none"
               inkscape:connector-curvature="0" />
          </symbol>
          <symbol
             id="textext-436615f4-8"
             overflow="visible"
             style="overflow:visible">
            <path
               id="path4572"
               d="M 2.9375,-6.734375 C 2.203125,-6.265625 1.90625,-6 1.53125,-5.546875 c -0.703125,0.875 -1.046875,1.875 -1.046875,3.03125 0,1.265625 0.359375,2.25 1.234375,3.265625 0.421875,0.46875 0.671875,0.703125 1.1875,1.015625 l 0.125,-0.15625 C 2.234375,0.984375 1.953125,0.625 1.6875,-0.125 1.453125,-0.78125 1.328125,-1.546875 1.328125,-2.546875 1.328125,-3.59375 1.46875,-4.40625 1.734375,-5.03125 2.015625,-5.640625 2.3125,-6 3.03125,-6.578125 z m 0,0"
               style="stroke:none"
               inkscape:connector-curvature="0" />
          </symbol>
          <symbol
             id="textext-436615f4-9"
             overflow="visible"
             style="overflow:visible">
            <path
               id="path4575"
               d="M 0.375,1.765625 C 1.109375,1.28125 1.421875,1.03125 1.78125,0.5625 2.5,-0.296875 2.84375,-1.296875 2.84375,-2.46875 c 0,-1.265625 -0.375,-2.234375 -1.25,-3.25 C 1.1875,-6.203125 0.921875,-6.421875 0.40625,-6.734375 l -0.109375,0.15625 c 0.796875,0.625 1.0625,0.96875 1.34375,1.71875 0.234375,0.671875 0.34375,1.4375 0.34375,2.421875 0,1.046875 -0.125,1.875 -0.40625,2.484375 C 1.3125,0.671875 1,1.03125 0.296875,1.609375 z m 0,0"
               style="stroke:none"
               inkscape:connector-curvature="0" />
          </symbol>
        </g>
      </defs>
      <g
         id="textext-436615f4-10">
        <g
           id="g4578"
           style="fill:#000000;fill-opacity:1">
          <use
             id="use4580"
             y="134.765"
             x="223.92999"
             xlink:href="#textext-436615f4-1"
             width="354.33069"
             height="212.59842" />
        </g>
        <g
           id="g4582"
           style="fill:#000000;fill-opacity:1">
          <use
             id="use4584"
             y="134.765"
             x="231.151"
             xlink:href="#textext-436615f4-4"
             width="354.33069"
             height="212.59842" />
        </g>
        <g
           id="g4586"
           style="fill:#000000;fill-opacity:1">
          <use
             id="use4588"
             y="134.765"
             x="240.254"
             xlink:href="#textext-436615f4-6"
             width="354.33069"
             height="212.59842" />
        </g>
        <g
           id="g4590"
           style="fill:#000000;fill-opacity:1">
          <use
             id="use4592"
             y="134.765"
             x="245.186"
             xlink:href="#textext-436615f4-8"
             width="354.33069"
             height="212.59842" />
        </g>
        <g
           id="g4594"
           style="fill:#000000;fill-opacity:1">
          <use
             id="use4596"
             y="134.765"
             x="248.75301"
             xlink:href="#textext-436615f4-2"
             width="354.33069"
             height="212.59842" />
        </g>
        <g
           id="g4598"
           style="fill:#000000;fill-opacity:1">
          <use
             id="use4600"
             y="134.765"
             x="254.84"
             xlink:href="#textext-436615f4-9"
             width="354.33069"
             height="212.59842" />
        </g>
      </g>
    </g>
  </g>
</svg>
