<?xml version="1.0" encoding="UTF-8" standalone="no"?>
<!-- Created with Inkscape (http://www.inkscape.org/) -->

<svg
   xmlns:ns0="http://www.iki.fi/pav/software/textext/"
   xmlns:dc="http://purl.org/dc/elements/1.1/"
   xmlns:cc="http://creativecommons.org/ns#"
   xmlns:rdf="http://www.w3.org/1999/02/22-rdf-syntax-ns#"
   xmlns:svg="http://www.w3.org/2000/svg"
   xmlns="http://www.w3.org/2000/svg"
   xmlns:xlink="http://www.w3.org/1999/xlink"
   xmlns:sodipodi="http://sodipodi.sourceforge.net/DTD/sodipodi-0.dtd"
   xmlns:inkscape="http://www.inkscape.org/namespaces/inkscape"
   width="354.33069"
   height="177.16534"
   id="svg2"
   version="1.1"
   inkscape:version="0.48.4 r9939"
   sodipodi:docname="New document 1">
  <sodipodi:namedview
     id="base"
     pagecolor="#ffffff"
     bordercolor="#666666"
     borderopacity="1.0"
     inkscape:pageopacity="0.0"
     inkscape:pageshadow="2"
     inkscape:zoom="2.600621"
     inkscape:cx="148.07115"
     inkscape:cy="93.191932"
     inkscape:document-units="px"
     inkscape:current-layer="layer1"
     showgrid="false"
     units="cm"
     inkscape:window-width="1024"
     inkscape:window-height="744"
     inkscape:window-x="0"
     inkscape:window-y="24"
     inkscape:window-maximized="1" />
  <defs
     id="defs4" />
  <metadata
     id="metadata7">
    <rdf:RDF>
      <cc:Work
         rdf:about="">
        <dc:format>image/svg+xml</dc:format>
        <dc:type
           rdf:resource="http://purl.org/dc/dcmitype/StillImage" />
        <dc:title></dc:title>
      </cc:Work>
    </rdf:RDF>
  </metadata>
  <g
     transform="translate(0,-875.19552)"
     id="layer1"
     inkscape:groupmode="layer"
     inkscape:label="Layer 1">
    <path
       sodipodi:nodetypes="cc"
       inkscape:connector-curvature="0"
       id="path2985"
       d="m 75.714286,960.93229 154.999994,0"
       style="fill:none;stroke:#000000;stroke-width:1px;stroke-linecap:butt;stroke-linejoin:miter;stroke-opacity:1" />
    <path
       inkscape:connector-curvature="0"
       id="path2987"
       d="m 140.71429,895.718 0,129.6427"
       style="fill:none;stroke:#000000;stroke-width:1px;stroke-linecap:butt;stroke-linejoin:miter;stroke-opacity:1" />
    <path
       sodipodi:nodetypes="cc"
       inkscape:connector-curvature="0"
       id="path2989"
       d="M 76.651198,1028.7621 C 190.38862,1036.7068 121.54328,914.06253 226.78572,913.78944"
       style="fill:none;stroke:#000000;stroke-width:1px;stroke-linecap:butt;stroke-linejoin:miter;stroke-opacity:1" />
    <g
       id="g2999"
       ns0:preamble="/home/sriranga/Desktop/general-books/CSY/article4/figure/package.tex"
       ns0:text="$x_{0}$"
       transform="matrix(1.2,0,0,1.2,-106.89755,808.64823)">
      <defs
         id="defs3001">
        <g
           id="g3003">
          <symbol
             id="textext-47b2993c-0"
             overflow="visible"
             style="overflow:visible">
            <path
               id="path3006"
               d=""
               style="stroke:none"
               inkscape:connector-curvature="0" />
          </symbol>
          <symbol
             id="textext-47b2993c-1"
             overflow="visible"
             style="overflow:visible">
            <path
               id="path3009"
               d="M 4,-1.109375 C 3.921875,-1.015625 3.875,-0.953125 3.78125,-0.84375 3.5625,-0.53125 3.4375,-0.4375 3.328125,-0.4375 3.1875,-0.4375 3.09375,-0.5625 3.015625,-0.84375 3,-0.921875 2.984375,-0.984375 2.984375,-1.015625 2.734375,-2.03125 2.625,-2.484375 2.625,-2.625 c 0.4375,-0.78125 0.796875,-1.21875 0.96875,-1.21875 0.0625,0 0.140625,0.03125 0.25,0.078125 0.109375,0.078125 0.1875,0.09375 0.265625,0.09375 0.203125,0 0.34375,-0.140625 0.34375,-0.359375 0,-0.203125 -0.171875,-0.359375 -0.40625,-0.359375 -0.4375,0 -0.8125,0.359375 -1.5,1.421875 L 2.4375,-3.515625 c -0.140625,-0.6875 -0.25,-0.875 -0.53125,-0.875 -0.21875,0 -0.546875,0.078125 -1.15625,0.28125 L 0.640625,-4.0625 0.671875,-3.921875 C 1.0625,-4 1.140625,-4.03125 1.234375,-4.03125 c 0.25,0 0.3125,0.09375 0.453125,0.6875 l 0.28125,1.234375 -0.8125,1.15625 C 0.953125,-0.640625 0.75,-0.46875 0.640625,-0.46875 0.59375,-0.46875 0.484375,-0.5 0.390625,-0.5625 0.265625,-0.625 0.15625,-0.65625 0.0625,-0.65625 c -0.1875,0 -0.328125,0.140625 -0.328125,0.34375 0,0.265625 0.203125,0.421875 0.5,0.421875 0.296875,0 0.421875,-0.09375 0.921875,-0.703125 0.265625,-0.3125 0.484375,-0.578125 0.890625,-1.15625 l 0.3125,1.1875 c 0.125,0.515625 0.25,0.671875 0.578125,0.671875 0.375,0 0.625,-0.234375 1.203125,-1.140625 z m 0,0"
               style="stroke:none"
               inkscape:connector-curvature="0" />
          </symbol>
          <symbol
             id="textext-47b2993c-2"
             overflow="visible"
             style="overflow:visible">
            <path
               id="path3012"
               d=""
               style="stroke:none"
               inkscape:connector-curvature="0" />
          </symbol>
          <symbol
             id="textext-47b2993c-3"
             overflow="visible"
             style="overflow:visible">
            <path
               id="path3015"
               d="m 1.765625,-4.703125 c -0.375,0 -0.671875,0.109375 -0.921875,0.359375 -0.40625,0.390625 -0.671875,1.1875 -0.671875,2 0,0.765625 0.21875,1.578125 0.546875,1.96875 0.265625,0.3125 0.625,0.46875 1.015625,0.46875 0.359375,0 0.65625,-0.109375 0.90625,-0.359375 0.40625,-0.375 0.671875,-1.1875 0.671875,-2.03125 0,-1.4375 -0.625,-2.40625 -1.546875,-2.40625 z M 1.75,-4.53125 c 0.578125,0 0.890625,0.78125 0.890625,2.25 0,1.453125 -0.296875,2.203125 -0.90625,2.203125 -0.59375,0 -0.890625,-0.75 -0.890625,-2.203125 0,-1.46875 0.3125,-2.25 0.90625,-2.25 z m 0,0"
               style="stroke:none"
               inkscape:connector-curvature="0" />
          </symbol>
        </g>
      </defs>
      <g
         id="textext-47b2993c-4">
        <g
           id="g3018"
           style="fill:#000000;fill-opacity:1">
          <use
             id="use3020"
             y="134.765"
             x="223.92999"
             xlink:href="#textext-47b2993c-1"
             width="354.33069"
             height="177.16534" />
        </g>
        <g
           id="g3022"
           style="fill:#000000;fill-opacity:1">
          <use
             id="use3024"
             y="136.259"
             x="228.354"
             xlink:href="#textext-47b2993c-3"
             width="354.33069"
             height="177.16534" />
        </g>
      </g>
    </g>
  </g>
</svg>
