<?xml version="1.0" encoding="UTF-8" standalone="no"?>
<!-- Created with Inkscape (http://www.inkscape.org/) -->

<svg
   xmlns:ns0="http://www.iki.fi/pav/software/textext/"
   xmlns:dc="http://purl.org/dc/elements/1.1/"
   xmlns:cc="http://creativecommons.org/ns#"
   xmlns:rdf="http://www.w3.org/1999/02/22-rdf-syntax-ns#"
   xmlns:svg="http://www.w3.org/2000/svg"
   xmlns="http://www.w3.org/2000/svg"
   xmlns:xlink="http://www.w3.org/1999/xlink"
   xmlns:sodipodi="http://sodipodi.sourceforge.net/DTD/sodipodi-0.dtd"
   xmlns:inkscape="http://www.inkscape.org/namespaces/inkscape"
   width="354.33069"
   height="212.59842"
   id="svg2"
   version="1.1"
   inkscape:version="0.48.4 r9939"
   sodipodi:docname="fig2.svg">
  <sodipodi:namedview
     id="base"
     pagecolor="#ffffff"
     bordercolor="#666666"
     borderopacity="1.0"
     inkscape:pageopacity="0.0"
     inkscape:pageshadow="2"
     inkscape:zoom="1.34882"
     inkscape:cx="228.77144"
     inkscape:cy="200.37319"
     inkscape:document-units="px"
     inkscape:current-layer="layer1"
     showgrid="false"
     units="cm"
     inkscape:window-width="1024"
     inkscape:window-height="744"
     inkscape:window-x="0"
     inkscape:window-y="24"
     inkscape:window-maximized="1" />
  <defs
     id="defs4">
    <marker
       style="overflow:visible;"
       id="Arrow1Mend"
       refX="0.0"
       refY="0.0"
       orient="auto"
       inkscape:stockid="Arrow1Mend">
      <path
         transform="scale(0.4) rotate(180) translate(10,0)"
         style="fill-rule:evenodd;stroke:#000000;stroke-width:1.0pt;"
         d="M 0.0,0.0 L 5.0,-5.0 L -12.5,0.0 L 5.0,5.0 L 0.0,0.0 z "
         id="path3776" />
    </marker>
  </defs>
  <metadata
     id="metadata7">
    <rdf:RDF>
      <cc:Work
         rdf:about="">
        <dc:format>image/svg+xml</dc:format>
        <dc:type
           rdf:resource="http://purl.org/dc/dcmitype/StillImage" />
        <dc:title></dc:title>
      </cc:Work>
    </rdf:RDF>
  </metadata>
  <g
     transform="translate(0,-839.76245)"
     id="layer1"
     inkscape:groupmode="layer"
     inkscape:label="Layer 1">
    <path
       sodipodi:nodetypes="cc"
       transform="translate(0,839.76245)"
       inkscape:connector-curvature="0"
       id="path2985"
       d="m 83.337585,148.95881 217.332235,0"
       style="fill:none;stroke:#000000;stroke-width:1px;stroke-linecap:butt;stroke-linejoin:miter;stroke-opacity:1" />
    <path
       sodipodi:nodetypes="csc"
       transform="translate(0,839.76245)"
       inkscape:connector-curvature="0"
       id="path2987"
       d="m 89.46798,141.34563 c 37.49645,4.57274 60.86277,-68.780889 107.51177,-71.17872 28.07526,-1.443112 50.62172,71.41925 78.11541,70.43733"
       style="fill:none;stroke:#000000;stroke-width:1px;stroke-linecap:butt;stroke-linejoin:miter;stroke-opacity:1" />
    <path
       sodipodi:nodetypes="cccccc"
       inkscape:connector-curvature="0"
       id="path3096"
       d="m 269.53362,988.36178 -0.20513,-5.79657 -13.80708,-11.89969 c -27.94573,-33.48479 -29.28374,-44.4003 -47.77403,-57.476 -1.60948,-5.65844 -0.22267,40.41619 0.27711,75.14433 z"
       style="fill:#cccccc;stroke:#000000;stroke-width:0;stroke-linecap:butt;stroke-linejoin:miter;stroke-miterlimit:4;stroke-opacity:1;stroke-dasharray:none" />
    <path
       sodipodi:nodetypes="cc"
       inkscape:connector-curvature="0"
       id="path2989"
       d="m 207.22086,912.52461 0,76.1227"
       style="fill:none;stroke:#000000;stroke-width:1px;stroke-linecap:butt;stroke-linejoin:miter;stroke-opacity:1" />
    <path
       sodipodi:nodetypes="ccc"
       style="fill:none;stroke:#000000;stroke-width:1px;stroke-linecap:butt;stroke-linejoin:miter;stroke-opacity:1;marker-end:url(#Arrow1Mend)"
       d="m 108.15397,918.42915 23.43053,0 -0.70001,29.88174"
       id="path4101"
       inkscape:connector-curvature="0" />
    <g
       id="g4457"
       transform="matrix(1.142745,0,0,1.2,-157.55914,759.16911)"
       ns0:preamble="/home/sriranga/Desktop/general-books/CSY/article4/figure/package.tex"
       ns0:text="$f$">
      <defs
         id="defs4459">
        <g
           id="g4461">
          <symbol
             id="textext-770efaee-0"
             overflow="visible"
             style="overflow:visible">
            <path
               id="path4464"
               d=""
               style="stroke:none"
               inkscape:connector-curvature="0" />
          </symbol>
          <symbol
             id="textext-770efaee-1"
             overflow="visible"
             style="overflow:visible">
            <path
               id="path4467"
               d="m 0.34375,-3.953125 0.90625,0 -0.875,4.1875 c -0.21875,1.078125 -0.546875,1.625 -0.96875,1.625 -0.125,0 -0.203125,-0.078125 -0.203125,-0.171875 0,-0.015625 0.015625,-0.046875 0.046875,-0.109375 0.03125,-0.046875 0.046875,-0.09375 0.046875,-0.15625 0,-0.203125 -0.1875,-0.375 -0.390625,-0.375 -0.21875,0 -0.375,0.171875 -0.375,0.40625 0,0.34375 0.359375,0.609375 0.796875,0.609375 0.875,0 1.578125,-0.984375 1.984375,-2.8125 l 0.71875,-3.203125 1.09375,0 0.0625,-0.3125 -1.078125,0 c 0.28125,-1.5625 0.65625,-2.28125 1.203125,-2.28125 0.140625,0 0.21875,0.0625 0.21875,0.125 0,0.03125 0,0.046875 -0.03125,0.109375 -0.046875,0.078125 -0.0625,0.125 -0.0625,0.203125 0,0.234375 0.15625,0.390625 0.375,0.390625 0.21875,0 0.421875,-0.171875 0.421875,-0.390625 0,-0.375 -0.375,-0.65625 -0.859375,-0.65625 -0.5,0 -0.875,0.21875 -1.234375,0.6875 -0.3125,0.390625 -0.5,0.859375 -0.8125,1.8125 l -0.90625,0 z m 0,0"
               style="stroke:none"
               inkscape:connector-curvature="0" />
          </symbol>
        </g>
      </defs>
      <g
         id="textext-770efaee-2">
        <g
           id="g4470"
           style="fill:#000000;fill-opacity:1">
          <use
             id="use4472"
             y="134.765"
             x="224.92599"
             xlink:href="#textext-770efaee-1"
             width="354.33069"
             height="212.59842" />
        </g>
      </g>
    </g>
    <text
       xml:space="preserve"
       style="font-size:12px;font-style:normal;font-variant:normal;font-weight:normal;font-stretch:normal;line-height:125%;letter-spacing:0px;word-spacing:0px;fill:#000000;fill-opacity:1;stroke:none;font-family:Nimbus Roman No9 L;-inkscape-font-specification:Nimbus Roman No9 L"
       x="245.18427"
       y="918.12683"
       id="text3143"
       sodipodi:linespacing="125%"><tspan
         sodipodi:role="line"
         id="tspan3145"
         x="245.18427"
         y="918.12683">This area is</tspan></text>
    <path
       inkscape:connector-curvature="0"
       id="path3177"
       d="m 251.7015,921.87644 -24.09514,32.62111"
       style="fill:none;stroke:#000000;stroke-width:1px;stroke-linecap:butt;stroke-linejoin:miter;stroke-opacity:1;marker-end:url(#Arrow1Mend)" />
    <path
       style="fill:none;stroke:#000000;stroke-width:1px;stroke-linecap:butt;stroke-linejoin:miter;stroke-opacity:1"
       d="m 153.22086,904.13675 0,102.76725"
       id="path4290"
       inkscape:connector-curvature="0"
       sodipodi:nodetypes="cc" />
    <text
       xml:space="preserve"
       style="font-size:12px;font-style:normal;font-variant:normal;font-weight:normal;font-stretch:normal;line-height:125%;letter-spacing:0px;word-spacing:0px;fill:#000000;fill-opacity:1;stroke:none;font-family:Nimbus Roman No9 L;-inkscape-font-specification:Nimbus Roman No9 L"
       x="53.472588"
       y="922.34906"
       id="text3067"
       sodipodi:linespacing="125%"><tspan
         sodipodi:role="line"
         id="tspan3069"
         x="53.472588"
         y="922.34906">graph of</tspan></text>
    <g
       ns0:text="$x=x_{\\alpha}$"
       ns0:preamble="/home/sriranga/Desktop/general-books/CSY/article4/figure/package.tex"
       transform="matrix(1.142745,0,0,1.2,-61.162657,842.74191)"
       id="g3116">
      <defs
         id="defs3118">
        <g
           id="g3120">
          <symbol
             style="overflow:visible"
             overflow="visible"
             id="textext-8c3d9c5a-0">
            <path
               inkscape:connector-curvature="0"
               style="stroke:none"
               d=""
               id="path3123" />
          </symbol>
          <symbol
             style="overflow:visible"
             overflow="visible"
             id="textext-8c3d9c5a-1">
            <path
               inkscape:connector-curvature="0"
               style="stroke:none"
               d="M 4,-1.109375 C 3.921875,-1.015625 3.875,-0.953125 3.78125,-0.84375 3.5625,-0.53125 3.4375,-0.4375 3.328125,-0.4375 3.1875,-0.4375 3.09375,-0.5625 3.015625,-0.84375 3,-0.921875 2.984375,-0.984375 2.984375,-1.015625 2.734375,-2.03125 2.625,-2.484375 2.625,-2.625 c 0.4375,-0.78125 0.796875,-1.21875 0.96875,-1.21875 0.0625,0 0.140625,0.03125 0.25,0.078125 0.109375,0.078125 0.1875,0.09375 0.265625,0.09375 0.203125,0 0.34375,-0.140625 0.34375,-0.359375 0,-0.203125 -0.171875,-0.359375 -0.40625,-0.359375 -0.4375,0 -0.8125,0.359375 -1.5,1.421875 L 2.4375,-3.515625 c -0.140625,-0.6875 -0.25,-0.875 -0.53125,-0.875 -0.21875,0 -0.546875,0.078125 -1.15625,0.28125 L 0.640625,-4.0625 0.671875,-3.921875 C 1.0625,-4 1.140625,-4.03125 1.234375,-4.03125 c 0.25,0 0.3125,0.09375 0.453125,0.6875 l 0.28125,1.234375 -0.8125,1.15625 C 0.953125,-0.640625 0.75,-0.46875 0.640625,-0.46875 0.59375,-0.46875 0.484375,-0.5 0.390625,-0.5625 0.265625,-0.625 0.15625,-0.65625 0.0625,-0.65625 c -0.1875,0 -0.328125,0.140625 -0.328125,0.34375 0,0.265625 0.203125,0.421875 0.5,0.421875 0.296875,0 0.421875,-0.09375 0.921875,-0.703125 0.265625,-0.3125 0.484375,-0.578125 0.890625,-1.15625 l 0.3125,1.1875 c 0.125,0.515625 0.25,0.671875 0.578125,0.671875 0.375,0 0.625,-0.234375 1.203125,-1.140625 z m 0,0"
               id="path3126" />
          </symbol>
          <symbol
             style="overflow:visible"
             overflow="visible"
             id="textext-8c3d9c5a-2">
            <path
               inkscape:connector-curvature="0"
               style="stroke:none"
               d=""
               id="path3129" />
          </symbol>
          <symbol
             style="overflow:visible"
             overflow="visible"
             id="textext-8c3d9c5a-3">
            <path
               inkscape:connector-curvature="0"
               style="stroke:none"
               d="m 5.71875,-3.296875 0,-0.546875 -5.09375,0 0,0.546875 z m 0,2.03125 0,-0.5625 -5.09375,0 0,0.5625 z m 0,0"
               id="path3132" />
          </symbol>
          <symbol
             style="overflow:visible"
             overflow="visible"
             id="textext-8c3d9c5a-4">
            <path
               inkscape:connector-curvature="0"
               style="stroke:none"
               d=""
               id="path3135" />
          </symbol>
          <symbol
             style="overflow:visible"
             overflow="visible"
             id="textext-8c3d9c5a-5">
            <path
               inkscape:connector-curvature="0"
               style="stroke:none"
               d="m 4.0625,-2.859375 -0.46875,0.0625 c -0.1875,0.53125 -0.75,1.359375 -0.75,1.375 0,-0.015625 0.125,-0.3125 0.125,-0.6875 0,-0.453125 -0.171875,-0.96875 -0.90625,-0.96875 -1.171875,0 -1.890625,1.234375 -1.890625,2.078125 0,0.59375 0.3125,1.078125 1.03125,1.078125 0.546875,0 0.96875,-0.421875 0.96875,-0.4375 l 0.015625,0 c 0,0.0625 0,0.421875 0.515625,0.421875 0.5625,0 0.890625,-0.625 0.890625,-0.78125 0,-0.03125 -0.015625,-0.046875 -0.03125,-0.046875 -0.078125,0 -0.25,0.578125 -0.65625,0.578125 -0.15625,0 -0.203125,-0.171875 -0.203125,-0.359375 0,-0.15625 0.03125,-0.3125 0.0625,-0.375 0.09375,-0.140625 1.296875,-1.9375 1.296875,-1.9375 z M 2.453125,-2.0625 c 0,0.671875 -0.265625,1.421875 -0.265625,1.4375 0,0 -0.34375,0.53125 -0.875,0.53125 -0.15625,0 -0.53125,-0.046875 -0.53125,-0.9375 0,-0.359375 0.1875,-1.875 1.15625,-1.875 0.46875,0 0.515625,0.59375 0.515625,0.84375 z m 0,0"
               id="path3138" />
          </symbol>
        </g>
      </defs>
      <g
         id="textext-8c3d9c5a-6">
        <g
           style="fill:#000000;fill-opacity:1"
           id="g3141">
          <use
             height="212.59842"
             width="354.33069"
             xlink:href="#textext-8c3d9c5a-1"
             x="223.92999"
             y="134.765"
             id="use3143" />
        </g>
        <g
           style="fill:#000000;fill-opacity:1"
           id="g3145">
          <use
             height="212.59842"
             width="354.33069"
             xlink:href="#textext-8c3d9c5a-3"
             x="231.151"
             y="134.765"
             id="use3147" />
        </g>
        <g
           style="fill:#000000;fill-opacity:1"
           id="g3149">
          <use
             height="212.59842"
             width="354.33069"
             xlink:href="#textext-8c3d9c5a-1"
             x="240.75301"
             y="134.765"
             id="use3151" />
        </g>
        <g
           style="fill:#000000;fill-opacity:1"
           id="g3153">
          <use
             height="212.59842"
             width="354.33069"
             xlink:href="#textext-8c3d9c5a-5"
             x="245.17599"
             y="136.259"
             id="use3155" />
        </g>
      </g>
    </g>
    <g
       id="g3276"
       transform="matrix(1.142745,0,0,1.2,47.867187,756.42803)"
       ns0:preamble="/home/sriranga/Desktop/general-books/CSY/article4/figure/package.tex"
       ns0:text="$\\alpha$">
      <defs
         id="defs3278">
        <g
           id="g3280">
          <symbol
             id="textext-aedcd5cb-0"
             overflow="visible"
             style="overflow:visible">
            <path
               id="path3283"
               d=""
               style="stroke:none"
               inkscape:connector-curvature="0" />
          </symbol>
          <symbol
             id="textext-aedcd5cb-1"
             overflow="visible"
             style="overflow:visible">
            <path
               id="path3286"
               d="M 5.828125,-4.09375 5.140625,-4 c -0.28125,0.765625 -1.0625,1.953125 -1.0625,1.953125 l -0.015625,0 c 0,0 0.171875,-0.4375 0.171875,-0.96875 0,-0.65625 -0.234375,-1.375 -1.296875,-1.375 -1.671875,0 -2.703125,1.765625 -2.703125,2.96875 0,0.84375 0.453125,1.53125 1.484375,1.53125 0.796875,0 1.390625,-0.609375 1.390625,-0.625 l 0.015625,0 c 0,0.09375 0.015625,0.609375 0.75,0.609375 0.796875,0 1.265625,-0.90625 1.265625,-1.125 0,-0.03125 -0.015625,-0.0625 -0.03125,-0.0625 -0.140625,0 -0.375,0.828125 -0.953125,0.828125 -0.21875,0 -0.28125,-0.25 -0.28125,-0.515625 0,-0.21875 0.046875,-0.4375 0.078125,-0.546875 0.140625,-0.1875 1.875,-2.765625 1.875,-2.765625 z m -2.3125,1.15625 c 0,0.9375 -0.375,2.03125 -0.375,2.046875 0,0 -0.515625,0.75 -1.265625,0.75 -0.21875,0 -0.765625,-0.0625 -0.765625,-1.34375 0,-0.515625 0.265625,-2.65625 1.65625,-2.65625 0.6875,0 0.75,0.84375 0.75,1.203125 z m 0,0"
               style="stroke:none"
               inkscape:connector-curvature="0" />
          </symbol>
        </g>
      </defs>
      <g
         id="textext-aedcd5cb-2">
        <g
           id="g3289"
           style="fill:#000000;fill-opacity:1">
          <use
             id="use3291"
             y="134.765"
             x="223.43201"
             xlink:href="#textext-aedcd5cb-1"
             width="354.33069"
             height="212.59842" />
        </g>
      </g>
    </g>
  </g>
</svg>
