<?xml version="1.0" encoding="UTF-8" standalone="no"?>
<!-- Created with Inkscape (http://www.inkscape.org/) -->

<svg
   xmlns:ns0="http://www.iki.fi/pav/software/textext/"
   xmlns:dc="http://purl.org/dc/elements/1.1/"
   xmlns:cc="http://creativecommons.org/ns#"
   xmlns:rdf="http://www.w3.org/1999/02/22-rdf-syntax-ns#"
   xmlns:svg="http://www.w3.org/2000/svg"
   xmlns="http://www.w3.org/2000/svg"
   xmlns:xlink="http://www.w3.org/1999/xlink"
   xmlns:sodipodi="http://sodipodi.sourceforge.net/DTD/sodipodi-0.dtd"
   xmlns:inkscape="http://www.inkscape.org/namespaces/inkscape"
   width="354.33069"
   height="212.59842"
   id="svg2"
   version="1.1"
   inkscape:version="0.48.4 r9939"
   sodipodi:docname="New document 1">
  <sodipodi:namedview
     id="base"
     pagecolor="#ffffff"
     bordercolor="#666666"
     borderopacity="1.0"
     inkscape:pageopacity="0.0"
     inkscape:pageshadow="2"
     inkscape:zoom="1.885906"
     inkscape:cx="234.01779"
     inkscape:cy="110.99533"
     inkscape:document-units="px"
     inkscape:current-layer="g4761"
     showgrid="false"
     units="cm"
     inkscape:window-width="1024"
     inkscape:window-height="744"
     inkscape:window-x="0"
     inkscape:window-y="24"
     inkscape:window-maximized="1" />
  <defs
     id="defs4">
    <marker
       inkscape:stockid="Arrow1Mend"
       orient="auto"
       refY="0.0"
       refX="0.0"
       id="Arrow1Mend"
       style="overflow:visible;">
      <path
         id="path3782"
         d="M 0.0,0.0 L 5.0,-5.0 L -12.5,0.0 L 5.0,5.0 L 0.0,0.0 z "
         style="fill-rule:evenodd;stroke:#000000;stroke-width:1.0pt;"
         transform="scale(0.4) rotate(180) translate(10,0)" />
    </marker>
  </defs>
  <metadata
     id="metadata7">
    <rdf:RDF>
      <cc:Work
         rdf:about="">
        <dc:format>image/svg+xml</dc:format>
        <dc:type
           rdf:resource="http://purl.org/dc/dcmitype/StillImage" />
        <dc:title></dc:title>
      </cc:Work>
    </rdf:RDF>
  </metadata>
  <g
     inkscape:label="Layer 1"
     inkscape:groupmode="layer"
     id="layer1"
     transform="translate(0,-839.76246)">
    <path
       style="fill:none;stroke:#000000;stroke-width:1px;stroke-linecap:butt;stroke-linejoin:miter;stroke-opacity:1"
       d="m 93.571429,135.8127 183.928571,0"
       id="path2985"
       inkscape:connector-curvature="0"
       transform="translate(0,839.76246)" />
    <path
       style="fill:none;stroke:#000000;stroke-width:1px;stroke-linecap:butt;stroke-linejoin:miter;stroke-opacity:1"
       d="m 185.71429,899.14659 0,125.35711"
       id="path2987"
       inkscape:connector-curvature="0" />
    <path
       style="fill:none;stroke:#000000;stroke-width:1px;stroke-linecap:butt;stroke-linejoin:miter;stroke-opacity:1"
       d="m 186.78571,135.45556 56.07143,-71.785712 0,72.081582"
       id="path2989"
       inkscape:connector-curvature="0"
       transform="translate(0,839.76246)"
       sodipodi:nodetypes="ccc" />
    <path
       style="fill:none;stroke:#000000;stroke-width:1px;stroke-linecap:butt;stroke-linejoin:miter;stroke-opacity:1"
       d="m 216.07143,97.241276 0,37.857144"
       id="path2991"
       inkscape:connector-curvature="0"
       transform="translate(0,839.76246)" />
    <path
       sodipodi:type="arc"
       style="fill:#000000;fill-opacity:1;stroke:#000000;stroke-width:2;stroke-linecap:round;stroke-linejoin:miter;stroke-miterlimit:4;stroke-opacity:1;stroke-dasharray:none;stroke-dashoffset:0"
       id="path2993"
       sodipodi:cx="137.14285"
       sodipodi:cy="75.455559"
       sodipodi:rx="2.1428571"
       sodipodi:ry="2.1428571"
       d="m 139.28571,75.455559 c 0,1.183467 -0.95939,2.142857 -2.14286,2.142857 -1.18346,0 -2.14285,-0.95939 -2.14285,-2.142857 0,-1.183468 0.95939,-2.142857 2.14285,-2.142857 1.18347,0 2.14286,0.959389 2.14286,2.142857 z"
       transform="translate(78.928572,862.26246)" />
    <path
       transform="translate(105.85715,828.47676)"
       d="m 139.28571,75.455559 c 0,1.183467 -0.95939,2.142857 -2.14286,2.142857 -1.18346,0 -2.14285,-0.95939 -2.14285,-2.142857 0,-1.183468 0.95939,-2.142857 2.14285,-2.142857 1.18347,0 2.14286,0.959389 2.14286,2.142857 z"
       sodipodi:ry="2.1428571"
       sodipodi:rx="2.1428571"
       sodipodi:cy="75.455559"
       sodipodi:cx="137.14285"
       id="path2995"
       style="fill:#000000;fill-opacity:1;stroke:#000000;stroke-width:2;stroke-linecap:round;stroke-linejoin:miter;stroke-miterlimit:4;stroke-opacity:1;stroke-dasharray:none;stroke-dashoffset:0"
       sodipodi:type="arc" />
    <path
       style="fill:#cccccc;stroke:#000000;stroke-width:1px;stroke-linecap:butt;stroke-linejoin:miter;stroke-opacity:1"
       d="m 186.706,135.47865 29.40351,-0.3463 -0.15242,-36.506544 z"
       id="path2997"
       inkscape:connector-curvature="0"
       transform="translate(0,839.76246)"
       sodipodi:nodetypes="cccc" />
    <path
       style="fill:none;stroke:#000000;stroke-width:1px;stroke-linecap:butt;stroke-linejoin:miter;stroke-opacity:1;marker-end:url(#Arrow1Mend)"
       d="m 147.85714,108.66985 55.71429,19.64285"
       id="path2999"
       inkscape:connector-curvature="0"
       transform="translate(0,839.76246)"
       sodipodi:nodetypes="cc" />
    <path
       style="fill:none;stroke:#000000;stroke-width:1px;stroke-linecap:butt;stroke-linejoin:miter;stroke-opacity:1;marker-end:url(#Arrow1Mend)"
       d="m 255.35714,942.36088 -27.5,15.71429"
       id="path4213"
       inkscape:connector-curvature="0" />
    <path
       style="fill:none;stroke:#000000;stroke-width:1px;stroke-linecap:butt;stroke-linejoin:miter;stroke-opacity:1"
       d="m 221.5687,953.90327 c 0.73611,1.2237 2.62965,2.18416 1.96084,5.52823 l 1.92258,2.04278 -1.92258,2.04278 c 0.69824,3.49118 -1.3963,4.38443 -2.05095,5.69149"
       id="path4397"
       inkscape:connector-curvature="0"
       sodipodi:nodetypes="ccccc" />
    <g
       transform="matrix(1.2,0,0,1.2,-9.6198515,782.00192)"
       ns0:text="$2n(p)$"
       ns0:preamble="/home/sriranga/Desktop/general-books/CSY/article4/figure/package.tex"
       id="g4418">
      <defs
         id="defs4420">
        <g
           id="g4422">
          <symbol
             style="overflow:visible"
             overflow="visible"
             id="textext-abc33b79-0">
            <path
               inkscape:connector-curvature="0"
               style="stroke:none"
               d=""
               id="path4425" />
          </symbol>
          <symbol
             style="overflow:visible"
             overflow="visible"
             id="textext-abc33b79-1">
            <path
               inkscape:connector-curvature="0"
               style="stroke:none"
               d="m 4.734375,-1.359375 -0.125,-0.0625 C 4.234375,-0.84375 4.109375,-0.75 3.65625,-0.75 l -2.375,0 1.671875,-1.765625 c 0.890625,-0.921875 1.28125,-1.6875 1.28125,-2.453125 0,-1 -0.8125,-1.765625 -1.859375,-1.765625 -0.546875,0 -1.0625,0.21875 -1.421875,0.609375 C 0.625,-5.78125 0.484375,-5.46875 0.3125,-4.75 l 0.203125,0.046875 C 0.921875,-5.6875 1.28125,-6 1.96875,-6 2.796875,-6 3.375,-5.4375 3.375,-4.59375 3.375,-3.8125 2.90625,-2.890625 2.078125,-2 l -1.78125,1.875 0,0.125 3.890625,0 z m 0,0"
               id="path4428" />
          </symbol>
          <symbol
             style="overflow:visible"
             overflow="visible"
             id="textext-abc33b79-2">
            <path
               inkscape:connector-curvature="0"
               style="stroke:none"
               d="M 2.9375,-6.734375 C 2.203125,-6.265625 1.90625,-6 1.53125,-5.546875 c -0.703125,0.875 -1.046875,1.875 -1.046875,3.03125 0,1.265625 0.359375,2.25 1.234375,3.265625 0.421875,0.46875 0.671875,0.703125 1.1875,1.015625 l 0.125,-0.15625 C 2.234375,0.984375 1.953125,0.625 1.6875,-0.125 1.453125,-0.78125 1.328125,-1.546875 1.328125,-2.546875 1.328125,-3.59375 1.46875,-4.40625 1.734375,-5.03125 2.015625,-5.640625 2.3125,-6 3.03125,-6.578125 z m 0,0"
               id="path4431" />
          </symbol>
          <symbol
             style="overflow:visible"
             overflow="visible"
             id="textext-abc33b79-3">
            <path
               inkscape:connector-curvature="0"
               style="stroke:none"
               d="M 0.375,1.765625 C 1.109375,1.28125 1.421875,1.03125 1.78125,0.5625 2.5,-0.296875 2.84375,-1.296875 2.84375,-2.46875 c 0,-1.265625 -0.375,-2.234375 -1.25,-3.25 C 1.1875,-6.203125 0.921875,-6.421875 0.40625,-6.734375 l -0.109375,0.15625 c 0.796875,0.625 1.0625,0.96875 1.34375,1.71875 0.234375,0.671875 0.34375,1.4375 0.34375,2.421875 0,1.046875 -0.125,1.875 -0.40625,2.484375 C 1.3125,0.671875 1,1.03125 0.296875,1.609375 z m 0,0"
               id="path4434" />
          </symbol>
          <symbol
             style="overflow:visible"
             overflow="visible"
             id="textext-abc33b79-4">
            <path
               inkscape:connector-curvature="0"
               style="stroke:none"
               d=""
               id="path4437" />
          </symbol>
          <symbol
             style="overflow:visible"
             overflow="visible"
             id="textext-abc33b79-5">
            <path
               inkscape:connector-curvature="0"
               style="stroke:none"
               d="M 4.578125,-1.171875 4.375,-0.90625 c -0.28125,0.375 -0.46875,0.53125 -0.609375,0.53125 -0.078125,0 -0.15625,-0.078125 -0.15625,-0.15625 0,-0.078125 0,-0.078125 0.140625,-0.640625 L 4.3125,-3.21875 c 0.046875,-0.203125 0.09375,-0.4375 0.09375,-0.5625 0,-0.359375 -0.265625,-0.609375 -0.65625,-0.609375 -0.640625,0 -1.265625,0.59375 -2.296875,2.1875 L 2.125,-4.375 2.09375,-4.390625 C 1.5625,-4.28125 1.34375,-4.25 0.484375,-4.09375 l 0,0.171875 c 0.5,0 0.625,0.0625 0.625,0.265625 0,0.0625 0,0.125 -0.015625,0.171875 L 0.140625,0 l 0.75,0 c 0.46875,-1.578125 0.5625,-1.796875 1,-2.46875 0.59375,-0.921875 1.09375,-1.421875 1.46875,-1.421875 0.15625,0 0.234375,0.109375 0.234375,0.296875 0,0.109375 -0.0625,0.4375 -0.140625,0.75 l -0.4375,1.640625 c -0.125,0.515625 -0.15625,0.65625 -0.15625,0.75 0,0.390625 0.140625,0.546875 0.46875,0.546875 0.453125,0 0.703125,-0.21875 1.390625,-1.125 z m 0,0"
               id="path4440" />
          </symbol>
          <symbol
             style="overflow:visible"
             overflow="visible"
             id="textext-abc33b79-6">
            <path
               inkscape:connector-curvature="0"
               style="stroke:none"
               d="m 0.5625,-4.03125 0.21875,0 c 0,0 0.03125,0 0.03125,0 0.140625,-0.0625 0.390625,0.125 0.390625,0.265625 C 1.203125,-3.671875 0.84375,-2.25 0.5,-0.9375 0.234375,0.0625 -0.015625,1 -0.078125,1.296875 -0.1875,1.75 -0.3125,1.875 -0.75,1.890625 l 0,0.15625 2.046875,0 0,-0.15625 c -0.46875,0 -0.640625,-0.09375 -0.640625,-0.296875 0,-0.140625 0.171875,-0.921875 0.375,-1.65625 0.25,0.125 0.421875,0.171875 0.65625,0.171875 1.453125,0 2.984375,-1.671875 2.984375,-3.265625 0,-0.765625 -0.4375,-1.234375 -1.140625,-1.234375 -0.65625,0 -1.125,0.3125 -1.703125,1.125 l 0.28125,-1 0.03125,-0.09375 c 0,0 0,0 -0.015625,-0.03125 l -0.015625,0 c 0,-0.015625 -0.015625,-0.015625 -0.015625,-0.015625 l -0.015625,0.015625 -1.546875,0.21875 z m 2.59375,0.0625 c 0.4375,0.015625 0.625,0.28125 0.625,0.859375 0,0.65625 -0.296875,1.515625 -0.71875,2.125 -0.421875,0.59375 -0.90625,0.90625 -1.421875,0.90625 -0.28125,0 -0.46875,-0.15625 -0.46875,-0.375 0,-0.328125 0.359375,-1.640625 0.640625,-2.375 C 2.078125,-3.515625 2.65625,-4 3.15625,-3.96875 z m 0,0"
               id="path4443" />
          </symbol>
        </g>
      </defs>
      <g
         id="textext-abc33b79-7">
        <g
           style="fill:#000000;fill-opacity:1"
           id="g4446">
          <use
             height="212.59842"
             width="354.33069"
             xlink:href="#textext-abc33b79-1"
             x="223.43201"
             y="134.765"
             id="use4448" />
        </g>
        <g
           style="fill:#000000;fill-opacity:1"
           id="g4450">
          <use
             height="212.59842"
             width="354.33069"
             xlink:href="#textext-abc33b79-5"
             x="228.41299"
             y="134.765"
             id="use4452" />
        </g>
        <g
           style="fill:#000000;fill-opacity:1"
           id="g4454">
          <use
             height="212.59842"
             width="354.33069"
             xlink:href="#textext-abc33b79-2"
             x="233.395"
             y="134.765"
             id="use4456" />
        </g>
        <g
           style="fill:#000000;fill-opacity:1"
           id="g4458">
          <use
             height="212.59842"
             width="354.33069"
             xlink:href="#textext-abc33b79-6"
             x="237.46001"
             y="134.765"
             id="use4460" />
        </g>
        <g
           style="fill:#000000;fill-opacity:1"
           id="g4462">
          <use
             height="212.59842"
             width="354.33069"
             xlink:href="#textext-abc33b79-3"
             x="242.44099"
             y="134.765"
             id="use4464" />
        </g>
      </g>
    </g>
    <g
       id="g4610"
       transform="matrix(1.2,0,0,1.2,-54.160778,827.45388)"
       ns0:preamble="/home/sriranga/Desktop/general-books/CSY/article4/figure/package.tex"
       ns0:text="$\\eta(p)$">
      <defs
         id="defs4612">
        <g
           id="g4614">
          <symbol
             id="textext-431396b4-0"
             overflow="visible"
             style="overflow:visible">
            <path
               id="path4617"
               d=""
               style="stroke:none"
               inkscape:connector-curvature="0" />
          </symbol>
          <symbol
             id="textext-431396b4-1"
             overflow="visible"
             style="overflow:visible">
            <path
               id="path4620"
               d="m 4.75,-3.59375 c 0,-0.546875 -0.28125,-0.796875 -0.84375,-0.796875 -0.921875,0 -1.84375,0.8125 -1.859375,0.8125 0,0 0.03125,-0.046875 0.03125,-0.171875 0,-0.25 -0.109375,-0.640625 -0.8125,-0.640625 -0.703125,0 -0.96875,0.625 -0.96875,0.859375 0,0.0625 0,0.09375 0.03125,0.09375 0.234375,0 0.125,-0.59375 0.734375,-0.59375 0.15625,0 0.234375,0.109375 0.234375,0.296875 0,0.28125 -0.125,0.671875 -0.265625,1.1875 L 0.625,-1 C 0.453125,-0.4375 0.28125,-0.09375 0.21875,0 l 0.9375,0 C 1.171875,-0.09375 1.25,-0.453125 1.40625,-1 L 2,-3.125 c 0.046875,-0.140625 0.71875,-0.796875 1.328125,-0.796875 0.453125,0 0.59375,0.1875 0.59375,0.46875 0,0.171875 -0.046875,0.390625 -0.109375,0.609375 l -0.984375,3.5 C 2.671875,1.1875 2.5625,1.9375 2.546875,2.0625 l 0.875,0 0,-0.03125 c 0,-0.171875 0,-0.671875 0.203125,-1.359375 l 1,-3.546875 C 4.703125,-3.15625 4.75,-3.40625 4.75,-3.59375 z m 0,0"
               style="stroke:none"
               inkscape:connector-curvature="0" />
          </symbol>
          <symbol
             id="textext-431396b4-2"
             overflow="visible"
             style="overflow:visible">
            <path
               id="path4623"
               d=""
               style="stroke:none"
               inkscape:connector-curvature="0" />
          </symbol>
          <symbol
             id="textext-431396b4-3"
             overflow="visible"
             style="overflow:visible">
            <path
               id="path4626"
               d="M 2.9375,-6.734375 C 2.203125,-6.265625 1.90625,-6 1.53125,-5.546875 c -0.703125,0.875 -1.046875,1.875 -1.046875,3.03125 0,1.265625 0.359375,2.25 1.234375,3.265625 0.421875,0.46875 0.671875,0.703125 1.1875,1.015625 l 0.125,-0.15625 C 2.234375,0.984375 1.953125,0.625 1.6875,-0.125 1.453125,-0.78125 1.328125,-1.546875 1.328125,-2.546875 1.328125,-3.59375 1.46875,-4.40625 1.734375,-5.03125 2.015625,-5.640625 2.3125,-6 3.03125,-6.578125 z m 0,0"
               style="stroke:none"
               inkscape:connector-curvature="0" />
          </symbol>
          <symbol
             id="textext-431396b4-4"
             overflow="visible"
             style="overflow:visible">
            <path
               id="path4629"
               d="M 0.375,1.765625 C 1.109375,1.28125 1.421875,1.03125 1.78125,0.5625 2.5,-0.296875 2.84375,-1.296875 2.84375,-2.46875 c 0,-1.265625 -0.375,-2.234375 -1.25,-3.25 C 1.1875,-6.203125 0.921875,-6.421875 0.40625,-6.734375 l -0.109375,0.15625 c 0.796875,0.625 1.0625,0.96875 1.34375,1.71875 0.234375,0.671875 0.34375,1.4375 0.34375,2.421875 0,1.046875 -0.125,1.875 -0.40625,2.484375 C 1.3125,0.671875 1,1.03125 0.296875,1.609375 z m 0,0"
               style="stroke:none"
               inkscape:connector-curvature="0" />
          </symbol>
          <symbol
             id="textext-431396b4-5"
             overflow="visible"
             style="overflow:visible">
            <path
               id="path4632"
               d=""
               style="stroke:none"
               inkscape:connector-curvature="0" />
          </symbol>
          <symbol
             id="textext-431396b4-6"
             overflow="visible"
             style="overflow:visible">
            <path
               id="path4635"
               d="m 0.5625,-4.03125 0.21875,0 c 0,0 0.03125,0 0.03125,0 0.140625,-0.0625 0.390625,0.125 0.390625,0.265625 C 1.203125,-3.671875 0.84375,-2.25 0.5,-0.9375 0.234375,0.0625 -0.015625,1 -0.078125,1.296875 -0.1875,1.75 -0.3125,1.875 -0.75,1.890625 l 0,0.15625 2.046875,0 0,-0.15625 c -0.46875,0 -0.640625,-0.09375 -0.640625,-0.296875 0,-0.140625 0.171875,-0.921875 0.375,-1.65625 0.25,0.125 0.421875,0.171875 0.65625,0.171875 1.453125,0 2.984375,-1.671875 2.984375,-3.265625 0,-0.765625 -0.4375,-1.234375 -1.140625,-1.234375 -0.65625,0 -1.125,0.3125 -1.703125,1.125 l 0.28125,-1 0.03125,-0.09375 c 0,0 0,0 -0.015625,-0.03125 l -0.015625,0 c 0,-0.015625 -0.015625,-0.015625 -0.015625,-0.015625 l -0.015625,0.015625 -1.546875,0.21875 z m 2.59375,0.0625 c 0.4375,0.015625 0.625,0.28125 0.625,0.859375 0,0.65625 -0.296875,1.515625 -0.71875,2.125 -0.421875,0.59375 -0.90625,0.90625 -1.421875,0.90625 -0.28125,0 -0.46875,-0.15625 -0.46875,-0.375 0,-0.328125 0.359375,-1.640625 0.640625,-2.375 C 2.078125,-3.515625 2.65625,-4 3.15625,-3.96875 z m 0,0"
               style="stroke:none"
               inkscape:connector-curvature="0" />
          </symbol>
        </g>
      </defs>
      <g
         id="textext-431396b4-7">
        <g
           id="g4638"
           style="fill:#000000;fill-opacity:1">
          <use
             id="use4640"
             y="134.765"
             x="223.43201"
             xlink:href="#textext-431396b4-1"
             width="354.33069"
             height="212.59842" />
        </g>
        <g
           id="g4642"
           style="fill:#000000;fill-opacity:1">
          <use
             id="use4644"
             y="134.765"
             x="228.364"
             xlink:href="#textext-431396b4-3"
             width="354.33069"
             height="212.59842" />
        </g>
        <g
           id="g4646"
           style="fill:#000000;fill-opacity:1">
          <use
             id="use4648"
             y="134.765"
             x="232.42799"
             xlink:href="#textext-431396b4-6"
             width="354.33069"
             height="212.59842" />
        </g>
        <g
           id="g4650"
           style="fill:#000000;fill-opacity:1">
          <use
             id="use4652"
             y="134.765"
             x="237.41"
             xlink:href="#textext-431396b4-4"
             width="354.33069"
             height="212.59842" />
        </g>
      </g>
    </g>
    <text
       xml:space="preserve"
       style="font-size:12px;font-style:normal;font-variant:normal;font-weight:normal;font-stretch:normal;line-height:125%;letter-spacing:0px;word-spacing:0px;fill:#000000;fill-opacity:1;stroke:none;font-family:Nimbus Roman No9 L;-inkscape-font-specification:Nimbus Roman No9 L"
       x="83.779358"
       y="947.90179"
       id="text4723"
       sodipodi:linespacing="125%"><tspan
         sodipodi:role="line"
         id="tspan4725"
         x="83.779358"
         y="947.90179">this area is</tspan></text>
    <g
       ns0:text="$\\eta(p)$"
       ns0:preamble="/home/sriranga/Desktop/general-books/CSY/article4/figure/package.tex"
       transform="matrix(1.2,0,0,1.2,-54.160778,853.45388)"
       id="g4727">
      <defs
         id="defs4729">
        <g
           id="g4731">
          <symbol
             style="overflow:visible"
             overflow="visible"
             id="symbol4733">
            <path
               inkscape:connector-curvature="0"
               style="stroke:none"
               d=""
               id="path4735" />
          </symbol>
          <symbol
             style="overflow:visible"
             overflow="visible"
             id="symbol4737">
            <path
               inkscape:connector-curvature="0"
               style="stroke:none"
               d="m 4.75,-3.59375 c 0,-0.546875 -0.28125,-0.796875 -0.84375,-0.796875 -0.921875,0 -1.84375,0.8125 -1.859375,0.8125 0,0 0.03125,-0.046875 0.03125,-0.171875 0,-0.25 -0.109375,-0.640625 -0.8125,-0.640625 -0.703125,0 -0.96875,0.625 -0.96875,0.859375 0,0.0625 0,0.09375 0.03125,0.09375 0.234375,0 0.125,-0.59375 0.734375,-0.59375 0.15625,0 0.234375,0.109375 0.234375,0.296875 0,0.28125 -0.125,0.671875 -0.265625,1.1875 L 0.625,-1 C 0.453125,-0.4375 0.28125,-0.09375 0.21875,0 l 0.9375,0 C 1.171875,-0.09375 1.25,-0.453125 1.40625,-1 L 2,-3.125 c 0.046875,-0.140625 0.71875,-0.796875 1.328125,-0.796875 0.453125,0 0.59375,0.1875 0.59375,0.46875 0,0.171875 -0.046875,0.390625 -0.109375,0.609375 l -0.984375,3.5 C 2.671875,1.1875 2.5625,1.9375 2.546875,2.0625 l 0.875,0 0,-0.03125 c 0,-0.171875 0,-0.671875 0.203125,-1.359375 l 1,-3.546875 C 4.703125,-3.15625 4.75,-3.40625 4.75,-3.59375 z m 0,0"
               id="path4739" />
          </symbol>
          <symbol
             style="overflow:visible"
             overflow="visible"
             id="symbol4741">
            <path
               inkscape:connector-curvature="0"
               style="stroke:none"
               d=""
               id="path4743" />
          </symbol>
          <symbol
             style="overflow:visible"
             overflow="visible"
             id="symbol4745">
            <path
               inkscape:connector-curvature="0"
               style="stroke:none"
               d="M 2.9375,-6.734375 C 2.203125,-6.265625 1.90625,-6 1.53125,-5.546875 c -0.703125,0.875 -1.046875,1.875 -1.046875,3.03125 0,1.265625 0.359375,2.25 1.234375,3.265625 0.421875,0.46875 0.671875,0.703125 1.1875,1.015625 l 0.125,-0.15625 C 2.234375,0.984375 1.953125,0.625 1.6875,-0.125 1.453125,-0.78125 1.328125,-1.546875 1.328125,-2.546875 1.328125,-3.59375 1.46875,-4.40625 1.734375,-5.03125 2.015625,-5.640625 2.3125,-6 3.03125,-6.578125 z m 0,0"
               id="path4747" />
          </symbol>
          <symbol
             style="overflow:visible"
             overflow="visible"
             id="symbol4749">
            <path
               inkscape:connector-curvature="0"
               style="stroke:none"
               d="M 0.375,1.765625 C 1.109375,1.28125 1.421875,1.03125 1.78125,0.5625 2.5,-0.296875 2.84375,-1.296875 2.84375,-2.46875 c 0,-1.265625 -0.375,-2.234375 -1.25,-3.25 C 1.1875,-6.203125 0.921875,-6.421875 0.40625,-6.734375 l -0.109375,0.15625 c 0.796875,0.625 1.0625,0.96875 1.34375,1.71875 0.234375,0.671875 0.34375,1.4375 0.34375,2.421875 0,1.046875 -0.125,1.875 -0.40625,2.484375 C 1.3125,0.671875 1,1.03125 0.296875,1.609375 z m 0,0"
               id="path4751" />
          </symbol>
          <symbol
             style="overflow:visible"
             overflow="visible"
             id="symbol4753">
            <path
               inkscape:connector-curvature="0"
               style="stroke:none"
               d=""
               id="path4755" />
          </symbol>
          <symbol
             style="overflow:visible"
             overflow="visible"
             id="symbol4757">
            <path
               inkscape:connector-curvature="0"
               style="stroke:none"
               d="m 0.5625,-4.03125 0.21875,0 c 0,0 0.03125,0 0.03125,0 0.140625,-0.0625 0.390625,0.125 0.390625,0.265625 C 1.203125,-3.671875 0.84375,-2.25 0.5,-0.9375 0.234375,0.0625 -0.015625,1 -0.078125,1.296875 -0.1875,1.75 -0.3125,1.875 -0.75,1.890625 l 0,0.15625 2.046875,0 0,-0.15625 c -0.46875,0 -0.640625,-0.09375 -0.640625,-0.296875 0,-0.140625 0.171875,-0.921875 0.375,-1.65625 0.25,0.125 0.421875,0.171875 0.65625,0.171875 1.453125,0 2.984375,-1.671875 2.984375,-3.265625 0,-0.765625 -0.4375,-1.234375 -1.140625,-1.234375 -0.65625,0 -1.125,0.3125 -1.703125,1.125 l 0.28125,-1 0.03125,-0.09375 c 0,0 0,0 -0.015625,-0.03125 l -0.015625,0 c 0,-0.015625 -0.015625,-0.015625 -0.015625,-0.015625 l -0.015625,0.015625 -1.546875,0.21875 z m 2.59375,0.0625 c 0.4375,0.015625 0.625,0.28125 0.625,0.859375 0,0.65625 -0.296875,1.515625 -0.71875,2.125 -0.421875,0.59375 -0.90625,0.90625 -1.421875,0.90625 -0.28125,0 -0.46875,-0.15625 -0.46875,-0.375 0,-0.328125 0.359375,-1.640625 0.640625,-2.375 C 2.078125,-3.515625 2.65625,-4 3.15625,-3.96875 z m 0,0"
               id="path4759" />
          </symbol>
        </g>
      </defs>
      <g
         id="g4761">
        <g
           style="fill:#000000;fill-opacity:1"
           id="g4771"
           transform="translate(-72.286649,-57.341037)">
          <use
             height="212.59842"
             width="354.33069"
             xlink:href="#textext-431396b4-6"
             x="232.42799"
             y="134.765"
             id="use4773" />
        </g>
      </g>
    </g>
  </g>
</svg>
