<?xml version="1.0" encoding="UTF-8" standalone="no"?>
<!-- Created with Inkscape (http://www.inkscape.org/) -->

<svg
   xmlns:ns0="http://www.iki.fi/pav/software/textext/"
   xmlns:dc="http://purl.org/dc/elements/1.1/"
   xmlns:cc="http://creativecommons.org/ns#"
   xmlns:rdf="http://www.w3.org/1999/02/22-rdf-syntax-ns#"
   xmlns:svg="http://www.w3.org/2000/svg"
   xmlns="http://www.w3.org/2000/svg"
   xmlns:xlink="http://www.w3.org/1999/xlink"
   xmlns:sodipodi="http://sodipodi.sourceforge.net/DTD/sodipodi-0.dtd"
   xmlns:inkscape="http://www.inkscape.org/namespaces/inkscape"
   width="354.33069"
   height="212.59842"
   id="svg2"
   version="1.1"
   inkscape:version="0.48.4 r9939"
   sodipodi:docname="New document 1">
  <sodipodi:namedview
     id="base"
     pagecolor="#ffffff"
     bordercolor="#666666"
     borderopacity="1.0"
     inkscape:pageopacity="0.0"
     inkscape:pageshadow="2"
     inkscape:zoom="2.7035014"
     inkscape:cx="184.85645"
     inkscape:cy="82.691619"
     inkscape:document-units="px"
     inkscape:current-layer="layer1"
     showgrid="false"
     units="cm"
     inkscape:window-width="1024"
     inkscape:window-height="744"
     inkscape:window-x="0"
     inkscape:window-y="24"
     inkscape:window-maximized="1" />
  <defs
     id="defs4" />
  <metadata
     id="metadata7">
    <rdf:RDF>
      <cc:Work
         rdf:about="">
        <dc:format>image/svg+xml</dc:format>
        <dc:type
           rdf:resource="http://purl.org/dc/dcmitype/StillImage" />
        <dc:title></dc:title>
      </cc:Work>
    </rdf:RDF>
  </metadata>
  <g
     inkscape:label="Layer 1"
     inkscape:groupmode="layer"
     id="layer1"
     transform="translate(0,-839.76245)">
    <path
       style="fill:none;stroke:#000000;stroke-width:1px;stroke-linecap:butt;stroke-linejoin:miter;stroke-opacity:1"
       d="m 106.07143,980.92685 160.10797,0"
       id="path2985"
       inkscape:connector-curvature="0" />
    <path
       style="fill:none;stroke:#000000;stroke-width:1px;stroke-linecap:butt;stroke-linejoin:miter;stroke-opacity:1"
       d="m 162.19425,916.37658 0,99.19862"
       id="path2987"
       inkscape:connector-curvature="0" />
    <path
       style="fill:none;stroke:#000000;stroke-width:1px;stroke-linecap:butt;stroke-linejoin:miter;stroke-opacity:1"
       d="m 223.42059,907.15167 0,73.56832"
       id="path2989"
       inkscape:connector-curvature="0" />
    <path
       style="fill:none;stroke:#000000;stroke-width:1px;stroke-linecap:butt;stroke-linejoin:miter;stroke-opacity:1"
       d="m 200.40606,932.06996 54.13344,0"
       id="path2991"
       inkscape:connector-curvature="0"
       sodipodi:nodetypes="cc" />
    <path
       sodipodi:type="arc"
       style="fill:#000000;fill-opacity:1;stroke:#000000;stroke-width:2;stroke-linecap:round;stroke-linejoin:miter;stroke-miterlimit:4;stroke-opacity:1;stroke-dasharray:none;stroke-dashoffset:0"
       id="path3761"
       sodipodi:cx="194.83318"
       sodipodi:cy="121.55842"
       sodipodi:rx="1.3889598"
       sodipodi:ry="1.3889598"
       d="m 196.22214,121.55842 c 0,0.7671 -0.62186,1.38896 -1.38896,1.38896 -0.76711,0 -1.38896,-0.62186 -1.38896,-1.38896 0,-0.7671 0.62185,-1.38896 1.38896,-1.38896 0.7671,0 1.38896,0.62186 1.38896,1.38896 z"
       transform="translate(28.536809,859.20789)" />
    <path
       transform="translate(60.536809,859.20789)"
       d="m 196.22214,121.55842 c 0,0.7671 -0.62186,1.38896 -1.38896,1.38896 -0.76711,0 -1.38896,-0.62186 -1.38896,-1.38896 0,-0.7671 0.62185,-1.38896 1.38896,-1.38896 0.7671,0 1.38896,0.62186 1.38896,1.38896 z"
       sodipodi:ry="1.3889598"
       sodipodi:rx="1.3889598"
       sodipodi:cy="121.55842"
       sodipodi:cx="194.83318"
       id="path3763"
       style="fill:#000000;fill-opacity:1;stroke:#000000;stroke-width:2;stroke-linecap:round;stroke-linejoin:miter;stroke-miterlimit:4;stroke-opacity:1;stroke-dasharray:none;stroke-dashoffset:0"
       sodipodi:type="arc" />
    <path
       sodipodi:type="arc"
       style="fill:#000000;fill-opacity:1;stroke:#000000;stroke-width:2;stroke-linecap:round;stroke-linejoin:miter;stroke-miterlimit:4;stroke-opacity:1;stroke-dasharray:none;stroke-dashoffset:0"
       id="path3765"
       sodipodi:cx="194.83318"
       sodipodi:cy="121.55842"
       sodipodi:rx="1.3889598"
       sodipodi:ry="1.3889598"
       d="m 196.22214,121.55842 c 0,0.7671 -0.62186,1.38896 -1.38896,1.38896 -0.76711,0 -1.38896,-0.62186 -1.38896,-1.38896 0,-0.7671 0.62185,-1.38896 1.38896,-1.38896 0.7671,0 1.38896,0.62186 1.38896,1.38896 z"
       transform="translate(6.536809,859.20789)" />
    <g
       transform="matrix(1.2,0,0,1.2,-69.909341,831.88415)"
       ns0:text="$a$"
       ns0:preamble="/home/sriranga/Desktop/general-books/CSY/article4/figure/package.tex"
       id="g3779">
      <defs
         id="defs3781">
        <g
           id="g3783">
          <symbol
             style="overflow:visible"
             overflow="visible"
             id="textext-847351e2-0">
            <path
               inkscape:connector-curvature="0"
               style="stroke:none"
               d=""
               id="path3786" />
          </symbol>
          <symbol
             style="overflow:visible"
             overflow="visible"
             id="textext-847351e2-1">
            <path
               inkscape:connector-curvature="0"
               style="stroke:none"
               d="m 4.625,-1.09375 c -0.15625,0.140625 -0.203125,0.203125 -0.28125,0.28125 -0.296875,0.296875 -0.421875,0.40625 -0.515625,0.40625 -0.078125,0 -0.140625,-0.0625 -0.140625,-0.125 0,-0.203125 0.421875,-1.90625 0.890625,-3.625 0.03125,-0.09375 0.03125,-0.125 0.0625,-0.203125 L 4.5625,-4.390625 3.953125,-4.328125 3.921875,-4.296875 3.8125,-3.8125 c -0.078125,-0.375 -0.359375,-0.578125 -0.796875,-0.578125 -1.3125,0 -2.84375,1.8125 -2.84375,3.390625 0,0.703125 0.375,1.109375 1.015625,1.109375 0.703125,0 1.125,-0.328125 2,-1.5625 -0.203125,0.78125 -0.234375,0.90625 -0.234375,1.140625 0,0.296875 0.125,0.40625 0.40625,0.40625 C 3.765625,0.09375 4,-0.09375 4.75,-1 z M 3.078125,-4.171875 c 0.34375,0.015625 0.5625,0.25 0.5625,0.609375 0,0.828125 -0.5,2 -1.1875,2.75 C 2.21875,-0.546875 1.875,-0.375 1.578125,-0.375 1.234375,-0.375 1,-0.671875 1,-1.125 1,-1.671875 1.390625,-2.6875 1.8125,-3.3125 2.21875,-3.890625 2.6875,-4.203125 3.078125,-4.171875 z m 0,0"
               id="path3789" />
          </symbol>
        </g>
      </defs>
      <g
         id="textext-847351e2-2">
        <g
           style="fill:#000000;fill-opacity:1"
           id="g3792">
          <use
             height="212.59842"
             width="354.33069"
             xlink:href="#textext-847351e2-1"
             x="223.43201"
             y="134.765"
             id="use3794" />
        </g>
      </g>
    </g>
    <g
       id="g3858"
       transform="matrix(1.2,0,0,1.2,-15.909341,831.88415)"
       ns0:preamble="/home/sriranga/Desktop/general-books/CSY/article4/figure/package.tex"
       ns0:text="$b$">
      <defs
         id="defs3860">
        <g
           id="g3862">
          <symbol
             id="textext-7311a153-0"
             overflow="visible">
            <path
               id="path3865"
               d=""
               style="stroke:none;" />
          </symbol>
          <symbol
             id="textext-7311a153-1"
             overflow="visible">
            <path
               id="path3868"
               d="M 1.09375 -6.40625 C 1.6875 -6.390625 1.75 -6.359375 1.75 -6.140625 C 1.75 -6.046875 1.71875 -5.9375 1.65625 -5.71875 C 1.640625 -5.640625 1.609375 -5.578125 1.609375 -5.515625 L 1.578125 -5.453125 L 0.234375 -0.453125 L 0.234375 -0.421875 C 0.234375 -0.1875 1 0.109375 1.5625 0.109375 C 3.0625 0.109375 4.71875 -1.640625 4.71875 -3.203125 C 4.71875 -3.890625 4.234375 -4.390625 3.5625 -4.390625 C 2.859375 -4.390625 2.34375 -3.984375 1.640625 -2.890625 C 2.15625 -4.78125 2.21875 -5.046875 2.671875 -6.765625 L 2.625 -6.8125 C 2.125 -6.71875 1.765625 -6.65625 1.09375 -6.578125 Z M 3.171875 -3.90625 C 3.59375 -3.90625 3.875 -3.578125 3.875 -3.046875 C 3.875 -2.390625 3.359375 -1.328125 2.765625 -0.703125 C 2.40625 -0.328125 1.96875 -0.125 1.546875 -0.125 C 1.234375 -0.125 1.09375 -0.234375 1.09375 -0.453125 C 1.09375 -1.0625 1.390625 -2.03125 1.796875 -2.765625 C 2.25 -3.53125 2.6875 -3.90625 3.171875 -3.90625 Z M 3.171875 -3.90625 "
               style="stroke:none;" />
          </symbol>
        </g>
      </defs>
      <g
         id="textext-7311a153-2">
        <g
           id="g3871"
           style="fill:rgb(0%,0%,0%);fill-opacity:1;">
          <use
             id="use3873"
             y="134.765"
             x="223.432"
             xlink:href="#textext-7311a153-1" />
        </g>
      </g>
    </g>
    <g
       ns0:text="$\\frac{a+b}{2}$"
       ns0:preamble="/home/sriranga/Desktop/general-books/CSY/article4/figure/package.tex"
       transform="matrix(1.2,0,0,1.2,-52.868466,834.47338)"
       id="g3957">
      <defs
         id="defs3959">
        <g
           id="g3961">
          <symbol
             style="overflow:visible"
             overflow="visible"
             id="textext-d1d58410-0">
            <path
               inkscape:connector-curvature="0"
               style="stroke:none"
               d=""
               id="path3964" />
          </symbol>
          <symbol
             style="overflow:visible"
             overflow="visible"
             id="textext-d1d58410-1">
            <path
               inkscape:connector-curvature="0"
               style="stroke:none"
               d="M 3.234375,-0.765625 C 3.125,-0.65625 3.09375,-0.625 3.03125,-0.578125 2.828125,-0.359375 2.734375,-0.28125 2.671875,-0.28125 c -0.046875,0 -0.09375,-0.046875 -0.09375,-0.09375 0,-0.140625 0.296875,-1.328125 0.625,-2.53125 0.015625,-0.0625 0.015625,-0.078125 0.03125,-0.140625 L 3.1875,-3.078125 2.765625,-3.03125 2.75,-3 2.671875,-2.671875 c -0.0625,-0.25 -0.265625,-0.40625 -0.5625,-0.40625 -0.921875,0 -1.984375,1.28125 -1.984375,2.375 0,0.5 0.265625,0.78125 0.703125,0.78125 0.484375,0 0.78125,-0.234375 1.40625,-1.09375 -0.140625,0.546875 -0.171875,0.625 -0.171875,0.796875 0,0.203125 0.09375,0.28125 0.28125,0.28125 0.28125,0 0.453125,-0.125 0.96875,-0.765625 z M 2.15625,-2.921875 c 0.234375,0.015625 0.390625,0.1875 0.390625,0.421875 0,0.59375 -0.359375,1.40625 -0.828125,1.921875 -0.171875,0.1875 -0.40625,0.3125 -0.609375,0.3125 -0.25,0 -0.40625,-0.203125 -0.40625,-0.515625 0,-0.375 0.265625,-1.09375 0.5625,-1.53125 0.28125,-0.40625 0.609375,-0.625 0.890625,-0.609375 z m 0,0"
               id="path3967" />
          </symbol>
          <symbol
             style="overflow:visible"
             overflow="visible"
             id="textext-d1d58410-2">
            <path
               inkscape:connector-curvature="0"
               style="stroke:none"
               d="m 0.765625,-4.484375 c 0.40625,0.015625 0.453125,0.03125 0.453125,0.1875 0,0.0625 -0.015625,0.15625 -0.0625,0.296875 C 1.140625,-3.9375 1.125,-3.890625 1.125,-3.859375 L 1.109375,-3.8125 0.15625,-0.328125 l 0,0.03125 c 0,0.171875 0.546875,0.375 0.9375,0.375 1.046875,0 2.203125,-1.21875 2.203125,-2.3125 0,-0.484375 -0.34375,-0.84375 -0.8125,-0.84375 -0.484375,0 -0.84375,0.296875 -1.34375,1.0625 C 1.5,-3.34375 1.546875,-3.53125 1.875,-4.71875 L 1.828125,-4.765625 c -0.34375,0.0625 -0.59375,0.109375 -1.0625,0.171875 z m 1.453125,1.75 c 0.296875,0 0.484375,0.234375 0.484375,0.609375 0,0.453125 -0.359375,1.203125 -0.765625,1.625 -0.265625,0.265625 -0.5625,0.421875 -0.859375,0.421875 -0.21875,0 -0.3125,-0.078125 -0.3125,-0.25 0,-0.40625 0.203125,-1.09375 0.5,-1.609375 C 1.5625,-2.46875 1.875,-2.734375 2.21875,-2.734375 z m 0,0"
               id="path3970" />
          </symbol>
          <symbol
             style="overflow:visible"
             overflow="visible"
             id="textext-d1d58410-3">
            <path
               inkscape:connector-curvature="0"
               style="stroke:none"
               d=""
               id="path3973" />
          </symbol>
          <symbol
             style="overflow:visible"
             overflow="visible"
             id="textext-d1d58410-4">
            <path
               inkscape:connector-curvature="0"
               style="stroke:none"
               d="m 4,-1.59375 0,-0.390625 -1.59375,0 0,-1.578125 -0.390625,0 0,1.578125 -1.578125,0 0,0.390625 1.578125,0 0,1.59375 0.390625,0 0,-1.59375 z m 0,0"
               id="path3976" />
          </symbol>
          <symbol
             style="overflow:visible"
             overflow="visible"
             id="textext-d1d58410-5">
            <path
               inkscape:connector-curvature="0"
               style="stroke:none"
               d=""
               id="path3979" />
          </symbol>
          <symbol
             style="overflow:visible"
             overflow="visible"
             id="textext-d1d58410-6">
            <path
               inkscape:connector-curvature="0"
               style="stroke:none"
               d="M 3.3125,-0.953125 3.21875,-0.984375 C 2.96875,-0.59375 2.875,-0.53125 2.5625,-0.53125 l -1.671875,0 L 2.0625,-1.75 c 0.625,-0.65625 0.890625,-1.1875 0.890625,-1.734375 0,-0.6875 -0.5625,-1.21875 -1.28125,-1.21875 -0.390625,0 -0.75,0.140625 -1.015625,0.421875 -0.21875,0.234375 -0.328125,0.46875 -0.4375,0.953125 l 0.140625,0.03125 C 0.640625,-3.96875 0.890625,-4.1875 1.375,-4.1875 c 0.578125,0 0.984375,0.390625 0.984375,0.96875 0,0.546875 -0.328125,1.203125 -0.90625,1.8125 l -1.25,1.328125 0,0.078125 2.71875,0 z m 0,0"
               id="path3982" />
          </symbol>
        </g>
      </defs>
      <g
         id="textext-d1d58410-7">
        <g
           style="fill:#000000;fill-opacity:1"
           id="g3985">
          <use
             height="212.59842"
             width="354.33069"
             xlink:href="#textext-d1d58410-1"
             x="224.62801"
             y="130.839"
             id="use3987" />
        </g>
        <g
           style="fill:#000000;fill-opacity:1"
           id="g3989">
          <use
             height="212.59842"
             width="354.33069"
             xlink:href="#textext-d1d58410-4"
             x="228.11501"
             y="130.839"
             id="use3991" />
        </g>
        <g
           style="fill:#000000;fill-opacity:1"
           id="g3993">
          <use
             height="212.59842"
             width="354.33069"
             xlink:href="#textext-d1d58410-2"
             x="232.55"
             y="130.839"
             id="use3995" />
        </g>
        <path
           inkscape:connector-curvature="0"
           style="fill:none;stroke:#000000;stroke-width:0.55800003;stroke-linecap:butt;stroke-linejoin:miter;stroke-miterlimit:10;stroke-opacity:1"
           d="m 9.0625e-4,8.75e-4 11.40624975,0"
           transform="matrix(1,0,0,-1,224.628,132.204)"
           id="path3997" />
        <g
           style="fill:#000000;fill-opacity:1"
           id="g3999">
          <use
             height="212.59842"
             width="354.33069"
             xlink:href="#textext-d1d58410-6"
             x="228.589"
             y="138.202"
             id="use4001" />
        </g>
      </g>
    </g>
    <g
       id="g4173"
       transform="matrix(1.2,0,0,1.2,-41.031964,752.09541)"
       ns0:preamble="/home/sriranga/Desktop/general-books/CSY/article4/figure/package.tex"
       ns0:text="$x=\\frac{a+b}{2}$">
      <defs
         id="defs4175">
        <g
           id="g4177">
          <symbol
             id="textext-84f16724-0"
             overflow="visible"
             style="overflow:visible">
            <path
               id="path4180"
               d=""
               style="stroke:none"
               inkscape:connector-curvature="0" />
          </symbol>
          <symbol
             id="textext-84f16724-1"
             overflow="visible"
             style="overflow:visible">
            <path
               id="path4183"
               d="M 4,-1.109375 C 3.921875,-1.015625 3.875,-0.953125 3.78125,-0.84375 3.5625,-0.53125 3.4375,-0.4375 3.328125,-0.4375 3.1875,-0.4375 3.09375,-0.5625 3.015625,-0.84375 3,-0.921875 2.984375,-0.984375 2.984375,-1.015625 2.734375,-2.03125 2.625,-2.484375 2.625,-2.625 c 0.4375,-0.78125 0.796875,-1.21875 0.96875,-1.21875 0.0625,0 0.140625,0.03125 0.25,0.078125 0.109375,0.078125 0.1875,0.09375 0.265625,0.09375 0.203125,0 0.34375,-0.140625 0.34375,-0.359375 0,-0.203125 -0.171875,-0.359375 -0.40625,-0.359375 -0.4375,0 -0.8125,0.359375 -1.5,1.421875 L 2.4375,-3.515625 c -0.140625,-0.6875 -0.25,-0.875 -0.53125,-0.875 -0.21875,0 -0.546875,0.078125 -1.15625,0.28125 L 0.640625,-4.0625 0.671875,-3.921875 C 1.0625,-4 1.140625,-4.03125 1.234375,-4.03125 c 0.25,0 0.3125,0.09375 0.453125,0.6875 l 0.28125,1.234375 -0.8125,1.15625 C 0.953125,-0.640625 0.75,-0.46875 0.640625,-0.46875 0.59375,-0.46875 0.484375,-0.5 0.390625,-0.5625 0.265625,-0.625 0.15625,-0.65625 0.0625,-0.65625 c -0.1875,0 -0.328125,0.140625 -0.328125,0.34375 0,0.265625 0.203125,0.421875 0.5,0.421875 0.296875,0 0.421875,-0.09375 0.921875,-0.703125 0.265625,-0.3125 0.484375,-0.578125 0.890625,-1.15625 l 0.3125,1.1875 c 0.125,0.515625 0.25,0.671875 0.578125,0.671875 0.375,0 0.625,-0.234375 1.203125,-1.140625 z m 0,0"
               style="stroke:none"
               inkscape:connector-curvature="0" />
          </symbol>
          <symbol
             id="textext-84f16724-2"
             overflow="visible"
             style="overflow:visible">
            <path
               id="path4186"
               d=""
               style="stroke:none"
               inkscape:connector-curvature="0" />
          </symbol>
          <symbol
             id="textext-84f16724-3"
             overflow="visible"
             style="overflow:visible">
            <path
               id="path4189"
               d="m 5.71875,-3.296875 0,-0.546875 -5.09375,0 0,0.546875 z m 0,2.03125 0,-0.5625 -5.09375,0 0,0.5625 z m 0,0"
               style="stroke:none"
               inkscape:connector-curvature="0" />
          </symbol>
          <symbol
             id="textext-84f16724-4"
             overflow="visible"
             style="overflow:visible">
            <path
               id="path4192"
               d=""
               style="stroke:none"
               inkscape:connector-curvature="0" />
          </symbol>
          <symbol
             id="textext-84f16724-5"
             overflow="visible"
             style="overflow:visible">
            <path
               id="path4195"
               d="M 3.234375,-0.765625 C 3.125,-0.65625 3.09375,-0.625 3.03125,-0.578125 2.828125,-0.359375 2.734375,-0.28125 2.671875,-0.28125 c -0.046875,0 -0.09375,-0.046875 -0.09375,-0.09375 0,-0.140625 0.296875,-1.328125 0.625,-2.53125 0.015625,-0.0625 0.015625,-0.078125 0.03125,-0.140625 L 3.1875,-3.078125 2.765625,-3.03125 2.75,-3 2.671875,-2.671875 c -0.0625,-0.25 -0.265625,-0.40625 -0.5625,-0.40625 -0.921875,0 -1.984375,1.28125 -1.984375,2.375 0,0.5 0.265625,0.78125 0.703125,0.78125 0.484375,0 0.78125,-0.234375 1.40625,-1.09375 -0.140625,0.546875 -0.171875,0.625 -0.171875,0.796875 0,0.203125 0.09375,0.28125 0.28125,0.28125 0.28125,0 0.453125,-0.125 0.96875,-0.765625 z M 2.15625,-2.921875 c 0.234375,0.015625 0.390625,0.1875 0.390625,0.421875 0,0.59375 -0.359375,1.40625 -0.828125,1.921875 -0.171875,0.1875 -0.40625,0.3125 -0.609375,0.3125 -0.25,0 -0.40625,-0.203125 -0.40625,-0.515625 0,-0.375 0.265625,-1.09375 0.5625,-1.53125 0.28125,-0.40625 0.609375,-0.625 0.890625,-0.609375 z m 0,0"
               style="stroke:none"
               inkscape:connector-curvature="0" />
          </symbol>
          <symbol
             id="textext-84f16724-6"
             overflow="visible"
             style="overflow:visible">
            <path
               id="path4198"
               d="m 0.765625,-4.484375 c 0.40625,0.015625 0.453125,0.03125 0.453125,0.1875 0,0.0625 -0.015625,0.15625 -0.0625,0.296875 C 1.140625,-3.9375 1.125,-3.890625 1.125,-3.859375 L 1.109375,-3.8125 0.15625,-0.328125 l 0,0.03125 c 0,0.171875 0.546875,0.375 0.9375,0.375 1.046875,0 2.203125,-1.21875 2.203125,-2.3125 0,-0.484375 -0.34375,-0.84375 -0.8125,-0.84375 -0.484375,0 -0.84375,0.296875 -1.34375,1.0625 C 1.5,-3.34375 1.546875,-3.53125 1.875,-4.71875 L 1.828125,-4.765625 c -0.34375,0.0625 -0.59375,0.109375 -1.0625,0.171875 z m 1.453125,1.75 c 0.296875,0 0.484375,0.234375 0.484375,0.609375 0,0.453125 -0.359375,1.203125 -0.765625,1.625 -0.265625,0.265625 -0.5625,0.421875 -0.859375,0.421875 -0.21875,0 -0.3125,-0.078125 -0.3125,-0.25 0,-0.40625 0.203125,-1.09375 0.5,-1.609375 C 1.5625,-2.46875 1.875,-2.734375 2.21875,-2.734375 z m 0,0"
               style="stroke:none"
               inkscape:connector-curvature="0" />
          </symbol>
          <symbol
             id="textext-84f16724-7"
             overflow="visible"
             style="overflow:visible">
            <path
               id="path4201"
               d=""
               style="stroke:none"
               inkscape:connector-curvature="0" />
          </symbol>
          <symbol
             id="textext-84f16724-8"
             overflow="visible"
             style="overflow:visible">
            <path
               id="path4204"
               d="m 4,-1.59375 0,-0.390625 -1.59375,0 0,-1.578125 -0.390625,0 0,1.578125 -1.578125,0 0,0.390625 1.578125,0 0,1.59375 0.390625,0 0,-1.59375 z m 0,0"
               style="stroke:none"
               inkscape:connector-curvature="0" />
          </symbol>
          <symbol
             id="textext-84f16724-9"
             overflow="visible"
             style="overflow:visible">
            <path
               id="path4207"
               d=""
               style="stroke:none"
               inkscape:connector-curvature="0" />
          </symbol>
          <symbol
             id="textext-84f16724-10"
             overflow="visible"
             style="overflow:visible">
            <path
               id="path4210"
               d="M 3.3125,-0.953125 3.21875,-0.984375 C 2.96875,-0.59375 2.875,-0.53125 2.5625,-0.53125 l -1.671875,0 L 2.0625,-1.75 c 0.625,-0.65625 0.890625,-1.1875 0.890625,-1.734375 0,-0.6875 -0.5625,-1.21875 -1.28125,-1.21875 -0.390625,0 -0.75,0.140625 -1.015625,0.421875 -0.21875,0.234375 -0.328125,0.46875 -0.4375,0.953125 l 0.140625,0.03125 C 0.640625,-3.96875 0.890625,-4.1875 1.375,-4.1875 c 0.578125,0 0.984375,0.390625 0.984375,0.96875 0,0.546875 -0.328125,1.203125 -0.90625,1.8125 l -1.25,1.328125 0,0.078125 2.71875,0 z m 0,0"
               style="stroke:none"
               inkscape:connector-curvature="0" />
          </symbol>
        </g>
      </defs>
      <g
         id="textext-84f16724-11">
        <g
           id="g4213"
           style="fill:#000000;fill-opacity:1">
          <use
             id="use4215"
             y="134.765"
             x="223.92999"
             xlink:href="#textext-84f16724-1"
             width="354.33069"
             height="212.59842" />
        </g>
        <g
           id="g4217"
           style="fill:#000000;fill-opacity:1">
          <use
             id="use4219"
             y="134.765"
             x="231.151"
             xlink:href="#textext-84f16724-3"
             width="354.33069"
             height="212.59842" />
        </g>
        <g
           id="g4221"
           style="fill:#000000;fill-opacity:1">
          <use
             id="use4223"
             y="130.839"
             x="241.45"
             xlink:href="#textext-84f16724-5"
             width="354.33069"
             height="212.59842" />
        </g>
        <g
           id="g4225"
           style="fill:#000000;fill-opacity:1">
          <use
             id="use4227"
             y="130.839"
             x="244.937"
             xlink:href="#textext-84f16724-8"
             width="354.33069"
             height="212.59842" />
        </g>
        <g
           id="g4229"
           style="fill:#000000;fill-opacity:1">
          <use
             id="use4231"
             y="130.839"
             x="249.37199"
             xlink:href="#textext-84f16724-6"
             width="354.33069"
             height="212.59842" />
        </g>
        <path
           id="path4233"
           transform="matrix(1,0,0,-1,241.45,132.204)"
           d="m -7.8125e-4,8.75e-4 11.41015625,0"
           style="fill:none;stroke:#000000;stroke-width:0.55800003;stroke-linecap:butt;stroke-linejoin:miter;stroke-miterlimit:10;stroke-opacity:1"
           inkscape:connector-curvature="0" />
        <g
           id="g4235"
           style="fill:#000000;fill-opacity:1">
          <use
             id="use4237"
             y="138.202"
             x="245.411"
             xlink:href="#textext-84f16724-10"
             width="354.33069"
             height="212.59842" />
        </g>
      </g>
    </g>
  </g>
</svg>
