<?xml version="1.0" encoding="UTF-8" standalone="no"?>
<!-- Created with Inkscape (http://www.inkscape.org/) -->

<svg
   xmlns:ns0="http://www.iki.fi/pav/software/textext/"
   xmlns:dc="http://purl.org/dc/elements/1.1/"
   xmlns:cc="http://creativecommons.org/ns#"
   xmlns:rdf="http://www.w3.org/1999/02/22-rdf-syntax-ns#"
   xmlns:svg="http://www.w3.org/2000/svg"
   xmlns="http://www.w3.org/2000/svg"
   xmlns:xlink="http://www.w3.org/1999/xlink"
   xmlns:sodipodi="http://sodipodi.sourceforge.net/DTD/sodipodi-0.dtd"
   xmlns:inkscape="http://www.inkscape.org/namespaces/inkscape"
   width="283.46457"
   height="212.59842"
   id="svg2"
   version="1.1"
   inkscape:version="0.48.4 r9939"
   sodipodi:docname="New document 1">
  <sodipodi:namedview
     id="base"
     pagecolor="#ffffff"
     bordercolor="#666666"
     borderopacity="1.0"
     inkscape:pageopacity="0.0"
     inkscape:pageshadow="2"
     inkscape:zoom="5.6341467"
     inkscape:cx="128.94848"
     inkscape:cy="103.05433"
     inkscape:document-units="px"
     inkscape:current-layer="layer1"
     showgrid="false"
     units="cm"
     inkscape:window-width="1024"
     inkscape:window-height="744"
     inkscape:window-x="0"
     inkscape:window-y="24"
     inkscape:window-maximized="1" />
  <defs
     id="defs4" />
  <metadata
     id="metadata7">
    <rdf:RDF>
      <cc:Work
         rdf:about="">
        <dc:format>image/svg+xml</dc:format>
        <dc:type
           rdf:resource="http://purl.org/dc/dcmitype/StillImage" />
        <dc:title></dc:title>
      </cc:Work>
    </rdf:RDF>
  </metadata>
  <g
     inkscape:label="Layer 1"
     inkscape:groupmode="layer"
     id="layer1"
     transform="translate(0,-839.76245)">
    <rect
       style="fill:none;stroke:#000000;stroke-width:1.25;stroke-linecap:round;stroke-linejoin:miter;stroke-miterlimit:4;stroke-opacity:1;stroke-dasharray:none;stroke-dashoffset:0"
       id="rect2985"
       width="120.19681"
       height="74.285713"
       x="67.714287"
       y="903.78943" />
    <path
       sodipodi:type="arc"
       style="fill:none;stroke:#000000;stroke-width:1.25;stroke-linecap:round;stroke-linejoin:miter;stroke-miterlimit:4;stroke-opacity:1;stroke-dasharray:none;stroke-dashoffset:0"
       id="path2987"
       sodipodi:cx="104.64286"
       sodipodi:cy="104.02699"
       sodipodi:rx="14.285714"
       sodipodi:ry="14.285714"
       d="m 118.92857,104.02699 c 0,7.88978 -6.39593,14.28572 -14.28571,14.28572 -7.889782,0 -14.285714,-6.39594 -14.285714,-14.28572 0,-7.889779 6.395932,-14.285711 14.285714,-14.285711 7.88978,0 14.28571,6.395932 14.28571,14.285711 z"
       transform="translate(2,837.76245)" />
    <path
       transform="translate(46,837.76245)"
       d="m 118.92857,104.02699 c 0,7.88978 -6.39593,14.28572 -14.28571,14.28572 -7.889782,0 -14.285714,-6.39594 -14.285714,-14.28572 0,-7.889779 6.395932,-14.285711 14.285714,-14.285711 7.88978,0 14.28571,6.395932 14.28571,14.285711 z"
       sodipodi:ry="14.285714"
       sodipodi:rx="14.285714"
       sodipodi:cy="104.02699"
       sodipodi:cx="104.64286"
       id="path2989"
       style="fill:none;stroke:#000000;stroke-width:1.25;stroke-linecap:round;stroke-linejoin:miter;stroke-miterlimit:4;stroke-opacity:1;stroke-dasharray:none;stroke-dashoffset:0"
       sodipodi:type="arc" />
    <g
       transform="matrix(1.2,0,0,1.2,-166.12986,784.32463)"
       ns0:text="$A$"
       ns0:preamble="/home/sriranga/Desktop/CSY/article4/figure/package.tex"
       id="g2999">
      <defs
         id="defs3001">
        <g
           id="g3003">
          <symbol
             style="overflow:visible"
             overflow="visible"
             id="textext-04ea0c7b-0">
            <path
               inkscape:connector-curvature="0"
               style="stroke:none"
               d=""
               id="path3006" />
          </symbol>
          <symbol
             style="overflow:visible"
             overflow="visible"
             id="textext-04ea0c7b-1">
            <path
               inkscape:connector-curvature="0"
               style="stroke:none"
               d="M 5.625,-0.15625 C 5.046875,-0.203125 5,-0.296875 4.859375,-1.015625 l -0.9375,-5.640625 -0.25,0 -2.890625,4.984375 c -0.796875,1.328125 -0.890625,1.4375 -1.296875,1.515625 l 0,0.15625 1.875,0 0,-0.15625 c -0.515625,-0.046875 -0.59375,-0.109375 -0.59375,-0.359375 0,-0.1875 0.03125,-0.265625 0.203125,-0.609375 l 0.5625,-1.125 2.203125,0 0.1875,1.296875 c 0.015625,0.09375 0.03125,0.1875 0.03125,0.265625 0,0.375 -0.140625,0.46875 -0.78125,0.53125 L 3.171875,0 5.625,0 z m -3.875,-2.453125 1.484375,-2.59375 0.4375,2.59375 z m 0,0"
               id="path3009" />
          </symbol>
        </g>
      </defs>
      <g
         id="textext-04ea0c7b-2">
        <g
           style="fill:#000000;fill-opacity:1"
           id="g3012">
          <use
             height="212.59842"
             width="283.46457"
             xlink:href="#textext-04ea0c7b-1"
             x="223.681"
             y="134.765"
             id="use3014" />
        </g>
      </g>
    </g>
    <g
       id="g3070"
       transform="matrix(1.2,0,0,1.2,-121.4199,784.32463)"
       ns0:preamble="/home/sriranga/Desktop/CSY/article4/figure/package.tex"
       ns0:text="$B$">
      <defs
         id="defs3072">
        <g
           id="g3074">
          <symbol
             id="textext-bc72c49d-0"
             overflow="visible">
            <path
               id="path3077"
               d=""
               style="stroke:none;" />
          </symbol>
          <symbol
             id="textext-bc72c49d-1"
             overflow="visible">
            <path
               id="path3080"
               d="M -0.078125 0 L 2.734375 0 C 4.296875 0 5.375 -0.8125 5.375 -2 C 5.375 -2.359375 5.25 -2.71875 5.03125 -2.9375 C 4.828125 -3.15625 4.640625 -3.28125 4.109375 -3.5 C 4.828125 -3.671875 5.109375 -3.78125 5.4375 -4.0625 C 5.71875 -4.3125 5.859375 -4.640625 5.859375 -5.046875 C 5.859375 -5.984375 5.15625 -6.515625 3.875 -6.515625 L 1.296875 -6.515625 L 1.296875 -6.34375 C 1.90625 -6.296875 2.0625 -6.21875 2.0625 -5.9375 C 2.0625 -5.796875 2.03125 -5.546875 1.953125 -5.296875 L 0.734375 -0.890625 C 0.546875 -0.3125 0.484375 -0.265625 -0.078125 -0.15625 Z M 2.375 -3.296875 C 3.015625 -3.296875 3.4375 -3.265625 3.640625 -3.1875 C 4.046875 -3.015625 4.296875 -2.578125 4.296875 -2.03125 C 4.296875 -0.953125 3.5625 -0.296875 2.34375 -0.296875 C 1.921875 -0.296875 1.703125 -0.453125 1.703125 -0.71875 C 1.703125 -0.84375 1.828125 -1.3125 2.046875 -2.109375 C 2.1875 -2.5625 2.25 -2.796875 2.375 -3.296875 Z M 3.125 -5.9375 C 3.1875 -6.15625 3.296875 -6.203125 3.6875 -6.203125 C 4.484375 -6.203125 4.859375 -5.875 4.859375 -5.140625 C 4.859375 -4.5625 4.609375 -4.125 4.1875 -3.890625 C 3.84375 -3.6875 3.375 -3.625 2.46875 -3.625 Z M 3.125 -5.9375 "
               style="stroke:none;" />
          </symbol>
        </g>
      </defs>
      <g
         id="textext-bc72c49d-2">
        <g
           id="g3083"
           style="fill:rgb(0%,0%,0%);fill-opacity:1;">
          <use
             id="use3085"
             y="134.765"
             x="223.781"
             xlink:href="#textext-bc72c49d-1" />
        </g>
      </g>
    </g>
  </g>
</svg>
