<?xml version="1.0" encoding="UTF-8" standalone="no"?>
<!-- Created with Inkscape (http://www.inkscape.org/) -->

<svg
   xmlns:ns0="http://www.iki.fi/pav/software/textext/"
   xmlns:dc="http://purl.org/dc/elements/1.1/"
   xmlns:cc="http://creativecommons.org/ns#"
   xmlns:rdf="http://www.w3.org/1999/02/22-rdf-syntax-ns#"
   xmlns:svg="http://www.w3.org/2000/svg"
   xmlns="http://www.w3.org/2000/svg"
   xmlns:xlink="http://www.w3.org/1999/xlink"
   xmlns:sodipodi="http://sodipodi.sourceforge.net/DTD/sodipodi-0.dtd"
   xmlns:inkscape="http://www.inkscape.org/namespaces/inkscape"
   width="283.46457"
   height="212.59842"
   id="svg2"
   version="1.1"
   inkscape:version="0.48.4 r9939"
   sodipodi:docname="New document 1">
  <sodipodi:namedview
     id="base"
     pagecolor="#ffffff"
     bordercolor="#666666"
     borderopacity="1.0"
     inkscape:pageopacity="0.0"
     inkscape:pageshadow="2"
     inkscape:zoom="2.7070866"
     inkscape:cx="122.33958"
     inkscape:cy="77.190426"
     inkscape:document-units="px"
     inkscape:current-layer="layer1"
     showgrid="false"
     units="cm"
     inkscape:window-width="1024"
     inkscape:window-height="744"
     inkscape:window-x="0"
     inkscape:window-y="24"
     inkscape:window-maximized="1" />
  <defs
     id="defs4">
    <marker
       style="overflow:visible;"
       id="Arrow1Mend"
       refX="0.0"
       refY="0.0"
       orient="auto"
       inkscape:stockid="Arrow1Mend">
      <path
         transform="scale(0.4) rotate(180) translate(10,0)"
         style="fill-rule:evenodd;stroke:#000000;stroke-width:1.0pt;"
         d="M 0.0,0.0 L 5.0,-5.0 L -12.5,0.0 L 5.0,5.0 L 0.0,0.0 z "
         id="path3774" />
    </marker>
  </defs>
  <metadata
     id="metadata7">
    <rdf:RDF>
      <cc:Work
         rdf:about="">
        <dc:format>image/svg+xml</dc:format>
        <dc:type
           rdf:resource="http://purl.org/dc/dcmitype/StillImage" />
        <dc:title></dc:title>
      </cc:Work>
    </rdf:RDF>
  </metadata>
  <g
     transform="translate(0,-839.76245)"
     id="layer1"
     inkscape:groupmode="layer"
     inkscape:label="Layer 1">
    <path
       transform="translate(-9.2857143,819.47673)"
       d="m 170.71429,134.38414 c 0,18.1465 -14.71064,32.85714 -32.85714,32.85714 -18.1465,0 -32.85715,-14.71064 -32.85715,-32.85714 0,-18.1465 14.71065,-32.85714 32.85715,-32.85714 18.1465,0 32.85714,14.71064 32.85714,32.85714 z"
       sodipodi:ry="32.857143"
       sodipodi:rx="32.857143"
       sodipodi:cy="134.38414"
       sodipodi:cx="137.85715"
       id="path2989"
       style="fill:#999999;stroke:#000000;stroke-width:1;stroke-linecap:round;stroke-linejoin:miter;stroke-miterlimit:4;stroke-opacity:1;stroke-dasharray:none;stroke-dashoffset:0"
       sodipodi:type="arc" />
    <path
       transform="translate(0,839.76245)"
       inkscape:connector-curvature="0"
       id="path2985"
       d="m 44.285714,114.38413 182.142856,0"
       style="fill:none;stroke:#000000;stroke-width:1px;stroke-linecap:butt;stroke-linejoin:miter;stroke-opacity:1" />
    <path
       inkscape:connector-curvature="0"
       id="path2987"
       d="m 128.57143,896.71801 0,114.99999"
       style="fill:none;stroke:#000000;stroke-width:1px;stroke-linecap:butt;stroke-linejoin:miter;stroke-opacity:1" />
    <path
       transform="translate(0,839.76245)"
       inkscape:connector-curvature="0"
       id="path2991"
       d="M 190.35714,72.241276 162.5,100.09842"
       style="fill:none;stroke:#000000;stroke-width:1px;stroke-linecap:butt;stroke-linejoin:miter;stroke-opacity:1;marker-end:url(#Arrow1Mend)" />
    <g
       id="g4216"
       ns0:preamble="/home/sriranga/Desktop/general-books/CSY/article4/figure/package.tex"
       ns0:text="$A$"
       transform="matrix(1.2,0,0,1.2,-74.843044,752.36128)">
      <defs
         id="defs4218">
        <g
           id="g4220">
          <symbol
             id="textext-2321577e-0"
             overflow="visible"
             style="overflow:visible">
            <path
               id="path4223"
               d=""
               style="stroke:none"
               inkscape:connector-curvature="0" />
          </symbol>
          <symbol
             id="textext-2321577e-1"
             overflow="visible"
             style="overflow:visible">
            <path
               id="path4226"
               d="M 5.625,-0.15625 C 5.046875,-0.203125 5,-0.296875 4.859375,-1.015625 l -0.9375,-5.640625 -0.25,0 -2.890625,4.984375 c -0.796875,1.328125 -0.890625,1.4375 -1.296875,1.515625 l 0,0.15625 1.875,0 0,-0.15625 c -0.515625,-0.046875 -0.59375,-0.109375 -0.59375,-0.359375 0,-0.1875 0.03125,-0.265625 0.203125,-0.609375 l 0.5625,-1.125 2.203125,0 0.1875,1.296875 c 0.015625,0.09375 0.03125,0.1875 0.03125,0.265625 0,0.375 -0.140625,0.46875 -0.78125,0.53125 L 3.171875,0 5.625,0 z m -3.875,-2.453125 1.484375,-2.59375 0.4375,2.59375 z m 0,0"
               style="stroke:none"
               inkscape:connector-curvature="0" />
          </symbol>
        </g>
      </defs>
      <g
         id="textext-2321577e-2">
        <g
           id="g4229"
           style="fill:#000000;fill-opacity:1">
          <use
             id="use4231"
             y="134.765"
             x="223.681"
             xlink:href="#textext-2321577e-1"
             width="283.46457"
             height="212.59842" />
        </g>
      </g>
    </g>
    <g
       ns0:text="$x$"
       ns0:preamble="/home/sriranga/Desktop/general-books/CSY/article4/figure/package.tex"
       transform="matrix(1.2,0,0,1.2,-38.272363,795.35372)"
       id="g4293">
      <defs
         id="defs4295">
        <g
           id="g4297">
          <symbol
             style="overflow:visible"
             overflow="visible"
             id="textext-e6acebdb-0">
            <path
               inkscape:connector-curvature="0"
               style="stroke:none"
               d=""
               id="path4300" />
          </symbol>
          <symbol
             style="overflow:visible"
             overflow="visible"
             id="textext-e6acebdb-1">
            <path
               inkscape:connector-curvature="0"
               style="stroke:none"
               d="M 4,-1.109375 C 3.921875,-1.015625 3.875,-0.953125 3.78125,-0.84375 3.5625,-0.53125 3.4375,-0.4375 3.328125,-0.4375 3.1875,-0.4375 3.09375,-0.5625 3.015625,-0.84375 3,-0.921875 2.984375,-0.984375 2.984375,-1.015625 2.734375,-2.03125 2.625,-2.484375 2.625,-2.625 c 0.4375,-0.78125 0.796875,-1.21875 0.96875,-1.21875 0.0625,0 0.140625,0.03125 0.25,0.078125 0.109375,0.078125 0.1875,0.09375 0.265625,0.09375 0.203125,0 0.34375,-0.140625 0.34375,-0.359375 0,-0.203125 -0.171875,-0.359375 -0.40625,-0.359375 -0.4375,0 -0.8125,0.359375 -1.5,1.421875 L 2.4375,-3.515625 c -0.140625,-0.6875 -0.25,-0.875 -0.53125,-0.875 -0.21875,0 -0.546875,0.078125 -1.15625,0.28125 L 0.640625,-4.0625 0.671875,-3.921875 C 1.0625,-4 1.140625,-4.03125 1.234375,-4.03125 c 0.25,0 0.3125,0.09375 0.453125,0.6875 l 0.28125,1.234375 -0.8125,1.15625 C 0.953125,-0.640625 0.75,-0.46875 0.640625,-0.46875 0.59375,-0.46875 0.484375,-0.5 0.390625,-0.5625 0.265625,-0.625 0.15625,-0.65625 0.0625,-0.65625 c -0.1875,0 -0.328125,0.140625 -0.328125,0.34375 0,0.265625 0.203125,0.421875 0.5,0.421875 0.296875,0 0.421875,-0.09375 0.921875,-0.703125 0.265625,-0.3125 0.484375,-0.578125 0.890625,-1.15625 l 0.3125,1.1875 c 0.125,0.515625 0.25,0.671875 0.578125,0.671875 0.375,0 0.625,-0.234375 1.203125,-1.140625 z m 0,0"
               id="path4303" />
          </symbol>
        </g>
      </defs>
      <g
         id="textext-e6acebdb-2">
        <g
           style="fill:#000000;fill-opacity:1"
           id="g4306">
          <use
             height="212.59842"
             width="283.46457"
             xlink:href="#textext-e6acebdb-1"
             x="223.92999"
             y="134.765"
             id="use4308" />
        </g>
      </g>
    </g>
    <g
       id="g4390"
       transform="matrix(1.2,0,0,1.2,-136.16358,737.06285)"
       ns0:preamble="/home/sriranga/Desktop/general-books/CSY/article4/figure/package.tex"
       ns0:text="$y$">
      <defs
         id="defs4392">
        <g
           id="g4394">
          <symbol
             id="textext-0ad2d66f-0"
             overflow="visible"
             style="overflow:visible">
            <path
               id="path4397"
               d=""
               style="stroke:none"
               inkscape:connector-curvature="0" />
          </symbol>
          <symbol
             id="textext-0ad2d66f-1"
             overflow="visible"
             style="overflow:visible">
            <path
               id="path4400"
               d="m 0.15625,-3.984375 c 0.125,-0.03125 0.1875,-0.046875 0.296875,-0.046875 0.578125,0 0.71875,0.25 1.1875,1.96875 0.15625,0.640625 0.40625,1.8125 0.40625,1.984375 0,0.15625 -0.0625,0.3125 -0.21875,0.5 -0.296875,0.40625 -0.5,0.671875 -0.609375,0.78125 C 1,1.421875 0.890625,1.5 0.75,1.5 0.703125,1.5 0.625,1.46875 0.515625,1.390625 0.375,1.28125 0.265625,1.21875 0.15625,1.21875 c -0.21875,0 -0.390625,0.171875 -0.390625,0.390625 0,0.25 0.21875,0.4375 0.5,0.4375 0.640625,0 1.953125,-1.484375 3.03125,-3.46875 C 3.96875,-2.640625 4.25,-3.359375 4.25,-3.84375 4.25,-4.140625 4,-4.390625 3.703125,-4.390625 3.46875,-4.390625 3.3125,-4.25 3.3125,-4.03125 c 0,0.15625 0.078125,0.265625 0.28125,0.390625 0.1875,0.109375 0.25,0.203125 0.25,0.34375 0,0.390625 -0.359375,1.171875 -1.21875,2.578125 L 2.4375,-1.875 C 2.28125,-2.75 1.71875,-4.390625 1.578125,-4.390625 l -0.046875,0 c 0,0 -0.046875,0 -0.078125,0 C 1.359375,-4.375 1,-4.3125 0.46875,-4.21875 c -0.046875,0.015625 -0.171875,0.046875 -0.3125,0.0625 z m 0,0"
               style="stroke:none"
               inkscape:connector-curvature="0" />
          </symbol>
        </g>
      </defs>
      <g
         id="textext-0ad2d66f-2">
        <g
           id="g4403"
           style="fill:#000000;fill-opacity:1">
          <use
             id="use4405"
             y="134.765"
             x="223.43201"
             xlink:href="#textext-0ad2d66f-1"
             width="283.46457"
             height="212.59842" />
        </g>
      </g>
    </g>
  </g>
</svg>
