<?xml version="1.0" encoding="UTF-8" standalone="no"?>
<!-- Created with Inkscape (http://www.inkscape.org/) -->

<svg
   xmlns:ns0="http://www.iki.fi/pav/software/textext/"
   xmlns:dc="http://purl.org/dc/elements/1.1/"
   xmlns:cc="http://creativecommons.org/ns#"
   xmlns:rdf="http://www.w3.org/1999/02/22-rdf-syntax-ns#"
   xmlns:svg="http://www.w3.org/2000/svg"
   xmlns="http://www.w3.org/2000/svg"
   xmlns:xlink="http://www.w3.org/1999/xlink"
   xmlns:sodipodi="http://sodipodi.sourceforge.net/DTD/sodipodi-0.dtd"
   xmlns:inkscape="http://www.inkscape.org/namespaces/inkscape"
   width="283.46457"
   height="212.59842"
   id="svg2"
   version="1.1"
   inkscape:version="0.48.4 r9939"
   sodipodi:docname="fig1.eps">
  <sodipodi:namedview
     id="base"
     pagecolor="#ffffff"
     bordercolor="#666666"
     borderopacity="1.0"
     inkscape:pageopacity="0.0"
     inkscape:pageshadow="2"
     inkscape:zoom="2.7070866"
     inkscape:cx="112.28872"
     inkscape:cy="55.497842"
     inkscape:document-units="px"
     inkscape:current-layer="layer1"
     showgrid="false"
     units="cm"
     inkscape:window-width="1024"
     inkscape:window-height="744"
     inkscape:window-x="0"
     inkscape:window-y="24"
     inkscape:window-maximized="1" />
  <defs
     id="defs4">
    <marker
       style="overflow:visible"
       id="Arrow1Mstart"
       refX="0.0"
       refY="0.0"
       orient="auto"
       inkscape:stockid="Arrow1Mstart">
      <path
         transform="scale(0.4) translate(10,0)"
         style="fill-rule:evenodd;stroke:#000000;stroke-width:1.0pt"
         d="M 0.0,0.0 L 5.0,-5.0 L -12.5,0.0 L 5.0,5.0 L 0.0,0.0 z "
         id="path3771" />
    </marker>
    <marker
       style="overflow:visible;"
       id="Arrow1Mend"
       refX="0.0"
       refY="0.0"
       orient="auto"
       inkscape:stockid="Arrow1Mend">
      <path
         transform="scale(0.4) rotate(180) translate(10,0)"
         style="fill-rule:evenodd;stroke:#000000;stroke-width:1.0pt;"
         d="M 0.0,0.0 L 5.0,-5.0 L -12.5,0.0 L 5.0,5.0 L 0.0,0.0 z "
         id="path3774" />
    </marker>
  </defs>
  <metadata
     id="metadata7">
    <rdf:RDF>
      <cc:Work
         rdf:about="">
        <dc:format>image/svg+xml</dc:format>
        <dc:type
           rdf:resource="http://purl.org/dc/dcmitype/StillImage" />
        <dc:title></dc:title>
      </cc:Work>
    </rdf:RDF>
  </metadata>
  <g
     transform="translate(0,-839.76245)"
     id="layer1"
     inkscape:groupmode="layer"
     inkscape:label="Layer 1">
    <g
       id="g4216"
       ns0:preamble="/home/sriranga/Desktop/general-books/CSY/article4/figure/package.tex"
       ns0:text="$A$"
       transform="matrix(1.2,0,0,1.2,-122.97015,815.76789)">
      <defs
         id="defs4218">
        <g
           id="g4220">
          <symbol
             id="textext-2321577e-0"
             overflow="visible"
             style="overflow:visible">
            <path
               id="path4223"
               d=""
               style="stroke:none"
               inkscape:connector-curvature="0" />
          </symbol>
          <symbol
             id="textext-2321577e-1"
             overflow="visible"
             style="overflow:visible">
            <path
               id="path4226"
               d="M 5.625,-0.15625 C 5.046875,-0.203125 5,-0.296875 4.859375,-1.015625 l -0.9375,-5.640625 -0.25,0 -2.890625,4.984375 c -0.796875,1.328125 -0.890625,1.4375 -1.296875,1.515625 l 0,0.15625 1.875,0 0,-0.15625 c -0.515625,-0.046875 -0.59375,-0.109375 -0.59375,-0.359375 0,-0.1875 0.03125,-0.265625 0.203125,-0.609375 l 0.5625,-1.125 2.203125,0 0.1875,1.296875 c 0.015625,0.09375 0.03125,0.1875 0.03125,0.265625 0,0.375 -0.140625,0.46875 -0.78125,0.53125 L 3.171875,0 5.625,0 z m -3.875,-2.453125 1.484375,-2.59375 0.4375,2.59375 z m 0,0"
               style="stroke:none"
               inkscape:connector-curvature="0" />
          </symbol>
        </g>
      </defs>
      <g
         id="textext-2321577e-2">
        <g
           id="g4229"
           style="fill:#000000;fill-opacity:1">
          <use
             id="use4231"
             y="134.765"
             x="223.681"
             xlink:href="#textext-2321577e-1"
             width="283.46457"
             height="212.59842" />
        </g>
      </g>
    </g>
    <g
       ns0:text="$x$"
       ns0:preamble="/home/sriranga/Desktop/general-books/CSY/article4/figure/package.tex"
       transform="matrix(1.2,0,0,1.2,-173.42056,813.56442)"
       id="g4293">
      <defs
         id="defs4295">
        <g
           id="g4297">
          <symbol
             style="overflow:visible"
             overflow="visible"
             id="textext-e6acebdb-0">
            <path
               inkscape:connector-curvature="0"
               style="stroke:none"
               d=""
               id="path4300" />
          </symbol>
          <symbol
             style="overflow:visible"
             overflow="visible"
             id="textext-e6acebdb-1">
            <path
               inkscape:connector-curvature="0"
               style="stroke:none"
               d="M 4,-1.109375 C 3.921875,-1.015625 3.875,-0.953125 3.78125,-0.84375 3.5625,-0.53125 3.4375,-0.4375 3.328125,-0.4375 3.1875,-0.4375 3.09375,-0.5625 3.015625,-0.84375 3,-0.921875 2.984375,-0.984375 2.984375,-1.015625 2.734375,-2.03125 2.625,-2.484375 2.625,-2.625 c 0.4375,-0.78125 0.796875,-1.21875 0.96875,-1.21875 0.0625,0 0.140625,0.03125 0.25,0.078125 0.109375,0.078125 0.1875,0.09375 0.265625,0.09375 0.203125,0 0.34375,-0.140625 0.34375,-0.359375 0,-0.203125 -0.171875,-0.359375 -0.40625,-0.359375 -0.4375,0 -0.8125,0.359375 -1.5,1.421875 L 2.4375,-3.515625 c -0.140625,-0.6875 -0.25,-0.875 -0.53125,-0.875 -0.21875,0 -0.546875,0.078125 -1.15625,0.28125 L 0.640625,-4.0625 0.671875,-3.921875 C 1.0625,-4 1.140625,-4.03125 1.234375,-4.03125 c 0.25,0 0.3125,0.09375 0.453125,0.6875 l 0.28125,1.234375 -0.8125,1.15625 C 0.953125,-0.640625 0.75,-0.46875 0.640625,-0.46875 0.59375,-0.46875 0.484375,-0.5 0.390625,-0.5625 0.265625,-0.625 0.15625,-0.65625 0.0625,-0.65625 c -0.1875,0 -0.328125,0.140625 -0.328125,0.34375 0,0.265625 0.203125,0.421875 0.5,0.421875 0.296875,0 0.421875,-0.09375 0.921875,-0.703125 0.265625,-0.3125 0.484375,-0.578125 0.890625,-1.15625 l 0.3125,1.1875 c 0.125,0.515625 0.25,0.671875 0.578125,0.671875 0.375,0 0.625,-0.234375 1.203125,-1.140625 z m 0,0"
               id="path4303" />
          </symbol>
        </g>
      </defs>
      <g
         id="textext-e6acebdb-2">
        <g
           style="fill:#000000;fill-opacity:1"
           id="g4306">
          <use
             height="212.59842"
             width="283.46457"
             xlink:href="#textext-e6acebdb-1"
             x="223.92999"
             y="134.765"
             id="use4308" />
        </g>
      </g>
    </g>
    <path
       style="fill:none;stroke:#000000;stroke-width:1px;stroke-linecap:butt;stroke-linejoin:miter;stroke-opacity:1"
       d="m 79.697764,949.72181 c 22.807486,-2.96258 19.696603,-87.47369 53.086896,-87.91739 33.22168,-0.44146 31.08047,83.75122 53.62513,88.10209"
       id="path4490"
       inkscape:connector-curvature="0"
       sodipodi:nodetypes="csc" />
    <path
       sodipodi:nodetypes="cccc"
       inkscape:connector-curvature="0"
       id="path4494"
       d="m 90.488517,940.18813 c 9.22593,-7.91066 15.625293,-80.68372 42.480843,-77.93564 25.14652,-1.49781 28.61053,50.01834 43.0675,79.95153 -3.11301,8.46929 -92.512495,3.95544 -85.548343,-2.01589 z"
       style="fill:#b3b3b3;stroke:#000000;stroke-width:0.5;stroke-linecap:butt;stroke-linejoin:miter;stroke-miterlimit:4;stroke-opacity:1;stroke-dasharray:none" />
    <path
       sodipodi:type="arc"
       style="fill:#808080;fill-opacity:1;stroke:#000000;stroke-width:0.51181978;stroke-linecap:round;stroke-linejoin:miter;stroke-miterlimit:4;stroke-opacity:1;stroke-dasharray:none;stroke-dashoffset:0"
       id="path4496"
       sodipodi:cx="114.93056"
       sodipodi:cy="168.19344"
       sodipodi:rx="19.329231"
       sodipodi:ry="9.6646156"
       d="m 134.25979,168.19344 c 0,5.33762 -8.65399,9.66461 -19.32923,9.66461 -10.67524,0 -19.329234,-4.32699 -19.329234,-9.66461 0,-5.33762 8.653994,-9.66462 19.329234,-9.66462 10.67524,0 19.32923,4.327 19.32923,9.66462 z"
       transform="matrix(1.054054,0,0,0.90540538,11.982298,793.24447)" />
    <path
       style="fill:none;stroke:#000000;stroke-width:1px;stroke-linecap:butt;stroke-linejoin:miter;stroke-opacity:1"
       d="m 133.21498,850.44877 0,95.07895 -32.65074,22.72483"
       id="path4492"
       inkscape:connector-curvature="0"
       sodipodi:nodetypes="ccc" />
    <path
       sodipodi:nodetypes="cc"
       style="fill:none;stroke:#000000;stroke-width:1px;stroke-linecap:butt;stroke-linejoin:miter;stroke-opacity:1"
       d="m 133.34558,945.52767 42.70715,16.32537"
       id="path4498"
       inkscape:connector-curvature="0" />
    <path
       style="fill:none;stroke:#000000;stroke-width:1px;stroke-linecap:butt;stroke-linejoin:miter;stroke-opacity:1"
       d="m 106.65183,890.24828 0,54.30192"
       id="path4500"
       inkscape:connector-curvature="0" />
    <path
       inkscape:connector-curvature="0"
       id="path4502"
       d="m 166.65183,915.36754 0,29.18266"
       style="fill:none;stroke:#000000;stroke-width:1px;stroke-linecap:butt;stroke-linejoin:miter;stroke-opacity:1"
       sodipodi:nodetypes="cc" />
    <path
       sodipodi:nodetypes="cc"
       style="fill:none;stroke:#000000;stroke-width:1px;stroke-linecap:butt;stroke-linejoin:miter;stroke-opacity:1;marker-end:url(#Arrow1Mend)"
       d="M 88.342484,987.76241 115.88685,909.08772"
       id="path4504"
       inkscape:connector-curvature="0" />
    <g
       ns0:text="$y$"
       ns0:preamble="/home/sriranga/Desktop/general-books/CSY/article4/figure/package.tex"
       transform="matrix(1.2,0,0,1.2,-88.439936,805.51205)"
       id="g4743">
      <defs
         id="defs4745">
        <g
           id="g4747">
          <symbol
             style="overflow:visible"
             overflow="visible"
             id="textext-0ad2d66f-0">
            <path
               inkscape:connector-curvature="0"
               style="stroke:none"
               d=""
               id="path4750" />
          </symbol>
          <symbol
             style="overflow:visible"
             overflow="visible"
             id="textext-0ad2d66f-1">
            <path
               inkscape:connector-curvature="0"
               style="stroke:none"
               d="m 0.15625,-3.984375 c 0.125,-0.03125 0.1875,-0.046875 0.296875,-0.046875 0.578125,0 0.71875,0.25 1.1875,1.96875 0.15625,0.640625 0.40625,1.8125 0.40625,1.984375 0,0.15625 -0.0625,0.3125 -0.21875,0.5 -0.296875,0.40625 -0.5,0.671875 -0.609375,0.78125 C 1,1.421875 0.890625,1.5 0.75,1.5 0.703125,1.5 0.625,1.46875 0.515625,1.390625 0.375,1.28125 0.265625,1.21875 0.15625,1.21875 c -0.21875,0 -0.390625,0.171875 -0.390625,0.390625 0,0.25 0.21875,0.4375 0.5,0.4375 0.640625,0 1.953125,-1.484375 3.03125,-3.46875 C 3.96875,-2.640625 4.25,-3.359375 4.25,-3.84375 4.25,-4.140625 4,-4.390625 3.703125,-4.390625 3.46875,-4.390625 3.3125,-4.25 3.3125,-4.03125 c 0,0.15625 0.078125,0.265625 0.28125,0.390625 0.1875,0.109375 0.25,0.203125 0.25,0.34375 0,0.390625 -0.359375,1.171875 -1.21875,2.578125 L 2.4375,-1.875 C 2.28125,-2.75 1.71875,-4.390625 1.578125,-4.390625 l -0.046875,0 c 0,0 -0.046875,0 -0.078125,0 C 1.359375,-4.375 1,-4.3125 0.46875,-4.21875 c -0.046875,0.015625 -0.171875,0.046875 -0.3125,0.0625 z m 0,0"
               id="path4753" />
          </symbol>
        </g>
      </defs>
      <g
         id="textext-0ad2d66f-2">
        <g
           style="fill:#000000;fill-opacity:1"
           id="g4756">
          <use
             height="212.59842"
             width="283.46457"
             xlink:href="#textext-0ad2d66f-1"
             x="223.43201"
             y="134.765"
             id="use4758" />
        </g>
      </g>
    </g>
    <g
       id="g4868"
       transform="matrix(1.2,0,0,1.2,-132.53328,689.24811)"
       ns0:preamble="/home/sriranga/Desktop/general-books/CSY/article4/figure/package.tex"
       ns0:text="$z$">
      <defs
         id="defs4870">
        <g
           id="g4872">
          <symbol
             id="textext-726555d1-0"
             overflow="visible"
             style="overflow:visible">
            <path
               id="path4875"
               d=""
               style="stroke:none"
               inkscape:connector-curvature="0" />
          </symbol>
          <symbol
             id="textext-726555d1-1"
             overflow="visible"
             style="overflow:visible">
            <path
               id="path4878"
               d="m 0.8125,-3.078125 c 0.203125,-0.5 0.328125,-0.59375 0.796875,-0.59375 l 1.46875,0 -3.09375,3.71875 L 0.0625,0.125 C 0.234375,0 0.359375,-0.046875 0.53125,-0.046875 c 0.234375,0 0.5625,0.125 1.03125,0.421875 0.5,0.296875 0.84375,0.4375 1.125,0.4375 0.5,0 0.9375,-0.359375 0.9375,-0.765625 C 3.625,-0.15625 3.484375,-0.3125 3.265625,-0.3125 3.078125,-0.3125 2.9375,-0.171875 2.9375,0 c 0,0.09375 0.015625,0.1875 0.078125,0.296875 0.03125,0.0625 0.0625,0.125 0.0625,0.15625 0,0.078125 -0.125,0.140625 -0.28125,0.140625 -0.25,0 -0.359375,-0.078125 -0.6875,-0.5 -0.4375,-0.5625 -0.640625,-0.6875 -1.21875,-0.828125 l 2.890625,-3.421875 0,-0.109375 -2.828125,0 -0.3125,1.140625 z m 0,0"
               style="stroke:none"
               inkscape:connector-curvature="0" />
          </symbol>
        </g>
      </defs>
      <g
         id="textext-726555d1-2">
        <g
           id="g4881"
           style="fill:#000000;fill-opacity:1">
          <use
             id="use4883"
             y="134.765"
             x="223.43201"
             xlink:href="#textext-726555d1-1"
             width="283.46457"
             height="212.59842" />
        </g>
      </g>
    </g>
    <g
       ns0:text="$z=f_{X,Y}(x,y)$"
       ns0:preamble="/home/sriranga/Desktop/general-books/CSY/article4/figure/package.tex"
       transform="matrix(1.2,0,0,1.2,-91.794481,735.80774)"
       id="g5013">
      <defs
         id="defs5015">
        <g
           id="g5017">
          <symbol
             style="overflow:visible"
             overflow="visible"
             id="textext-2a78eebe-0">
            <path
               inkscape:connector-curvature="0"
               style="stroke:none"
               d=""
               id="path5020" />
          </symbol>
          <symbol
             style="overflow:visible"
             overflow="visible"
             id="textext-2a78eebe-1">
            <path
               inkscape:connector-curvature="0"
               style="stroke:none"
               d="m 0.8125,-3.078125 c 0.203125,-0.5 0.328125,-0.59375 0.796875,-0.59375 l 1.46875,0 -3.09375,3.71875 L 0.0625,0.125 C 0.234375,0 0.359375,-0.046875 0.53125,-0.046875 c 0.234375,0 0.5625,0.125 1.03125,0.421875 0.5,0.296875 0.84375,0.4375 1.125,0.4375 0.5,0 0.9375,-0.359375 0.9375,-0.765625 C 3.625,-0.15625 3.484375,-0.3125 3.265625,-0.3125 3.078125,-0.3125 2.9375,-0.171875 2.9375,0 c 0,0.09375 0.015625,0.1875 0.078125,0.296875 0.03125,0.0625 0.0625,0.125 0.0625,0.15625 0,0.078125 -0.125,0.140625 -0.28125,0.140625 -0.25,0 -0.359375,-0.078125 -0.6875,-0.5 -0.4375,-0.5625 -0.640625,-0.6875 -1.21875,-0.828125 l 2.890625,-3.421875 0,-0.109375 -2.828125,0 -0.3125,1.140625 z m 0,0"
               id="path5023" />
          </symbol>
          <symbol
             style="overflow:visible"
             overflow="visible"
             id="textext-2a78eebe-2">
            <path
               inkscape:connector-curvature="0"
               style="stroke:none"
               d="m 0.34375,-3.953125 0.90625,0 -0.875,4.1875 c -0.21875,1.078125 -0.546875,1.625 -0.96875,1.625 -0.125,0 -0.203125,-0.078125 -0.203125,-0.171875 0,-0.015625 0.015625,-0.046875 0.046875,-0.109375 0.03125,-0.046875 0.046875,-0.09375 0.046875,-0.15625 0,-0.203125 -0.1875,-0.375 -0.390625,-0.375 -0.21875,0 -0.375,0.171875 -0.375,0.40625 0,0.34375 0.359375,0.609375 0.796875,0.609375 0.875,0 1.578125,-0.984375 1.984375,-2.8125 l 0.71875,-3.203125 1.09375,0 0.0625,-0.3125 -1.078125,0 c 0.28125,-1.5625 0.65625,-2.28125 1.203125,-2.28125 0.140625,0 0.21875,0.0625 0.21875,0.125 0,0.03125 0,0.046875 -0.03125,0.109375 -0.046875,0.078125 -0.0625,0.125 -0.0625,0.203125 0,0.234375 0.15625,0.390625 0.375,0.390625 0.21875,0 0.421875,-0.171875 0.421875,-0.390625 0,-0.375 -0.375,-0.65625 -0.859375,-0.65625 -0.5,0 -0.875,0.21875 -1.234375,0.6875 -0.3125,0.390625 -0.5,0.859375 -0.8125,1.8125 l -0.90625,0 z m 0,0"
               id="path5026" />
          </symbol>
          <symbol
             style="overflow:visible"
             overflow="visible"
             id="textext-2a78eebe-3">
            <path
               inkscape:connector-curvature="0"
               style="stroke:none"
               d="M 4,-1.109375 C 3.921875,-1.015625 3.875,-0.953125 3.78125,-0.84375 3.5625,-0.53125 3.4375,-0.4375 3.328125,-0.4375 3.1875,-0.4375 3.09375,-0.5625 3.015625,-0.84375 3,-0.921875 2.984375,-0.984375 2.984375,-1.015625 2.734375,-2.03125 2.625,-2.484375 2.625,-2.625 c 0.4375,-0.78125 0.796875,-1.21875 0.96875,-1.21875 0.0625,0 0.140625,0.03125 0.25,0.078125 0.109375,0.078125 0.1875,0.09375 0.265625,0.09375 0.203125,0 0.34375,-0.140625 0.34375,-0.359375 0,-0.203125 -0.171875,-0.359375 -0.40625,-0.359375 -0.4375,0 -0.8125,0.359375 -1.5,1.421875 L 2.4375,-3.515625 c -0.140625,-0.6875 -0.25,-0.875 -0.53125,-0.875 -0.21875,0 -0.546875,0.078125 -1.15625,0.28125 L 0.640625,-4.0625 0.671875,-3.921875 C 1.0625,-4 1.140625,-4.03125 1.234375,-4.03125 c 0.25,0 0.3125,0.09375 0.453125,0.6875 l 0.28125,1.234375 -0.8125,1.15625 C 0.953125,-0.640625 0.75,-0.46875 0.640625,-0.46875 0.59375,-0.46875 0.484375,-0.5 0.390625,-0.5625 0.265625,-0.625 0.15625,-0.65625 0.0625,-0.65625 c -0.1875,0 -0.328125,0.140625 -0.328125,0.34375 0,0.265625 0.203125,0.421875 0.5,0.421875 0.296875,0 0.421875,-0.09375 0.921875,-0.703125 0.265625,-0.3125 0.484375,-0.578125 0.890625,-1.15625 l 0.3125,1.1875 c 0.125,0.515625 0.25,0.671875 0.578125,0.671875 0.375,0 0.625,-0.234375 1.203125,-1.140625 z m 0,0"
               id="path5029" />
          </symbol>
          <symbol
             style="overflow:visible"
             overflow="visible"
             id="textext-2a78eebe-4">
            <path
               inkscape:connector-curvature="0"
               style="stroke:none"
               d="m 0.15625,-3.984375 c 0.125,-0.03125 0.1875,-0.046875 0.296875,-0.046875 0.578125,0 0.71875,0.25 1.1875,1.96875 0.15625,0.640625 0.40625,1.8125 0.40625,1.984375 0,0.15625 -0.0625,0.3125 -0.21875,0.5 -0.296875,0.40625 -0.5,0.671875 -0.609375,0.78125 C 1,1.421875 0.890625,1.5 0.75,1.5 0.703125,1.5 0.625,1.46875 0.515625,1.390625 0.375,1.28125 0.265625,1.21875 0.15625,1.21875 c -0.21875,0 -0.390625,0.171875 -0.390625,0.390625 0,0.25 0.21875,0.4375 0.5,0.4375 0.640625,0 1.953125,-1.484375 3.03125,-3.46875 C 3.96875,-2.640625 4.25,-3.359375 4.25,-3.84375 4.25,-4.140625 4,-4.390625 3.703125,-4.390625 3.46875,-4.390625 3.3125,-4.25 3.3125,-4.03125 c 0,0.15625 0.078125,0.265625 0.28125,0.390625 0.1875,0.109375 0.25,0.203125 0.25,0.34375 0,0.390625 -0.359375,1.171875 -1.21875,2.578125 L 2.4375,-1.875 C 2.28125,-2.75 1.71875,-4.390625 1.578125,-4.390625 l -0.046875,0 c 0,0 -0.046875,0 -0.078125,0 C 1.359375,-4.375 1,-4.3125 0.46875,-4.21875 c -0.046875,0.015625 -0.171875,0.046875 -0.3125,0.0625 z m 0,0"
               id="path5032" />
          </symbol>
          <symbol
             style="overflow:visible"
             overflow="visible"
             id="textext-2a78eebe-5">
            <path
               inkscape:connector-curvature="0"
               style="stroke:none"
               d=""
               id="path5035" />
          </symbol>
          <symbol
             style="overflow:visible"
             overflow="visible"
             id="textext-2a78eebe-6">
            <path
               inkscape:connector-curvature="0"
               style="stroke:none"
               d="m 5.71875,-3.296875 0,-0.546875 -5.09375,0 0,0.546875 z m 0,2.03125 0,-0.5625 -5.09375,0 0,0.5625 z m 0,0"
               id="path5038" />
          </symbol>
          <symbol
             style="overflow:visible"
             overflow="visible"
             id="textext-2a78eebe-7">
            <path
               inkscape:connector-curvature="0"
               style="stroke:none"
               d=""
               id="path5041" />
          </symbol>
          <symbol
             style="overflow:visible"
             overflow="visible"
             id="textext-2a78eebe-8">
            <path
               inkscape:connector-curvature="0"
               style="stroke:none"
               d="m 4.5625,-4.546875 -1.453125,0 0,0.109375 c 0.34375,0.046875 0.4375,0.09375 0.4375,0.25 0,0.09375 -0.046875,0.171875 -0.140625,0.28125 l -1.015625,1.171875 -0.40625,-1.03125 C 1.90625,-3.9375 1.875,-4.0625 1.875,-4.15625 c 0,-0.171875 0.109375,-0.234375 0.5,-0.28125 l 0,-0.109375 -1.84375,0 0,0.109375 c 0.40625,0.03125 0.5,0.109375 0.640625,0.421875 L 1.90625,-2.1875 c -0.25,0.296875 -0.484375,0.578125 -0.578125,0.6875 -0.96875,1.140625 -1.15625,1.3125 -1.53125,1.390625 l 0,0.109375 1.5,0 0,-0.109375 c -0.34375,0 -0.453125,-0.0625 -0.453125,-0.234375 0,-0.109375 0.046875,-0.234375 0.140625,-0.328125 L 2.03125,-1.875 2.5,-0.71875 c 0.046875,0.125 0.078125,0.234375 0.078125,0.328125 0,0.203125 -0.0625,0.25 -0.53125,0.28125 l 0,0.109375 1.90625,0 0,-0.109375 C 3.46875,-0.171875 3.40625,-0.203125 3.21875,-0.625 L 2.515625,-2.421875 3.6875,-3.78125 c 0.375,-0.40625 0.578125,-0.5625 0.875,-0.65625 z m 0,0"
               id="path5044" />
          </symbol>
          <symbol
             style="overflow:visible"
             overflow="visible"
             id="textext-2a78eebe-9">
            <path
               inkscape:connector-curvature="0"
               style="stroke:none"
               d="m 0.640625,-4.4375 c 0.390625,0.046875 0.40625,0.078125 0.515625,0.453125 l 0.546875,1.875 L 1.28125,-0.625 C 1.15625,-0.25 1,-0.140625 0.546875,-0.109375 l 0,0.109375 2.015625,0 0,-0.109375 C 2.453125,-0.125 2.34375,-0.125 2.3125,-0.125 2.03125,-0.140625 1.9375,-0.21875 1.9375,-0.390625 c 0,-0.140625 0.046875,-0.359375 0.21875,-0.90625 0.015625,-0.0625 0.03125,-0.109375 0.03125,-0.125 L 2.390625,-2.125 3.921875,-4.015625 C 4.140625,-4.296875 4.203125,-4.34375 4.40625,-4.4375 l 0,-0.109375 -1.3125,0 0,0.109375 c 0.078125,0 0.15625,0.015625 0.1875,0.015625 0.203125,0.03125 0.296875,0.078125 0.296875,0.203125 0,0.1875 -0.328125,0.640625 -1.046875,1.484375 -0.125,0.140625 -0.15625,0.1875 -0.265625,0.3125 C 2.1875,-2.71875 2.15625,-2.8125 2.046875,-3.1875 c -0.171875,-0.59375 -0.25,-0.890625 -0.25,-1 0,-0.171875 0.078125,-0.203125 0.5,-0.25 l 0,-0.109375 -1.65625,0 z m 0,0"
               id="path5047" />
          </symbol>
          <symbol
             style="overflow:visible"
             overflow="visible"
             id="textext-2a78eebe-10">
            <path
               inkscape:connector-curvature="0"
               style="stroke:none"
               d=""
               id="path5050" />
          </symbol>
          <symbol
             style="overflow:visible"
             overflow="visible"
             id="textext-2a78eebe-11">
            <path
               inkscape:connector-curvature="0"
               style="stroke:none"
               d="m 1.359375,-0.046875 c 0,-0.578125 -0.40625,-0.65625 -0.5625,-0.65625 -0.171875,0 -0.40625,0.09375 -0.40625,0.390625 0,0.28125 0.25,0.359375 0.4375,0.359375 0.046875,0 0.078125,-0.015625 0.09375,-0.015625 0.03125,-0.015625 0.046875,-0.015625 0.0625,-0.015625 0.046875,0 0.109375,0.03125 0.109375,0.09375 0,0.140625 -0.125,0.453125 -0.578125,0.734375 l 0.0625,0.140625 c 0.203125,-0.078125 0.78125,-0.53125 0.78125,-1.03125 z m 0,0"
               id="path5053" />
          </symbol>
          <symbol
             style="overflow:visible"
             overflow="visible"
             id="textext-2a78eebe-12">
            <path
               inkscape:connector-curvature="0"
               style="stroke:none"
               d=""
               id="path5056" />
          </symbol>
          <symbol
             style="overflow:visible"
             overflow="visible"
             id="textext-2a78eebe-13">
            <path
               inkscape:connector-curvature="0"
               style="stroke:none"
               d="M 2.9375,-6.734375 C 2.203125,-6.265625 1.90625,-6 1.53125,-5.546875 c -0.703125,0.875 -1.046875,1.875 -1.046875,3.03125 0,1.265625 0.359375,2.25 1.234375,3.265625 0.421875,0.46875 0.671875,0.703125 1.1875,1.015625 l 0.125,-0.15625 C 2.234375,0.984375 1.953125,0.625 1.6875,-0.125 1.453125,-0.78125 1.328125,-1.546875 1.328125,-2.546875 1.328125,-3.59375 1.46875,-4.40625 1.734375,-5.03125 2.015625,-5.640625 2.3125,-6 3.03125,-6.578125 z m 0,0"
               id="path5059" />
          </symbol>
          <symbol
             style="overflow:visible"
             overflow="visible"
             id="textext-2a78eebe-14">
            <path
               inkscape:connector-curvature="0"
               style="stroke:none"
               d="M 0.375,1.765625 C 1.109375,1.28125 1.421875,1.03125 1.78125,0.5625 2.5,-0.296875 2.84375,-1.296875 2.84375,-2.46875 c 0,-1.265625 -0.375,-2.234375 -1.25,-3.25 C 1.1875,-6.203125 0.921875,-6.421875 0.40625,-6.734375 l -0.109375,0.15625 c 0.796875,0.625 1.0625,0.96875 1.34375,1.71875 0.234375,0.671875 0.34375,1.4375 0.34375,2.421875 0,1.046875 -0.125,1.875 -0.40625,2.484375 C 1.3125,0.671875 1,1.03125 0.296875,1.609375 z m 0,0"
               id="path5062" />
          </symbol>
          <symbol
             style="overflow:visible"
             overflow="visible"
             id="textext-2a78eebe-15">
            <path
               inkscape:connector-curvature="0"
               style="stroke:none"
               d=""
               id="path5065" />
          </symbol>
          <symbol
             style="overflow:visible"
             overflow="visible"
             id="textext-2a78eebe-16">
            <path
               inkscape:connector-curvature="0"
               style="stroke:none"
               d="m 1.9375,-0.0625 c 0,-0.828125 -0.578125,-0.953125 -0.796875,-0.953125 -0.25,0 -0.578125,0.140625 -0.578125,0.578125 0,0.390625 0.359375,0.5 0.609375,0.5 0.078125,0 0.125,-0.015625 0.15625,-0.015625 0.03125,-0.015625 0.0625,-0.03125 0.09375,-0.03125 0.0625,0 0.140625,0.046875 0.140625,0.140625 0,0.1875 -0.171875,0.640625 -0.828125,1.0625 l 0.09375,0.1875 C 1.125,1.3125 1.9375,0.640625 1.9375,-0.0625 z m 0,0"
               id="path5068" />
          </symbol>
        </g>
      </defs>
      <g
         id="textext-2a78eebe-17">
        <g
           style="fill:#000000;fill-opacity:1"
           id="g5071">
          <use
             height="212.59842"
             width="283.46457"
             xlink:href="#textext-2a78eebe-1"
             x="223.43201"
             y="134.765"
             id="use5073" />
        </g>
        <g
           style="fill:#000000;fill-opacity:1"
           id="g5075">
          <use
             height="212.59842"
             width="283.46457"
             xlink:href="#textext-2a78eebe-6"
             x="230.075"
             y="134.765"
             id="use5077" />
        </g>
        <g
           style="fill:#000000;fill-opacity:1"
           id="g5079">
          <use
             height="212.59842"
             width="283.46457"
             xlink:href="#textext-2a78eebe-2"
             x="240.673"
             y="134.765"
             id="use5081" />
        </g>
        <g
           style="fill:#000000;fill-opacity:1"
           id="g5083">
          <use
             height="212.59842"
             width="283.46457"
             xlink:href="#textext-2a78eebe-8"
             x="243.617"
             y="136.259"
             id="use5085" />
        </g>
        <g
           style="fill:#000000;fill-opacity:1"
           id="g5087">
          <use
             height="212.59842"
             width="283.46457"
             xlink:href="#textext-2a78eebe-11"
             x="247.80099"
             y="136.259"
             id="use5089" />
        </g>
        <g
           style="fill:#000000;fill-opacity:1"
           id="g5091">
          <use
             height="212.59842"
             width="283.46457"
             xlink:href="#textext-2a78eebe-9"
             x="249.545"
             y="136.259"
             id="use5093" />
        </g>
        <g
           style="fill:#000000;fill-opacity:1"
           id="g5095">
          <use
             height="212.59842"
             width="283.46457"
             xlink:href="#textext-2a78eebe-13"
             x="254.457"
             y="134.765"
             id="use5097" />
        </g>
        <g
           style="fill:#000000;fill-opacity:1"
           id="g5099">
          <use
             height="212.59842"
             width="283.46457"
             xlink:href="#textext-2a78eebe-3"
             x="258.27301"
             y="134.765"
             id="use5101" />
        </g>
        <g
           style="fill:#000000;fill-opacity:1"
           id="g5103">
          <use
             height="212.59842"
             width="283.46457"
             xlink:href="#textext-2a78eebe-16"
             x="262.72601"
             y="134.765"
             id="use5105" />
        </g>
        <g
           style="fill:#000000;fill-opacity:1"
           id="g5107">
          <use
             height="212.59842"
             width="283.46457"
             xlink:href="#textext-2a78eebe-4"
             x="266.87701"
             y="134.765"
             id="use5109" />
        </g>
        <g
           style="fill:#000000;fill-opacity:1"
           id="g5111">
          <use
             height="212.59842"
             width="283.46457"
             xlink:href="#textext-2a78eebe-14"
             x="271.30099"
             y="134.765"
             id="use5113" />
        </g>
      </g>
    </g>
    <path
       sodipodi:nodetypes="csc"
       inkscape:connector-curvature="0"
       id="path5228"
       d="m 132.50989,950.27592 c 0,0 -5.9609,17.00512 -1.10821,22.16408 2.40591,2.5577 11.08203,1.7546 11.08203,1.7546"
       style="fill:none;stroke:#000000;stroke-width:1px;stroke-linecap:butt;stroke-linejoin:miter;stroke-opacity:1;marker-start:url(#Arrow1Mstart)" />
    <g
       id="g5654"
       transform="matrix(1.2,0,0,1.2,-226.57669,836.58362)"
       ns0:preamble="/home/sriranga/Desktop/general-books/CSY/article4/figure/package.tex"
       ns0:text="$P((X,Y)\\in A)$ = the \\underline{volume} under the graph of $f$ and above the region $A$.">
      <defs
         id="defs5656">
        <g
           id="g5658">
          <symbol
             id="textext-5654c45b-0"
             overflow="visible"
             style="overflow:visible">
            <path
               id="path5661"
               d=""
               style="stroke:none"
               inkscape:connector-curvature="0" />
          </symbol>
          <symbol
             id="textext-5654c45b-1"
             overflow="visible"
             style="overflow:visible">
            <path
               id="path5664"
               d="M 1.453125,-6.34375 C 2.03125,-6.28125 2.15625,-6.1875 2.15625,-5.9375 2.15625,-5.796875 2.125,-5.578125 2,-5.140625 l -1.1875,4.25 C 0.640625,-0.296875 0.5625,-0.234375 0,-0.15625 L 0,0 l 2.4375,0 0,-0.15625 C 1.8125,-0.25 1.765625,-0.28125 1.765625,-0.625 c 0,-0.109375 0.015625,-0.21875 0.125,-0.578125 L 2.40625,-3.125 c 0.25,0.0625 0.515625,0.078125 0.921875,0.078125 0.8125,0 1.484375,-0.15625 1.921875,-0.46875 0.484375,-0.375 0.78125,-0.921875 0.78125,-1.515625 0,-0.953125 -0.75,-1.484375 -2.109375,-1.484375 l -2.46875,0 z m 1.75,0.40625 c 0.0625,-0.203125 0.1875,-0.265625 0.46875,-0.265625 0.390625,0 0.765625,0.09375 0.96875,0.234375 C 4.890625,-5.796875 5,-5.5 5,-5.03125 c 0,0.65625 -0.21875,1.109375 -0.65625,1.375 -0.3125,0.171875 -0.703125,0.25 -1.328125,0.25 -0.171875,0 -0.25,-0.015625 -0.515625,-0.046875 z m 0,0"
               style="stroke:none"
               inkscape:connector-curvature="0" />
          </symbol>
          <symbol
             id="textext-5654c45b-2"
             overflow="visible"
             style="overflow:visible">
            <path
               id="path5667"
               d="m 6.53125,-6.515625 -2.078125,0 0,0.171875 c 0.484375,0.046875 0.609375,0.125 0.609375,0.359375 0,0.125 -0.0625,0.25 -0.203125,0.40625 l -1.4375,1.65625 -0.59375,-1.46875 C 2.71875,-5.640625 2.6875,-5.8125 2.6875,-5.9375 c 0,-0.25 0.15625,-0.34375 0.703125,-0.40625 l 0,-0.171875 -2.640625,0 0,0.171875 c 0.578125,0.046875 0.734375,0.140625 0.921875,0.609375 l 1.0625,2.609375 c -0.375,0.421875 -0.703125,0.8125 -0.828125,0.96875 -1.390625,1.640625 -1.671875,1.890625 -2.203125,2 l 0,0.15625 2.140625,0 0,-0.15625 C 1.359375,-0.15625 1.203125,-0.25 1.203125,-0.5 c 0,-0.140625 0.078125,-0.3125 0.203125,-0.46875 l 1.5,-1.71875 0.671875,1.65625 c 0.078125,0.171875 0.109375,0.328125 0.109375,0.484375 0,0.28125 -0.09375,0.34375 -0.75,0.390625 l 0,0.15625 2.71875,0 0,-0.15625 C 4.953125,-0.234375 4.859375,-0.296875 4.609375,-0.890625 L 3.59375,-3.46875 l 1.6875,-1.9375 c 0.515625,-0.578125 0.8125,-0.796875 1.25,-0.9375 z m 0,0"
               style="stroke:none"
               inkscape:connector-curvature="0" />
          </symbol>
          <symbol
             id="textext-5654c45b-3"
             overflow="visible"
             style="overflow:visible">
            <path
               id="path5670"
               d="M 0.90625,-6.34375 C 1.46875,-6.265625 1.5,-6.234375 1.671875,-5.6875 l 0.765625,2.671875 -0.609375,2.125 C 1.65625,-0.359375 1.4375,-0.203125 0.78125,-0.15625 l 0,0.15625 2.875,0 0,-0.15625 C 3.5,-0.171875 3.359375,-0.171875 3.296875,-0.1875 c -0.390625,-0.015625 -0.53125,-0.125 -0.53125,-0.375 0,-0.203125 0.078125,-0.5 0.3125,-1.28125 C 3.109375,-1.9375 3.125,-2 3.140625,-2.046875 l 0.28125,-1 2.1875,-2.6875 C 5.9375,-6.140625 6.015625,-6.203125 6.3125,-6.34375 l 0,-0.171875 -1.890625,0 0,0.171875 c 0.125,0 0.234375,0.015625 0.265625,0.03125 0.296875,0.015625 0.421875,0.109375 0.421875,0.265625 0,0.28125 -0.453125,0.921875 -1.484375,2.125 -0.171875,0.203125 -0.234375,0.28125 -0.390625,0.46875 C 3.125,-3.890625 3.09375,-4.03125 2.9375,-4.5625 2.6875,-5.40625 2.578125,-5.84375 2.578125,-5.984375 c 0,-0.25 0.109375,-0.3125 0.71875,-0.359375 l 0,-0.171875 -2.390625,0 z m 0,0"
               style="stroke:none"
               inkscape:connector-curvature="0" />
          </symbol>
          <symbol
             id="textext-5654c45b-4"
             overflow="visible"
             style="overflow:visible">
            <path
               id="path5673"
               d="M 5.625,-0.15625 C 5.046875,-0.203125 5,-0.296875 4.859375,-1.015625 l -0.9375,-5.640625 -0.25,0 -2.890625,4.984375 c -0.796875,1.328125 -0.890625,1.4375 -1.296875,1.515625 l 0,0.15625 1.875,0 0,-0.15625 c -0.515625,-0.046875 -0.59375,-0.109375 -0.59375,-0.359375 0,-0.1875 0.03125,-0.265625 0.203125,-0.609375 l 0.5625,-1.125 2.203125,0 0.1875,1.296875 c 0.015625,0.09375 0.03125,0.1875 0.03125,0.265625 0,0.375 -0.140625,0.46875 -0.78125,0.53125 L 3.171875,0 5.625,0 z m -3.875,-2.453125 1.484375,-2.59375 0.4375,2.59375 z m 0,0"
               style="stroke:none"
               inkscape:connector-curvature="0" />
          </symbol>
          <symbol
             id="textext-5654c45b-5"
             overflow="visible"
             style="overflow:visible">
            <path
               id="path5676"
               d="m 0.34375,-3.953125 0.90625,0 -0.875,4.1875 c -0.21875,1.078125 -0.546875,1.625 -0.96875,1.625 -0.125,0 -0.203125,-0.078125 -0.203125,-0.171875 0,-0.015625 0.015625,-0.046875 0.046875,-0.109375 0.03125,-0.046875 0.046875,-0.09375 0.046875,-0.15625 0,-0.203125 -0.1875,-0.375 -0.390625,-0.375 -0.21875,0 -0.375,0.171875 -0.375,0.40625 0,0.34375 0.359375,0.609375 0.796875,0.609375 0.875,0 1.578125,-0.984375 1.984375,-2.8125 l 0.71875,-3.203125 1.09375,0 0.0625,-0.3125 -1.078125,0 c 0.28125,-1.5625 0.65625,-2.28125 1.203125,-2.28125 0.140625,0 0.21875,0.0625 0.21875,0.125 0,0.03125 0,0.046875 -0.03125,0.109375 -0.046875,0.078125 -0.0625,0.125 -0.0625,0.203125 0,0.234375 0.15625,0.390625 0.375,0.390625 0.21875,0 0.421875,-0.171875 0.421875,-0.390625 0,-0.375 -0.375,-0.65625 -0.859375,-0.65625 -0.5,0 -0.875,0.21875 -1.234375,0.6875 -0.3125,0.390625 -0.5,0.859375 -0.8125,1.8125 l -0.90625,0 z m 0,0"
               style="stroke:none"
               inkscape:connector-curvature="0" />
          </symbol>
          <symbol
             id="textext-5654c45b-6"
             overflow="visible"
             style="overflow:visible">
            <path
               id="path5679"
               d=""
               style="stroke:none"
               inkscape:connector-curvature="0" />
          </symbol>
          <symbol
             id="textext-5654c45b-7"
             overflow="visible"
             style="overflow:visible">
            <path
               id="path5682"
               d="M 2.9375,-6.734375 C 2.203125,-6.265625 1.90625,-6 1.53125,-5.546875 c -0.703125,0.875 -1.046875,1.875 -1.046875,3.03125 0,1.265625 0.359375,2.25 1.234375,3.265625 0.421875,0.46875 0.671875,0.703125 1.1875,1.015625 l 0.125,-0.15625 C 2.234375,0.984375 1.953125,0.625 1.6875,-0.125 1.453125,-0.78125 1.328125,-1.546875 1.328125,-2.546875 1.328125,-3.59375 1.46875,-4.40625 1.734375,-5.03125 2.015625,-5.640625 2.3125,-6 3.03125,-6.578125 z m 0,0"
               style="stroke:none"
               inkscape:connector-curvature="0" />
          </symbol>
          <symbol
             id="textext-5654c45b-8"
             overflow="visible"
             style="overflow:visible">
            <path
               id="path5685"
               d="M 0.375,1.765625 C 1.109375,1.28125 1.421875,1.03125 1.78125,0.5625 2.5,-0.296875 2.84375,-1.296875 2.84375,-2.46875 c 0,-1.265625 -0.375,-2.234375 -1.25,-3.25 C 1.1875,-6.203125 0.921875,-6.421875 0.40625,-6.734375 l -0.109375,0.15625 c 0.796875,0.625 1.0625,0.96875 1.34375,1.71875 0.234375,0.671875 0.34375,1.4375 0.34375,2.421875 0,1.046875 -0.125,1.875 -0.40625,2.484375 C 1.3125,0.671875 1,1.03125 0.296875,1.609375 z m 0,0"
               style="stroke:none"
               inkscape:connector-curvature="0" />
          </symbol>
          <symbol
             id="textext-5654c45b-9"
             overflow="visible"
             style="overflow:visible">
            <path
               id="path5688"
               d="m 2.546875,-4.484375 -1.015625,0 0,-1.15625 c 0,-0.09375 0,-0.125 -0.0625,-0.125 C 1.390625,-5.6875 1.328125,-5.59375 1.265625,-5.5 c -0.375,0.5625 -0.8125,1.03125 -0.96875,1.078125 C 0.1875,-4.359375 0.125,-4.28125 0.125,-4.234375 c 0,0.03125 0.015625,0.046875 0.046875,0.0625 l 0.53125,0 0,3 c 0,0.84375 0.296875,1.265625 0.875,1.265625 0.5,0 0.875,-0.234375 1.203125,-0.75 l -0.125,-0.109375 c -0.21875,0.25 -0.390625,0.34375 -0.609375,0.34375 C 1.6875,-0.421875 1.53125,-0.6875 1.53125,-1.3125 l 0,-2.859375 1.015625,0 z m 0,0"
               style="stroke:none"
               inkscape:connector-curvature="0" />
          </symbol>
          <symbol
             id="textext-5654c45b-10"
             overflow="visible"
             style="overflow:visible">
            <path
               id="path5691"
               d="m 1.5625,-3.421875 c 0.421875,-0.453125 0.71875,-0.625 1.109375,-0.625 0.5,0 0.75,0.359375 0.75,1.0625 l 0,1.96875 c 0,0.671875 -0.109375,0.8125 -0.6875,0.859375 l 0,0.15625 2.125,0 0,-0.15625 C 4.3125,-0.25 4.25,-0.328125 4.25,-1.015625 L 4.25,-3 c 0,-1.046875 -0.40625,-1.578125 -1.21875,-1.578125 -0.59375,0 -1,0.234375 -1.46875,0.828125 l 0,-3.03125 L 1.515625,-6.8125 C 1.171875,-6.6875 0.921875,-6.609375 0.375,-6.453125 L 0.09375,-6.375 l 0,0.171875 c 0.046875,-0.015625 0.078125,-0.015625 0.125,-0.015625 0.421875,0 0.515625,0.078125 0.515625,0.5 l 0,4.703125 c 0,0.703125 -0.0625,0.78125 -0.640625,0.859375 L 0.09375,0 2.25,0 l 0,-0.15625 C 1.671875,-0.203125 1.5625,-0.328125 1.5625,-1.015625 z m 0,0"
               style="stroke:none"
               inkscape:connector-curvature="0" />
          </symbol>
          <symbol
             id="textext-5654c45b-11"
             overflow="visible"
             style="overflow:visible">
            <path
               id="path5694"
               d="M 4.0625,-1.640625 C 3.59375,-0.875 3.15625,-0.59375 2.515625,-0.59375 c -0.5625,0 -0.984375,-0.28125 -1.28125,-0.859375 -0.171875,-0.375 -0.25,-0.703125 -0.265625,-1.3125 l 3.0625,0 c -0.078125,-0.640625 -0.171875,-0.9375 -0.421875,-1.25 -0.296875,-0.359375 -0.765625,-0.5625 -1.28125,-0.5625 -0.5,0 -0.96875,0.171875 -1.34375,0.515625 C 0.515625,-3.65625 0.25,-2.953125 0.25,-2.140625 0.25,-0.75 0.96875,0.09375 2.109375,0.09375 c 0.953125,0 1.703125,-0.578125 2.125,-1.65625 z m -3.078125,-1.4375 c 0.109375,-0.78125 0.453125,-1.15625 1.0625,-1.15625 0.609375,0 0.84375,0.28125 0.96875,1.15625 z m 0,0"
               style="stroke:none"
               inkscape:connector-curvature="0" />
          </symbol>
          <symbol
             id="textext-5654c45b-12"
             overflow="visible"
             style="overflow:visible">
            <path
               id="path5697"
               d="m 4.75,-4.484375 -1.375,0 0,0.140625 c 0.3125,0.03125 0.46875,0.140625 0.46875,0.328125 0,0.09375 -0.03125,0.203125 -0.0625,0.296875 L 2.796875,-1.140625 1.78125,-3.6875 C 1.71875,-3.828125 1.6875,-3.96875 1.6875,-4.0625 c 0,-0.171875 0.109375,-0.25 0.453125,-0.28125 l 0,-0.140625 -1.953125,0 0,0.140625 c 0.375,0.03125 0.453125,0.125 0.90625,1.15625 l 1.203125,2.859375 C 2.3125,-0.265625 2.34375,-0.203125 2.375,-0.125 2.4375,0.0625 2.5,0.140625 2.546875,0.140625 c 0.0625,0 0.140625,-0.125 0.28125,-0.5 L 4.109375,-3.5625 c 0.28125,-0.671875 0.34375,-0.75 0.640625,-0.78125 z m 0,0"
               style="stroke:none"
               inkscape:connector-curvature="0" />
          </symbol>
          <symbol
             id="textext-5654c45b-13"
             overflow="visible"
             style="overflow:visible">
            <path
               id="path5700"
               d="m 2.5,-4.578125 c -1.296875,0 -2.203125,0.953125 -2.203125,2.328125 0,1.34375 0.921875,2.34375 2.171875,2.34375 1.265625,0 2.21875,-1.046875 2.21875,-2.421875 0,-1.3125 -0.921875,-2.25 -2.1875,-2.25 z M 2.359375,-4.3125 c 0.84375,0 1.421875,0.96875 1.421875,2.328125 0,1.125 -0.4375,1.8125 -1.1875,1.8125 -0.390625,0 -0.765625,-0.25 -0.96875,-0.640625 C 1.34375,-1.328125 1.1875,-2.03125 1.1875,-2.734375 1.1875,-3.6875 1.65625,-4.3125 2.359375,-4.3125 z m 0,0"
               style="stroke:none"
               inkscape:connector-curvature="0" />
          </symbol>
          <symbol
             id="textext-5654c45b-14"
             overflow="visible"
             style="overflow:visible">
            <path
               id="path5703"
               d="m 0.1875,-6.203125 0.0625,0 c 0.109375,-0.015625 0.234375,-0.03125 0.3125,-0.03125 0.3125,0 0.421875,0.140625 0.421875,0.609375 l 0,4.75 c 0,0.546875 -0.140625,0.671875 -0.78125,0.71875 l 0,0.15625 2.359375,0 0,-0.15625 c -0.625,-0.03125 -0.75,-0.140625 -0.75,-0.6875 l 0,-5.9375 L 1.78125,-6.8125 C 1.25,-6.640625 0.875,-6.546875 0.1875,-6.375 z m 0,0"
               style="stroke:none"
               inkscape:connector-curvature="0" />
          </symbol>
          <symbol
             id="textext-5654c45b-15"
             overflow="visible"
             style="overflow:visible">
            <path
               id="path5706"
               d="m 4.78125,-0.5 -0.0625,0 c -0.453125,0 -0.5625,-0.109375 -0.5625,-0.5625 l 0,-3.421875 -1.578125,0 0,0.171875 c 0.625,0.03125 0.734375,0.125 0.734375,0.625 l 0,2.34375 c 0,0.28125 -0.046875,0.421875 -0.1875,0.53125 -0.265625,0.21875 -0.578125,0.328125 -0.875,0.328125 -0.390625,0 -0.703125,-0.328125 -0.703125,-0.75 l 0,-3.25 -1.453125,0 0,0.140625 c 0.46875,0.03125 0.609375,0.171875 0.609375,0.640625 l 0,2.5 c 0,0.796875 0.484375,1.296875 1.203125,1.296875 0.375,0 0.765625,-0.15625 1.03125,-0.421875 L 3.375,-0.75 l 0,0.8125 0.03125,0.03125 c 0.5,-0.203125 0.859375,-0.3125 1.375,-0.453125 z m 0,0"
               style="stroke:none"
               inkscape:connector-curvature="0" />
          </symbol>
          <symbol
             id="textext-5654c45b-16"
             overflow="visible"
             style="overflow:visible">
            <path
               id="path5709"
               d="M 0.1875,-3.96875 C 0.3125,-4 0.40625,-4 0.515625,-4 c 0.25,0 0.34375,0.15625 0.34375,0.625 l 0,2.53125 c 0,0.53125 -0.140625,0.6875 -0.703125,0.6875 l 0,0.15625 2.21875,0 0,-0.15625 C 1.84375,-0.171875 1.6875,-0.28125 1.6875,-0.671875 l 0,-2.8125 c 0,-0.015625 0.09375,-0.109375 0.15625,-0.1875 0.25,-0.21875 0.671875,-0.390625 1.03125,-0.390625 0.4375,0 0.65625,0.34375 0.65625,1.046875 l 0,2.15625 c 0,0.5625 -0.109375,0.671875 -0.6875,0.703125 l 0,0.15625 2.234375,0 0,-0.15625 c -0.5625,0 -0.71875,-0.171875 -0.71875,-0.796875 l 0,-2.5 C 4.671875,-3.890625 5,-4.0625 5.453125,-4.0625 c 0.5625,0 0.75,0.265625 0.75,1.09375 l 0,2.09375 c 0,0.578125 -0.078125,0.65625 -0.65625,0.71875 l 0,0.15625 2.171875,0 0,-0.15625 -0.25,-0.015625 C 7.171875,-0.1875 7.03125,-0.375 7.03125,-0.75 l 0,-2.0625 c 0,-1.171875 -0.375,-1.765625 -1.15625,-1.765625 -0.578125,0 -1.078125,0.25 -1.625,0.828125 -0.171875,-0.5625 -0.515625,-0.828125 -1.046875,-0.828125 -0.4375,0 -0.71875,0.125 -1.546875,0.765625 l 0,-0.75 -0.078125,-0.015625 c -0.5,0.1875 -0.84375,0.296875 -1.390625,0.4375 z m 0,0"
               style="stroke:none"
               inkscape:connector-curvature="0" />
          </symbol>
          <symbol
             id="textext-5654c45b-17"
             overflow="visible"
             style="overflow:visible">
            <path
               id="path5712"
               d="M 0.15625,-3.96875 C 0.21875,-4 0.3125,-4 0.421875,-4 c 0.28125,0 0.375,0.140625 0.375,0.625 l 0,2.484375 c 0,0.5625 -0.109375,0.703125 -0.625,0.734375 l 0,0.15625 2.125,0 0,-0.15625 C 1.78125,-0.1875 1.640625,-0.3125 1.640625,-0.671875 l 0,-2.796875 c 0.46875,-0.453125 0.6875,-0.5625 1.015625,-0.5625 0.5,0 0.734375,0.296875 0.734375,0.953125 l 0,2.09375 c 0,0.625 -0.125,0.796875 -0.625,0.828125 l 0,0.15625 2.0625,0 0,-0.15625 C 4.34375,-0.203125 4.234375,-0.3125 4.234375,-0.8125 l 0,-2.28125 c 0,-0.9375 -0.453125,-1.484375 -1.1875,-1.484375 -0.453125,0 -0.765625,0.15625 -1.4375,0.796875 l 0,-0.78125 -0.078125,-0.015625 c -0.484375,0.171875 -0.828125,0.28125 -1.375,0.4375 z m 0,0"
               style="stroke:none"
               inkscape:connector-curvature="0" />
          </symbol>
          <symbol
             id="textext-5654c45b-18"
             overflow="visible"
             style="overflow:visible">
            <path
               id="path5715"
               d="m 3.421875,0.09375 1.46875,-0.515625 0,-0.15625 C 4.71875,-0.5625 4.6875,-0.5625 4.671875,-0.5625 c -0.359375,0 -0.4375,-0.109375 -0.4375,-0.578125 l 0,-5.640625 -0.0625,-0.03125 C 3.703125,-6.640625 3.34375,-6.546875 2.71875,-6.375 l 0,0.171875 c 0.078125,-0.015625 0.125,-0.015625 0.21875,-0.015625 0.359375,0 0.453125,0.09375 0.453125,0.5 l 0,1.5625 c -0.375,-0.3125 -0.65625,-0.421875 -1.046875,-0.421875 -1.140625,0 -2.078125,1.125 -2.078125,2.53125 0,1.28125 0.75,2.140625 1.84375,2.140625 0.5625,0 0.9375,-0.1875 1.28125,-0.65625 l 0,0.625 z m -0.03125,-1.109375 c 0,0.0625 -0.078125,0.1875 -0.171875,0.296875 -0.171875,0.203125 -0.421875,0.296875 -0.71875,0.296875 -0.828125,0 -1.375,-0.796875 -1.375,-2.015625 0,-1.125 0.484375,-1.875 1.25,-1.875 0.53125,0 1.015625,0.46875 1.015625,1 z m 0,0"
               style="stroke:none"
               inkscape:connector-curvature="0" />
          </symbol>
          <symbol
             id="textext-5654c45b-19"
             overflow="visible"
             style="overflow:visible">
            <path
               id="path5718"
               d="m 0.0625,-3.890625 c 0.140625,-0.03125 0.234375,-0.03125 0.359375,-0.03125 0.25,0 0.328125,0.15625 0.328125,0.59375 l 0,2.484375 c 0,0.5 -0.0625,0.578125 -0.703125,0.6875 l 0,0.15625 2.390625,0 0,-0.15625 C 1.765625,-0.171875 1.59375,-0.328125 1.59375,-0.890625 l 0,-2.25 c 0,-0.3125 0.4375,-0.8125 0.703125,-0.8125 0.0625,0 0.140625,0.046875 0.25,0.140625 0.171875,0.140625 0.28125,0.203125 0.40625,0.203125 0.234375,0 0.390625,-0.171875 0.390625,-0.453125 0,-0.328125 -0.21875,-0.515625 -0.546875,-0.515625 -0.421875,0 -0.71875,0.21875 -1.203125,0.921875 l 0,-0.90625 -0.046875,-0.015625 c -0.53125,0.21875 -0.890625,0.34375 -1.484375,0.53125 z m 0,0"
               style="stroke:none"
               inkscape:connector-curvature="0" />
          </symbol>
          <symbol
             id="textext-5654c45b-20"
             overflow="visible"
             style="overflow:visible">
            <path
               id="path5721"
               d="m 4.6875,-3.875 0,-0.375 -0.765625,0 C 3.71875,-4.25 3.5625,-4.28125 3.375,-4.359375 L 3.15625,-4.4375 C 2.875,-4.53125 2.609375,-4.578125 2.359375,-4.578125 c -0.9375,0 -1.671875,0.703125 -1.671875,1.625 0,0.625 0.265625,1 0.921875,1.328125 -0.1875,0.171875 -0.359375,0.34375 -0.421875,0.40625 -0.328125,0.28125 -0.453125,0.484375 -0.453125,0.6875 0,0.203125 0.109375,0.328125 0.515625,0.515625 -0.703125,0.53125 -0.96875,0.859375 -0.96875,1.21875 0,0.53125 0.78125,0.96875 1.71875,0.96875 0.75,0 1.53125,-0.265625 2.046875,-0.671875 0.375,-0.3125 0.546875,-0.625 0.546875,-1.015625 0,-0.609375 -0.46875,-1.03125 -1.203125,-1.0625 l -1.28125,-0.0625 C 1.578125,-0.65625 1.328125,-0.75 1.328125,-0.90625 c 0,-0.203125 0.328125,-0.546875 0.59375,-0.625 0.09375,0 0.15625,0.015625 0.1875,0.015625 C 2.296875,-1.5 2.4375,-1.484375 2.5,-1.484375 c 0.359375,0 0.765625,-0.15625 1.0625,-0.421875 0.328125,-0.28125 0.484375,-0.625 0.484375,-1.125 C 4.046875,-3.3125 4,-3.546875 3.859375,-3.875 z M 1.46875,0.015625 c 0.328125,0.078125 1.125,0.140625 1.609375,0.140625 0.90625,0 1.234375,0.125 1.234375,0.484375 0,0.578125 -0.75,0.96875 -1.875,0.96875 -0.875,0 -1.453125,-0.296875 -1.453125,-0.734375 0,-0.234375 0.0625,-0.359375 0.484375,-0.859375 z M 1.515625,-3.375 c 0,-0.578125 0.28125,-0.9375 0.734375,-0.9375 0.3125,0 0.578125,0.171875 0.734375,0.46875 0.171875,0.359375 0.296875,0.8125 0.296875,1.203125 0,0.5625 -0.296875,0.90625 -0.75,0.90625 -0.59375,0 -1.015625,-0.640625 -1.015625,-1.609375 z m 0,0"
               style="stroke:none"
               inkscape:connector-curvature="0" />
          </symbol>
          <symbol
             id="textext-5654c45b-21"
             overflow="visible"
             style="overflow:visible">
            <path
               id="path5724"
               d="m 4.40625,-0.65625 c -0.171875,0.140625 -0.296875,0.1875 -0.4375,0.1875 -0.234375,0 -0.296875,-0.140625 -0.296875,-0.578125 l 0,-1.9375 c 0,-0.53125 -0.046875,-0.8125 -0.203125,-1.046875 C 3.25,-4.390625 2.828125,-4.578125 2.234375,-4.578125 c -0.9375,0 -1.671875,0.484375 -1.671875,1.109375 0,0.234375 0.1875,0.421875 0.421875,0.421875 0.234375,0 0.453125,-0.1875 0.453125,-0.40625 0,-0.046875 -0.015625,-0.09375 -0.015625,-0.171875 -0.03125,-0.078125 -0.03125,-0.15625 -0.03125,-0.234375 0,-0.265625 0.3125,-0.484375 0.71875,-0.484375 0.484375,0 0.75,0.28125 0.75,0.828125 l 0,0.609375 c -1.53125,0.609375 -1.703125,0.6875 -2.125,1.078125 -0.21875,0.1875 -0.359375,0.53125 -0.359375,0.859375 0,0.625 0.4375,1.0625 1.046875,1.0625 0.4375,0 0.84375,-0.203125 1.453125,-0.71875 0.046875,0.515625 0.21875,0.71875 0.640625,0.71875 0.328125,0 0.546875,-0.109375 0.890625,-0.5 z m -1.546875,-0.5625 c 0,0.296875 -0.046875,0.390625 -0.25,0.515625 -0.25,0.140625 -0.53125,0.21875 -0.734375,0.21875 C 1.53125,-0.484375 1.25,-0.8125 1.25,-1.25 l 0,-0.03125 c 0,-0.59375 0.40625,-0.953125 1.609375,-1.390625 z m 0,0"
               style="stroke:none"
               inkscape:connector-curvature="0" />
          </symbol>
          <symbol
             id="textext-5654c45b-22"
             overflow="visible"
             style="overflow:visible">
            <path
               id="path5727"
               d="m 0.09375,-3.921875 c 0.078125,0 0.15625,0 0.25,0 0.328125,0 0.40625,0.09375 0.40625,0.5625 l 0,4.671875 C 0.75,1.828125 0.640625,1.9375 0.046875,2 l 0,0.15625 2.421875,0 0,-0.171875 c -0.75,-0.015625 -0.890625,-0.125 -0.890625,-0.75 l 0,-1.5625 C 1.9375,0 2.171875,0.09375 2.59375,0.09375 c 1.171875,0 2.09375,-1.109375 2.09375,-2.5625 0,-1.234375 -0.703125,-2.109375 -1.671875,-2.109375 -0.546875,0 -0.984375,0.234375 -1.4375,0.78125 l 0,-0.765625 L 1.53125,-4.578125 C 0.984375,-4.375 0.640625,-4.25 0.09375,-4.078125 z m 1.484375,0.59375 c 0,-0.296875 0.5625,-0.65625 1.03125,-0.65625 0.734375,0 1.21875,0.75 1.21875,1.90625 0,1.109375 -0.484375,1.859375 -1.203125,1.859375 -0.46875,0 -1.046875,-0.359375 -1.046875,-0.65625 z m 0,0"
               style="stroke:none"
               inkscape:connector-curvature="0" />
          </symbol>
          <symbol
             id="textext-5654c45b-23"
             overflow="visible"
             style="overflow:visible">
            <path
               id="path5730"
               d="m 3.078125,-4.484375 -1.21875,0 0,-1.15625 c 0,-0.578125 0.1875,-0.890625 0.5625,-0.890625 0.203125,0 0.34375,0.09375 0.53125,0.390625 0.15625,0.265625 0.28125,0.359375 0.453125,0.359375 0.21875,0 0.40625,-0.1875 0.40625,-0.40625 0,-0.359375 -0.4375,-0.625 -1.03125,-0.625 -0.625,0 -1.140625,0.265625 -1.40625,0.734375 -0.265625,0.4375 -0.34375,0.796875 -0.34375,1.59375 l -0.828125,0 0,0.3125 0.828125,0 0,3.140625 c 0,0.71875 -0.109375,0.84375 -0.828125,0.875 l 0,0.15625 2.59375,0 0,-0.15625 c -0.828125,-0.015625 -0.9375,-0.140625 -0.9375,-0.875 l 0,-3.140625 1.21875,0 z m 0,0"
               style="stroke:none"
               inkscape:connector-curvature="0" />
          </symbol>
          <symbol
             id="textext-5654c45b-24"
             overflow="visible"
             style="overflow:visible">
            <path
               id="path5733"
               d="M 1.53125,-6.78125 1.46875,-6.8125 C 1.0625,-6.65625 0.78125,-6.578125 0.3125,-6.453125 L 0.03125,-6.375 l 0,0.171875 C 0.09375,-6.21875 0.125,-6.21875 0.203125,-6.21875 c 0.390625,0 0.484375,0.09375 0.484375,0.5 l 0,5.1875 c 0,0.296875 0.84375,0.625 1.640625,0.625 1.328125,0 2.34375,-1.09375 2.34375,-2.515625 0,-1.234375 -0.765625,-2.15625 -1.765625,-2.15625 -0.609375,0 -1.1875,0.34375 -1.375,0.84375 z m 0,3.578125 c 0,-0.390625 0.46875,-0.75 0.984375,-0.75 0.78125,0 1.265625,0.765625 1.265625,1.984375 0,1.109375 -0.46875,1.75 -1.28125,1.75 -0.53125,0 -0.96875,-0.234375 -0.96875,-0.484375 z m 0,0"
               style="stroke:none"
               inkscape:connector-curvature="0" />
          </symbol>
          <symbol
             id="textext-5654c45b-25"
             overflow="visible"
             style="overflow:visible">
            <path
               id="path5736"
               d="m 1.75,-4.578125 -1.546875,0.546875 0,0.140625 0.078125,0 c 0.125,-0.03125 0.25,-0.03125 0.34375,-0.03125 0.234375,0 0.328125,0.15625 0.328125,0.59375 l 0,2.3125 c 0,0.71875 -0.109375,0.828125 -0.796875,0.859375 l 0,0.15625 2.359375,0 0,-0.15625 C 1.859375,-0.203125 1.78125,-0.296875 1.78125,-1.015625 l 0,-3.546875 z M 1.28125,-6.8125 c -0.28125,0 -0.5,0.234375 -0.5,0.515625 0,0.28125 0.21875,0.5 0.5,0.5 0.28125,0 0.515625,-0.21875 0.515625,-0.5 0,-0.28125 -0.234375,-0.515625 -0.515625,-0.515625 z m 0,0"
               style="stroke:none"
               inkscape:connector-curvature="0" />
          </symbol>
          <symbol
             id="textext-5654c45b-26"
             overflow="visible"
             style="overflow:visible">
            <path
               id="path5739"
               d="m 1.25,-1 c -0.296875,0 -0.546875,0.265625 -0.546875,0.578125 0,0.28125 0.25,0.53125 0.53125,0.53125 0.3125,0 0.5625,-0.25 0.5625,-0.53125 C 1.796875,-0.734375 1.546875,-1 1.25,-1 z m 0,0"
               style="stroke:none"
               inkscape:connector-curvature="0" />
          </symbol>
          <symbol
             id="textext-5654c45b-27"
             overflow="visible"
             style="overflow:visible">
            <path
               id="path5742"
               d=""
               style="stroke:none"
               inkscape:connector-curvature="0" />
          </symbol>
          <symbol
             id="textext-5654c45b-28"
             overflow="visible"
             style="overflow:visible">
            <path
               id="path5745"
               d="m 1.9375,-0.0625 c 0,-0.828125 -0.578125,-0.953125 -0.796875,-0.953125 -0.25,0 -0.578125,0.140625 -0.578125,0.578125 0,0.390625 0.359375,0.5 0.609375,0.5 0.078125,0 0.125,-0.015625 0.15625,-0.015625 0.03125,-0.015625 0.0625,-0.03125 0.09375,-0.03125 0.0625,0 0.140625,0.046875 0.140625,0.140625 0,0.1875 -0.171875,0.640625 -0.828125,1.0625 l 0.09375,0.1875 C 1.125,1.3125 1.9375,0.640625 1.9375,-0.0625 z m 0,0"
               style="stroke:none"
               inkscape:connector-curvature="0" />
          </symbol>
          <symbol
             id="textext-5654c45b-29"
             overflow="visible"
             style="overflow:visible">
            <path
               id="path5748"
               d=""
               style="stroke:none"
               inkscape:connector-curvature="0" />
          </symbol>
          <symbol
             id="textext-5654c45b-30"
             overflow="visible"
             style="overflow:visible">
            <path
               id="path5751"
               d="m 4.828125,-0.078125 0,-0.5 -1.890625,0 c -0.90625,0 -1.78125,-0.734375 -1.90625,-1.734375 l 3.625,0 0,-0.5 -3.625,0 C 1.140625,-3.765625 1.9375,-4.546875 2.9375,-4.546875 l 1.890625,0 0,-0.5 -1.859375,0 c -1.390625,0 -2.453125,1.15625 -2.453125,2.484375 0,1.328125 1.0625,2.484375 2.453125,2.484375 z m 0,0"
               style="stroke:none"
               inkscape:connector-curvature="0" />
          </symbol>
          <symbol
             id="textext-5654c45b-31"
             overflow="visible"
             style="overflow:visible">
            <path
               id="path5754"
               d=""
               style="stroke:none"
               inkscape:connector-curvature="0" />
          </symbol>
          <symbol
             id="textext-5654c45b-32"
             overflow="visible"
             style="overflow:visible">
            <path
               id="path5757"
               d="m 5.71875,-3.296875 0,-0.546875 -5.09375,0 0,0.546875 z m 0,2.03125 0,-0.5625 -5.09375,0 0,0.5625 z m 0,0"
               style="stroke:none"
               inkscape:connector-curvature="0" />
          </symbol>
        </g>
      </defs>
      <g
         id="textext-5654c45b-33">
        <g
           id="g5760"
           style="fill:#000000;fill-opacity:1">
          <use
             id="use5762"
             y="134.765"
             x="223.681"
             xlink:href="#textext-5654c45b-1"
             width="283.46457"
             height="212.59842" />
        </g>
        <g
           id="g5764"
           style="fill:#000000;fill-opacity:1">
          <use
             id="use5766"
             y="134.765"
             x="229.76801"
             xlink:href="#textext-5654c45b-7"
             width="283.46457"
             height="212.59842" />
          <use
             id="use5768"
             y="134.765"
             x="233.08554"
             xlink:href="#textext-5654c45b-7"
             width="283.46457"
             height="212.59842" />
        </g>
        <g
           id="g5770"
           style="fill:#000000;fill-opacity:1">
          <use
             id="use5772"
             y="134.765"
             x="236.653"
             xlink:href="#textext-5654c45b-2"
             width="283.46457"
             height="212.59842" />
        </g>
        <g
           id="g5774"
           style="fill:#000000;fill-opacity:1">
          <use
             id="use5776"
             y="134.765"
             x="242.63"
             xlink:href="#textext-5654c45b-28"
             width="283.46457"
             height="212.59842" />
        </g>
        <g
           id="g5778"
           style="fill:#000000;fill-opacity:1">
          <use
             id="use5780"
             y="134.765"
             x="246.78101"
             xlink:href="#textext-5654c45b-3"
             width="283.46457"
             height="212.59842" />
        </g>
        <g
           id="g5782"
           style="fill:#000000;fill-opacity:1">
          <use
             id="use5784"
             y="134.765"
             x="253.08701"
             xlink:href="#textext-5654c45b-8"
             width="283.46457"
             height="212.59842" />
        </g>
        <g
           id="g5786"
           style="fill:#000000;fill-opacity:1">
          <use
             id="use5788"
             y="134.765"
             x="259.172"
             xlink:href="#textext-5654c45b-30"
             width="283.46457"
             height="212.59842" />
        </g>
        <g
           id="g5790"
           style="fill:#000000;fill-opacity:1">
          <use
             id="use5792"
             y="134.765"
             x="267.52899"
             xlink:href="#textext-5654c45b-4"
             width="283.46457"
             height="212.59842" />
        </g>
        <g
           id="g5794"
           style="fill:#000000;fill-opacity:1">
          <use
             id="use5796"
             y="134.765"
             x="273.616"
             xlink:href="#textext-5654c45b-8"
             width="283.46457"
             height="212.59842" />
        </g>
        <g
           id="g5798"
           style="fill:#000000;fill-opacity:1">
          <use
             id="use5800"
             y="134.765"
             x="279.42401"
             xlink:href="#textext-5654c45b-32"
             width="283.46457"
             height="212.59842" />
        </g>
        <g
           id="g5802"
           style="fill:#000000;fill-opacity:1">
          <use
             id="use5804"
             y="134.765"
             x="288.25101"
             xlink:href="#textext-5654c45b-9"
             width="283.46457"
             height="212.59842" />
          <use
             id="use5806"
             y="134.765"
             x="291.0206"
             xlink:href="#textext-5654c45b-10"
             width="283.46457"
             height="212.59842" />
          <use
             id="use5808"
             y="134.765"
             x="296.00189"
             xlink:href="#textext-5654c45b-11"
             width="283.46457"
             height="212.59842" />
        </g>
        <g
           id="g5810"
           style="fill:#000000;fill-opacity:1">
          <use
             id="use5812"
             y="134.765"
             x="302.91595"
             xlink:href="#textext-5654c45b-12"
             width="283.46457"
             height="212.59842" />
        </g>
        <g
           id="g5814"
           style="fill:#000000;fill-opacity:1">
          <use
             id="use5816"
             y="134.765"
             x="307.698"
             xlink:href="#textext-5654c45b-13"
             width="283.46457"
             height="212.59842" />
          <use
             id="use5818"
             y="134.765"
             x="312.67929"
             xlink:href="#textext-5654c45b-14"
             width="283.46457"
             height="212.59842" />
          <use
             id="use5820"
             y="134.765"
             x="315.44888"
             xlink:href="#textext-5654c45b-15"
             width="283.46457"
             height="212.59842" />
          <use
             id="use5822"
             y="134.765"
             x="320.43021"
             xlink:href="#textext-5654c45b-16"
             width="283.46457"
             height="212.59842" />
          <use
             id="use5824"
             y="134.765"
             x="328.18109"
             xlink:href="#textext-5654c45b-11"
             width="283.46457"
             height="212.59842" />
        </g>
        <path
           id="path5826"
           transform="matrix(1,0,0,-1,302.916,136.852)"
           d="m -0.0019375,4.375e-4 29.6914065,0"
           style="fill:none;stroke:#000000;stroke-width:0.55800003;stroke-linecap:butt;stroke-linejoin:miter;stroke-miterlimit:10;stroke-opacity:1"
           inkscape:connector-curvature="0" />
        <g
           id="g5828"
           style="fill:#000000;fill-opacity:1">
          <use
             id="use5830"
             y="134.765"
             x="335.095"
             xlink:href="#textext-5654c45b-15"
             width="283.46457"
             height="212.59842" />
          <use
             id="use5832"
             y="134.765"
             x="340.07629"
             xlink:href="#textext-5654c45b-17"
             width="283.46457"
             height="212.59842" />
          <use
             id="use5834"
             y="134.765"
             x="345.05759"
             xlink:href="#textext-5654c45b-18"
             width="283.46457"
             height="212.59842" />
          <use
             id="use5836"
             y="134.765"
             x="350.03891"
             xlink:href="#textext-5654c45b-11"
             width="283.46457"
             height="212.59842" />
          <use
             id="use5838"
             y="134.765"
             x="354.46228"
             xlink:href="#textext-5654c45b-19"
             width="283.46457"
             height="212.59842" />
        </g>
        <g
           id="g5840"
           style="fill:#000000;fill-opacity:1">
          <use
             id="use5842"
             y="134.765"
             x="360.27048"
             xlink:href="#textext-5654c45b-9"
             width="283.46457"
             height="212.59842" />
          <use
             id="use5844"
             y="134.765"
             x="363.0401"
             xlink:href="#textext-5654c45b-10"
             width="283.46457"
             height="212.59842" />
          <use
             id="use5846"
             y="134.765"
             x="368.02139"
             xlink:href="#textext-5654c45b-11"
             width="283.46457"
             height="212.59842" />
        </g>
        <g
           id="g5848"
           style="fill:#000000;fill-opacity:1"
           transform="translate(-86.193524,11.697693)">
          <use
             id="use5850"
             y="134.765"
             x="374.93542"
             xlink:href="#textext-5654c45b-20"
             width="283.46457"
             height="212.59842" />
          <use
             id="use5852"
             y="134.765"
             x="379.91675"
             xlink:href="#textext-5654c45b-19"
             width="283.46457"
             height="212.59842" />
          <use
             id="use5854"
             y="134.765"
             x="383.23428"
             xlink:href="#textext-5654c45b-21"
             width="283.46457"
             height="212.59842" />
          <use
             id="use5856"
             y="134.765"
             x="387.65768"
             xlink:href="#textext-5654c45b-22"
             width="283.46457"
             height="212.59842" />
          <use
             id="use5858"
             y="134.765"
             x="392.63898"
             xlink:href="#textext-5654c45b-10"
             width="283.46457"
             height="212.59842" />
        </g>
        <g
           id="g5860"
           style="fill:#000000;fill-opacity:1"
           transform="translate(-86.193524,11.697693)">
          <use
             id="use5862"
             y="134.765"
             x="400.11093"
             xlink:href="#textext-5654c45b-13"
             width="283.46457"
             height="212.59842" />
          <use
             id="use5864"
             y="134.765"
             x="405.09222"
             xlink:href="#textext-5654c45b-23"
             width="283.46457"
             height="212.59842" />
        </g>
        <g
           id="g5866"
           style="fill:#000000;fill-opacity:1"
           transform="translate(-86.193524,11.697693)">
          <use
             id="use5868"
             y="134.765"
             x="412.39499"
             xlink:href="#textext-5654c45b-5"
             width="283.46457"
             height="212.59842" />
        </g>
        <g
           id="g5870"
           style="fill:#000000;fill-opacity:1"
           transform="translate(-86.193524,11.697693)">
          <use
             id="use5872"
             y="134.765"
             x="419.10999"
             xlink:href="#textext-5654c45b-21"
             width="283.46457"
             height="212.59842" />
          <use
             id="use5874"
             y="134.765"
             x="423.53339"
             xlink:href="#textext-5654c45b-17"
             width="283.46457"
             height="212.59842" />
          <use
             id="use5876"
             y="134.765"
             x="428.51468"
             xlink:href="#textext-5654c45b-18"
             width="283.46457"
             height="212.59842" />
        </g>
        <g
           id="g5878"
           style="fill:#000000;fill-opacity:1"
           transform="translate(-86.193524,11.697693)">
          <use
             id="use5880"
             y="134.765"
             x="435.98663"
             xlink:href="#textext-5654c45b-21"
             width="283.46457"
             height="212.59842" />
          <use
             id="use5882"
             y="134.765"
             x="440.41003"
             xlink:href="#textext-5654c45b-24"
             width="283.46457"
             height="212.59842" />
          <use
             id="use5884"
             y="134.765"
             x="445.39133"
             xlink:href="#textext-5654c45b-13"
             width="283.46457"
             height="212.59842" />
        </g>
        <g
           id="g5886"
           style="fill:#000000;fill-opacity:1"
           transform="translate(-86.193524,11.697693)">
          <use
             id="use5888"
             y="134.765"
             x="450.22321"
             xlink:href="#textext-5654c45b-12"
             width="283.46457"
             height="212.59842" />
        </g>
        <g
           id="g5890"
           style="fill:#000000;fill-opacity:1"
           transform="translate(-86.193524,11.697693)">
          <use
             id="use5892"
             y="134.765"
             x="455.05505"
             xlink:href="#textext-5654c45b-11"
             width="283.46457"
             height="212.59842" />
        </g>
        <g
           id="g5894"
           style="fill:#000000;fill-opacity:1"
           transform="translate(-171.77138,24.626722)">
          <use
             id="use5896"
             y="134.765"
             x="461.96912"
             xlink:href="#textext-5654c45b-9"
             width="283.46457"
             height="212.59842" />
          <use
             id="use5898"
             y="134.765"
             x="464.73871"
             xlink:href="#textext-5654c45b-10"
             width="283.46457"
             height="212.59842" />
          <use
             id="use5900"
             y="134.765"
             x="469.72"
             xlink:href="#textext-5654c45b-11"
             width="283.46457"
             height="212.59842" />
        </g>
        <g
           id="g5902"
           style="fill:#000000;fill-opacity:1"
           transform="translate(-171.77138,24.626722)">
          <use
             id="use5904"
             y="134.765"
             x="476.63406"
             xlink:href="#textext-5654c45b-19"
             width="283.46457"
             height="212.59842" />
          <use
             id="use5906"
             y="134.765"
             x="479.9516"
             xlink:href="#textext-5654c45b-11"
             width="283.46457"
             height="212.59842" />
        </g>
        <g
           id="g5908"
           style="fill:#000000;fill-opacity:1"
           transform="translate(-171.77138,24.626722)">
          <use
             id="use5910"
             y="134.765"
             x="484.22556"
             xlink:href="#textext-5654c45b-20"
             width="283.46457"
             height="212.59842" />
          <use
             id="use5912"
             y="134.765"
             x="489.20685"
             xlink:href="#textext-5654c45b-25"
             width="283.46457"
             height="212.59842" />
          <use
             id="use5914"
             y="134.765"
             x="491.97647"
             xlink:href="#textext-5654c45b-13"
             width="283.46457"
             height="212.59842" />
          <use
             id="use5916"
             y="134.765"
             x="496.95776"
             xlink:href="#textext-5654c45b-17"
             width="283.46457"
             height="212.59842" />
        </g>
        <g
           id="g5918"
           style="fill:#000000;fill-opacity:1"
           transform="translate(-171.77138,24.626722)">
          <use
             id="use5920"
             y="134.765"
             x="504.67899"
             xlink:href="#textext-5654c45b-4"
             width="283.46457"
             height="212.59842" />
        </g>
        <g
           id="g5922"
           style="fill:#000000;fill-opacity:1"
           transform="translate(-171.77138,24.626722)">
          <use
             id="use5924"
             y="134.765"
             x="510.767"
             xlink:href="#textext-5654c45b-26"
             width="283.46457"
             height="212.59842" />
        </g>
      </g>
    </g>
  </g>
</svg>
