<?xml version="1.0" encoding="UTF-8" standalone="no"?>
<!-- Created with Inkscape (http://www.inkscape.org/) -->

<svg
   xmlns:ns0="http://www.iki.fi/pav/software/textext/"
   xmlns:dc="http://purl.org/dc/elements/1.1/"
   xmlns:cc="http://creativecommons.org/ns#"
   xmlns:rdf="http://www.w3.org/1999/02/22-rdf-syntax-ns#"
   xmlns:svg="http://www.w3.org/2000/svg"
   xmlns="http://www.w3.org/2000/svg"
   xmlns:xlink="http://www.w3.org/1999/xlink"
   xmlns:sodipodi="http://sodipodi.sourceforge.net/DTD/sodipodi-0.dtd"
   xmlns:inkscape="http://www.inkscape.org/namespaces/inkscape"
   width="744.09448819"
   height="1052.3622047"
   id="svg2"
   version="1.1"
   inkscape:version="0.48.4 r9939"
   sodipodi:docname="New document 1">
  <sodipodi:namedview
     id="base"
     pagecolor="#ffffff"
     bordercolor="#666666"
     borderopacity="1.0"
     inkscape:pageopacity="0.0"
     inkscape:pageshadow="2"
     inkscape:zoom="1.4"
     inkscape:cx="480.19215"
     inkscape:cy="779.57978"
     inkscape:document-units="px"
     inkscape:current-layer="layer1"
     showgrid="false"
     inkscape:window-width="1024"
     inkscape:window-height="744"
     inkscape:window-x="0"
     inkscape:window-y="24"
     inkscape:window-maximized="1" />
  <defs
     id="defs4">
    <marker
       inkscape:stockid="Arrow1Mstart"
       orient="auto"
       refY="0.0"
       refX="0.0"
       id="Arrow1Mstart"
       style="overflow:visible">
      <path
         id="path4368"
         d="M 0.0,0.0 L 5.0,-5.0 L -12.5,0.0 L 5.0,5.0 L 0.0,0.0 z "
         style="fill-rule:evenodd;stroke:#000000;stroke-width:1.0pt"
         transform="scale(0.4) translate(10,0)" />
    </marker>
  </defs>
  <metadata
     id="metadata7">
    <rdf:RDF>
      <cc:Work
         rdf:about="">
        <dc:format>image/svg+xml</dc:format>
        <dc:type
           rdf:resource="http://purl.org/dc/dcmitype/StillImage" />
        <dc:title></dc:title>
      </cc:Work>
    </rdf:RDF>
  </metadata>
  <g
     id="layer1"
     inkscape:groupmode="layer"
     inkscape:label="Layer 1">
    <g
       id="g2990"
       ns0:preamble="/home/sriranga/Desktop/general-books/CSY/article4/figure/package.tex"
       ns0:text="\\begin{align*}\nf_{X}(x) &amp;= \\int\\limits^{\\infty}_{-\\infty}f_{X,Y}(x,y)dy\\\\[3pt]\n        &amp;= \n\\left\\{\n\\begin{array}{cl}\n\\int\\limits^{1}_{0}\\frac{6}{5}(x+y^{2})dy, &amp; 0\\leq x\\leq 1\\\\[3pt]\n0, &amp; \\text{otherwise}\n\\end{array}\n\\right.\n\\end{align*}"
       transform="scale(1.200000,1.200000)">
      <defs
         id="defs2992">
        <g
           id="g2994">
          <symbol
             id="textext-d5642865-0"
             overflow="visible">
            <path
               id="path2997"
               d=""
               style="stroke:none;" />
          </symbol>
          <symbol
             id="textext-d5642865-1"
             overflow="visible">
            <path
               id="path3000"
               d="M 0.34375 -3.953125 L 1.25 -3.953125 L 0.375 0.234375 C 0.15625 1.3125 -0.171875 1.859375 -0.59375 1.859375 C -0.71875 1.859375 -0.796875 1.78125 -0.796875 1.6875 C -0.796875 1.671875 -0.78125 1.640625 -0.75 1.578125 C -0.71875 1.53125 -0.703125 1.484375 -0.703125 1.421875 C -0.703125 1.21875 -0.890625 1.046875 -1.09375 1.046875 C -1.3125 1.046875 -1.46875 1.21875 -1.46875 1.453125 C -1.46875 1.796875 -1.109375 2.0625 -0.671875 2.0625 C 0.203125 2.0625 0.90625 1.078125 1.3125 -0.75 L 2.03125 -3.953125 L 3.125 -3.953125 L 3.1875 -4.265625 L 2.109375 -4.265625 C 2.390625 -5.828125 2.765625 -6.546875 3.3125 -6.546875 C 3.453125 -6.546875 3.53125 -6.484375 3.53125 -6.421875 C 3.53125 -6.390625 3.53125 -6.375 3.5 -6.3125 C 3.453125 -6.234375 3.4375 -6.1875 3.4375 -6.109375 C 3.4375 -5.875 3.59375 -5.71875 3.8125 -5.71875 C 4.03125 -5.71875 4.234375 -5.890625 4.234375 -6.109375 C 4.234375 -6.484375 3.859375 -6.765625 3.375 -6.765625 C 2.875 -6.765625 2.5 -6.546875 2.140625 -6.078125 C 1.828125 -5.6875 1.640625 -5.21875 1.328125 -4.265625 L 0.421875 -4.265625 Z M 0.34375 -3.953125 "
               style="stroke:none;" />
          </symbol>
          <symbol
             id="textext-d5642865-2"
             overflow="visible">
            <path
               id="path3003"
               d="M 4 -1.109375 C 3.921875 -1.015625 3.875 -0.953125 3.78125 -0.84375 C 3.5625 -0.53125 3.4375 -0.4375 3.328125 -0.4375 C 3.1875 -0.4375 3.09375 -0.5625 3.015625 -0.84375 C 3 -0.921875 2.984375 -0.984375 2.984375 -1.015625 C 2.734375 -2.03125 2.625 -2.484375 2.625 -2.625 C 3.0625 -3.40625 3.421875 -3.84375 3.59375 -3.84375 C 3.65625 -3.84375 3.734375 -3.8125 3.84375 -3.765625 C 3.953125 -3.6875 4.03125 -3.671875 4.109375 -3.671875 C 4.3125 -3.671875 4.453125 -3.8125 4.453125 -4.03125 C 4.453125 -4.234375 4.28125 -4.390625 4.046875 -4.390625 C 3.609375 -4.390625 3.234375 -4.03125 2.546875 -2.96875 L 2.4375 -3.515625 C 2.296875 -4.203125 2.1875 -4.390625 1.90625 -4.390625 C 1.6875 -4.390625 1.359375 -4.3125 0.75 -4.109375 L 0.640625 -4.0625 L 0.671875 -3.921875 C 1.0625 -4 1.140625 -4.03125 1.234375 -4.03125 C 1.484375 -4.03125 1.546875 -3.9375 1.6875 -3.34375 L 1.96875 -2.109375 L 1.15625 -0.953125 C 0.953125 -0.640625 0.75 -0.46875 0.640625 -0.46875 C 0.59375 -0.46875 0.484375 -0.5 0.390625 -0.5625 C 0.265625 -0.625 0.15625 -0.65625 0.0625 -0.65625 C -0.125 -0.65625 -0.265625 -0.515625 -0.265625 -0.3125 C -0.265625 -0.046875 -0.0625 0.109375 0.234375 0.109375 C 0.53125 0.109375 0.65625 0.015625 1.15625 -0.59375 C 1.421875 -0.90625 1.640625 -1.171875 2.046875 -1.75 L 2.359375 -0.5625 C 2.484375 -0.046875 2.609375 0.109375 2.9375 0.109375 C 3.3125 0.109375 3.5625 -0.125 4.140625 -1.03125 Z M 4 -1.109375 "
               style="stroke:none;" />
          </symbol>
          <symbol
             id="textext-d5642865-3"
             overflow="visible">
            <path
               id="path3006"
               d="M 0.15625 -3.984375 C 0.28125 -4.015625 0.34375 -4.03125 0.453125 -4.03125 C 1.03125 -4.03125 1.171875 -3.78125 1.640625 -2.0625 C 1.796875 -1.421875 2.046875 -0.25 2.046875 -0.078125 C 2.046875 0.078125 1.984375 0.234375 1.828125 0.421875 C 1.53125 0.828125 1.328125 1.09375 1.21875 1.203125 C 1 1.421875 0.890625 1.5 0.75 1.5 C 0.703125 1.5 0.625 1.46875 0.515625 1.390625 C 0.375 1.28125 0.265625 1.21875 0.15625 1.21875 C -0.0625 1.21875 -0.234375 1.390625 -0.234375 1.609375 C -0.234375 1.859375 -0.015625 2.046875 0.265625 2.046875 C 0.90625 2.046875 2.21875 0.5625 3.296875 -1.421875 C 3.96875 -2.640625 4.25 -3.359375 4.25 -3.84375 C 4.25 -4.140625 4 -4.390625 3.703125 -4.390625 C 3.46875 -4.390625 3.3125 -4.25 3.3125 -4.03125 C 3.3125 -3.875 3.390625 -3.765625 3.59375 -3.640625 C 3.78125 -3.53125 3.84375 -3.4375 3.84375 -3.296875 C 3.84375 -2.90625 3.484375 -2.125 2.625 -0.71875 L 2.4375 -1.875 C 2.28125 -2.75 1.71875 -4.390625 1.578125 -4.390625 L 1.53125 -4.390625 C 1.53125 -4.390625 1.484375 -4.390625 1.453125 -4.390625 C 1.359375 -4.375 1 -4.3125 0.46875 -4.21875 C 0.421875 -4.203125 0.296875 -4.171875 0.15625 -4.15625 Z M 0.15625 -3.984375 "
               style="stroke:none;" />
          </symbol>
          <symbol
             id="textext-d5642865-4"
             overflow="visible">
            <path
               id="path3009"
               d="M 4.609375 -1.109375 C 4.078125 -0.484375 3.96875 -0.40625 3.796875 -0.40625 C 3.703125 -0.40625 3.625 -0.484375 3.625 -0.59375 C 3.625 -0.734375 3.9375 -1.953125 4.265625 -3.046875 C 4.53125 -3.96875 4.75 -4.765625 5.25 -6.765625 L 5.203125 -6.8125 C 4.671875 -6.703125 4.3125 -6.640625 3.671875 -6.578125 L 3.671875 -6.40625 C 4.234375 -6.390625 4.296875 -6.359375 4.296875 -6.15625 C 4.296875 -6.015625 4.28125 -5.96875 4.140625 -5.453125 L 3.703125 -3.8125 C 3.625 -4.234375 3.453125 -4.390625 3.0625 -4.390625 C 1.765625 -4.390625 0.15625 -2.515625 0.15625 -1.03125 C 0.15625 -0.3125 0.546875 0.109375 1.203125 0.109375 C 1.875 0.109375 2.3125 -0.203125 2.984375 -1.203125 C 2.875 -0.703125 2.859375 -0.546875 2.859375 -0.3125 C 2.859375 -0.046875 3.03125 0.125 3.28125 0.125 C 3.703125 0.125 4.21875 -0.28125 4.734375 -1 Z M 3.09375 -4.171875 C 3.40625 -4.140625 3.546875 -3.953125 3.546875 -3.59375 C 3.546875 -2.078125 2.515625 -0.375 1.59375 -0.375 C 1.25 -0.375 1.015625 -0.640625 1.015625 -1.03125 C 1.015625 -1.859375 1.515625 -3.015625 2.171875 -3.703125 C 2.453125 -4 2.828125 -4.1875 3.09375 -4.171875 Z M 3.09375 -4.171875 "
               style="stroke:none;" />
          </symbol>
          <symbol
             id="textext-d5642865-5"
             overflow="visible">
            <path
               id="path3012"
               d=""
               style="stroke:none;" />
          </symbol>
          <symbol
             id="textext-d5642865-6"
             overflow="visible">
            <path
               id="path3015"
               d="M 4.5625 -4.546875 L 3.109375 -4.546875 L 3.109375 -4.4375 C 3.453125 -4.390625 3.546875 -4.34375 3.546875 -4.1875 C 3.546875 -4.09375 3.5 -4.015625 3.40625 -3.90625 L 2.390625 -2.734375 L 1.984375 -3.765625 C 1.90625 -3.9375 1.875 -4.0625 1.875 -4.15625 C 1.875 -4.328125 1.984375 -4.390625 2.375 -4.4375 L 2.375 -4.546875 L 0.53125 -4.546875 L 0.53125 -4.4375 C 0.9375 -4.40625 1.03125 -4.328125 1.171875 -4.015625 L 1.90625 -2.1875 C 1.65625 -1.890625 1.421875 -1.609375 1.328125 -1.5 C 0.359375 -0.359375 0.171875 -0.1875 -0.203125 -0.109375 L -0.203125 0 L 1.296875 0 L 1.296875 -0.109375 C 0.953125 -0.109375 0.84375 -0.171875 0.84375 -0.34375 C 0.84375 -0.453125 0.890625 -0.578125 0.984375 -0.671875 L 2.03125 -1.875 L 2.5 -0.71875 C 2.546875 -0.59375 2.578125 -0.484375 2.578125 -0.390625 C 2.578125 -0.1875 2.515625 -0.140625 2.046875 -0.109375 L 2.046875 0 L 3.953125 0 L 3.953125 -0.109375 C 3.46875 -0.171875 3.40625 -0.203125 3.21875 -0.625 L 2.515625 -2.421875 L 3.6875 -3.78125 C 4.0625 -4.1875 4.265625 -4.34375 4.5625 -4.4375 Z M 4.5625 -4.546875 "
               style="stroke:none;" />
          </symbol>
          <symbol
             id="textext-d5642865-7"
             overflow="visible">
            <path
               id="path3018"
               d="M 0.640625 -4.4375 C 1.03125 -4.390625 1.046875 -4.359375 1.15625 -3.984375 L 1.703125 -2.109375 L 1.28125 -0.625 C 1.15625 -0.25 1 -0.140625 0.546875 -0.109375 L 0.546875 0 L 2.5625 0 L 2.5625 -0.109375 C 2.453125 -0.125 2.34375 -0.125 2.3125 -0.125 C 2.03125 -0.140625 1.9375 -0.21875 1.9375 -0.390625 C 1.9375 -0.53125 1.984375 -0.75 2.15625 -1.296875 C 2.171875 -1.359375 2.1875 -1.40625 2.1875 -1.421875 L 2.390625 -2.125 L 3.921875 -4.015625 C 4.140625 -4.296875 4.203125 -4.34375 4.40625 -4.4375 L 4.40625 -4.546875 L 3.09375 -4.546875 L 3.09375 -4.4375 C 3.171875 -4.4375 3.25 -4.421875 3.28125 -4.421875 C 3.484375 -4.390625 3.578125 -4.34375 3.578125 -4.21875 C 3.578125 -4.03125 3.25 -3.578125 2.53125 -2.734375 C 2.40625 -2.59375 2.375 -2.546875 2.265625 -2.421875 C 2.1875 -2.71875 2.15625 -2.8125 2.046875 -3.1875 C 1.875 -3.78125 1.796875 -4.078125 1.796875 -4.1875 C 1.796875 -4.359375 1.875 -4.390625 2.296875 -4.4375 L 2.296875 -4.546875 L 0.640625 -4.546875 Z M 0.640625 -4.4375 "
               style="stroke:none;" />
          </symbol>
          <symbol
             id="textext-d5642865-8"
             overflow="visible">
            <path
               id="path3021"
               d=""
               style="stroke:none;" />
          </symbol>
          <symbol
             id="textext-d5642865-9"
             overflow="visible">
            <path
               id="path3024"
               d="M 2.9375 -6.734375 C 2.203125 -6.265625 1.90625 -6 1.53125 -5.546875 C 0.828125 -4.671875 0.484375 -3.671875 0.484375 -2.515625 C 0.484375 -1.25 0.84375 -0.265625 1.71875 0.75 C 2.140625 1.21875 2.390625 1.453125 2.90625 1.765625 L 3.03125 1.609375 C 2.234375 0.984375 1.953125 0.625 1.6875 -0.125 C 1.453125 -0.78125 1.328125 -1.546875 1.328125 -2.546875 C 1.328125 -3.59375 1.46875 -4.40625 1.734375 -5.03125 C 2.015625 -5.640625 2.3125 -6 3.03125 -6.578125 Z M 2.9375 -6.734375 "
               style="stroke:none;" />
          </symbol>
          <symbol
             id="textext-d5642865-10"
             overflow="visible">
            <path
               id="path3027"
               d="M 0.375 1.765625 C 1.109375 1.28125 1.421875 1.03125 1.78125 0.5625 C 2.5 -0.296875 2.84375 -1.296875 2.84375 -2.46875 C 2.84375 -3.734375 2.46875 -4.703125 1.59375 -5.71875 C 1.1875 -6.203125 0.921875 -6.421875 0.40625 -6.734375 L 0.296875 -6.578125 C 1.09375 -5.953125 1.359375 -5.609375 1.640625 -4.859375 C 1.875 -4.1875 1.984375 -3.421875 1.984375 -2.4375 C 1.984375 -1.390625 1.859375 -0.5625 1.578125 0.046875 C 1.3125 0.671875 1 1.03125 0.296875 1.609375 Z M 0.375 1.765625 "
               style="stroke:none;" />
          </symbol>
          <symbol
             id="textext-d5642865-11"
             overflow="visible">
            <path
               id="path3030"
               d="M 2.53125 -6.734375 C 1.984375 -6.734375 1.5625 -6.5625 1.203125 -6.21875 C 0.625 -5.65625 0.234375 -4.515625 0.234375 -3.34375 C 0.234375 -2.265625 0.5625 -1.09375 1.03125 -0.53125 C 1.40625 -0.09375 1.90625 0.140625 2.5 0.140625 C 3 0.140625 3.421875 -0.03125 3.78125 -0.375 C 4.359375 -0.921875 4.75 -2.078125 4.75 -3.296875 C 4.75 -5.328125 3.84375 -6.734375 2.53125 -6.734375 Z M 2.5 -6.484375 C 3.34375 -6.484375 3.78125 -5.359375 3.78125 -3.265625 C 3.78125 -1.1875 3.34375 -0.125 2.5 -0.125 C 1.640625 -0.125 1.203125 -1.1875 1.203125 -3.265625 C 1.203125 -5.375 1.640625 -6.484375 2.5 -6.484375 Z M 2.5 -6.484375 "
               style="stroke:none;" />
          </symbol>
          <symbol
             id="textext-d5642865-12"
             overflow="visible">
            <path
               id="path3033"
               d="M 2.90625 -6.734375 L 1.109375 -5.828125 L 1.109375 -5.6875 C 1.21875 -5.734375 1.328125 -5.78125 1.375 -5.796875 C 1.5625 -5.875 1.71875 -5.90625 1.828125 -5.90625 C 2.03125 -5.90625 2.125 -5.765625 2.125 -5.4375 L 2.125 -0.921875 C 2.125 -0.59375 2.046875 -0.375 1.890625 -0.28125 C 1.734375 -0.1875 1.59375 -0.15625 1.171875 -0.15625 L 1.171875 0 L 3.921875 0 L 3.921875 -0.15625 C 3.140625 -0.15625 2.984375 -0.265625 2.984375 -0.734375 L 2.984375 -6.71875 Z M 2.90625 -6.734375 "
               style="stroke:none;" />
          </symbol>
          <symbol
             id="textext-d5642865-13"
             overflow="visible">
            <path
               id="path3036"
               d="M 2.5 -4.578125 C 1.203125 -4.578125 0.296875 -3.625 0.296875 -2.25 C 0.296875 -0.90625 1.21875 0.09375 2.46875 0.09375 C 3.734375 0.09375 4.6875 -0.953125 4.6875 -2.328125 C 4.6875 -3.640625 3.765625 -4.578125 2.5 -4.578125 Z M 2.359375 -4.3125 C 3.203125 -4.3125 3.78125 -3.34375 3.78125 -1.984375 C 3.78125 -0.859375 3.34375 -0.171875 2.59375 -0.171875 C 2.203125 -0.171875 1.828125 -0.421875 1.625 -0.8125 C 1.34375 -1.328125 1.1875 -2.03125 1.1875 -2.734375 C 1.1875 -3.6875 1.65625 -4.3125 2.359375 -4.3125 Z M 2.359375 -4.3125 "
               style="stroke:none;" />
          </symbol>
          <symbol
             id="textext-d5642865-14"
             overflow="visible">
            <path
               id="path3039"
               d="M 2.546875 -4.484375 L 1.53125 -4.484375 L 1.53125 -5.640625 C 1.53125 -5.734375 1.53125 -5.765625 1.46875 -5.765625 C 1.390625 -5.6875 1.328125 -5.59375 1.265625 -5.5 C 0.890625 -4.9375 0.453125 -4.46875 0.296875 -4.421875 C 0.1875 -4.359375 0.125 -4.28125 0.125 -4.234375 C 0.125 -4.203125 0.140625 -4.1875 0.171875 -4.171875 L 0.703125 -4.171875 L 0.703125 -1.171875 C 0.703125 -0.328125 1 0.09375 1.578125 0.09375 C 2.078125 0.09375 2.453125 -0.140625 2.78125 -0.65625 L 2.65625 -0.765625 C 2.4375 -0.515625 2.265625 -0.421875 2.046875 -0.421875 C 1.6875 -0.421875 1.53125 -0.6875 1.53125 -1.3125 L 1.53125 -4.171875 L 2.546875 -4.171875 Z M 2.546875 -4.484375 "
               style="stroke:none;" />
          </symbol>
          <symbol
             id="textext-d5642865-15"
             overflow="visible">
            <path
               id="path3042"
               d="M 1.5625 -3.421875 C 1.984375 -3.875 2.28125 -4.046875 2.671875 -4.046875 C 3.171875 -4.046875 3.421875 -3.6875 3.421875 -2.984375 L 3.421875 -1.015625 C 3.421875 -0.34375 3.3125 -0.203125 2.734375 -0.15625 L 2.734375 0 L 4.859375 0 L 4.859375 -0.15625 C 4.3125 -0.25 4.25 -0.328125 4.25 -1.015625 L 4.25 -3 C 4.25 -4.046875 3.84375 -4.578125 3.03125 -4.578125 C 2.4375 -4.578125 2.03125 -4.34375 1.5625 -3.75 L 1.5625 -6.78125 L 1.515625 -6.8125 C 1.171875 -6.6875 0.921875 -6.609375 0.375 -6.453125 L 0.09375 -6.375 L 0.09375 -6.203125 C 0.140625 -6.21875 0.171875 -6.21875 0.21875 -6.21875 C 0.640625 -6.21875 0.734375 -6.140625 0.734375 -5.71875 L 0.734375 -1.015625 C 0.734375 -0.3125 0.671875 -0.234375 0.09375 -0.15625 L 0.09375 0 L 2.25 0 L 2.25 -0.15625 C 1.671875 -0.203125 1.5625 -0.328125 1.5625 -1.015625 Z M 1.5625 -3.421875 "
               style="stroke:none;" />
          </symbol>
          <symbol
             id="textext-d5642865-16"
             overflow="visible">
            <path
               id="path3045"
               d="M 4.0625 -1.640625 C 3.59375 -0.875 3.15625 -0.59375 2.515625 -0.59375 C 1.953125 -0.59375 1.53125 -0.875 1.234375 -1.453125 C 1.0625 -1.828125 0.984375 -2.15625 0.96875 -2.765625 L 4.03125 -2.765625 C 3.953125 -3.40625 3.859375 -3.703125 3.609375 -4.015625 C 3.3125 -4.375 2.84375 -4.578125 2.328125 -4.578125 C 1.828125 -4.578125 1.359375 -4.40625 0.984375 -4.0625 C 0.515625 -3.65625 0.25 -2.953125 0.25 -2.140625 C 0.25 -0.75 0.96875 0.09375 2.109375 0.09375 C 3.0625 0.09375 3.8125 -0.484375 4.234375 -1.5625 Z M 0.984375 -3.078125 C 1.09375 -3.859375 1.4375 -4.234375 2.046875 -4.234375 C 2.65625 -4.234375 2.890625 -3.953125 3.015625 -3.078125 Z M 0.984375 -3.078125 "
               style="stroke:none;" />
          </symbol>
          <symbol
             id="textext-d5642865-17"
             overflow="visible">
            <path
               id="path3048"
               d="M 0.0625 -3.890625 C 0.203125 -3.921875 0.296875 -3.921875 0.421875 -3.921875 C 0.671875 -3.921875 0.75 -3.765625 0.75 -3.328125 L 0.75 -0.84375 C 0.75 -0.34375 0.6875 -0.265625 0.046875 -0.15625 L 0.046875 0 L 2.4375 0 L 2.4375 -0.15625 C 1.765625 -0.171875 1.59375 -0.328125 1.59375 -0.890625 L 1.59375 -3.140625 C 1.59375 -3.453125 2.03125 -3.953125 2.296875 -3.953125 C 2.359375 -3.953125 2.4375 -3.90625 2.546875 -3.8125 C 2.71875 -3.671875 2.828125 -3.609375 2.953125 -3.609375 C 3.1875 -3.609375 3.34375 -3.78125 3.34375 -4.0625 C 3.34375 -4.390625 3.125 -4.578125 2.796875 -4.578125 C 2.375 -4.578125 2.078125 -4.359375 1.59375 -3.65625 L 1.59375 -4.5625 L 1.546875 -4.578125 C 1.015625 -4.359375 0.65625 -4.234375 0.0625 -4.046875 Z M 0.0625 -3.890625 "
               style="stroke:none;" />
          </symbol>
          <symbol
             id="textext-d5642865-18"
             overflow="visible">
            <path
               id="path3051"
               d="M 5.6875 -4.484375 L 5.6875 -4.34375 C 6.03125 -4.265625 6.125 -4.203125 6.125 -4.03125 C 6.125 -3.875 6.078125 -3.640625 5.96875 -3.375 L 5.0625 -1.15625 L 4.234375 -3.390625 C 4.0625 -3.84375 4.0625 -3.84375 4.0625 -3.984375 C 4.0625 -4.203125 4.171875 -4.265625 4.640625 -4.34375 L 4.640625 -4.484375 L 2.609375 -4.484375 L 2.609375 -4.34375 C 2.984375 -4.296875 3.09375 -4.1875 3.296875 -3.65625 C 3.375 -3.453125 3.4375 -3.265625 3.5 -3.09375 L 2.59375 -1.109375 L 1.609375 -3.703125 C 1.5625 -3.8125 1.546875 -3.90625 1.546875 -4 C 1.546875 -4.21875 1.671875 -4.296875 2 -4.34375 L 2 -4.484375 L 0.203125 -4.484375 L 0.203125 -4.34375 C 0.4375 -4.3125 0.515625 -4.21875 0.734375 -3.703125 L 2.078125 -0.296875 C 2.203125 0 2.28125 0.140625 2.34375 0.140625 C 2.390625 0.140625 2.46875 0.015625 2.59375 -0.25 L 3.703125 -2.640625 L 4.609375 -0.296875 C 4.75 0.078125 4.796875 0.140625 4.859375 0.140625 C 4.921875 0.140625 4.96875 0.046875 5.140625 -0.34375 L 6.515625 -3.796875 C 6.6875 -4.21875 6.71875 -4.265625 6.921875 -4.34375 L 6.921875 -4.484375 Z M 5.6875 -4.484375 "
               style="stroke:none;" />
          </symbol>
          <symbol
             id="textext-d5642865-19"
             overflow="visible">
            <path
               id="path3054"
               d="M 1.75 -4.578125 L 0.203125 -4.03125 L 0.203125 -3.890625 L 0.28125 -3.890625 C 0.40625 -3.921875 0.53125 -3.921875 0.625 -3.921875 C 0.859375 -3.921875 0.953125 -3.765625 0.953125 -3.328125 L 0.953125 -1.015625 C 0.953125 -0.296875 0.84375 -0.1875 0.15625 -0.15625 L 0.15625 0 L 2.515625 0 L 2.515625 -0.15625 C 1.859375 -0.203125 1.78125 -0.296875 1.78125 -1.015625 L 1.78125 -4.5625 Z M 1.28125 -6.8125 C 1 -6.8125 0.78125 -6.578125 0.78125 -6.296875 C 0.78125 -6.015625 1 -5.796875 1.28125 -5.796875 C 1.5625 -5.796875 1.796875 -6.015625 1.796875 -6.296875 C 1.796875 -6.578125 1.5625 -6.8125 1.28125 -6.8125 Z M 1.28125 -6.8125 "
               style="stroke:none;" />
          </symbol>
          <symbol
             id="textext-d5642865-20"
             overflow="visible">
            <path
               id="path3057"
               d="M 3.140625 -3.125 L 3.09375 -4.484375 L 2.984375 -4.484375 L 2.96875 -4.46875 C 2.875 -4.390625 2.875 -4.390625 2.828125 -4.390625 C 2.765625 -4.390625 2.671875 -4.40625 2.5625 -4.453125 C 2.34375 -4.53125 2.125 -4.578125 1.859375 -4.578125 C 1.078125 -4.578125 0.515625 -4.0625 0.515625 -3.34375 C 0.515625 -2.796875 0.828125 -2.390625 1.671875 -1.90625 L 2.25 -1.578125 C 2.609375 -1.390625 2.765625 -1.140625 2.765625 -0.84375 C 2.765625 -0.40625 2.453125 -0.125 1.9375 -0.125 C 1.609375 -0.125 1.296875 -0.25 1.109375 -0.46875 C 0.890625 -0.71875 0.8125 -0.953125 0.671875 -1.515625 L 0.515625 -1.515625 L 0.515625 0.046875 L 0.640625 0.046875 C 0.71875 -0.0625 0.75 -0.078125 0.875 -0.078125 C 0.96875 -0.078125 1.109375 -0.0625 1.328125 0 C 1.609375 0.0625 1.890625 0.09375 2.0625 0.09375 C 2.828125 0.09375 3.46875 -0.484375 3.46875 -1.171875 C 3.46875 -1.671875 3.234375 -2 2.625 -2.359375 L 1.5625 -3 C 1.28125 -3.15625 1.125 -3.40625 1.125 -3.671875 C 1.125 -4.078125 1.4375 -4.359375 1.890625 -4.359375 C 2.46875 -4.359375 2.765625 -4.015625 2.984375 -3.125 Z M 3.140625 -3.125 "
               style="stroke:none;" />
          </symbol>
          <symbol
             id="textext-d5642865-21"
             overflow="visible">
            <path
               id="path3060"
               d=""
               style="stroke:none;" />
          </symbol>
          <symbol
             id="textext-d5642865-22"
             overflow="visible">
            <path
               id="path3063"
               d="M 5.71875 -3.296875 L 5.71875 -3.84375 L 0.625 -3.84375 L 0.625 -3.296875 Z M 5.71875 -1.265625 L 5.71875 -1.828125 L 0.625 -1.828125 L 0.625 -1.265625 Z M 5.71875 -1.265625 "
               style="stroke:none;" />
          </symbol>
          <symbol
             id="textext-d5642865-23"
             overflow="visible">
            <path
               id="path3066"
               d="M 5.71875 -2.28125 L 5.71875 -2.84375 L 3.453125 -2.84375 L 3.453125 -5.09375 L 2.890625 -5.09375 L 2.890625 -2.84375 L 0.625 -2.84375 L 0.625 -2.28125 L 2.890625 -2.28125 L 2.890625 0 L 3.453125 0 L 3.453125 -2.28125 Z M 5.71875 -2.28125 "
               style="stroke:none;" />
          </symbol>
          <symbol
             id="textext-d5642865-24"
             overflow="visible">
            <path
               id="path3069"
               d=""
               style="stroke:none;" />
          </symbol>
          <symbol
             id="textext-d5642865-25"
             overflow="visible">
            <path
               id="path3072"
               d="M 5.578125 -1.875 C 5.578125 -2.515625 5.234375 -3.046875 4.546875 -3.046875 C 3.96875 -3.046875 3.421875 -2.5 3.0625 -2.078125 C 2.78125 -2.5625 2.203125 -3.0625 1.625 -3.0625 C 0.859375 -3.0625 0.359375 -2.328125 0.359375 -1.609375 C 0.359375 -0.984375 0.71875 -0.4375 1.40625 -0.4375 C 1.953125 -0.4375 2.578125 -1 2.890625 -1.421875 C 3.21875 -0.953125 3.71875 -0.4375 4.328125 -0.4375 C 5.09375 -0.4375 5.578125 -1.1875 5.578125 -1.875 Z M 5.1875 -1.5625 C 5.1875 -1.09375 4.953125 -0.71875 4.453125 -0.71875 C 3.9375 -0.71875 3.453125 -1.5 3.1875 -1.875 C 3.390625 -2.1875 3.953125 -2.703125 4.34375 -2.703125 C 4.90625 -2.703125 5.1875 -2.03125 5.1875 -1.5625 Z M 2.765625 -1.625 C 2.5625 -1.3125 2 -0.8125 1.609375 -0.8125 C 1.046875 -0.8125 0.78125 -1.484375 0.78125 -1.953125 C 0.78125 -2.421875 1.015625 -2.8125 1.515625 -2.8125 C 1.984375 -2.8125 2.5625 -2.015625 2.765625 -1.625 Z M 2.765625 -1.625 "
               style="stroke:none;" />
          </symbol>
          <symbol
             id="textext-d5642865-26"
             overflow="visible">
            <path
               id="path3075"
               d="M 4 -1.59375 L 4 -1.984375 L 0.4375 -1.984375 L 0.4375 -1.59375 Z M 4 -1.59375 "
               style="stroke:none;" />
          </symbol>
          <symbol
             id="textext-d5642865-27"
             overflow="visible">
            <path
               id="path3078"
               d=""
               style="stroke:none;" />
          </symbol>
          <symbol
             id="textext-d5642865-28"
             overflow="visible">
            <path
               id="path3081"
               d="M 10.84375 1.234375 C 10.84375 0.421875 9.734375 0 9.0625 0 C 5.671875 0 5.375 5.09375 5.21875 7.53125 C 5.03125 10.5 4.8125 13.484375 4.71875 16.453125 C 4.671875 17.890625 4.6875 21.625 2.578125 21.625 C 2.234375 21.625 2 21.25 2 20.984375 C 2 20.53125 1.4375 20.09375 1.015625 20.09375 C 0.671875 20.09375 0.609375 20.453125 0.609375 20.71875 C 0.609375 21.578125 1.703125 22 2.4375 22 C 5.359375 22 5.5 17.734375 5.734375 15.59375 C 6.03125 12.890625 6.1875 10.15625 6.359375 7.4375 C 6.46875 5.875 6.609375 0.359375 8.90625 0.359375 C 9.359375 0.359375 9.515625 0.75 9.515625 0.984375 C 9.515625 1.40625 10.046875 1.796875 10.4375 1.796875 C 10.75 1.796875 10.84375 1.484375 10.84375 1.234375 Z M 10.84375 1.234375 "
               style="stroke:none;" />
          </symbol>
          <symbol
             id="textext-d5642865-29"
             overflow="visible">
            <path
               id="path3084"
               d="M 5.03125 -0.515625 C 5.03125 -0.53125 5 -0.5625 4.96875 -0.5625 C 4.875 -0.5625 4.71875 -0.484375 4.671875 -0.453125 C 2.984375 0.4375 2.296875 2.328125 2.296875 5.734375 L 2.296875 6.234375 L 3.203125 6.234375 L 3.203125 5.15625 C 3.203125 3.328125 3.265625 0.859375 4.765625 -0.25 C 4.859375 -0.3125 5.03125 -0.421875 5.03125 -0.515625 Z M 5.03125 -0.515625 "
               style="stroke:none;" />
          </symbol>
          <symbol
             id="textext-d5642865-30"
             overflow="visible">
            <path
               id="path3087"
               d="M 3.203125 2.984375 L 3.203125 -0.09375 L 2.296875 -0.09375 L 2.296875 2.984375 Z M 3.203125 2.984375 "
               style="stroke:none;" />
          </symbol>
          <symbol
             id="textext-d5642865-31"
             overflow="visible">
            <path
               id="path3090"
               d="M 3.203125 7.0625 L 3.203125 6.5625 C 3.203125 5.6875 2.875 4.15625 1.265625 3.484375 C 2.875 2.796875 3.203125 1.28125 3.203125 0.40625 L 3.203125 -0.09375 L 2.296875 -0.09375 L 2.296875 0.40625 C 2.296875 2.875 0.484375 3.5 0.484375 3.5 L 0.484375 3.515625 C 0.484375 3.515625 2.296875 4.09375 2.296875 6.5625 L 2.296875 7.0625 Z M 3.203125 7.0625 "
               style="stroke:none;" />
          </symbol>
          <symbol
             id="textext-d5642865-32"
             overflow="visible">
            <path
               id="path3093"
               d="M 5.03125 6.640625 C 5.03125 6.5625 4.859375 6.453125 4.765625 6.375 C 3.265625 5.28125 3.203125 2.796875 3.203125 0.96875 L 3.203125 -0.09375 L 2.296875 -0.09375 L 2.296875 0.40625 C 2.296875 3.8125 2.984375 5.6875 4.671875 6.59375 C 4.71875 6.609375 4.875 6.6875 4.96875 6.6875 C 5 6.6875 5.03125 6.671875 5.03125 6.640625 Z M 5.03125 6.640625 "
               style="stroke:none;" />
          </symbol>
          <symbol
             id="textext-d5642865-33"
             overflow="visible">
            <path
               id="path3096"
               d="M 6.5625 0.78125 C 6.5625 0.234375 5.875 0 5.421875 0 C 3.484375 0 3.25 2.90625 3.15625 4.3125 C 3.046875 6 2.9375 7.703125 2.875 9.40625 C 2.84375 10.1875 2.953125 12.265625 1.75 12.265625 C 1.640625 12.265625 1.5 12.234375 1.421875 12.140625 C 1.453125 12.09375 1.46875 12.015625 1.46875 11.96875 C 1.46875 11.65625 1.078125 11.359375 0.78125 11.359375 C 0.5625 11.359375 0.515625 11.609375 0.515625 11.78125 C 0.515625 12.34375 1.1875 12.578125 1.640625 12.578125 C 3.296875 12.578125 3.59375 10.171875 3.734375 8.9375 C 3.90625 7.390625 3.984375 5.828125 4.09375 4.28125 C 4.15625 3.453125 4 0.296875 5.328125 0.296875 C 5.4375 0.296875 5.5625 0.328125 5.640625 0.421875 C 5.609375 0.484375 5.609375 0.53125 5.609375 0.609375 C 5.609375 0.90625 5.984375 1.203125 6.28125 1.203125 C 6.515625 1.203125 6.5625 0.984375 6.5625 0.78125 Z M 6.5625 0.78125 "
               style="stroke:none;" />
          </symbol>
          <symbol
             id="textext-d5642865-34"
             overflow="visible">
            <path
               id="path3099"
               d=""
               style="stroke:none;" />
          </symbol>
          <symbol
             id="textext-d5642865-35"
             overflow="visible">
            <path
               id="path3102"
               d="M 1.359375 -0.046875 C 1.359375 -0.625 0.953125 -0.703125 0.796875 -0.703125 C 0.625 -0.703125 0.390625 -0.609375 0.390625 -0.3125 C 0.390625 -0.03125 0.640625 0.046875 0.828125 0.046875 C 0.875 0.046875 0.90625 0.03125 0.921875 0.03125 C 0.953125 0.015625 0.96875 0.015625 0.984375 0.015625 C 1.03125 0.015625 1.09375 0.046875 1.09375 0.109375 C 1.09375 0.25 0.96875 0.5625 0.515625 0.84375 L 0.578125 0.984375 C 0.78125 0.90625 1.359375 0.453125 1.359375 -0.046875 Z M 1.359375 -0.046875 "
               style="stroke:none;" />
          </symbol>
          <symbol
             id="textext-d5642865-36"
             overflow="visible">
            <path
               id="path3105"
               d=""
               style="stroke:none;" />
          </symbol>
          <symbol
             id="textext-d5642865-37"
             overflow="visible">
            <path
               id="path3108"
               d="M 1.9375 -0.0625 C 1.9375 -0.890625 1.359375 -1.015625 1.140625 -1.015625 C 0.890625 -1.015625 0.5625 -0.875 0.5625 -0.4375 C 0.5625 -0.046875 0.921875 0.0625 1.171875 0.0625 C 1.25 0.0625 1.296875 0.046875 1.328125 0.046875 C 1.359375 0.03125 1.390625 0.015625 1.421875 0.015625 C 1.484375 0.015625 1.5625 0.0625 1.5625 0.15625 C 1.5625 0.34375 1.390625 0.796875 0.734375 1.21875 L 0.828125 1.40625 C 1.125 1.3125 1.9375 0.640625 1.9375 -0.0625 Z M 1.9375 -0.0625 "
               style="stroke:none;" />
          </symbol>
          <symbol
             id="textext-d5642865-38"
             overflow="visible">
            <path
               id="path3111"
               d=""
               style="stroke:none;" />
          </symbol>
          <symbol
             id="textext-d5642865-39"
             overflow="visible">
            <path
               id="path3114"
               d="M 2.03125 -4.703125 L 0.78125 -4.078125 L 0.78125 -3.984375 C 0.859375 -4.015625 0.9375 -4.046875 0.96875 -4.0625 C 1.09375 -4.109375 1.203125 -4.125 1.28125 -4.125 C 1.421875 -4.125 1.484375 -4.03125 1.484375 -3.8125 L 1.484375 -0.640625 C 1.484375 -0.421875 1.421875 -0.265625 1.3125 -0.1875 C 1.21875 -0.125 1.109375 -0.109375 0.828125 -0.109375 L 0.828125 0 L 2.75 0 L 2.75 -0.109375 C 2.1875 -0.109375 2.078125 -0.1875 2.078125 -0.515625 L 2.078125 -4.703125 Z M 2.03125 -4.703125 "
               style="stroke:none;" />
          </symbol>
          <symbol
             id="textext-d5642865-40"
             overflow="visible">
            <path
               id="path3117"
               d="M 1.765625 -4.703125 C 1.390625 -4.703125 1.09375 -4.59375 0.84375 -4.34375 C 0.4375 -3.953125 0.171875 -3.15625 0.171875 -2.34375 C 0.171875 -1.578125 0.390625 -0.765625 0.71875 -0.375 C 0.984375 -0.0625 1.34375 0.09375 1.734375 0.09375 C 2.09375 0.09375 2.390625 -0.015625 2.640625 -0.265625 C 3.046875 -0.640625 3.3125 -1.453125 3.3125 -2.296875 C 3.3125 -3.734375 2.6875 -4.703125 1.765625 -4.703125 Z M 1.75 -4.53125 C 2.328125 -4.53125 2.640625 -3.75 2.640625 -2.28125 C 2.640625 -0.828125 2.34375 -0.078125 1.734375 -0.078125 C 1.140625 -0.078125 0.84375 -0.828125 0.84375 -2.28125 C 0.84375 -3.75 1.15625 -4.53125 1.75 -4.53125 Z M 1.75 -4.53125 "
               style="stroke:none;" />
          </symbol>
          <symbol
             id="textext-d5642865-41"
             overflow="visible">
            <path
               id="path3120"
               d="M 3.109375 -4.765625 C 2.3125 -4.703125 1.90625 -4.5625 1.40625 -4.203125 C 0.640625 -3.671875 0.234375 -2.875 0.234375 -1.9375 C 0.234375 -1.34375 0.421875 -0.71875 0.71875 -0.375 C 0.984375 -0.0625 1.359375 0.09375 1.796875 0.09375 C 2.65625 0.09375 3.265625 -0.5625 3.265625 -1.53125 C 3.265625 -2.421875 2.75 -2.984375 1.953125 -2.984375 C 1.640625 -2.984375 1.5 -2.9375 1.0625 -2.671875 C 1.25 -3.71875 2.03125 -4.46875 3.125 -4.65625 Z M 1.6875 -2.65625 C 2.28125 -2.65625 2.640625 -2.15625 2.640625 -1.296875 C 2.640625 -0.515625 2.359375 -0.09375 1.875 -0.09375 C 1.265625 -0.09375 0.890625 -0.75 0.890625 -1.828125 C 0.890625 -2.1875 0.9375 -2.390625 1.078125 -2.484375 C 1.21875 -2.59375 1.4375 -2.65625 1.6875 -2.65625 Z M 1.6875 -2.65625 "
               style="stroke:none;" />
          </symbol>
          <symbol
             id="textext-d5642865-42"
             overflow="visible">
            <path
               id="path3123"
               d="M 1.265625 -4.0625 L 2.625 -4.0625 C 2.734375 -4.0625 2.765625 -4.078125 2.78125 -4.125 L 3.046875 -4.75 L 2.984375 -4.796875 C 2.890625 -4.640625 2.8125 -4.609375 2.671875 -4.609375 L 1.21875 -4.609375 L 0.453125 -2.96875 C 0.453125 -2.953125 0.453125 -2.9375 0.453125 -2.921875 C 0.453125 -2.890625 0.46875 -2.875 0.53125 -2.875 C 0.75 -2.875 1.03125 -2.828125 1.3125 -2.734375 C 2.125 -2.46875 2.484375 -2.046875 2.484375 -1.359375 C 2.484375 -0.6875 2.0625 -0.15625 1.515625 -0.15625 C 1.375 -0.15625 1.265625 -0.203125 1.046875 -0.359375 C 0.828125 -0.515625 0.671875 -0.59375 0.515625 -0.59375 C 0.328125 -0.59375 0.21875 -0.515625 0.21875 -0.328125 C 0.21875 -0.0625 0.546875 0.09375 1.078125 0.09375 C 1.65625 0.09375 2.15625 -0.09375 2.515625 -0.453125 C 2.828125 -0.765625 2.96875 -1.15625 2.96875 -1.6875 C 2.96875 -2.1875 2.84375 -2.515625 2.5 -2.859375 C 2.1875 -3.15625 1.796875 -3.328125 0.96875 -3.46875 Z M 1.265625 -4.0625 "
               style="stroke:none;" />
          </symbol>
          <symbol
             id="textext-d5642865-43"
             overflow="visible">
            <path
               id="path3126"
               d="M 3.3125 -0.953125 L 3.21875 -0.984375 C 2.96875 -0.59375 2.875 -0.53125 2.5625 -0.53125 L 0.890625 -0.53125 L 2.0625 -1.75 C 2.6875 -2.40625 2.953125 -2.9375 2.953125 -3.484375 C 2.953125 -4.171875 2.390625 -4.703125 1.671875 -4.703125 C 1.28125 -4.703125 0.921875 -4.5625 0.65625 -4.28125 C 0.4375 -4.046875 0.328125 -3.8125 0.21875 -3.328125 L 0.359375 -3.296875 C 0.640625 -3.96875 0.890625 -4.1875 1.375 -4.1875 C 1.953125 -4.1875 2.359375 -3.796875 2.359375 -3.21875 C 2.359375 -2.671875 2.03125 -2.015625 1.453125 -1.40625 L 0.203125 -0.078125 L 0.203125 0 L 2.921875 0 Z M 3.3125 -0.953125 "
               style="stroke:none;" />
          </symbol>
          <symbol
             id="textext-d5642865-44"
             overflow="visible">
            <path
               id="path3129"
               d=""
               style="stroke:none;" />
          </symbol>
          <symbol
             id="textext-d5642865-45"
             overflow="visible">
            <path
               id="path3132"
               d="M 5.71875 -0.71875 L 5.71875 -1.28125 L 1.578125 -3.21875 L 5.71875 -5.15625 L 5.71875 -5.71875 L 0.625 -3.3125 L 0.625 -3.109375 Z M 5.71875 0.578125 L 5.71875 0.046875 L 0.625 0.046875 L 0.625 0.578125 Z M 5.71875 0.578125 "
               style="stroke:none;" />
          </symbol>
        </g>
      </defs>
      <g
         id="textext-d5642865-46">
        <g
           id="g3135"
           style="fill:rgb(0%,0%,0%);fill-opacity:1;">
          <use
             id="use3137"
             y="144.462"
             x="319.11"
             xlink:href="#textext-d5642865-1" />
        </g>
        <g
           id="g3139"
           style="fill:rgb(0%,0%,0%);fill-opacity:1;">
          <use
             id="use3141"
             y="145.957"
             x="322.054"
             xlink:href="#textext-d5642865-6" />
        </g>
        <g
           id="g3143"
           style="fill:rgb(0%,0%,0%);fill-opacity:1;">
          <use
             id="use3145"
             y="144.462"
             x="327.12"
             xlink:href="#textext-d5642865-9" />
        </g>
        <g
           id="g3147"
           style="fill:rgb(0%,0%,0%);fill-opacity:1;">
          <use
             id="use3149"
             y="144.462"
             x="330.936"
             xlink:href="#textext-d5642865-2" />
        </g>
        <g
           id="g3151"
           style="fill:rgb(0%,0%,0%);fill-opacity:1;">
          <use
             id="use3153"
             y="144.462"
             x="335.389"
             xlink:href="#textext-d5642865-10" />
        </g>
        <g
           id="g3155"
           style="fill:rgb(0%,0%,0%);fill-opacity:1;">
          <use
             id="use3157"
             y="144.462"
             x="341.474"
             xlink:href="#textext-d5642865-22" />
        </g>
        <g
           id="g3159"
           style="fill:rgb(0%,0%,0%);fill-opacity:1;">
          <use
             id="use3161"
             y="128.916"
             x="355.245"
             xlink:href="#textext-d5642865-25" />
        </g>
        <g
           id="g3163"
           style="fill:rgb(0%,0%,0%);fill-opacity:1;">
          <use
             id="use3165"
             y="130.908"
             x="350.578"
             xlink:href="#textext-d5642865-28" />
        </g>
        <g
           id="g3167"
           style="fill:rgb(0%,0%,0%);fill-opacity:1;">
          <use
             id="use3169"
             y="158.873"
             x="348.574"
             xlink:href="#textext-d5642865-26" />
          <use
             id="use3171"
             y="158.873"
             x="353.009337"
             xlink:href="#textext-d5642865-25" />
        </g>
        <g
           id="g3173"
           style="fill:rgb(0%,0%,0%);fill-opacity:1;">
          <use
             id="use3175"
             y="144.462"
             x="364.562"
             xlink:href="#textext-d5642865-1" />
        </g>
        <g
           id="g3177"
           style="fill:rgb(0%,0%,0%);fill-opacity:1;">
          <use
             id="use3179"
             y="145.957"
             x="367.506"
             xlink:href="#textext-d5642865-6" />
        </g>
        <g
           id="g3181"
           style="fill:rgb(0%,0%,0%);fill-opacity:1;">
          <use
             id="use3183"
             y="145.957"
             x="371.69"
             xlink:href="#textext-d5642865-35" />
        </g>
        <g
           id="g3185"
           style="fill:rgb(0%,0%,0%);fill-opacity:1;">
          <use
             id="use3187"
             y="145.957"
             x="373.433"
             xlink:href="#textext-d5642865-7" />
        </g>
        <g
           id="g3189"
           style="fill:rgb(0%,0%,0%);fill-opacity:1;">
          <use
             id="use3191"
             y="144.462"
             x="378.346"
             xlink:href="#textext-d5642865-9" />
        </g>
        <g
           id="g3193"
           style="fill:rgb(0%,0%,0%);fill-opacity:1;">
          <use
             id="use3195"
             y="144.462"
             x="382.162"
             xlink:href="#textext-d5642865-2" />
        </g>
        <g
           id="g3197"
           style="fill:rgb(0%,0%,0%);fill-opacity:1;">
          <use
             id="use3199"
             y="144.462"
             x="386.615"
             xlink:href="#textext-d5642865-37" />
        </g>
        <g
           id="g3201"
           style="fill:rgb(0%,0%,0%);fill-opacity:1;">
          <use
             id="use3203"
             y="144.462"
             x="390.766"
             xlink:href="#textext-d5642865-3" />
        </g>
        <g
           id="g3205"
           style="fill:rgb(0%,0%,0%);fill-opacity:1;">
          <use
             id="use3207"
             y="144.462"
             x="395.189"
             xlink:href="#textext-d5642865-10" />
        </g>
        <g
           id="g3209"
           style="fill:rgb(0%,0%,0%);fill-opacity:1;">
          <use
             id="use3211"
             y="144.462"
             x="398.507"
             xlink:href="#textext-d5642865-4" />
        </g>
        <g
           id="g3213"
           style="fill:rgb(0%,0%,0%);fill-opacity:1;">
          <use
             id="use3215"
             y="144.462"
             x="403.75729"
             xlink:href="#textext-d5642865-3" />
        </g>
        <g
           id="g3217"
           style="fill:rgb(0%,0%,0%);fill-opacity:1;">
          <use
             id="use3219"
             y="189.2"
             x="341.474"
             xlink:href="#textext-d5642865-22" />
        </g>
        <g
           id="g3221"
           style="fill:rgb(0%,0%,0%);fill-opacity:1;">
          <use
             id="use3223"
             y="168.119"
             x="350.578"
             xlink:href="#textext-d5642865-29" />
        </g>
        <g
           id="g3225"
           style="fill:rgb(0%,0%,0%);fill-opacity:1;">
          <use
             id="use3227"
             y="174.226"
             x="350.578"
             xlink:href="#textext-d5642865-30" />
        </g>
        <g
           id="g3229"
           style="fill:rgb(0%,0%,0%);fill-opacity:1;">
          <use
             id="use3231"
             y="176.507"
             x="350.578"
             xlink:href="#textext-d5642865-30" />
        </g>
        <g
           id="g3233"
           style="fill:rgb(0%,0%,0%);fill-opacity:1;">
          <use
             id="use3235"
             y="178.789"
             x="350.578"
             xlink:href="#textext-d5642865-30" />
        </g>
        <g
           id="g3237"
           style="fill:rgb(0%,0%,0%);fill-opacity:1;">
          <use
             id="use3239"
             y="181.07"
             x="350.578"
             xlink:href="#textext-d5642865-30" />
        </g>
        <g
           id="g3241"
           style="fill:rgb(0%,0%,0%);fill-opacity:1;">
          <use
             id="use3243"
             y="183.352"
             x="350.578"
             xlink:href="#textext-d5642865-31" />
        </g>
        <g
           id="g3245"
           style="fill:rgb(0%,0%,0%);fill-opacity:1;">
          <use
             id="use3247"
             y="190.286"
             x="350.578"
             xlink:href="#textext-d5642865-30" />
        </g>
        <g
           id="g3249"
           style="fill:rgb(0%,0%,0%);fill-opacity:1;">
          <use
             id="use3251"
             y="192.567"
             x="350.578"
             xlink:href="#textext-d5642865-30" />
        </g>
        <g
           id="g3253"
           style="fill:rgb(0%,0%,0%);fill-opacity:1;">
          <use
             id="use3255"
             y="194.848"
             x="350.578"
             xlink:href="#textext-d5642865-30" />
        </g>
        <g
           id="g3257"
           style="fill:rgb(0%,0%,0%);fill-opacity:1;">
          <use
             id="use3259"
             y="197.13"
             x="350.578"
             xlink:href="#textext-d5642865-30" />
        </g>
        <g
           id="g3261"
           style="fill:rgb(0%,0%,0%);fill-opacity:1;">
          <use
             id="use3263"
             y="199.411"
             x="350.578"
             xlink:href="#textext-d5642865-32" />
        </g>
        <g
           id="g3265"
           style="fill:rgb(0%,0%,0%);fill-opacity:1;">
          <use
             id="use3267"
             y="172.505"
             x="363.937"
             xlink:href="#textext-d5642865-39" />
        </g>
        <g
           id="g3269"
           style="fill:rgb(0%,0%,0%);fill-opacity:1;">
          <use
             id="use3271"
             y="174.498"
             x="361.058"
             xlink:href="#textext-d5642865-33" />
        </g>
        <g
           id="g3273"
           style="fill:rgb(0%,0%,0%);fill-opacity:1;">
          <use
             id="use3275"
             y="193.39"
             x="361.257"
             xlink:href="#textext-d5642865-40" />
        </g>
        <g
           id="g3277"
           style="fill:rgb(0%,0%,0%);fill-opacity:1;">
          <use
             id="use3279"
             y="179.414"
             x="370.479"
             xlink:href="#textext-d5642865-41" />
        </g>
        <path
           id="path3281"
           transform="matrix(1,0,0,-1,370.48,180.779)"
           d="M 0.00046875 0.00165625 L 3.48875 0.00165625 "
           style="fill:none;stroke-width:0.558;stroke-linecap:butt;stroke-linejoin:miter;stroke:rgb(0%,0%,0%);stroke-opacity:1;stroke-miterlimit:10;" />
        <g
           id="g3283"
           style="fill:rgb(0%,0%,0%);fill-opacity:1;">
          <use
             id="use3285"
             y="186.776"
             x="370.48"
             xlink:href="#textext-d5642865-42" />
        </g>
        <g
           id="g3287"
           style="fill:rgb(0%,0%,0%);fill-opacity:1;">
          <use
             id="use3289"
             y="183.339"
             x="375.162"
             xlink:href="#textext-d5642865-9" />
        </g>
        <g
           id="g3291"
           style="fill:rgb(0%,0%,0%);fill-opacity:1;">
          <use
             id="use3293"
             y="183.339"
             x="378.978"
             xlink:href="#textext-d5642865-2" />
        </g>
        <g
           id="g3295"
           style="fill:rgb(0%,0%,0%);fill-opacity:1;">
          <use
             id="use3297"
             y="183.339"
             x="385.645"
             xlink:href="#textext-d5642865-23" />
        </g>
        <g
           id="g3299"
           style="fill:rgb(0%,0%,0%);fill-opacity:1;">
          <use
             id="use3301"
             y="183.339"
             x="394.195"
             xlink:href="#textext-d5642865-3" />
        </g>
        <g
           id="g3303"
           style="fill:rgb(0%,0%,0%);fill-opacity:1;">
          <use
             id="use3305"
             y="179.723"
             x="398.618"
             xlink:href="#textext-d5642865-43" />
        </g>
        <g
           id="g3307"
           style="fill:rgb(0%,0%,0%);fill-opacity:1;">
          <use
             id="use3309"
             y="183.339"
             x="402.603"
             xlink:href="#textext-d5642865-10" />
        </g>
        <g
           id="g3311"
           style="fill:rgb(0%,0%,0%);fill-opacity:1;">
          <use
             id="use3313"
             y="183.339"
             x="405.921"
             xlink:href="#textext-d5642865-4" />
        </g>
        <g
           id="g3315"
           style="fill:rgb(0%,0%,0%);fill-opacity:1;">
          <use
             id="use3317"
             y="183.339"
             x="411.17129"
             xlink:href="#textext-d5642865-3" />
        </g>
        <g
           id="g3319"
           style="fill:rgb(0%,0%,0%);fill-opacity:1;">
          <use
             id="use3321"
             y="183.339"
             x="415.595"
             xlink:href="#textext-d5642865-37" />
        </g>
        <g
           id="g3323"
           style="fill:rgb(0%,0%,0%);fill-opacity:1;">
          <use
             id="use3325"
             y="183.339"
             x="428.048"
             xlink:href="#textext-d5642865-11" />
        </g>
        <g
           id="g3327"
           style="fill:rgb(0%,0%,0%);fill-opacity:1;">
          <use
             id="use3329"
             y="183.339"
             x="435.797"
             xlink:href="#textext-d5642865-45" />
        </g>
        <g
           id="g3331"
           style="fill:rgb(0%,0%,0%);fill-opacity:1;">
          <use
             id="use3333"
             y="183.339"
             x="445.398"
             xlink:href="#textext-d5642865-2" />
        </g>
        <g
           id="g3335"
           style="fill:rgb(0%,0%,0%);fill-opacity:1;">
          <use
             id="use3337"
             y="183.339"
             x="452.619"
             xlink:href="#textext-d5642865-45" />
        </g>
        <g
           id="g3339"
           style="fill:rgb(0%,0%,0%);fill-opacity:1;">
          <use
             id="use3341"
             y="183.339"
             x="461.723"
             xlink:href="#textext-d5642865-12" />
        </g>
        <g
           id="g3343"
           style="fill:rgb(0%,0%,0%);fill-opacity:1;">
          <use
             id="use3345"
             y="202.849"
             x="385.836"
             xlink:href="#textext-d5642865-11" />
        </g>
        <g
           id="g3347"
           style="fill:rgb(0%,0%,0%);fill-opacity:1;">
          <use
             id="use3349"
             y="202.849"
             x="390.817"
             xlink:href="#textext-d5642865-37" />
        </g>
        <g
           id="g3351"
           style="fill:rgb(0%,0%,0%);fill-opacity:1;">
          <use
             id="use3353"
             y="202.849"
             x="428.048"
             xlink:href="#textext-d5642865-13" />
          <use
             id="use3355"
             y="202.849"
             x="433.0293"
             xlink:href="#textext-d5642865-14" />
          <use
             id="use3357"
             y="202.849"
             x="435.798903"
             xlink:href="#textext-d5642865-15" />
          <use
             id="use3359"
             y="202.849"
             x="440.780203"
             xlink:href="#textext-d5642865-16" />
          <use
             id="use3361"
             y="202.849"
             x="445.203597"
             xlink:href="#textext-d5642865-17" />
          <use
             id="use3363"
             y="202.849"
             x="448.521143"
             xlink:href="#textext-d5642865-18" />
          <use
             id="use3365"
             y="202.849"
             x="455.71414"
             xlink:href="#textext-d5642865-19" />
          <use
             id="use3367"
             y="202.849"
             x="458.483743"
             xlink:href="#textext-d5642865-20" />
          <use
             id="use3369"
             y="202.849"
             x="462.359194"
             xlink:href="#textext-d5642865-16" />
        </g>
      </g>
    </g>
    <path
       style="fill:none;stroke:#000000;stroke-width:0.99999994px;stroke-linecap:butt;stroke-linejoin:miter;stroke-opacity:1;marker-start:url(#Arrow1Mstart)"
       d="m 413.15239,234.5037 c 0,0 -3.18497,38.87352 0,41.4622 5.09717,2.50083 40.4061,1.64207 40.4061,1.64207"
       id="path3588"
       inkscape:connector-curvature="0"
       sodipodi:nodetypes="ccc" />
    <text
       xml:space="preserve"
       style="font-size:12px;font-style:normal;font-variant:normal;font-weight:normal;font-stretch:normal;line-height:125%;letter-spacing:0px;word-spacing:0px;fill:#000000;fill-opacity:1;stroke:none;font-family:Nimbus Roman No9 L;-inkscape-font-specification:Nimbus Roman No9 L"
       x="461.13464"
       y="278.33279"
       id="text4802"
       sodipodi:linespacing="125%"><tspan
         sodipodi:role="line"
         id="tspan4804"
         x="461.13464"
         y="278.33279">this is a little tricky.</tspan></text>
  </g>
</svg>
