<?xml version="1.0" encoding="UTF-8" standalone="no"?>
<!-- Created with Inkscape (http://www.inkscape.org/) -->

<svg
   xmlns:ns1="http://www.iki.fi/pav/software/textext/"
   xmlns:dc="http://purl.org/dc/elements/1.1/"
   xmlns:cc="http://creativecommons.org/ns#"
   xmlns:rdf="http://www.w3.org/1999/02/22-rdf-syntax-ns#"
   xmlns:svg="http://www.w3.org/2000/svg"
   xmlns="http://www.w3.org/2000/svg"
   xmlns:sodipodi="http://sodipodi.sourceforge.net/DTD/sodipodi-0.dtd"
   xmlns:inkscape="http://www.inkscape.org/namespaces/inkscape"
   width="11cm"
   height="10cm"
   viewBox="0 0 110 99.999997"
   version="1.1"
   id="svg7653"
   sodipodi:docname="fig3-32d.svg"
   inkscape:version="0.92.4 (unknown)">
  <defs
     id="defs7647">
    <marker
       inkscape:stockid="Arrow1Mend"
       orient="auto"
       refY="0"
       refX="0"
       id="marker16016"
       style="overflow:visible"
       inkscape:isstock="true">
      <path
         id="path16014"
         d="M 0,0 5,-5 -12.5,0 5,5 Z"
         style="fill:#000000;fill-opacity:1;fill-rule:evenodd;stroke:#000000;stroke-width:1.00000003pt;stroke-opacity:1"
         transform="matrix(-0.4,0,0,-0.4,-4,0)"
         inkscape:connector-curvature="0" />
    </marker>
    <marker
       inkscape:isstock="true"
       style="overflow:visible"
       id="marker15938"
       refX="0"
       refY="0"
       orient="auto"
       inkscape:stockid="Arrow1Mend"
       inkscape:collect="always">
      <path
         inkscape:connector-curvature="0"
         transform="matrix(-0.4,0,0,-0.4,-4,0)"
         style="fill:#000000;fill-opacity:1;fill-rule:evenodd;stroke:#000000;stroke-width:1.00000003pt;stroke-opacity:1"
         d="M 0,0 5,-5 -12.5,0 5,5 Z"
         id="path15936" />
    </marker>
    <marker
       inkscape:stockid="Arrow1Mend"
       orient="auto"
       refY="0"
       refX="0"
       id="marker15053"
       style="overflow:visible"
       inkscape:isstock="true"
       inkscape:collect="always">
      <path
         id="path15051"
         d="M 0,0 5,-5 -12.5,0 5,5 Z"
         style="fill:#000000;fill-opacity:1;fill-rule:evenodd;stroke:#000000;stroke-width:1.00000003pt;stroke-opacity:1"
         transform="matrix(-0.4,0,0,-0.4,-4,0)"
         inkscape:connector-curvature="0" />
    </marker>
    <marker
       inkscape:isstock="true"
       style="overflow:visible"
       id="marker14977"
       refX="0"
       refY="0"
       orient="auto"
       inkscape:stockid="Arrow1Mstart">
      <path
         inkscape:connector-curvature="0"
         transform="matrix(0.4,0,0,0.4,4,0)"
         style="fill:#000000;fill-opacity:1;fill-rule:evenodd;stroke:#000000;stroke-width:1.00000003pt;stroke-opacity:1"
         d="M 0,0 5,-5 -12.5,0 5,5 Z"
         id="path14975" />
    </marker>
    <marker
       inkscape:stockid="Arrow1Mend"
       orient="auto"
       refY="0"
       refX="0"
       id="marker10528"
       style="overflow:visible"
       inkscape:isstock="true">
      <path
         id="path10526"
         d="M 0,0 5,-5 -12.5,0 5,5 Z"
         style="fill:#000000;fill-opacity:1;fill-rule:evenodd;stroke:#000000;stroke-width:1.00000003pt;stroke-opacity:1"
         transform="matrix(-0.4,0,0,-0.4,-4,0)"
         inkscape:connector-curvature="0" />
    </marker>
    <marker
       inkscape:isstock="true"
       style="overflow:visible"
       id="marker3811"
       refX="0"
       refY="0"
       orient="auto"
       inkscape:stockid="Arrow1Mstart">
      <path
         inkscape:connector-curvature="0"
         transform="matrix(0.4,0,0,0.4,4,0)"
         style="fill:#000000;fill-opacity:1;fill-rule:evenodd;stroke:#000000;stroke-width:1.00000003pt;stroke-opacity:1"
         d="M 0,0 5,-5 -12.5,0 5,5 Z"
         id="path3809" />
    </marker>
    <marker
       inkscape:stockid="Arrow1Mend"
       orient="auto"
       refY="0"
       refX="0"
       id="marker4385"
       style="overflow:visible"
       inkscape:isstock="true">
      <path
         id="path4383"
         d="M 0,0 5,-5 -12.5,0 5,5 Z"
         style="fill:#000000;fill-opacity:1;fill-rule:evenodd;stroke:#000000;stroke-width:1.00000003pt;stroke-opacity:1"
         transform="matrix(-0.4,0,0,-0.4,-4,0)"
         inkscape:connector-curvature="0" />
    </marker>
    <marker
       inkscape:stockid="Arrow1Mstart"
       orient="auto"
       refY="0"
       refX="0"
       id="marker5978"
       style="overflow:visible"
       inkscape:isstock="true">
      <path
         id="path5976"
         d="M 0,0 5,-5 -12.5,0 5,5 Z"
         style="fill:#000000;fill-opacity:1;fill-rule:evenodd;stroke:#000000;stroke-width:1.00000003pt;stroke-opacity:1"
         transform="matrix(0.4,0,0,0.4,4,0)"
         inkscape:connector-curvature="0" />
    </marker>
    <marker
       inkscape:isstock="true"
       style="overflow:visible"
       id="marker6564"
       refX="0"
       refY="0"
       orient="auto"
       inkscape:stockid="Arrow1Mend">
      <path
         inkscape:connector-curvature="0"
         transform="matrix(-0.4,0,0,-0.4,-4,0)"
         style="fill:#000000;fill-opacity:1;fill-rule:evenodd;stroke:#000000;stroke-width:1.00000003pt;stroke-opacity:1"
         d="M 0,0 5,-5 -12.5,0 5,5 Z"
         id="path6562" />
    </marker>
  </defs>
  <sodipodi:namedview
     id="base"
     pagecolor="#ffffff"
     bordercolor="#666666"
     borderopacity="1.0"
     inkscape:pageopacity="0.0"
     inkscape:pageshadow="2"
     inkscape:zoom="1.3710227"
     inkscape:cx="207.87402"
     inkscape:cy="188.97638"
     inkscape:document-units="cm"
     inkscape:current-layer="layer1"
     showgrid="false"
     units="cm"
     inkscape:window-width="776"
     inkscape:window-height="716"
     inkscape:window-x="10"
     inkscape:window-y="24"
     inkscape:window-maximized="0" />
  <metadata
     id="metadata7650">
    <rdf:RDF>
      <cc:Work
         rdf:about="">
        <dc:format>image/svg+xml</dc:format>
        <dc:type
           rdf:resource="http://purl.org/dc/dcmitype/StillImage" />
        <dc:title></dc:title>
      </cc:Work>
    </rdf:RDF>
  </metadata>
  <g
     inkscape:label="Layer 1"
     inkscape:groupmode="layer"
     id="layer1"
     transform="translate(0,-197.00001)">
    <g
       id="g1122">
      <path
         style="color:#000000;clip-rule:nonzero;display:inline;overflow:visible;visibility:visible;opacity:1;isolation:auto;mix-blend-mode:normal;color-interpolation:sRGB;color-interpolation-filters:linearRGB;solid-color:#000000;solid-opacity:1;fill:none;fill-opacity:1;fill-rule:nonzero;stroke:#000000;stroke-width:0.26000002;stroke-linecap:round;stroke-linejoin:round;stroke-miterlimit:4;stroke-dasharray:none;stroke-dashoffset:0;stroke-opacity:1;marker-start:url(#marker14977);marker-end:url(#marker15053);color-rendering:auto;image-rendering:auto;shape-rendering:auto;text-rendering:auto;enable-background:accumulate"
         d="m 60.610644,222.04054 v 17.42594"
         id="path14919"
         inkscape:connector-curvature="0" />
      <path
         inkscape:connector-curvature="0"
         id="path14921"
         d="M 68.128512,245.20139 H 84.631631"
         style="color:#000000;clip-rule:nonzero;display:inline;overflow:visible;visibility:visible;opacity:1;isolation:auto;mix-blend-mode:normal;color-interpolation:sRGB;color-interpolation-filters:linearRGB;solid-color:#000000;solid-opacity:1;fill:none;fill-opacity:1;fill-rule:nonzero;stroke:#000000;stroke-width:0.25999999;stroke-linecap:round;stroke-linejoin:round;stroke-miterlimit:4;stroke-dasharray:none;stroke-dashoffset:0;stroke-opacity:1;marker-start:url(#marker5978);marker-end:url(#marker6564);color-rendering:auto;image-rendering:auto;shape-rendering:auto;text-rendering:auto;enable-background:accumulate" />
      <path
         id="path15798"
         d="m 93.641712,240.03709 c 0.02646,-0.10584 0.125677,-0.4961 0.416719,-0.4961 0.01984,0 0.125677,0 0.211666,0.0529 -0.119062,0.0265 -0.198437,0.12568 -0.198437,0.23151 0,0.0661 0.0463,0.14552 0.15875,0.14552 0.0926,0 0.224895,-0.0728 0.224895,-0.24474 0,-0.21828 -0.244739,-0.27781 -0.39026,-0.27781 -0.244739,0 -0.39026,0.22489 -0.443177,0.3175 -0.105833,-0.27781 -0.330729,-0.3175 -0.456405,-0.3175 -0.436563,0 -0.681302,0.54239 -0.681302,0.64823 0,0.0463 0.0463,0.0463 0.05292,0.0463 0.03307,0 0.0463,-0.0132 0.05292,-0.0463 0.145521,-0.44979 0.423333,-0.55563 0.568854,-0.55563 0.07938,0 0.224896,0.0397 0.224896,0.28443 0,0.13229 -0.07276,0.4101 -0.224896,1.00542 -0.06615,0.25796 -0.218281,0.43656 -0.403489,0.43656 -0.02646,0 -0.119063,0 -0.211667,-0.0529 0.105833,-0.0265 0.198438,-0.11245 0.198438,-0.23151 0,-0.11245 -0.0926,-0.14552 -0.152136,-0.14552 -0.132291,0 -0.23151,0.10583 -0.23151,0.24474 0,0.19182 0.205052,0.27781 0.39026,0.27781 0.284427,0 0.436562,-0.29765 0.443177,-0.3175 0.05292,0.15214 0.205052,0.3175 0.456406,0.3175 0.436562,0 0.674687,-0.54239 0.674687,-0.64823 0,-0.0463 -0.03307,-0.0463 -0.0463,-0.0463 -0.03969,0 -0.0463,0.0198 -0.05953,0.0463 -0.138906,0.45641 -0.423333,0.55563 -0.555624,0.55563 -0.165365,0 -0.23151,-0.13229 -0.23151,-0.27781 0,-0.0926 0.01984,-0.18521 0.06614,-0.37042 z m 0,0"
         style="fill:#000000;fill-opacity:1;stroke:none;stroke-width:0"
         inkscape:connector-curvature="0" />
      <path
         id="path15800"
         d="m 66.305062,215.73199 c 0.01984,-0.0595 0.01984,-0.0661 0.01984,-0.0992 0,-0.0728 -0.05953,-0.11245 -0.125677,-0.11245 -0.03969,0 -0.105833,0.0265 -0.145521,0.086 -0.0066,0.0265 -0.0463,0.15214 -0.05953,0.23151 -0.03307,0.10583 -0.05953,0.2249 -0.08599,0.33734 l -0.191823,0.76068 c -0.01323,0.0595 -0.198438,0.35719 -0.47625,0.35719 -0.211666,0 -0.257968,-0.18521 -0.257968,-0.34396 0,-0.19182 0.07276,-0.45641 0.211666,-0.82682 0.06615,-0.17198 0.08599,-0.21828 0.08599,-0.30427 0,-0.18521 -0.132292,-0.34396 -0.343958,-0.34396 -0.40349,0 -0.555625,0.61515 -0.555625,0.64823 0,0.0463 0.03969,0.0463 0.0463,0.0463 0.0463,0 0.0463,-0.0132 0.06615,-0.0794 0.119062,-0.39687 0.284427,-0.52255 0.429947,-0.52255 0.03307,0 0.105834,0 0.105834,0.13229 0,0.10584 -0.0463,0.21829 -0.07276,0.29766 -0.171979,0.44979 -0.244739,0.68792 -0.244739,0.88635 0,0.37704 0.264583,0.50271 0.515937,0.50271 0.165364,0 0.304271,-0.0728 0.423333,-0.19182 -0.05292,0.21828 -0.105833,0.42995 -0.271198,0.65484 -0.112448,0.13891 -0.271197,0.26459 -0.46302,0.26459 -0.05953,0 -0.251354,-0.0132 -0.324115,-0.1786 0.06615,0 0.125677,0 0.178594,-0.0529 0.0463,-0.0331 0.08599,-0.0926 0.08599,-0.17198 0,-0.1323 -0.112448,-0.14552 -0.152136,-0.14552 -0.09922,0 -0.238125,0.0661 -0.238125,0.27119 0,0.21167 0.185209,0.37042 0.449792,0.37042 0.429947,0 0.86651,-0.38365 0.985572,-0.8599 z m 0,0"
         style="fill:#000000;fill-opacity:1;stroke:none;stroke-width:0"
         inkscape:connector-curvature="0" />
      <path
         inkscape:connector-curvature="0"
         id="path15928"
         d="M 67.593009,243.26238 V 216.85987"
         style="color:#000000;clip-rule:nonzero;display:inline;overflow:visible;visibility:visible;opacity:1;isolation:auto;mix-blend-mode:normal;color-interpolation:sRGB;color-interpolation-filters:linearRGB;solid-color:#000000;solid-opacity:1;fill:none;fill-opacity:1;fill-rule:nonzero;stroke:#000000;stroke-width:0.26458332;stroke-linecap:round;stroke-linejoin:round;stroke-miterlimit:4;stroke-dasharray:none;stroke-dashoffset:0;stroke-opacity:1;marker-end:url(#marker15938);color-rendering:auto;image-rendering:auto;shape-rendering:auto;text-rendering:auto;enable-background:accumulate" />
      <path
         style="color:#000000;clip-rule:nonzero;display:inline;overflow:visible;visibility:visible;opacity:1;isolation:auto;mix-blend-mode:normal;color-interpolation:sRGB;color-interpolation-filters:linearRGB;solid-color:#000000;solid-opacity:1;fill:none;fill-opacity:1;fill-rule:nonzero;stroke:#000000;stroke-width:0.26458332;stroke-linecap:round;stroke-linejoin:round;stroke-miterlimit:4;stroke-dasharray:none;stroke-dashoffset:0;stroke-opacity:1;marker-end:url(#marker16016);color-rendering:auto;image-rendering:auto;shape-rendering:auto;text-rendering:auto;enable-background:accumulate"
         d="M 65.300391,240.02584 H 91.294192"
         id="path16012"
         inkscape:connector-curvature="0" />
      <path
         inkscape:connector-curvature="0"
         style="fill:#000000;fill-opacity:1;stroke:none;stroke-width:0"
         d="m 72.612602,250.21203 c 0,-0.0132 0,-0.0198 -0.07276,-0.0926 -0.522552,-0.52917 -0.661458,-1.32953 -0.661458,-1.97776 0,-0.73422 0.15875,-1.46844 0.681301,-1.99099 0.05292,-0.0529 0.05292,-0.0595 0.05292,-0.0728 0,-0.0331 -0.01323,-0.0463 -0.03969,-0.0463 -0.0463,0 -0.423333,0.29104 -0.674687,0.82682 -0.211667,0.46302 -0.264584,0.93265 -0.264584,1.28323 0,0.33073 0.0463,0.84005 0.277813,1.32291 0.257968,0.51594 0.615155,0.79375 0.661458,0.79375 0.02646,0 0.03969,-0.0132 0.03969,-0.0463 z m 0,0"
         id="path16650" />
      <path
         inkscape:connector-curvature="0"
         style="fill:#000000;fill-opacity:1;stroke:none;stroke-width:0"
         d="m 74.431611,247.60589 c -0.07937,-0.15875 -0.198438,-0.2712 -0.390261,-0.2712 -0.489478,0 -1.01203,0.62177 -1.01203,1.23693 0,0.39687 0.23151,0.67468 0.555625,0.67468 0.08599,0 0.297656,-0.0198 0.54901,-0.3175 0.03307,0.1786 0.185208,0.3175 0.383645,0.3175 0.152135,0 0.24474,-0.0992 0.3175,-0.23151 0.06615,-0.15213 0.125677,-0.4101 0.125677,-0.41672 0,-0.0463 -0.03969,-0.0463 -0.05292,-0.0463 -0.03969,0 -0.0463,0.0198 -0.05953,0.0794 -0.07276,0.27119 -0.145521,0.52255 -0.3175,0.52255 -0.119062,0 -0.125677,-0.11245 -0.125677,-0.19182 0,-0.0926 0.0066,-0.1323 0.05292,-0.3175 0.0463,-0.17198 0.05292,-0.21829 0.0926,-0.37704 l 0.152135,-0.58869 c 0.02646,-0.11907 0.02646,-0.12568 0.02646,-0.14552 0,-0.0728 -0.0463,-0.11245 -0.119063,-0.11245 -0.105833,0 -0.165364,0.0926 -0.178593,0.18521 z m -0.271198,1.0914 c -0.02646,0.0794 -0.02646,0.086 -0.08599,0.15875 -0.185208,0.23151 -0.357187,0.29766 -0.476249,0.29766 -0.211667,0 -0.271198,-0.23151 -0.271198,-0.39688 0,-0.21166 0.132292,-0.7276 0.23151,-0.92604 0.132292,-0.24474 0.3175,-0.40349 0.489479,-0.40349 0.271198,0 0.330729,0.34396 0.330729,0.37042 0,0.0265 -0.0066,0.0529 -0.01323,0.0728 z m 0,0"
         id="path16652" />
      <path
         inkscape:connector-curvature="0"
         style="fill:#000000;fill-opacity:1;stroke:none;stroke-width:0"
         d="m 79.879572,246.31604 c 0,0 0,-0.0463 -0.05292,-0.0463 -0.0926,0 -0.403489,0.0331 -0.515937,0.0463 -0.03307,0 -0.07937,0.007 -0.07937,0.0794 0,0.0529 0.03969,0.0529 0.105833,0.0529 0.198438,0 0.205052,0.0265 0.205052,0.0728 0,0.0265 -0.03307,0.17197 -0.05292,0.25796 l -0.350573,1.37584 c -0.0463,0.21166 -0.06615,0.28442 -0.06615,0.42994 0,0.39688 0.224896,0.66146 0.535781,0.66146 0.496094,0 1.018645,-0.62838 1.018645,-1.23692 0,-0.38365 -0.224895,-0.67469 -0.562239,-0.67469 -0.191823,0 -0.370416,0.12568 -0.496093,0.25135 z m -0.39026,1.59412 c 0.01984,-0.0926 0.01984,-0.0992 0.05953,-0.14552 0.205052,-0.2712 0.396875,-0.33735 0.509322,-0.33735 0.152136,0 0.264584,0.12568 0.264584,0.39688 0,0.25135 -0.138907,0.73422 -0.218281,0.89297 -0.138907,0.28442 -0.330729,0.43656 -0.496094,0.43656 -0.145521,0 -0.284427,-0.11245 -0.284427,-0.42334 0,-0.086 0,-0.16536 0.06615,-0.42994 z m 0,0"
         id="path16656" />
      <path
         inkscape:connector-curvature="0"
         style="fill:#000000;fill-opacity:1;stroke:none;stroke-width:0"
         d="m 81.691109,248.14167 c 0,-0.32412 -0.0463,-0.83344 -0.277812,-1.3163 -0.251354,-0.51594 -0.615156,-0.79375 -0.654843,-0.79375 -0.02646,0 -0.0463,0.0198 -0.0463,0.0463 0,0.0132 0,0.0198 0.07937,0.0992 0.416718,0.41672 0.654843,1.08479 0.654843,1.96453 0,0.7276 -0.152135,1.46843 -0.674687,1.9976 -0.05953,0.0529 -0.05953,0.0595 -0.05953,0.0728 0,0.0265 0.01984,0.0463 0.0463,0.0463 0.03969,0 0.423333,-0.29104 0.668072,-0.82682 0.218281,-0.46302 0.264583,-0.93266 0.264583,-1.28984 z m 0,0"
         id="path16658" />
      <text
         id="text16678"
         y="243.27811"
         x="66.028381"
         style="font-style:normal;font-variant:normal;font-weight:normal;font-stretch:normal;font-size:4.23333311px;line-height:125%;font-family:LMRoman12;-inkscape-font-specification:LMRoman12;text-align:center;letter-spacing:0px;word-spacing:0px;writing-mode:lr-tb;text-anchor:middle;fill:#000000;fill-opacity:1;stroke:none;stroke-width:0.26458332px;stroke-linecap:butt;stroke-linejoin:miter;stroke-opacity:1"
         xml:space="preserve"><tspan
           style="stroke-width:0.26458332px"
           y="243.27811"
           x="66.028381"
           id="tspan16676"
           sodipodi:role="line">0</tspan></text>
      <rect
         style="color:#000000;clip-rule:nonzero;display:inline;overflow:visible;visibility:visible;opacity:1;isolation:auto;mix-blend-mode:normal;color-interpolation:sRGB;color-interpolation-filters:linearRGB;solid-color:#000000;solid-opacity:1;fill:none;fill-opacity:1;fill-rule:evenodd;stroke:#000000;stroke-width:0.26458332;stroke-linecap:butt;stroke-linejoin:round;stroke-miterlimit:4;stroke-dasharray:none;stroke-dashoffset:0;stroke-opacity:1;color-rendering:auto;image-rendering:auto;shape-rendering:auto;text-rendering:auto;enable-background:accumulate"
         id="rect16849"
         width="10.583333"
         height="10.583317"
         x="67.522774"
         y="229.35655" />
      <path
         id="path16853"
         d="m 65.565075,224.03866 c 0,0 0,-0.0463 -0.05292,-0.0463 -0.0926,0 -0.403489,0.0331 -0.515937,0.0463 -0.03307,0 -0.07937,0.007 -0.07937,0.0794 0,0.0529 0.03969,0.0529 0.105833,0.0529 0.198438,0 0.205052,0.0264 0.205052,0.0728 0,0.0265 -0.03307,0.17197 -0.05292,0.25796 l -0.350573,1.37584 c -0.0463,0.21166 -0.06615,0.28442 -0.06615,0.42994 0,0.39688 0.224896,0.66146 0.535781,0.66146 0.496094,0 1.018645,-0.62838 1.018645,-1.23692 0,-0.38365 -0.224895,-0.67469 -0.562239,-0.67469 -0.191823,0 -0.370416,0.12568 -0.496093,0.25135 z m -0.39026,1.59412 c 0.01984,-0.0926 0.01984,-0.0992 0.05953,-0.14552 0.205052,-0.2712 0.396875,-0.33735 0.509322,-0.33735 0.152136,0 0.264584,0.12568 0.264584,0.39688 0,0.25135 -0.138907,0.73422 -0.218281,0.89297 -0.138907,0.28442 -0.330729,0.43656 -0.496094,0.43656 -0.145521,0 -0.284427,-0.11245 -0.284427,-0.42334 0,-0.086 0,-0.16536 0.06615,-0.42994 z m 0,0"
         style="fill:#000000;fill-opacity:1;stroke:none;stroke-width:0"
         inkscape:connector-curvature="0" />
      <path
         id="path16855"
         d="m 72.831398,241.19737 c -0.07937,-0.15875 -0.198438,-0.2712 -0.390261,-0.2712 -0.489478,0 -1.01203,0.62177 -1.01203,1.23693 0,0.39687 0.23151,0.67468 0.555625,0.67468 0.08599,0 0.297656,-0.0198 0.54901,-0.3175 0.03307,0.1786 0.185208,0.3175 0.383645,0.3175 0.152135,0 0.24474,-0.0992 0.3175,-0.23151 0.06615,-0.15213 0.125677,-0.4101 0.125677,-0.41672 0,-0.0463 -0.03969,-0.0463 -0.05292,-0.0463 -0.03969,0 -0.0463,0.0198 -0.05953,0.0794 -0.07276,0.27119 -0.145521,0.52255 -0.3175,0.52255 -0.119062,0 -0.125677,-0.11245 -0.125677,-0.19182 0,-0.0926 0.0066,-0.1323 0.05292,-0.3175 0.0463,-0.17198 0.05292,-0.21829 0.0926,-0.37704 l 0.152135,-0.58869 c 0.02646,-0.11907 0.02646,-0.12568 0.02646,-0.14552 0,-0.0728 -0.0463,-0.11245 -0.119063,-0.11245 -0.105833,0 -0.165364,0.0926 -0.178593,0.18521 z m -0.271198,1.0914 c -0.02646,0.0794 -0.02646,0.086 -0.08599,0.15875 -0.185208,0.23151 -0.357187,0.29766 -0.476249,0.29766 -0.211667,0 -0.271198,-0.23151 -0.271198,-0.39688 0,-0.21166 0.132292,-0.7276 0.23151,-0.92604 0.132292,-0.24474 0.3175,-0.40349 0.489479,-0.40349 0.271198,0 0.330729,0.34396 0.330729,0.37042 0,0.0265 -0.0066,0.0529 -0.01323,0.0728 z m 0,0"
         style="fill:#000000;fill-opacity:1;stroke:none;stroke-width:0"
         inkscape:connector-curvature="0" />
      <path
         inkscape:connector-curvature="0"
         style="fill:#000000;fill-opacity:1;stroke:none;stroke-width:0"
         d="m 66.029528,232.90395 c -0.07937,-0.15875 -0.198438,-0.2712 -0.390261,-0.2712 -0.489478,0 -1.01203,0.62177 -1.01203,1.23693 0,0.39687 0.23151,0.67468 0.555625,0.67468 0.08599,0 0.297656,-0.0198 0.54901,-0.3175 0.03307,0.1786 0.185208,0.3175 0.383645,0.3175 0.152135,0 0.244739,-0.0992 0.3175,-0.23151 0.06615,-0.15213 0.125677,-0.4101 0.125677,-0.41672 0,-0.0463 -0.03969,-0.0463 -0.05292,-0.0463 -0.03969,0 -0.0463,0.0198 -0.05953,0.0794 -0.07276,0.27119 -0.145521,0.52255 -0.3175,0.52255 -0.119062,0 -0.125677,-0.11245 -0.125677,-0.19182 0,-0.0926 0.0066,-0.1323 0.05292,-0.3175 0.0463,-0.17198 0.05292,-0.21829 0.0926,-0.37704 l 0.152135,-0.58869 c 0.02646,-0.11907 0.02646,-0.12568 0.02646,-0.14552 0,-0.0728 -0.0463,-0.11245 -0.119063,-0.11245 -0.105833,0 -0.165364,0.0926 -0.178593,0.18521 z m -0.271198,1.0914 c -0.02646,0.0794 -0.02646,0.086 -0.08599,0.15875 -0.185208,0.23151 -0.357187,0.29766 -0.476249,0.29766 -0.211667,0 -0.271198,-0.23151 -0.271198,-0.39688 0,-0.21166 0.132292,-0.7276 0.23151,-0.92604 0.132292,-0.24474 0.3175,-0.40349 0.489479,-0.40349 0.271198,0 0.330729,0.34396 0.330729,0.37042 0,0.0265 -0.0066,0.0529 -0.01323,0.0728 z m 0,0"
         id="path16857" />
      <path
         inkscape:connector-curvature="0"
         style="fill:#000000;fill-opacity:1;stroke:none;stroke-width:0"
         d="m 72.817879,234.43897 c -0.07937,-0.15875 -0.198438,-0.2712 -0.390261,-0.2712 -0.489478,0 -1.01203,0.62177 -1.01203,1.23693 0,0.39687 0.23151,0.67468 0.555625,0.67468 0.08599,0 0.297656,-0.0198 0.54901,-0.3175 0.03307,0.1786 0.185208,0.3175 0.383645,0.3175 0.152135,0 0.244739,-0.0992 0.3175,-0.23151 0.06615,-0.15213 0.125677,-0.4101 0.125677,-0.41672 0,-0.0463 -0.03969,-0.0463 -0.05292,-0.0463 -0.03969,0 -0.0463,0.0198 -0.05953,0.0794 -0.07276,0.27119 -0.145521,0.52255 -0.3175,0.52255 -0.119062,0 -0.125677,-0.11245 -0.125677,-0.19182 0,-0.0926 0.0066,-0.1323 0.05292,-0.3175 0.0463,-0.17198 0.05292,-0.21829 0.0926,-0.37704 l 0.152135,-0.58869 c 0.02646,-0.11907 0.02646,-0.12568 0.02646,-0.14552 0,-0.0728 -0.0463,-0.11245 -0.119063,-0.11245 -0.105833,0 -0.165364,0.0926 -0.178593,0.18521 z m -0.271198,1.0914 c -0.02646,0.0794 -0.02646,0.086 -0.08599,0.15875 -0.185208,0.23151 -0.357187,0.29766 -0.476249,0.29766 -0.211667,0 -0.271198,-0.23151 -0.271198,-0.39688 0,-0.21166 0.132292,-0.7276 0.23151,-0.92604 0.132292,-0.24474 0.3175,-0.40349 0.489479,-0.40349 0.271198,0 0.330729,0.34396 0.330729,0.37042 0,0.0265 -0.0066,0.0529 -0.01323,0.0728 z m 0,0"
         id="path16859" />
      <path
         inkscape:connector-curvature="0"
         style="fill:#000000;fill-opacity:1;stroke:none;stroke-width:0"
         d="m 74.961008,233.96695 h -0.09922 c -0.0066,0.0661 -0.03969,0.23812 -0.07937,0.26458 -0.01984,0.0198 -0.244739,0.0198 -0.291041,0.0198 h -0.542395 c 0.310885,-0.2712 0.416718,-0.35719 0.588697,-0.4961 0.218281,-0.17198 0.423333,-0.35718 0.423333,-0.635 0,-0.35718 -0.310885,-0.57547 -0.687916,-0.57547 -0.363802,0 -0.615156,0.25797 -0.615156,0.52917 0,0.14552 0.125677,0.16537 0.15875,0.16537 0.06615,0 0.152135,-0.0529 0.152135,-0.15875 0,-0.0529 -0.01984,-0.15875 -0.171979,-0.15875 0.0926,-0.20506 0.291042,-0.2712 0.429948,-0.2712 0.297656,0 0.449791,0.23151 0.449791,0.46963 0,0.25797 -0.185208,0.45641 -0.277812,0.56224 l -0.70776,0.70776 c -0.03307,0.0265 -0.03307,0.0331 -0.03307,0.11245 h 1.217083 z m 0,0"
         id="path16861" />
      <path
         inkscape:connector-curvature="0"
         style="fill:#000000;fill-opacity:1;stroke:none;stroke-width:0"
         d="m 83.390531,240.81672 c 0,0 0,-0.0463 -0.05292,-0.0463 -0.0926,0 -0.403489,0.0331 -0.515937,0.0463 -0.03307,0 -0.07937,0.007 -0.07937,0.0794 0,0.0529 0.03969,0.0529 0.105833,0.0529 0.198438,0 0.205052,0.0264 0.205052,0.0728 0,0.0265 -0.03307,0.17197 -0.05292,0.25796 l -0.350573,1.37584 c -0.0463,0.21166 -0.06615,0.28442 -0.06615,0.42994 0,0.39688 0.224896,0.66146 0.535781,0.66146 0.496094,0 1.018645,-0.62838 1.018645,-1.23692 0,-0.38365 -0.224895,-0.67469 -0.562239,-0.67469 -0.191823,0 -0.370416,0.12568 -0.496093,0.25135 z m -0.39026,1.59412 c 0.01984,-0.0926 0.01984,-0.0992 0.05953,-0.14552 0.205052,-0.2712 0.396875,-0.33735 0.509322,-0.33735 0.152136,0 0.264584,0.12568 0.264584,0.39688 0,0.25135 -0.138907,0.73422 -0.218281,0.89297 -0.138907,0.28442 -0.330729,0.43656 -0.496094,0.43656 -0.145521,0 -0.284427,-0.11245 -0.284427,-0.42334 0,-0.086 0,-0.16536 0.06615,-0.42994 z m 0,0"
         id="path16867" />
      <g
         id="g17036">
        <rect
           style="color:#000000;clip-rule:nonzero;display:inline;overflow:visible;visibility:visible;opacity:1;isolation:auto;mix-blend-mode:normal;color-interpolation:sRGB;color-interpolation-filters:linearRGB;solid-color:#000000;solid-opacity:1;fill:none;fill-opacity:1;fill-rule:evenodd;stroke:#000000;stroke-width:0.26458335;stroke-linecap:butt;stroke-linejoin:round;stroke-miterlimit:4;stroke-dasharray:none;stroke-dashoffset:0;stroke-opacity:1;color-rendering:auto;image-rendering:auto;shape-rendering:auto;text-rendering:auto;enable-background:accumulate"
           id="rect16845"
           width="10.583333"
           height="8.2279024"
           x="67.522774"
           y="221.12865" />
        <path
           inkscape:connector-curvature="0"
           d="m 68.012091,221.12865 -0.489317,0.84752 m 0,1.69333 1.466963,-2.54085 m 0.977647,0 -2.44461,4.23419 m 0,1.69333 3.422256,-5.92752 m 0.977647,0 -4.399903,7.62085 m 0.627167,0.60705 4.750382,-8.2279 m 0.977647,0 -4.750382,8.2279 m 0.977646,0 4.750382,-8.2279 m 0.977646,0 -4.750382,8.2279 m 0.977647,0 4.750382,-8.2279 m 0.977646,0 -4.750382,8.2279 m 0.977647,0 4.090287,-7.08458 m 0,1.69333 -3.11264,5.39125 m 0.977646,0 2.134994,-3.69792 m 0,1.69334 -1.157347,2.00458 m 0.977646,0 0.179701,-0.31125"
           style="fill:none;stroke:#000000;stroke-width:0.26458335"
           id="path17034" />
      </g>
      <g
         transform="translate(0.16603442,10.626203)"
         id="g17063">
        <ellipse
           style="color:#000000;clip-rule:nonzero;display:inline;overflow:visible;visibility:visible;opacity:1;isolation:auto;mix-blend-mode:normal;color-interpolation:sRGB;color-interpolation-filters:linearRGB;solid-color:#000000;solid-opacity:1;fill:#ffffff;fill-opacity:1;fill-rule:nonzero;stroke:#000000;stroke-width:0.21166669;stroke-linecap:round;stroke-linejoin:round;stroke-miterlimit:4;stroke-dasharray:none;stroke-dashoffset:0;stroke-opacity:1;color-rendering:auto;image-rendering:auto;shape-rendering:auto;text-rendering:auto;enable-background:accumulate"
           id="path17053"
           cx="72.73407"
           cy="214.47139"
           rx="4.3258948"
           ry="2.6777277" />
        <g
           transform="matrix(0.423333,0,0,0.423333,5.83901,158.64231)"
           ns1:version="0.8.1"
           ns1:texconverter="pdflatex"
           ns1:pdfconverter="pdf2svg"
           ns1:text="$-ab$"
           ns1:preamble="/home/sriranga/Desktop/KRVP-1/package.tex"
           ns1:scale="1.1999999433"
           ns1:alignment="middle center"
           inkscapeversion="0.92.4"
           ns1:jacobian_sqrt="0.423333"
           id="g16881">
          <g
             id="g16879">
            <g
               style="fill:#000000;fill-opacity:1"
               id="g16871">
              <path
                 inkscape:connector-curvature="0"
                 style="stroke:none;stroke-width:0"
                 d="m 6.5625,-2.296875 c 0.171875,0 0.359375,0 0.359375,-0.203125 0,-0.1875 -0.1875,-0.1875 -0.359375,-0.1875 H 1.171875 c -0.171875,0 -0.34375,0 -0.34375,0.1875 0,0.203125 0.171875,0.203125 0.34375,0.203125 z m 0,0"
                 transform="translate(148.712,134.765)"
                 id="path16869" />
            </g>
            <g
               style="fill:#000000;fill-opacity:1"
               id="g16877">
              <path
                 inkscape:connector-curvature="0"
                 style="stroke:none;stroke-width:0"
                 d="M 3.71875,-3.765625 C 3.53125,-4.140625 3.25,-4.40625 2.796875,-4.40625 c -1.15625,0 -2.390625,1.46875 -2.390625,2.921875 0,0.9375 0.546875,1.59375 1.3125,1.59375 0.203125,0 0.703125,-0.046875 1.296875,-0.75 0.078125,0.421875 0.4375,0.75 0.90625,0.75 0.359375,0 0.578125,-0.234375 0.75,-0.546875 0.15625,-0.359375 0.296875,-0.96875 0.296875,-0.984375 0,-0.109375 -0.09375,-0.109375 -0.125,-0.109375 -0.09375,0 -0.109375,0.046875 -0.140625,0.1875 -0.171875,0.640625 -0.34375,1.234375 -0.75,1.234375 -0.28125,0 -0.296875,-0.265625 -0.296875,-0.453125 0,-0.21875 0.015625,-0.3125 0.125,-0.75 C 3.890625,-1.71875 3.90625,-1.828125 4,-2.203125 L 4.359375,-3.59375 c 0.0625,-0.28125 0.0625,-0.296875 0.0625,-0.34375 0,-0.171875 -0.109375,-0.265625 -0.28125,-0.265625 -0.25,0 -0.390625,0.21875 -0.421875,0.4375 z M 3.078125,-1.1875 C 3.015625,-1 3.015625,-0.984375 2.875,-0.8125 2.4375,-0.265625 2.03125,-0.109375 1.75,-0.109375 c -0.5,0 -0.640625,-0.546875 -0.640625,-0.9375 0,-0.5 0.3125,-1.71875 0.546875,-2.1875 0.3125,-0.578125 0.75,-0.953125 1.15625,-0.953125 0.640625,0 0.78125,0.8125 0.78125,0.875 0,0.0625 -0.015625,0.125 -0.03125,0.171875 z m 0,0"
                 transform="translate(156.461,134.765)"
                 id="path16873" />
              <path
                 inkscape:connector-curvature="0"
                 style="stroke:none;stroke-width:0"
                 d="m 2.375,-6.8125 c 0,0 0,-0.109375 -0.125,-0.109375 -0.21875,0 -0.953125,0.078125 -1.21875,0.109375 -0.078125,0 -0.1875,0.015625 -0.1875,0.1875 0,0.125 0.09375,0.125 0.25,0.125 0.46875,0 0.484375,0.0625 0.484375,0.171875 0,0.0625 -0.078125,0.40625 -0.125,0.609375 l -0.828125,3.25 c -0.109375,0.5 -0.15625,0.671875 -0.15625,1.015625 0,0.9375 0.53125,1.5625 1.265625,1.5625 1.171875,0 2.40625,-1.484375 2.40625,-2.921875 0,-0.90625 -0.53125,-1.59375 -1.328125,-1.59375 -0.453125,0 -0.875,0.296875 -1.171875,0.59375 z M 1.453125,-3.046875 C 1.5,-3.265625 1.5,-3.28125 1.59375,-3.390625 2.078125,-4.03125 2.53125,-4.1875 2.796875,-4.1875 c 0.359375,0 0.625,0.296875 0.625,0.9375 0,0.59375 -0.328125,1.734375 -0.515625,2.109375 -0.328125,0.671875 -0.78125,1.03125 -1.171875,1.03125 -0.34375,0 -0.671875,-0.265625 -0.671875,-1 0,-0.203125 0,-0.390625 0.15625,-1.015625 z m 0,0"
                 transform="translate(161.72723,134.765)"
                 id="path16875" />
            </g>
          </g>
        </g>
      </g>
      <g
         transform="matrix(0.423333,0,0,0.423333,14.126711,178.79798)"
         style="fill:#000000;fill-opacity:1"
         id="g17075">
        <path
           inkscape:connector-curvature="0"
           style="stroke:none;stroke-width:0"
           d="M 3.71875,-3.765625 C 3.53125,-4.140625 3.25,-4.40625 2.796875,-4.40625 c -1.15625,0 -2.390625,1.46875 -2.390625,2.921875 0,0.9375 0.546875,1.59375 1.3125,1.59375 0.203125,0 0.703125,-0.046875 1.296875,-0.75 0.078125,0.421875 0.4375,0.75 0.90625,0.75 0.359375,0 0.578125,-0.234375 0.75,-0.546875 0.15625,-0.359375 0.296875,-0.96875 0.296875,-0.984375 0,-0.109375 -0.09375,-0.109375 -0.125,-0.109375 -0.09375,0 -0.109375,0.046875 -0.140625,0.1875 -0.171875,0.640625 -0.34375,1.234375 -0.75,1.234375 -0.28125,0 -0.296875,-0.265625 -0.296875,-0.453125 0,-0.21875 0.015625,-0.3125 0.125,-0.75 C 3.890625,-1.71875 3.90625,-1.828125 4,-2.203125 L 4.359375,-3.59375 c 0.0625,-0.28125 0.0625,-0.296875 0.0625,-0.34375 0,-0.171875 -0.109375,-0.265625 -0.28125,-0.265625 -0.25,0 -0.390625,0.21875 -0.421875,0.4375 z M 3.078125,-1.1875 C 3.015625,-1 3.015625,-0.984375 2.875,-0.8125 2.4375,-0.265625 2.03125,-0.109375 1.75,-0.109375 c -0.5,0 -0.640625,-0.546875 -0.640625,-0.9375 0,-0.5 0.3125,-1.71875 0.546875,-2.1875 0.3125,-0.578125 0.75,-0.953125 1.15625,-0.953125 0.640625,0 0.78125,0.8125 0.78125,0.875 0,0.0625 -0.015625,0.125 -0.03125,0.171875 z m 0,0"
           transform="translate(156.461,134.765)"
           id="path17071" />
        <path
           inkscape:connector-curvature="0"
           style="stroke:none;stroke-width:0"
           d="m 2.375,-6.8125 c 0,0 0,-0.109375 -0.125,-0.109375 -0.21875,0 -0.953125,0.078125 -1.21875,0.109375 -0.078125,0 -0.1875,0.015625 -0.1875,0.1875 0,0.125 0.09375,0.125 0.25,0.125 0.46875,0 0.484375,0.0625 0.484375,0.171875 0,0.0625 -0.078125,0.40625 -0.125,0.609375 l -0.828125,3.25 c -0.109375,0.5 -0.15625,0.671875 -0.15625,1.015625 0,0.9375 0.53125,1.5625 1.265625,1.5625 1.171875,0 2.40625,-1.484375 2.40625,-2.921875 0,-0.90625 -0.53125,-1.59375 -1.328125,-1.59375 -0.453125,0 -0.875,0.296875 -1.171875,0.59375 z M 1.453125,-3.046875 C 1.5,-3.265625 1.5,-3.28125 1.59375,-3.390625 2.078125,-4.03125 2.53125,-4.1875 2.796875,-4.1875 c 0.359375,0 0.625,0.296875 0.625,0.9375 0,0.59375 -0.328125,1.734375 -0.515625,2.109375 -0.328125,0.671875 -0.78125,1.03125 -1.171875,1.03125 -0.34375,0 -0.671875,-0.265625 -0.671875,-1 0,-0.203125 0,-0.390625 0.15625,-1.015625 z m 0,0"
           transform="translate(161.72723,134.765)"
           id="path17073" />
      </g>
      <g
         style="fill:#000000;fill-opacity:1"
         id="g17093"
         transform="matrix(0.423333,0,0,0.423333,12.387595,192.11987)">
        <path
           inkscape:connector-curvature="0"
           style="stroke:none;stroke-width:0"
           d="m 6.5625,-2.296875 c 0.171875,0 0.359375,0 0.359375,-0.203125 0,-0.1875 -0.1875,-0.1875 -0.359375,-0.1875 H 1.171875 c -0.171875,0 -0.34375,0 -0.34375,0.1875 0,0.203125 0.171875,0.203125 0.34375,0.203125 z m 0,0"
           transform="translate(148.712,134.765)"
           id="path17091" />
      </g>
      <path
         inkscape:connector-curvature="0"
         style="fill:#000000;fill-opacity:1;stroke:none;stroke-width:0"
         d="m 51.04685,234.10669 c 0,-0.0132 0,-0.0198 -0.07276,-0.0926 -0.522552,-0.52917 -0.661458,-1.32953 -0.661458,-1.97776 0,-0.73422 0.15875,-1.46844 0.681301,-1.99099 0.05292,-0.0529 0.05292,-0.0595 0.05292,-0.0728 0,-0.0331 -0.01323,-0.0463 -0.03969,-0.0463 -0.0463,0 -0.423333,0.29104 -0.674687,0.82682 -0.211667,0.46302 -0.264584,0.93265 -0.264584,1.28323 0,0.33073 0.0463,0.84005 0.277813,1.32291 0.257968,0.51594 0.615155,0.79375 0.661458,0.79375 0.02646,0 0.03969,-0.0132 0.03969,-0.0463 z m 0,0"
         id="path17111" />
      <path
         inkscape:connector-curvature="0"
         style="fill:#000000;fill-opacity:1;stroke:none;stroke-width:0"
         d="m 52.865859,231.50055 c -0.07937,-0.15875 -0.198438,-0.2712 -0.390261,-0.2712 -0.489478,0 -1.01203,0.62177 -1.01203,1.23693 0,0.39687 0.23151,0.67468 0.555625,0.67468 0.08599,0 0.297656,-0.0198 0.54901,-0.3175 0.03307,0.1786 0.185208,0.3175 0.383645,0.3175 0.152135,0 0.24474,-0.0992 0.3175,-0.23151 0.06615,-0.15213 0.125677,-0.4101 0.125677,-0.41672 0,-0.0463 -0.03969,-0.0463 -0.05292,-0.0463 -0.03969,0 -0.0463,0.0198 -0.05953,0.0794 -0.07276,0.27119 -0.145521,0.52255 -0.3175,0.52255 -0.119062,0 -0.125677,-0.11245 -0.125677,-0.19182 0,-0.0926 0.0066,-0.1323 0.05292,-0.3175 0.0463,-0.17198 0.05292,-0.21829 0.0926,-0.37704 l 0.152135,-0.58869 c 0.02646,-0.11907 0.02646,-0.12568 0.02646,-0.14552 0,-0.0728 -0.0463,-0.11245 -0.119063,-0.11245 -0.105833,0 -0.165364,0.0926 -0.178593,0.18521 z m -0.271198,1.0914 c -0.02646,0.0794 -0.02646,0.086 -0.08599,0.15875 -0.185208,0.23151 -0.357187,0.29766 -0.476249,0.29766 -0.211667,0 -0.271198,-0.23151 -0.271198,-0.39688 0,-0.21166 0.132292,-0.7276 0.23151,-0.92604 0.132292,-0.24474 0.3175,-0.40349 0.489479,-0.40349 0.271198,0 0.330729,0.34396 0.330729,0.37042 0,0.0265 -0.0066,0.0529 -0.01323,0.0728 z m 0,0"
         id="path17113" />
      <path
         inkscape:connector-curvature="0"
         style="fill:#000000;fill-opacity:1;stroke:none;stroke-width:0"
         d="m 58.31382,230.2107 c 0,0 0,-0.0463 -0.05292,-0.0463 -0.0926,0 -0.403489,0.0331 -0.515937,0.0463 -0.03307,0 -0.07937,0.007 -0.07937,0.0794 0,0.0529 0.03969,0.0529 0.105833,0.0529 0.198438,0 0.205052,0.0265 0.205052,0.0728 0,0.0265 -0.03307,0.17197 -0.05292,0.25796 l -0.350573,1.37584 c -0.0463,0.21166 -0.06615,0.28442 -0.06615,0.42994 0,0.39688 0.224896,0.66146 0.535781,0.66146 0.496094,0 1.018645,-0.62838 1.018645,-1.23692 0,-0.38365 -0.224895,-0.67469 -0.562239,-0.67469 -0.191823,0 -0.370416,0.12568 -0.496093,0.25135 z m -0.39026,1.59412 c 0.01984,-0.0926 0.01984,-0.0992 0.05953,-0.14552 0.205052,-0.2712 0.396875,-0.33735 0.509322,-0.33735 0.152136,0 0.264584,0.12568 0.264584,0.39688 0,0.25135 -0.138907,0.73422 -0.218281,0.89297 -0.138907,0.28442 -0.330729,0.43656 -0.496094,0.43656 -0.145521,0 -0.284427,-0.11245 -0.284427,-0.42334 0,-0.086 0,-0.16536 0.06615,-0.42994 z m 0,0"
         id="path17115" />
      <path
         inkscape:connector-curvature="0"
         style="fill:#000000;fill-opacity:1;stroke:none;stroke-width:0"
         d="m 60.125357,232.03633 c 0,-0.32412 -0.0463,-0.83344 -0.277812,-1.3163 -0.251354,-0.51594 -0.615156,-0.79375 -0.654843,-0.79375 -0.02646,0 -0.0463,0.0198 -0.0463,0.0463 0,0.0132 0,0.0198 0.07937,0.0992 0.416718,0.41672 0.654843,1.08479 0.654843,1.96453 0,0.7276 -0.152135,1.46843 -0.674687,1.9976 -0.05953,0.0529 -0.05953,0.0595 -0.05953,0.0728 0,0.0265 0.01984,0.0463 0.0463,0.0463 0.03969,0 0.423333,-0.29104 0.668072,-0.82682 0.218281,-0.46302 0.264583,-0.93266 0.264583,-1.28984 z m 0,0"
         id="path17117" />
      <g
         transform="matrix(0.423333,0,0,0.423333,-9.2263069,176.01453)"
         id="g17121"
         style="fill:#000000;fill-opacity:1">
        <path
           id="path17119"
           transform="translate(148.712,134.765)"
           d="m 6.5625,-2.296875 c 0.171875,0 0.359375,0 0.359375,-0.203125 0,-0.1875 -0.1875,-0.1875 -0.359375,-0.1875 H 1.171875 c -0.171875,0 -0.34375,0 -0.34375,0.1875 0,0.203125 0.171875,0.203125 0.34375,0.203125 z m 0,0"
           style="stroke:none;stroke-width:0"
           inkscape:connector-curvature="0" />
      </g>
      <g
         transform="matrix(0.423333,0,0,0.423333,-1.6125078,169.63741)"
         id="g17129"
         style="fill:#000000;fill-opacity:1">
        <path
           id="path17127"
           transform="translate(148.712,134.765)"
           d="m 6.5625,-2.296875 c 0.171875,0 0.359375,0 0.359375,-0.203125 0,-0.1875 -0.1875,-0.1875 -0.359375,-0.1875 H 1.171875 c -0.171875,0 -0.34375,0 -0.34375,0.1875 0,0.203125 0.171875,0.203125 0.34375,0.203125 z m 0,0"
           style="stroke:none;stroke-width:0"
           inkscape:connector-curvature="0" />
      </g>
      <rect
         y="229.32393"
         x="78.10611"
         height="10.615938"
         width="8.6185627"
         id="rect17211"
         style="color:#000000;clip-rule:nonzero;display:inline;overflow:visible;visibility:visible;opacity:1;isolation:auto;mix-blend-mode:normal;color-interpolation:sRGB;color-interpolation-filters:linearRGB;solid-color:#000000;solid-opacity:1;fill:none;fill-opacity:1;fill-rule:evenodd;stroke:#000000;stroke-width:0.26458335;stroke-linecap:butt;stroke-linejoin:round;stroke-miterlimit:4;stroke-dasharray:none;stroke-dashoffset:0;stroke-opacity:1;color-rendering:auto;image-rendering:auto;shape-rendering:auto;text-rendering:auto;enable-background:accumulate" />
      <g
         id="g17339">
        <rect
           y="221.12865"
           x="78.106102"
           height="8.2279024"
           width="8.6185627"
           id="rect16847"
           style="color:#000000;clip-rule:nonzero;display:inline;overflow:visible;visibility:visible;opacity:1;isolation:auto;mix-blend-mode:normal;color-interpolation:sRGB;color-interpolation-filters:linearRGB;solid-color:#000000;solid-opacity:1;fill:none;fill-opacity:1;fill-rule:evenodd;stroke:#000000;stroke-width:0.26458335;stroke-linecap:butt;stroke-linejoin:round;stroke-miterlimit:4;stroke-dasharray:none;stroke-dashoffset:0;stroke-opacity:1;color-rendering:auto;image-rendering:auto;shape-rendering:auto;text-rendering:auto;enable-background:accumulate" />
        <path
           d="M 78.888831,221.128650 l -0.782729,1.355727 M 78.106102,224.177710 l 1.760376,-3.049060 M 80.844124,221.128650 l -2.738022,4.742393 M 78.106102,227.564377 l 3.715669,-6.435727 M 82.799417,221.128650 l -4.693315,8.129060 M 79.026682,229.356552 l 4.750382,-8.227902 M 84.754710,221.128650 l -4.750382,8.227902 M 80.981975,229.356552 l 4.750382,-8.227902 M 86.710003,221.128650 l -4.750382,8.227902 M 82.937268,229.356552 l 3.787397,-6.559964 M 86.724665,224.489922 l -2.809750,4.866631 M 84.892561,229.356552 l 1.832104,-3.173297 M 86.724665,227.876589 l -0.854457,1.479964"
           style="stroke:#000000;stroke-width:0.26458335;fill:none"
           id="path17337" />
      </g>
      <ellipse
         style="color:#000000;clip-rule:nonzero;display:inline;overflow:visible;visibility:visible;opacity:1;isolation:auto;mix-blend-mode:normal;color-interpolation:sRGB;color-interpolation-filters:linearRGB;solid-color:#000000;solid-opacity:1;fill:#ffffff;fill-opacity:1;fill-rule:nonzero;stroke:#000000;stroke-width:0.21166667;stroke-linecap:round;stroke-linejoin:round;stroke-miterlimit:4;stroke-dasharray:none;stroke-dashoffset:0;stroke-opacity:1;color-rendering:auto;image-rendering:auto;shape-rendering:auto;text-rendering:auto;enable-background:accumulate"
         id="ellipse17346"
         cx="82.324753"
         cy="225.37051"
         rx="3.5843308"
         ry="2.2186997" />
      <g
         transform="matrix(0.35076339,0,0,0.35076339,26.897138,179.1119)"
         style="fill:#000000;fill-opacity:1;stroke-width:1.20689046"
         id="g17350">
        <path
           inkscape:connector-curvature="0"
           style="stroke:none;stroke-width:0"
           d="m 6.5625,-2.296875 c 0.171875,0 0.359375,0 0.359375,-0.203125 0,-0.1875 -0.1875,-0.1875 -0.359375,-0.1875 H 1.171875 c -0.171875,0 -0.34375,0 -0.34375,0.1875 0,0.203125 0.171875,0.203125 0.34375,0.203125 z m 0,0"
           transform="translate(148.712,134.765)"
           id="path17348" />
      </g>
      <path
         inkscape:connector-curvature="0"
         style="fill:#000000;fill-opacity:1;stroke:none;stroke-width:0"
         d="m 82.92694,224.54348 c 0,0 0,-0.0338 -0.03862,-0.0338 -0.06758,0 -0.294449,0.0242 -0.376509,0.0338 -0.02413,0 -0.05792,0.005 -0.05792,0.058 0,0.0386 0.02896,0.0386 0.07723,0.0386 0.144811,0 0.149638,0.0193 0.149638,0.0531 0,0.0193 -0.02413,0.12549 -0.03862,0.18824 l -0.255833,1.00403 c -0.03379,0.15446 -0.04827,0.20756 -0.04827,0.31376 0,0.28962 0.16412,0.4827 0.390991,0.4827 0.362028,0 0.743364,-0.45856 0.743364,-0.90265 0,-0.27997 -0.164119,-0.49236 -0.410299,-0.49236 -0.139984,0 -0.270314,0.0917 -0.362027,0.18342 z m -0.284795,1.16332 c 0.01448,-0.0676 0.01448,-0.0724 0.04344,-0.10619 0.149638,-0.19791 0.289623,-0.24618 0.371682,-0.24618 0.111022,0 0.193082,0.0917 0.193082,0.28962 0,0.18343 -0.101369,0.53581 -0.159292,0.65165 -0.101369,0.20756 -0.241352,0.31859 -0.362029,0.31859 -0.106195,0 -0.207563,-0.0821 -0.207563,-0.30894 0,-0.0628 0,-0.12067 0.04827,-0.31375 z m 0,0"
         id="path16863" />
      <path
         inkscape:connector-curvature="0"
         style="fill:#000000;fill-opacity:1;stroke:none;stroke-width:0"
         d="m 84.600301,225.1403 h -0.07241 c -0.0048,0.0482 -0.02896,0.17377 -0.05792,0.19308 -0.01448,0.0144 -0.1786,0.0144 -0.212389,0.0144 h -0.395817 c 0.226871,-0.19791 0.304103,-0.26066 0.429606,-0.36203 0.159292,-0.12551 0.308931,-0.26066 0.308931,-0.4634 0,-0.26065 -0.226871,-0.41995 -0.502012,-0.41995 -0.265488,0 -0.448915,0.18825 -0.448915,0.38616 0,0.1062 0.09171,0.12068 0.115849,0.12068 0.04827,0 0.111021,-0.0386 0.111021,-0.11585 0,-0.0386 -0.01448,-0.11585 -0.125503,-0.11585 0.06758,-0.14964 0.212391,-0.19791 0.313758,-0.19791 0.217217,0 0.328239,0.16895 0.328239,0.34272 0,0.18826 -0.135157,0.33307 -0.202736,0.4103 l -0.516493,0.51649 c -0.02413,0.0193 -0.02413,0.0242 -0.02413,0.0821 h 0.888176 z m 0,0"
         id="path16865" />
      <g
         transform="matrix(0,0.423333,-0.423333,0,132.97815,183.5202)"
         id="g17520"
         style="fill:#000000;fill-opacity:1">
        <path
           id="path17518"
           transform="translate(148.712,134.765)"
           d="m 6.5625,-2.296875 c 0.171875,0 0.359375,0 0.359375,-0.203125 0,-0.1875 -0.1875,-0.1875 -0.359375,-0.1875 H 1.171875 c -0.171875,0 -0.34375,0 -0.34375,0.1875 0,0.203125 0.171875,0.203125 0.34375,0.203125 z m 0,0"
           style="stroke:none;stroke-width:0"
           inkscape:connector-curvature="0" />
      </g>
    </g>
  </g>
</svg>
