<?xml version="1.0" encoding="UTF-8" standalone="no"?>
<!-- Created with Inkscape (http://www.inkscape.org/) -->

<svg
   xmlns:dc="http://purl.org/dc/elements/1.1/"
   xmlns:cc="http://creativecommons.org/ns#"
   xmlns:rdf="http://www.w3.org/1999/02/22-rdf-syntax-ns#"
   xmlns:svg="http://www.w3.org/2000/svg"
   xmlns="http://www.w3.org/2000/svg"
   xmlns:sodipodi="http://sodipodi.sourceforge.net/DTD/sodipodi-0.dtd"
   xmlns:inkscape="http://www.inkscape.org/namespaces/inkscape"
   width="11cm"
   height="10cm"
   viewBox="0 0 110 99.999997"
   version="1.1"
   id="svg7653"
   sodipodi:docname="fig3-32f.svg"
   inkscape:version="0.92.4 (unknown)">
  <defs
     id="defs7647">
    <marker
       inkscape:stockid="Arrow1Mend"
       orient="auto"
       refY="0"
       refX="0"
       id="marker18742"
       style="overflow:visible"
       inkscape:isstock="true">
      <path
         id="path18740"
         d="M 0,0 5,-5 -12.5,0 5,5 Z"
         style="fill:#000000;fill-opacity:1;fill-rule:evenodd;stroke:#000000;stroke-width:1.00000003pt;stroke-opacity:1"
         transform="matrix(-0.4,0,0,-0.4,-4,0)"
         inkscape:connector-curvature="0" />
    </marker>
    <marker
       inkscape:isstock="true"
       style="overflow:visible"
       id="marker18660"
       refX="0"
       refY="0"
       orient="auto"
       inkscape:stockid="Arrow1Mstart">
      <path
         inkscape:connector-curvature="0"
         transform="matrix(0.4,0,0,0.4,4,0)"
         style="fill:#000000;fill-opacity:1;fill-rule:evenodd;stroke:#000000;stroke-width:1.00000003pt;stroke-opacity:1"
         d="M 0,0 5,-5 -12.5,0 5,5 Z"
         id="path18658" />
    </marker>
    <marker
       inkscape:stockid="Arrow1Mend"
       orient="auto"
       refY="0"
       refX="0"
       id="marker16016"
       style="overflow:visible"
       inkscape:isstock="true">
      <path
         id="path16014"
         d="M 0,0 5,-5 -12.5,0 5,5 Z"
         style="fill:#000000;fill-opacity:1;fill-rule:evenodd;stroke:#000000;stroke-width:1.00000003pt;stroke-opacity:1"
         transform="matrix(-0.4,0,0,-0.4,-4,0)"
         inkscape:connector-curvature="0" />
    </marker>
    <marker
       inkscape:isstock="true"
       style="overflow:visible"
       id="marker15938"
       refX="0"
       refY="0"
       orient="auto"
       inkscape:stockid="Arrow1Mend"
       inkscape:collect="always">
      <path
         inkscape:connector-curvature="0"
         transform="matrix(-0.4,0,0,-0.4,-4,0)"
         style="fill:#000000;fill-opacity:1;fill-rule:evenodd;stroke:#000000;stroke-width:1.00000003pt;stroke-opacity:1"
         d="M 0,0 5,-5 -12.5,0 5,5 Z"
         id="path15936" />
    </marker>
    <marker
       inkscape:stockid="Arrow1Mend"
       orient="auto"
       refY="0"
       refX="0"
       id="marker15053"
       style="overflow:visible"
       inkscape:isstock="true"
       inkscape:collect="always">
      <path
         id="path15051"
         d="M 0,0 5,-5 -12.5,0 5,5 Z"
         style="fill:#000000;fill-opacity:1;fill-rule:evenodd;stroke:#000000;stroke-width:1.00000003pt;stroke-opacity:1"
         transform="matrix(-0.4,0,0,-0.4,-4,0)"
         inkscape:connector-curvature="0" />
    </marker>
    <marker
       inkscape:isstock="true"
       style="overflow:visible"
       id="marker14977"
       refX="0"
       refY="0"
       orient="auto"
       inkscape:stockid="Arrow1Mstart">
      <path
         inkscape:connector-curvature="0"
         transform="matrix(0.4,0,0,0.4,4,0)"
         style="fill:#000000;fill-opacity:1;fill-rule:evenodd;stroke:#000000;stroke-width:1.00000003pt;stroke-opacity:1"
         d="M 0,0 5,-5 -12.5,0 5,5 Z"
         id="path14975" />
    </marker>
    <marker
       inkscape:stockid="Arrow1Mend"
       orient="auto"
       refY="0"
       refX="0"
       id="marker10528"
       style="overflow:visible"
       inkscape:isstock="true">
      <path
         id="path10526"
         d="M 0,0 5,-5 -12.5,0 5,5 Z"
         style="fill:#000000;fill-opacity:1;fill-rule:evenodd;stroke:#000000;stroke-width:1.00000003pt;stroke-opacity:1"
         transform="matrix(-0.4,0,0,-0.4,-4,0)"
         inkscape:connector-curvature="0" />
    </marker>
    <marker
       inkscape:isstock="true"
       style="overflow:visible"
       id="marker3811"
       refX="0"
       refY="0"
       orient="auto"
       inkscape:stockid="Arrow1Mstart">
      <path
         inkscape:connector-curvature="0"
         transform="matrix(0.4,0,0,0.4,4,0)"
         style="fill:#000000;fill-opacity:1;fill-rule:evenodd;stroke:#000000;stroke-width:1.00000003pt;stroke-opacity:1"
         d="M 0,0 5,-5 -12.5,0 5,5 Z"
         id="path3809" />
    </marker>
    <marker
       inkscape:stockid="Arrow1Mend"
       orient="auto"
       refY="0"
       refX="0"
       id="marker4385"
       style="overflow:visible"
       inkscape:isstock="true">
      <path
         id="path4383"
         d="M 0,0 5,-5 -12.5,0 5,5 Z"
         style="fill:#000000;fill-opacity:1;fill-rule:evenodd;stroke:#000000;stroke-width:1.00000003pt;stroke-opacity:1"
         transform="matrix(-0.4,0,0,-0.4,-4,0)"
         inkscape:connector-curvature="0" />
    </marker>
    <marker
       inkscape:stockid="Arrow1Mstart"
       orient="auto"
       refY="0"
       refX="0"
       id="marker5978"
       style="overflow:visible"
       inkscape:isstock="true"
       inkscape:collect="always">
      <path
         id="path5976"
         d="M 0,0 5,-5 -12.5,0 5,5 Z"
         style="fill:#000000;fill-opacity:1;fill-rule:evenodd;stroke:#000000;stroke-width:1.00000003pt;stroke-opacity:1"
         transform="matrix(0.4,0,0,0.4,4,0)"
         inkscape:connector-curvature="0" />
    </marker>
    <marker
       inkscape:isstock="true"
       style="overflow:visible"
       id="marker6564"
       refX="0"
       refY="0"
       orient="auto"
       inkscape:stockid="Arrow1Mend"
       inkscape:collect="always">
      <path
         inkscape:connector-curvature="0"
         transform="matrix(-0.4,0,0,-0.4,-4,0)"
         style="fill:#000000;fill-opacity:1;fill-rule:evenodd;stroke:#000000;stroke-width:1.00000003pt;stroke-opacity:1"
         d="M 0,0 5,-5 -12.5,0 5,5 Z"
         id="path6562" />
    </marker>
  </defs>
  <sodipodi:namedview
     id="base"
     pagecolor="#ffffff"
     bordercolor="#666666"
     borderopacity="1.0"
     inkscape:pageopacity="0.0"
     inkscape:pageshadow="2"
     inkscape:zoom="1.5209263"
     inkscape:cx="232.75452"
     inkscape:cy="247.04104"
     inkscape:document-units="cm"
     inkscape:current-layer="layer1"
     showgrid="false"
     units="cm"
     inkscape:window-width="776"
     inkscape:window-height="716"
     inkscape:window-x="10"
     inkscape:window-y="24"
     inkscape:window-maximized="0" />
  <metadata
     id="metadata7650">
    <rdf:RDF>
      <cc:Work
         rdf:about="">
        <dc:format>image/svg+xml</dc:format>
        <dc:type
           rdf:resource="http://purl.org/dc/dcmitype/StillImage" />
        <dc:title></dc:title>
      </cc:Work>
    </rdf:RDF>
  </metadata>
  <g
     inkscape:label="Layer 1"
     inkscape:groupmode="layer"
     id="layer1"
     transform="translate(0,-197.00001)">
    <g
       id="g1208">
      <path
         style="color:#000000;clip-rule:nonzero;display:inline;overflow:visible;visibility:visible;opacity:1;isolation:auto;mix-blend-mode:normal;color-interpolation:sRGB;color-interpolation-filters:linearRGB;solid-color:#000000;solid-opacity:1;fill:none;fill-opacity:1;fill-rule:nonzero;stroke:#000000;stroke-width:0.26000002;stroke-linecap:round;stroke-linejoin:round;stroke-miterlimit:4;stroke-dasharray:none;stroke-dashoffset:0;stroke-opacity:1;marker-start:url(#marker14977);marker-end:url(#marker15053);color-rendering:auto;image-rendering:auto;shape-rendering:auto;text-rendering:auto;enable-background:accumulate"
         d="m 65.039066,213.6358 v 25.83068"
         id="path14919"
         inkscape:connector-curvature="0" />
      <path
         inkscape:connector-curvature="0"
         id="path14921"
         d="M 72.861675,246.16504 H 99.180204"
         style="color:#000000;clip-rule:nonzero;display:inline;overflow:visible;visibility:visible;opacity:1;isolation:auto;mix-blend-mode:normal;color-interpolation:sRGB;color-interpolation-filters:linearRGB;solid-color:#000000;solid-opacity:1;fill:none;fill-opacity:1;fill-rule:nonzero;stroke:#000000;stroke-width:0.25999999;stroke-linecap:round;stroke-linejoin:round;stroke-miterlimit:4;stroke-dasharray:none;stroke-dashoffset:0;stroke-opacity:1;marker-start:url(#marker5978);marker-end:url(#marker6564);color-rendering:auto;image-rendering:auto;shape-rendering:auto;text-rendering:auto;enable-background:accumulate" />
      <path
         id="path15798"
         d="m 102.83993,241.65192 c 0.0265,-0.10584 0.12568,-0.4961 0.41672,-0.4961 0.0198,0 0.12568,0 0.21166,0.0529 -0.11906,0.0265 -0.19843,0.12568 -0.19843,0.23151 0,0.0661 0.0463,0.14552 0.15875,0.14552 0.0926,0 0.22489,-0.0728 0.22489,-0.24474 0,-0.21828 -0.24474,-0.27781 -0.39026,-0.27781 -0.24474,0 -0.39026,0.22489 -0.44317,0.3175 -0.10584,-0.27781 -0.33073,-0.3175 -0.45641,-0.3175 -0.43656,0 -0.6813,0.54239 -0.6813,0.64823 0,0.0463 0.0463,0.0463 0.0529,0.0463 0.0331,0 0.0463,-0.0132 0.0529,-0.0463 0.14552,-0.44979 0.42333,-0.55563 0.56885,-0.55563 0.0794,0 0.2249,0.0397 0.2249,0.28443 0,0.13229 -0.0728,0.4101 -0.2249,1.00542 -0.0661,0.25796 -0.21828,0.43656 -0.40349,0.43656 -0.0265,0 -0.11906,0 -0.21166,-0.0529 0.10583,-0.0265 0.19843,-0.11245 0.19843,-0.23151 0,-0.11245 -0.0926,-0.14552 -0.15213,-0.14552 -0.13229,0 -0.23151,0.10583 -0.23151,0.24474 0,0.19182 0.20505,0.27781 0.39026,0.27781 0.28443,0 0.43656,-0.29765 0.44318,-0.3175 0.0529,0.15214 0.20505,0.3175 0.4564,0.3175 0.43656,0 0.67469,-0.54239 0.67469,-0.64823 0,-0.0463 -0.0331,-0.0463 -0.0463,-0.0463 -0.0397,0 -0.0463,0.0198 -0.0595,0.0463 -0.13891,0.45641 -0.42333,0.55563 -0.55563,0.55563 -0.16536,0 -0.23151,-0.13229 -0.23151,-0.27781 0,-0.0926 0.0198,-0.18521 0.0661,-0.37042 z m 0,0"
         style="fill:#000000;fill-opacity:1;stroke:none;stroke-width:0"
         inkscape:connector-curvature="0" />
      <path
         id="path15800"
         d="m 70.733484,206.44017 c 0.01984,-0.0595 0.01984,-0.0661 0.01984,-0.0992 0,-0.0728 -0.05953,-0.11245 -0.125677,-0.11245 -0.03969,0 -0.105833,0.0265 -0.145521,0.086 -0.0066,0.0265 -0.0463,0.15214 -0.05953,0.23151 -0.03307,0.10583 -0.05953,0.2249 -0.08599,0.33734 l -0.191823,0.76068 c -0.01323,0.0595 -0.198438,0.35719 -0.47625,0.35719 -0.211666,0 -0.257968,-0.18521 -0.257968,-0.34396 0,-0.19182 0.07276,-0.45641 0.211666,-0.82682 0.06615,-0.17198 0.08599,-0.21828 0.08599,-0.30427 0,-0.18521 -0.132292,-0.34396 -0.343958,-0.34396 -0.40349,0 -0.555625,0.61515 -0.555625,0.64823 0,0.0463 0.03969,0.0463 0.0463,0.0463 0.0463,0 0.0463,-0.0132 0.06615,-0.0794 0.119062,-0.39687 0.284427,-0.52255 0.429947,-0.52255 0.03307,0 0.105834,0 0.105834,0.13229 0,0.10584 -0.0463,0.21829 -0.07276,0.29766 -0.171979,0.44979 -0.244739,0.68792 -0.244739,0.88635 0,0.37704 0.264583,0.50271 0.515937,0.50271 0.165364,0 0.304271,-0.0728 0.423333,-0.19182 -0.05292,0.21828 -0.105833,0.42995 -0.271198,0.65484 -0.112448,0.13891 -0.271197,0.26459 -0.46302,0.26459 -0.05953,0 -0.251354,-0.0132 -0.324115,-0.1786 0.06615,0 0.125677,0 0.178594,-0.0529 0.0463,-0.0331 0.08599,-0.0926 0.08599,-0.17198 0,-0.1323 -0.112448,-0.14552 -0.152136,-0.14552 -0.09922,0 -0.238125,0.0661 -0.238125,0.27119 0,0.21167 0.185209,0.37042 0.449792,0.37042 0.429947,0 0.86651,-0.38365 0.985572,-0.8599 z m 0,0"
         style="fill:#000000;fill-opacity:1;stroke:none;stroke-width:0"
         inkscape:connector-curvature="0" />
      <path
         inkscape:connector-curvature="0"
         id="path15928"
         d="M 72.021429,243.22241 V 208.95559"
         style="color:#000000;clip-rule:nonzero;display:inline;overflow:visible;visibility:visible;opacity:1;isolation:auto;mix-blend-mode:normal;color-interpolation:sRGB;color-interpolation-filters:linearRGB;solid-color:#000000;solid-opacity:1;fill:none;fill-opacity:1;fill-rule:nonzero;stroke:#000000;stroke-width:0.26458332;stroke-linecap:round;stroke-linejoin:round;stroke-miterlimit:4;stroke-dasharray:none;stroke-dashoffset:0;stroke-opacity:1;marker-end:url(#marker15938);color-rendering:auto;image-rendering:auto;shape-rendering:auto;text-rendering:auto;enable-background:accumulate" />
      <path
         style="color:#000000;clip-rule:nonzero;display:inline;overflow:visible;visibility:visible;opacity:1;isolation:auto;mix-blend-mode:normal;color-interpolation:sRGB;color-interpolation-filters:linearRGB;solid-color:#000000;solid-opacity:1;fill:none;fill-opacity:1;fill-rule:nonzero;stroke:#000000;stroke-width:0.26458332;stroke-linecap:round;stroke-linejoin:round;stroke-miterlimit:4;stroke-dasharray:none;stroke-dashoffset:0;stroke-opacity:1;marker-end:url(#marker16016);color-rendering:auto;image-rendering:auto;shape-rendering:auto;text-rendering:auto;enable-background:accumulate"
         d="M 69.764309,240.02583 H 103.07277"
         id="path16012"
         inkscape:connector-curvature="0" />
      <text
         id="text16678"
         y="243.27811"
         x="70.456802"
         style="font-style:normal;font-variant:normal;font-weight:normal;font-stretch:normal;font-size:4.23333311px;line-height:125%;font-family:LMRoman12;-inkscape-font-specification:LMRoman12;text-align:center;letter-spacing:0px;word-spacing:0px;writing-mode:lr-tb;text-anchor:middle;fill:#000000;fill-opacity:1;stroke:none;stroke-width:0.26458332px;stroke-linecap:butt;stroke-linejoin:miter;stroke-opacity:1"
         xml:space="preserve"><tspan
           style="stroke-width:0.26458332px"
           y="243.27811"
           x="70.456802"
           id="tspan16676"
           sodipodi:role="line">0</tspan></text>
      <path
         id="path16853"
         d="m 69.993497,224.03866 c 0,0 0,-0.0463 -0.05292,-0.0463 -0.0926,0 -0.403489,0.0331 -0.515937,0.0463 -0.03307,0 -0.07937,0.007 -0.07937,0.0794 0,0.0529 0.03969,0.0529 0.105833,0.0529 0.198438,0 0.205052,0.0264 0.205052,0.0728 0,0.0265 -0.03307,0.17197 -0.05292,0.25796 l -0.350573,1.37584 c -0.0463,0.21166 -0.06615,0.28442 -0.06615,0.42994 0,0.39688 0.224896,0.66146 0.535781,0.66146 0.496094,0 1.018645,-0.62838 1.018645,-1.23692 0,-0.38365 -0.224895,-0.67469 -0.562239,-0.67469 -0.191823,0 -0.370416,0.12568 -0.496093,0.25135 z m -0.39026,1.59412 c 0.01984,-0.0926 0.01984,-0.0992 0.05953,-0.14552 0.205052,-0.2712 0.396875,-0.33735 0.509322,-0.33735 0.152136,0 0.264584,0.12568 0.264584,0.39688 0,0.25135 -0.138907,0.73422 -0.218281,0.89297 -0.138907,0.28442 -0.330729,0.43656 -0.496094,0.43656 -0.145521,0 -0.284427,-0.11245 -0.284427,-0.42334 0,-0.086 0,-0.16536 0.06615,-0.42994 z m 0,0"
         style="fill:#000000;fill-opacity:1;stroke:none;stroke-width:0"
         inkscape:connector-curvature="0" />
      <path
         id="path16855"
         d="m 77.25982,241.19737 c -0.07937,-0.15875 -0.198438,-0.2712 -0.390261,-0.2712 -0.489478,0 -1.01203,0.62177 -1.01203,1.23693 0,0.39687 0.23151,0.67468 0.555625,0.67468 0.08599,0 0.297656,-0.0198 0.54901,-0.3175 0.03307,0.1786 0.185208,0.3175 0.383645,0.3175 0.152135,0 0.24474,-0.0992 0.3175,-0.23151 0.06615,-0.15213 0.125677,-0.4101 0.125677,-0.41672 0,-0.0463 -0.03969,-0.0463 -0.05292,-0.0463 -0.03969,0 -0.0463,0.0198 -0.05953,0.0794 -0.07276,0.27119 -0.145521,0.52255 -0.3175,0.52255 -0.119062,0 -0.125677,-0.11245 -0.125677,-0.19182 0,-0.0926 0.0066,-0.1323 0.05292,-0.3175 0.0463,-0.17198 0.05292,-0.21829 0.0926,-0.37704 l 0.152135,-0.58869 c 0.02646,-0.11907 0.02646,-0.12568 0.02646,-0.14552 0,-0.0728 -0.0463,-0.11245 -0.119063,-0.11245 -0.105833,0 -0.165364,0.0926 -0.178593,0.18521 z m -0.271198,1.0914 c -0.02646,0.0794 -0.02646,0.086 -0.08599,0.15875 -0.185208,0.23151 -0.357187,0.29766 -0.476249,0.29766 -0.211667,0 -0.271198,-0.23151 -0.271198,-0.39688 0,-0.21166 0.132292,-0.7276 0.23151,-0.92604 0.132292,-0.24474 0.3175,-0.40349 0.489479,-0.40349 0.271198,0 0.330729,0.34396 0.330729,0.37042 0,0.0265 -0.0066,0.0529 -0.01323,0.0728 z m 0,0"
         style="fill:#000000;fill-opacity:1;stroke:none;stroke-width:0"
         inkscape:connector-curvature="0" />
      <path
         inkscape:connector-curvature="0"
         style="fill:#000000;fill-opacity:1;stroke:none;stroke-width:0"
         d="m 70.45795,232.90395 c -0.07937,-0.15875 -0.198438,-0.2712 -0.390261,-0.2712 -0.489478,0 -1.01203,0.62177 -1.01203,1.23693 0,0.39687 0.23151,0.67468 0.555625,0.67468 0.08599,0 0.297656,-0.0198 0.54901,-0.3175 0.03307,0.1786 0.185208,0.3175 0.383645,0.3175 0.152135,0 0.244739,-0.0992 0.3175,-0.23151 0.06615,-0.15213 0.125677,-0.4101 0.125677,-0.41672 0,-0.0463 -0.03969,-0.0463 -0.05292,-0.0463 -0.03969,0 -0.0463,0.0198 -0.05953,0.0794 -0.07276,0.27119 -0.145521,0.52255 -0.3175,0.52255 -0.119062,0 -0.125677,-0.11245 -0.125677,-0.19182 0,-0.0926 0.0066,-0.1323 0.05292,-0.3175 0.0463,-0.17198 0.05292,-0.21829 0.0926,-0.37704 l 0.152135,-0.58869 c 0.02646,-0.11907 0.02646,-0.12568 0.02646,-0.14552 0,-0.0728 -0.0463,-0.11245 -0.119063,-0.11245 -0.105833,0 -0.165364,0.0926 -0.178593,0.18521 z m -0.271198,1.0914 c -0.02646,0.0794 -0.02646,0.086 -0.08599,0.15875 -0.185208,0.23151 -0.357187,0.29766 -0.476249,0.29766 -0.211667,0 -0.271198,-0.23151 -0.271198,-0.39688 0,-0.21166 0.132292,-0.7276 0.23151,-0.92604 0.132292,-0.24474 0.3175,-0.40349 0.489479,-0.40349 0.271198,0 0.330729,0.34396 0.330729,0.37042 0,0.0265 -0.0066,0.0529 -0.01323,0.0728 z m 0,0"
         id="path16857" />
      <path
         inkscape:connector-curvature="0"
         style="fill:#000000;fill-opacity:1;stroke:none;stroke-width:0"
         d="m 87.818953,240.81672 c 0,0 0,-0.0463 -0.05292,-0.0463 -0.0926,0 -0.403489,0.0331 -0.515937,0.0463 -0.03307,0 -0.07937,0.007 -0.07937,0.0794 0,0.0529 0.03969,0.0529 0.105833,0.0529 0.198438,0 0.205052,0.0264 0.205052,0.0728 0,0.0265 -0.03307,0.17197 -0.05292,0.25796 l -0.350573,1.37584 c -0.0463,0.21166 -0.06615,0.28442 -0.06615,0.42994 0,0.39688 0.224896,0.66146 0.535781,0.66146 0.496094,0 1.018645,-0.62838 1.018645,-1.23692 0,-0.38365 -0.224895,-0.67469 -0.562239,-0.67469 -0.191823,0 -0.370416,0.12568 -0.496093,0.25135 z m -0.39026,1.59412 c 0.01984,-0.0926 0.01984,-0.0992 0.05953,-0.14552 0.205052,-0.2712 0.396875,-0.33735 0.509322,-0.33735 0.152136,0 0.264584,0.12568 0.264584,0.39688 0,0.25135 -0.138907,0.73422 -0.218281,0.89297 -0.138907,0.28442 -0.330729,0.43656 -0.496094,0.43656 -0.145521,0 -0.284427,-0.11245 -0.284427,-0.42334 0,-0.086 0,-0.16536 0.06615,-0.42994 z m 0,0"
         id="path16867" />
      <rect
         y="221.14737"
         x="72.055618"
         height="8.2279024"
         width="10.583333"
         id="rect18402"
         style="color:#000000;clip-rule:nonzero;display:inline;overflow:visible;visibility:visible;opacity:1;isolation:auto;mix-blend-mode:normal;color-interpolation:sRGB;color-interpolation-filters:linearRGB;solid-color:#000000;solid-opacity:1;fill:none;fill-opacity:1;fill-rule:evenodd;stroke:#000000;stroke-width:0.26458335;stroke-linecap:butt;stroke-linejoin:round;stroke-miterlimit:4;stroke-dasharray:none;stroke-dashoffset:0;stroke-opacity:1;color-rendering:auto;image-rendering:auto;shape-rendering:auto;text-rendering:auto;enable-background:accumulate" />
      <rect
         style="color:#000000;clip-rule:nonzero;display:inline;overflow:visible;visibility:visible;opacity:1;isolation:auto;mix-blend-mode:normal;color-interpolation:sRGB;color-interpolation-filters:linearRGB;solid-color:#000000;solid-opacity:1;fill:none;fill-opacity:1;fill-rule:evenodd;stroke:#000000;stroke-width:0.26458335;stroke-linecap:butt;stroke-linejoin:round;stroke-miterlimit:4;stroke-dasharray:none;stroke-dashoffset:0;stroke-opacity:1;color-rendering:auto;image-rendering:auto;shape-rendering:auto;text-rendering:auto;enable-background:accumulate"
         id="rect18404"
         width="8.6185627"
         height="8.2279024"
         x="82.638947"
         y="221.14737" />
      <rect
         style="color:#000000;clip-rule:nonzero;display:inline;overflow:visible;visibility:visible;opacity:1;isolation:auto;mix-blend-mode:normal;color-interpolation:sRGB;color-interpolation-filters:linearRGB;solid-color:#000000;solid-opacity:1;fill:none;fill-opacity:1;fill-rule:evenodd;stroke:#000000;stroke-width:0.26458332;stroke-linecap:butt;stroke-linejoin:round;stroke-miterlimit:4;stroke-dasharray:none;stroke-dashoffset:0;stroke-opacity:1;color-rendering:auto;image-rendering:auto;shape-rendering:auto;text-rendering:auto;enable-background:accumulate"
         id="rect18406"
         width="10.583333"
         height="10.583317"
         x="72.055618"
         y="229.37527" />
      <rect
         y="229.37527"
         x="82.638947"
         height="10.583317"
         width="8.6185627"
         id="rect18408"
         style="color:#000000;clip-rule:nonzero;display:inline;overflow:visible;visibility:visible;opacity:1;isolation:auto;mix-blend-mode:normal;color-interpolation:sRGB;color-interpolation-filters:linearRGB;solid-color:#000000;solid-opacity:1;fill:none;fill-opacity:1;fill-rule:evenodd;stroke:#000000;stroke-width:0.26458332;stroke-linecap:butt;stroke-linejoin:round;stroke-miterlimit:4;stroke-dasharray:none;stroke-dashoffset:0;stroke-opacity:1;color-rendering:auto;image-rendering:auto;shape-rendering:auto;text-rendering:auto;enable-background:accumulate" />
      <path
         inkscape:connector-curvature="0"
         style="fill:#000000;fill-opacity:1;stroke:none;stroke-width:0"
         d="m 77.304568,234.28887 c -0.07937,-0.15875 -0.198438,-0.2712 -0.390261,-0.2712 -0.489478,0 -1.01203,0.62177 -1.01203,1.23693 0,0.39687 0.23151,0.67468 0.555625,0.67468 0.08599,0 0.297656,-0.0198 0.54901,-0.3175 0.03307,0.1786 0.185208,0.3175 0.383645,0.3175 0.152135,0 0.244739,-0.0992 0.3175,-0.23151 0.06615,-0.15213 0.125677,-0.4101 0.125677,-0.41672 0,-0.0463 -0.03969,-0.0463 -0.05292,-0.0463 -0.03969,0 -0.0463,0.0198 -0.05953,0.0794 -0.07276,0.27119 -0.145521,0.52255 -0.3175,0.52255 -0.119062,0 -0.125677,-0.11245 -0.125677,-0.19182 0,-0.0926 0.0066,-0.1323 0.05292,-0.3175 0.0463,-0.17198 0.05292,-0.21829 0.0926,-0.37704 l 0.152135,-0.58869 c 0.02646,-0.11907 0.02646,-0.12568 0.02646,-0.14552 0,-0.0728 -0.0463,-0.11245 -0.119063,-0.11245 -0.105833,0 -0.165364,0.0926 -0.178593,0.18521 z m -0.271198,1.0914 c -0.02646,0.0794 -0.02646,0.086 -0.08599,0.15875 -0.185208,0.23151 -0.357187,0.29766 -0.476249,0.29766 -0.211667,0 -0.271198,-0.23151 -0.271198,-0.39688 0,-0.21166 0.132292,-0.7276 0.23151,-0.92604 0.132292,-0.24474 0.3175,-0.40349 0.489479,-0.40349 0.271198,0 0.330729,0.34396 0.330729,0.37042 0,0.0265 -0.0066,0.0529 -0.01323,0.0728 z m 0,0"
         id="path18410" />
      <path
         inkscape:connector-curvature="0"
         style="fill:#000000;fill-opacity:1;stroke:none;stroke-width:0"
         d="m 79.447697,233.81685 h -0.09922 c -0.0066,0.0661 -0.03969,0.23812 -0.07937,0.26458 -0.01984,0.0198 -0.244739,0.0198 -0.291041,0.0198 h -0.542395 c 0.310885,-0.2712 0.416718,-0.35719 0.588697,-0.4961 0.218281,-0.17198 0.423333,-0.35718 0.423333,-0.635 0,-0.35718 -0.310885,-0.57547 -0.687916,-0.57547 -0.363802,0 -0.615156,0.25797 -0.615156,0.52917 0,0.14552 0.125677,0.16537 0.15875,0.16537 0.06615,0 0.152135,-0.0529 0.152135,-0.15875 0,-0.0529 -0.01984,-0.15875 -0.171979,-0.15875 0.0926,-0.20506 0.291042,-0.2712 0.429948,-0.2712 0.297656,0 0.449791,0.23151 0.449791,0.46963 0,0.25797 -0.185208,0.45641 -0.277812,0.56224 l -0.70776,0.70776 c -0.03307,0.0265 -0.03307,0.0331 -0.03307,0.11245 h 1.217083 z m 0,0"
         id="path18412" />
      <path
         inkscape:connector-curvature="0"
         style="fill:#000000;fill-opacity:1;stroke:none;stroke-width:0"
         d="m 86.591,224.13453 c 0,0 0,-0.0463 -0.05292,-0.0463 -0.0926,0 -0.403489,0.0331 -0.515937,0.0463 -0.03307,0 -0.07937,0.007 -0.07937,0.0794 0,0.0529 0.03969,0.0529 0.105833,0.0529 0.198438,0 0.205052,0.0265 0.205052,0.0728 0,0.0265 -0.03307,0.17197 -0.05292,0.25796 l -0.350573,1.37584 c -0.0463,0.21166 -0.06615,0.28442 -0.06615,0.42994 0,0.39688 0.224896,0.66146 0.535781,0.66146 0.496094,0 1.018645,-0.62838 1.018645,-1.23692 0,-0.38365 -0.224895,-0.67469 -0.562239,-0.67469 -0.191823,0 -0.370416,0.12568 -0.496093,0.25135 z m -0.39026,1.59412 c 0.01984,-0.0926 0.01984,-0.0992 0.05953,-0.14552 0.205052,-0.2712 0.396875,-0.33735 0.509322,-0.33735 0.152136,0 0.264584,0.12568 0.264584,0.39688 0,0.25135 -0.138907,0.73422 -0.218281,0.89297 -0.138907,0.28442 -0.330729,0.43656 -0.496094,0.43656 -0.145521,0 -0.284427,-0.11245 -0.284427,-0.42334 0,-0.086 0,-0.16536 0.06615,-0.42994 z m 0,0"
         id="path18414" />
      <path
         inkscape:connector-curvature="0"
         style="fill:#000000;fill-opacity:1;stroke:none;stroke-width:0"
         d="m 88.884036,224.95236 h -0.09922 c -0.0066,0.0661 -0.03969,0.23812 -0.07937,0.26458 -0.01984,0.0198 -0.244739,0.0198 -0.291041,0.0198 H 87.87201 c 0.310885,-0.2712 0.416718,-0.35719 0.588697,-0.4961 0.218281,-0.17198 0.423333,-0.35718 0.423333,-0.635 0,-0.35718 -0.310885,-0.57547 -0.687916,-0.57547 -0.363802,0 -0.615156,0.25797 -0.615156,0.52917 0,0.14552 0.125677,0.16537 0.15875,0.16537 0.06615,0 0.152135,-0.0529 0.152135,-0.15875 0,-0.0529 -0.01984,-0.15875 -0.171979,-0.15875 0.0926,-0.20506 0.291042,-0.2712 0.429948,-0.2712 0.297656,0 0.449791,0.23151 0.449791,0.46963 0,0.25797 -0.185208,0.45641 -0.277812,0.56224 l -0.70776,0.70776 c -0.03307,0.0265 -0.03307,0.0331 -0.03307,0.11245 h 1.217083 z m 0,0"
         id="path18416" />
      <g
         style="fill:#000000;fill-opacity:1"
         id="g18422"
         transform="matrix(0.423333,0,0,0.423333,18.705851,178.9453)">
        <path
           inkscape:connector-curvature="0"
           style="stroke:none;stroke-width:0"
           d="M 3.71875,-3.765625 C 3.53125,-4.140625 3.25,-4.40625 2.796875,-4.40625 c -1.15625,0 -2.390625,1.46875 -2.390625,2.921875 0,0.9375 0.546875,1.59375 1.3125,1.59375 0.203125,0 0.703125,-0.046875 1.296875,-0.75 0.078125,0.421875 0.4375,0.75 0.90625,0.75 0.359375,0 0.578125,-0.234375 0.75,-0.546875 0.15625,-0.359375 0.296875,-0.96875 0.296875,-0.984375 0,-0.109375 -0.09375,-0.109375 -0.125,-0.109375 -0.09375,0 -0.109375,0.046875 -0.140625,0.1875 -0.171875,0.640625 -0.34375,1.234375 -0.75,1.234375 -0.28125,0 -0.296875,-0.265625 -0.296875,-0.453125 0,-0.21875 0.015625,-0.3125 0.125,-0.75 C 3.890625,-1.71875 3.90625,-1.828125 4,-2.203125 L 4.359375,-3.59375 c 0.0625,-0.28125 0.0625,-0.296875 0.0625,-0.34375 0,-0.171875 -0.109375,-0.265625 -0.28125,-0.265625 -0.25,0 -0.390625,0.21875 -0.421875,0.4375 z M 3.078125,-1.1875 C 3.015625,-1 3.015625,-0.984375 2.875,-0.8125 2.4375,-0.265625 2.03125,-0.109375 1.75,-0.109375 c -0.5,0 -0.640625,-0.546875 -0.640625,-0.9375 0,-0.5 0.3125,-1.71875 0.546875,-2.1875 0.3125,-0.578125 0.75,-0.953125 1.15625,-0.953125 0.640625,0 0.78125,0.8125 0.78125,0.875 0,0.0625 -0.015625,0.125 -0.03125,0.171875 z m 0,0"
           transform="translate(156.461,134.765)"
           id="path18418" />
        <path
           inkscape:connector-curvature="0"
           style="stroke:none;stroke-width:0"
           d="m 2.375,-6.8125 c 0,0 0,-0.109375 -0.125,-0.109375 -0.21875,0 -0.953125,0.078125 -1.21875,0.109375 -0.078125,0 -0.1875,0.015625 -0.1875,0.1875 0,0.125 0.09375,0.125 0.25,0.125 0.46875,0 0.484375,0.0625 0.484375,0.171875 0,0.0625 -0.078125,0.40625 -0.125,0.609375 l -0.828125,3.25 c -0.109375,0.5 -0.15625,0.671875 -0.15625,1.015625 0,0.9375 0.53125,1.5625 1.265625,1.5625 1.171875,0 2.40625,-1.484375 2.40625,-2.921875 0,-0.90625 -0.53125,-1.59375 -1.328125,-1.59375 -0.453125,0 -0.875,0.296875 -1.171875,0.59375 z M 1.453125,-3.046875 C 1.5,-3.265625 1.5,-3.28125 1.59375,-3.390625 2.078125,-4.03125 2.53125,-4.1875 2.796875,-4.1875 c 0.359375,0 0.625,0.296875 0.625,0.9375 0,0.59375 -0.328125,1.734375 -0.515625,2.109375 -0.328125,0.671875 -0.78125,1.03125 -1.171875,1.03125 -0.34375,0 -0.671875,-0.265625 -0.671875,-1 0,-0.203125 0,-0.390625 0.15625,-1.015625 z m 0,0"
           transform="translate(161.72723,134.765)"
           id="path18420" />
      </g>
      <rect
         style="color:#000000;clip-rule:nonzero;display:inline;overflow:visible;visibility:visible;opacity:1;isolation:auto;mix-blend-mode:normal;color-interpolation:sRGB;color-interpolation-filters:linearRGB;solid-color:#000000;solid-opacity:1;fill:none;fill-opacity:1;fill-rule:evenodd;stroke:#000000;stroke-width:0.26458335;stroke-linecap:butt;stroke-linejoin:round;stroke-miterlimit:4;stroke-dasharray:none;stroke-dashoffset:0;stroke-opacity:1;color-rendering:auto;image-rendering:auto;shape-rendering:auto;text-rendering:auto;enable-background:accumulate"
         id="rect18424"
         width="10.583333"
         height="8.2279024"
         x="72.055618"
         y="212.91946" />
      <rect
         y="212.91946"
         x="82.638947"
         height="8.2279024"
         width="8.6185627"
         id="rect18426"
         style="color:#000000;clip-rule:nonzero;display:inline;overflow:visible;visibility:visible;opacity:1;isolation:auto;mix-blend-mode:normal;color-interpolation:sRGB;color-interpolation-filters:linearRGB;solid-color:#000000;solid-opacity:1;fill:none;fill-opacity:1;fill-rule:evenodd;stroke:#000000;stroke-width:0.26458335;stroke-linecap:butt;stroke-linejoin:round;stroke-miterlimit:4;stroke-dasharray:none;stroke-dashoffset:0;stroke-opacity:1;color-rendering:auto;image-rendering:auto;shape-rendering:auto;text-rendering:auto;enable-background:accumulate" />
      <path
         id="path18428"
         d="m 86.290088,215.57455 c 0,0 0,-0.0463 -0.05292,-0.0463 -0.0926,0 -0.403489,0.0331 -0.515937,0.0463 -0.03307,0 -0.07937,0.007 -0.07937,0.0794 0,0.0529 0.03969,0.0529 0.105833,0.0529 0.198438,0 0.205052,0.0265 0.205052,0.0728 0,0.0265 -0.03307,0.17197 -0.05292,0.25796 l -0.350573,1.37584 c -0.0463,0.21166 -0.06615,0.28442 -0.06615,0.42994 0,0.39688 0.224896,0.66146 0.535781,0.66146 0.496094,0 1.018645,-0.62838 1.018645,-1.23692 0,-0.38365 -0.224895,-0.67469 -0.562239,-0.67469 -0.191823,0 -0.370416,0.12568 -0.496093,0.25135 z m -0.39026,1.59412 c 0.01984,-0.0926 0.01984,-0.0992 0.05953,-0.14552 0.205052,-0.2712 0.396875,-0.33735 0.509322,-0.33735 0.152136,0 0.264584,0.12568 0.264584,0.39688 0,0.25135 -0.138907,0.73422 -0.218281,0.89297 -0.138907,0.28442 -0.330729,0.43656 -0.496094,0.43656 -0.145521,0 -0.284427,-0.11245 -0.284427,-0.42334 0,-0.086 0,-0.16536 0.06615,-0.42994 z m 0,0"
         style="fill:#000000;fill-opacity:1;stroke:none;stroke-width:0"
         inkscape:connector-curvature="0" />
      <rect
         y="221.14737"
         x="91.257507"
         height="8.2279024"
         width="8.6185627"
         id="rect18430"
         style="color:#000000;clip-rule:nonzero;display:inline;overflow:visible;visibility:visible;opacity:1;isolation:auto;mix-blend-mode:normal;color-interpolation:sRGB;color-interpolation-filters:linearRGB;solid-color:#000000;solid-opacity:1;fill:none;fill-opacity:1;fill-rule:evenodd;stroke:#000000;stroke-width:0.26458335;stroke-linecap:butt;stroke-linejoin:round;stroke-miterlimit:4;stroke-dasharray:none;stroke-dashoffset:0;stroke-opacity:1;color-rendering:auto;image-rendering:auto;shape-rendering:auto;text-rendering:auto;enable-background:accumulate" />
      <rect
         style="color:#000000;clip-rule:nonzero;display:inline;overflow:visible;visibility:visible;opacity:1;isolation:auto;mix-blend-mode:normal;color-interpolation:sRGB;color-interpolation-filters:linearRGB;solid-color:#000000;solid-opacity:1;fill:none;fill-opacity:1;fill-rule:evenodd;stroke:#000000;stroke-width:0.26458332;stroke-linecap:butt;stroke-linejoin:round;stroke-miterlimit:4;stroke-dasharray:none;stroke-dashoffset:0;stroke-opacity:1;color-rendering:auto;image-rendering:auto;shape-rendering:auto;text-rendering:auto;enable-background:accumulate"
         id="rect18432"
         width="8.6185627"
         height="10.583317"
         x="91.257507"
         y="229.37527" />
      <rect
         style="color:#000000;clip-rule:nonzero;display:inline;overflow:visible;visibility:visible;opacity:1;isolation:auto;mix-blend-mode:normal;color-interpolation:sRGB;color-interpolation-filters:linearRGB;solid-color:#000000;solid-opacity:1;fill:none;fill-opacity:1;fill-rule:evenodd;stroke:#000000;stroke-width:0.26458335;stroke-linecap:butt;stroke-linejoin:round;stroke-miterlimit:4;stroke-dasharray:none;stroke-dashoffset:0;stroke-opacity:1;color-rendering:auto;image-rendering:auto;shape-rendering:auto;text-rendering:auto;enable-background:accumulate"
         id="rect18434"
         width="8.6185627"
         height="8.2279024"
         x="91.257507"
         y="212.91946" />
      <path
         id="path18436"
         d="m 95.250004,233.81366 c -0.0728,0 -0.12568,0 -0.18521,0.0529 -0.0728,0.0661 -0.0794,0.1389 -0.0794,0.16536 0,0.10584 0.0794,0.15214 0.15875,0.15214 0.11906,0 0.23151,-0.10583 0.23151,-0.2712 0,-0.20505 -0.19844,-0.3638 -0.49609,-0.3638 -0.568852,0 -1.131089,0.60193 -1.131089,1.19724 0,0.38364 0.244737,0.71437 0.687909,0.71437 0.60193,0 0.9525,-0.44979 0.9525,-0.49609 0,-0.0265 -0.0198,-0.0595 -0.0463,-0.0595 -0.0265,0 -0.0331,0.0132 -0.0595,0.0463 -0.33073,0.41672 -0.79375,0.41672 -0.84005,0.41672 -0.264582,0 -0.383642,-0.20505 -0.383642,-0.46302 0,-0.17198 0.086,-0.58209 0.23151,-0.84005 0.132282,-0.24474 0.363792,-0.42334 0.595302,-0.42334 0.13891,0 0.30427,0.0529 0.36381,0.17198 z m 0,0"
         style="fill:#000000;fill-opacity:1;stroke:none;stroke-width:0"
         inkscape:connector-curvature="0" />
      <path
         id="path18438"
         d="m 96.976114,233.82028 c -0.0794,-0.15875 -0.19844,-0.2712 -0.39026,-0.2712 -0.48948,0 -1.01203,0.62177 -1.01203,1.23693 0,0.39687 0.23151,0.67468 0.55563,0.67468 0.086,0 0.29765,-0.0198 0.54901,-0.3175 0.0331,0.1786 0.1852,0.3175 0.38364,0.3175 0.15214,0 0.24474,-0.0992 0.3175,-0.23151 0.0661,-0.15213 0.12568,-0.4101 0.12568,-0.41672 0,-0.0463 -0.0397,-0.0463 -0.0529,-0.0463 -0.0397,0 -0.0463,0.0198 -0.0595,0.0794 -0.0728,0.27119 -0.14552,0.52255 -0.3175,0.52255 -0.11906,0 -0.12568,-0.11245 -0.12568,-0.19182 0,-0.0926 0.007,-0.1323 0.0529,-0.3175 0.0463,-0.17198 0.0529,-0.21829 0.0926,-0.37704 l 0.15214,-0.58869 c 0.0265,-0.11907 0.0265,-0.12568 0.0265,-0.14552 0,-0.0728 -0.0463,-0.11245 -0.11907,-0.11245 -0.10583,0 -0.16536,0.0926 -0.17859,0.18521 z m -0.2712,1.0914 c -0.0265,0.0794 -0.0265,0.086 -0.086,0.15875 -0.1852,0.23151 -0.35718,0.29766 -0.47625,0.29766 -0.21166,0 -0.27119,-0.23151 -0.27119,-0.39688 0,-0.21166 0.13229,-0.7276 0.23151,-0.92604 0.13229,-0.24474 0.3175,-0.40349 0.48948,-0.40349 0.27119,0 0.33072,0.34396 0.33072,0.37042 0,0.0265 -0.007,0.0529 -0.0132,0.0728 z m 0,0"
         style="fill:#000000;fill-opacity:1;stroke:none;stroke-width:0"
         inkscape:connector-curvature="0" />
      <path
         id="path18440"
         d="m 95.323614,216.99034 c -0.0728,0 -0.12568,0 -0.18521,0.0529 -0.0728,0.0661 -0.0794,0.1389 -0.0794,0.16536 0,0.10584 0.0794,0.15214 0.15875,0.15214 0.11906,0 0.23151,-0.10583 0.23151,-0.2712 0,-0.20505 -0.19844,-0.3638 -0.49609,-0.3638 -0.568855,0 -1.131088,0.60193 -1.131088,1.19724 0,0.38364 0.244736,0.71437 0.687908,0.71437 0.60193,0 0.9525,-0.44979 0.9525,-0.49609 0,-0.0265 -0.0198,-0.0595 -0.0463,-0.0595 -0.0265,0 -0.0331,0.0132 -0.0595,0.0463 -0.33073,0.41672 -0.79375,0.41672 -0.84005,0.41672 -0.264572,0 -0.383642,-0.20505 -0.383642,-0.46302 0,-0.17198 0.086,-0.58209 0.231507,-0.84005 0.132285,-0.24474 0.363795,-0.42334 0.595305,-0.42334 0.13891,0 0.30428,0.0529 0.36381,0.17198 z m 0,0"
         style="fill:#000000;fill-opacity:1;stroke:none;stroke-width:0"
         inkscape:connector-curvature="0" />
      <g
         transform="matrix(0.423333,0,0,0.423333,26.640734,161.5406)"
         style="fill:#000000;fill-opacity:1"
         id="g18444">
        <path
           inkscape:connector-curvature="0"
           style="stroke:none;stroke-width:0"
           d="M 3.515625,-1.265625 H 3.28125 c -0.015625,0.15625 -0.09375,0.5625 -0.1875,0.625 C 3.046875,-0.59375 2.515625,-0.59375 2.40625,-0.59375 H 1.125 c 0.734375,-0.640625 0.984375,-0.84375 1.390625,-1.171875 0.515625,-0.40625 1,-0.84375 1,-1.5 0,-0.84375 -0.734375,-1.359375 -1.625,-1.359375 -0.859375,0 -1.453125,0.609375 -1.453125,1.25 0,0.34375 0.296875,0.390625 0.375,0.390625 0.15625,0 0.359375,-0.125 0.359375,-0.375 0,-0.125 -0.046875,-0.375 -0.40625,-0.375 C 0.984375,-4.21875 1.453125,-4.375 1.78125,-4.375 c 0.703125,0 1.0625,0.546875 1.0625,1.109375 0,0.609375 -0.4375,1.078125 -0.65625,1.328125 L 0.515625,-0.265625 C 0.4375,-0.203125 0.4375,-0.1875 0.4375,0 h 2.875 z m 0,0"
           transform="translate(162.601,131.15)"
           id="path18442" />
      </g>
      <path
         id="path18446"
         d="m 88.764685,216.86192 c -0.07276,0 -0.125677,0 -0.185208,0.0529 -0.07276,0.0661 -0.07937,0.1389 -0.07937,0.16536 0,0.10584 0.07937,0.15214 0.15875,0.15214 0.119062,0 0.23151,-0.10583 0.23151,-0.2712 0,-0.20505 -0.198437,-0.3638 -0.496093,-0.3638 -0.568854,0 -1.131093,0.60193 -1.131093,1.19724 0,0.38364 0.244739,0.71437 0.687916,0.71437 0.601927,0 0.952499,-0.44979 0.952499,-0.49609 0,-0.0265 -0.01984,-0.0595 -0.0463,-0.0595 -0.02646,0 -0.03307,0.0132 -0.05953,0.0463 -0.330729,0.41672 -0.793749,0.41672 -0.840051,0.41672 -0.264583,0 -0.383646,-0.20505 -0.383646,-0.46302 0,-0.17198 0.08599,-0.58209 0.23151,-0.84005 0.132292,-0.24474 0.363802,-0.42334 0.595312,-0.42334 0.138907,0 0.304271,0.0529 0.363802,0.17198 z m 0,0"
         style="fill:#000000;fill-opacity:1;stroke:none;stroke-width:0"
         inkscape:connector-curvature="0" />
      <path
         inkscape:connector-curvature="0"
         style="fill:#000000;fill-opacity:1;stroke:none;stroke-width:0"
         d="m 77.179169,216.56009 c -0.07276,0 -0.125677,0 -0.185208,0.0529 -0.07276,0.0661 -0.07937,0.1389 -0.07937,0.16536 0,0.10584 0.07937,0.15214 0.15875,0.15214 0.119062,0 0.23151,-0.10583 0.23151,-0.2712 0,-0.20505 -0.198437,-0.3638 -0.496093,-0.3638 -0.568854,0 -1.131093,0.60193 -1.131093,1.19724 0,0.38364 0.244739,0.71437 0.687916,0.71437 0.601927,0 0.952499,-0.44979 0.952499,-0.49609 0,-0.0265 -0.01984,-0.0595 -0.0463,-0.0595 -0.02646,0 -0.03307,0.0132 -0.05953,0.0463 -0.330729,0.41672 -0.793749,0.41672 -0.840051,0.41672 -0.264583,0 -0.383646,-0.20505 -0.383646,-0.46302 0,-0.17198 0.08599,-0.58209 0.23151,-0.84005 0.132292,-0.24474 0.363802,-0.42334 0.595312,-0.42334 0.138907,0 0.304271,0.0529 0.363802,0.17198 z m 0,0"
         id="path18448" />
      <path
         inkscape:connector-curvature="0"
         style="fill:#000000;fill-opacity:1;stroke:none;stroke-width:0"
         d="m 78.905283,216.56671 c -0.07937,-0.15875 -0.198438,-0.2712 -0.390261,-0.2712 -0.489478,0 -1.01203,0.62177 -1.01203,1.23693 0,0.39687 0.23151,0.67468 0.555625,0.67468 0.08599,0 0.297656,-0.0198 0.54901,-0.3175 0.03307,0.1786 0.185208,0.3175 0.383645,0.3175 0.152135,0 0.244739,-0.0992 0.3175,-0.23151 0.06615,-0.15213 0.125677,-0.4101 0.125677,-0.41672 0,-0.0463 -0.03969,-0.0463 -0.05292,-0.0463 -0.03969,0 -0.0463,0.0198 -0.05953,0.0794 -0.07276,0.27119 -0.145521,0.52255 -0.3175,0.52255 -0.119062,0 -0.125677,-0.11245 -0.125677,-0.19182 0,-0.0926 0.0066,-0.1323 0.05292,-0.3175 0.0463,-0.17198 0.05292,-0.21829 0.0926,-0.37704 l 0.152135,-0.58869 c 0.02646,-0.11907 0.02646,-0.12568 0.02646,-0.14552 0,-0.0728 -0.0463,-0.11245 -0.119063,-0.11245 -0.105833,0 -0.165364,0.0926 -0.178593,0.18521 z m -0.271198,1.0914 c -0.02646,0.0794 -0.02646,0.086 -0.08599,0.15875 -0.185208,0.23151 -0.357187,0.29766 -0.476249,0.29766 -0.211667,0 -0.271198,-0.23151 -0.271198,-0.39688 0,-0.21166 0.132292,-0.7276 0.23151,-0.92604 0.132292,-0.24474 0.3175,-0.40349 0.489479,-0.40349 0.271198,0 0.330729,0.34396 0.330729,0.37042 0,0.0265 -0.0066,0.0529 -0.01323,0.0728 z m 0,0"
         id="path18450" />
      <g
         transform="matrix(0.423333,0,0,0.423333,9.4434104,169.41043)"
         id="g18456"
         style="fill:#000000;fill-opacity:1">
        <path
           id="path18452"
           transform="translate(156.461,134.765)"
           d="M 3.71875,-3.765625 C 3.53125,-4.140625 3.25,-4.40625 2.796875,-4.40625 c -1.15625,0 -2.390625,1.46875 -2.390625,2.921875 0,0.9375 0.546875,1.59375 1.3125,1.59375 0.203125,0 0.703125,-0.046875 1.296875,-0.75 0.078125,0.421875 0.4375,0.75 0.90625,0.75 0.359375,0 0.578125,-0.234375 0.75,-0.546875 0.15625,-0.359375 0.296875,-0.96875 0.296875,-0.984375 0,-0.109375 -0.09375,-0.109375 -0.125,-0.109375 -0.09375,0 -0.109375,0.046875 -0.140625,0.1875 -0.171875,0.640625 -0.34375,1.234375 -0.75,1.234375 -0.28125,0 -0.296875,-0.265625 -0.296875,-0.453125 0,-0.21875 0.015625,-0.3125 0.125,-0.75 C 3.890625,-1.71875 3.90625,-1.828125 4,-2.203125 L 4.359375,-3.59375 c 0.0625,-0.28125 0.0625,-0.296875 0.0625,-0.34375 0,-0.171875 -0.109375,-0.265625 -0.28125,-0.265625 -0.25,0 -0.390625,0.21875 -0.421875,0.4375 z M 3.078125,-1.1875 C 3.015625,-1 3.015625,-0.984375 2.875,-0.8125 2.4375,-0.265625 2.03125,-0.109375 1.75,-0.109375 c -0.5,0 -0.640625,-0.546875 -0.640625,-0.9375 0,-0.5 0.3125,-1.71875 0.546875,-2.1875 0.3125,-0.578125 0.75,-0.953125 1.15625,-0.953125 0.640625,0 0.78125,0.8125 0.78125,0.875 0,0.0625 -0.015625,0.125 -0.03125,0.171875 z m 0,0"
           style="stroke:none;stroke-width:0"
           inkscape:connector-curvature="0" />
        <path
           id="path18454"
           transform="translate(161.72723,134.765)"
           d="m 2.375,-6.8125 c 0,0 0,-0.109375 -0.125,-0.109375 -0.21875,0 -0.953125,0.078125 -1.21875,0.109375 -0.078125,0 -0.1875,0.015625 -0.1875,0.1875 0,0.125 0.09375,0.125 0.25,0.125 0.46875,0 0.484375,0.0625 0.484375,0.171875 0,0.0625 -0.078125,0.40625 -0.125,0.609375 l -0.828125,3.25 c -0.109375,0.5 -0.15625,0.671875 -0.15625,1.015625 0,0.9375 0.53125,1.5625 1.265625,1.5625 1.171875,0 2.40625,-1.484375 2.40625,-2.921875 0,-0.90625 -0.53125,-1.59375 -1.328125,-1.59375 -0.453125,0 -0.875,0.296875 -1.171875,0.59375 z M 1.453125,-3.046875 C 1.5,-3.265625 1.5,-3.28125 1.59375,-3.390625 2.078125,-4.03125 2.53125,-4.1875 2.796875,-4.1875 c 0.359375,0 0.625,0.296875 0.625,0.9375 0,0.59375 -0.328125,1.734375 -0.515625,2.109375 -0.328125,0.671875 -0.78125,1.03125 -1.171875,1.03125 -0.34375,0 -0.671875,-0.265625 -0.671875,-1 0,-0.203125 0,-0.390625 0.15625,-1.015625 z m 0,0"
           style="stroke:none;stroke-width:0"
           inkscape:connector-curvature="0" />
      </g>
      <path
         inkscape:connector-curvature="0"
         style="fill:#000000;fill-opacity:1;stroke:none;stroke-width:0"
         d="m 95.098484,223.74729 c 0,0 0,-0.0463 -0.0529,-0.0463 -0.0926,0 -0.40349,0.0331 -0.51594,0.0463 -0.0331,0 -0.0794,0.007 -0.0794,0.0794 0,0.0529 0.0397,0.0529 0.10583,0.0529 0.19844,0 0.20505,0.0265 0.20505,0.0728 0,0.0265 -0.0331,0.17197 -0.0529,0.25796 l -0.350565,1.37584 c -0.0463,0.21166 -0.0661,0.28442 -0.0661,0.42994 0,0.39688 0.224895,0.66146 0.535775,0.66146 0.4961,0 1.01865,-0.62838 1.01865,-1.23692 0,-0.38365 -0.2249,-0.67469 -0.56224,-0.67469 -0.19182,0 -0.37042,0.12568 -0.49609,0.25135 z m -0.39026,1.59412 c 0.0198,-0.0926 0.0198,-0.0992 0.0595,-0.14552 0.20505,-0.2712 0.39687,-0.33735 0.50932,-0.33735 0.15213,0 0.26458,0.12568 0.26458,0.39688 0,0.25135 -0.1389,0.73422 -0.21828,0.89297 -0.13891,0.28442 -0.33073,0.43656 -0.49609,0.43656 -0.14552,0 -0.28443,-0.11245 -0.28443,-0.42334 0,-0.086 0,-0.16536 0.0661,-0.42994 z m 0,0"
         id="path18458" />
      <path
         inkscape:connector-curvature="0"
         style="fill:#000000;fill-opacity:1;stroke:none;stroke-width:0"
         d="m 97.573074,225.03466 c -0.0728,0 -0.12567,0 -0.1852,0.0529 -0.0728,0.0661 -0.0794,0.1389 -0.0794,0.16536 0,0.10584 0.0794,0.15214 0.15875,0.15214 0.11906,0 0.23151,-0.10583 0.23151,-0.2712 0,-0.20505 -0.19844,-0.3638 -0.4961,-0.3638 -0.56885,0 -1.13109,0.60193 -1.13109,1.19724 0,0.38364 0.24474,0.71437 0.68792,0.71437 0.60192,0 0.95249,-0.44979 0.95249,-0.49609 0,-0.0265 -0.0198,-0.0595 -0.0463,-0.0595 -0.0265,0 -0.0331,0.0132 -0.0595,0.0463 -0.33072,0.41672 -0.79374,0.41672 -0.84005,0.41672 -0.26458,0 -0.38364,-0.20505 -0.38364,-0.46302 0,-0.17198 0.086,-0.58209 0.23151,-0.84005 0.13229,-0.24474 0.3638,-0.42334 0.59531,-0.42334 0.13891,0 0.30427,0.0529 0.3638,0.17198 z m 0,0"
         id="path18460" />
      <path
         id="path18654"
         d="m 70.300001,216.47249 c -0.07276,0 -0.125677,0 -0.185208,0.0529 -0.07276,0.0661 -0.07937,0.1389 -0.07937,0.16536 0,0.10584 0.07937,0.15214 0.15875,0.15214 0.119062,0 0.23151,-0.10583 0.23151,-0.2712 0,-0.20505 -0.198437,-0.3638 -0.496093,-0.3638 -0.568854,0 -1.131093,0.60193 -1.131093,1.19724 0,0.38364 0.244739,0.71437 0.687916,0.71437 0.601927,0 0.952499,-0.44979 0.952499,-0.49609 0,-0.0265 -0.01984,-0.0595 -0.0463,-0.0595 -0.02646,0 -0.03307,0.0132 -0.05953,0.0463 -0.330729,0.41672 -0.793749,0.41672 -0.840051,0.41672 -0.264583,0 -0.383646,-0.20505 -0.383646,-0.46302 0,-0.17198 0.08599,-0.58209 0.23151,-0.84005 0.132292,-0.24474 0.363802,-0.42334 0.595312,-0.42334 0.138907,0 0.304271,0.0529 0.363802,0.17198 z m 0,0"
         style="fill:#000000;fill-opacity:1;stroke:none;stroke-width:0"
         inkscape:connector-curvature="0" />
      <path
         inkscape:connector-curvature="0"
         style="fill:#000000;fill-opacity:1;stroke:none;stroke-width:0"
         d="m 96.394524,241.15756 c -0.0728,0 -0.12568,0 -0.18521,0.0529 -0.0728,0.0661 -0.0794,0.1389 -0.0794,0.16536 0,0.10584 0.0794,0.15214 0.15875,0.15214 0.11906,0 0.23151,-0.10583 0.23151,-0.2712 0,-0.20505 -0.19843,-0.3638 -0.49609,-0.3638 -0.56885,0 -1.13109,0.60193 -1.13109,1.19724 0,0.38364 0.24474,0.71437 0.68791,0.71437 0.60193,0 0.9525,-0.44979 0.9525,-0.49609 0,-0.0265 -0.0198,-0.0595 -0.0463,-0.0595 -0.0265,0 -0.0331,0.0132 -0.0595,0.0463 -0.33073,0.41672 -0.79375,0.41672 -0.84005,0.41672 -0.26458,0 -0.38365,-0.20505 -0.38365,-0.46302 0,-0.17198 0.086,-0.58209 0.23151,-0.84005 0.1323,-0.24474 0.36381,-0.42334 0.59532,-0.42334 0.1389,0 0.30427,0.0529 0.3638,0.17198 z m 0,0"
         id="path18656" />
      <g
         id="g18866"
         transform="rotate(-90,33.446765,194.70415)">
        <path
           id="path18840"
           d="m -4.2040084,224.93827 c 0,-0.0132 0,-0.0198 -0.07276,-0.0926 -0.5225521,-0.52917 -0.6614581,-1.32953 -0.6614581,-1.97776 0,-0.73422 0.15875,-1.46844 0.6813011,-1.99099 0.05292,-0.0529 0.05292,-0.0595 0.05292,-0.0728 0,-0.0331 -0.01323,-0.0463 -0.03969,-0.0463 -0.0463,0 -0.4233331,0.29104 -0.6746871,0.82682 -0.211667,0.46302 -0.264584,0.93265 -0.264584,1.28323 0,0.33073 0.0463,0.84005 0.277813,1.32291 0.257968,0.51594 0.6151551,0.79375 0.6614581,0.79375 0.02646,0 0.03969,-0.0132 0.03969,-0.0463 z m 0,0"
           style="fill:#000000;fill-opacity:1;stroke:none;stroke-width:0"
           inkscape:connector-curvature="0" />
        <path
           id="path18842"
           d="m -2.3849994,222.33213 c -0.07937,-0.15875 -0.198438,-0.2712 -0.390261,-0.2712 -0.489478,0 -1.01203,0.62177 -1.01203,1.23693 0,0.39687 0.23151,0.67468 0.555625,0.67468 0.08599,0 0.297656,-0.0198 0.54901,-0.3175 0.03307,0.1786 0.185208,0.3175 0.383645,0.3175 0.152135,0 0.24474,-0.0992 0.3175,-0.23151 0.06615,-0.15213 0.125677,-0.4101 0.125677,-0.41672 0,-0.0463 -0.03969,-0.0463 -0.05292,-0.0463 -0.03969,0 -0.0463,0.0198 -0.05953,0.0794 -0.07276,0.27119 -0.145521,0.52255 -0.3175,0.52255 -0.119062,0 -0.125677,-0.11245 -0.125677,-0.19182 0,-0.0926 0.0066,-0.1323 0.05292,-0.3175 0.0463,-0.17198 0.05292,-0.21829 0.0926,-0.37704 l 0.152135,-0.58869 c 0.02646,-0.11907 0.02646,-0.12568 0.02646,-0.14552 0,-0.0728 -0.0463,-0.11245 -0.119063,-0.11245 -0.105833,0 -0.165364,0.0926 -0.178593,0.18521 z m -0.271198,1.0914 c -0.02646,0.0794 -0.02646,0.086 -0.08599,0.15875 -0.185208,0.23151 -0.357187,0.29766 -0.476249,0.29766 -0.211667,0 -0.271198,-0.23151 -0.271198,-0.39688 0,-0.21166 0.132292,-0.7276 0.23151,-0.92604 0.132292,-0.24474 0.3175,-0.40349 0.489479,-0.40349 0.271198,0 0.330729,0.34396 0.330729,0.37042 0,0.0265 -0.0066,0.0529 -0.01323,0.0728 z m 0,0"
           style="fill:#000000;fill-opacity:1;stroke:none;stroke-width:0"
           inkscape:connector-curvature="0" />
        <path
           id="path18844"
           d="m 3.0629616,221.04228 c 0,0 0,-0.0463 -0.05292,-0.0463 -0.0926,0 -0.403489,0.0331 -0.515937,0.0463 -0.03307,0 -0.07937,0.007 -0.07937,0.0794 0,0.0529 0.03969,0.0529 0.105833,0.0529 0.198438,0 0.205052,0.0265 0.205052,0.0728 0,0.0265 -0.03307,0.17197 -0.05292,0.25796 l -0.350573,1.37584 c -0.0463,0.21166 -0.06615,0.28442 -0.06615,0.42994 0,0.39688 0.224896,0.66146 0.535781,0.66146 0.496094,0 1.018645,-0.62838 1.018645,-1.23692 0,-0.38365 -0.224895,-0.67469 -0.562239,-0.67469 -0.191823,0 -0.370416,0.12568 -0.496093,0.25135 z m -0.39026,1.59412 c 0.01984,-0.0926 0.01984,-0.0992 0.05953,-0.14552 0.205052,-0.2712 0.396875,-0.33735 0.509322,-0.33735 0.152136,0 0.264584,0.12568 0.264584,0.39688 0,0.25135 -0.138907,0.73422 -0.218281,0.89297 -0.138907,0.28442 -0.330729,0.43656 -0.496094,0.43656 -0.145521,0 -0.284427,-0.11245 -0.284427,-0.42334 0,-0.086 0,-0.16536 0.06615,-0.42994 z m 0,0"
           style="fill:#000000;fill-opacity:1;stroke:none;stroke-width:0"
           inkscape:connector-curvature="0" />
        <path
           id="path18846"
           d="m 10.263757,222.86791 c 0,-0.32412 -0.0463,-0.83344 -0.2778124,-1.3163 -0.251354,-0.51594 -0.615156,-0.79375 -0.654843,-0.79375 -0.02646,0 -0.0463,0.0198 -0.0463,0.0463 0,0.0132 0,0.0198 0.07937,0.0992 0.416718,0.41672 0.6548434,1.08479 0.6548434,1.96453 0,0.7276 -0.1521354,1.46843 -0.6746874,1.9976 -0.05953,0.0529 -0.05953,0.0595 -0.05953,0.0728 0,0.0265 0.01984,0.0463 0.0463,0.0463 0.03969,0 0.423333,-0.29104 0.668072,-0.82682 0.2182814,-0.46302 0.2645834,-0.93266 0.2645834,-1.28984 z m 0,0"
           style="fill:#000000;fill-opacity:1;stroke:none;stroke-width:0"
           inkscape:connector-curvature="0" />
        <g
           style="fill:#000000;fill-opacity:1"
           id="g18850"
           transform="matrix(0.423333,0,0,0.423333,-64.477165,166.84611)">
          <path
             inkscape:connector-curvature="0"
             style="stroke:none;stroke-width:0"
             d="m 6.5625,-2.296875 c 0.171875,0 0.359375,0 0.359375,-0.203125 0,-0.1875 -0.1875,-0.1875 -0.359375,-0.1875 H 1.171875 c -0.171875,0 -0.34375,0 -0.34375,0.1875 0,0.203125 0.171875,0.203125 0.34375,0.203125 z m 0,0"
             transform="translate(148.712,134.765)"
             id="path18848" />
        </g>
        <g
           transform="matrix(0,0.423333,-0.423333,0,56.113394,158.24644)"
           id="g18854"
           style="fill:#000000;fill-opacity:1">
          <path
             id="path18852"
             transform="translate(148.712,134.765)"
             d="m 6.5625,-2.296875 c 0.171875,0 0.359375,0 0.359375,-0.203125 0,-0.1875 -0.1875,-0.1875 -0.359375,-0.1875 H 1.171875 c -0.171875,0 -0.34375,0 -0.34375,0.1875 0,0.203125 0.171875,0.203125 0.34375,0.203125 z m 0,0"
             style="stroke:none;stroke-width:0"
             inkscape:connector-curvature="0" />
        </g>
        <g
           transform="matrix(0.423333,0,0,0.423333,-58.716235,166.84611)"
           id="g18858"
           style="fill:#000000;fill-opacity:1">
          <path
             id="path18856"
             transform="translate(148.712,134.765)"
             d="m 6.5625,-2.296875 c 0.171875,0 0.359375,0 0.359375,-0.203125 0,-0.1875 -0.1875,-0.1875 -0.359375,-0.1875 H 1.171875 c -0.171875,0 -0.34375,0 -0.34375,0.1875 0,0.203125 0.171875,0.203125 0.34375,0.203125 z m 0,0"
             style="stroke:none;stroke-width:0"
             inkscape:connector-curvature="0" />
        </g>
        <g
           style="fill:#000000;fill-opacity:1"
           id="g18862"
           transform="matrix(0,0.423333,-0.423333,0,61.874324,158.24644)">
          <path
             inkscape:connector-curvature="0"
             style="stroke:none;stroke-width:0"
             d="m 6.5625,-2.296875 c 0.171875,0 0.359375,0 0.359375,-0.203125 0,-0.1875 -0.1875,-0.1875 -0.359375,-0.1875 H 1.171875 c -0.171875,0 -0.34375,0 -0.34375,0.1875 0,0.203125 0.171875,0.203125 0.34375,0.203125 z m 0,0"
             transform="translate(148.712,134.765)"
             id="path18860" />
        </g>
        <path
           inkscape:connector-curvature="0"
           style="fill:#000000;fill-opacity:1;stroke:none;stroke-width:0"
           d="m 9.1166586,222.07835 c -0.07276,0 -0.125677,0 -0.185208,0.0529 -0.07276,0.0661 -0.07937,0.1389 -0.07937,0.16536 0,0.10584 0.07937,0.15214 0.15875,0.15214 0.119062,0 0.23151,-0.10583 0.23151,-0.2712 0,-0.20505 -0.198437,-0.3638 -0.496093,-0.3638 -0.568854,0 -1.131093,0.60193 -1.131093,1.19724 0,0.38364 0.244739,0.71437 0.687916,0.71437 0.601927,0 0.952499,-0.44979 0.952499,-0.49609 0,-0.0265 -0.01984,-0.0595 -0.0463,-0.0595 -0.02646,0 -0.03307,0.0132 -0.05953,0.0463 -0.330729,0.41672 -0.793749,0.41672 -0.840051,0.41672 -0.264583,0 -0.383646,-0.20505 -0.383646,-0.46302 0,-0.17198 0.08599,-0.58209 0.23151,-0.84005 0.132292,-0.24474 0.363802,-0.42334 0.595312,-0.42334 0.138907,0 0.304271,0.0529 0.363802,0.17198 z m 0,0"
           id="path18864" />
      </g>
      <g
         transform="translate(83.620359,26.392435)"
         id="g20206">
        <path
           inkscape:connector-curvature="0"
           style="fill:#000000;fill-opacity:1;stroke:none;stroke-width:0"
           d="m -4.2040084,224.93827 c 0,-0.0132 0,-0.0198 -0.07276,-0.0926 -0.5225521,-0.52917 -0.6614581,-1.32953 -0.6614581,-1.97776 0,-0.73422 0.15875,-1.46844 0.6813011,-1.99099 0.05292,-0.0529 0.05292,-0.0595 0.05292,-0.0728 0,-0.0331 -0.01323,-0.0463 -0.03969,-0.0463 -0.0463,0 -0.4233331,0.29104 -0.6746871,0.82682 -0.211667,0.46302 -0.264584,0.93265 -0.264584,1.28323 0,0.33073 0.0463,0.84005 0.277813,1.32291 0.257968,0.51594 0.6151551,0.79375 0.6614581,0.79375 0.02646,0 0.03969,-0.0132 0.03969,-0.0463 z m 0,0"
           id="path20180" />
        <path
           inkscape:connector-curvature="0"
           style="fill:#000000;fill-opacity:1;stroke:none;stroke-width:0"
           d="m -2.3849994,222.33213 c -0.07937,-0.15875 -0.198438,-0.2712 -0.390261,-0.2712 -0.489478,0 -1.01203,0.62177 -1.01203,1.23693 0,0.39687 0.23151,0.67468 0.555625,0.67468 0.08599,0 0.297656,-0.0198 0.54901,-0.3175 0.03307,0.1786 0.185208,0.3175 0.383645,0.3175 0.152135,0 0.24474,-0.0992 0.3175,-0.23151 0.06615,-0.15213 0.125677,-0.4101 0.125677,-0.41672 0,-0.0463 -0.03969,-0.0463 -0.05292,-0.0463 -0.03969,0 -0.0463,0.0198 -0.05953,0.0794 -0.07276,0.27119 -0.145521,0.52255 -0.3175,0.52255 -0.119062,0 -0.125677,-0.11245 -0.125677,-0.19182 0,-0.0926 0.0066,-0.1323 0.05292,-0.3175 0.0463,-0.17198 0.05292,-0.21829 0.0926,-0.37704 l 0.152135,-0.58869 c 0.02646,-0.11907 0.02646,-0.12568 0.02646,-0.14552 0,-0.0728 -0.0463,-0.11245 -0.119063,-0.11245 -0.105833,0 -0.165364,0.0926 -0.178593,0.18521 z m -0.271198,1.0914 c -0.02646,0.0794 -0.02646,0.086 -0.08599,0.15875 -0.185208,0.23151 -0.357187,0.29766 -0.476249,0.29766 -0.211667,0 -0.271198,-0.23151 -0.271198,-0.39688 0,-0.21166 0.132292,-0.7276 0.23151,-0.92604 0.132292,-0.24474 0.3175,-0.40349 0.489479,-0.40349 0.271198,0 0.330729,0.34396 0.330729,0.37042 0,0.0265 -0.0066,0.0529 -0.01323,0.0728 z m 0,0"
           id="path20182" />
        <path
           inkscape:connector-curvature="0"
           style="fill:#000000;fill-opacity:1;stroke:none;stroke-width:0"
           d="m 3.0629616,221.04228 c 0,0 0,-0.0463 -0.05292,-0.0463 -0.0926,0 -0.403489,0.0331 -0.515937,0.0463 -0.03307,0 -0.07937,0.007 -0.07937,0.0794 0,0.0529 0.03969,0.0529 0.105833,0.0529 0.198438,0 0.205052,0.0265 0.205052,0.0728 0,0.0265 -0.03307,0.17197 -0.05292,0.25796 l -0.350573,1.37584 c -0.0463,0.21166 -0.06615,0.28442 -0.06615,0.42994 0,0.39688 0.224896,0.66146 0.535781,0.66146 0.496094,0 1.018645,-0.62838 1.018645,-1.23692 0,-0.38365 -0.224895,-0.67469 -0.562239,-0.67469 -0.191823,0 -0.370416,0.12568 -0.496093,0.25135 z m -0.39026,1.59412 c 0.01984,-0.0926 0.01984,-0.0992 0.05953,-0.14552 0.205052,-0.2712 0.396875,-0.33735 0.509322,-0.33735 0.152136,0 0.264584,0.12568 0.264584,0.39688 0,0.25135 -0.138907,0.73422 -0.218281,0.89297 -0.138907,0.28442 -0.330729,0.43656 -0.496094,0.43656 -0.145521,0 -0.284427,-0.11245 -0.284427,-0.42334 0,-0.086 0,-0.16536 0.06615,-0.42994 z m 0,0"
           id="path20184" />
        <path
           inkscape:connector-curvature="0"
           style="fill:#000000;fill-opacity:1;stroke:none;stroke-width:0"
           d="m 10.263757,222.86791 c 0,-0.32412 -0.0463,-0.83344 -0.2778124,-1.3163 -0.251354,-0.51594 -0.615156,-0.79375 -0.654843,-0.79375 -0.02646,0 -0.0463,0.0198 -0.0463,0.0463 0,0.0132 0,0.0198 0.07937,0.0992 0.416718,0.41672 0.6548434,1.08479 0.6548434,1.96453 0,0.7276 -0.1521354,1.46843 -0.6746874,1.9976 -0.05953,0.0529 -0.05953,0.0595 -0.05953,0.0728 0,0.0265 0.01984,0.0463 0.0463,0.0463 0.03969,0 0.423333,-0.29104 0.668072,-0.82682 0.2182814,-0.46302 0.2645834,-0.93266 0.2645834,-1.28984 z m 0,0"
           id="path20186" />
        <g
           transform="matrix(0.423333,0,0,0.423333,-64.477165,166.84611)"
           id="g20190"
           style="fill:#000000;fill-opacity:1">
          <path
             id="path20188"
             transform="translate(148.712,134.765)"
             d="m 6.5625,-2.296875 c 0.171875,0 0.359375,0 0.359375,-0.203125 0,-0.1875 -0.1875,-0.1875 -0.359375,-0.1875 H 1.171875 c -0.171875,0 -0.34375,0 -0.34375,0.1875 0,0.203125 0.171875,0.203125 0.34375,0.203125 z m 0,0"
             style="stroke:none;stroke-width:0"
             inkscape:connector-curvature="0" />
        </g>
        <g
           style="fill:#000000;fill-opacity:1"
           id="g20194"
           transform="matrix(0,0.423333,-0.423333,0,56.113394,158.24644)">
          <path
             inkscape:connector-curvature="0"
             style="stroke:none;stroke-width:0"
             d="m 6.5625,-2.296875 c 0.171875,0 0.359375,0 0.359375,-0.203125 0,-0.1875 -0.1875,-0.1875 -0.359375,-0.1875 H 1.171875 c -0.171875,0 -0.34375,0 -0.34375,0.1875 0,0.203125 0.171875,0.203125 0.34375,0.203125 z m 0,0"
             transform="translate(148.712,134.765)"
             id="path20192" />
        </g>
        <g
           style="fill:#000000;fill-opacity:1"
           id="g20198"
           transform="matrix(0.423333,0,0,0.423333,-58.716235,166.84611)">
          <path
             inkscape:connector-curvature="0"
             style="stroke:none;stroke-width:0"
             d="m 6.5625,-2.296875 c 0.171875,0 0.359375,0 0.359375,-0.203125 0,-0.1875 -0.1875,-0.1875 -0.359375,-0.1875 H 1.171875 c -0.171875,0 -0.34375,0 -0.34375,0.1875 0,0.203125 0.171875,0.203125 0.34375,0.203125 z m 0,0"
             transform="translate(148.712,134.765)"
             id="path20196" />
        </g>
        <g
           transform="matrix(0,0.423333,-0.423333,0,61.874324,158.24644)"
           id="g20202"
           style="fill:#000000;fill-opacity:1">
          <path
             id="path20200"
             transform="translate(148.712,134.765)"
             d="m 6.5625,-2.296875 c 0.171875,0 0.359375,0 0.359375,-0.203125 0,-0.1875 -0.1875,-0.1875 -0.359375,-0.1875 H 1.171875 c -0.171875,0 -0.34375,0 -0.34375,0.1875 0,0.203125 0.171875,0.203125 0.34375,0.203125 z m 0,0"
             style="stroke:none;stroke-width:0"
             inkscape:connector-curvature="0" />
        </g>
        <path
           id="path20204"
           d="m 9.1166586,222.07835 c -0.07276,0 -0.125677,0 -0.185208,0.0529 -0.07276,0.0661 -0.07937,0.1389 -0.07937,0.16536 0,0.10584 0.07937,0.15214 0.15875,0.15214 0.119062,0 0.23151,-0.10583 0.23151,-0.2712 0,-0.20505 -0.198437,-0.3638 -0.496093,-0.3638 -0.568854,0 -1.131093,0.60193 -1.131093,1.19724 0,0.38364 0.244739,0.71437 0.687916,0.71437 0.601927,0 0.952499,-0.44979 0.952499,-0.49609 0,-0.0265 -0.01984,-0.0595 -0.0463,-0.0595 -0.02646,0 -0.03307,0.0132 -0.05953,0.0463 -0.330729,0.41672 -0.793749,0.41672 -0.840051,0.41672 -0.264583,0 -0.383646,-0.20505 -0.383646,-0.46302 0,-0.17198 0.08599,-0.58209 0.23151,-0.84005 0.132292,-0.24474 0.363802,-0.42334 0.595312,-0.42334 0.138907,0 0.304271,0.0529 0.363802,0.17198 z m 0,0"
           style="fill:#000000;fill-opacity:1;stroke:none;stroke-width:0"
           inkscape:connector-curvature="0" />
      </g>
    </g>
  </g>
</svg>
