<?xml version="1.0" encoding="UTF-8" standalone="no"?>
<!-- Created with Inkscape (http://www.inkscape.org/) -->

<svg
   xmlns:dc="http://purl.org/dc/elements/1.1/"
   xmlns:cc="http://creativecommons.org/ns#"
   xmlns:rdf="http://www.w3.org/1999/02/22-rdf-syntax-ns#"
   xmlns:svg="http://www.w3.org/2000/svg"
   xmlns="http://www.w3.org/2000/svg"
   xmlns:sodipodi="http://sodipodi.sourceforge.net/DTD/sodipodi-0.dtd"
   xmlns:inkscape="http://www.inkscape.org/namespaces/inkscape"
   width="10cm"
   height="10cm"
   viewBox="0 0 100 100"
   version="1.1"
   id="svg882"
   inkscape:version="0.92.4 (unknown)"
   sodipodi:docname="fig1-16b5.svg">
  <defs
     id="defs876">
    <marker
       inkscape:stockid="Arrow1Mend"
       orient="auto"
       refY="0.0"
       refX="0.0"
       id="marker18323"
       style="overflow:visible;"
       inkscape:isstock="true">
      <path
         id="path18321"
         d="M 0.0,0.0 L 5.0,-5.0 L -12.5,0.0 L 5.0,5.0 L 0.0,0.0 z "
         style="fill-rule:evenodd;stroke:#000000;stroke-width:1pt;stroke-opacity:1;fill:#000000;fill-opacity:1"
         transform="scale(0.4) rotate(180) translate(10,0)" />
    </marker>
    <marker
       inkscape:isstock="true"
       style="overflow:visible;"
       id="marker15998"
       refX="0.0"
       refY="0.0"
       orient="auto"
       inkscape:stockid="Arrow1Mend">
      <path
         transform="scale(0.4) rotate(180) translate(10,0)"
         style="fill-rule:evenodd;stroke:#000000;stroke-width:1pt;stroke-opacity:1;fill:#000000;fill-opacity:1"
         d="M 0.0,0.0 L 5.0,-5.0 L -12.5,0.0 L 5.0,5.0 L 0.0,0.0 z "
         id="path15996" />
    </marker>
    <marker
       inkscape:stockid="Arrow1Mend"
       orient="auto"
       refY="0.0"
       refX="0.0"
       id="marker11689"
       style="overflow:visible;"
       inkscape:isstock="true">
      <path
         id="path11687"
         d="M 0.0,0.0 L 5.0,-5.0 L -12.5,0.0 L 5.0,5.0 L 0.0,0.0 z "
         style="fill-rule:evenodd;stroke:#000000;stroke-width:1pt;stroke-opacity:1;fill:#000000;fill-opacity:1"
         transform="scale(0.4) rotate(180) translate(10,0)" />
    </marker>
  </defs>
  <sodipodi:namedview
     id="base"
     pagecolor="#ffffff"
     bordercolor="#666666"
     borderopacity="1.0"
     inkscape:pageopacity="0.0"
     inkscape:pageshadow="2"
     inkscape:zoom="1.4472708"
     inkscape:cx="188.97638"
     inkscape:cy="188.97638"
     inkscape:document-units="cm"
     inkscape:current-layer="layer1"
     showgrid="false"
     units="cm"
     inkscape:window-width="753"
     inkscape:window-height="716"
     inkscape:window-x="12"
     inkscape:window-y="24"
     inkscape:window-maximized="0"
     showguides="false"
     inkscape:guide-bbox="true">
    <inkscape:grid
       id="grid1452"
       type="xygrid" />
  </sodipodi:namedview>
  <metadata
     id="metadata879">
    <rdf:RDF>
      <cc:Work
         rdf:about="">
        <dc:format>image/svg+xml</dc:format>
        <dc:type
           rdf:resource="http://purl.org/dc/dcmitype/StillImage" />
        <dc:title></dc:title>
      </cc:Work>
    </rdf:RDF>
  </metadata>
  <g
     inkscape:label="Layer 1"
     inkscape:groupmode="layer"
     id="layer1"
     transform="translate(0,-197.00001)">
    <text
       xml:space="preserve"
       style="font-style:normal;font-variant:normal;font-weight:normal;font-stretch:normal;font-size:3.52777767px;line-height:125%;font-family:LMRoman12;-inkscape-font-specification:LMRoman12;text-align:center;letter-spacing:0px;word-spacing:0px;writing-mode:lr-tb;text-anchor:middle;fill:#000000;fill-opacity:1;stroke:none;stroke-width:0.26458332px;stroke-linecap:butt;stroke-linejoin:miter;stroke-opacity:1"
       x="29.006811"
       y="248.84845"
       id="text21735"><tspan
         sodipodi:role="line"
         id="tspan21733"
         x="29.006811"
         y="248.84845"
         style="stroke-width:0.26458332px">O</tspan></text>
    <path
       sodipodi:nodetypes="cc"
       inkscape:connector-curvature="0"
       id="path890"
       d="m 47.625,244.08334 -37.041667,0"
       style="color:#000000;clip-rule:nonzero;display:inline;overflow:visible;visibility:visible;opacity:1;isolation:auto;mix-blend-mode:normal;color-interpolation:sRGB;color-interpolation-filters:linearRGB;solid-color:#000000;solid-opacity:1;fill:none;fill-opacity:1;fill-rule:nonzero;stroke:#000000;stroke-width:0.25999999;stroke-linecap:round;stroke-linejoin:round;stroke-miterlimit:4;stroke-dasharray:1.03999999, 1.03999999;stroke-dashoffset:0;stroke-opacity:1;color-rendering:auto;image-rendering:auto;shape-rendering:auto;text-rendering:auto;enable-background:accumulate" />
    <path
       sodipodi:type="star"
       style="color:#000000;clip-rule:nonzero;display:inline;overflow:visible;visibility:visible;opacity:1;isolation:auto;mix-blend-mode:normal;color-interpolation:sRGB;color-interpolation-filters:linearRGB;solid-color:#000000;solid-opacity:1;fill:none;fill-opacity:1;fill-rule:nonzero;stroke:#000000;stroke-width:0.26458332;stroke-linecap:round;stroke-linejoin:round;stroke-miterlimit:4;stroke-dasharray:none;stroke-dashoffset:0;stroke-opacity:1;color-rendering:auto;image-rendering:auto;shape-rendering:auto;text-rendering:auto;enable-background:accumulate"
       id="path970"
       sodipodi:sides="6"
       sodipodi:cx="29.104166"
       sodipodi:cy="47.083336"
       sodipodi:r1="18.520832"
       sodipodi:r2="16.039513"
       sodipodi:arg1="0"
       sodipodi:arg2="0.52359878"
       inkscape:flatsided="true"
       inkscape:rounded="0"
       inkscape:randomized="2.08167e-17"
       d="m 47.624998,47.083336 -9.260416,16.039511 -18.520832,0 -9.260416,-16.039511 9.260416,-16.039511 18.520832,0 z"
       transform="translate(0,197.00001)" />
    <path
       style="color:#000000;clip-rule:nonzero;display:inline;overflow:visible;visibility:visible;opacity:1;isolation:auto;mix-blend-mode:normal;color-interpolation:sRGB;color-interpolation-filters:linearRGB;solid-color:#000000;solid-opacity:1;fill:none;fill-opacity:1;fill-rule:nonzero;stroke:#000000;stroke-width:0.25999999;stroke-linecap:round;stroke-linejoin:round;stroke-miterlimit:4;stroke-dasharray:1.03999999, 1.03999999;stroke-dashoffset:0;stroke-opacity:1;color-rendering:auto;image-rendering:auto;shape-rendering:auto;text-rendering:auto;enable-background:accumulate"
       d="M 38.364588,228.04383 19.843745,260.12285"
       id="path972"
       inkscape:connector-curvature="0"
       sodipodi:nodetypes="cc" />
    <path
       sodipodi:nodetypes="cc"
       inkscape:connector-curvature="0"
       id="path974"
       d="m 19.843756,228.04383 18.520821,32.07902"
       style="color:#000000;clip-rule:nonzero;display:inline;overflow:visible;visibility:visible;opacity:1;isolation:auto;mix-blend-mode:normal;color-interpolation:sRGB;color-interpolation-filters:linearRGB;solid-color:#000000;solid-opacity:1;fill:none;fill-opacity:1;fill-rule:nonzero;stroke:#000000;stroke-width:0.25999999;stroke-linecap:round;stroke-linejoin:round;stroke-miterlimit:4;stroke-dasharray:1.03999999, 1.03999999;stroke-dashoffset:0;stroke-opacity:1;color-rendering:auto;image-rendering:auto;shape-rendering:auto;text-rendering:auto;enable-background:accumulate" />
    <path
       inkscape:connector-curvature="0"
       style="fill:#000000;fill-opacity:1;stroke:none;stroke-width:0"
       d="m 9.4468311,243.35433 c 0.03969,-0.15214 0.0463,-0.19182 0.363801,-0.19182 0.09261,0 0.132292,0 0.132292,-0.086 0,-0.0463 -0.03969,-0.0463 -0.112448,-0.0463 h -0.555624 c -0.112448,0 -0.119063,0 -0.165365,0.0794 l -1.541197,2.40771 -0.330728,-2.38787 c -0.01323,-0.0992 -0.01984,-0.0992 -0.132292,-0.0992 h -0.575468 c -0.07937,0 -0.125677,0 -0.125677,0.0794 0,0.0529 0.03969,0.0529 0.119062,0.0529 0.05953,0 0.132292,0.007 0.185208,0.007 0.06615,0.0132 0.0926,0.0198 0.0926,0.0728 0,0.0132 -0.0066,0.0265 -0.01984,0.0794 l -0.535781,2.14312 c -0.03969,0.17198 -0.112448,0.30427 -0.456406,0.3175 -0.01984,0 -0.07276,0.007 -0.07276,0.0794 0,0.0397 0.02646,0.0529 0.05953,0.0529 0.132291,0 0.277812,-0.0132 0.423333,-0.0132 0.138906,0 0.291041,0.0132 0.429947,0.0132 0.01984,0 0.07937,0 0.07937,-0.086 0,-0.0463 -0.0463,-0.0463 -0.07937,-0.0463 -0.238124,0 -0.284426,-0.086 -0.284426,-0.18521 0,-0.0265 0,-0.0529 0.01323,-0.0992 l 0.575468,-2.29526 h 0.0066 l 0.363801,2.61276 c 0.0066,0.0529 0.01323,0.0992 0.05953,0.0992 0.0463,0 0.07276,-0.0463 0.0926,-0.0728 l 1.706561,-2.67229 h 0.0066 l -0.608541,2.41432 c -0.03969,0.16537 -0.0463,0.19844 -0.383645,0.19844 -0.06615,0 -0.112448,0 -0.112448,0.0794 0,0.0529 0.0463,0.0529 0.05953,0.0529 0.119062,0 0.403489,-0.0132 0.522552,-0.0132 0.171979,0 0.357187,0.0132 0.529166,0.0132 0.02646,0 0.07937,0 0.07937,-0.086 0,-0.0463 -0.03969,-0.0463 -0.119063,-0.0463 -0.152135,0 -0.271197,0 -0.271197,-0.0728 0,-0.0199 0,-0.0265 0.01984,-0.10584 z m 0,0"
       id="path998" />
    <path
       inkscape:connector-curvature="0"
       style="fill:#000000;fill-opacity:1;stroke:none;stroke-width:0"
       d="m 19.403906,224.70957 c 0.0463,-0.16536 0.119062,-0.29766 0.456406,-0.31088 0.01984,0 0.07276,-0.007 0.07276,-0.086 0,0 0,-0.0463 -0.05292,-0.0463 -0.138906,0 -0.291041,0.0132 -0.429947,0.0132 -0.138906,0 -0.291042,-0.0132 -0.429948,-0.0132 -0.02646,0 -0.07276,0 -0.07276,0.086 0,0.0463 0.03969,0.0463 0.07276,0.0463 0.24474,0.007 0.291042,0.0926 0.291042,0.1852 0,0.0132 -0.01323,0.0794 -0.01323,0.086 l -0.476249,1.87854 -0.932656,-2.20265 c -0.03307,-0.0728 -0.03307,-0.0794 -0.132291,-0.0794 h -0.568851 c -0.07937,0 -0.119062,0 -0.119062,0.086 0,0.0463 0.03969,0.0463 0.119062,0.0463 0.01984,0 0.284427,0 0.284427,0.0397 l -0.562239,2.26219 c -0.0463,0.17198 -0.119063,0.30427 -0.456406,0.3175 -0.02646,0 -0.07276,0.007 -0.07276,0.086 0,0.0265 0.01984,0.0463 0.05292,0.0463 0.138906,0 0.284427,-0.0132 0.423333,-0.0132 0.145521,0 0.297656,0.0132 0.436562,0.0132 0.01984,0 0.07276,0 0.07276,-0.086 0,-0.0397 -0.03969,-0.0463 -0.08599,-0.0463 -0.244739,-0.007 -0.277812,-0.0992 -0.277812,-0.18521 0,-0.0265 0.0066,-0.0529 0.01984,-0.0992 l 0.555624,-2.2225 c 0.01984,0.0198 0.01984,0.0331 0.03969,0.0728 l 1.051717,2.48709 c 0.02646,0.0728 0.03969,0.0794 0.07938,0.0794 0.0463,0 0.0463,-0.0132 0.06615,-0.086 z m 0,0"
       id="path1002" />
    <path
       inkscape:connector-curvature="0"
       style="fill:#000000;fill-opacity:1;stroke:none;stroke-width:0"
       d="m 42.141517,225.69443 c 0,-0.6813 -0.449791,-1.13771 -1.078176,-1.13771 -0.906198,0 -1.838853,0.95911 -1.838853,1.94469 0,0.70114 0.47625,1.12447 1.084791,1.12447 0.892968,0 1.832238,-0.92604 1.832238,-1.93145 z m -1.812395,1.81901 c -0.416718,0 -0.707759,-0.33735 -0.707759,-0.89297 0,-0.19182 0.05953,-0.80698 0.383645,-1.29646 0.291042,-0.44318 0.701145,-0.66146 1.038489,-0.66146 0.343958,0 0.720989,0.23813 0.720989,0.86651 0,0.30427 -0.112448,0.95912 -0.529166,1.48167 -0.205052,0.25797 -0.54901,0.50271 -0.906198,0.50271 z m 0,0"
       id="path1006" />
    <path
       inkscape:connector-curvature="0"
       style="fill:#000000;fill-opacity:1;stroke:none;stroke-width:0"
       d="m 19.044732,261.31921 c 0.02646,-0.0992 0.03969,-0.13891 0.119063,-0.15214 0.03969,-0.007 0.171979,-0.007 0.257968,-0.007 0.297656,0 0.767291,0 0.767291,0.41671 0,0.14552 -0.06615,0.43657 -0.23151,0.60193 -0.112448,0.10583 -0.330729,0.24474 -0.714374,0.24474 h -0.469636 z m 0.608541,1.15755 c 0.429948,-0.0926 0.926041,-0.39026 0.926041,-0.8136 0,-0.3638 -0.377031,-0.635 -0.932655,-0.635 H 18.44942 c -0.08599,0 -0.125677,0 -0.125677,0.086 0,0.0463 0.03969,0.0463 0.119063,0.0463 0.0066,0 0.08599,0 0.158749,0.007 0.07937,0.0132 0.112448,0.0132 0.112448,0.0728 0,0.0132 0,0.0265 -0.01323,0.0794 l -0.568854,2.26218 c -0.03969,0.16537 -0.0463,0.19844 -0.383645,0.19844 -0.07276,0 -0.112448,0 -0.112448,0.086 0,0.0463 0.05292,0.0463 0.05953,0.0463 0.119063,0 0.416719,-0.0132 0.529166,-0.0132 0.119063,0 0.423333,0.0132 0.542396,0.0132 0.03307,0 0.07937,0 0.07937,-0.086 0,-0.0463 -0.03307,-0.0463 -0.119063,-0.0463 -0.152135,0 -0.271197,0 -0.271197,-0.0728 0,-0.0265 0.0066,-0.0463 0.01323,-0.0728 l 0.277812,-1.11787 h 0.502708 c 0.383646,0 0.456406,0.23813 0.456406,0.38365 0,0.0595 -0.03307,0.19182 -0.05953,0.29104 -0.02646,0.11906 -0.06615,0.2712 -0.06615,0.35719 0,0.4564 0.509323,0.4564 0.562239,0.4564 0.357187,0 0.509323,-0.42333 0.509323,-0.48286 0,-0.0529 -0.0463,-0.0529 -0.05292,-0.0529 -0.03969,0 -0.0463,0.0265 -0.05292,0.0595 -0.105833,0.31089 -0.291041,0.38365 -0.383645,0.38365 -0.138906,0 -0.171979,-0.0926 -0.171979,-0.25797 0,-0.13229 0.02646,-0.34396 0.0463,-0.48286 0.0066,-0.0595 0.01323,-0.13891 0.01323,-0.19844 0,-0.32411 -0.284427,-0.45641 -0.396875,-0.49609 z m 0,0"
       id="path1010" />
    <path
       inkscape:connector-curvature="0"
       style="fill:#000000;fill-opacity:1;stroke:none;stroke-width:0"
       d="m 41.231625,260.40746 c 0,-0.0132 -0.01323,-0.0463 -0.05292,-0.0463 -0.01984,0 -0.01984,0.007 -0.07276,0.0661 l -0.205052,0.23812 c -0.105833,-0.19844 -0.324114,-0.30427 -0.601926,-0.30427 -0.535781,0 -1.038489,0.48948 -1.038489,0.9988 0,0.33734 0.218281,0.53578 0.436562,0.59531 l 0.449791,0.11907 c 0.15875,0.0397 0.39026,0.10583 0.39026,0.44979 0,0.37703 -0.343958,0.7739 -0.760676,0.7739 -0.271198,0 -0.740833,-0.0926 -0.740833,-0.61515 0,-0.0992 0.02646,-0.20506 0.02646,-0.2249 0.0066,-0.0198 0.0066,-0.0265 0.0066,-0.0331 0,-0.0397 -0.02646,-0.0463 -0.0463,-0.0463 -0.01984,0 -0.03307,0.007 -0.0463,0.0198 -0.01323,0.0132 -0.251354,0.97896 -0.251354,0.99219 0,0.0198 0.01984,0.0397 0.0463,0.0397 0.01984,0 0.02646,-0.007 0.07937,-0.0661 l 0.205052,-0.23813 c 0.178594,0.24474 0.469635,0.30427 0.714374,0.30427 0.575469,0 1.071562,-0.56224 1.071562,-1.08479 0,-0.29104 -0.145521,-0.43656 -0.205052,-0.49609 -0.09922,-0.0926 -0.165364,-0.11245 -0.535781,-0.20505 -0.09922,-0.0265 -0.244739,-0.0728 -0.284427,-0.0794 -0.112447,-0.0397 -0.257968,-0.15875 -0.257968,-0.38364 0,-0.34396 0.337343,-0.70115 0.740833,-0.70115 0.343958,0 0.601926,0.18521 0.601926,0.65485 0,0.13229 -0.01323,0.21166 -0.01323,0.23812 0,0 0,0.0397 0.0463,0.0397 0.0463,0 0.05292,-0.0132 0.06615,-0.086 z m 0,0"
       id="path1014" />
    <path
       inkscape:connector-curvature="0"
       style="fill:#000000;fill-opacity:1;stroke:none;stroke-width:0"
       d="m 50.024987,242.58846 c 0.03307,-0.11906 0.0463,-0.14552 0.09922,-0.15875 0.03969,-0.007 0.178594,-0.007 0.264583,-0.007 0.429948,0 0.615156,0.0132 0.615156,0.34396 0,0.0661 -0.01323,0.23151 -0.03307,0.33735 0,0.0198 -0.01323,0.0661 -0.01323,0.0794 0,0.0265 0.01323,0.0595 0.05292,0.0595 0.0463,0 0.05292,-0.0331 0.06615,-0.0992 l 0.112448,-0.73422 c 0.0066,-0.0198 0.0066,-0.0595 0.0066,-0.0728 0,-0.0463 -0.03969,-0.0463 -0.112448,-0.0463 h -2.341561 c -0.09922,0 -0.105833,0.007 -0.138906,0.086 l -0.251354,0.74083 c 0,0.007 -0.02646,0.0662 -0.02646,0.0794 0,0.0198 0.02646,0.0463 0.05292,0.0463 0.03969,0 0.0463,-0.0265 0.07276,-0.0926 0.224895,-0.65485 0.337343,-0.72761 0.959113,-0.72761 h 0.165365 c 0.119062,0 0.119062,0.0132 0.119062,0.0529 0,0.0198 -0.01323,0.0728 -0.01984,0.086 l -0.56224,2.25557 c -0.03969,0.15214 -0.05292,0.19844 -0.502707,0.19844 -0.152136,0 -0.178594,0 -0.178594,0.0794 0,0.0529 0.0463,0.0529 0.07276,0.0529 0.112448,0 0.231511,-0.007 0.343958,-0.007 0.119063,0 0.24474,-0.007 0.363802,-0.007 0.119063,0 0.23151,0.007 0.350573,0.007 0.119062,0 0.244739,0.007 0.363802,0.007 0.03969,0 0.0926,0 0.0926,-0.086 0,-0.0463 -0.03307,-0.0463 -0.145521,-0.0463 -0.09922,0 -0.15875,0 -0.264583,-0.007 -0.125677,-0.0132 -0.15875,-0.0264 -0.15875,-0.0926 0,-0.007 0,-0.0265 0.01984,-0.086 z m 0,0"
       id="path1018" />
  </g>
</svg>
