<?xml version="1.0" encoding="UTF-8" standalone="no"?>
<!-- Created with Inkscape (http://www.inkscape.org/) -->

<svg
   xmlns:dc="http://purl.org/dc/elements/1.1/"
   xmlns:cc="http://creativecommons.org/ns#"
   xmlns:rdf="http://www.w3.org/1999/02/22-rdf-syntax-ns#"
   xmlns:svg="http://www.w3.org/2000/svg"
   xmlns="http://www.w3.org/2000/svg"
   xmlns:sodipodi="http://sodipodi.sourceforge.net/DTD/sodipodi-0.dtd"
   xmlns:inkscape="http://www.inkscape.org/namespaces/inkscape"
   sodipodi:docname="fig1-40b.svg"
   inkscape:version="0.92.4 (unknown)"
   id="svg882"
   version="1.1"
   viewBox="0 0 110 100"
   height="10cm"
   width="11cm">
  <defs
     id="defs876">
    <marker
       inkscape:stockid="Arrow1Mend"
       orient="auto"
       refY="0"
       refX="0"
       id="marker8748"
       style="overflow:visible"
       inkscape:isstock="true">
      <path
         id="path8746"
         d="M 0,0 5,-5 -12.5,0 5,5 Z"
         style="fill:#000000;fill-opacity:1;fill-rule:evenodd;stroke:#000000;stroke-width:1.00000003pt;stroke-opacity:1"
         transform="matrix(-0.4,0,0,-0.4,-4,0)"
         inkscape:connector-curvature="0" />
    </marker>
    <marker
       inkscape:stockid="Arrow1Mend"
       orient="auto"
       refY="0"
       refX="0"
       id="marker8530"
       style="overflow:visible"
       inkscape:isstock="true">
      <path
         id="path8528"
         d="M 0,0 5,-5 -12.5,0 5,5 Z"
         style="fill:#000000;fill-opacity:1;fill-rule:evenodd;stroke:#000000;stroke-width:1.00000003pt;stroke-opacity:1"
         transform="matrix(-0.4,0,0,-0.4,-4,0)"
         inkscape:connector-curvature="0" />
    </marker>
    <marker
       inkscape:isstock="true"
       style="overflow:visible"
       id="marker8302"
       refX="0"
       refY="0"
       orient="auto"
       inkscape:stockid="Arrow1Mend"
       inkscape:collect="always">
      <path
         inkscape:connector-curvature="0"
         transform="matrix(-0.4,0,0,-0.4,-4,0)"
         style="fill:#000000;fill-opacity:1;fill-rule:evenodd;stroke:#000000;stroke-width:1.00000003pt;stroke-opacity:1"
         d="M 0,0 5,-5 -12.5,0 5,5 Z"
         id="path8300" />
    </marker>
    <marker
       inkscape:isstock="true"
       style="overflow:visible"
       id="marker7930"
       refX="0"
       refY="0"
       orient="auto"
       inkscape:stockid="Arrow1Mend">
      <path
         inkscape:connector-curvature="0"
         transform="matrix(-0.4,0,0,-0.4,-4,0)"
         style="fill:#000000;fill-opacity:1;fill-rule:evenodd;stroke:#000000;stroke-width:1.00000003pt;stroke-opacity:1"
         d="M 0,0 5,-5 -12.5,0 5,5 Z"
         id="path7928" />
    </marker>
    <marker
       inkscape:isstock="true"
       style="overflow:visible"
       id="marker7432"
       refX="0"
       refY="0"
       orient="auto"
       inkscape:stockid="Arrow1Mend">
      <path
         inkscape:connector-curvature="0"
         transform="matrix(-0.4,0,0,-0.4,-4,0)"
         style="fill:#000000;fill-opacity:1;fill-rule:evenodd;stroke:#000000;stroke-width:1.00000003pt;stroke-opacity:1"
         d="M 0,0 5,-5 -12.5,0 5,5 Z"
         id="path7430" />
    </marker>
    <marker
       inkscape:stockid="Arrow1Mend"
       orient="auto"
       refY="0"
       refX="0"
       id="marker6974"
       style="overflow:visible"
       inkscape:isstock="true"
       inkscape:collect="always">
      <path
         id="path6972"
         d="M 0,0 5,-5 -12.5,0 5,5 Z"
         style="fill:#000000;fill-opacity:1;fill-rule:evenodd;stroke:#000000;stroke-width:1.00000003pt;stroke-opacity:1"
         transform="matrix(-0.4,0,0,-0.4,-4,0)"
         inkscape:connector-curvature="0" />
    </marker>
    <marker
       inkscape:isstock="true"
       style="overflow:visible"
       id="marker2578"
       refX="0"
       refY="0"
       orient="auto"
       inkscape:stockid="Arrow1Mend"
       inkscape:collect="always">
      <path
         inkscape:connector-curvature="0"
         transform="matrix(-0.4,0,0,-0.4,-4,0)"
         style="fill:#000000;fill-opacity:1;fill-rule:evenodd;stroke:#000000;stroke-width:1.00000003pt;stroke-opacity:1"
         d="M 0,0 5,-5 -12.5,0 5,5 Z"
         id="path2576" />
    </marker>
    <marker
       inkscape:stockid="Arrow1Mend"
       orient="auto"
       refY="0"
       refX="0"
       id="marker2626"
       style="overflow:visible"
       inkscape:isstock="true">
      <path
         id="path2624"
         d="M 0,0 5,-5 -12.5,0 5,5 Z"
         style="fill:#000000;fill-opacity:1;fill-rule:evenodd;stroke:#000000;stroke-width:1.00000003pt;stroke-opacity:1"
         transform="matrix(-0.4,0,0,-0.4,-4,0)"
         inkscape:connector-curvature="0" />
    </marker>
    <marker
       inkscape:isstock="true"
       style="overflow:visible"
       id="marker34390"
       refX="0"
       refY="0"
       orient="auto"
       inkscape:stockid="Arrow1Mend">
      <path
         inkscape:connector-curvature="0"
         transform="matrix(-0.4,0,0,-0.4,-4,0)"
         style="fill:#000000;fill-opacity:1;fill-rule:evenodd;stroke:#000000;stroke-width:1.00000003pt;stroke-opacity:1"
         d="M 0,0 5,-5 -12.5,0 5,5 Z"
         id="path34388" />
    </marker>
    <marker
       inkscape:isstock="true"
       style="overflow:visible"
       id="marker31299"
       refX="0"
       refY="0"
       orient="auto"
       inkscape:stockid="Arrow1Mend">
      <path
         inkscape:connector-curvature="0"
         transform="matrix(-0.4,0,0,-0.4,-4,0)"
         style="fill:#000000;fill-opacity:1;fill-rule:evenodd;stroke:#000000;stroke-width:1.00000003pt;stroke-opacity:1"
         d="M 0,0 5,-5 -12.5,0 5,5 Z"
         id="path31297" />
    </marker>
    <marker
       inkscape:isstock="true"
       style="overflow:visible"
       id="marker26321"
       refX="0"
       refY="0"
       orient="auto"
       inkscape:stockid="Arrow1Mend">
      <path
         inkscape:connector-curvature="0"
         transform="matrix(-0.4,0,0,-0.4,-4,0)"
         style="fill:#000000;fill-opacity:1;fill-rule:evenodd;stroke:#000000;stroke-width:1.00000003pt;stroke-opacity:1"
         d="M 0,0 5,-5 -12.5,0 5,5 Z"
         id="path26319" />
    </marker>
    <marker
       inkscape:stockid="Arrow1Mend"
       orient="auto"
       refY="0"
       refX="0"
       id="marker24249"
       style="overflow:visible"
       inkscape:isstock="true">
      <path
         id="path24247"
         d="M 0,0 5,-5 -12.5,0 5,5 Z"
         style="fill:#000000;fill-opacity:1;fill-rule:evenodd;stroke:#000000;stroke-width:1.00000003pt;stroke-opacity:1"
         transform="matrix(-0.4,0,0,-0.4,-4,0)"
         inkscape:connector-curvature="0" />
    </marker>
    <marker
       inkscape:isstock="true"
       style="overflow:visible"
       id="marker20365"
       refX="0"
       refY="0"
       orient="auto"
       inkscape:stockid="Arrow1Mend">
      <path
         transform="matrix(-0.4,0,0,-0.4,-4,0)"
         style="fill:#000000;fill-opacity:1;fill-rule:evenodd;stroke:#000000;stroke-width:1.00000003pt;stroke-opacity:1"
         d="M 0,0 5,-5 -12.5,0 5,5 Z"
         id="path20363"
         inkscape:connector-curvature="0" />
    </marker>
    <marker
       inkscape:stockid="Arrow1Mend"
       orient="auto"
       refY="0"
       refX="0"
       id="marker19765"
       style="overflow:visible"
       inkscape:isstock="true">
      <path
         id="path19763"
         d="M 0,0 5,-5 -12.5,0 5,5 Z"
         style="fill:#000000;fill-opacity:1;fill-rule:evenodd;stroke:#000000;stroke-width:1.00000003pt;stroke-opacity:1"
         transform="matrix(-0.4,0,0,-0.4,-4,0)"
         inkscape:connector-curvature="0" />
    </marker>
    <marker
       inkscape:isstock="true"
       style="overflow:visible"
       id="marker19115"
       refX="0"
       refY="0"
       orient="auto"
       inkscape:stockid="Arrow1Mend">
      <path
         transform="matrix(-0.4,0,0,-0.4,-4,0)"
         style="fill:#000000;fill-opacity:1;fill-rule:evenodd;stroke:#000000;stroke-width:1.00000003pt;stroke-opacity:1"
         d="M 0,0 5,-5 -12.5,0 5,5 Z"
         id="path19113"
         inkscape:connector-curvature="0" />
    </marker>
    <marker
       inkscape:isstock="true"
       style="overflow:visible"
       id="marker15103"
       refX="0"
       refY="0"
       orient="auto"
       inkscape:stockid="Arrow1Mend">
      <path
         transform="matrix(-0.4,0,0,-0.4,-4,0)"
         style="fill:#000000;fill-opacity:1;fill-rule:evenodd;stroke:#000000;stroke-width:1.00000003pt;stroke-opacity:1"
         d="M 0,0 5,-5 -12.5,0 5,5 Z"
         id="path15101"
         inkscape:connector-curvature="0" />
    </marker>
    <marker
       inkscape:isstock="true"
       style="overflow:visible"
       id="marker8599"
       refX="0"
       refY="0"
       orient="auto"
       inkscape:stockid="Arrow1Mend">
      <path
         transform="matrix(-0.4,0,0,-0.4,-4,0)"
         style="fill:#000000;fill-opacity:1;fill-rule:evenodd;stroke:#000000;stroke-width:1.00000003pt;stroke-opacity:1"
         d="M 0,0 5,-5 -12.5,0 5,5 Z"
         id="path8597"
         inkscape:connector-curvature="0" />
    </marker>
    <marker
       inkscape:stockid="Arrow1Mend"
       orient="auto"
       refY="0"
       refX="0"
       id="marker7557"
       style="overflow:visible"
       inkscape:isstock="true">
      <path
         id="path7555"
         d="M 0,0 5,-5 -12.5,0 5,5 Z"
         style="fill:#000000;fill-opacity:1;fill-rule:evenodd;stroke:#000000;stroke-width:1.00000003pt;stroke-opacity:1"
         transform="matrix(-0.4,0,0,-0.4,-4,0)"
         inkscape:connector-curvature="0" />
    </marker>
    <marker
       inkscape:isstock="true"
       style="overflow:visible"
       id="marker4227"
       refX="0"
       refY="0"
       orient="auto"
       inkscape:stockid="Arrow1Mend">
      <path
         transform="matrix(-0.4,0,0,-0.4,-4,0)"
         style="fill:#000000;fill-opacity:1;fill-rule:evenodd;stroke:#000000;stroke-width:1.00000003pt;stroke-opacity:1"
         d="M 0,0 5,-5 -12.5,0 5,5 Z"
         id="path4225"
         inkscape:connector-curvature="0" />
    </marker>
    <marker
       inkscape:isstock="true"
       style="overflow:visible"
       id="marker15998"
       refX="0"
       refY="0"
       orient="auto"
       inkscape:stockid="Arrow1Mend">
      <path
         transform="matrix(-0.4,0,0,-0.4,-4,0)"
         style="fill:#000000;fill-opacity:1;fill-rule:evenodd;stroke:#000000;stroke-width:1.00000003pt;stroke-opacity:1"
         d="M 0,0 5,-5 -12.5,0 5,5 Z"
         id="path15996"
         inkscape:connector-curvature="0" />
    </marker>
    <marker
       inkscape:stockid="Arrow1Mend"
       orient="auto"
       refY="0"
       refX="0"
       id="marker11689"
       style="overflow:visible"
       inkscape:isstock="true">
      <path
         id="path11687"
         d="M 0,0 5,-5 -12.5,0 5,5 Z"
         style="fill:#000000;fill-opacity:1;fill-rule:evenodd;stroke:#000000;stroke-width:1.00000003pt;stroke-opacity:1"
         transform="matrix(-0.4,0,0,-0.4,-4,0)"
         inkscape:connector-curvature="0" />
    </marker>
    <marker
       inkscape:isstock="true"
       style="overflow:visible"
       id="marker31299-3"
       refX="0"
       refY="0"
       orient="auto"
       inkscape:stockid="Arrow1Mend">
      <path
         inkscape:connector-curvature="0"
         transform="matrix(-0.4,0,0,-0.4,-4,0)"
         style="fill:#000000;fill-opacity:1;fill-rule:evenodd;stroke:#000000;stroke-width:1.00000003pt;stroke-opacity:1"
         d="M 0,0 5,-5 -12.5,0 5,5 Z"
         id="path31297-6" />
    </marker>
  </defs>
  <sodipodi:namedview
     id="base"
     pagecolor="#ffffff"
     bordercolor="#666666"
     borderopacity="1.0"
     inkscape:pageopacity="0.0"
     inkscape:pageshadow="2"
     inkscape:zoom="1.0187828"
     inkscape:cx="177.54348"
     inkscape:cy="110.52971"
     inkscape:document-units="cm"
     inkscape:current-layer="layer1"
     showgrid="false"
     units="cm"
     inkscape:window-width="805"
     inkscape:window-height="716"
     inkscape:window-x="12"
     inkscape:window-y="24"
     inkscape:window-maximized="0"
     showguides="true"
     inkscape:guide-bbox="true">
    <inkscape:grid
       type="xygrid"
       id="grid1452" />
  </sodipodi:namedview>
  <metadata
     id="metadata879">
    <rdf:RDF>
      <cc:Work
         rdf:about="">
        <dc:format>image/svg+xml</dc:format>
        <dc:type
           rdf:resource="http://purl.org/dc/dcmitype/StillImage" />
        <dc:title></dc:title>
      </cc:Work>
    </rdf:RDF>
  </metadata>
  <g
     inkscape:label="Layer 1"
     inkscape:groupmode="layer"
     id="layer1"
     transform="translate(0,-197.00001)">
    <path
       inkscape:connector-curvature="0"
       style="fill:#000000;fill-opacity:1;stroke:none;stroke-width:0"
       d="m 3.5709046,287.51061 c -0.03969,0.16537 -0.05292,0.19844 -0.383646,0.19844 -0.07276,0 -0.112447,0 -0.112447,0.086 0,0.0463 0.03969,0.0463 0.112447,0.0463 h 1.5081243 c 0.668073,0 1.164166,-0.49609 1.164166,-0.91281 0,-0.30427 -0.244739,-0.54901 -0.654843,-0.59531 0.436562,-0.0794 0.879739,-0.39026 0.879739,-0.79375 0,-0.31089 -0.277813,-0.58209 -0.780521,-0.58209 h -1.422134 c -0.07937,0 -0.119062,0 -0.119062,0.086 0,0.0463 0.03969,0.0463 0.119062,0.0463 0.0066,0 0.08599,0 0.15875,0.007 0.07276,0.0132 0.112448,0.0132 0.112448,0.0728 0,0.0132 -0.0066,0.0265 -0.01323,0.0794 z m 0.6349993,-1.21708 0.264584,-1.0451 c 0.03969,-0.14553 0.0463,-0.15875 0.224895,-0.15875 h 0.54901 c 0.370417,0 0.456406,0.25135 0.456406,0.43656 0,0.37041 -0.363802,0.76729 -0.873124,0.76729 z m -0.185208,1.41552 c -0.05953,0 -0.06615,0 -0.0926,0 -0.0463,-0.007 -0.05953,-0.0132 -0.05953,-0.0463 0,-0.0132 0,-0.0198 0.02646,-0.0926 l 0.291042,-1.17739 h 0.793749 c 0.403489,0 0.489479,0.31088 0.489479,0.48948 0,0.41671 -0.377031,0.82682 -0.879739,0.82682 z m 0,0"
       id="path985" />
    <path
       inkscape:connector-curvature="0"
       style="fill:#000000;fill-opacity:1;stroke:none;stroke-width:0"
       d="m 52.357086,286.02849 c 0,-0.0132 -0.0066,-0.0463 -0.0463,-0.0463 -0.01323,0 -0.01984,0.007 -0.06615,0.0529 l -0.291042,0.32411 c -0.03969,-0.0595 -0.23151,-0.37703 -0.701145,-0.37703 -0.945885,0 -1.891769,0.93266 -1.891769,1.91161 0,0.69453 0.496093,1.15755 1.144322,1.15755 0.363801,0 0.687916,-0.16536 0.912811,-0.3638 0.39026,-0.34396 0.463021,-0.7276 0.463021,-0.74083 0,-0.0463 -0.0463,-0.0463 -0.05292,-0.0463 -0.02646,0 -0.0463,0.0132 -0.05292,0.0463 -0.03969,0.11906 -0.138907,0.42333 -0.429948,0.66807 -0.291042,0.23151 -0.555625,0.30427 -0.773906,0.30427 -0.377031,0 -0.826822,-0.21828 -0.826822,-0.87312 0,-0.24474 0.08599,-0.92604 0.509323,-1.42214 0.257968,-0.29765 0.654843,-0.50932 1.031874,-0.50932 0.429947,0 0.681301,0.32412 0.681301,0.81359 0,0.17198 -0.01323,0.17198 -0.01323,0.21829 0,0.0397 0.0463,0.0397 0.05953,0.0397 0.05292,0 0.05292,-0.007 0.07937,-0.086 z m 0,0"
       id="path989" />
    <path
       inkscape:connector-curvature="0"
       style="fill:#000000;fill-opacity:1;stroke:none;stroke-width:0"
       d="m 3.2663856,261.12276 c -0.03969,0.16537 -0.0463,0.19844 -0.383645,0.19844 -0.06615,0 -0.112448,0 -0.112448,0.0794 0,0.0529 0.03307,0.0529 0.112448,0.0529 h 1.4022903 c 0.873125,0 1.706562,-0.89297 1.706562,-1.81239 0,-0.59532 -0.357188,-1.07157 -0.992187,-1.07157 h -1.41552 c -0.07937,0 -0.1256773,0 -0.1256773,0.0794 0,0.0529 0.03307,0.0529 0.1190633,0.0529 0.05292,0 0.132291,0.007 0.178593,0.007 0.07276,0.0132 0.0926,0.0198 0.0926,0.0728 0,0.0132 0,0.0265 -0.01323,0.0794 z m 0.9128123,-2.26218 c 0.03969,-0.14553 0.0463,-0.15875 0.23151,-0.15875 h 0.449792 c 0.410104,0 0.760676,0.22489 0.760676,0.78052 0,0.20505 -0.07938,0.89958 -0.443177,1.3626 -0.119062,0.15875 -0.449791,0.47625 -0.972343,0.47625 h -0.476249 c -0.05953,0 -0.06615,0 -0.0926,0 -0.03969,-0.007 -0.05292,-0.0132 -0.05292,-0.0463 0,-0.0132 0,-0.0198 0.01984,-0.0926 z m 0,0"
       id="path993" />
    <path
       inkscape:connector-curvature="0"
       style="fill:#000000;fill-opacity:1;stroke:none;stroke-width:0"
       d="m 52.523292,259.3061 c 0.0066,-0.0198 0.01984,-0.0463 0.01984,-0.0595 0,0 0,-0.0463 -0.05292,-0.0463 -0.03969,0 -0.0463,0.0265 -0.05292,0.0529 -0.277812,0.62177 -0.429948,0.9062 -1.150937,0.9062 h -0.615156 c -0.05953,0 -0.07276,0 -0.0926,0 -0.0463,-0.007 -0.05953,-0.0132 -0.05953,-0.0463 0,-0.0132 0,-0.0198 0.01984,-0.0926 l 0.291041,-1.15755 h 0.416719 c 0.357187,0 0.357187,0.0926 0.357187,0.19844 0,0.0265 0,0.0794 -0.02646,0.20505 -0.0066,0.0198 -0.01323,0.0331 -0.01323,0.0463 0,0.0199 0.01323,0.0463 0.05292,0.0463 0.03307,0 0.0463,-0.0198 0.06615,-0.086 l 0.238125,-0.98557 c 0,-0.0265 -0.01984,-0.0463 -0.05292,-0.0463 -0.03307,0 -0.0463,0.0265 -0.05292,0.0728 -0.0926,0.32412 -0.165364,0.42333 -0.555624,0.42333 h -0.396875 l 0.251354,-1.01864 c 0.03969,-0.15214 0.0463,-0.16537 0.23151,-0.16537 h 0.595312 c 0.509323,0 0.641615,0.11907 0.641615,0.46964 0,0.0992 0,0.10583 -0.01984,0.2249 0,0.0198 -0.0066,0.0529 -0.0066,0.0728 0,0.0198 0.01323,0.0529 0.05292,0.0529 0.0463,0 0.05292,-0.0265 0.05953,-0.10583 l 0.08599,-0.73422 c 0.01323,-0.11245 -0.0066,-0.11245 -0.112448,-0.11245 h -2.136509 c -0.07937,0 -0.125677,0 -0.125677,0.086 0,0.0463 0.03969,0.0463 0.119062,0.0463 0.15875,0 0.277813,0 0.277813,0.0728 0,0.0198 0,0.0265 -0.02646,0.10583 l -0.555624,2.22911 c -0.03969,0.16537 -0.0463,0.19844 -0.383646,0.19844 -0.07276,0 -0.119062,0 -0.119062,0.0794 0,0.0529 0.03969,0.0529 0.119062,0.0529 h 2.189426 c 0.09922,0 0.105833,-0.007 0.132291,-0.0728 z m 0,0"
       id="path997" />
    <rect
       style="color:#000000;clip-rule:nonzero;display:inline;overflow:visible;visibility:visible;opacity:1;isolation:auto;mix-blend-mode:normal;color-interpolation:sRGB;color-interpolation-filters:linearRGB;solid-color:#000000;solid-opacity:1;fill:none;fill-opacity:1;fill-rule:evenodd;stroke:#000000;stroke-width:0.26458335;stroke-linecap:butt;stroke-linejoin:round;stroke-miterlimit:4;stroke-dasharray:none;stroke-dashoffset:0;stroke-opacity:1;color-rendering:auto;image-rendering:auto;shape-rendering:auto;text-rendering:auto;enable-background:accumulate"
       id="rect6278"
       width="2.1943169"
       height="2.1943169"
       x="46.940804"
       y="259.95834" />
    <path
       id="path6378"
       d="m 65.620763,288.25243 c -0.03969,0.16537 -0.05292,0.19844 -0.383646,0.19844 -0.07276,0 -0.112447,0 -0.112447,0.086 0,0.0463 0.03969,0.0463 0.112447,0.0463 h 1.508124 c 0.668073,0 1.164166,-0.49609 1.164166,-0.91281 0,-0.30427 -0.244739,-0.54901 -0.654843,-0.59531 0.436562,-0.0794 0.879739,-0.39026 0.879739,-0.79375 0,-0.31089 -0.277813,-0.58209 -0.780521,-0.58209 h -1.422134 c -0.07937,0 -0.119062,0 -0.119062,0.086 0,0.0463 0.03969,0.0463 0.119062,0.0463 0.0066,0 0.08599,0 0.15875,0.007 0.07276,0.0132 0.112448,0.0132 0.112448,0.0728 0,0.0132 -0.0066,0.0265 -0.01323,0.0794 z m 0.634999,-1.21708 0.264584,-1.0451 c 0.03969,-0.14553 0.0463,-0.15875 0.224895,-0.15875 h 0.54901 c 0.370417,0 0.456406,0.25135 0.456406,0.43656 0,0.37041 -0.363802,0.76729 -0.873124,0.76729 z m -0.185208,1.41552 c -0.05953,0 -0.06615,0 -0.0926,0 -0.0463,-0.007 -0.05953,-0.0132 -0.05953,-0.0463 0,-0.0132 0,-0.0198 0.02646,-0.0926 l 0.291042,-1.17739 h 0.793749 c 0.403489,0 0.489479,0.31088 0.489479,0.48948 0,0.41671 -0.377031,0.82682 -0.879739,0.82682 z m 0,0"
       style="fill:#000000;fill-opacity:1;stroke:none;stroke-width:0"
       inkscape:connector-curvature="0" />
    <path
       id="path6380"
       d="m 99.212598,285.83906 c 0,-0.0132 -0.007,-0.0463 -0.0463,-0.0463 -0.0132,0 -0.0198,0.007 -0.0662,0.0529 l -0.29104,0.32411 c -0.0397,-0.0595 -0.23151,-0.37703 -0.70115,-0.37703 -0.945881,0 -1.891765,0.93266 -1.891765,1.91161 0,0.69453 0.496093,1.15755 1.144322,1.15755 0.363803,0 0.687913,-0.16536 0.912813,-0.3638 0.39026,-0.34396 0.46302,-0.7276 0.46302,-0.74083 0,-0.0463 -0.0463,-0.0463 -0.0529,-0.0463 -0.0265,0 -0.0463,0.0132 -0.0529,0.0463 -0.0397,0.11906 -0.13891,0.42333 -0.42995,0.66807 -0.29104,0.23151 -0.55562,0.30427 -0.773905,0.30427 -0.377031,0 -0.826822,-0.21828 -0.826822,-0.87312 0,-0.24474 0.08599,-0.92604 0.509323,-1.42214 0.257968,-0.29765 0.654844,-0.50932 1.031874,-0.50932 0.42995,0 0.6813,0.32412 0.6813,0.81359 0,0.17198 -0.0132,0.17198 -0.0132,0.21829 0,0.0397 0.0463,0.0397 0.0595,0.0397 0.0529,0 0.0529,-0.007 0.0794,-0.086 z m 0,0"
       style="fill:#000000;fill-opacity:1;stroke:none;stroke-width:0"
       inkscape:connector-curvature="0" />
    <path
       id="path6382"
       d="m 83.841544,258.41076 c -0.03969,0.16537 -0.0463,0.19844 -0.383645,0.19844 -0.06615,0 -0.112448,0 -0.112448,0.0794 0,0.0529 0.03307,0.0529 0.112448,0.0529 h 1.40229 c 0.873125,0 1.706562,-0.89297 1.706562,-1.81239 0,-0.59532 -0.357188,-1.07157 -0.992187,-1.07157 h -1.41552 c -0.07937,0 -0.125677,0 -0.125677,0.0794 0,0.0529 0.03307,0.0529 0.119063,0.0529 0.05292,0 0.132291,0.007 0.178593,0.007 0.07276,0.0132 0.0926,0.0198 0.0926,0.0728 0,0.0132 0,0.0265 -0.01323,0.0794 z m 0.912812,-2.26218 c 0.03969,-0.14553 0.0463,-0.15875 0.23151,-0.15875 h 0.449792 c 0.410104,0 0.760676,0.22489 0.760676,0.78052 0,0.20505 -0.07938,0.89958 -0.443177,1.3626 -0.119062,0.15875 -0.449791,0.47625 -0.972343,0.47625 h -0.476249 c -0.05953,0 -0.06615,0 -0.0926,0 -0.03969,-0.007 -0.05292,-0.0132 -0.05292,-0.0463 0,-0.0132 0,-0.0198 0.01984,-0.0926 z m 0,0"
       style="fill:#000000;fill-opacity:1;stroke:none;stroke-width:0"
       inkscape:connector-curvature="0" />
    <path
       id="path6384"
       d="m 80.728402,262.82862 c 0.0066,-0.0198 0.01984,-0.0463 0.01984,-0.0595 0,0 0,-0.0463 -0.05292,-0.0463 -0.03969,0 -0.0463,0.0265 -0.05292,0.0529 -0.277812,0.62177 -0.429948,0.9062 -1.150937,0.9062 h -0.615156 c -0.05953,0 -0.07276,0 -0.0926,0 -0.0463,-0.007 -0.05953,-0.0132 -0.05953,-0.0463 0,-0.0132 0,-0.0198 0.01984,-0.0926 l 0.291041,-1.15755 h 0.416719 c 0.357187,0 0.357187,0.0926 0.357187,0.19844 0,0.0265 0,0.0794 -0.02646,0.20505 -0.0066,0.0198 -0.01323,0.0331 -0.01323,0.0463 0,0.0199 0.01323,0.0463 0.05292,0.0463 0.03307,0 0.0463,-0.0198 0.06615,-0.086 l 0.238125,-0.98557 c 0,-0.0265 -0.01984,-0.0463 -0.05292,-0.0463 -0.03307,0 -0.0463,0.0265 -0.05292,0.0728 -0.0926,0.32412 -0.165364,0.42333 -0.555624,0.42333 h -0.396875 l 0.251354,-1.01864 c 0.03969,-0.15214 0.0463,-0.16537 0.23151,-0.16537 h 0.595312 c 0.509323,0 0.641615,0.11907 0.641615,0.46964 0,0.0992 0,0.10583 -0.01984,0.2249 0,0.0198 -0.0066,0.0529 -0.0066,0.0728 0,0.0198 0.01323,0.0529 0.05292,0.0529 0.0463,0 0.05292,-0.0265 0.05953,-0.10583 l 0.08599,-0.73422 c 0.01323,-0.11245 -0.0066,-0.11245 -0.112448,-0.11245 h -2.136509 c -0.07937,0 -0.125677,0 -0.125677,0.086 0,0.0463 0.03969,0.0463 0.119062,0.0463 0.15875,0 0.277813,0 0.277813,0.0728 0,0.0198 0,0.0265 -0.02646,0.10583 l -0.555624,2.22911 c -0.03969,0.16537 -0.0463,0.19844 -0.383646,0.19844 -0.07276,0 -0.119062,0 -0.119062,0.0794 0,0.0529 0.03969,0.0529 0.119062,0.0529 h 2.189426 c 0.09922,0 0.105833,-0.007 0.132291,-0.0728 z m 0,0"
       style="fill:#000000;fill-opacity:1;stroke:none;stroke-width:0"
       inkscape:connector-curvature="0" />
    <rect
       y="259.95834"
       x="92.979431"
       height="2.1943169"
       width="2.1943169"
       id="rect6398"
       style="color:#000000;clip-rule:nonzero;display:inline;overflow:visible;visibility:visible;opacity:1;isolation:auto;mix-blend-mode:normal;color-interpolation:sRGB;color-interpolation-filters:linearRGB;solid-color:#000000;solid-opacity:1;fill:none;fill-opacity:1;fill-rule:evenodd;stroke:#000000;stroke-width:0.26458335;stroke-linecap:butt;stroke-linejoin:round;stroke-miterlimit:4;stroke-dasharray:none;stroke-dashoffset:0;stroke-opacity:1;color-rendering:auto;image-rendering:auto;shape-rendering:auto;text-rendering:auto;enable-background:accumulate" />
    <text
       xml:space="preserve"
       style="font-style:normal;font-variant:normal;font-weight:normal;font-stretch:normal;font-size:4.23333359px;line-height:125%;font-family:LMRoman12;-inkscape-font-specification:LMRoman12;text-align:center;letter-spacing:0px;word-spacing:0px;writing-mode:lr-tb;text-anchor:middle;fill:#000000;fill-opacity:1;stroke:none;stroke-width:0.26458335px;stroke-linecap:butt;stroke-linejoin:miter;stroke-opacity:1"
       x="78.820572"
       y="275.18478"
       id="text6483"><tspan
         sodipodi:role="line"
         id="tspan6481"
         x="78.820572"
         y="275.18478"
         style="stroke-width:0.26458335px">2</tspan></text>
    <path
       inkscape:connector-curvature="0"
       style="fill:#000000;fill-opacity:1;stroke:none;stroke-width:0"
       d="m 65.110325,261.1192 c -0.03969,0.16537 -0.0463,0.19844 -0.383645,0.19844 -0.06615,0 -0.112448,0 -0.112448,0.0794 0,0.0529 0.03307,0.0529 0.112448,0.0529 h 1.40229 c 0.873125,0 1.706562,-0.89297 1.706562,-1.81239 0,-0.59532 -0.357188,-1.07157 -0.992187,-1.07157 h -1.41552 c -0.07937,0 -0.125677,0 -0.125677,0.0794 0,0.0529 0.03307,0.0529 0.119063,0.0529 0.05292,0 0.132291,0.007 0.178593,0.007 0.07276,0.0132 0.0926,0.0198 0.0926,0.0728 0,0.0132 0,0.0265 -0.01323,0.0794 z m 0.912812,-2.26218 c 0.03969,-0.14553 0.0463,-0.15875 0.23151,-0.15875 h 0.449792 c 0.410104,0 0.760676,0.22489 0.760676,0.78052 0,0.20505 -0.07938,0.89958 -0.443177,1.3626 -0.119062,0.15875 -0.449791,0.47625 -0.972343,0.47625 h -0.476249 c -0.05953,0 -0.06615,0 -0.0926,0 -0.03969,-0.007 -0.05292,-0.0132 -0.05292,-0.0463 0,-0.0132 0,-0.0198 0.01984,-0.0926 z m 0,0"
       id="path6485" />
    <path
       inkscape:connector-curvature="0"
       style="fill:#000000;fill-opacity:1;stroke:none;stroke-width:0"
       d="m 99.092342,260.39516 c 0.0066,-0.0198 0.01984,-0.0463 0.01984,-0.0595 0,0 0,-0.0463 -0.05292,-0.0463 -0.03969,0 -0.0463,0.0265 -0.05292,0.0529 -0.277812,0.62177 -0.429948,0.9062 -1.150937,0.9062 h -0.615156 c -0.05953,0 -0.07276,0 -0.0926,0 -0.0463,-0.007 -0.05953,-0.0132 -0.05953,-0.0463 0,-0.0132 0,-0.0198 0.01984,-0.0926 L 97.399,259.95201 h 0.416719 c 0.357187,0 0.357187,0.0926 0.357187,0.19844 0,0.0265 0,0.0794 -0.02646,0.20505 -0.0066,0.0198 -0.01323,0.0331 -0.01323,0.0463 0,0.0199 0.01323,0.0463 0.05292,0.0463 0.03307,0 0.0463,-0.0198 0.06615,-0.086 l 0.238125,-0.98557 c 0,-0.0265 -0.01984,-0.0463 -0.05292,-0.0463 -0.03307,0 -0.0463,0.0265 -0.05292,0.0728 -0.0926,0.32412 -0.165364,0.42333 -0.555624,0.42333 h -0.396875 l 0.251354,-1.01864 c 0.03969,-0.15214 0.0463,-0.16537 0.23151,-0.16537 h 0.595312 c 0.509323,0 0.641615,0.11907 0.641615,0.46964 0,0.0992 0,0.10583 -0.01984,0.2249 0,0.0198 -0.0066,0.0529 -0.0066,0.0728 0,0.0198 0.01323,0.0529 0.05292,0.0529 0.0463,0 0.05292,-0.0265 0.05953,-0.10583 l 0.08599,-0.73422 c 0.01323,-0.11245 -0.0066,-0.11245 -0.112448,-0.11245 h -2.136509 c -0.07937,0 -0.125677,0 -0.125677,0.086 0,0.0463 0.03969,0.0463 0.119062,0.0463 0.15875,0 0.277813,0 0.277813,0.0728 0,0.0198 0,0.0265 -0.02646,0.10583 l -0.555624,2.22911 c -0.03969,0.16537 -0.0463,0.19844 -0.383646,0.19844 -0.07276,0 -0.119062,0 -0.119062,0.0794 0,0.0529 0.03969,0.0529 0.119062,0.0529 H 98.5698 c 0.09922,0 0.105833,-0.007 0.132291,-0.0728 z m 0,0"
       id="path6487" />
    <rect
       style="color:#000000;clip-rule:nonzero;display:inline;overflow:visible;visibility:visible;opacity:1;isolation:auto;mix-blend-mode:normal;color-interpolation:sRGB;color-interpolation-filters:linearRGB;solid-color:#000000;solid-opacity:1;fill:none;fill-opacity:1;fill-rule:evenodd;stroke:#000000;stroke-width:0.26458335;stroke-linecap:butt;stroke-linejoin:round;stroke-miterlimit:4;stroke-dasharray:none;stroke-dashoffset:0;stroke-opacity:1;color-rendering:auto;image-rendering:auto;shape-rendering:auto;text-rendering:auto;enable-background:accumulate"
       id="rect6527"
       width="42.333332"
       height="26.458334"
       x="6.8017879"
       y="259.95834" />
    <g
       id="g6604"
       transform="translate(-6.4273791)">
      <path
         inkscape:connector-curvature="0"
         id="path6529"
         d="m 34.395834,259.95835 21.166667,26.45833 V 259.95835 H 34.395834"
         style="color:#000000;clip-rule:nonzero;display:inline;overflow:visible;visibility:visible;opacity:1;isolation:auto;mix-blend-mode:normal;color-interpolation:sRGB;color-interpolation-filters:linearRGB;solid-color:#000000;solid-opacity:1;fill:none;fill-opacity:1;fill-rule:nonzero;stroke:#000000;stroke-width:0.26458335;stroke-linecap:round;stroke-linejoin:round;stroke-miterlimit:4;stroke-dasharray:none;stroke-dashoffset:0;stroke-opacity:1;color-rendering:auto;image-rendering:auto;shape-rendering:auto;text-rendering:auto;enable-background:accumulate" />
      <path
         id="path6602"
         style="fill:none;stroke:#000000;stroke-width:0.26458335"
         d="m 34.810903,259.95835 v 0.51884 m 0.846666,1.05833 v -1.57717 m 0.846667,0 v 2.6355 m 0.846667,1.05833 v -3.69383 m 0.846666,0 v 4.75217 m 0.846667,1.05833 v -5.8105 m 0.846667,0 v 6.86883 m 0.846666,1.05834 v -7.92717 m 0.846667,0 v 8.9855 m 0.846667,1.05833 v -10.04383 m 0.846667,0 v 11.10217 m 0.846666,1.05833 v -12.1605 m 0.846667,0 v 13.21883 m 0.846667,1.05834 v -14.27717 m 0.846666,0 v 15.3355 m 0.846667,1.05833 v -16.39383 m 0.846667,0 v 17.45217 m 0.846666,1.05833 v -18.5105 m 0.846667,0 v 19.56883 m 0.846667,1.05834 v -20.62717 m 0.846666,0 v 21.6855 m 0.846667,1.05833 v -22.74383 m 0.846667,0 v 23.80217 m 0.846666,1.05833 v -24.8605 m 0.846667,0 v 25.91883"
         inkscape:connector-curvature="0" />
    </g>
    <rect
       style="color:#000000;clip-rule:nonzero;display:inline;overflow:visible;visibility:visible;opacity:1;isolation:auto;mix-blend-mode:normal;color-interpolation:sRGB;color-interpolation-filters:linearRGB;solid-color:#000000;solid-opacity:1;fill:none;fill-opacity:1;fill-rule:evenodd;stroke:#000000;stroke-width:0.26458335;stroke-linecap:butt;stroke-linejoin:round;stroke-miterlimit:4;stroke-dasharray:none;stroke-dashoffset:0;stroke-opacity:1;color-rendering:auto;image-rendering:auto;shape-rendering:auto;text-rendering:auto;enable-background:accumulate"
       id="rect6612"
       width="26.458334"
       height="26.458334"
       x="68.791672"
       y="259.95834" />
    <g
       id="g6693">
      <path
         inkscape:connector-curvature="0"
         id="path6614"
         d="m 82.020835,259.95835 13.229167,26.45833 v -26.45833 z"
         style="color:#000000;clip-rule:nonzero;display:inline;overflow:visible;visibility:visible;opacity:1;isolation:auto;mix-blend-mode:normal;color-interpolation:sRGB;color-interpolation-filters:linearRGB;solid-color:#000000;solid-opacity:1;fill:none;fill-opacity:1;fill-rule:nonzero;stroke:#000000;stroke-width:0.26458335;stroke-linecap:round;stroke-linejoin:round;stroke-miterlimit:4;stroke-dasharray:none;stroke-dashoffset:0;stroke-opacity:1;color-rendering:auto;image-rendering:auto;shape-rendering:auto;text-rendering:auto;enable-background:accumulate" />
      <path
         id="path6691"
         style="stroke:#000000;stroke-width:0.26458335;fill:none"
         d="M 82.311429,259.958350 l 0.000000,0.581188 M 83.158096,262.232871 l 0.000000,-2.274521 M 84.004762,259.958350 l 0.000000,3.967854 M 84.851429,265.619537 l 0.000000,-5.661187 M 85.698096,259.958350 l 0.000000,7.354520 M 86.544762,269.006203 l 0.000000,-9.047853 M 87.391429,259.958350 l 0.000000,10.741186 M 88.238096,272.392869 l 0.000000,-12.434519 M 89.084762,259.958350 l 0.000000,14.127852 M 89.931429,275.779536 l 0.000000,-15.821186 M 90.778096,259.958350 l 0.000000,17.514519 M 91.624762,279.166202 l 0.000000,-19.207852 M 92.471429,259.958350 l 0.000000,20.901185 M 93.318096,282.552868 l 0.000000,-22.594518 M 94.164762,259.958350 l 0.000000,24.287851 M 95.011429,285.939534 l 0.000000,-25.981184" />
    </g>
    <g
       id="g6708"
       transform="translate(-10.788815,10.375626)">
      <ellipse
         ry="2.0200334"
         rx="1.3313856"
         cy="257.15027"
         cx="52.704506"
         id="path6703"
         style="color:#000000;clip-rule:nonzero;display:inline;overflow:visible;visibility:visible;opacity:1;isolation:auto;mix-blend-mode:normal;color-interpolation:sRGB;color-interpolation-filters:linearRGB;solid-color:#000000;solid-opacity:1;fill:#ffffff;fill-opacity:1;fill-rule:nonzero;stroke:#ffffff;stroke-width:0.21166667;stroke-linecap:round;stroke-linejoin:round;stroke-miterlimit:4;stroke-dasharray:none;stroke-dashoffset:0;stroke-opacity:1;color-rendering:auto;image-rendering:auto;shape-rendering:auto;text-rendering:auto;enable-background:accumulate" />
      <text
         id="text6479"
         y="258.42184"
         x="52.728058"
         style="font-style:normal;font-variant:normal;font-weight:normal;font-stretch:normal;font-size:4.23333359px;line-height:125%;font-family:LMRoman12;-inkscape-font-specification:LMRoman12;text-align:center;letter-spacing:0px;word-spacing:0px;writing-mode:lr-tb;text-anchor:middle;fill:#000000;fill-opacity:1;stroke:none;stroke-width:0.26458335px;stroke-linecap:butt;stroke-linejoin:miter;stroke-opacity:1"
         xml:space="preserve"><tspan
           style="stroke-width:0.26458335px"
           y="258.42184"
           x="52.728058"
           id="tspan6477"
           sodipodi:role="line">1</tspan></text>
    </g>
    <g
       transform="translate(37.967446,9.9165275)"
       id="g6716">
      <ellipse
         style="color:#000000;clip-rule:nonzero;display:inline;overflow:visible;visibility:visible;opacity:1;isolation:auto;mix-blend-mode:normal;color-interpolation:sRGB;color-interpolation-filters:linearRGB;solid-color:#000000;solid-opacity:1;fill:#ffffff;fill-opacity:1;fill-rule:nonzero;stroke:#ffffff;stroke-width:0.21166667;stroke-linecap:round;stroke-linejoin:round;stroke-miterlimit:4;stroke-dasharray:none;stroke-dashoffset:0;stroke-opacity:1;color-rendering:auto;image-rendering:auto;shape-rendering:auto;text-rendering:auto;enable-background:accumulate"
         id="ellipse6710"
         cx="52.704506"
         cy="257.15027"
         rx="1.3313856"
         ry="2.0200334" />
      <text
         xml:space="preserve"
         style="font-style:normal;font-variant:normal;font-weight:normal;font-stretch:normal;font-size:4.23333359px;line-height:125%;font-family:LMRoman12;-inkscape-font-specification:LMRoman12;text-align:center;letter-spacing:0px;word-spacing:0px;writing-mode:lr-tb;text-anchor:middle;fill:#000000;fill-opacity:1;stroke:none;stroke-width:0.26458335px;stroke-linecap:butt;stroke-linejoin:miter;stroke-opacity:1"
         x="52.728058"
         y="258.42184"
         id="text6714"><tspan
           sodipodi:role="line"
           id="tspan6712"
           x="52.728058"
           y="258.42184"
           style="stroke-width:0.26458335px">1</tspan></text>
    </g>
    <text
       id="text6720"
       y="275.18478"
       x="23.179031"
       style="font-style:normal;font-variant:normal;font-weight:normal;font-stretch:normal;font-size:4.23333359px;line-height:125%;font-family:LMRoman12;-inkscape-font-specification:LMRoman12;text-align:center;letter-spacing:0px;word-spacing:0px;writing-mode:lr-tb;text-anchor:middle;fill:#000000;fill-opacity:1;stroke:none;stroke-width:0.26458335px;stroke-linecap:butt;stroke-linejoin:miter;stroke-opacity:1"
       xml:space="preserve"><tspan
         style="stroke-width:0.26458335px"
         y="275.18478"
         x="23.179031"
         id="tspan6718"
         sodipodi:role="line">2</tspan></text>
    <path
       style="color:#000000;clip-rule:nonzero;display:inline;overflow:visible;visibility:visible;opacity:1;isolation:auto;mix-blend-mode:normal;color-interpolation:sRGB;color-interpolation-filters:linearRGB;solid-color:#000000;solid-opacity:1;fill:none;fill-opacity:1;fill-rule:nonzero;stroke:#000000;stroke-width:0.26458335;stroke-linecap:round;stroke-linejoin:round;stroke-miterlimit:4;stroke-dasharray:none;stroke-dashoffset:0;stroke-opacity:1;marker-end:url(#marker2578);color-rendering:auto;image-rendering:auto;shape-rendering:auto;text-rendering:auto;enable-background:accumulate"
       d="m 72.643787,259.9386 h 3.856427"
       id="path6722"
       inkscape:connector-curvature="0" />
    <path
       inkscape:connector-curvature="0"
       id="path6970"
       d="m 68.78736,275.45613 v -3.85642"
       style="color:#000000;clip-rule:nonzero;display:inline;overflow:visible;visibility:visible;opacity:1;isolation:auto;mix-blend-mode:normal;color-interpolation:sRGB;color-interpolation-filters:linearRGB;solid-color:#000000;solid-opacity:1;fill:none;fill-opacity:1;fill-rule:nonzero;stroke:#000000;stroke-width:0.26458335;stroke-linecap:round;stroke-linejoin:round;stroke-miterlimit:4;stroke-dasharray:none;stroke-dashoffset:0;stroke-opacity:1;marker-end:url(#marker6974);color-rendering:auto;image-rendering:auto;shape-rendering:auto;text-rendering:auto;enable-background:accumulate" />
    <rect
       y="284.22238"
       x="68.791672"
       height="2.1943169"
       width="2.1943169"
       id="rect7420"
       style="color:#000000;clip-rule:nonzero;display:inline;overflow:visible;visibility:visible;opacity:1;isolation:auto;mix-blend-mode:normal;color-interpolation:sRGB;color-interpolation-filters:linearRGB;solid-color:#000000;solid-opacity:1;fill:none;fill-opacity:1;fill-rule:evenodd;stroke:#000000;stroke-width:0.26458335;stroke-linecap:butt;stroke-linejoin:round;stroke-miterlimit:4;stroke-dasharray:none;stroke-dashoffset:0;stroke-opacity:1;color-rendering:auto;image-rendering:auto;shape-rendering:auto;text-rendering:auto;enable-background:accumulate" />
    <path
       style="color:#000000;clip-rule:nonzero;display:inline;overflow:visible;visibility:visible;opacity:1;isolation:auto;mix-blend-mode:normal;color-interpolation:sRGB;color-interpolation-filters:linearRGB;solid-color:#000000;solid-opacity:1;fill:none;fill-opacity:1;fill-rule:nonzero;stroke:#000000;stroke-width:0.26458335;stroke-linecap:round;stroke-linejoin:round;stroke-miterlimit:4;stroke-dasharray:none;stroke-dashoffset:0;stroke-opacity:1;marker-end:url(#marker7432);color-rendering:auto;image-rendering:auto;shape-rendering:auto;text-rendering:auto;enable-background:accumulate"
       d="m 79.522109,286.42531 h 3.85642"
       id="path7428"
       inkscape:connector-curvature="0" />
    <path
       style="color:#000000;clip-rule:nonzero;display:inline;overflow:visible;visibility:visible;opacity:1;isolation:auto;mix-blend-mode:normal;color-interpolation:sRGB;color-interpolation-filters:linearRGB;solid-color:#000000;solid-opacity:1;fill:none;fill-opacity:1;fill-rule:nonzero;stroke:#000000;stroke-width:0.26458335;stroke-linecap:round;stroke-linejoin:round;stroke-miterlimit:4;stroke-dasharray:none;stroke-dashoffset:0;stroke-opacity:1;marker-end:url(#marker7930);color-rendering:auto;image-rendering:auto;shape-rendering:auto;text-rendering:auto;enable-background:accumulate"
       d="m 95.144536,275.45613 v -3.85642"
       id="path7926"
       inkscape:connector-curvature="0" />
    <path
       style="color:#000000;clip-rule:nonzero;display:inline;overflow:visible;visibility:visible;opacity:1;isolation:auto;mix-blend-mode:normal;color-interpolation:sRGB;color-interpolation-filters:linearRGB;solid-color:#000000;solid-opacity:1;fill:none;fill-opacity:1;fill-rule:nonzero;stroke:#000000;stroke-width:0.26458335;stroke-linecap:round;stroke-linejoin:round;stroke-miterlimit:4;stroke-dasharray:none;stroke-dashoffset:0;stroke-opacity:1;marker-end:url(#marker8302);color-rendering:auto;image-rendering:auto;shape-rendering:auto;text-rendering:auto;enable-background:accumulate"
       d="m 49.130816,275.45613 v -3.85642"
       id="path8298"
       inkscape:connector-curvature="0" />
    <path
       inkscape:connector-curvature="0"
       id="path8526"
       d="m 6.7974799,274.39779 v -3.85642"
       style="color:#000000;clip-rule:nonzero;display:inline;overflow:visible;visibility:visible;opacity:1;isolation:auto;mix-blend-mode:normal;color-interpolation:sRGB;color-interpolation-filters:linearRGB;solid-color:#000000;solid-opacity:1;fill:none;fill-opacity:1;fill-rule:nonzero;stroke:#000000;stroke-width:0.26458335;stroke-linecap:round;stroke-linejoin:round;stroke-miterlimit:4;stroke-dasharray:none;stroke-dashoffset:0;stroke-opacity:1;marker-end:url(#marker8530);color-rendering:auto;image-rendering:auto;shape-rendering:auto;text-rendering:auto;enable-background:accumulate" />
    <path
       inkscape:connector-curvature="0"
       id="path8742"
       d="m 15.18431,259.9386 h 3.856427"
       style="color:#000000;clip-rule:nonzero;display:inline;overflow:visible;visibility:visible;opacity:1;isolation:auto;mix-blend-mode:normal;color-interpolation:sRGB;color-interpolation-filters:linearRGB;solid-color:#000000;solid-opacity:1;fill:none;fill-opacity:1;fill-rule:nonzero;stroke:#000000;stroke-width:0.26458335;stroke-linecap:round;stroke-linejoin:round;stroke-miterlimit:4;stroke-dasharray:none;stroke-dashoffset:0;stroke-opacity:1;marker-end:url(#marker8748);color-rendering:auto;image-rendering:auto;shape-rendering:auto;text-rendering:auto;enable-background:accumulate" />
    <path
       inkscape:connector-curvature="0"
       id="path8744"
       d="m 22.062632,286.42531 h 3.85642"
       style="color:#000000;clip-rule:nonzero;display:inline;overflow:visible;visibility:visible;opacity:1;isolation:auto;mix-blend-mode:normal;color-interpolation:sRGB;color-interpolation-filters:linearRGB;solid-color:#000000;solid-opacity:1;fill:none;fill-opacity:1;fill-rule:nonzero;stroke:#000000;stroke-width:0.26458335;stroke-linecap:round;stroke-linejoin:round;stroke-miterlimit:4;stroke-dasharray:none;stroke-dashoffset:0;stroke-opacity:1;marker-end:url(#marker7432);color-rendering:auto;image-rendering:auto;shape-rendering:auto;text-rendering:auto;enable-background:accumulate" />
    <path
       id="path9362"
       d="m 31.444414,258.78541 c -0.03969,0.16537 -0.0463,0.19844 -0.383645,0.19844 -0.06615,0 -0.112448,0 -0.112448,0.0794 0,0.0529 0.03307,0.0529 0.112448,0.0529 h 1.402291 c 0.873125,0 1.706562,-0.89297 1.706562,-1.81239 0,-0.59532 -0.357188,-1.07157 -0.992187,-1.07157 h -1.41552 c -0.07937,0 -0.125678,0 -0.125678,0.0794 0,0.0529 0.03307,0.0529 0.119064,0.0529 0.05292,0 0.132291,0.007 0.178593,0.007 0.07276,0.0132 0.0926,0.0198 0.0926,0.0728 0,0.0132 0,0.0265 -0.01323,0.0794 z m 0.912813,-2.26218 c 0.03969,-0.14553 0.0463,-0.15875 0.23151,-0.15875 h 0.449792 c 0.410104,0 0.760676,0.22489 0.760676,0.78052 0,0.20505 -0.07938,0.89958 -0.443177,1.3626 -0.119062,0.15875 -0.449791,0.47625 -0.972343,0.47625 h -0.476249 c -0.05953,0 -0.06615,0 -0.0926,0 -0.03969,-0.007 -0.05292,-0.0132 -0.05292,-0.0463 0,-0.0132 0,-0.0198 0.01984,-0.0926 z m 0,0"
       style="fill:#000000;fill-opacity:1;stroke:none;stroke-width:0"
       inkscape:connector-curvature="0" />
    <path
       id="path9364"
       d="m 26.942317,262.55242 c 0.0066,-0.0198 0.01984,-0.0463 0.01984,-0.0595 0,0 0,-0.0463 -0.05292,-0.0463 -0.03969,0 -0.0463,0.0265 -0.05292,0.0529 -0.277812,0.62177 -0.429948,0.9062 -1.150937,0.9062 h -0.615156 c -0.05953,0 -0.07276,0 -0.0926,0 -0.0463,-0.007 -0.05953,-0.0132 -0.05953,-0.0463 0,-0.0132 0,-0.0198 0.01984,-0.0926 l 0.291041,-1.15755 h 0.416719 c 0.357187,0 0.357187,0.0926 0.357187,0.19844 0,0.0265 0,0.0794 -0.02646,0.20505 -0.0066,0.0198 -0.01323,0.0331 -0.01323,0.0463 0,0.0199 0.01323,0.0463 0.05292,0.0463 0.03307,0 0.0463,-0.0198 0.06615,-0.086 l 0.238125,-0.98557 c 0,-0.0265 -0.01984,-0.0463 -0.05292,-0.0463 -0.03307,0 -0.0463,0.0265 -0.05292,0.0728 -0.0926,0.32412 -0.165364,0.42333 -0.555624,0.42333 h -0.396875 l 0.251354,-1.01864 c 0.03969,-0.15214 0.0463,-0.16537 0.23151,-0.16537 h 0.595312 c 0.509323,0 0.641615,0.11907 0.641615,0.46964 0,0.0992 0,0.10583 -0.01984,0.2249 0,0.0198 -0.0066,0.0529 -0.0066,0.0728 0,0.0198 0.01323,0.0529 0.05292,0.0529 0.0463,0 0.05292,-0.0265 0.05953,-0.10583 l 0.08599,-0.73422 c 0.01323,-0.11245 -0.0066,-0.11245 -0.112448,-0.11245 h -2.136509 c -0.07937,0 -0.125677,0 -0.125677,0.086 0,0.0463 0.03969,0.0463 0.119062,0.0463 0.15875,0 0.277813,0 0.277813,0.0728 0,0.0198 0,0.0265 -0.02646,0.10583 l -0.555624,2.22911 c -0.03969,0.16537 -0.0463,0.19844 -0.383646,0.19844 -0.07276,0 -0.119062,0 -0.119062,0.0794 0,0.0529 0.03969,0.0529 0.119062,0.0529 h 2.189426 c 0.09922,0 0.105833,-0.007 0.132291,-0.0728 z m 0,0"
       style="fill:#000000;fill-opacity:1;stroke:none;stroke-width:0"
       inkscape:connector-curvature="0" />
    <text
       xml:space="preserve"
       style="font-style:normal;font-variant:normal;font-weight:normal;font-stretch:normal;font-size:4.23333359px;line-height:125%;font-family:LMRoman12;-inkscape-font-specification:LMRoman12;text-align:center;letter-spacing:0px;word-spacing:0px;writing-mode:lr-tb;text-anchor:middle;fill:#000000;fill-opacity:1;stroke:none;stroke-width:0.26458335px;stroke-linecap:butt;stroke-linejoin:miter;stroke-opacity:1"
       x="58.213696"
       y="274.0451"
       id="text9368"><tspan
         sodipodi:role="line"
         id="tspan9366"
         x="58.213696"
         y="274.0451"
         style="stroke-width:0.26458335px">ಅಥವಾ</tspan></text>
    <text
       xml:space="preserve"
       style="font-style:normal;font-variant:normal;font-weight:normal;font-stretch:normal;font-size:4.23333359px;line-height:125%;font-family:LMRoman12;-inkscape-font-specification:LMRoman12;text-align:center;letter-spacing:0px;word-spacing:0px;writing-mode:lr-tb;text-anchor:middle;fill:#000000;fill-opacity:1;stroke:none;stroke-width:0.26458335px;stroke-linecap:butt;stroke-linejoin:miter;stroke-opacity:1"
       x="25.999422"
       y="292.22537"
       id="text9372"><tspan
         sodipodi:role="line"
         id="tspan9370"
         x="25.999422"
         y="292.22537"
         style="stroke-width:0.26458335px">ಆಯತ</tspan></text>
    <text
       id="text9376"
       y="292.22537"
       x="82.620255"
       style="font-style:normal;font-variant:normal;font-weight:normal;font-stretch:normal;font-size:4.23333359px;line-height:125%;font-family:LMRoman12;-inkscape-font-specification:LMRoman12;text-align:center;letter-spacing:0px;word-spacing:0px;writing-mode:lr-tb;text-anchor:middle;fill:#000000;fill-opacity:1;stroke:none;stroke-width:0.26458335px;stroke-linecap:butt;stroke-linejoin:miter;stroke-opacity:1"
       xml:space="preserve"><tspan
         style="stroke-width:0.26458335px"
         y="292.22537"
         x="82.620255"
         id="tspan9374"
         sodipodi:role="line">ಚೌರಸ</tspan></text>
  </g>
</svg>
