<?xml version="1.0" encoding="UTF-8" standalone="no"?>
<!-- Created with Inkscape (http://www.inkscape.org/) -->

<svg
   xmlns:dc="http://purl.org/dc/elements/1.1/"
   xmlns:cc="http://creativecommons.org/ns#"
   xmlns:rdf="http://www.w3.org/1999/02/22-rdf-syntax-ns#"
   xmlns:svg="http://www.w3.org/2000/svg"
   xmlns="http://www.w3.org/2000/svg"
   xmlns:sodipodi="http://sodipodi.sourceforge.net/DTD/sodipodi-0.dtd"
   xmlns:inkscape="http://www.inkscape.org/namespaces/inkscape"
   width="10cm"
   height="10cm"
   viewBox="0 0 100 100"
   version="1.1"
   id="svg882"
   inkscape:version="0.92.4 (unknown)"
   sodipodi:docname="fig1-15b.svg">
  <defs
     id="defs876">
    <marker
       inkscape:isstock="true"
       style="overflow:visible;"
       id="marker15998"
       refX="0.0"
       refY="0.0"
       orient="auto"
       inkscape:stockid="Arrow1Mend">
      <path
         transform="scale(0.4) rotate(180) translate(10,0)"
         style="fill-rule:evenodd;stroke:#000000;stroke-width:1pt;stroke-opacity:1;fill:#000000;fill-opacity:1"
         d="M 0.0,0.0 L 5.0,-5.0 L -12.5,0.0 L 5.0,5.0 L 0.0,0.0 z "
         id="path15996" />
    </marker>
    <marker
       inkscape:stockid="Arrow1Mend"
       orient="auto"
       refY="0.0"
       refX="0.0"
       id="marker15956"
       style="overflow:visible;"
       inkscape:isstock="true"
       inkscape:collect="always">
      <path
         id="path15954"
         d="M 0.0,0.0 L 5.0,-5.0 L -12.5,0.0 L 5.0,5.0 L 0.0,0.0 z "
         style="fill-rule:evenodd;stroke:#000000;stroke-width:1pt;stroke-opacity:1;fill:#000000;fill-opacity:1"
         transform="scale(0.4) rotate(180) translate(10,0)" />
    </marker>
    <marker
       inkscape:stockid="Arrow1Mend"
       orient="auto"
       refY="0.0"
       refX="0.0"
       id="marker11689"
       style="overflow:visible;"
       inkscape:isstock="true">
      <path
         id="path11687"
         d="M 0.0,0.0 L 5.0,-5.0 L -12.5,0.0 L 5.0,5.0 L 0.0,0.0 z "
         style="fill-rule:evenodd;stroke:#000000;stroke-width:1pt;stroke-opacity:1;fill:#000000;fill-opacity:1"
         transform="scale(0.4) rotate(180) translate(10,0)" />
    </marker>
  </defs>
  <sodipodi:namedview
     id="base"
     pagecolor="#ffffff"
     bordercolor="#666666"
     borderopacity="1.0"
     inkscape:pageopacity="0.0"
     inkscape:pageshadow="2"
     inkscape:zoom="1.4472708"
     inkscape:cx="188.97638"
     inkscape:cy="188.97638"
     inkscape:document-units="cm"
     inkscape:current-layer="layer1"
     showgrid="false"
     units="cm"
     inkscape:window-width="753"
     inkscape:window-height="716"
     inkscape:window-x="0"
     inkscape:window-y="24"
     inkscape:window-maximized="0">
    <inkscape:grid
       id="grid1452"
       type="xygrid" />
  </sodipodi:namedview>
  <metadata
     id="metadata879">
    <rdf:RDF>
      <cc:Work
         rdf:about="">
        <dc:format>image/svg+xml</dc:format>
        <dc:type
           rdf:resource="http://purl.org/dc/dcmitype/StillImage" />
        <dc:title></dc:title>
      </cc:Work>
    </rdf:RDF>
  </metadata>
  <g
     inkscape:label="Layer 1"
     inkscape:groupmode="layer"
     id="layer1"
     transform="translate(0,-197.00001)">
    <path
       inkscape:connector-curvature="0"
       id="path15317"
       d="m 16.045118,215.51017 c -1.374108,3.34792 -1.347249,6.61801 0,9.81474"
       style="color:#000000;clip-rule:nonzero;display:inline;overflow:visible;visibility:visible;opacity:1;isolation:auto;mix-blend-mode:normal;color-interpolation:sRGB;color-interpolation-filters:linearRGB;solid-color:#000000;solid-opacity:1;fill:none;fill-opacity:1;fill-rule:nonzero;stroke:#000000;stroke-width:0.26458332;stroke-linecap:round;stroke-linejoin:round;stroke-miterlimit:4;stroke-dasharray:none;stroke-dashoffset:0;stroke-opacity:1;marker-end:url(#marker15956);color-rendering:auto;image-rendering:auto;shape-rendering:auto;text-rendering:auto;enable-background:accumulate"
       sodipodi:nodetypes="cc" />
    <rect
       style="color:#000000;clip-rule:nonzero;display:inline;overflow:visible;visibility:visible;opacity:1;isolation:auto;mix-blend-mode:normal;color-interpolation:sRGB;color-interpolation-filters:linearRGB;solid-color:#000000;solid-opacity:1;fill:none;fill-opacity:1;fill-rule:evenodd;stroke:#000000;stroke-width:0.26458332;stroke-linecap:butt;stroke-linejoin:round;stroke-miterlimit:4;stroke-dasharray:none;stroke-dashoffset:0;stroke-opacity:1;color-rendering:auto;image-rendering:auto;shape-rendering:auto;text-rendering:auto;enable-background:accumulate"
       id="rect15937"
       width="21.166668"
       height="26.458338"
       x="5.2916665"
       y="207.04167" />
    <rect
       y="220.27084"
       x="39.6875"
       height="13.22917"
       width="21.166666"
       id="rect15939"
       style="color:#000000;clip-rule:nonzero;display:inline;overflow:visible;visibility:visible;opacity:1;isolation:auto;mix-blend-mode:normal;color-interpolation:sRGB;color-interpolation-filters:linearRGB;solid-color:#000000;solid-opacity:1;fill:none;fill-opacity:1;fill-rule:evenodd;stroke:#000000;stroke-width:0.26458332;stroke-linecap:butt;stroke-linejoin:round;stroke-miterlimit:4;stroke-dasharray:none;stroke-dashoffset:0;stroke-opacity:1;color-rendering:auto;image-rendering:auto;shape-rendering:auto;text-rendering:auto;enable-background:accumulate" />
    <path
       style="color:#000000;clip-rule:nonzero;display:inline;overflow:visible;visibility:visible;opacity:1;isolation:auto;mix-blend-mode:normal;color-interpolation:sRGB;color-interpolation-filters:linearRGB;solid-color:#000000;solid-opacity:1;fill:none;fill-opacity:1;fill-rule:evenodd;stroke:#000000;stroke-width:0.26458332;stroke-linecap:butt;stroke-linejoin:round;stroke-miterlimit:4;stroke-dasharray:none;stroke-dashoffset:0;stroke-opacity:1;color-rendering:auto;image-rendering:auto;shape-rendering:auto;text-rendering:auto;enable-background:accumulate"
       d="m 75.406249,212.33335 h 13.229167 l 6.614583,21.16666 H 68.791666 Z"
       id="rect15946"
       inkscape:connector-curvature="0"
       sodipodi:nodetypes="ccccc" />
    <path
       inkscape:connector-curvature="0"
       style="fill:#000000;fill-opacity:1;stroke:none;stroke-width:0"
       d="m 36.613378,222.34185 c -0.14455,0.24284 -0.289102,0.29488 -0.450999,0.30645 -0.04626,0.006 -0.08095,0.006 -0.08095,0.0752 0,0.0232 0.02313,0.0405 0.05204,0.0405 0.0983,0 0.213936,-0.0116 0.31223,-0.0116 0.127205,0 0.254409,0.0116 0.37005,0.0116 0.02313,0 0.06939,0 0.06939,-0.0694 0,-0.0405 -0.02891,-0.0462 -0.05782,-0.0462 -0.08095,-0.006 -0.173461,-0.0348 -0.173461,-0.12721 0,-0.0462 0.02313,-0.0867 0.05204,-0.13877 l 0.28332,-0.46834 h 0.925127 c 0.0057,0.0751 0.05782,0.5782 0.05782,0.61289 0,0.10985 -0.190807,0.12143 -0.265973,0.12143 -0.05204,0 -0.08673,0 -0.08673,0.0752 0,0.0405 0.04047,0.0405 0.05204,0.0405 0.150332,0 0.306448,-0.0116 0.456781,-0.0116 0.09251,0 0.329576,0.0116 0.422089,0.0116 0.01735,0 0.0636,0 0.0636,-0.0752 0,-0.0405 -0.03469,-0.0405 -0.08673,-0.0405 -0.2255,0 -0.2255,-0.0232 -0.237064,-0.13299 l -0.2255,-2.30125 c -0.0057,-0.0751 -0.0057,-0.0925 -0.06938,-0.0925 -0.05782,0 -0.07517,0.0289 -0.0983,0.0636 z m 0.445217,-0.54351 0.722754,-1.22001 0.121423,1.22001 z m 0,0"
       id="path16290" />
    <path
       inkscape:connector-curvature="0"
       style="fill:#000000;fill-opacity:1;stroke:none;stroke-width:0"
       d="m 3.8849017,220.40624 c 0.0057,-0.0173 0.01735,-0.0405 0.01735,-0.0521 0,0 0,-0.0405 -0.04626,-0.0405 -0.03469,0 -0.04047,0.0232 -0.04626,0.0462 -0.242845,0.54352 -0.375832,0.79215 -1.006075,0.79215 h -0.537729 c -0.05204,0 -0.0636,0 -0.08095,0 -0.04047,-0.006 -0.05204,-0.0116 -0.05204,-0.0405 0,-0.0116 0,-0.0173 0.01735,-0.081 l 0.254411,-1.01185 h 0.364267 c 0.312231,0 0.312231,0.081 0.312231,0.17345 0,0.0232 0,0.0694 -0.02313,0.17925 -0.0057,0.0173 -0.01156,0.0289 -0.01156,0.0405 0,0.0173 0.01156,0.0405 0.04626,0.0405 0.02891,0 0.04047,-0.0173 0.05782,-0.0751 l 0.208153,-0.86153 c 0,-0.0232 -0.01735,-0.0405 -0.04626,-0.0405 -0.02891,0 -0.04047,0.0232 -0.04626,0.0636 -0.08095,0.28331 -0.144551,0.37005 -0.485691,0.37005 h -0.346923 l 0.219718,-0.89043 c 0.03469,-0.13299 0.04047,-0.14456 0.202371,-0.14456 h 0.520383 c 0.445217,0 0.560858,0.10412 0.560858,0.41053 0,0.0867 0,0.0925 -0.01735,0.19659 0,0.0173 -0.0057,0.0462 -0.0057,0.0636 0,0.0173 0.01156,0.0462 0.04626,0.0462 0.04047,0 0.04626,-0.0232 0.05204,-0.0925 l 0.07517,-0.64179 c 0.01156,-0.0983 -0.0057,-0.0983 -0.0983,-0.0983 h -1.867597 c -0.06939,0 -0.109858,0 -0.109858,0.0752 0,0.0405 0.03469,0.0405 0.104078,0.0405 0.138768,0 0.242845,0 0.242845,0.0636 0,0.0173 0,0.0232 -0.02313,0.0925 l -0.485692,1.94855 c -0.03469,0.14455 -0.04047,0.17346 -0.335358,0.17346 -0.0636,0 -0.104078,0 -0.104078,0.0694 0,0.0462 0.03469,0.0462 0.104078,0.0462 h 1.913854 c 0.08673,0 0.09252,-0.006 0.115641,-0.0636 z m 0,0"
       id="path16304" />
    <path
       id="path16371"
       d="m 28.658355,220.42047 h 0.358487 c 0.277538,0 0.306447,0.0578 0.306447,0.16189 0,0.0289 0,0.0694 -0.02313,0.18503 -0.01156,0.0173 -0.01156,0.0289 -0.01156,0.0405 0,0.0289 0.02313,0.0405 0.04047,0.0405 0.04047,0 0.04047,-0.0116 0.05782,-0.0751 l 0.202371,-0.80371 c 0.01156,-0.0405 0.01156,-0.0462 0.01156,-0.0578 0,-0.006 -0.0057,-0.0405 -0.04626,-0.0405 -0.03469,0 -0.04047,0.0173 -0.05204,0.081 -0.08095,0.28332 -0.161897,0.3527 -0.47991,0.3527 h -0.335358 l 0.237064,-0.93668 c 0.03469,-0.13299 0.04047,-0.14456 0.202371,-0.14456 h 0.485691 c 0.450999,0 0.537729,0.12143 0.537729,0.40474 0,0.0867 0,0.0983 -0.01156,0.20238 -0.0057,0.0462 -0.0057,0.0521 -0.0057,0.0636 0,0.0173 0.01156,0.0462 0.04626,0.0462 0.04047,0 0.04047,-0.0232 0.04626,-0.0926 l 0.07517,-0.64179 c 0.01156,-0.0983 -0.0057,-0.0983 -0.0983,-0.0983 H 28.39246 c -0.06939,0 -0.109858,0 -0.109858,0.0752 0,0.0405 0.03469,0.0405 0.104078,0.0405 0.138769,0 0.242845,0 0.242845,0.0636 0,0.0173 0,0.0232 -0.02313,0.0925 l -0.485691,1.94855 c -0.03469,0.14455 -0.04047,0.17346 -0.335358,0.17346 -0.0636,0 -0.104079,0 -0.104079,0.0694 0,0.0462 0.04626,0.0462 0.05782,0.0462 0.104078,0 0.381614,-0.0116 0.485691,-0.0116 0.121423,0 0.427871,0.0116 0.549294,0.0116 0.03469,0 0.07517,0 0.07517,-0.0694 0,-0.0289 -0.01735,-0.0405 -0.01735,-0.0405 -0.01156,-0.006 -0.02313,-0.006 -0.104078,-0.006 -0.08095,0 -0.0983,0 -0.190808,-0.006 -0.109858,-0.0116 -0.121422,-0.0289 -0.121422,-0.0752 0,-0.006 0,-0.0289 0.01735,-0.081 z m 0,0"
       style="fill:#000000;fill-opacity:1;stroke:none;stroke-width:0"
       inkscape:connector-curvature="0" />
    <path
       inkscape:connector-curvature="0"
       style="fill:#000000;fill-opacity:1;stroke:none;stroke-width:0"
       d="m 1.8701035,208.08897 c -0.1445503,0.24284 -0.2891018,0.29488 -0.4509989,0.30645 -0.04626,0.006 -0.080949,0.006 -0.080949,0.0752 0,0.0232 0.02313,0.0405 0.052039,0.0405 0.098299,0 0.2139363,-0.0116 0.3122304,-0.0116 0.1272048,0 0.2544095,0.0116 0.3700504,0.0116 0.02313,0 0.069389,0 0.069389,-0.0694 0,-0.0405 -0.028909,-0.0462 -0.057819,-0.0462 -0.080948,-0.006 -0.1734608,-0.0348 -0.1734608,-0.12721 0,-0.0462 0.02313,-0.0867 0.052039,-0.13877 l 0.28332,-0.46834 h 0.9251265 c 0.00573,0.0751 0.057819,0.5782 0.057819,0.61289 0,0.10985 -0.1908076,0.12143 -0.2659732,0.12143 -0.052039,0 -0.086728,0 -0.086728,0.0752 0,0.0405 0.040469,0.0405 0.052039,0.0405 0.1503322,0 0.3064475,-0.0116 0.4567808,-0.0116 0.092508,0 0.3295761,0.0116 0.4220885,0.0116 0.01735,0 0.063598,0 0.063598,-0.0752 0,-0.0405 -0.034689,-0.0405 -0.086728,-0.0405 -0.2255001,0 -0.2255001,-0.0232 -0.2370638,-0.13299 l -0.2255,-2.30125 c -0.00573,-0.0751 -0.00573,-0.0925 -0.069378,-0.0925 -0.057819,0 -0.075169,0.0289 -0.098299,0.0636 z m 0.4452171,-0.54351 0.722754,-1.22001 0.1214228,1.22001 z m 0,0"
       id="path16373" />
    <path
       inkscape:connector-curvature="0"
       style="fill:#000000;fill-opacity:1;stroke:none;stroke-width:0"
       d="m 2.0528434,234.58386 c -0.034689,0.14456 -0.046259,0.17346 -0.3353583,0.17346 -0.063598,0 -0.098299,0 -0.098299,0.0752 0,0.0405 0.034689,0.0405 0.098299,0.0405 h 1.3183047 c 0.5839856,0 1.0176389,-0.43365 1.0176389,-0.79793 0,-0.26596 -0.2139352,-0.4799 -0.5724218,-0.52038 0.3816142,-0.0694 0.7690113,-0.34113 0.7690113,-0.69383 0,-0.27177 -0.2428457,-0.50883 -0.6822808,-0.50883 H 2.3245996 c -0.069389,0 -0.1040783,0 -0.1040783,0.0751 0,0.0405 0.034689,0.0405 0.1040783,0.0405 0.00573,0 0.075169,0 0.1387685,0.006 0.063598,0.0116 0.098299,0.0116 0.098299,0.0636 0,0.0116 -0.00573,0.0232 -0.011559,0.0694 z m 0.5550761,-1.06389 0.2312808,-0.91357 c 0.034689,-0.12721 0.040469,-0.13876 0.1965895,-0.13876 h 0.4799095 c 0.3237942,0 0.3989609,0.21971 0.3989609,0.38161 0,0.32379 -0.3180123,0.67072 -0.7632294,0.67072 z m -0.1618971,1.23735 c -0.052039,0 -0.057819,0 -0.080948,0 -0.040469,-0.006 -0.052039,-0.0116 -0.052039,-0.0405 0,-0.0116 0,-0.0173 0.02313,-0.081 l 0.2544094,-1.0292 h 0.6938446 c 0.3527048,0 0.4278715,0.27176 0.4278715,0.42788 0,0.36426 -0.3295762,0.72275 -0.7690113,0.72275 z m 0,0"
       id="path16375" />
    <path
       inkscape:connector-curvature="0"
       style="fill:#000000;fill-opacity:1;stroke:none;stroke-width:0"
       d="m 29.825629,232.80733 c 0,-0.0116 -0.0057,-0.0405 -0.04047,-0.0405 -0.01156,0 -0.01735,0.006 -0.05782,0.0462 l -0.25441,0.28333 c -0.03469,-0.0521 -0.202371,-0.32958 -0.612896,-0.32958 -0.826831,0 -1.653663,0.81527 -1.653663,1.67101 0,0.60711 0.433653,1.01186 1.000293,1.01186 0.318012,0 0.601331,-0.14455 0.797921,-0.31802 0.341141,-0.30066 0.404743,-0.63602 0.404743,-0.64759 0,-0.0405 -0.04047,-0.0405 -0.04626,-0.0405 -0.02313,0 -0.04047,0.0116 -0.04626,0.0405 -0.03469,0.10413 -0.121422,0.37006 -0.375832,0.58399 -0.254409,0.20237 -0.485691,0.26598 -0.676499,0.26598 -0.329576,0 -0.722754,-0.19081 -0.722754,-0.76324 0,-0.21392 0.07517,-0.80948 0.445216,-1.24314 0.2255,-0.26018 0.572422,-0.44521 0.901998,-0.44521 0.375833,0 0.59555,0.28332 0.59555,0.71119 0,0.15034 -0.01156,0.15034 -0.01156,0.1908 0,0.0348 0.04047,0.0348 0.05204,0.0348 0.04626,0 0.04626,-0.006 0.06939,-0.0751 z m 0,0"
       id="path16377" />
    <path
       inkscape:connector-curvature="0"
       style="fill:#000000;fill-opacity:1;stroke:none;stroke-width:0"
       d="m 27.497026,208.43844 c -0.03469,0.14455 -0.04047,0.17346 -0.335358,0.17346 -0.05782,0 -0.0983,0 -0.0983,0.0694 0,0.0462 0.02891,0.0462 0.0983,0.0462 h 1.225792 c 0.763229,0 1.491766,-0.78058 1.491766,-1.58429 0,-0.52038 -0.31223,-0.93668 -0.867306,-0.93668 h -1.237356 c -0.06939,0 -0.109858,0 -0.109858,0.0694 0,0.0462 0.02891,0.0462 0.104079,0.0462 0.04626,0 0.115641,0.006 0.156115,0.006 0.0636,0.0116 0.08095,0.0173 0.08095,0.0636 0,0.0116 0,0.0232 -0.01156,0.0694 z m 0.797922,-1.97746 c 0.03469,-0.12721 0.04047,-0.13877 0.202371,-0.13877 h 0.393178 c 0.358487,0 0.664934,0.19659 0.664934,0.68228 0,0.17925 -0.06939,0.78636 -0.387396,1.1911 -0.104078,0.13877 -0.393179,0.41631 -0.84996,0.41631 h -0.416306 c -0.05204,0 -0.05782,0 -0.08095,0 -0.03469,-0.006 -0.04626,-0.0116 -0.04626,-0.0405 0,-0.0116 0,-0.0173 0.01735,-0.081 z m 0,0"
       id="path16379" />
    <path
       style="color:#000000;clip-rule:nonzero;display:inline;overflow:visible;visibility:visible;opacity:1;isolation:auto;mix-blend-mode:normal;color-interpolation:sRGB;color-interpolation-filters:linearRGB;solid-color:#000000;solid-opacity:1;fill:none;fill-opacity:1;fill-rule:nonzero;stroke:#000000;stroke-width:0.26458332;stroke-linecap:round;stroke-linejoin:round;stroke-miterlimit:4;stroke-dasharray:1.05833326, 1.05833326;stroke-dashoffset:0;stroke-opacity:1;color-rendering:auto;image-rendering:auto;shape-rendering:auto;text-rendering:auto;enable-background:accumulate"
       d="M 5.2916668,220.27085 H 26.458333"
       id="path16522"
       inkscape:connector-curvature="0" />
    <path
       style="color:#000000;clip-rule:nonzero;display:inline;overflow:visible;visibility:visible;opacity:1;isolation:auto;mix-blend-mode:normal;color-interpolation:sRGB;color-interpolation-filters:linearRGB;solid-color:#000000;solid-opacity:1;fill:none;fill-opacity:1;fill-rule:evenodd;stroke:#000000;stroke-width:0.26458332;stroke-linecap:butt;stroke-linejoin:round;stroke-miterlimit:4;stroke-dasharray:none;stroke-dashoffset:0;stroke-opacity:1;color-rendering:auto;image-rendering:auto;shape-rendering:auto;text-rendering:auto;enable-background:accumulate"
       d="m 39.6875,220.80002 h 21.166666 v 12.7 H 39.6875 Z"
       id="rect16524"
       inkscape:connector-curvature="0"
       sodipodi:nodetypes="ccccc" />
    <path
       style="color:#000000;clip-rule:nonzero;display:inline;overflow:visible;visibility:visible;opacity:1;isolation:auto;mix-blend-mode:normal;color-interpolation:sRGB;color-interpolation-filters:linearRGB;solid-color:#000000;solid-opacity:1;fill:none;fill-opacity:1;fill-rule:nonzero;stroke:#000000;stroke-width:0.26458332;stroke-linecap:round;stroke-linejoin:round;stroke-miterlimit:4;stroke-dasharray:none;stroke-dashoffset:0;stroke-opacity:1;color-rendering:auto;image-rendering:auto;shape-rendering:auto;text-rendering:auto;enable-background:accumulate"
       d="M 60.854166,222.91668 39.6875,225.56251"
       id="path16527"
       inkscape:connector-curvature="0" />
    <path
       id="path16529"
       d="m 38.377707,218.68365 c -0.03469,0.14456 -0.04626,0.17346 -0.335358,0.17346 -0.0636,0 -0.0983,0 -0.0983,0.0752 0,0.0405 0.03469,0.0405 0.0983,0.0405 h 1.318304 c 0.583986,0 1.017639,-0.43365 1.017639,-0.79793 0,-0.26596 -0.213935,-0.4799 -0.572421,-0.52038 0.381614,-0.0694 0.769011,-0.34113 0.769011,-0.69383 0,-0.27177 -0.242846,-0.50883 -0.682281,-0.50883 h -1.243138 c -0.06939,0 -0.104078,0 -0.104078,0.0751 0,0.0405 0.03469,0.0405 0.104078,0.0405 0.0057,0 0.07517,0 0.138769,0.006 0.0636,0.0116 0.0983,0.0116 0.0983,0.0636 0,0.0116 -0.0057,0.0232 -0.01156,0.0694 z m 0.555076,-1.06389 0.231281,-0.91357 c 0.03469,-0.12721 0.04047,-0.13876 0.196589,-0.13876 h 0.47991 c 0.323794,0 0.398961,0.21971 0.398961,0.38161 0,0.32379 -0.318012,0.67072 -0.76323,0.67072 z m -0.161897,1.23735 c -0.05204,0 -0.05782,0 -0.08095,0 -0.04047,-0.006 -0.05204,-0.0116 -0.05204,-0.0405 0,-0.0116 0,-0.0173 0.02313,-0.081 l 0.254409,-1.0292 h 0.693845 c 0.352705,0 0.427872,0.27176 0.427872,0.42788 0,0.36426 -0.329577,0.72275 -0.769012,0.72275 z m 0,0"
       style="fill:#000000;fill-opacity:1;stroke:none;stroke-width:0"
       inkscape:connector-curvature="0" />
    <path
       id="path16531"
       d="m 63.440353,216.90621 c 0,-0.0116 -0.0057,-0.0405 -0.04047,-0.0405 -0.01156,0 -0.01735,0.006 -0.05782,0.0462 l -0.25441,0.28333 c -0.03469,-0.0521 -0.202371,-0.32958 -0.612896,-0.32958 -0.826831,0 -1.653663,0.81527 -1.653663,1.67101 0,0.60711 0.433653,1.01186 1.000293,1.01186 0.318012,0 0.601331,-0.14455 0.797921,-0.31802 0.341141,-0.30066 0.404743,-0.63602 0.404743,-0.64759 0,-0.0405 -0.04047,-0.0405 -0.04626,-0.0405 -0.02313,0 -0.04047,0.0116 -0.04626,0.0405 -0.03469,0.10413 -0.121422,0.37006 -0.375832,0.58399 -0.254409,0.20237 -0.485691,0.26598 -0.676499,0.26598 -0.329576,0 -0.722754,-0.19081 -0.722754,-0.76324 0,-0.21392 0.07517,-0.80948 0.445216,-1.24314 0.2255,-0.26018 0.572422,-0.44521 0.901998,-0.44521 0.375833,0 0.59555,0.28332 0.59555,0.71119 0,0.15034 -0.01156,0.15034 -0.01156,0.1908 0,0.0348 0.04047,0.0348 0.05204,0.0348 0.04626,0 0.04626,-0.006 0.06939,-0.0751 z m 0,0"
       style="fill:#000000;fill-opacity:1;stroke:none;stroke-width:0"
       inkscape:connector-curvature="0" />
    <path
       id="path16533"
       d="m 62.770595,221.62848 c -0.03469,0.14456 -0.04047,0.17347 -0.335358,0.17347 -0.05782,0 -0.0983,0 -0.0983,0.0694 0,0.0462 0.02891,0.0462 0.0983,0.0462 h 1.225792 c 0.763229,0 1.491766,-0.78058 1.491766,-1.58428 0,-0.52038 -0.31223,-0.93669 -0.867306,-0.93669 h -1.237356 c -0.06939,0 -0.109858,0 -0.109858,0.0694 0,0.0462 0.02891,0.0462 0.104079,0.0462 0.04626,0 0.115641,0.006 0.156115,0.006 0.0636,0.0116 0.08095,0.0173 0.08095,0.0636 0,0.0116 0,0.0232 -0.01156,0.0694 z m 0.797922,-1.97746 c 0.03469,-0.1272 0.04047,-0.13876 0.202372,-0.13876 h 0.393177 c 0.358487,0 0.664935,0.19658 0.664935,0.68227 0,0.17925 -0.06939,0.78636 -0.387396,1.1911 -0.104079,0.13877 -0.39318,0.41632 -0.84996,0.41632 h -0.416307 c -0.05204,0 -0.05782,0 -0.08095,0 -0.03469,-0.006 -0.04626,-0.0116 -0.04626,-0.0405 0,-0.0116 0,-0.0173 0.01735,-0.081 z m 0,0"
       style="fill:#000000;fill-opacity:1;stroke:none;stroke-width:0"
       inkscape:connector-curvature="0" />
    <path
       inkscape:connector-curvature="0"
       style="fill:#000000;fill-opacity:1;stroke:none;stroke-width:0"
       d="m 37.973911,225.67557 c 0.02686,-0.10743 0.127561,-0.50353 0.422964,-0.50353 0.02015,0 0.127561,0 0.214839,0.0537 -0.120848,0.0269 -0.201412,0.12756 -0.201412,0.23498 0,0.0671 0.047,0.1477 0.16113,0.1477 0.09399,0 0.228267,-0.0738 0.228267,-0.24841 0,-0.22155 -0.248408,-0.28197 -0.39611,-0.28197 -0.248406,0 -0.396109,0.22827 -0.449818,0.32226 -0.107414,-0.28198 -0.335686,-0.32226 -0.463246,-0.32226 -0.443105,0 -0.691512,0.55053 -0.691512,0.65794 0,0.047 0.04699,0.047 0.05371,0.047 0.03357,0 0.04699,-0.0134 0.05371,-0.047 0.147702,-0.45652 0.429677,-0.56395 0.577379,-0.56395 0.08057,0 0.228266,0.0403 0.228266,0.28869 0,0.13428 -0.07385,0.41625 -0.228266,1.02048 -0.06714,0.26184 -0.221552,0.4431 -0.409536,0.4431 -0.02686,0 -0.120849,0 -0.214839,-0.0537 0.107414,-0.0269 0.201412,-0.11412 0.201412,-0.23498 0,-0.11413 -0.09399,-0.14771 -0.154416,-0.14771 -0.134274,0 -0.234979,0.10743 -0.234979,0.24841 0,0.19471 0.208125,0.28199 0.396108,0.28199 0.28869,0 0.443106,-0.30212 0.449819,-0.32227 0.05371,0.15442 0.208125,0.32227 0.463245,0.32227 0.443106,0 0.684799,-0.55053 0.684799,-0.65796 0,-0.047 -0.03357,-0.047 -0.04699,-0.047 -0.04028,0 -0.04699,0.0201 -0.06042,0.047 -0.140988,0.46325 -0.429678,0.56395 -0.563952,0.56395 -0.167842,0 -0.23498,-0.13427 -0.23498,-0.28197 0,-0.094 0.02014,-0.18799 0.06714,-0.37597 z m 0,0"
       id="path16570" />
    <path
       inkscape:connector-curvature="0"
       style="fill:#000000;fill-opacity:1;stroke:none;stroke-width:0"
       d="m 63.660765,223.23333 c 0.02014,-0.0604 0.02014,-0.0671 0.02014,-0.10073 0,-0.0738 -0.06042,-0.11412 -0.127561,-0.11412 -0.04028,0 -0.107413,0.0269 -0.147702,0.0873 -0.0067,0.0268 -0.04699,0.1544 -0.06042,0.23497 -0.03357,0.10742 -0.06042,0.22826 -0.08728,0.3424 l -0.194696,0.77208 c -0.01342,0.0604 -0.201412,0.36253 -0.483388,0.36253 -0.214839,0 -0.261835,-0.18798 -0.261835,-0.34911 0,-0.1947 0.07385,-0.46325 0.214839,-0.83922 0.06713,-0.17454 0.08728,-0.22155 0.08728,-0.30883 0,-0.18798 -0.134274,-0.34911 -0.349112,-0.34911 -0.409536,0 -0.563952,0.62438 -0.563952,0.65794 0,0.047 0.04028,0.047 0.04699,0.047 0.047,0 0.047,-0.0134 0.06714,-0.0806 0.120848,-0.40282 0.288689,-0.53038 0.436391,-0.53038 0.03357,0 0.107414,0 0.107414,0.13428 0,0.10742 -0.04699,0.22155 -0.07385,0.30211 -0.174558,0.45653 -0.248408,0.69823 -0.248408,0.89964 0,0.38267 0.268548,0.51024 0.523669,0.51024 0.167843,0 0.308831,-0.0738 0.429678,-0.1947 -0.05371,0.22155 -0.107414,0.43639 -0.275262,0.66466 -0.114137,0.14098 -0.275263,0.26854 -0.46996,0.26854 -0.06042,0 -0.255121,-0.0134 -0.328972,-0.18127 0.06714,0 0.127561,0 0.18127,-0.0537 0.04699,-0.0336 0.08728,-0.094 0.08728,-0.17456 0,-0.13427 -0.114137,-0.14771 -0.154415,-0.14771 -0.100703,0 -0.241694,0.0671 -0.241694,0.27527 0,0.21484 0.187983,0.37596 0.456533,0.37596 0.436391,0 0.879495,-0.38939 1.000342,-0.87278 z m 0,0"
       id="path16572" />
    <path
       id="path16596"
       d="m 38.251389,233.94456 c 0.0057,-0.0173 0.01735,-0.0405 0.01735,-0.0521 0,0 0,-0.0405 -0.04626,-0.0405 -0.03469,0 -0.04047,0.0232 -0.04626,0.0462 -0.242845,0.54352 -0.375832,0.79215 -1.006075,0.79215 h -0.537729 c -0.05204,0 -0.0636,0 -0.08095,0 -0.04047,-0.006 -0.05204,-0.0116 -0.05204,-0.0405 0,-0.0116 0,-0.0173 0.01735,-0.081 l 0.254411,-1.01185 h 0.364267 c 0.312231,0 0.312231,0.081 0.312231,0.17345 0,0.0232 0,0.0694 -0.02313,0.17925 -0.0057,0.0173 -0.01156,0.0289 -0.01156,0.0405 0,0.0173 0.01156,0.0405 0.04626,0.0405 0.02891,0 0.04047,-0.0173 0.05782,-0.0751 l 0.208153,-0.86153 c 0,-0.0232 -0.01735,-0.0405 -0.04626,-0.0405 -0.02891,0 -0.04047,0.0232 -0.04626,0.0636 -0.08095,0.28331 -0.144551,0.37005 -0.485691,0.37005 h -0.346923 l 0.219718,-0.89043 c 0.03469,-0.13299 0.04047,-0.14456 0.202371,-0.14456 h 0.520383 c 0.445217,0 0.560858,0.10412 0.560858,0.41053 0,0.0867 0,0.0925 -0.01735,0.19659 0,0.0173 -0.0057,0.0462 -0.0057,0.0636 0,0.0173 0.01156,0.0462 0.04626,0.0462 0.04047,0 0.04626,-0.0232 0.05204,-0.0925 l 0.07517,-0.64179 c 0.01156,-0.0983 -0.0057,-0.0983 -0.0983,-0.0983 h -1.867597 c -0.06939,0 -0.109858,0 -0.109858,0.0752 0,0.0405 0.03469,0.0405 0.104078,0.0405 0.138768,0 0.242845,0 0.242845,0.0636 0,0.0173 0,0.0232 -0.02313,0.0925 l -0.485692,1.94855 c -0.03469,0.14455 -0.04047,0.17346 -0.335358,0.17346 -0.0636,0 -0.104078,0 -0.104078,0.0694 0,0.0462 0.03469,0.0462 0.104078,0.0462 h 1.913854 c 0.08673,0 0.09252,-0.006 0.115641,-0.0636 z m 0,0"
       style="fill:#000000;fill-opacity:1;stroke:none;stroke-width:0"
       inkscape:connector-curvature="0" />
    <path
       inkscape:connector-curvature="0"
       style="fill:#000000;fill-opacity:1;stroke:none;stroke-width:0"
       d="m 62.76449,233.82861 h 0.358487 c 0.277538,0 0.306447,0.0578 0.306447,0.16189 0,0.0289 0,0.0694 -0.02313,0.18503 -0.01156,0.0173 -0.01156,0.0289 -0.01156,0.0405 0,0.0289 0.02313,0.0405 0.04047,0.0405 0.04047,0 0.04047,-0.0116 0.05782,-0.0751 l 0.202371,-0.80371 c 0.01156,-0.0405 0.01156,-0.0462 0.01156,-0.0578 0,-0.006 -0.0057,-0.0405 -0.04626,-0.0405 -0.03469,0 -0.04047,0.0173 -0.05204,0.081 -0.08095,0.28332 -0.161897,0.3527 -0.47991,0.3527 h -0.335358 l 0.237064,-0.93668 c 0.03469,-0.13299 0.04047,-0.14456 0.202371,-0.14456 h 0.485691 c 0.450999,0 0.537729,0.12143 0.537729,0.40474 0,0.0867 0,0.0983 -0.01156,0.20238 -0.0057,0.0462 -0.0057,0.0521 -0.0057,0.0636 0,0.0173 0.01156,0.0462 0.04626,0.0462 0.04047,0 0.04047,-0.0232 0.04626,-0.0926 l 0.07517,-0.64179 c 0.01156,-0.0983 -0.0057,-0.0983 -0.0983,-0.0983 h -1.809777 c -0.06939,0 -0.109858,0 -0.109858,0.0752 0,0.0405 0.03469,0.0405 0.104078,0.0405 0.138769,0 0.242845,0 0.242845,0.0636 0,0.0173 0,0.0232 -0.02313,0.0925 l -0.485691,1.94855 c -0.03469,0.14455 -0.04047,0.17346 -0.335358,0.17346 -0.0636,0 -0.104079,0 -0.104079,0.0694 0,0.0462 0.04626,0.0462 0.05782,0.0462 0.104078,0 0.381614,-0.0116 0.485691,-0.0116 0.121423,0 0.427871,0.0116 0.549294,0.0116 0.03469,0 0.07517,0 0.07517,-0.0694 0,-0.0289 -0.01735,-0.0405 -0.01735,-0.0405 -0.01156,-0.006 -0.02313,-0.006 -0.104078,-0.006 -0.08095,0 -0.0983,0 -0.190808,-0.006 -0.109858,-0.0116 -0.121422,-0.0289 -0.121422,-0.0752 0,-0.006 0,-0.0289 0.01735,-0.081 z m 0,0"
       id="path16598" />
    <circle
       id="path16601"
       cx="82.020836"
       cy="212.33334"
       r="0.75"
       style="fill:#000000;stroke:none" />
    <circle
       id="path16603"
       cx="82.020836"
       cy="233.5"
       r="0.75"
       style="fill:#000000;stroke:none" />
    <g
       id="g16654"
       style="fill:#000000;fill-opacity:1"
       transform="matrix(0.423333,0,0,0.423333,31.269044,179.0038)">
      <path
         id="path16652"
         transform="translate(148.712,134.765)"
         d="M 4.609375,-3.375 C 4.65625,-3.59375 4.75,-3.96875 4.75,-4.03125 c 0,-0.171875 -0.140625,-0.265625 -0.28125,-0.265625 -0.125,0 -0.296875,0.078125 -0.375,0.28125 -0.03125,0.0625 -0.5,1.96875 -0.5625,2.234375 C 3.453125,-1.484375 3.4375,-1.3125 3.4375,-1.125 c 0,0.109375 0,0.125 0.015625,0.171875 -0.234375,0.53125 -0.53125,0.84375 -0.921875,0.84375 -0.796875,0 -0.796875,-0.734375 -0.796875,-0.90625 0,-0.3125 0.046875,-0.703125 0.515625,-1.9375 0.109375,-0.296875 0.171875,-0.4375 0.171875,-0.640625 0,-0.4375 -0.328125,-0.8125 -0.8125,-0.8125 -0.953125,0 -1.3125,1.453125 -1.3125,1.53125 0,0.109375 0.09375,0.109375 0.109375,0.109375 0.109375,0 0.109375,-0.03125 0.15625,-0.1875 C 0.84375,-3.875 1.21875,-4.1875 1.578125,-4.1875 c 0.09375,0 0.25,0.015625 0.25,0.328125 0,0.25 -0.109375,0.53125 -0.1875,0.703125 -0.4375,1.171875 -0.546875,1.625 -0.546875,2.015625 0,0.90625 0.65625,1.25 1.40625,1.25 0.171875,0 0.640625,0 1.03125,-0.703125 0.265625,0.640625 0.953125,0.703125 1.25,0.703125 0.75,0 1.1875,-0.625 1.453125,-1.21875 0.328125,-0.78125 0.65625,-2.125 0.65625,-2.59375 0,-0.546875 -0.265625,-0.703125 -0.4375,-0.703125 -0.25,0 -0.5,0.265625 -0.5,0.484375 0,0.125 0.0625,0.1875 0.140625,0.265625 0.109375,0.109375 0.359375,0.359375 0.359375,0.84375 0,0.34375 -0.28125,1.3125 -0.546875,1.828125 -0.25,0.53125 -0.609375,0.875 -1.09375,0.875 -0.46875,0 -0.734375,-0.296875 -0.734375,-0.875 0,-0.265625 0.0625,-0.578125 0.109375,-0.71875 z m 0,0"
         style="stroke:none;stroke-width:0"
         inkscape:connector-curvature="0" />
    </g>
    <path
       inkscape:connector-curvature="0"
       style="fill:#000000;fill-opacity:1;stroke:none;stroke-width:0"
       d="m 68.149951,235.00444 c 0.02646,-0.10584 0.125677,-0.4961 0.416719,-0.4961 0.01984,0 0.125677,0 0.211666,0.0529 -0.119062,0.0265 -0.198437,0.12568 -0.198437,0.23151 0,0.0661 0.0463,0.14552 0.15875,0.14552 0.0926,0 0.224895,-0.0728 0.224895,-0.24474 0,-0.21828 -0.244739,-0.27781 -0.39026,-0.27781 -0.244739,0 -0.39026,0.22489 -0.443177,0.3175 -0.105833,-0.27781 -0.330728,-0.3175 -0.456405,-0.3175 -0.436563,0 -0.681302,0.54239 -0.681302,0.64823 0,0.0463 0.0463,0.0463 0.05292,0.0463 0.03307,0 0.0463,-0.0132 0.05292,-0.0463 0.145521,-0.44979 0.423333,-0.55563 0.568854,-0.55563 0.07937,0 0.224896,0.0397 0.224896,0.28443 0,0.13229 -0.07276,0.4101 -0.224896,1.00542 -0.06615,0.25796 -0.218281,0.43656 -0.403489,0.43656 -0.02646,0 -0.119063,0 -0.211667,-0.0529 0.105833,-0.0265 0.198438,-0.11245 0.198438,-0.23151 0,-0.11245 -0.09261,-0.14552 -0.152136,-0.14552 -0.132291,0 -0.23151,0.10583 -0.23151,0.24474 0,0.19182 0.205052,0.27781 0.39026,0.27781 0.284427,0 0.436562,-0.29765 0.443177,-0.3175 0.05292,0.15214 0.205052,0.3175 0.456406,0.3175 0.436562,0 0.674687,-0.54239 0.674687,-0.64823 0,-0.0463 -0.03307,-0.0463 -0.0463,-0.0463 -0.03969,0 -0.0463,0.0198 -0.05953,0.0463 -0.138906,0.45641 -0.423333,0.55563 -0.555624,0.55563 -0.165365,0 -0.23151,-0.13229 -0.23151,-0.27781 0,-0.0926 0.01984,-0.18521 0.06615,-0.37042 z m 0,0"
       id="path16656" />
    <path
       inkscape:connector-curvature="0"
       style="fill:#000000;fill-opacity:1;stroke:none;stroke-width:0"
       d="m 74.830411,210.86136 c 0.01984,-0.0595 0.01984,-0.0661 0.01984,-0.0992 0,-0.0728 -0.05953,-0.11245 -0.125677,-0.11245 -0.03969,0 -0.105833,0.0265 -0.145521,0.086 -0.0066,0.0265 -0.0463,0.15214 -0.05953,0.23151 -0.03307,0.10583 -0.05953,0.2249 -0.08599,0.33734 l -0.191823,0.76068 c -0.01323,0.0595 -0.198438,0.35719 -0.47625,0.35719 -0.211666,0 -0.257968,-0.18521 -0.257968,-0.34396 0,-0.19182 0.07276,-0.45641 0.211666,-0.82682 0.06615,-0.17198 0.08599,-0.21828 0.08599,-0.30427 0,-0.18521 -0.132292,-0.34396 -0.343958,-0.34396 -0.40349,0 -0.555625,0.61515 -0.555625,0.64823 0,0.0463 0.03969,0.0463 0.0463,0.0463 0.0463,0 0.0463,-0.0132 0.06615,-0.0794 0.119062,-0.39687 0.284427,-0.52255 0.429947,-0.52255 0.03307,0 0.105834,0 0.105834,0.13229 0,0.10584 -0.0463,0.21829 -0.07276,0.29766 -0.171979,0.44979 -0.244739,0.68792 -0.244739,0.88635 0,0.37704 0.264583,0.50271 0.515937,0.50271 0.165364,0 0.304271,-0.0728 0.423333,-0.19182 -0.05292,0.21828 -0.105833,0.42995 -0.271198,0.65484 -0.112448,0.13891 -0.271197,0.26459 -0.46302,0.26459 -0.05953,0 -0.251354,-0.0132 -0.324115,-0.1786 0.06615,0 0.125677,0 0.178594,-0.0529 0.0463,-0.0331 0.08599,-0.0926 0.08599,-0.17198 0,-0.1323 -0.112448,-0.14552 -0.152136,-0.14552 -0.09922,0 -0.238124,0.0661 -0.238124,0.27119 0,0.21167 0.185208,0.37042 0.449791,0.37042 0.429947,0 0.86651,-0.38365 0.985572,-0.8599 z m 0,0"
       id="path16658" />
    <g
       id="g16664"
       style="fill:#000000;fill-opacity:1"
       transform="matrix(0.423333,0,0,0.423333,18.682517,155.64502)">
      <path
         id="path16662"
         transform="translate(167.05016,134.765)"
         d="m 1.328125,-0.828125 c 0.53125,-0.578125 0.828125,-0.828125 1.1875,-1.140625 0,0 0.609375,-0.53125 0.96875,-0.890625 C 4.4375,-3.78125 4.65625,-4.265625 4.65625,-4.3125 c 0,-0.09375 -0.09375,-0.09375 -0.109375,-0.09375 -0.078125,0 -0.09375,0.015625 -0.15625,0.109375 -0.296875,0.484375 -0.5,0.640625 -0.734375,0.640625 -0.25,0 -0.359375,-0.15625 -0.515625,-0.328125 -0.1875,-0.21875 -0.359375,-0.421875 -0.6875,-0.421875 -0.75,0 -1.203125,0.921875 -1.203125,1.140625 0,0.046875 0.03125,0.109375 0.109375,0.109375 0.09375,0 0.109375,-0.046875 0.140625,-0.109375 0.1875,-0.46875 0.765625,-0.46875 0.84375,-0.46875 0.203125,0 0.390625,0.0625 0.625,0.140625 0.40625,0.15625 0.515625,0.15625 0.765625,0.15625 -0.359375,0.421875 -1.1875,1.140625 -1.375,1.296875 l -0.90625,0.84375 C 0.78125,-0.625 0.421875,-0.0625 0.421875,0.015625 c 0,0.09375 0.109375,0.09375 0.125,0.09375 0.078125,0 0.09375,-0.015625 0.15625,-0.125 0.234375,-0.359375 0.53125,-0.625 0.859375,-0.625 0.21875,0 0.328125,0.09375 0.578125,0.375 0.15625,0.21875 0.34375,0.375 0.625,0.375 1,0 1.578125,-1.265625 1.578125,-1.53125 0,-0.046875 -0.046875,-0.109375 -0.125,-0.109375 -0.09375,0 -0.109375,0.0625 -0.140625,0.140625 C 3.84375,-0.75 3.203125,-0.5625 2.875,-0.5625 c -0.1875,0 -0.375,-0.0625 -0.578125,-0.125 -0.34375,-0.125 -0.5,-0.171875 -0.703125,-0.171875 -0.015625,0 -0.171875,0 -0.265625,0.03125 z m 0,0"
         style="stroke:none;stroke-width:0"
         inkscape:connector-curvature="0" />
    </g>
  </g>
</svg>
