<?xml version="1.0" encoding="UTF-8" standalone="no"?>
<!-- Created with Inkscape (http://www.inkscape.org/) -->

<svg
   xmlns:ns1="http://www.iki.fi/pav/software/textext/"
   xmlns:dc="http://purl.org/dc/elements/1.1/"
   xmlns:cc="http://creativecommons.org/ns#"
   xmlns:rdf="http://www.w3.org/1999/02/22-rdf-syntax-ns#"
   xmlns:svg="http://www.w3.org/2000/svg"
   xmlns="http://www.w3.org/2000/svg"
   xmlns:sodipodi="http://sodipodi.sourceforge.net/DTD/sodipodi-0.dtd"
   xmlns:inkscape="http://www.inkscape.org/namespaces/inkscape"
   width="10cm"
   height="10cm"
   viewBox="0 0 100 100"
   version="1.1"
   id="svg882"
   inkscape:version="0.92.4 (unknown)"
   sodipodi:docname="fig1-10d.svg">
  <defs
     id="defs876" />
  <sodipodi:namedview
     id="base"
     pagecolor="#ffffff"
     bordercolor="#666666"
     borderopacity="1.0"
     inkscape:pageopacity="0.0"
     inkscape:pageshadow="2"
     inkscape:zoom="3.8480191"
     inkscape:cx="185.38384"
     inkscape:cy="229.27479"
     inkscape:document-units="cm"
     inkscape:current-layer="layer1"
     showgrid="false"
     units="cm"
     inkscape:window-width="784"
     inkscape:window-height="716"
     inkscape:window-x="0"
     inkscape:window-y="24"
     inkscape:window-maximized="0">
    <inkscape:grid
       id="grid1452"
       type="xygrid" />
  </sodipodi:namedview>
  <metadata
     id="metadata879">
    <rdf:RDF>
      <cc:Work
         rdf:about="">
        <dc:format>image/svg+xml</dc:format>
        <dc:type
           rdf:resource="http://purl.org/dc/dcmitype/StillImage" />
        <dc:title></dc:title>
      </cc:Work>
    </rdf:RDF>
  </metadata>
  <g
     inkscape:label="Layer 1"
     inkscape:groupmode="layer"
     id="layer1"
     transform="translate(0,-197.00001)">
    <path
       style="color:#000000;clip-rule:nonzero;display:inline;overflow:visible;visibility:visible;opacity:1;isolation:auto;mix-blend-mode:normal;color-interpolation:sRGB;color-interpolation-filters:linearRGB;solid-color:#000000;solid-opacity:1;fill:none;fill-opacity:1;fill-rule:nonzero;stroke:#000000;stroke-width:0.26458332;stroke-linecap:round;stroke-linejoin:round;stroke-miterlimit:4;stroke-dasharray:1.05833325, 1.05833325;stroke-dashoffset:0;stroke-opacity:1;color-rendering:auto;image-rendering:auto;shape-rendering:auto;text-rendering:auto;enable-background:accumulate"
       d="m 34.395832,252.02084 31.749999,-31.75"
       id="path7877"
       inkscape:connector-curvature="0"
       sodipodi:nodetypes="cc" />
    <path
       sodipodi:nodetypes="cccccc"
       inkscape:connector-curvature="0"
       id="path939"
       d="m 60.92026,236.15583 -10.583335,-15.875 h 15.875001 v 15.875 l -31.750002,15.875 z"
       style="color:#000000;clip-rule:nonzero;display:inline;overflow:visible;visibility:visible;opacity:1;isolation:auto;mix-blend-mode:normal;color-interpolation:sRGB;color-interpolation-filters:linearRGB;solid-color:#000000;solid-opacity:1;fill:none;fill-opacity:1;fill-rule:evenodd;stroke:#000000;stroke-width:0.26458332;stroke-linecap:butt;stroke-linejoin:round;stroke-miterlimit:4;stroke-dasharray:none;stroke-dashoffset:0;stroke-opacity:1;color-rendering:auto;image-rendering:auto;shape-rendering:auto;text-rendering:auto;enable-background:accumulate" />
    <path
       inkscape:connector-curvature="0"
       id="path941"
       d="m 42.333333,236.15583 23.878593,0"
       style="color:#000000;clip-rule:nonzero;display:inline;overflow:visible;visibility:visible;opacity:1;isolation:auto;mix-blend-mode:normal;color-interpolation:sRGB;color-interpolation-filters:linearRGB;solid-color:#000000;solid-opacity:1;fill:none;fill-opacity:1;fill-rule:nonzero;stroke:#000000;stroke-width:0.26458332;stroke-linecap:round;stroke-linejoin:round;stroke-miterlimit:4;stroke-dasharray:none;stroke-dashoffset:0;stroke-opacity:1;color-rendering:auto;image-rendering:auto;shape-rendering:auto;text-rendering:auto;enable-background:accumulate"
       sodipodi:nodetypes="cc" />
    <path
       id="path943"
       d="m 66.550574,237.61142 c -0.165365,0.27781 -0.330729,0.33734 -0.515937,0.35057 -0.05292,0.007 -0.0926,0.007 -0.0926,0.086 0,0.0265 0.02646,0.0463 0.05953,0.0463 0.112448,0 0.244739,-0.0132 0.357187,-0.0132 0.145521,0 0.291042,0.0132 0.423333,0.0132 0.02646,0 0.07937,0 0.07937,-0.0794 0,-0.0463 -0.03307,-0.0529 -0.06615,-0.0529 -0.0926,-0.007 -0.198437,-0.0397 -0.198437,-0.14552 0,-0.0529 0.02646,-0.0992 0.05953,-0.15875 l 0.324114,-0.53578 h 1.058333 c 0.0066,0.086 0.06615,0.66145 0.06615,0.70114 0,0.12568 -0.218281,0.13891 -0.304271,0.13891 -0.05953,0 -0.09922,0 -0.09922,0.086 0,0.0463 0.0463,0.0463 0.05953,0.0463 0.171979,0 0.350572,-0.0132 0.522551,-0.0132 0.105835,0 0.377032,0.0132 0.482866,0.0132 0.01984,0 0.07276,0 0.07276,-0.086 0,-0.0463 -0.03969,-0.0463 -0.09922,-0.0463 -0.257968,0 -0.257968,-0.0265 -0.271196,-0.15214 l -0.25797,-2.6326 c -0.0066,-0.086 -0.0066,-0.10583 -0.07938,-0.10583 -0.06615,0 -0.08599,0.0331 -0.112448,0.0728 z m 0.509322,-0.62177 0.826823,-1.39568 0.138906,1.39568 z m 0,0"
       style="fill:#000000;fill-opacity:1;stroke:none;stroke-width:0"
       inkscape:connector-curvature="0" />
    <path
       id="path945"
       d="m 30.864679,253.61439 c -0.03969,0.16537 -0.05292,0.19844 -0.383646,0.19844 -0.07276,0 -0.112447,0 -0.112447,0.086 0,0.0463 0.03969,0.0463 0.112447,0.0463 h 1.508124 c 0.668073,0 1.164166,-0.49609 1.164166,-0.91281 0,-0.30427 -0.244739,-0.54901 -0.654843,-0.59531 0.436562,-0.0794 0.879739,-0.39026 0.879739,-0.79375 0,-0.31089 -0.277813,-0.58209 -0.780521,-0.58209 h -1.422134 c -0.07937,0 -0.119062,0 -0.119062,0.086 0,0.0463 0.03969,0.0463 0.119062,0.0463 0.0066,0 0.08599,0 0.15875,0.007 0.07276,0.0132 0.112448,0.0132 0.112448,0.0728 0,0.0132 -0.0066,0.0265 -0.01323,0.0794 z m 0.634999,-1.21708 0.264584,-1.0451 c 0.03969,-0.14553 0.0463,-0.15875 0.224895,-0.15875 h 0.54901 c 0.370417,0 0.456406,0.25135 0.456406,0.43656 0,0.37041 -0.363802,0.76729 -0.873124,0.76729 z m -0.185208,1.41552 c -0.05953,0 -0.06615,0 -0.0926,0 -0.0463,-0.007 -0.05953,-0.0132 -0.05953,-0.0463 0,-0.0132 0,-0.0198 0.02646,-0.0926 l 0.291042,-1.17739 h 0.793749 c 0.403489,0 0.489479,0.31088 0.489479,0.48948 0,0.41671 -0.377031,0.82682 -0.879739,0.82682 z m 0,0"
       style="fill:#000000;fill-opacity:1;stroke:none;stroke-width:0"
       inkscape:connector-curvature="0" />
    <path
       id="path947"
       d="m 67.385689,220.82749 c -0.03969,0.16537 -0.0463,0.19844 -0.383646,0.19844 -0.06615,0 -0.112447,0 -0.112447,0.0794 0,0.0529 0.03307,0.0529 0.112447,0.0529 h 1.402292 c 0.87312,0 1.70656,-0.89297 1.70656,-1.81239 0,-0.59532 -0.35719,-1.07157 -0.99219,-1.07157 h -1.415516 c -0.07937,0 -0.125677,0 -0.125677,0.0794 0,0.0529 0.03307,0.0529 0.119063,0.0529 0.05292,0 0.132291,0.007 0.178593,0.007 0.07276,0.0132 0.0926,0.0198 0.0926,0.0728 0,0.0132 0,0.0265 -0.01323,0.0794 z m 0.91281,-2.26218 c 0.03969,-0.14553 0.0463,-0.15875 0.231516,-0.15875 h 0.449789 c 0.410101,0 0.760672,0.22489 0.760672,0.78052 0,0.20505 -0.0794,0.89958 -0.443172,1.3626 -0.119071,0.15875 -0.449789,0.47625 -0.972349,0.47625 H 67.84871 c -0.05953,0 -0.06615,0 -0.0926,0 -0.03969,-0.007 -0.05292,-0.0132 -0.05292,-0.0463 0,-0.0132 0,-0.0198 0.01984,-0.0926 z m 0,0"
       style="fill:#000000;fill-opacity:1;stroke:none;stroke-width:0"
       inkscape:connector-curvature="0" />
    <g
       transform="matrix(0.42333301,0,0,0.42333301,-18.523782,168.19987)"
       ns1:version="0.8.1"
       ns1:texconverter="pdflatex"
       ns1:pdfconverter="pdf2svg"
       ns1:text="$C$"
       ns1:preamble="/home/sriranga/.config/inkscape/extensions"
       ns1:scale="1.19999998463"
       ns1:alignment="middle center"
       inkscapeversion="0.92.4"
       ns1:jacobian_sqrt="0.423333"
       id="g955">
      <g
         id="g953">
        <g
           style="fill:#000000;fill-opacity:1"
           id="g951">
          <path
             inkscape:connector-curvature="0"
             style="stroke:none;stroke-width:0"
             d="m 7.578125,-6.921875 c 0,-0.03125 -0.015625,-0.109375 -0.109375,-0.109375 -0.03125,0 -0.046875,0.015625 -0.15625,0.125 L 6.625,-6.140625 C 6.53125,-6.28125 6.078125,-7.03125 4.96875,-7.03125 2.734375,-7.03125 0.5,-4.828125 0.5,-2.515625 0.5,-0.875 1.671875,0.21875 3.203125,0.21875 c 0.859375,0 1.625,-0.390625 2.15625,-0.859375 0.921875,-0.8125 1.09375,-1.71875 1.09375,-1.75 C 6.453125,-2.5 6.34375,-2.5 6.328125,-2.5 c -0.0625,0 -0.109375,0.03125 -0.125,0.109375 -0.09375,0.28125 -0.328125,1 -1.015625,1.578125 -0.6875,0.546875 -1.3125,0.71875 -1.828125,0.71875 -0.890625,0 -1.953125,-0.515625 -1.953125,-2.0625 0,-0.578125 0.203125,-2.1875 1.203125,-3.359375 0.609375,-0.703125 1.546875,-1.203125 2.4375,-1.203125 1.015625,0 1.609375,0.765625 1.609375,1.921875 0,0.40625 -0.03125,0.40625 -0.03125,0.515625 0,0.09375 0.109375,0.09375 0.140625,0.09375 0.125,0 0.125,-0.015625 0.1875,-0.203125 z m 0,0"
             transform="translate(148.712,134.765)"
             id="path949" />
        </g>
      </g>
    </g>
    <path
       sodipodi:nodetypes="ccccc"
       inkscape:connector-curvature="0"
       id="path1560"
       d="m 50.270815,220.27084 v 0 l 10.583341,15.87499 -26.458325,15.87501 z"
       style="color:#000000;clip-rule:nonzero;display:inline;overflow:visible;visibility:visible;opacity:1;isolation:auto;mix-blend-mode:normal;color-interpolation:sRGB;color-interpolation-filters:linearRGB;solid-color:#000000;solid-opacity:1;fill:#ffffff;fill-opacity:1;fill-rule:evenodd;stroke:#000000;stroke-width:0.26458332;stroke-linecap:butt;stroke-linejoin:round;stroke-miterlimit:4;stroke-dasharray:none;stroke-dashoffset:0;stroke-opacity:1;color-rendering:auto;image-rendering:auto;shape-rendering:auto;text-rendering:auto;enable-background:accumulate" />
    <path
       style="color:#000000;clip-rule:nonzero;display:inline;overflow:visible;visibility:visible;opacity:1;isolation:auto;mix-blend-mode:normal;color-interpolation:sRGB;color-interpolation-filters:linearRGB;solid-color:#000000;solid-opacity:1;fill:#ffffff;fill-opacity:1;fill-rule:evenodd;stroke:#000000;stroke-width:0.26458332;stroke-linecap:butt;stroke-linejoin:round;stroke-miterlimit:4;stroke-dasharray:none;stroke-dashoffset:0;stroke-opacity:1;color-rendering:auto;image-rendering:auto;shape-rendering:auto;text-rendering:auto;enable-background:accumulate"
       d="m 66.211925,236.15583 h 1e-6 L 48.362446,224.19169 34.46193,252.03083 Z"
       id="rect1486"
       inkscape:connector-curvature="0"
       sodipodi:nodetypes="ccccc" />
  </g>
</svg>
