<?xml version="1.0" encoding="UTF-8" standalone="no"?>
<!-- Created with Inkscape (http://www.inkscape.org/) -->

<svg
   xmlns:ns1="http://www.iki.fi/pav/software/textext/"
   xmlns:dc="http://purl.org/dc/elements/1.1/"
   xmlns:cc="http://creativecommons.org/ns#"
   xmlns:rdf="http://www.w3.org/1999/02/22-rdf-syntax-ns#"
   xmlns:svg="http://www.w3.org/2000/svg"
   xmlns="http://www.w3.org/2000/svg"
   xmlns:sodipodi="http://sodipodi.sourceforge.net/DTD/sodipodi-0.dtd"
   xmlns:inkscape="http://www.inkscape.org/namespaces/inkscape"
   sodipodi:docname="fig1-30b.svg"
   inkscape:version="0.92.4 (unknown)"
   id="svg882"
   version="1.1"
   viewBox="0 0 110 100"
   height="10cm"
   width="11cm">
  <defs
     id="defs876">
    <marker
       inkscape:isstock="true"
       style="overflow:visible"
       id="marker27113"
       refX="0"
       refY="0"
       orient="auto"
       inkscape:stockid="Arrow1Mend">
      <path
         inkscape:connector-curvature="0"
         transform="matrix(-0.4,0,0,-0.4,-4,0)"
         style="fill:#000000;fill-opacity:1;fill-rule:evenodd;stroke:#000000;stroke-width:1.00000003pt;stroke-opacity:1"
         d="M 0,0 5,-5 -12.5,0 5,5 Z"
         id="path27111" />
    </marker>
    <marker
       inkscape:isstock="true"
       style="overflow:visible"
       id="marker26321"
       refX="0"
       refY="0"
       orient="auto"
       inkscape:stockid="Arrow1Mend">
      <path
         inkscape:connector-curvature="0"
         transform="matrix(-0.4,0,0,-0.4,-4,0)"
         style="fill:#000000;fill-opacity:1;fill-rule:evenodd;stroke:#000000;stroke-width:1.00000003pt;stroke-opacity:1"
         d="M 0,0 5,-5 -12.5,0 5,5 Z"
         id="path26319" />
    </marker>
    <marker
       inkscape:stockid="Arrow1Mend"
       orient="auto"
       refY="0"
       refX="0"
       id="marker24249"
       style="overflow:visible"
       inkscape:isstock="true">
      <path
         id="path24247"
         d="M 0,0 5,-5 -12.5,0 5,5 Z"
         style="fill:#000000;fill-opacity:1;fill-rule:evenodd;stroke:#000000;stroke-width:1.00000003pt;stroke-opacity:1"
         transform="matrix(-0.4,0,0,-0.4,-4,0)"
         inkscape:connector-curvature="0" />
    </marker>
    <marker
       inkscape:isstock="true"
       style="overflow:visible"
       id="marker23661"
       refX="0"
       refY="0"
       orient="auto"
       inkscape:stockid="Arrow1Mend"
       inkscape:collect="always">
      <path
         inkscape:connector-curvature="0"
         transform="matrix(-0.4,0,0,-0.4,-4,0)"
         style="fill:#000000;fill-opacity:1;fill-rule:evenodd;stroke:#000000;stroke-width:1.00000003pt;stroke-opacity:1"
         d="M 0,0 5,-5 -12.5,0 5,5 Z"
         id="path23659" />
    </marker>
    <marker
       inkscape:isstock="true"
       style="overflow:visible"
       id="marker20365"
       refX="0"
       refY="0"
       orient="auto"
       inkscape:stockid="Arrow1Mend">
      <path
         transform="matrix(-0.4,0,0,-0.4,-4,0)"
         style="fill:#000000;fill-opacity:1;fill-rule:evenodd;stroke:#000000;stroke-width:1.00000003pt;stroke-opacity:1"
         d="M 0,0 5,-5 -12.5,0 5,5 Z"
         id="path20363"
         inkscape:connector-curvature="0" />
    </marker>
    <marker
       inkscape:stockid="Arrow1Mend"
       orient="auto"
       refY="0"
       refX="0"
       id="marker19765"
       style="overflow:visible"
       inkscape:isstock="true">
      <path
         id="path19763"
         d="M 0,0 5,-5 -12.5,0 5,5 Z"
         style="fill:#000000;fill-opacity:1;fill-rule:evenodd;stroke:#000000;stroke-width:1.00000003pt;stroke-opacity:1"
         transform="matrix(-0.4,0,0,-0.4,-4,0)"
         inkscape:connector-curvature="0" />
    </marker>
    <marker
       inkscape:isstock="true"
       style="overflow:visible"
       id="marker19115"
       refX="0"
       refY="0"
       orient="auto"
       inkscape:stockid="Arrow1Mend">
      <path
         transform="matrix(-0.4,0,0,-0.4,-4,0)"
         style="fill:#000000;fill-opacity:1;fill-rule:evenodd;stroke:#000000;stroke-width:1.00000003pt;stroke-opacity:1"
         d="M 0,0 5,-5 -12.5,0 5,5 Z"
         id="path19113"
         inkscape:connector-curvature="0" />
    </marker>
    <marker
       inkscape:isstock="true"
       style="overflow:visible"
       id="marker15103"
       refX="0"
       refY="0"
       orient="auto"
       inkscape:stockid="Arrow1Mend">
      <path
         transform="matrix(-0.4,0,0,-0.4,-4,0)"
         style="fill:#000000;fill-opacity:1;fill-rule:evenodd;stroke:#000000;stroke-width:1.00000003pt;stroke-opacity:1"
         d="M 0,0 5,-5 -12.5,0 5,5 Z"
         id="path15101"
         inkscape:connector-curvature="0" />
    </marker>
    <marker
       inkscape:stockid="Arrow1Mend"
       orient="auto"
       refY="0"
       refX="0"
       id="marker13025"
       style="overflow:visible"
       inkscape:isstock="true"
       inkscape:collect="always">
      <path
         id="path13023"
         d="M 0,0 5,-5 -12.5,0 5,5 Z"
         style="fill:#000000;fill-opacity:1;fill-rule:evenodd;stroke:#000000;stroke-width:1.00000003pt;stroke-opacity:1"
         transform="matrix(-0.4,0,0,-0.4,-4,0)"
         inkscape:connector-curvature="0" />
    </marker>
    <marker
       inkscape:isstock="true"
       style="overflow:visible"
       id="marker8599"
       refX="0"
       refY="0"
       orient="auto"
       inkscape:stockid="Arrow1Mend">
      <path
         transform="matrix(-0.4,0,0,-0.4,-4,0)"
         style="fill:#000000;fill-opacity:1;fill-rule:evenodd;stroke:#000000;stroke-width:1.00000003pt;stroke-opacity:1"
         d="M 0,0 5,-5 -12.5,0 5,5 Z"
         id="path8597"
         inkscape:connector-curvature="0" />
    </marker>
    <marker
       inkscape:stockid="Arrow1Mend"
       orient="auto"
       refY="0"
       refX="0"
       id="marker7557"
       style="overflow:visible"
       inkscape:isstock="true">
      <path
         id="path7555"
         d="M 0,0 5,-5 -12.5,0 5,5 Z"
         style="fill:#000000;fill-opacity:1;fill-rule:evenodd;stroke:#000000;stroke-width:1.00000003pt;stroke-opacity:1"
         transform="matrix(-0.4,0,0,-0.4,-4,0)"
         inkscape:connector-curvature="0" />
    </marker>
    <marker
       inkscape:isstock="true"
       style="overflow:visible"
       id="marker4227"
       refX="0"
       refY="0"
       orient="auto"
       inkscape:stockid="Arrow1Mend">
      <path
         transform="matrix(-0.4,0,0,-0.4,-4,0)"
         style="fill:#000000;fill-opacity:1;fill-rule:evenodd;stroke:#000000;stroke-width:1.00000003pt;stroke-opacity:1"
         d="M 0,0 5,-5 -12.5,0 5,5 Z"
         id="path4225"
         inkscape:connector-curvature="0" />
    </marker>
    <marker
       inkscape:isstock="true"
       style="overflow:visible"
       id="marker15998"
       refX="0"
       refY="0"
       orient="auto"
       inkscape:stockid="Arrow1Mend">
      <path
         transform="matrix(-0.4,0,0,-0.4,-4,0)"
         style="fill:#000000;fill-opacity:1;fill-rule:evenodd;stroke:#000000;stroke-width:1.00000003pt;stroke-opacity:1"
         d="M 0,0 5,-5 -12.5,0 5,5 Z"
         id="path15996"
         inkscape:connector-curvature="0" />
    </marker>
    <marker
       inkscape:stockid="Arrow1Mend"
       orient="auto"
       refY="0"
       refX="0"
       id="marker11689"
       style="overflow:visible"
       inkscape:isstock="true">
      <path
         id="path11687"
         d="M 0,0 5,-5 -12.5,0 5,5 Z"
         style="fill:#000000;fill-opacity:1;fill-rule:evenodd;stroke:#000000;stroke-width:1.00000003pt;stroke-opacity:1"
         transform="matrix(-0.4,0,0,-0.4,-4,0)"
         inkscape:connector-curvature="0" />
    </marker>
  </defs>
  <sodipodi:namedview
     id="base"
     pagecolor="#ffffff"
     bordercolor="#666666"
     borderopacity="1.0"
     inkscape:pageopacity="0.0"
     inkscape:pageshadow="2"
     inkscape:zoom="1.9525254"
     inkscape:cx="210.80338"
     inkscape:cy="217.0968"
     inkscape:document-units="cm"
     inkscape:current-layer="layer1"
     showgrid="false"
     units="cm"
     inkscape:window-width="826"
     inkscape:window-height="716"
     inkscape:window-x="12"
     inkscape:window-y="24"
     inkscape:window-maximized="0"
     showguides="false"
     inkscape:guide-bbox="true">
    <inkscape:grid
       id="grid1452"
       type="xygrid" />
  </sodipodi:namedview>
  <metadata
     id="metadata879">
    <rdf:RDF>
      <cc:Work
         rdf:about="">
        <dc:format>image/svg+xml</dc:format>
        <dc:type
           rdf:resource="http://purl.org/dc/dcmitype/StillImage" />
        <dc:title></dc:title>
      </cc:Work>
    </rdf:RDF>
  </metadata>
  <g
     inkscape:label="Layer 1"
     inkscape:groupmode="layer"
     id="layer1"
     transform="translate(0,-197.00001)">
    <path
       id="path8508"
       d="m 1.467615,274.21448 c -0.165365,0.27781 -0.330729,0.33734 -0.51593702,0.35057 -0.05292,0.007 -0.0926,0.007 -0.0926,0.086 0,0.0265 0.02646,0.0463 0.05953,0.0463 0.11244802,0 0.24473902,-0.0132 0.35718702,-0.0132 0.145521,0 0.291042,0.0132 0.423333,0.0132 0.02646,0 0.07937,0 0.07937,-0.0794 0,-0.0463 -0.03307,-0.0529 -0.06615,-0.0529 -0.0926,-0.007 -0.198437,-0.0397 -0.198437,-0.14552 0,-0.0529 0.02646,-0.0992 0.05953,-0.15875 L 1.897555,273.725 h 1.058333 c 0.0066,0.086 0.06615,0.66145 0.06615,0.70114 0,0.12568 -0.218281,0.13891 -0.304271,0.13891 -0.05953,0 -0.09922,0 -0.09922,0.086 0,0.0463 0.0463,0.0463 0.05953,0.0463 0.171979,0 0.350572,-0.0132 0.522551,-0.0132 0.105834,0 0.377031,0.0132 0.482865,0.0132 0.01984,0 0.07276,0 0.07276,-0.086 0,-0.0463 -0.03969,-0.0463 -0.09922,-0.0463 -0.257968,0 -0.257968,-0.0265 -0.271197,-0.15214 l -0.257969,-2.6326 c -0.0066,-0.086 -0.0066,-0.10583 -0.07937,-0.10583 -0.06615,0 -0.08599,0.0331 -0.112448,0.0728 z m 0.509322,-0.62177 0.826823,-1.39568 0.138906,1.39568 z m 0,0"
       style="fill:#000000;fill-opacity:1;stroke:none;stroke-width:0"
       inkscape:connector-curvature="0" />
    <path
       id="path1970"
       d="m 29.759142,273.79251 c -0.03969,0.16537 -0.05292,0.19844 -0.383646,0.19844 -0.07276,0 -0.112447,0 -0.112447,0.086 0,0.0463 0.03969,0.0463 0.112447,0.0463 h 1.508124 c 0.668073,0 1.164166,-0.49609 1.164166,-0.91281 0,-0.30427 -0.244739,-0.54901 -0.654843,-0.59531 0.436562,-0.0794 0.879739,-0.39026 0.879739,-0.79375 0,-0.31089 -0.277813,-0.58209 -0.780521,-0.58209 h -1.422134 c -0.07937,0 -0.119062,0 -0.119062,0.086 0,0.0463 0.03969,0.0463 0.119062,0.0463 0.0066,0 0.08599,0 0.15875,0.007 0.07276,0.0132 0.112448,0.0132 0.112448,0.0728 0,0.0132 -0.0066,0.0265 -0.01323,0.0794 z m 0.634999,-1.21708 0.264584,-1.0451 c 0.03969,-0.14553 0.0463,-0.15875 0.224895,-0.15875 h 0.54901 c 0.370417,0 0.456406,0.25135 0.456406,0.43656 0,0.37041 -0.363802,0.76729 -0.873124,0.76729 z m -0.185208,1.41552 c -0.05953,0 -0.06615,0 -0.0926,0 -0.0463,-0.007 -0.05953,-0.0132 -0.05953,-0.0463 0,-0.0132 0,-0.0198 0.02646,-0.0926 l 0.291042,-1.17739 h 0.793749 c 0.403489,0 0.489479,0.31088 0.489479,0.48948 0,0.41671 -0.377031,0.82682 -0.879739,0.82682 z m 0,0"
       style="fill:#000000;fill-opacity:1;stroke:none;stroke-width:0"
       inkscape:connector-curvature="0" />
    <path
       style="color:#000000;clip-rule:nonzero;display:inline;overflow:visible;visibility:visible;opacity:1;isolation:auto;mix-blend-mode:normal;color-interpolation:sRGB;color-interpolation-filters:linearRGB;solid-color:#000000;solid-opacity:1;fill:none;fill-opacity:1;fill-rule:nonzero;stroke:#000000;stroke-width:0.26458332;stroke-linecap:round;stroke-linejoin:round;stroke-miterlimit:4;stroke-dasharray:none;stroke-dashoffset:0;stroke-opacity:1;color-rendering:auto;image-rendering:auto;shape-rendering:auto;text-rendering:auto;enable-background:accumulate"
       inkscape:transform-center-y="2.6158836"
       d="M 4.8499014,272.46985 H 28.965164 l -8.997145,7.48902 z"
       id="path10789"
       inkscape:connector-curvature="0"
       sodipodi:nodetypes="cccc"
       inkscape:transform-center-x="1.7139742e-06" />
    <path
       style="color:#000000;clip-rule:nonzero;display:inline;overflow:visible;visibility:visible;opacity:1;isolation:auto;mix-blend-mode:normal;color-interpolation:sRGB;color-interpolation-filters:linearRGB;solid-color:#000000;solid-opacity:1;fill:none;fill-opacity:1;fill-rule:nonzero;stroke:#000000;stroke-width:0.2116667;stroke-linecap:round;stroke-linejoin:round;stroke-miterlimit:4;stroke-dasharray:none;stroke-dashoffset:0;stroke-opacity:1;marker-end:url(#marker13025);color-rendering:auto;image-rendering:auto;shape-rendering:auto;text-rendering:auto;enable-background:accumulate"
       d="m 12.819908,229.03537 c -0.599906,-3.18585 -0.159225,-4.3967 0.359189,-6.35595"
       id="path13021"
       inkscape:connector-curvature="0"
       sodipodi:nodetypes="cc" />
    <g
       id="g16710"
       ns1:jacobian_sqrt="0.423333"
       inkscapeversion="0.92.4"
       ns1:alignment="middle center"
       ns1:scale="1.2"
       ns1:preamble="/home/sriranga/.config/inkscape/extensions"
       ns1:text="$D$"
       ns1:pdfconverter="pdf2svg"
       ns1:texconverter="pdflatex"
       ns1:version="0.8.1"
       transform="matrix(0.423333,0,0,0.423333,-44.293647,226.74299)">
      <g
         id="g16708">
        <g
           id="g16706"
           style="fill:#000000;fill-opacity:1">
          <path
             id="path16704"
             transform="translate(148.712,134.765)"
             d="m 1.578125,-0.78125 c -0.09375,0.390625 -0.109375,0.46875 -0.90625,0.46875 -0.15625,0 -0.265625,0 -0.265625,0.1875 C 0.40625,0 0.484375,0 0.671875,0 h 3.3125 c 2.0625,0 4.03125,-2.109375 4.03125,-4.28125 0,-1.40625 -0.84375,-2.53125 -2.34375,-2.53125 h -3.34375 c -0.1875,0 -0.296875,0 -0.296875,0.1875 0,0.125 0.078125,0.125 0.28125,0.125 0.125,0 0.3125,0.015625 0.421875,0.015625 0.171875,0.03125 0.21875,0.046875 0.21875,0.171875 0,0.03125 0,0.0625 -0.03125,0.1875 z M 3.734375,-6.125 C 3.828125,-6.46875 3.84375,-6.5 4.28125,-6.5 h 1.0625 c 0.96875,0 1.796875,0.53125 1.796875,1.84375 0,0.484375 -0.1875,2.125 -1.046875,3.21875 -0.28125,0.375 -1.0625,1.125 -2.296875,1.125 h -1.125 c -0.140625,0 -0.15625,0 -0.21875,0 -0.09375,-0.015625 -0.125,-0.03125 -0.125,-0.109375 0,-0.03125 0,-0.046875 0.046875,-0.21875 z m 0,0"
             style="stroke:none;stroke-width:0"
             inkscape:connector-curvature="0" />
        </g>
      </g>
    </g>
    <path
       style="color:#000000;clip-rule:nonzero;display:inline;overflow:visible;visibility:visible;opacity:1;isolation:auto;mix-blend-mode:normal;color-interpolation:sRGB;color-interpolation-filters:linearRGB;solid-color:#000000;solid-opacity:1;fill:none;fill-opacity:1;fill-rule:nonzero;stroke:#000000;stroke-width:0.21166667;stroke-linecap:round;stroke-linejoin:round;stroke-miterlimit:4;stroke-dasharray:none;stroke-dashoffset:0;stroke-opacity:1;color-rendering:auto;image-rendering:auto;shape-rendering:auto;text-rendering:auto;enable-background:accumulate"
       id="path16763"
       sodipodi:type="arc"
       sodipodi:cx="16.940359"
       sodipodi:cy="267.10034"
       sodipodi:rx="13.229166"
       sodipodi:ry="13.229166"
       sodipodi:start="0.40997915"
       sodipodi:end="2.7236463"
       sodipodi:open="true"
       d="M 29.073213,272.37336 A 13.229166,13.229166 0 0 1 16.993059,280.3294 13.229166,13.229166 0 0 1 4.8499014,272.46985" />
    <g
       id="g16823"
       transform="matrix(-1,0,0,1,38.107039,37.569087)">
      <path
         sodipodi:nodetypes="ccccc"
         inkscape:connector-curvature="0"
         id="circle16765"
         d="m 9.0577684,234.85906 c -2.438935,-5.54316 -0.802492,-12.03465 3.9727416,-15.75918 4.775224,-3.72455 11.469799,-3.73102 16.25221,-0.0157 4.782402,3.71533 6.431342,10.20366 4.00308,15.75151 z"
         style="color:#000000;clip-rule:nonzero;display:inline;overflow:visible;visibility:visible;opacity:1;isolation:auto;mix-blend-mode:normal;color-interpolation:sRGB;color-interpolation-filters:linearRGB;solid-color:#000000;solid-opacity:1;fill:none;fill-opacity:1;fill-rule:nonzero;stroke:#000000;stroke-width:0.21166667;stroke-linecap:round;stroke-linejoin:round;stroke-miterlimit:4;stroke-dasharray:none;stroke-dashoffset:0;stroke-opacity:1;color-rendering:auto;image-rendering:auto;shape-rendering:auto;text-rendering:auto;enable-background:accumulate" />
      <path
         id="path16821"
         style="fill:none;stroke:#000000;stroke-width:0.21166667"
         d="m 8.184079,232.02606 1.635207,2.83227 m 0.977103,-9.5e-4 -2.843121,-4.92443 m 0.043653,-1.61772 3.77657,6.54121 m 0.977102,-9.4e-4 -4.552612,-7.88536 m 0.292724,-1.18632 5.236991,9.07073 m 0.977102,-9.4e-4 -5.850284,-10.13299 m 0.421219,-0.96376 6.406168,11.09581 m 0.977102,-9.4e-4 -6.914122,-11.97561 m 0.510254,-0.80955 7.38097,12.78422 m 0.977102,-9.5e-4 -7.811782,-13.5304 m 0.578999,-0.69048 8.209885,14.21994 m 0.977103,-9.4e-4 -8.569442,-14.84271 m 0.645126,-0.57594 8.901418,15.41771 m 0.977102,-9.5e-4 -9.207853,-15.94847 m 0.695277,-0.48908 9.489679,16.43661 m 0.977102,-9.4e-4 -9.738664,-16.86786 m 0.755538,-0.38471 9.960229,17.25162 m 0.977102,-9.4e-4 -10.156711,-17.59194 m 0.806673,-0.29613 10.32714,17.88713 m 0.977102,-9.4e-4 -10.468535,-18.13204 m 0.871596,-0.18368 10.574041,18.31477 m 0.977103,-9.4e-4 -10.648539,-18.44381 m 0.9368,-0.0708 10.688841,18.51362 m 0.977103,-9.4e-4 -10.690697,-18.51683 m 1.019492,0.0725 10.648307,18.44341 m 0.402667,-0.9959 -9.979128,-17.28436 m 1.135892,0.27409 9.176429,15.89405 m 0.244557,-1.26975 -8.203551,-14.20897 m 1.326369,0.604 7.005131,12.13325 m -0.05676,-1.79165 -5.41002,-9.37043 m 1.990692,1.75465 2.869461,4.97006"
         inkscape:connector-curvature="0" />
    </g>
    <path
       d="M 29.073213,272.37336 A 13.229166,13.229166 0 0 1 16.993059,280.3294 13.229166,13.229166 0 0 1 4.8499014,272.46985"
       sodipodi:open="true"
       sodipodi:end="2.7236463"
       sodipodi:start="0.40997915"
       sodipodi:ry="13.229166"
       sodipodi:rx="13.229166"
       sodipodi:cy="267.10034"
       sodipodi:cx="16.940359"
       sodipodi:type="arc"
       id="path19069"
       style="color:#000000;clip-rule:nonzero;display:inline;overflow:visible;visibility:visible;opacity:1;isolation:auto;mix-blend-mode:normal;color-interpolation:sRGB;color-interpolation-filters:linearRGB;solid-color:#000000;solid-opacity:1;fill:none;fill-opacity:1;fill-rule:nonzero;stroke:#000000;stroke-width:0.21166667;stroke-linecap:round;stroke-linejoin:round;stroke-miterlimit:4;stroke-dasharray:none;stroke-dashoffset:0;stroke-opacity:1;color-rendering:auto;image-rendering:auto;shape-rendering:auto;text-rendering:auto;enable-background:accumulate" />
    <g
       transform="matrix(-1,0,0,1,38.107039,37.569087)"
       id="g19075">
      <path
         style="color:#000000;clip-rule:nonzero;display:inline;overflow:visible;visibility:visible;opacity:1;isolation:auto;mix-blend-mode:normal;color-interpolation:sRGB;color-interpolation-filters:linearRGB;solid-color:#000000;solid-opacity:1;fill:none;fill-opacity:1;fill-rule:nonzero;stroke:#000000;stroke-width:0.21166667;stroke-linecap:round;stroke-linejoin:round;stroke-miterlimit:4;stroke-dasharray:none;stroke-dashoffset:0;stroke-opacity:1;color-rendering:auto;image-rendering:auto;shape-rendering:auto;text-rendering:auto;enable-background:accumulate"
         d="m 9.0577684,234.85906 c -2.438935,-5.54316 -0.802492,-12.03465 3.9727416,-15.75918 4.775224,-3.72455 11.469799,-3.73102 16.25221,-0.0157 4.782402,3.71533 6.431342,10.20366 4.00308,15.75151 z"
         id="path19071"
         inkscape:connector-curvature="0"
         sodipodi:nodetypes="ccccc" />
      <path
         inkscape:connector-curvature="0"
         d="m 8.184079,232.02606 1.635207,2.83227 m 0.977103,-9.5e-4 -2.843121,-4.92443 m 0.043653,-1.61772 3.77657,6.54121 m 0.977102,-9.4e-4 -4.552612,-7.88536 m 0.292724,-1.18632 5.236991,9.07073 m 0.977102,-9.4e-4 -5.850284,-10.13299 m 0.421219,-0.96376 6.406168,11.09581 m 0.977102,-9.4e-4 -6.914122,-11.97561 m 0.510254,-0.80955 7.38097,12.78422 m 0.977102,-9.5e-4 -7.811782,-13.5304 m 0.578999,-0.69048 8.209885,14.21994 m 0.977103,-9.4e-4 -8.569442,-14.84271 m 0.645126,-0.57594 8.901418,15.41771 m 0.977102,-9.5e-4 -9.207853,-15.94847 m 0.695277,-0.48908 9.489679,16.43661 m 0.977102,-9.4e-4 -9.738664,-16.86786 m 0.755538,-0.38471 9.960229,17.25162 m 0.977102,-9.4e-4 -10.156711,-17.59194 m 0.806673,-0.29613 10.32714,17.88713 m 0.977102,-9.4e-4 -10.468535,-18.13204 m 0.871596,-0.18368 10.574041,18.31477 m 0.977103,-9.4e-4 -10.648539,-18.44381 m 0.9368,-0.0708 10.688841,18.51362 m 0.977103,-9.4e-4 -10.690697,-18.51683 m 1.019492,0.0725 10.648307,18.44341 m 0.402667,-0.9959 -9.979128,-17.28436 m 1.135892,0.27409 9.176429,15.89405 m 0.244557,-1.26975 -8.203551,-14.20897 m 1.326369,0.604 7.005131,12.13325 m -0.05676,-1.79165 -5.41002,-9.37043 m 1.990692,1.75465 2.869461,4.97006"
         style="fill:none;stroke:#000000;stroke-width:0.21166667"
         id="path19073" />
    </g>
    <circle
       id="path19077"
       style="fill:#000000;stroke:none"
       cx="58.909008"
       cy="202.90186"
       r="0.75" />
    <g
       id="g23592"
       ns1:jacobian_sqrt="0.352778"
       inkscapeversion="0.92.4"
       ns1:alignment="middle center"
       ns1:scale="1.0"
       ns1:preamble="/home/sriranga/.config/inkscape/extensions"
       ns1:text="$110^\\circ$"
       ns1:pdfconverter="pdf2svg"
       ns1:texconverter="pdflatex"
       ns1:version="0.8.1"
       transform="matrix(0.352778,0,0,0.352778,-19.811674,238.87455)">
      <g
         id="g23590">
        <g
           id="g23584"
           style="fill:#000000;fill-opacity:1">
          <path
             id="path23578"
             transform="translate(148.712,134.765)"
             d="m 2.9375,-6.375 c 0,-0.25 0,-0.265625 -0.234375,-0.265625 C 2.078125,-6 1.203125,-6 0.890625,-6 v 0.3125 c 0.203125,0 0.78125,0 1.296875,-0.265625 v 5.171875 c 0,0.359375 -0.03125,0.46875 -0.921875,0.46875 h -0.3125 V 0 c 0.34375,-0.03125 1.203125,-0.03125 1.609375,-0.03125 0.390625,0 1.265625,0 1.609375,0.03125 v -0.3125 h -0.3125 c -0.90625,0 -0.921875,-0.109375 -0.921875,-0.46875 z m 0,0"
             style="stroke:none;stroke-width:0"
             inkscape:connector-curvature="0" />
          <path
             id="path23580"
             transform="translate(153.6933,134.765)"
             d="m 2.9375,-6.375 c 0,-0.25 0,-0.265625 -0.234375,-0.265625 C 2.078125,-6 1.203125,-6 0.890625,-6 v 0.3125 c 0.203125,0 0.78125,0 1.296875,-0.265625 v 5.171875 c 0,0.359375 -0.03125,0.46875 -0.921875,0.46875 h -0.3125 V 0 c 0.34375,-0.03125 1.203125,-0.03125 1.609375,-0.03125 0.390625,0 1.265625,0 1.609375,0.03125 v -0.3125 h -0.3125 c -0.90625,0 -0.921875,-0.109375 -0.921875,-0.46875 z m 0,0"
             style="stroke:none;stroke-width:0"
             inkscape:connector-curvature="0" />
          <path
             id="path23582"
             transform="translate(158.6746,134.765)"
             d="m 4.578125,-3.1875 c 0,-0.796875 -0.046875,-1.59375 -0.390625,-2.328125 -0.453125,-0.96875 -1.28125,-1.125 -1.6875,-1.125 -0.609375,0 -1.328125,0.265625 -1.75,1.1875 -0.3125,0.6875 -0.359375,1.46875 -0.359375,2.265625 0,0.75 0.03125,1.640625 0.453125,2.40625 0.421875,0.796875 1.15625,1 1.640625,1 0.53125,0 1.296875,-0.203125 1.734375,-1.15625 0.3125,-0.6875 0.359375,-1.46875 0.359375,-2.25 z M 2.484375,0 C 2.09375,0 1.5,-0.25 1.328125,-1.203125 1.21875,-1.796875 1.21875,-2.71875 1.21875,-3.3125 c 0,-0.640625 0,-1.296875 0.078125,-1.828125 0.1875,-1.1875 0.9375,-1.28125 1.1875,-1.28125 0.328125,0 0.984375,0.1875 1.171875,1.171875 0.109375,0.5625 0.109375,1.3125 0.109375,1.9375 0,0.75 0,1.421875 -0.109375,2.0625 C 3.5,-0.296875 2.9375,0 2.484375,0 Z m 0,0"
             style="stroke:none;stroke-width:0"
             inkscape:connector-curvature="0" />
        </g>
        <g
           id="g23588"
           style="fill:#000000;fill-opacity:1">
          <path
             id="path23586"
             transform="translate(163.656,131.15)"
             d="m 3.53125,-1.734375 c 0,-0.84375 -0.671875,-1.5 -1.5,-1.5 -0.828125,0 -1.5,0.671875 -1.5,1.484375 0,0.84375 0.6875,1.5 1.5,1.5 0.84375,0 1.5,-0.671875 1.5,-1.484375 z m -1.5,1.140625 C 1.375,-0.59375 0.875,-1.125 0.875,-1.734375 c 0,-0.65625 0.515625,-1.171875 1.15625,-1.171875 0.65625,0 1.15625,0.53125 1.15625,1.15625 0,0.65625 -0.515625,1.15625 -1.15625,1.15625 z m 0,0"
             style="stroke:none;stroke-width:0"
             inkscape:connector-curvature="0" />
        </g>
      </g>
    </g>
    <path
       inkscape:connector-curvature="0"
       style="fill:#000000;fill-opacity:1;stroke:none;stroke-width:0"
       d="m 42.025153,274.21448 c -0.165365,0.27781 -0.330729,0.33734 -0.515937,0.35057 -0.05292,0.007 -0.0926,0.007 -0.0926,0.086 0,0.0265 0.02646,0.0463 0.05953,0.0463 0.112448,0 0.244739,-0.0132 0.357187,-0.0132 0.145521,0 0.291042,0.0132 0.423333,0.0132 0.02646,0 0.07937,0 0.07937,-0.0794 0,-0.0463 -0.03307,-0.0529 -0.06615,-0.0529 -0.0926,-0.007 -0.198437,-0.0397 -0.198437,-0.14552 0,-0.0529 0.02646,-0.0992 0.05953,-0.15875 l 0.324114,-0.53578 h 1.058333 c 0.0066,0.086 0.06615,0.66145 0.06615,0.70114 0,0.12568 -0.218281,0.13891 -0.304271,0.13891 -0.05953,0 -0.09922,0 -0.09922,0.086 0,0.0463 0.0463,0.0463 0.05953,0.0463 0.171979,0 0.350572,-0.0132 0.522551,-0.0132 0.105834,0 0.377031,0.0132 0.482865,0.0132 0.01984,0 0.07276,0 0.07276,-0.086 0,-0.0463 -0.03969,-0.0463 -0.09922,-0.0463 -0.257968,0 -0.257968,-0.0265 -0.271197,-0.15214 l -0.257969,-2.6326 c -0.0066,-0.086 -0.0066,-0.10583 -0.07937,-0.10583 -0.06615,0 -0.08599,0.0331 -0.112448,0.0728 z m 0.509322,-0.62177 0.826823,-1.39568 0.138906,1.39568 z m 0,0"
       id="path23605" />
    <path
       inkscape:connector-curvature="0"
       style="fill:#000000;fill-opacity:1;stroke:none;stroke-width:0"
       d="m 70.31668,273.79251 c -0.03969,0.16537 -0.05292,0.19844 -0.383646,0.19844 -0.07276,0 -0.112447,0 -0.112447,0.086 0,0.0463 0.03969,0.0463 0.112447,0.0463 h 1.508124 c 0.668073,0 1.164166,-0.49609 1.164166,-0.91281 0,-0.30427 -0.244739,-0.54901 -0.654843,-0.59531 0.436562,-0.0794 0.879739,-0.39026 0.879739,-0.79375 0,-0.31089 -0.277813,-0.58209 -0.780521,-0.58209 h -1.422134 c -0.07937,0 -0.119062,0 -0.119062,0.086 0,0.0463 0.03969,0.0463 0.119062,0.0463 0.0066,0 0.08599,0 0.15875,0.007 0.07276,0.0132 0.112448,0.0132 0.112448,0.0728 0,0.0132 -0.0066,0.0265 -0.01323,0.0794 z m 0.634999,-1.21708 0.264584,-1.0451 c 0.03969,-0.14553 0.0463,-0.15875 0.224895,-0.15875 h 0.54901 c 0.370417,0 0.456406,0.25135 0.456406,0.43656 0,0.37041 -0.363802,0.76729 -0.873124,0.76729 z m -0.185208,1.41552 c -0.05953,0 -0.06615,0 -0.0926,0 -0.0463,-0.007 -0.05953,-0.0132 -0.05953,-0.0463 0,-0.0132 0,-0.0198 0.02646,-0.0926 l 0.291042,-1.17739 h 0.793749 c 0.403489,0 0.489479,0.31088 0.489479,0.48948 0,0.41671 -0.377031,0.82682 -0.879739,0.82682 z m 0,0"
       id="path23607" />
    <path
       inkscape:transform-center-x="1.7139742e-06"
       sodipodi:nodetypes="cccc"
       inkscape:connector-curvature="0"
       id="path23609"
       d="m 45.407439,272.46985 h 24.115263 l -8.997145,7.48902 z"
       inkscape:transform-center-y="2.6158836"
       style="color:#000000;clip-rule:nonzero;display:inline;overflow:visible;visibility:visible;opacity:1;isolation:auto;mix-blend-mode:normal;color-interpolation:sRGB;color-interpolation-filters:linearRGB;solid-color:#000000;solid-opacity:1;fill:none;fill-opacity:1;fill-rule:nonzero;stroke:#000000;stroke-width:0.26458332;stroke-linecap:round;stroke-linejoin:round;stroke-miterlimit:4;stroke-dasharray:none;stroke-dashoffset:0;stroke-opacity:1;color-rendering:auto;image-rendering:auto;shape-rendering:auto;text-rendering:auto;enable-background:accumulate" />
    <path
       sodipodi:nodetypes="cc"
       inkscape:connector-curvature="0"
       id="path23611"
       d="m 58.630975,278.96954 c 0.924749,-1.60433 2.662871,-1.58795 3.829527,-0.94694"
       style="color:#000000;clip-rule:nonzero;display:inline;overflow:visible;visibility:visible;opacity:1;isolation:auto;mix-blend-mode:normal;color-interpolation:sRGB;color-interpolation-filters:linearRGB;solid-color:#000000;solid-opacity:1;fill:none;fill-opacity:1;fill-rule:nonzero;stroke:#000000;stroke-width:0.13229167;stroke-linecap:round;stroke-linejoin:round;stroke-miterlimit:4;stroke-dasharray:none;stroke-dashoffset:0;stroke-opacity:1;marker-end:url(#marker23661);color-rendering:auto;image-rendering:auto;shape-rendering:auto;text-rendering:auto;enable-background:accumulate" />
    <g
       transform="matrix(0.423333,0,0,0.423333,-3.3417497,226.35884)"
       ns1:version="0.8.1"
       ns1:texconverter="pdflatex"
       ns1:pdfconverter="pdf2svg"
       ns1:text="$D$"
       ns1:preamble="/home/sriranga/.config/inkscape/extensions"
       ns1:scale="1.2"
       ns1:alignment="middle center"
       inkscapeversion="0.92.4"
       ns1:jacobian_sqrt="0.423333"
       id="g23619">
      <g
         id="g23617">
        <g
           style="fill:#000000;fill-opacity:1"
           id="g23615">
          <path
             inkscape:connector-curvature="0"
             style="stroke:none;stroke-width:0"
             d="m 1.578125,-0.78125 c -0.09375,0.390625 -0.109375,0.46875 -0.90625,0.46875 -0.15625,0 -0.265625,0 -0.265625,0.1875 C 0.40625,0 0.484375,0 0.671875,0 h 3.3125 c 2.0625,0 4.03125,-2.109375 4.03125,-4.28125 0,-1.40625 -0.84375,-2.53125 -2.34375,-2.53125 h -3.34375 c -0.1875,0 -0.296875,0 -0.296875,0.1875 0,0.125 0.078125,0.125 0.28125,0.125 0.125,0 0.3125,0.015625 0.421875,0.015625 0.171875,0.03125 0.21875,0.046875 0.21875,0.171875 0,0.03125 0,0.0625 -0.03125,0.1875 z M 3.734375,-6.125 C 3.828125,-6.46875 3.84375,-6.5 4.28125,-6.5 h 1.0625 c 0.96875,0 1.796875,0.53125 1.796875,1.84375 0,0.484375 -0.1875,2.125 -1.046875,3.21875 -0.28125,0.375 -1.0625,1.125 -2.296875,1.125 h -1.125 c -0.140625,0 -0.15625,0 -0.21875,0 -0.09375,-0.015625 -0.125,-0.03125 -0.125,-0.109375 0,-0.03125 0,-0.046875 0.046875,-0.21875 z m 0,0"
             transform="translate(148.712,134.765)"
             id="path23613" />
        </g>
      </g>
    </g>
    <path
       d="M 69.630748,272.37336 A 13.229166,13.229166 0 0 1 57.550594,280.3294 13.229166,13.229166 0 0 1 45.407437,272.46985"
       sodipodi:open="true"
       sodipodi:end="2.7236463"
       sodipodi:start="0.40997915"
       sodipodi:ry="13.229166"
       sodipodi:rx="13.229166"
       sodipodi:cy="267.10034"
       sodipodi:cx="57.497894"
       sodipodi:type="arc"
       id="path23621"
       style="color:#000000;clip-rule:nonzero;display:inline;overflow:visible;visibility:visible;opacity:1;isolation:auto;mix-blend-mode:normal;color-interpolation:sRGB;color-interpolation-filters:linearRGB;solid-color:#000000;solid-opacity:1;fill:none;fill-opacity:1;fill-rule:nonzero;stroke:#000000;stroke-width:0.21166667;stroke-linecap:round;stroke-linejoin:round;stroke-miterlimit:4;stroke-dasharray:none;stroke-dashoffset:0;stroke-opacity:1;color-rendering:auto;image-rendering:auto;shape-rendering:auto;text-rendering:auto;enable-background:accumulate" />
    <g
       transform="matrix(-1,0,0,1,78.664577,37.569087)"
       id="g23627">
      <path
         style="color:#000000;clip-rule:nonzero;display:inline;overflow:visible;visibility:visible;opacity:1;isolation:auto;mix-blend-mode:normal;color-interpolation:sRGB;color-interpolation-filters:linearRGB;solid-color:#000000;solid-opacity:1;fill:none;fill-opacity:1;fill-rule:nonzero;stroke:#000000;stroke-width:0.21166667;stroke-linecap:round;stroke-linejoin:round;stroke-miterlimit:4;stroke-dasharray:none;stroke-dashoffset:0;stroke-opacity:1;color-rendering:auto;image-rendering:auto;shape-rendering:auto;text-rendering:auto;enable-background:accumulate"
         d="m 9.0577684,234.85906 c -2.438935,-5.54316 -0.802492,-12.03465 3.9727416,-15.75918 4.775224,-3.72455 11.469799,-3.73102 16.25221,-0.0157 4.782402,3.71533 6.431342,10.20366 4.00308,15.75151 z"
         id="path23623"
         inkscape:connector-curvature="0"
         sodipodi:nodetypes="ccccc" />
      <path
         inkscape:connector-curvature="0"
         d="m 8.184079,232.02606 1.635207,2.83227 m 0.977103,-9.5e-4 -2.843121,-4.92443 m 0.043653,-1.61772 3.77657,6.54121 m 0.977102,-9.4e-4 -4.552612,-7.88536 m 0.292724,-1.18632 5.236991,9.07073 m 0.977102,-9.4e-4 -5.850284,-10.13299 m 0.421219,-0.96376 6.406168,11.09581 m 0.977102,-9.4e-4 -6.914122,-11.97561 m 0.510254,-0.80955 7.38097,12.78422 m 0.977102,-9.5e-4 -7.811782,-13.5304 m 0.578999,-0.69048 8.209885,14.21994 m 0.977103,-9.4e-4 -8.569442,-14.84271 m 0.645126,-0.57594 8.901418,15.41771 m 0.977102,-9.5e-4 -9.207853,-15.94847 m 0.695277,-0.48908 9.489679,16.43661 m 0.977102,-9.4e-4 -9.738664,-16.86786 m 0.755538,-0.38471 9.960229,17.25162 m 0.977102,-9.4e-4 -10.156711,-17.59194 m 0.806673,-0.29613 10.32714,17.88713 m 0.977102,-9.4e-4 -10.468535,-18.13204 m 0.871596,-0.18368 10.574041,18.31477 m 0.977103,-9.4e-4 -10.648539,-18.44381 m 0.9368,-0.0708 10.688841,18.51362 m 0.977103,-9.4e-4 -10.690697,-18.51683 m 1.019492,0.0725 10.648307,18.44341 m 0.402667,-0.9959 -9.979128,-17.28436 m 1.135892,0.27409 9.176429,15.89405 m 0.244557,-1.26975 -8.203551,-14.20897 m 1.326369,0.604 7.005131,12.13325 m -0.05676,-1.79165 -5.41002,-9.37043 m 1.990692,1.75465 2.869461,4.97006"
         style="fill:none;stroke:#000000;stroke-width:0.21166667"
         id="path23625" />
    </g>
    <path
       style="color:#000000;clip-rule:nonzero;display:inline;overflow:visible;visibility:visible;opacity:1;isolation:auto;mix-blend-mode:normal;color-interpolation:sRGB;color-interpolation-filters:linearRGB;solid-color:#000000;solid-opacity:1;fill:none;fill-opacity:1;fill-rule:nonzero;stroke:#000000;stroke-width:0.21166667;stroke-linecap:round;stroke-linejoin:round;stroke-miterlimit:4;stroke-dasharray:none;stroke-dashoffset:0;stroke-opacity:1;color-rendering:auto;image-rendering:auto;shape-rendering:auto;text-rendering:auto;enable-background:accumulate"
       id="path23629"
       sodipodi:type="arc"
       sodipodi:cx="57.497894"
       sodipodi:cy="267.10034"
       sodipodi:rx="13.229166"
       sodipodi:ry="13.229166"
       sodipodi:start="0.40997915"
       sodipodi:end="2.7236463"
       sodipodi:open="true"
       d="M 69.630748,272.37336 A 13.229166,13.229166 0 0 1 57.550594,280.3294 13.229166,13.229166 0 0 1 45.407437,272.46985" />
    <g
       id="g23635"
       transform="matrix(-1,0,0,1,78.664577,37.569087)">
      <path
         sodipodi:nodetypes="ccccc"
         inkscape:connector-curvature="0"
         id="path23631"
         d="m 9.0577684,234.85906 c -2.438935,-5.54316 -0.802492,-12.03465 3.9727416,-15.75918 4.775224,-3.72455 11.469799,-3.73102 16.25221,-0.0157 4.782402,3.71533 6.431342,10.20366 4.00308,15.75151 z"
         style="color:#000000;clip-rule:nonzero;display:inline;overflow:visible;visibility:visible;opacity:1;isolation:auto;mix-blend-mode:normal;color-interpolation:sRGB;color-interpolation-filters:linearRGB;solid-color:#000000;solid-opacity:1;fill:none;fill-opacity:1;fill-rule:nonzero;stroke:#000000;stroke-width:0.21166667;stroke-linecap:round;stroke-linejoin:round;stroke-miterlimit:4;stroke-dasharray:none;stroke-dashoffset:0;stroke-opacity:1;color-rendering:auto;image-rendering:auto;shape-rendering:auto;text-rendering:auto;enable-background:accumulate" />
      <path
         id="path23633"
         style="fill:none;stroke:#000000;stroke-width:0.21166667"
         d="m 8.184079,232.02606 1.635207,2.83227 m 0.977103,-9.5e-4 -2.843121,-4.92443 m 0.043653,-1.61772 3.77657,6.54121 m 0.977102,-9.4e-4 -4.552612,-7.88536 m 0.292724,-1.18632 5.236991,9.07073 m 0.977102,-9.4e-4 -5.850284,-10.13299 m 0.421219,-0.96376 6.406168,11.09581 m 0.977102,-9.4e-4 -6.914122,-11.97561 m 0.510254,-0.80955 7.38097,12.78422 m 0.977102,-9.5e-4 -7.811782,-13.5304 m 0.578999,-0.69048 8.209885,14.21994 m 0.977103,-9.4e-4 -8.569442,-14.84271 m 0.645126,-0.57594 8.901418,15.41771 m 0.977102,-9.5e-4 -9.207853,-15.94847 m 0.695277,-0.48908 9.489679,16.43661 m 0.977102,-9.4e-4 -9.738664,-16.86786 m 0.755538,-0.38471 9.960229,17.25162 m 0.977102,-9.4e-4 -10.156711,-17.59194 m 0.806673,-0.29613 10.32714,17.88713 m 0.977102,-9.4e-4 -10.468535,-18.13204 m 0.871596,-0.18368 10.574041,18.31477 m 0.977103,-9.4e-4 -10.648539,-18.44381 m 0.9368,-0.0708 10.688841,18.51362 m 0.977103,-9.4e-4 -10.690697,-18.51683 m 1.019492,0.0725 10.648307,18.44341 m 0.402667,-0.9959 -9.979128,-17.28436 m 1.135892,0.27409 9.176429,15.89405 m 0.244557,-1.26975 -8.203551,-14.20897 m 1.326369,0.604 7.005131,12.13325 m -0.05676,-1.79165 -5.41002,-9.37043 m 1.990692,1.75465 2.869461,4.97006"
         inkscape:connector-curvature="0" />
    </g>
    <circle
       r="0.75"
       cy="220.27084"
       cx="18.520834"
       style="fill:#000000;stroke:none"
       id="circle23637" />
    <g
       transform="matrix(0.352778,0,0,0.352778,2.4960174,229.27003)"
       ns1:version="0.8.1"
       ns1:texconverter="pdflatex"
       ns1:pdfconverter="pdf2svg"
       ns1:text="$110^\\circ$"
       ns1:preamble="/home/sriranga/.config/inkscape/extensions"
       ns1:scale="1.0"
       ns1:alignment="middle center"
       inkscapeversion="0.92.4"
       ns1:jacobian_sqrt="0.352778"
       id="g23655">
      <g
         id="g23653">
        <g
           style="fill:#000000;fill-opacity:1"
           id="g23647">
          <path
             inkscape:connector-curvature="0"
             style="stroke:none;stroke-width:0"
             d="m 2.9375,-6.375 c 0,-0.25 0,-0.265625 -0.234375,-0.265625 C 2.078125,-6 1.203125,-6 0.890625,-6 v 0.3125 c 0.203125,0 0.78125,0 1.296875,-0.265625 v 5.171875 c 0,0.359375 -0.03125,0.46875 -0.921875,0.46875 h -0.3125 V 0 c 0.34375,-0.03125 1.203125,-0.03125 1.609375,-0.03125 0.390625,0 1.265625,0 1.609375,0.03125 v -0.3125 h -0.3125 c -0.90625,0 -0.921875,-0.109375 -0.921875,-0.46875 z m 0,0"
             transform="translate(148.712,134.765)"
             id="path23641" />
          <path
             inkscape:connector-curvature="0"
             style="stroke:none;stroke-width:0"
             d="m 2.9375,-6.375 c 0,-0.25 0,-0.265625 -0.234375,-0.265625 C 2.078125,-6 1.203125,-6 0.890625,-6 v 0.3125 c 0.203125,0 0.78125,0 1.296875,-0.265625 v 5.171875 c 0,0.359375 -0.03125,0.46875 -0.921875,0.46875 h -0.3125 V 0 c 0.34375,-0.03125 1.203125,-0.03125 1.609375,-0.03125 0.390625,0 1.265625,0 1.609375,0.03125 v -0.3125 h -0.3125 c -0.90625,0 -0.921875,-0.109375 -0.921875,-0.46875 z m 0,0"
             transform="translate(153.6933,134.765)"
             id="path23643" />
          <path
             inkscape:connector-curvature="0"
             style="stroke:none;stroke-width:0"
             d="m 4.578125,-3.1875 c 0,-0.796875 -0.046875,-1.59375 -0.390625,-2.328125 -0.453125,-0.96875 -1.28125,-1.125 -1.6875,-1.125 -0.609375,0 -1.328125,0.265625 -1.75,1.1875 -0.3125,0.6875 -0.359375,1.46875 -0.359375,2.265625 0,0.75 0.03125,1.640625 0.453125,2.40625 0.421875,0.796875 1.15625,1 1.640625,1 0.53125,0 1.296875,-0.203125 1.734375,-1.15625 0.3125,-0.6875 0.359375,-1.46875 0.359375,-2.25 z M 2.484375,0 C 2.09375,0 1.5,-0.25 1.328125,-1.203125 1.21875,-1.796875 1.21875,-2.71875 1.21875,-3.3125 c 0,-0.640625 0,-1.296875 0.078125,-1.828125 0.1875,-1.1875 0.9375,-1.28125 1.1875,-1.28125 0.328125,0 0.984375,0.1875 1.171875,1.171875 0.109375,0.5625 0.109375,1.3125 0.109375,1.9375 0,0.75 0,1.421875 -0.109375,2.0625 C 3.5,-0.296875 2.9375,0 2.484375,0 Z m 0,0"
             transform="translate(158.6746,134.765)"
             id="path23645" />
        </g>
        <g
           style="fill:#000000;fill-opacity:1"
           id="g23651">
          <path
             inkscape:connector-curvature="0"
             style="stroke:none;stroke-width:0"
             d="m 3.53125,-1.734375 c 0,-0.84375 -0.671875,-1.5 -1.5,-1.5 -0.828125,0 -1.5,0.671875 -1.5,1.484375 0,0.84375 0.6875,1.5 1.5,1.5 0.84375,0 1.5,-0.671875 1.5,-1.484375 z m -1.5,1.140625 C 1.375,-0.59375 0.875,-1.125 0.875,-1.734375 c 0,-0.65625 0.515625,-1.171875 1.15625,-1.171875 0.65625,0 1.15625,0.53125 1.15625,1.15625 0,0.65625 -0.515625,1.15625 -1.15625,1.15625 z m 0,0"
             transform="translate(163.656,131.15)"
             id="path23649" />
        </g>
      </g>
    </g>
    <path
       style="color:#000000;clip-rule:nonzero;display:inline;overflow:visible;visibility:visible;opacity:1;isolation:auto;mix-blend-mode:normal;color-interpolation:sRGB;color-interpolation-filters:linearRGB;solid-color:#000000;solid-opacity:1;fill:none;fill-opacity:1;fill-rule:nonzero;stroke:#000000;stroke-width:0.26458332;stroke-linecap:round;stroke-linejoin:round;stroke-miterlimit:4;stroke-dasharray:none;stroke-dashoffset:0;stroke-opacity:1;color-rendering:auto;image-rendering:auto;shape-rendering:auto;text-rendering:auto;enable-background:accumulate"
       inkscape:transform-center-y="2.6158836"
       d="M 69.522722,272.46985 H 45.407459 l 8.997145,7.48902 z"
       id="path23657"
       inkscape:connector-curvature="0"
       sodipodi:nodetypes="cccc"
       inkscape:transform-center-x="-1.8147063e-06" />
    <path
       style="color:#000000;clip-rule:nonzero;display:inline;overflow:visible;visibility:visible;opacity:1;isolation:auto;mix-blend-mode:normal;color-interpolation:sRGB;color-interpolation-filters:linearRGB;solid-color:#000000;solid-opacity:1;fill:none;fill-opacity:1;fill-rule:nonzero;stroke:#000000;stroke-width:0.13229167;stroke-linecap:round;stroke-linejoin:round;stroke-miterlimit:4;stroke-dasharray:none;stroke-dashoffset:0;stroke-opacity:1;marker-end:url(#marker24249);color-rendering:auto;image-rendering:auto;shape-rendering:auto;text-rendering:auto;enable-background:accumulate"
       d="m 56.176088,278.96954 c -0.924749,-1.60433 -2.662871,-1.58795 -3.829527,-0.94694"
       id="path24245"
       inkscape:connector-curvature="0"
       sodipodi:nodetypes="cc" />
    <g
       id="g24920"
       ns1:jacobian_sqrt="0.352778"
       inkscapeversion="0.92.4"
       ns1:alignment="middle center"
       ns1:scale="1.0"
       ns1:preamble="/home/sriranga/.config/inkscape/extensions"
       ns1:text="$E$"
       ns1:pdfconverter="pdf2svg"
       ns1:texconverter="pdflatex"
       ns1:version="0.8.1"
       transform="matrix(0.352778,0,0,0.352778,-0.44271585,235.48358)">
      <g
         id="surface1">
        <g
           id="g24917"
           style="fill:#000000;fill-opacity:1">
          <path
             id="path24915"
             transform="translate(148.712,134.765)"
             d="M 7.0625,-2.328125 C 7.078125,-2.375 7.109375,-2.4375 7.109375,-2.46875 c 0,0 0,-0.109375 -0.125,-0.109375 -0.09375,0 -0.109375,0.0625 -0.125,0.125 C 6.203125,-0.984375 5.84375,-0.3125 4.140625,-0.3125 H 2.6875 c -0.140625,0 -0.171875,0 -0.21875,0 -0.109375,-0.015625 -0.140625,-0.03125 -0.140625,-0.109375 0,-0.03125 0,-0.046875 0.046875,-0.21875 L 3.0625,-3.375 h 0.984375 c 0.84375,0 0.84375,0.21875 0.84375,0.46875 0,0.0625 0,0.1875 -0.0625,0.484375 C 4.8125,-2.375 4.796875,-2.34375 4.796875,-2.3125 c 0,0.046875 0.03125,0.109375 0.125,0.109375 C 5,-2.203125 5.03125,-2.25 5.078125,-2.40625 l 0.5625,-2.328125 c 0,-0.0625 -0.046875,-0.109375 -0.125,-0.109375 -0.078125,0 -0.109375,0.0625 -0.125,0.171875 -0.21875,0.765625 -0.390625,1 -1.3125,1 h -0.9375 l 0.59375,-2.40625 C 3.828125,-6.4375 3.84375,-6.46875 4.28125,-6.46875 H 5.6875 c 1.203125,0 1.515625,0.28125 1.515625,1.109375 0,0.234375 0,0.25 -0.046875,0.53125 0,0.046875 -0.015625,0.125 -0.015625,0.171875 0,0.046875 0.03125,0.125 0.125,0.125 0.109375,0 0.125,-0.0625 0.140625,-0.25 L 7.609375,-6.515625 C 7.640625,-6.78125 7.59375,-6.78125 7.34375,-6.78125 H 2.296875 c -0.1875,0 -0.296875,0 -0.296875,0.203125 0,0.109375 0.09375,0.109375 0.28125,0.109375 0.375,0 0.65625,0 0.65625,0.171875 0,0.046875 0,0.0625 -0.0625,0.25 L 1.5625,-0.78125 c -0.09375,0.390625 -0.109375,0.46875 -0.90625,0.46875 -0.171875,0 -0.28125,0 -0.28125,0.1875 C 0.375,0 0.46875,0 0.65625,0 h 5.171875 c 0.234375,0 0.25,-0.015625 0.3125,-0.171875 z m 0,0"
             style="stroke:none;stroke-width:0"
             inkscape:connector-curvature="0" />
        </g>
      </g>
    </g>
    <circle
       style="color:#000000;clip-rule:nonzero;display:inline;overflow:visible;visibility:visible;opacity:1;isolation:auto;mix-blend-mode:normal;color-interpolation:sRGB;color-interpolation-filters:linearRGB;solid-color:#000000;solid-opacity:1;fill:none;fill-opacity:1;fill-rule:nonzero;stroke:#000000;stroke-width:0.21166667;stroke-linecap:round;stroke-linejoin:round;stroke-miterlimit:4;stroke-dasharray:none;stroke-dashoffset:0;stroke-opacity:1;color-rendering:auto;image-rendering:auto;shape-rendering:auto;text-rendering:auto;enable-background:accumulate"
       id="path25133"
       r="13.229167"
       cy="220.27084"
       cx="18.520834" />
    <path
       sodipodi:nodetypes="cc"
       inkscape:connector-curvature="0"
       id="path27109"
       d="m 23.318394,222.92168 c 0.475183,3.20683 -0.01239,4.39955 -0.606834,6.33711"
       style="color:#000000;clip-rule:nonzero;display:inline;overflow:visible;visibility:visible;opacity:1;isolation:auto;mix-blend-mode:normal;color-interpolation:sRGB;color-interpolation-filters:linearRGB;solid-color:#000000;solid-opacity:1;fill:none;fill-opacity:1;fill-rule:nonzero;stroke:#000000;stroke-width:0.2116667;stroke-linecap:round;stroke-linejoin:round;stroke-miterlimit:4;stroke-dasharray:none;stroke-dashoffset:0;stroke-opacity:1;marker-end:url(#marker27113);color-rendering:auto;image-rendering:auto;shape-rendering:auto;text-rendering:auto;enable-background:accumulate" />
    <circle
       id="circle27689"
       style="fill:#000000;stroke:none"
       cx="18.520834"
       cy="220.27084"
       r="0.75" />
    <path
       cx="18.520834"
       cy="220.27084"
       r="13.229167"
       id="path27691"
       style="color:#000000;clip-rule:nonzero;display:inline;overflow:visible;visibility:visible;opacity:1;isolation:auto;mix-blend-mode:normal;color-interpolation:sRGB;color-interpolation-filters:linearRGB;solid-color:#000000;solid-opacity:1;fill:none;fill-opacity:1;fill-rule:nonzero;stroke:#000000;stroke-width:0.21166667;stroke-linecap:round;stroke-linejoin:round;stroke-miterlimit:4;stroke-dasharray:none;stroke-dashoffset:0;stroke-opacity:1;color-rendering:auto;image-rendering:auto;shape-rendering:auto;text-rendering:auto;enable-background:accumulate" />
    <circle
       id="circle27693"
       style="fill:#000000;stroke:none"
       cx="53.888493"
       cy="220.27084"
       r="0.75" />
    <circle
       cx="59.579842"
       cy="222.03246"
       r="13.229167"
       id="circle27695"
       style="color:#000000;clip-rule:nonzero;display:inline;overflow:visible;visibility:visible;opacity:1;isolation:auto;mix-blend-mode:normal;color-interpolation:sRGB;color-interpolation-filters:linearRGB;solid-color:#000000;solid-opacity:1;fill:none;fill-opacity:1;fill-rule:nonzero;stroke:#000000;stroke-width:0.21166667;stroke-linecap:round;stroke-linejoin:round;stroke-miterlimit:4;stroke-dasharray:none;stroke-dashoffset:0;stroke-opacity:1;color-rendering:auto;image-rendering:auto;shape-rendering:auto;text-rendering:auto;enable-background:accumulate" />
    <circle
       r="0.75"
       cy="220.27084"
       cx="53.888493"
       style="fill:#000000;stroke:none"
       id="circle27697" />
  </g>
</svg>
