<?xml version="1.0" encoding="UTF-8" standalone="no"?>
<!-- Created with Inkscape (http://www.inkscape.org/) -->

<svg
   xmlns:dc="http://purl.org/dc/elements/1.1/"
   xmlns:cc="http://creativecommons.org/ns#"
   xmlns:rdf="http://www.w3.org/1999/02/22-rdf-syntax-ns#"
   xmlns:svg="http://www.w3.org/2000/svg"
   xmlns="http://www.w3.org/2000/svg"
   xmlns:sodipodi="http://sodipodi.sourceforge.net/DTD/sodipodi-0.dtd"
   xmlns:inkscape="http://www.inkscape.org/namespaces/inkscape"
   sodipodi:docname="fig1-33a.svg"
   inkscape:version="0.92.4 (unknown)"
   id="svg882"
   version="1.1"
   viewBox="0 0 110 100"
   height="10cm"
   width="11cm">
  <defs
     id="defs876">
    <marker
       inkscape:isstock="true"
       style="overflow:visible"
       id="marker6916"
       refX="0"
       refY="0"
       orient="auto"
       inkscape:stockid="Arrow1Mend">
      <path
         inkscape:connector-curvature="0"
         transform="matrix(-0.4,0,0,-0.4,-4,0)"
         style="fill:#000000;fill-opacity:1;fill-rule:evenodd;stroke:#000000;stroke-width:1.00000003pt;stroke-opacity:1"
         d="M 0,0 5,-5 -12.5,0 5,5 Z"
         id="path6914" />
    </marker>
    <marker
       inkscape:isstock="true"
       style="overflow:visible"
       id="marker34390"
       refX="0"
       refY="0"
       orient="auto"
       inkscape:stockid="Arrow1Mend">
      <path
         inkscape:connector-curvature="0"
         transform="matrix(-0.4,0,0,-0.4,-4,0)"
         style="fill:#000000;fill-opacity:1;fill-rule:evenodd;stroke:#000000;stroke-width:1.00000003pt;stroke-opacity:1"
         d="M 0,0 5,-5 -12.5,0 5,5 Z"
         id="path34388" />
    </marker>
    <marker
       inkscape:isstock="true"
       style="overflow:visible"
       id="marker31299"
       refX="0"
       refY="0"
       orient="auto"
       inkscape:stockid="Arrow1Mend">
      <path
         inkscape:connector-curvature="0"
         transform="matrix(-0.4,0,0,-0.4,-4,0)"
         style="fill:#000000;fill-opacity:1;fill-rule:evenodd;stroke:#000000;stroke-width:1.00000003pt;stroke-opacity:1"
         d="M 0,0 5,-5 -12.5,0 5,5 Z"
         id="path31297" />
    </marker>
    <marker
       inkscape:stockid="Arrow1Mend"
       orient="auto"
       refY="0"
       refX="0"
       id="marker30807"
       style="overflow:visible"
       inkscape:isstock="true"
       inkscape:collect="always">
      <path
         id="path30805"
         d="M 0,0 5,-5 -12.5,0 5,5 Z"
         style="fill:#000000;fill-opacity:1;fill-rule:evenodd;stroke:#000000;stroke-width:1.00000003pt;stroke-opacity:1"
         transform="matrix(-0.4,0,0,-0.4,-4,0)"
         inkscape:connector-curvature="0" />
    </marker>
    <marker
       inkscape:isstock="true"
       style="overflow:visible"
       id="marker26321"
       refX="0"
       refY="0"
       orient="auto"
       inkscape:stockid="Arrow1Mend">
      <path
         inkscape:connector-curvature="0"
         transform="matrix(-0.4,0,0,-0.4,-4,0)"
         style="fill:#000000;fill-opacity:1;fill-rule:evenodd;stroke:#000000;stroke-width:1.00000003pt;stroke-opacity:1"
         d="M 0,0 5,-5 -12.5,0 5,5 Z"
         id="path26319" />
    </marker>
    <marker
       inkscape:stockid="Arrow1Mend"
       orient="auto"
       refY="0"
       refX="0"
       id="marker24249"
       style="overflow:visible"
       inkscape:isstock="true">
      <path
         id="path24247"
         d="M 0,0 5,-5 -12.5,0 5,5 Z"
         style="fill:#000000;fill-opacity:1;fill-rule:evenodd;stroke:#000000;stroke-width:1.00000003pt;stroke-opacity:1"
         transform="matrix(-0.4,0,0,-0.4,-4,0)"
         inkscape:connector-curvature="0" />
    </marker>
    <marker
       inkscape:isstock="true"
       style="overflow:visible"
       id="marker20365"
       refX="0"
       refY="0"
       orient="auto"
       inkscape:stockid="Arrow1Mend">
      <path
         transform="matrix(-0.4,0,0,-0.4,-4,0)"
         style="fill:#000000;fill-opacity:1;fill-rule:evenodd;stroke:#000000;stroke-width:1.00000003pt;stroke-opacity:1"
         d="M 0,0 5,-5 -12.5,0 5,5 Z"
         id="path20363"
         inkscape:connector-curvature="0" />
    </marker>
    <marker
       inkscape:stockid="Arrow1Mend"
       orient="auto"
       refY="0"
       refX="0"
       id="marker19765"
       style="overflow:visible"
       inkscape:isstock="true">
      <path
         id="path19763"
         d="M 0,0 5,-5 -12.5,0 5,5 Z"
         style="fill:#000000;fill-opacity:1;fill-rule:evenodd;stroke:#000000;stroke-width:1.00000003pt;stroke-opacity:1"
         transform="matrix(-0.4,0,0,-0.4,-4,0)"
         inkscape:connector-curvature="0" />
    </marker>
    <marker
       inkscape:isstock="true"
       style="overflow:visible"
       id="marker19115"
       refX="0"
       refY="0"
       orient="auto"
       inkscape:stockid="Arrow1Mend">
      <path
         transform="matrix(-0.4,0,0,-0.4,-4,0)"
         style="fill:#000000;fill-opacity:1;fill-rule:evenodd;stroke:#000000;stroke-width:1.00000003pt;stroke-opacity:1"
         d="M 0,0 5,-5 -12.5,0 5,5 Z"
         id="path19113"
         inkscape:connector-curvature="0" />
    </marker>
    <marker
       inkscape:isstock="true"
       style="overflow:visible"
       id="marker15103"
       refX="0"
       refY="0"
       orient="auto"
       inkscape:stockid="Arrow1Mend">
      <path
         transform="matrix(-0.4,0,0,-0.4,-4,0)"
         style="fill:#000000;fill-opacity:1;fill-rule:evenodd;stroke:#000000;stroke-width:1.00000003pt;stroke-opacity:1"
         d="M 0,0 5,-5 -12.5,0 5,5 Z"
         id="path15101"
         inkscape:connector-curvature="0" />
    </marker>
    <marker
       inkscape:isstock="true"
       style="overflow:visible"
       id="marker8599"
       refX="0"
       refY="0"
       orient="auto"
       inkscape:stockid="Arrow1Mend">
      <path
         transform="matrix(-0.4,0,0,-0.4,-4,0)"
         style="fill:#000000;fill-opacity:1;fill-rule:evenodd;stroke:#000000;stroke-width:1.00000003pt;stroke-opacity:1"
         d="M 0,0 5,-5 -12.5,0 5,5 Z"
         id="path8597"
         inkscape:connector-curvature="0" />
    </marker>
    <marker
       inkscape:stockid="Arrow1Mend"
       orient="auto"
       refY="0"
       refX="0"
       id="marker7557"
       style="overflow:visible"
       inkscape:isstock="true">
      <path
         id="path7555"
         d="M 0,0 5,-5 -12.5,0 5,5 Z"
         style="fill:#000000;fill-opacity:1;fill-rule:evenodd;stroke:#000000;stroke-width:1.00000003pt;stroke-opacity:1"
         transform="matrix(-0.4,0,0,-0.4,-4,0)"
         inkscape:connector-curvature="0" />
    </marker>
    <marker
       inkscape:isstock="true"
       style="overflow:visible"
       id="marker4227"
       refX="0"
       refY="0"
       orient="auto"
       inkscape:stockid="Arrow1Mend">
      <path
         transform="matrix(-0.4,0,0,-0.4,-4,0)"
         style="fill:#000000;fill-opacity:1;fill-rule:evenodd;stroke:#000000;stroke-width:1.00000003pt;stroke-opacity:1"
         d="M 0,0 5,-5 -12.5,0 5,5 Z"
         id="path4225"
         inkscape:connector-curvature="0" />
    </marker>
    <marker
       inkscape:isstock="true"
       style="overflow:visible"
       id="marker15998"
       refX="0"
       refY="0"
       orient="auto"
       inkscape:stockid="Arrow1Mend">
      <path
         transform="matrix(-0.4,0,0,-0.4,-4,0)"
         style="fill:#000000;fill-opacity:1;fill-rule:evenodd;stroke:#000000;stroke-width:1.00000003pt;stroke-opacity:1"
         d="M 0,0 5,-5 -12.5,0 5,5 Z"
         id="path15996"
         inkscape:connector-curvature="0" />
    </marker>
    <marker
       inkscape:stockid="Arrow1Mend"
       orient="auto"
       refY="0"
       refX="0"
       id="marker11689"
       style="overflow:visible"
       inkscape:isstock="true">
      <path
         id="path11687"
         d="M 0,0 5,-5 -12.5,0 5,5 Z"
         style="fill:#000000;fill-opacity:1;fill-rule:evenodd;stroke:#000000;stroke-width:1.00000003pt;stroke-opacity:1"
         transform="matrix(-0.4,0,0,-0.4,-4,0)"
         inkscape:connector-curvature="0" />
    </marker>
    <marker
       inkscape:isstock="true"
       style="overflow:visible"
       id="marker31299-3"
       refX="0"
       refY="0"
       orient="auto"
       inkscape:stockid="Arrow1Mend">
      <path
         inkscape:connector-curvature="0"
         transform="matrix(-0.4,0,0,-0.4,-4,0)"
         style="fill:#000000;fill-opacity:1;fill-rule:evenodd;stroke:#000000;stroke-width:1.00000003pt;stroke-opacity:1"
         d="M 0,0 5,-5 -12.5,0 5,5 Z"
         id="path31297-6" />
    </marker>
  </defs>
  <sodipodi:namedview
     id="base"
     pagecolor="#ffffff"
     bordercolor="#666666"
     borderopacity="1.0"
     inkscape:pageopacity="0.0"
     inkscape:pageshadow="2"
     inkscape:zoom="3.1463415"
     inkscape:cx="328.14789"
     inkscape:cy="236.22106"
     inkscape:document-units="cm"
     inkscape:current-layer="layer1"
     showgrid="true"
     units="cm"
     inkscape:window-width="805"
     inkscape:window-height="716"
     inkscape:window-x="12"
     inkscape:window-y="24"
     inkscape:window-maximized="0"
     showguides="true"
     inkscape:guide-bbox="true">
    <inkscape:grid
       type="xygrid"
       id="grid1452" />
  </sodipodi:namedview>
  <metadata
     id="metadata879">
    <rdf:RDF>
      <cc:Work
         rdf:about="">
        <dc:format>image/svg+xml</dc:format>
        <dc:type
           rdf:resource="http://purl.org/dc/dcmitype/StillImage" />
        <dc:title />
      </cc:Work>
    </rdf:RDF>
  </metadata>
  <g
     inkscape:label="Layer 1"
     inkscape:groupmode="layer"
     id="layer1"
     transform="translate(0,-197.00001)">
    <path
       cx="18.520834"
       cy="220.27084"
       r="13.229167"
       id="path27691"
       style="color:#000000;clip-rule:nonzero;display:inline;overflow:visible;visibility:visible;opacity:1;isolation:auto;mix-blend-mode:normal;color-interpolation:sRGB;color-interpolation-filters:linearRGB;solid-color:#000000;solid-opacity:1;fill:none;fill-opacity:1;fill-rule:nonzero;stroke:#000000;stroke-width:0.21166667;stroke-linecap:round;stroke-linejoin:round;stroke-miterlimit:4;stroke-dasharray:none;stroke-dashoffset:0;stroke-opacity:1;color-rendering:auto;image-rendering:auto;shape-rendering:auto;text-rendering:auto;enable-background:accumulate" />
    <circle
       id="path5345"
       style="color:#000000;clip-rule:nonzero;display:inline;overflow:visible;visibility:visible;opacity:1;isolation:auto;mix-blend-mode:normal;color-interpolation:sRGB;color-interpolation-filters:linearRGB;solid-color:#000000;solid-opacity:1;fill:none;fill-opacity:1;fill-rule:nonzero;stroke:#000000;stroke-width:0.21166667;stroke-linecap:round;stroke-linejoin:round;stroke-miterlimit:4;stroke-dasharray:none;stroke-dashoffset:0;stroke-opacity:1;color-rendering:auto;image-rendering:auto;shape-rendering:auto;text-rendering:auto;enable-background:accumulate"
       cx="14.758836"
       cy="219.05292"
       r="13.229167" />
    <path
       style="color:#000000;clip-rule:nonzero;display:inline;overflow:visible;visibility:visible;opacity:1;isolation:auto;mix-blend-mode:normal;color-interpolation:sRGB;color-interpolation-filters:linearRGB;solid-color:#000000;solid-opacity:1;fill:none;fill-opacity:1;fill-rule:nonzero;stroke:#000000;stroke-width:0.18520834;stroke-linecap:round;stroke-linejoin:round;stroke-miterlimit:4;stroke-dasharray:none;stroke-dashoffset:0;stroke-opacity:1;marker-end:url(#marker30807);color-rendering:auto;image-rendering:auto;shape-rendering:auto;text-rendering:auto;enable-background:accumulate"
       d="m 19.613069,212.82898 c 2.284338,5.57295 0.941508,9.5971 -0.0018,12.24509"
       id="path5347"
       inkscape:connector-curvature="0"
       sodipodi:nodetypes="cc" />
    <path
       sodipodi:nodetypes="cc"
       inkscape:connector-curvature="0"
       id="path5377"
       d="m 80.426734,210.98974 c 0.55984,2.58176 2.12952,2.86925 3.44015,3.43763"
       style="color:#000000;clip-rule:nonzero;display:inline;overflow:visible;visibility:visible;opacity:1;isolation:auto;mix-blend-mode:normal;color-interpolation:sRGB;color-interpolation-filters:linearRGB;solid-color:#000000;solid-opacity:1;fill:none;fill-opacity:1;fill-rule:nonzero;stroke:#000000;stroke-width:0.18520834;stroke-linecap:round;stroke-linejoin:round;stroke-miterlimit:4;stroke-dasharray:none;stroke-dashoffset:0;stroke-opacity:1;marker-end:url(#marker34390);color-rendering:auto;image-rendering:auto;shape-rendering:auto;text-rendering:auto;enable-background:accumulate" />
    <path
       inkscape:connector-curvature="0"
       style="fill:#000000;fill-opacity:1;stroke:none;stroke-width:0"
       d="m 50.894094,203.42283 c -0.165365,0.27781 -0.330729,0.33734 -0.515937,0.35057 -0.05292,0.007 -0.0926,0.007 -0.0926,0.086 0,0.0265 0.02646,0.0463 0.05953,0.0463 0.112448,0 0.244739,-0.0132 0.357187,-0.0132 0.145521,0 0.291042,0.0132 0.423333,0.0132 0.02646,0 0.07937,0 0.07937,-0.0794 0,-0.0463 -0.03307,-0.0529 -0.06615,-0.0529 -0.0926,-0.007 -0.198437,-0.0397 -0.198437,-0.14552 0,-0.0529 0.02646,-0.0992 0.05953,-0.15875 l 0.324114,-0.53578 h 1.058333 c 0.0066,0.086 0.06615,0.66145 0.06615,0.70114 0,0.12568 -0.218281,0.13891 -0.304271,0.13891 -0.05953,0 -0.09922,0 -0.09922,0.086 0,0.0463 0.0463,0.0463 0.05953,0.0463 0.171979,0 0.350572,-0.0132 0.522551,-0.0132 0.105834,0 0.377031,0.0132 0.482865,0.0132 0.01984,0 0.07276,0 0.07276,-0.086 0,-0.0463 -0.03969,-0.0463 -0.09922,-0.0463 -0.257968,0 -0.257968,-0.0265 -0.271197,-0.15214 l -0.257969,-2.6326 c -0.0066,-0.086 -0.0066,-0.10583 -0.07937,-0.10583 -0.06615,0 -0.08599,0.0331 -0.112448,0.0728 z m 0.509322,-0.62177 0.826823,-1.39568 0.138906,1.39568 z m 0,0"
       id="path5753" />
    <path
       inkscape:connector-curvature="0"
       style="fill:#000000;fill-opacity:1;stroke:none;stroke-width:0"
       d="m 67.222431,193.70648 c -0.0397,0.16537 -0.0529,0.19844 -0.38364,0.19844 -0.0728,0 -0.11245,0 -0.11245,0.086 0,0.0463 0.0397,0.0463 0.11245,0.0463 h 1.50812 c 0.66808,0 1.16417,-0.49609 1.16417,-0.91281 0,-0.30427 -0.24474,-0.54901 -0.65484,-0.59531 0.43656,-0.0794 0.87973,-0.39026 0.87973,-0.79375 0,-0.31089 -0.27781,-0.58209 -0.78052,-0.58209 h -1.42213 c -0.0794,0 -0.11906,0 -0.11906,0.086 0,0.0463 0.0397,0.0463 0.11906,0.0463 0.007,0 0.086,0 0.15875,0.007 0.0728,0.0132 0.11245,0.0132 0.11245,0.0728 0,0.0132 -0.007,0.0265 -0.0132,0.0794 z m 0.635,-1.21708 0.26459,-1.0451 c 0.0397,-0.14553 0.0463,-0.15875 0.22489,-0.15875 h 0.54901 c 0.37042,0 0.45641,0.25135 0.45641,0.43656 0,0.37041 -0.3638,0.76729 -0.87313,0.76729 z m -0.1852,1.41552 c -0.0595,0 -0.0661,0 -0.0926,0 -0.0463,-0.007 -0.0595,-0.0132 -0.0595,-0.0463 0,-0.0132 0,-0.0198 0.0265,-0.0926 l 0.29104,-1.17739 h 0.79375 c 0.40349,0 0.48948,0.31088 0.48948,0.48948 0,0.41671 -0.37704,0.82682 -0.87974,0.82682 z m 0,0"
       id="path5755" />
    <path
       sodipodi:nodetypes="cc"
       inkscape:connector-curvature="0"
       id="path6912"
       d="m 10.254649,225.32407 c -2.2843372,-5.57295 -0.9415075,-9.5971 0.0018,-12.24509"
       style="color:#000000;clip-rule:nonzero;display:inline;overflow:visible;visibility:visible;opacity:1;isolation:auto;mix-blend-mode:normal;color-interpolation:sRGB;color-interpolation-filters:linearRGB;solid-color:#000000;solid-opacity:1;fill:none;fill-opacity:1;fill-rule:nonzero;stroke:#000000;stroke-width:0.18520834;stroke-linecap:round;stroke-linejoin:round;stroke-miterlimit:4;stroke-dasharray:none;stroke-dashoffset:0;stroke-opacity:1;marker-end:url(#marker6916);color-rendering:auto;image-rendering:auto;shape-rendering:auto;text-rendering:auto;enable-background:accumulate" />
    <path
       transform="scale(1,-1)"
       d="m 74.393325,-193.27252 a 13.229167,13.229167 0 0 1 -6.614584,11.45679 13.229167,13.229167 0 0 1 -13.229167,0 13.229167,13.229167 0 0 1 -6.614583,-11.45679"
       sodipodi:open="true"
       sodipodi:end="3.1415927"
       sodipodi:start="0"
       sodipodi:ry="13.229167"
       sodipodi:rx="13.229167"
       sodipodi:cy="-193.27252"
       sodipodi:cx="61.164158"
       sodipodi:type="arc"
       id="path7052"
       style="color:#000000;clip-rule:nonzero;display:inline;overflow:visible;visibility:visible;opacity:1;isolation:auto;mix-blend-mode:normal;color-interpolation:sRGB;color-interpolation-filters:linearRGB;solid-color:#000000;solid-opacity:1;fill:none;fill-opacity:1;fill-rule:nonzero;stroke:#000000;stroke-width:0.21166667;stroke-linecap:round;stroke-linejoin:round;stroke-miterlimit:4;stroke-dasharray:none;stroke-dashoffset:0;stroke-opacity:1;color-rendering:auto;image-rendering:auto;shape-rendering:auto;text-rendering:auto;enable-background:accumulate" />
    <path
       inkscape:connector-curvature="0"
       style="color:#000000;clip-rule:nonzero;display:inline;overflow:visible;visibility:visible;opacity:1;isolation:auto;mix-blend-mode:normal;color-interpolation:sRGB;color-interpolation-filters:linearRGB;solid-color:#000000;solid-opacity:1;fill:none;fill-opacity:1;fill-rule:nonzero;stroke:#000000;stroke-width:0.21166667;stroke-linecap:round;stroke-linejoin:round;stroke-miterlimit:4;stroke-dasharray:none;stroke-dashoffset:0;stroke-opacity:1;color-rendering:auto;image-rendering:auto;shape-rendering:auto;text-rendering:auto;enable-background:accumulate"
       d="m 33.73332,234.26005 a 13.229167,13.229167 0 0 0 11.45679,-6.61458 13.229167,13.229167 0 0 0 0,-13.22917 13.229167,13.229167 0 0 0 -11.45679,-6.61458 v 26.45833"
       id="circle7050" />
    <circle
       id="path7055"
       style="fill:#000000;stroke:none"
       cx="221.03165"
       cy="-33.733288"
       r="0.75"
       transform="rotate(90)" />
    <text
       xml:space="preserve"
       style="font-style:normal;font-variant:normal;font-weight:normal;font-stretch:normal;font-size:4.23333359px;line-height:125%;font-family:LMRoman12;-inkscape-font-specification:LMRoman12;text-align:center;letter-spacing:0px;word-spacing:0px;writing-mode:lr-tb;text-anchor:middle;fill:#000000;fill-opacity:1;stroke:none;stroke-width:0.26458335px;stroke-linecap:butt;stroke-linejoin:miter;stroke-opacity:1"
       x="36.848778"
       y="222.5215"
       id="text7059"><tspan
         sodipodi:role="line"
         id="tspan7057"
         x="36.848778"
         y="222.5215"
         style="stroke-width:0.26458335px">O</tspan></text>
    <path
       id="path7061"
       d="m 72.056249,222.25952 c -0.165365,0.27781 -0.330729,0.33734 -0.515937,0.35057 -0.05292,0.007 -0.0926,0.007 -0.0926,0.086 0,0.0265 0.02646,0.0463 0.05953,0.0463 0.112448,0 0.244739,-0.0132 0.357187,-0.0132 0.145521,0 0.291042,0.0132 0.423333,0.0132 0.02646,0 0.07937,0 0.07937,-0.0794 0,-0.0463 -0.03307,-0.0529 -0.06615,-0.0529 -0.0926,-0.007 -0.198437,-0.0397 -0.198437,-0.14552 0,-0.0529 0.02646,-0.0992 0.05953,-0.15875 l 0.324114,-0.53578 h 1.058333 c 0.0066,0.086 0.06615,0.66145 0.06615,0.70114 0,0.12568 -0.218281,0.13891 -0.304271,0.13891 -0.05953,0 -0.09922,0 -0.09922,0.086 0,0.0463 0.0463,0.0463 0.05953,0.0463 0.171979,0 0.350572,-0.0132 0.522551,-0.0132 0.105834,0 0.377031,0.0132 0.482865,0.0132 0.01984,0 0.07276,0 0.07276,-0.086 0,-0.0463 -0.03969,-0.0463 -0.09922,-0.0463 -0.257968,0 -0.257968,-0.0265 -0.271197,-0.15214 l -0.257969,-2.6326 c -0.0066,-0.086 -0.0066,-0.10583 -0.07937,-0.10583 -0.06615,0 -0.08599,0.0331 -0.112448,0.0728 z m 0.509322,-0.62177 0.826823,-1.39568 0.138906,1.39568 z m 0,0"
       style="fill:#000000;fill-opacity:1;stroke:none;stroke-width:0"
       inkscape:connector-curvature="0" />
    <path
       id="path7063"
       d="m 101.33481,222.29789 c -0.0397,0.16537 -0.0529,0.19844 -0.38364,0.19844 -0.0728,0 -0.11245,0 -0.11245,0.086 0,0.0463 0.0397,0.0463 0.11245,0.0463 h 1.50812 c 0.66808,0 1.16417,-0.49609 1.16417,-0.91281 0,-0.30427 -0.24474,-0.54901 -0.65484,-0.59531 0.43656,-0.0794 0.87973,-0.39026 0.87973,-0.79375 0,-0.31089 -0.27781,-0.58209 -0.78052,-0.58209 h -1.42213 c -0.0794,0 -0.11906,0 -0.11906,0.086 0,0.0463 0.0397,0.0463 0.11906,0.0463 0.007,0 0.086,0 0.15875,0.007 0.0728,0.0132 0.11245,0.0132 0.11245,0.0728 0,0.0132 -0.007,0.0265 -0.0132,0.0794 z m 0.635,-1.21708 0.26459,-1.0451 c 0.0397,-0.14553 0.0463,-0.15875 0.22489,-0.15875 h 0.54901 c 0.37042,0 0.45641,0.25135 0.45641,0.43656 0,0.37041 -0.3638,0.76729 -0.87313,0.76729 z m -0.1852,1.41552 c -0.0595,0 -0.0661,0 -0.0926,0 -0.0463,-0.007 -0.0595,-0.0132 -0.0595,-0.0463 0,-0.0132 0,-0.0198 0.0265,-0.0926 l 0.29104,-1.17739 h 0.79375 c 0.40349,0 0.48948,0.31088 0.48948,0.48948 0,0.41671 -0.37704,0.82682 -0.87974,0.82682 z m 0,0"
       style="fill:#000000;fill-opacity:1;stroke:none;stroke-width:0"
       inkscape:connector-curvature="0" />
    <path
       id="path7065"
       d="m 101.10558,220.71124 c 0,-4.72632 -2.521468,-9.09363 -6.614586,-11.45679 -4.093119,-2.36316 -9.136049,-2.36316 -13.229168,0 -4.093117,2.36316 -3.20974,4.96715 -3.209742,9.69348 l 23.053496,1.76331"
       style="color:#000000;clip-rule:nonzero;display:inline;overflow:visible;visibility:visible;opacity:1;isolation:auto;mix-blend-mode:normal;color-interpolation:sRGB;color-interpolation-filters:linearRGB;solid-color:#000000;solid-opacity:1;fill:none;fill-opacity:1;fill-rule:nonzero;stroke:#000000;stroke-width:0.21166667;stroke-linecap:round;stroke-linejoin:round;stroke-miterlimit:4;stroke-dasharray:none;stroke-dashoffset:0;stroke-opacity:1;color-rendering:auto;image-rendering:auto;shape-rendering:auto;text-rendering:auto;enable-background:accumulate"
       inkscape:connector-curvature="0"
       sodipodi:nodetypes="csscc" />
    <circle
       r="0.75"
       cy="220.71127"
       cx="87.877167"
       style="fill:#000000;stroke:none"
       id="circle7069" />
    <text
       id="text7073"
       y="225.38065"
       x="87.779633"
       style="font-style:normal;font-variant:normal;font-weight:normal;font-stretch:normal;font-size:4.23333359px;line-height:125%;font-family:LMRoman12;-inkscape-font-specification:LMRoman12;text-align:center;letter-spacing:0px;word-spacing:0px;writing-mode:lr-tb;text-anchor:middle;fill:#000000;fill-opacity:1;stroke:none;stroke-width:0.26458335px;stroke-linecap:butt;stroke-linejoin:miter;stroke-opacity:1"
       xml:space="preserve"><tspan
         style="stroke-width:0.26458335px"
         y="225.38065"
         x="87.779633"
         id="tspan7071"
         sodipodi:role="line">O</tspan></text>
    <path
       inkscape:connector-curvature="0"
       style="color:#000000;clip-rule:nonzero;display:inline;overflow:visible;visibility:visible;opacity:1;isolation:auto;mix-blend-mode:normal;color-interpolation:sRGB;color-interpolation-filters:linearRGB;solid-color:#000000;solid-opacity:1;fill:none;fill-opacity:1;fill-rule:nonzero;stroke:#000000;stroke-width:0.21166667;stroke-linecap:round;stroke-linejoin:round;stroke-miterlimit:4;stroke-dasharray:none;stroke-dashoffset:0;stroke-opacity:1;color-rendering:auto;image-rendering:auto;shape-rendering:auto;text-rendering:auto;enable-background:accumulate"
       d="m 101.10558,220.71124 c 0,4.72632 -2.521468,9.09363 -6.614586,11.45679 -4.093119,2.36316 -9.136049,2.36316 -13.229168,0 -4.093117,-2.36316 -6.614581,-6.73047 -6.614583,-11.45679"
       id="path7094"
       sodipodi:nodetypes="cssc" />
    <path
       style="color:#000000;clip-rule:nonzero;display:inline;overflow:visible;visibility:visible;opacity:1;isolation:auto;mix-blend-mode:normal;color-interpolation:sRGB;color-interpolation-filters:linearRGB;solid-color:#000000;solid-opacity:1;fill:none;fill-opacity:1;fill-rule:nonzero;stroke:#000000;stroke-width:0.21166667;stroke-linecap:round;stroke-linejoin:round;stroke-miterlimit:4;stroke-dasharray:none;stroke-dashoffset:0;stroke-opacity:1;color-rendering:auto;image-rendering:auto;shape-rendering:auto;text-rendering:auto;enable-background:accumulate"
       id="path970"
       sodipodi:type="arc"
       sodipodi:cx="221.72447"
       sodipodi:cy="54.38139"
       sodipodi:rx="13.229167"
       sodipodi:ry="13.229167"
       sodipodi:start="0.5302482"
       sodipodi:end="3.1415927"
       sodipodi:open="true"
       d="m 233.13703,61.072007 a 13.229167,13.229167 0 0 1 -14.87898,6.076322 13.229167,13.229167 0 0 1 -9.76274,-12.76694"
       transform="matrix(0,1,1,0,0,0)" />
    <path
       style="color:#000000;clip-rule:nonzero;display:inline;overflow:visible;visibility:visible;opacity:1;isolation:auto;mix-blend-mode:normal;color-interpolation:sRGB;color-interpolation-filters:linearRGB;solid-color:#000000;solid-opacity:1;fill:none;fill-opacity:1;fill-rule:nonzero;stroke:#000000;stroke-width:0.26458335;stroke-linecap:round;stroke-linejoin:round;stroke-miterlimit:4;stroke-dasharray:none;stroke-dashoffset:0;stroke-opacity:1;color-rendering:auto;image-rendering:auto;shape-rendering:auto;text-rendering:auto;enable-background:accumulate"
       d="m 54.407769,208.54256 v 13.05047 l 10.889786,7.55988"
       id="path976"
       inkscape:connector-curvature="0"
       sodipodi:nodetypes="ccc" />
    <path
       style="color:#000000;clip-rule:nonzero;display:inline;overflow:visible;visibility:visible;opacity:1;isolation:auto;mix-blend-mode:normal;color-interpolation:sRGB;color-interpolation-filters:linearRGB;solid-color:#000000;solid-opacity:1;fill:none;fill-opacity:1;fill-rule:nonzero;stroke:#000000;stroke-width:0.26458335;stroke-linecap:round;stroke-linejoin:round;stroke-miterlimit:4;stroke-dasharray:none;stroke-dashoffset:0;stroke-opacity:1;color-rendering:auto;image-rendering:auto;shape-rendering:auto;text-rendering:auto;enable-background:accumulate"
       d="m 54.407769,221.59303 6.653388,11.51185"
       id="path978"
       inkscape:connector-curvature="0"
       sodipodi:nodetypes="cc" />
    <circle
       id="path980"
       style="fill:#000000;stroke:none"
       cx="54.407768"
       cy="221.59303"
       r="0.75" />
    <path
       sodipodi:nodetypes="cc"
       inkscape:connector-curvature="0"
       id="path982"
       d="m 87.918584,220.71005 6.611337,11.30163"
       style="color:#000000;clip-rule:nonzero;display:inline;overflow:visible;visibility:visible;opacity:1;isolation:auto;mix-blend-mode:normal;color-interpolation:sRGB;color-interpolation-filters:linearRGB;solid-color:#000000;solid-opacity:1;fill:none;fill-opacity:1;fill-rule:nonzero;stroke:#000000;stroke-width:0.26458335;stroke-linecap:round;stroke-linejoin:round;stroke-miterlimit:4;stroke-dasharray:none;stroke-dashoffset:0;stroke-opacity:1;color-rendering:auto;image-rendering:auto;shape-rendering:auto;text-rendering:auto;enable-background:accumulate" />
    <path
       style="color:#000000;clip-rule:nonzero;display:inline;overflow:visible;visibility:visible;opacity:1;isolation:auto;mix-blend-mode:normal;color-interpolation:sRGB;color-interpolation-filters:linearRGB;solid-color:#000000;solid-opacity:1;fill:none;fill-opacity:1;fill-rule:nonzero;stroke:#000000;stroke-width:0.26458335;stroke-linecap:round;stroke-linejoin:round;stroke-miterlimit:4;stroke-dasharray:none;stroke-dashoffset:0;stroke-opacity:1;color-rendering:auto;image-rendering:auto;shape-rendering:auto;text-rendering:auto;enable-background:accumulate"
       d="m 87.829391,220.71005 -6.611337,11.30163"
       id="path984"
       inkscape:connector-curvature="0"
       sodipodi:nodetypes="cc" />
    <path
       id="path986"
       d="m 87.950141,207.55579 v 26.45834"
       style="color:#000000;clip-rule:nonzero;display:inline;overflow:visible;visibility:visible;opacity:1;isolation:auto;mix-blend-mode:normal;color-interpolation:sRGB;color-interpolation-filters:linearRGB;solid-color:#000000;solid-opacity:1;fill:none;fill-opacity:1;fill-rule:nonzero;stroke:#000000;stroke-width:0.20999999;stroke-linecap:round;stroke-linejoin:round;stroke-miterlimit:4;stroke-dasharray:0.83999998,0.83999998;stroke-dashoffset:0;stroke-opacity:1;color-rendering:auto;image-rendering:auto;shape-rendering:auto;text-rendering:auto;enable-background:accumulate"
       inkscape:connector-curvature="0"
       sodipodi:nodetypes="cc" />
    <path
       sodipodi:nodetypes="cc"
       inkscape:connector-curvature="0"
       style="color:#000000;clip-rule:nonzero;display:inline;overflow:visible;visibility:visible;opacity:1;isolation:auto;mix-blend-mode:normal;color-interpolation:sRGB;color-interpolation-filters:linearRGB;solid-color:#000000;solid-opacity:1;fill:none;fill-opacity:1;fill-rule:nonzero;stroke:#000000;stroke-width:0.20999999;stroke-linecap:round;stroke-linejoin:round;stroke-miterlimit:4;stroke-dasharray:0.83999998, 0.83999998;stroke-dashoffset:0;stroke-opacity:1;color-rendering:auto;image-rendering:auto;shape-rendering:auto;text-rendering:auto;enable-background:accumulate"
       d="M 107.15625,211.01043 93.135471,188.57249"
       id="path990" />
  </g>
</svg>
