<?xml version="1.0" encoding="UTF-8" standalone="no"?>
<!-- Created with Inkscape (http://www.inkscape.org/) -->

<svg
   xmlns:dc="http://purl.org/dc/elements/1.1/"
   xmlns:cc="http://creativecommons.org/ns#"
   xmlns:rdf="http://www.w3.org/1999/02/22-rdf-syntax-ns#"
   xmlns:svg="http://www.w3.org/2000/svg"
   xmlns="http://www.w3.org/2000/svg"
   xmlns:sodipodi="http://sodipodi.sourceforge.net/DTD/sodipodi-0.dtd"
   xmlns:inkscape="http://www.inkscape.org/namespaces/inkscape"
   sodipodi:docname="fig1-27.svg"
   inkscape:version="0.92.4 (unknown)"
   id="svg882"
   version="1.1"
   viewBox="0 0 100 100"
   height="10cm"
   width="10cm">
  <defs
     id="defs876">
    <marker
       inkscape:isstock="true"
       style="overflow:visible;"
       id="marker11175"
       refX="0.0"
       refY="0.0"
       orient="auto"
       inkscape:stockid="Arrow1Mend">
      <path
         transform="scale(0.4) rotate(180) translate(10,0)"
         style="fill-rule:evenodd;stroke:#000000;stroke-width:1pt;stroke-opacity:1;fill:#000000;fill-opacity:1"
         d="M 0.0,0.0 L 5.0,-5.0 L -12.5,0.0 L 5.0,5.0 L 0.0,0.0 z "
         id="path11173" />
    </marker>
    <marker
       inkscape:isstock="true"
       style="overflow:visible;"
       id="marker10825"
       refX="0.0"
       refY="0.0"
       orient="auto"
       inkscape:stockid="Arrow1Mend">
      <path
         transform="scale(0.4) rotate(180) translate(10,0)"
         style="fill-rule:evenodd;stroke:#000000;stroke-width:1pt;stroke-opacity:1;fill:#000000;fill-opacity:1"
         d="M 0.0,0.0 L 5.0,-5.0 L -12.5,0.0 L 5.0,5.0 L 0.0,0.0 z "
         id="path10823" />
    </marker>
    <marker
       inkscape:stockid="Arrow1Mend"
       orient="auto"
       refY="0.0"
       refX="0.0"
       id="marker9835"
       style="overflow:visible;"
       inkscape:isstock="true">
      <path
         id="path9833"
         d="M 0.0,0.0 L 5.0,-5.0 L -12.5,0.0 L 5.0,5.0 L 0.0,0.0 z "
         style="fill-rule:evenodd;stroke:#000000;stroke-width:1pt;stroke-opacity:1;fill:#000000;fill-opacity:1"
         transform="scale(0.4) rotate(180) translate(10,0)" />
    </marker>
    <marker
       inkscape:stockid="Arrow1Mend"
       orient="auto"
       refY="0.0"
       refX="0.0"
       id="marker9495"
       style="overflow:visible;"
       inkscape:isstock="true">
      <path
         id="path9493"
         d="M 0.0,0.0 L 5.0,-5.0 L -12.5,0.0 L 5.0,5.0 L 0.0,0.0 z "
         style="fill-rule:evenodd;stroke:#000000;stroke-width:1pt;stroke-opacity:1;fill:#000000;fill-opacity:1"
         transform="scale(0.4) rotate(180) translate(10,0)" />
    </marker>
    <marker
       inkscape:isstock="true"
       style="overflow:visible;"
       id="marker4227"
       refX="0.0"
       refY="0.0"
       orient="auto"
       inkscape:stockid="Arrow1Mend">
      <path
         transform="scale(0.4) rotate(180) translate(10,0)"
         style="fill-rule:evenodd;stroke:#000000;stroke-width:1pt;stroke-opacity:1;fill:#000000;fill-opacity:1"
         d="M 0.0,0.0 L 5.0,-5.0 L -12.5,0.0 L 5.0,5.0 L 0.0,0.0 z "
         id="path4225" />
    </marker>
    <marker
       inkscape:isstock="true"
       style="overflow:visible;"
       id="marker15998"
       refX="0.0"
       refY="0.0"
       orient="auto"
       inkscape:stockid="Arrow1Mend">
      <path
         transform="scale(0.4) rotate(180) translate(10,0)"
         style="fill-rule:evenodd;stroke:#000000;stroke-width:1pt;stroke-opacity:1;fill:#000000;fill-opacity:1"
         d="M 0.0,0.0 L 5.0,-5.0 L -12.5,0.0 L 5.0,5.0 L 0.0,0.0 z "
         id="path15996" />
    </marker>
    <marker
       inkscape:stockid="Arrow1Mend"
       orient="auto"
       refY="0.0"
       refX="0.0"
       id="marker11689"
       style="overflow:visible;"
       inkscape:isstock="true">
      <path
         id="path11687"
         d="M 0.0,0.0 L 5.0,-5.0 L -12.5,0.0 L 5.0,5.0 L 0.0,0.0 z "
         style="fill-rule:evenodd;stroke:#000000;stroke-width:1pt;stroke-opacity:1;fill:#000000;fill-opacity:1"
         transform="scale(0.4) rotate(180) translate(10,0)" />
    </marker>
  </defs>
  <sodipodi:namedview
     id="base"
     pagecolor="#ffffff"
     bordercolor="#666666"
     borderopacity="1.0"
     inkscape:pageopacity="0.0"
     inkscape:pageshadow="2"
     inkscape:zoom="1.5001875"
     inkscape:cx="188.97638"
     inkscape:cy="188.97638"
     inkscape:document-units="cm"
     inkscape:current-layer="layer1"
     showgrid="false"
     units="cm"
     inkscape:window-width="773"
     inkscape:window-height="716"
     inkscape:window-x="12"
     inkscape:window-y="24"
     inkscape:window-maximized="0"
     showguides="true"
     inkscape:guide-bbox="true">
    <inkscape:grid
       id="grid1452"
       type="xygrid" />
  </sodipodi:namedview>
  <metadata
     id="metadata879">
    <rdf:RDF>
      <cc:Work
         rdf:about="">
        <dc:format>image/svg+xml</dc:format>
        <dc:type
           rdf:resource="http://purl.org/dc/dcmitype/StillImage" />
        <dc:title></dc:title>
      </cc:Work>
    </rdf:RDF>
  </metadata>
  <g
     inkscape:label="Layer 1"
     inkscape:groupmode="layer"
     id="layer1"
     transform="translate(0,-197.00001)">
    <circle
       id="path11285"
       style="fill:#000000;stroke:none"
       cx="34.419308"
       cy="222.96249"
       r="0.75" />
    <path
       id="circle11690"
       style="color:#000000;clip-rule:nonzero;display:inline;overflow:visible;visibility:visible;opacity:1;isolation:auto;mix-blend-mode:normal;color-interpolation:sRGB;color-interpolation-filters:linearRGB;solid-color:#000000;solid-opacity:1;fill:none;fill-opacity:1;fill-rule:nonzero;stroke:#000000;stroke-width:0.21166667;stroke-linecap:round;stroke-linejoin:round;stroke-miterlimit:4;stroke-dasharray:none;stroke-dashoffset:0;stroke-opacity:1;color-rendering:auto;image-rendering:auto;shape-rendering:auto;text-rendering:auto;enable-background:accumulate"
       sodipodi:type="arc"
       sodipodi:cx="34.395832"
       sodipodi:cy="222.91667"
       sodipodi:rx="10.583333"
       sodipodi:ry="10.583333"
       sodipodi:start="3.1307533"
       sodipodi:end="0.0059341189"
       sodipodi:open="true"
       d="m 23.813121,223.03139 a 10.583333,10.583333 0 0 1 5.243016,-9.25226 10.583333,10.583333 0 0 1 10.634505,-0.0261 10.583333,10.583333 0 0 1 5.288337,9.22642" />
    <g
       id="g11816">
      <path
         sodipodi:nodetypes="ccccc"
         inkscape:connector-curvature="0"
         id="path11783"
         d="m 23.813121,-222.86476 c -0.04121,-3.80199 1.960229,-7.33389 5.243016,-9.25225 3.282784,-1.91837 7.342344,-1.92833 10.634505,-0.0261 3.29216,1.90224 5.310902,5.42429 5.288337,9.22643 z"
         style="color:#000000;clip-rule:nonzero;display:inline;overflow:visible;visibility:visible;opacity:1;isolation:auto;mix-blend-mode:normal;color-interpolation:sRGB;color-interpolation-filters:linearRGB;solid-color:#000000;solid-opacity:1;fill:none;fill-opacity:1;fill-rule:nonzero;stroke:#000000;stroke-width:0.21166667;stroke-linecap:round;stroke-linejoin:round;stroke-miterlimit:4;stroke-dasharray:none;stroke-dashoffset:0;stroke-opacity:1;color-rendering:auto;image-rendering:auto;shape-rendering:auto;text-rendering:auto;enable-background:accumulate"
         transform="scale(1,-1)" />
      <path
         id="path11814"
         transform="scale(1,-1)"
         style="stroke:#000000;stroke-width:0.21166667;fill:none"
         d="M 24.213538,-225.826322 l 2.645125,-4.581490 M 28.673389,-231.857678 l -4.824718,8.356656 M 24.459888,-222.866347 l 5.641522,-9.771403 M 31.344112,-233.096838 l -5.905190,10.228090 M 26.417954,-222.871150 l 6.059128,-10.494717 M 33.535864,-233.506398 l -6.138877,10.632846 M 28.376020,-222.875953 l 6.163892,-10.676174 M 35.483415,-233.492987 l -6.128361,10.614633 M 30.334086,-222.880756 l 6.045820,-10.471668 M 37.247730,-233.162204 l -5.934611,10.279047 M 32.292153,-222.885559 l 5.774232,-10.001263 M 38.852705,-232.555436 l -5.581519,9.667475 M 34.250219,-222.890362 l 5.363835,-9.290435 M 40.324569,-231.718112 l -5.095317,8.825348 M 36.208285,-222.895165 l 4.807664,-8.327119 M 41.663462,-230.650477 l -4.476145,7.752910 M 38.166351,-222.899969 l 4.107463,-7.114335 M 42.856501,-229.330214 l -3.711117,6.427843 M 40.124417,-222.904772 l 3.254690,-5.637288 M 43.855904,-227.674564 l -2.752454,4.767391 M 42.082483,-222.909575 l 2.198280,-3.807533 M 44.636064,-225.639173 l -1.574548,2.727197 M 44.040549,-222.914378 l 0.843258,-1.460567" />
    </g>
    <path
       inkscape:connector-curvature="0"
       style="fill:#000000;fill-opacity:1;stroke:none;stroke-width:0"
       d="m 34.629546,210.26415 c 0.01984,-0.0926 0.05953,-0.25135 0.05953,-0.27781 0,-0.0728 -0.05953,-0.11245 -0.119063,-0.11245 -0.05292,0 -0.125677,0.0331 -0.15875,0.11906 -0.01323,0.0265 -0.211666,0.83344 -0.238124,0.94589 -0.03307,0.12568 -0.03969,0.19844 -0.03969,0.27781 0,0.0463 0,0.0529 0.0066,0.0728 -0.09922,0.2249 -0.224896,0.35719 -0.39026,0.35719 -0.337344,0 -0.337344,-0.31089 -0.337344,-0.38365 0,-0.13229 0.01984,-0.29765 0.218281,-0.82021 0.0463,-0.12567 0.07276,-0.1852 0.07276,-0.27119 0,-0.18521 -0.138907,-0.34396 -0.343958,-0.34396 -0.40349,0 -0.555625,0.61515 -0.555625,0.64823 0,0.0463 0.03969,0.0463 0.0463,0.0463 0.0463,0 0.0463,-0.0132 0.06615,-0.0794 0.119062,-0.39026 0.277812,-0.52255 0.429947,-0.52255 0.03969,0 0.105834,0.007 0.105834,0.13891 0,0.10583 -0.0463,0.22489 -0.07938,0.29766 -0.185208,0.49609 -0.231511,0.68791 -0.231511,0.85328 0,0.38364 0.277813,0.52916 0.595312,0.52916 0.07276,0 0.271198,0 0.436563,-0.29765 0.112447,0.27119 0.403489,0.29765 0.529166,0.29765 0.3175,0 0.502708,-0.26458 0.615156,-0.51594 0.138906,-0.33072 0.277812,-0.89958 0.277812,-1.09802 0,-0.23151 -0.112448,-0.29765 -0.185208,-0.29765 -0.105833,0 -0.211667,0.11245 -0.211667,0.20505 0,0.0529 0.02646,0.0794 0.05953,0.11245 0.0463,0.0463 0.152136,0.15213 0.152136,0.35719 0,0.14552 -0.119063,0.55562 -0.23151,0.7739 -0.105834,0.2249 -0.257969,0.37042 -0.463021,0.37042 -0.198437,0 -0.310885,-0.12568 -0.310885,-0.37042 0,-0.11245 0.02646,-0.24474 0.0463,-0.30427 z m 0,0"
       id="path11847" />
    <path
       inkscape:connector-curvature="0"
       style="fill:#000000;fill-opacity:1;stroke:none;stroke-width:0"
       d="m 22.378581,222.62341 c 0.02646,-0.10584 0.125677,-0.4961 0.416719,-0.4961 0.01984,0 0.125677,0 0.211666,0.0529 -0.119062,0.0265 -0.198437,0.12568 -0.198437,0.23151 0,0.0662 0.0463,0.14552 0.15875,0.14552 0.0926,0 0.224895,-0.0728 0.224895,-0.24474 0,-0.21828 -0.244739,-0.27781 -0.39026,-0.27781 -0.244739,0 -0.39026,0.22489 -0.443177,0.3175 -0.105833,-0.27781 -0.330729,-0.3175 -0.456405,-0.3175 -0.436563,0 -0.681302,0.54239 -0.681302,0.64823 0,0.0463 0.0463,0.0463 0.05292,0.0463 0.03307,0 0.0463,-0.0132 0.05292,-0.0463 0.145521,-0.44979 0.423333,-0.55563 0.568854,-0.55563 0.07937,0 0.224896,0.0397 0.224896,0.28443 0,0.13229 -0.07276,0.4101 -0.224896,1.00542 -0.06615,0.25796 -0.218281,0.43656 -0.403489,0.43656 -0.02646,0 -0.119063,0 -0.211667,-0.0529 0.105833,-0.0265 0.198438,-0.11245 0.198438,-0.23151 0,-0.11245 -0.0926,-0.14552 -0.152136,-0.14552 -0.132291,0 -0.23151,0.10583 -0.23151,0.24474 0,0.19182 0.205052,0.27781 0.39026,0.27781 0.284427,0 0.436562,-0.29765 0.443177,-0.3175 0.05292,0.15214 0.205052,0.3175 0.456406,0.3175 0.436562,0 0.674687,-0.54239 0.674687,-0.64823 0,-0.0463 -0.03307,-0.0463 -0.0463,-0.0463 -0.03969,0 -0.0463,0.0198 -0.05953,0.0463 -0.138906,0.45641 -0.423333,0.55563 -0.555624,0.55563 -0.165365,0 -0.23151,-0.13229 -0.23151,-0.27781 0,-0.0926 0.01984,-0.18521 0.06614,-0.37042 z m 0,0"
       id="path11851" />
    <path
       inkscape:connector-curvature="0"
       style="fill:#000000;fill-opacity:1;stroke:none;stroke-width:0"
       d="m 47.824849,222.3805 c 0.01984,-0.0595 0.01984,-0.0661 0.01984,-0.0992 0,-0.0728 -0.05953,-0.11245 -0.125677,-0.11245 -0.03969,0 -0.105833,0.0265 -0.145521,0.086 -0.0066,0.0265 -0.0463,0.15214 -0.05953,0.23151 -0.03307,0.10583 -0.05953,0.2249 -0.08599,0.33734 l -0.191823,0.76068 c -0.01323,0.0595 -0.198438,0.35719 -0.47625,0.35719 -0.211666,0 -0.257968,-0.18521 -0.257968,-0.34396 0,-0.19182 0.07276,-0.45641 0.211666,-0.82682 0.06615,-0.17198 0.08599,-0.21828 0.08599,-0.30427 0,-0.18521 -0.132292,-0.34396 -0.343958,-0.34396 -0.40349,0 -0.555625,0.61515 -0.555625,0.64823 0,0.0463 0.03969,0.0463 0.0463,0.0463 0.0463,0 0.0463,-0.0132 0.06615,-0.0794 0.119062,-0.39687 0.284427,-0.52255 0.429947,-0.52255 0.03307,0 0.105834,0 0.105834,0.13229 0,0.10584 -0.0463,0.21829 -0.07276,0.29766 -0.171979,0.44979 -0.244739,0.68792 -0.244739,0.88635 0,0.37704 0.264583,0.50271 0.515937,0.50271 0.165364,0 0.304271,-0.0728 0.423333,-0.19182 -0.05292,0.21828 -0.105833,0.42995 -0.271198,0.65484 -0.112448,0.13891 -0.271197,0.26459 -0.46302,0.26459 -0.05953,0 -0.251354,-0.0132 -0.324115,-0.1786 0.06615,0 0.125677,0 0.178594,-0.0529 0.0463,-0.0331 0.08599,-0.0926 0.08599,-0.17198 0,-0.1323 -0.112448,-0.14552 -0.152136,-0.14552 -0.09922,0 -0.238125,0.0661 -0.238125,0.27119 0,0.21167 0.185209,0.37042 0.449792,0.37042 0.429947,0 0.86651,-0.38365 0.985572,-0.8599 z m 0,0"
       id="path11853" />
    <path
       inkscape:connector-curvature="0"
       style="fill:#000000;fill-opacity:1;stroke:none;stroke-width:0"
       d="m 33.187563,235.75657 c 0.224896,-0.24474 0.350573,-0.35058 0.502708,-0.48287 0,0 0.257969,-0.22489 0.410104,-0.37703 0.403489,-0.39026 0.496093,-0.59531 0.496093,-0.61515 0,-0.0397 -0.03969,-0.0397 -0.0463,-0.0397 -0.03307,0 -0.03969,0.007 -0.06615,0.0463 -0.125677,0.20505 -0.211666,0.2712 -0.310885,0.2712 -0.105833,0 -0.152135,-0.0661 -0.218281,-0.13891 -0.07937,-0.0926 -0.152135,-0.17859 -0.291041,-0.17859 -0.3175,0 -0.509323,0.39026 -0.509323,0.48286 0,0.0198 0.01323,0.0463 0.0463,0.0463 0.03969,0 0.0463,-0.0198 0.05953,-0.0463 0.07937,-0.19843 0.324115,-0.19843 0.357188,-0.19843 0.08599,0 0.165364,0.0264 0.264583,0.0595 0.171979,0.0661 0.218281,0.0661 0.324114,0.0661 -0.152135,0.1786 -0.502708,0.48287 -0.582083,0.54901 l -0.383645,0.35719 c -0.284427,0.28443 -0.436562,0.52255 -0.436562,0.55562 0,0.0397 0.0463,0.0397 0.05292,0.0397 0.03307,0 0.03969,-0.007 0.06615,-0.0529 0.09922,-0.15214 0.224896,-0.26459 0.363802,-0.26459 0.0926,0 0.138906,0.0397 0.244739,0.15875 0.06615,0.0926 0.145521,0.15875 0.264583,0.15875 0.423333,0 0.668073,-0.53578 0.668073,-0.64823 0,-0.0198 -0.01984,-0.0463 -0.05292,-0.0463 -0.03969,0 -0.0463,0.0265 -0.05953,0.0595 -0.09922,0.2712 -0.370416,0.35058 -0.509323,0.35058 -0.07937,0 -0.15875,-0.0265 -0.244739,-0.0529 -0.145521,-0.0529 -0.211667,-0.0728 -0.297656,-0.0728 -0.0066,0 -0.07276,0 -0.112448,0.0132 z m 0,0"
       id="path11857" />
  </g>
</svg>
