<?xml version="1.0" encoding="UTF-8" standalone="no"?>
<!-- Created with Inkscape (http://www.inkscape.org/) -->

<svg
   xmlns:dc="http://purl.org/dc/elements/1.1/"
   xmlns:cc="http://creativecommons.org/ns#"
   xmlns:rdf="http://www.w3.org/1999/02/22-rdf-syntax-ns#"
   xmlns:svg="http://www.w3.org/2000/svg"
   xmlns="http://www.w3.org/2000/svg"
   xmlns:sodipodi="http://sodipodi.sourceforge.net/DTD/sodipodi-0.dtd"
   xmlns:inkscape="http://www.inkscape.org/namespaces/inkscape"
   width="10cm"
   height="10cm"
   viewBox="0 0 100 100"
   version="1.1"
   id="svg882"
   inkscape:version="0.92.4 (unknown)"
   sodipodi:docname="fig1-17d.svg">
  <defs
     id="defs876">
    <marker
       inkscape:isstock="true"
       style="overflow:visible;"
       id="marker8691"
       refX="0.0"
       refY="0.0"
       orient="auto"
       inkscape:stockid="Arrow1Mend">
      <path
         transform="scale(0.4) rotate(180) translate(10,0)"
         style="fill-rule:evenodd;stroke:#000000;stroke-width:1pt;stroke-opacity:1;fill:#000000;fill-opacity:1"
         d="M 0.0,0.0 L 5.0,-5.0 L -12.5,0.0 L 5.0,5.0 L 0.0,0.0 z "
         id="path8689" />
    </marker>
    <marker
       inkscape:isstock="true"
       style="overflow:visible;"
       id="marker4227"
       refX="0.0"
       refY="0.0"
       orient="auto"
       inkscape:stockid="Arrow1Mend">
      <path
         transform="scale(0.4) rotate(180) translate(10,0)"
         style="fill-rule:evenodd;stroke:#000000;stroke-width:1pt;stroke-opacity:1;fill:#000000;fill-opacity:1"
         d="M 0.0,0.0 L 5.0,-5.0 L -12.5,0.0 L 5.0,5.0 L 0.0,0.0 z "
         id="path4225" />
    </marker>
    <marker
       inkscape:isstock="true"
       style="overflow:visible;"
       id="marker15998"
       refX="0.0"
       refY="0.0"
       orient="auto"
       inkscape:stockid="Arrow1Mend">
      <path
         transform="scale(0.4) rotate(180) translate(10,0)"
         style="fill-rule:evenodd;stroke:#000000;stroke-width:1pt;stroke-opacity:1;fill:#000000;fill-opacity:1"
         d="M 0.0,0.0 L 5.0,-5.0 L -12.5,0.0 L 5.0,5.0 L 0.0,0.0 z "
         id="path15996" />
    </marker>
    <marker
       inkscape:stockid="Arrow1Mend"
       orient="auto"
       refY="0.0"
       refX="0.0"
       id="marker11689"
       style="overflow:visible;"
       inkscape:isstock="true">
      <path
         id="path11687"
         d="M 0.0,0.0 L 5.0,-5.0 L -12.5,0.0 L 5.0,5.0 L 0.0,0.0 z "
         style="fill-rule:evenodd;stroke:#000000;stroke-width:1pt;stroke-opacity:1;fill:#000000;fill-opacity:1"
         transform="scale(0.4) rotate(180) translate(10,0)" />
    </marker>
  </defs>
  <sodipodi:namedview
     id="base"
     pagecolor="#ffffff"
     bordercolor="#666666"
     borderopacity="1.0"
     inkscape:pageopacity="0.0"
     inkscape:pageshadow="2"
     inkscape:zoom="1.0691214"
     inkscape:cx="171.24006"
     inkscape:cy="203.50384"
     inkscape:document-units="cm"
     inkscape:current-layer="layer1"
     showgrid="false"
     units="cm"
     inkscape:window-width="753"
     inkscape:window-height="716"
     inkscape:window-x="12"
     inkscape:window-y="24"
     inkscape:window-maximized="0"
     showguides="true"
     inkscape:guide-bbox="true">
    <inkscape:grid
       id="grid1452"
       type="xygrid" />
  </sodipodi:namedview>
  <metadata
     id="metadata879">
    <rdf:RDF>
      <cc:Work
         rdf:about="">
        <dc:format>image/svg+xml</dc:format>
        <dc:type
           rdf:resource="http://purl.org/dc/dcmitype/StillImage" />
        <dc:title></dc:title>
      </cc:Work>
    </rdf:RDF>
  </metadata>
  <g
     inkscape:label="Layer 1"
     inkscape:groupmode="layer"
     id="layer1"
     transform="translate(0,-197.00001)">
    <path
       style="color:#000000;clip-rule:nonzero;display:inline;overflow:visible;visibility:visible;opacity:1;isolation:auto;mix-blend-mode:normal;color-interpolation:sRGB;color-interpolation-filters:linearRGB;solid-color:#000000;solid-opacity:1;fill:none;fill-opacity:1;fill-rule:nonzero;stroke:#000000;stroke-width:0.26458332;stroke-linecap:round;stroke-linejoin:round;stroke-miterlimit:4;stroke-dasharray:none;stroke-dashoffset:0;stroke-opacity:1;color-rendering:auto;image-rendering:auto;shape-rendering:auto;text-rendering:auto;enable-background:accumulate"
       d="m 18.520833,265.25001 v 15.875 h 15.875 z"
       id="path10134"
       inkscape:connector-curvature="0" />
    <rect
       style="color:#000000;clip-rule:nonzero;display:inline;overflow:visible;visibility:visible;opacity:1;isolation:auto;mix-blend-mode:normal;color-interpolation:sRGB;color-interpolation-filters:linearRGB;solid-color:#000000;solid-opacity:1;fill:none;fill-opacity:1;fill-rule:evenodd;stroke:#000000;stroke-width:0.26458332;stroke-linecap:butt;stroke-linejoin:round;stroke-miterlimit:4;stroke-dasharray:none;stroke-dashoffset:0;stroke-opacity:1;color-rendering:auto;image-rendering:auto;shape-rendering:auto;text-rendering:auto;enable-background:accumulate"
       id="rect10136"
       width="2.6458333"
       height="2.6458333"
       x="18.520834"
       y="278.47919" />
    <path
       inkscape:connector-curvature="0"
       style="fill:#000000;fill-opacity:1;stroke:none;stroke-width:0"
       d="m 14.825183,266.08512 c -0.165365,0.27781 -0.330729,0.33734 -0.515937,0.35057 -0.05292,0.007 -0.0926,0.007 -0.0926,0.086 0,0.0265 0.02646,0.0463 0.05953,0.0463 0.112448,0 0.244739,-0.0132 0.357187,-0.0132 0.145521,0 0.291042,0.0132 0.423333,0.0132 0.02646,0 0.07937,0 0.07937,-0.0794 0,-0.0463 -0.03307,-0.0529 -0.06615,-0.0529 -0.0926,-0.007 -0.198437,-0.0397 -0.198437,-0.14552 0,-0.0529 0.02646,-0.0992 0.05953,-0.15875 l 0.324114,-0.53578 h 1.058333 c 0.0066,0.086 0.06615,0.66145 0.06615,0.70114 0,0.12568 -0.218281,0.13891 -0.304271,0.13891 -0.05953,0 -0.09922,0 -0.09922,0.086 0,0.0463 0.0463,0.0463 0.05953,0.0463 0.171979,0 0.350572,-0.0132 0.522551,-0.0132 0.105834,0 0.377031,0.0132 0.482865,0.0132 0.01984,0 0.07276,0 0.07276,-0.086 0,-0.0463 -0.03969,-0.0463 -0.09922,-0.0463 -0.257968,0 -0.257968,-0.0265 -0.271197,-0.15214 l -0.257969,-2.6326 c -0.0066,-0.086 -0.0066,-0.10583 -0.07937,-0.10583 -0.06615,0 -0.08599,0.0331 -0.112448,0.0728 z m 0.509322,-0.62177 0.826823,-1.39568 0.138906,1.39568 z m 0,0"
       id="path10181" />
    <path
       inkscape:connector-curvature="0"
       style="fill:#000000;fill-opacity:1;stroke:none;stroke-width:0"
       d="m 14.759059,282.16161 c -0.03969,0.16537 -0.05292,0.19844 -0.383646,0.19844 -0.07276,0 -0.112447,0 -0.112447,0.086 0,0.0463 0.03969,0.0463 0.112447,0.0463 h 1.508124 c 0.668073,0 1.164166,-0.49609 1.164166,-0.91281 0,-0.30427 -0.244739,-0.54901 -0.654843,-0.59531 0.436562,-0.0794 0.879739,-0.39026 0.879739,-0.79375 0,-0.31089 -0.277813,-0.58209 -0.780521,-0.58209 h -1.422134 c -0.07937,0 -0.119062,0 -0.119062,0.086 0,0.0463 0.03969,0.0463 0.119062,0.0463 0.0066,0 0.08599,0 0.15875,0.007 0.07276,0.0132 0.112448,0.0132 0.112448,0.0728 0,0.0132 -0.0066,0.0265 -0.01323,0.0794 z m 0.634999,-1.21708 0.264584,-1.0451 c 0.03969,-0.14553 0.0463,-0.15875 0.224895,-0.15875 h 0.54901 c 0.370417,0 0.456406,0.25135 0.456406,0.43656 0,0.37041 -0.363802,0.76729 -0.873124,0.76729 z m -0.185208,1.41552 c -0.05953,0 -0.06614,0 -0.0926,0 -0.0463,-0.007 -0.05953,-0.0132 -0.05953,-0.0463 0,-0.0132 0,-0.0199 0.02646,-0.0926 l 0.291042,-1.17739 h 0.793749 c 0.403489,0 0.489479,0.31088 0.489479,0.48948 0,0.41671 -0.377031,0.82682 -0.879739,0.82682 z m 0,0"
       id="path10183" />
    <path
       inkscape:connector-curvature="0"
       style="fill:#000000;fill-opacity:1;stroke:none;stroke-width:0"
       d="m 38.726558,279.38708 c 0,-0.0132 -0.0066,-0.0463 -0.0463,-0.0463 -0.01323,0 -0.01984,0.007 -0.06614,0.0529 l -0.291042,0.32411 c -0.03969,-0.0595 -0.23151,-0.37703 -0.701145,-0.37703 -0.945885,0 -1.89177,0.93266 -1.89177,1.91161 0,0.69453 0.496094,1.15755 1.144323,1.15755 0.363801,0 0.687916,-0.16536 0.912811,-0.3638 0.39026,-0.34396 0.463021,-0.7276 0.463021,-0.74083 0,-0.0463 -0.0463,-0.0463 -0.05292,-0.0463 -0.02646,0 -0.0463,0.0132 -0.05292,0.0463 -0.03969,0.11906 -0.138907,0.42333 -0.429948,0.66807 -0.291042,0.23151 -0.555625,0.30427 -0.773906,0.30427 -0.377031,0 -0.826822,-0.21828 -0.826822,-0.87312 0,-0.24474 0.08599,-0.92604 0.509323,-1.42214 0.257968,-0.29765 0.654843,-0.50932 1.031874,-0.50932 0.429947,0 0.681301,0.32412 0.681301,0.81359 0,0.17198 -0.01323,0.17198 -0.01323,0.21829 0,0.0397 0.0463,0.0397 0.05953,0.0397 0.05292,0 0.05292,-0.007 0.07937,-0.086 z m 0,0"
       id="path10187" />
  </g>
</svg>
