<?xml version="1.0" encoding="UTF-8" standalone="no"?>
<!-- Created with Inkscape (http://www.inkscape.org/) -->

<svg
   xmlns:ns0="http://www.iki.fi/pav/software/textext/"
   xmlns:dc="http://purl.org/dc/elements/1.1/"
   xmlns:cc="http://creativecommons.org/ns#"
   xmlns:rdf="http://www.w3.org/1999/02/22-rdf-syntax-ns#"
   xmlns:svg="http://www.w3.org/2000/svg"
   xmlns="http://www.w3.org/2000/svg"
   xmlns:xlink="http://www.w3.org/1999/xlink"
   xmlns:sodipodi="http://sodipodi.sourceforge.net/DTD/sodipodi-0.dtd"
   xmlns:inkscape="http://www.inkscape.org/namespaces/inkscape"
   width="744.09448819"
   height="1052.3622047"
   id="svg2"
   version="1.1"
   inkscape:version="0.48.4 r9939"
   sodipodi:docname="New document 1">
  <sodipodi:namedview
     id="base"
     pagecolor="#ffffff"
     bordercolor="#666666"
     borderopacity="1.0"
     inkscape:pageopacity="0.0"
     inkscape:pageshadow="2"
     inkscape:zoom="2.7104188"
     inkscape:cx="285.3357"
     inkscape:cy="906.51963"
     inkscape:document-units="px"
     inkscape:current-layer="layer1"
     showgrid="false"
     inkscape:window-width="1024"
     inkscape:window-height="744"
     inkscape:window-x="0"
     inkscape:window-y="24"
     inkscape:window-maximized="1" />
  <defs
     id="defs4">
    <marker
       style="overflow:visible;"
       id="Arrow1Mend"
       refX="0.0"
       refY="0.0"
       orient="auto"
       inkscape:stockid="Arrow1Mend">
      <path
         transform="scale(0.4) rotate(180) translate(10,0)"
         style="fill-rule:evenodd;stroke:#000000;stroke-width:1.0pt;"
         d="M 0.0,0.0 L 5.0,-5.0 L -12.5,0.0 L 5.0,5.0 L 0.0,0.0 z "
         id="path4027" />
    </marker>
  </defs>
  <metadata
     id="metadata7">
    <rdf:RDF>
      <cc:Work
         rdf:about="">
        <dc:format>image/svg+xml</dc:format>
        <dc:type
           rdf:resource="http://purl.org/dc/dcmitype/StillImage" />
        <dc:title></dc:title>
      </cc:Work>
    </rdf:RDF>
  </metadata>
  <g
     inkscape:label="Layer 1"
     inkscape:groupmode="layer"
     id="layer1">
    <g
       transform="scale(1.200000,1.200000)"
       ns0:text="$V(X)=\\dfrac{91}{6}-\\left(\\dfrac{7}{2}\\right)^{2}=\\dfrac{91}{6}-\\dfrac{49}{4}$"
       ns0:preamble="/home/sriranga/Desktop/CSY/article4/figure/package.tex"
       id="g2990">
      <defs
         id="defs2992">
        <g
           id="g2994">
          <symbol
             overflow="visible"
             id="textext-7dbcd031-0">
            <path
               style="stroke:none;"
               d=""
               id="path2997" />
          </symbol>
          <symbol
             overflow="visible"
             id="textext-7dbcd031-1">
            <path
               style="stroke:none;"
               d="M 6.859375 -6.515625 L 5 -6.515625 L 5 -6.34375 C 5.453125 -6.296875 5.625 -6.203125 5.625 -6.015625 C 5.625 -5.828125 5.4375 -5.390625 5.109375 -4.828125 L 3.0625 -1.28125 L 2.40625 -5.6875 C 2.390625 -5.734375 2.390625 -5.78125 2.390625 -5.84375 C 2.390625 -6.1875 2.53125 -6.28125 3.15625 -6.34375 L 3.15625 -6.515625 L 0.75 -6.515625 L 0.75 -6.34375 C 1.3125 -6.28125 1.328125 -6.25 1.546875 -5 L 2.390625 0.171875 L 2.578125 0.171875 L 6.296875 -5.953125 C 6.46875 -6.21875 6.625 -6.34375 6.859375 -6.34375 Z M 6.859375 -6.515625 "
               id="path3000" />
          </symbol>
          <symbol
             overflow="visible"
             id="textext-7dbcd031-2">
            <path
               style="stroke:none;"
               d="M 6.53125 -6.515625 L 4.453125 -6.515625 L 4.453125 -6.34375 C 4.9375 -6.296875 5.0625 -6.21875 5.0625 -5.984375 C 5.0625 -5.859375 5 -5.734375 4.859375 -5.578125 L 3.421875 -3.921875 L 2.828125 -5.390625 C 2.71875 -5.640625 2.6875 -5.8125 2.6875 -5.9375 C 2.6875 -6.1875 2.84375 -6.28125 3.390625 -6.34375 L 3.390625 -6.515625 L 0.75 -6.515625 L 0.75 -6.34375 C 1.328125 -6.296875 1.484375 -6.203125 1.671875 -5.734375 L 2.734375 -3.125 C 2.359375 -2.703125 2.03125 -2.3125 1.90625 -2.15625 C 0.515625 -0.515625 0.234375 -0.265625 -0.296875 -0.15625 L -0.296875 0 L 1.84375 0 L 1.84375 -0.15625 C 1.359375 -0.15625 1.203125 -0.25 1.203125 -0.5 C 1.203125 -0.640625 1.28125 -0.8125 1.40625 -0.96875 L 2.90625 -2.6875 L 3.578125 -1.03125 C 3.65625 -0.859375 3.6875 -0.703125 3.6875 -0.546875 C 3.6875 -0.265625 3.59375 -0.203125 2.9375 -0.15625 L 2.9375 0 L 5.65625 0 L 5.65625 -0.15625 C 4.953125 -0.234375 4.859375 -0.296875 4.609375 -0.890625 L 3.59375 -3.46875 L 5.28125 -5.40625 C 5.796875 -5.984375 6.09375 -6.203125 6.53125 -6.34375 Z M 6.53125 -6.515625 "
               id="path3003" />
          </symbol>
          <symbol
             overflow="visible"
             id="textext-7dbcd031-3">
            <path
               style="stroke:none;"
               d=""
               id="path3006" />
          </symbol>
          <symbol
             overflow="visible"
             id="textext-7dbcd031-4">
            <path
               style="stroke:none;"
               d="M 2.9375 -6.734375 C 2.203125 -6.265625 1.90625 -6 1.53125 -5.546875 C 0.828125 -4.671875 0.484375 -3.671875 0.484375 -2.515625 C 0.484375 -1.25 0.84375 -0.265625 1.71875 0.75 C 2.140625 1.21875 2.390625 1.453125 2.90625 1.765625 L 3.03125 1.609375 C 2.234375 0.984375 1.953125 0.625 1.6875 -0.125 C 1.453125 -0.78125 1.328125 -1.546875 1.328125 -2.546875 C 1.328125 -3.59375 1.46875 -4.40625 1.734375 -5.03125 C 2.015625 -5.640625 2.3125 -6 3.03125 -6.578125 Z M 2.9375 -6.734375 "
               id="path3009" />
          </symbol>
          <symbol
             overflow="visible"
             id="textext-7dbcd031-5">
            <path
               style="stroke:none;"
               d="M 0.375 1.765625 C 1.109375 1.28125 1.421875 1.03125 1.78125 0.5625 C 2.5 -0.296875 2.84375 -1.296875 2.84375 -2.46875 C 2.84375 -3.734375 2.46875 -4.703125 1.59375 -5.71875 C 1.1875 -6.203125 0.921875 -6.421875 0.40625 -6.734375 L 0.296875 -6.578125 C 1.09375 -5.953125 1.359375 -5.609375 1.640625 -4.859375 C 1.875 -4.1875 1.984375 -3.421875 1.984375 -2.4375 C 1.984375 -1.390625 1.859375 -0.5625 1.578125 0.046875 C 1.3125 0.671875 1 1.03125 0.296875 1.609375 Z M 0.375 1.765625 "
               id="path3012" />
          </symbol>
          <symbol
             overflow="visible"
             id="textext-7dbcd031-6">
            <path
               style="stroke:none;"
               d="M 0.59375 0.21875 C 1.703125 0.09375 2.25 -0.09375 2.9375 -0.59375 C 3.96875 -1.34375 4.578125 -2.578125 4.578125 -3.921875 C 4.578125 -5.578125 3.65625 -6.734375 2.375 -6.734375 C 1.1875 -6.734375 0.296875 -5.734375 0.296875 -4.390625 C 0.296875 -3.171875 1.015625 -2.359375 2.09375 -2.359375 C 2.640625 -2.359375 3.0625 -2.515625 3.59375 -2.9375 C 3.1875 -1.3125 2.078125 -0.234375 0.5625 0.015625 Z M 3.609375 -3.53125 C 3.609375 -3.34375 3.5625 -3.25 3.453125 -3.15625 C 3.1875 -2.921875 2.8125 -2.796875 2.453125 -2.796875 C 1.6875 -2.796875 1.21875 -3.53125 1.21875 -4.71875 C 1.21875 -5.296875 1.375 -5.890625 1.578125 -6.15625 C 1.75 -6.34375 2 -6.453125 2.296875 -6.453125 C 3.15625 -6.453125 3.609375 -5.609375 3.609375 -3.921875 Z M 3.609375 -3.53125 "
               id="path3015" />
          </symbol>
          <symbol
             overflow="visible"
             id="textext-7dbcd031-7">
            <path
               style="stroke:none;"
               d="M 2.90625 -6.734375 L 1.109375 -5.828125 L 1.109375 -5.6875 C 1.21875 -5.734375 1.328125 -5.78125 1.375 -5.796875 C 1.5625 -5.875 1.71875 -5.90625 1.828125 -5.90625 C 2.03125 -5.90625 2.125 -5.765625 2.125 -5.4375 L 2.125 -0.921875 C 2.125 -0.59375 2.046875 -0.375 1.890625 -0.28125 C 1.734375 -0.1875 1.59375 -0.15625 1.171875 -0.15625 L 1.171875 0 L 3.921875 0 L 3.921875 -0.15625 C 3.140625 -0.15625 2.984375 -0.265625 2.984375 -0.734375 L 2.984375 -6.71875 Z M 2.90625 -6.734375 "
               id="path3018" />
          </symbol>
          <symbol
             overflow="visible"
             id="textext-7dbcd031-8">
            <path
               style="stroke:none;"
               d="M 4.453125 -6.8125 C 3.3125 -6.71875 2.734375 -6.53125 2 -6.015625 C 0.921875 -5.25 0.34375 -4.109375 0.34375 -2.78125 C 0.34375 -1.90625 0.609375 -1.03125 1.03125 -0.53125 C 1.421875 -0.09375 1.953125 0.140625 2.578125 0.140625 C 3.8125 0.140625 4.671875 -0.8125 4.671875 -2.1875 C 4.671875 -3.453125 3.9375 -4.265625 2.796875 -4.265625 C 2.359375 -4.265625 2.140625 -4.203125 1.515625 -3.8125 C 1.78125 -5.328125 2.90625 -6.40625 4.46875 -6.65625 Z M 2.40625 -3.8125 C 3.265625 -3.8125 3.765625 -3.09375 3.765625 -1.84375 C 3.765625 -0.75 3.375 -0.140625 2.6875 -0.140625 C 1.796875 -0.140625 1.265625 -1.078125 1.265625 -2.625 C 1.265625 -3.125 1.34375 -3.40625 1.546875 -3.5625 C 1.75 -3.71875 2.0625 -3.8125 2.40625 -3.8125 Z M 2.40625 -3.8125 "
               id="path3021" />
          </symbol>
          <symbol
             overflow="visible"
             id="textext-7dbcd031-9">
            <path
               style="stroke:none;"
               d="M 4.46875 -6.59375 L 0.78125 -6.59375 L 0.203125 -5.140625 L 0.375 -5.046875 C 0.796875 -5.734375 0.984375 -5.859375 1.53125 -5.859375 L 3.6875 -5.859375 L 1.71875 0.078125 L 2.359375 0.078125 L 4.46875 -6.4375 Z M 4.46875 -6.59375 "
               id="path3024" />
          </symbol>
          <symbol
             overflow="visible"
             id="textext-7dbcd031-10">
            <path
               style="stroke:none;"
               d="M 4.734375 -1.359375 L 4.609375 -1.421875 C 4.234375 -0.84375 4.109375 -0.75 3.65625 -0.75 L 1.28125 -0.75 L 2.953125 -2.515625 C 3.84375 -3.4375 4.234375 -4.203125 4.234375 -4.96875 C 4.234375 -5.96875 3.421875 -6.734375 2.375 -6.734375 C 1.828125 -6.734375 1.3125 -6.515625 0.953125 -6.125 C 0.625 -5.78125 0.484375 -5.46875 0.3125 -4.75 L 0.515625 -4.703125 C 0.921875 -5.6875 1.28125 -6 1.96875 -6 C 2.796875 -6 3.375 -5.4375 3.375 -4.59375 C 3.375 -3.8125 2.90625 -2.890625 2.078125 -2 L 0.296875 -0.125 L 0.296875 0 L 4.1875 0 Z M 4.734375 -1.359375 "
               id="path3027" />
          </symbol>
          <symbol
             overflow="visible"
             id="textext-7dbcd031-11">
            <path
               style="stroke:none;"
               d="M 4.703125 -2.296875 L 3.6875 -2.296875 L 3.6875 -6.734375 L 3.25 -6.734375 L 0.125 -2.296875 L 0.125 -1.671875 L 2.921875 -1.671875 L 2.921875 0 L 3.6875 0 L 3.6875 -1.671875 L 4.703125 -1.671875 Z M 2.90625 -2.296875 L 0.515625 -2.296875 L 2.90625 -5.71875 Z M 2.90625 -2.296875 "
               id="path3030" />
          </symbol>
          <symbol
             overflow="visible"
             id="textext-7dbcd031-12">
            <path
               style="stroke:none;"
               d=""
               id="path3033" />
          </symbol>
          <symbol
             overflow="visible"
             id="textext-7dbcd031-13">
            <path
               style="stroke:none;"
               d="M 5.71875 -3.296875 L 5.71875 -3.84375 L 0.625 -3.84375 L 0.625 -3.296875 Z M 5.71875 -1.265625 L 5.71875 -1.828125 L 0.625 -1.828125 L 0.625 -1.265625 Z M 5.71875 -1.265625 "
               id="path3036" />
          </symbol>
          <symbol
             overflow="visible"
             id="textext-7dbcd031-14">
            <path
               style="stroke:none;"
               d=""
               id="path3039" />
          </symbol>
          <symbol
             overflow="visible"
             id="textext-7dbcd031-15">
            <path
               style="stroke:none;"
               d="M 5.71875 -2.28125 L 5.71875 -2.84375 L 0.625 -2.84375 L 0.625 -2.28125 Z M 5.71875 -2.28125 "
               id="path3042" />
          </symbol>
          <symbol
             overflow="visible"
             id="textext-7dbcd031-16">
            <path
               style="stroke:none;"
               d=""
               id="path3045" />
          </symbol>
          <symbol
             overflow="visible"
             id="textext-7dbcd031-17">
            <path
               style="stroke:none;"
               d="M 3.515625 23.09375 C 1.9375 20.25 1.5 16.125 1.5 11.53125 C 1.5 6.921875 1.9375 2.796875 3.515625 -0.046875 L 3.375 -0.5625 C 2.828125 0.421875 0.5 3.265625 0.5 11.53125 C 0.5 19.78125 2.828125 22.625 3.375 23.609375 Z M 3.515625 23.09375 "
               id="path3048" />
          </symbol>
          <symbol
             overflow="visible"
             id="textext-7dbcd031-18">
            <path
               style="stroke:none;"
               d="M 3.3125 11.53125 C 3.3125 3.265625 0.984375 0.421875 0.4375 -0.5625 L 0.296875 -0.046875 C 1.875 2.796875 2.296875 6.921875 2.296875 11.53125 C 2.296875 16.125 1.875 20.25 0.296875 23.09375 L 0.4375 23.609375 C 0.984375 22.625 3.3125 19.78125 3.3125 11.53125 Z M 3.3125 11.53125 "
               id="path3051" />
          </symbol>
          <symbol
             overflow="visible"
             id="textext-7dbcd031-19">
            <path
               style="stroke:none;"
               d=""
               id="path3054" />
          </symbol>
          <symbol
             overflow="visible"
             id="textext-7dbcd031-20">
            <path
               style="stroke:none;"
               d="M 3.3125 -0.953125 L 3.21875 -0.984375 C 2.96875 -0.59375 2.875 -0.53125 2.5625 -0.53125 L 0.890625 -0.53125 L 2.0625 -1.75 C 2.6875 -2.40625 2.953125 -2.9375 2.953125 -3.484375 C 2.953125 -4.171875 2.390625 -4.703125 1.671875 -4.703125 C 1.28125 -4.703125 0.921875 -4.5625 0.65625 -4.28125 C 0.4375 -4.046875 0.328125 -3.8125 0.21875 -3.328125 L 0.359375 -3.296875 C 0.640625 -3.96875 0.890625 -4.1875 1.375 -4.1875 C 1.953125 -4.1875 2.359375 -3.796875 2.359375 -3.21875 C 2.359375 -2.671875 2.03125 -2.015625 1.453125 -1.40625 L 0.203125 -0.078125 L 0.203125 0 L 2.921875 0 Z M 3.3125 -0.953125 "
               id="path3057" />
          </symbol>
        </g>
      </defs>
      <g
         id="textext-7dbcd031-21">
        <g
           style="fill:rgb(0%,0%,0%);fill-opacity:1;"
           id="g3060">
          <use
             xlink:href="#textext-7dbcd031-1"
             x="223.432"
             y="141.391"
             id="use3062" />
        </g>
        <g
           style="fill:rgb(0%,0%,0%);fill-opacity:1;"
           id="g3064">
          <use
             xlink:href="#textext-7dbcd031-4"
             x="230.286"
             y="141.391"
             id="use3066" />
        </g>
        <g
           style="fill:rgb(0%,0%,0%);fill-opacity:1;"
           id="g3068">
          <use
             xlink:href="#textext-7dbcd031-2"
             x="233.853"
             y="141.391"
             id="use3070" />
        </g>
        <g
           style="fill:rgb(0%,0%,0%);fill-opacity:1;"
           id="g3072">
          <use
             xlink:href="#textext-7dbcd031-5"
             x="240.379"
             y="141.391"
             id="use3074" />
        </g>
        <g
           style="fill:rgb(0%,0%,0%);fill-opacity:1;"
           id="g3076">
          <use
             xlink:href="#textext-7dbcd031-13"
             x="246.463"
             y="141.391"
             id="use3078" />
        </g>
        <g
           style="fill:rgb(0%,0%,0%);fill-opacity:1;"
           id="g3080">
          <use
             xlink:href="#textext-7dbcd031-6"
             x="256.762"
             y="134.646"
             id="use3082" />
          <use
             xlink:href="#textext-7dbcd031-7"
             x="261.7433"
             y="134.646"
             id="use3084" />
        </g>
        <path
           style="fill:none;stroke-width:0.558;stroke-linecap:butt;stroke-linejoin:miter;stroke:rgb(0%,0%,0%);stroke-opacity:1;stroke-miterlimit:10;"
           d="M -0.00028125 0.001875 L 9.964562 0.001875 "
           transform="matrix(1,0,0,-1,256.762,138.83)"
           id="path3086" />
        <g
           style="fill:rgb(0%,0%,0%);fill-opacity:1;"
           id="g3088">
          <use
             xlink:href="#textext-7dbcd031-8"
             x="259.253"
             y="148.225"
             id="use3090" />
        </g>
        <g
           style="fill:rgb(0%,0%,0%);fill-opacity:1;"
           id="g3092">
          <use
             xlink:href="#textext-7dbcd031-15"
             x="270.135"
             y="141.391"
             id="use3094" />
        </g>
        <g
           style="fill:rgb(0%,0%,0%);fill-opacity:1;"
           id="g3096">
          <use
             xlink:href="#textext-7dbcd031-17"
             x="278.685"
             y="127.333"
             id="use3098" />
        </g>
        <g
           style="fill:rgb(0%,0%,0%);fill-opacity:1;"
           id="g3100">
          <use
             xlink:href="#textext-7dbcd031-9"
             x="283.686"
             y="134.646"
             id="use3102" />
        </g>
        <path
           style="fill:none;stroke-width:0.558;stroke-linecap:butt;stroke-linejoin:miter;stroke:rgb(0%,0%,0%);stroke-opacity:1;stroke-miterlimit:10;"
           d="M 0.0015 0.001875 L 4.981969 0.001875 "
           transform="matrix(1,0,0,-1,283.686,138.83)"
           id="path3104" />
        <g
           style="fill:rgb(0%,0%,0%);fill-opacity:1;"
           id="g3106">
          <use
             xlink:href="#textext-7dbcd031-10"
             x="283.686"
             y="148.225"
             id="use3108" />
        </g>
        <g
           style="fill:rgb(0%,0%,0%);fill-opacity:1;"
           id="g3110">
          <use
             xlink:href="#textext-7dbcd031-18"
             x="289.863"
             y="127.333"
             id="use3112" />
        </g>
        <g
           style="fill:rgb(0%,0%,0%);fill-opacity:1;"
           id="g3114">
          <use
             xlink:href="#textext-7dbcd031-20"
             x="293.668"
             y="129.467"
             id="use3116" />
        </g>
        <g
           style="fill:rgb(0%,0%,0%);fill-opacity:1;"
           id="g3118">
          <use
             xlink:href="#textext-7dbcd031-13"
             x="300.421"
             y="141.391"
             id="use3120" />
        </g>
        <g
           style="fill:rgb(0%,0%,0%);fill-opacity:1;"
           id="g3122">
          <use
             xlink:href="#textext-7dbcd031-6"
             x="310.72"
             y="134.646"
             id="use3124" />
          <use
             xlink:href="#textext-7dbcd031-7"
             x="315.7013"
             y="134.646"
             id="use3126" />
        </g>
        <path
           style="fill:none;stroke-width:0.558;stroke-linecap:butt;stroke-linejoin:miter;stroke:rgb(0%,0%,0%);stroke-opacity:1;stroke-miterlimit:10;"
           d="M -0.00125 0.001875 L 9.963594 0.001875 "
           transform="matrix(1,0,0,-1,310.72,138.83)"
           id="path3128" />
        <g
           style="fill:rgb(0%,0%,0%);fill-opacity:1;"
           id="g3130">
          <use
             xlink:href="#textext-7dbcd031-8"
             x="313.211"
             y="148.225"
             id="use3132" />
        </g>
        <g
           style="fill:rgb(0%,0%,0%);fill-opacity:1;"
           id="g3134">
          <use
             xlink:href="#textext-7dbcd031-15"
             x="324.092"
             y="141.391"
             id="use3136" />
        </g>
        <g
           style="fill:rgb(0%,0%,0%);fill-opacity:1;"
           id="g3138">
          <use
             xlink:href="#textext-7dbcd031-11"
             x="333.837"
             y="134.646"
             id="use3140" />
          <use
             xlink:href="#textext-7dbcd031-6"
             x="338.8183"
             y="134.646"
             id="use3142" />
        </g>
        <path
           style="fill:none;stroke-width:0.558;stroke-linecap:butt;stroke-linejoin:miter;stroke:rgb(0%,0%,0%);stroke-opacity:1;stroke-miterlimit:10;"
           d="M -0.0010625 0.001875 L 9.963781 0.001875 "
           transform="matrix(1,0,0,-1,333.837,138.83)"
           id="path3144" />
        <g
           style="fill:rgb(0%,0%,0%);fill-opacity:1;"
           id="g3146">
          <use
             xlink:href="#textext-7dbcd031-11"
             x="336.328"
             y="148.225"
             id="use3148" />
        </g>
      </g>
    </g>
    <path
       inkscape:connector-curvature="0"
       id="path3244"
       d="m 354.05847,135.39621 -11.11168,14.14213"
       style="fill:none;stroke:#000000;stroke-width:1px;stroke-linecap:butt;stroke-linejoin:miter;stroke-opacity:1;marker-end:url(#Arrow1Mend)" />
    <path
       transform="matrix(0.86376954,0,0,1,52.983738,-4.3128693)"
       d="m 434.11306,137.66905 a 39.26968,13.384521 0 1 1 -78.53936,0 39.26968,13.384521 0 1 1 78.53936,0 z"
       sodipodi:ry="13.384521"
       sodipodi:rx="39.26968"
       sodipodi:cy="137.66905"
       sodipodi:cx="394.84338"
       id="path4458"
       style="fill:none;stroke:#000000;stroke-width:1.34496522;stroke-linecap:round;stroke-linejoin:miter;stroke-miterlimit:4;stroke-opacity:1;stroke-dasharray:none;stroke-dashoffset:0"
       sodipodi:type="arc" />
    <g
       id="g4697"
       transform="matrix(0.72829509,0,0,0.72829509,116.13906,56.173444)">
      <text
         xml:space="preserve"
         style="font-size:12px;font-style:normal;font-variant:normal;font-weight:normal;font-stretch:normal;line-height:125%;letter-spacing:0px;word-spacing:0px;fill:#000000;fill-opacity:1;stroke:none;font-family:Nimbus Roman No9 L;-inkscape-font-specification:Nimbus Roman No9 L"
         x="355.32117"
         y="101.5561"
         id="text4460"
         sodipodi:linespacing="125%"><tspan
           sodipodi:role="line"
           id="tspan4462"
           x="355.32117"
           y="101.5561">dont forget</tspan><tspan
           sodipodi:role="line"
           x="355.32117"
           y="116.5561"
           id="tspan4464">to square </tspan></text>
      <g
         transform="matrix(1.2,0,0,1.2,135.21895,-46.671754)"
         ns0:text="$\\mu$"
         ns0:preamble="/home/sriranga/Desktop/CSY/article4/figure/package.tex"
         id="g4569">
        <defs
           id="defs4571">
          <g
             id="g4573">
            <symbol
               style="overflow:visible"
               overflow="visible"
               id="textext-7c79ff58-0">
              <path
                 inkscape:connector-curvature="0"
                 style="stroke:none"
                 d=""
                 id="path4576" />
            </symbol>
            <symbol
               style="overflow:visible"
               overflow="visible"
               id="textext-7c79ff58-1">
              <path
                 inkscape:connector-curvature="0"
                 style="stroke:none"
                 d="m 4.9375,-0.765625 c 0,-0.0625 -0.015625,-0.09375 -0.046875,-0.09375 C 4.75,-0.859375 4.75,-0.265625 4.21875,-0.265625 4.0625,-0.265625 4,-0.40625 4,-0.59375 c 0,-0.25 0.109375,-0.625 0.203125,-1.03125 L 4.90625,-4.390625 4.03125,-4.25 l -0.796875,3 C 3.21875,-1.203125 2.625,-0.375 2.03125,-0.375 c -0.578125,0 -0.75,-0.515625 -0.75,-0.90625 0,-0.109375 0.015625,-0.21875 0.03125,-0.3125 l 0.71875,-2.796875 -0.75,0.125 L 0.203125,0 c -0.21875,0.8125 -0.609375,1.890625 -0.6875,2.0625 l 0.875,0 0.640625,-2.484375 c 0,0 0.046875,0.53125 0.765625,0.53125 0.796875,0 1.28125,-0.78125 1.390625,-0.90625 -0.015625,0.078125 -0.03125,0.15625 -0.03125,0.21875 0,0.65625 0.609375,0.6875 0.78125,0.6875 l 0.03125,0 c 0.6875,0 0.96875,-0.640625 0.96875,-0.875 z m 0,0"
                 id="path4579" />
            </symbol>
          </g>
        </defs>
        <g
           id="textext-7c79ff58-2">
          <g
             style="fill:#000000;fill-opacity:1"
             id="g4582">
            <use
               height="1052.3622"
               width="744.09448"
               xlink:href="#textext-7c79ff58-1"
               x="223.43201"
               y="134.765"
               id="use4584" />
          </g>
        </g>
      </g>
    </g>
  </g>
</svg>
