<?xml version="1.0" encoding="UTF-8" standalone="no"?>
<!-- Created with Inkscape (http://www.inkscape.org/) -->

<svg
   xmlns:ns0="http://www.iki.fi/pav/software/textext/"
   xmlns:dc="http://purl.org/dc/elements/1.1/"
   xmlns:cc="http://creativecommons.org/ns#"
   xmlns:rdf="http://www.w3.org/1999/02/22-rdf-syntax-ns#"
   xmlns:svg="http://www.w3.org/2000/svg"
   xmlns="http://www.w3.org/2000/svg"
   xmlns:xlink="http://www.w3.org/1999/xlink"
   xmlns:sodipodi="http://sodipodi.sourceforge.net/DTD/sodipodi-0.dtd"
   xmlns:inkscape="http://www.inkscape.org/namespaces/inkscape"
   width="283.46457"
   height="212.59842"
   id="svg2"
   version="1.1"
   inkscape:version="0.48.4 r9939"
   sodipodi:docname="New document 1">
  <sodipodi:namedview
     id="base"
     pagecolor="#ffffff"
     bordercolor="#666666"
     borderopacity="1.0"
     inkscape:pageopacity="0.0"
     inkscape:pageshadow="2"
     inkscape:zoom="3.9789838"
     inkscape:cx="145.07332"
     inkscape:cy="114.17939"
     inkscape:document-units="px"
     inkscape:current-layer="layer1"
     showgrid="false"
     units="cm"
     inkscape:window-width="1024"
     inkscape:window-height="744"
     inkscape:window-x="0"
     inkscape:window-y="24"
     inkscape:window-maximized="1" />
  <defs
     id="defs4" />
  <metadata
     id="metadata7">
    <rdf:RDF>
      <cc:Work
         rdf:about="">
        <dc:format>image/svg+xml</dc:format>
        <dc:type
           rdf:resource="http://purl.org/dc/dcmitype/StillImage" />
        <dc:title></dc:title>
      </cc:Work>
    </rdf:RDF>
  </metadata>
  <g
     inkscape:label="Layer 1"
     inkscape:groupmode="layer"
     id="layer1"
     transform="translate(0,-839.76245)">
    <path
       style="fill:none;stroke:#000000;stroke-width:1px;stroke-linecap:butt;stroke-linejoin:miter;stroke-opacity:1"
       d="m 71.785714,124.02699 133.571426,0"
       id="path2985"
       inkscape:connector-curvature="0"
       transform="translate(0,839.76245)" />
    <path
       style="fill:none;stroke:#000000;stroke-width:1px;stroke-linecap:butt;stroke-linejoin:miter;stroke-opacity:1"
       d="m 93.928572,963.43229 0,-35.35714"
       id="path2987"
       inkscape:connector-curvature="0" />
    <path
       inkscape:connector-curvature="0"
       id="path2989"
       d="m 123.92857,963.43229 0,-81.07143"
       style="fill:none;stroke:#000000;stroke-width:1px;stroke-linecap:butt;stroke-linejoin:miter;stroke-opacity:1"
       sodipodi:nodetypes="cc" />
    <path
       sodipodi:nodetypes="cc"
       style="fill:none;stroke:#000000;stroke-width:1px;stroke-linecap:butt;stroke-linejoin:miter;stroke-opacity:1"
       d="m 151.92857,963.43229 0,-81.07143"
       id="path2991"
       inkscape:connector-curvature="0" />
    <path
       inkscape:connector-curvature="0"
       id="path2993"
       d="m 181.92857,963.43229 0,-50.71428"
       style="fill:none;stroke:#000000;stroke-width:1px;stroke-linecap:butt;stroke-linejoin:miter;stroke-opacity:1"
       sodipodi:nodetypes="cc" />
    <path
       sodipodi:type="arc"
       style="fill:#000000;fill-opacity:1;stroke:#000000;stroke-width:1.25;stroke-linecap:round;stroke-linejoin:miter;stroke-miterlimit:4;stroke-opacity:1;stroke-dasharray:none;stroke-dashoffset:0"
       id="path2995"
       sodipodi:cx="88.39286"
       sodipodi:cy="129.91985"
       sodipodi:rx="1.25"
       sodipodi:ry="1.25"
       d="m 89.64286,129.91985 c 0,0.69035 -0.559644,1.25 -1.25,1.25 -0.690356,0 -1.25,-0.55965 -1.25,-1.25 0,-0.69036 0.559644,-1.25 1.25,-1.25 0.690356,0 1.25,0.55964 1.25,1.25 z"
       transform="translate(5.5357143,833.69102)" />
    <path
       transform="translate(35.535714,833.69102)"
       d="m 89.64286,129.91985 c 0,0.69035 -0.559644,1.25 -1.25,1.25 -0.690356,0 -1.25,-0.55965 -1.25,-1.25 0,-0.69036 0.559644,-1.25 1.25,-1.25 0.690356,0 1.25,0.55964 1.25,1.25 z"
       sodipodi:ry="1.25"
       sodipodi:rx="1.25"
       sodipodi:cy="129.91985"
       sodipodi:cx="88.39286"
       id="path2997"
       style="fill:#000000;fill-opacity:1;stroke:#000000;stroke-width:1.25;stroke-linecap:round;stroke-linejoin:miter;stroke-miterlimit:4;stroke-opacity:1;stroke-dasharray:none;stroke-dashoffset:0"
       sodipodi:type="arc" />
    <path
       sodipodi:type="arc"
       style="fill:#000000;fill-opacity:1;stroke:#000000;stroke-width:1.25;stroke-linecap:round;stroke-linejoin:miter;stroke-miterlimit:4;stroke-opacity:1;stroke-dasharray:none;stroke-dashoffset:0"
       id="path2999"
       sodipodi:cx="88.39286"
       sodipodi:cy="129.91985"
       sodipodi:rx="1.25"
       sodipodi:ry="1.25"
       d="m 89.64286,129.91985 c 0,0.69035 -0.559644,1.25 -1.25,1.25 -0.690356,0 -1.25,-0.55965 -1.25,-1.25 0,-0.69036 0.559644,-1.25 1.25,-1.25 0.690356,0 1.25,0.55964 1.25,1.25 z"
       transform="translate(63.571433,833.69102)" />
    <path
       transform="translate(93.357143,833.69102)"
       d="m 89.64286,129.91985 c 0,0.69035 -0.559644,1.25 -1.25,1.25 -0.690356,0 -1.25,-0.55965 -1.25,-1.25 0,-0.69036 0.559644,-1.25 1.25,-1.25 0.690356,0 1.25,0.55964 1.25,1.25 z"
       sodipodi:ry="1.25"
       sodipodi:rx="1.25"
       sodipodi:cy="129.91985"
       sodipodi:cx="88.39286"
       id="path3001"
       style="fill:#000000;fill-opacity:1;stroke:#000000;stroke-width:1.25;stroke-linecap:round;stroke-linejoin:miter;stroke-miterlimit:4;stroke-opacity:1;stroke-dasharray:none;stroke-dashoffset:0"
       sodipodi:type="arc" />
    <text
       xml:space="preserve"
       style="font-size:12px;font-style:normal;font-variant:normal;font-weight:normal;font-stretch:normal;line-height:125%;letter-spacing:0px;word-spacing:0px;fill:#000000;fill-opacity:1;stroke:none;font-family:Nimbus Roman No9 L;-inkscape-font-specification:Nimbus Roman No9 L"
       x="90.714272"
       y="977.00372"
       id="text3003"
       sodipodi:linespacing="125%"><tspan
         sodipodi:role="line"
         id="tspan3005"
         x="90.714272"
         y="977.00372">0</tspan></text>
    <text
       xml:space="preserve"
       style="font-size:12px;font-style:normal;font-variant:normal;font-weight:normal;font-stretch:normal;line-height:125%;letter-spacing:0px;word-spacing:0px;fill:#000000;fill-opacity:1;stroke:none;font-family:Nimbus Roman No9 L;-inkscape-font-specification:Nimbus Roman No9 L"
       x="120.71429"
       y="977.36096"
       id="text3007"
       sodipodi:linespacing="125%"><tspan
         sodipodi:role="line"
         id="tspan3009"
         x="120.71429"
         y="977.36096">1</tspan></text>
    <text
       xml:space="preserve"
       style="font-size:12px;font-style:normal;font-variant:normal;font-weight:normal;font-stretch:normal;line-height:125%;letter-spacing:0px;word-spacing:0px;fill:#000000;fill-opacity:1;stroke:none;font-family:Nimbus Roman No9 L;-inkscape-font-specification:Nimbus Roman No9 L"
       x="148.92856"
       y="977.00372"
       id="text3011"
       sodipodi:linespacing="125%"><tspan
         sodipodi:role="line"
         id="tspan3013"
         x="148.92856"
         y="977.00372">2</tspan></text>
    <text
       xml:space="preserve"
       style="font-size:12px;font-style:normal;font-variant:normal;font-weight:normal;font-stretch:normal;line-height:125%;letter-spacing:0px;word-spacing:0px;fill:#000000;fill-opacity:1;stroke:none;font-family:Nimbus Roman No9 L;-inkscape-font-specification:Nimbus Roman No9 L"
       x="178.92856"
       y="976.64667"
       id="text3015"
       sodipodi:linespacing="125%"><tspan
         sodipodi:role="line"
         id="tspan3017"
         x="178.92856"
         y="976.64667">3</tspan></text>
    <g
       transform="matrix(1.2,0,0,1.2,-184.28568,786.36849)"
       ns0:text="$\\frac{1}{8}$"
       ns0:preamble="/home/sriranga/Desktop/CSY/article4/figure/package.tex"
       id="g3041">
      <defs
         id="defs3043">
        <g
           id="g3045">
          <symbol
             style="overflow:visible"
             overflow="visible"
             id="textext-04b95dd9-0">
            <path
               inkscape:connector-curvature="0"
               style="stroke:none"
               d=""
               id="path3048" />
          </symbol>
          <symbol
             style="overflow:visible"
             overflow="visible"
             id="textext-04b95dd9-1">
            <path
               inkscape:connector-curvature="0"
               style="stroke:none"
               d="m 2.03125,-4.703125 -1.25,0.625 0,0.09375 c 0.078125,-0.03125 0.15625,-0.0625 0.1875,-0.078125 0.125,-0.046875 0.234375,-0.0625 0.3125,-0.0625 0.140625,0 0.203125,0.09375 0.203125,0.3125 l 0,3.171875 c 0,0.21875 -0.0625,0.375 -0.171875,0.453125 -0.09375,0.0625 -0.203125,0.078125 -0.484375,0.078125 L 0.828125,0 2.75,0 l 0,-0.109375 c -0.5625,0 -0.671875,-0.078125 -0.671875,-0.40625 l 0,-4.1875 z m 0,0"
               id="path3051" />
          </symbol>
          <symbol
             style="overflow:visible"
             overflow="visible"
             id="textext-04b95dd9-2">
            <path
               inkscape:connector-curvature="0"
               style="stroke:none"
               d="m 2.015625,-2.578125 c 0.6875,-0.375 0.9375,-0.671875 0.9375,-1.140625 0,-0.578125 -0.5,-0.984375 -1.203125,-0.984375 -0.75,0 -1.3125,0.453125 -1.3125,1.09375 0,0.453125 0.125,0.65625 0.859375,1.296875 -0.75,0.578125 -0.90625,0.78125 -0.90625,1.265625 0,0.671875 0.546875,1.140625 1.34375,1.140625 0.828125,0 1.359375,-0.453125 1.359375,-1.171875 0,-0.53125 -0.234375,-0.875 -1.078125,-1.5 z m -0.125,0.703125 c 0.515625,0.375 0.6875,0.625 0.6875,1.015625 0,0.453125 -0.3125,0.765625 -0.765625,0.765625 -0.53125,0 -0.890625,-0.40625 -0.890625,-1.015625 0,-0.4375 0.15625,-0.734375 0.5625,-1.0625 z M 1.8125,-2.703125 c -0.609375,-0.40625 -0.859375,-0.734375 -0.859375,-1.125 0,-0.40625 0.3125,-0.6875 0.75,-0.6875 0.46875,0 0.765625,0.3125 0.765625,0.78125 0,0.40625 -0.1875,0.71875 -0.59375,0.984375 -0.03125,0.015625 -0.03125,0.015625 -0.0625,0.046875 z m 0,0"
               id="path3054" />
          </symbol>
        </g>
      </defs>
      <g
         id="textext-04b95dd9-3">
        <g
           style="fill:#000000;fill-opacity:1"
           id="g3057">
          <use
             height="212.59842"
             width="283.46457"
             xlink:href="#textext-04b95dd9-1"
             x="224.62801"
             y="130.839"
             id="use3059" />
        </g>
        <path
           inkscape:connector-curvature="0"
           style="fill:none;stroke:#000000;stroke-width:0.55800003;stroke-linecap:butt;stroke-linejoin:miter;stroke-miterlimit:10;stroke-opacity:1"
           d="m 9.0625e-4,8.75e-4 3.48437475,0"
           transform="matrix(1,0,0,-1,224.628,132.204)"
           id="path3061" />
        <g
           style="fill:#000000;fill-opacity:1"
           id="g3063">
          <use
             height="212.59842"
             width="283.46457"
             xlink:href="#textext-04b95dd9-2"
             x="224.62801"
             y="138.202"
             id="use3065" />
        </g>
      </g>
    </g>
    <g
       id="g3169"
       transform="matrix(1.2,0,0,1.2,-154.28568,752.36849)"
       ns0:preamble="/home/sriranga/Desktop/CSY/article4/figure/package.tex"
       ns0:text="$\\frac{3}{8}$">
      <defs
         id="defs3171">
        <g
           id="g3173">
          <symbol
             id="textext-cef610e4-0"
             overflow="visible">
            <path
               id="path3176"
               d=""
               style="stroke:none;" />
          </symbol>
          <symbol
             id="textext-cef610e4-1"
             overflow="visible">
            <path
               id="path3179"
               d="M 1.0625 -2.296875 C 1.484375 -2.296875 1.640625 -2.28125 1.8125 -2.21875 C 2.234375 -2.0625 2.515625 -1.671875 2.515625 -1.1875 C 2.515625 -0.609375 2.109375 -0.15625 1.59375 -0.15625 C 1.40625 -0.15625 1.265625 -0.203125 1.015625 -0.375 C 0.796875 -0.5 0.6875 -0.546875 0.5625 -0.546875 C 0.40625 -0.546875 0.296875 -0.453125 0.296875 -0.296875 C 0.296875 -0.0625 0.59375 0.09375 1.09375 0.09375 C 1.625 0.09375 2.171875 -0.078125 2.5 -0.375 C 2.828125 -0.65625 3.015625 -1.0625 3.015625 -1.53125 C 3.015625 -1.875 2.90625 -2.203125 2.703125 -2.421875 C 2.5625 -2.578125 2.421875 -2.65625 2.125 -2.796875 C 2.59375 -3.125 2.78125 -3.375 2.78125 -3.75 C 2.78125 -4.328125 2.328125 -4.703125 1.6875 -4.703125 C 1.34375 -4.703125 1.03125 -4.59375 0.78125 -4.375 C 0.578125 -4.1875 0.46875 -4 0.3125 -3.578125 L 0.421875 -3.546875 C 0.703125 -4.0625 1.015625 -4.296875 1.453125 -4.296875 C 1.90625 -4.296875 2.21875 -3.984375 2.21875 -3.546875 C 2.21875 -3.296875 2.125 -3.046875 1.9375 -2.875 C 1.734375 -2.65625 1.546875 -2.5625 1.0625 -2.390625 Z M 1.0625 -2.296875 "
               style="stroke:none;" />
          </symbol>
          <symbol
             id="textext-cef610e4-2"
             overflow="visible">
            <path
               id="path3182"
               d="M 2.015625 -2.578125 C 2.703125 -2.953125 2.953125 -3.25 2.953125 -3.71875 C 2.953125 -4.296875 2.453125 -4.703125 1.75 -4.703125 C 1 -4.703125 0.4375 -4.25 0.4375 -3.609375 C 0.4375 -3.15625 0.5625 -2.953125 1.296875 -2.3125 C 0.546875 -1.734375 0.390625 -1.53125 0.390625 -1.046875 C 0.390625 -0.375 0.9375 0.09375 1.734375 0.09375 C 2.5625 0.09375 3.09375 -0.359375 3.09375 -1.078125 C 3.09375 -1.609375 2.859375 -1.953125 2.015625 -2.578125 Z M 1.890625 -1.875 C 2.40625 -1.5 2.578125 -1.25 2.578125 -0.859375 C 2.578125 -0.40625 2.265625 -0.09375 1.8125 -0.09375 C 1.28125 -0.09375 0.921875 -0.5 0.921875 -1.109375 C 0.921875 -1.546875 1.078125 -1.84375 1.484375 -2.171875 Z M 1.8125 -2.703125 C 1.203125 -3.109375 0.953125 -3.4375 0.953125 -3.828125 C 0.953125 -4.234375 1.265625 -4.515625 1.703125 -4.515625 C 2.171875 -4.515625 2.46875 -4.203125 2.46875 -3.734375 C 2.46875 -3.328125 2.28125 -3.015625 1.875 -2.75 C 1.84375 -2.734375 1.84375 -2.734375 1.8125 -2.703125 Z M 1.8125 -2.703125 "
               style="stroke:none;" />
          </symbol>
        </g>
      </defs>
      <g
         id="textext-cef610e4-3">
        <g
           id="g3185"
           style="fill:rgb(0%,0%,0%);fill-opacity:1;">
          <use
             id="use3187"
             y="130.839"
             x="224.628"
             xlink:href="#textext-cef610e4-1" />
        </g>
        <path
           id="path3189"
           transform="matrix(1,0,0,-1,224.628,132.204)"
           d="M 0.00090625 0.000875 L 3.485281 0.000875 "
           style="fill:none;stroke-width:0.558;stroke-linecap:butt;stroke-linejoin:miter;stroke:rgb(0%,0%,0%);stroke-opacity:1;stroke-miterlimit:10;" />
        <g
           id="g3191"
           style="fill:rgb(0%,0%,0%);fill-opacity:1;">
          <use
             id="use3193"
             y="138.202"
             x="224.628"
             xlink:href="#textext-cef610e4-2" />
        </g>
      </g>
    </g>
    <g
       ns0:text="$\\frac{3}{8}$"
       ns0:preamble="/home/sriranga/Desktop/CSY/article4/figure/package.tex"
       transform="matrix(1.2,0,0,1.2,-126.28568,752.36849)"
       id="g3245">
      <defs
         id="defs3247">
        <g
           id="g3249">
          <symbol
             overflow="visible"
             id="symbol3251"
             style="overflow:visible">
            <path
               style="stroke:none"
               d=""
               id="path3253"
               inkscape:connector-curvature="0" />
          </symbol>
          <symbol
             overflow="visible"
             id="symbol3255"
             style="overflow:visible">
            <path
               style="stroke:none"
               d="m 1.0625,-2.296875 c 0.421875,0 0.578125,0.015625 0.75,0.078125 0.421875,0.15625 0.703125,0.546875 0.703125,1.03125 0,0.578125 -0.40625,1.03125 -0.921875,1.03125 -0.1875,0 -0.328125,-0.046875 -0.578125,-0.21875 C 0.796875,-0.5 0.6875,-0.546875 0.5625,-0.546875 c -0.15625,0 -0.265625,0.09375 -0.265625,0.25 0,0.234375 0.296875,0.390625 0.796875,0.390625 0.53125,0 1.078125,-0.171875 1.40625,-0.46875 0.328125,-0.28125 0.515625,-0.6875 0.515625,-1.15625 0,-0.34375 -0.109375,-0.671875 -0.3125,-0.890625 C 2.5625,-2.578125 2.421875,-2.65625 2.125,-2.796875 2.59375,-3.125 2.78125,-3.375 2.78125,-3.75 c 0,-0.578125 -0.453125,-0.953125 -1.09375,-0.953125 -0.34375,0 -0.65625,0.109375 -0.90625,0.328125 C 0.578125,-4.1875 0.46875,-4 0.3125,-3.578125 l 0.109375,0.03125 c 0.28125,-0.515625 0.59375,-0.75 1.03125,-0.75 0.453125,0 0.765625,0.3125 0.765625,0.75 0,0.25 -0.09375,0.5 -0.28125,0.671875 -0.203125,0.21875 -0.390625,0.3125 -0.875,0.484375 z m 0,0"
               id="path3257"
               inkscape:connector-curvature="0" />
          </symbol>
          <symbol
             overflow="visible"
             id="symbol3259"
             style="overflow:visible">
            <path
               style="stroke:none"
               d="m 2.015625,-2.578125 c 0.6875,-0.375 0.9375,-0.671875 0.9375,-1.140625 0,-0.578125 -0.5,-0.984375 -1.203125,-0.984375 -0.75,0 -1.3125,0.453125 -1.3125,1.09375 0,0.453125 0.125,0.65625 0.859375,1.296875 -0.75,0.578125 -0.90625,0.78125 -0.90625,1.265625 0,0.671875 0.546875,1.140625 1.34375,1.140625 0.828125,0 1.359375,-0.453125 1.359375,-1.171875 0,-0.53125 -0.234375,-0.875 -1.078125,-1.5 z m -0.125,0.703125 c 0.515625,0.375 0.6875,0.625 0.6875,1.015625 0,0.453125 -0.3125,0.765625 -0.765625,0.765625 -0.53125,0 -0.890625,-0.40625 -0.890625,-1.015625 0,-0.4375 0.15625,-0.734375 0.5625,-1.0625 z M 1.8125,-2.703125 c -0.609375,-0.40625 -0.859375,-0.734375 -0.859375,-1.125 0,-0.40625 0.3125,-0.6875 0.75,-0.6875 0.46875,0 0.765625,0.3125 0.765625,0.78125 0,0.40625 -0.1875,0.71875 -0.59375,0.984375 -0.03125,0.015625 -0.03125,0.015625 -0.0625,0.046875 z m 0,0"
               id="path3261"
               inkscape:connector-curvature="0" />
          </symbol>
        </g>
      </defs>
      <g
         id="g3263">
        <g
           style="fill:#000000;fill-opacity:1"
           id="g3265">
          <use
             xlink:href="#textext-cef610e4-1"
             x="224.62801"
             y="130.839"
             id="use3267"
             width="283.46457"
             height="212.59842" />
        </g>
        <path
           style="fill:none;stroke:#000000;stroke-width:0.55800003;stroke-linecap:butt;stroke-linejoin:miter;stroke-miterlimit:10;stroke-opacity:1"
           d="m 9.0625e-4,8.75e-4 3.48437475,0"
           transform="matrix(1,0,0,-1,224.628,132.204)"
           id="path3269"
           inkscape:connector-curvature="0" />
        <g
           style="fill:#000000;fill-opacity:1"
           id="g3271">
          <use
             xlink:href="#textext-cef610e4-2"
             x="224.62801"
             y="138.202"
             id="use3273"
             width="283.46457"
             height="212.59842" />
        </g>
      </g>
    </g>
    <g
       id="g3275"
       ns0:preamble="/home/sriranga/Desktop/CSY/article4/figure/package.tex"
       ns0:text="$\\frac{1}{8}$"
       transform="matrix(1.2,0,0,1.2,-94.28568,770.36849)">
      <defs
         id="defs3277">
        <g
           id="g3279">
          <symbol
             id="symbol3281"
             overflow="visible"
             style="overflow:visible">
            <path
               id="path3283"
               d=""
               style="stroke:none"
               inkscape:connector-curvature="0" />
          </symbol>
          <symbol
             id="symbol3285"
             overflow="visible"
             style="overflow:visible">
            <path
               id="path3287"
               d="m 2.03125,-4.703125 -1.25,0.625 0,0.09375 c 0.078125,-0.03125 0.15625,-0.0625 0.1875,-0.078125 0.125,-0.046875 0.234375,-0.0625 0.3125,-0.0625 0.140625,0 0.203125,0.09375 0.203125,0.3125 l 0,3.171875 c 0,0.21875 -0.0625,0.375 -0.171875,0.453125 -0.09375,0.0625 -0.203125,0.078125 -0.484375,0.078125 L 0.828125,0 2.75,0 l 0,-0.109375 c -0.5625,0 -0.671875,-0.078125 -0.671875,-0.40625 l 0,-4.1875 z m 0,0"
               style="stroke:none"
               inkscape:connector-curvature="0" />
          </symbol>
          <symbol
             id="symbol3289"
             overflow="visible"
             style="overflow:visible">
            <path
               id="path3291"
               d="m 2.015625,-2.578125 c 0.6875,-0.375 0.9375,-0.671875 0.9375,-1.140625 0,-0.578125 -0.5,-0.984375 -1.203125,-0.984375 -0.75,0 -1.3125,0.453125 -1.3125,1.09375 0,0.453125 0.125,0.65625 0.859375,1.296875 -0.75,0.578125 -0.90625,0.78125 -0.90625,1.265625 0,0.671875 0.546875,1.140625 1.34375,1.140625 0.828125,0 1.359375,-0.453125 1.359375,-1.171875 0,-0.53125 -0.234375,-0.875 -1.078125,-1.5 z m -0.125,0.703125 c 0.515625,0.375 0.6875,0.625 0.6875,1.015625 0,0.453125 -0.3125,0.765625 -0.765625,0.765625 -0.53125,0 -0.890625,-0.40625 -0.890625,-1.015625 0,-0.4375 0.15625,-0.734375 0.5625,-1.0625 z M 1.8125,-2.703125 c -0.609375,-0.40625 -0.859375,-0.734375 -0.859375,-1.125 0,-0.40625 0.3125,-0.6875 0.75,-0.6875 0.46875,0 0.765625,0.3125 0.765625,0.78125 0,0.40625 -0.1875,0.71875 -0.59375,0.984375 -0.03125,0.015625 -0.03125,0.015625 -0.0625,0.046875 z m 0,0"
               style="stroke:none"
               inkscape:connector-curvature="0" />
          </symbol>
        </g>
      </defs>
      <g
         id="g3293">
        <g
           id="g3295"
           style="fill:#000000;fill-opacity:1">
          <use
             id="use3297"
             y="130.839"
             x="224.62801"
             xlink:href="#textext-04b95dd9-1"
             width="283.46457"
             height="212.59842" />
        </g>
        <path
           id="path3299"
           transform="matrix(1,0,0,-1,224.628,132.204)"
           d="m 9.0625e-4,8.75e-4 3.48437475,0"
           style="fill:none;stroke:#000000;stroke-width:0.55800003;stroke-linecap:butt;stroke-linejoin:miter;stroke-miterlimit:10;stroke-opacity:1"
           inkscape:connector-curvature="0" />
        <g
           id="g3301"
           style="fill:#000000;fill-opacity:1">
          <use
             id="use3303"
             y="138.202"
             x="224.62801"
             xlink:href="#textext-04b95dd9-2"
             width="283.46457"
             height="212.59842" />
        </g>
      </g>
    </g>
  </g>
</svg>
