<?xml version="1.0" encoding="UTF-8" standalone="no"?>
<!-- Created with Inkscape (http://www.inkscape.org/) -->

<svg
   xmlns:ns0="http://www.iki.fi/pav/software/textext/"
   xmlns:dc="http://purl.org/dc/elements/1.1/"
   xmlns:cc="http://creativecommons.org/ns#"
   xmlns:rdf="http://www.w3.org/1999/02/22-rdf-syntax-ns#"
   xmlns:svg="http://www.w3.org/2000/svg"
   xmlns="http://www.w3.org/2000/svg"
   xmlns:sodipodi="http://sodipodi.sourceforge.net/DTD/sodipodi-0.dtd"
   xmlns:inkscape="http://www.inkscape.org/namespaces/inkscape"
   width="212.59842"
   height="212.59842"
   id="svg2"
   version="1.1"
   inkscape:version="0.48.4 r9939"
   sodipodi:docname="New document 1">
  <sodipodi:namedview
     id="base"
     pagecolor="#ffffff"
     bordercolor="#666666"
     borderopacity="1.0"
     inkscape:pageopacity="0.0"
     inkscape:pageshadow="2"
     inkscape:zoom="1.4"
     inkscape:cx="85.67579"
     inkscape:cy="118.94875"
     inkscape:document-units="px"
     inkscape:current-layer="layer1"
     showgrid="false"
     inkscape:window-width="1024"
     inkscape:window-height="744"
     inkscape:window-x="0"
     inkscape:window-y="24"
     inkscape:window-maximized="1"
     units="cm" />
  <defs
     id="defs4">
    <marker
       inkscape:stockid="Arrow1Mend"
       orient="auto"
       refY="0.0"
       refX="0.0"
       id="Arrow1Mend"
       style="overflow:visible;">
      <path
         id="path4313"
         d="M 0.0,0.0 L 5.0,-5.0 L -12.5,0.0 L 5.0,5.0 L 0.0,0.0 z "
         style="fill-rule:evenodd;stroke:#000000;stroke-width:1.0pt;"
         transform="scale(0.4) rotate(180) translate(10,0)" />
    </marker>
    <inkscape:path-effect
       effect="spiro"
       id="path-effect4296"
       is_visible="true" />
    <inkscape:path-effect
       effect="spiro"
       id="path-effect3033"
       is_visible="true" />
    <inkscape:path-effect
       effect="spiro"
       id="path-effect3033-3"
       is_visible="true" />
    <marker
       inkscape:stockid="Arrow1Mend"
       orient="auto"
       refY="0"
       refX="0"
       id="Arrow1Mend-2"
       style="overflow:visible">
      <path
         inkscape:connector-curvature="0"
         id="path4313-8"
         d="M 0,0 5,-5 -12.5,0 5,5 0,0 z"
         style="fill-rule:evenodd;stroke:#000000;stroke-width:1pt"
         transform="matrix(-0.4,0,0,-0.4,-4,0)" />
    </marker>
  </defs>
  <metadata
     id="metadata7">
    <rdf:RDF>
      <cc:Work
         rdf:about="">
        <dc:format>image/svg+xml</dc:format>
        <dc:type
           rdf:resource="http://purl.org/dc/dcmitype/StillImage" />
        <dc:title></dc:title>
      </cc:Work>
    </rdf:RDF>
  </metadata>
  <g
     id="layer1"
     inkscape:groupmode="layer"
     inkscape:label="Layer 1"
     transform="translate(0,-839.76245)">
    <g
       ns0:preamble="/home/sriranga/Desktop/Beamer-prathi/article24/figure/package.tex"
       ns0:text="$\\dfrac{1}{4}$"
       word-spacing="normal"
       letter-spacing="normal"
       font-size-adjust="none"
       font-stretch="normal"
       font-weight="normal"
       font-variant="normal"
       font-style="normal"
       stroke-miterlimit="10.433"
       xml:space="preserve"
       transform="matrix(1.2,0,0,-1.2,-177.07873,1459.2321)"
       id="content"
       style="font-style:normal;font-variant:normal;font-weight:normal;font-stretch:normal;letter-spacing:normal;word-spacing:normal;text-anchor:start;fill:none;stroke:#000000;stroke-linecap:butt;stroke-linejoin:miter;stroke-miterlimit:10.43299961;stroke-opacity:1;stroke-dasharray:none;stroke-dashoffset:0"><path
         id="path2991"
         d="m 227.52,487.25 -1.79,-0.91 v -0.14 c 0.12,0.06 0.23,0.1 0.27,0.12 0.18,0.06 0.35,0.1 0.45,0.1 0.21,0 0.3,-0.15 0.3,-0.46 v -4.5 c 0,-0.33 -0.08,-0.56 -0.24,-0.65 -0.15,-0.09 -0.29,-0.12 -0.71,-0.13 v -0.15 h 2.75 v 0.15 c -0.79,0.01 -0.95,0.11 -0.95,0.59 v 5.96 z"
         inkscape:connector-curvature="0"
         style="fill:#000000;stroke-width:0" /><line
         id="line2993"
         y2="476.35001"
         x2="229.61"
         y1="476.35001"
         x1="224.63"
         style="stroke-width:0.55800003" /><polygon
         id="polygon2995"
         points="229.32,469.25 228.31,469.25 228.31,473.67 227.87,473.67 224.75,469.25 225.15,469.25 227.53,472.66 227.53,469.25 225.15,469.25 224.75,469.25 224.75,468.61 227.54,468.61 227.54,466.95 228.31,466.95 228.31,468.61 229.32,468.61 "
         style="fill:#000000;stroke-width:0" /></g>    <g
       ns0:preamble="/home/sriranga/Desktop/Beamer-prathi/article24/figure/package.tex"
       ns0:text="$\\dfrac{1}{4}$"
       word-spacing="normal"
       letter-spacing="normal"
       font-size-adjust="none"
       font-stretch="normal"
       font-weight="normal"
       font-variant="normal"
       font-style="normal"
       stroke-miterlimit="10.433"
       xml:space="preserve"
       transform="matrix(1.2,0,0,-1.2,-242.90476,1535.0894)"
       id="content-3"
       style="font-style:normal;font-variant:normal;font-weight:normal;font-stretch:normal;letter-spacing:normal;word-spacing:normal;text-anchor:start;fill:none;stroke:#000000;stroke-linecap:butt;stroke-linejoin:miter;stroke-miterlimit:10.43299961;stroke-opacity:1;stroke-dasharray:none;stroke-dashoffset:0"><path
         id="path2991-6"
         d="m 227.52,487.25 -1.79,-0.91 v -0.14 c 0.12,0.06 0.23,0.1 0.27,0.12 0.18,0.06 0.35,0.1 0.45,0.1 0.21,0 0.3,-0.15 0.3,-0.46 v -4.5 c 0,-0.33 -0.08,-0.56 -0.24,-0.65 -0.15,-0.09 -0.29,-0.12 -0.71,-0.13 v -0.15 h 2.75 v 0.15 c -0.79,0.01 -0.95,0.11 -0.95,0.59 v 5.96 z"
         inkscape:connector-curvature="0"
         style="fill:#000000;stroke-width:0" /><line
         id="line2993-7"
         y2="476.35001"
         x2="229.61"
         y1="476.35001"
         x1="224.63"
         style="stroke-width:0.55800003" /><polygon
         id="polygon2995-5"
         points="227.53,472.66 227.53,469.25 225.15,469.25 224.75,469.25 224.75,468.61 227.54,468.61 227.54,466.95 228.31,466.95 228.31,468.61 229.32,468.61 229.32,469.25 228.31,469.25 228.31,473.67 227.87,473.67 224.75,469.25 225.15,469.25 "
         style="fill:#000000;stroke-width:0" /></g>    <path
       style="fill:none;stroke:#000000;stroke-width:1.25;stroke-linecap:butt;stroke-linejoin:miter;stroke-opacity:1;stroke-miterlimit:4;stroke-dasharray:none"
       d="m 105.56094,24.204969 0,170.210701"
       id="path3031"
       inkscape:path-effect="#path-effect3033"
       inkscape:original-d="m 105.56094,24.204969 0,170.210701"
       inkscape:connector-curvature="0"
       transform="translate(0,839.76245)" />
    <path
       style="fill:none;stroke:#000000;stroke-width:1.25;stroke-linecap:butt;stroke-linejoin:miter;stroke-opacity:1;stroke-miterlimit:4;stroke-dasharray:none"
       d="m 189.11044,948.29485 -170.210673,0"
       id="path3031-5"
       inkscape:path-effect="#path-effect3033-3"
       inkscape:original-d="m 189.11044,948.29485 -170.210673,0"
       inkscape:connector-curvature="0" />
    <path
       sodipodi:type="arc"
       style="fill:#000000;stroke-width:1.25;stroke-miterlimit:4;stroke-dasharray:none;stroke-dashoffset:0"
       id="path3826"
       sodipodi:cx="55.535713"
       sodipodi:cy="88.848419"
       sodipodi:rx="1.7857143"
       sodipodi:ry="1.7857143"
       d="m 57.321427,88.848419 c 0,0.986223 -0.799491,1.785714 -1.785714,1.785714 -0.986223,0 -1.785714,-0.799491 -1.785714,-1.785714 0,-0.986223 0.799491,-1.785714 1.785714,-1.785714 0.986223,0 1.785714,0.799491 1.785714,1.785714 z"
       transform="translate(50.128128,797.93526)" />
    <path
       sodipodi:type="arc"
       style="fill:#000000;stroke-width:1.25;stroke-miterlimit:4;stroke-dasharray:none;stroke-dashoffset:0"
       id="path3826-6"
       sodipodi:cx="55.535713"
       sodipodi:cy="88.848419"
       sodipodi:rx="1.7857143"
       sodipodi:ry="1.7857143"
       d="m 57.321427,88.848419 c 0,0.986223 -0.799491,1.785714 -1.785714,1.785714 -0.986223,0 -1.785714,-0.799491 -1.785714,-1.785714 0,-0.986223 0.799491,-1.785714 1.785714,-1.785714 0.986223,0 1.785714,0.799491 1.785714,1.785714 z"
       transform="translate(-12.67857,859.13745)" />
    <path
       sodipodi:type="arc"
       style="fill:#000000;stroke-width:1.25;stroke-miterlimit:4;stroke-dasharray:none;stroke-dashoffset:0"
       id="path3826-2"
       sodipodi:cx="55.535713"
       sodipodi:cy="88.848419"
       sodipodi:rx="1.7857143"
       sodipodi:ry="1.7857143"
       d="m 57.321427,88.848419 c 0,0.986223 -0.799491,1.785714 -1.785714,1.785714 -0.986223,0 -1.785714,-0.799491 -1.785714,-1.785714 0,-0.986223 0.799491,-1.785714 1.785714,-1.785714 0.986223,0 1.785714,0.799491 1.785714,1.785714 z"
       transform="translate(103.46637,859.30596)" />
    <path
       sodipodi:type="arc"
       style="fill:#000000;stroke-width:1.25;stroke-miterlimit:4;stroke-dasharray:none;stroke-dashoffset:0"
       id="path3826-9"
       sodipodi:cx="55.535713"
       sodipodi:cy="88.848419"
       sodipodi:rx="1.7857143"
       sodipodi:ry="1.7857143"
       d="m 57.321427,88.848419 c 0,0.986223 -0.799491,1.785714 -1.785714,1.785714 -0.986223,0 -1.785714,-0.799491 -1.785714,-1.785714 0,-0.986223 0.799491,-1.785714 1.785714,-1.785714 0.986223,0 1.785714,0.799491 1.785714,1.785714 z"
       transform="translate(49.898959,916.13681)" />
    <g
       ns0:preamble="/home/sriranga/Desktop/Beamer-prathi/article24/figure/package.tex"
       ns0:text="$\\dfrac{1}{4}$"
       word-spacing="normal"
       letter-spacing="normal"
       font-size-adjust="none"
       font-stretch="normal"
       font-weight="normal"
       font-variant="normal"
       font-style="normal"
       stroke-miterlimit="10.433"
       xml:space="preserve"
       transform="matrix(1.2,0,0,-1.2,-107.90115,1504.1666)"
       id="content-3-2"
       style="font-style:normal;font-variant:normal;font-weight:normal;font-stretch:normal;letter-spacing:normal;word-spacing:normal;text-anchor:start;fill:none;stroke:#000000;stroke-linecap:butt;stroke-linejoin:miter;stroke-miterlimit:10.43299961;stroke-opacity:1;stroke-dasharray:none;stroke-dashoffset:0"><path
         id="path2991-6-7"
         d="m 227.52,487.25 -1.79,-0.91 v -0.14 c 0.12,0.06 0.23,0.1 0.27,0.12 0.18,0.06 0.35,0.1 0.45,0.1 0.21,0 0.3,-0.15 0.3,-0.46 v -4.5 c 0,-0.33 -0.08,-0.56 -0.24,-0.65 -0.15,-0.09 -0.29,-0.12 -0.71,-0.13 v -0.15 h 2.75 v 0.15 c -0.79,0.01 -0.95,0.11 -0.95,0.59 v 5.96 z"
         inkscape:connector-curvature="0"
         style="fill:#000000;stroke-width:0" /><line
         id="line2993-7-0"
         y2="476.35001"
         x2="229.61"
         y1="476.35001"
         x1="224.63"
         style="stroke-width:0.55800003" /><polygon
         id="polygon2995-5-9"
         points="227.54,466.95 228.31,466.95 228.31,468.61 229.32,468.61 229.32,469.25 228.31,469.25 228.31,473.67 227.87,473.67 224.75,469.25 225.15,469.25 227.53,472.66 227.53,469.25 225.15,469.25 224.75,469.25 224.75,468.61 227.54,468.61 "
         style="fill:#000000;stroke-width:0" /></g>    <g
       ns0:preamble="/home/sriranga/Desktop/Beamer-prathi/article24/figure/package.tex"
       ns0:text="$\\dfrac{1}{4}$"
       word-spacing="normal"
       letter-spacing="normal"
       font-size-adjust="none"
       font-stretch="normal"
       font-weight="normal"
       font-variant="normal"
       font-style="normal"
       stroke-miterlimit="10.433"
       xml:space="preserve"
       transform="matrix(1.2,0,0,-1.2,-156.82971,1576.6666)"
       id="content-3-3"
       style="font-style:normal;font-variant:normal;font-weight:normal;font-stretch:normal;letter-spacing:normal;word-spacing:normal;text-anchor:start;fill:none;stroke:#000000;stroke-linecap:butt;stroke-linejoin:miter;stroke-miterlimit:10.43299961;stroke-opacity:1;stroke-dasharray:none;stroke-dashoffset:0"><path
         id="path2991-6-6"
         d="m 227.52,487.25 -1.79,-0.91 v -0.14 c 0.12,0.06 0.23,0.1 0.27,0.12 0.18,0.06 0.35,0.1 0.45,0.1 0.21,0 0.3,-0.15 0.3,-0.46 v -4.5 c 0,-0.33 -0.08,-0.56 -0.24,-0.65 -0.15,-0.09 -0.29,-0.12 -0.71,-0.13 v -0.15 h 2.75 v 0.15 c -0.79,0.01 -0.95,0.11 -0.95,0.59 v 5.96 z"
         inkscape:connector-curvature="0"
         style="fill:#000000;stroke-width:0" /><line
         id="line2993-7-06"
         y2="476.35001"
         x2="229.61"
         y1="476.35001"
         x1="224.63"
         style="stroke-width:0.55800003" /><polygon
         id="polygon2995-5-2"
         points="227.54,466.95 228.31,466.95 228.31,468.61 229.32,468.61 229.32,469.25 228.31,469.25 228.31,473.67 227.87,473.67 224.75,469.25 225.15,469.25 227.53,472.66 227.53,469.25 225.15,469.25 224.75,469.25 224.75,468.61 227.54,468.61 "
         style="fill:#000000;stroke-width:0" /></g>    <g
       id="g3963"
       transform="matrix(1.2,0,0,-1.2,-156.82971,1463.0952)"
       xml:space="preserve"
       stroke-miterlimit="10.433"
       font-style="normal"
       font-variant="normal"
       font-weight="normal"
       font-stretch="normal"
       font-size-adjust="none"
       letter-spacing="normal"
       word-spacing="normal"
       ns0:text="$s_1$"
       ns0:preamble="/home/sriranga/Desktop/Beamer-prathi/article24/figure/package.tex"
       style="font-style:normal;font-variant:normal;font-weight:normal;font-stretch:normal;letter-spacing:normal;word-spacing:normal;text-anchor:start;fill:none;stroke:#000000;stroke-linecap:butt;stroke-linejoin:miter;stroke-miterlimit:10.43299961;stroke-opacity:1;stroke-dasharray:none;stroke-dashoffset:0"><path
         style="fill:#000000;stroke-width:0"
         inkscape:connector-curvature="0"
         d="m 224.29,478.68 -0.2,-1.57 h 0.16 c 0.08,0.16 0.14,0.2 0.24,0.2 0.11,0 0.29,-0.04 0.49,-0.08 0.21,-0.07 0.38,-0.1 0.54,-0.1 0.84,0 1.44,0.53 1.44,1.29 0,0.38 -0.21,0.81 -0.68,1.39 -0.38,0.46 -0.54,0.77 -0.54,1.04 0,0.33 0.21,0.54 0.56,0.54 0.52,0 0.81,-0.37 0.91,-1.15 h 0.16 l 0.2,1.39 h -0.14 c -0.08,-0.14 -0.16,-0.18 -0.3,-0.18 -0.07,0 -0.17,0.02 -0.36,0.07 -0.24,0.08 -0.39,0.1 -0.55,0.1 -0.73,0 -1.21,-0.43 -1.21,-1.1 0,-0.32 0.21,-0.74 0.63,-1.28 0.39,-0.51 0.56,-0.85 0.56,-1.14 0,-0.45 -0.3,-0.77 -0.74,-0.77 -0.55,0 -0.85,0.41 -1.01,1.35 z"
         id="path3965" /><path
         style="fill:#000000;stroke-width:0"
         inkscape:connector-curvature="0"
         d="m 229.83,480.44 -1.25,-0.63 v -0.1 c 0.08,0.04 0.16,0.06 0.19,0.08 0.12,0.05 0.24,0.07 0.31,0.07 0.15,0 0.21,-0.1 0.21,-0.32 v -3.15 c 0,-0.23 -0.06,-0.39 -0.17,-0.45 -0.1,-0.07 -0.2,-0.09 -0.49,-0.09 v -0.11 h 1.92 v 0.11 c -0.55,0 -0.66,0.07 -0.66,0.41 v 4.17 z"
         id="path3967" /></g>    <g
       style="font-style:normal;font-variant:normal;font-weight:normal;font-stretch:normal;letter-spacing:normal;word-spacing:normal;text-anchor:start;fill:none;stroke:#000000;stroke-linecap:butt;stroke-linejoin:miter;stroke-miterlimit:10.43299961;stroke-opacity:1;stroke-dasharray:none;stroke-dashoffset:0"
       ns0:preamble="/home/sriranga/Desktop/Beamer-prathi/article24/figure/package.tex"
       ns0:text="$s_4$"
       word-spacing="normal"
       letter-spacing="normal"
       font-size-adjust="none"
       font-stretch="normal"
       font-weight="normal"
       font-variant="normal"
       font-style="normal"
       stroke-miterlimit="10.433"
       xml:space="preserve"
       transform="matrix(1.2,0,0,-1.2,-112.06972,1531.7828)"
       id="g4083"><path
         id="path4085"
         d="m 224.29,478.68 -0.2,-1.57 h 0.16 c 0.08,0.16 0.14,0.2 0.24,0.2 0.11,0 0.29,-0.04 0.49,-0.08 0.21,-0.07 0.38,-0.1 0.54,-0.1 0.84,0 1.44,0.53 1.44,1.29 0,0.38 -0.21,0.81 -0.68,1.39 -0.38,0.46 -0.54,0.77 -0.54,1.04 0,0.33 0.21,0.54 0.56,0.54 0.52,0 0.81,-0.37 0.91,-1.15 h 0.16 l 0.2,1.39 h -0.14 c -0.08,-0.14 -0.16,-0.18 -0.3,-0.18 -0.07,0 -0.17,0.02 -0.36,0.07 -0.24,0.08 -0.39,0.1 -0.55,0.1 -0.73,0 -1.21,-0.43 -1.21,-1.1 0,-0.32 0.21,-0.74 0.63,-1.28 0.39,-0.51 0.56,-0.85 0.56,-1.14 0,-0.45 -0.3,-0.77 -0.74,-0.77 -0.55,0 -0.85,0.41 -1.01,1.35 z"
         inkscape:connector-curvature="0"
         style="fill:#000000;stroke-width:0" /><polygon
         id="polygon4087"
         points="230.38,477.35 230.38,480.44 230.08,480.44 227.89,477.35 228.17,477.35 229.84,479.73 229.84,477.35 228.17,477.35 227.89,477.35 227.89,476.9 229.85,476.9 229.85,475.74 230.38,475.74 230.38,476.9 231.09,476.9 231.09,477.35 "
         style="fill:#000000;stroke-width:0" /></g>    <g
       id="g4166"
       transform="matrix(1.2,0,0,-1.2,-184.56971,1578.5686)"
       xml:space="preserve"
       stroke="black"
       stroke-linecap="butt"
       stroke-linejoin="miter"
       stroke-miterlimit="10.433"
       stroke-dasharray="none"
       stroke-dashoffset="0"
       stroke-opacity="1"
       fill="none"
       fill-rule="evenodd"
       fill-opacity="1"
       font-style="normal"
       font-variant="normal"
       font-weight="normal"
       font-stretch="normal"
       font-size-adjust="none"
       letter-spacing="normal"
       word-spacing="normal"
       text-anchor="start"
       ns0:text="$s_3$"
       ns0:preamble="/home/sriranga/Desktop/Beamer-prathi/article24/figure/package.tex"
       style="font-style:normal;font-variant:normal;font-weight:normal;font-stretch:normal;letter-spacing:normal;word-spacing:normal;text-anchor:start;fill:none;stroke:#000000;stroke-linecap:butt;stroke-linejoin:miter;stroke-miterlimit:10.43299961;stroke-opacity:1;stroke-dasharray:none;stroke-dashoffset:0"><path
         d="M224.29,478.68 L224.09,477.11 H224.25 C224.33,477.27,224.39,477.31,224.49,477.31 C224.6,477.31,224.78,477.27,224.98,477.23 C225.19,477.16,225.36,477.13,225.52,477.13 C226.36,477.13,226.96,477.66,226.96,478.42 C226.96,478.8,226.75,479.23,226.28,479.81 C225.9,480.27,225.74,480.58,225.74,480.85 C225.74,481.18,225.95,481.39,226.3,481.39 C226.82,481.39,227.11,481.02,227.21,480.24 H227.37 L227.57,481.63 H227.43 C227.35,481.49,227.27,481.45,227.13,481.45 C227.06,481.45,226.96,481.47,226.77,481.52 C226.53,481.6,226.38,481.62,226.22,481.62 C225.49,481.62,225.01,481.19,225.01,480.52 C225.01,480.2,225.22,479.78,225.64,479.24 C226.03,478.73,226.2,478.39,226.2,478.1 C226.2,477.65,225.9,477.33,225.46,477.33 C224.91,477.33,224.61,477.74,224.45,478.68 Z "
         stroke-width="0"
         fill="black"
         id="path4168" /><path
         d="M228.87,478.04 L228.91,478.04 L228.95,478.04 L228.98,478.04 L229.01,478.04 L229.05,478.03 L229.08,478.03 L229.11,478.03 L229.14,478.03 L229.16,478.03 L229.19,478.03 L229.22,478.03 L229.24,478.03 L229.27,478.03 L229.29,478.03 L229.31,478.02 L229.33,478.02 L229.35,478.02 L229.37,478.02 L229.39,478.01 L229.41,478.01 L229.43,478.01 L229.45,478 L229.48,478 L229.52,477.99 L229.55,477.98 L229.58,477.97 L229.61,477.96 C230.04,477.81,230.31,477.41,230.31,476.93 C230.31,476.35,229.92,475.89,229.4,475.89 C229.21,475.89,229.07,475.94,228.82,476.11 C228.61,476.23,228.49,476.28,228.37,476.28 C228.21,476.28,228.1,476.19,228.1,476.04 C228.1,475.8,228.4,475.64,228.89,475.64 C229.43,475.64,229.98,475.82,230.31,476.11 C230.63,476.39,230.82,476.8,230.82,477.26 C230.82,477.62,230.7,477.95,230.5,478.16 C230.36,478.31,230.23,478.4,229.92,478.53 C230.4,478.86,230.58,479.11,230.58,479.49 C230.58,480.05,230.13,480.44,229.49,480.44 C229.14,480.44,228.84,480.32,228.59,480.1 C228.38,479.91,228.27,479.73,228.12,479.32 L228.22,479.29 C228.51,479.8,228.82,480.02,229.26,480.02 C229.71,480.02,230.03,479.72,230.03,479.28 C230.03,479.03,229.92,478.78,229.75,478.61 C229.54,478.4,229.35,478.29,228.87,478.13 Z "
         stroke-width="0"
         fill="black"
         id="path4170" /></g>    <g
       style="font-style:normal;font-variant:normal;font-weight:normal;font-stretch:normal;letter-spacing:normal;word-spacing:normal;text-anchor:start;fill:none;stroke:#000000;stroke-linecap:butt;stroke-linejoin:miter;stroke-miterlimit:10.43299961;stroke-opacity:1;stroke-dasharray:none;stroke-dashoffset:0"
       ns0:preamble="/home/sriranga/Desktop/Beamer-prathi/article24/figure/package.tex"
       ns0:text="$s_2$"
       text-anchor="start"
       word-spacing="normal"
       letter-spacing="normal"
       font-size-adjust="none"
       font-stretch="normal"
       font-weight="normal"
       font-variant="normal"
       font-style="normal"
       fill-opacity="1"
       fill-rule="evenodd"
       fill="none"
       stroke-opacity="1"
       stroke-dashoffset="0"
       stroke-dasharray="none"
       stroke-miterlimit="10.433"
       stroke-linejoin="miter"
       stroke-linecap="butt"
       stroke="black"
       xml:space="preserve"
       transform="matrix(1.2,0,0,-1.2,-225.284,1530.3543)"
       id="g4249"><path
         id="path4251"
         fill="black"
         stroke-width="0"
         d="M224.29,478.68 L224.09,477.11 H224.25 C224.33,477.27,224.39,477.31,224.49,477.31 C224.6,477.31,224.78,477.27,224.98,477.23 C225.19,477.16,225.36,477.13,225.52,477.13 C226.36,477.13,226.96,477.66,226.96,478.42 C226.96,478.8,226.75,479.23,226.28,479.81 C225.9,480.27,225.74,480.58,225.74,480.85 C225.74,481.18,225.95,481.39,226.3,481.39 C226.82,481.39,227.11,481.02,227.21,480.24 H227.37 L227.57,481.63 H227.43 C227.35,481.49,227.27,481.45,227.13,481.45 C227.06,481.45,226.96,481.47,226.77,481.52 C226.53,481.6,226.38,481.62,226.22,481.62 C225.49,481.62,225.01,481.19,225.01,480.52 C225.01,480.2,225.22,479.78,225.64,479.24 C226.03,478.73,226.2,478.39,226.2,478.1 C226.2,477.65,225.9,477.33,225.46,477.33 C224.91,477.33,224.61,477.74,224.45,478.68 Z " /><path
         id="path4253"
         fill="black"
         stroke-width="0"
         d="M231.11,476.69 L231.02,476.73 C230.77,476.33,230.68,476.27,230.36,476.27 H228.7 L229.87,477.49 C230.49,478.14,230.76,478.67,230.76,479.21 C230.76,479.91,230.2,480.44,229.47,480.44 C229.09,480.44,228.73,480.29,228.47,480.01 C228.24,479.77,228.14,479.55,228.02,479.06 L228.17,479.02 C228.45,479.7,228.7,479.93,229.18,479.93 C229.76,479.93,230.16,479.53,230.16,478.95 C230.16,478.4,229.84,477.76,229.26,477.14 L228.01,475.82 V475.74 H230.73 Z " /></g>    <path
       style="fill:none;stroke:#000000;stroke-width:1;stroke-linecap:butt;stroke-linejoin:miter;stroke-miterlimit:4;stroke-opacity:1;stroke-dasharray:none;marker-end:url(#Arrow1Mend)"
       d="m 74.464285,52.241276 c 0,0 -19.021042,10.242531 -24.999999,16.428572 C 43.821793,74.507771 42.5,90.812705 42.5,90.812705"
       id="path4298"
       inkscape:connector-curvature="0"
       transform="translate(0,839.76245)"
       sodipodi:nodetypes="csc" />
    <path
       style="fill:none;stroke:#000000;stroke-width:1;stroke-linecap:butt;stroke-linejoin:miter;stroke-miterlimit:4;stroke-opacity:1;stroke-dasharray:none;marker-end:url(#Arrow1Mend)"
       d="m 132.15104,1007.4533 c 0,0 23.161,-4.2145 29.13995,-10.40054 5.64249,-5.83792 4.77811,-33.13201 4.77811,-33.13201"
       id="path4298-9"
       inkscape:connector-curvature="0"
       sodipodi:nodetypes="csc" />
  </g>
</svg>
