<?xml version="1.0" encoding="UTF-8" standalone="no"?>
<!-- Created with Inkscape (http://www.inkscape.org/) -->

<svg
   xmlns:ns0="http://www.iki.fi/pav/software/textext/"
   xmlns:dc="http://purl.org/dc/elements/1.1/"
   xmlns:cc="http://creativecommons.org/ns#"
   xmlns:rdf="http://www.w3.org/1999/02/22-rdf-syntax-ns#"
   xmlns:svg="http://www.w3.org/2000/svg"
   xmlns="http://www.w3.org/2000/svg"
   xmlns:sodipodi="http://sodipodi.sourceforge.net/DTD/sodipodi-0.dtd"
   xmlns:inkscape="http://www.inkscape.org/namespaces/inkscape"
   width="14cm"
   height="15cm"
   viewBox="0 0 140 150"
   version="1.1"
   id="svg8"
   inkscape:version="0.92.5 (2060ec1f9f, 2020-04-08)"
   sodipodi:docname="fig8.svg">
  <defs
     id="defs2" />
  <sodipodi:namedview
     id="base"
     pagecolor="#ffffff"
     bordercolor="#666666"
     borderopacity="1.0"
     inkscape:pageopacity="0.0"
     inkscape:pageshadow="2"
     inkscape:zoom="0.91898611"
     inkscape:cx="264.56693"
     inkscape:cy="283.46457"
     inkscape:document-units="cm"
     inkscape:current-layer="layer1"
     showgrid="false"
     units="cm"
     showguides="false"
     inkscape:window-width="732"
     inkscape:window-height="699"
     inkscape:window-x="3"
     inkscape:window-y="27"
     inkscape:window-maximized="0">
    <inkscape:grid
       type="xygrid"
       id="grid904" />
  </sodipodi:namedview>
  <metadata
     id="metadata5">
    <rdf:RDF>
      <cc:Work
         rdf:about="">
        <dc:format>image/svg+xml</dc:format>
        <dc:type
           rdf:resource="http://purl.org/dc/dcmitype/StillImage" />
        <dc:title></dc:title>
      </cc:Work>
    </rdf:RDF>
  </metadata>
  <g
     inkscape:label="Layer 1"
     inkscape:groupmode="layer"
     id="layer1"
     transform="translate(0,-147.00001)">
    <path
       style="fill:none;stroke:#000000;stroke-width:0.26458332px;stroke-linecap:butt;stroke-linejoin:miter;stroke-opacity:1"
       d="m 14.816664,162.8487 v 38.90131 h 56.841323"
       id="path1822"
       inkscape:connector-curvature="0"
       sodipodi:nodetypes="ccc" />
    <path
       style="fill:none;stroke:#000000;stroke-width:0.26458332px;stroke-linecap:butt;stroke-linejoin:miter;stroke-opacity:1"
       d="m 25.399998,200.4271 v 2.64583"
       id="path1824"
       inkscape:connector-curvature="0" />
    <path
       inkscape:connector-curvature="0"
       id="path1832"
       d="m 16.139579,191.16668 h -2.64583"
       style="fill:none;stroke:#000000;stroke-width:0.26458332px;stroke-linecap:butt;stroke-linejoin:miter;stroke-opacity:1" />
    <circle
       id="path1834"
       style="fill:#000000;stroke:none;stroke-width:0.26458332"
       cx="25.399996"
       cy="191.16667"
       r="0.52916664" />
    <text
       xml:space="preserve"
       style="font-style:normal;font-variant:normal;font-weight:normal;font-stretch:normal;font-size:9.04784584px;line-height:1.25;font-family:'Latin Modern Roman';-inkscape-font-specification:'Latin Modern Roman, ';letter-spacing:0px;word-spacing:0px;fill:#000000;fill-opacity:1;stroke:none;stroke-width:0.26458332"
       x="78.28315"
       y="200.10103"
       id="text1842"><tspan
         sodipodi:role="line"
         id="tspan1840"
         x="78.28315"
         y="200.10103"
         style="stroke-width:0.26458332">,</tspan></text>
    <path
       style="fill:none;stroke:#000000;stroke-width:0.26458332px;stroke-linecap:butt;stroke-linejoin:miter;stroke-opacity:1"
       d="m 89.498784,167.15182 h -1.32292 v 28.30015 h 1.32292"
       id="path1844"
       inkscape:connector-curvature="0" />
    <text
       xml:space="preserve"
       style="font-style:normal;font-variant:normal;font-weight:normal;font-stretch:normal;font-size:4.23333311px;line-height:1.25;font-family:'Latin Modern Roman';-inkscape-font-specification:'Latin Modern Roman, ';letter-spacing:0px;word-spacing:0px;fill:#000000;fill-opacity:1;stroke:none;stroke-width:0.26458332"
       x="112.61923"
       y="193.62007"
       id="text1848"><tspan
         sodipodi:role="line"
         id="tspan1846"
         x="112.61923"
         y="193.62007"
         style="stroke-width:0.26458332">1</tspan></text>
    <path
       style="fill:none;stroke:#000000;stroke-width:0.26458332px;stroke-linecap:butt;stroke-linejoin:miter;stroke-opacity:1"
       d="m 16.139579,180.58334 h -2.64583"
       id="path2101"
       inkscape:connector-curvature="0" />
    <g
       style="font-style:normal;font-variant:normal;font-weight:normal;font-stretch:normal;letter-spacing:normal;word-spacing:normal;text-anchor:start;fill:none;fill-opacity:1;fill-rule:evenodd;stroke:#000000;stroke-linecap:butt;stroke-linejoin:miter;stroke-miterlimit:10.43299961;stroke-dasharray:none;stroke-dashoffset:0;stroke-opacity:1"
       ns0:jacobian_sqrt="0.352778"
       inkscapeversion="0.92.5"
       ns0:alignment="middle center"
       ns0:scale="1.0"
       ns0:preamble="default_packages.tex"
       ns0:text="$\\Psi_2^{E^1}$\n\n"
       ns0:pdfconverter="pstoedit"
       ns0:texconverter="pdflatex"
       ns0:version="0.11.1"
       word-spacing="normal"
       letter-spacing="normal"
       font-size-adjust="none"
       font-stretch="normal"
       font-weight="normal"
       font-variant="normal"
       font-style="normal"
       stroke-miterlimit="10.433"
       xml:space="preserve"
       transform="matrix(0.352778,0,0,-0.352778,-46.616329,430.79783)"
       id="g2167">
<path
   id="path2159"
   style="fill:#000000;fill-opacity:1;stroke:#000000;stroke-width:0;stroke-opacity:1"
   d="m 152.95,713.12 v 0.04 0.03 0.03 0.02 0.03 0.03 0.02 l 0.01,0.03 0.01,0.02 v 0.02 l 0.01,0.02 0.02,0.02 0.01,0.02 0.01,0.01 0.02,0.02 0.02,0.02 0.03,0.01 0.01,0.01 h 0.01 l 0.02,0.01 0.01,0.01 h 0.02 l 0.02,0.01 h 0.02 l 0.01,0.01 h 0.02 l 0.02,0.01 h 0.03 0.02 l 0.02,0.01 h 0.03 l 0.02,0.01 h 0.03 0.03 0.03 l 0.03,0.01 h 0.03 0.03 0.03 0.04 l 0.03,0.01 h 0.04 0.04 0.04 0.04 0.04 0.05 0.33 v 0.3 c -0.36,-0.03 -1.28,-0.03 -1.69,-0.03 -0.41,0 -1.33,0 -1.69,0.03 v -0.3 h 0.33 c 0.95,0 0.95,-0.14 0.95,-0.49 v -4.4 c -1.31,0.34 -1.36,1.87 -1.36,2.51 0,1.21 -0.43,1.39 -0.87,1.39 h -0.38 c -0.14,0 -0.25,0 -0.25,-0.1 0,-0.05 0.03,-0.1 0.1,-0.11 0.33,-0.03 0.58,-0.18 0.58,-1.35 0,-0.23 0.03,-1.01 0.51,-1.68 0.39,-0.54 0.99,-0.82 1.67,-0.91 v -0.56 c 0,-0.33 0,-0.47 -0.95,-0.47 h -0.33 v -0.32 c 0.36,0.04 1.28,0.04 1.69,0.04 0.41,0 1.33,0 1.69,-0.04 v 0.32 h -0.33 c -0.95,0 -0.95,0.12 -0.95,0.47 v 0.56 c 0.71,0.09 1.32,0.39 1.71,0.91 0.52,0.7 0.54,1.48 0.54,1.92 0,0.15 0,1.04 0.53,1.11 0.06,0.01 0.14,0.01 0.14,0.11 0,0.1 -0.08,0.1 -0.25,0.1 h -0.38 c -0.37,0 -0.87,-0.06 -0.87,-1.5 -0.02,-1.09 -0.35,-2.15 -1.42,-2.4 z"
   inkscape:connector-curvature="0" />
<path
   id="path2161"
   style="fill:#000000;fill-opacity:1;stroke:#000000;stroke-width:0;stroke-opacity:1"
   d="m 162.02,712.36 0.01,0.01 v 0 0.01 0 0 l 0.01,0.01 v 0 0.01 0 0 0.01 0 h 0.01 v 0.01 0 0.01 0 l 0.01,0.01 v 0 0.01 0 0.01 0 h 0.01 v 0.01 0 0 0.01 0 0 0 0 0 0.01 0 0 0 0 0 c 0,0.04 -0.03,0.09 -0.12,0.09 -0.02,0 -0.05,0 -0.08,-0.01 0,-0.02 -0.02,-0.04 -0.1,-0.22 -0.47,-1 -0.82,-1.36 -1.97,-1.36 h -1.18 c -0.22,0 -0.24,0.01 -0.24,0.08 0,0 0,0.03 0.03,0.14 l 0.47,1.89 h 0.8 c 0.55,0 0.64,-0.1 0.64,-0.33 0,-0.08 -0.03,-0.2 -0.06,-0.31 -0.02,-0.06 -0.02,-0.08 -0.02,-0.1 0,-0.01 0.02,-0.09 0.13,-0.09 0.09,0 0.09,0.03 0.12,0.16 l 0.39,1.54 c 0.02,0.08 0.02,0.1 0.02,0.1 0,0.08 -0.05,0.11 -0.11,0.11 -0.09,0 -0.11,-0.05 -0.14,-0.19 -0.16,-0.55 -0.36,-0.64 -0.95,-0.64 h -0.75 l 0.42,1.67 c 0.06,0.22 0.06,0.23 0.36,0.23 h 1.15 c 0.91,0 1.14,-0.18 1.14,-0.81 0,-0.19 -0.01,-0.39 -0.01,-0.42 0,-0.06 0.01,-0.12 0.11,-0.12 0.11,0 0.11,0.06 0.12,0.18 l 0.13,1.22 c 0.03,0.2 -0.02,0.2 -0.21,0.2 h -3.86 c -0.14,0 -0.23,0 -0.23,-0.14 0,-0.11 0.08,-0.11 0.23,-0.11 0.13,0 0.15,0 0.27,-0.01 0.14,-0.02 0.16,-0.02 0.16,-0.09 0,-0.05 -0.02,-0.13 -0.02,-0.16 l -0.92,-3.67 c -0.08,-0.29 -0.08,-0.33 -0.63,-0.33 -0.14,0 -0.21,0 -0.21,-0.16 0,-0.09 0.07,-0.09 0.21,-0.09 h 3.97 c 0.17,0 0.17,0 0.24,0.12 z"
   inkscape:connector-curvature="0" />
<path
   id="path2163"
   style="fill:#000000;fill-opacity:1;stroke:#000000;stroke-width:0;stroke-opacity:1"
   d="m 164.69,716.85 v 0.01 0.01 0 0.01 0.01 0 0.01 0 0.01 0 0.01 0 0 0.01 0 0.01 0 h -0.01 v 0.01 0.01 0 0.01 h -0.01 v 0 l -0.01,0.01 v 0 h -0.01 v 0.01 h -0.01 v 0 h -0.01 -0.01 v 0 h -0.01 v 0 h -0.01 v 0 l -0.01,0.01 v 0 h -0.01 v 0 h -0.01 v 0 h -0.01 -0.01 v 0 h -0.01 -0.01 v 0 h -0.01 c -0.36,-0.32 -0.92,-0.32 -1.02,-0.32 h -0.09 v -0.2 h 0.09 c 0.11,0 0.44,0.02 0.74,0.12 v -2.43 c 0,-0.16 0,-0.2 -0.53,-0.2 h -0.27 v -0.22 c 0.28,0.01 0.74,0.01 1.03,0.01 0.28,0 0.74,0 1.02,-0.01 v 0.22 h -0.25 c -0.55,0 -0.55,0.04 -0.55,0.2 z"
   inkscape:connector-curvature="0" />
<path
   id="path2165"
   style="fill:#000000;fill-opacity:1;stroke:#000000;stroke-width:0;stroke-opacity:1"
   d="m 160.01,705.93 h -0.24 c -0.01,-0.15 -0.09,-0.58 -0.18,-0.64 -0.05,-0.04 -0.6,-0.04 -0.69,-0.04 h -1.3 c 0.74,0.65 0.99,0.85 1.41,1.18 0.51,0.41 1,0.85 1,1.52 0,0.84 -0.74,1.37 -1.64,1.37 -0.88,0 -1.47,-0.6 -1.47,-1.26 0,-0.36 0.31,-0.39 0.37,-0.39 0.18,0 0.38,0.12 0.38,0.37 0,0.13 -0.05,0.38 -0.42,0.38 0.22,0.5 0.7,0.65 1.03,0.65 0.7,0 1.08,-0.56 1.08,-1.12 0,-0.61 -0.44,-1.1 -0.68,-1.35 l -1.68,-1.67 c -0.08,-0.08 -0.08,-0.08 -0.08,-0.28 h 2.9 z"
   inkscape:connector-curvature="0" />
</g>    <g
       style="font-style:normal;font-variant:normal;font-weight:normal;font-stretch:normal;letter-spacing:normal;word-spacing:normal;text-anchor:start;fill:none;fill-opacity:1;fill-rule:evenodd;stroke:#000000;stroke-linecap:butt;stroke-linejoin:miter;stroke-miterlimit:10.43299961;stroke-dasharray:none;stroke-dashoffset:0;stroke-opacity:1"
       ns0:jacobian_sqrt="0.352778"
       inkscapeversion="0.92.5"
       ns0:alignment="middle center"
       ns0:scale="1.0"
       ns0:preamble="default_packages.tex"
       ns0:text="$\\Psi_1^{E^1}$\n\n"
       ns0:pdfconverter="pstoedit"
       ns0:texconverter="pdflatex"
       ns0:version="0.11.1"
       word-spacing="normal"
       letter-spacing="normal"
       font-size-adjust="none"
       font-stretch="normal"
       font-weight="normal"
       font-variant="normal"
       font-style="normal"
       stroke-miterlimit="10.433"
       xml:space="preserve"
       transform="matrix(0.352778,0,0,-0.352778,-46.616329,441.38117)"
       id="content">
<path
   id="path2219"
   style="fill:#000000;fill-opacity:1;stroke:#000000;stroke-width:0;stroke-opacity:1"
   d="m 152.95,713.12 v 0.04 0.03 0.03 0.02 0.03 0.03 0.02 l 0.01,0.03 0.01,0.02 v 0.02 l 0.01,0.02 0.02,0.02 0.01,0.02 0.01,0.01 0.02,0.02 0.02,0.02 0.03,0.01 0.01,0.01 h 0.01 l 0.02,0.01 0.01,0.01 h 0.02 l 0.02,0.01 h 0.02 l 0.01,0.01 h 0.02 l 0.02,0.01 h 0.03 0.02 l 0.02,0.01 h 0.03 l 0.02,0.01 h 0.03 0.03 0.03 l 0.03,0.01 h 0.03 0.03 0.03 0.04 l 0.03,0.01 h 0.04 0.04 0.04 0.04 0.04 0.05 0.33 v 0.3 c -0.36,-0.03 -1.28,-0.03 -1.69,-0.03 -0.41,0 -1.33,0 -1.69,0.03 v -0.3 h 0.33 c 0.95,0 0.95,-0.14 0.95,-0.49 v -4.4 c -1.31,0.34 -1.36,1.87 -1.36,2.51 0,1.21 -0.43,1.39 -0.87,1.39 h -0.38 c -0.14,0 -0.25,0 -0.25,-0.1 0,-0.05 0.03,-0.1 0.1,-0.11 0.33,-0.03 0.58,-0.18 0.58,-1.35 0,-0.23 0.03,-1.01 0.51,-1.68 0.39,-0.54 0.99,-0.82 1.67,-0.91 v -0.56 c 0,-0.33 0,-0.47 -0.95,-0.47 h -0.33 v -0.32 c 0.36,0.04 1.28,0.04 1.69,0.04 0.41,0 1.33,0 1.69,-0.04 v 0.32 h -0.33 c -0.95,0 -0.95,0.12 -0.95,0.47 v 0.56 c 0.71,0.09 1.32,0.39 1.71,0.91 0.52,0.7 0.54,1.48 0.54,1.92 0,0.15 0,1.04 0.53,1.11 0.06,0.01 0.14,0.01 0.14,0.11 0,0.1 -0.08,0.1 -0.25,0.1 h -0.38 c -0.37,0 -0.87,-0.06 -0.87,-1.5 -0.02,-1.09 -0.35,-2.15 -1.42,-2.4 z"
   inkscape:connector-curvature="0" />
<path
   id="path2221"
   style="fill:#000000;fill-opacity:1;stroke:#000000;stroke-width:0;stroke-opacity:1"
   d="m 162.02,712.36 0.01,0.01 v 0 0.01 0 0 l 0.01,0.01 v 0 0.01 0 0 0.01 0 h 0.01 v 0.01 0 0.01 0 l 0.01,0.01 v 0 0.01 0 0.01 0 h 0.01 v 0.01 0 0 0.01 0 0 0 0 0 0.01 0 0 0 0 0 c 0,0.04 -0.03,0.09 -0.12,0.09 -0.02,0 -0.05,0 -0.08,-0.01 0,-0.02 -0.02,-0.04 -0.1,-0.22 -0.47,-1 -0.82,-1.36 -1.97,-1.36 h -1.18 c -0.22,0 -0.24,0.01 -0.24,0.08 0,0 0,0.03 0.03,0.14 l 0.47,1.89 h 0.8 c 0.55,0 0.64,-0.1 0.64,-0.33 0,-0.08 -0.03,-0.2 -0.06,-0.31 -0.02,-0.06 -0.02,-0.08 -0.02,-0.1 0,-0.01 0.02,-0.09 0.13,-0.09 0.09,0 0.09,0.03 0.12,0.16 l 0.39,1.54 c 0.02,0.08 0.02,0.1 0.02,0.1 0,0.08 -0.05,0.11 -0.11,0.11 -0.09,0 -0.11,-0.05 -0.14,-0.19 -0.16,-0.55 -0.36,-0.64 -0.95,-0.64 h -0.75 l 0.42,1.67 c 0.06,0.22 0.06,0.23 0.36,0.23 h 1.15 c 0.91,0 1.14,-0.18 1.14,-0.81 0,-0.19 -0.01,-0.39 -0.01,-0.42 0,-0.06 0.01,-0.12 0.11,-0.12 0.11,0 0.11,0.06 0.12,0.18 l 0.13,1.22 c 0.03,0.2 -0.02,0.2 -0.21,0.2 h -3.86 c -0.14,0 -0.23,0 -0.23,-0.14 0,-0.11 0.08,-0.11 0.23,-0.11 0.13,0 0.15,0 0.27,-0.01 0.14,-0.02 0.16,-0.02 0.16,-0.09 0,-0.05 -0.02,-0.13 -0.02,-0.16 l -0.92,-3.67 c -0.08,-0.29 -0.08,-0.33 -0.63,-0.33 -0.14,0 -0.21,0 -0.21,-0.16 0,-0.09 0.07,-0.09 0.21,-0.09 h 3.97 c 0.17,0 0.17,0 0.24,0.12 z"
   inkscape:connector-curvature="0" />
<path
   id="path2223"
   style="fill:#000000;fill-opacity:1;stroke:#000000;stroke-width:0;stroke-opacity:1"
   d="m 164.69,716.85 v 0.01 0.01 0 0.01 0.01 0 0.01 0 0.01 0 0.01 0 0 0.01 0 0.01 0 h -0.01 v 0.01 0.01 0 0.01 h -0.01 v 0 l -0.01,0.01 v 0 h -0.01 v 0.01 h -0.01 v 0 h -0.01 -0.01 v 0 h -0.01 v 0 h -0.01 v 0 l -0.01,0.01 v 0 h -0.01 v 0 h -0.01 v 0 h -0.01 -0.01 v 0 h -0.01 -0.01 v 0 h -0.01 c -0.36,-0.32 -0.92,-0.32 -1.02,-0.32 h -0.09 v -0.2 h 0.09 c 0.11,0 0.44,0.02 0.74,0.12 v -2.43 c 0,-0.16 0,-0.2 -0.53,-0.2 h -0.27 v -0.22 c 0.28,0.01 0.74,0.01 1.03,0.01 0.28,0 0.74,0 1.02,-0.01 v 0.22 h -0.25 c -0.55,0 -0.55,0.04 -0.55,0.2 z"
   inkscape:connector-curvature="0" />
<path
   id="path2225"
   style="fill:#000000;fill-opacity:1;stroke:#000000;stroke-width:0;stroke-opacity:1"
   d="m 158.82,709.12 v 0.01 0.01 0.01 0 0.01 0.01 0.01 0 0.01 0.01 0 0.01 0.01 l -0.01,0.01 v 0.01 0.01 0.01 l -0.01,0.01 v 0.01 0 l -0.01,0.01 v 0 l -0.01,0.01 h -0.01 v 0.01 h -0.01 -0.01 -0.01 l -0.01,0.01 v 0 h -0.01 v 0 h -0.01 -0.01 v 0 h -0.01 -0.01 v 0 h -0.01 -0.01 -0.01 v 0 h -0.01 -0.01 -0.01 -0.01 -0.01 c -0.45,-0.45 -1.09,-0.45 -1.37,-0.45 v -0.25 c 0.17,0 0.64,0 1.01,0.19 v -3.58 c 0,-0.23 0,-0.33 -0.7,-0.33 h -0.27 v -0.25 c 0.13,0 1,0.03 1.25,0.03 0.22,0 1.11,-0.03 1.27,-0.03 v 0.25 h -0.27 c -0.7,0 -0.7,0.1 -0.7,0.33 z"
   inkscape:connector-curvature="0" />
</g>    <g
       style="font-style:normal;font-variant:normal;font-weight:normal;font-stretch:normal;letter-spacing:normal;word-spacing:normal;text-anchor:start;fill:none;fill-opacity:1;fill-rule:evenodd;stroke:#000000;stroke-linecap:butt;stroke-linejoin:miter;stroke-miterlimit:10.43299961;stroke-dasharray:none;stroke-dashoffset:0;stroke-opacity:1"
       ns0:jacobian_sqrt="0.352778"
       inkscapeversion="0.92.5"
       ns0:alignment="middle center"
       ns0:scale="1.0"
       ns0:preamble="default_packages.tex"
       ns0:text="$\\Psi_1^{E}$\n\n\n"
       ns0:pdfconverter="pstoedit"
       ns0:texconverter="pdflatex"
       ns0:version="0.11.1"
       word-spacing="normal"
       letter-spacing="normal"
       font-size-adjust="none"
       font-stretch="normal"
       font-weight="normal"
       font-variant="normal"
       font-style="normal"
       stroke-miterlimit="10.433"
       xml:space="preserve"
       transform="matrix(0.352778,0,0,-0.352778,-29.780891,457.30133)"
       id="g2450">
<path
   id="path2444"
   style="fill:#000000;fill-opacity:1;stroke:#000000;stroke-width:0;stroke-opacity:1"
   d="m 152.95,713.12 v 0.04 0.03 0.03 0.02 0.03 0.03 0.02 l 0.01,0.03 0.01,0.02 v 0.02 l 0.01,0.02 0.02,0.02 0.01,0.02 0.01,0.01 0.02,0.02 0.02,0.02 0.03,0.01 0.01,0.01 h 0.01 l 0.02,0.01 0.01,0.01 h 0.02 l 0.02,0.01 h 0.02 l 0.01,0.01 h 0.02 l 0.02,0.01 h 0.03 0.02 l 0.02,0.01 h 0.03 l 0.02,0.01 h 0.03 0.03 0.03 l 0.03,0.01 h 0.03 0.03 0.03 0.04 l 0.03,0.01 h 0.04 0.04 0.04 0.04 0.04 0.05 0.33 v 0.3 c -0.36,-0.03 -1.28,-0.03 -1.69,-0.03 -0.41,0 -1.33,0 -1.69,0.03 v -0.3 h 0.33 c 0.95,0 0.95,-0.14 0.95,-0.49 v -4.4 c -1.31,0.34 -1.36,1.87 -1.36,2.51 0,1.21 -0.43,1.39 -0.87,1.39 h -0.38 c -0.14,0 -0.25,0 -0.25,-0.1 0,-0.05 0.03,-0.1 0.1,-0.11 0.33,-0.03 0.58,-0.18 0.58,-1.35 0,-0.23 0.03,-1.01 0.51,-1.68 0.39,-0.54 0.99,-0.82 1.67,-0.91 v -0.56 c 0,-0.33 0,-0.47 -0.95,-0.47 h -0.33 v -0.32 c 0.36,0.04 1.28,0.04 1.69,0.04 0.41,0 1.33,0 1.69,-0.04 v 0.32 h -0.33 c -0.95,0 -0.95,0.12 -0.95,0.47 v 0.56 c 0.71,0.09 1.32,0.39 1.71,0.91 0.52,0.7 0.54,1.48 0.54,1.92 0,0.15 0,1.04 0.53,1.11 0.06,0.01 0.14,0.01 0.14,0.11 0,0.1 -0.08,0.1 -0.25,0.1 h -0.38 c -0.37,0 -0.87,-0.06 -0.87,-1.5 -0.02,-1.09 -0.35,-2.15 -1.42,-2.4 z"
   inkscape:connector-curvature="0" />
<path
   id="path2446"
   style="fill:#000000;fill-opacity:1;stroke:#000000;stroke-width:0;stroke-opacity:1"
   d="m 162.02,712.36 0.01,0.01 v 0 0.01 0 0 l 0.01,0.01 v 0 0.01 0 0 0.01 0 h 0.01 v 0.01 0 0.01 0 l 0.01,0.01 v 0 0.01 0 0.01 0 h 0.01 v 0.01 0 0 0.01 0 0 0 0 0 0.01 0 0 0 0 0 c 0,0.04 -0.03,0.09 -0.12,0.09 -0.02,0 -0.05,0 -0.08,-0.01 0,-0.02 -0.02,-0.04 -0.1,-0.22 -0.47,-1 -0.82,-1.36 -1.97,-1.36 h -1.18 c -0.22,0 -0.24,0.01 -0.24,0.08 0,0 0,0.03 0.03,0.14 l 0.47,1.89 h 0.8 c 0.55,0 0.64,-0.1 0.64,-0.33 0,-0.08 -0.03,-0.2 -0.06,-0.31 -0.02,-0.06 -0.02,-0.08 -0.02,-0.1 0,-0.01 0.02,-0.09 0.13,-0.09 0.09,0 0.09,0.03 0.12,0.16 l 0.39,1.54 c 0.02,0.08 0.02,0.1 0.02,0.1 0,0.08 -0.05,0.11 -0.11,0.11 -0.09,0 -0.11,-0.05 -0.14,-0.19 -0.16,-0.55 -0.36,-0.64 -0.95,-0.64 h -0.75 l 0.42,1.67 c 0.06,0.22 0.06,0.23 0.36,0.23 h 1.15 c 0.91,0 1.14,-0.18 1.14,-0.81 0,-0.19 -0.01,-0.39 -0.01,-0.42 0,-0.06 0.01,-0.12 0.11,-0.12 0.11,0 0.11,0.06 0.12,0.18 l 0.13,1.22 c 0.03,0.2 -0.02,0.2 -0.21,0.2 h -3.86 c -0.14,0 -0.23,0 -0.23,-0.14 0,-0.11 0.08,-0.11 0.23,-0.11 0.13,0 0.15,0 0.27,-0.01 0.14,-0.02 0.16,-0.02 0.16,-0.09 0,-0.05 -0.02,-0.13 -0.02,-0.16 l -0.92,-3.67 c -0.08,-0.29 -0.08,-0.33 -0.63,-0.33 -0.14,0 -0.21,0 -0.21,-0.16 0,-0.09 0.07,-0.09 0.21,-0.09 h 3.97 c 0.17,0 0.17,0 0.24,0.12 z"
   inkscape:connector-curvature="0" />
<path
   id="path2448"
   style="fill:#000000;fill-opacity:1;stroke:#000000;stroke-width:0;stroke-opacity:1"
   d="m 158.82,709.12 v 0.01 0.01 0.01 0 0.01 0.01 0.01 0 0.01 0.01 0 0.01 0.01 l -0.01,0.01 v 0.01 0.01 0.01 l -0.01,0.01 v 0.01 0 l -0.01,0.01 v 0 l -0.01,0.01 h -0.01 v 0.01 h -0.01 -0.01 -0.01 l -0.01,0.01 v 0 h -0.01 v 0 h -0.01 -0.01 v 0 h -0.01 -0.01 v 0 h -0.01 -0.01 -0.01 v 0 h -0.01 -0.01 -0.01 -0.01 -0.01 c -0.45,-0.45 -1.09,-0.45 -1.37,-0.45 v -0.25 c 0.17,0 0.64,0 1.01,0.19 v -3.58 c 0,-0.23 0,-0.33 -0.7,-0.33 h -0.27 v -0.25 c 0.13,0 1,0.03 1.25,0.03 0.22,0 1.11,-0.03 1.27,-0.03 v 0.25 h -0.27 c -0.7,0 -0.7,0.1 -0.7,0.33 z"
   inkscape:connector-curvature="0" />
</g>    <text
       id="text2467"
       y="183.03673"
       x="112.61923"
       style="font-style:normal;font-variant:normal;font-weight:normal;font-stretch:normal;font-size:4.23333311px;line-height:1.25;font-family:'Latin Modern Roman';-inkscape-font-specification:'Latin Modern Roman, ';letter-spacing:0px;word-spacing:0px;fill:#000000;fill-opacity:1;stroke:none;stroke-width:0.26458332"
       xml:space="preserve"><tspan
         style="stroke-width:0.26458332"
         y="183.03673"
         x="112.61923"
         id="tspan2465"
         sodipodi:role="line">0</tspan></text>
    <path
       inkscape:connector-curvature="0"
       id="path3479"
       d="m 35.983332,200.4271 v 2.64583"
       style="fill:none;stroke:#000000;stroke-width:0.26458332px;stroke-linecap:butt;stroke-linejoin:miter;stroke-opacity:1" />
    <circle
       id="circle3491"
       style="fill:#000000;stroke:none;stroke-width:0.26458332"
       cx="35.98333"
       cy="180.58333"
       r="0.52916664" />
    <path
       style="fill:none;stroke:#000000;stroke-width:0.26458332px;stroke-linecap:butt;stroke-linejoin:miter;stroke-opacity:1"
       d="m 46.566666,200.4271 v 2.64583"
       id="path3493"
       inkscape:connector-curvature="0" />
    <text
       id="text3509"
       y="193.62007"
       x="123.20257"
       style="font-style:normal;font-variant:normal;font-weight:normal;font-stretch:normal;font-size:4.23333311px;line-height:1.25;font-family:'Latin Modern Roman';-inkscape-font-specification:'Latin Modern Roman, ';letter-spacing:0px;word-spacing:0px;fill:#000000;fill-opacity:1;stroke:none;stroke-width:0.26458332"
       xml:space="preserve"><tspan
         style="stroke-width:0.26458332"
         y="193.62007"
         x="123.20257"
         id="tspan3507"
         sodipodi:role="line">0</tspan></text>
    <text
       xml:space="preserve"
       style="font-style:normal;font-variant:normal;font-weight:normal;font-stretch:normal;font-size:4.23333311px;line-height:1.25;font-family:'Latin Modern Roman';-inkscape-font-specification:'Latin Modern Roman, ';letter-spacing:0px;word-spacing:0px;fill:#000000;fill-opacity:1;stroke:none;stroke-width:0.26458332"
       x="123.20257"
       y="183.03673"
       id="text3513"><tspan
         sodipodi:role="line"
         id="tspan3511"
         x="123.20257"
         y="183.03673"
         style="stroke-width:0.26458332">1</tspan></text>
    <text
       xml:space="preserve"
       style="font-style:normal;font-variant:normal;font-weight:normal;font-stretch:normal;font-size:4.23333311px;line-height:1.25;font-family:'Latin Modern Roman';-inkscape-font-specification:'Latin Modern Roman, ';letter-spacing:0px;word-spacing:0px;fill:#000000;fill-opacity:1;stroke:none;stroke-width:0.26458332"
       x="133.78587"
       y="193.62007"
       id="text3517"><tspan
         sodipodi:role="line"
         id="tspan3515"
         x="133.78587"
         y="193.62007"
         style="stroke-width:0.26458332">0</tspan></text>
    <text
       id="text3521"
       y="183.03673"
       x="133.78587"
       style="font-style:normal;font-variant:normal;font-weight:normal;font-stretch:normal;font-size:4.23333311px;line-height:1.25;font-family:'Latin Modern Roman';-inkscape-font-specification:'Latin Modern Roman, ';letter-spacing:0px;word-spacing:0px;fill:#000000;fill-opacity:1;stroke:none;stroke-width:0.26458332"
       xml:space="preserve"><tspan
         style="stroke-width:0.26458332"
         y="183.03673"
         x="133.78587"
         id="tspan3519"
         sodipodi:role="line">0</tspan></text>
    <path
       inkscape:connector-curvature="0"
       id="path3523"
       d="m 136.86976,167.15182 h 1.32292 v 28.30015 h -1.32292"
       style="fill:none;stroke:#000000;stroke-width:0.26458332px;stroke-linecap:butt;stroke-linejoin:miter;stroke-opacity:1" />
    <g
       style="font-style:normal;font-variant:normal;font-weight:normal;font-stretch:normal;letter-spacing:normal;word-spacing:normal;text-anchor:start;fill:none;fill-opacity:1;fill-rule:evenodd;stroke:#000000;stroke-linecap:butt;stroke-linejoin:miter;stroke-miterlimit:10.43299961;stroke-dasharray:none;stroke-dashoffset:0;stroke-opacity:1"
       ns0:jacobian_sqrt="0.352778"
       inkscapeversion="0.92.5"
       ns0:alignment="middle center"
       ns0:scale="1.0"
       ns0:preamble="default_packages.tex"
       ns0:text="$\\Psi_2^{E}$\n\n\n\n"
       ns0:pdfconverter="pstoedit"
       ns0:texconverter="pdflatex"
       ns0:version="0.11.1"
       word-spacing="normal"
       letter-spacing="normal"
       font-size-adjust="none"
       font-stretch="normal"
       font-weight="normal"
       font-variant="normal"
       font-style="normal"
       stroke-miterlimit="10.433"
       xml:space="preserve"
       transform="matrix(0.352778,0,0,-0.352778,-19.197557,457.30133)"
       id="g3581">
<path
   id="path3575"
   style="fill:#000000;fill-opacity:1;stroke:#000000;stroke-width:0;stroke-opacity:1"
   d="m 152.95,713.12 v 0.04 0.03 0.03 0.02 0.03 0.03 0.02 l 0.01,0.03 0.01,0.02 v 0.02 l 0.01,0.02 0.02,0.02 0.01,0.02 0.01,0.01 0.02,0.02 0.02,0.02 0.03,0.01 0.01,0.01 h 0.01 l 0.02,0.01 0.01,0.01 h 0.02 l 0.02,0.01 h 0.02 l 0.01,0.01 h 0.02 l 0.02,0.01 h 0.03 0.02 l 0.02,0.01 h 0.03 l 0.02,0.01 h 0.03 0.03 0.03 l 0.03,0.01 h 0.03 0.03 0.03 0.04 l 0.03,0.01 h 0.04 0.04 0.04 0.04 0.04 0.05 0.33 v 0.3 c -0.36,-0.03 -1.28,-0.03 -1.69,-0.03 -0.41,0 -1.33,0 -1.69,0.03 v -0.3 h 0.33 c 0.95,0 0.95,-0.14 0.95,-0.49 v -4.4 c -1.31,0.34 -1.36,1.87 -1.36,2.51 0,1.21 -0.43,1.39 -0.87,1.39 h -0.38 c -0.14,0 -0.25,0 -0.25,-0.1 0,-0.05 0.03,-0.1 0.1,-0.11 0.33,-0.03 0.58,-0.18 0.58,-1.35 0,-0.23 0.03,-1.01 0.51,-1.68 0.39,-0.54 0.99,-0.82 1.67,-0.91 v -0.56 c 0,-0.33 0,-0.47 -0.95,-0.47 h -0.33 v -0.32 c 0.36,0.04 1.28,0.04 1.69,0.04 0.41,0 1.33,0 1.69,-0.04 v 0.32 h -0.33 c -0.95,0 -0.95,0.12 -0.95,0.47 v 0.56 c 0.71,0.09 1.32,0.39 1.71,0.91 0.52,0.7 0.54,1.48 0.54,1.92 0,0.15 0,1.04 0.53,1.11 0.06,0.01 0.14,0.01 0.14,0.11 0,0.1 -0.08,0.1 -0.25,0.1 h -0.38 c -0.37,0 -0.87,-0.06 -0.87,-1.5 -0.02,-1.09 -0.35,-2.15 -1.42,-2.4 z"
   inkscape:connector-curvature="0" />
<path
   id="path3577"
   style="fill:#000000;fill-opacity:1;stroke:#000000;stroke-width:0;stroke-opacity:1"
   d="m 162.02,712.36 0.01,0.01 v 0 0.01 0 0 l 0.01,0.01 v 0 0.01 0 0 0.01 0 h 0.01 v 0.01 0 0.01 0 l 0.01,0.01 v 0 0.01 0 0.01 0 h 0.01 v 0.01 0 0 0.01 0 0 0 0 0 0.01 0 0 0 0 0 c 0,0.04 -0.03,0.09 -0.12,0.09 -0.02,0 -0.05,0 -0.08,-0.01 0,-0.02 -0.02,-0.04 -0.1,-0.22 -0.47,-1 -0.82,-1.36 -1.97,-1.36 h -1.18 c -0.22,0 -0.24,0.01 -0.24,0.08 0,0 0,0.03 0.03,0.14 l 0.47,1.89 h 0.8 c 0.55,0 0.64,-0.1 0.64,-0.33 0,-0.08 -0.03,-0.2 -0.06,-0.31 -0.02,-0.06 -0.02,-0.08 -0.02,-0.1 0,-0.01 0.02,-0.09 0.13,-0.09 0.09,0 0.09,0.03 0.12,0.16 l 0.39,1.54 c 0.02,0.08 0.02,0.1 0.02,0.1 0,0.08 -0.05,0.11 -0.11,0.11 -0.09,0 -0.11,-0.05 -0.14,-0.19 -0.16,-0.55 -0.36,-0.64 -0.95,-0.64 h -0.75 l 0.42,1.67 c 0.06,0.22 0.06,0.23 0.36,0.23 h 1.15 c 0.91,0 1.14,-0.18 1.14,-0.81 0,-0.19 -0.01,-0.39 -0.01,-0.42 0,-0.06 0.01,-0.12 0.11,-0.12 0.11,0 0.11,0.06 0.12,0.18 l 0.13,1.22 c 0.03,0.2 -0.02,0.2 -0.21,0.2 h -3.86 c -0.14,0 -0.23,0 -0.23,-0.14 0,-0.11 0.08,-0.11 0.23,-0.11 0.13,0 0.15,0 0.27,-0.01 0.14,-0.02 0.16,-0.02 0.16,-0.09 0,-0.05 -0.02,-0.13 -0.02,-0.16 l -0.92,-3.67 c -0.08,-0.29 -0.08,-0.33 -0.63,-0.33 -0.14,0 -0.21,0 -0.21,-0.16 0,-0.09 0.07,-0.09 0.21,-0.09 h 3.97 c 0.17,0 0.17,0 0.24,0.12 z"
   inkscape:connector-curvature="0" />
<path
   id="path3579"
   style="fill:#000000;fill-opacity:1;stroke:#000000;stroke-width:0;stroke-opacity:1"
   d="m 160.01,705.93 h -0.24 c -0.01,-0.15 -0.09,-0.58 -0.18,-0.64 -0.05,-0.04 -0.6,-0.04 -0.69,-0.04 h -1.3 c 0.74,0.65 0.99,0.85 1.41,1.18 0.51,0.41 1,0.85 1,1.52 0,0.84 -0.74,1.37 -1.64,1.37 -0.88,0 -1.47,-0.6 -1.47,-1.26 0,-0.36 0.31,-0.39 0.37,-0.39 0.18,0 0.38,0.12 0.38,0.37 0,0.13 -0.05,0.38 -0.42,0.38 0.22,0.5 0.7,0.65 1.03,0.65 0.7,0 1.08,-0.56 1.08,-1.12 0,-0.61 -0.44,-1.1 -0.68,-1.35 l -1.68,-1.67 c -0.08,-0.08 -0.08,-0.08 -0.08,-0.28 h 2.9 z"
   inkscape:connector-curvature="0" />
</g>    <g
       style="font-style:normal;font-variant:normal;font-weight:normal;font-stretch:normal;letter-spacing:normal;word-spacing:normal;text-anchor:start;fill:none;fill-opacity:1;fill-rule:evenodd;stroke:#000000;stroke-linecap:butt;stroke-linejoin:miter;stroke-miterlimit:10.43299961;stroke-dasharray:none;stroke-dashoffset:0;stroke-opacity:1"
       ns0:jacobian_sqrt="0.352778"
       inkscapeversion="0.92.5"
       ns0:alignment="middle center"
       ns0:scale="1.0"
       ns0:preamble="default_packages.tex"
       ns0:text="$\\Psi_3^{E}$\n\n\n\n"
       ns0:pdfconverter="pstoedit"
       ns0:texconverter="pdflatex"
       ns0:version="0.11.1"
       word-spacing="normal"
       letter-spacing="normal"
       font-size-adjust="none"
       font-stretch="normal"
       font-weight="normal"
       font-variant="normal"
       font-style="normal"
       stroke-miterlimit="10.433"
       xml:space="preserve"
       transform="matrix(0.352778,0,0,-0.352778,-8.6142219,457.27664)"
       id="g3646">
<path
   id="path3640"
   style="fill:#000000;fill-opacity:1;stroke:#000000;stroke-width:0;stroke-opacity:1"
   d="m 152.95,713.12 v 0.04 0.03 0.03 0.02 0.03 0.03 0.02 l 0.01,0.03 0.01,0.02 v 0.02 l 0.01,0.02 0.02,0.02 0.01,0.02 0.01,0.01 0.02,0.02 0.02,0.02 0.03,0.01 0.01,0.01 h 0.01 l 0.02,0.01 0.01,0.01 h 0.02 l 0.02,0.01 h 0.02 l 0.01,0.01 h 0.02 l 0.02,0.01 h 0.03 0.02 l 0.02,0.01 h 0.03 l 0.02,0.01 h 0.03 0.03 0.03 l 0.03,0.01 h 0.03 0.03 0.03 0.04 l 0.03,0.01 h 0.04 0.04 0.04 0.04 0.04 0.05 0.33 v 0.3 c -0.36,-0.03 -1.28,-0.03 -1.69,-0.03 -0.41,0 -1.33,0 -1.69,0.03 v -0.3 h 0.33 c 0.95,0 0.95,-0.14 0.95,-0.49 v -4.4 c -1.31,0.34 -1.36,1.87 -1.36,2.51 0,1.21 -0.43,1.39 -0.87,1.39 h -0.38 c -0.14,0 -0.25,0 -0.25,-0.1 0,-0.05 0.03,-0.1 0.1,-0.11 0.33,-0.03 0.58,-0.18 0.58,-1.35 0,-0.23 0.03,-1.01 0.51,-1.68 0.39,-0.54 0.99,-0.82 1.67,-0.91 v -0.56 c 0,-0.33 0,-0.47 -0.95,-0.47 h -0.33 v -0.32 c 0.36,0.04 1.28,0.04 1.69,0.04 0.41,0 1.33,0 1.69,-0.04 v 0.32 h -0.33 c -0.95,0 -0.95,0.12 -0.95,0.47 v 0.56 c 0.71,0.09 1.32,0.39 1.71,0.91 0.52,0.7 0.54,1.48 0.54,1.92 0,0.15 0,1.04 0.53,1.11 0.06,0.01 0.14,0.01 0.14,0.11 0,0.1 -0.08,0.1 -0.25,0.1 h -0.38 c -0.37,0 -0.87,-0.06 -0.87,-1.5 -0.02,-1.09 -0.35,-2.15 -1.42,-2.4 z"
   inkscape:connector-curvature="0" />
<path
   id="path3642"
   style="fill:#000000;fill-opacity:1;stroke:#000000;stroke-width:0;stroke-opacity:1"
   d="m 162.02,712.36 0.01,0.01 v 0 0.01 0 0 l 0.01,0.01 v 0 0.01 0 0 0.01 0 h 0.01 v 0.01 0 0.01 0 l 0.01,0.01 v 0 0.01 0 0.01 0 h 0.01 v 0.01 0 0 0.01 0 0 0 0 0 0.01 0 0 0 0 0 c 0,0.04 -0.03,0.09 -0.12,0.09 -0.02,0 -0.05,0 -0.08,-0.01 0,-0.02 -0.02,-0.04 -0.1,-0.22 -0.47,-1 -0.82,-1.36 -1.97,-1.36 h -1.18 c -0.22,0 -0.24,0.01 -0.24,0.08 0,0 0,0.03 0.03,0.14 l 0.47,1.89 h 0.8 c 0.55,0 0.64,-0.1 0.64,-0.33 0,-0.08 -0.03,-0.2 -0.06,-0.31 -0.02,-0.06 -0.02,-0.08 -0.02,-0.1 0,-0.01 0.02,-0.09 0.13,-0.09 0.09,0 0.09,0.03 0.12,0.16 l 0.39,1.54 c 0.02,0.08 0.02,0.1 0.02,0.1 0,0.08 -0.05,0.11 -0.11,0.11 -0.09,0 -0.11,-0.05 -0.14,-0.19 -0.16,-0.55 -0.36,-0.64 -0.95,-0.64 h -0.75 l 0.42,1.67 c 0.06,0.22 0.06,0.23 0.36,0.23 h 1.15 c 0.91,0 1.14,-0.18 1.14,-0.81 0,-0.19 -0.01,-0.39 -0.01,-0.42 0,-0.06 0.01,-0.12 0.11,-0.12 0.11,0 0.11,0.06 0.12,0.18 l 0.13,1.22 c 0.03,0.2 -0.02,0.2 -0.21,0.2 h -3.86 c -0.14,0 -0.23,0 -0.23,-0.14 0,-0.11 0.08,-0.11 0.23,-0.11 0.13,0 0.15,0 0.27,-0.01 0.14,-0.02 0.16,-0.02 0.16,-0.09 0,-0.05 -0.02,-0.13 -0.02,-0.16 l -0.92,-3.67 c -0.08,-0.29 -0.08,-0.33 -0.63,-0.33 -0.14,0 -0.21,0 -0.21,-0.16 0,-0.09 0.07,-0.09 0.21,-0.09 h 3.97 c 0.17,0 0.17,0 0.24,0.12 z"
   inkscape:connector-curvature="0" />
<path
   id="path3644"
   style="fill:#000000;fill-opacity:1;stroke:#000000;stroke-width:0;stroke-opacity:1"
   d="m 158.38,707 0.05,-0.01 h 0.05 0.05 l 0.05,-0.01 0.05,-0.01 0.04,-0.01 0.05,-0.02 0.04,-0.01 0.04,-0.02 0.04,-0.02 0.04,-0.03 0.04,-0.02 0.04,-0.03 0.03,-0.03 0.03,-0.03 0.04,-0.04 0.03,-0.03 0.03,-0.04 0.02,-0.04 0.03,-0.04 0.02,-0.05 0.02,-0.05 0.02,-0.05 0.02,-0.05 0.02,-0.05 0.01,-0.06 0.01,-0.05 0.01,-0.07 0.01,-0.06 0.01,-0.06 v -0.07 -0.07 c 0,-0.87 -0.5,-1.14 -0.91,-1.14 -0.28,0 -0.9,0.08 -1.2,0.5 0.33,0.02 0.41,0.25 0.41,0.39 0,0.22 -0.17,0.39 -0.39,0.39 -0.19,0 -0.39,-0.12 -0.39,-0.41 0,-0.67 0.73,-1.09 1.59,-1.09 0.97,0 1.64,0.66 1.64,1.36 0,0.55 -0.45,1.1 -1.22,1.25 0.74,0.27 1,0.8 1,1.23 0,0.55 -0.64,0.97 -1.42,0.97 -0.78,0 -1.38,-0.39 -1.38,-0.95 0,-0.23 0.16,-0.36 0.38,-0.36 0.22,0 0.36,0.16 0.36,0.36 0,0.2 -0.14,0.35 -0.36,0.36 0.23,0.31 0.72,0.39 0.98,0.39 0.32,0 0.77,-0.15 0.77,-0.77 0,-0.29 -0.11,-0.62 -0.28,-0.84 -0.24,-0.26 -0.44,-0.28 -0.78,-0.29 -0.19,-0.02 -0.19,-0.02 -0.24,-0.04 -0.01,0 -0.06,0 -0.06,-0.08 0,-0.1 0.06,-0.1 0.19,-0.1 z"
   inkscape:connector-curvature="0" />
</g>    <path
       inkscape:connector-curvature="0"
       id="path3693"
       d="m 16.139579,170 h -2.64583"
       style="fill:none;stroke:#000000;stroke-width:0.26458332px;stroke-linecap:butt;stroke-linejoin:miter;stroke-opacity:1" />
    <circle
       id="circle3709"
       style="fill:#000000;stroke:none;stroke-width:0.26458332"
       cx="46.566666"
       cy="169.99998"
       r="0.52916664" />
    <g
       style="font-style:normal;font-variant:normal;font-weight:normal;font-stretch:normal;letter-spacing:normal;word-spacing:normal;text-anchor:start;fill:none;fill-opacity:1;fill-rule:evenodd;stroke:#000000;stroke-linecap:butt;stroke-linejoin:miter;stroke-miterlimit:10.43299961;stroke-dasharray:none;stroke-dashoffset:0;stroke-opacity:1"
       ns0:jacobian_sqrt="0.352778"
       inkscapeversion="0.92.5"
       ns0:alignment="middle center"
       ns0:scale="1.0"
       ns0:preamble="default_packages.tex"
       ns0:text="$\\Psi_3^{E^1}$\n\n\n"
       ns0:pdfconverter="pstoedit"
       ns0:texconverter="pdflatex"
       ns0:version="0.11.1"
       word-spacing="normal"
       letter-spacing="normal"
       font-size-adjust="none"
       font-stretch="normal"
       font-weight="normal"
       font-variant="normal"
       font-style="normal"
       stroke-miterlimit="10.433"
       xml:space="preserve"
       transform="matrix(0.352778,0,0,-0.352778,-46.616329,420.1898)"
       id="g3771">
<path
   id="path3763"
   style="fill:#000000;fill-opacity:1;stroke:#000000;stroke-width:0;stroke-opacity:1"
   d="m 152.95,713.12 v 0.04 0.03 0.03 0.02 0.03 0.03 0.02 l 0.01,0.03 0.01,0.02 v 0.02 l 0.01,0.02 0.02,0.02 0.01,0.02 0.01,0.01 0.02,0.02 0.02,0.02 0.03,0.01 0.01,0.01 h 0.01 l 0.02,0.01 0.01,0.01 h 0.02 l 0.02,0.01 h 0.02 l 0.01,0.01 h 0.02 l 0.02,0.01 h 0.03 0.02 l 0.02,0.01 h 0.03 l 0.02,0.01 h 0.03 0.03 0.03 l 0.03,0.01 h 0.03 0.03 0.03 0.04 l 0.03,0.01 h 0.04 0.04 0.04 0.04 0.04 0.05 0.33 v 0.3 c -0.36,-0.03 -1.28,-0.03 -1.69,-0.03 -0.41,0 -1.33,0 -1.69,0.03 v -0.3 h 0.33 c 0.95,0 0.95,-0.14 0.95,-0.49 v -4.4 c -1.31,0.34 -1.36,1.87 -1.36,2.51 0,1.21 -0.43,1.39 -0.87,1.39 h -0.38 c -0.14,0 -0.25,0 -0.25,-0.1 0,-0.05 0.03,-0.1 0.1,-0.11 0.33,-0.03 0.58,-0.18 0.58,-1.35 0,-0.23 0.03,-1.01 0.51,-1.68 0.39,-0.54 0.99,-0.82 1.67,-0.91 v -0.56 c 0,-0.33 0,-0.47 -0.95,-0.47 h -0.33 v -0.32 c 0.36,0.04 1.28,0.04 1.69,0.04 0.41,0 1.33,0 1.69,-0.04 v 0.32 h -0.33 c -0.95,0 -0.95,0.12 -0.95,0.47 v 0.56 c 0.71,0.09 1.32,0.39 1.71,0.91 0.52,0.7 0.54,1.48 0.54,1.92 0,0.15 0,1.04 0.53,1.11 0.06,0.01 0.14,0.01 0.14,0.11 0,0.1 -0.08,0.1 -0.25,0.1 h -0.38 c -0.37,0 -0.87,-0.06 -0.87,-1.5 -0.02,-1.09 -0.35,-2.15 -1.42,-2.4 z"
   inkscape:connector-curvature="0" />
<path
   id="path3765"
   style="fill:#000000;fill-opacity:1;stroke:#000000;stroke-width:0;stroke-opacity:1"
   d="m 162.02,712.36 0.01,0.01 v 0 0.01 0 0 l 0.01,0.01 v 0 0.01 0 0 0.01 0 h 0.01 v 0.01 0 0.01 0 l 0.01,0.01 v 0 0.01 0 0.01 0 h 0.01 v 0.01 0 0 0.01 0 0 0 0 0 0.01 0 0 0 0 0 c 0,0.04 -0.03,0.09 -0.12,0.09 -0.02,0 -0.05,0 -0.08,-0.01 0,-0.02 -0.02,-0.04 -0.1,-0.22 -0.47,-1 -0.82,-1.36 -1.97,-1.36 h -1.18 c -0.22,0 -0.24,0.01 -0.24,0.08 0,0 0,0.03 0.03,0.14 l 0.47,1.89 h 0.8 c 0.55,0 0.64,-0.1 0.64,-0.33 0,-0.08 -0.03,-0.2 -0.06,-0.31 -0.02,-0.06 -0.02,-0.08 -0.02,-0.1 0,-0.01 0.02,-0.09 0.13,-0.09 0.09,0 0.09,0.03 0.12,0.16 l 0.39,1.54 c 0.02,0.08 0.02,0.1 0.02,0.1 0,0.08 -0.05,0.11 -0.11,0.11 -0.09,0 -0.11,-0.05 -0.14,-0.19 -0.16,-0.55 -0.36,-0.64 -0.95,-0.64 h -0.75 l 0.42,1.67 c 0.06,0.22 0.06,0.23 0.36,0.23 h 1.15 c 0.91,0 1.14,-0.18 1.14,-0.81 0,-0.19 -0.01,-0.39 -0.01,-0.42 0,-0.06 0.01,-0.12 0.11,-0.12 0.11,0 0.11,0.06 0.12,0.18 l 0.13,1.22 c 0.03,0.2 -0.02,0.2 -0.21,0.2 h -3.86 c -0.14,0 -0.23,0 -0.23,-0.14 0,-0.11 0.08,-0.11 0.23,-0.11 0.13,0 0.15,0 0.27,-0.01 0.14,-0.02 0.16,-0.02 0.16,-0.09 0,-0.05 -0.02,-0.13 -0.02,-0.16 l -0.92,-3.67 c -0.08,-0.29 -0.08,-0.33 -0.63,-0.33 -0.14,0 -0.21,0 -0.21,-0.16 0,-0.09 0.07,-0.09 0.21,-0.09 h 3.97 c 0.17,0 0.17,0 0.24,0.12 z"
   inkscape:connector-curvature="0" />
<path
   id="path3767"
   style="fill:#000000;fill-opacity:1;stroke:#000000;stroke-width:0;stroke-opacity:1"
   d="m 164.69,716.85 v 0.01 0.01 0 0.01 0.01 0 0.01 0 0.01 0 0.01 0 0 0.01 0 0.01 0 h -0.01 v 0.01 0.01 0 0.01 h -0.01 v 0 l -0.01,0.01 v 0 h -0.01 v 0.01 h -0.01 v 0 h -0.01 -0.01 v 0 h -0.01 v 0 h -0.01 v 0 l -0.01,0.01 v 0 h -0.01 v 0 h -0.01 v 0 h -0.01 -0.01 v 0 h -0.01 -0.01 v 0 h -0.01 c -0.36,-0.32 -0.92,-0.32 -1.02,-0.32 h -0.09 v -0.2 h 0.09 c 0.11,0 0.44,0.02 0.74,0.12 v -2.43 c 0,-0.16 0,-0.2 -0.53,-0.2 h -0.27 v -0.22 c 0.28,0.01 0.74,0.01 1.03,0.01 0.28,0 0.74,0 1.02,-0.01 v 0.22 h -0.25 c -0.55,0 -0.55,0.04 -0.55,0.2 z"
   inkscape:connector-curvature="0" />
<path
   id="path3769"
   style="fill:#000000;fill-opacity:1;stroke:#000000;stroke-width:0;stroke-opacity:1"
   d="m 158.38,707 0.05,-0.01 h 0.05 0.05 l 0.05,-0.01 0.05,-0.01 0.04,-0.01 0.05,-0.02 0.04,-0.01 0.04,-0.02 0.04,-0.02 0.04,-0.03 0.04,-0.02 0.04,-0.03 0.03,-0.03 0.03,-0.03 0.04,-0.04 0.03,-0.03 0.03,-0.04 0.02,-0.04 0.03,-0.04 0.02,-0.05 0.02,-0.05 0.02,-0.05 0.02,-0.05 0.02,-0.05 0.01,-0.06 0.01,-0.05 0.01,-0.07 0.01,-0.06 0.01,-0.06 v -0.07 -0.07 c 0,-0.87 -0.5,-1.14 -0.91,-1.14 -0.28,0 -0.9,0.08 -1.2,0.5 0.33,0.02 0.41,0.25 0.41,0.39 0,0.22 -0.17,0.39 -0.39,0.39 -0.19,0 -0.39,-0.12 -0.39,-0.41 0,-0.67 0.73,-1.09 1.59,-1.09 0.97,0 1.64,0.66 1.64,1.36 0,0.55 -0.45,1.1 -1.22,1.25 0.74,0.27 1,0.8 1,1.23 0,0.55 -0.64,0.97 -1.42,0.97 -0.78,0 -1.38,-0.39 -1.38,-0.95 0,-0.23 0.16,-0.36 0.38,-0.36 0.22,0 0.36,0.16 0.36,0.36 0,0.2 -0.14,0.35 -0.36,0.36 0.23,0.31 0.72,0.39 0.98,0.39 0.32,0 0.77,-0.15 0.77,-0.77 0,-0.29 -0.11,-0.62 -0.28,-0.84 -0.24,-0.26 -0.44,-0.28 -0.78,-0.29 -0.19,-0.02 -0.19,-0.02 -0.24,-0.04 -0.01,0 -0.06,0 -0.06,-0.08 0,-0.1 0.06,-0.1 0.19,-0.1 z"
   inkscape:connector-curvature="0" />
</g>    <text
       xml:space="preserve"
       style="font-style:normal;font-variant:normal;font-weight:normal;font-stretch:normal;font-size:4.23333311px;line-height:1.25;font-family:'Latin Modern Roman';-inkscape-font-specification:'Latin Modern Roman, ';letter-spacing:0px;word-spacing:0px;fill:#000000;fill-opacity:1;stroke:none;stroke-width:0.26458332"
       x="112.61923"
       y="172.45338"
       id="text3783"><tspan
         sodipodi:role="line"
         id="tspan3781"
         x="112.61923"
         y="172.45338"
         style="stroke-width:0.26458332">1</tspan></text>
    <text
       id="text3787"
       y="172.45338"
       x="123.20257"
       style="font-style:normal;font-variant:normal;font-weight:normal;font-stretch:normal;font-size:4.23333311px;line-height:1.25;font-family:'Latin Modern Roman';-inkscape-font-specification:'Latin Modern Roman, ';letter-spacing:0px;word-spacing:0px;fill:#000000;fill-opacity:1;stroke:none;stroke-width:0.26458332"
       xml:space="preserve"><tspan
         style="stroke-width:0.26458332"
         y="172.45338"
         x="123.20257"
         id="tspan3785"
         sodipodi:role="line">0</tspan></text>
    <text
       xml:space="preserve"
       style="font-style:normal;font-variant:normal;font-weight:normal;font-stretch:normal;font-size:4.23333311px;line-height:1.25;font-family:'Latin Modern Roman';-inkscape-font-specification:'Latin Modern Roman, ';letter-spacing:0px;word-spacing:0px;fill:#000000;fill-opacity:1;stroke:none;stroke-width:0.26458332"
       x="133.78587"
       y="172.45338"
       id="text3791"><tspan
         sodipodi:role="line"
         id="tspan3789"
         x="133.78587"
         y="172.45338"
         style="stroke-width:0.26458332">1</tspan></text>
    <path
       inkscape:connector-curvature="0"
       id="path3831"
       d="m 57.15,200.4271 v 2.64583"
       style="fill:none;stroke:#000000;stroke-width:0.26458332px;stroke-linecap:butt;stroke-linejoin:miter;stroke-opacity:1" />
    <path
       style="fill:none;stroke:#000000;stroke-width:0.26458332px;stroke-linecap:butt;stroke-linejoin:miter;stroke-opacity:1"
       d="m 67.733334,200.4271 v 2.64583"
       id="path3841"
       inkscape:connector-curvature="0" />
    <circle
       r="0.52916664"
       cy="191.16667"
       cx="46.566666"
       style="fill:#000000;stroke:none;stroke-width:0.26458332"
       id="circle3851" />
    <circle
       id="circle3853"
       style="fill:#000000;stroke:none;stroke-width:0.26458332"
       cx="67.73333"
       cy="191.16667"
       r="0.52916664" />
    <circle
       r="0.52916664"
       cy="180.58333"
       cx="57.150002"
       style="fill:#000000;stroke:none;stroke-width:0.26458332"
       id="circle3855" />
    <text
       id="text3859"
       y="193.62007"
       x="91.452568"
       style="font-style:normal;font-variant:normal;font-weight:normal;font-stretch:normal;font-size:4.23333311px;line-height:1.25;font-family:'Latin Modern Roman';-inkscape-font-specification:'Latin Modern Roman, ';letter-spacing:0px;word-spacing:0px;fill:#000000;fill-opacity:1;stroke:none;stroke-width:0.26458332"
       xml:space="preserve"><tspan
         style="stroke-width:0.26458332"
         y="193.62007"
         x="91.452568"
         id="tspan3857"
         sodipodi:role="line">0</tspan></text>
    <text
       xml:space="preserve"
       style="font-style:normal;font-variant:normal;font-weight:normal;font-stretch:normal;font-size:4.23333311px;line-height:1.25;font-family:'Latin Modern Roman';-inkscape-font-specification:'Latin Modern Roman, ';letter-spacing:0px;word-spacing:0px;fill:#000000;fill-opacity:1;stroke:none;stroke-width:0.26458332"
       x="91.452568"
       y="183.03673"
       id="text3863"><tspan
         sodipodi:role="line"
         id="tspan3861"
         x="91.452568"
         y="183.03673"
         style="stroke-width:0.26458332">0</tspan></text>
    <text
       xml:space="preserve"
       style="font-style:normal;font-variant:normal;font-weight:normal;font-stretch:normal;font-size:4.23333311px;line-height:1.25;font-family:'Latin Modern Roman';-inkscape-font-specification:'Latin Modern Roman, ';letter-spacing:0px;word-spacing:0px;fill:#000000;fill-opacity:1;stroke:none;stroke-width:0.26458332"
       x="102.0359"
       y="193.62007"
       id="text3867"><tspan
         sodipodi:role="line"
         id="tspan3865"
         x="102.0359"
         y="193.62007"
         style="stroke-width:0.26458332">0</tspan></text>
    <text
       id="text3871"
       y="183.03673"
       x="102.0359"
       style="font-style:normal;font-variant:normal;font-weight:normal;font-stretch:normal;font-size:4.23333311px;line-height:1.25;font-family:'Latin Modern Roman';-inkscape-font-specification:'Latin Modern Roman, ';letter-spacing:0px;word-spacing:0px;fill:#000000;fill-opacity:1;stroke:none;stroke-width:0.26458332"
       xml:space="preserve"><tspan
         style="stroke-width:0.26458332"
         y="183.03673"
         x="102.0359"
         id="tspan3869"
         sodipodi:role="line">1</tspan></text>
    <text
       id="text3875"
       y="172.45338"
       x="91.452568"
       style="font-style:normal;font-variant:normal;font-weight:normal;font-stretch:normal;font-size:4.23333311px;line-height:1.25;font-family:'Latin Modern Roman';-inkscape-font-specification:'Latin Modern Roman, ';letter-spacing:0px;word-spacing:0px;fill:#000000;fill-opacity:1;stroke:none;stroke-width:0.26458332"
       xml:space="preserve"><tspan
         style="stroke-width:0.26458332"
         y="172.45338"
         x="91.452568"
         id="tspan3873"
         sodipodi:role="line">1</tspan></text>
    <text
       xml:space="preserve"
       style="font-style:normal;font-variant:normal;font-weight:normal;font-stretch:normal;font-size:4.23333311px;line-height:1.25;font-family:'Latin Modern Roman';-inkscape-font-specification:'Latin Modern Roman, ';letter-spacing:0px;word-spacing:0px;fill:#000000;fill-opacity:1;stroke:none;stroke-width:0.26458332"
       x="102.0359"
       y="172.45338"
       id="text3879"><tspan
         sodipodi:role="line"
         id="tspan3877"
         x="102.0359"
         y="172.45338"
         style="stroke-width:0.26458332">0</tspan></text>
    <g
       style="stroke:#000000;stroke-opacity:1;fill-opacity:1"
       ns0:jacobian_sqrt="0.352778"
       inkscapeversion="0.92.5"
       ns0:alignment="middle center"
       ns0:scale="1.0"
       ns0:preamble="default_packages.tex"
       ns0:text="$\\Psi_4^{E}$\n\n\n\n\n"
       ns0:pdfconverter="pstoedit"
       ns0:texconverter="pdflatex"
       ns0:version="0.11.1"
       text-anchor="start"
       word-spacing="normal"
       letter-spacing="normal"
       font-size-adjust="none"
       font-stretch="normal"
       font-weight="normal"
       font-variant="normal"
       font-style="normal"
       fill-opacity="1"
       fill-rule="evenodd"
       fill="none"
       stroke-opacity="1"
       stroke-dashoffset="0"
       stroke-dasharray="none"
       stroke-miterlimit="10.433"
       stroke-linejoin="miter"
       stroke-linecap="butt"
       stroke="black"
       xml:space="preserve"
       transform="matrix(0.352778,0.000000,0.000000,-0.352778,1.969112,457.301334)"
       id="g3971">
<path
   id="path3965"
   style="stroke:#000000;stroke-opacity:1;fill-opacity:1"
   fill="black"
   stroke-width="0"
   d="M152.95,713.12 L152.95,713.16 L152.95,713.19 L152.95,713.22 L152.95,713.24 L152.95,713.27 L152.95,713.3 L152.95,713.32 L152.96,713.35 L152.97,713.37 L152.97,713.39 L152.98,713.41 L153,713.43 L153.01,713.45 L153.02,713.46 L153.04,713.48 L153.06,713.5 L153.09,713.51 L153.1,713.52 L153.11,713.52 L153.13,713.53 L153.14,713.54 L153.16,713.54 L153.18,713.55 L153.2,713.55 L153.21,713.56 L153.23,713.56 L153.25,713.57 L153.28,713.57 L153.3,713.57 L153.32,713.58 L153.35,713.58 L153.37,713.59 L153.4,713.59 L153.43,713.59 L153.46,713.59 L153.49,713.6 L153.52,713.6 L153.55,713.6 L153.58,713.6 L153.62,713.6 L153.65,713.61 L153.69,713.61 L153.73,713.61 L153.77,713.61 L153.81,713.61 L153.85,713.61 L153.9,713.61 H154.23 V713.91 C153.87,713.88,152.95,713.88,152.54,713.88 C152.13,713.88,151.21,713.88,150.85,713.91 V713.61 H151.18 C152.13,713.61,152.13,713.47,152.13,713.12 V708.72 C150.82,709.06,150.77,710.59,150.77,711.23 C150.77,712.44,150.34,712.62,149.9,712.62 H149.52 C149.38,712.62,149.27,712.62,149.27,712.52 C149.27,712.47,149.3,712.42,149.37,712.41 C149.7,712.38,149.95,712.23,149.95,711.06 C149.95,710.83,149.98,710.05,150.46,709.38 C150.85,708.84,151.45,708.56,152.13,708.47 V707.91 C152.13,707.58,152.13,707.44,151.18,707.44 H150.85 V707.12 C151.21,707.16,152.13,707.16,152.54,707.16 C152.95,707.16,153.87,707.16,154.23,707.12 V707.44 H153.9 C152.95,707.44,152.95,707.56,152.95,707.91 V708.47 C153.66,708.56,154.27,708.86,154.66,709.38 C155.18,710.08,155.2,710.86,155.2,711.3 C155.2,711.45,155.2,712.34,155.73,712.41 C155.79,712.42,155.87,712.42,155.87,712.52 C155.87,712.62,155.79,712.62,155.62,712.62 H155.24 C154.87,712.62,154.37,712.56,154.37,711.12 C154.35,710.03,154.02,708.97,152.95,708.72 Z " />
<path
   id="path3967"
   style="stroke:#000000;stroke-opacity:1;fill-opacity:1"
   fill="black"
   stroke-width="0"
   d="M162.02,712.36 L162.03,712.37 L162.03,712.37 L162.03,712.38 L162.03,712.38 L162.03,712.38 L162.04,712.39 L162.04,712.39 L162.04,712.4 L162.04,712.4 L162.04,712.4 L162.04,712.41 L162.04,712.41 L162.05,712.41 L162.05,712.42 L162.05,712.42 L162.05,712.43 L162.05,712.43 L162.06,712.44 L162.06,712.44 L162.06,712.45 L162.06,712.45 L162.06,712.46 L162.06,712.46 L162.07,712.46 L162.07,712.47 L162.07,712.47 L162.07,712.47 L162.07,712.48 L162.07,712.48 L162.07,712.48 L162.07,712.48 L162.07,712.48 L162.07,712.48 L162.07,712.49 L162.07,712.49 L162.07,712.49 L162.07,712.49 L162.07,712.49 L162.07,712.49 C162.07,712.53,162.04,712.58,161.95,712.58 C161.93,712.58,161.9,712.58,161.87,712.57 C161.87,712.55,161.85,712.53,161.77,712.35 C161.3,711.35,160.95,710.99,159.8,710.99 H158.62 C158.4,710.99,158.38,711,158.38,711.07 C158.38,711.07,158.38,711.1,158.41,711.21 L158.88,713.1 H159.68 C160.23,713.1,160.32,713,160.32,712.77 C160.32,712.69,160.29,712.57,160.26,712.46 C160.24,712.4,160.24,712.38,160.24,712.36 C160.24,712.35,160.26,712.27,160.37,712.27 C160.46,712.27,160.46,712.3,160.49,712.43 L160.88,713.97 C160.9,714.05,160.9,714.07,160.9,714.07 C160.9,714.15,160.85,714.18,160.79,714.18 C160.7,714.18,160.68,714.13,160.65,713.99 C160.49,713.44,160.29,713.35,159.7,713.35 H158.95 L159.37,715.02 C159.43,715.24,159.43,715.25,159.73,715.25 H160.88 C161.79,715.25,162.02,715.07,162.02,714.44 C162.02,714.25,162.01,714.05,162.01,714.02 C162.01,713.96,162.02,713.9,162.12,713.9 C162.23,713.9,162.23,713.96,162.24,714.08 L162.37,715.3 C162.4,715.5,162.35,715.5,162.16,715.5 H158.3 C158.16,715.5,158.07,715.5,158.07,715.36 C158.07,715.25,158.15,715.25,158.3,715.25 C158.43,715.25,158.45,715.25,158.57,715.24 C158.71,715.22,158.73,715.22,158.73,715.15 C158.73,715.1,158.71,715.02,158.71,714.99 L157.79,711.32 C157.71,711.03,157.71,710.99,157.16,710.99 C157.02,710.99,156.95,710.99,156.95,710.83 C156.95,710.74,157.02,710.74,157.16,710.74 H161.13 C161.3,710.74,161.3,710.74,161.37,710.86 Z " />
<path
   id="path3969"
   style="stroke:#000000;stroke-opacity:1;fill-opacity:1"
   fill="black"
   stroke-width="0"
   d="M160.18,705.81 V706.06 H159.4 V709.2 C159.4,709.34,159.4,709.39,159.24,709.39 C159.16,709.39,159.13,709.39,159.05,709.29 L156.74,706.06 H156.99 L158.85,708.64 V706.06 H156.99 H156.74 V705.81 H158.8 V705.23 C158.8,705,158.8,704.9,158.23,704.9 H158.04 V704.65 C158.4,704.67,158.85,704.68,159.1,704.68 C159.35,704.68,159.8,704.67,160.16,704.65 V704.9 H159.98 C159.4,704.9,159.4,705,159.4,705.23 V705.81 Z " />
</g>    <g
       style="stroke:#000000;stroke-opacity:1;fill-opacity:1"
       ns0:jacobian_sqrt="0.352778"
       inkscapeversion="0.92.5"
       ns0:alignment="middle center"
       ns0:scale="1.0"
       ns0:preamble="default_packages.tex"
       ns0:text="$\\Psi_5^{E}$\n\n\n\n\n"
       ns0:pdfconverter="pstoedit"
       ns0:texconverter="pdflatex"
       ns0:version="0.11.1"
       text-anchor="start"
       word-spacing="normal"
       letter-spacing="normal"
       font-size-adjust="none"
       font-stretch="normal"
       font-weight="normal"
       font-variant="normal"
       font-style="normal"
       fill-opacity="1"
       fill-rule="evenodd"
       fill="none"
       stroke-opacity="1"
       stroke-dashoffset="0"
       stroke-dasharray="none"
       stroke-miterlimit="10.433"
       stroke-linejoin="miter"
       stroke-linecap="butt"
       stroke="black"
       xml:space="preserve"
       transform="matrix(0.352778,0.000000,0.000000,-0.352778,12.552443,457.276640)"
       id="g4070">
<path
   id="path4064"
   style="stroke:#000000;stroke-opacity:1;fill-opacity:1"
   fill="black"
   stroke-width="0"
   d="M152.95,713.12 L152.95,713.16 L152.95,713.19 L152.95,713.22 L152.95,713.24 L152.95,713.27 L152.95,713.3 L152.95,713.32 L152.96,713.35 L152.97,713.37 L152.97,713.39 L152.98,713.41 L153,713.43 L153.01,713.45 L153.02,713.46 L153.04,713.48 L153.06,713.5 L153.09,713.51 L153.1,713.52 L153.11,713.52 L153.13,713.53 L153.14,713.54 L153.16,713.54 L153.18,713.55 L153.2,713.55 L153.21,713.56 L153.23,713.56 L153.25,713.57 L153.28,713.57 L153.3,713.57 L153.32,713.58 L153.35,713.58 L153.37,713.59 L153.4,713.59 L153.43,713.59 L153.46,713.59 L153.49,713.6 L153.52,713.6 L153.55,713.6 L153.58,713.6 L153.62,713.6 L153.65,713.61 L153.69,713.61 L153.73,713.61 L153.77,713.61 L153.81,713.61 L153.85,713.61 L153.9,713.61 H154.23 V713.91 C153.87,713.88,152.95,713.88,152.54,713.88 C152.13,713.88,151.21,713.88,150.85,713.91 V713.61 H151.18 C152.13,713.61,152.13,713.47,152.13,713.12 V708.72 C150.82,709.06,150.77,710.59,150.77,711.23 C150.77,712.44,150.34,712.62,149.9,712.62 H149.52 C149.38,712.62,149.27,712.62,149.27,712.52 C149.27,712.47,149.3,712.42,149.37,712.41 C149.7,712.38,149.95,712.23,149.95,711.06 C149.95,710.83,149.98,710.05,150.46,709.38 C150.85,708.84,151.45,708.56,152.13,708.47 V707.91 C152.13,707.58,152.13,707.44,151.18,707.44 H150.85 V707.12 C151.21,707.16,152.13,707.16,152.54,707.16 C152.95,707.16,153.87,707.16,154.23,707.12 V707.44 H153.9 C152.95,707.44,152.95,707.56,152.95,707.91 V708.47 C153.66,708.56,154.27,708.86,154.66,709.38 C155.18,710.08,155.2,710.86,155.2,711.3 C155.2,711.45,155.2,712.34,155.73,712.41 C155.79,712.42,155.87,712.42,155.87,712.52 C155.87,712.62,155.79,712.62,155.62,712.62 H155.24 C154.87,712.62,154.37,712.56,154.37,711.12 C154.35,710.03,154.02,708.97,152.95,708.72 Z " />
<path
   id="path4066"
   style="stroke:#000000;stroke-opacity:1;fill-opacity:1"
   fill="black"
   stroke-width="0"
   d="M162.02,712.36 L162.03,712.37 L162.03,712.37 L162.03,712.38 L162.03,712.38 L162.03,712.38 L162.04,712.39 L162.04,712.39 L162.04,712.4 L162.04,712.4 L162.04,712.4 L162.04,712.41 L162.04,712.41 L162.05,712.41 L162.05,712.42 L162.05,712.42 L162.05,712.43 L162.05,712.43 L162.06,712.44 L162.06,712.44 L162.06,712.45 L162.06,712.45 L162.06,712.46 L162.06,712.46 L162.07,712.46 L162.07,712.47 L162.07,712.47 L162.07,712.47 L162.07,712.48 L162.07,712.48 L162.07,712.48 L162.07,712.48 L162.07,712.48 L162.07,712.48 L162.07,712.49 L162.07,712.49 L162.07,712.49 L162.07,712.49 L162.07,712.49 L162.07,712.49 C162.07,712.53,162.04,712.58,161.95,712.58 C161.93,712.58,161.9,712.58,161.87,712.57 C161.87,712.55,161.85,712.53,161.77,712.35 C161.3,711.35,160.95,710.99,159.8,710.99 H158.62 C158.4,710.99,158.38,711,158.38,711.07 C158.38,711.07,158.38,711.1,158.41,711.21 L158.88,713.1 H159.68 C160.23,713.1,160.32,713,160.32,712.77 C160.32,712.69,160.29,712.57,160.26,712.46 C160.24,712.4,160.24,712.38,160.24,712.36 C160.24,712.35,160.26,712.27,160.37,712.27 C160.46,712.27,160.46,712.3,160.49,712.43 L160.88,713.97 C160.9,714.05,160.9,714.07,160.9,714.07 C160.9,714.15,160.85,714.18,160.79,714.18 C160.7,714.18,160.68,714.13,160.65,713.99 C160.49,713.44,160.29,713.35,159.7,713.35 H158.95 L159.37,715.02 C159.43,715.24,159.43,715.25,159.73,715.25 H160.88 C161.79,715.25,162.02,715.07,162.02,714.44 C162.02,714.25,162.01,714.05,162.01,714.02 C162.01,713.96,162.02,713.9,162.12,713.9 C162.23,713.9,162.23,713.96,162.24,714.08 L162.37,715.3 C162.4,715.5,162.35,715.5,162.16,715.5 H158.3 C158.16,715.5,158.07,715.5,158.07,715.36 C158.07,715.25,158.15,715.25,158.3,715.25 C158.43,715.25,158.45,715.25,158.57,715.24 C158.71,715.22,158.73,715.22,158.73,715.15 C158.73,715.1,158.71,715.02,158.71,714.99 L157.79,711.32 C157.71,711.03,157.71,710.99,157.16,710.99 C157.02,710.99,156.95,710.99,156.95,710.83 C156.95,710.74,157.02,710.74,157.16,710.74 H161.13 C161.3,710.74,161.3,710.74,161.37,710.86 Z " />
<path
   id="path4068"
   style="stroke:#000000;stroke-opacity:1;fill-opacity:1"
   fill="black"
   stroke-width="0"
   d="M157.55,708.57 L157.59,708.57 L157.62,708.56 L157.65,708.55 L157.68,708.54 L157.71,708.54 L157.74,708.53 L157.77,708.52 L157.8,708.52 L157.82,708.51 L157.85,708.51 L157.87,708.51 L157.9,708.5 L157.92,708.5 L157.94,708.5 L157.96,708.49 L157.98,708.49 L158,708.49 L158.02,708.49 L158.04,708.49 L158.06,708.48 L158.08,708.48 L158.09,708.48 L158.11,708.48 L158.13,708.48 L158.14,708.48 L158.15,708.48 L158.17,708.48 L158.18,708.48 L158.19,708.48 L158.21,708.48 L158.22,708.48 L158.23,708.48 C159.16,708.48,159.71,709.12,159.71,709.22 C159.71,709.29,159.66,709.32,159.62,709.32 C159.62,709.32,159.6,709.32,159.57,709.29 C159.4,709.23,159.02,709.09,158.51,709.09 C158.3,709.09,157.93,709.1,157.48,709.28 C157.41,709.32,157.4,709.32,157.38,709.32 C157.3,709.32,157.3,709.25,157.3,709.14 V707.06 C157.3,706.93,157.3,706.85,157.41,706.85 C157.48,706.85,157.48,706.87,157.55,706.95 C157.85,707.34,158.29,707.39,158.52,707.39 C158.95,707.39,159.13,707.06,159.18,707 C159.3,706.76,159.34,706.5,159.34,706.09 C159.34,705.89,159.34,705.47,159.13,705.15 C158.96,704.9,158.65,704.73,158.3,704.73 C157.85,704.73,157.38,705,157.21,705.45 C157.48,705.43,157.6,705.6,157.6,705.79 C157.6,706.1,157.35,706.15,157.26,706.15 C157.24,706.15,156.9,706.15,156.9,705.78 C156.9,705.14,157.48,704.51,158.32,704.51 C159.23,704.51,160.01,705.18,160.01,706.06 C160.01,706.85,159.41,707.59,158.54,707.59 C158.23,707.59,157.87,707.51,157.55,707.25 Z " />
</g>  </g>
</svg>
