<?xml version="1.0" encoding="UTF-8" standalone="no"?>
<!-- Created with Inkscape (http://www.inkscape.org/) -->

<svg
   xmlns:dc="http://purl.org/dc/elements/1.1/"
   xmlns:cc="http://creativecommons.org/ns#"
   xmlns:rdf="http://www.w3.org/1999/02/22-rdf-syntax-ns#"
   xmlns:svg="http://www.w3.org/2000/svg"
   xmlns="http://www.w3.org/2000/svg"
   xmlns:sodipodi="http://sodipodi.sourceforge.net/DTD/sodipodi-0.dtd"
   xmlns:inkscape="http://www.inkscape.org/namespaces/inkscape"
   width="11cm"
   height="10cm"
   viewBox="0 0 110 99.999997"
   version="1.1"
   id="svg7653"
   sodipodi:docname="fig3-50.svg"
   inkscape:version="0.91 r13725">
  <defs
     id="defs7647">
    <marker
       inkscape:isstock="true"
       style="overflow:visible"
       id="marker4835"
       refX="0"
       refY="0"
       orient="auto"
       inkscape:stockid="Arrow1Mend">
      <path
         inkscape:connector-curvature="0"
         transform="matrix(-0.4,0,0,-0.4,-4,0)"
         style="fill:#000000;fill-opacity:1;fill-rule:evenodd;stroke:#000000;stroke-width:1.00000003pt;stroke-opacity:1"
         d="M 0,0 5,-5 -12.5,0 5,5 Z"
         id="path4833" />
    </marker>
    <marker
       inkscape:stockid="Arrow1Mstart"
       orient="auto"
       refY="0"
       refX="0"
       id="marker4741"
       style="overflow:visible"
       inkscape:isstock="true">
      <path
         id="path4739"
         d="M 0,0 5,-5 -12.5,0 5,5 Z"
         style="fill:#000000;fill-opacity:1;fill-rule:evenodd;stroke:#000000;stroke-width:1.00000003pt;stroke-opacity:1"
         transform="matrix(0.4,0,0,0.4,4,0)"
         inkscape:connector-curvature="0" />
    </marker>
    <marker
       inkscape:stockid="Arrow1Mend"
       orient="auto"
       refY="0"
       refX="0"
       id="marker2774"
       style="overflow:visible"
       inkscape:isstock="true">
      <path
         id="path2772"
         d="M 0,0 5,-5 -12.5,0 5,5 Z"
         style="fill:#000000;fill-opacity:1;fill-rule:evenodd;stroke:#000000;stroke-width:1.00000003pt;stroke-opacity:1"
         transform="matrix(-0.4,0,0,-0.4,-4,0)"
         inkscape:connector-curvature="0" />
    </marker>
    <marker
       inkscape:isstock="true"
       style="overflow:visible"
       id="marker2002"
       refX="0"
       refY="0"
       orient="auto"
       inkscape:stockid="Arrow1Mstart">
      <path
         inkscape:connector-curvature="0"
         transform="matrix(0.4,0,0,0.4,4,0)"
         style="fill:#000000;fill-opacity:1;fill-rule:evenodd;stroke:#000000;stroke-width:1.00000003pt;stroke-opacity:1"
         d="M 0,0 5,-5 -12.5,0 5,5 Z"
         id="path2000" />
    </marker>
    <marker
       inkscape:stockid="Arrow1Mend"
       orient="auto"
       refY="0"
       refX="0"
       id="marker16016"
       style="overflow:visible"
       inkscape:isstock="true">
      <path
         id="path16014"
         d="M 0,0 5,-5 -12.5,0 5,5 Z"
         style="fill:#000000;fill-opacity:1;fill-rule:evenodd;stroke:#000000;stroke-width:1.00000003pt;stroke-opacity:1"
         transform="matrix(-0.4,0,0,-0.4,-4,0)"
         inkscape:connector-curvature="0" />
    </marker>
    <marker
       inkscape:isstock="true"
       style="overflow:visible"
       id="marker14977"
       refX="0"
       refY="0"
       orient="auto"
       inkscape:stockid="Arrow1Mstart">
      <path
         inkscape:connector-curvature="0"
         transform="matrix(0.4,0,0,0.4,4,0)"
         style="fill:#000000;fill-opacity:1;fill-rule:evenodd;stroke:#000000;stroke-width:1.00000003pt;stroke-opacity:1"
         d="M 0,0 5,-5 -12.5,0 5,5 Z"
         id="path14975" />
    </marker>
    <marker
       inkscape:stockid="Arrow1Mend"
       orient="auto"
       refY="0"
       refX="0"
       id="marker10528"
       style="overflow:visible"
       inkscape:isstock="true">
      <path
         id="path10526"
         d="M 0,0 5,-5 -12.5,0 5,5 Z"
         style="fill:#000000;fill-opacity:1;fill-rule:evenodd;stroke:#000000;stroke-width:1.00000003pt;stroke-opacity:1"
         transform="matrix(-0.4,0,0,-0.4,-4,0)"
         inkscape:connector-curvature="0" />
    </marker>
    <marker
       inkscape:isstock="true"
       style="overflow:visible"
       id="marker3811"
       refX="0"
       refY="0"
       orient="auto"
       inkscape:stockid="Arrow1Mstart">
      <path
         inkscape:connector-curvature="0"
         transform="matrix(0.4,0,0,0.4,4,0)"
         style="fill:#000000;fill-opacity:1;fill-rule:evenodd;stroke:#000000;stroke-width:1.00000003pt;stroke-opacity:1"
         d="M 0,0 5,-5 -12.5,0 5,5 Z"
         id="path3809" />
    </marker>
    <marker
       inkscape:stockid="Arrow1Mend"
       orient="auto"
       refY="0"
       refX="0"
       id="marker4385"
       style="overflow:visible"
       inkscape:isstock="true">
      <path
         id="path4383"
         d="M 0,0 5,-5 -12.5,0 5,5 Z"
         style="fill:#000000;fill-opacity:1;fill-rule:evenodd;stroke:#000000;stroke-width:1.00000003pt;stroke-opacity:1"
         transform="matrix(-0.4,0,0,-0.4,-4,0)"
         inkscape:connector-curvature="0" />
    </marker>
    <marker
       inkscape:stockid="Arrow1Mstart"
       orient="auto"
       refY="0"
       refX="0"
       id="marker4741-3"
       style="overflow:visible"
       inkscape:isstock="true">
      <path
         id="path4739-6"
         d="M 0,0 5,-5 -12.5,0 5,5 Z"
         style="fill:#000000;fill-opacity:1;fill-rule:evenodd;stroke:#000000;stroke-width:1.00000003pt;stroke-opacity:1"
         transform="matrix(0.4,0,0,0.4,4,0)"
         inkscape:connector-curvature="0" />
    </marker>
    <marker
       inkscape:isstock="true"
       style="overflow:visible"
       id="marker4835-7"
       refX="0"
       refY="0"
       orient="auto"
       inkscape:stockid="Arrow1Mend">
      <path
         inkscape:connector-curvature="0"
         transform="matrix(-0.4,0,0,-0.4,-4,0)"
         style="fill:#000000;fill-opacity:1;fill-rule:evenodd;stroke:#000000;stroke-width:1.00000003pt;stroke-opacity:1"
         d="M 0,0 5,-5 -12.5,0 5,5 Z"
         id="path4833-5" />
    </marker>
  </defs>
  <sodipodi:namedview
     id="base"
     pagecolor="#ffffff"
     bordercolor="#666666"
     borderopacity="1.0"
     inkscape:pageopacity="0.0"
     inkscape:pageshadow="2"
     inkscape:zoom="2.7420454"
     inkscape:cx="92.196951"
     inkscape:cy="201.28766"
     inkscape:document-units="cm"
     inkscape:current-layer="layer1"
     showgrid="false"
     units="cm"
     inkscape:window-width="1600"
     inkscape:window-height="876"
     inkscape:window-x="0"
     inkscape:window-y="24"
     inkscape:window-maximized="1">
    <inkscape:grid
       type="xygrid"
       id="grid971" />
  </sodipodi:namedview>
  <metadata
     id="metadata7650">
    <rdf:RDF>
      <cc:Work
         rdf:about="">
        <dc:format>image/svg+xml</dc:format>
        <dc:type
           rdf:resource="http://purl.org/dc/dcmitype/StillImage" />
        <dc:title />
      </cc:Work>
    </rdf:RDF>
  </metadata>
  <g
     inkscape:label="Layer 1"
     inkscape:groupmode="layer"
     id="layer1"
     transform="translate(0,-197.00001)">
    <g
       id="g943">
      <rect
         style="color:#000000;clip-rule:nonzero;display:inline;overflow:visible;visibility:visible;opacity:1;isolation:auto;mix-blend-mode:normal;color-interpolation:sRGB;color-interpolation-filters:linearRGB;solid-color:#000000;solid-opacity:1;fill:none;fill-opacity:1;fill-rule:evenodd;stroke:#000000;stroke-width:0.26458332;stroke-linecap:butt;stroke-linejoin:round;stroke-miterlimit:4;stroke-dasharray:none;stroke-dashoffset:0;stroke-opacity:1;color-rendering:auto;image-rendering:auto;shape-rendering:auto;text-rendering:auto;enable-background:accumulate"
         id="rect2932"
         width="10.583332"
         height="10.583317"
         x="23.8125"
         y="257.31253" />
      <g
         id="g2938"
         transform="translate(-17.202069,3.17088)">
        <path
           inkscape:connector-curvature="0"
           style="fill:#000000;fill-opacity:1;stroke:none;stroke-width:0"
           d="m 45.968275,260.06128 c 0.02646,-0.10584 0.125677,-0.4961 0.416719,-0.4961 0.01984,0 0.125677,0 0.211666,0.0529 -0.119062,0.0265 -0.198437,0.12568 -0.198437,0.23151 0,0.0661 0.0463,0.14552 0.15875,0.14552 0.0926,0 0.224895,-0.0728 0.224895,-0.24474 0,-0.21828 -0.244739,-0.27781 -0.39026,-0.27781 -0.244739,0 -0.39026,0.22489 -0.443177,0.3175 -0.105833,-0.27781 -0.330728,-0.3175 -0.456405,-0.3175 -0.436563,0 -0.681302,0.54239 -0.681302,0.64823 0,0.0463 0.0463,0.0463 0.05292,0.0463 0.03307,0 0.0463,-0.0132 0.05292,-0.0463 0.145521,-0.44979 0.423333,-0.55563 0.568854,-0.55563 0.07937,0 0.224896,0.0397 0.224896,0.28443 0,0.13229 -0.07276,0.4101 -0.224896,1.00542 -0.06615,0.25796 -0.218281,0.43656 -0.403489,0.43656 -0.02646,0 -0.119063,0 -0.211667,-0.0529 0.105833,-0.0265 0.198438,-0.11245 0.198438,-0.23151 0,-0.11245 -0.0926,-0.14552 -0.152136,-0.14552 -0.132291,0 -0.23151,0.10583 -0.23151,0.24474 0,0.19182 0.205052,0.27781 0.39026,0.27781 0.284427,0 0.436562,-0.29765 0.443177,-0.3175 0.05292,0.15214 0.205052,0.3175 0.456406,0.3175 0.436562,0 0.674687,-0.54239 0.674687,-0.64823 0,-0.0463 -0.03307,-0.0463 -0.0463,-0.0463 -0.03969,0 -0.0463,0.0199 -0.05953,0.0463 -0.138906,0.45641 -0.423333,0.55563 -0.555624,0.55563 -0.165365,0 -0.23151,-0.13229 -0.23151,-0.27781 0,-0.0926 0.01984,-0.18521 0.06615,-0.37042 z m 0,0"
           id="path2934" />
        <path
           inkscape:connector-curvature="0"
           style="fill:#000000;fill-opacity:1;stroke:none;stroke-width:0"
           d="m 48.457287,259.27176 h -0.09922 c -0.0066,0.0661 -0.03969,0.23812 -0.07937,0.26458 -0.01984,0.0198 -0.244739,0.0198 -0.291041,0.0198 h -0.542395 c 0.310885,-0.2712 0.416718,-0.35719 0.588697,-0.4961 0.218281,-0.17198 0.423333,-0.35718 0.423333,-0.635 0,-0.35718 -0.310885,-0.57547 -0.687916,-0.57547 -0.363802,0 -0.615156,0.25797 -0.615156,0.52917 0,0.14552 0.125677,0.16537 0.15875,0.16537 0.06615,0 0.152135,-0.0529 0.152135,-0.15875 0,-0.0529 -0.01984,-0.15875 -0.171979,-0.15875 0.0926,-0.20506 0.291042,-0.2712 0.429948,-0.2712 0.297656,0 0.449791,0.23151 0.449791,0.46963 0,0.25797 -0.185208,0.45641 -0.277812,0.56224 l -0.70776,0.70776 c -0.03307,0.0265 -0.03307,0.0331 -0.03307,0.11245 h 1.217083 z m 0,0"
           id="path2936" />
      </g>
      <rect
         style="color:#000000;clip-rule:nonzero;display:inline;overflow:visible;visibility:visible;opacity:1;isolation:auto;mix-blend-mode:normal;color-interpolation:sRGB;color-interpolation-filters:linearRGB;solid-color:#000000;solid-opacity:1;fill:none;fill-opacity:1;fill-rule:evenodd;stroke:#000000;stroke-width:0.26458335;stroke-linecap:butt;stroke-linejoin:round;stroke-miterlimit:4;stroke-dasharray:none;stroke-dashoffset:0;stroke-opacity:1;color-rendering:auto;image-rendering:auto;shape-rendering:auto;text-rendering:auto;enable-background:accumulate"
         id="rect2950"
         width="10.583333"
         height="6.6145859"
         x="23.812502"
         y="250.69795" />
      <path
         inkscape:connector-curvature="0"
         style="fill:#000000;fill-opacity:1;stroke:none;stroke-width:0"
         d="m 29.340533,253.65038 c 0.02646,-0.10584 0.125677,-0.4961 0.416719,-0.4961 0.01984,0 0.125677,0 0.211666,0.0529 -0.119062,0.0265 -0.198437,0.12568 -0.198437,0.23151 0,0.0661 0.0463,0.14552 0.15875,0.14552 0.0926,0 0.224895,-0.0728 0.224895,-0.24474 0,-0.21828 -0.244739,-0.27781 -0.39026,-0.27781 -0.244739,0 -0.39026,0.22489 -0.443177,0.3175 -0.105833,-0.27781 -0.330728,-0.3175 -0.456405,-0.3175 -0.436563,0 -0.681302,0.54239 -0.681302,0.64823 0,0.0463 0.0463,0.0463 0.05292,0.0463 0.03307,0 0.0463,-0.0132 0.05292,-0.0463 0.145521,-0.44979 0.423333,-0.55563 0.568854,-0.55563 0.07938,0 0.224896,0.0397 0.224896,0.28443 0,0.13229 -0.07276,0.4101 -0.224896,1.00542 -0.06615,0.25796 -0.218281,0.43656 -0.403489,0.43656 -0.02646,0 -0.119063,0 -0.211667,-0.0529 0.105833,-0.0265 0.198438,-0.11245 0.198438,-0.23151 0,-0.11245 -0.0926,-0.14552 -0.152136,-0.14552 -0.132291,0 -0.23151,0.10583 -0.23151,0.24474 0,0.19182 0.205052,0.27781 0.39026,0.27781 0.284427,0 0.436562,-0.29765 0.443177,-0.3175 0.05292,0.15214 0.205052,0.3175 0.456406,0.3175 0.436562,0 0.674687,-0.54239 0.674687,-0.64823 0,-0.0463 -0.03307,-0.0463 -0.0463,-0.0463 -0.03969,0 -0.0463,0.0199 -0.05953,0.0463 -0.138906,0.45641 -0.423333,0.55563 -0.555624,0.55563 -0.165365,0 -0.23151,-0.13229 -0.23151,-0.27781 0,-0.0926 0.01984,-0.18521 0.06614,-0.37042 z m 0,0"
         id="path2952" />
      <rect
         y="244.08339"
         x="23.8125"
         height="6.6145859"
         width="10.583333"
         id="rect2962"
         style="color:#000000;clip-rule:nonzero;display:inline;overflow:visible;visibility:visible;opacity:1;isolation:auto;mix-blend-mode:normal;color-interpolation:sRGB;color-interpolation-filters:linearRGB;solid-color:#000000;solid-opacity:1;fill:none;fill-opacity:1;fill-rule:evenodd;stroke:#000000;stroke-width:0.26458335;stroke-linecap:butt;stroke-linejoin:round;stroke-miterlimit:4;stroke-dasharray:none;stroke-dashoffset:0;stroke-opacity:1;color-rendering:auto;image-rendering:auto;shape-rendering:auto;text-rendering:auto;enable-background:accumulate" />
      <path
         id="path2964"
         d="m 29.340532,247.03582 c 0.02646,-0.10584 0.125677,-0.4961 0.416719,-0.4961 0.01984,0 0.125677,0 0.211666,0.0529 -0.119062,0.0265 -0.198437,0.12568 -0.198437,0.23151 0,0.0661 0.0463,0.14552 0.15875,0.14552 0.0926,0 0.224895,-0.0728 0.224895,-0.24474 0,-0.21828 -0.244739,-0.27781 -0.39026,-0.27781 -0.244739,0 -0.39026,0.22489 -0.443177,0.3175 -0.105833,-0.27781 -0.330728,-0.3175 -0.456405,-0.3175 -0.436563,0 -0.681302,0.54239 -0.681302,0.64823 0,0.0463 0.0463,0.0463 0.05292,0.0463 0.03307,0 0.0463,-0.0132 0.05292,-0.0463 0.145521,-0.44979 0.423333,-0.55563 0.568854,-0.55563 0.07938,0 0.224896,0.0397 0.224896,0.28443 0,0.13229 -0.07276,0.4101 -0.224896,1.00542 -0.06615,0.25796 -0.218281,0.43656 -0.403489,0.43656 -0.02646,0 -0.119063,0 -0.211667,-0.0529 0.105833,-0.0265 0.198438,-0.11245 0.198438,-0.23151 0,-0.11245 -0.0926,-0.14552 -0.152136,-0.14552 -0.132291,0 -0.23151,0.10583 -0.23151,0.24474 0,0.19182 0.205052,0.27781 0.39026,0.27781 0.284427,0 0.436562,-0.29765 0.443177,-0.3175 0.05292,0.15214 0.205052,0.3175 0.456406,0.3175 0.436562,0 0.674687,-0.54239 0.674687,-0.64823 0,-0.0463 -0.03307,-0.0463 -0.0463,-0.0463 -0.03969,0 -0.0463,0.0199 -0.05953,0.0463 -0.138906,0.45641 -0.423333,0.55563 -0.555624,0.55563 -0.165365,0 -0.23151,-0.13229 -0.23151,-0.27781 0,-0.0926 0.01984,-0.18521 0.06614,-0.37042 z m 0,0"
         style="fill:#000000;fill-opacity:1;stroke:none;stroke-width:0"
         inkscape:connector-curvature="0" />
      <rect
         y="257.31253"
         x="34.395832"
         height="10.583317"
         width="6.6145844"
         id="rect2970"
         style="color:#000000;clip-rule:nonzero;display:inline;overflow:visible;visibility:visible;opacity:1;isolation:auto;mix-blend-mode:normal;color-interpolation:sRGB;color-interpolation-filters:linearRGB;solid-color:#000000;solid-opacity:1;fill:none;fill-opacity:1;fill-rule:evenodd;stroke:#000000;stroke-width:0.26458332;stroke-linecap:butt;stroke-linejoin:round;stroke-miterlimit:4;stroke-dasharray:none;stroke-dashoffset:0;stroke-opacity:1;color-rendering:auto;image-rendering:auto;shape-rendering:auto;text-rendering:auto;enable-background:accumulate" />
      <path
         inkscape:connector-curvature="0"
         style="fill:#000000;fill-opacity:1;stroke:none;stroke-width:0"
         d="m 38.111935,262.14461 c 0.02646,-0.10584 0.125677,-0.4961 0.416719,-0.4961 0.01984,0 0.125677,0 0.211666,0.0529 -0.119062,0.0265 -0.198437,0.12568 -0.198437,0.23151 0,0.0661 0.0463,0.14552 0.15875,0.14552 0.0926,0 0.224895,-0.0728 0.224895,-0.24474 0,-0.21828 -0.244739,-0.27781 -0.39026,-0.27781 -0.244739,0 -0.39026,0.22489 -0.443177,0.3175 -0.105833,-0.27781 -0.330728,-0.3175 -0.456405,-0.3175 -0.436563,0 -0.681302,0.54239 -0.681302,0.64823 0,0.0463 0.0463,0.0463 0.05292,0.0463 0.03307,0 0.0463,-0.0132 0.05292,-0.0463 0.145521,-0.44979 0.423333,-0.55563 0.568854,-0.55563 0.07938,0 0.224896,0.0397 0.224896,0.28443 0,0.13229 -0.07276,0.4101 -0.224896,1.00542 -0.06615,0.25796 -0.218281,0.43656 -0.403489,0.43656 -0.02646,0 -0.119063,0 -0.211667,-0.0529 0.105833,-0.0265 0.198438,-0.11245 0.198438,-0.23151 0,-0.11245 -0.0926,-0.14552 -0.152136,-0.14552 -0.132291,0 -0.23151,0.10583 -0.23151,0.24474 0,0.19182 0.205052,0.27781 0.39026,0.27781 0.284427,0 0.436562,-0.29765 0.443177,-0.3175 0.05292,0.15214 0.205052,0.3175 0.456406,0.3175 0.436562,0 0.674687,-0.54239 0.674687,-0.64823 0,-0.0463 -0.03307,-0.0463 -0.0463,-0.0463 -0.03969,0 -0.0463,0.0199 -0.05953,0.0463 -0.138906,0.45641 -0.423333,0.55563 -0.555624,0.55563 -0.165365,0 -0.23151,-0.13229 -0.23151,-0.27781 0,-0.0926 0.01984,-0.18521 0.06614,-0.37042 z m 0,0"
         id="path2978" />
      <rect
         y="250.69795"
         x="34.395832"
         height="6.6145859"
         width="6.6145849"
         id="rect2980"
         style="color:#000000;clip-rule:nonzero;display:inline;overflow:visible;visibility:visible;opacity:1;isolation:auto;mix-blend-mode:normal;color-interpolation:sRGB;color-interpolation-filters:linearRGB;solid-color:#000000;solid-opacity:1;fill:none;fill-opacity:1;fill-rule:evenodd;stroke:#000000;stroke-width:0.26458335;stroke-linecap:butt;stroke-linejoin:round;stroke-miterlimit:4;stroke-dasharray:none;stroke-dashoffset:0;stroke-opacity:1;color-rendering:auto;image-rendering:auto;shape-rendering:auto;text-rendering:auto;enable-background:accumulate" />
      <rect
         style="color:#000000;clip-rule:nonzero;display:inline;overflow:visible;visibility:visible;opacity:1;isolation:auto;mix-blend-mode:normal;color-interpolation:sRGB;color-interpolation-filters:linearRGB;solid-color:#000000;solid-opacity:1;fill:none;fill-opacity:1;fill-rule:evenodd;stroke:#000000;stroke-width:0.26458335;stroke-linecap:butt;stroke-linejoin:round;stroke-miterlimit:4;stroke-dasharray:none;stroke-dashoffset:0;stroke-opacity:1;color-rendering:auto;image-rendering:auto;shape-rendering:auto;text-rendering:auto;enable-background:accumulate"
         id="rect2986"
         width="6.6145849"
         height="6.6145859"
         x="34.395832"
         y="244.08339" />
      <text
         id="text2994"
         y="248.76099"
         x="37.708843"
         style="font-style:normal;font-variant:normal;font-weight:normal;font-stretch:normal;font-size:4.23333311px;line-height:125%;font-family:LMRoman12;-inkscape-font-specification:LMRoman12;text-align:center;letter-spacing:0px;word-spacing:0px;writing-mode:lr-tb;text-anchor:middle;fill:#000000;fill-opacity:1;stroke:none;stroke-width:0.26458332px;stroke-linecap:butt;stroke-linejoin:miter;stroke-opacity:1"
         xml:space="preserve"><tspan
           style="stroke-width:0.26458332px"
           y="248.76099"
           x="37.708843"
           id="tspan2992"
           sodipodi:role="line">1</tspan></text>
      <text
         xml:space="preserve"
         style="font-style:normal;font-variant:normal;font-weight:normal;font-stretch:normal;font-size:4.23333311px;line-height:125%;font-family:LMRoman12;-inkscape-font-specification:LMRoman12;text-align:center;letter-spacing:0px;word-spacing:0px;writing-mode:lr-tb;text-anchor:middle;fill:#000000;fill-opacity:1;stroke:none;stroke-width:0.26458332px;stroke-linecap:butt;stroke-linejoin:miter;stroke-opacity:1"
         x="37.708843"
         y="255.2428"
         id="text2998"><tspan
           sodipodi:role="line"
           id="tspan2996"
           x="37.708843"
           y="255.2428"
           style="stroke-width:0.26458332px">1</tspan></text>
      <rect
         style="color:#000000;clip-rule:nonzero;display:inline;overflow:visible;visibility:visible;opacity:1;isolation:auto;mix-blend-mode:normal;color-interpolation:sRGB;color-interpolation-filters:linearRGB;solid-color:#000000;solid-opacity:1;fill:none;fill-opacity:1;fill-rule:evenodd;stroke:#000000;stroke-width:0.26458332;stroke-linecap:butt;stroke-linejoin:round;stroke-miterlimit:4;stroke-dasharray:none;stroke-dashoffset:0;stroke-opacity:1;color-rendering:auto;image-rendering:auto;shape-rendering:auto;text-rendering:auto;enable-background:accumulate"
         id="rect3006"
         width="6.6145844"
         height="10.583317"
         x="41.010418"
         y="257.31253" />
      <path
         id="path3008"
         d="m 44.726521,262.14461 c 0.02646,-0.10584 0.125677,-0.4961 0.416719,-0.4961 0.01984,0 0.125677,0 0.211666,0.0529 -0.119062,0.0265 -0.198437,0.12568 -0.198437,0.23151 0,0.0661 0.0463,0.14552 0.15875,0.14552 0.0926,0 0.224895,-0.0728 0.224895,-0.24474 0,-0.21828 -0.244739,-0.27781 -0.39026,-0.27781 -0.244739,0 -0.39026,0.22489 -0.443177,0.3175 -0.105833,-0.27781 -0.330728,-0.3175 -0.456405,-0.3175 -0.436563,0 -0.681302,0.54239 -0.681302,0.64823 0,0.0463 0.0463,0.0463 0.05292,0.0463 0.03307,0 0.0463,-0.0132 0.05292,-0.0463 0.145521,-0.44979 0.423333,-0.55563 0.568854,-0.55563 0.07938,0 0.224896,0.0397 0.224896,0.28443 0,0.13229 -0.07276,0.4101 -0.224896,1.00542 -0.06615,0.25796 -0.218281,0.43656 -0.403489,0.43656 -0.02646,0 -0.119063,0 -0.211667,-0.0529 0.105833,-0.0265 0.198438,-0.11245 0.198438,-0.23151 0,-0.11245 -0.0926,-0.14552 -0.152136,-0.14552 -0.132291,0 -0.23151,0.10583 -0.23151,0.24474 0,0.19182 0.205052,0.27781 0.39026,0.27781 0.284427,0 0.436562,-0.29765 0.443177,-0.3175 0.05292,0.15214 0.205052,0.3175 0.456406,0.3175 0.436562,0 0.674687,-0.54239 0.674687,-0.64823 0,-0.0463 -0.03307,-0.0463 -0.0463,-0.0463 -0.03969,0 -0.0463,0.0199 -0.05953,0.0463 -0.138906,0.45641 -0.423333,0.55563 -0.555624,0.55563 -0.165365,0 -0.23151,-0.13229 -0.23151,-0.27781 0,-0.0926 0.01984,-0.18521 0.06614,-0.37042 z m 0,0"
         style="fill:#000000;fill-opacity:1;stroke:none;stroke-width:0"
         inkscape:connector-curvature="0" />
      <rect
         style="color:#000000;clip-rule:nonzero;display:inline;overflow:visible;visibility:visible;opacity:1;isolation:auto;mix-blend-mode:normal;color-interpolation:sRGB;color-interpolation-filters:linearRGB;solid-color:#000000;solid-opacity:1;fill:none;fill-opacity:1;fill-rule:evenodd;stroke:#000000;stroke-width:0.26458335;stroke-linecap:butt;stroke-linejoin:round;stroke-miterlimit:4;stroke-dasharray:none;stroke-dashoffset:0;stroke-opacity:1;color-rendering:auto;image-rendering:auto;shape-rendering:auto;text-rendering:auto;enable-background:accumulate"
         id="rect3010"
         width="6.6145849"
         height="6.6145859"
         x="41.010418"
         y="250.69795" />
      <rect
         y="244.08339"
         x="41.010418"
         height="6.6145859"
         width="6.6145849"
         id="rect3014"
         style="color:#000000;clip-rule:nonzero;display:inline;overflow:visible;visibility:visible;opacity:1;isolation:auto;mix-blend-mode:normal;color-interpolation:sRGB;color-interpolation-filters:linearRGB;solid-color:#000000;solid-opacity:1;fill:none;fill-opacity:1;fill-rule:evenodd;stroke:#000000;stroke-width:0.26458335;stroke-linecap:butt;stroke-linejoin:round;stroke-miterlimit:4;stroke-dasharray:none;stroke-dashoffset:0;stroke-opacity:1;color-rendering:auto;image-rendering:auto;shape-rendering:auto;text-rendering:auto;enable-background:accumulate" />
      <text
         xml:space="preserve"
         style="font-style:normal;font-variant:normal;font-weight:normal;font-stretch:normal;font-size:4.23333311px;line-height:125%;font-family:LMRoman12;-inkscape-font-specification:LMRoman12;text-align:center;letter-spacing:0px;word-spacing:0px;writing-mode:lr-tb;text-anchor:middle;fill:#000000;fill-opacity:1;stroke:none;stroke-width:0.26458332px;stroke-linecap:butt;stroke-linejoin:miter;stroke-opacity:1"
         x="44.323429"
         y="248.76099"
         id="text3020"><tspan
           sodipodi:role="line"
           id="tspan3018"
           x="44.323429"
           y="248.76099"
           style="stroke-width:0.26458332px">1</tspan></text>
      <text
         id="text3024"
         y="255.2428"
         x="44.323429"
         style="font-style:normal;font-variant:normal;font-weight:normal;font-stretch:normal;font-size:4.23333311px;line-height:125%;font-family:LMRoman12;-inkscape-font-specification:LMRoman12;text-align:center;letter-spacing:0px;word-spacing:0px;writing-mode:lr-tb;text-anchor:middle;fill:#000000;fill-opacity:1;stroke:none;stroke-width:0.26458332px;stroke-linecap:butt;stroke-linejoin:miter;stroke-opacity:1"
         xml:space="preserve"><tspan
           style="stroke-width:0.26458332px"
           y="255.2428"
           x="44.323429"
           id="tspan3022"
           sodipodi:role="line">1</tspan></text>
      <rect
         y="257.31253"
         x="47.625004"
         height="10.583317"
         width="6.6145844"
         id="rect3076"
         style="color:#000000;clip-rule:nonzero;display:inline;overflow:visible;visibility:visible;opacity:1;isolation:auto;mix-blend-mode:normal;color-interpolation:sRGB;color-interpolation-filters:linearRGB;solid-color:#000000;solid-opacity:1;fill:none;fill-opacity:1;fill-rule:evenodd;stroke:#000000;stroke-width:0.26458332;stroke-linecap:butt;stroke-linejoin:round;stroke-miterlimit:4;stroke-dasharray:none;stroke-dashoffset:0;stroke-opacity:1;color-rendering:auto;image-rendering:auto;shape-rendering:auto;text-rendering:auto;enable-background:accumulate" />
      <path
         inkscape:connector-curvature="0"
         style="fill:#000000;fill-opacity:1;stroke:none;stroke-width:0"
         d="m 51.341107,262.14461 c 0.02646,-0.10584 0.125677,-0.4961 0.416719,-0.4961 0.01984,0 0.125677,0 0.211666,0.0529 -0.119062,0.0265 -0.198437,0.12568 -0.198437,0.23151 0,0.0661 0.0463,0.14552 0.15875,0.14552 0.0926,0 0.224895,-0.0728 0.224895,-0.24474 0,-0.21828 -0.244739,-0.27781 -0.39026,-0.27781 -0.244739,0 -0.39026,0.22489 -0.443177,0.3175 -0.105833,-0.27781 -0.330728,-0.3175 -0.456405,-0.3175 -0.436563,0 -0.681302,0.54239 -0.681302,0.64823 0,0.0463 0.0463,0.0463 0.05292,0.0463 0.03307,0 0.0463,-0.0132 0.05292,-0.0463 0.145521,-0.44979 0.423333,-0.55563 0.568854,-0.55563 0.07938,0 0.224896,0.0397 0.224896,0.28443 0,0.13229 -0.07276,0.4101 -0.224896,1.00542 -0.06615,0.25796 -0.218281,0.43656 -0.403489,0.43656 -0.02646,0 -0.119063,0 -0.211667,-0.0529 0.105833,-0.0265 0.198438,-0.11245 0.198438,-0.23151 0,-0.11245 -0.0926,-0.14552 -0.152136,-0.14552 -0.132291,0 -0.23151,0.10583 -0.23151,0.24474 0,0.19182 0.205052,0.27781 0.39026,0.27781 0.284427,0 0.436562,-0.29765 0.443177,-0.3175 0.05292,0.15214 0.205052,0.3175 0.456406,0.3175 0.436562,0 0.674687,-0.54239 0.674687,-0.64823 0,-0.0463 -0.03307,-0.0463 -0.0463,-0.0463 -0.03969,0 -0.0463,0.0199 -0.05953,0.0463 -0.138906,0.45641 -0.423333,0.55563 -0.555624,0.55563 -0.165365,0 -0.23151,-0.13229 -0.23151,-0.27781 0,-0.0926 0.01984,-0.18521 0.06614,-0.37042 z m 0,0"
         id="path3078" />
      <rect
         y="250.69795"
         x="47.625004"
         height="6.6145859"
         width="6.6145849"
         id="rect3080"
         style="color:#000000;clip-rule:nonzero;display:inline;overflow:visible;visibility:visible;opacity:1;isolation:auto;mix-blend-mode:normal;color-interpolation:sRGB;color-interpolation-filters:linearRGB;solid-color:#000000;solid-opacity:1;fill:none;fill-opacity:1;fill-rule:evenodd;stroke:#000000;stroke-width:0.26458335;stroke-linecap:butt;stroke-linejoin:round;stroke-miterlimit:4;stroke-dasharray:none;stroke-dashoffset:0;stroke-opacity:1;color-rendering:auto;image-rendering:auto;shape-rendering:auto;text-rendering:auto;enable-background:accumulate" />
      <text
         xml:space="preserve"
         style="font-style:normal;font-variant:normal;font-weight:normal;font-stretch:normal;font-size:4.23333311px;line-height:125%;font-family:LMRoman12;-inkscape-font-specification:LMRoman12;text-align:center;letter-spacing:0px;word-spacing:0px;writing-mode:lr-tb;text-anchor:middle;fill:#000000;fill-opacity:1;stroke:none;stroke-width:0.26458332px;stroke-linecap:butt;stroke-linejoin:miter;stroke-opacity:1"
         x="50.938015"
         y="255.2428"
         id="text3086"><tspan
           sodipodi:role="line"
           id="tspan3084"
           x="50.938015"
           y="255.2428"
           style="stroke-width:0.26458332px">1</tspan></text>
    </g>
    <path
       style="color:#000000;clip-rule:nonzero;display:inline;overflow:visible;visibility:visible;opacity:1;isolation:auto;mix-blend-mode:normal;color-interpolation:sRGB;color-interpolation-filters:linearRGB;solid-color:#000000;solid-opacity:1;fill:none;fill-opacity:1;fill-rule:nonzero;stroke:#000000;stroke-width:0.25999999;stroke-linecap:round;stroke-linejoin:round;stroke-miterlimit:4;stroke-dasharray:none;stroke-dashoffset:0;stroke-opacity:1;marker-start:url(#marker4741-3);marker-end:url(#marker4835-7);color-rendering:auto;image-rendering:auto;shape-rendering:auto;text-rendering:auto;enable-background:accumulate"
       d="m 23.8125,238.79168 v 29.10416 l 42.603476,0"
       id="path967"
       inkscape:connector-curvature="0"
       sodipodi:nodetypes="ccc" />
    <path
       inkscape:connector-curvature="0"
       style="fill:#000000;fill-opacity:1;stroke:none;stroke-width:0"
       d="m 68.599038,267.4929 c 0.02646,-0.10584 0.125677,-0.4961 0.416719,-0.4961 0.01984,0 0.125677,0 0.211666,0.0529 -0.119062,0.0265 -0.198437,0.12568 -0.198437,0.23151 0,0.0661 0.0463,0.14552 0.15875,0.14552 0.0926,0 0.224895,-0.0728 0.224895,-0.24474 0,-0.21828 -0.244739,-0.27781 -0.39026,-0.27781 -0.244739,0 -0.39026,0.22489 -0.443177,0.3175 -0.105833,-0.27781 -0.330728,-0.3175 -0.456405,-0.3175 -0.436563,0 -0.681302,0.54239 -0.681302,0.64823 0,0.0463 0.0463,0.0463 0.05292,0.0463 0.03307,0 0.0463,-0.0132 0.05292,-0.0463 0.145521,-0.44979 0.423333,-0.55563 0.568854,-0.55563 0.07937,0 0.224896,0.0397 0.224896,0.28443 0,0.13229 -0.07276,0.4101 -0.224896,1.00542 -0.06615,0.25796 -0.218281,0.43656 -0.403489,0.43656 -0.02646,0 -0.119063,0 -0.211667,-0.0529 0.105833,-0.0265 0.198438,-0.11245 0.198438,-0.23151 0,-0.11245 -0.0926,-0.14552 -0.152136,-0.14552 -0.132291,0 -0.23151,0.10583 -0.23151,0.24474 0,0.19182 0.205052,0.27781 0.39026,0.27781 0.284427,0 0.436562,-0.29765 0.443177,-0.3175 0.05292,0.15214 0.205052,0.3175 0.456406,0.3175 0.436562,0 0.674687,-0.54239 0.674687,-0.64823 0,-0.0463 -0.03307,-0.0463 -0.0463,-0.0463 -0.03969,0 -0.0463,0.0198 -0.05953,0.0463 -0.138906,0.45641 -0.423333,0.55563 -0.555624,0.55563 -0.165365,0 -0.23151,-0.13229 -0.23151,-0.27781 0,-0.0926 0.01984,-0.18521 0.06615,-0.37042 z m 0,0"
       id="path1228" />
    <path
       inkscape:connector-curvature="0"
       style="fill:#000000;fill-opacity:1;stroke:none;stroke-width:0"
       d="m 24.760714,235.40041 c 0.01984,-0.0595 0.01984,-0.0661 0.01984,-0.0992 0,-0.0728 -0.05953,-0.11245 -0.125677,-0.11245 -0.03969,0 -0.105834,0.0265 -0.145521,0.086 -0.0066,0.0265 -0.0463,0.15214 -0.05953,0.23151 -0.03307,0.10583 -0.05953,0.2249 -0.08599,0.33734 l -0.191823,0.76068 c -0.01323,0.0595 -0.198438,0.35719 -0.47625,0.35719 -0.211664,0 -0.257966,-0.18521 -0.257966,-0.34396 0,-0.19182 0.07276,-0.45641 0.211664,-0.82682 0.06615,-0.17198 0.08599,-0.21828 0.08599,-0.30427 0,-0.18521 -0.132294,-0.34396 -0.343958,-0.34396 -0.40349,0 -0.555625,0.61515 -0.555625,0.64823 0,0.0463 0.03969,0.0463 0.0463,0.0463 0.0463,0 0.0463,-0.0132 0.06615,-0.0794 0.119062,-0.39687 0.284427,-0.52255 0.429948,-0.52255 0.03307,0 0.105833,0 0.105833,0.13229 0,0.10584 -0.0463,0.21829 -0.07276,0.29766 -0.171979,0.44979 -0.244739,0.68792 -0.244739,0.88635 0,0.37704 0.264583,0.50271 0.515937,0.50271 0.165362,0 0.304271,-0.0728 0.423331,-0.19182 -0.05292,0.21828 -0.105831,0.42995 -0.271198,0.65484 -0.112448,0.13891 -0.271195,0.26459 -0.463018,0.26459 -0.05953,0 -0.251355,-0.0132 -0.324115,-0.1786 0.06615,0 0.125677,0 0.178594,-0.0529 0.0463,-0.0331 0.08599,-0.0926 0.08599,-0.17198 0,-0.1323 -0.112448,-0.14552 -0.152135,-0.14552 -0.09922,0 -0.238125,0.0661 -0.238125,0.27119 0,0.21167 0.185208,0.37042 0.449792,0.37042 0.429945,0 0.86651,-0.38365 0.98557,-0.8599 z m 0,0"
       id="path1230" />
  </g>
</svg>
