<?xml version="1.0" encoding="UTF-8" standalone="no"?>
<!-- Created with Inkscape (http://www.inkscape.org/) -->

<svg
   xmlns:ns0="http://www.iki.fi/pav/software/textext/"
   xmlns:dc="http://purl.org/dc/elements/1.1/"
   xmlns:cc="http://creativecommons.org/ns#"
   xmlns:rdf="http://www.w3.org/1999/02/22-rdf-syntax-ns#"
   xmlns:svg="http://www.w3.org/2000/svg"
   xmlns="http://www.w3.org/2000/svg"
   xmlns:xlink="http://www.w3.org/1999/xlink"
   xmlns:sodipodi="http://sodipodi.sourceforge.net/DTD/sodipodi-0.dtd"
   xmlns:inkscape="http://www.inkscape.org/namespaces/inkscape"
   width="354.33069"
   height="283.46457"
   id="svg2"
   version="1.1"
   inkscape:version="0.48.4 r9939"
   sodipodi:docname="New document 1">
  <sodipodi:namedview
     id="base"
     pagecolor="#ffffff"
     bordercolor="#666666"
     borderopacity="1.0"
     inkscape:pageopacity="0.0"
     inkscape:pageshadow="2"
     inkscape:zoom="1.9986569"
     inkscape:cx="163.40057"
     inkscape:cy="106.09272"
     inkscape:document-units="px"
     inkscape:current-layer="textext-4f97e761-6"
     showgrid="false"
     units="cm"
     inkscape:window-width="1024"
     inkscape:window-height="744"
     inkscape:window-x="0"
     inkscape:window-y="24"
     inkscape:window-maximized="1" />
  <defs
     id="defs4">
    <marker
       inkscape:stockid="Arrow1Mend"
       orient="auto"
       refY="0.0"
       refX="0.0"
       id="Arrow1Mend"
       style="overflow:visible;">
      <path
         id="path4085"
         d="M 0.0,0.0 L 5.0,-5.0 L -12.5,0.0 L 5.0,5.0 L 0.0,0.0 z "
         style="fill-rule:evenodd;stroke:#000000;stroke-width:1.0pt;"
         transform="scale(0.4) rotate(180) translate(10,0)" />
    </marker>
  </defs>
  <metadata
     id="metadata7">
    <rdf:RDF>
      <cc:Work
         rdf:about="">
        <dc:format>image/svg+xml</dc:format>
        <dc:type
           rdf:resource="http://purl.org/dc/dcmitype/StillImage" />
        <dc:title></dc:title>
      </cc:Work>
    </rdf:RDF>
  </metadata>
  <g
     transform="translate(0,-768.89631)"
     id="layer1"
     inkscape:groupmode="layer"
     inkscape:label="Layer 1">
    <path
       transform="matrix(1.7077127,0,0,1.2971825,-67.241219,750.0792)"
       d="m 110.61171,124.11301 c 0,1.5342 -1.24371,2.77792 -2.77792,2.77792 -1.5342,0 -2.77792,-1.24372 -2.77792,-2.77792 0,-1.53421 1.24372,-2.77792 2.77792,-2.77792 1.53421,0 2.77792,1.24371 2.77792,2.77792 z"
       sodipodi:ry="2.7779195"
       sodipodi:rx="2.7779195"
       sodipodi:cy="124.11301"
       sodipodi:cx="107.83379"
       id="path2985"
       style="fill:#000000;fill-opacity:1;stroke:#000000;stroke-width:0.83985066;stroke-linecap:round;stroke-linejoin:miter;stroke-miterlimit:4;stroke-opacity:1;stroke-dasharray:none;stroke-dashoffset:0"
       sodipodi:type="arc" />
    <path
       sodipodi:type="arc"
       style="fill:#000000;fill-opacity:1;stroke:#000000;stroke-width:0.83985066;stroke-linecap:round;stroke-linejoin:miter;stroke-miterlimit:4;stroke-opacity:1;stroke-dasharray:none;stroke-dashoffset:0"
       id="path3755"
       sodipodi:cx="107.83379"
       sodipodi:cy="124.11301"
       sodipodi:rx="2.7779195"
       sodipodi:ry="2.7779195"
       d="m 110.61171,124.11301 c 0,1.5342 -1.24371,2.77792 -2.77792,2.77792 -1.5342,0 -2.77792,-1.24372 -2.77792,-2.77792 0,-1.53421 1.24372,-2.77792 2.77792,-2.77792 1.53421,0 2.77792,1.24371 2.77792,2.77792 z"
       transform="matrix(1.7077127,0,0,1.2971825,-63.621415,748.41605)" />
    <path
       sodipodi:nodetypes="cccc"
       inkscape:connector-curvature="0"
       id="path3757"
       d="M 186.24164,877.23695 120.92196,908.5594 141.72209,861.15992 123.47637,845.6373"
       style="fill:none;stroke:#000000;stroke-width:1px;stroke-linecap:butt;stroke-linejoin:miter;stroke-opacity:1" />
    <path
       inkscape:connector-curvature="0"
       id="path3759"
       d="m 180.76793,915.21197 -59.11615,-4.98942 58.38633,38.80658"
       style="fill:none;stroke:#000000;stroke-width:1px;stroke-linecap:butt;stroke-linejoin:miter;stroke-opacity:1" />
    <path
       inkscape:connector-curvature="0"
       id="path3761"
       d="m 118.73247,911.88569 10.21761,44.35039"
       style="fill:none;stroke:#000000;stroke-width:1px;stroke-linecap:butt;stroke-linejoin:miter;stroke-opacity:1" />
    <path
       inkscape:connector-curvature="0"
       id="path3763"
       d="m 133.69396,839.83859 8.39304,20.51205 12.40708,-21.6208"
       style="fill:none;stroke:#000000;stroke-width:1px;stroke-linecap:butt;stroke-linejoin:miter;stroke-opacity:1" />
    <path
       inkscape:connector-curvature="0"
       id="path3765"
       d="m 163.61695,848.43148 -21.16505,11.36479 28.46334,-3.04909"
       style="fill:none;stroke:#000000;stroke-width:1px;stroke-linecap:butt;stroke-linejoin:miter;stroke-opacity:1" />
    <path
       transform="matrix(0.98521886,0,0,0.74837452,35.63533,767.2427)"
       d="m 110.61171,124.11301 c 0,1.5342 -1.24371,2.77792 -2.77792,2.77792 -1.5342,0 -2.77792,-1.24372 -2.77792,-2.77792 0,-1.53421 1.24372,-2.77792 2.77792,-2.77792 1.53421,0 2.77792,1.24371 2.77792,2.77792 z"
       sodipodi:ry="2.7779195"
       sodipodi:rx="2.7779195"
       sodipodi:cy="124.11301"
       sodipodi:cx="107.83379"
       id="path3767"
       style="fill:#000000;fill-opacity:1;stroke:#000000;stroke-width:1.45574117;stroke-linecap:round;stroke-linejoin:miter;stroke-miterlimit:4;stroke-opacity:1;stroke-dasharray:none;stroke-dashoffset:0"
       sodipodi:type="arc" />
    <path
       sodipodi:type="arc"
       style="fill:#000000;fill-opacity:1;stroke:#000000;stroke-width:1.45574117;stroke-linecap:round;stroke-linejoin:miter;stroke-miterlimit:4;stroke-opacity:1;stroke-dasharray:none;stroke-dashoffset:0"
       id="path3769"
       sodipodi:cx="107.83379"
       sodipodi:cy="124.11301"
       sodipodi:rx="2.7779195"
       sodipodi:ry="2.7779195"
       d="m 110.61171,124.11301 c 0,1.5342 -1.24371,2.77792 -2.77792,2.77792 -1.5342,0 -2.77792,-1.24372 -2.77792,-2.77792 0,-1.53421 1.24372,-2.77792 2.77792,-2.77792 1.53421,0 2.77792,1.24371 2.77792,2.77792 z"
       transform="matrix(0.98521886,0,0,0.74837452,77.160386,785.35894)" />
    <path
       sodipodi:nodetypes="cc"
       inkscape:connector-curvature="0"
       id="path3771"
       d="m 184.05217,878.06853 8.75794,-22.72957"
       style="fill:none;stroke:#000000;stroke-width:1px;stroke-linecap:butt;stroke-linejoin:miter;stroke-opacity:1" />
    <path
       inkscape:connector-curvature="0"
       id="path3773"
       d="m 201.20314,860.60556 -17.15097,18.01735 26.63875,-10.81041"
       style="fill:none;stroke:#000000;stroke-width:1px;stroke-linecap:butt;stroke-linejoin:miter;stroke-opacity:1" />
    <path
       inkscape:connector-curvature="0"
       id="path3775"
       d="m 212.15057,878.34572 -28.46332,0 21.52995,11.08759"
       style="fill:none;stroke:#000000;stroke-width:1px;stroke-linecap:butt;stroke-linejoin:miter;stroke-opacity:1" />
    <g
       inkscape:transform-center-y="-8.8701192"
       inkscape:transform-center-x="4.3511582"
       transform="matrix(1.3213402,0.44425328,-0.58484983,1.003693,472.47357,-77.717637)"
       id="g3791">
      <path
         sodipodi:type="arc"
         style="fill:#000000;fill-opacity:1;stroke:#000000;stroke-width:1.45574117;stroke-linecap:round;stroke-linejoin:miter;stroke-miterlimit:4;stroke-opacity:1;stroke-dasharray:none;stroke-dashoffset:0"
         id="path3783"
         sodipodi:cx="107.83379"
         sodipodi:cy="124.11301"
         sodipodi:rx="2.7779195"
         sodipodi:ry="2.7779195"
         d="m 110.61171,124.11301 c 0,1.5342 -1.24371,2.77792 -2.77792,2.77792 -1.5342,0 -2.77792,-1.24372 -2.77792,-2.77792 0,-1.53421 1.24372,-2.77792 2.77792,-2.77792 1.53421,0 2.77792,1.24371 2.77792,2.77792 z"
         transform="matrix(0.68181821,0,0,0.68181821,107.90276,824.10952)" />
      <path
         sodipodi:nodetypes="cc"
         inkscape:connector-curvature="0"
         id="path3785"
         d="m 181.87695,908.57403 6.06091,-20.70813"
         style="fill:none;stroke:#000000;stroke-width:0.79404068px;stroke-linecap:butt;stroke-linejoin:miter;stroke-opacity:1" />
      <path
         inkscape:connector-curvature="0"
         id="path3787"
         d="m 193.74624,892.66413 -11.86929,16.41498 18.43528,-9.84899"
         style="fill:none;stroke:#000000;stroke-width:0.79404068px;stroke-linecap:butt;stroke-linejoin:miter;stroke-opacity:1" />
      <path
         inkscape:connector-curvature="0"
         id="path3789"
         d="m 201.32238,908.82657 -19.69797,0 14.89975,10.10152"
         style="fill:none;stroke:#000000;stroke-width:0.79404068px;stroke-linecap:butt;stroke-linejoin:miter;stroke-opacity:1" />
    </g>
    <g
       id="g3797"
       transform="matrix(0.90483438,0.85578022,-1.1266161,0.68731428,1038.6639,168.75884)"
       inkscape:transform-center-x="-2.1560735"
       inkscape:transform-center-y="-8.1499304">
      <path
         transform="matrix(0.68181821,0,0,0.68181821,107.90276,824.10952)"
         d="m 110.61171,124.11301 c 0,1.5342 -1.24371,2.77792 -2.77792,2.77792 -1.5342,0 -2.77792,-1.24372 -2.77792,-2.77792 0,-1.53421 1.24372,-2.77792 2.77792,-2.77792 1.53421,0 2.77792,1.24371 2.77792,2.77792 z"
         sodipodi:ry="2.7779195"
         sodipodi:rx="2.7779195"
         sodipodi:cy="124.11301"
         sodipodi:cx="107.83379"
         id="path3799"
         style="fill:#000000;fill-opacity:1;stroke:#000000;stroke-width:1.45574117;stroke-linecap:round;stroke-linejoin:miter;stroke-miterlimit:4;stroke-opacity:1;stroke-dasharray:none;stroke-dashoffset:0"
         sodipodi:type="arc" />
      <path
         style="fill:none;stroke:#000000;stroke-width:0.79404068px;stroke-linecap:butt;stroke-linejoin:miter;stroke-opacity:1"
         d="m 181.87695,908.57403 6.06091,-20.70813"
         id="path3801"
         inkscape:connector-curvature="0"
         sodipodi:nodetypes="cc" />
      <path
         style="fill:none;stroke:#000000;stroke-width:0.79404068px;stroke-linecap:butt;stroke-linejoin:miter;stroke-opacity:1"
         d="m 193.74624,892.66413 -11.86929,16.41498 18.43528,-9.84899"
         id="path3803"
         inkscape:connector-curvature="0" />
      <path
         style="fill:none;stroke:#000000;stroke-width:0.79404068px;stroke-linecap:butt;stroke-linejoin:miter;stroke-opacity:1"
         d="m 201.32238,908.82657 -19.69797,0 14.89975,10.10152"
         id="path3805"
         inkscape:connector-curvature="0" />
    </g>
    <g
       inkscape:transform-center-y="-6.4636494"
       inkscape:transform-center-x="-9.0687521"
       transform="matrix(0.28844932,1.0755245,-1.4159047,0.21910677,1362.5059,559.46477)"
       id="g3807">
      <path
         sodipodi:type="arc"
         style="fill:#000000;fill-opacity:1;stroke:#000000;stroke-width:1.45574117;stroke-linecap:round;stroke-linejoin:miter;stroke-miterlimit:4;stroke-opacity:1;stroke-dasharray:none;stroke-dashoffset:0"
         id="path3809"
         sodipodi:cx="107.83379"
         sodipodi:cy="124.11301"
         sodipodi:rx="2.7779195"
         sodipodi:ry="2.7779195"
         d="m 110.61171,124.11301 c 0,1.5342 -1.24371,2.77792 -2.77792,2.77792 -1.5342,0 -2.77792,-1.24372 -2.77792,-2.77792 0,-1.53421 1.24372,-2.77792 2.77792,-2.77792 1.53421,0 2.77792,1.24371 2.77792,2.77792 z"
         transform="matrix(0.68181821,0,0,0.68181821,107.90276,824.10952)" />
      <path
         sodipodi:nodetypes="cc"
         inkscape:connector-curvature="0"
         id="path3811"
         d="m 181.87695,908.57403 6.06091,-20.70813"
         style="fill:none;stroke:#000000;stroke-width:0.79404068px;stroke-linecap:butt;stroke-linejoin:miter;stroke-opacity:1" />
      <path
         inkscape:connector-curvature="0"
         id="path3813"
         d="m 193.74624,892.66413 -11.86929,16.41498 18.43528,-9.84899"
         style="fill:none;stroke:#000000;stroke-width:0.79404068px;stroke-linecap:butt;stroke-linejoin:miter;stroke-opacity:1" />
      <path
         inkscape:connector-curvature="0"
         id="path3815"
         d="m 201.32238,908.82657 -19.69797,0 14.89975,10.10152"
         style="fill:none;stroke:#000000;stroke-width:0.79404068px;stroke-linecap:butt;stroke-linejoin:miter;stroke-opacity:1" />
    </g>
    <g
       id="g3849"
       ns0:preamble=""
       ns0:text="$a$ $b$ $c$ $d$ $e$"
       transform="matrix(1.2,0,0,1.2,-14.151639,642.48441)">
      <defs
         id="defs3851">
        <g
           id="g3853">
          <symbol
             id="textext-4f97e761-0"
             overflow="visible"
             style="overflow:visible">
            <path
               id="path3856"
               d=""
               style="stroke:none"
               inkscape:connector-curvature="0" />
          </symbol>
          <symbol
             id="textext-4f97e761-1"
             overflow="visible"
             style="overflow:visible">
            <path
               id="path3859"
               d="M 3.71875,-3.765625 C 3.53125,-4.140625 3.25,-4.40625 2.796875,-4.40625 c -1.15625,0 -2.390625,1.46875 -2.390625,2.921875 0,0.9375 0.546875,1.59375 1.3125,1.59375 0.203125,0 0.703125,-0.046875 1.296875,-0.75 0.078125,0.421875 0.4375,0.75 0.90625,0.75 0.359375,0 0.578125,-0.234375 0.75,-0.546875 0.15625,-0.359375 0.296875,-0.96875 0.296875,-0.984375 0,-0.109375 -0.09375,-0.109375 -0.125,-0.109375 -0.09375,0 -0.109375,0.046875 -0.140625,0.1875 -0.171875,0.640625 -0.34375,1.234375 -0.75,1.234375 -0.28125,0 -0.296875,-0.265625 -0.296875,-0.453125 0,-0.21875 0.015625,-0.3125 0.125,-0.75 C 3.890625,-1.71875 3.90625,-1.828125 4,-2.203125 L 4.359375,-3.59375 c 0.0625,-0.28125 0.0625,-0.296875 0.0625,-0.34375 0,-0.171875 -0.109375,-0.265625 -0.28125,-0.265625 -0.25,0 -0.390625,0.21875 -0.421875,0.4375 z M 3.078125,-1.1875 C 3.015625,-1 3.015625,-0.984375 2.875,-0.8125 2.4375,-0.265625 2.03125,-0.109375 1.75,-0.109375 c -0.5,0 -0.640625,-0.546875 -0.640625,-0.9375 0,-0.5 0.3125,-1.71875 0.546875,-2.1875 0.3125,-0.578125 0.75,-0.953125 1.15625,-0.953125 0.640625,0 0.78125,0.8125 0.78125,0.875 0,0.0625 -0.015625,0.125 -0.03125,0.171875 z m 0,0"
               style="stroke:none"
               inkscape:connector-curvature="0" />
          </symbol>
          <symbol
             id="textext-4f97e761-2"
             overflow="visible"
             style="overflow:visible">
            <path
               id="path3862"
               d="m 2.375,-6.8125 c 0,0 0,-0.109375 -0.125,-0.109375 -0.21875,0 -0.953125,0.078125 -1.21875,0.109375 -0.078125,0 -0.1875,0.015625 -0.1875,0.1875 0,0.125 0.09375,0.125 0.25,0.125 0.46875,0 0.484375,0.0625 0.484375,0.171875 0,0.0625 -0.078125,0.40625 -0.125,0.609375 l -0.828125,3.25 c -0.109375,0.5 -0.15625,0.671875 -0.15625,1.015625 0,0.9375 0.53125,1.5625 1.265625,1.5625 1.171875,0 2.40625,-1.484375 2.40625,-2.921875 0,-0.90625 -0.53125,-1.59375 -1.328125,-1.59375 -0.453125,0 -0.875,0.296875 -1.171875,0.59375 z M 1.453125,-3.046875 C 1.5,-3.265625 1.5,-3.28125 1.59375,-3.390625 2.078125,-4.03125 2.53125,-4.1875 2.796875,-4.1875 c 0.359375,0 0.625,0.296875 0.625,0.9375 0,0.59375 -0.328125,1.734375 -0.515625,2.109375 -0.328125,0.671875 -0.78125,1.03125 -1.171875,1.03125 -0.34375,0 -0.671875,-0.265625 -0.671875,-1 0,-0.203125 0,-0.390625 0.15625,-1.015625 z m 0,0"
               style="stroke:none"
               inkscape:connector-curvature="0" />
          </symbol>
          <symbol
             id="textext-4f97e761-3"
             overflow="visible"
             style="overflow:visible">
            <path
               id="path3865"
               d="m 3.953125,-3.78125 c -0.171875,0 -0.296875,0 -0.4375,0.125 -0.171875,0.15625 -0.1875,0.328125 -0.1875,0.390625 0,0.25 0.1875,0.359375 0.375,0.359375 0.28125,0 0.546875,-0.25 0.546875,-0.640625 0,-0.484375 -0.46875,-0.859375 -1.171875,-0.859375 -1.34375,0 -2.671875,1.421875 -2.671875,2.828125 0,0.90625 0.578125,1.6875 1.625,1.6875 1.421875,0 2.25,-1.0625 2.25,-1.171875 0,-0.0625 -0.046875,-0.140625 -0.109375,-0.140625 -0.0625,0 -0.078125,0.03125 -0.140625,0.109375 -0.78125,0.984375 -1.875,0.984375 -1.984375,0.984375 -0.625,0 -0.90625,-0.484375 -0.90625,-1.09375 0,-0.40625 0.203125,-1.375 0.546875,-1.984375 0.3125,-0.578125 0.859375,-1 1.40625,-1 0.328125,0 0.71875,0.125 0.859375,0.40625 z m 0,0"
               style="stroke:none"
               inkscape:connector-curvature="0" />
          </symbol>
          <symbol
             id="textext-4f97e761-4"
             overflow="visible"
             style="overflow:visible">
            <path
               id="path3868"
               d="m 5.140625,-6.8125 c 0,0 0,-0.109375 -0.125,-0.109375 -0.15625,0 -1.09375,0.09375 -1.265625,0.109375 -0.078125,0.015625 -0.140625,0.0625 -0.140625,0.1875 0,0.125 0.09375,0.125 0.234375,0.125 0.484375,0 0.5,0.0625 0.5,0.171875 L 4.3125,-6.125 3.71875,-3.765625 C 3.53125,-4.140625 3.25,-4.40625 2.796875,-4.40625 c -1.15625,0 -2.390625,1.46875 -2.390625,2.921875 0,0.9375 0.546875,1.59375 1.3125,1.59375 0.203125,0 0.703125,-0.046875 1.296875,-0.75 0.078125,0.421875 0.4375,0.75 0.90625,0.75 0.359375,0 0.578125,-0.234375 0.75,-0.546875 0.15625,-0.359375 0.296875,-0.96875 0.296875,-0.984375 0,-0.109375 -0.09375,-0.109375 -0.125,-0.109375 -0.09375,0 -0.109375,0.046875 -0.140625,0.1875 -0.171875,0.640625 -0.34375,1.234375 -0.75,1.234375 -0.28125,0 -0.296875,-0.265625 -0.296875,-0.453125 0,-0.25 0.015625,-0.3125 0.046875,-0.484375 z m -2.0625,5.625 C 3.015625,-1 3.015625,-0.984375 2.875,-0.8125 2.4375,-0.265625 2.03125,-0.109375 1.75,-0.109375 c -0.5,0 -0.640625,-0.546875 -0.640625,-0.9375 0,-0.5 0.3125,-1.71875 0.546875,-2.1875 0.3125,-0.578125 0.75,-0.953125 1.15625,-0.953125 0.640625,0 0.78125,0.8125 0.78125,0.875 0,0.0625 -0.015625,0.125 -0.03125,0.171875 z m 0,0"
               style="stroke:none"
               inkscape:connector-curvature="0" />
          </symbol>
          <symbol
             id="textext-4f97e761-5"
             overflow="visible"
             style="overflow:visible">
            <path
               id="path3871"
               d="m 1.859375,-2.296875 c 0.296875,0 1.03125,-0.03125 1.53125,-0.234375 0.703125,-0.296875 0.75,-0.890625 0.75,-1.03125 0,-0.4375 -0.375,-0.84375 -1.0625,-0.84375 -1.109375,0 -2.625,0.96875 -2.625,2.71875 0,1.015625 0.59375,1.796875 1.578125,1.796875 1.421875,0 2.25,-1.0625 2.25,-1.171875 0,-0.0625 -0.046875,-0.140625 -0.109375,-0.140625 -0.0625,0 -0.078125,0.03125 -0.140625,0.109375 -0.78125,0.984375 -1.875,0.984375 -1.984375,0.984375 -0.78125,0 -0.875,-0.84375 -0.875,-1.15625 0,-0.125 0.015625,-0.421875 0.15625,-1.03125 z m -0.46875,-0.21875 C 1.78125,-4.03125 2.8125,-4.1875 3.078125,-4.1875 c 0.453125,0 0.734375,0.296875 0.734375,0.625 0,1.046875 -1.59375,1.046875 -2.015625,1.046875 z m 0,0"
               style="stroke:none"
               inkscape:connector-curvature="0" />
          </symbol>
        </g>
      </defs>
      <g
         id="textext-4f97e761-6">
        <g
           id="g3874"
           style="fill:#000000;fill-opacity:1"
           transform="translate(-108.40613,45.864133)">
          <use
             id="use3876"
             y="134.765"
             x="223.43201"
             xlink:href="#textext-4f97e761-1"
             width="354.33069"
             height="283.46457" />
        </g>
        <g
           id="g3878"
           style="fill:#000000;fill-opacity:1"
           transform="translate(-104.65361,35.857413)">
          <use
             id="use3880"
             y="134.765"
             x="232.01578"
             xlink:href="#textext-4f97e761-2"
             width="354.33069"
             height="283.46457" />
        </g>
        <g
           id="g3882"
           style="fill:#000000;fill-opacity:1"
           transform="translate(-101.31804,36.691306)">
          <use
             id="use3884"
             y="134.765"
             x="239.61923"
             xlink:href="#textext-4f97e761-3"
             width="354.33069"
             height="283.46457" />
        </g>
        <g
           id="g3886"
           style="fill:#000000;fill-opacity:1"
           transform="translate(-99.650253,41.27772)">
          <use
             id="use3888"
             y="134.765"
             x="247.2486"
             xlink:href="#textext-4f97e761-4"
             width="354.33069"
             height="283.46457" />
        </g>
        <g
           id="g3890"
           style="fill:#000000;fill-opacity:1"
           transform="translate(-110.07392,50.867493)">
          <use
             id="use3892"
             y="134.765"
             x="255.75168"
             xlink:href="#textext-4f97e761-5"
             width="354.33069"
             height="283.46457" />
        </g>
        <g
           style="fill:#000000;fill-opacity:1"
           id="g3950"
           transform="translate(-52.53528,41.267641)">
          <use
             height="283.46457"
             width="354.33069"
             xlink:href="#textext-4f97e761-1"
             x="223.43201"
             y="134.765"
             id="use3952" />
        </g>
        <g
           style="fill:#000000;fill-opacity:1"
           id="g3954"
           transform="translate(-52.53528,47.938787)">
          <use
             height="283.46457"
             width="354.33069"
             xlink:href="#textext-4f97e761-2"
             x="232.01578"
             y="134.765"
             id="use3956" />
        </g>
        <g
           style="fill:#000000;fill-opacity:1"
           id="g3958"
           transform="translate(-50.867493,54.609934)">
          <use
             height="283.46457"
             width="354.33069"
             xlink:href="#textext-4f97e761-3"
             x="239.61923"
             y="134.765"
             id="use3960" />
        </g>
        <g
           style="fill:#000000;fill-opacity:1"
           id="g3962"
           transform="translate(-59.206426,68.786121)">
          <use
             height="283.46457"
             width="354.33069"
             xlink:href="#textext-4f97e761-4"
             x="247.2486"
             y="134.765"
             id="use3964" />
        </g>
        <g
           style="fill:#000000;fill-opacity:1"
           id="g3966"
           transform="translate(-72.131773,75.457267)">
          <use
             height="283.46457"
             width="354.33069"
             xlink:href="#textext-4f97e761-5"
             x="255.75168"
             y="134.765"
             id="use3968" />
        </g>
        <g
           transform="translate(-43.7794,82.114978)"
           id="g3970"
           style="fill:#000000;fill-opacity:1">
          <use
             id="use3972"
             y="134.765"
             x="223.43201"
             xlink:href="#textext-4f97e761-1"
             width="354.33069"
             height="283.46457" />
        </g>
        <g
           transform="translate(-47.114973,87.118338)"
           id="g3974"
           style="fill:#000000;fill-opacity:1">
          <use
             id="use3976"
             y="134.765"
             x="232.01578"
             xlink:href="#textext-4f97e761-2"
             width="354.33069"
             height="283.46457" />
        </g>
        <g
           transform="translate(-50.867493,93.789484)"
           id="g3978"
           style="fill:#000000;fill-opacity:1">
          <use
             id="use3980"
             y="134.765"
             x="239.61923"
             xlink:href="#textext-4f97e761-3"
             width="354.33069"
             height="283.46457" />
        </g>
        <g
           transform="translate(-64.626733,105.46399)"
           id="g3982"
           style="fill:#000000;fill-opacity:1">
          <use
             id="use3984"
             y="134.765"
             x="247.2486"
             xlink:href="#textext-4f97e761-4"
             width="354.33069"
             height="283.46457" />
        </g>
        <g
           transform="translate(-80.887653,109.21651)"
           id="g3986"
           style="fill:#000000;fill-opacity:1">
          <use
             id="use3988"
             y="134.765"
             x="255.75168"
             xlink:href="#textext-4f97e761-5"
             width="354.33069"
             height="283.46457" />
        </g>
        <g
           style="fill:#000000;fill-opacity:1"
           id="g3990"
           transform="translate(-36.691306,114.62562)">
          <use
             height="283.46457"
             width="354.33069"
             xlink:href="#textext-4f97e761-1"
             x="223.43201"
             y="134.765"
             id="use3992" />
        </g>
        <g
           style="fill:#000000;fill-opacity:1"
           id="g3994"
           transform="translate(-44.613293,124.63234)">
          <use
             height="283.46457"
             width="354.33069"
             xlink:href="#textext-4f97e761-2"
             x="232.01578"
             y="134.765"
             id="use3996" />
        </g>
        <g
           style="fill:#000000;fill-opacity:1"
           id="g3998"
           transform="translate(-54.620013,131.72043)">
          <use
             height="283.46457"
             width="354.33069"
             xlink:href="#textext-4f97e761-3"
             x="239.61923"
             y="134.765"
             id="use4000" />
        </g>
        <g
           style="fill:#000000;fill-opacity:1"
           id="g4002"
           transform="translate(-70.463986,141.31021)">
          <use
             height="283.46457"
             width="354.33069"
             xlink:href="#textext-4f97e761-4"
             x="247.2486"
             y="134.765"
             id="use4004" />
        </g>
        <g
           style="fill:#000000;fill-opacity:1"
           id="g4006"
           transform="translate(-92.979106,143.81189)">
          <use
             height="283.46457"
             width="354.33069"
             xlink:href="#textext-4f97e761-5"
             x="255.75168"
             y="134.765"
             id="use4008" />
        </g>
        <g
           transform="translate(-112.5756,72.489376)"
           id="g4010"
           style="fill:#000000;fill-opacity:1">
          <use
             id="use4012"
             y="134.765"
             x="223.43201"
             xlink:href="#textext-4f97e761-1"
             width="354.33069"
             height="283.46457" />
        </g>
        <g
           transform="translate(-105.07056,77.075789)"
           id="g4014"
           style="fill:#000000;fill-opacity:1">
          <use
             id="use4016"
             y="134.765"
             x="232.01578"
             xlink:href="#textext-4f97e761-2"
             width="354.33069"
             height="283.46457" />
        </g>
        <g
           transform="translate(-105.48751,88.750296)"
           id="g4018"
           style="fill:#000000;fill-opacity:1">
          <use
             id="use4020"
             y="134.765"
             x="239.61923"
             xlink:href="#textext-4f97e761-3"
             width="354.33069"
             height="283.46457" />
        </g>
        <g
           transform="translate(-108.82308,103.76038)"
           id="g4022"
           style="fill:#000000;fill-opacity:1">
          <use
             id="use4024"
             y="134.765"
             x="247.2486"
             xlink:href="#textext-4f97e761-4"
             width="354.33069"
             height="283.46457" />
        </g>
        <g
           transform="translate(-137.5924,112.9332)"
           id="g4026"
           style="fill:#000000;fill-opacity:1">
          <use
             id="use4028"
             y="134.765"
             x="255.75168"
             xlink:href="#textext-4f97e761-5"
             width="354.33069"
             height="283.46457" />
        </g>
        <g
           style="fill:#000000;fill-opacity:1"
           id="g4050"
           transform="translate(-77.552079,130.0146)">
          <use
             height="283.46457"
             width="354.33069"
             xlink:href="#textext-4f97e761-1"
             x="223.43201"
             y="134.765"
             id="use4052" />
        </g>
        <g
           style="fill:#000000;fill-opacity:1"
           id="g4054"
           transform="translate(-90.060479,139.18742)">
          <use
             height="283.46457"
             width="354.33069"
             xlink:href="#textext-4f97e761-2"
             x="232.01578"
             y="134.765"
             id="use4056" />
        </g>
        <g
           style="fill:#000000;fill-opacity:1"
           id="g4058"
           transform="translate(-105.07056,144.60773)">
          <use
             height="283.46457"
             width="354.33069"
             xlink:href="#textext-4f97e761-3"
             x="239.61923"
             y="134.765"
             id="use4060" />
        </g>
        <g
           style="fill:#000000;fill-opacity:1"
           id="g4062"
           transform="translate(-124.25011,149.19414)">
          <use
             height="283.46457"
             width="354.33069"
             xlink:href="#textext-4f97e761-4"
             x="247.2486"
             y="134.765"
             id="use4064" />
        </g>
        <g
           style="fill:#000000;fill-opacity:1"
           id="g4066"
           transform="translate(-145.51439,146.69246)">
          <use
             height="283.46457"
             width="354.33069"
             xlink:href="#textext-4f97e761-5"
             x="255.75168"
             y="134.765"
             id="use4068" />
        </g>
        <path
           style="fill:none;stroke:#000000;stroke-width:1px;stroke-linecap:butt;stroke-linejoin:miter;stroke-opacity:1;marker-end:url(#Arrow1Mend)"
           d="m 88.559471,142.36982 17.511759,0"
           id="path4070"
           inkscape:connector-curvature="0"
           transform="matrix(0.83333333,0,0,0.83333333,11.793032,105.34325)" />
        <text
           xml:space="preserve"
           style="font-size:10px;font-style:normal;font-variant:normal;font-weight:normal;font-stretch:normal;line-height:125%;letter-spacing:0px;word-spacing:0px;fill:#000000;fill-opacity:1;stroke:none;font-family:Nimbus Roman No9 L;-inkscape-font-specification:Nimbus Roman No9 L"
           x="66.830002"
           y="226.90338"
           id="text4516"
           sodipodi:linespacing="125%"><tspan
             sodipodi:role="line"
             id="tspan4518"
             x="66.830002"
             y="226.90338">root</tspan></text>
        <path
           style="fill:none;stroke:#000000;stroke-width:1px;stroke-linecap:butt;stroke-linejoin:miter;stroke-opacity:1;marker-end:url(#Arrow1Mend)"
           d="M 92.061823,65.818411 117.57896,76.825803"
           id="path4520"
           inkscape:connector-curvature="0"
           transform="matrix(0.83333333,0,0,0.83333333,11.793032,105.34325)" />
        <text
           xml:space="preserve"
           style="font-size:10px;font-style:normal;font-variant:normal;font-weight:normal;font-stretch:normal;line-height:125%;letter-spacing:0px;word-spacing:0px;fill:#000000;fill-opacity:1;stroke:none;font-family:Nimbus Roman No9 L;-inkscape-font-specification:Nimbus Roman No9 L"
           x="64.328308"
           y="163.11055"
           id="text4704"
           sodipodi:linespacing="125%"><tspan
             sodipodi:role="line"
             id="tspan4706"
             x="64.328308"
             y="163.11055">a leaf</tspan></text>
      </g>
    </g>
  </g>
</svg>
