<?xml version="1.0" encoding="UTF-8" standalone="no"?>
<!-- Created with Inkscape (http://www.inkscape.org/) -->

<svg
   xmlns:ns0="http://www.iki.fi/pav/software/textext/"
   xmlns:dc="http://purl.org/dc/elements/1.1/"
   xmlns:cc="http://creativecommons.org/ns#"
   xmlns:rdf="http://www.w3.org/1999/02/22-rdf-syntax-ns#"
   xmlns:svg="http://www.w3.org/2000/svg"
   xmlns="http://www.w3.org/2000/svg"
   xmlns:xlink="http://www.w3.org/1999/xlink"
   xmlns:sodipodi="http://sodipodi.sourceforge.net/DTD/sodipodi-0.dtd"
   xmlns:inkscape="http://www.inkscape.org/namespaces/inkscape"
   width="744.09448819"
   height="1052.3622047"
   id="svg2"
   version="1.1"
   inkscape:version="0.48.4 r9939"
   sodipodi:docname="fig2.svg">
  <sodipodi:namedview
     id="base"
     pagecolor="#ffffff"
     bordercolor="#666666"
     borderopacity="1.0"
     inkscape:pageopacity="0.0"
     inkscape:pageshadow="2"
     inkscape:zoom="1.4"
     inkscape:cx="305.75711"
     inkscape:cy="869.99728"
     inkscape:document-units="px"
     inkscape:current-layer="layer1"
     showgrid="false"
     inkscape:window-width="1024"
     inkscape:window-height="744"
     inkscape:window-x="0"
     inkscape:window-y="24"
     inkscape:window-maximized="1" />
  <defs
     id="defs4">
    <marker
       style="overflow:visible;"
       id="Arrow1Mend"
       refX="0.0"
       refY="0.0"
       orient="auto"
       inkscape:stockid="Arrow1Mend">
      <path
         transform="scale(0.4) rotate(180) translate(10,0)"
         style="fill-rule:evenodd;stroke:#000000;stroke-width:1.0pt;"
         d="M 0.0,0.0 L 5.0,-5.0 L -12.5,0.0 L 5.0,5.0 L 0.0,0.0 z "
         id="path4090" />
    </marker>
    <marker
       style="overflow:visible"
       id="Arrow1Mstart"
       refX="0.0"
       refY="0.0"
       orient="auto"
       inkscape:stockid="Arrow1Mstart">
      <path
         transform="scale(0.4) translate(10,0)"
         style="fill-rule:evenodd;stroke:#000000;stroke-width:1.0pt"
         d="M 0.0,0.0 L 5.0,-5.0 L -12.5,0.0 L 5.0,5.0 L 0.0,0.0 z "
         id="path4087" />
    </marker>
  </defs>
  <metadata
     id="metadata7">
    <rdf:RDF>
      <cc:Work
         rdf:about="">
        <dc:format>image/svg+xml</dc:format>
        <dc:type
           rdf:resource="http://purl.org/dc/dcmitype/StillImage" />
        <dc:title />
      </cc:Work>
    </rdf:RDF>
  </metadata>
  <g
     inkscape:label="Layer 1"
     inkscape:groupmode="layer"
     id="layer1">
    <path
       inkscape:connector-curvature="0"
       id="path3305"
       d="m 318.92857,159.86218 6.42857,-11.42857 65.71429,-10.35714"
       style="fill:none;stroke:#000000;stroke-width:1px;stroke-linecap:butt;stroke-linejoin:miter;stroke-opacity:1;marker-start:url(#Arrow1Mstart)" />
    <path
       inkscape:connector-curvature="0"
       id="path3307"
       d="m 350.35714,160.93361 3.57143,-6.78571 54.64286,-3.92858"
       style="fill:none;stroke:#000000;stroke-width:1px;stroke-linecap:butt;stroke-linejoin:miter;stroke-opacity:1;marker-end:none;marker-start:url(#Arrow1Mstart)" />
    <text
       sodipodi:linespacing="125%"
       id="text5075"
       y="139.50504"
       x="396.07141"
       style="font-size:12px;font-style:normal;font-variant:normal;font-weight:normal;font-stretch:normal;line-height:125%;letter-spacing:0px;word-spacing:0px;fill:#000000;fill-opacity:1;stroke:none;font-family:Nimbus Roman No9 L;-inkscape-font-specification:Nimbus Roman No9 L"
       xml:space="preserve"><tspan
         y="139.50504"
         x="396.07141"
         id="tspan5077"
         sodipodi:role="line">how many</tspan></text>
    <text
       xml:space="preserve"
       style="font-size:12px;font-style:normal;font-variant:normal;font-weight:normal;font-stretch:normal;line-height:125%;letter-spacing:0px;word-spacing:0px;fill:#000000;fill-opacity:1;stroke:none;font-family:Nimbus Roman No9 L;-inkscape-font-specification:Nimbus Roman No9 L"
       x="412.07141"
       y="152.57648"
       id="text5079"
       sodipodi:linespacing="125%"><tspan
         sodipodi:role="line"
         id="tspan5081"
         x="412.07141"
         y="152.57648">how many</tspan></text>
    <g
       id="g3061"
       transform="scale(1.200000,1.200000)"
       ns0:preamble="/home/sriranga/Desktop/CSY/article2/figure/package.tex"
       ns0:text="$\\underbrace{\\underline{n} \\ \\underline{n-1} \\ \\ \\underline{~~} \\ \\ \\underline{~~} \\ \\ \\underline{~~}}_{k}$">
      <defs
         id="defs3063">
        <g
           id="g3065">
          <symbol
             id="textext-eda55017-0"
             overflow="visible">
            <path
               id="path3068"
               d=""
               style="stroke:none;" />
          </symbol>
          <symbol
             id="textext-eda55017-1"
             overflow="visible">
            <path
               id="path3071"
               d="M 4.578125 -1.171875 L 4.375 -0.90625 C 4.09375 -0.53125 3.90625 -0.375 3.765625 -0.375 C 3.6875 -0.375 3.609375 -0.453125 3.609375 -0.53125 C 3.609375 -0.609375 3.609375 -0.609375 3.75 -1.171875 L 4.3125 -3.21875 C 4.359375 -3.421875 4.40625 -3.65625 4.40625 -3.78125 C 4.40625 -4.140625 4.140625 -4.390625 3.75 -4.390625 C 3.109375 -4.390625 2.484375 -3.796875 1.453125 -2.203125 L 2.125 -4.375 L 2.09375 -4.390625 C 1.5625 -4.28125 1.34375 -4.25 0.484375 -4.09375 L 0.484375 -3.921875 C 0.984375 -3.921875 1.109375 -3.859375 1.109375 -3.65625 C 1.109375 -3.59375 1.109375 -3.53125 1.09375 -3.484375 L 0.140625 0 L 0.890625 0 C 1.359375 -1.578125 1.453125 -1.796875 1.890625 -2.46875 C 2.484375 -3.390625 2.984375 -3.890625 3.359375 -3.890625 C 3.515625 -3.890625 3.59375 -3.78125 3.59375 -3.59375 C 3.59375 -3.484375 3.53125 -3.15625 3.453125 -2.84375 L 3.015625 -1.203125 C 2.890625 -0.6875 2.859375 -0.546875 2.859375 -0.453125 C 2.859375 -0.0625 3 0.09375 3.328125 0.09375 C 3.78125 0.09375 4.03125 -0.125 4.71875 -1.03125 Z M 4.578125 -1.171875 "
               style="stroke:none;" />
          </symbol>
          <symbol
             id="textext-eda55017-2"
             overflow="visible">
            <path
               id="path3074"
               d=""
               style="stroke:none;" />
          </symbol>
          <symbol
             id="textext-eda55017-3"
             overflow="visible">
            <path
               id="path3077"
               d="M 5.71875 -2.28125 L 5.71875 -2.84375 L 0.625 -2.84375 L 0.625 -2.28125 Z M 5.71875 -2.28125 "
               style="stroke:none;" />
          </symbol>
          <symbol
             id="textext-eda55017-4"
             overflow="visible">
            <path
               id="path3080"
               d=""
               style="stroke:none;" />
          </symbol>
          <symbol
             id="textext-eda55017-5"
             overflow="visible">
            <path
               id="path3083"
               d="M 2.90625 -6.734375 L 1.109375 -5.828125 L 1.109375 -5.6875 C 1.21875 -5.734375 1.328125 -5.78125 1.375 -5.796875 C 1.5625 -5.875 1.71875 -5.90625 1.828125 -5.90625 C 2.03125 -5.90625 2.125 -5.765625 2.125 -5.4375 L 2.125 -0.921875 C 2.125 -0.59375 2.046875 -0.375 1.890625 -0.28125 C 1.734375 -0.1875 1.59375 -0.15625 1.171875 -0.15625 L 1.171875 0 L 3.921875 0 L 3.921875 -0.15625 C 3.140625 -0.15625 2.984375 -0.265625 2.984375 -0.734375 L 2.984375 -6.71875 Z M 2.90625 -6.734375 "
               style="stroke:none;" />
          </symbol>
          <symbol
             id="textext-eda55017-6"
             overflow="visible">
            <path
               id="path3086"
               d=""
               style="stroke:none;" />
          </symbol>
          <symbol
             id="textext-eda55017-7"
             overflow="visible">
            <path
               id="path3089"
               d="M 6.25 0 L 6.25 -0.890625 L 5.671875 -0.890625 C 3.84375 -0.890625 1.359375 -0.96875 0.265625 -2.46875 C 0.1875 -2.546875 0.078125 -2.71875 0 -2.71875 C -0.03125 -2.71875 -0.046875 -2.703125 -0.046875 -2.65625 C -0.046875 -2.578125 0.03125 -2.40625 0.046875 -2.375 C 0.953125 -0.6875 2.828125 0 6.234375 0 Z M 6.25 0 "
               style="stroke:none;" />
          </symbol>
          <symbol
             id="textext-eda55017-8"
             overflow="visible">
            <path
               id="path3092"
               d="M 6.25 1.765625 C 6.25 1.671875 6.171875 1.515625 6.15625 1.46875 C 5.25 -0.203125 3.375 -0.890625 -0.046875 -0.890625 L -0.046875 0 L 0.53125 0 C 2.359375 0 4.828125 0.0625 5.9375 1.5625 C 6.015625 1.65625 6.125 1.828125 6.203125 1.828125 C 6.234375 1.828125 6.25 1.796875 6.25 1.765625 Z M 6.25 1.765625 "
               style="stroke:none;" />
          </symbol>
          <symbol
             id="textext-eda55017-9"
             overflow="visible">
            <path
               id="path3095"
               d="M 6.25 0 L 6.25 -0.890625 L 6.234375 -0.890625 C 2.828125 -0.890625 0.953125 -0.203125 0.046875 1.46875 C 0.03125 1.515625 -0.046875 1.671875 -0.046875 1.765625 C -0.046875 1.796875 -0.03125 1.828125 0 1.828125 C 0.078125 1.828125 0.1875 1.65625 0.265625 1.5625 C 1.359375 0.0625 3.84375 0 5.671875 0 Z M 6.25 0 "
               style="stroke:none;" />
          </symbol>
          <symbol
             id="textext-eda55017-10"
             overflow="visible">
            <path
               id="path3098"
               d="M 6.25 -2.65625 C 6.25 -2.703125 6.234375 -2.71875 6.203125 -2.71875 C 6.125 -2.71875 6.015625 -2.546875 5.9375 -2.46875 C 4.828125 -0.96875 2.359375 -0.890625 0.53125 -0.890625 L -0.046875 -0.890625 L -0.046875 0 C 3.375 0 5.25 -0.6875 6.15625 -2.375 C 6.171875 -2.40625 6.25 -2.578125 6.25 -2.65625 Z M 6.25 -2.65625 "
               style="stroke:none;" />
          </symbol>
          <symbol
             id="textext-eda55017-11"
             overflow="visible">
            <path
               id="path3101"
               d=""
               style="stroke:none;" />
          </symbol>
          <symbol
             id="textext-eda55017-12"
             overflow="visible">
            <path
               id="path3104"
               d="M 2.046875 0 L 2.046875 -0.890625 L -0.046875 -0.890625 L -0.046875 0 Z M 2.046875 0 "
               style="stroke:none;" />
          </symbol>
          <symbol
             id="textext-eda55017-13"
             overflow="visible">
            <path
               id="path3107"
               d=""
               style="stroke:none;" />
          </symbol>
          <symbol
             id="textext-eda55017-14"
             overflow="visible">
            <path
               id="path3110"
               d="M 2.890625 -0.765625 L 2.78125 -0.578125 C 2.65625 -0.359375 2.578125 -0.28125 2.46875 -0.28125 C 2.328125 -0.28125 2.171875 -0.515625 1.90625 -1.1875 C 1.875 -1.28125 1.765625 -1.53125 1.640625 -1.796875 C 2.671875 -2.703125 2.890625 -2.84375 3.21875 -2.875 L 3.21875 -2.984375 L 1.9375 -2.984375 L 1.9375 -2.875 L 2.046875 -2.875 C 2.21875 -2.875 2.328125 -2.828125 2.328125 -2.75 C 2.328125 -2.609375 1.96875 -2.265625 1.328125 -1.765625 C 1.21875 -1.6875 1.140625 -1.625 1.03125 -1.546875 L 1.859375 -4.71875 L 1.828125 -4.765625 C 1.421875 -4.671875 1.15625 -4.625 0.734375 -4.578125 L 0.734375 -4.453125 C 1.078125 -4.46875 1.203125 -4.421875 1.21875 -4.28125 C 1.203125 -4.171875 1.15625 -3.984375 1.0625 -3.65625 C 1.03125 -3.5625 1.015625 -3.484375 1 -3.421875 L 0.984375 -3.359375 L 0.09375 0 L 0.625 0 L 0.953125 -1.25 L 1.25 -1.484375 C 1.359375 -1.171875 1.546875 -0.75 1.671875 -0.5 C 1.890625 -0.0625 2.015625 0.078125 2.21875 0.078125 C 2.5 0.078125 2.671875 -0.09375 2.984375 -0.6875 Z M 2.890625 -0.765625 "
               style="stroke:none;" />
          </symbol>
        </g>
      </defs>
      <g
         id="textext-eda55017-15">
        <g
           id="g3113"
           style="fill:rgb(0%,0%,0%);fill-opacity:1;">
          <use
             id="use3115"
             y="134.765"
             x="223.432"
             xlink:href="#textext-eda55017-1" />
        </g>
        <path
           id="path3117"
           transform="matrix(1,0,0,-1,223.432,136.792)"
           d="M 0.00159375 -0.00096875 L 4.982062 -0.00096875 "
           style="fill:none;stroke-width:0.558;stroke-linecap:butt;stroke-linejoin:miter;stroke:rgb(0%,0%,0%);stroke-opacity:1;stroke-miterlimit:10;" />
        <g
           id="g3119"
           style="fill:rgb(0%,0%,0%);fill-opacity:1;">
          <use
             id="use3121"
             y="134.765"
             x="230.904"
             xlink:href="#textext-eda55017-1" />
        </g>
        <g
           id="g3123"
           style="fill:rgb(0%,0%,0%);fill-opacity:1;">
          <use
             id="use3125"
             y="134.765"
             x="238.099"
             xlink:href="#textext-eda55017-3" />
        </g>
        <g
           id="g3127"
           style="fill:rgb(0%,0%,0%);fill-opacity:1;">
          <use
             id="use3129"
             y="134.765"
             x="246.649"
             xlink:href="#textext-eda55017-5" />
        </g>
        <path
           id="path3131"
           transform="matrix(1,0,0,-1,230.904,136.792)"
           d="M -0.00165625 -0.00096875 L 20.728813 -0.00096875 "
           style="fill:none;stroke-width:0.558;stroke-linecap:butt;stroke-linejoin:miter;stroke:rgb(0%,0%,0%);stroke-opacity:1;stroke-miterlimit:10;" />
        <path
           id="path3133"
           transform="matrix(1,0,0,-1,256.612,136.718)"
           d="M 0.00128125 -0.00075 L 4.98175 -0.00075 "
           style="fill:none;stroke-width:0.558;stroke-linecap:butt;stroke-linejoin:miter;stroke:rgb(0%,0%,0%);stroke-opacity:1;stroke-miterlimit:10;" />
        <path
           id="path3135"
           transform="matrix(1,0,0,-1,266.575,136.718)"
           d="M -0.00078125 -0.00075 L 4.979688 -0.00075 "
           style="fill:none;stroke-width:0.558;stroke-linecap:butt;stroke-linejoin:miter;stroke:rgb(0%,0%,0%);stroke-opacity:1;stroke-miterlimit:10;" />
        <path
           id="path3137"
           transform="matrix(1,0,0,-1,276.537,136.718)"
           d="M -0.00184375 -0.00075 L 4.982531 -0.00075 "
           style="fill:none;stroke-width:0.558;stroke-linecap:butt;stroke-linejoin:miter;stroke:rgb(0%,0%,0%);stroke-opacity:1;stroke-miterlimit:10;" />
        <g
           id="g3139"
           style="fill:rgb(0%,0%,0%);fill-opacity:1;">
          <use
             id="use3141"
             y="141.515"
             x="223.432"
             xlink:href="#textext-eda55017-7" />
        </g>
        <g
           id="g3143"
           style="fill:rgb(0%,0%,0%);fill-opacity:1;">
          <use
             id="use3145"
             y="141.515"
             x="229.043"
             xlink:href="#textext-eda55017-12" />
        </g>
        <g
           id="g3147"
           style="fill:rgb(0%,0%,0%);fill-opacity:1;">
          <use
             id="use3149"
             y="141.515"
             x="230.477614"
             xlink:href="#textext-eda55017-12" />
        </g>
        <g
           id="g3151"
           style="fill:rgb(0%,0%,0%);fill-opacity:1;">
          <use
             id="use3153"
             y="141.515"
             x="231.922191"
             xlink:href="#textext-eda55017-12" />
        </g>
        <g
           id="g3155"
           style="fill:rgb(0%,0%,0%);fill-opacity:1;">
          <use
             id="use3157"
             y="141.515"
             x="233.356806"
             xlink:href="#textext-eda55017-12" />
        </g>
        <g
           id="g3159"
           style="fill:rgb(0%,0%,0%);fill-opacity:1;">
          <use
             id="use3161"
             y="141.515"
             x="234.801383"
             xlink:href="#textext-eda55017-12" />
        </g>
        <g
           id="g3163"
           style="fill:rgb(0%,0%,0%);fill-opacity:1;">
          <use
             id="use3165"
             y="141.515"
             x="236.235997"
             xlink:href="#textext-eda55017-12" />
        </g>
        <g
           id="g3167"
           style="fill:rgb(0%,0%,0%);fill-opacity:1;">
          <use
             id="use3169"
             y="141.515"
             x="237.680574"
             xlink:href="#textext-eda55017-12" />
        </g>
        <g
           id="g3171"
           style="fill:rgb(0%,0%,0%);fill-opacity:1;">
          <use
             id="use3173"
             y="141.515"
             x="239.115189"
             xlink:href="#textext-eda55017-12" />
        </g>
        <g
           id="g3175"
           style="fill:rgb(0%,0%,0%);fill-opacity:1;">
          <use
             id="use3177"
             y="141.515"
             x="240.559766"
             xlink:href="#textext-eda55017-12" />
        </g>
        <g
           id="g3179"
           style="fill:rgb(0%,0%,0%);fill-opacity:1;">
          <use
             id="use3181"
             y="141.515"
             x="241.99438"
             xlink:href="#textext-eda55017-12" />
        </g>
        <g
           id="g3183"
           style="fill:rgb(0%,0%,0%);fill-opacity:1;">
          <use
             id="use3185"
             y="141.515"
             x="243.428994"
             xlink:href="#textext-eda55017-12" />
        </g>
        <g
           id="g3187"
           style="fill:rgb(0%,0%,0%);fill-opacity:1;">
          <use
             id="use3189"
             y="141.515"
             x="244.873571"
             xlink:href="#textext-eda55017-12" />
        </g>
        <g
           id="g3191"
           style="fill:rgb(0%,0%,0%);fill-opacity:1;">
          <use
             id="use3193"
             y="141.515"
             x="246.279"
             xlink:href="#textext-eda55017-8" />
          <use
             id="use3195"
             y="141.515"
             x="252.475737"
             xlink:href="#textext-eda55017-9" />
        </g>
        <g
           id="g3197"
           style="fill:rgb(0%,0%,0%);fill-opacity:1;">
          <use
             id="use3199"
             y="141.515"
             x="258.086"
             xlink:href="#textext-eda55017-12" />
        </g>
        <g
           id="g3201"
           style="fill:rgb(0%,0%,0%);fill-opacity:1;">
          <use
             id="use3203"
             y="141.515"
             x="259.520614"
             xlink:href="#textext-eda55017-12" />
        </g>
        <g
           id="g3205"
           style="fill:rgb(0%,0%,0%);fill-opacity:1;">
          <use
             id="use3207"
             y="141.515"
             x="260.965191"
             xlink:href="#textext-eda55017-12" />
        </g>
        <g
           id="g3209"
           style="fill:rgb(0%,0%,0%);fill-opacity:1;">
          <use
             id="use3211"
             y="141.515"
             x="262.399806"
             xlink:href="#textext-eda55017-12" />
        </g>
        <g
           id="g3213"
           style="fill:rgb(0%,0%,0%);fill-opacity:1;">
          <use
             id="use3215"
             y="141.515"
             x="263.844383"
             xlink:href="#textext-eda55017-12" />
        </g>
        <g
           id="g3217"
           style="fill:rgb(0%,0%,0%);fill-opacity:1;">
          <use
             id="use3219"
             y="141.515"
             x="265.278997"
             xlink:href="#textext-eda55017-12" />
        </g>
        <g
           id="g3221"
           style="fill:rgb(0%,0%,0%);fill-opacity:1;">
          <use
             id="use3223"
             y="141.515"
             x="266.723574"
             xlink:href="#textext-eda55017-12" />
        </g>
        <g
           id="g3225"
           style="fill:rgb(0%,0%,0%);fill-opacity:1;">
          <use
             id="use3227"
             y="141.515"
             x="268.158189"
             xlink:href="#textext-eda55017-12" />
        </g>
        <g
           id="g3229"
           style="fill:rgb(0%,0%,0%);fill-opacity:1;">
          <use
             id="use3231"
             y="141.515"
             x="269.602766"
             xlink:href="#textext-eda55017-12" />
        </g>
        <g
           id="g3233"
           style="fill:rgb(0%,0%,0%);fill-opacity:1;">
          <use
             id="use3235"
             y="141.515"
             x="271.03738"
             xlink:href="#textext-eda55017-12" />
        </g>
        <g
           id="g3237"
           style="fill:rgb(0%,0%,0%);fill-opacity:1;">
          <use
             id="use3239"
             y="141.515"
             x="272.471994"
             xlink:href="#textext-eda55017-12" />
        </g>
        <g
           id="g3241"
           style="fill:rgb(0%,0%,0%);fill-opacity:1;">
          <use
             id="use3243"
             y="141.515"
             x="273.916571"
             xlink:href="#textext-eda55017-12" />
        </g>
        <g
           id="g3245"
           style="fill:rgb(0%,0%,0%);fill-opacity:1;">
          <use
             id="use3247"
             y="141.515"
             x="275.322"
             xlink:href="#textext-eda55017-10" />
        </g>
        <g
           id="g3249"
           style="fill:rgb(0%,0%,0%);fill-opacity:1;">
          <use
             id="use3251"
             y="150.874"
             x="250.868"
             xlink:href="#textext-eda55017-14" />
        </g>
      </g>
    </g>
  </g>
</svg>
