<?xml version="1.0" encoding="UTF-8" standalone="no"?>
<!-- Created with Inkscape (http://www.inkscape.org/) -->

<svg
   xmlns:dc="http://purl.org/dc/elements/1.1/"
   xmlns:cc="http://creativecommons.org/ns#"
   xmlns:rdf="http://www.w3.org/1999/02/22-rdf-syntax-ns#"
   xmlns:svg="http://www.w3.org/2000/svg"
   xmlns="http://www.w3.org/2000/svg"
   xmlns:sodipodi="http://sodipodi.sourceforge.net/DTD/sodipodi-0.dtd"
   xmlns:inkscape="http://www.inkscape.org/namespaces/inkscape"
   width="10cm"
   height="10cm"
   viewBox="0 0 354.33071 354.3307"
   id="svg2"
   version="1.1"
   inkscape:version="0.91 r13725"
   sodipodi:docname="exr29.svg">
  <sodipodi:namedview
     id="base"
     pagecolor="#ffffff"
     bordercolor="#666666"
     borderopacity="1.0"
     inkscape:pageopacity="0.0"
     inkscape:pageshadow="2"
     inkscape:zoom="1.7130889"
     inkscape:cx="177.16535"
     inkscape:cy="177.16535"
     inkscape:document-units="cm"
     inkscape:current-layer="layer1"
     showgrid="false"
     units="cm"
     inkscape:window-width="1366"
     inkscape:window-height="744"
     inkscape:window-x="0"
     inkscape:window-y="24"
     inkscape:window-maximized="1"
     inkscape:object-paths="true"
     inkscape:object-nodes="true">
    <inkscape:grid
       type="xygrid"
       id="grid4136" />
  </sodipodi:namedview>
  <defs
     id="defs4">
    <marker
       inkscape:isstock="true"
       style="overflow:visible"
       id="marker10920"
       refX="0.0"
       refY="0.0"
       orient="auto"
       inkscape:stockid="DotS">
      <path
         transform="scale(0.2) translate(7.4, 1)"
         style="fill-rule:evenodd;stroke:#000000;stroke-width:1pt;stroke-opacity:1;fill:#000000;fill-opacity:1"
         d="M -2.5,-1.0 C -2.5,1.7600000 -4.7400000,4.0 -7.5,4.0 C -10.260000,4.0 -12.5,1.7600000 -12.5,-1.0 C -12.5,-3.7600000 -10.260000,-6.0 -7.5,-6.0 C -4.7400000,-6.0 -2.5,-3.7600000 -2.5,-1.0 z "
         id="path10922" />
    </marker>
    <marker
       inkscape:isstock="true"
       style="overflow:visible"
       id="marker10472"
       refX="0.0"
       refY="0.0"
       orient="auto"
       inkscape:stockid="DotS">
      <path
         transform="scale(0.2) translate(7.4, 1)"
         style="fill-rule:evenodd;stroke:#000000;stroke-width:1pt;stroke-opacity:1;fill:#000000;fill-opacity:1"
         d="M -2.5,-1.0 C -2.5,1.7600000 -4.7400000,4.0 -7.5,4.0 C -10.260000,4.0 -12.5,1.7600000 -12.5,-1.0 C -12.5,-3.7600000 -10.260000,-6.0 -7.5,-6.0 C -4.7400000,-6.0 -2.5,-3.7600000 -2.5,-1.0 z "
         id="path10474" />
    </marker>
    <marker
       inkscape:isstock="true"
       style="overflow:visible"
       id="marker9928"
       refX="0.0"
       refY="0.0"
       orient="auto"
       inkscape:stockid="DotS">
      <path
         transform="scale(0.2) translate(7.4, 1)"
         style="fill-rule:evenodd;stroke:#000000;stroke-width:1pt;stroke-opacity:1;fill:#000000;fill-opacity:1"
         d="M -2.5,-1.0 C -2.5,1.7600000 -4.7400000,4.0 -7.5,4.0 C -10.260000,4.0 -12.5,1.7600000 -12.5,-1.0 C -12.5,-3.7600000 -10.260000,-6.0 -7.5,-6.0 C -4.7400000,-6.0 -2.5,-3.7600000 -2.5,-1.0 z "
         id="path9930" />
    </marker>
    <marker
       inkscape:isstock="true"
       style="overflow:visible"
       id="marker9384"
       refX="0.0"
       refY="0.0"
       orient="auto"
       inkscape:stockid="DotS">
      <path
         transform="scale(0.2) translate(7.4, 1)"
         style="fill-rule:evenodd;stroke:#000000;stroke-width:1pt;stroke-opacity:1;fill:#000000;fill-opacity:1"
         d="M -2.5,-1.0 C -2.5,1.7600000 -4.7400000,4.0 -7.5,4.0 C -10.260000,4.0 -12.5,1.7600000 -12.5,-1.0 C -12.5,-3.7600000 -10.260000,-6.0 -7.5,-6.0 C -4.7400000,-6.0 -2.5,-3.7600000 -2.5,-1.0 z "
         id="path9386" />
    </marker>
    <marker
       inkscape:isstock="true"
       style="overflow:visible"
       id="marker8906"
       refX="0.0"
       refY="0.0"
       orient="auto"
       inkscape:stockid="DotS">
      <path
         transform="scale(0.2) translate(7.4, 1)"
         style="fill-rule:evenodd;stroke:#000000;stroke-width:1pt;stroke-opacity:1;fill:#000000;fill-opacity:1"
         d="M -2.5,-1.0 C -2.5,1.7600000 -4.7400000,4.0 -7.5,4.0 C -10.260000,4.0 -12.5,1.7600000 -12.5,-1.0 C -12.5,-3.7600000 -10.260000,-6.0 -7.5,-6.0 C -4.7400000,-6.0 -2.5,-3.7600000 -2.5,-1.0 z "
         id="path8908" />
    </marker>
    <marker
       inkscape:stockid="DotS"
       orient="auto"
       refY="0.0"
       refX="0.0"
       id="marker8692"
       style="overflow:visible"
       inkscape:isstock="true">
      <path
         id="path8694"
         d="M -2.5,-1.0 C -2.5,1.7600000 -4.7400000,4.0 -7.5,4.0 C -10.260000,4.0 -12.5,1.7600000 -12.5,-1.0 C -12.5,-3.7600000 -10.260000,-6.0 -7.5,-6.0 C -4.7400000,-6.0 -2.5,-3.7600000 -2.5,-1.0 z "
         style="fill-rule:evenodd;stroke:#000000;stroke-width:1pt;stroke-opacity:1;fill:#000000;fill-opacity:1"
         transform="scale(0.2) translate(7.4, 1)" />
    </marker>
    <marker
       inkscape:stockid="DotS"
       orient="auto"
       refY="0.0"
       refX="0.0"
       id="marker7404"
       style="overflow:visible"
       inkscape:isstock="true">
      <path
         id="path7406"
         d="M -2.5,-1.0 C -2.5,1.7600000 -4.7400000,4.0 -7.5,4.0 C -10.260000,4.0 -12.5,1.7600000 -12.5,-1.0 C -12.5,-3.7600000 -10.260000,-6.0 -7.5,-6.0 C -4.7400000,-6.0 -2.5,-3.7600000 -2.5,-1.0 z "
         style="fill-rule:evenodd;stroke:#000000;stroke-width:1pt;stroke-opacity:1;fill:#000000;fill-opacity:1"
         transform="scale(0.2) translate(7.4, 1)" />
    </marker>
    <marker
       inkscape:stockid="DotS"
       orient="auto"
       refY="0.0"
       refX="0.0"
       id="marker7028"
       style="overflow:visible"
       inkscape:isstock="true">
      <path
         id="path7030"
         d="M -2.5,-1.0 C -2.5,1.7600000 -4.7400000,4.0 -7.5,4.0 C -10.260000,4.0 -12.5,1.7600000 -12.5,-1.0 C -12.5,-3.7600000 -10.260000,-6.0 -7.5,-6.0 C -4.7400000,-6.0 -2.5,-3.7600000 -2.5,-1.0 z "
         style="fill-rule:evenodd;stroke:#000000;stroke-width:1pt;stroke-opacity:1;fill:#000000;fill-opacity:1"
         transform="scale(0.2) translate(7.4, 1)" />
    </marker>
    <marker
       inkscape:isstock="true"
       style="overflow:visible"
       id="marker6220"
       refX="0.0"
       refY="0.0"
       orient="auto"
       inkscape:stockid="DotS">
      <path
         transform="scale(0.2) translate(7.4, 1)"
         style="fill-rule:evenodd;stroke:#000000;stroke-width:1pt;stroke-opacity:1;fill:#000000;fill-opacity:1"
         d="M -2.5,-1.0 C -2.5,1.7600000 -4.7400000,4.0 -7.5,4.0 C -10.260000,4.0 -12.5,1.7600000 -12.5,-1.0 C -12.5,-3.7600000 -10.260000,-6.0 -7.5,-6.0 C -4.7400000,-6.0 -2.5,-3.7600000 -2.5,-1.0 z "
         id="path6222" />
    </marker>
    <marker
       inkscape:isstock="true"
       style="overflow:visible"
       id="marker4696"
       refX="0.0"
       refY="0.0"
       orient="auto"
       inkscape:stockid="DotS">
      <path
         transform="scale(0.2) translate(7.4, 1)"
         style="fill-rule:evenodd;stroke:#000000;stroke-width:1pt;stroke-opacity:1;fill:#000000;fill-opacity:1"
         d="M -2.5,-1.0 C -2.5,1.7600000 -4.7400000,4.0 -7.5,4.0 C -10.260000,4.0 -12.5,1.7600000 -12.5,-1.0 C -12.5,-3.7600000 -10.260000,-6.0 -7.5,-6.0 C -4.7400000,-6.0 -2.5,-3.7600000 -2.5,-1.0 z "
         id="path4698" />
    </marker>
    <marker
       inkscape:stockid="DotM"
       orient="auto"
       refY="0.0"
       refX="0.0"
       id="DotM"
       style="overflow:visible"
       inkscape:isstock="true">
      <path
         id="path4264"
         d="M -2.5,-1.0 C -2.5,1.7600000 -4.7400000,4.0 -7.5,4.0 C -10.260000,4.0 -12.5,1.7600000 -12.5,-1.0 C -12.5,-3.7600000 -10.260000,-6.0 -7.5,-6.0 C -4.7400000,-6.0 -2.5,-3.7600000 -2.5,-1.0 z "
         style="fill-rule:evenodd;stroke:#000000;stroke-width:1pt;stroke-opacity:1;fill:#000000;fill-opacity:1"
         transform="scale(0.4) translate(7.4, 1)" />
    </marker>
  </defs>
  <metadata
     id="metadata7">
    <rdf:RDF>
      <cc:Work
         rdf:about="">
        <dc:format>image/svg+xml</dc:format>
        <dc:type
           rdf:resource="http://purl.org/dc/dcmitype/StillImage" />
        <dc:title></dc:title>
      </cc:Work>
    </rdf:RDF>
  </metadata>
  <g
     inkscape:label="Layer 1"
     inkscape:groupmode="layer"
     id="layer1"
     transform="translate(0,-698.03152)">
    <path
       inkscape:transform-center-y="-3.9421192"
       d="m 192.41058,837.36224 -92.41057,0 46.20528,-80.0299 z"
       inkscape:randomized="0"
       inkscape:rounded="0"
       inkscape:flatsided="true"
       sodipodi:arg2="1.5707963"
       sodipodi:arg1="0.52359878"
       sodipodi:r2="9.0138779"
       sodipodi:r1="53.353268"
       sodipodi:cy="810.68561"
       sodipodi:cx="146.20529"
       sodipodi:sides="3"
       id="path4551"
       style="fill:none;fill-opacity:1;stroke:#000000;stroke-width:1.28483653;stroke-linecap:round;stroke-linejoin:round;stroke-miterlimit:4;stroke-dasharray:none;stroke-dashoffset:0;stroke-opacity:1"
       sodipodi:type="star"
       transform="matrix(1.0821272,0,0,0.87467343,-8.2127225,104.94374)" />
    <path
       transform="matrix(1.0821272,0,0,-0.87467343,-8.2127225,1524.7807)"
       sodipodi:type="star"
       style="fill:none;fill-opacity:1;stroke:#000000;stroke-width:1.28483653;stroke-linecap:round;stroke-linejoin:round;stroke-miterlimit:4;stroke-dasharray:none;stroke-dashoffset:0;stroke-opacity:1"
       id="path4591"
       sodipodi:sides="3"
       sodipodi:cx="146.20529"
       sodipodi:cy="810.68561"
       sodipodi:r1="53.353268"
       sodipodi:r2="9.0138779"
       sodipodi:arg1="0.52359878"
       sodipodi:arg2="1.5707963"
       inkscape:flatsided="true"
       inkscape:rounded="0"
       inkscape:randomized="0"
       d="m 192.41058,837.36224 -92.41057,0 46.20528,-80.0299 z"
       inkscape:transform-center-y="3.942143" />
    <path
       style="fill:none;fill-opacity:1;stroke:#000000;stroke-width:1.24015749;stroke-linecap:round;stroke-linejoin:round;stroke-miterlimit:4;stroke-dasharray:none;stroke-dashoffset:0;stroke-opacity:1"
       d="m 131.67271,837.36224 36.30855,-44.82625"
       id="path4224"
       inkscape:connector-curvature="0" />
    <path
       inkscape:connector-curvature="0"
       id="path4226"
       d="M 167.98126,837.36224 131.67271,792.53599"
       style="fill:none;fill-opacity:1;stroke:#000000;stroke-width:1.24015749;stroke-linecap:round;stroke-linejoin:round;stroke-miterlimit:4;stroke-dasharray:none;stroke-dashoffset:0;stroke-opacity:1" />
    <path
       style="fill:none;fill-opacity:1;stroke:#000000;stroke-width:1.24015749;stroke-linecap:round;stroke-linejoin:round;stroke-miterlimit:4;stroke-dasharray:none;stroke-dashoffset:0;stroke-opacity:1"
       d="m 115.92303,814.65444 67.85712,0"
       id="path4228"
       inkscape:connector-curvature="0" />
    <path
       style="font-style:normal;font-variant:normal;font-weight:normal;font-stretch:normal;letter-spacing:normal;word-spacing:normal;text-anchor:start;fill:#000000;fill-opacity:1;fill-rule:evenodd;stroke:#000000;stroke-width:0;stroke-linecap:butt;stroke-linejoin:miter;stroke-miterlimit:10.43299961;stroke-dasharray:none;stroke-dashoffset:0;stroke-opacity:1"
       inkscape:connector-curvature="0"
       d="m 90.607459,794.16721 -0.048,0.072 -0.048,0.072 -0.048,0.072 -0.036,0.06 -0.048,0.06 -0.048,0.048 -0.036,0.06 -0.048,0.048 -0.048,0.048 -0.048,0.048 -0.036,0.036 -0.048,0.036 -0.048,0.036 -0.048,0.036 -0.036,0.036 -0.048,0.024 -0.048,0.024 -0.048,0.024 -0.048,0.024 -0.036,0.024 -0.048,0.012 -0.048,0.024 -0.048,0.012 -0.048,0.012 -0.048,0.012 -0.048,0.012 -0.048,0.012 -0.048,0 -0.096,0.012 -0.096,0.012 c -0.144,0.012 -0.252,0.012 -0.252,0.24 0,0.072 0.06,0.132 0.156,0.132 0.324,0 0.696,-0.036 1.032,-0.036 0.396,0 0.816,0.036 1.188,0.036 0.072,0 0.228,0 0.228,-0.228 0,-0.132 -0.108,-0.144 -0.192,-0.144 -0.276,-0.024 -0.564,-0.12 -0.564,-0.42 0,-0.144 0.072,-0.276 0.168,-0.444 l 0.912,-1.524 3,0 -0.036,-0.372 -2.736,0 2.352,-3.948 0.384,3.948 0.036,0.372 c 0.024,0.24 0.192,1.872 0.192,1.992 0,0.36 -0.624,0.396 -0.864,0.396 -0.168,0 -0.276,0 -0.276,0.24 0,0.132 0.132,0.132 0.168,0.132 0.48,0 0.996,-0.036 1.488,-0.036 0.3,0 1.056,0.036 1.356,0.036 0.072,0 0.216,0 0.216,-0.24 0,-0.132 -0.12,-0.132 -0.276,-0.132 -0.744,0 -0.744,-0.084 -0.78,-0.432 l -0.732,-7.476 c -0.024,-0.24 -0.024,-0.288 -0.228,-0.288 -0.192,0 -0.24,0.084 -0.312,0.204 z"
       id="path5454-7" />
    <path
       style="font-style:normal;font-variant:normal;font-weight:normal;font-stretch:normal;letter-spacing:normal;word-spacing:normal;text-anchor:start;fill:#000000;fill-opacity:1;fill-rule:evenodd;stroke:#000000;stroke-width:0;stroke-linecap:butt;stroke-linejoin:miter;stroke-miterlimit:10.43299961;stroke-dasharray:none;stroke-dashoffset:0;stroke-opacity:1"
       inkscape:connector-curvature="0"
       d="m 203.09088,794.35833 -0.012,0.048 -0.012,0.036 -0.012,0.036 -0.012,0.036 -0.012,0.036 -0.012,0.036 -0.012,0.024 -0.012,0.036 -0.012,0.024 -0.012,0.024 -0.012,0.024 -0.024,0.024 -0.012,0.024 -0.024,0.012 -0.024,0.024 -0.024,0.012 -0.024,0.012 -0.036,0.012 -0.024,0.012 -0.036,0.012 -0.048,0.012 -0.012,0.012 -0.024,0 -0.024,0 -0.024,0 -0.024,0.012 -0.024,0 -0.024,0 -0.024,0.012 -0.036,0 -0.024,0 -0.036,0 -0.024,0 -0.036,0 -0.036,0 -0.036,0.012 -0.036,0 -0.036,0 -0.036,0 -0.036,0 -0.048,0 -0.036,0 -0.048,0 c -0.204,0 -0.324,0 -0.324,0.24 0,0.132 0.108,0.132 0.324,0.132 l 4.272,0 c 1.884,0 3.3,-1.416 3.3,-2.58 0,-0.864 -0.696,-1.56 -1.86,-1.692 1.248,-0.228 2.496,-1.116 2.496,-2.244 0,-0.888 -0.78,-1.656 -2.22,-1.656 l -0.168,0.372 c 1.056,0 1.308,0.708 1.308,1.236 0,1.044 -1.032,2.184 -2.484,2.184 l -1.752,0 -0.072,0.264 2.256,0 c 1.152,0 1.38,0.888 1.38,1.404 0,1.176 -1.068,2.34 -2.472,2.34 l -1.632,0 c -0.168,0 -0.192,0 -0.264,-0.012 -0.12,-0.012 -0.156,-0.024 -0.156,-0.12 0,-0.036 0,-0.06 0.06,-0.276 l 0.828,-3.336 0.072,-0.264 0.744,-2.964 c 0.108,-0.42 0.132,-0.456 0.648,-0.456 l 1.536,0 0.168,-0.372 -4.02,0 c -0.228,0 -0.336,0 -0.336,0.24 0,0.132 0.108,0.132 0.324,0.132 0.024,0 0.252,0 0.456,0.024 0.216,0.024 0.324,0.036 0.324,0.192 0,0.048 -0.012,0.084 -0.048,0.228 z"
       id="path5456-5" />
    <path
       style="font-style:normal;font-variant:normal;font-weight:normal;font-stretch:normal;letter-spacing:normal;word-spacing:normal;text-anchor:start;fill:#000000;fill-opacity:1;fill-rule:evenodd;stroke:#000000;stroke-width:0;stroke-linecap:butt;stroke-linejoin:miter;stroke-miterlimit:10.43299961;stroke-dasharray:none;stroke-dashoffset:0;stroke-opacity:1"
       inkscape:connector-curvature="0"
       d="m 97.925045,833.96947 0,0 0,0 0,-0.012 0,0 0,0 0,-0.012 0,0 -0.012,0 0,-0.012 0,0 0,-0.012 0,0 0,-0.012 -0.012,0 0,0 0,-0.012 -0.012,0 0,-0.012 0,0 -0.012,0 0,-0.012 -0.012,0 0,0 -0.012,0 0,-0.012 0,0 -0.012,0 0,0 0,0 -0.012,0 0,0 0,0 -0.012,0 0,0 0,-0.012 -0.012,0 0,0 -0.012,0 0,0 c -0.036,0 -0.048,0.012 -0.18,0.144 l -0.84,0.924 c -0.108,-0.168 -0.66,-1.068 -1.98,-1.068 -2.664,0 -5.352,2.652 -5.352,5.42398 0,1.96798 1.404,3.27598 3.24,3.27598 1.032,0 1.944,-0.48 2.58,-1.032 1.104,-0.984 1.308,-2.064 1.308,-2.1 0,-0.11998 -0.12,-0.11998 -0.144,-0.11998 -0.072,0 -0.132,0.024 -0.156,0.11998 -0.096,0.348 -0.372,1.188 -1.2,1.884 -0.828,0.672 -1.584,0.876 -2.196,0.876 -1.08,0 -2.352,-0.624 -2.352,-2.484 0,-0.68398 0.252,-2.62796 1.452,-4.01996 0.732,-0.852 1.848,-1.452 2.916,-1.452 1.212,0 1.92,0.924 1.92,2.316 0,0.468 -0.036,0.48 -0.036,0.6 0,0.12 0.132,0.12 0.18,0.12 0.156,0 0.156,-0.024 0.216,-0.24 z"
       id="path5458-9" />
    <path
       style="font-style:normal;font-variant:normal;font-weight:normal;font-stretch:normal;letter-spacing:normal;word-spacing:normal;text-anchor:start;fill:#000000;fill-opacity:1;fill-rule:evenodd;stroke:#000000;stroke-width:0;stroke-linecap:butt;stroke-linejoin:miter;stroke-miterlimit:10.43299961;stroke-dasharray:none;stroke-dashoffset:0;stroke-opacity:1"
       inkscape:connector-curvature="0"
       d="m 201.8744,840.43486 -0.012,0.048 -0.012,0.036 -0.012,0.036 -0.012,0.036 -0.012,0.036 0,0.036 -0.012,0.024 -0.012,0.036 -0.024,0.024 -0.012,0.024 -0.012,0.024 -0.012,0.024 -0.024,0.024 -0.024,0.012 -0.024,0.024 -0.024,0.012 -0.024,0.012 -0.024,0.012 -0.036,0.012 -0.036,0.012 -0.036,0.012 -0.024,0.012 -0.024,0 -0.024,0 -0.024,0 -0.024,0.012 -0.024,0 -0.024,0 -0.024,0.012 -0.036,0 -0.024,0 -0.036,0 -0.024,0 -0.036,0 -0.036,0 -0.036,0.012 -0.036,0 -0.036,0 -0.036,0 -0.036,0 -0.048,0 -0.036,0 -0.048,0 c -0.204,0 -0.336,0 -0.336,0.228 0,0.144 0.108,0.144 0.336,0.144 l 3.96,0 -0.216,-0.372 -1.356,0 c -0.156,0 -0.18,0 -0.252,-0.012 -0.12,-0.012 -0.156,-0.024 -0.156,-0.12 0,-0.036 0,-0.06 0.06,-0.276 l 1.632,-6.564 c 0.108,-0.42 0.132,-0.456 0.648,-0.456 l 1.272,0 c 1.176,0 2.172,0.636 2.172,2.208 0,0.588 -0.24,2.556 -1.26,3.864 -0.348,0.444 -1.284,1.356 -2.76,1.356 l 0.216,0.372 c 2.484,0 4.836,-2.52 4.836,-5.148 0,-1.68 -1.008,-3.024 -2.808,-3.024 l -4.008,0 c -0.228,0 -0.36,0 -0.36,0.228 0,0.144 0.108,0.144 0.348,0.144 0.156,0 0.36,0.012 0.516,0.024 0.18,0.024 0.252,0.06 0.252,0.192 0,0.048 -0.012,0.084 -0.048,0.228 z"
       id="path5460-2" />
    <path
       style="font-style:normal;font-variant:normal;font-weight:normal;font-stretch:normal;letter-spacing:normal;word-spacing:normal;text-anchor:start;fill:#000000;fill-opacity:1;fill-rule:evenodd;stroke:#000000;stroke-width:0;stroke-linecap:butt;stroke-linejoin:miter;stroke-miterlimit:10.43299961;stroke-dasharray:none;stroke-dashoffset:0;stroke-opacity:1"
       inkscape:connector-curvature="0"
       d="m 154.86556,758.45503 0.012,-0.036 0.012,-0.036 0,-0.036 0.012,-0.036 0.012,-0.036 0.012,-0.036 0.012,-0.024 0.012,-0.024 0.012,-0.024 0.012,-0.024 0.012,-0.024 0.012,-0.024 0.024,-0.024 0.012,-0.012 0.024,-0.024 0.024,-0.012 0.024,-0.024 0.036,-0.012 0.024,-0.012 0.036,-0.012 0.036,-0.012 0.024,0 0.024,0 0.012,-0.012 0.024,0 0.024,0 0.024,-0.012 0.024,0 0.024,0 0.036,0 0.024,-0.012 0.024,0 0.036,0 0.024,0 0.036,0 0.036,0 0.036,-0.012 0.024,0 0.048,0 0.036,0 0.036,0 0.036,0 0.048,0 c 0.276,0 0.384,0 0.384,-0.24 0,-0.132 -0.12,-0.132 -0.324,-0.132 l -1.584,0 c -0.312,0 -0.324,0 -0.468,0.228 l -4.35599,6.816 -0.936,-6.768 c -0.036,-0.276 -0.06,-0.276 -0.372,-0.276 l -1.632,0 c -0.228,0 -0.36,0 -0.36,0.228 0,0.144 0.108,0.144 0.348,0.144 0.156,0 0.372,0.012 0.516,0.024 0.18,0.024 0.252,0.06 0.252,0.192 0,0.048 -0.012,0.084 -0.048,0.228 l -1.512,6.084 c -0.12,0.48 -0.324,0.864 -1.296,0.9 -0.06,0 -0.216,0.012 -0.216,0.228 0,0.108 0.072,0.144 0.168,0.144 0.384,0 0.804,-0.036 1.2,-0.036 0.408,0 0.84,0.036 1.236,0.036 0.048,0 0.216,0 0.216,-0.24 0,-0.132 -0.144,-0.132 -0.216,-0.132 -0.684,-0.012 -0.816,-0.252 -0.816,-0.528 0,-0.084 0.012,-0.144 0.048,-0.276 l 1.62,-6.516 0.012,0 1.032,7.416 c 0.024,0.144 0.036,0.276 0.18,0.276 0.132,0 0.204,-0.132 0.264,-0.216 l 4.82399,-7.572 0.012,0 -1.704,6.852 c -0.12,0.468 -0.144,0.564 -1.09199,0.564 -0.20401,0 -0.33601,0 -0.33601,0.228 0,0.144 0.144,0.144 0.18,0.144 0.33601,0 1.152,-0.036 1.488,-0.036 0.49201,0 0.996,0.036 1.488,0.036 0.072,0 0.22801,0 0.22801,-0.24 0,-0.132 -0.108,-0.132 -0.33601,-0.132 -0.444,0 -0.76799,0 -0.76799,-0.216 0,-0.048 0,-0.072 0.048,-0.288 z"
       id="path5478" />
    <path
       style="font-style:normal;font-variant:normal;font-weight:normal;font-stretch:normal;letter-spacing:normal;word-spacing:normal;text-anchor:start;fill:#000000;fill-opacity:1;fill-rule:evenodd;stroke:#000000;stroke-width:0;stroke-linecap:butt;stroke-linejoin:miter;stroke-miterlimit:10.43299961;stroke-dasharray:none;stroke-dashoffset:0;stroke-opacity:1"
       inkscape:connector-curvature="0"
       d="m 154.01623,865.6156 0.024,-0.084 0.012,-0.048 0.012,-0.048 0.024,-0.036 0.012,-0.036 0.012,-0.048 0.024,-0.036 0.024,-0.036 0.012,-0.036 0.024,-0.036 0.036,-0.036 0.024,-0.036 0.024,-0.036 0.036,-0.024 0.036,-0.036 0.036,-0.024 0.036,-0.024 0.048,-0.036 0.036,-0.024 0.048,-0.024 0.06,-0.012 0.048,-0.024 0.06,-0.024 0.06,-0.012 0.06,-0.012 0.072,-0.012 0.072,-0.012 0.072,-0.012 0.084,-0.012 0.084,0 0.036,-0.012 0.048,0 c 0.06,0 0.204,-0.012 0.204,-0.24 0,-0.012 0,-0.132 -0.156,-0.132 -0.396,0 -0.816,0.036 -1.212,0.036 -0.408,0 -0.828,-0.036 -1.224,-0.036 -0.06,0 -0.204,0 -0.204,0.24 0,0.132 0.12,0.132 0.204,0.132 0.68401,0.012 0.816,0.264 0.816,0.528 0,0.036 -0.024,0.216 -0.036,0.252 l -1.332,5.316 -2.64,-6.24 c -0.108,-0.216 -0.108,-0.228 -0.384,-0.228 l -1.608,0 c -0.24,0 -0.348,0 -0.348,0.24 0,0.132 0.108,0.132 0.336,0.132 0.06,0 0.816,0 0.816,0.108 l -1.608,6.42 c -0.12,0.48 -0.324,0.864 -1.284,0.9 -0.072,0 -0.204,0.012 -0.204,0.24 0,0.084 0.06,0.132 0.156,0.132 0.384,0 0.804,-0.036 1.188,-0.036 0.408,0 0.84,0.036 1.236,0.036 0.06,0 0.216,0 0.216,-0.24 0,-0.12 -0.108,-0.132 -0.24,-0.132 -0.696,-0.024 -0.792,-0.288 -0.792,-0.528 0,-0.084 0.012,-0.144 0.048,-0.276 l 1.584,-6.312 c 0.048,0.072 0.048,0.096 0.108,0.216 l 2.976,7.044 c 0.084,0.204 0.12,0.228 0.228,0.228 0.132,0 0.132,-0.036 0.192,-0.252 z"
       id="path5480" />
    <path
       style="font-style:normal;font-variant:normal;font-weight:normal;font-stretch:normal;letter-spacing:normal;word-spacing:normal;text-anchor:start;fill:#000000;fill-opacity:1;fill-rule:evenodd;stroke:#000000;stroke-width:0;stroke-linecap:butt;stroke-linejoin:miter;stroke-miterlimit:10.43299961;stroke-dasharray:none;stroke-dashoffset:0;stroke-opacity:1"
       inkscape:connector-curvature="0"
       d="m 126.79109,786.3611 0.048,-0.312 0.816,-3.252 c 0.108,-0.42 0.132,-0.456 0.648,-0.456 l 1.152,0 c 0.984,0 1.62,0.324 1.62,1.152 0,0.468 -0.24,1.488 -0.708,1.92 -0.6,0.54 -1.308,0.636 -1.836,0.636 l -1.692,0 -0.048,0.312 2.04,0 c 1.692,0 3.36,-1.248 3.36,-2.58 0,-0.924 -0.792,-1.812 -2.364,-1.812 l -3.864,0 c -0.228,0 -0.36,0 -0.36,0.228 0,0.144 0.108,0.144 0.348,0.144 0.156,0 0.36,0.012 0.516,0.024 0.18,0.024 0.252,0.06 0.252,0.192 0,0.048 -0.012,0.084 -0.048,0.228 l -1.596,6.42 c -0.12,0.468 -0.144,0.564 -1.092,0.564 -0.204,0 -0.336,0 -0.336,0.228 0,0.144 0.144,0.144 0.18,0.144 0.336,0 1.188,-0.036 1.524,-0.036 0.252,0 0.516,0.012 0.768,0.012 0.264,0 0.516,0.024 0.768,0.024 0.084,0 0.24,0 0.24,-0.24 0,-0.132 -0.108,-0.132 -0.336,-0.132 -0.444,0 -0.768,0 -0.768,-0.216 0,-0.072 0.024,-0.132 0.036,-0.204 z"
       id="path5484" />
    <path
       style="font-style:normal;font-variant:normal;font-weight:normal;font-stretch:normal;letter-spacing:normal;word-spacing:normal;text-anchor:start;fill:#000000;fill-opacity:1;fill-rule:evenodd;stroke:#000000;stroke-width:0;stroke-linecap:butt;stroke-linejoin:miter;stroke-miterlimit:10.43299961;stroke-dasharray:none;stroke-dashoffset:0;stroke-opacity:1"
       inkscape:connector-curvature="0"
       d="m 174.23901,788.35687 0.18,-0.072 0.168,-0.084 0.18,-0.084 0.168,-0.096 0.168,-0.096 0.156,-0.108 0.168,-0.12 0.168,-0.12 0.15601,-0.132 0.156,-0.132 0.144,-0.144 0.144,-0.144 0.144,-0.156 0.144,-0.156 0.132,-0.156 0.132,-0.168 0.12,-0.18 0.12,-0.168 0.108,-0.192 0.108,-0.18 0.096,-0.192 0.096,-0.192 0.084,-0.192 0.072,-0.204 0.072,-0.204 0.06,-0.204 0.048,-0.204 0.048,-0.204 0.024,-0.216 0.036,-0.216 0.012,-0.216 0,-0.216 c 0,-1.92 -1.26,-3.216 -3.048,-3.216 -2.58,0 -5.208,2.712 -5.208,5.508 0,1.98 1.332,3.192 3.06,3.192 l 0.072,-0.3 c -0.168,0 -0.552,0 -0.552,-0.516 0,-0.48 0.456,-0.96 0.96,-0.96 l 0,-0.264 c -0.63601,0 -1.224,0.6 -1.224,1.224 0,0.24 0.072,0.372 0.072,0.384 l 0,0 c -0.936,-0.372 -1.344,-1.308 -1.344,-2.376 0,-0.828 0.312,-2.532 1.224,-3.816 0.876,-1.224 2.004,-1.776 2.868,-1.776 1.2,0 2.076,0.936 2.076,2.544 0,1.188 -0.612,3.984 -2.628,5.112 -0.06,-0.42 -0.18,-1.296 -1.044,-1.296 l 0,0.264 c 0.504,0 0.732,0.288 0.732,1.02 0,0.18 -0.012,0.192 -0.144,0.24 -0.3,0.132 -0.66,0.216 -0.996,0.216 l 0,0 -0.072,0.3 c 0.3,0 0.708,-0.048 1.176,-0.18 -0.048,0.744 -0.048,0.768 -0.048,0.912 0,0.384 0,1.32 0.984,1.32 1.428,0 2.004,-2.184 2.004,-2.316 0,-0.084 -0.084,-0.12 -0.132,-0.12 -0.096,0 -0.12,0.06 -0.144,0.132 -0.288,0.84 -0.984,1.14 -1.404,1.14 -0.552,0 -0.732,-0.312 -0.852,-1.224 z"
       id="path5486" />
    <path
       style="font-style:normal;font-variant:normal;font-weight:normal;font-stretch:normal;letter-spacing:normal;word-spacing:normal;text-anchor:start;fill:#000000;fill-opacity:1;fill-rule:evenodd;stroke:#000000;stroke-width:0;stroke-linecap:butt;stroke-linejoin:miter;stroke-miterlimit:10.43299961;stroke-dasharray:none;stroke-dashoffset:0;stroke-opacity:1"
       inkscape:connector-curvature="0"
       d="m 128.42553,843.13208 0.108,-0.024 0.12,-0.036 0.108,-0.024 0.12,-0.036 0.12,-0.048 0.108,-0.036 0.12,-0.048 0.108,-0.048 0.12,-0.048 0.108,-0.06 0.108,-0.06 0.108,-0.06 0.108,-0.06 0.096,-0.072 0.108,-0.072 0.096,-0.072 0.096,-0.072 0.084,-0.072 0.084,-0.084 0.084,-0.084 0.072,-0.084 0.072,-0.084 0.072,-0.096 0.06,-0.096 0.048,-0.096 0.048,-0.096 0.048,-0.096 0.024,-0.108 0.036,-0.108 0.012,-0.108 0.012,-0.108 0.012,-0.108 c 0,-1.032 -1.07999,-1.8 -2.63999,-1.8 l -3.40801,0 c -0.24,0 -0.348,0 -0.348,0.24 0,0.132 0.108,0.132 0.336,0.132 0.024,0 0.25201,0 0.44401,0.024 0.216,0.024 0.324,0.036 0.324,0.192 0,0.048 -0.012,0.084 -0.048,0.228 l -1.596,6.42 c -0.12,0.468 -0.144,0.564 -1.092,0.564 -0.216,0 -0.32399,0 -0.32399,0.24 0,0.132 0.14399,0.132 0.16799,0.132 0.336,0 1.176,-0.036 1.512,-0.036 0.336,0 1.188,0.036 1.512,0.036 0.096,0 0.24,0 0.24,-0.24 0,-0.132 -0.108,-0.132 -0.336,-0.132 -0.444,0 -0.768,0 -0.768,-0.216 0,-0.072 0.024,-0.132 0.036,-0.204 l 0.78,-3.168 1.428,0 -0.012,-0.264 -1.344,0 0.78,-3.12 c 0.072,-0.288 0.108,-0.408 0.336,-0.444 0.108,-0.012 0.492,-0.012 0.732,-0.012 0.852,0 2.172,0 2.172,1.188 0,0.408 -0.192,1.224 -0.66,1.692 -0.312,0.312 -0.936,0.696 -2.016,0.696 l 0.012,0.264 c 1.092,0 1.296,0.672 1.296,1.092 0,0.18 -0.096,0.552 -0.156,0.816 -0.084,0.336 -0.192,0.78 -0.192,1.02 0,1.296 1.42799,1.296 1.584,1.296 1.01999,0 1.44,-1.212 1.44,-1.38 0,-0.144 -0.13201,-0.144 -0.14401,-0.144 -0.108,0 -0.132,0.084 -0.156,0.168 -0.3,0.888 -0.81599,1.092 -1.09199,1.092 -0.39601,0 -0.48001,-0.264 -0.48001,-0.732 0,-0.372 0.072,-0.984 0.12,-1.368 0.024,-0.168 0.048,-0.396 0.048,-0.552 0,-0.924 -0.79199,-1.296 -1.11599,-1.416 z"
       id="path5488" />
    <path
       style="font-style:normal;font-variant:normal;font-weight:normal;font-stretch:normal;letter-spacing:normal;word-spacing:normal;text-anchor:start;fill:#000000;fill-opacity:1;fill-rule:evenodd;stroke:#000000;stroke-width:0;stroke-linecap:butt;stroke-linejoin:miter;stroke-miterlimit:10.43299961;stroke-dasharray:none;stroke-dashoffset:0;stroke-opacity:1"
       inkscape:connector-curvature="0"
       d="m 174.25423,839.12351 0,0 0,0 0,-0.012 0,0 0,0 0,-0.012 0,0 0,0 0,-0.012 0,0 -0.012,-0.012 0,0 0,-0.012 0,0 -0.012,0 0,-0.012 0,0 0,-0.012 -0.012,0 0,0 -0.012,-0.012 0,0 -0.012,0 0,0 -0.012,-0.012 0,0 0,0 -0.012,0 0,0 0,0 -0.012,0 0,0 0,0 -0.012,0 0,-0.012 0,0 -0.012,0 0,0 -0.012,0 c -0.06,0 -0.072,0.012 -0.216,0.18 l -0.564,0.684 c -0.312,-0.564 -0.936,-0.864 -1.716,-0.864 -1.512,0 -2.952,1.38 -2.952,2.832 0,0.96 0.636,1.512 1.248,1.692 l 1.272,0.336 c 0.444,0.108 1.104,0.288 1.104,1.272 0,1.068 -0.984,2.196 -2.148,2.196 -0.768,0 -2.1,-0.264 -2.1,-1.752 0,-0.288 0.06,-0.576 0.072,-0.648 0.012,-0.036 0.024,-0.06 0.024,-0.072 0,-0.12 -0.084,-0.132 -0.144,-0.132 -0.06,0 -0.084,0.012 -0.12,0.048 -0.048,0.048 -0.708,2.772 -0.708,2.808 0,0.072 0.048,0.12 0.12,0.12 0.072,0 0.084,-0.012 0.216,-0.18 l 0.588,-0.684 c 0.516,0.696 1.332,0.864 2.028,0.864 1.62,0 3.036,-1.596 3.036,-3.072 0,-0.828 -0.408,-1.236 -0.588,-1.404 -0.276,-0.276 -0.456,-0.324 -1.524,-0.6 -0.264,-0.072 -0.684,-0.192 -0.792,-0.216 -0.324,-0.108 -0.732,-0.444 -0.732,-1.08 0,-0.972 0.96,-1.992 2.088,-1.992 0.996,0 1.728,0.516 1.728,1.86 0,0.384 -0.048,0.588 -0.048,0.66 0,0.012 0,0.132 0.144,0.132 0.12,0 0.132,-0.048 0.168,-0.24 z"
       id="path5490" />
    <path
       style="font-style:normal;font-variant:normal;font-weight:normal;font-stretch:normal;letter-spacing:normal;word-spacing:normal;text-anchor:start;fill:#000000;fill-opacity:1;fill-rule:evenodd;stroke:#000000;stroke-width:0;stroke-linecap:butt;stroke-linejoin:miter;stroke-miterlimit:10.43299961;stroke-dasharray:none;stroke-dashoffset:0;stroke-opacity:1"
       inkscape:connector-curvature="0"
       d="m 153.4465,822.34885 0,-0.168 -0.012,-0.18 -0.024,-0.168 -0.024,-0.168 -0.024,-0.168 -0.048,-0.156 -0.036,-0.156 -0.06,-0.144 -0.048,-0.144 -0.072,-0.144 -0.072,-0.132 -0.072,-0.132 -0.084,-0.12 -0.084,-0.12 -0.096,-0.12 -0.096,-0.108 -0.108,-0.096 -0.108,-0.096 -0.108,-0.096 -0.12,-0.084 -0.12,-0.084 -0.132,-0.072 -0.132,-0.06 -0.144,-0.06 -0.132,-0.06 -0.144,-0.048 -0.156,-0.036 -0.144,-0.036 -0.156,-0.024 -0.156,-0.012 -0.168,-0.012 -0.168,-0.012 -0.072,0.3 c 0.984,0 2.064,0.672 2.064,2.46 0,0.852 -0.324,2.724 -1.512,4.188 -0.576,0.732 -1.56,1.44 -2.556,1.44 l 0,0 c -1.188,0 -2.016,-0.972 -2.016,-2.544 0,-0.528 0.156,-2.28 1.08,-3.672 0.828,-1.248 2.004,-1.872 2.94,-1.872 l 0.072,-0.3 c -2.58,0 -5.208,2.712 -5.208,5.508 0,1.98 1.332,3.192 3.06,3.192 2.532,0 5.196,-2.628 5.196,-5.484 z"
       id="path5482" />
  </g>
</svg>
