<?xml version="1.0" encoding="UTF-8" standalone="no"?>
<!-- Created with Inkscape (http://www.inkscape.org/) -->

<svg
   xmlns:dc="http://purl.org/dc/elements/1.1/"
   xmlns:cc="http://creativecommons.org/ns#"
   xmlns:rdf="http://www.w3.org/1999/02/22-rdf-syntax-ns#"
   xmlns:svg="http://www.w3.org/2000/svg"
   xmlns="http://www.w3.org/2000/svg"
   xmlns:sodipodi="http://sodipodi.sourceforge.net/DTD/sodipodi-0.dtd"
   xmlns:inkscape="http://www.inkscape.org/namespaces/inkscape"
   width="10cm"
   height="10cm"
   viewBox="0 0 354.33071 354.3307"
   id="svg2"
   version="1.1"
   inkscape:version="0.91 r13725"
   sodipodi:docname="exr7.svg">
  <sodipodi:namedview
     id="base"
     pagecolor="#ffffff"
     bordercolor="#666666"
     borderopacity="1.0"
     inkscape:pageopacity="0.0"
     inkscape:pageshadow="2"
     inkscape:zoom="0.89102466"
     inkscape:cx="12.432345"
     inkscape:cy="114.62416"
     inkscape:document-units="cm"
     inkscape:current-layer="layer1"
     showgrid="false"
     units="cm"
     inkscape:window-width="1366"
     inkscape:window-height="744"
     inkscape:window-x="0"
     inkscape:window-y="24"
     inkscape:window-maximized="1"
     inkscape:object-paths="true"
     inkscape:object-nodes="true">
    <inkscape:grid
       type="xygrid"
       id="grid4136" />
  </sodipodi:namedview>
  <defs
     id="defs4" />
  <metadata
     id="metadata7">
    <rdf:RDF>
      <cc:Work
         rdf:about="">
        <dc:format>image/svg+xml</dc:format>
        <dc:type
           rdf:resource="http://purl.org/dc/dcmitype/StillImage" />
        <dc:title></dc:title>
      </cc:Work>
    </rdf:RDF>
  </metadata>
  <g
     inkscape:label="Layer 1"
     inkscape:groupmode="layer"
     id="layer1"
     transform="translate(0,-698.03152)">
    <text
       xml:space="preserve"
       style="font-style:normal;font-variant:normal;font-weight:normal;font-stretch:normal;font-size:15px;line-height:125%;font-family:LMRoman12;-inkscape-font-specification:'LMRoman12, Normal';text-align:start;letter-spacing:0px;word-spacing:0px;writing-mode:lr-tb;text-anchor:start;fill:#000000;fill-opacity:1;stroke:none;stroke-width:1px;stroke-linecap:butt;stroke-linejoin:miter;stroke-opacity:1"
       x="103.60455"
       y="817.36224"
       id="text5069"
       sodipodi:linespacing="125%"><tspan
         sodipodi:role="line"
         id="tspan5071"
         x="103.60455"
         y="817.36224" /></text>
    <text
       xml:space="preserve"
       style="font-style:normal;font-variant:normal;font-weight:normal;font-stretch:normal;font-size:15px;line-height:125%;font-family:LMRoman12;-inkscape-font-specification:'LMRoman12, Normal';text-align:start;letter-spacing:0px;word-spacing:0px;writing-mode:lr-tb;text-anchor:start;fill:#000000;fill-opacity:1;stroke:none;stroke-width:1px;stroke-linecap:butt;stroke-linejoin:miter;stroke-opacity:1"
       x="95"
       y="972.36224"
       id="text5172"
       sodipodi:linespacing="125%"><tspan
         sodipodi:role="line"
         id="tspan5174"
         x="95"
         y="972.36224" /></text>
    <path
       style="font-style:normal;font-variant:normal;font-weight:normal;font-stretch:normal;letter-spacing:normal;word-spacing:normal;text-anchor:start;fill:#000000;fill-opacity:1;fill-rule:evenodd;stroke:#000000;stroke-width:0;stroke-linecap:butt;stroke-linejoin:miter;stroke-miterlimit:10.43299961;stroke-dasharray:none;stroke-dashoffset:0;stroke-opacity:1"
       inkscape:connector-curvature="0"
       d="m 135.59107,801.2548 -0.048,0.072 -0.048,0.072 -0.048,0.072 -0.036,0.06 -0.048,0.06 -0.048,0.048 -0.036,0.06 -0.048,0.048 -0.048,0.048 -0.048,0.048 -0.036,0.036 -0.048,0.036 -0.048,0.036 -0.048,0.036 -0.036,0.036 -0.048,0.024 -0.048,0.024 -0.048,0.024 -0.048,0.024 -0.036,0.024 -0.048,0.012 -0.048,0.024 -0.048,0.012 -0.048,0.012 -0.048,0.012 -0.048,0.012 -0.048,0.012 -0.048,0 -0.096,0.012 -0.096,0.012 c -0.144,0.012 -0.252,0.012 -0.252,0.24 0,0.072 0.06,0.132 0.156,0.132 0.324,0 0.696,-0.036 1.032,-0.036 0.396,0 0.816,0.036 1.188,0.036 0.072,0 0.228,0 0.228,-0.228 0,-0.132 -0.108,-0.144 -0.192,-0.144 -0.276,-0.024 -0.564,-0.12 -0.564,-0.42 0,-0.144 0.072,-0.276 0.168,-0.444 l 0.912,-1.524 3,0 -0.036,-0.372 -2.736,0 2.352,-3.948 0.384,3.948 0.036,0.372 c 0.024,0.24 0.192,1.872 0.192,1.992 0,0.36 -0.624,0.396 -0.864,0.396 -0.168,0 -0.276,0 -0.276,0.24 0,0.132 0.132,0.132 0.168,0.132 0.48,0 0.996,-0.036 1.488,-0.036 0.3,0 1.056,0.036 1.356,0.036 0.072,0 0.216,0 0.216,-0.24 0,-0.132 -0.12,-0.132 -0.276,-0.132 -0.744,0 -0.744,-0.084 -0.78,-0.432 l -0.732,-7.476 c -0.024,-0.24 -0.024,-0.288 -0.228,-0.288 -0.192,0 -0.24,0.084 -0.312,0.204 z"
       id="path5454" />
    <path
       style="font-style:normal;font-variant:normal;font-weight:normal;font-stretch:normal;letter-spacing:normal;word-spacing:normal;text-anchor:start;fill:#000000;fill-opacity:1;fill-rule:evenodd;stroke:#000000;stroke-width:0;stroke-linecap:butt;stroke-linejoin:miter;stroke-miterlimit:10.43299961;stroke-dasharray:none;stroke-dashoffset:0;stroke-opacity:1"
       inkscape:connector-curvature="0"
       d="m 58.604294,956.78931 -0.012,0.048 -0.012,0.036 -0.012,0.036 -0.012,0.036 -0.012,0.036 -0.012,0.036 -0.012,0.024 -0.012,0.036 -0.012,0.024 -0.012,0.024 -0.012,0.024 -0.024,0.024 -0.012,0.024 -0.024,0.012 -0.024,0.024 -0.024,0.012 -0.024,0.012 -0.036,0.012 -0.024,0.012 -0.036,0.012 -0.048,0.012 -0.012,0.012 -0.024,0 -0.024,0 -0.024,0 -0.024,0.012 -0.024,0 -0.024,0 -0.024,0.012 -0.036,0 -0.024,0 -0.036,0 -0.024,0 -0.036,0 -0.036,0 -0.036,0.012 -0.036,0 -0.036,0 -0.036,0 -0.036,0 -0.048,0 -0.036,0 -0.048,0 c -0.204,0 -0.324,0 -0.324,0.24001 0,0.13199 0.108,0.13199 0.324,0.13199 l 4.272,0 c 1.884,0 3.3,-1.416 3.3,-2.58 0,-0.864 -0.696,-1.56 -1.86,-1.692 1.248,-0.228 2.496,-1.116 2.496,-2.244 0,-0.888 -0.78,-1.656 -2.22,-1.656 l -0.168,0.372 c 1.056,0 1.308,0.708 1.308,1.236 0,1.044 -1.032,2.184 -2.484,2.184 l -1.752,0 -0.072,0.264 2.256,0 c 1.152,0 1.38,0.888 1.38,1.404 0,1.176 -1.068,2.34 -2.472,2.34 l -1.632,0 c -0.168,0 -0.192,0 -0.264,-0.012 -0.12,-0.012 -0.156,-0.024 -0.156,-0.12 0,-0.036 0,-0.06 0.06,-0.276 l 0.828,-3.336 0.072,-0.264 0.744,-2.964 c 0.108,-0.42 0.132,-0.456 0.648,-0.456 l 1.536,0 0.168,-0.372 -4.02,0 c -0.228,0 -0.336,0 -0.336,0.24 0,0.132 0.108,0.132 0.324,0.132 0.024,0 0.252,0 0.456,0.024 0.216,0.024 0.324,0.036 0.324,0.192 0,0.048 -0.012,0.084 -0.048,0.228 z"
       id="path5456" />
    <path
       style="font-style:normal;font-variant:normal;font-weight:normal;font-stretch:normal;letter-spacing:normal;word-spacing:normal;text-anchor:start;fill:#000000;fill-opacity:1;fill-rule:evenodd;stroke:#000000;stroke-width:0;stroke-linecap:butt;stroke-linejoin:miter;stroke-miterlimit:10.43299961;stroke-dasharray:none;stroke-dashoffset:0;stroke-opacity:1"
       inkscape:connector-curvature="0"
       d="m 270.40974,948.82557 0,0 0,0 0,-0.012 0,0 0,0 0,-0.012 0,0 -0.012,0 0,-0.012 0,0 0,-0.012 0,0 0,-0.012 -0.012,0 0,0 0,-0.012 -0.012,0 0,-0.012 0,0 -0.012,0 0,-0.012 -0.012,0 0,0 -0.012,0 0,-0.012 0,0 -0.012,0 0,0 0,0 -0.012,0 0,0 0,0 -0.012,0 0,0 0,-0.012 -0.012,0 0,0 -0.012,0 0,0 c -0.036,0 -0.048,0.012 -0.18,0.144 l -0.84,0.924 c -0.108,-0.168 -0.66,-1.068 -1.98,-1.068 -2.664,0 -5.352,2.652 -5.352,5.424 0,1.96798 1.404,3.27598 3.24,3.27598 1.032,0 1.944,-0.48 2.58,-1.032 1.104,-0.984 1.308,-2.064 1.308,-2.1 0,-0.11998 -0.12,-0.11998 -0.144,-0.11998 -0.072,0 -0.132,0.024 -0.156,0.11998 -0.096,0.348 -0.372,1.188 -1.2,1.884 -0.828,0.672 -1.584,0.876 -2.196,0.876 -1.08,0 -2.352,-0.624 -2.352,-2.484 0,-0.68398 0.252,-2.62798 1.452,-4.01998 0.732,-0.852 1.848,-1.452 2.916,-1.452 1.212,0 1.92,0.924 1.92,2.316 0,0.468 -0.036,0.48 -0.036,0.6 0,0.12 0.132,0.12 0.18,0.12 0.156,0 0.156,-0.024 0.216,-0.24 z"
       id="path5458" />
    <path
       style="font-style:normal;font-variant:normal;font-weight:normal;font-stretch:normal;letter-spacing:normal;word-spacing:normal;text-anchor:start;fill:#000000;fill-opacity:1;fill-rule:evenodd;stroke:#000000;stroke-width:0;stroke-linecap:butt;stroke-linejoin:miter;stroke-miterlimit:10.43299961;stroke-dasharray:none;stroke-dashoffset:0;stroke-opacity:1"
       inkscape:connector-curvature="0"
       d="m 91.670064,879.15177 -0.012,0.048 -0.012,0.036 -0.012,0.036 -0.012,0.036 -0.012,0.036 0,0.036 -0.012,0.024 -0.012,0.036 -0.024,0.024 -0.012,0.024 -0.012,0.024 -0.012,0.024 -0.024,0.024 -0.024,0.012 -0.024,0.024 -0.024,0.012 -0.024,0.012 -0.024,0.012 -0.036,0.012 -0.036,0.012 -0.036,0.012 -0.024,0.012 -0.024,0 -0.024,0 -0.024,0 -0.024,0.012 -0.024,0 -0.024,0 -0.024,0.012 -0.036,0 -0.024,0 -0.036,0 -0.024,0 -0.036,0 -0.036,0 -0.036,0.012 -0.036,0 -0.036,0 -0.036,0 -0.036,0 -0.048,0 -0.036,0 -0.048,0 c -0.204,0 -0.336,0 -0.336,0.228 0,0.144 0.108,0.144 0.336,0.144 l 3.96,0 -0.216,-0.372 -1.356,0 c -0.156,0 -0.18,0 -0.252,-0.012 -0.12,-0.012 -0.156,-0.024 -0.156,-0.12 0,-0.036 0,-0.06 0.06,-0.276 l 1.632,-6.564 c 0.108,-0.42 0.132,-0.456 0.648,-0.456 l 1.272,0 c 1.176,0 2.172,0.636 2.172,2.208 0,0.588 -0.24,2.556 -1.26,3.864 -0.348,0.444 -1.284,1.356 -2.76,1.356 l 0.216,0.372 c 2.484,0 4.836,-2.52 4.836,-5.148 0,-1.68 -1.008,-3.024 -2.808,-3.024 l -4.008,0 c -0.228,0 -0.36,0 -0.36,0.228 0,0.144 0.108,0.144 0.348,0.144 0.156,0 0.36,0.012 0.516,0.024 0.18,0.024 0.252,0.06 0.252,0.192 0,0.048 -0.012,0.084 -0.048,0.228 z"
       id="path5460" />
    <path
       style="font-style:normal;font-variant:normal;font-weight:normal;font-stretch:normal;letter-spacing:normal;word-spacing:normal;text-anchor:start;fill:#000000;fill-opacity:1;fill-rule:evenodd;stroke:#000000;stroke-width:0;stroke-linecap:butt;stroke-linejoin:miter;stroke-miterlimit:10.43299961;stroke-dasharray:none;stroke-dashoffset:0;stroke-opacity:1"
       inkscape:connector-curvature="0"
       d="m 158.66174,960.48833 1.164,0 c 0.9,0 0.984,0.192 0.984,0.54 0,0.084 0,0.228 -0.084,0.588 -0.024,0.06 -0.036,0.108 -0.036,0.132 0,0.096 0.084,0.132 0.144,0.132 0.12,0 0.12,-0.024 0.18,-0.24 l 0.66,-2.604 c 0.036,-0.12 0.036,-0.156 0.036,-0.18 0,-0.024 -0.024,-0.144 -0.144,-0.144 -0.12,0 -0.132,0.072 -0.18,0.252 -0.252,0.936 -0.528,1.152 -1.536,1.152 l -1.092,0 0.768,-3.036 c 0.108,-0.42 0.12,-0.468 0.648,-0.468 l 1.572,0 c 1.476,0 1.752,0.396 1.752,1.32 0,0.276 0,0.324 -0.036,0.648 -0.024,0.144 -0.024,0.18 -0.024,0.204 0,0.072 0.036,0.144 0.144,0.144 0.12,0 0.144,-0.072 0.156,-0.3 l 0.252,-2.064 c 0.024,-0.324 -0.036,-0.324 -0.324,-0.324 l -5.868,0 c -0.228,0 -0.36,0 -0.36,0.24 0,0.132 0.108,0.132 0.336,0.132 0.444,0 0.78,0 0.78,0.216 0,0.048 0,0.072 -0.06,0.288 l -1.572,6.324 c -0.12,0.468 -0.144,0.564 -1.092,0.564 -0.204,0 -0.336,0 -0.336,0.228 0,0.144 0.144,0.144 0.18,0.144 0.34801,0 1.236,-0.036 1.584,-0.036 0.384,0 1.38,0.036 1.776,0.036 0.108,0 0.252,0 0.252,-0.228 0,-0.096 -0.072,-0.12 -0.072,-0.132 -0.036,-0.012 -0.06,-0.012 -0.336,-0.012 -0.264,0 -0.324,0 -0.624,-0.024 -0.348,-0.036 -0.384,-0.084 -0.384,-0.24 0,-0.024 0,-0.096 0.048,-0.276 z"
       id="path5464" />
    <g
       id="g6039"
       transform="matrix(-0.42502383,0.90518216,-0.90518216,-0.42502383,962.20377,1128.2471)">
      <path
         sodipodi:nodetypes="cccc"
         inkscape:connector-curvature="0"
         id="path5821-3"
         d="m 60.000002,882.3622 160.000008,0 L 140,712.36222 60.000002,882.3622"
         style="fill:none;fill-opacity:1;stroke:#000000;stroke-width:1.5;stroke-linecap:round;stroke-linejoin:round;stroke-miterlimit:4;stroke-dasharray:none;stroke-dashoffset:0;stroke-opacity:1" />
      <path
         sodipodi:nodetypes="cc"
         inkscape:connector-curvature="0"
         id="path6033"
         d="m 140,882.36222 0,-170"
         style="fill:none;fill-opacity:1;stroke:#000000;stroke-width:1.5;stroke-linecap:round;stroke-linejoin:round;stroke-miterlimit:4;stroke-dasharray:none;stroke-dashoffset:0;stroke-opacity:1" />
      <path
         style="fill:none;fill-opacity:1;stroke:#000000;stroke-width:1.5;stroke-linecap:round;stroke-linejoin:round;stroke-miterlimit:4;stroke-dasharray:none;stroke-dashoffset:0;stroke-opacity:1"
         d="M 220,882.36222 98,801.8069"
         id="path6035"
         inkscape:connector-curvature="0"
         sodipodi:nodetypes="cc" />
      <path
         sodipodi:nodetypes="cc"
         inkscape:connector-curvature="0"
         id="path6037"
         d="M 60,882.36222 182,801.80691"
         style="fill:none;fill-opacity:1;stroke:#000000;stroke-width:1.5;stroke-linecap:round;stroke-linejoin:round;stroke-miterlimit:4;stroke-dasharray:none;stroke-dashoffset:0;stroke-opacity:1" />
    </g>
    <path
       style="font-style:normal;font-variant:normal;font-weight:normal;font-stretch:normal;letter-spacing:normal;word-spacing:normal;text-anchor:start;fill:#000000;fill-opacity:1;fill-rule:evenodd;stroke:#000000;stroke-width:0;stroke-linecap:butt;stroke-linejoin:miter;stroke-miterlimit:10.43299961;stroke-dasharray:none;stroke-dashoffset:0;stroke-opacity:1"
       inkscape:connector-curvature="0"
       d="m 206.96387,875.18048 0,-0.012 0,0 0,-0.012 0.012,-0.012 0,-0.012 0.012,-0.012 0,-0.012 0,-0.012 0.012,-0.012 0,-0.012 0,0 0,-0.012 0.012,0 0,-0.012 0,0 0,-0.012 0,0 0,0 0,-0.012 0,0 0,0 0.012,-0.012 0,0 0,0 0,0 c 0,-0.012 0,-0.132 -0.144,-0.132 -0.108,0 -0.132,0.072 -0.156,0.144 -0.78,1.764 -1.224,2.568 -3.264,2.568 l -1.752,0 c -0.168,0 -0.192,0 -0.264,-0.012 -0.12,-0.012 -0.156,-0.024 -0.156,-0.12 0,-0.036 0,-0.06 0.06,-0.276 l 0.816,-3.264 1.188,0 c 1.008,0 1.008,0.252 1.008,0.552 0,0.084 0,0.228 -0.084,0.588 -0.024,0.06 -0.036,0.096 -0.036,0.132 0,0.06 0.048,0.132 0.156,0.132 0.096,0 0.132,-0.06 0.18,-0.24 l 0.684,-2.796 c 0,-0.072 -0.06,-0.132 -0.144,-0.132 -0.108,0 -0.132,0.06 -0.168,0.216 -0.252,0.9 -0.468,1.176 -1.56,1.176 l -1.128,0 0.72,-2.88 c 0.108,-0.42 0.12,-0.468 0.648,-0.468 l 1.68,0 c 1.464,0 1.824,0.348 1.824,1.332 0,0.288 0,0.312 -0.048,0.636 0,0.06 -0.012,0.144 -0.012,0.204 0,0.072 0.036,0.144 0.132,0.144 0.144,0 0.144,-0.072 0.18,-0.3 l 0.228,-2.064 c 0.036,-0.324 -0.024,-0.324 -0.324,-0.324 l -6.036,0 c -0.24,0 -0.348,0 -0.348,0.24 0,0.132 0.108,0.132 0.324,0.132 0.444,0 0.78,0 0.78,0.216 0,0.048 0,0.072 -0.06,0.288 l -1.572,6.324 c -0.12,0.468 -0.144,0.564 -1.092,0.564 -0.204,0 -0.336,0 -0.336,0.228 0,0.144 0.108,0.144 0.336,0.144 l 6.204,0 c 0.276,0 0.288,-0.012 0.372,-0.204 z"
       id="path5462" />
    <path
       style="font-style:normal;font-variant:normal;font-weight:normal;font-stretch:normal;letter-spacing:normal;word-spacing:normal;text-anchor:start;fill:#000000;fill-opacity:1;fill-rule:evenodd;stroke:#000000;stroke-width:0;stroke-linecap:butt;stroke-linejoin:miter;stroke-miterlimit:10.43299961;stroke-dasharray:none;stroke-dashoffset:0;stroke-opacity:1"
       inkscape:connector-curvature="0"
       d="m 151.48587,910.47463 0,-0.168 -0.012,-0.18 -0.024,-0.168 -0.024,-0.168 -0.024,-0.168 -0.048,-0.156 -0.036,-0.156 -0.06,-0.144 -0.048,-0.144 -0.072,-0.144 -0.072,-0.132 -0.072,-0.132 -0.084,-0.12 -0.084,-0.12 -0.096,-0.12 -0.096,-0.108 -0.108,-0.096 -0.108,-0.096 -0.108,-0.096 -0.12,-0.084 -0.12,-0.084 -0.132,-0.072 -0.132,-0.06 -0.144,-0.06 -0.132,-0.06 -0.144,-0.048 -0.156,-0.036 -0.144,-0.036 -0.156,-0.024 -0.156,-0.012 -0.168,-0.012 -0.168,-0.012 -0.072,0.3 c 0.984,0 2.064,0.672 2.064,2.46 0,0.852 -0.324,2.724 -1.512,4.188 -0.576,0.732 -1.56,1.44 -2.556,1.44 l 0,0 c -1.188,0 -2.016,-0.972 -2.016,-2.544 0,-0.528 0.156,-2.28 1.08,-3.672 0.828,-1.248 2.004,-1.872 2.94,-1.872 l 0.072,-0.3 c -2.58,0 -5.208,2.712 -5.208,5.508 0,1.98 1.332,3.192 3.06,3.192 2.532,0 5.196,-2.628 5.196,-5.484 z"
       id="path5482" />
  </g>
</svg>
