<?xml version="1.0" encoding="UTF-8" standalone="no"?>
<!-- Created with Inkscape (http://www.inkscape.org/) -->

<svg
   xmlns:ns0="http://www.iki.fi/pav/software/textext/"
   xmlns:dc="http://purl.org/dc/elements/1.1/"
   xmlns:cc="http://creativecommons.org/ns#"
   xmlns:rdf="http://www.w3.org/1999/02/22-rdf-syntax-ns#"
   xmlns:svg="http://www.w3.org/2000/svg"
   xmlns="http://www.w3.org/2000/svg"
   xmlns:xlink="http://www.w3.org/1999/xlink"
   xmlns:sodipodi="http://sodipodi.sourceforge.net/DTD/sodipodi-0.dtd"
   xmlns:inkscape="http://www.inkscape.org/namespaces/inkscape"
   width="354.33069"
   height="212.59842"
   id="svg2"
   version="1.1"
   inkscape:version="0.48.4 r9939"
   sodipodi:docname="New document 1">
  <sodipodi:namedview
     id="base"
     pagecolor="#ffffff"
     bordercolor="#666666"
     borderopacity="1.0"
     inkscape:pageopacity="0.0"
     inkscape:pageshadow="2"
     inkscape:zoom="2.7549022"
     inkscape:cx="179.99999"
     inkscape:cy="104.3629"
     inkscape:document-units="px"
     inkscape:current-layer="layer1"
     showgrid="false"
     units="cm"
     inkscape:window-width="1024"
     inkscape:window-height="744"
     inkscape:window-x="0"
     inkscape:window-y="24"
     inkscape:window-maximized="1" />
  <defs
     id="defs4" />
  <metadata
     id="metadata7">
    <rdf:RDF>
      <cc:Work
         rdf:about="">
        <dc:format>image/svg+xml</dc:format>
        <dc:type
           rdf:resource="http://purl.org/dc/dcmitype/StillImage" />
        <dc:title></dc:title>
      </cc:Work>
    </rdf:RDF>
  </metadata>
  <g
     inkscape:label="Layer 1"
     inkscape:groupmode="layer"
     id="layer1"
     transform="translate(0,-839.76245)">
    <path
       style="fill:none;stroke:#000000;stroke-width:1px;stroke-linecap:butt;stroke-linejoin:miter;stroke-opacity:1"
       d="m 80.214286,977.36087 200.357144,0"
       id="path2985"
       inkscape:connector-curvature="0" />
    <path
       sodipodi:type="arc"
       style="fill:#000000;stroke:#000000;stroke-width:1.4130435;stroke-linecap:round;stroke-linejoin:miter;stroke-miterlimit:4;stroke-opacity:1;stroke-dasharray:none;stroke-dashoffset:0"
       id="path2987"
       sodipodi:cx="98.928574"
       sodipodi:cy="121.52699"
       sodipodi:rx="4.6428571"
       sodipodi:ry="4.6428571"
       d="m 103.57143,121.52699 c 0,2.56418 -2.07868,4.64286 -4.642856,4.64286 -2.56418,0 -4.642857,-2.07868 -4.642857,-4.64286 0,-2.56418 2.078677,-4.64285 4.642857,-4.64285 2.564176,0 4.642856,2.07867 4.642856,4.64285 z"
       transform="matrix(0.88461538,0,0,0.88461538,24.807692,869.67765)" />
    <path
       transform="matrix(0.88461538,0,0,0.88461538,72.807692,869.67765)"
       d="m 103.57143,121.52699 c 0,2.56418 -2.07868,4.64286 -4.642856,4.64286 -2.56418,0 -4.642857,-2.07868 -4.642857,-4.64286 0,-2.56418 2.078677,-4.64285 4.642857,-4.64285 2.564176,0 4.642856,2.07867 4.642856,4.64285 z"
       sodipodi:ry="4.6428571"
       sodipodi:rx="4.6428571"
       sodipodi:cy="121.52699"
       sodipodi:cx="98.928574"
       id="path2989"
       style="fill:#000000;stroke:#000000;stroke-width:1.4130435;stroke-linecap:round;stroke-linejoin:miter;stroke-miterlimit:4;stroke-opacity:1;stroke-dasharray:none;stroke-dashoffset:0"
       sodipodi:type="arc" />
    <path
       sodipodi:type="arc"
       style="fill:#000000;stroke:#000000;stroke-width:1.4130435;stroke-linecap:round;stroke-linejoin:miter;stroke-miterlimit:4;stroke-opacity:1;stroke-dasharray:none;stroke-dashoffset:0"
       id="path2991"
       sodipodi:cx="98.928574"
       sodipodi:cy="121.52699"
       sodipodi:rx="4.6428571"
       sodipodi:ry="4.6428571"
       d="m 103.57143,121.52699 c 0,2.56418 -2.07868,4.64286 -4.642856,4.64286 -2.56418,0 -4.642857,-2.07868 -4.642857,-4.64286 0,-2.56418 2.078677,-4.64285 4.642857,-4.64285 2.564176,0 4.642856,2.07867 4.642856,4.64285 z"
       transform="matrix(0.88461538,0,0,0.88461538,114.80769,869.67765)" />
    <path
       transform="matrix(0.88461538,0,0,0.88461538,158.80769,869.67765)"
       d="m 103.57143,121.52699 c 0,2.56418 -2.07868,4.64286 -4.642856,4.64286 -2.56418,0 -4.642857,-2.07868 -4.642857,-4.64286 0,-2.56418 2.078677,-4.64285 4.642857,-4.64285 2.564176,0 4.642856,2.07867 4.642856,4.64285 z"
       sodipodi:ry="4.6428571"
       sodipodi:rx="4.6428571"
       sodipodi:cy="121.52699"
       sodipodi:cx="98.928574"
       id="path2993"
       style="fill:#000000;stroke:#000000;stroke-width:1.4130435;stroke-linecap:round;stroke-linejoin:miter;stroke-miterlimit:4;stroke-opacity:1;stroke-dasharray:none;stroke-dashoffset:0"
       sodipodi:type="arc" />
    <path
       style="fill:none;stroke:#000000;stroke-width:1px;stroke-linecap:butt;stroke-linejoin:miter;stroke-opacity:1"
       d="m 112.12693,137.84713 0,-24.74874"
       id="path2995"
       inkscape:connector-curvature="0"
       transform="translate(0,839.76245)"
       sodipodi:nodetypes="cc" />
    <path
       inkscape:connector-curvature="0"
       id="path2997"
       d="m 202.65233,977.60958 0,-36.87057"
       style="fill:none;stroke:#000000;stroke-width:1px;stroke-linecap:butt;stroke-linejoin:miter;stroke-opacity:1"
       sodipodi:nodetypes="cc" />
    <path
       sodipodi:nodetypes="cc"
       style="fill:none;stroke:#000000;stroke-width:1px;stroke-linecap:butt;stroke-linejoin:miter;stroke-opacity:1"
       d="m 202.65233,977.60958 0,-36.87057"
       id="path2999"
       inkscape:connector-curvature="0" />
    <path
       inkscape:connector-curvature="0"
       id="path3001"
       d="m 202.65233,977.60958 0,-36.87057"
       style="fill:none;stroke:#000000;stroke-width:1px;stroke-linecap:butt;stroke-linejoin:miter;stroke-opacity:1"
       sodipodi:nodetypes="cc" />
    <path
       sodipodi:nodetypes="cc"
       style="fill:none;stroke:#000000;stroke-width:1px;stroke-linecap:butt;stroke-linejoin:miter;stroke-opacity:1"
       d="m 202.65233,977.60958 0,-80.30713"
       id="path3003"
       inkscape:connector-curvature="0" />
    <path
       inkscape:connector-curvature="0"
       id="path3005"
       d="m 246.14725,977.60958 0,-36.87057"
       style="fill:none;stroke:#000000;stroke-width:1px;stroke-linecap:butt;stroke-linejoin:miter;stroke-opacity:1"
       sodipodi:nodetypes="cc" />
    <path
       inkscape:connector-curvature="0"
       id="path3009"
       d="m 160.14725,977.60958 0,-80.30713"
       style="fill:none;stroke:#000000;stroke-width:1px;stroke-linecap:butt;stroke-linejoin:miter;stroke-opacity:1"
       sodipodi:nodetypes="cc" />
    <path
       style="fill:none;stroke:#000000;stroke-width:1px;stroke-linecap:butt;stroke-linejoin:miter;stroke-opacity:1"
       d="m 104.72817,970.06613 c -2.6246,-2.11836 -2.18147,-6.35508 -2.18147,-6.35508 0,0 0.0753,-0.37278 -2.58656,-1.05651 2.66182,-0.68373 2.58656,-1.05651 2.58656,-1.05651 0,0 -0.44313,-4.23672 2.18147,-6.35508"
       id="path3015"
       inkscape:connector-curvature="0"
       sodipodi:nodetypes="ccccc" />
    <path
       style="fill:none;stroke:#000000;stroke-width:1px;stroke-linecap:butt;stroke-linejoin:miter;stroke-opacity:1"
       d="m 151.19519,967.21842 c -5.12681,-9.04761 -4.26122,-27.14285 -4.26122,-27.14285 0,0 0.14702,-1.59216 -5.0525,-4.5124 5.19952,-2.92024 5.0525,-4.5124 5.0525,-4.5124 0,0 -0.86559,-18.09523 4.26122,-27.14285"
       id="path3017"
       inkscape:connector-curvature="0"
       sodipodi:nodetypes="ccccc" />
    <path
       style="fill:none;stroke:#000000;stroke-width:1px;stroke-linecap:butt;stroke-linejoin:miter;stroke-opacity:1"
       d="m 210.57185,901.63508 c 5.12681,9.04761 4.26122,27.14285 4.26122,27.14285 0,0 -0.14702,1.59216 5.0525,4.5124 -5.19952,2.92024 -5.0525,4.5124 -5.0525,4.5124 0,0 0.86559,18.09523 -4.26122,27.14285"
       id="path3019"
       inkscape:connector-curvature="0"
       sodipodi:nodetypes="ccccc" />
    <path
       sodipodi:nodetypes="ccccc"
       inkscape:connector-curvature="0"
       id="path3021"
       d="m 251.96014,966.06612 c 3.66719,-3.0567 3.04803,-9.17009 3.04803,-9.17009 0,0 -0.10521,-0.53791 3.61404,-1.5245 -3.7192,-0.98659 -3.61404,-1.52449 -3.61404,-1.52449 0,0 0.61916,-6.1134 -3.04803,-9.17009"
       style="fill:none;stroke:#000000;stroke-width:1px;stroke-linecap:butt;stroke-linejoin:miter;stroke-opacity:1" />
    <text
       xml:space="preserve"
       style="font-size:12px;font-style:normal;font-variant:normal;font-weight:normal;font-stretch:normal;line-height:125%;letter-spacing:0px;word-spacing:0px;fill:#000000;fill-opacity:1;stroke:none;font-family:Nimbus Roman No9 L;-inkscape-font-specification:Nimbus Roman No9 L"
       x="109.09647"
       y="994.78217"
       id="text3023"
       sodipodi:linespacing="125%"><tspan
         sodipodi:role="line"
         id="tspan3025"
         x="109.09647"
         y="994.78217">0</tspan></text>
    <text
       xml:space="preserve"
       style="font-size:12px;font-style:normal;font-variant:normal;font-weight:normal;font-stretch:normal;line-height:125%;letter-spacing:0px;word-spacing:0px;fill:#000000;fill-opacity:1;stroke:none;font-family:Nimbus Roman No9 L;-inkscape-font-specification:Nimbus Roman No9 L"
       x="157.05841"
       y="994.2771"
       id="text3027"
       sodipodi:linespacing="125%"><tspan
         sodipodi:role="line"
         id="tspan3029"
         x="157.05841"
         y="994.2771">1</tspan></text>
    <text
       xml:space="preserve"
       style="font-size:12px;font-style:normal;font-variant:normal;font-weight:normal;font-stretch:normal;line-height:125%;letter-spacing:0px;word-spacing:0px;fill:#000000;fill-opacity:1;stroke:none;font-family:Nimbus Roman No9 L;-inkscape-font-specification:Nimbus Roman No9 L"
       x="199.00005"
       y="994.2771"
       id="text3031"
       sodipodi:linespacing="125%"><tspan
         sodipodi:role="line"
         id="tspan3033"
         x="199.00005"
         y="994.2771">2</tspan></text>
    <text
       xml:space="preserve"
       style="font-size:12px;font-style:normal;font-variant:normal;font-weight:normal;font-stretch:normal;line-height:125%;letter-spacing:0px;word-spacing:0px;fill:#000000;fill-opacity:1;stroke:none;font-family:Nimbus Roman No9 L;-inkscape-font-specification:Nimbus Roman No9 L"
       x="243.44679"
       y="993.77203"
       id="text3035"
       sodipodi:linespacing="125%"><tspan
         sodipodi:role="line"
         id="tspan3037"
         x="243.44679"
         y="993.77203">3</tspan></text>
    <g
       transform="matrix(1.2,0,0,1.2,-179.31671,803.84334)"
       ns0:text="$\\frac{1}{8}$"
       ns0:preamble="/home/sriranga/Desktop/general-books/CSY/article4/figure/package.tex"
       id="g3068">
      <defs
         id="defs3070">
        <g
           id="g3072">
          <symbol
             style="overflow:visible"
             overflow="visible"
             id="textext-dcd1fd26-0">
            <path
               inkscape:connector-curvature="0"
               style="stroke:none"
               d=""
               id="path3075" />
          </symbol>
          <symbol
             style="overflow:visible"
             overflow="visible"
             id="textext-dcd1fd26-1">
            <path
               inkscape:connector-curvature="0"
               style="stroke:none"
               d="m 2.03125,-4.703125 -1.25,0.625 0,0.09375 c 0.078125,-0.03125 0.15625,-0.0625 0.1875,-0.078125 0.125,-0.046875 0.234375,-0.0625 0.3125,-0.0625 0.140625,0 0.203125,0.09375 0.203125,0.3125 l 0,3.171875 c 0,0.21875 -0.0625,0.375 -0.171875,0.453125 -0.09375,0.0625 -0.203125,0.078125 -0.484375,0.078125 L 0.828125,0 2.75,0 l 0,-0.109375 c -0.5625,0 -0.671875,-0.078125 -0.671875,-0.40625 l 0,-4.1875 z m 0,0"
               id="path3078" />
          </symbol>
          <symbol
             style="overflow:visible"
             overflow="visible"
             id="textext-dcd1fd26-2">
            <path
               inkscape:connector-curvature="0"
               style="stroke:none"
               d="m 2.015625,-2.578125 c 0.6875,-0.375 0.9375,-0.671875 0.9375,-1.140625 0,-0.578125 -0.5,-0.984375 -1.203125,-0.984375 -0.75,0 -1.3125,0.453125 -1.3125,1.09375 0,0.453125 0.125,0.65625 0.859375,1.296875 -0.75,0.578125 -0.90625,0.78125 -0.90625,1.265625 0,0.671875 0.546875,1.140625 1.34375,1.140625 0.828125,0 1.359375,-0.453125 1.359375,-1.171875 0,-0.53125 -0.234375,-0.875 -1.078125,-1.5 z m -0.125,0.703125 c 0.515625,0.375 0.6875,0.625 0.6875,1.015625 0,0.453125 -0.3125,0.765625 -0.765625,0.765625 -0.53125,0 -0.890625,-0.40625 -0.890625,-1.015625 0,-0.4375 0.15625,-0.734375 0.5625,-1.0625 z M 1.8125,-2.703125 c -0.609375,-0.40625 -0.859375,-0.734375 -0.859375,-1.125 0,-0.40625 0.3125,-0.6875 0.75,-0.6875 0.46875,0 0.765625,0.3125 0.765625,0.78125 0,0.40625 -0.1875,0.71875 -0.59375,0.984375 -0.03125,0.015625 -0.03125,0.015625 -0.0625,0.046875 z m 0,0"
               id="path3081" />
          </symbol>
        </g>
      </defs>
      <g
         id="textext-dcd1fd26-3">
        <g
           style="fill:#000000;fill-opacity:1"
           id="g3084">
          <use
             height="212.59842"
             width="354.33069"
             xlink:href="#textext-dcd1fd26-1"
             x="224.62801"
             y="130.839"
             id="use3086" />
        </g>
        <path
           inkscape:connector-curvature="0"
           style="fill:none;stroke:#000000;stroke-width:0.55800003;stroke-linecap:butt;stroke-linejoin:miter;stroke-miterlimit:10;stroke-opacity:1"
           d="m 9.0625e-4,8.75e-4 3.48437475,0"
           transform="matrix(1,0,0,-1,224.628,132.204)"
           id="path3088" />
        <g
           style="fill:#000000;fill-opacity:1"
           id="g3090">
          <use
             height="212.59842"
             width="354.33069"
             xlink:href="#textext-dcd1fd26-2"
             x="224.62801"
             y="138.202"
             id="use3092" />
        </g>
      </g>
    </g>
    <g
       id="g3210"
       transform="matrix(1.2,0,0,1.2,-136.59073,771.84334)"
       ns0:preamble="/home/sriranga/Desktop/general-books/CSY/article4/figure/package.tex"
       ns0:text="$\\frac{3}{8}$">
      <defs
         id="defs3212">
        <g
           id="g3214">
          <symbol
             id="textext-740ab8ed-0"
             overflow="visible"
             style="overflow:visible">
            <path
               id="path3217"
               d=""
               style="stroke:none"
               inkscape:connector-curvature="0" />
          </symbol>
          <symbol
             id="textext-740ab8ed-1"
             overflow="visible"
             style="overflow:visible">
            <path
               id="path3220"
               d="m 1.0625,-2.296875 c 0.421875,0 0.578125,0.015625 0.75,0.078125 0.421875,0.15625 0.703125,0.546875 0.703125,1.03125 0,0.578125 -0.40625,1.03125 -0.921875,1.03125 -0.1875,0 -0.328125,-0.046875 -0.578125,-0.21875 C 0.796875,-0.5 0.6875,-0.546875 0.5625,-0.546875 c -0.15625,0 -0.265625,0.09375 -0.265625,0.25 0,0.234375 0.296875,0.390625 0.796875,0.390625 0.53125,0 1.078125,-0.171875 1.40625,-0.46875 0.328125,-0.28125 0.515625,-0.6875 0.515625,-1.15625 0,-0.34375 -0.109375,-0.671875 -0.3125,-0.890625 C 2.5625,-2.578125 2.421875,-2.65625 2.125,-2.796875 2.59375,-3.125 2.78125,-3.375 2.78125,-3.75 c 0,-0.578125 -0.453125,-0.953125 -1.09375,-0.953125 -0.34375,0 -0.65625,0.109375 -0.90625,0.328125 C 0.578125,-4.1875 0.46875,-4 0.3125,-3.578125 l 0.109375,0.03125 c 0.28125,-0.515625 0.59375,-0.75 1.03125,-0.75 0.453125,0 0.765625,0.3125 0.765625,0.75 0,0.25 -0.09375,0.5 -0.28125,0.671875 -0.203125,0.21875 -0.390625,0.3125 -0.875,0.484375 z m 0,0"
               style="stroke:none"
               inkscape:connector-curvature="0" />
          </symbol>
          <symbol
             id="textext-740ab8ed-2"
             overflow="visible"
             style="overflow:visible">
            <path
               id="path3223"
               d="m 2.015625,-2.578125 c 0.6875,-0.375 0.9375,-0.671875 0.9375,-1.140625 0,-0.578125 -0.5,-0.984375 -1.203125,-0.984375 -0.75,0 -1.3125,0.453125 -1.3125,1.09375 0,0.453125 0.125,0.65625 0.859375,1.296875 -0.75,0.578125 -0.90625,0.78125 -0.90625,1.265625 0,0.671875 0.546875,1.140625 1.34375,1.140625 0.828125,0 1.359375,-0.453125 1.359375,-1.171875 0,-0.53125 -0.234375,-0.875 -1.078125,-1.5 z m -0.125,0.703125 c 0.515625,0.375 0.6875,0.625 0.6875,1.015625 0,0.453125 -0.3125,0.765625 -0.765625,0.765625 -0.53125,0 -0.890625,-0.40625 -0.890625,-1.015625 0,-0.4375 0.15625,-0.734375 0.5625,-1.0625 z M 1.8125,-2.703125 c -0.609375,-0.40625 -0.859375,-0.734375 -0.859375,-1.125 0,-0.40625 0.3125,-0.6875 0.75,-0.6875 0.46875,0 0.765625,0.3125 0.765625,0.78125 0,0.40625 -0.1875,0.71875 -0.59375,0.984375 -0.03125,0.015625 -0.03125,0.015625 -0.0625,0.046875 z m 0,0"
               style="stroke:none"
               inkscape:connector-curvature="0" />
          </symbol>
        </g>
      </defs>
      <g
         id="textext-740ab8ed-3">
        <g
           id="g3226"
           style="fill:#000000;fill-opacity:1">
          <use
             id="use3228"
             y="130.839"
             x="224.62801"
             xlink:href="#textext-740ab8ed-1"
             width="354.33069"
             height="212.59842" />
        </g>
        <path
           id="path3230"
           transform="matrix(1,0,0,-1,224.628,132.204)"
           d="m 9.0625e-4,8.75e-4 3.48437475,0"
           style="fill:none;stroke:#000000;stroke-width:0.55800003;stroke-linecap:butt;stroke-linejoin:miter;stroke-miterlimit:10;stroke-opacity:1"
           inkscape:connector-curvature="0" />
        <g
           id="g3232"
           style="fill:#000000;fill-opacity:1">
          <use
             id="use3234"
             y="138.202"
             x="224.62801"
             xlink:href="#textext-740ab8ed-2"
             width="354.33069"
             height="212.59842" />
        </g>
      </g>
    </g>
    <g
       ns0:text="$\\frac{3}{8}$"
       ns0:preamble="/home/sriranga/Desktop/general-books/CSY/article4/figure/package.tex"
       transform="matrix(1.2,0,0,1.2,-50.59073,763.84334)"
       id="g3293">
      <defs
         id="defs3295">
        <g
           id="g3297">
          <symbol
             style="overflow:visible"
             overflow="visible"
             id="symbol3299">
            <path
               inkscape:connector-curvature="0"
               style="stroke:none"
               d=""
               id="path3301" />
          </symbol>
          <symbol
             style="overflow:visible"
             overflow="visible"
             id="symbol3303">
            <path
               inkscape:connector-curvature="0"
               style="stroke:none"
               d="m 1.0625,-2.296875 c 0.421875,0 0.578125,0.015625 0.75,0.078125 0.421875,0.15625 0.703125,0.546875 0.703125,1.03125 0,0.578125 -0.40625,1.03125 -0.921875,1.03125 -0.1875,0 -0.328125,-0.046875 -0.578125,-0.21875 C 0.796875,-0.5 0.6875,-0.546875 0.5625,-0.546875 c -0.15625,0 -0.265625,0.09375 -0.265625,0.25 0,0.234375 0.296875,0.390625 0.796875,0.390625 0.53125,0 1.078125,-0.171875 1.40625,-0.46875 0.328125,-0.28125 0.515625,-0.6875 0.515625,-1.15625 0,-0.34375 -0.109375,-0.671875 -0.3125,-0.890625 C 2.5625,-2.578125 2.421875,-2.65625 2.125,-2.796875 2.59375,-3.125 2.78125,-3.375 2.78125,-3.75 c 0,-0.578125 -0.453125,-0.953125 -1.09375,-0.953125 -0.34375,0 -0.65625,0.109375 -0.90625,0.328125 C 0.578125,-4.1875 0.46875,-4 0.3125,-3.578125 l 0.109375,0.03125 c 0.28125,-0.515625 0.59375,-0.75 1.03125,-0.75 0.453125,0 0.765625,0.3125 0.765625,0.75 0,0.25 -0.09375,0.5 -0.28125,0.671875 -0.203125,0.21875 -0.390625,0.3125 -0.875,0.484375 z m 0,0"
               id="path3305" />
          </symbol>
          <symbol
             style="overflow:visible"
             overflow="visible"
             id="symbol3307">
            <path
               inkscape:connector-curvature="0"
               style="stroke:none"
               d="m 2.015625,-2.578125 c 0.6875,-0.375 0.9375,-0.671875 0.9375,-1.140625 0,-0.578125 -0.5,-0.984375 -1.203125,-0.984375 -0.75,0 -1.3125,0.453125 -1.3125,1.09375 0,0.453125 0.125,0.65625 0.859375,1.296875 -0.75,0.578125 -0.90625,0.78125 -0.90625,1.265625 0,0.671875 0.546875,1.140625 1.34375,1.140625 0.828125,0 1.359375,-0.453125 1.359375,-1.171875 0,-0.53125 -0.234375,-0.875 -1.078125,-1.5 z m -0.125,0.703125 c 0.515625,0.375 0.6875,0.625 0.6875,1.015625 0,0.453125 -0.3125,0.765625 -0.765625,0.765625 -0.53125,0 -0.890625,-0.40625 -0.890625,-1.015625 0,-0.4375 0.15625,-0.734375 0.5625,-1.0625 z M 1.8125,-2.703125 c -0.609375,-0.40625 -0.859375,-0.734375 -0.859375,-1.125 0,-0.40625 0.3125,-0.6875 0.75,-0.6875 0.46875,0 0.765625,0.3125 0.765625,0.78125 0,0.40625 -0.1875,0.71875 -0.59375,0.984375 -0.03125,0.015625 -0.03125,0.015625 -0.0625,0.046875 z m 0,0"
               id="path3309" />
          </symbol>
        </g>
      </defs>
      <g
         id="g3311">
        <g
           style="fill:#000000;fill-opacity:1"
           id="g3313">
          <use
             height="212.59842"
             width="354.33069"
             xlink:href="#textext-740ab8ed-1"
             x="224.62801"
             y="130.839"
             id="use3315" />
        </g>
        <path
           inkscape:connector-curvature="0"
           style="fill:none;stroke:#000000;stroke-width:0.55800003;stroke-linecap:butt;stroke-linejoin:miter;stroke-miterlimit:10;stroke-opacity:1"
           d="m 9.0625e-4,8.75e-4 3.48437475,0"
           transform="matrix(1,0,0,-1,224.628,132.204)"
           id="path3317" />
        <g
           style="fill:#000000;fill-opacity:1"
           id="g3319">
          <use
             height="212.59842"
             width="354.33069"
             xlink:href="#textext-740ab8ed-2"
             x="224.62801"
             y="138.202"
             id="use3321" />
        </g>
      </g>
    </g>
    <g
       id="g3323"
       ns0:preamble="/home/sriranga/Desktop/general-books/CSY/article4/figure/package.tex"
       ns0:text="$\\frac{1}{8}$"
       transform="matrix(1.2,0,0,1.2,-7.5017635,793.84334)">
      <defs
         id="defs3325">
        <g
           id="g3327">
          <symbol
             id="symbol3329"
             overflow="visible"
             style="overflow:visible">
            <path
               id="path3331"
               d=""
               style="stroke:none"
               inkscape:connector-curvature="0" />
          </symbol>
          <symbol
             id="symbol3333"
             overflow="visible"
             style="overflow:visible">
            <path
               id="path3335"
               d="m 2.03125,-4.703125 -1.25,0.625 0,0.09375 c 0.078125,-0.03125 0.15625,-0.0625 0.1875,-0.078125 0.125,-0.046875 0.234375,-0.0625 0.3125,-0.0625 0.140625,0 0.203125,0.09375 0.203125,0.3125 l 0,3.171875 c 0,0.21875 -0.0625,0.375 -0.171875,0.453125 -0.09375,0.0625 -0.203125,0.078125 -0.484375,0.078125 L 0.828125,0 2.75,0 l 0,-0.109375 c -0.5625,0 -0.671875,-0.078125 -0.671875,-0.40625 l 0,-4.1875 z m 0,0"
               style="stroke:none"
               inkscape:connector-curvature="0" />
          </symbol>
          <symbol
             id="symbol3337"
             overflow="visible"
             style="overflow:visible">
            <path
               id="path3339"
               d="m 2.015625,-2.578125 c 0.6875,-0.375 0.9375,-0.671875 0.9375,-1.140625 0,-0.578125 -0.5,-0.984375 -1.203125,-0.984375 -0.75,0 -1.3125,0.453125 -1.3125,1.09375 0,0.453125 0.125,0.65625 0.859375,1.296875 -0.75,0.578125 -0.90625,0.78125 -0.90625,1.265625 0,0.671875 0.546875,1.140625 1.34375,1.140625 0.828125,0 1.359375,-0.453125 1.359375,-1.171875 0,-0.53125 -0.234375,-0.875 -1.078125,-1.5 z m -0.125,0.703125 c 0.515625,0.375 0.6875,0.625 0.6875,1.015625 0,0.453125 -0.3125,0.765625 -0.765625,0.765625 -0.53125,0 -0.890625,-0.40625 -0.890625,-1.015625 0,-0.4375 0.15625,-0.734375 0.5625,-1.0625 z M 1.8125,-2.703125 c -0.609375,-0.40625 -0.859375,-0.734375 -0.859375,-1.125 0,-0.40625 0.3125,-0.6875 0.75,-0.6875 0.46875,0 0.765625,0.3125 0.765625,0.78125 0,0.40625 -0.1875,0.71875 -0.59375,0.984375 -0.03125,0.015625 -0.03125,0.015625 -0.0625,0.046875 z m 0,0"
               style="stroke:none"
               inkscape:connector-curvature="0" />
          </symbol>
        </g>
      </defs>
      <g
         id="g3341">
        <g
           id="g3343"
           style="fill:#000000;fill-opacity:1">
          <use
             id="use3345"
             y="130.839"
             x="224.62801"
             xlink:href="#textext-dcd1fd26-1"
             width="354.33069"
             height="212.59842" />
        </g>
        <path
           id="path3347"
           transform="matrix(1,0,0,-1,224.628,132.204)"
           d="m 9.0625e-4,8.75e-4 3.48437475,0"
           style="fill:none;stroke:#000000;stroke-width:0.55800003;stroke-linecap:butt;stroke-linejoin:miter;stroke-miterlimit:10;stroke-opacity:1"
           inkscape:connector-curvature="0" />
        <g
           id="g3349"
           style="fill:#000000;fill-opacity:1">
          <use
             id="use3351"
             y="138.202"
             x="224.62801"
             xlink:href="#textext-dcd1fd26-2"
             width="354.33069"
             height="212.59842" />
        </g>
      </g>
    </g>
  </g>
</svg>
