<?xml version="1.0" encoding="UTF-8" standalone="no"?>
<!-- Created with Inkscape (http://www.inkscape.org/) -->

<svg
   xmlns:ns0="http://www.iki.fi/pav/software/textext/"
   xmlns:dc="http://purl.org/dc/elements/1.1/"
   xmlns:cc="http://creativecommons.org/ns#"
   xmlns:rdf="http://www.w3.org/1999/02/22-rdf-syntax-ns#"
   xmlns:svg="http://www.w3.org/2000/svg"
   xmlns="http://www.w3.org/2000/svg"
   xmlns:xlink="http://www.w3.org/1999/xlink"
   xmlns:sodipodi="http://sodipodi.sourceforge.net/DTD/sodipodi-0.dtd"
   xmlns:inkscape="http://www.inkscape.org/namespaces/inkscape"
   width="744.09448819"
   height="1052.3622047"
   id="svg2"
   version="1.1"
   inkscape:version="0.48.4 r9939"
   sodipodi:docname="New document 1">
  <sodipodi:namedview
     id="base"
     pagecolor="#ffffff"
     bordercolor="#666666"
     borderopacity="1.0"
     inkscape:pageopacity="0.0"
     inkscape:pageshadow="2"
     inkscape:zoom="1.979899"
     inkscape:cx="343.4293"
     inkscape:cy="882.6944"
     inkscape:document-units="px"
     inkscape:current-layer="layer1"
     showgrid="false"
     inkscape:window-width="1024"
     inkscape:window-height="744"
     inkscape:window-x="0"
     inkscape:window-y="24"
     inkscape:window-maximized="1" />
  <defs
     id="defs4">
    <marker
       inkscape:stockid="Arrow1Mend"
       orient="auto"
       refY="0.0"
       refX="0.0"
       id="Arrow1Mend"
       style="overflow:visible;">
      <path
         id="path3928"
         d="M 0.0,0.0 L 5.0,-5.0 L -12.5,0.0 L 5.0,5.0 L 0.0,0.0 z "
         style="fill-rule:evenodd;stroke:#000000;stroke-width:1.0pt;"
         transform="scale(0.4) rotate(180) translate(10,0)" />
    </marker>
  </defs>
  <metadata
     id="metadata7">
    <rdf:RDF>
      <cc:Work
         rdf:about="">
        <dc:format>image/svg+xml</dc:format>
        <dc:type
           rdf:resource="http://purl.org/dc/dcmitype/StillImage" />
        <dc:title></dc:title>
      </cc:Work>
    </rdf:RDF>
  </metadata>
  <g
     id="layer1"
     inkscape:groupmode="layer"
     inkscape:label="Layer 1">
    <g
       id="g2990"
       ns0:preamble="/home/sriranga/Desktop/general-books/CSY/article4/figure/package.tex"
       ns0:text="$\\dfrac{k+1}{2}=x\\Leftrightarrow k=2x-1$"
       transform="scale(1.200000,1.200000)">
      <defs
         id="defs2992">
        <g
           id="g2994">
          <symbol
             id="textext-52ad2266-0"
             overflow="visible">
            <path
               id="path2997"
               d=""
               style="stroke:none;" />
          </symbol>
          <symbol
             id="textext-52ad2266-1"
             overflow="visible">
            <path
               id="path3000"
               d="M 4.125 -1.09375 L 3.984375 -0.828125 C 3.796875 -0.515625 3.671875 -0.40625 3.53125 -0.40625 C 3.3125 -0.40625 3.109375 -0.734375 2.71875 -1.6875 C 2.671875 -1.828125 2.515625 -2.1875 2.359375 -2.578125 C 3.8125 -3.875 4.125 -4.078125 4.59375 -4.109375 L 4.59375 -4.265625 L 2.765625 -4.265625 L 2.765625 -4.109375 L 2.9375 -4.109375 C 3.1875 -4.109375 3.3125 -4.03125 3.3125 -3.921875 C 3.3125 -3.734375 2.828125 -3.234375 1.890625 -2.53125 C 1.75 -2.421875 1.640625 -2.328125 1.46875 -2.203125 L 2.65625 -6.765625 L 2.609375 -6.8125 C 2.03125 -6.671875 1.640625 -6.609375 1.0625 -6.546875 L 1.0625 -6.375 C 1.53125 -6.390625 1.71875 -6.3125 1.734375 -6.125 C 1.71875 -5.96875 1.640625 -5.6875 1.515625 -5.234375 C 1.46875 -5.09375 1.453125 -4.984375 1.421875 -4.90625 L 1.40625 -4.8125 L 0.140625 0 L 0.890625 0 L 1.359375 -1.796875 L 1.78125 -2.109375 C 1.9375 -1.671875 2.203125 -1.0625 2.375 -0.703125 C 2.703125 -0.078125 2.875 0.109375 3.171875 0.109375 C 3.5625 0.109375 3.828125 -0.140625 4.28125 -0.984375 Z M 4.125 -1.09375 "
               style="stroke:none;" />
          </symbol>
          <symbol
             id="textext-52ad2266-2"
             overflow="visible">
            <path
               id="path3003"
               d="M 4 -1.109375 C 3.921875 -1.015625 3.875 -0.953125 3.78125 -0.84375 C 3.5625 -0.53125 3.4375 -0.4375 3.328125 -0.4375 C 3.1875 -0.4375 3.09375 -0.5625 3.015625 -0.84375 C 3 -0.921875 2.984375 -0.984375 2.984375 -1.015625 C 2.734375 -2.03125 2.625 -2.484375 2.625 -2.625 C 3.0625 -3.40625 3.421875 -3.84375 3.59375 -3.84375 C 3.65625 -3.84375 3.734375 -3.8125 3.84375 -3.765625 C 3.953125 -3.6875 4.03125 -3.671875 4.109375 -3.671875 C 4.3125 -3.671875 4.453125 -3.8125 4.453125 -4.03125 C 4.453125 -4.234375 4.28125 -4.390625 4.046875 -4.390625 C 3.609375 -4.390625 3.234375 -4.03125 2.546875 -2.96875 L 2.4375 -3.515625 C 2.296875 -4.203125 2.1875 -4.390625 1.90625 -4.390625 C 1.6875 -4.390625 1.359375 -4.3125 0.75 -4.109375 L 0.640625 -4.0625 L 0.671875 -3.921875 C 1.0625 -4 1.140625 -4.03125 1.234375 -4.03125 C 1.484375 -4.03125 1.546875 -3.9375 1.6875 -3.34375 L 1.96875 -2.109375 L 1.15625 -0.953125 C 0.953125 -0.640625 0.75 -0.46875 0.640625 -0.46875 C 0.59375 -0.46875 0.484375 -0.5 0.390625 -0.5625 C 0.265625 -0.625 0.15625 -0.65625 0.0625 -0.65625 C -0.125 -0.65625 -0.265625 -0.515625 -0.265625 -0.3125 C -0.265625 -0.046875 -0.0625 0.109375 0.234375 0.109375 C 0.53125 0.109375 0.65625 0.015625 1.15625 -0.59375 C 1.421875 -0.90625 1.640625 -1.171875 2.046875 -1.75 L 2.359375 -0.5625 C 2.484375 -0.046875 2.609375 0.109375 2.9375 0.109375 C 3.3125 0.109375 3.5625 -0.125 4.140625 -1.03125 Z M 4 -1.109375 "
               style="stroke:none;" />
          </symbol>
          <symbol
             id="textext-52ad2266-3"
             overflow="visible">
            <path
               id="path3006"
               d=""
               style="stroke:none;" />
          </symbol>
          <symbol
             id="textext-52ad2266-4"
             overflow="visible">
            <path
               id="path3009"
               d="M 5.71875 -2.28125 L 5.71875 -2.84375 L 3.453125 -2.84375 L 3.453125 -5.09375 L 2.890625 -5.09375 L 2.890625 -2.84375 L 0.625 -2.84375 L 0.625 -2.28125 L 2.890625 -2.28125 L 2.890625 0 L 3.453125 0 L 3.453125 -2.28125 Z M 5.71875 -2.28125 "
               style="stroke:none;" />
          </symbol>
          <symbol
             id="textext-52ad2266-5"
             overflow="visible">
            <path
               id="path3012"
               d="M 5.71875 -3.296875 L 5.71875 -3.84375 L 0.625 -3.84375 L 0.625 -3.296875 Z M 5.71875 -1.265625 L 5.71875 -1.828125 L 0.625 -1.828125 L 0.625 -1.265625 Z M 5.71875 -1.265625 "
               style="stroke:none;" />
          </symbol>
          <symbol
             id="textext-52ad2266-6"
             overflow="visible">
            <path
               id="path3015"
               d=""
               style="stroke:none;" />
          </symbol>
          <symbol
             id="textext-52ad2266-7"
             overflow="visible">
            <path
               id="path3018"
               d="M 2.90625 -6.734375 L 1.109375 -5.828125 L 1.109375 -5.6875 C 1.21875 -5.734375 1.328125 -5.78125 1.375 -5.796875 C 1.5625 -5.875 1.71875 -5.90625 1.828125 -5.90625 C 2.03125 -5.90625 2.125 -5.765625 2.125 -5.4375 L 2.125 -0.921875 C 2.125 -0.59375 2.046875 -0.375 1.890625 -0.28125 C 1.734375 -0.1875 1.59375 -0.15625 1.171875 -0.15625 L 1.171875 0 L 3.921875 0 L 3.921875 -0.15625 C 3.140625 -0.15625 2.984375 -0.265625 2.984375 -0.734375 L 2.984375 -6.71875 Z M 2.90625 -6.734375 "
               style="stroke:none;" />
          </symbol>
          <symbol
             id="textext-52ad2266-8"
             overflow="visible">
            <path
               id="path3021"
               d="M 4.734375 -1.359375 L 4.609375 -1.421875 C 4.234375 -0.84375 4.109375 -0.75 3.65625 -0.75 L 1.28125 -0.75 L 2.953125 -2.515625 C 3.84375 -3.4375 4.234375 -4.203125 4.234375 -4.96875 C 4.234375 -5.96875 3.421875 -6.734375 2.375 -6.734375 C 1.828125 -6.734375 1.3125 -6.515625 0.953125 -6.125 C 0.625 -5.78125 0.484375 -5.46875 0.3125 -4.75 L 0.515625 -4.703125 C 0.921875 -5.6875 1.28125 -6 1.96875 -6 C 2.796875 -6 3.375 -5.4375 3.375 -4.59375 C 3.375 -3.8125 2.90625 -2.890625 2.078125 -2 L 0.296875 -0.125 L 0.296875 0 L 4.1875 0 Z M 4.734375 -1.359375 "
               style="stroke:none;" />
          </symbol>
          <symbol
             id="textext-52ad2266-9"
             overflow="visible">
            <path
               id="path3024"
               d=""
               style="stroke:none;" />
          </symbol>
          <symbol
             id="textext-52ad2266-10"
             overflow="visible">
            <path
               id="path3027"
               d="M 9.09375 -2.5625 L 6.6875 -5.078125 L 6.40625 -4.78125 L 7.171875 -3.84375 L 2.546875 -3.84375 L 3.296875 -4.78125 L 3.015625 -5.078125 L 0.625 -2.546875 L 3.015625 -0.046875 L 3.296875 -0.34375 L 2.546875 -1.28125 L 7.171875 -1.28125 L 6.40625 -0.34375 L 6.6875 -0.046875 Z M 8.25 -2.5625 L 7.640625 -1.828125 L 2.0625 -1.828125 L 1.46875 -2.5625 L 2.078125 -3.296875 L 7.640625 -3.296875 Z M 8.25 -2.5625 "
               style="stroke:none;" />
          </symbol>
          <symbol
             id="textext-52ad2266-11"
             overflow="visible">
            <path
               id="path3030"
               d="M 5.71875 -2.28125 L 5.71875 -2.84375 L 0.625 -2.84375 L 0.625 -2.28125 Z M 5.71875 -2.28125 "
               style="stroke:none;" />
          </symbol>
        </g>
      </defs>
      <g
         id="textext-52ad2266-12">
        <g
           id="g3033"
           style="fill:rgb(0%,0%,0%);fill-opacity:1;">
          <use
             id="use3035"
             y="131.527"
             x="224.628"
             xlink:href="#textext-52ad2266-1" />
        </g>
        <g
           id="g3037"
           style="fill:rgb(0%,0%,0%);fill-opacity:1;">
          <use
             id="use3039"
             y="131.527"
             x="231.434"
             xlink:href="#textext-52ad2266-4" />
        </g>
        <g
           id="g3041"
           style="fill:rgb(0%,0%,0%);fill-opacity:1;">
          <use
             id="use3043"
             y="131.527"
             x="239.984"
             xlink:href="#textext-52ad2266-7" />
        </g>
        <path
           id="path3045"
           transform="matrix(1,0,0,-1,224.628,135.711)"
           d="M 0.00090625 0.0000625 L 20.336844 0.0000625 "
           style="fill:none;stroke-width:0.558;stroke-linecap:butt;stroke-linejoin:miter;stroke:rgb(0%,0%,0%);stroke-opacity:1;stroke-miterlimit:10;" />
        <g
           id="g3047"
           style="fill:rgb(0%,0%,0%);fill-opacity:1;">
          <use
             id="use3049"
             y="145.106"
             x="232.306"
             xlink:href="#textext-52ad2266-8" />
        </g>
        <g
           id="g3051"
           style="fill:rgb(0%,0%,0%);fill-opacity:1;">
          <use
             id="use3053"
             y="138.271"
             x="248.929"
             xlink:href="#textext-52ad2266-5" />
        </g>
        <g
           id="g3055"
           style="fill:rgb(0%,0%,0%);fill-opacity:1;">
          <use
             id="use3057"
             y="138.271"
             x="258.53"
             xlink:href="#textext-52ad2266-2" />
        </g>
        <g
           id="g3059"
           style="fill:rgb(0%,0%,0%);fill-opacity:1;">
          <use
             id="use3061"
             y="138.271"
             x="265.751"
             xlink:href="#textext-52ad2266-10" />
        </g>
        <g
           id="g3063"
           style="fill:rgb(0%,0%,0%);fill-opacity:1;">
          <use
             id="use3065"
             y="138.271"
             x="278.122"
             xlink:href="#textext-52ad2266-1" />
        </g>
        <g
           id="g3067"
           style="fill:rgb(0%,0%,0%);fill-opacity:1;">
          <use
             id="use3069"
             y="138.271"
             x="285.482"
             xlink:href="#textext-52ad2266-5" />
        </g>
        <g
           id="g3071"
           style="fill:rgb(0%,0%,0%);fill-opacity:1;">
          <use
             id="use3073"
             y="138.271"
             x="294.586"
             xlink:href="#textext-52ad2266-8" />
        </g>
        <g
           id="g3075"
           style="fill:rgb(0%,0%,0%);fill-opacity:1;">
          <use
             id="use3077"
             y="138.271"
             x="300.065"
             xlink:href="#textext-52ad2266-2" />
        </g>
        <g
           id="g3079"
           style="fill:rgb(0%,0%,0%);fill-opacity:1;">
          <use
             id="use3081"
             y="138.271"
             x="306.732"
             xlink:href="#textext-52ad2266-11" />
        </g>
        <g
           id="g3083"
           style="fill:rgb(0%,0%,0%);fill-opacity:1;">
          <use
             id="use3085"
             y="138.271"
             x="315.283"
             xlink:href="#textext-52ad2266-7" />
        </g>
      </g>
    </g>
    <path
       style="fill:none;stroke:#000000;stroke-width:1px;stroke-linecap:butt;stroke-linejoin:miter;stroke-opacity:1;marker-end:url(#Arrow1Mend)"
       d="m 277.28687,188.93429 34.59773,0 0,-17.9302"
       id="path3145"
       inkscape:connector-curvature="0" />
    <path
       inkscape:connector-curvature="0"
       id="path4359"
       d="m 277.28687,188.93429 34.59773,0 0,-17.9302"
       style="fill:none;stroke:#000000;stroke-width:1px;stroke-linecap:butt;stroke-linejoin:miter;stroke-opacity:1;marker-end:url(#Arrow1Mend)" />
    <path
       style="fill:none;stroke:#000000;stroke-width:1px;stroke-linecap:butt;stroke-linejoin:miter;stroke-opacity:1;marker-end:url(#Arrow1Mend)"
       d="m 371.6346,188.93429 -34.59773,0 0,-17.9302"
       id="path4361"
       inkscape:connector-curvature="0" />
    <text
       xml:space="preserve"
       style="font-size:12px;font-style:normal;font-variant:normal;font-weight:normal;font-stretch:normal;line-height:125%;letter-spacing:0px;word-spacing:0px;fill:#000000;fill-opacity:1;stroke:none;font-family:Nimbus Roman No9 L;-inkscape-font-specification:Nimbus Roman No9 L"
       x="375.5242"
       y="183.88353"
       id="text4363"
       sodipodi:linespacing="125%"><tspan
         sodipodi:role="line"
         id="tspan4365"
         x="375.5242"
         y="183.88353">possible value</tspan><tspan
         sodipodi:role="line"
         x="375.5242"
         y="198.88353"
         id="tspan4367">of </tspan></text>
    <text
       sodipodi:linespacing="125%"
       id="text4369"
       y="191.68048"
       x="208.34395"
       style="font-size:12px;font-style:normal;font-variant:normal;font-weight:normal;font-stretch:normal;line-height:125%;letter-spacing:0px;word-spacing:0px;fill:#000000;fill-opacity:1;stroke:none;font-family:Nimbus Roman No9 L;-inkscape-font-specification:Nimbus Roman No9 L"
       xml:space="preserve"><tspan
         y="191.68048"
         x="208.34395"
         id="tspan4371"
         sodipodi:role="line">possible value</tspan><tspan
         id="tspan4373"
         y="206.68048"
         x="208.34395"
         sodipodi:role="line">of </tspan></text>
    <g
       inkscape:transform-center-y="-8.2142857"
       inkscape:transform-center-x="-7.8571429"
       transform="matrix(1.2,0,0,1.2,-45.694534,45.424049)"
       ns0:text="$X$"
       ns0:preamble="/home/sriranga/Desktop/general-books/CSY/article4/figure/package.tex"
       id="g4446">
      <defs
         id="defs4448">
        <g
           id="g4450">
          <symbol
             style="overflow:visible"
             overflow="visible"
             id="textext-6bdda00a-0">
            <path
               inkscape:connector-curvature="0"
               style="stroke:none"
               d=""
               id="path4453" />
          </symbol>
          <symbol
             style="overflow:visible"
             overflow="visible"
             id="textext-6bdda00a-1">
            <path
               inkscape:connector-curvature="0"
               style="stroke:none"
               d="m 6.53125,-6.515625 -2.078125,0 0,0.171875 c 0.484375,0.046875 0.609375,0.125 0.609375,0.359375 0,0.125 -0.0625,0.25 -0.203125,0.40625 l -1.4375,1.65625 -0.59375,-1.46875 C 2.71875,-5.640625 2.6875,-5.8125 2.6875,-5.9375 c 0,-0.25 0.15625,-0.34375 0.703125,-0.40625 l 0,-0.171875 -2.640625,0 0,0.171875 c 0.578125,0.046875 0.734375,0.140625 0.921875,0.609375 l 1.0625,2.609375 c -0.375,0.421875 -0.703125,0.8125 -0.828125,0.96875 -1.390625,1.640625 -1.671875,1.890625 -2.203125,2 l 0,0.15625 2.140625,0 0,-0.15625 C 1.359375,-0.15625 1.203125,-0.25 1.203125,-0.5 c 0,-0.140625 0.078125,-0.3125 0.203125,-0.46875 l 1.5,-1.71875 0.671875,1.65625 c 0.078125,0.171875 0.109375,0.328125 0.109375,0.484375 0,0.28125 -0.09375,0.34375 -0.75,0.390625 l 0,0.15625 2.71875,0 0,-0.15625 C 4.953125,-0.234375 4.859375,-0.296875 4.609375,-0.890625 L 3.59375,-3.46875 l 1.6875,-1.9375 c 0.515625,-0.578125 0.8125,-0.796875 1.25,-0.9375 z m 0,0"
               id="path4456" />
          </symbol>
        </g>
      </defs>
      <g
         id="textext-6bdda00a-2">
        <g
           style="fill:#000000;fill-opacity:1"
           id="g4459">
          <use
             height="1052.3622"
             width="744.09448"
             xlink:href="#textext-6bdda00a-1"
             x="223.681"
             y="134.765"
             id="use4461" />
        </g>
      </g>
    </g>
    <g
       id="g4643"
       transform="matrix(1.2,0,0,1.2,120.44832,37.566906)"
       ns0:preamble="/home/sriranga/Desktop/general-books/CSY/article4/figure/package.tex"
       ns0:text="$Y$">
      <defs
         id="defs4645">
        <g
           id="g4647">
          <symbol
             id="textext-0611acde-0"
             overflow="visible"
             style="overflow:visible">
            <path
               id="path4650"
               d=""
               style="stroke:none"
               inkscape:connector-curvature="0" />
          </symbol>
          <symbol
             id="textext-0611acde-1"
             overflow="visible"
             style="overflow:visible">
            <path
               id="path4653"
               d="M 0.90625,-6.34375 C 1.46875,-6.265625 1.5,-6.234375 1.671875,-5.6875 l 0.765625,2.671875 -0.609375,2.125 C 1.65625,-0.359375 1.4375,-0.203125 0.78125,-0.15625 l 0,0.15625 2.875,0 0,-0.15625 C 3.5,-0.171875 3.359375,-0.171875 3.296875,-0.1875 c -0.390625,-0.015625 -0.53125,-0.125 -0.53125,-0.375 0,-0.203125 0.078125,-0.5 0.3125,-1.28125 C 3.109375,-1.9375 3.125,-2 3.140625,-2.046875 l 0.28125,-1 2.1875,-2.6875 C 5.9375,-6.140625 6.015625,-6.203125 6.3125,-6.34375 l 0,-0.171875 -1.890625,0 0,0.171875 c 0.125,0 0.234375,0.015625 0.265625,0.03125 0.296875,0.015625 0.421875,0.109375 0.421875,0.265625 0,0.28125 -0.453125,0.921875 -1.484375,2.125 -0.171875,0.203125 -0.234375,0.28125 -0.390625,0.46875 C 3.125,-3.890625 3.09375,-4.03125 2.9375,-4.5625 2.6875,-5.40625 2.578125,-5.84375 2.578125,-5.984375 c 0,-0.25 0.109375,-0.3125 0.71875,-0.359375 l 0,-0.171875 -2.390625,0 z m 0,0"
               style="stroke:none"
               inkscape:connector-curvature="0" />
          </symbol>
        </g>
      </defs>
      <g
         id="textext-0611acde-2">
        <g
           id="g4656"
           style="fill:#000000;fill-opacity:1">
          <use
             id="use4658"
             y="134.765"
             x="223.43201"
             xlink:href="#textext-0611acde-1"
             width="744.09448"
             height="1052.3622" />
        </g>
      </g>
    </g>
  </g>
</svg>
