<?xml version="1.0" encoding="UTF-8" standalone="no"?>
<!-- Created with Inkscape (http://www.inkscape.org/) -->

<svg
   xmlns:ns0="http://www.iki.fi/pav/software/textext/"
   xmlns:dc="http://purl.org/dc/elements/1.1/"
   xmlns:cc="http://creativecommons.org/ns#"
   xmlns:rdf="http://www.w3.org/1999/02/22-rdf-syntax-ns#"
   xmlns:svg="http://www.w3.org/2000/svg"
   xmlns="http://www.w3.org/2000/svg"
   xmlns:xlink="http://www.w3.org/1999/xlink"
   xmlns:sodipodi="http://sodipodi.sourceforge.net/DTD/sodipodi-0.dtd"
   xmlns:inkscape="http://www.inkscape.org/namespaces/inkscape"
   width="283.46457"
   height="177.16534"
   id="svg2"
   version="1.1"
   inkscape:version="0.48.4 r9939"
   sodipodi:docname="New document 1">
  <sodipodi:namedview
     id="base"
     pagecolor="#ffffff"
     bordercolor="#666666"
     borderopacity="1.0"
     inkscape:pageopacity="0.0"
     inkscape:pageshadow="2"
     inkscape:zoom="1.8402153"
     inkscape:cx="92.002371"
     inkscape:cy="61.165518"
     inkscape:document-units="px"
     inkscape:current-layer="layer1"
     showgrid="false"
     units="cm"
     inkscape:window-width="1024"
     inkscape:window-height="744"
     inkscape:window-x="0"
     inkscape:window-y="24"
     inkscape:window-maximized="1" />
  <defs
     id="defs4">
    <marker
       style="overflow:visible;"
       id="Arrow1Mend"
       refX="0.0"
       refY="0.0"
       orient="auto"
       inkscape:stockid="Arrow1Mend">
      <path
         transform="scale(0.4) rotate(180) translate(10,0)"
         style="fill-rule:evenodd;stroke:#000000;stroke-width:1.0pt;"
         d="M 0.0,0.0 L 5.0,-5.0 L -12.5,0.0 L 5.0,5.0 L 0.0,0.0 z "
         id="path3891" />
    </marker>
  </defs>
  <metadata
     id="metadata7">
    <rdf:RDF>
      <cc:Work
         rdf:about="">
        <dc:format>image/svg+xml</dc:format>
        <dc:type
           rdf:resource="http://purl.org/dc/dcmitype/StillImage" />
        <dc:title></dc:title>
      </cc:Work>
    </rdf:RDF>
  </metadata>
  <g
     inkscape:label="Layer 1"
     inkscape:groupmode="layer"
     id="layer1"
     transform="translate(0,-875.19552)">
    <path
       sodipodi:type="arc"
       style="fill:none;stroke:#000000;stroke-width:1.43306291;stroke-linecap:round;stroke-linejoin:miter;stroke-miterlimit:4;stroke-opacity:1;stroke-dasharray:none;stroke-dashoffset:0"
       id="path2985"
       sodipodi:cx="76.785713"
       sodipodi:cy="91.808205"
       sodipodi:rx="21.428572"
       sodipodi:ry="42.857143"
       d="m 98.214285,91.808205 c 0,23.669345 -9.593898,42.857145 -21.428572,42.857145 -11.834673,0 -21.428572,-19.1878 -21.428572,-42.857145 0,-23.669347 9.593899,-42.857144 21.428572,-42.857144 11.834674,0 21.428572,19.187797 21.428572,42.857144 z"
       transform="matrix(0.69166667,0,0,1.1,34.568452,845.15755)" />
    <path
       transform="matrix(0.69166667,0,0,1.1,148.56845,845.15755)"
       d="m 98.214285,91.808205 c 0,23.669345 -9.593898,42.857145 -21.428572,42.857145 -11.834673,0 -21.428572,-19.1878 -21.428572,-42.857145 0,-23.669347 9.593899,-42.857144 21.428572,-42.857144 11.834674,0 21.428572,19.187797 21.428572,42.857144 z"
       sodipodi:ry="42.857143"
       sodipodi:rx="21.428572"
       sodipodi:cy="91.808205"
       sodipodi:cx="76.785713"
       id="path2987"
       style="fill:none;stroke:#000000;stroke-width:1.43306291;stroke-linecap:round;stroke-linejoin:miter;stroke-miterlimit:4;stroke-opacity:1;stroke-dasharray:none;stroke-dashoffset:0"
       sodipodi:type="arc" />
    <text
       xml:space="preserve"
       style="font-size:12px;font-style:normal;font-variant:normal;font-weight:normal;font-stretch:normal;line-height:125%;letter-spacing:0px;word-spacing:0px;fill:#000000;fill-opacity:1;stroke:none;font-family:Nimbus Roman No9 L;-inkscape-font-specification:Nimbus Roman No9 L"
       x="85"
       y="916.14655"
       id="text2989"
       sodipodi:linespacing="125%"><tspan
         sodipodi:role="line"
         id="tspan2991"
         x="85"
         y="916.14655">0</tspan><tspan
         sodipodi:role="line"
         x="85"
         y="931.14655"
         id="tspan2993" /><tspan
         sodipodi:role="line"
         x="85"
         y="946.14655"
         id="tspan2995"
         dy="-10.357141">1</tspan><tspan
         sodipodi:role="line"
         x="85"
         y="961.14655"
         id="tspan2997" /><tspan
         sodipodi:role="line"
         x="85"
         y="976.14655"
         id="tspan2999"
         dy="-16.428564">2</tspan><tspan
         sodipodi:role="line"
         x="85"
         y="991.14655"
         id="tspan3001" /><tspan
         sodipodi:role="line"
         x="85"
         y="1006.1465"
         id="tspan3003"
         dy="-22.142859">3</tspan></text>
    <text
       sodipodi:linespacing="125%"
       id="text3005"
       y="915.88843"
       x="199"
       style="font-size:12px;font-style:normal;font-variant:normal;font-weight:normal;font-stretch:normal;line-height:125%;letter-spacing:0px;word-spacing:0px;fill:#000000;fill-opacity:1;stroke:none;font-family:Nimbus Roman No9 L;-inkscape-font-specification:Nimbus Roman No9 L"
       xml:space="preserve"><tspan
         y="915.88843"
         x="199"
         id="tspan3007"
         sodipodi:role="line" /><tspan
         id="tspan3009"
         y="930.88843"
         x="199"
         sodipodi:role="line" /><tspan
         dy="-10.357141"
         id="tspan3011"
         y="945.88843"
         x="199"
         sodipodi:role="line">1</tspan><tspan
         id="tspan3015"
         y="960.88843"
         x="199"
         sodipodi:role="line"
         dy="-1.4285713">3</tspan><tspan
         id="tspan3019"
         y="975.88843"
         x="199"
         sodipodi:role="line"
         dy="7.1428576">5</tspan></text>
    <g
       transform="matrix(1.2,0,0,1.2,-76.19459,755.23627)"
       ns0:text="$-1$"
       ns0:preamble="/home/sriranga/Desktop/general-books/CSY/article4/figure/package.tex"
       id="g3046">
      <defs
         id="defs3048">
        <g
           id="g3050">
          <symbol
             style="overflow:visible"
             overflow="visible"
             id="textext-f743ebb0-0">
            <path
               inkscape:connector-curvature="0"
               style="stroke:none"
               d=""
               id="path3053" />
          </symbol>
          <symbol
             style="overflow:visible"
             overflow="visible"
             id="textext-f743ebb0-1">
            <path
               inkscape:connector-curvature="0"
               style="stroke:none"
               d="m 5.71875,-2.28125 0,-0.5625 -5.09375,0 0,0.5625 z m 0,0"
               id="path3056" />
          </symbol>
          <symbol
             style="overflow:visible"
             overflow="visible"
             id="textext-f743ebb0-2">
            <path
               inkscape:connector-curvature="0"
               style="stroke:none"
               d=""
               id="path3059" />
          </symbol>
          <symbol
             style="overflow:visible"
             overflow="visible"
             id="textext-f743ebb0-3">
            <path
               inkscape:connector-curvature="0"
               style="stroke:none"
               d="m 2.90625,-6.734375 -1.796875,0.90625 0,0.140625 C 1.21875,-5.734375 1.328125,-5.78125 1.375,-5.796875 1.5625,-5.875 1.71875,-5.90625 1.828125,-5.90625 2.03125,-5.90625 2.125,-5.765625 2.125,-5.4375 l 0,4.515625 c 0,0.328125 -0.078125,0.546875 -0.234375,0.640625 -0.15625,0.09375 -0.296875,0.125 -0.71875,0.125 l 0,0.15625 2.75,0 0,-0.15625 c -0.78125,0 -0.9375,-0.109375 -0.9375,-0.578125 l 0,-5.984375 z m 0,0"
               id="path3062" />
          </symbol>
        </g>
      </defs>
      <g
         id="textext-f743ebb0-4">
        <g
           style="fill:#000000;fill-opacity:1"
           id="g3065">
          <use
             height="177.16534"
             width="283.46457"
             xlink:href="#textext-f743ebb0-1"
             x="223.43201"
             y="134.765"
             id="use3067" />
        </g>
        <g
           style="fill:#000000;fill-opacity:1"
           id="g3069">
          <use
             height="177.16534"
             width="283.46457"
             xlink:href="#textext-f743ebb0-3"
             x="229.76801"
             y="134.765"
             id="use3071" />
        </g>
      </g>
    </g>
    <path
       inkscape:connector-curvature="0"
       id="path3108"
       d="m 110.53024,912.73019 64.26674,0"
       style="fill:none;stroke:#000000;stroke-width:1px;stroke-linecap:butt;stroke-linejoin:miter;stroke-opacity:1;marker-end:url(#Arrow1Mend)" />
    <path
       style="fill:none;stroke:#000000;stroke-width:1px;stroke-linecap:butt;stroke-linejoin:miter;stroke-opacity:1;marker-end:url(#Arrow1Mend)"
       d="m 110.53024,932.73019 64.26674,0"
       id="path4322"
       inkscape:connector-curvature="0" />
    <path
       inkscape:connector-curvature="0"
       id="path4324"
       d="m 110.53024,956.73019 64.26674,0"
       style="fill:none;stroke:#000000;stroke-width:1px;stroke-linecap:butt;stroke-linejoin:miter;stroke-opacity:1;marker-end:url(#Arrow1Mend)" />
    <path
       style="fill:none;stroke:#000000;stroke-width:1px;stroke-linecap:butt;stroke-linejoin:miter;stroke-opacity:1;marker-end:url(#Arrow1Mend)"
       d="m 110.53024,982.73019 64.26674,0"
       id="path4326"
       inkscape:connector-curvature="0" />
    <path
       style="fill:none;stroke:#000000;stroke-width:1px;stroke-linecap:butt;stroke-linejoin:miter;stroke-opacity:1;marker-end:url(#Arrow1Mend)"
       d="m 110.53024,888.73019 64.26674,0"
       id="path4328"
       inkscape:connector-curvature="0" />
    <g
       id="g4374"
       ns0:preamble="/home/sriranga/Desktop/general-books/CSY/article4/figure/package.tex"
       ns0:text="$x$"
       transform="matrix(1.2,0,0,1.2,-165.52783,729.96039)">
      <defs
         id="defs4376">
        <g
           id="g4378">
          <symbol
             id="textext-5d44e608-0"
             overflow="visible"
             style="overflow:visible">
            <path
               id="path4381"
               d=""
               style="stroke:none"
               inkscape:connector-curvature="0" />
          </symbol>
          <symbol
             id="textext-5d44e608-1"
             overflow="visible"
             style="overflow:visible">
            <path
               id="path4384"
               d="M 4,-1.109375 C 3.921875,-1.015625 3.875,-0.953125 3.78125,-0.84375 3.5625,-0.53125 3.4375,-0.4375 3.328125,-0.4375 3.1875,-0.4375 3.09375,-0.5625 3.015625,-0.84375 3,-0.921875 2.984375,-0.984375 2.984375,-1.015625 2.734375,-2.03125 2.625,-2.484375 2.625,-2.625 c 0.4375,-0.78125 0.796875,-1.21875 0.96875,-1.21875 0.0625,0 0.140625,0.03125 0.25,0.078125 0.109375,0.078125 0.1875,0.09375 0.265625,0.09375 0.203125,0 0.34375,-0.140625 0.34375,-0.359375 0,-0.203125 -0.171875,-0.359375 -0.40625,-0.359375 -0.4375,0 -0.8125,0.359375 -1.5,1.421875 L 2.4375,-3.515625 c -0.140625,-0.6875 -0.25,-0.875 -0.53125,-0.875 -0.21875,0 -0.546875,0.078125 -1.15625,0.28125 L 0.640625,-4.0625 0.671875,-3.921875 C 1.0625,-4 1.140625,-4.03125 1.234375,-4.03125 c 0.25,0 0.3125,0.09375 0.453125,0.6875 l 0.28125,1.234375 -0.8125,1.15625 C 0.953125,-0.640625 0.75,-0.46875 0.640625,-0.46875 0.59375,-0.46875 0.484375,-0.5 0.390625,-0.5625 0.265625,-0.625 0.15625,-0.65625 0.0625,-0.65625 c -0.1875,0 -0.328125,0.140625 -0.328125,0.34375 0,0.265625 0.203125,0.421875 0.5,0.421875 0.296875,0 0.421875,-0.09375 0.921875,-0.703125 0.265625,-0.3125 0.484375,-0.578125 0.890625,-1.15625 l 0.3125,1.1875 c 0.125,0.515625 0.25,0.671875 0.578125,0.671875 0.375,0 0.625,-0.234375 1.203125,-1.140625 z m 0,0"
               style="stroke:none"
               inkscape:connector-curvature="0" />
          </symbol>
        </g>
      </defs>
      <g
         id="textext-5d44e608-2">
        <g
           id="g4387"
           style="fill:#000000;fill-opacity:1">
          <use
             id="use4389"
             y="134.765"
             x="223.92999"
             xlink:href="#textext-5d44e608-1"
             width="283.46457"
             height="177.16534" />
        </g>
      </g>
    </g>
    <g
       ns0:text="$h$"
       ns0:preamble="/home/sriranga/Desktop/general-books/CSY/article4/figure/package.tex"
       transform="matrix(1.2,0,0,1.2,-131.52783,724.32329)"
       id="g4517">
      <defs
         id="defs4519">
        <g
           id="g4521">
          <symbol
             style="overflow:visible"
             overflow="visible"
             id="textext-f05f0f07-0">
            <path
               inkscape:connector-curvature="0"
               style="stroke:none"
               d=""
               id="path4524" />
          </symbol>
          <symbol
             style="overflow:visible"
             overflow="visible"
             id="textext-f05f0f07-1">
            <path
               inkscape:connector-curvature="0"
               style="stroke:none"
               d="M 4.640625,-1.171875 C 4.09375,-0.484375 3.984375,-0.375 3.8125,-0.375 c -0.078125,0 -0.15625,-0.09375 -0.15625,-0.1875 0,-0.09375 0.15625,-0.71875 0.328125,-1.234375 0.296875,-0.953125 0.484375,-1.6875 0.484375,-1.9375 0,-0.390625 -0.265625,-0.65625 -0.65625,-0.65625 -0.65625,0 -1.359375,0.65625 -2.28125,2.09375 L 2.71875,-6.765625 2.671875,-6.8125 c -0.578125,0.140625 -0.96875,0.203125 -1.5625,0.265625 l 0,0.15625 0.25,0 c 0.015625,0 0.03125,0 0.03125,-0.015625 0.140625,-0.046875 0.390625,0.109375 0.390625,0.25 0,0.140625 -0.0625,0.390625 -0.140625,0.6875 -0.015625,0 -0.046875,0.140625 -0.109375,0.359375 L 0.1875,0 0.9375,0 C 1.328125,-1.53125 1.46875,-1.875 1.859375,-2.484375 2.375,-3.265625 3.0625,-3.890625 3.40625,-3.890625 c 0.15625,0 0.28125,0.125 0.28125,0.25 0,0.046875 -0.03125,0.171875 -0.0625,0.328125 L 3.078125,-1.25 C 2.9375,-0.75 2.875,-0.453125 2.875,-0.328125 c 0,0.265625 0.171875,0.421875 0.4375,0.421875 0.5,0 0.859375,-0.265625 1.453125,-1.140625 z m 0,0"
               id="path4527" />
          </symbol>
        </g>
      </defs>
      <g
         id="textext-f05f0f07-2">
        <g
           style="fill:#000000;fill-opacity:1"
           id="g4530">
          <use
             height="177.16534"
             width="283.46457"
             xlink:href="#textext-f05f0f07-1"
             x="223.43201"
             y="134.765"
             id="use4532" />
        </g>
      </g>
    </g>
    <g
       id="g4680"
       transform="matrix(1.2,0,0,1.2,-90.073526,729.7776)"
       ns0:preamble="/home/sriranga/Desktop/general-books/CSY/article4/figure/package.tex"
       ns0:text="$2x-1$">
      <defs
         id="defs4682">
        <g
           id="g4684">
          <symbol
             id="textext-c56db975-0"
             overflow="visible"
             style="overflow:visible">
            <path
               id="path4687"
               d=""
               style="stroke:none"
               inkscape:connector-curvature="0" />
          </symbol>
          <symbol
             id="textext-c56db975-1"
             overflow="visible"
             style="overflow:visible">
            <path
               id="path4690"
               d="m 4.734375,-1.359375 -0.125,-0.0625 C 4.234375,-0.84375 4.109375,-0.75 3.65625,-0.75 l -2.375,0 1.671875,-1.765625 c 0.890625,-0.921875 1.28125,-1.6875 1.28125,-2.453125 0,-1 -0.8125,-1.765625 -1.859375,-1.765625 -0.546875,0 -1.0625,0.21875 -1.421875,0.609375 C 0.625,-5.78125 0.484375,-5.46875 0.3125,-4.75 l 0.203125,0.046875 C 0.921875,-5.6875 1.28125,-6 1.96875,-6 2.796875,-6 3.375,-5.4375 3.375,-4.59375 3.375,-3.8125 2.90625,-2.890625 2.078125,-2 l -1.78125,1.875 0,0.125 3.890625,0 z m 0,0"
               style="stroke:none"
               inkscape:connector-curvature="0" />
          </symbol>
          <symbol
             id="textext-c56db975-2"
             overflow="visible"
             style="overflow:visible">
            <path
               id="path4693"
               d="m 2.90625,-6.734375 -1.796875,0.90625 0,0.140625 C 1.21875,-5.734375 1.328125,-5.78125 1.375,-5.796875 1.5625,-5.875 1.71875,-5.90625 1.828125,-5.90625 2.03125,-5.90625 2.125,-5.765625 2.125,-5.4375 l 0,4.515625 c 0,0.328125 -0.078125,0.546875 -0.234375,0.640625 -0.15625,0.09375 -0.296875,0.125 -0.71875,0.125 l 0,0.15625 2.75,0 0,-0.15625 c -0.78125,0 -0.9375,-0.109375 -0.9375,-0.578125 l 0,-5.984375 z m 0,0"
               style="stroke:none"
               inkscape:connector-curvature="0" />
          </symbol>
          <symbol
             id="textext-c56db975-3"
             overflow="visible"
             style="overflow:visible">
            <path
               id="path4696"
               d=""
               style="stroke:none"
               inkscape:connector-curvature="0" />
          </symbol>
          <symbol
             id="textext-c56db975-4"
             overflow="visible"
             style="overflow:visible">
            <path
               id="path4699"
               d="M 4,-1.109375 C 3.921875,-1.015625 3.875,-0.953125 3.78125,-0.84375 3.5625,-0.53125 3.4375,-0.4375 3.328125,-0.4375 3.1875,-0.4375 3.09375,-0.5625 3.015625,-0.84375 3,-0.921875 2.984375,-0.984375 2.984375,-1.015625 2.734375,-2.03125 2.625,-2.484375 2.625,-2.625 c 0.4375,-0.78125 0.796875,-1.21875 0.96875,-1.21875 0.0625,0 0.140625,0.03125 0.25,0.078125 0.109375,0.078125 0.1875,0.09375 0.265625,0.09375 0.203125,0 0.34375,-0.140625 0.34375,-0.359375 0,-0.203125 -0.171875,-0.359375 -0.40625,-0.359375 -0.4375,0 -0.8125,0.359375 -1.5,1.421875 L 2.4375,-3.515625 c -0.140625,-0.6875 -0.25,-0.875 -0.53125,-0.875 -0.21875,0 -0.546875,0.078125 -1.15625,0.28125 L 0.640625,-4.0625 0.671875,-3.921875 C 1.0625,-4 1.140625,-4.03125 1.234375,-4.03125 c 0.25,0 0.3125,0.09375 0.453125,0.6875 l 0.28125,1.234375 -0.8125,1.15625 C 0.953125,-0.640625 0.75,-0.46875 0.640625,-0.46875 0.59375,-0.46875 0.484375,-0.5 0.390625,-0.5625 0.265625,-0.625 0.15625,-0.65625 0.0625,-0.65625 c -0.1875,0 -0.328125,0.140625 -0.328125,0.34375 0,0.265625 0.203125,0.421875 0.5,0.421875 0.296875,0 0.421875,-0.09375 0.921875,-0.703125 0.265625,-0.3125 0.484375,-0.578125 0.890625,-1.15625 l 0.3125,1.1875 c 0.125,0.515625 0.25,0.671875 0.578125,0.671875 0.375,0 0.625,-0.234375 1.203125,-1.140625 z m 0,0"
               style="stroke:none"
               inkscape:connector-curvature="0" />
          </symbol>
          <symbol
             id="textext-c56db975-5"
             overflow="visible"
             style="overflow:visible">
            <path
               id="path4702"
               d=""
               style="stroke:none"
               inkscape:connector-curvature="0" />
          </symbol>
          <symbol
             id="textext-c56db975-6"
             overflow="visible"
             style="overflow:visible">
            <path
               id="path4705"
               d="m 5.71875,-2.28125 0,-0.5625 -5.09375,0 0,0.5625 z m 0,0"
               style="stroke:none"
               inkscape:connector-curvature="0" />
          </symbol>
        </g>
      </defs>
      <g
         id="textext-c56db975-7">
        <g
           id="g4708"
           style="fill:#000000;fill-opacity:1">
          <use
             id="use4710"
             y="134.765"
             x="223.43201"
             xlink:href="#textext-c56db975-1"
             width="283.46457"
             height="177.16534" />
        </g>
        <g
           id="g4712"
           style="fill:#000000;fill-opacity:1">
          <use
             id="use4714"
             y="134.765"
             x="228.912"
             xlink:href="#textext-c56db975-4"
             width="283.46457"
             height="177.16534" />
        </g>
        <g
           id="g4716"
           style="fill:#000000;fill-opacity:1">
          <use
             id="use4718"
             y="134.765"
             x="235.57899"
             xlink:href="#textext-c56db975-6"
             width="283.46457"
             height="177.16534" />
        </g>
        <g
           id="g4720"
           style="fill:#000000;fill-opacity:1">
          <use
             id="use4722"
             y="134.765"
             x="244.129"
             xlink:href="#textext-c56db975-2"
             width="283.46457"
             height="177.16534" />
        </g>
      </g>
    </g>
    <path
       inkscape:connector-curvature="0"
       id="path4825"
       d="m 87.216745,1018.7171 0,-18.7347"
       style="fill:none;stroke:#000000;stroke-width:1px;stroke-linecap:butt;stroke-linejoin:miter;stroke-opacity:1;marker-end:url(#Arrow1Mend)"
       sodipodi:nodetypes="cc" />
    <path
       sodipodi:nodetypes="cc"
       style="fill:none;stroke:#000000;stroke-width:1px;stroke-linecap:butt;stroke-linejoin:miter;stroke-opacity:1;marker-end:url(#Arrow1Mend)"
       d="m 202.24571,1018.7171 0,-18.7347"
       id="path4827"
       inkscape:connector-curvature="0" />
    <text
       xml:space="preserve"
       style="font-size:12px;font-style:normal;font-variant:normal;font-weight:normal;font-stretch:normal;line-height:125%;letter-spacing:0px;word-spacing:0px;fill:#000000;fill-opacity:1;stroke:none;font-family:Nimbus Roman No9 L;-inkscape-font-specification:Nimbus Roman No9 L"
       x="50.108612"
       y="1031.7814"
       id="text4829"
       sodipodi:linespacing="125%"><tspan
         sodipodi:role="line"
         id="tspan4831"
         x="50.108612"
         y="1031.7814">possible values</tspan><tspan
         sodipodi:role="line"
         x="50.108612"
         y="1046.7814"
         id="tspan4833">       of </tspan></text>
    <g
       transform="matrix(1.2,0,0,1.2,-181.09432,885.05337)"
       ns0:text="$X$"
       ns0:preamble="/home/sriranga/Desktop/general-books/CSY/article4/figure/package.tex"
       id="g4930">
      <defs
         id="defs4932">
        <g
           id="g4934">
          <symbol
             style="overflow:visible"
             overflow="visible"
             id="textext-6bdda00a-0">
            <path
               inkscape:connector-curvature="0"
               style="stroke:none"
               d=""
               id="path4937" />
          </symbol>
          <symbol
             style="overflow:visible"
             overflow="visible"
             id="textext-6bdda00a-1">
            <path
               inkscape:connector-curvature="0"
               style="stroke:none"
               d="m 6.53125,-6.515625 -2.078125,0 0,0.171875 c 0.484375,0.046875 0.609375,0.125 0.609375,0.359375 0,0.125 -0.0625,0.25 -0.203125,0.40625 l -1.4375,1.65625 -0.59375,-1.46875 C 2.71875,-5.640625 2.6875,-5.8125 2.6875,-5.9375 c 0,-0.25 0.15625,-0.34375 0.703125,-0.40625 l 0,-0.171875 -2.640625,0 0,0.171875 c 0.578125,0.046875 0.734375,0.140625 0.921875,0.609375 l 1.0625,2.609375 c -0.375,0.421875 -0.703125,0.8125 -0.828125,0.96875 -1.390625,1.640625 -1.671875,1.890625 -2.203125,2 l 0,0.15625 2.140625,0 0,-0.15625 C 1.359375,-0.15625 1.203125,-0.25 1.203125,-0.5 c 0,-0.140625 0.078125,-0.3125 0.203125,-0.46875 l 1.5,-1.71875 0.671875,1.65625 c 0.078125,0.171875 0.109375,0.328125 0.109375,0.484375 0,0.28125 -0.09375,0.34375 -0.75,0.390625 l 0,0.15625 2.71875,0 0,-0.15625 C 4.953125,-0.234375 4.859375,-0.296875 4.609375,-0.890625 L 3.59375,-3.46875 l 1.6875,-1.9375 c 0.515625,-0.578125 0.8125,-0.796875 1.25,-0.9375 z m 0,0"
               id="path4940" />
          </symbol>
        </g>
      </defs>
      <g
         id="textext-6bdda00a-2">
        <g
           style="fill:#000000;fill-opacity:1"
           id="g4943">
          <use
             height="177.16534"
             width="283.46457"
             xlink:href="#textext-6bdda00a-1"
             x="223.681"
             y="134.765"
             id="use4945" />
        </g>
      </g>
    </g>
    <text
       sodipodi:linespacing="125%"
       id="text5050"
       y="1031.7814"
       x="165.72437"
       style="font-size:12px;font-style:normal;font-variant:normal;font-weight:normal;font-stretch:normal;line-height:125%;letter-spacing:0px;word-spacing:0px;fill:#000000;fill-opacity:1;stroke:none;font-family:Nimbus Roman No9 L;-inkscape-font-specification:Nimbus Roman No9 L"
       xml:space="preserve"><tspan
         y="1031.7814"
         x="165.72437"
         id="tspan5052"
         sodipodi:role="line">possible values</tspan><tspan
         id="tspan5054"
         y="1046.7814"
         x="165.72437"
         sodipodi:role="line">       of </tspan></text>
    <g
       id="g5184"
       transform="matrix(1.2,0,0,1.2,-65.790331,885.05337)"
       ns0:preamble="/home/sriranga/Desktop/general-books/CSY/article4/figure/package.tex"
       ns0:text="$Y$">
      <defs
         id="defs5186">
        <g
           id="g5188">
          <symbol
             id="textext-0611acde-0"
             overflow="visible"
             style="overflow:visible">
            <path
               id="path5191"
               d=""
               style="stroke:none"
               inkscape:connector-curvature="0" />
          </symbol>
          <symbol
             id="textext-0611acde-1"
             overflow="visible"
             style="overflow:visible">
            <path
               id="path5194"
               d="M 0.90625,-6.34375 C 1.46875,-6.265625 1.5,-6.234375 1.671875,-5.6875 l 0.765625,2.671875 -0.609375,2.125 C 1.65625,-0.359375 1.4375,-0.203125 0.78125,-0.15625 l 0,0.15625 2.875,0 0,-0.15625 C 3.5,-0.171875 3.359375,-0.171875 3.296875,-0.1875 c -0.390625,-0.015625 -0.53125,-0.125 -0.53125,-0.375 0,-0.203125 0.078125,-0.5 0.3125,-1.28125 C 3.109375,-1.9375 3.125,-2 3.140625,-2.046875 l 0.28125,-1 2.1875,-2.6875 C 5.9375,-6.140625 6.015625,-6.203125 6.3125,-6.34375 l 0,-0.171875 -1.890625,0 0,0.171875 c 0.125,0 0.234375,0.015625 0.265625,0.03125 0.296875,0.015625 0.421875,0.109375 0.421875,0.265625 0,0.28125 -0.453125,0.921875 -1.484375,2.125 -0.171875,0.203125 -0.234375,0.28125 -0.390625,0.46875 C 3.125,-3.890625 3.09375,-4.03125 2.9375,-4.5625 2.6875,-5.40625 2.578125,-5.84375 2.578125,-5.984375 c 0,-0.25 0.109375,-0.3125 0.71875,-0.359375 l 0,-0.171875 -2.390625,0 z m 0,0"
               style="stroke:none"
               inkscape:connector-curvature="0" />
          </symbol>
        </g>
      </defs>
      <g
         id="textext-0611acde-2">
        <g
           id="g5197"
           style="fill:#000000;fill-opacity:1">
          <use
             id="use5199"
             y="134.765"
             x="223.43201"
             xlink:href="#textext-0611acde-1"
             width="283.46457"
             height="177.16534" />
        </g>
      </g>
    </g>
  </g>
</svg>
