<?xml version="1.0" encoding="UTF-8" standalone="no"?>
<!-- Created with Inkscape (http://www.inkscape.org/) -->

<svg
   xmlns:ns0="http://www.iki.fi/pav/software/textext/"
   xmlns:dc="http://purl.org/dc/elements/1.1/"
   xmlns:cc="http://creativecommons.org/ns#"
   xmlns:rdf="http://www.w3.org/1999/02/22-rdf-syntax-ns#"
   xmlns:svg="http://www.w3.org/2000/svg"
   xmlns="http://www.w3.org/2000/svg"
   xmlns:xlink="http://www.w3.org/1999/xlink"
   xmlns:sodipodi="http://sodipodi.sourceforge.net/DTD/sodipodi-0.dtd"
   xmlns:inkscape="http://www.inkscape.org/namespaces/inkscape"
   width="354.33069"
   height="177.16534"
   id="svg2"
   version="1.1"
   inkscape:version="0.48.4 r9939"
   sodipodi:docname="New document 1">
  <sodipodi:namedview
     id="base"
     pagecolor="#ffffff"
     bordercolor="#666666"
     borderopacity="1.0"
     inkscape:pageopacity="0.0"
     inkscape:pageshadow="2"
     inkscape:zoom="2.6707549"
     inkscape:cx="153.03216"
     inkscape:cy="98.174344"
     inkscape:document-units="px"
     inkscape:current-layer="layer1"
     showgrid="false"
     units="cm"
     inkscape:window-width="1024"
     inkscape:window-height="744"
     inkscape:window-x="0"
     inkscape:window-y="24"
     inkscape:window-maximized="1" />
  <defs
     id="defs4">
    <marker
       inkscape:stockid="Arrow1Mend"
       orient="auto"
       refY="0.0"
       refX="0.0"
       id="Arrow1Mend"
       style="overflow:visible;">
      <path
         id="path3891"
         d="M 0.0,0.0 L 5.0,-5.0 L -12.5,0.0 L 5.0,5.0 L 0.0,0.0 z "
         style="fill-rule:evenodd;stroke:#000000;stroke-width:1.0pt;"
         transform="scale(0.4) rotate(180) translate(10,0)" />
    </marker>
  </defs>
  <metadata
     id="metadata7">
    <rdf:RDF>
      <cc:Work
         rdf:about="">
        <dc:format>image/svg+xml</dc:format>
        <dc:type
           rdf:resource="http://purl.org/dc/dcmitype/StillImage" />
        <dc:title></dc:title>
      </cc:Work>
    </rdf:RDF>
  </metadata>
  <g
     transform="translate(0,-875.19552)"
     id="layer1"
     inkscape:groupmode="layer"
     inkscape:label="Layer 1">
    <path
       transform="translate(0,875.19552)"
       inkscape:connector-curvature="0"
       id="path2985"
       d="m 53.033009,96.858217 82.832511,0"
       style="fill:none;stroke:#000000;stroke-width:1px;stroke-linecap:butt;stroke-linejoin:miter;stroke-opacity:1" />
    <path
       style="fill:none;stroke:#000000;stroke-width:1px;stroke-linecap:butt;stroke-linejoin:miter;stroke-opacity:1"
       d="m 193.03301,972.05374 82.83251,0"
       id="path2987"
       inkscape:connector-curvature="0" />
    <text
       sodipodi:linespacing="125%"
       id="text2989"
       y="986.19788"
       x="59.598999"
       style="font-size:12px;font-style:normal;font-variant:normal;font-weight:normal;font-stretch:normal;line-height:125%;letter-spacing:0px;word-spacing:0px;fill:#000000;fill-opacity:1;stroke:none;font-family:Nimbus Roman No9 L;-inkscape-font-specification:Nimbus Roman No9 L"
       xml:space="preserve"><tspan
         y="986.19788"
         x="59.598999"
         id="tspan2991"
         sodipodi:role="line">0</tspan></text>
    <text
       sodipodi:linespacing="125%"
       id="text2993"
       y="986.19794"
       x="79.044418"
       style="font-size:12px;font-style:normal;font-variant:normal;font-weight:normal;font-stretch:normal;line-height:125%;letter-spacing:0px;word-spacing:0px;fill:#000000;fill-opacity:1;stroke:none;font-family:Nimbus Roman No9 L;-inkscape-font-specification:Nimbus Roman No9 L"
       xml:space="preserve"><tspan
         y="986.19794"
         x="79.044418"
         id="tspan2995"
         sodipodi:role="line">1</tspan></text>
    <text
       sodipodi:linespacing="125%"
       id="text2997"
       y="986.703"
       x="97.711929"
       style="font-size:12px;font-style:normal;font-variant:normal;font-weight:normal;font-stretch:normal;line-height:125%;letter-spacing:0px;word-spacing:0px;fill:#000000;fill-opacity:1;stroke:none;font-family:Nimbus Roman No9 L;-inkscape-font-specification:Nimbus Roman No9 L"
       xml:space="preserve"><tspan
         y="986.703"
         x="97.711929"
         id="tspan2999"
         sodipodi:role="line">2</tspan></text>
    <text
       sodipodi:linespacing="125%"
       id="text3001"
       y="987.20807"
       x="116.37945"
       style="font-size:12px;font-style:normal;font-variant:normal;font-weight:normal;font-stretch:normal;line-height:125%;letter-spacing:0px;word-spacing:0px;fill:#000000;fill-opacity:1;stroke:none;font-family:Nimbus Roman No9 L;-inkscape-font-specification:Nimbus Roman No9 L"
       xml:space="preserve"><tspan
         y="987.20807"
         x="116.37945"
         id="tspan3003"
         sodipodi:role="line">3</tspan></text>
    <g
       id="g3020"
       ns0:preamble="/home/sriranga/Desktop/general-books/CSY/article4/figure/package.tex"
       ns0:text="$-1$"
       transform="matrix(1.2,0,0,1.2,-72.423801,824.26889)">
      <defs
         id="defs3022">
        <g
           id="g3024">
          <symbol
             id="textext-f743ebb0-0"
             overflow="visible"
             style="overflow:visible">
            <path
               id="path3027"
               d=""
               style="stroke:none"
               inkscape:connector-curvature="0" />
          </symbol>
          <symbol
             id="textext-f743ebb0-1"
             overflow="visible"
             style="overflow:visible">
            <path
               id="path3030"
               d="m 5.71875,-2.28125 0,-0.5625 -5.09375,0 0,0.5625 z m 0,0"
               style="stroke:none"
               inkscape:connector-curvature="0" />
          </symbol>
          <symbol
             id="textext-f743ebb0-2"
             overflow="visible"
             style="overflow:visible">
            <path
               id="path3033"
               d=""
               style="stroke:none"
               inkscape:connector-curvature="0" />
          </symbol>
          <symbol
             id="textext-f743ebb0-3"
             overflow="visible"
             style="overflow:visible">
            <path
               id="path3036"
               d="m 2.90625,-6.734375 -1.796875,0.90625 0,0.140625 C 1.21875,-5.734375 1.328125,-5.78125 1.375,-5.796875 1.5625,-5.875 1.71875,-5.90625 1.828125,-5.90625 2.03125,-5.90625 2.125,-5.765625 2.125,-5.4375 l 0,4.515625 c 0,0.328125 -0.078125,0.546875 -0.234375,0.640625 -0.15625,0.09375 -0.296875,0.125 -0.71875,0.125 l 0,0.15625 2.75,0 0,-0.15625 c -0.78125,0 -0.9375,-0.109375 -0.9375,-0.578125 l 0,-5.984375 z m 0,0"
               style="stroke:none"
               inkscape:connector-curvature="0" />
          </symbol>
        </g>
      </defs>
      <g
         id="textext-f743ebb0-4">
        <g
           id="g3039"
           style="fill:#000000;fill-opacity:1">
          <use
             id="use3041"
             y="134.765"
             x="223.43201"
             xlink:href="#textext-f743ebb0-1"
             width="354.33069"
             height="177.16534" />
        </g>
        <g
           id="g3043"
           style="fill:#000000;fill-opacity:1">
          <use
             id="use3045"
             y="134.765"
             x="229.76801"
             xlink:href="#textext-f743ebb0-3"
             width="354.33069"
             height="177.16534" />
        </g>
      </g>
    </g>
    <text
       xml:space="preserve"
       style="font-size:12px;font-style:normal;font-variant:normal;font-weight:normal;font-stretch:normal;line-height:125%;letter-spacing:0px;word-spacing:0px;fill:#000000;fill-opacity:1;stroke:none;font-family:Nimbus Roman No9 L;-inkscape-font-specification:Nimbus Roman No9 L"
       x="223.40295"
       y="986.04938"
       id="text3076"
       sodipodi:linespacing="125%"><tspan
         sodipodi:role="line"
         id="tspan3078"
         x="223.40295"
         y="986.04938">1</tspan></text>
    <text
       xml:space="preserve"
       style="font-size:12px;font-style:normal;font-variant:normal;font-weight:normal;font-stretch:normal;line-height:125%;letter-spacing:0px;word-spacing:0px;fill:#000000;fill-opacity:1;stroke:none;font-family:Nimbus Roman No9 L;-inkscape-font-specification:Nimbus Roman No9 L"
       x="242.73798"
       y="986.70099"
       id="text3084"
       sodipodi:linespacing="125%"><tspan
         sodipodi:role="line"
         id="tspan3086"
         x="242.73798"
         y="986.70099">3</tspan></text>
    <text
       xml:space="preserve"
       style="font-size:12px;font-style:normal;font-variant:normal;font-weight:normal;font-stretch:normal;line-height:125%;letter-spacing:0px;word-spacing:0px;fill:#000000;fill-opacity:1;stroke:none;font-family:Nimbus Roman No9 L;-inkscape-font-specification:Nimbus Roman No9 L"
       x="260.92551"
       y="986.74921"
       id="text3088"
       sodipodi:linespacing="125%"><tspan
         sodipodi:role="line"
         id="tspan3090"
         x="260.92551"
         y="986.74921">5</tspan></text>
    <path
       style="fill:none;stroke:#000000;stroke-width:1px;stroke-linecap:butt;stroke-linejoin:miter;stroke-opacity:1"
       d="m 62.619832,971.741 0,-12.42256"
       id="path3092"
       inkscape:connector-curvature="0"
       sodipodi:nodetypes="cc" />
    <path
       sodipodi:nodetypes="cc"
       inkscape:connector-curvature="0"
       id="path3094"
       d="m 119.12687,971.741 0,-12.42256"
       style="fill:none;stroke:#000000;stroke-width:1px;stroke-linecap:butt;stroke-linejoin:miter;stroke-opacity:1" />
    <path
       sodipodi:nodetypes="cc"
       inkscape:connector-curvature="0"
       id="path3096"
       d="m 81.859266,971.741 0,-31.6902"
       style="fill:none;stroke:#000000;stroke-width:1px;stroke-linecap:butt;stroke-linejoin:miter;stroke-opacity:1" />
    <path
       style="fill:none;stroke:#000000;stroke-width:1px;stroke-linecap:butt;stroke-linejoin:miter;stroke-opacity:1"
       d="m 100.36631,971.741 0,-31.6902"
       id="path3098"
       inkscape:connector-curvature="0"
       sodipodi:nodetypes="cc" />
    <path
       sodipodi:nodetypes="cc"
       inkscape:connector-curvature="0"
       id="path3100"
       d="m 206.67615,971.741 0,-12.42256"
       style="fill:none;stroke:#000000;stroke-width:1px;stroke-linecap:butt;stroke-linejoin:miter;stroke-opacity:1" />
    <path
       style="fill:none;stroke:#000000;stroke-width:1px;stroke-linecap:butt;stroke-linejoin:miter;stroke-opacity:1"
       d="m 263.18319,971.741 0,-12.42256"
       id="path3102"
       inkscape:connector-curvature="0"
       sodipodi:nodetypes="cc" />
    <path
       style="fill:none;stroke:#000000;stroke-width:1px;stroke-linecap:butt;stroke-linejoin:miter;stroke-opacity:1"
       d="m 225.91559,971.741 0,-31.6902"
       id="path3104"
       inkscape:connector-curvature="0"
       sodipodi:nodetypes="cc" />
    <path
       sodipodi:nodetypes="cc"
       inkscape:connector-curvature="0"
       id="path3106"
       d="m 244.42263,971.741 0,-31.6902"
       style="fill:none;stroke:#000000;stroke-width:1px;stroke-linecap:butt;stroke-linejoin:miter;stroke-opacity:1" />
    <path
       style="fill:none;stroke:#000000;stroke-width:1px;stroke-linecap:butt;stroke-linejoin:miter;stroke-opacity:1;marker-end:url(#Arrow1Mend)"
       d="m 126.76079,84.376444 c 0,0 110.65382,-63.695387 152.87352,-38.28176 15.89558,9.568143 -8.36621,40.309932 -8.36621,40.309932"
       id="path3108"
       inkscape:connector-curvature="0"
       transform="translate(0,875.19552)"
       sodipodi:nodetypes="csc" />
    <path
       sodipodi:nodetypes="csc"
       inkscape:connector-curvature="0"
       id="path4322"
       d="m 56.986167,983.10429 c -9.48749,2.2324 31.543925,31.90711 61.769353,25.15341 18.1066,-4.0458 77.66753,-30.22388 77.66753,-30.22388"
       style="fill:none;stroke:#000000;stroke-width:1px;stroke-linecap:butt;stroke-linejoin:miter;stroke-opacity:1;marker-end:url(#Arrow1Mend)" />
    <g
       transform="matrix(1.2,0,0,1.2,-112.515,809.69616)"
       ns0:text="$\\xrightarrow{f}$"
       ns0:preamble="/home/sriranga/Desktop/general-books/CSY/article4/figure/package.tex"
       id="g4373">
      <defs
         id="defs4375">
        <g
           id="g4377">
          <symbol
             style="overflow:visible"
             overflow="visible"
             id="textext-c8410187-0">
            <path
               inkscape:connector-curvature="0"
               style="stroke:none"
               d=""
               id="path4380" />
          </symbol>
          <symbol
             style="overflow:visible"
             overflow="visible"
             id="textext-c8410187-1">
            <path
               inkscape:connector-curvature="0"
               style="stroke:none"
               d="m 0.25,-2.765625 0.625,0 -0.609375,2.9375 c -0.15625,0.734375 -0.390625,1.125 -0.6875,1.125 C -0.5,1.296875 -0.5625,1.25 -0.5625,1.1875 c 0,-0.03125 0.015625,-0.046875 0.03125,-0.078125 C -0.5,1.0625 -0.5,1.03125 -0.5,1 c 0,-0.15625 -0.125,-0.265625 -0.265625,-0.265625 -0.140625,0 -0.265625,0.125 -0.265625,0.28125 0,0.234375 0.25,0.421875 0.5625,0.421875 0.609375,0 1.109375,-0.6875 1.390625,-1.96875 l 0.5,-2.234375 0.765625,0 0.03125,-0.21875 -0.75,0 c 0.203125,-1.09375 0.46875,-1.59375 0.859375,-1.59375 0.078125,0 0.140625,0.046875 0.140625,0.09375 0,0.015625 0,0.03125 -0.015625,0.0625 -0.03125,0.0625 -0.046875,0.09375 -0.046875,0.15625 0,0.15625 0.109375,0.265625 0.25,0.265625 0.171875,0 0.296875,-0.125 0.296875,-0.265625 0,-0.265625 -0.25,-0.453125 -0.59375,-0.453125 -0.34375,0 -0.625,0.140625 -0.875,0.46875 -0.203125,0.28125 -0.34375,0.59375 -0.546875,1.265625 l -0.640625,0 z m 0,0"
               id="path4383" />
          </symbol>
          <symbol
             style="overflow:visible"
             overflow="visible"
             id="textext-c8410187-2">
            <path
               inkscape:connector-curvature="0"
               style="stroke:none"
               d=""
               id="path4386" />
          </symbol>
          <symbol
             style="overflow:visible"
             overflow="visible"
             id="textext-c8410187-3">
            <path
               inkscape:connector-curvature="0"
               style="stroke:none"
               d="m 5.71875,-2.28125 0,-0.5625 -5.09375,0 0,0.5625 z m 0,0"
               id="path4389" />
          </symbol>
          <symbol
             style="overflow:visible"
             overflow="visible"
             id="textext-c8410187-4">
            <path
               inkscape:connector-curvature="0"
               style="stroke:none"
               d="m 8.984375,-2.578125 -1.953125,-2.03125 -0.296875,0.328125 1.1875,1.4375 -7.296875,0 0,0.5625 7.296875,0 -1.1875,1.4375 0.296875,0.328125 z m 0,0"
               id="path4392" />
          </symbol>
        </g>
      </defs>
      <g
         id="textext-c8410187-5">
        <g
           style="fill:#000000;fill-opacity:1"
           id="g4395">
          <use
             height="177.16534"
             width="354.33069"
             xlink:href="#textext-c8410187-1"
             x="226.60899"
             y="130.506"
             id="use4397" />
        </g>
        <g
           style="fill:#000000;fill-opacity:1"
           id="g4399">
          <use
             height="177.16534"
             width="354.33069"
             xlink:href="#textext-c8410187-3"
             x="223.43201"
             y="137.74001"
             id="use4401" />
        </g>
        <g
           style="fill:#000000;fill-opacity:1"
           id="g4403">
          <use
             height="177.16534"
             width="354.33069"
             xlink:href="#textext-c8410187-4"
             x="223.25267"
             y="137.74001"
             id="use4405" />
        </g>
      </g>
    </g>
    <g
       id="g4583"
       transform="matrix(1.2,0,0,1.2,-142.46908,853.70534)"
       ns0:preamble="/home/sriranga/Desktop/general-books/CSY/article4/figure/package.tex"
       ns0:text="$h$">
      <defs
         id="defs4585">
        <g
           id="g4587">
          <symbol
             id="textext-f05f0f07-0"
             overflow="visible"
             style="overflow:visible">
            <path
               id="path4590"
               d=""
               style="stroke:none"
               inkscape:connector-curvature="0" />
          </symbol>
          <symbol
             id="textext-f05f0f07-1"
             overflow="visible"
             style="overflow:visible">
            <path
               id="path4593"
               d="M 4.640625,-1.171875 C 4.09375,-0.484375 3.984375,-0.375 3.8125,-0.375 c -0.078125,0 -0.15625,-0.09375 -0.15625,-0.1875 0,-0.09375 0.15625,-0.71875 0.328125,-1.234375 0.296875,-0.953125 0.484375,-1.6875 0.484375,-1.9375 0,-0.390625 -0.265625,-0.65625 -0.65625,-0.65625 -0.65625,0 -1.359375,0.65625 -2.28125,2.09375 L 2.71875,-6.765625 2.671875,-6.8125 c -0.578125,0.140625 -0.96875,0.203125 -1.5625,0.265625 l 0,0.15625 0.25,0 c 0.015625,0 0.03125,0 0.03125,-0.015625 0.140625,-0.046875 0.390625,0.109375 0.390625,0.25 0,0.140625 -0.0625,0.390625 -0.140625,0.6875 -0.015625,0 -0.046875,0.140625 -0.109375,0.359375 L 0.1875,0 0.9375,0 C 1.328125,-1.53125 1.46875,-1.875 1.859375,-2.484375 2.375,-3.265625 3.0625,-3.890625 3.40625,-3.890625 c 0.15625,0 0.28125,0.125 0.28125,0.25 0,0.046875 -0.03125,0.171875 -0.0625,0.328125 L 3.078125,-1.25 C 2.9375,-0.75 2.875,-0.453125 2.875,-0.328125 c 0,0.265625 0.171875,0.421875 0.4375,0.421875 0.5,0 0.859375,-0.265625 1.453125,-1.140625 z m 0,0"
               style="stroke:none"
               inkscape:connector-curvature="0" />
          </symbol>
        </g>
      </defs>
      <g
         id="textext-f05f0f07-2">
        <g
           id="g4596"
           style="fill:#000000;fill-opacity:1">
          <use
             id="use4598"
             y="134.765"
             x="223.43201"
             xlink:href="#textext-f05f0f07-1"
             width="354.33069"
             height="177.16534" />
        </g>
      </g>
    </g>
    <g
       ns0:text="$h$"
       ns0:preamble="/home/sriranga/Desktop/general-books/CSY/article4/figure/package.tex"
       transform="matrix(1.2,0,0,1.2,-87.33662,765.9519)"
       id="g4677">
      <defs
         id="defs4679">
        <g
           id="g4681">
          <symbol
             style="overflow:visible"
             overflow="visible"
             id="symbol4683">
            <path
               inkscape:connector-curvature="0"
               style="stroke:none"
               d=""
               id="path4685" />
          </symbol>
          <symbol
             style="overflow:visible"
             overflow="visible"
             id="symbol4687">
            <path
               inkscape:connector-curvature="0"
               style="stroke:none"
               d="M 4.640625,-1.171875 C 4.09375,-0.484375 3.984375,-0.375 3.8125,-0.375 c -0.078125,0 -0.15625,-0.09375 -0.15625,-0.1875 0,-0.09375 0.15625,-0.71875 0.328125,-1.234375 0.296875,-0.953125 0.484375,-1.6875 0.484375,-1.9375 0,-0.390625 -0.265625,-0.65625 -0.65625,-0.65625 -0.65625,0 -1.359375,0.65625 -2.28125,2.09375 L 2.71875,-6.765625 2.671875,-6.8125 c -0.578125,0.140625 -0.96875,0.203125 -1.5625,0.265625 l 0,0.15625 0.25,0 c 0.015625,0 0.03125,0 0.03125,-0.015625 0.140625,-0.046875 0.390625,0.109375 0.390625,0.25 0,0.140625 -0.0625,0.390625 -0.140625,0.6875 -0.015625,0 -0.046875,0.140625 -0.109375,0.359375 L 0.1875,0 0.9375,0 C 1.328125,-1.53125 1.46875,-1.875 1.859375,-2.484375 2.375,-3.265625 3.0625,-3.890625 3.40625,-3.890625 c 0.15625,0 0.28125,0.125 0.28125,0.25 0,0.046875 -0.03125,0.171875 -0.0625,0.328125 L 3.078125,-1.25 C 2.9375,-0.75 2.875,-0.453125 2.875,-0.328125 c 0,0.265625 0.171875,0.421875 0.4375,0.421875 0.5,0 0.859375,-0.265625 1.453125,-1.140625 z m 0,0"
               id="path4689" />
          </symbol>
        </g>
      </defs>
      <g
         id="g4691">
        <g
           style="fill:#000000;fill-opacity:1"
           id="g4693">
          <use
             height="177.16534"
             width="354.33069"
             xlink:href="#textext-f05f0f07-1"
             x="223.43201"
             y="134.765"
             id="use4695" />
        </g>
      </g>
    </g>
  </g>
</svg>
