<?xml version="1.0" encoding="UTF-8" standalone="no"?>
<!-- Created with Inkscape (http://www.inkscape.org/) -->

<svg
   xmlns:ns0="http://www.iki.fi/pav/software/textext/"
   xmlns:dc="http://purl.org/dc/elements/1.1/"
   xmlns:cc="http://creativecommons.org/ns#"
   xmlns:rdf="http://www.w3.org/1999/02/22-rdf-syntax-ns#"
   xmlns:svg="http://www.w3.org/2000/svg"
   xmlns="http://www.w3.org/2000/svg"
   xmlns:xlink="http://www.w3.org/1999/xlink"
   xmlns:sodipodi="http://sodipodi.sourceforge.net/DTD/sodipodi-0.dtd"
   xmlns:inkscape="http://www.inkscape.org/namespaces/inkscape"
   width="744.09448819"
   height="1052.3622047"
   id="svg2"
   version="1.1"
   inkscape:version="0.48.4 r9939"
   sodipodi:docname="New document 1">
  <sodipodi:namedview
     id="base"
     pagecolor="#ffffff"
     bordercolor="#666666"
     borderopacity="1.0"
     inkscape:pageopacity="0.0"
     inkscape:pageshadow="2"
     inkscape:zoom="1.7212625"
     inkscape:cx="347.41167"
     inkscape:cy="619.8858"
     inkscape:document-units="px"
     inkscape:current-layer="textext-cf4a01c9-8"
     showgrid="false"
     inkscape:window-width="1024"
     inkscape:window-height="744"
     inkscape:window-x="0"
     inkscape:window-y="24"
     inkscape:window-maximized="1" />
  <defs
     id="defs4" />
  <metadata
     id="metadata7">
    <rdf:RDF>
      <cc:Work
         rdf:about="">
        <dc:format>image/svg+xml</dc:format>
        <dc:type
           rdf:resource="http://purl.org/dc/dcmitype/StillImage" />
        <dc:title></dc:title>
      </cc:Work>
    </rdf:RDF>
  </metadata>
  <g
     id="layer1"
     inkscape:groupmode="layer"
     inkscape:label="Layer 1">
    <path
       transform="matrix(0.18007149,-0.39002367,0.38915453,0.18047366,125.37309,439.57566)"
       sodipodi:open="true"
       sodipodi:end="5.4511225"
       sodipodi:start="0"
       d="M 445.47728,448.29095 A 79.802048,77.781746 0 1 1 419.41011,390.7852"
       sodipodi:ry="77.781746"
       sodipodi:rx="79.802048"
       sodipodi:cy="448.29095"
       sodipodi:cx="365.67523"
       id="path2985"
       style="fill:none;stroke:#000000;stroke-width:2.91188145;stroke-linecap:round;stroke-linejoin:miter;stroke-miterlimit:4;stroke-opacity:1;stroke-dasharray:none;stroke-dashoffset:0"
       sodipodi:type="arc" />
    <path
       inkscape:connector-curvature="0"
       id="path2987"
       d="m 352.73641,347.35465 0,-34.97412"
       style="fill:none;stroke:#000000;stroke-width:0.99999994px;stroke-linecap:butt;stroke-linejoin:miter;stroke-opacity:1" />
    <path
       style="fill:none;stroke:#000000;stroke-width:0.99999994px;stroke-linecap:butt;stroke-linejoin:miter;stroke-opacity:1"
       d="m 379.7344,347.35465 0,-34.97412"
       id="path2989"
       inkscape:connector-curvature="0" />
    <g
       id="g2999"
       ns0:preamble="/home/sriranga/Desktop/CSY/article2/figure/package.tex"
       ns0:text="$5W$ $4B$ $3R$"
       transform="matrix(1.2,0,0,1.2,176.61455,158.02355)">
      <defs
         id="defs3001">
        <g
           id="g3003">
          <symbol
             id="textext-cf4a01c9-0"
             overflow="visible"
             style="overflow:visible">
            <path
               id="path3006"
               d=""
               style="stroke:none"
               inkscape:connector-curvature="0" />
          </symbol>
          <symbol
             id="textext-cf4a01c9-1"
             overflow="visible"
             style="overflow:visible">
            <path
               id="path3009"
               d="m 1.796875,-5.8125 1.96875,0 c 0.15625,0 0.1875,-0.015625 0.21875,-0.09375 l 0.375,-0.875 L 4.28125,-6.859375 C 4.125,-6.65625 4.03125,-6.59375 3.8125,-6.59375 l -2.078125,0 -1.09375,2.359375 c 0,0.015625 0,0.03125 0,0.046875 0,0.046875 0.03125,0.078125 0.109375,0.078125 0.328125,0 0.71875,0.078125 1.140625,0.203125 1.140625,0.375 1.671875,0.984375 1.671875,1.96875 0,0.953125 -0.609375,1.703125 -1.390625,1.703125 -0.203125,0 -0.375,-0.0625 -0.671875,-0.28125 C 1.1875,-0.75 0.953125,-0.84375 0.75,-0.84375 c -0.296875,0 -0.4375,0.109375 -0.4375,0.359375 0,0.390625 0.46875,0.625 1.21875,0.625 0.84375,0 1.5625,-0.265625 2.0625,-0.78125 C 4.046875,-1.09375 4.25,-1.65625 4.25,-2.40625 c 0,-0.71875 -0.1875,-1.1875 -0.6875,-1.6875 -0.4375,-0.4375 -1,-0.65625 -2.171875,-0.875 z m 0,0"
               style="stroke:none"
               inkscape:connector-curvature="0" />
          </symbol>
          <symbol
             id="textext-cf4a01c9-2"
             overflow="visible"
             style="overflow:visible">
            <path
               id="path3012"
               d="m 4.703125,-2.296875 -1.015625,0 0,-4.4375 -0.4375,0 -3.125,4.4375 0,0.625 2.796875,0 0,1.671875 0.765625,0 0,-1.671875 1.015625,0 z m -1.796875,0 -2.390625,0 2.390625,-3.421875 z m 0,0"
               style="stroke:none"
               inkscape:connector-curvature="0" />
          </symbol>
          <symbol
             id="textext-cf4a01c9-3"
             overflow="visible"
             style="overflow:visible">
            <path
               id="path3015"
               d="m 1.53125,-3.296875 c 0.578125,0 0.8125,0.03125 1.046875,0.109375 0.625,0.234375 1.015625,0.796875 1.015625,1.484375 0,0.828125 -0.578125,1.484375 -1.3125,1.484375 -0.265625,0 -0.46875,-0.078125 -0.828125,-0.3125 -0.3125,-0.171875 -0.46875,-0.25 -0.640625,-0.25 -0.234375,0 -0.390625,0.140625 -0.390625,0.359375 0,0.34375 0.4375,0.5625 1.140625,0.5625 0.765625,0 1.546875,-0.265625 2.015625,-0.671875 C 4.046875,-0.9375 4.3125,-1.515625 4.3125,-2.1875 c 0,-0.5 -0.171875,-0.96875 -0.453125,-1.28125 C 3.65625,-3.6875 3.46875,-3.8125 3.03125,-4 c 0.6875,-0.46875 0.9375,-0.828125 0.9375,-1.375 0,-0.8125 -0.640625,-1.359375 -1.5625,-1.359375 -0.5,0 -0.9375,0.171875 -1.296875,0.484375 -0.296875,0.265625 -0.4375,0.53125 -0.65625,1.125 L 0.59375,-5.078125 C 1,-5.8125 1.453125,-6.140625 2.078125,-6.140625 c 0.65625,0 1.109375,0.4375 1.109375,1.0625 0,0.359375 -0.15625,0.71875 -0.40625,0.96875 -0.296875,0.296875 -0.578125,0.453125 -1.25,0.6875 z m 0,0"
               style="stroke:none"
               inkscape:connector-curvature="0" />
          </symbol>
          <symbol
             id="textext-cf4a01c9-4"
             overflow="visible"
             style="overflow:visible">
            <path
               id="path3018"
               d=""
               style="stroke:none"
               inkscape:connector-curvature="0" />
          </symbol>
          <symbol
             id="textext-cf4a01c9-5"
             overflow="visible"
             style="overflow:visible">
            <path
               id="path3021"
               d="m 9.03125,-6.515625 -1.84375,0 0,0.171875 c 0.53125,0.046875 0.640625,0.109375 0.640625,0.390625 0,0.15625 -0.078125,0.40625 -0.203125,0.671875 L 5.765625,-1.609375 5.359375,-5.625 l 0,-0.140625 c 0,-0.40625 0.140625,-0.53125 0.671875,-0.578125 l 0,-0.171875 -2.375,0 0,0.171875 c 0.578125,0.015625 0.6875,0.078125 0.75,0.578125 L 4.5,-5.078125 2.78125,-1.609375 2.34375,-5.65625 c -0.015625,-0.0625 -0.015625,-0.125 -0.015625,-0.140625 0,-0.390625 0.125,-0.484375 0.734375,-0.546875 l 0,-0.171875 -2.359375,0 0,0.171875 C 1.03125,-6.3125 1.125,-6.28125 1.21875,-6.1875 1.328125,-6.078125 1.375,-5.890625 1.5,-4.96875 l 0.609375,5.140625 0.1875,0 2.21875,-4.515625 0.046875,0 0.5,4.515625 0.203125,0 L 8.28125,-5.625 c 0.265625,-0.515625 0.375,-0.609375 0.75,-0.71875 z m 0,0"
               style="stroke:none"
               inkscape:connector-curvature="0" />
          </symbol>
          <symbol
             id="textext-cf4a01c9-6"
             overflow="visible"
             style="overflow:visible">
            <path
               id="path3024"
               d="m -0.078125,0 2.8125,0 C 4.296875,0 5.375,-0.8125 5.375,-2 5.375,-2.359375 5.25,-2.71875 5.03125,-2.9375 4.828125,-3.15625 4.640625,-3.28125 4.109375,-3.5 c 0.71875,-0.171875 1,-0.28125 1.328125,-0.5625 0.28125,-0.25 0.421875,-0.578125 0.421875,-0.984375 0,-0.9375 -0.703125,-1.46875 -1.984375,-1.46875 l -2.578125,0 0,0.171875 c 0.609375,0.046875 0.765625,0.125 0.765625,0.40625 0,0.140625 -0.03125,0.390625 -0.109375,0.640625 l -1.21875,4.40625 c -0.1875,0.578125 -0.25,0.625 -0.8125,0.734375 z M 2.375,-3.296875 c 0.640625,0 1.0625,0.03125 1.265625,0.109375 0.40625,0.171875 0.65625,0.609375 0.65625,1.15625 0,1.078125 -0.734375,1.734375 -1.953125,1.734375 -0.421875,0 -0.640625,-0.15625 -0.640625,-0.421875 0,-0.125 0.125,-0.59375 0.34375,-1.390625 C 2.1875,-2.5625 2.25,-2.796875 2.375,-3.296875 z M 3.125,-5.9375 c 0.0625,-0.21875 0.171875,-0.265625 0.5625,-0.265625 0.796875,0 1.171875,0.328125 1.171875,1.0625 0,0.578125 -0.25,1.015625 -0.671875,1.25 C 3.84375,-3.6875 3.375,-3.625 2.46875,-3.625 z m 0,0"
               style="stroke:none"
               inkscape:connector-curvature="0" />
          </symbol>
          <symbol
             id="textext-cf4a01c9-7"
             overflow="visible"
             style="overflow:visible">
            <path
               id="path3027"
               d="M 5.65625,-0.15625 C 5.21875,-0.1875 5.015625,-0.359375 4.828125,-0.875 l -0.9375,-2.4375 C 4.671875,-3.484375 5,-3.625 5.359375,-3.953125 c 0.328125,-0.28125 0.5,-0.671875 0.5,-1.125 0,-0.921875 -0.734375,-1.4375 -2.078125,-1.4375 l -2.46875,0 0,0.171875 c 0.421875,0.046875 0.46875,0.0625 0.578125,0.140625 0.078125,0.046875 0.140625,0.15625 0.140625,0.265625 0,0.125 -0.0625,0.359375 -0.125,0.640625 l -1.234375,4.40625 C 0.5,-0.3125 0.421875,-0.25 -0.125,-0.15625 l 0,0.15625 2.421875,0 0,-0.15625 C 1.6875,-0.234375 1.625,-0.296875 1.625,-0.625 c 0,-0.09375 0.03125,-0.21875 0.125,-0.578125 L 2.296875,-3.28125 2.953125,-3.234375 4.171875,0 5.65625,0 z M 3.078125,-5.9375 c 0.046875,-0.203125 0.1875,-0.265625 0.5,-0.265625 0.828125,0 1.234375,0.375 1.234375,1.109375 0,0.984375 -0.640625,1.5 -1.875,1.5 -0.171875,0 -0.28125,-0.015625 -0.515625,-0.0625 z m 0,0"
               style="stroke:none"
               inkscape:connector-curvature="0" />
          </symbol>
        </g>
      </defs>
      <g
         id="textext-cf4a01c9-8">
        <g
           id="g3030"
           style="fill:#000000;fill-opacity:1"
           transform="translate(-73.589396,43.572669)">
          <use
             id="use3032"
             y="134.765"
             x="223.43201"
             xlink:href="#textext-cf4a01c9-1"
             width="744.09448"
             height="1052.3622" />
        </g>
        <g
           id="g3034"
           style="fill:#000000;fill-opacity:1"
           transform="translate(-73.589396,43.572669)">
          <use
             id="use3036"
             y="134.765"
             x="228.41299"
             xlink:href="#textext-cf4a01c9-5"
             width="744.09448"
             height="1052.3622" />
        </g>
        <g
           id="g3038"
           style="fill:#000000;fill-opacity:1"
           transform="translate(-89.081901,54.223766)">
          <use
             id="use3040"
             y="134.765"
             x="239.92999"
             xlink:href="#textext-cf4a01c9-2"
             width="744.09448"
             height="1052.3622" />
        </g>
        <g
           id="g3042"
           style="fill:#000000;fill-opacity:1"
           transform="translate(-89.081901,54.223766)">
          <use
             id="use3044"
             y="134.765"
             x="245.25999"
             xlink:href="#textext-cf4a01c9-6"
             width="744.09448"
             height="1052.3622" />
        </g>
        <g
           id="g3046"
           style="fill:#000000;fill-opacity:1"
           transform="translate(-102.63784,65.359004)">
          <use
             id="use3048"
             y="134.765"
             x="253.73801"
             xlink:href="#textext-cf4a01c9-3"
             width="744.09448"
             height="1052.3622" />
        </g>
        <g
           id="g3050"
           style="fill:#000000;fill-opacity:1"
           transform="translate(-102.63784,65.359004)">
          <use
             id="use3052"
             y="134.765"
             x="258.72"
             xlink:href="#textext-cf4a01c9-7"
             width="744.09448"
             height="1052.3622" />
        </g>
        <text
           xml:space="preserve"
           style="font-size:10px;font-style:normal;font-variant:normal;font-weight:normal;font-stretch:normal;line-height:125%;letter-spacing:0px;word-spacing:0px;fill:#000000;fill-opacity:1;stroke:none;font-family:Nimbus Roman No9 L;-inkscape-font-specification:Nimbus Roman No9 L"
           x="198.49771"
           y="188.03618"
           id="text3092"
           sodipodi:linespacing="125%"><tspan
             sodipodi:role="line"
             id="tspan3094"
             x="198.49771"
             y="188.03618">12 chips</tspan></text>
      </g>
    </g>
  </g>
</svg>
