<?xml version="1.0" encoding="UTF-8" standalone="no"?>
<!-- Created with Inkscape (http://www.inkscape.org/) -->

<svg
   xmlns:ns0="http://www.iki.fi/pav/software/textext/"
   xmlns:dc="http://purl.org/dc/elements/1.1/"
   xmlns:cc="http://creativecommons.org/ns#"
   xmlns:rdf="http://www.w3.org/1999/02/22-rdf-syntax-ns#"
   xmlns:svg="http://www.w3.org/2000/svg"
   xmlns="http://www.w3.org/2000/svg"
   xmlns:xlink="http://www.w3.org/1999/xlink"
   xmlns:sodipodi="http://sodipodi.sourceforge.net/DTD/sodipodi-0.dtd"
   xmlns:inkscape="http://www.inkscape.org/namespaces/inkscape"
   width="283.46457"
   height="177.16534"
   id="svg2"
   version="1.1"
   inkscape:version="0.48.4 r9939"
   sodipodi:docname="New document 1">
  <sodipodi:namedview
     id="base"
     pagecolor="#ffffff"
     bordercolor="#666666"
     borderopacity="1.0"
     inkscape:pageopacity="0.0"
     inkscape:pageshadow="2"
     inkscape:zoom="1.8594258"
     inkscape:cx="139.5816"
     inkscape:cy="84.890804"
     inkscape:document-units="px"
     inkscape:current-layer="layer1"
     showgrid="false"
     units="cm"
     inkscape:window-width="1024"
     inkscape:window-height="744"
     inkscape:window-x="0"
     inkscape:window-y="24"
     inkscape:window-maximized="1" />
  <defs
     id="defs4">
    <marker
       style="overflow:visible;"
       id="Arrow1Mend"
       refX="0.0"
       refY="0.0"
       orient="auto"
       inkscape:stockid="Arrow1Mend">
      <path
         transform="scale(0.4) rotate(180) translate(10,0)"
         style="fill-rule:evenodd;stroke:#000000;stroke-width:1.0pt;"
         d="M 0.0,0.0 L 5.0,-5.0 L -12.5,0.0 L 5.0,5.0 L 0.0,0.0 z "
         id="path3791" />
    </marker>
  </defs>
  <metadata
     id="metadata7">
    <rdf:RDF>
      <cc:Work
         rdf:about="">
        <dc:format>image/svg+xml</dc:format>
        <dc:type
           rdf:resource="http://purl.org/dc/dcmitype/StillImage" />
        <dc:title></dc:title>
      </cc:Work>
    </rdf:RDF>
  </metadata>
  <g
     transform="translate(0,-875.19553)"
     id="layer1"
     inkscape:groupmode="layer"
     inkscape:label="Layer 1">
    <g
       transform="matrix(0.78762323,0,0,0.74131193,-185.79017,750.56731)"
       id="g2991">
      <path
         sodipodi:type="arc"
         style="fill:none;stroke:#000000;stroke-width:1.63587546;stroke-linecap:round;stroke-linejoin:miter;stroke-miterlimit:4;stroke-opacity:1;stroke-dasharray:none;stroke-dashoffset:0"
         id="path2985"
         sodipodi:cx="330.82495"
         sodipodi:cy="317.4762"
         sodipodi:rx="57.07362"
         sodipodi:ry="57.07362"
         d="m 380.25215,288.93938 c 15.76045,27.2979 6.4075,62.20357 -20.89039,77.96402 -27.29789,15.76045 -62.20357,6.4075 -77.96401,-20.89039 -15.76045,-27.29789 -6.4075,-62.20357 20.89039,-77.96402 8.67628,-5.00925 18.51829,-7.64641 28.53679,-7.64641"
         sodipodi:start="5.7595865"
         sodipodi:end="10.995574"
         sodipodi:open="true"
         transform="matrix(0.86610062,-0.49986969,0.49986969,0.86610062,-104.14264,219.34307)" />
      <path
         style="fill:none;stroke:#000000;stroke-width:1.30870044px;stroke-linecap:butt;stroke-linejoin:miter;stroke-opacity:1"
         d="m 314.64286,201.6479 0,73.69397 c 0.0545,0.61334 -0.20864,3.45184 -3.24678,4.88828"
         id="path2987"
         inkscape:connector-curvature="0"
         sodipodi:nodetypes="ccc" />
      <path
         sodipodi:nodetypes="ccc"
         inkscape:connector-curvature="0"
         id="path2989"
         d="m 367.84719,201.6479 0,73.69397 c -0.0545,0.61334 0.20864,3.45184 3.24678,4.88828"
         style="fill:none;stroke:#000000;stroke-width:1.30870044px;stroke-linecap:butt;stroke-linejoin:miter;stroke-opacity:1" />
    </g>
    <path
       transform="translate(-8,873.19553)"
       d="m 77.276671,113.77827 c 0,2.64998 -2.148238,4.79822 -4.798224,4.79822 -2.649986,0 -4.798224,-2.14824 -4.798224,-4.79822 0,-2.64999 2.148238,-4.79823 4.798224,-4.79823 2.649986,0 4.798224,2.14824 4.798224,4.79823 z"
       sodipodi:ry="4.7982244"
       sodipodi:rx="4.7982244"
       sodipodi:cy="113.77827"
       sodipodi:cx="72.478447"
       id="path2996"
       style="fill:none;stroke:#000000;stroke-width:1.25;stroke-linecap:round;stroke-linejoin:miter;stroke-miterlimit:4;stroke-opacity:1;stroke-dasharray:none;stroke-dashoffset:0"
       sodipodi:type="arc" />
    <path
       sodipodi:type="arc"
       style="fill:none;stroke:#000000;stroke-width:1.25;stroke-linecap:round;stroke-linejoin:miter;stroke-miterlimit:4;stroke-opacity:1;stroke-dasharray:none;stroke-dashoffset:0"
       id="path2998"
       sodipodi:cx="72.478447"
       sodipodi:cy="113.77827"
       sodipodi:rx="4.7982244"
       sodipodi:ry="4.7982244"
       d="m 77.276671,113.77827 c 0,2.64998 -2.148238,4.79822 -4.798224,4.79822 -2.649986,0 -4.798224,-2.14824 -4.798224,-4.79822 0,-2.64999 2.148238,-4.79823 4.798224,-4.79823 2.649986,0 4.798224,2.14824 4.798224,4.79823 z"
       transform="translate(10,873.19553)" />
    <path
       sodipodi:type="arc"
       style="fill:none;stroke:#000000;stroke-width:1.25;stroke-linecap:round;stroke-linejoin:miter;stroke-miterlimit:4;stroke-opacity:1;stroke-dasharray:none;stroke-dashoffset:0"
       id="path3000"
       sodipodi:cx="72.478447"
       sodipodi:cy="113.77827"
       sodipodi:rx="4.7982244"
       sodipodi:ry="4.7982244"
       d="m 77.276671,113.77827 c 0,2.64998 -2.148238,4.79822 -4.798224,4.79822 -2.649986,0 -4.798224,-2.14824 -4.798224,-4.79822 0,-2.64999 2.148238,-4.79823 4.798224,-4.79823 2.649986,0 4.798224,2.14824 4.798224,4.79823 z"
       transform="translate(-8,891.19553)" />
    <path
       transform="translate(10,891.19553)"
       d="m 77.276671,113.77827 c 0,2.64998 -2.148238,4.79822 -4.798224,4.79822 -2.649986,0 -4.798224,-2.14824 -4.798224,-4.79822 0,-2.64999 2.148238,-4.79823 4.798224,-4.79823 2.649986,0 4.798224,2.14824 4.798224,4.79823 z"
       sodipodi:ry="4.7982244"
       sodipodi:rx="4.7982244"
       sodipodi:cy="113.77827"
       sodipodi:cx="72.478447"
       id="path3002"
       style="fill:#000000;stroke:#000000;stroke-width:1.25000000000000000;stroke-linecap:round;stroke-linejoin:miter;stroke-miterlimit:4;stroke-opacity:1;stroke-dasharray:none;stroke-dashoffset:0"
       sodipodi:type="arc" />
    <path
       sodipodi:type="arc"
       style="fill:#000000;stroke:#000000;stroke-width:1.25000000000000000;stroke-linecap:round;stroke-linejoin:miter;stroke-miterlimit:4;stroke-opacity:1;stroke-dasharray:none;stroke-dashoffset:0"
       id="path3004"
       sodipodi:cx="72.478447"
       sodipodi:cy="113.77827"
       sodipodi:rx="4.7982244"
       sodipodi:ry="4.7982244"
       d="m 77.276671,113.77827 c 0,2.64998 -2.148238,4.79822 -4.798224,4.79822 -2.649986,0 -4.798224,-2.14824 -4.798224,-4.79822 0,-2.64999 2.148238,-4.79823 4.798224,-4.79823 2.649986,0 4.798224,2.14824 4.798224,4.79823 z"
       transform="translate(28,891.19553)" />
    <path
       transform="translate(16.25,876.26696)"
       d="m 48.92857,128.59392 c 0,0.49311 -0.399745,0.89285 -0.892857,0.89285 -0.493111,0 -0.892857,-0.39974 -0.892857,-0.89285 0,-0.49311 0.399746,-0.89286 0.892857,-0.89286 0.493112,0 0.892857,0.39975 0.892857,0.89286 z"
       sodipodi:ry="0.89285713"
       sodipodi:rx="0.89285713"
       sodipodi:cy="128.59392"
       sodipodi:cx="48.035713"
       id="path3006"
       style="fill:#000000;fill-opacity:1;stroke:#000000;stroke-width:1.25;stroke-linecap:round;stroke-linejoin:miter;stroke-miterlimit:4;stroke-opacity:1;stroke-dasharray:none;stroke-dashoffset:0"
       sodipodi:type="arc" />
    <path
       transform="translate(0,875.19553)"
       inkscape:connector-curvature="0"
       id="path3008"
       d="M 148.57143,78.593916 96.428572,107.52249"
       style="fill:none;stroke:#000000;stroke-width:1px;stroke-linecap:butt;stroke-linejoin:miter;stroke-opacity:1;marker-end:url(#Arrow1Mend)" />
    <g
       id="g4240"
       ns0:preamble=""
       ns0:text="$N$"
       transform="matrix(1.2,0,0,1.2,-101.91567,789.46613)">
      <defs
         id="defs4242">
        <g
           id="g4244">
          <symbol
             id="textext-e9ad77a8-0"
             overflow="visible"
             style="overflow:visible">
            <path
               id="path4247"
               d=""
               style="stroke:none"
               inkscape:connector-curvature="0" />
          </symbol>
          <symbol
             id="textext-e9ad77a8-1"
             overflow="visible"
             style="overflow:visible">
            <path
               id="path4250"
               d="M 7.53125,-5.765625 C 7.640625,-6.15625 7.8125,-6.46875 8.609375,-6.5 c 0.046875,0 0.171875,-0.015625 0.171875,-0.203125 0,0 0,-0.109375 -0.125,-0.109375 -0.328125,0 -0.6875,0.03125 -1.015625,0.03125 -0.328125,0 -0.6875,-0.03125 -1.015625,-0.03125 -0.0625,0 -0.171875,0 -0.171875,0.203125 C 6.453125,-6.5 6.546875,-6.5 6.625,-6.5 c 0.578125,0.015625 0.6875,0.21875 0.6875,0.4375 0,0.03125 -0.03125,0.1875 -0.03125,0.203125 l -1.125,4.4375 L 3.953125,-6.625 C 3.875,-6.796875 3.875,-6.8125 3.640625,-6.8125 l -1.34375,0 c -0.1875,0 -0.28125,0 -0.28125,0.203125 0,0.109375 0.09375,0.109375 0.28125,0.109375 0.046875,0 0.671875,0 0.671875,0.09375 L 1.640625,-1.0625 c -0.109375,0.40625 -0.28125,0.71875 -1.078125,0.75 -0.0625,0 -0.171875,0.015625 -0.171875,0.203125 0,0.0625 0.046875,0.109375 0.125,0.109375 0.328125,0 0.671875,-0.03125 1,-0.03125 C 1.859375,-0.03125 2.21875,0 2.546875,0 2.59375,0 2.71875,0 2.71875,-0.203125 2.71875,-0.296875 2.625,-0.3125 2.515625,-0.3125 1.9375,-0.328125 1.859375,-0.546875 1.859375,-0.75 c 0,-0.0625 0.015625,-0.125 0.046875,-0.234375 l 1.3125,-5.25 C 3.265625,-6.1875 3.265625,-6.15625 3.3125,-6.0625 l 2.484375,5.875 C 5.859375,-0.015625 5.890625,0 5.984375,0 6.09375,0 6.09375,-0.03125 6.140625,-0.203125 z m 0,0"
               style="stroke:none"
               inkscape:connector-curvature="0" />
          </symbol>
        </g>
      </defs>
      <g
         id="textext-e9ad77a8-2">
        <g
           id="g4253"
           style="fill:#000000;fill-opacity:1">
          <use
             id="use4255"
             y="134.765"
             x="223.43201"
             xlink:href="#textext-e9ad77a8-1"
             width="283.46457"
             height="177.16534" />
        </g>
      </g>
    </g>
    <g
       ns0:text="$M$"
       ns0:preamble=""
       transform="matrix(1.2,0,0,1.2,-101.91567,807.46613)"
       id="g4361">
      <defs
         id="defs4363">
        <g
           id="g4365">
          <symbol
             overflow="visible"
             id="textext-219d0486-0">
            <path
               style="stroke:none;"
               d=""
               id="path4368" />
          </symbol>
          <symbol
             overflow="visible"
             id="textext-219d0486-1">
            <path
               style="stroke:none;"
               d="M 9.234375 -6.046875 C 9.328125 -6.40625 9.34375 -6.5 10.09375 -6.5 C 10.3125 -6.5 10.40625 -6.5 10.40625 -6.703125 C 10.40625 -6.8125 10.3125 -6.8125 10.140625 -6.8125 L 8.828125 -6.8125 C 8.5625 -6.8125 8.546875 -6.8125 8.4375 -6.625 L 4.796875 -0.9375 L 4.015625 -6.578125 C 3.984375 -6.8125 3.96875 -6.8125 3.703125 -6.8125 L 2.34375 -6.8125 C 2.15625 -6.8125 2.046875 -6.8125 2.046875 -6.625 C 2.046875 -6.5 2.140625 -6.5 2.328125 -6.5 C 2.46875 -6.5 2.640625 -6.484375 2.765625 -6.484375 C 2.921875 -6.453125 2.984375 -6.4375 2.984375 -6.3125 C 2.984375 -6.28125 2.96875 -6.25 2.9375 -6.125 L 1.671875 -1.0625 C 1.578125 -0.65625 1.40625 -0.34375 0.59375 -0.3125 C 0.546875 -0.3125 0.421875 -0.296875 0.421875 -0.125 C 0.421875 -0.03125 0.484375 0 0.5625 0 C 0.875 0 1.21875 -0.03125 1.5625 -0.03125 C 1.890625 -0.03125 2.25 0 2.578125 0 C 2.625 0 2.765625 0 2.765625 -0.203125 C 2.765625 -0.3125 2.65625 -0.3125 2.578125 -0.3125 C 2.015625 -0.3125 1.90625 -0.515625 1.90625 -0.75 C 1.90625 -0.8125 1.90625 -0.875 1.9375 -0.984375 L 3.296875 -6.40625 L 3.3125 -6.40625 L 4.171875 -0.234375 C 4.1875 -0.109375 4.203125 0 4.3125 0 C 4.421875 0 4.484375 -0.109375 4.53125 -0.171875 L 8.5625 -6.484375 L 8.578125 -6.484375 L 7.140625 -0.78125 C 7.046875 -0.390625 7.03125 -0.3125 6.234375 -0.3125 C 6.078125 -0.3125 5.96875 -0.3125 5.96875 -0.125 C 5.96875 0 6.078125 0 6.109375 0 C 6.390625 0 7.0625 -0.03125 7.34375 -0.03125 C 7.75 -0.03125 8.1875 0 8.59375 0 C 8.65625 0 8.78125 0 8.78125 -0.203125 C 8.78125 -0.3125 8.6875 -0.3125 8.5 -0.3125 C 8.140625 -0.3125 7.859375 -0.3125 7.859375 -0.484375 C 7.859375 -0.53125 7.859375 -0.546875 7.90625 -0.734375 Z M 9.234375 -6.046875 "
               id="path4371" />
          </symbol>
        </g>
      </defs>
      <g
         id="textext-219d0486-2">
        <g
           style="fill:rgb(0%,0%,0%);fill-opacity:1;"
           id="g4374">
          <use
             xlink:href="#textext-219d0486-1"
             x="223.432"
             y="134.765"
             id="use4376" />
        </g>
      </g>
    </g>
    <g
       id="g4462"
       transform="matrix(1.2,0,0,1.2,-101.91567,825.46613)"
       ns0:preamble=""
       ns0:text="$L$">
      <defs
         id="defs4464">
        <g
           id="g4466">
          <symbol
             id="textext-5328596a-0"
             overflow="visible">
            <path
               id="path4469"
               d=""
               style="stroke:none;" />
          </symbol>
          <symbol
             id="textext-5328596a-1"
             overflow="visible">
            <path
               id="path4472"
               d="M 3.734375 -6.03125 C 3.8125 -6.390625 3.84375 -6.5 4.78125 -6.5 C 5.078125 -6.5 5.15625 -6.5 5.15625 -6.6875 C 5.15625 -6.8125 5.046875 -6.8125 5 -6.8125 C 4.671875 -6.8125 3.859375 -6.78125 3.53125 -6.78125 C 3.234375 -6.78125 2.5 -6.8125 2.203125 -6.8125 C 2.140625 -6.8125 2.015625 -6.8125 2.015625 -6.609375 C 2.015625 -6.5 2.109375 -6.5 2.296875 -6.5 C 2.3125 -6.5 2.5 -6.5 2.671875 -6.484375 C 2.84375 -6.453125 2.9375 -6.453125 2.9375 -6.3125 C 2.9375 -6.28125 2.9375 -6.25 2.90625 -6.125 L 1.5625 -0.78125 C 1.46875 -0.390625 1.453125 -0.3125 0.65625 -0.3125 C 0.484375 -0.3125 0.390625 -0.3125 0.390625 -0.109375 C 0.390625 0 0.484375 0 0.65625 0 L 5.28125 0 C 5.515625 0 5.515625 0 5.578125 -0.171875 L 6.375 -2.328125 C 6.40625 -2.4375 6.40625 -2.453125 6.40625 -2.46875 C 6.40625 -2.5 6.375 -2.578125 6.296875 -2.578125 C 6.203125 -2.578125 6.1875 -2.515625 6.125 -2.359375 C 5.78125 -1.453125 5.34375 -0.3125 3.625 -0.3125 L 2.6875 -0.3125 C 2.546875 -0.3125 2.515625 -0.3125 2.46875 -0.3125 C 2.359375 -0.328125 2.328125 -0.34375 2.328125 -0.421875 C 2.328125 -0.453125 2.328125 -0.46875 2.375 -0.640625 Z M 3.734375 -6.03125 "
               style="stroke:none;" />
          </symbol>
        </g>
      </defs>
      <g
         id="textext-5328596a-2">
        <g
           id="g4475"
           style="fill:rgb(0%,0%,0%);fill-opacity:1;">
          <use
             id="use4477"
             y="134.765"
             x="223.432"
             xlink:href="#textext-5328596a-1" />
        </g>
      </g>
    </g>
    <text
       xml:space="preserve"
       style="font-size:12px;font-style:normal;font-variant:normal;font-weight:normal;font-stretch:normal;line-height:125%;letter-spacing:0px;word-spacing:0px;fill:#000000;fill-opacity:1;stroke:none;font-family:Nimbus Roman No9 L;-inkscape-font-specification:Nimbus Roman No9 L"
       x="190.52144"
       y="949.30438"
       id="text4525"
       sodipodi:linespacing="125%"><tspan
         sodipodi:role="line"
         id="tspan4527"
         x="190.52144"
         y="949.30438">chips</tspan></text>
    <text
       xml:space="preserve"
       style="font-size:12px;font-style:normal;font-variant:normal;font-weight:normal;font-stretch:normal;line-height:125%;letter-spacing:0px;word-spacing:0px;fill:#000000;fill-opacity:1;stroke:none;font-family:Nimbus Roman No9 L;-inkscape-font-specification:Nimbus Roman No9 L"
       x="190.71158"
       y="967.17761"
       id="text4529"
       sodipodi:linespacing="125%"><tspan
         sodipodi:role="line"
         id="tspan4531"
         x="190.71158"
         y="967.17761">red chips</tspan></text>
    <text
       xml:space="preserve"
       style="font-size:12px;font-style:normal;font-variant:normal;font-weight:normal;font-stretch:normal;line-height:125%;letter-spacing:0px;word-spacing:0px;fill:#000000;fill-opacity:1;stroke:none;font-family:Nimbus Roman No9 L;-inkscape-font-specification:Nimbus Roman No9 L"
       x="190.33131"
       y="985.43115"
       id="text4533"
       sodipodi:linespacing="125%"><tspan
         sodipodi:role="line"
         id="tspan4535"
         x="190.33131"
         y="985.43115">white chips</tspan></text>
  </g>
</svg>
