<?xml version="1.0" encoding="UTF-8" standalone="no"?>
<!-- Created with Inkscape (http://www.inkscape.org/) -->

<svg
   xmlns:ns0="http://www.iki.fi/pav/software/textext/"
   xmlns:dc="http://purl.org/dc/elements/1.1/"
   xmlns:cc="http://creativecommons.org/ns#"
   xmlns:rdf="http://www.w3.org/1999/02/22-rdf-syntax-ns#"
   xmlns:svg="http://www.w3.org/2000/svg"
   xmlns="http://www.w3.org/2000/svg"
   xmlns:xlink="http://www.w3.org/1999/xlink"
   xmlns:sodipodi="http://sodipodi.sourceforge.net/DTD/sodipodi-0.dtd"
   xmlns:inkscape="http://www.inkscape.org/namespaces/inkscape"
   width="744.09448819"
   height="1052.3622047"
   id="svg2"
   version="1.1"
   inkscape:version="0.48.4 r9939"
   sodipodi:docname="fig2.svg">
  <sodipodi:namedview
     id="base"
     pagecolor="#ffffff"
     bordercolor="#666666"
     borderopacity="1.0"
     inkscape:pageopacity="0.0"
     inkscape:pageshadow="2"
     inkscape:zoom="1.979899"
     inkscape:cx="328.19118"
     inkscape:cy="875.06343"
     inkscape:document-units="px"
     inkscape:current-layer="textext-0c6273e6-8"
     showgrid="false"
     inkscape:window-width="1024"
     inkscape:window-height="744"
     inkscape:window-x="0"
     inkscape:window-y="24"
     inkscape:window-maximized="1" />
  <defs
     id="defs4">
    <marker
       style="overflow:visible"
       id="Arrow1Mstart"
       refX="0.0"
       refY="0.0"
       orient="auto"
       inkscape:stockid="Arrow1Mstart">
      <path
         transform="scale(0.4) translate(10,0)"
         style="fill-rule:evenodd;stroke:#000000;stroke-width:1.0pt"
         d="M 0.0,0.0 L 5.0,-5.0 L -12.5,0.0 L 5.0,5.0 L 0.0,0.0 z "
         id="path3818" />
    </marker>
  </defs>
  <metadata
     id="metadata7">
    <rdf:RDF>
      <cc:Work
         rdf:about="">
        <dc:format>image/svg+xml</dc:format>
        <dc:type
           rdf:resource="http://purl.org/dc/dcmitype/StillImage" />
        <dc:title />
      </cc:Work>
    </rdf:RDF>
  </metadata>
  <g
     id="layer1"
     inkscape:groupmode="layer"
     inkscape:label="Layer 1">
    <g
       transform="matrix(1.2,0,0,1.2,3.9285714,-8.5714286)"
       ns0:text="\\begin{tabular}{c|c|c|c|c|}\n$x$ $y$ &amp; 0 &amp; 1 &amp; 2 &amp; 3\\\\\n\\hline\n0 &amp; &amp; &amp; &amp; \\\\\n1 &amp; &amp; &amp; &amp; \\\\\n\\hline\n\\end{tabular}"
       ns0:preamble="/home/sriranga/Desktop/general-books/CSY/article4/figure/package.tex"
       id="g2998">
      <defs
         id="defs3000">
        <g
           id="g3002">
          <symbol
             style="overflow:visible"
             overflow="visible"
             id="textext-0c6273e6-0">
            <path
               inkscape:connector-curvature="0"
               style="stroke:none"
               d=""
               id="path3005" />
          </symbol>
          <symbol
             style="overflow:visible"
             overflow="visible"
             id="textext-0c6273e6-1">
            <path
               inkscape:connector-curvature="0"
               style="stroke:none"
               d="M 4,-1.109375 C 3.921875,-1.015625 3.875,-0.953125 3.78125,-0.84375 3.5625,-0.53125 3.4375,-0.4375 3.328125,-0.4375 3.1875,-0.4375 3.09375,-0.5625 3.015625,-0.84375 3,-0.921875 2.984375,-0.984375 2.984375,-1.015625 2.734375,-2.03125 2.625,-2.484375 2.625,-2.625 c 0.4375,-0.78125 0.796875,-1.21875 0.96875,-1.21875 0.0625,0 0.140625,0.03125 0.25,0.078125 0.109375,0.078125 0.1875,0.09375 0.265625,0.09375 0.203125,0 0.34375,-0.140625 0.34375,-0.359375 0,-0.203125 -0.171875,-0.359375 -0.40625,-0.359375 -0.4375,0 -0.8125,0.359375 -1.5,1.421875 L 2.4375,-3.515625 c -0.140625,-0.6875 -0.25,-0.875 -0.53125,-0.875 -0.21875,0 -0.546875,0.078125 -1.15625,0.28125 L 0.640625,-4.0625 0.671875,-3.921875 C 1.0625,-4 1.140625,-4.03125 1.234375,-4.03125 c 0.25,0 0.3125,0.09375 0.453125,0.6875 l 0.28125,1.234375 -0.8125,1.15625 C 0.953125,-0.640625 0.75,-0.46875 0.640625,-0.46875 0.59375,-0.46875 0.484375,-0.5 0.390625,-0.5625 0.265625,-0.625 0.15625,-0.65625 0.0625,-0.65625 c -0.1875,0 -0.328125,0.140625 -0.328125,0.34375 0,0.265625 0.203125,0.421875 0.5,0.421875 0.296875,0 0.421875,-0.09375 0.921875,-0.703125 0.265625,-0.3125 0.484375,-0.578125 0.890625,-1.15625 l 0.3125,1.1875 c 0.125,0.515625 0.25,0.671875 0.578125,0.671875 0.375,0 0.625,-0.234375 1.203125,-1.140625 z m 0,0"
               id="path3008" />
          </symbol>
          <symbol
             style="overflow:visible"
             overflow="visible"
             id="textext-0c6273e6-2">
            <path
               inkscape:connector-curvature="0"
               style="stroke:none"
               d="m 0.15625,-3.984375 c 0.125,-0.03125 0.1875,-0.046875 0.296875,-0.046875 0.578125,0 0.71875,0.25 1.1875,1.96875 0.15625,0.640625 0.40625,1.8125 0.40625,1.984375 0,0.15625 -0.0625,0.3125 -0.21875,0.5 -0.296875,0.40625 -0.5,0.671875 -0.609375,0.78125 C 1,1.421875 0.890625,1.5 0.75,1.5 0.703125,1.5 0.625,1.46875 0.515625,1.390625 0.375,1.28125 0.265625,1.21875 0.15625,1.21875 c -0.21875,0 -0.390625,0.171875 -0.390625,0.390625 0,0.25 0.21875,0.4375 0.5,0.4375 0.640625,0 1.953125,-1.484375 3.03125,-3.46875 C 3.96875,-2.640625 4.25,-3.359375 4.25,-3.84375 4.25,-4.140625 4,-4.390625 3.703125,-4.390625 3.46875,-4.390625 3.3125,-4.25 3.3125,-4.03125 c 0,0.15625 0.078125,0.265625 0.28125,0.390625 0.1875,0.109375 0.25,0.203125 0.25,0.34375 0,0.390625 -0.359375,1.171875 -1.21875,2.578125 L 2.4375,-1.875 C 2.28125,-2.75 1.71875,-4.390625 1.578125,-4.390625 l -0.046875,0 c 0,0 -0.046875,0 -0.078125,0 C 1.359375,-4.375 1,-4.3125 0.46875,-4.21875 c -0.046875,0.015625 -0.171875,0.046875 -0.3125,0.0625 z m 0,0"
               id="path3011" />
          </symbol>
          <symbol
             style="overflow:visible"
             overflow="visible"
             id="textext-0c6273e6-3">
            <path
               inkscape:connector-curvature="0"
               style="stroke:none"
               d=""
               id="path3014" />
          </symbol>
          <symbol
             style="overflow:visible"
             overflow="visible"
             id="textext-0c6273e6-4">
            <path
               inkscape:connector-curvature="0"
               style="stroke:none"
               d="m 2.53125,-6.734375 c -0.546875,0 -0.96875,0.171875 -1.328125,0.515625 -0.578125,0.5625 -0.96875,1.703125 -0.96875,2.875 0,1.078125 0.328125,2.25 0.796875,2.8125 0.375,0.4375 0.875,0.671875 1.46875,0.671875 0.5,0 0.921875,-0.171875 1.28125,-0.515625 C 4.359375,-0.921875 4.75,-2.078125 4.75,-3.296875 c 0,-2.03125 -0.90625,-3.4375 -2.21875,-3.4375 z m -0.03125,0.25 c 0.84375,0 1.28125,1.125 1.28125,3.21875 0,2.078125 -0.4375,3.140625 -1.28125,3.140625 -0.859375,0 -1.296875,-1.0625 -1.296875,-3.140625 0,-2.109375 0.4375,-3.21875 1.296875,-3.21875 z m 0,0"
               id="path3017" />
          </symbol>
          <symbol
             style="overflow:visible"
             overflow="visible"
             id="textext-0c6273e6-5">
            <path
               inkscape:connector-curvature="0"
               style="stroke:none"
               d="m 2.90625,-6.734375 -1.796875,0.90625 0,0.140625 C 1.21875,-5.734375 1.328125,-5.78125 1.375,-5.796875 1.5625,-5.875 1.71875,-5.90625 1.828125,-5.90625 2.03125,-5.90625 2.125,-5.765625 2.125,-5.4375 l 0,4.515625 c 0,0.328125 -0.078125,0.546875 -0.234375,0.640625 -0.15625,0.09375 -0.296875,0.125 -0.71875,0.125 l 0,0.15625 2.75,0 0,-0.15625 c -0.78125,0 -0.9375,-0.109375 -0.9375,-0.578125 l 0,-5.984375 z m 0,0"
               id="path3020" />
          </symbol>
          <symbol
             style="overflow:visible"
             overflow="visible"
             id="textext-0c6273e6-6">
            <path
               inkscape:connector-curvature="0"
               style="stroke:none"
               d="m 4.734375,-1.359375 -0.125,-0.0625 C 4.234375,-0.84375 4.109375,-0.75 3.65625,-0.75 l -2.375,0 1.671875,-1.765625 c 0.890625,-0.921875 1.28125,-1.6875 1.28125,-2.453125 0,-1 -0.8125,-1.765625 -1.859375,-1.765625 -0.546875,0 -1.0625,0.21875 -1.421875,0.609375 C 0.625,-5.78125 0.484375,-5.46875 0.3125,-4.75 l 0.203125,0.046875 C 0.921875,-5.6875 1.28125,-6 1.96875,-6 2.796875,-6 3.375,-5.4375 3.375,-4.59375 3.375,-3.8125 2.90625,-2.890625 2.078125,-2 l -1.78125,1.875 0,0.125 3.890625,0 z m 0,0"
               id="path3023" />
          </symbol>
          <symbol
             style="overflow:visible"
             overflow="visible"
             id="textext-0c6273e6-7">
            <path
               inkscape:connector-curvature="0"
               style="stroke:none"
               d="m 1.53125,-3.296875 c 0.578125,0 0.8125,0.03125 1.046875,0.109375 0.625,0.234375 1.015625,0.796875 1.015625,1.484375 0,0.828125 -0.578125,1.484375 -1.3125,1.484375 -0.265625,0 -0.46875,-0.078125 -0.828125,-0.3125 -0.3125,-0.171875 -0.46875,-0.25 -0.640625,-0.25 -0.234375,0 -0.390625,0.140625 -0.390625,0.359375 0,0.34375 0.4375,0.5625 1.140625,0.5625 0.765625,0 1.546875,-0.265625 2.015625,-0.671875 C 4.046875,-0.9375 4.3125,-1.515625 4.3125,-2.1875 c 0,-0.5 -0.171875,-0.96875 -0.453125,-1.28125 C 3.65625,-3.6875 3.46875,-3.8125 3.03125,-4 c 0.6875,-0.46875 0.9375,-0.828125 0.9375,-1.375 0,-0.8125 -0.640625,-1.359375 -1.5625,-1.359375 -0.5,0 -0.9375,0.171875 -1.296875,0.484375 -0.296875,0.265625 -0.4375,0.53125 -0.65625,1.125 L 0.59375,-5.078125 C 1,-5.8125 1.453125,-6.140625 2.078125,-6.140625 c 0.65625,0 1.109375,0.4375 1.109375,1.0625 0,0.359375 -0.15625,0.71875 -0.40625,0.96875 -0.296875,0.296875 -0.578125,0.453125 -1.25,0.6875 z m 0,0"
               id="path3026" />
          </symbol>
        </g>
      </defs>
      <g
         id="textext-0c6273e6-8">
        <g
           transform="translate(1.0714286,2.3809524)"
           style="fill:#000000;fill-opacity:1"
           id="g3029">
          <use
             height="1052.3622"
             width="744.09448"
             xlink:href="#textext-0c6273e6-1"
             x="229.908"
             y="133.17101"
             id="use3031" />
        </g>
        <g
           transform="translate(0.56547623,-6.1011905)"
           style="fill:#000000;fill-opacity:1"
           id="g3033">
          <use
             height="1052.3622"
             width="744.09448"
             xlink:href="#textext-0c6273e6-2"
             x="236.85193"
             y="133.17101"
             id="use3035" />
        </g>
        <path
           inkscape:connector-curvature="0"
           style="fill:none;stroke:#000000;stroke-width:0.398;stroke-linecap:butt;stroke-linejoin:miter;stroke-miterlimit:10;stroke-opacity:1"
           d="m 9.0625e-4,-8.125e-4 0,11.9570315"
           transform="matrix(1,0,0,-1,247.253,136.757)"
           id="path3037" />
        <g
           style="fill:#000000;fill-opacity:1"
           id="g3039">
          <use
             height="1052.3622"
             width="744.09448"
             xlink:href="#textext-0c6273e6-4"
             x="253.23"
             y="133.17101"
             id="use3041" />
        </g>
        <path
           inkscape:connector-curvature="0"
           style="fill:none;stroke:#000000;stroke-width:0.398;stroke-linecap:butt;stroke-linejoin:miter;stroke-miterlimit:10;stroke-opacity:1"
           d="m -0.0015,-8.125e-4 0,11.9570315"
           transform="matrix(1,0,0,-1,264.189,136.757)"
           id="path3043" />
        <g
           style="fill:#000000;fill-opacity:1"
           id="g3045">
          <use
             height="1052.3622"
             width="744.09448"
             xlink:href="#textext-0c6273e6-5"
             x="270.16699"
             y="133.17101"
             id="use3047" />
        </g>
        <path
           inkscape:connector-curvature="0"
           style="fill:none;stroke:#000000;stroke-width:0.398;stroke-linecap:butt;stroke-linejoin:miter;stroke-miterlimit:10;stroke-opacity:1"
           d="m -0.001,-8.125e-4 0,11.9570315"
           transform="matrix(1,0,0,-1,281.126,136.757)"
           id="path3049" />
        <g
           style="fill:#000000;fill-opacity:1"
           id="g3051">
          <use
             height="1052.3622"
             width="744.09448"
             xlink:href="#textext-0c6273e6-6"
             x="287.103"
             y="133.17101"
             id="use3053" />
        </g>
        <path
           inkscape:connector-curvature="0"
           style="fill:none;stroke:#000000;stroke-width:0.398;stroke-linecap:butt;stroke-linejoin:miter;stroke-miterlimit:10;stroke-opacity:1"
           d="m 5e-4,-8.125e-4 0,11.9570315"
           transform="matrix(1,0,0,-1,298.062,136.757)"
           id="path3055" />
        <g
           style="fill:#000000;fill-opacity:1"
           id="g3057">
          <use
             height="1052.3622"
             width="744.09448"
             xlink:href="#textext-0c6273e6-7"
             x="304.04001"
             y="133.17101"
             id="use3059" />
        </g>
        <path
           inkscape:connector-curvature="0"
           style="fill:none;stroke:#000000;stroke-width:0.398;stroke-linecap:butt;stroke-linejoin:miter;stroke-miterlimit:10;stroke-opacity:1"
           d="m 0.001,-8.125e-4 0,11.9570315"
           transform="matrix(1,0,0,-1,314.999,136.757)"
           id="path3061" />
        <path
           inkscape:connector-curvature="0"
           style="fill:none;stroke:#000000;stroke-width:0.398;stroke-linecap:butt;stroke-linejoin:miter;stroke-miterlimit:10;stroke-opacity:1"
           d="m 0.00159375,-0.00103125 91.56640625,0"
           transform="matrix(1,0,0,-1,223.432,136.956)"
           id="path3063" />
        <g
           style="fill:#000000;fill-opacity:1"
           id="g3065">
          <use
             height="1052.3622"
             width="744.09448"
             xlink:href="#textext-0c6273e6-4"
             x="232.85201"
             y="145.524"
             id="use3067" />
        </g>
        <path
           inkscape:connector-curvature="0"
           style="fill:none;stroke:#000000;stroke-width:0.398;stroke-linecap:butt;stroke-linejoin:miter;stroke-miterlimit:10;stroke-opacity:1"
           d="m 9.0625e-4,0.001625 0,11.953125"
           transform="matrix(1,0,0,-1,247.253,149.111)"
           id="path3069" />
        <path
           inkscape:connector-curvature="0"
           style="fill:none;stroke:#000000;stroke-width:0.398;stroke-linecap:butt;stroke-linejoin:miter;stroke-miterlimit:10;stroke-opacity:1"
           d="m -0.0015,0.001625 0,11.953125"
           transform="matrix(1,0,0,-1,264.189,149.111)"
           id="path3071" />
        <path
           inkscape:connector-curvature="0"
           style="fill:none;stroke:#000000;stroke-width:0.398;stroke-linecap:butt;stroke-linejoin:miter;stroke-miterlimit:10;stroke-opacity:1"
           d="m -0.001,0.001625 0,11.953125"
           transform="matrix(1,0,0,-1,281.126,149.111)"
           id="path3073" />
        <path
           inkscape:connector-curvature="0"
           style="fill:none;stroke:#000000;stroke-width:0.398;stroke-linecap:butt;stroke-linejoin:miter;stroke-miterlimit:10;stroke-opacity:1"
           d="m 5e-4,0.001625 0,11.953125"
           transform="matrix(1,0,0,-1,298.062,149.111)"
           id="path3075" />
        <path
           inkscape:connector-curvature="0"
           style="fill:none;stroke:#000000;stroke-width:0.398;stroke-linecap:butt;stroke-linejoin:miter;stroke-miterlimit:10;stroke-opacity:1"
           d="m 0.001,0.001625 0,11.953125"
           transform="matrix(1,0,0,-1,314.999,149.111)"
           id="path3077" />
        <g
           style="fill:#000000;fill-opacity:1"
           id="g3079">
          <use
             height="1052.3622"
             width="744.09448"
             xlink:href="#textext-0c6273e6-5"
             x="232.85201"
             y="157.479"
             id="use3081" />
        </g>
        <path
           inkscape:connector-curvature="0"
           style="fill:none;stroke:#000000;stroke-width:0.398;stroke-linecap:butt;stroke-linejoin:miter;stroke-miterlimit:10;stroke-opacity:1"
           d="m 9.0625e-4,-4.0625e-4 0,11.95703125"
           transform="matrix(1,0,0,-1,247.253,161.066)"
           id="path3083" />
        <path
           inkscape:connector-curvature="0"
           style="fill:none;stroke:#000000;stroke-width:0.398;stroke-linecap:butt;stroke-linejoin:miter;stroke-miterlimit:10;stroke-opacity:1"
           d="m -0.0015,-4.0625e-4 0,11.95703125"
           transform="matrix(1,0,0,-1,264.189,161.066)"
           id="path3085" />
        <path
           inkscape:connector-curvature="0"
           style="fill:none;stroke:#000000;stroke-width:0.398;stroke-linecap:butt;stroke-linejoin:miter;stroke-miterlimit:10;stroke-opacity:1"
           d="m -0.001,-4.0625e-4 0,11.95703125"
           transform="matrix(1,0,0,-1,281.126,161.066)"
           id="path3087" />
        <path
           inkscape:connector-curvature="0"
           style="fill:none;stroke:#000000;stroke-width:0.398;stroke-linecap:butt;stroke-linejoin:miter;stroke-miterlimit:10;stroke-opacity:1"
           d="m 5e-4,-4.0625e-4 0,11.95703125"
           transform="matrix(1,0,0,-1,298.062,161.066)"
           id="path3089" />
        <path
           inkscape:connector-curvature="0"
           style="fill:none;stroke:#000000;stroke-width:0.398;stroke-linecap:butt;stroke-linejoin:miter;stroke-miterlimit:10;stroke-opacity:1"
           d="m 0.001,-4.0625e-4 0,11.95703125"
           transform="matrix(1,0,0,-1,314.999,161.066)"
           id="path3091" />
        <path
           inkscape:connector-curvature="0"
           style="fill:none;stroke:#000000;stroke-width:0.398;stroke-linecap:butt;stroke-linejoin:miter;stroke-miterlimit:10;stroke-opacity:1"
           d="m 0.00159375,-6.25e-4 91.56640625,0"
           transform="matrix(1,0,0,-1,223.432,161.265)"
           id="path3093" />
        <path
           transform="matrix(0.83333333,0,0,0.83333333,-3.2738095,7.1428572)"
           inkscape:connector-curvature="0"
           id="path3151"
           d="M 300.625,155.84432 279.46429,140.57647"
           style="fill:none;stroke:#000000;stroke-width:0.5;stroke-linecap:butt;stroke-linejoin:miter;stroke-opacity:1;stroke-miterlimit:4;stroke-dasharray:none" />
        <path
           id="path3036"
           d="m 223.43359,148.20282 91.56641,0"
           style="fill:none;stroke:#000000;stroke-width:0.398;stroke-linecap:butt;stroke-linejoin:miter;stroke-miterlimit:10;stroke-opacity:1"
           inkscape:connector-curvature="0" />
        <path
           sodipodi:nodetypes="ccc"
           inkscape:connector-curvature="0"
           id="path3038"
           d="m 272.41365,141.43878 0,34.09265 47.98225,0"
           style="fill:none;stroke:#000000;stroke-width:0.83333331px;stroke-linecap:butt;stroke-linejoin:miter;stroke-opacity:1;marker-start:url(#Arrow1Mstart)" />
        <g
           id="g4315"
           ns0:preamble="/home/sriranga/Desktop/general-books/CSY/article4/figure/package.tex"
           ns0:text="$P(X=0,Y=1)$"
           transform="matrix(1.2,0,0,1.2,54.506147,17.256773)">
          <defs
             id="defs4317">
            <g
               id="g4319">
              <symbol
                 id="textext-b3529336-0"
                 overflow="visible"
                 style="overflow:visible">
                <path
                   id="path4322"
                   d=""
                   style="stroke:none"
                   inkscape:connector-curvature="0" />
              </symbol>
              <symbol
                 id="textext-b3529336-1"
                 overflow="visible"
                 style="overflow:visible">
                <path
                   id="path4325"
                   d="M 1.453125,-6.34375 C 2.03125,-6.28125 2.15625,-6.1875 2.15625,-5.9375 2.15625,-5.796875 2.125,-5.578125 2,-5.140625 l -1.1875,4.25 C 0.640625,-0.296875 0.5625,-0.234375 0,-0.15625 L 0,0 l 2.4375,0 0,-0.15625 C 1.8125,-0.25 1.765625,-0.28125 1.765625,-0.625 c 0,-0.109375 0.015625,-0.21875 0.125,-0.578125 L 2.40625,-3.125 c 0.25,0.0625 0.515625,0.078125 0.921875,0.078125 0.8125,0 1.484375,-0.15625 1.921875,-0.46875 0.484375,-0.375 0.78125,-0.921875 0.78125,-1.515625 0,-0.953125 -0.75,-1.484375 -2.109375,-1.484375 l -2.46875,0 z m 1.75,0.40625 c 0.0625,-0.203125 0.1875,-0.265625 0.46875,-0.265625 0.390625,0 0.765625,0.09375 0.96875,0.234375 C 4.890625,-5.796875 5,-5.5 5,-5.03125 c 0,0.65625 -0.21875,1.109375 -0.65625,1.375 -0.3125,0.171875 -0.703125,0.25 -1.328125,0.25 -0.171875,0 -0.25,-0.015625 -0.515625,-0.046875 z m 0,0"
                   style="stroke:none"
                   inkscape:connector-curvature="0" />
              </symbol>
              <symbol
                 id="textext-b3529336-2"
                 overflow="visible"
                 style="overflow:visible">
                <path
                   id="path4328"
                   d="m 6.53125,-6.515625 -2.078125,0 0,0.171875 c 0.484375,0.046875 0.609375,0.125 0.609375,0.359375 0,0.125 -0.0625,0.25 -0.203125,0.40625 l -1.4375,1.65625 -0.59375,-1.46875 C 2.71875,-5.640625 2.6875,-5.8125 2.6875,-5.9375 c 0,-0.25 0.15625,-0.34375 0.703125,-0.40625 l 0,-0.171875 -2.640625,0 0,0.171875 c 0.578125,0.046875 0.734375,0.140625 0.921875,0.609375 l 1.0625,2.609375 c -0.375,0.421875 -0.703125,0.8125 -0.828125,0.96875 -1.390625,1.640625 -1.671875,1.890625 -2.203125,2 l 0,0.15625 2.140625,0 0,-0.15625 C 1.359375,-0.15625 1.203125,-0.25 1.203125,-0.5 c 0,-0.140625 0.078125,-0.3125 0.203125,-0.46875 l 1.5,-1.71875 0.671875,1.65625 c 0.078125,0.171875 0.109375,0.328125 0.109375,0.484375 0,0.28125 -0.09375,0.34375 -0.75,0.390625 l 0,0.15625 2.71875,0 0,-0.15625 C 4.953125,-0.234375 4.859375,-0.296875 4.609375,-0.890625 L 3.59375,-3.46875 l 1.6875,-1.9375 c 0.515625,-0.578125 0.8125,-0.796875 1.25,-0.9375 z m 0,0"
                   style="stroke:none"
                   inkscape:connector-curvature="0" />
              </symbol>
              <symbol
                 id="textext-b3529336-3"
                 overflow="visible"
                 style="overflow:visible">
                <path
                   id="path4331"
                   d="M 0.90625,-6.34375 C 1.46875,-6.265625 1.5,-6.234375 1.671875,-5.6875 l 0.765625,2.671875 -0.609375,2.125 C 1.65625,-0.359375 1.4375,-0.203125 0.78125,-0.15625 l 0,0.15625 2.875,0 0,-0.15625 C 3.5,-0.171875 3.359375,-0.171875 3.296875,-0.1875 c -0.390625,-0.015625 -0.53125,-0.125 -0.53125,-0.375 0,-0.203125 0.078125,-0.5 0.3125,-1.28125 C 3.109375,-1.9375 3.125,-2 3.140625,-2.046875 l 0.28125,-1 2.1875,-2.6875 C 5.9375,-6.140625 6.015625,-6.203125 6.3125,-6.34375 l 0,-0.171875 -1.890625,0 0,0.171875 c 0.125,0 0.234375,0.015625 0.265625,0.03125 0.296875,0.015625 0.421875,0.109375 0.421875,0.265625 0,0.28125 -0.453125,0.921875 -1.484375,2.125 -0.171875,0.203125 -0.234375,0.28125 -0.390625,0.46875 C 3.125,-3.890625 3.09375,-4.03125 2.9375,-4.5625 2.6875,-5.40625 2.578125,-5.84375 2.578125,-5.984375 c 0,-0.25 0.109375,-0.3125 0.71875,-0.359375 l 0,-0.171875 -2.390625,0 z m 0,0"
                   style="stroke:none"
                   inkscape:connector-curvature="0" />
              </symbol>
              <symbol
                 id="textext-b3529336-4"
                 overflow="visible"
                 style="overflow:visible">
                <path
                   id="path4334"
                   d=""
                   style="stroke:none"
                   inkscape:connector-curvature="0" />
              </symbol>
              <symbol
                 id="textext-b3529336-5"
                 overflow="visible"
                 style="overflow:visible">
                <path
                   id="path4337"
                   d="M 2.9375,-6.734375 C 2.203125,-6.265625 1.90625,-6 1.53125,-5.546875 c -0.703125,0.875 -1.046875,1.875 -1.046875,3.03125 0,1.265625 0.359375,2.25 1.234375,3.265625 0.421875,0.46875 0.671875,0.703125 1.1875,1.015625 l 0.125,-0.15625 C 2.234375,0.984375 1.953125,0.625 1.6875,-0.125 1.453125,-0.78125 1.328125,-1.546875 1.328125,-2.546875 1.328125,-3.59375 1.46875,-4.40625 1.734375,-5.03125 2.015625,-5.640625 2.3125,-6 3.03125,-6.578125 z m 0,0"
                   style="stroke:none"
                   inkscape:connector-curvature="0" />
              </symbol>
              <symbol
                 id="textext-b3529336-6"
                 overflow="visible"
                 style="overflow:visible">
                <path
                   id="path4340"
                   d="m 2.53125,-6.734375 c -0.546875,0 -0.96875,0.171875 -1.328125,0.515625 -0.578125,0.5625 -0.96875,1.703125 -0.96875,2.875 0,1.078125 0.328125,2.25 0.796875,2.8125 0.375,0.4375 0.875,0.671875 1.46875,0.671875 0.5,0 0.921875,-0.171875 1.28125,-0.515625 C 4.359375,-0.921875 4.75,-2.078125 4.75,-3.296875 c 0,-2.03125 -0.90625,-3.4375 -2.21875,-3.4375 z m -0.03125,0.25 c 0.84375,0 1.28125,1.125 1.28125,3.21875 0,2.078125 -0.4375,3.140625 -1.28125,3.140625 -0.859375,0 -1.296875,-1.0625 -1.296875,-3.140625 0,-2.109375 0.4375,-3.21875 1.296875,-3.21875 z m 0,0"
                   style="stroke:none"
                   inkscape:connector-curvature="0" />
              </symbol>
              <symbol
                 id="textext-b3529336-7"
                 overflow="visible"
                 style="overflow:visible">
                <path
                   id="path4343"
                   d="m 2.90625,-6.734375 -1.796875,0.90625 0,0.140625 C 1.21875,-5.734375 1.328125,-5.78125 1.375,-5.796875 1.5625,-5.875 1.71875,-5.90625 1.828125,-5.90625 2.03125,-5.90625 2.125,-5.765625 2.125,-5.4375 l 0,4.515625 c 0,0.328125 -0.078125,0.546875 -0.234375,0.640625 -0.15625,0.09375 -0.296875,0.125 -0.71875,0.125 l 0,0.15625 2.75,0 0,-0.15625 c -0.78125,0 -0.9375,-0.109375 -0.9375,-0.578125 l 0,-5.984375 z m 0,0"
                   style="stroke:none"
                   inkscape:connector-curvature="0" />
              </symbol>
              <symbol
                 id="textext-b3529336-8"
                 overflow="visible"
                 style="overflow:visible">
                <path
                   id="path4346"
                   d="M 0.375,1.765625 C 1.109375,1.28125 1.421875,1.03125 1.78125,0.5625 2.5,-0.296875 2.84375,-1.296875 2.84375,-2.46875 c 0,-1.265625 -0.375,-2.234375 -1.25,-3.25 C 1.1875,-6.203125 0.921875,-6.421875 0.40625,-6.734375 l -0.109375,0.15625 c 0.796875,0.625 1.0625,0.96875 1.34375,1.71875 0.234375,0.671875 0.34375,1.4375 0.34375,2.421875 0,1.046875 -0.125,1.875 -0.40625,2.484375 C 1.3125,0.671875 1,1.03125 0.296875,1.609375 z m 0,0"
                   style="stroke:none"
                   inkscape:connector-curvature="0" />
              </symbol>
              <symbol
                 id="textext-b3529336-9"
                 overflow="visible"
                 style="overflow:visible">
                <path
                   id="path4349"
                   d=""
                   style="stroke:none"
                   inkscape:connector-curvature="0" />
              </symbol>
              <symbol
                 id="textext-b3529336-10"
                 overflow="visible"
                 style="overflow:visible">
                <path
                   id="path4352"
                   d="m 5.71875,-3.296875 0,-0.546875 -5.09375,0 0,0.546875 z m 0,2.03125 0,-0.5625 -5.09375,0 0,0.5625 z m 0,0"
                   style="stroke:none"
                   inkscape:connector-curvature="0" />
              </symbol>
              <symbol
                 id="textext-b3529336-11"
                 overflow="visible"
                 style="overflow:visible">
                <path
                   id="path4355"
                   d=""
                   style="stroke:none"
                   inkscape:connector-curvature="0" />
              </symbol>
              <symbol
                 id="textext-b3529336-12"
                 overflow="visible"
                 style="overflow:visible">
                <path
                   id="path4358"
                   d="m 1.9375,-0.0625 c 0,-0.828125 -0.578125,-0.953125 -0.796875,-0.953125 -0.25,0 -0.578125,0.140625 -0.578125,0.578125 0,0.390625 0.359375,0.5 0.609375,0.5 0.078125,0 0.125,-0.015625 0.15625,-0.015625 0.03125,-0.015625 0.0625,-0.03125 0.09375,-0.03125 0.0625,0 0.140625,0.046875 0.140625,0.140625 0,0.1875 -0.171875,0.640625 -0.828125,1.0625 l 0.09375,0.1875 C 1.125,1.3125 1.9375,0.640625 1.9375,-0.0625 z m 0,0"
                   style="stroke:none"
                   inkscape:connector-curvature="0" />
              </symbol>
            </g>
          </defs>
          <g
             id="textext-b3529336-13">
            <g
               id="g4361"
               style="fill:#000000;fill-opacity:1">
              <use
                 id="use4363"
                 y="134.765"
                 x="223.681"
                 xlink:href="#textext-b3529336-1"
                 width="744.09448"
                 height="1052.3622" />
            </g>
            <g
               id="g4365"
               style="fill:#000000;fill-opacity:1">
              <use
                 id="use4367"
                 y="134.765"
                 x="229.76801"
                 xlink:href="#textext-b3529336-5"
                 width="744.09448"
                 height="1052.3622" />
            </g>
            <g
               id="g4369"
               style="fill:#000000;fill-opacity:1">
              <use
                 id="use4371"
                 y="134.765"
                 x="233.33501"
                 xlink:href="#textext-b3529336-2"
                 width="744.09448"
                 height="1052.3622" />
            </g>
            <g
               id="g4373"
               style="fill:#000000;fill-opacity:1">
              <use
                 id="use4375"
                 y="134.765"
                 x="242.62801"
                 xlink:href="#textext-b3529336-10"
                 width="744.09448"
                 height="1052.3622" />
            </g>
            <g
               id="g4377"
               style="fill:#000000;fill-opacity:1">
              <use
                 id="use4379"
                 y="134.765"
                 x="251.731"
                 xlink:href="#textext-b3529336-6"
                 width="744.09448"
                 height="1052.3622" />
            </g>
            <g
               id="g4381"
               style="fill:#000000;fill-opacity:1">
              <use
                 id="use4383"
                 y="134.765"
                 x="256.71301"
                 xlink:href="#textext-b3529336-12"
                 width="744.09448"
                 height="1052.3622" />
            </g>
            <g
               id="g4385"
               style="fill:#000000;fill-opacity:1">
              <use
                 id="use4387"
                 y="134.765"
                 x="260.86401"
                 xlink:href="#textext-b3529336-3"
                 width="744.09448"
                 height="1052.3622" />
            </g>
            <g
               id="g4389"
               style="fill:#000000;fill-opacity:1">
              <use
                 id="use4391"
                 y="134.765"
                 x="269.93701"
                 xlink:href="#textext-b3529336-10"
                 width="744.09448"
                 height="1052.3622" />
            </g>
            <g
               id="g4393"
               style="fill:#000000;fill-opacity:1">
              <use
                 id="use4395"
                 y="134.765"
                 x="279.04099"
                 xlink:href="#textext-b3529336-7"
                 width="744.09448"
                 height="1052.3622" />
              <use
                 id="use4397"
                 y="134.765"
                 x="284.02231"
                 xlink:href="#textext-b3529336-8"
                 width="744.09448"
                 height="1052.3622" />
            </g>
          </g>
        </g>
      </g>
    </g>
  </g>
</svg>
