<?xml version="1.0" encoding="UTF-8" standalone="no"?>
<!-- Created with Inkscape (http://www.inkscape.org/) -->

<svg
   xmlns:ns0="http://www.iki.fi/pav/software/textext/"
   xmlns:dc="http://purl.org/dc/elements/1.1/"
   xmlns:cc="http://creativecommons.org/ns#"
   xmlns:rdf="http://www.w3.org/1999/02/22-rdf-syntax-ns#"
   xmlns:svg="http://www.w3.org/2000/svg"
   xmlns="http://www.w3.org/2000/svg"
   xmlns:xlink="http://www.w3.org/1999/xlink"
   xmlns:sodipodi="http://sodipodi.sourceforge.net/DTD/sodipodi-0.dtd"
   xmlns:inkscape="http://www.inkscape.org/namespaces/inkscape"
   width="744.09448819"
   height="1052.3622047"
   id="svg2"
   version="1.1"
   inkscape:version="0.48.4 r9939"
   sodipodi:docname="New document 1">
  <sodipodi:namedview
     id="base"
     pagecolor="#ffffff"
     bordercolor="#666666"
     borderopacity="1.0"
     inkscape:pageopacity="0.0"
     inkscape:pageshadow="2"
     inkscape:zoom="2.1737675"
     inkscape:cx="541.95698"
     inkscape:cy="871.83876"
     inkscape:document-units="px"
     inkscape:current-layer="layer1"
     showgrid="false"
     inkscape:window-width="1024"
     inkscape:window-height="744"
     inkscape:window-x="0"
     inkscape:window-y="24"
     inkscape:window-maximized="1" />
  <defs
     id="defs4">
    <marker
       style="overflow:visible"
       id="Arrow1Mstart"
       refX="0.0"
       refY="0.0"
       orient="auto"
       inkscape:stockid="Arrow1Mstart">
      <path
         transform="scale(0.4) translate(10,0)"
         style="fill-rule:evenodd;stroke:#000000;stroke-width:1.0pt"
         d="M 0.0,0.0 L 5.0,-5.0 L -12.5,0.0 L 5.0,5.0 L 0.0,0.0 z "
         id="path4380" />
    </marker>
    <marker
       style="overflow:visible;"
       id="Arrow1Mend"
       refX="0.0"
       refY="0.0"
       orient="auto"
       inkscape:stockid="Arrow1Mend">
      <path
         transform="scale(0.4) rotate(180) translate(10,0)"
         style="fill-rule:evenodd;stroke:#000000;stroke-width:1.0pt;"
         d="M 0.0,0.0 L 5.0,-5.0 L -12.5,0.0 L 5.0,5.0 L 0.0,0.0 z "
         id="path4383" />
    </marker>
  </defs>
  <metadata
     id="metadata7">
    <rdf:RDF>
      <cc:Work
         rdf:about="">
        <dc:format>image/svg+xml</dc:format>
        <dc:type
           rdf:resource="http://purl.org/dc/dcmitype/StillImage" />
        <dc:title></dc:title>
      </cc:Work>
    </rdf:RDF>
  </metadata>
  <g
     id="layer1"
     inkscape:groupmode="layer"
     inkscape:label="Layer 1">
    <g
       id="g2990"
       ns0:preamble="/home/sriranga/Desktop/general-books/CSY/article4/figure/package.tex"
       ns0:text="\\begin{align*}\nP_{X,Y}(0,0) &amp;= P((X=0)\\cap (Y=0))\\\\\n           &amp;= P(Y=0)=P(TTT)=\\dfrac{1}{8}\n\\end{align*}"
       transform="scale(1.200000,1.200000)">
      <defs
         id="defs2992">
        <g
           id="g2994">
          <symbol
             id="textext-5a3c899c-0"
             overflow="visible">
            <path
               id="path2997"
               d=""
               style="stroke:none;" />
          </symbol>
          <symbol
             id="textext-5a3c899c-1"
             overflow="visible">
            <path
               id="path3000"
               d="M 1.453125 -6.34375 C 2.03125 -6.28125 2.15625 -6.1875 2.15625 -5.9375 C 2.15625 -5.796875 2.125 -5.578125 2 -5.140625 L 0.8125 -0.890625 C 0.640625 -0.296875 0.5625 -0.234375 0 -0.15625 L 0 0 L 2.4375 0 L 2.4375 -0.15625 C 1.8125 -0.25 1.765625 -0.28125 1.765625 -0.625 C 1.765625 -0.734375 1.78125 -0.84375 1.890625 -1.203125 L 2.40625 -3.125 C 2.65625 -3.0625 2.921875 -3.046875 3.328125 -3.046875 C 4.140625 -3.046875 4.8125 -3.203125 5.25 -3.515625 C 5.734375 -3.890625 6.03125 -4.4375 6.03125 -5.03125 C 6.03125 -5.984375 5.28125 -6.515625 3.921875 -6.515625 L 1.453125 -6.515625 Z M 3.203125 -5.9375 C 3.265625 -6.140625 3.390625 -6.203125 3.671875 -6.203125 C 4.0625 -6.203125 4.4375 -6.109375 4.640625 -5.96875 C 4.890625 -5.796875 5 -5.5 5 -5.03125 C 5 -4.375 4.78125 -3.921875 4.34375 -3.65625 C 4.03125 -3.484375 3.640625 -3.40625 3.015625 -3.40625 C 2.84375 -3.40625 2.765625 -3.421875 2.5 -3.453125 Z M 3.203125 -5.9375 "
               style="stroke:none;" />
          </symbol>
          <symbol
             id="textext-5a3c899c-2"
             overflow="visible">
            <path
               id="path3003"
               d="M 6.53125 -6.515625 L 4.453125 -6.515625 L 4.453125 -6.34375 C 4.9375 -6.296875 5.0625 -6.21875 5.0625 -5.984375 C 5.0625 -5.859375 5 -5.734375 4.859375 -5.578125 L 3.421875 -3.921875 L 2.828125 -5.390625 C 2.71875 -5.640625 2.6875 -5.8125 2.6875 -5.9375 C 2.6875 -6.1875 2.84375 -6.28125 3.390625 -6.34375 L 3.390625 -6.515625 L 0.75 -6.515625 L 0.75 -6.34375 C 1.328125 -6.296875 1.484375 -6.203125 1.671875 -5.734375 L 2.734375 -3.125 C 2.359375 -2.703125 2.03125 -2.3125 1.90625 -2.15625 C 0.515625 -0.515625 0.234375 -0.265625 -0.296875 -0.15625 L -0.296875 0 L 1.84375 0 L 1.84375 -0.15625 C 1.359375 -0.15625 1.203125 -0.25 1.203125 -0.5 C 1.203125 -0.640625 1.28125 -0.8125 1.40625 -0.96875 L 2.90625 -2.6875 L 3.578125 -1.03125 C 3.65625 -0.859375 3.6875 -0.703125 3.6875 -0.546875 C 3.6875 -0.265625 3.59375 -0.203125 2.9375 -0.15625 L 2.9375 0 L 5.65625 0 L 5.65625 -0.15625 C 4.953125 -0.234375 4.859375 -0.296875 4.609375 -0.890625 L 3.59375 -3.46875 L 5.28125 -5.40625 C 5.796875 -5.984375 6.09375 -6.203125 6.53125 -6.34375 Z M 6.53125 -6.515625 "
               style="stroke:none;" />
          </symbol>
          <symbol
             id="textext-5a3c899c-3"
             overflow="visible">
            <path
               id="path3006"
               d="M 0.90625 -6.34375 C 1.46875 -6.265625 1.5 -6.234375 1.671875 -5.6875 L 2.4375 -3.015625 L 1.828125 -0.890625 C 1.65625 -0.359375 1.4375 -0.203125 0.78125 -0.15625 L 0.78125 0 L 3.65625 0 L 3.65625 -0.15625 C 3.5 -0.171875 3.359375 -0.171875 3.296875 -0.1875 C 2.90625 -0.203125 2.765625 -0.3125 2.765625 -0.5625 C 2.765625 -0.765625 2.84375 -1.0625 3.078125 -1.84375 C 3.109375 -1.9375 3.125 -2 3.140625 -2.046875 L 3.421875 -3.046875 L 5.609375 -5.734375 C 5.9375 -6.140625 6.015625 -6.203125 6.3125 -6.34375 L 6.3125 -6.515625 L 4.421875 -6.515625 L 4.421875 -6.34375 C 4.546875 -6.34375 4.65625 -6.328125 4.6875 -6.3125 C 4.984375 -6.296875 5.109375 -6.203125 5.109375 -6.046875 C 5.109375 -5.765625 4.65625 -5.125 3.625 -3.921875 C 3.453125 -3.71875 3.390625 -3.640625 3.234375 -3.453125 C 3.125 -3.890625 3.09375 -4.03125 2.9375 -4.5625 C 2.6875 -5.40625 2.578125 -5.84375 2.578125 -5.984375 C 2.578125 -6.234375 2.6875 -6.296875 3.296875 -6.34375 L 3.296875 -6.515625 L 0.90625 -6.515625 Z M 0.90625 -6.34375 "
               style="stroke:none;" />
          </symbol>
          <symbol
             id="textext-5a3c899c-4"
             overflow="visible">
            <path
               id="path3009"
               d="M 6.3125 -6.515625 L 1 -6.515625 L 0.59375 -4.96875 L 0.765625 -4.9375 C 1.296875 -6.015625 1.609375 -6.1875 3.140625 -6.15625 L 1.703125 -0.890625 C 1.546875 -0.375 1.3125 -0.203125 0.640625 -0.15625 L 0.640625 0 L 3.53125 0 L 3.53125 -0.15625 C 3.375 -0.171875 3.21875 -0.1875 3.15625 -0.1875 C 2.765625 -0.21875 2.640625 -0.3125 2.640625 -0.609375 C 2.640625 -0.734375 2.671875 -0.859375 2.765625 -1.203125 L 4.140625 -6.15625 L 4.6875 -6.15625 C 5.40625 -6.15625 5.734375 -5.90625 5.734375 -5.359375 C 5.734375 -5.21875 5.71875 -5.078125 5.703125 -4.90625 L 5.875 -4.890625 Z M 6.3125 -6.515625 "
               style="stroke:none;" />
          </symbol>
          <symbol
             id="textext-5a3c899c-5"
             overflow="visible">
            <path
               id="path3012"
               d=""
               style="stroke:none;" />
          </symbol>
          <symbol
             id="textext-5a3c899c-6"
             overflow="visible">
            <path
               id="path3015"
               d="M 4.5625 -4.546875 L 3.109375 -4.546875 L 3.109375 -4.4375 C 3.453125 -4.390625 3.546875 -4.34375 3.546875 -4.1875 C 3.546875 -4.09375 3.5 -4.015625 3.40625 -3.90625 L 2.390625 -2.734375 L 1.984375 -3.765625 C 1.90625 -3.9375 1.875 -4.0625 1.875 -4.15625 C 1.875 -4.328125 1.984375 -4.390625 2.375 -4.4375 L 2.375 -4.546875 L 0.53125 -4.546875 L 0.53125 -4.4375 C 0.9375 -4.40625 1.03125 -4.328125 1.171875 -4.015625 L 1.90625 -2.1875 C 1.65625 -1.890625 1.421875 -1.609375 1.328125 -1.5 C 0.359375 -0.359375 0.171875 -0.1875 -0.203125 -0.109375 L -0.203125 0 L 1.296875 0 L 1.296875 -0.109375 C 0.953125 -0.109375 0.84375 -0.171875 0.84375 -0.34375 C 0.84375 -0.453125 0.890625 -0.578125 0.984375 -0.671875 L 2.03125 -1.875 L 2.5 -0.71875 C 2.546875 -0.59375 2.578125 -0.484375 2.578125 -0.390625 C 2.578125 -0.1875 2.515625 -0.140625 2.046875 -0.109375 L 2.046875 0 L 3.953125 0 L 3.953125 -0.109375 C 3.46875 -0.171875 3.40625 -0.203125 3.21875 -0.625 L 2.515625 -2.421875 L 3.6875 -3.78125 C 4.0625 -4.1875 4.265625 -4.34375 4.5625 -4.4375 Z M 4.5625 -4.546875 "
               style="stroke:none;" />
          </symbol>
          <symbol
             id="textext-5a3c899c-7"
             overflow="visible">
            <path
               id="path3018"
               d="M 0.640625 -4.4375 C 1.03125 -4.390625 1.046875 -4.359375 1.15625 -3.984375 L 1.703125 -2.109375 L 1.28125 -0.625 C 1.15625 -0.25 1 -0.140625 0.546875 -0.109375 L 0.546875 0 L 2.5625 0 L 2.5625 -0.109375 C 2.453125 -0.125 2.34375 -0.125 2.3125 -0.125 C 2.03125 -0.140625 1.9375 -0.21875 1.9375 -0.390625 C 1.9375 -0.53125 1.984375 -0.75 2.15625 -1.296875 C 2.171875 -1.359375 2.1875 -1.40625 2.1875 -1.421875 L 2.390625 -2.125 L 3.921875 -4.015625 C 4.140625 -4.296875 4.203125 -4.34375 4.40625 -4.4375 L 4.40625 -4.546875 L 3.09375 -4.546875 L 3.09375 -4.4375 C 3.171875 -4.4375 3.25 -4.421875 3.28125 -4.421875 C 3.484375 -4.390625 3.578125 -4.34375 3.578125 -4.21875 C 3.578125 -4.03125 3.25 -3.578125 2.53125 -2.734375 C 2.40625 -2.59375 2.375 -2.546875 2.265625 -2.421875 C 2.1875 -2.71875 2.15625 -2.8125 2.046875 -3.1875 C 1.875 -3.78125 1.796875 -4.078125 1.796875 -4.1875 C 1.796875 -4.359375 1.875 -4.390625 2.296875 -4.4375 L 2.296875 -4.546875 L 0.640625 -4.546875 Z M 0.640625 -4.4375 "
               style="stroke:none;" />
          </symbol>
          <symbol
             id="textext-5a3c899c-8"
             overflow="visible">
            <path
               id="path3021"
               d=""
               style="stroke:none;" />
          </symbol>
          <symbol
             id="textext-5a3c899c-9"
             overflow="visible">
            <path
               id="path3024"
               d="M 1.359375 -0.046875 C 1.359375 -0.625 0.953125 -0.703125 0.796875 -0.703125 C 0.625 -0.703125 0.390625 -0.609375 0.390625 -0.3125 C 0.390625 -0.03125 0.640625 0.046875 0.828125 0.046875 C 0.875 0.046875 0.90625 0.03125 0.921875 0.03125 C 0.953125 0.015625 0.96875 0.015625 0.984375 0.015625 C 1.03125 0.015625 1.09375 0.046875 1.09375 0.109375 C 1.09375 0.25 0.96875 0.5625 0.515625 0.84375 L 0.578125 0.984375 C 0.78125 0.90625 1.359375 0.453125 1.359375 -0.046875 Z M 1.359375 -0.046875 "
               style="stroke:none;" />
          </symbol>
          <symbol
             id="textext-5a3c899c-10"
             overflow="visible">
            <path
               id="path3027"
               d=""
               style="stroke:none;" />
          </symbol>
          <symbol
             id="textext-5a3c899c-11"
             overflow="visible">
            <path
               id="path3030"
               d="M 2.9375 -6.734375 C 2.203125 -6.265625 1.90625 -6 1.53125 -5.546875 C 0.828125 -4.671875 0.484375 -3.671875 0.484375 -2.515625 C 0.484375 -1.25 0.84375 -0.265625 1.71875 0.75 C 2.140625 1.21875 2.390625 1.453125 2.90625 1.765625 L 3.03125 1.609375 C 2.234375 0.984375 1.953125 0.625 1.6875 -0.125 C 1.453125 -0.78125 1.328125 -1.546875 1.328125 -2.546875 C 1.328125 -3.59375 1.46875 -4.40625 1.734375 -5.03125 C 2.015625 -5.640625 2.3125 -6 3.03125 -6.578125 Z M 2.9375 -6.734375 "
               style="stroke:none;" />
          </symbol>
          <symbol
             id="textext-5a3c899c-12"
             overflow="visible">
            <path
               id="path3033"
               d="M 2.53125 -6.734375 C 1.984375 -6.734375 1.5625 -6.5625 1.203125 -6.21875 C 0.625 -5.65625 0.234375 -4.515625 0.234375 -3.34375 C 0.234375 -2.265625 0.5625 -1.09375 1.03125 -0.53125 C 1.40625 -0.09375 1.90625 0.140625 2.5 0.140625 C 3 0.140625 3.421875 -0.03125 3.78125 -0.375 C 4.359375 -0.921875 4.75 -2.078125 4.75 -3.296875 C 4.75 -5.328125 3.84375 -6.734375 2.53125 -6.734375 Z M 2.5 -6.484375 C 3.34375 -6.484375 3.78125 -5.359375 3.78125 -3.265625 C 3.78125 -1.1875 3.34375 -0.125 2.5 -0.125 C 1.640625 -0.125 1.203125 -1.1875 1.203125 -3.265625 C 1.203125 -5.375 1.640625 -6.484375 2.5 -6.484375 Z M 2.5 -6.484375 "
               style="stroke:none;" />
          </symbol>
          <symbol
             id="textext-5a3c899c-13"
             overflow="visible">
            <path
               id="path3036"
               d="M 0.375 1.765625 C 1.109375 1.28125 1.421875 1.03125 1.78125 0.5625 C 2.5 -0.296875 2.84375 -1.296875 2.84375 -2.46875 C 2.84375 -3.734375 2.46875 -4.703125 1.59375 -5.71875 C 1.1875 -6.203125 0.921875 -6.421875 0.40625 -6.734375 L 0.296875 -6.578125 C 1.09375 -5.953125 1.359375 -5.609375 1.640625 -4.859375 C 1.875 -4.1875 1.984375 -3.421875 1.984375 -2.4375 C 1.984375 -1.390625 1.859375 -0.5625 1.578125 0.046875 C 1.3125 0.671875 1 1.03125 0.296875 1.609375 Z M 0.375 1.765625 "
               style="stroke:none;" />
          </symbol>
          <symbol
             id="textext-5a3c899c-14"
             overflow="visible">
            <path
               id="path3039"
               d="M 2.90625 -6.734375 L 1.109375 -5.828125 L 1.109375 -5.6875 C 1.21875 -5.734375 1.328125 -5.78125 1.375 -5.796875 C 1.5625 -5.875 1.71875 -5.90625 1.828125 -5.90625 C 2.03125 -5.90625 2.125 -5.765625 2.125 -5.4375 L 2.125 -0.921875 C 2.125 -0.59375 2.046875 -0.375 1.890625 -0.28125 C 1.734375 -0.1875 1.59375 -0.15625 1.171875 -0.15625 L 1.171875 0 L 3.921875 0 L 3.921875 -0.15625 C 3.140625 -0.15625 2.984375 -0.265625 2.984375 -0.734375 L 2.984375 -6.71875 Z M 2.90625 -6.734375 "
               style="stroke:none;" />
          </symbol>
          <symbol
             id="textext-5a3c899c-15"
             overflow="visible">
            <path
               id="path3042"
               d="M 2.890625 -3.703125 C 3.875 -4.234375 4.234375 -4.640625 4.234375 -5.328125 C 4.234375 -6.140625 3.515625 -6.734375 2.515625 -6.734375 C 1.421875 -6.734375 0.625 -6.078125 0.625 -5.15625 C 0.625 -4.515625 0.8125 -4.234375 1.859375 -3.3125 C 0.78125 -2.5 0.5625 -2.1875 0.5625 -1.5 C 0.5625 -0.53125 1.34375 0.140625 2.46875 0.140625 C 3.671875 0.140625 4.4375 -0.515625 4.4375 -1.546875 C 4.4375 -2.3125 4.09375 -2.796875 2.890625 -3.703125 Z M 2.71875 -2.671875 C 3.4375 -2.15625 3.671875 -1.796875 3.671875 -1.234375 C 3.671875 -0.59375 3.234375 -0.140625 2.578125 -0.140625 C 1.828125 -0.140625 1.3125 -0.71875 1.3125 -1.578125 C 1.3125 -2.21875 1.53125 -2.640625 2.109375 -3.109375 Z M 2.609375 -3.875 C 1.71875 -4.453125 1.359375 -4.921875 1.359375 -5.46875 C 1.359375 -6.046875 1.796875 -6.453125 2.4375 -6.453125 C 3.109375 -6.453125 3.53125 -6.015625 3.53125 -5.328125 C 3.53125 -4.765625 3.265625 -4.3125 2.6875 -3.9375 C 2.640625 -3.90625 2.640625 -3.90625 2.609375 -3.875 Z M 2.609375 -3.875 "
               style="stroke:none;" />
          </symbol>
          <symbol
             id="textext-5a3c899c-16"
             overflow="visible">
            <path
               id="path3045"
               d=""
               style="stroke:none;" />
          </symbol>
          <symbol
             id="textext-5a3c899c-17"
             overflow="visible">
            <path
               id="path3048"
               d="M 1.9375 -0.0625 C 1.9375 -0.890625 1.359375 -1.015625 1.140625 -1.015625 C 0.890625 -1.015625 0.5625 -0.875 0.5625 -0.4375 C 0.5625 -0.046875 0.921875 0.0625 1.171875 0.0625 C 1.25 0.0625 1.296875 0.046875 1.328125 0.046875 C 1.359375 0.03125 1.390625 0.015625 1.421875 0.015625 C 1.484375 0.015625 1.5625 0.0625 1.5625 0.15625 C 1.5625 0.34375 1.390625 0.796875 0.734375 1.21875 L 0.828125 1.40625 C 1.125 1.3125 1.9375 0.640625 1.9375 -0.0625 Z M 1.9375 -0.0625 "
               style="stroke:none;" />
          </symbol>
          <symbol
             id="textext-5a3c899c-18"
             overflow="visible">
            <path
               id="path3051"
               d=""
               style="stroke:none;" />
          </symbol>
          <symbol
             id="textext-5a3c899c-19"
             overflow="visible">
            <path
               id="path3054"
               d="M 5.71875 -3.296875 L 5.71875 -3.84375 L 0.625 -3.84375 L 0.625 -3.296875 Z M 5.71875 -1.265625 L 5.71875 -1.828125 L 0.625 -1.828125 L 0.625 -1.265625 Z M 5.71875 -1.265625 "
               style="stroke:none;" />
          </symbol>
          <symbol
             id="textext-5a3c899c-20"
             overflow="visible">
            <path
               id="path3057"
               d=""
               style="stroke:none;" />
          </symbol>
          <symbol
             id="textext-5a3c899c-21"
             overflow="visible">
            <path
               id="path3060"
               d="M 5.90625 0 L 5.90625 -3.078125 C 5.90625 -4.5625 4.6875 -5.71875 3.265625 -5.71875 C 1.859375 -5.71875 0.625 -4.5625 0.625 -3.078125 L 0.625 0 L 1.125 0 L 1.125 -3.125 C 1.125 -4.3125 2.109375 -5.203125 3.265625 -5.203125 C 4.46875 -5.203125 5.390625 -4.171875 5.390625 -3.125 L 5.390625 0 Z M 5.90625 0 "
               style="stroke:none;" />
          </symbol>
        </g>
      </defs>
      <g
         id="textext-5a3c899c-22">
        <g
           id="g3063"
           style="fill:rgb(0%,0%,0%);fill-opacity:1;">
          <use
             id="use3065"
             y="134.765"
             x="320.372"
             xlink:href="#textext-5a3c899c-1" />
        </g>
        <g
           id="g3067"
           style="fill:rgb(0%,0%,0%);fill-opacity:1;">
          <use
             id="use3069"
             y="136.259"
             x="326.633"
             xlink:href="#textext-5a3c899c-6" />
        </g>
        <g
           id="g3071"
           style="fill:rgb(0%,0%,0%);fill-opacity:1;">
          <use
             id="use3073"
             y="136.259"
             x="330.817"
             xlink:href="#textext-5a3c899c-9" />
        </g>
        <g
           id="g3075"
           style="fill:rgb(0%,0%,0%);fill-opacity:1;">
          <use
             id="use3077"
             y="136.259"
             x="332.561"
             xlink:href="#textext-5a3c899c-7" />
        </g>
        <g
           id="g3079"
           style="fill:rgb(0%,0%,0%);fill-opacity:1;">
          <use
             id="use3081"
             y="134.765"
             x="337.473"
             xlink:href="#textext-5a3c899c-11" />
          <use
             id="use3083"
             y="134.765"
             x="340.790546"
             xlink:href="#textext-5a3c899c-12" />
        </g>
        <g
           id="g3085"
           style="fill:rgb(0%,0%,0%);fill-opacity:1;">
          <use
             id="use3087"
             y="134.765"
             x="345.772"
             xlink:href="#textext-5a3c899c-17" />
        </g>
        <g
           id="g3089"
           style="fill:rgb(0%,0%,0%);fill-opacity:1;">
          <use
             id="use3091"
             y="134.765"
             x="349.923"
             xlink:href="#textext-5a3c899c-12" />
          <use
             id="use3093"
             y="134.765"
             x="354.9043"
             xlink:href="#textext-5a3c899c-13" />
        </g>
        <g
           id="g3095"
           style="fill:rgb(0%,0%,0%);fill-opacity:1;">
          <use
             id="use3097"
             y="134.765"
             x="360.989"
             xlink:href="#textext-5a3c899c-19" />
        </g>
        <g
           id="g3099"
           style="fill:rgb(0%,0%,0%);fill-opacity:1;">
          <use
             id="use3101"
             y="134.765"
             x="370.342"
             xlink:href="#textext-5a3c899c-1" />
        </g>
        <g
           id="g3103"
           style="fill:rgb(0%,0%,0%);fill-opacity:1;">
          <use
             id="use3105"
             y="134.765"
             x="376.429"
             xlink:href="#textext-5a3c899c-11" />
          <use
             id="use3107"
             y="134.765"
             x="379.746546"
             xlink:href="#textext-5a3c899c-11" />
        </g>
        <g
           id="g3109"
           style="fill:rgb(0%,0%,0%);fill-opacity:1;">
          <use
             id="use3111"
             y="134.765"
             x="383.313"
             xlink:href="#textext-5a3c899c-2" />
        </g>
        <g
           id="g3113"
           style="fill:rgb(0%,0%,0%);fill-opacity:1;">
          <use
             id="use3115"
             y="134.765"
             x="392.606"
             xlink:href="#textext-5a3c899c-19" />
        </g>
        <g
           id="g3117"
           style="fill:rgb(0%,0%,0%);fill-opacity:1;">
          <use
             id="use3119"
             y="134.765"
             x="401.71"
             xlink:href="#textext-5a3c899c-12" />
          <use
             id="use3121"
             y="134.765"
             x="406.6913"
             xlink:href="#textext-5a3c899c-13" />
        </g>
        <g
           id="g3123"
           style="fill:rgb(0%,0%,0%);fill-opacity:1;">
          <use
             id="use3125"
             y="134.765"
             x="412.223"
             xlink:href="#textext-5a3c899c-21" />
        </g>
        <g
           id="g3127"
           style="fill:rgb(0%,0%,0%);fill-opacity:1;">
          <use
             id="use3129"
             y="134.765"
             x="420.952"
             xlink:href="#textext-5a3c899c-11" />
        </g>
        <g
           id="g3131"
           style="fill:rgb(0%,0%,0%);fill-opacity:1;">
          <use
             id="use3133"
             y="134.765"
             x="424.27"
             xlink:href="#textext-5a3c899c-3" />
        </g>
        <g
           id="g3135"
           style="fill:rgb(0%,0%,0%);fill-opacity:1;">
          <use
             id="use3137"
             y="134.765"
             x="433.343"
             xlink:href="#textext-5a3c899c-19" />
        </g>
        <g
           id="g3139"
           style="fill:rgb(0%,0%,0%);fill-opacity:1;">
          <use
             id="use3141"
             y="134.765"
             x="442.447"
             xlink:href="#textext-5a3c899c-12" />
          <use
             id="use3143"
             y="134.765"
             x="447.4283"
             xlink:href="#textext-5a3c899c-13" />
          <use
             id="use3145"
             y="134.765"
             x="450.745846"
             xlink:href="#textext-5a3c899c-13" />
        </g>
        <g
           id="g3147"
           style="fill:rgb(0%,0%,0%);fill-opacity:1;">
          <use
             id="use3149"
             y="155.746"
             x="360.989"
             xlink:href="#textext-5a3c899c-19" />
        </g>
        <g
           id="g3151"
           style="fill:rgb(0%,0%,0%);fill-opacity:1;">
          <use
             id="use3153"
             y="155.746"
             x="370.342"
             xlink:href="#textext-5a3c899c-1" />
        </g>
        <g
           id="g3155"
           style="fill:rgb(0%,0%,0%);fill-opacity:1;">
          <use
             id="use3157"
             y="155.746"
             x="376.429"
             xlink:href="#textext-5a3c899c-11" />
        </g>
        <g
           id="g3159"
           style="fill:rgb(0%,0%,0%);fill-opacity:1;">
          <use
             id="use3161"
             y="155.746"
             x="379.747"
             xlink:href="#textext-5a3c899c-3" />
        </g>
        <g
           id="g3163"
           style="fill:rgb(0%,0%,0%);fill-opacity:1;">
          <use
             id="use3165"
             y="155.746"
             x="388.82"
             xlink:href="#textext-5a3c899c-19" />
        </g>
        <g
           id="g3167"
           style="fill:rgb(0%,0%,0%);fill-opacity:1;">
          <use
             id="use3169"
             y="155.746"
             x="397.924"
             xlink:href="#textext-5a3c899c-12" />
          <use
             id="use3171"
             y="155.746"
             x="402.9053"
             xlink:href="#textext-5a3c899c-13" />
        </g>
        <g
           id="g3173"
           style="fill:rgb(0%,0%,0%);fill-opacity:1;">
          <use
             id="use3175"
             y="155.746"
             x="408.99"
             xlink:href="#textext-5a3c899c-19" />
        </g>
        <g
           id="g3177"
           style="fill:rgb(0%,0%,0%);fill-opacity:1;">
          <use
             id="use3179"
             y="155.746"
             x="418.343"
             xlink:href="#textext-5a3c899c-1" />
        </g>
        <g
           id="g3181"
           style="fill:rgb(0%,0%,0%);fill-opacity:1;">
          <use
             id="use3183"
             y="155.746"
             x="424.43"
             xlink:href="#textext-5a3c899c-11" />
        </g>
        <g
           id="g3185"
           style="fill:rgb(0%,0%,0%);fill-opacity:1;">
          <use
             id="use3187"
             y="155.746"
             x="427.748"
             xlink:href="#textext-5a3c899c-4" />
        </g>
        <g
           id="g3189"
           style="fill:rgb(0%,0%,0%);fill-opacity:1;">
          <use
             id="use3191"
             y="155.746"
             x="434.462792"
             xlink:href="#textext-5a3c899c-4" />
        </g>
        <g
           id="g3193"
           style="fill:rgb(0%,0%,0%);fill-opacity:1;">
          <use
             id="use3195"
             y="155.746"
             x="441.177585"
             xlink:href="#textext-5a3c899c-4" />
        </g>
        <g
           id="g3197"
           style="fill:rgb(0%,0%,0%);fill-opacity:1;">
          <use
             id="use3199"
             y="155.746"
             x="447.892"
             xlink:href="#textext-5a3c899c-13" />
        </g>
        <g
           id="g3201"
           style="fill:rgb(0%,0%,0%);fill-opacity:1;">
          <use
             id="use3203"
             y="155.746"
             x="453.977"
             xlink:href="#textext-5a3c899c-19" />
        </g>
        <g
           id="g3205"
           style="fill:rgb(0%,0%,0%);fill-opacity:1;">
          <use
             id="use3207"
             y="149.001"
             x="464.276"
             xlink:href="#textext-5a3c899c-14" />
        </g>
        <path
           id="path3209"
           transform="matrix(1,0,0,-1,464.276,153.186)"
           d="M 0.00134375 -0.0015 L 4.981813 -0.0015 "
           style="fill:none;stroke-width:0.558;stroke-linecap:butt;stroke-linejoin:miter;stroke:rgb(0%,0%,0%);stroke-opacity:1;stroke-miterlimit:10;" />
        <g
           id="g3211"
           style="fill:rgb(0%,0%,0%);fill-opacity:1;">
          <use
             id="use3213"
             y="162.58"
             x="464.276"
             xlink:href="#textext-5a3c899c-15" />
        </g>
      </g>
    </g>
    <path
       style="fill:none;stroke:#000000;stroke-width:1px;stroke-linecap:butt;stroke-linejoin:miter;stroke-opacity:1;marker-end:none;marker-start:url(#Arrow1Mstart)"
       d="m 419.64286,179.86218 0,36.78572 50,0"
       id="path3342"
       inkscape:connector-curvature="0" />
    <text
       sodipodi:linespacing="125%"
       id="text5182"
       y="217.71931"
       x="486.07144"
       style="font-size:12px;font-style:normal;font-variant:normal;font-weight:normal;font-stretch:normal;line-height:125%;letter-spacing:0px;word-spacing:0px;fill:#000000;fill-opacity:1;stroke:none;font-family:Nimbus Roman No9 L;-inkscape-font-specification:Nimbus Roman No9 L"
       xml:space="preserve"><tspan
         y="217.71931"
         x="486.07144"
         id="tspan5184"
         sodipodi:role="line">(because                          )</tspan></text>
    <g
       id="g5322"
       ns0:preamble="/home/sriranga/Desktop/general-books/CSY/article4/figure/package.tex"
       ns0:text="$Y=0 \\Rightarrow X=0$"
       transform="matrix(1.2,0,0,1.2,263.83927,57.306429)">
      <defs
         id="defs5324">
        <g
           id="g5326">
          <symbol
             id="textext-0ffde2f5-0"
             overflow="visible"
             style="overflow:visible">
            <path
               id="path5329"
               d=""
               style="stroke:none"
               inkscape:connector-curvature="0" />
          </symbol>
          <symbol
             id="textext-0ffde2f5-1"
             overflow="visible"
             style="overflow:visible">
            <path
               id="path5332"
               d="M 0.90625,-6.34375 C 1.46875,-6.265625 1.5,-6.234375 1.671875,-5.6875 l 0.765625,2.671875 -0.609375,2.125 C 1.65625,-0.359375 1.4375,-0.203125 0.78125,-0.15625 l 0,0.15625 2.875,0 0,-0.15625 C 3.5,-0.171875 3.359375,-0.171875 3.296875,-0.1875 c -0.390625,-0.015625 -0.53125,-0.125 -0.53125,-0.375 0,-0.203125 0.078125,-0.5 0.3125,-1.28125 C 3.109375,-1.9375 3.125,-2 3.140625,-2.046875 l 0.28125,-1 2.1875,-2.6875 C 5.9375,-6.140625 6.015625,-6.203125 6.3125,-6.34375 l 0,-0.171875 -1.890625,0 0,0.171875 c 0.125,0 0.234375,0.015625 0.265625,0.03125 0.296875,0.015625 0.421875,0.109375 0.421875,0.265625 0,0.28125 -0.453125,0.921875 -1.484375,2.125 -0.171875,0.203125 -0.234375,0.28125 -0.390625,0.46875 C 3.125,-3.890625 3.09375,-4.03125 2.9375,-4.5625 2.6875,-5.40625 2.578125,-5.84375 2.578125,-5.984375 c 0,-0.25 0.109375,-0.3125 0.71875,-0.359375 l 0,-0.171875 -2.390625,0 z m 0,0"
               style="stroke:none"
               inkscape:connector-curvature="0" />
          </symbol>
          <symbol
             id="textext-0ffde2f5-2"
             overflow="visible"
             style="overflow:visible">
            <path
               id="path5335"
               d="m 6.53125,-6.515625 -2.078125,0 0,0.171875 c 0.484375,0.046875 0.609375,0.125 0.609375,0.359375 0,0.125 -0.0625,0.25 -0.203125,0.40625 l -1.4375,1.65625 -0.59375,-1.46875 C 2.71875,-5.640625 2.6875,-5.8125 2.6875,-5.9375 c 0,-0.25 0.15625,-0.34375 0.703125,-0.40625 l 0,-0.171875 -2.640625,0 0,0.171875 c 0.578125,0.046875 0.734375,0.140625 0.921875,0.609375 l 1.0625,2.609375 c -0.375,0.421875 -0.703125,0.8125 -0.828125,0.96875 -1.390625,1.640625 -1.671875,1.890625 -2.203125,2 l 0,0.15625 2.140625,0 0,-0.15625 C 1.359375,-0.15625 1.203125,-0.25 1.203125,-0.5 c 0,-0.140625 0.078125,-0.3125 0.203125,-0.46875 l 1.5,-1.71875 0.671875,1.65625 c 0.078125,0.171875 0.109375,0.328125 0.109375,0.484375 0,0.28125 -0.09375,0.34375 -0.75,0.390625 l 0,0.15625 2.71875,0 0,-0.15625 C 4.953125,-0.234375 4.859375,-0.296875 4.609375,-0.890625 L 3.59375,-3.46875 l 1.6875,-1.9375 c 0.515625,-0.578125 0.8125,-0.796875 1.25,-0.9375 z m 0,0"
               style="stroke:none"
               inkscape:connector-curvature="0" />
          </symbol>
          <symbol
             id="textext-0ffde2f5-3"
             overflow="visible"
             style="overflow:visible">
            <path
               id="path5338"
               d=""
               style="stroke:none"
               inkscape:connector-curvature="0" />
          </symbol>
          <symbol
             id="textext-0ffde2f5-4"
             overflow="visible"
             style="overflow:visible">
            <path
               id="path5341"
               d="m 5.71875,-3.296875 0,-0.546875 -5.09375,0 0,0.546875 z m 0,2.03125 0,-0.5625 -5.09375,0 0,0.5625 z m 0,0"
               style="stroke:none"
               inkscape:connector-curvature="0" />
          </symbol>
          <symbol
             id="textext-0ffde2f5-5"
             overflow="visible"
             style="overflow:visible">
            <path
               id="path5344"
               d=""
               style="stroke:none"
               inkscape:connector-curvature="0" />
          </symbol>
          <symbol
             id="textext-0ffde2f5-6"
             overflow="visible"
             style="overflow:visible">
            <path
               id="path5347"
               d="m 2.53125,-6.734375 c -0.546875,0 -0.96875,0.171875 -1.328125,0.515625 -0.578125,0.5625 -0.96875,1.703125 -0.96875,2.875 0,1.078125 0.328125,2.25 0.796875,2.8125 0.375,0.4375 0.875,0.671875 1.46875,0.671875 0.5,0 0.921875,-0.171875 1.28125,-0.515625 C 4.359375,-0.921875 4.75,-2.078125 4.75,-3.296875 c 0,-2.03125 -0.90625,-3.4375 -2.21875,-3.4375 z m -0.03125,0.25 c 0.84375,0 1.28125,1.125 1.28125,3.21875 0,2.078125 -0.4375,3.140625 -1.28125,3.140625 -0.859375,0 -1.296875,-1.0625 -1.296875,-3.140625 0,-2.109375 0.4375,-3.21875 1.296875,-3.21875 z m 0,0"
               style="stroke:none"
               inkscape:connector-curvature="0" />
          </symbol>
          <symbol
             id="textext-0ffde2f5-7"
             overflow="visible"
             style="overflow:visible">
            <path
               id="path5350"
               d=""
               style="stroke:none"
               inkscape:connector-curvature="0" />
          </symbol>
          <symbol
             id="textext-0ffde2f5-8"
             overflow="visible"
             style="overflow:visible">
            <path
               id="path5353"
               d="M 8.984375,-2.5625 6.59375,-5.078125 6.3125,-4.78125 l 0.75,0.9375 -6.4375,0 0,0.546875 6.90625,0 0.609375,0.75 -0.59375,0.71875 -6.921875,0 0,0.5625 6.4375,0 -0.75,0.921875 0.28125,0.296875 z m 0,0"
               style="stroke:none"
               inkscape:connector-curvature="0" />
          </symbol>
        </g>
      </defs>
      <g
         id="textext-0ffde2f5-9">
        <g
           id="g5356"
           style="fill:#000000;fill-opacity:1">
          <use
             id="use5358"
             y="134.765"
             x="223.43201"
             xlink:href="#textext-0ffde2f5-1"
             width="744.09448"
             height="1052.3622" />
        </g>
        <g
           id="g5360"
           style="fill:#000000;fill-opacity:1">
          <use
             id="use5362"
             y="134.765"
             x="232.506"
             xlink:href="#textext-0ffde2f5-4"
             width="744.09448"
             height="1052.3622" />
        </g>
        <g
           id="g5364"
           style="fill:#000000;fill-opacity:1">
          <use
             id="use5366"
             y="134.765"
             x="241.60899"
             xlink:href="#textext-0ffde2f5-6"
             width="744.09448"
             height="1052.3622" />
        </g>
        <g
           id="g5368"
           style="fill:#000000;fill-opacity:1">
          <use
             id="use5370"
             y="134.765"
             x="249.358"
             xlink:href="#textext-0ffde2f5-8"
             width="744.09448"
             height="1052.3622" />
        </g>
        <g
           id="g5372"
           style="fill:#000000;fill-opacity:1">
          <use
             id="use5374"
             y="134.765"
             x="261.978"
             xlink:href="#textext-0ffde2f5-2"
             width="744.09448"
             height="1052.3622" />
        </g>
        <g
           id="g5376"
           style="fill:#000000;fill-opacity:1">
          <use
             id="use5378"
             y="134.765"
             x="271.271"
             xlink:href="#textext-0ffde2f5-4"
             width="744.09448"
             height="1052.3622" />
        </g>
        <g
           id="g5380"
           style="fill:#000000;fill-opacity:1">
          <use
             id="use5382"
             y="134.765"
             x="280.375"
             xlink:href="#textext-0ffde2f5-6"
             width="744.09448"
             height="1052.3622" />
        </g>
      </g>
    </g>
  </g>
</svg>
