<?xml version="1.0" encoding="UTF-8" standalone="no"?>
<!-- Created with Inkscape (http://www.inkscape.org/) -->

<svg
   xmlns:ns0="http://www.iki.fi/pav/software/textext/"
   xmlns:dc="http://purl.org/dc/elements/1.1/"
   xmlns:cc="http://creativecommons.org/ns#"
   xmlns:rdf="http://www.w3.org/1999/02/22-rdf-syntax-ns#"
   xmlns:svg="http://www.w3.org/2000/svg"
   xmlns="http://www.w3.org/2000/svg"
   xmlns:sodipodi="http://sodipodi.sourceforge.net/DTD/sodipodi-0.dtd"
   xmlns:inkscape="http://www.inkscape.org/namespaces/inkscape"
   width="14cm"
   height="15cm"
   viewBox="0 0 140 150"
   version="1.1"
   id="svg8"
   inkscape:version="0.92.5 (2060ec1f9f, 2020-04-08)"
   sodipodi:docname="fig11.svg">
  <defs
     id="defs2" />
  <sodipodi:namedview
     id="base"
     pagecolor="#ffffff"
     bordercolor="#666666"
     borderopacity="1.0"
     inkscape:pageopacity="0.0"
     inkscape:pageshadow="2"
     inkscape:zoom="0.91898611"
     inkscape:cx="264.56693"
     inkscape:cy="283.46457"
     inkscape:document-units="cm"
     inkscape:current-layer="layer1"
     showgrid="false"
     units="cm"
     showguides="false"
     inkscape:window-width="732"
     inkscape:window-height="699"
     inkscape:window-x="3"
     inkscape:window-y="27"
     inkscape:window-maximized="0">
    <inkscape:grid
       id="grid904"
       type="xygrid" />
  </sodipodi:namedview>
  <metadata
     id="metadata5">
    <rdf:RDF>
      <cc:Work
         rdf:about="">
        <dc:format>image/svg+xml</dc:format>
        <dc:type
           rdf:resource="http://purl.org/dc/dcmitype/StillImage" />
        <dc:title></dc:title>
      </cc:Work>
    </rdf:RDF>
  </metadata>
  <g
     inkscape:label="Layer 1"
     inkscape:groupmode="layer"
     id="layer1"
     transform="translate(0,-147.00001)">
    <rect
       style="fill:none;fill-opacity:1;stroke:#000000;stroke-width:0.26499999;stroke-linecap:round;stroke-linejoin:round;stroke-miterlimit:4;stroke-dasharray:none;stroke-dashoffset:0;stroke-opacity:1;paint-order:stroke fill markers"
       id="rect7664"
       width="26.458334"
       height="15.874997"
       x="13.229166"
       y="172.64584" />
    <g
       style="font-style:normal;font-variant:normal;font-weight:normal;font-stretch:normal;letter-spacing:normal;word-spacing:normal;text-anchor:start;fill:none;fill-opacity:1;fill-rule:evenodd;stroke:#000000;stroke-linecap:butt;stroke-linejoin:miter;stroke-miterlimit:10.43299961;stroke-dasharray:none;stroke-dashoffset:0;stroke-opacity:1"
       ns0:jacobian_sqrt="0.352778"
       inkscapeversion="0.92.5"
       ns0:alignment="middle center"
       ns0:scale="1.0"
       ns0:preamble="default_packages.tex"
       ns0:text="$\\Psi_k^{E^1_{1_s}}, k \\in k_2$\n\n\n\n\n\n\n\n\n\n"
       ns0:pdfconverter="pstoedit"
       ns0:texconverter="pdflatex"
       ns0:version="0.11.1"
       word-spacing="normal"
       letter-spacing="normal"
       font-size-adjust="none"
       font-stretch="normal"
       font-weight="normal"
       font-variant="normal"
       font-style="normal"
       stroke-miterlimit="10.433"
       xml:space="preserve"
       transform="matrix(0.352778,0,0,-0.352778,-35.595704,431.11766)"
       id="content">
<path
   id="path7827"
   style="fill:#000000;fill-opacity:1;stroke:#000000;stroke-width:0;stroke-opacity:1"
   d="m 152.95,710.45 v 0.03 0.03 0.03 0.03 0.03 0.02 0.03 l 0.01,0.02 0.01,0.02 v 0.02 l 0.01,0.02 0.02,0.02 0.01,0.02 0.01,0.02 0.02,0.02 0.02,0.01 0.03,0.01 0.01,0.01 0.01,0.01 h 0.02 l 0.01,0.01 0.02,0.01 h 0.02 l 0.02,0.01 h 0.01 l 0.02,0.01 h 0.02 l 0.03,0.01 h 0.02 0.02 l 0.03,0.01 h 0.02 0.03 l 0.03,0.01 h 0.03 0.03 0.03 l 0.03,0.01 h 0.03 0.04 0.03 0.04 0.04 0.04 0.04 0.04 0.05 0.33 v 0.3 c -0.36,-0.03 -1.28,-0.03 -1.69,-0.03 -0.41,0 -1.33,0 -1.69,0.03 v -0.3 h 0.33 c 0.95,0 0.95,-0.14 0.95,-0.48 v -4.41 c -1.31,0.35 -1.36,1.88 -1.36,2.52 0,1.2 -0.43,1.39 -0.87,1.39 h -0.38 c -0.14,0 -0.25,0 -0.25,-0.11 0,-0.05 0.03,-0.09 0.1,-0.11 0.33,-0.03 0.58,-0.17 0.58,-1.34 0,-0.24 0.03,-1.02 0.51,-1.69 0.39,-0.53 0.99,-0.81 1.67,-0.91 v -0.56 c 0,-0.33 0,-0.47 -0.95,-0.47 h -0.33 v -0.31 c 0.36,0.03 1.28,0.03 1.69,0.03 0.41,0 1.33,0 1.69,-0.03 v 0.31 h -0.33 c -0.95,0 -0.95,0.13 -0.95,0.47 v 0.56 c 0.71,0.1 1.32,0.39 1.71,0.91 0.52,0.7 0.54,1.48 0.54,1.92 0,0.16 0,1.05 0.53,1.11 0.06,0.02 0.14,0.02 0.14,0.11 0,0.11 -0.08,0.11 -0.25,0.11 h -0.38 c -0.37,0 -0.87,-0.06 -0.87,-1.5 -0.02,-1.1 -0.35,-2.16 -1.42,-2.41 z"
   inkscape:connector-curvature="0" />
<path
   id="path7829"
   style="fill:#000000;fill-opacity:1;stroke:#000000;stroke-width:0;stroke-opacity:1"
   d="m 162.02,712.5 h 0.01 v 0 0.01 0 0.01 h 0.01 v 0 0.01 0 0.01 0 0 l 0.01,0.01 v 0 0.01 0 0.01 h 0.01 v 0.01 0 0.01 0 0 l 0.01,0.01 v 0 0 0.01 0 0 0 0 0.01 0 0 0 0 0 0 0 c 0,0.05 -0.03,0.1 -0.12,0.1 -0.02,0 -0.05,0 -0.08,-0.02 0,-0.02 -0.02,-0.03 -0.1,-0.22 -0.47,-1 -0.82,-1.36 -1.97,-1.36 h -1.18 c -0.22,0 -0.24,0.02 -0.24,0.08 0,0 0,0.03 0.03,0.14 l 0.47,1.89 h 0.8 c 0.55,0 0.64,-0.09 0.64,-0.33 0,-0.08 -0.03,-0.2 -0.06,-0.31 -0.02,-0.06 -0.02,-0.08 -0.02,-0.09 0,-0.02 0.02,-0.1 0.13,-0.1 0.09,0 0.09,0.03 0.12,0.16 l 0.39,1.54 c 0.02,0.08 0.02,0.1 0.02,0.1 0,0.08 -0.05,0.11 -0.11,0.11 -0.09,0 -0.11,-0.05 -0.14,-0.19 -0.16,-0.55 -0.36,-0.64 -0.95,-0.64 h -0.75 l 0.42,1.67 c 0.06,0.22 0.06,0.24 0.36,0.24 h 1.15 c 0.91,0 1.14,-0.19 1.14,-0.82 0,-0.18 -0.01,-0.39 -0.01,-0.42 0,-0.06 0.01,-0.12 0.11,-0.12 0.11,0 0.11,0.06 0.12,0.19 l 0.13,1.21 c 0.03,0.21 -0.02,0.21 -0.21,0.21 h -3.86 c -0.14,0 -0.23,0 -0.23,-0.14 0,-0.11 0.08,-0.11 0.23,-0.11 0.13,0 0.15,0 0.27,-0.02 0.14,-0.02 0.16,-0.02 0.16,-0.09 0,-0.05 -0.02,-0.13 -0.02,-0.16 l -0.92,-3.67 c -0.08,-0.28 -0.08,-0.33 -0.63,-0.33 -0.14,0 -0.21,0 -0.21,-0.15 0,-0.1 0.07,-0.1 0.21,-0.1 h 3.97 c 0.17,0 0.17,0 0.24,0.13 z"
   inkscape:connector-curvature="0" />
<path
   id="path7831"
   style="fill:#000000;fill-opacity:1;stroke:#000000;stroke-width:0;stroke-opacity:1"
   d="m 164.69,716.99 v 0 0.01 0.01 0 0.01 0 0.01 0 0.01 0 0.01 0 0.01 0 0.01 0 0 l -0.01,0.01 v 0 0.01 0 0.01 h -0.01 v 0.01 h -0.01 v 0 l -0.01,0.01 v 0 h -0.01 v 0 h -0.01 l -0.01,0.01 v 0 h -0.01 v 0 h -0.01 v 0 h -0.01 v 0 h -0.01 v 0 h -0.01 v 0 h -0.01 -0.01 v 0 h -0.01 -0.01 v 0 h -0.01 c -0.36,-0.31 -0.92,-0.31 -1.02,-0.31 h -0.09 v -0.21 h 0.09 c 0.11,0 0.44,0.02 0.74,0.13 v -2.44 c 0,-0.15 0,-0.2 -0.53,-0.2 h -0.27 v -0.22 c 0.28,0.02 0.74,0.02 1.03,0.02 0.28,0 0.74,0 1.02,-0.02 v 0.22 h -0.25 c -0.55,0 -0.55,0.05 -0.55,0.2 z"
   inkscape:connector-curvature="0" />
<path
   id="path7833"
   style="fill:#000000;fill-opacity:1;stroke:#000000;stroke-width:0;stroke-opacity:1"
   d="m 164.31,711.99 v 0 0.01 0.01 0 0.01 0 0.01 0 0.01 0 0.01 0 0.01 0 l -0.01,0.01 v 0 0 0.01 0 0.01 0 l -0.01,0.01 v 0 0.01 h -0.01 v 0 l -0.01,0.01 v 0 h -0.01 -0.01 v 0 l -0.01,0.01 h -0.01 v 0 0 h -0.01 v 0 h -0.01 v 0 h -0.01 -0.01 v 0 h -0.01 v 0 h -0.01 -0.01 v 0 h -0.01 -0.01 v 0 c -0.36,-0.31 -0.93,-0.31 -1.02,-0.31 h -0.09 v -0.21 h 0.09 c 0.11,0 0.44,0.02 0.73,0.13 v -2.44 c 0,-0.15 0,-0.2 -0.53,-0.2 h -0.26 v -0.22 c 0.28,0.02 0.73,0.02 1.03,0.02 0.28,0 0.73,0 1.01,-0.02 v 0.22 h -0.25 c -0.54,0 -0.54,0.05 -0.54,0.2 z"
   inkscape:connector-curvature="0" />
<path
   id="path7835"
   style="fill:#000000;fill-opacity:1;stroke:#000000;stroke-width:0;stroke-opacity:1"
   d="m 168.26,709.73 -0.01,-0.01 h -0.01 v 0 h -0.01 l -0.01,-0.01 h -0.01 v 0 h -0.01 l -0.01,-0.01 v 0 h -0.01 l -0.01,-0.01 -0.01,-0.01 h -0.01 l -0.01,-0.01 -0.01,-0.01 -0.01,-0.01 v -0.01 h -0.01 l -0.01,-0.01 v -0.01 l -0.01,-0.01 v -0.01 l -0.01,-0.01 v -0.01 l -0.01,-0.01 v 0 -0.01 -0.01 l -0.01,-0.01 v -0.01 0 -0.01 -0.01 0 -0.01 0 -0.01 c 0,-0.12 0.11,-0.19 0.19,-0.19 0.06,0 0.26,0.05 0.26,0.32 0,0.33 -0.39,0.42 -0.78,0.42 -0.84,0 -1,-0.5 -1,-0.67 0,-0.17 0.09,-0.28 0.19,-0.35 0.14,-0.11 0.29,-0.12 0.56,-0.17 0.31,-0.05 0.67,-0.09 0.67,-0.34 0,-0.02 0,-0.52 -0.94,-0.52 -0.18,0 -0.5,0.02 -0.65,0.17 0.17,0.04 0.26,0.18 0.26,0.3 0,0.14 -0.11,0.2 -0.22,0.2 -0.17,0 -0.32,-0.14 -0.32,-0.36 0,-0.46 0.78,-0.46 0.93,-0.46 1.04,0 1.21,0.56 1.21,0.76 0,0.44 -0.55,0.53 -0.82,0.58 -0.35,0.05 -0.6,0.09 -0.6,0.28 0,0.02 0,0.42 0.73,0.42 0.12,0 0.39,-0.01 0.53,-0.15 z"
   inkscape:connector-curvature="0" />
<path
   id="path7837"
   style="fill:#000000;fill-opacity:1;stroke:#000000;stroke-width:0;stroke-opacity:1"
   d="m 158.66,706.12 v 0 0 0 0 0 0 l 0.01,0.01 v 0 0 0.01 0 0 0.01 0 0 l 0.01,0.01 v 0 0.01 0.01 0.01 h 0.01 v 0 0.01 0 0.01 0 0 0.01 0 0 0 0 0 0.01 0 h 0.01 c 0,0.03 -0.04,0.09 -0.13,0.09 -0.14,0 -0.72,-0.05 -0.89,-0.06 -0.06,-0.02 -0.16,-0.02 -0.16,-0.17 0,-0.1 0.1,-0.1 0.19,-0.1 0.33,0 0.33,-0.04 0.33,-0.11 0,-0.04 -0.02,-0.08 -0.03,-0.15 l -0.99,-3.97 c -0.03,-0.13 -0.03,-0.14 -0.03,-0.16 0,-0.11 0.08,-0.22 0.24,-0.22 0.18,0 0.28,0.13 0.32,0.28 0.02,0.04 0.32,1.27 0.35,1.38 0.5,-0.05 0.89,-0.22 0.89,-0.58 0,-0.03 0,-0.08 -0.02,-0.14 -0.01,-0.11 -0.01,-0.14 -0.01,-0.22 0,-0.5 0.4,-0.72 0.73,-0.72 0.69,0 0.91,1.07 0.91,1.07 0,0.09 -0.1,0.09 -0.13,0.09 -0.09,0 -0.09,-0.03 -0.14,-0.17 -0.08,-0.3 -0.26,-0.8 -0.61,-0.8 -0.18,0 -0.25,0.17 -0.25,0.36 0,0.12 0,0.14 0.05,0.33 0,0.01 0.03,0.14 0.03,0.22 0,0.62 -0.84,0.72 -1.14,0.73 0.2,0.13 0.47,0.36 0.58,0.47 0.36,0.34 0.72,0.67 1.11,0.67 0.08,0 0.17,-0.03 0.23,-0.09 -0.29,-0.05 -0.37,-0.28 -0.37,-0.39 0,-0.16 0.12,-0.27 0.28,-0.27 0.2,0 0.41,0.16 0.41,0.45 0,0.24 -0.18,0.49 -0.55,0.49 -0.39,0 -0.77,-0.28 -1.13,-0.61 -0.28,-0.28 -0.51,-0.5 -0.81,-0.63 z"
   inkscape:connector-curvature="0" />
<path
   id="path7839"
   style="fill:#000000;fill-opacity:1;stroke:#000000;stroke-width:0;stroke-opacity:1"
   d="m 172.55,704.47 v 0.06 l -0.01,0.05 v 0.06 0.06 l -0.01,0.05 -0.01,0.05 -0.01,0.05 -0.01,0.05 -0.01,0.05 -0.01,0.04 -0.02,0.05 -0.01,0.04 -0.02,0.04 -0.02,0.04 -0.02,0.03 -0.02,0.04 -0.02,0.03 -0.02,0.03 -0.02,0.03 -0.03,0.02 -0.03,0.03 -0.02,0.02 -0.03,0.02 -0.03,0.02 -0.03,0.01 -0.03,0.02 -0.03,0.01 -0.03,0.01 -0.04,0.01 h -0.03 -0.04 l -0.03,0.01 c -0.33,0 -0.52,-0.25 -0.52,-0.52 0,-0.26 0.19,-0.53 0.52,-0.53 0.12,0 0.25,0.05 0.36,0.12 0.03,0.03 0.03,0.03 0.04,0.03 0,0 0.02,0 0.02,-0.13 0,-0.74 -0.35,-1.35 -0.67,-1.68 -0.11,-0.11 -0.11,-0.12 -0.11,-0.15 0,-0.07 0.04,-0.11 0.09,-0.11 0.11,0 0.91,0.76 0.91,1.94 z"
   inkscape:connector-curvature="0" />
<path
   id="path7841"
   style="fill:#000000;fill-opacity:1;stroke:#000000;stroke-width:0;stroke-opacity:1"
   d="m 177.8,711.23 v 0 0 0.01 0 0 0.01 0 0 0.01 0 0.01 0 0.01 h -0.01 v 0.01 0 0.01 h -0.01 v 0 l -0.01,0.01 v 0 0 0.01 h -0.01 v 0 0 0 l -0.01,0.01 v 0 0 h -0.01 v 0 h -0.01 v 0 0 l -0.01,0.01 v 0 h -0.01 v 0 h -0.01 v 0 h -0.01 v 0 h -0.01 c -0.22,0 -0.95,-0.08 -1.2,-0.09 -0.08,-0.02 -0.19,-0.02 -0.19,-0.21 0,-0.11 0.08,-0.11 0.23,-0.11 0.47,0 0.5,-0.08 0.5,-0.17 l -0.03,-0.2 -1.44,-5.72 c -0.04,-0.14 -0.04,-0.16 -0.04,-0.22 0,-0.23 0.2,-0.28 0.28,-0.28 0.14,0 0.28,0.09 0.34,0.2 0.05,0.1 0.5,1.94 0.57,2.19 0.32,-0.03 1.14,-0.19 1.14,-0.84 0,-0.08 0,-0.11 -0.04,-0.22 -0.01,-0.11 -0.03,-0.24 -0.03,-0.35 0,-0.59 0.39,-0.98 0.91,-0.98 0.3,0 0.58,0.16 0.8,0.53 0.25,0.44 0.36,0.98 0.36,1 0,0.1 -0.1,0.1 -0.13,0.1 -0.09,0 -0.11,-0.04 -0.14,-0.18 -0.2,-0.73 -0.42,-1.23 -0.86,-1.23 -0.19,0 -0.33,0.11 -0.33,0.47 0,0.17 0.05,0.39 0.08,0.54 0.05,0.18 0.05,0.22 0.05,0.32 0,0.65 -0.63,0.93 -1.47,1.04 0.31,0.17 0.62,0.5 0.86,0.74 0.47,0.53 0.92,0.95 1.4,0.95 0.07,0 0.08,0 0.1,-0.02 0.12,-0.01 0.12,-0.01 0.22,-0.07 0.01,0 0.01,-0.02 0.03,-0.03 -0.47,-0.03 -0.56,-0.43 -0.56,-0.55 0,-0.16 0.11,-0.35 0.37,-0.35 0.27,0 0.55,0.22 0.55,0.62 0,0.29 -0.24,0.62 -0.67,0.62 -0.29,0 -0.74,-0.08 -1.46,-0.87 -0.34,-0.38 -0.72,-0.79 -1.11,-0.93 z"
   inkscape:connector-curvature="0" />
<path
   id="path7843"
   style="fill:#000000;fill-opacity:1;stroke:#000000;stroke-width:0;stroke-opacity:1"
   d="m 188.66,706.73 h 0.04 0.03 0.03 0.02 0.01 0.02 l 0.01,0.01 h 0.02 0.01 0.02 l 0.01,0.01 h 0.01 l 0.02,0.01 h 0.01 l 0.01,0.01 h 0.01 l 0.01,0.01 0.01,0.01 0.01,0.01 0.01,0.01 0.01,0.01 v 0 l 0.01,0.01 v 0 0.01 l 0.01,0.01 v 0 0.01 0.01 h 0.01 v 0.01 0.01 0.01 0.01 0.01 0 0.01 c 0,0.21 -0.18,0.21 -0.36,0.21 h -4.2 c 0.11,1.33 1.27,2.28 2.66,2.28 h 1.54 c 0.18,0 0.36,0 0.36,0.2 0,0.19 -0.18,0.19 -0.36,0.19 h -1.56 c -1.7,0 -3.05,-1.28 -3.05,-2.88 0,-1.59 1.35,-2.87 3.05,-2.87 h 1.56 c 0.18,0 0.36,0 0.36,0.19 0,0.2 -0.18,0.2 -0.36,0.2 h -1.54 c -1.39,0 -2.55,0.95 -2.66,2.28 z"
   inkscape:connector-curvature="0" />
<path
   id="path7845"
   style="fill:#000000;fill-opacity:1;stroke:#000000;stroke-width:0;stroke-opacity:1"
   d="m 195.48,711.23 v 0 0 0.01 0 0 0.01 0 0 0.01 0 l -0.01,0.01 v 0 0.01 0 0.01 h -0.01 v 0.01 0 h -0.01 v 0.01 0 h -0.01 v 0.01 0 0 h -0.01 v 0 0.01 h -0.01 v 0 0 h -0.01 v 0 h -0.01 v 0 0.01 h -0.01 v 0 h -0.01 v 0 h -0.01 v 0 h -0.01 -0.01 c -0.21,0 -0.95,-0.08 -1.2,-0.09 -0.08,-0.02 -0.19,-0.02 -0.19,-0.21 0,-0.11 0.08,-0.11 0.24,-0.11 0.47,0 0.5,-0.08 0.5,-0.17 l -0.03,-0.2 -1.44,-5.72 c -0.05,-0.14 -0.05,-0.16 -0.05,-0.22 0,-0.23 0.21,-0.28 0.28,-0.28 0.14,0 0.29,0.09 0.35,0.2 0.04,0.1 0.5,1.94 0.56,2.19 0.33,-0.03 1.14,-0.19 1.14,-0.84 0,-0.08 0,-0.11 -0.03,-0.22 -0.02,-0.11 -0.03,-0.24 -0.03,-0.35 0,-0.59 0.39,-0.98 0.9,-0.98 0.3,0 0.58,0.16 0.8,0.53 0.25,0.44 0.36,0.98 0.36,1 0,0.1 -0.09,0.1 -0.12,0.1 -0.1,0 -0.11,-0.04 -0.14,-0.18 -0.21,-0.73 -0.43,-1.23 -0.86,-1.23 -0.19,0 -0.33,0.11 -0.33,0.47 0,0.17 0.04,0.39 0.08,0.54 0.04,0.18 0.04,0.22 0.04,0.32 0,0.65 -0.62,0.93 -1.47,1.04 0.32,0.17 0.63,0.5 0.86,0.74 0.47,0.53 0.93,0.95 1.41,0.95 0.06,0 0.08,0 0.09,-0.02 0.13,-0.01 0.13,-0.01 0.22,-0.07 0.02,0 0.02,-0.02 0.03,-0.03 -0.47,-0.03 -0.56,-0.43 -0.56,-0.55 0,-0.16 0.11,-0.35 0.38,-0.35 0.26,0 0.54,0.22 0.54,0.62 0,0.29 -0.23,0.62 -0.67,0.62 -0.28,0 -0.73,-0.08 -1.45,-0.87 -0.35,-0.38 -0.72,-0.79 -1.11,-0.93 z"
   inkscape:connector-curvature="0" />
<path
   id="path7847"
   style="fill:#000000;fill-opacity:1;stroke:#000000;stroke-width:0;stroke-opacity:1"
   d="m 201.37,704.24 h -0.23 c -0.02,-0.16 -0.1,-0.58 -0.19,-0.64 -0.05,-0.05 -0.6,-0.05 -0.69,-0.05 h -1.3 c 0.74,0.66 0.99,0.86 1.41,1.19 0.52,0.41 1,0.84 1,1.51 0,0.85 -0.73,1.38 -1.64,1.38 -0.88,0 -1.47,-0.61 -1.47,-1.27 0,-0.36 0.31,-0.39 0.38,-0.39 0.17,0 0.37,0.13 0.37,0.38 0,0.12 -0.05,0.37 -0.42,0.37 0.22,0.5 0.7,0.66 1.03,0.66 0.7,0 1.08,-0.56 1.08,-1.13 0,-0.6 -0.44,-1.09 -0.67,-1.34 l -1.69,-1.67 c -0.08,-0.08 -0.08,-0.08 -0.08,-0.28 h 2.91 z"
   inkscape:connector-curvature="0" />
</g>    <g
       style="font-style:normal;font-variant:normal;font-weight:normal;font-stretch:normal;letter-spacing:normal;word-spacing:normal;text-anchor:start;fill:none;fill-opacity:1;fill-rule:evenodd;stroke:#000000;stroke-linecap:butt;stroke-linejoin:miter;stroke-miterlimit:10.43299961;stroke-dasharray:none;stroke-dashoffset:0;stroke-opacity:1"
       ns0:jacobian_sqrt="0.352778"
       inkscapeversion="0.92.5"
       ns0:alignment="middle center"
       ns0:scale="1.0"
       ns0:preamble="default_packages.tex"
       ns0:text="$\\Psi_k^{E^1_{1_s}}, k \\in k_1$\n\n\n\n\n\n\n\n\n\n\n"
       ns0:pdfconverter="pstoedit"
       ns0:texconverter="pdflatex"
       ns0:version="0.11.1"
       word-spacing="normal"
       letter-spacing="normal"
       font-size-adjust="none"
       font-stretch="normal"
       font-weight="normal"
       font-variant="normal"
       font-style="normal"
       stroke-miterlimit="10.433"
       xml:space="preserve"
       transform="matrix(0.352778,0,0,-0.352778,-34.53899,446.18269)"
       id="g7935">
<path
   id="path7913"
   style="fill:#000000;fill-opacity:1;stroke:#000000;stroke-width:0;stroke-opacity:1"
   d="m 152.95,710.45 v 0.03 0.03 0.03 0.03 0.03 0.02 0.03 l 0.01,0.02 0.01,0.02 v 0.02 l 0.01,0.02 0.02,0.02 0.01,0.02 0.01,0.02 0.02,0.02 0.02,0.01 0.03,0.01 0.01,0.01 0.01,0.01 h 0.02 l 0.01,0.01 0.02,0.01 h 0.02 l 0.02,0.01 h 0.01 l 0.02,0.01 h 0.02 l 0.03,0.01 h 0.02 0.02 l 0.03,0.01 h 0.02 0.03 l 0.03,0.01 h 0.03 0.03 0.03 l 0.03,0.01 h 0.03 0.04 0.03 0.04 0.04 0.04 0.04 0.04 0.05 0.33 v 0.3 c -0.36,-0.03 -1.28,-0.03 -1.69,-0.03 -0.41,0 -1.33,0 -1.69,0.03 v -0.3 h 0.33 c 0.95,0 0.95,-0.14 0.95,-0.48 v -4.41 c -1.31,0.35 -1.36,1.88 -1.36,2.52 0,1.2 -0.43,1.39 -0.87,1.39 h -0.38 c -0.14,0 -0.25,0 -0.25,-0.11 0,-0.05 0.03,-0.09 0.1,-0.11 0.33,-0.03 0.58,-0.17 0.58,-1.34 0,-0.24 0.03,-1.02 0.51,-1.69 0.39,-0.53 0.99,-0.81 1.67,-0.91 v -0.56 c 0,-0.33 0,-0.47 -0.95,-0.47 h -0.33 v -0.31 c 0.36,0.03 1.28,0.03 1.69,0.03 0.41,0 1.33,0 1.69,-0.03 v 0.31 h -0.33 c -0.95,0 -0.95,0.13 -0.95,0.47 v 0.56 c 0.71,0.1 1.32,0.39 1.71,0.91 0.52,0.7 0.54,1.48 0.54,1.92 0,0.16 0,1.05 0.53,1.11 0.06,0.02 0.14,0.02 0.14,0.11 0,0.11 -0.08,0.11 -0.25,0.11 h -0.38 c -0.37,0 -0.87,-0.06 -0.87,-1.5 -0.02,-1.1 -0.35,-2.16 -1.42,-2.41 z"
   inkscape:connector-curvature="0" />
<path
   id="path7915"
   style="fill:#000000;fill-opacity:1;stroke:#000000;stroke-width:0;stroke-opacity:1"
   d="m 162.02,712.5 h 0.01 v 0 0.01 0 0.01 h 0.01 v 0 0.01 0 0.01 0 0 l 0.01,0.01 v 0 0.01 0 0.01 h 0.01 v 0.01 0 0.01 0 0 l 0.01,0.01 v 0 0 0.01 0 0 0 0 0.01 0 0 0 0 0 0 0 c 0,0.05 -0.03,0.1 -0.12,0.1 -0.02,0 -0.05,0 -0.08,-0.02 0,-0.02 -0.02,-0.03 -0.1,-0.22 -0.47,-1 -0.82,-1.36 -1.97,-1.36 h -1.18 c -0.22,0 -0.24,0.02 -0.24,0.08 0,0 0,0.03 0.03,0.14 l 0.47,1.89 h 0.8 c 0.55,0 0.64,-0.09 0.64,-0.33 0,-0.08 -0.03,-0.2 -0.06,-0.31 -0.02,-0.06 -0.02,-0.08 -0.02,-0.09 0,-0.02 0.02,-0.1 0.13,-0.1 0.09,0 0.09,0.03 0.12,0.16 l 0.39,1.54 c 0.02,0.08 0.02,0.1 0.02,0.1 0,0.08 -0.05,0.11 -0.11,0.11 -0.09,0 -0.11,-0.05 -0.14,-0.19 -0.16,-0.55 -0.36,-0.64 -0.95,-0.64 h -0.75 l 0.42,1.67 c 0.06,0.22 0.06,0.24 0.36,0.24 h 1.15 c 0.91,0 1.14,-0.19 1.14,-0.82 0,-0.18 -0.01,-0.39 -0.01,-0.42 0,-0.06 0.01,-0.12 0.11,-0.12 0.11,0 0.11,0.06 0.12,0.19 l 0.13,1.21 c 0.03,0.21 -0.02,0.21 -0.21,0.21 h -3.86 c -0.14,0 -0.23,0 -0.23,-0.14 0,-0.11 0.08,-0.11 0.23,-0.11 0.13,0 0.15,0 0.27,-0.02 0.14,-0.02 0.16,-0.02 0.16,-0.09 0,-0.05 -0.02,-0.13 -0.02,-0.16 l -0.92,-3.67 c -0.08,-0.28 -0.08,-0.33 -0.63,-0.33 -0.14,0 -0.21,0 -0.21,-0.15 0,-0.1 0.07,-0.1 0.21,-0.1 h 3.97 c 0.17,0 0.17,0 0.24,0.13 z"
   inkscape:connector-curvature="0" />
<path
   id="path7917"
   style="fill:#000000;fill-opacity:1;stroke:#000000;stroke-width:0;stroke-opacity:1"
   d="m 164.69,716.99 v 0 0.01 0.01 0 0.01 0 0.01 0 0.01 0 0.01 0 0.01 0 0.01 0 0 l -0.01,0.01 v 0 0.01 0 0.01 h -0.01 v 0.01 h -0.01 v 0 l -0.01,0.01 v 0 h -0.01 v 0 h -0.01 l -0.01,0.01 v 0 h -0.01 v 0 h -0.01 v 0 h -0.01 v 0 h -0.01 v 0 h -0.01 v 0 h -0.01 -0.01 v 0 h -0.01 -0.01 v 0 h -0.01 c -0.36,-0.31 -0.92,-0.31 -1.02,-0.31 h -0.09 v -0.21 h 0.09 c 0.11,0 0.44,0.02 0.74,0.13 v -2.44 c 0,-0.15 0,-0.2 -0.53,-0.2 h -0.27 v -0.22 c 0.28,0.02 0.74,0.02 1.03,0.02 0.28,0 0.74,0 1.02,-0.02 v 0.22 h -0.25 c -0.55,0 -0.55,0.05 -0.55,0.2 z"
   inkscape:connector-curvature="0" />
<path
   id="path7919"
   style="fill:#000000;fill-opacity:1;stroke:#000000;stroke-width:0;stroke-opacity:1"
   d="m 164.31,711.99 v 0 0.01 0.01 0 0.01 0 0.01 0 0.01 0 0.01 0 0.01 0 l -0.01,0.01 v 0 0 0.01 0 0.01 0 l -0.01,0.01 v 0 0.01 h -0.01 v 0 l -0.01,0.01 v 0 h -0.01 -0.01 v 0 l -0.01,0.01 h -0.01 v 0 0 h -0.01 v 0 h -0.01 v 0 h -0.01 -0.01 v 0 h -0.01 v 0 h -0.01 -0.01 v 0 h -0.01 -0.01 v 0 c -0.36,-0.31 -0.93,-0.31 -1.02,-0.31 h -0.09 v -0.21 h 0.09 c 0.11,0 0.44,0.02 0.73,0.13 v -2.44 c 0,-0.15 0,-0.2 -0.53,-0.2 h -0.26 v -0.22 c 0.28,0.02 0.73,0.02 1.03,0.02 0.28,0 0.73,0 1.01,-0.02 v 0.22 h -0.25 c -0.54,0 -0.54,0.05 -0.54,0.2 z"
   inkscape:connector-curvature="0" />
<path
   id="path7921"
   style="fill:#000000;fill-opacity:1;stroke:#000000;stroke-width:0;stroke-opacity:1"
   d="m 168.26,709.73 -0.01,-0.01 h -0.01 v 0 h -0.01 l -0.01,-0.01 h -0.01 v 0 h -0.01 l -0.01,-0.01 v 0 h -0.01 l -0.01,-0.01 -0.01,-0.01 h -0.01 l -0.01,-0.01 -0.01,-0.01 -0.01,-0.01 v -0.01 h -0.01 l -0.01,-0.01 v -0.01 l -0.01,-0.01 v -0.01 l -0.01,-0.01 v -0.01 l -0.01,-0.01 v 0 -0.01 -0.01 l -0.01,-0.01 v -0.01 0 -0.01 -0.01 0 -0.01 0 -0.01 c 0,-0.12 0.11,-0.19 0.19,-0.19 0.06,0 0.26,0.05 0.26,0.32 0,0.33 -0.39,0.42 -0.78,0.42 -0.84,0 -1,-0.5 -1,-0.67 0,-0.17 0.09,-0.28 0.19,-0.35 0.14,-0.11 0.29,-0.12 0.56,-0.17 0.31,-0.05 0.67,-0.09 0.67,-0.34 0,-0.02 0,-0.52 -0.94,-0.52 -0.18,0 -0.5,0.02 -0.65,0.17 0.17,0.04 0.26,0.18 0.26,0.3 0,0.14 -0.11,0.2 -0.22,0.2 -0.17,0 -0.32,-0.14 -0.32,-0.36 0,-0.46 0.78,-0.46 0.93,-0.46 1.04,0 1.21,0.56 1.21,0.76 0,0.44 -0.55,0.53 -0.82,0.58 -0.35,0.05 -0.6,0.09 -0.6,0.28 0,0.02 0,0.42 0.73,0.42 0.12,0 0.39,-0.01 0.53,-0.15 z"
   inkscape:connector-curvature="0" />
<path
   id="path7923"
   style="fill:#000000;fill-opacity:1;stroke:#000000;stroke-width:0;stroke-opacity:1"
   d="m 158.66,706.12 v 0 0 0 0 0 0 l 0.01,0.01 v 0 0 0.01 0 0 0.01 0 0 l 0.01,0.01 v 0 0.01 0.01 0.01 h 0.01 v 0 0.01 0 0.01 0 0 0.01 0 0 0 0 0 0.01 0 h 0.01 c 0,0.03 -0.04,0.09 -0.13,0.09 -0.14,0 -0.72,-0.05 -0.89,-0.06 -0.06,-0.02 -0.16,-0.02 -0.16,-0.17 0,-0.1 0.1,-0.1 0.19,-0.1 0.33,0 0.33,-0.04 0.33,-0.11 0,-0.04 -0.02,-0.08 -0.03,-0.15 l -0.99,-3.97 c -0.03,-0.13 -0.03,-0.14 -0.03,-0.16 0,-0.11 0.08,-0.22 0.24,-0.22 0.18,0 0.28,0.13 0.32,0.28 0.02,0.04 0.32,1.27 0.35,1.38 0.5,-0.05 0.89,-0.22 0.89,-0.58 0,-0.03 0,-0.08 -0.02,-0.14 -0.01,-0.11 -0.01,-0.14 -0.01,-0.22 0,-0.5 0.4,-0.72 0.73,-0.72 0.69,0 0.91,1.07 0.91,1.07 0,0.09 -0.1,0.09 -0.13,0.09 -0.09,0 -0.09,-0.03 -0.14,-0.17 -0.08,-0.3 -0.26,-0.8 -0.61,-0.8 -0.18,0 -0.25,0.17 -0.25,0.36 0,0.12 0,0.14 0.05,0.33 0,0.01 0.03,0.14 0.03,0.22 0,0.62 -0.84,0.72 -1.14,0.73 0.2,0.13 0.47,0.36 0.58,0.47 0.36,0.34 0.72,0.67 1.11,0.67 0.08,0 0.17,-0.03 0.23,-0.09 -0.29,-0.05 -0.37,-0.28 -0.37,-0.39 0,-0.16 0.12,-0.27 0.28,-0.27 0.2,0 0.41,0.16 0.41,0.45 0,0.24 -0.18,0.49 -0.55,0.49 -0.39,0 -0.77,-0.28 -1.13,-0.61 -0.28,-0.28 -0.51,-0.5 -0.81,-0.63 z"
   inkscape:connector-curvature="0" />
<path
   id="path7925"
   style="fill:#000000;fill-opacity:1;stroke:#000000;stroke-width:0;stroke-opacity:1"
   d="m 172.55,704.47 v 0.06 l -0.01,0.05 v 0.06 0.06 l -0.01,0.05 -0.01,0.05 -0.01,0.05 -0.01,0.05 -0.01,0.05 -0.01,0.04 -0.02,0.05 -0.01,0.04 -0.02,0.04 -0.02,0.04 -0.02,0.03 -0.02,0.04 -0.02,0.03 -0.02,0.03 -0.02,0.03 -0.03,0.02 -0.03,0.03 -0.02,0.02 -0.03,0.02 -0.03,0.02 -0.03,0.01 -0.03,0.02 -0.03,0.01 -0.03,0.01 -0.04,0.01 h -0.03 -0.04 l -0.03,0.01 c -0.33,0 -0.52,-0.25 -0.52,-0.52 0,-0.26 0.19,-0.53 0.52,-0.53 0.12,0 0.25,0.05 0.36,0.12 0.03,0.03 0.03,0.03 0.04,0.03 0,0 0.02,0 0.02,-0.13 0,-0.74 -0.35,-1.35 -0.67,-1.68 -0.11,-0.11 -0.11,-0.12 -0.11,-0.15 0,-0.07 0.04,-0.11 0.09,-0.11 0.11,0 0.91,0.76 0.91,1.94 z"
   inkscape:connector-curvature="0" />
<path
   id="path7927"
   style="fill:#000000;fill-opacity:1;stroke:#000000;stroke-width:0;stroke-opacity:1"
   d="m 177.8,711.23 v 0 0 0.01 0 0 0.01 0 0 0.01 0 0.01 0 0.01 h -0.01 v 0.01 0 0.01 h -0.01 v 0 l -0.01,0.01 v 0 0 0.01 h -0.01 v 0 0 0 l -0.01,0.01 v 0 0 h -0.01 v 0 h -0.01 v 0 0 l -0.01,0.01 v 0 h -0.01 v 0 h -0.01 v 0 h -0.01 v 0 h -0.01 c -0.22,0 -0.95,-0.08 -1.2,-0.09 -0.08,-0.02 -0.19,-0.02 -0.19,-0.21 0,-0.11 0.08,-0.11 0.23,-0.11 0.47,0 0.5,-0.08 0.5,-0.17 l -0.03,-0.2 -1.44,-5.72 c -0.04,-0.14 -0.04,-0.16 -0.04,-0.22 0,-0.23 0.2,-0.28 0.28,-0.28 0.14,0 0.28,0.09 0.34,0.2 0.05,0.1 0.5,1.94 0.57,2.19 0.32,-0.03 1.14,-0.19 1.14,-0.84 0,-0.08 0,-0.11 -0.04,-0.22 -0.01,-0.11 -0.03,-0.24 -0.03,-0.35 0,-0.59 0.39,-0.98 0.91,-0.98 0.3,0 0.58,0.16 0.8,0.53 0.25,0.44 0.36,0.98 0.36,1 0,0.1 -0.1,0.1 -0.13,0.1 -0.09,0 -0.11,-0.04 -0.14,-0.18 -0.2,-0.73 -0.42,-1.23 -0.86,-1.23 -0.19,0 -0.33,0.11 -0.33,0.47 0,0.17 0.05,0.39 0.08,0.54 0.05,0.18 0.05,0.22 0.05,0.32 0,0.65 -0.63,0.93 -1.47,1.04 0.31,0.17 0.62,0.5 0.86,0.74 0.47,0.53 0.92,0.95 1.4,0.95 0.07,0 0.08,0 0.1,-0.02 0.12,-0.01 0.12,-0.01 0.22,-0.07 0.01,0 0.01,-0.02 0.03,-0.03 -0.47,-0.03 -0.56,-0.43 -0.56,-0.55 0,-0.16 0.11,-0.35 0.37,-0.35 0.27,0 0.55,0.22 0.55,0.62 0,0.29 -0.24,0.62 -0.67,0.62 -0.29,0 -0.74,-0.08 -1.46,-0.87 -0.34,-0.38 -0.72,-0.79 -1.11,-0.93 z"
   inkscape:connector-curvature="0" />
<path
   id="path7929"
   style="fill:#000000;fill-opacity:1;stroke:#000000;stroke-width:0;stroke-opacity:1"
   d="m 188.66,706.73 h 0.04 0.03 0.03 0.02 0.01 0.02 l 0.01,0.01 h 0.02 0.01 0.02 l 0.01,0.01 h 0.01 l 0.02,0.01 h 0.01 l 0.01,0.01 h 0.01 l 0.01,0.01 0.01,0.01 0.01,0.01 0.01,0.01 0.01,0.01 v 0 l 0.01,0.01 v 0 0.01 l 0.01,0.01 v 0 0.01 0.01 h 0.01 v 0.01 0.01 0.01 0.01 0.01 0 0.01 c 0,0.21 -0.18,0.21 -0.36,0.21 h -4.2 c 0.11,1.33 1.27,2.28 2.66,2.28 h 1.54 c 0.18,0 0.36,0 0.36,0.2 0,0.19 -0.18,0.19 -0.36,0.19 h -1.56 c -1.7,0 -3.05,-1.28 -3.05,-2.88 0,-1.59 1.35,-2.87 3.05,-2.87 h 1.56 c 0.18,0 0.36,0 0.36,0.19 0,0.2 -0.18,0.2 -0.36,0.2 h -1.54 c -1.39,0 -2.55,0.95 -2.66,2.28 z"
   inkscape:connector-curvature="0" />
<path
   id="path7931"
   style="fill:#000000;fill-opacity:1;stroke:#000000;stroke-width:0;stroke-opacity:1"
   d="m 195.48,711.23 v 0 0 0.01 0 0 0.01 0 0 0.01 0 l -0.01,0.01 v 0 0.01 0 0.01 h -0.01 v 0.01 0 h -0.01 v 0.01 0 h -0.01 v 0.01 0 0 h -0.01 v 0 0.01 h -0.01 v 0 0 h -0.01 v 0 h -0.01 v 0 0.01 h -0.01 v 0 h -0.01 v 0 h -0.01 v 0 h -0.01 -0.01 c -0.21,0 -0.95,-0.08 -1.2,-0.09 -0.08,-0.02 -0.19,-0.02 -0.19,-0.21 0,-0.11 0.08,-0.11 0.24,-0.11 0.47,0 0.5,-0.08 0.5,-0.17 l -0.03,-0.2 -1.44,-5.72 c -0.05,-0.14 -0.05,-0.16 -0.05,-0.22 0,-0.23 0.21,-0.28 0.28,-0.28 0.14,0 0.29,0.09 0.35,0.2 0.04,0.1 0.5,1.94 0.56,2.19 0.33,-0.03 1.14,-0.19 1.14,-0.84 0,-0.08 0,-0.11 -0.03,-0.22 -0.02,-0.11 -0.03,-0.24 -0.03,-0.35 0,-0.59 0.39,-0.98 0.9,-0.98 0.3,0 0.58,0.16 0.8,0.53 0.25,0.44 0.36,0.98 0.36,1 0,0.1 -0.09,0.1 -0.12,0.1 -0.1,0 -0.11,-0.04 -0.14,-0.18 -0.21,-0.73 -0.43,-1.23 -0.86,-1.23 -0.19,0 -0.33,0.11 -0.33,0.47 0,0.17 0.04,0.39 0.08,0.54 0.04,0.18 0.04,0.22 0.04,0.32 0,0.65 -0.62,0.93 -1.47,1.04 0.32,0.17 0.63,0.5 0.86,0.74 0.47,0.53 0.93,0.95 1.41,0.95 0.06,0 0.08,0 0.09,-0.02 0.13,-0.01 0.13,-0.01 0.22,-0.07 0.02,0 0.02,-0.02 0.03,-0.03 -0.47,-0.03 -0.56,-0.43 -0.56,-0.55 0,-0.16 0.11,-0.35 0.38,-0.35 0.26,0 0.54,0.22 0.54,0.62 0,0.29 -0.23,0.62 -0.67,0.62 -0.28,0 -0.73,-0.08 -1.45,-0.87 -0.35,-0.38 -0.72,-0.79 -1.11,-0.93 z"
   inkscape:connector-curvature="0" />
<path
   id="path7933"
   style="fill:#000000;fill-opacity:1;stroke:#000000;stroke-width:0;stroke-opacity:1"
   d="m 200.18,707.43 v 0 0.01 0.01 0.01 0.01 0 0.01 0.01 0.01 0 0.01 0.02 0.01 0.01 l -0.01,0.01 v 0 0.01 l -0.01,0.01 v 0.01 0 l -0.01,0.01 h -0.01 v 0.01 h -0.01 -0.01 l -0.01,0.01 v 0 h -0.01 -0.01 -0.01 v 0 l -0.01,0.01 v 0 h -0.01 -0.01 v 0 h -0.01 -0.01 v 0 h -0.01 -0.01 -0.01 -0.01 -0.01 -0.01 -0.01 c -0.45,-0.45 -1.09,-0.45 -1.37,-0.45 v -0.25 c 0.17,0 0.64,0 1.01,0.18 v -3.58 c 0,-0.23 0,-0.32 -0.7,-0.32 h -0.26 v -0.25 c 0.12,0 1,0.03 1.25,0.03 0.21,0 1.11,-0.03 1.26,-0.03 v 0.25 h -0.26 c -0.71,0 -0.71,0.09 -0.71,0.32 z"
   inkscape:connector-curvature="0" />
</g>    <g
       style="font-style:normal;font-variant:normal;font-weight:normal;font-stretch:normal;letter-spacing:normal;word-spacing:normal;text-anchor:start;fill:none;fill-opacity:1;fill-rule:evenodd;stroke:#000000;stroke-linecap:butt;stroke-linejoin:miter;stroke-miterlimit:10.43299961;stroke-dasharray:none;stroke-dashoffset:0;stroke-opacity:1"
       ns0:jacobian_sqrt="0.352778"
       inkscapeversion="0.92.5"
       ns0:alignment="middle center"
       ns0:scale="1.0"
       ns0:preamble="default_packages.tex"
       ns0:text="$U\\backslash W$\n\n\n\n\n\n\n\n\n\n\n"
       ns0:pdfconverter="pstoedit"
       ns0:texconverter="pdflatex"
       ns0:version="0.11.1"
       word-spacing="normal"
       letter-spacing="normal"
       font-size-adjust="none"
       font-stretch="normal"
       font-weight="normal"
       font-variant="normal"
       font-style="normal"
       stroke-miterlimit="10.433"
       xml:space="preserve"
       transform="matrix(0.352778,0,0,-0.352778,-4.3743524,431.65006)"
       id="g8018">
<path
   id="path8012"
   style="fill:#000000;fill-opacity:1;stroke:#000000;stroke-width:0;stroke-opacity:1"
   d="m 155.02,712.86 0.01,0.04 0.01,0.04 0.01,0.03 0.01,0.04 0.02,0.04 0.01,0.03 0.01,0.04 0.02,0.03 0.02,0.03 0.01,0.03 0.02,0.03 0.02,0.03 0.03,0.03 0.02,0.03 0.03,0.03 0.03,0.02 0.03,0.02 0.03,0.03 0.03,0.02 0.04,0.02 0.04,0.02 0.04,0.02 0.05,0.01 0.04,0.02 0.05,0.01 0.06,0.01 0.05,0.02 0.06,0.01 h 0.06 l 0.07,0.01 0.06,0.01 h 0.08 c 0.06,0 0.17,0 0.17,0.19 0,0.01 0,0.11 -0.13,0.11 -0.33,0 -0.67,-0.03 -1.01,-0.03 -0.35,0 -0.71,0.03 -1.03,0.03 -0.07,0 -0.18,0 -0.18,-0.19 0,-0.11 0.1,-0.11 0.18,-0.11 0.56,-0.02 0.67,-0.22 0.67,-0.44 0,-0.03 -0.02,-0.19 -0.03,-0.22 l -0.89,-3.54 c -0.35,-1.33 -1.49,-2.19 -2.47,-2.19 -0.67,0 -1.22,0.44 -1.22,1.28 0,0.03 0,0.34 0.11,0.78 l 0.97,3.86 c 0.09,0.36 0.11,0.47 0.82,0.47 0.27,0 0.35,0 0.35,0.19 0,0.11 -0.11,0.11 -0.14,0.11 -0.28,0 -1,-0.03 -1.27,-0.03 -0.29,0 -1,0.03 -1.28,0.03 -0.09,0 -0.2,0 -0.2,-0.19 0,-0.11 0.09,-0.11 0.28,-0.11 0.03,0 0.22,0 0.37,-0.03 0.19,-0.02 0.29,-0.03 0.29,-0.16 0,-0.06 -0.11,-0.47 -0.18,-0.7 l -0.22,-0.88 c -0.09,-0.39 -0.56,-2.26 -0.6,-2.45 -0.07,-0.28 -0.07,-0.42 -0.07,-0.58 0,-1.2 0.89,-1.9 1.94,-1.9 1.25,0 2.48,1.12 2.81,2.43 z"
   inkscape:connector-curvature="0" />
<path
   id="path8014"
   style="fill:#000000;fill-opacity:1;stroke:#000000;stroke-width:0;stroke-opacity:1"
   d="m 160.59,704.88 v -0.02 -0.01 l 0.01,-0.01 v -0.02 l 0.01,-0.01 v -0.01 l 0.01,-0.01 v -0.01 l 0.01,-0.01 v -0.01 l 0.01,-0.01 v -0.01 l 0.01,-0.01 0.01,-0.01 v -0.01 h 0.01 v -0.01 l 0.01,-0.01 0.01,-0.01 h 0.01 v -0.01 h 0.01 l 0.01,-0.01 h 0.01 l 0.01,-0.01 h 0.01 0.01 0.01 l 0.01,-0.01 h 0.01 0.02 0.01 c 0.11,0 0.19,0.09 0.19,0.2 0,0.02 0,0.04 -0.05,0.16 l -3.39,9.34 c -0.06,0.16 -0.09,0.24 -0.22,0.24 -0.11,0 -0.2,-0.1 -0.2,-0.2 0,-0.02 0,-0.04 0.05,-0.16 z"
   inkscape:connector-curvature="0" />
<path
   id="path8016"
   style="fill:#000000;fill-opacity:1;stroke:#000000;stroke-width:0;stroke-opacity:1"
   d="m 170.69,712.75 0.05,0.08 0.04,0.08 0.05,0.08 0.05,0.07 0.03,0.04 0.02,0.03 0.03,0.03 0.03,0.04 0.03,0.03 0.02,0.03 0.03,0.03 0.04,0.03 0.03,0.03 0.03,0.03 0.04,0.02 0.03,0.03 0.04,0.02 0.04,0.02 0.04,0.02 0.04,0.02 0.04,0.02 0.05,0.01 0.05,0.02 0.04,0.01 0.06,0.01 0.05,0.01 0.05,0.01 0.06,0.01 c 0.1,0 0.19,0 0.19,0.19 0,0.04 -0.03,0.11 -0.11,0.11 -0.25,0 -0.52,-0.03 -0.77,-0.03 -0.34,0 -0.7,0.03 -1.03,0.03 -0.06,0 -0.2,0 -0.2,-0.19 0,-0.11 0.09,-0.11 0.16,-0.11 0.23,-0.02 0.59,-0.09 0.59,-0.39 0,-0.11 -0.06,-0.19 -0.14,-0.33 l -2.67,-4.69 -0.38,4.94 c -0.01,0.19 -0.03,0.45 0.71,0.47 0.15,0 0.26,0 0.26,0.19 0,0.11 -0.11,0.11 -0.16,0.11 -0.39,0 -0.81,-0.03 -1.2,-0.03 -0.23,0 -0.81,0.03 -1.05,0.03 -0.06,0 -0.18,0 -0.18,-0.19 0,-0.11 0.09,-0.11 0.23,-0.11 0.44,0 0.52,-0.06 0.53,-0.25 l 0.07,-0.77 -2.52,-4.39 -0.38,5.05 c 0,0.11 0,0.34 0.75,0.36 0.1,0 0.21,0 0.21,0.19 0,0.11 -0.11,0.11 -0.14,0.11 -0.39,0 -0.82,-0.03 -1.22,-0.03 -0.35,0 -0.7,0.03 -1.05,0.03 -0.05,0 -0.17,0 -0.17,-0.19 0,-0.11 0.09,-0.11 0.25,-0.11 0.5,0 0.5,-0.09 0.53,-0.38 l 0.44,-6.06 c 0.01,-0.19 0.01,-0.26 0.15,-0.26 0.13,0 0.16,0.06 0.25,0.2 l 2.93,5.08 0.36,-5.02 c 0.01,-0.22 0.04,-0.26 0.15,-0.26 0.13,0 0.19,0.09 0.24,0.18 z"
   inkscape:connector-curvature="0" />
</g>    <g
       style="font-style:normal;font-variant:normal;font-weight:normal;font-stretch:normal;letter-spacing:normal;word-spacing:normal;text-anchor:start;fill:none;fill-opacity:1;fill-rule:evenodd;stroke:#000000;stroke-linecap:butt;stroke-linejoin:miter;stroke-miterlimit:10.43299961;stroke-dasharray:none;stroke-dashoffset:0;stroke-opacity:1"
       ns0:jacobian_sqrt="0.352778"
       inkscapeversion="0.92.5"
       ns0:alignment="middle center"
       ns0:scale="1.0"
       ns0:preamble="default_packages.tex"
       ns0:text="$V\\backslash W$\n\n\n\n\n\n\n\n\n\n\n\n"
       ns0:pdfconverter="pstoedit"
       ns0:texconverter="pdflatex"
       ns0:version="0.11.1"
       word-spacing="normal"
       letter-spacing="normal"
       font-size-adjust="none"
       font-stretch="normal"
       font-weight="normal"
       font-variant="normal"
       font-style="normal"
       stroke-miterlimit="10.433"
       xml:space="preserve"
       transform="matrix(0.352778,0,0,-0.352778,23.5128,447.52942)"
       id="g8081">
<path
   id="path8075"
   style="fill:#000000;fill-opacity:1;stroke:#000000;stroke-width:0;stroke-opacity:1"
   d="m 154.95,712.78 0.04,0.07 0.05,0.07 0.04,0.06 0.04,0.06 0.05,0.05 0.04,0.05 0.04,0.05 0.05,0.04 0.04,0.04 0.04,0.04 0.04,0.03 0.04,0.03 0.05,0.03 0.04,0.03 0.04,0.02 0.04,0.02 0.04,0.02 0.04,0.02 0.04,0.01 0.03,0.02 0.04,0.01 0.04,0.01 0.04,0.01 h 0.04 l 0.07,0.02 0.07,0.01 h 0.08 l 0.07,0.01 c 0.11,0 0.12,0.17 0.12,0.19 0,0.08 -0.05,0.11 -0.12,0.11 -0.27,0 -0.55,-0.03 -0.82,-0.03 -0.32,0 -0.67,0.03 -0.98,0.03 -0.06,0 -0.2,0 -0.2,-0.19 0,-0.11 0.09,-0.11 0.17,-0.11 0.26,-0.03 0.45,-0.13 0.45,-0.33 0,-0.16 -0.15,-0.37 -0.15,-0.39 l -3.05,-4.84 -0.67,5.25 c 0,0.17 0.23,0.31 0.68,0.31 0.14,0 0.25,0 0.25,0.19 0,0.09 -0.07,0.11 -0.14,0.11 -0.4,0 -0.82,-0.03 -1.23,-0.03 -0.17,0 -0.38,0.01 -0.55,0.01 -0.17,0 -0.37,0.02 -0.53,0.02 -0.08,0 -0.19,0 -0.19,-0.19 0,-0.11 0.08,-0.11 0.24,-0.11 0.56,0 0.58,-0.09 0.61,-0.34 l 0.78,-6.13 c 0.03,-0.2 0.06,-0.23 0.2,-0.23 0.16,0 0.19,0.04 0.27,0.17 z"
   inkscape:connector-curvature="0" />
<path
   id="path8077"
   style="fill:#000000;fill-opacity:1;stroke:#000000;stroke-width:0;stroke-opacity:1"
   d="m 160.72,704.88 0.01,-0.02 v -0.01 l 0.01,-0.01 v -0.02 l 0.01,-0.01 v -0.01 -0.01 l 0.01,-0.01 v -0.01 l 0.01,-0.01 0.01,-0.01 v -0.01 l 0.01,-0.01 v -0.01 l 0.01,-0.01 v 0 l 0.01,-0.01 0.01,-0.01 0.01,-0.01 v 0 l 0.01,-0.01 h 0.01 l 0.01,-0.01 h 0.01 l 0.01,-0.01 h 0.01 0.01 0.01 l 0.01,-0.01 h 0.01 0.01 0.02 c 0.11,0 0.19,0.09 0.19,0.2 0,0.02 0,0.04 -0.05,0.16 l -3.39,9.34 c -0.06,0.16 -0.1,0.24 -0.22,0.24 -0.11,0 -0.2,-0.1 -0.2,-0.2 0,-0.02 0,-0.04 0.04,-0.16 z"
   inkscape:connector-curvature="0" />
<path
   id="path8079"
   style="fill:#000000;fill-opacity:1;stroke:#000000;stroke-width:0;stroke-opacity:1"
   d="m 170.83,712.75 0.04,0.08 0.05,0.08 0.05,0.08 0.05,0.07 0.02,0.04 0.03,0.03 0.03,0.03 0.02,0.04 0.03,0.03 0.03,0.03 0.03,0.03 0.03,0.03 0.03,0.03 0.04,0.03 0.03,0.02 0.04,0.03 0.04,0.02 0.03,0.02 0.04,0.02 0.05,0.02 0.04,0.02 0.04,0.01 0.05,0.02 0.05,0.01 0.05,0.01 0.06,0.01 0.05,0.01 0.06,0.01 c 0.09,0 0.18,0 0.18,0.19 0,0.04 -0.03,0.11 -0.1,0.11 -0.25,0 -0.52,-0.03 -0.77,-0.03 -0.34,0 -0.7,0.03 -1.03,0.03 -0.06,0 -0.2,0 -0.2,-0.19 0,-0.11 0.09,-0.11 0.15,-0.11 0.24,-0.02 0.6,-0.09 0.6,-0.39 0,-0.11 -0.07,-0.19 -0.15,-0.33 l -2.67,-4.69 -0.37,4.94 c -0.02,0.19 -0.03,0.45 0.7,0.47 0.16,0 0.27,0 0.27,0.19 0,0.11 -0.11,0.11 -0.16,0.11 -0.39,0 -0.81,-0.03 -1.2,-0.03 -0.24,0 -0.81,0.03 -1.05,0.03 -0.06,0 -0.19,0 -0.19,-0.19 0,-0.11 0.1,-0.11 0.24,-0.11 0.43,0 0.51,-0.06 0.53,-0.25 l 0.06,-0.77 -2.51,-4.39 -0.38,5.05 c 0,0.11 0,0.34 0.75,0.36 0.09,0 0.2,0 0.2,0.19 0,0.11 -0.11,0.11 -0.14,0.11 -0.39,0 -0.81,-0.03 -1.22,-0.03 -0.34,0 -0.7,0.03 -1.04,0.03 -0.05,0 -0.17,0 -0.17,-0.19 0,-0.11 0.09,-0.11 0.25,-0.11 0.5,0 0.5,-0.09 0.53,-0.38 l 0.43,-6.06 c 0.02,-0.19 0.02,-0.26 0.16,-0.26 0.13,0 0.16,0.06 0.25,0.2 l 2.92,5.08 0.36,-5.02 c 0.02,-0.22 0.05,-0.26 0.16,-0.26 0.12,0 0.19,0.09 0.23,0.18 z"
   inkscape:connector-curvature="0" />
</g>    <g
       style="font-style:normal;font-variant:normal;font-weight:normal;font-stretch:normal;letter-spacing:normal;word-spacing:normal;text-anchor:start;fill:none;fill-opacity:1;fill-rule:evenodd;stroke:#000000;stroke-linecap:butt;stroke-linejoin:miter;stroke-miterlimit:10.43299961;stroke-dasharray:none;stroke-dashoffset:0;stroke-opacity:1"
       ns0:jacobian_sqrt="0.352778"
       inkscapeversion="0.92.5"
       ns0:alignment="middle center"
       ns0:scale="1.0"
       ns0:preamble="default_packages.tex"
       ns0:text="$Z$\n\n\n\n\n\n\n\n\n\n\n\n"
       ns0:pdfconverter="pstoedit"
       ns0:texconverter="pdflatex"
       ns0:version="0.11.1"
       word-spacing="normal"
       letter-spacing="normal"
       font-size-adjust="none"
       font-stretch="normal"
       font-weight="normal"
       font-variant="normal"
       font-style="normal"
       stroke-miterlimit="10.433"
       xml:space="preserve"
       transform="matrix(0.352778,0,0,-0.352778,24.945231,431.96933)"
       id="g8144">
<path
   id="path8142"
   style="fill:#000000;fill-opacity:1;stroke:#000000;stroke-width:0;stroke-opacity:1"
   d="m 155.87,713.67 v 0.01 0 0.01 0 0 0.01 0.01 0.01 l 0.01,0.01 v 0 0.01 l 0.01,0.01 v 0.01 0.01 0.01 0.01 h 0.01 v 0.01 0.01 0 0.01 0 0.01 c 0,0.08 -0.06,0.08 -0.25,0.08 h -4.2 c -0.24,0 -0.24,0 -0.3,-0.19 l -0.55,-1.8 c -0.01,-0.04 -0.03,-0.12 -0.03,-0.14 0,0 0,-0.11 0.13,-0.11 0.07,0 0.1,0.08 0.12,0.11 0.38,1.17 0.89,1.83 2.44,1.83 h 1.62 l -5.56,-6.22 c 0,0 -0.03,-0.14 -0.03,-0.17 0,-0.1 0.06,-0.1 0.25,-0.1 h 4.31 c 0.25,0 0.25,0.02 0.31,0.21 l 0.71,2.19 c 0.01,0.04 0.04,0.1 0.04,0.15 0,0.05 -0.04,0.11 -0.14,0.11 -0.07,0 -0.09,-0.05 -0.15,-0.25 -0.44,-1.36 -0.92,-2.06 -2.61,-2.06 h -1.71 z"
   inkscape:connector-curvature="0" />
</g>    <g
       style="font-style:normal;font-variant:normal;font-weight:normal;font-stretch:normal;letter-spacing:normal;word-spacing:normal;text-anchor:start;fill:none;fill-opacity:1;fill-rule:evenodd;stroke:#000000;stroke-linecap:butt;stroke-linejoin:miter;stroke-miterlimit:10.43299961;stroke-dasharray:none;stroke-dashoffset:0;stroke-opacity:1"
       ns0:jacobian_sqrt="0.352778"
       inkscapeversion="0.92.5"
       ns0:alignment="middle center"
       ns0:scale="1.00000002835"
       ns0:preamble="default_packages.tex"
       ns0:text="$W$\n\n\n\n\n\n\n\n\n\n\n\n\n"
       ns0:pdfconverter="pstoedit"
       ns0:texconverter="pdflatex"
       ns0:version="0.11.1"
       word-spacing="normal"
       letter-spacing="normal"
       font-size-adjust="none"
       font-stretch="normal"
       font-weight="normal"
       font-variant="normal"
       font-style="normal"
       stroke-miterlimit="10.433"
       xml:space="preserve"
       transform="matrix(0.352778,0,0,-0.352778,-1.4636219,447.25129)"
       id="g8217">
<path
   id="path8215"
   style="fill:#000000;fill-opacity:1;stroke:#000000;stroke-width:0;stroke-opacity:1"
   d="m 157.82,712.75 0.05,0.08 0.04,0.08 0.05,0.08 0.05,0.07 0.03,0.04 0.02,0.03 0.03,0.03 0.03,0.04 0.02,0.03 0.03,0.03 0.03,0.03 0.03,0.03 0.04,0.03 0.03,0.03 0.03,0.02 0.04,0.03 0.04,0.02 0.04,0.02 0.04,0.02 0.04,0.02 0.04,0.02 0.05,0.01 0.04,0.02 0.05,0.01 0.05,0.01 0.06,0.01 0.05,0.01 0.06,0.01 c 0.09,0 0.19,0 0.19,0.19 0,0.04 -0.03,0.11 -0.11,0.11 -0.25,0 -0.52,-0.03 -0.77,-0.03 -0.34,0 -0.7,0.03 -1.03,0.03 -0.06,0 -0.2,0 -0.2,-0.19 0,-0.11 0.09,-0.11 0.15,-0.11 0.24,-0.02 0.6,-0.09 0.6,-0.39 0,-0.11 -0.06,-0.19 -0.14,-0.33 l -2.67,-4.69 -0.38,4.94 c -0.02,0.19 -0.03,0.45 0.7,0.47 0.16,0 0.27,0 0.27,0.19 0,0.11 -0.11,0.11 -0.16,0.11 -0.39,0 -0.81,-0.03 -1.2,-0.03 -0.23,0 -0.81,0.03 -1.05,0.03 -0.06,0 -0.18,0 -0.18,-0.19 0,-0.11 0.09,-0.11 0.23,-0.11 0.44,0 0.52,-0.06 0.53,-0.25 l 0.06,-0.77 -2.51,-4.39 -0.38,5.05 c 0,0.11 0,0.34 0.75,0.36 0.1,0 0.21,0 0.21,0.19 0,0.11 -0.11,0.11 -0.14,0.11 -0.4,0 -0.82,-0.03 -1.22,-0.03 -0.35,0 -0.71,0.03 -1.05,0.03 -0.05,0 -0.17,0 -0.17,-0.19 0,-0.11 0.09,-0.11 0.25,-0.11 0.5,0 0.5,-0.09 0.53,-0.38 l 0.44,-6.06 c 0.01,-0.19 0.01,-0.26 0.15,-0.26 0.13,0 0.16,0.06 0.25,0.2 l 2.92,5.08 0.36,-5.02 c 0.02,-0.22 0.05,-0.26 0.16,-0.26 0.13,0 0.19,0.09 0.23,0.18 z"
   inkscape:connector-curvature="0" />
</g>    <g
       style="font-style:normal;font-variant:normal;font-weight:normal;font-stretch:normal;letter-spacing:normal;word-spacing:normal;text-anchor:start;fill:none;fill-opacity:1;fill-rule:evenodd;stroke:#000000;stroke-linecap:butt;stroke-linejoin:miter;stroke-miterlimit:10.43299961;stroke-dasharray:none;stroke-dashoffset:0;stroke-opacity:1"
       ns0:jacobian_sqrt="0.352778"
       inkscapeversion="0.92.5"
       ns0:alignment="middle center"
       ns0:scale="1.00000002835"
       ns0:preamble="default_packages.tex"
       ns0:text="$\\Psi_j^{E_{1_s}}, j \\in J_1$\n\n\n\n\n\n\n\n\n\n\n\n\n"
       ns0:pdfconverter="pstoedit"
       ns0:texconverter="pdflatex"
       ns0:version="0.11.1"
       word-spacing="normal"
       letter-spacing="normal"
       font-size-adjust="none"
       font-stretch="normal"
       font-weight="normal"
       font-variant="normal"
       font-style="normal"
       stroke-miterlimit="10.433"
       xml:space="preserve"
       transform="matrix(0.352778,0,0,-0.352778,-8.7925853,463.35261)"
       id="g8304">
<path
   id="path8280"
   style="fill:#000000;fill-opacity:1;stroke:#000000;stroke-width:0;stroke-opacity:1"
   d="m 152.95,712.9 v 0.03 0.03 0.03 0.03 0.02 0.03 0.03 l 0.01,0.02 0.01,0.02 v 0.02 l 0.01,0.02 0.02,0.02 0.01,0.02 0.01,0.02 0.02,0.01 0.02,0.02 0.03,0.01 0.01,0.01 0.01,0.01 h 0.02 l 0.01,0.01 h 0.02 l 0.02,0.01 0.02,0.01 h 0.01 l 0.02,0.01 h 0.02 0.03 l 0.02,0.01 h 0.02 l 0.03,0.01 h 0.02 0.03 l 0.03,0.01 h 0.03 0.03 0.03 0.03 l 0.03,0.01 h 0.04 0.03 0.04 0.04 0.04 0.04 0.04 0.05 0.33 v 0.3 c -0.36,-0.03 -1.28,-0.03 -1.69,-0.03 -0.41,0 -1.33,0 -1.69,0.03 v -0.3 h 0.33 c 0.95,0 0.95,-0.14 0.95,-0.48 v -4.41 c -1.31,0.35 -1.36,1.88 -1.36,2.52 0,1.2 -0.43,1.39 -0.87,1.39 h -0.38 c -0.14,0 -0.25,0 -0.25,-0.11 0,-0.05 0.03,-0.09 0.1,-0.11 0.33,-0.03 0.58,-0.17 0.58,-1.34 0,-0.24 0.03,-1.02 0.51,-1.69 0.39,-0.53 0.99,-0.81 1.67,-0.91 v -0.56 c 0,-0.33 0,-0.47 -0.95,-0.47 h -0.33 v -0.31 c 0.36,0.03 1.28,0.03 1.69,0.03 0.41,0 1.33,0 1.69,-0.03 v 0.31 h -0.33 c -0.95,0 -0.95,0.13 -0.95,0.47 v 0.56 c 0.71,0.1 1.32,0.39 1.71,0.91 0.52,0.7 0.54,1.48 0.54,1.92 0,0.16 0,1.05 0.53,1.11 0.06,0.02 0.14,0.02 0.14,0.11 0,0.11 -0.08,0.11 -0.25,0.11 h -0.38 c -0.37,0 -0.87,-0.06 -0.87,-1.5 -0.02,-1.1 -0.35,-2.16 -1.42,-2.41 z"
   inkscape:connector-curvature="0" />
<path
   id="path8282"
   style="fill:#000000;fill-opacity:1;stroke:#000000;stroke-width:0;stroke-opacity:1"
   d="m 162.02,713.95 h 0.01 v 0 0.01 0 0.01 h 0.01 v 0 0.01 0 0 0.01 0 h 0.01 v 0.01 0 0.01 0.01 h 0.01 v 0.01 0 0 0.01 0 l 0.01,0.01 v 0 0 0.01 0 0 0 0 0.01 0 0 0 0 0 0 0 c 0,0.05 -0.03,0.09 -0.12,0.09 -0.02,0 -0.05,0 -0.08,-0.01 0,-0.02 -0.02,-0.03 -0.1,-0.22 -0.47,-1 -0.82,-1.36 -1.97,-1.36 h -1.18 c -0.22,0 -0.24,0.02 -0.24,0.08 0,0 0,0.03 0.03,0.14 l 0.47,1.89 h 0.8 c 0.55,0 0.64,-0.09 0.64,-0.33 0,-0.08 -0.03,-0.2 -0.06,-0.31 -0.02,-0.06 -0.02,-0.08 -0.02,-0.09 0,-0.02 0.02,-0.1 0.13,-0.1 0.09,0 0.09,0.03 0.12,0.16 l 0.39,1.54 c 0.02,0.08 0.02,0.1 0.02,0.1 0,0.08 -0.05,0.11 -0.11,0.11 -0.09,0 -0.11,-0.05 -0.14,-0.19 -0.16,-0.55 -0.36,-0.64 -0.95,-0.64 h -0.75 l 0.42,1.67 c 0.06,0.22 0.06,0.24 0.36,0.24 h 1.15 c 0.91,0 1.14,-0.19 1.14,-0.82 0,-0.18 -0.01,-0.39 -0.01,-0.42 0,-0.06 0.01,-0.12 0.11,-0.12 0.11,0 0.11,0.06 0.12,0.18 l 0.13,1.22 c 0.03,0.21 -0.02,0.21 -0.21,0.21 h -3.86 c -0.14,0 -0.23,0 -0.23,-0.14 0,-0.11 0.08,-0.11 0.23,-0.11 0.13,0 0.15,0 0.27,-0.02 0.14,-0.02 0.16,-0.02 0.16,-0.09 0,-0.05 -0.02,-0.13 -0.02,-0.16 l -0.92,-3.67 c -0.08,-0.28 -0.08,-0.33 -0.63,-0.33 -0.14,0 -0.21,0 -0.21,-0.16 0,-0.09 0.07,-0.09 0.21,-0.09 h 3.97 c 0.17,0 0.17,0 0.24,0.13 z"
   inkscape:connector-curvature="0" />
<path
   id="path8284"
   style="fill:#000000;fill-opacity:1;stroke:#000000;stroke-width:0;stroke-opacity:1"
   d="m 164.31,714.43 v 0.01 0.01 0 0.01 0 0.01 0.01 0 0.01 0 0 0.01 0 0.01 h -0.01 v 0 0.01 0 0.01 0 0.01 h -0.01 v 0.01 0 l -0.01,0.01 v 0 h -0.01 v 0 l -0.01,0.01 h -0.01 v 0 h -0.01 -0.01 v 0 0 h -0.01 v 0 h -0.01 v 0 h -0.01 -0.01 v 0 h -0.01 v 0 h -0.01 -0.01 v 0 h -0.01 -0.01 v 0 c -0.36,-0.31 -0.93,-0.31 -1.02,-0.31 h -0.09 v -0.2 h 0.09 c 0.11,0 0.44,0.01 0.73,0.12 v -2.43 c 0,-0.16 0,-0.21 -0.53,-0.21 h -0.26 v -0.22 c 0.28,0.02 0.73,0.02 1.03,0.02 0.28,0 0.73,0 1.01,-0.02 v 0.22 h -0.25 c -0.54,0 -0.54,0.05 -0.54,0.21 z"
   inkscape:connector-curvature="0" />
<path
   id="path8286"
   style="fill:#000000;fill-opacity:1;stroke:#000000;stroke-width:0;stroke-opacity:1"
   d="m 168.26,712.17 h -0.01 -0.01 v -0.01 h -0.01 -0.01 -0.01 v -0.01 h -0.01 -0.01 v -0.01 h -0.01 -0.01 l -0.01,-0.01 -0.01,-0.01 -0.01,-0.01 h -0.01 l -0.01,-0.01 v -0.01 l -0.01,-0.01 -0.01,-0.01 v -0.01 l -0.01,-0.01 v 0 l -0.01,-0.01 v -0.01 l -0.01,-0.01 v -0.01 -0.01 0 l -0.01,-0.01 v -0.01 -0.01 0 -0.01 -0.01 0 -0.01 0 c 0,-0.13 0.11,-0.19 0.19,-0.19 0.06,0 0.26,0.05 0.26,0.31 0,0.33 -0.39,0.42 -0.78,0.42 -0.84,0 -1,-0.5 -1,-0.67 0,-0.17 0.09,-0.28 0.19,-0.34 0.14,-0.11 0.29,-0.13 0.56,-0.17 0.31,-0.05 0.67,-0.1 0.67,-0.35 0,-0.01 0,-0.51 -0.94,-0.51 -0.18,0 -0.5,0.01 -0.65,0.17 0.17,0.03 0.26,0.17 0.26,0.3 0,0.14 -0.11,0.2 -0.22,0.2 -0.17,0 -0.32,-0.14 -0.32,-0.36 0,-0.47 0.78,-0.47 0.93,-0.47 1.04,0 1.21,0.56 1.21,0.77 0,0.43 -0.55,0.53 -0.82,0.57 -0.35,0.05 -0.6,0.1 -0.6,0.29 0,0.01 0,0.42 0.73,0.42 0.12,0 0.39,-0.02 0.53,-0.16 z"
   inkscape:connector-curvature="0" />
<path
   id="path8288"
   style="fill:#000000;fill-opacity:1;stroke:#000000;stroke-width:0;stroke-opacity:1"
   d="m 159.55,708.51 v 0.01 0.02 0.01 0.01 0.01 0.01 l -0.01,0.01 v 0.02 l -0.01,0.01 v 0.01 l -0.01,0.01 v 0.01 l -0.01,0.01 -0.01,0.01 -0.01,0.01 -0.01,0.01 v 0.01 l -0.01,0.01 -0.01,0.01 -0.02,0.01 h -0.01 l -0.01,0.01 -0.01,0.01 h -0.01 l -0.02,0.01 h -0.01 l -0.02,0.01 h -0.01 -0.02 l -0.01,0.01 h -0.02 -0.02 c -0.22,0 -0.4,-0.19 -0.4,-0.38 0,-0.12 0.09,-0.28 0.28,-0.28 0.19,0 0.4,0.19 0.4,0.39 z"
   inkscape:connector-curvature="0" />
<path
   id="path8290"
   style="fill:#000000;fill-opacity:1;stroke:#000000;stroke-width:0;stroke-opacity:1"
   d="m 158.05,703.78 -0.01,-0.05 -0.01,-0.04 -0.02,-0.05 -0.01,-0.04 -0.02,-0.04 -0.02,-0.04 -0.02,-0.05 -0.02,-0.04 -0.02,-0.04 -0.03,-0.03 -0.02,-0.04 -0.03,-0.04 -0.02,-0.03 -0.03,-0.04 -0.03,-0.03 -0.03,-0.03 -0.03,-0.03 -0.03,-0.03 -0.03,-0.02 -0.03,-0.03 -0.04,-0.02 -0.03,-0.02 -0.03,-0.02 -0.04,-0.02 -0.04,-0.02 -0.03,-0.01 -0.04,-0.01 -0.04,-0.01 -0.04,-0.01 -0.03,-0.01 h -0.04 -0.04 c -0.1,0 -0.17,0.01 -0.25,0.04 0.19,0.08 0.23,0.25 0.23,0.35 0,0.17 -0.12,0.26 -0.26,0.26 -0.22,0 -0.41,-0.19 -0.41,-0.4 0,-0.29 0.28,-0.46 0.7,-0.46 0.43,0 1.24,0.25 1.46,1.11 l 0.64,2.52 c 0.01,0.08 0.03,0.14 0.03,0.25 0,0.39 -0.33,0.66 -0.75,0.66 -0.78,0 -1.24,-0.97 -1.24,-1.07 0,-0.09 0.1,-0.09 0.13,-0.09 0.08,0 0.08,0.01 0.14,0.12 0.17,0.41 0.53,0.85 0.94,0.85 0.19,0 0.25,-0.13 0.25,-0.35 0,-0.08 -0.02,-0.17 -0.03,-0.21 z"
   inkscape:connector-curvature="0" />
<path
   id="path8292"
   style="fill:#000000;fill-opacity:1;stroke:#000000;stroke-width:0;stroke-opacity:1"
   d="m 172.55,706.91 v 0.06 l -0.01,0.06 v 0.06 0.06 l -0.01,0.05 -0.01,0.05 -0.01,0.05 -0.01,0.05 -0.01,0.05 -0.01,0.04 -0.02,0.05 -0.01,0.04 -0.02,0.04 -0.02,0.04 -0.02,0.03 -0.02,0.04 -0.02,0.03 -0.02,0.03 -0.02,0.03 -0.03,0.02 -0.03,0.03 -0.02,0.02 -0.03,0.02 -0.03,0.02 -0.03,0.01 -0.03,0.02 -0.03,0.01 -0.03,0.01 -0.04,0.01 h -0.03 -0.04 l -0.03,0.01 c -0.33,0 -0.52,-0.25 -0.52,-0.52 0,-0.27 0.19,-0.53 0.52,-0.53 0.12,0 0.25,0.05 0.36,0.12 0.03,0.03 0.03,0.03 0.04,0.03 0,0 0.02,0 0.02,-0.14 0,-0.73 -0.35,-1.34 -0.67,-1.67 -0.11,-0.11 -0.11,-0.12 -0.11,-0.15 0,-0.07 0.04,-0.11 0.09,-0.11 0.11,0 0.91,0.76 0.91,1.93 z"
   inkscape:connector-curvature="0" />
<path
   id="path8294"
   style="fill:#000000;fill-opacity:1;stroke:#000000;stroke-width:0;stroke-opacity:1"
   d="m 178.9,713.1 v 0.02 0.02 l -0.01,0.01 v 0.02 0.02 l -0.01,0.01 v 0.02 l -0.01,0.02 v 0.01 l -0.01,0.02 -0.01,0.01 -0.01,0.02 -0.01,0.01 -0.01,0.02 -0.01,0.01 -0.01,0.01 -0.01,0.01 -0.02,0.02 -0.01,0.01 -0.02,0.01 -0.01,0.01 -0.02,0.01 h -0.01 l -0.02,0.01 -0.02,0.01 h -0.02 l -0.01,0.01 h -0.02 l -0.02,0.01 h -0.02 -0.03 -0.02 c -0.22,0 -0.51,-0.22 -0.51,-0.51 0,-0.21 0.12,-0.36 0.36,-0.36 0.26,0 0.53,0.25 0.53,0.51 z"
   inkscape:connector-curvature="0" />
<path
   id="path8296"
   style="fill:#000000;fill-opacity:1;stroke:#000000;stroke-width:0;stroke-opacity:1"
   d="m 176.91,706.4 -0.01,-0.07 -0.02,-0.07 -0.03,-0.07 -0.02,-0.06 -0.02,-0.07 -0.03,-0.06 -0.03,-0.06 -0.03,-0.06 -0.03,-0.06 -0.03,-0.06 -0.04,-0.05 -0.03,-0.06 -0.04,-0.05 -0.03,-0.05 -0.04,-0.04 -0.04,-0.05 -0.04,-0.04 -0.05,-0.04 -0.04,-0.04 -0.04,-0.04 -0.05,-0.03 -0.04,-0.03 -0.05,-0.03 -0.05,-0.02 -0.04,-0.03 -0.05,-0.02 -0.05,-0.01 -0.05,-0.02 -0.05,-0.01 -0.06,-0.01 h -0.05 -0.05 c -0.05,0 -0.2,0 -0.38,0.07 0.3,0.08 0.44,0.33 0.44,0.54 0,0.15 -0.11,0.34 -0.37,0.34 -0.25,0 -0.53,-0.2 -0.53,-0.56 0,-0.39 0.39,-0.61 0.87,-0.61 0.69,0 1.61,0.51 1.86,1.5 l 0.92,3.64 c 0.05,0.2 0.05,0.34 0.05,0.37 0,0.57 -0.42,0.91 -0.92,0.91 -1,0 -1.58,-1.44 -1.58,-1.53 0,-0.1 0.11,-0.1 0.12,-0.1 0.1,0 0.1,0 0.18,0.19 0.25,0.61 0.71,1.22 1.25,1.22 0.14,0 0.32,-0.05 0.32,-0.45 0,-0.24 -0.03,-0.35 -0.07,-0.52 z"
   inkscape:connector-curvature="0" />
<path
   id="path8298"
   style="fill:#000000;fill-opacity:1;stroke:#000000;stroke-width:0;stroke-opacity:1"
   d="m 187.84,709.18 h 0.03 0.03 0.04 0.01 0.02 0.01 l 0.02,0.01 h 0.01 0.02 0.01 l 0.02,0.01 h 0.01 l 0.01,0.01 h 0.02 l 0.01,0.01 h 0.01 l 0.01,0.01 0.01,0.01 0.01,0.01 0.01,0.01 0.01,0.01 v 0 0.01 h 0.01 v 0.01 0.01 h 0.01 v 0.01 0.01 0 0.01 l 0.01,0.01 v 0.01 0.01 0 0.01 0.01 c 0,0.21 -0.19,0.21 -0.36,0.21 h -4.2 c 0.11,1.32 1.26,2.28 2.65,2.28 h 1.55 c 0.17,0 0.36,0 0.36,0.2 0,0.19 -0.19,0.19 -0.36,0.19 h -1.56 c -1.71,0 -3.05,-1.28 -3.05,-2.88 0,-1.59 1.34,-2.87 3.05,-2.87 h 1.56 c 0.17,0 0.36,0 0.36,0.19 0,0.2 -0.19,0.2 -0.36,0.2 h -1.55 c -1.39,0 -2.54,0.95 -2.65,2.28 z"
   inkscape:connector-curvature="0" />
<path
   id="path8300"
   style="fill:#000000;fill-opacity:1;stroke:#000000;stroke-width:0;stroke-opacity:1"
   d="m 197.18,712.96 0.01,0.03 0.01,0.03 v 0.03 l 0.01,0.02 0.01,0.03 0.01,0.02 v 0.02 l 0.01,0.03 0.01,0.02 0.01,0.01 0.01,0.02 0.01,0.02 0.01,0.01 0.01,0.02 0.01,0.01 0.02,0.01 0.01,0.02 0.02,0.01 0.02,0.01 0.02,0.01 h 0.02 l 0.03,0.01 0.03,0.01 h 0.01 0.01 l 0.02,0.01 h 0.02 0.01 0.02 0.02 l 0.01,0.01 h 0.02 0.02 0.02 0.02 0.03 0.02 0.02 0.02 0.03 0.02 c 0.16,0 0.27,0 0.27,0.19 0,0.08 -0.05,0.11 -0.13,0.11 -0.25,0 -0.86,-0.03 -1.11,-0.03 -0.32,0 -1.14,0.03 -1.45,0.03 -0.09,0 -0.22,0 -0.22,-0.19 0,-0.11 0.08,-0.11 0.35,-0.11 0.22,0 0.32,0 0.57,-0.03 0.24,-0.03 0.3,-0.06 0.3,-0.19 0,-0.06 -0.01,-0.14 -0.03,-0.21 l -1.14,-4.57 c -0.25,-0.95 -0.92,-1.48 -1.44,-1.48 -0.25,0 -0.78,0.09 -0.94,0.61 0.04,0 0.1,0 0.11,0 0.39,0 0.66,0.33 0.66,0.62 0,0.33 -0.27,0.42 -0.44,0.42 -0.18,0 -0.67,-0.1 -0.67,-0.79 0,-0.61 0.53,-1.08 1.31,-1.08 0.93,0 1.96,0.66 2.21,1.64 z"
   inkscape:connector-curvature="0" />
<path
   id="path8302"
   style="fill:#000000;fill-opacity:1;stroke:#000000;stroke-width:0;stroke-opacity:1"
   d="m 199.7,709.87 -0.01,0.01 v 0.01 0.01 0 0.01 0.01 0.01 0 0.01 0.01 0 0.01 0.01 0.01 0.01 0.01 l -0.01,0.01 v 0.01 0.01 h -0.01 v 0.01 h -0.01 v 0.01 h -0.01 l -0.01,0.01 v 0 h -0.01 -0.01 l -0.01,0.01 h -0.01 v 0 h -0.01 v 0 h -0.01 -0.01 v 0 h -0.01 -0.01 -0.01 v 0 h -0.01 -0.01 -0.01 -0.01 v 0 h -0.01 -0.01 c -0.46,-0.45 -1.1,-0.45 -1.38,-0.45 v -0.25 c 0.17,0 0.64,0 1.02,0.19 v -3.58 c 0,-0.23 0,-0.33 -0.71,-0.33 h -0.26 v -0.25 c 0.12,0 1,0.03 1.25,0.03 0.22,0 1.11,-0.03 1.26,-0.03 v 0.25 h -0.26 c -0.7,0 -0.7,0.1 -0.7,0.33 z"
   inkscape:connector-curvature="0" />
</g>    <g
       style="font-style:normal;font-variant:normal;font-weight:normal;font-stretch:normal;letter-spacing:normal;word-spacing:normal;text-anchor:start;fill:none;fill-opacity:1;fill-rule:evenodd;stroke:#000000;stroke-linecap:butt;stroke-linejoin:miter;stroke-miterlimit:10.43299961;stroke-dasharray:none;stroke-dashoffset:0;stroke-opacity:1"
       ns0:jacobian_sqrt="0.352778"
       inkscapeversion="0.92.5"
       ns0:alignment="middle center"
       ns0:scale="1.00000002835"
       ns0:preamble="default_packages.tex"
       ns0:text="$\\Psi_j^{E_{1_s}}, j \\in J_2$\n\n\n\n\n\n\n\n\n\n\n\n\n\n"
       ns0:pdfconverter="pstoedit"
       ns0:texconverter="pdflatex"
       ns0:version="0.11.1"
       word-spacing="normal"
       letter-spacing="normal"
       font-size-adjust="none"
       font-stretch="normal"
       font-weight="normal"
       font-variant="normal"
       font-style="normal"
       stroke-miterlimit="10.433"
       xml:space="preserve"
       transform="matrix(0.352778,0,0,-0.352778,17.227054,462.53828)"
       id="g8433">
<path
   id="path8409"
   style="fill:#000000;fill-opacity:1;stroke:#000000;stroke-width:0;stroke-opacity:1"
   d="m 152.95,712.9 v 0.03 0.03 0.03 0.03 0.02 0.03 0.03 l 0.01,0.02 0.01,0.02 v 0.02 l 0.01,0.02 0.02,0.02 0.01,0.02 0.01,0.02 0.02,0.01 0.02,0.02 0.03,0.01 0.01,0.01 0.01,0.01 h 0.02 l 0.01,0.01 h 0.02 l 0.02,0.01 0.02,0.01 h 0.01 l 0.02,0.01 h 0.02 0.03 l 0.02,0.01 h 0.02 l 0.03,0.01 h 0.02 0.03 l 0.03,0.01 h 0.03 0.03 0.03 0.03 l 0.03,0.01 h 0.04 0.03 0.04 0.04 0.04 0.04 0.04 0.05 0.33 v 0.3 c -0.36,-0.03 -1.28,-0.03 -1.69,-0.03 -0.41,0 -1.33,0 -1.69,0.03 v -0.3 h 0.33 c 0.95,0 0.95,-0.14 0.95,-0.48 v -4.41 c -1.31,0.35 -1.36,1.88 -1.36,2.52 0,1.2 -0.43,1.39 -0.87,1.39 h -0.38 c -0.14,0 -0.25,0 -0.25,-0.11 0,-0.05 0.03,-0.09 0.1,-0.11 0.33,-0.03 0.58,-0.17 0.58,-1.34 0,-0.24 0.03,-1.02 0.51,-1.69 0.39,-0.53 0.99,-0.81 1.67,-0.91 v -0.56 c 0,-0.33 0,-0.47 -0.95,-0.47 h -0.33 v -0.31 c 0.36,0.03 1.28,0.03 1.69,0.03 0.41,0 1.33,0 1.69,-0.03 v 0.31 h -0.33 c -0.95,0 -0.95,0.13 -0.95,0.47 v 0.56 c 0.71,0.1 1.32,0.39 1.71,0.91 0.52,0.7 0.54,1.48 0.54,1.92 0,0.16 0,1.05 0.53,1.11 0.06,0.02 0.14,0.02 0.14,0.11 0,0.11 -0.08,0.11 -0.25,0.11 h -0.38 c -0.37,0 -0.87,-0.06 -0.87,-1.5 -0.02,-1.1 -0.35,-2.16 -1.42,-2.41 z"
   inkscape:connector-curvature="0" />
<path
   id="path8411"
   style="fill:#000000;fill-opacity:1;stroke:#000000;stroke-width:0;stroke-opacity:1"
   d="m 162.02,713.95 h 0.01 v 0 0.01 0 0.01 h 0.01 v 0 0.01 0 0 0.01 0 h 0.01 v 0.01 0 0.01 0.01 h 0.01 v 0.01 0 0 0.01 0 l 0.01,0.01 v 0 0 0.01 0 0 0 0 0.01 0 0 0 0 0 0 0 c 0,0.05 -0.03,0.09 -0.12,0.09 -0.02,0 -0.05,0 -0.08,-0.01 0,-0.02 -0.02,-0.03 -0.1,-0.22 -0.47,-1 -0.82,-1.36 -1.97,-1.36 h -1.18 c -0.22,0 -0.24,0.02 -0.24,0.08 0,0 0,0.03 0.03,0.14 l 0.47,1.89 h 0.8 c 0.55,0 0.64,-0.09 0.64,-0.33 0,-0.08 -0.03,-0.2 -0.06,-0.31 -0.02,-0.06 -0.02,-0.08 -0.02,-0.09 0,-0.02 0.02,-0.1 0.13,-0.1 0.09,0 0.09,0.03 0.12,0.16 l 0.39,1.54 c 0.02,0.08 0.02,0.1 0.02,0.1 0,0.08 -0.05,0.11 -0.11,0.11 -0.09,0 -0.11,-0.05 -0.14,-0.19 -0.16,-0.55 -0.36,-0.64 -0.95,-0.64 h -0.75 l 0.42,1.67 c 0.06,0.22 0.06,0.24 0.36,0.24 h 1.15 c 0.91,0 1.14,-0.19 1.14,-0.82 0,-0.18 -0.01,-0.39 -0.01,-0.42 0,-0.06 0.01,-0.12 0.11,-0.12 0.11,0 0.11,0.06 0.12,0.18 l 0.13,1.22 c 0.03,0.21 -0.02,0.21 -0.21,0.21 h -3.86 c -0.14,0 -0.23,0 -0.23,-0.14 0,-0.11 0.08,-0.11 0.23,-0.11 0.13,0 0.15,0 0.27,-0.02 0.14,-0.02 0.16,-0.02 0.16,-0.09 0,-0.05 -0.02,-0.13 -0.02,-0.16 l -0.92,-3.67 c -0.08,-0.28 -0.08,-0.33 -0.63,-0.33 -0.14,0 -0.21,0 -0.21,-0.16 0,-0.09 0.07,-0.09 0.21,-0.09 h 3.97 c 0.17,0 0.17,0 0.24,0.13 z"
   inkscape:connector-curvature="0" />
<path
   id="path8413"
   style="fill:#000000;fill-opacity:1;stroke:#000000;stroke-width:0;stroke-opacity:1"
   d="m 164.31,714.43 v 0.01 0.01 0 0.01 0 0.01 0.01 0 0.01 0 0 0.01 0 0.01 h -0.01 v 0 0.01 0 0.01 0 0.01 h -0.01 v 0.01 0 l -0.01,0.01 v 0 h -0.01 v 0 l -0.01,0.01 h -0.01 v 0 h -0.01 -0.01 v 0 0 h -0.01 v 0 h -0.01 v 0 h -0.01 -0.01 v 0 h -0.01 v 0 h -0.01 -0.01 v 0 h -0.01 -0.01 v 0 c -0.36,-0.31 -0.93,-0.31 -1.02,-0.31 h -0.09 v -0.2 h 0.09 c 0.11,0 0.44,0.01 0.73,0.12 v -2.43 c 0,-0.16 0,-0.21 -0.53,-0.21 h -0.26 v -0.22 c 0.28,0.02 0.73,0.02 1.03,0.02 0.28,0 0.73,0 1.01,-0.02 v 0.22 h -0.25 c -0.54,0 -0.54,0.05 -0.54,0.21 z"
   inkscape:connector-curvature="0" />
<path
   id="path8415"
   style="fill:#000000;fill-opacity:1;stroke:#000000;stroke-width:0;stroke-opacity:1"
   d="m 168.26,712.17 h -0.01 -0.01 v -0.01 h -0.01 -0.01 -0.01 v -0.01 h -0.01 -0.01 v -0.01 h -0.01 -0.01 l -0.01,-0.01 -0.01,-0.01 -0.01,-0.01 h -0.01 l -0.01,-0.01 v -0.01 l -0.01,-0.01 -0.01,-0.01 v -0.01 l -0.01,-0.01 v 0 l -0.01,-0.01 v -0.01 l -0.01,-0.01 v -0.01 -0.01 0 l -0.01,-0.01 v -0.01 -0.01 0 -0.01 -0.01 0 -0.01 0 c 0,-0.13 0.11,-0.19 0.19,-0.19 0.06,0 0.26,0.05 0.26,0.31 0,0.33 -0.39,0.42 -0.78,0.42 -0.84,0 -1,-0.5 -1,-0.67 0,-0.17 0.09,-0.28 0.19,-0.34 0.14,-0.11 0.29,-0.13 0.56,-0.17 0.31,-0.05 0.67,-0.1 0.67,-0.35 0,-0.01 0,-0.51 -0.94,-0.51 -0.18,0 -0.5,0.01 -0.65,0.17 0.17,0.03 0.26,0.17 0.26,0.3 0,0.14 -0.11,0.2 -0.22,0.2 -0.17,0 -0.32,-0.14 -0.32,-0.36 0,-0.47 0.78,-0.47 0.93,-0.47 1.04,0 1.21,0.56 1.21,0.77 0,0.43 -0.55,0.53 -0.82,0.57 -0.35,0.05 -0.6,0.1 -0.6,0.29 0,0.01 0,0.42 0.73,0.42 0.12,0 0.39,-0.02 0.53,-0.16 z"
   inkscape:connector-curvature="0" />
<path
   id="path8417"
   style="fill:#000000;fill-opacity:1;stroke:#000000;stroke-width:0;stroke-opacity:1"
   d="m 159.55,708.51 v 0.01 0.02 0.01 0.01 0.01 0.01 l -0.01,0.01 v 0.02 l -0.01,0.01 v 0.01 l -0.01,0.01 v 0.01 l -0.01,0.01 -0.01,0.01 -0.01,0.01 -0.01,0.01 v 0.01 l -0.01,0.01 -0.01,0.01 -0.02,0.01 h -0.01 l -0.01,0.01 -0.01,0.01 h -0.01 l -0.02,0.01 h -0.01 l -0.02,0.01 h -0.01 -0.02 l -0.01,0.01 h -0.02 -0.02 c -0.22,0 -0.4,-0.19 -0.4,-0.38 0,-0.12 0.09,-0.28 0.28,-0.28 0.19,0 0.4,0.19 0.4,0.39 z"
   inkscape:connector-curvature="0" />
<path
   id="path8419"
   style="fill:#000000;fill-opacity:1;stroke:#000000;stroke-width:0;stroke-opacity:1"
   d="m 158.05,703.78 -0.01,-0.05 -0.01,-0.04 -0.02,-0.05 -0.01,-0.04 -0.02,-0.04 -0.02,-0.04 -0.02,-0.05 -0.02,-0.04 -0.02,-0.04 -0.03,-0.03 -0.02,-0.04 -0.03,-0.04 -0.02,-0.03 -0.03,-0.04 -0.03,-0.03 -0.03,-0.03 -0.03,-0.03 -0.03,-0.03 -0.03,-0.02 -0.03,-0.03 -0.04,-0.02 -0.03,-0.02 -0.03,-0.02 -0.04,-0.02 -0.04,-0.02 -0.03,-0.01 -0.04,-0.01 -0.04,-0.01 -0.04,-0.01 -0.03,-0.01 h -0.04 -0.04 c -0.1,0 -0.17,0.01 -0.25,0.04 0.19,0.08 0.23,0.25 0.23,0.35 0,0.17 -0.12,0.26 -0.26,0.26 -0.22,0 -0.41,-0.19 -0.41,-0.4 0,-0.29 0.28,-0.46 0.7,-0.46 0.43,0 1.24,0.25 1.46,1.11 l 0.64,2.52 c 0.01,0.08 0.03,0.14 0.03,0.25 0,0.39 -0.33,0.66 -0.75,0.66 -0.78,0 -1.24,-0.97 -1.24,-1.07 0,-0.09 0.1,-0.09 0.13,-0.09 0.08,0 0.08,0.01 0.14,0.12 0.17,0.41 0.53,0.85 0.94,0.85 0.19,0 0.25,-0.13 0.25,-0.35 0,-0.08 -0.02,-0.17 -0.03,-0.21 z"
   inkscape:connector-curvature="0" />
<path
   id="path8421"
   style="fill:#000000;fill-opacity:1;stroke:#000000;stroke-width:0;stroke-opacity:1"
   d="m 172.55,706.91 v 0.06 l -0.01,0.06 v 0.06 0.06 l -0.01,0.05 -0.01,0.05 -0.01,0.05 -0.01,0.05 -0.01,0.05 -0.01,0.04 -0.02,0.05 -0.01,0.04 -0.02,0.04 -0.02,0.04 -0.02,0.03 -0.02,0.04 -0.02,0.03 -0.02,0.03 -0.02,0.03 -0.03,0.02 -0.03,0.03 -0.02,0.02 -0.03,0.02 -0.03,0.02 -0.03,0.01 -0.03,0.02 -0.03,0.01 -0.03,0.01 -0.04,0.01 h -0.03 -0.04 l -0.03,0.01 c -0.33,0 -0.52,-0.25 -0.52,-0.52 0,-0.27 0.19,-0.53 0.52,-0.53 0.12,0 0.25,0.05 0.36,0.12 0.03,0.03 0.03,0.03 0.04,0.03 0,0 0.02,0 0.02,-0.14 0,-0.73 -0.35,-1.34 -0.67,-1.67 -0.11,-0.11 -0.11,-0.12 -0.11,-0.15 0,-0.07 0.04,-0.11 0.09,-0.11 0.11,0 0.91,0.76 0.91,1.93 z"
   inkscape:connector-curvature="0" />
<path
   id="path8423"
   style="fill:#000000;fill-opacity:1;stroke:#000000;stroke-width:0;stroke-opacity:1"
   d="m 178.9,713.1 v 0.02 0.02 l -0.01,0.01 v 0.02 0.02 l -0.01,0.01 v 0.02 l -0.01,0.02 v 0.01 l -0.01,0.02 -0.01,0.01 -0.01,0.02 -0.01,0.01 -0.01,0.02 -0.01,0.01 -0.01,0.01 -0.01,0.01 -0.02,0.02 -0.01,0.01 -0.02,0.01 -0.01,0.01 -0.02,0.01 h -0.01 l -0.02,0.01 -0.02,0.01 h -0.02 l -0.01,0.01 h -0.02 l -0.02,0.01 h -0.02 -0.03 -0.02 c -0.22,0 -0.51,-0.22 -0.51,-0.51 0,-0.21 0.12,-0.36 0.36,-0.36 0.26,0 0.53,0.25 0.53,0.51 z"
   inkscape:connector-curvature="0" />
<path
   id="path8425"
   style="fill:#000000;fill-opacity:1;stroke:#000000;stroke-width:0;stroke-opacity:1"
   d="m 176.91,706.4 -0.01,-0.07 -0.02,-0.07 -0.03,-0.07 -0.02,-0.06 -0.02,-0.07 -0.03,-0.06 -0.03,-0.06 -0.03,-0.06 -0.03,-0.06 -0.03,-0.06 -0.04,-0.05 -0.03,-0.06 -0.04,-0.05 -0.03,-0.05 -0.04,-0.04 -0.04,-0.05 -0.04,-0.04 -0.05,-0.04 -0.04,-0.04 -0.04,-0.04 -0.05,-0.03 -0.04,-0.03 -0.05,-0.03 -0.05,-0.02 -0.04,-0.03 -0.05,-0.02 -0.05,-0.01 -0.05,-0.02 -0.05,-0.01 -0.06,-0.01 h -0.05 -0.05 c -0.05,0 -0.2,0 -0.38,0.07 0.3,0.08 0.44,0.33 0.44,0.54 0,0.15 -0.11,0.34 -0.37,0.34 -0.25,0 -0.53,-0.2 -0.53,-0.56 0,-0.39 0.39,-0.61 0.87,-0.61 0.69,0 1.61,0.51 1.86,1.5 l 0.92,3.64 c 0.05,0.2 0.05,0.34 0.05,0.37 0,0.57 -0.42,0.91 -0.92,0.91 -1,0 -1.58,-1.44 -1.58,-1.53 0,-0.1 0.11,-0.1 0.12,-0.1 0.1,0 0.1,0 0.18,0.19 0.25,0.61 0.71,1.22 1.25,1.22 0.14,0 0.32,-0.05 0.32,-0.45 0,-0.24 -0.03,-0.35 -0.07,-0.52 z"
   inkscape:connector-curvature="0" />
<path
   id="path8427"
   style="fill:#000000;fill-opacity:1;stroke:#000000;stroke-width:0;stroke-opacity:1"
   d="m 187.84,709.18 h 0.03 0.03 0.04 0.01 0.02 0.01 l 0.02,0.01 h 0.01 0.02 0.01 l 0.02,0.01 h 0.01 l 0.01,0.01 h 0.02 l 0.01,0.01 h 0.01 l 0.01,0.01 0.01,0.01 0.01,0.01 0.01,0.01 0.01,0.01 v 0 0.01 h 0.01 v 0.01 0.01 h 0.01 v 0.01 0.01 0 0.01 l 0.01,0.01 v 0.01 0.01 0 0.01 0.01 c 0,0.21 -0.19,0.21 -0.36,0.21 h -4.2 c 0.11,1.32 1.26,2.28 2.65,2.28 h 1.55 c 0.17,0 0.36,0 0.36,0.2 0,0.19 -0.19,0.19 -0.36,0.19 h -1.56 c -1.71,0 -3.05,-1.28 -3.05,-2.88 0,-1.59 1.34,-2.87 3.05,-2.87 h 1.56 c 0.17,0 0.36,0 0.36,0.19 0,0.2 -0.19,0.2 -0.36,0.2 h -1.55 c -1.39,0 -2.54,0.95 -2.65,2.28 z"
   inkscape:connector-curvature="0" />
<path
   id="path8429"
   style="fill:#000000;fill-opacity:1;stroke:#000000;stroke-width:0;stroke-opacity:1"
   d="m 197.18,712.96 0.01,0.03 0.01,0.03 v 0.03 l 0.01,0.02 0.01,0.03 0.01,0.02 v 0.02 l 0.01,0.03 0.01,0.02 0.01,0.01 0.01,0.02 0.01,0.02 0.01,0.01 0.01,0.02 0.01,0.01 0.02,0.01 0.01,0.02 0.02,0.01 0.02,0.01 0.02,0.01 h 0.02 l 0.03,0.01 0.03,0.01 h 0.01 0.01 l 0.02,0.01 h 0.02 0.01 0.02 0.02 l 0.01,0.01 h 0.02 0.02 0.02 0.02 0.03 0.02 0.02 0.02 0.03 0.02 c 0.16,0 0.27,0 0.27,0.19 0,0.08 -0.05,0.11 -0.13,0.11 -0.25,0 -0.86,-0.03 -1.11,-0.03 -0.32,0 -1.14,0.03 -1.45,0.03 -0.09,0 -0.22,0 -0.22,-0.19 0,-0.11 0.08,-0.11 0.35,-0.11 0.22,0 0.32,0 0.57,-0.03 0.24,-0.03 0.3,-0.06 0.3,-0.19 0,-0.06 -0.01,-0.14 -0.03,-0.21 l -1.14,-4.57 c -0.25,-0.95 -0.92,-1.48 -1.44,-1.48 -0.25,0 -0.78,0.09 -0.94,0.61 0.04,0 0.1,0 0.11,0 0.39,0 0.66,0.33 0.66,0.62 0,0.33 -0.27,0.42 -0.44,0.42 -0.18,0 -0.67,-0.1 -0.67,-0.79 0,-0.61 0.53,-1.08 1.31,-1.08 0.93,0 1.96,0.66 2.21,1.64 z"
   inkscape:connector-curvature="0" />
<path
   id="path8431"
   style="fill:#000000;fill-opacity:1;stroke:#000000;stroke-width:0;stroke-opacity:1"
   d="m 200.88,706.68 h -0.23 c -0.02,-0.15 -0.1,-0.58 -0.19,-0.64 C 200.41,706 199.87,706 199.77,706 h -1.29 c 0.73,0.65 0.98,0.85 1.4,1.18 0.52,0.41 1,0.85 1,1.52 0,0.84 -0.73,1.37 -1.64,1.37 -0.87,0 -1.47,-0.6 -1.47,-1.26 0,-0.36 0.32,-0.39 0.38,-0.39 0.17,0 0.37,0.12 0.37,0.37 0,0.13 -0.04,0.38 -0.42,0.38 0.22,0.5 0.7,0.65 1.03,0.65 0.71,0 1.08,-0.56 1.08,-1.12 0,-0.61 -0.44,-1.1 -0.67,-1.35 l -1.69,-1.67 c -0.08,-0.08 -0.08,-0.08 -0.08,-0.28 h 2.91 z"
   inkscape:connector-curvature="0" />
</g>    <rect
       y="188.52084"
       x="13.229166"
       height="15.874997"
       width="26.458334"
       id="rect8451"
       style="fill:none;fill-opacity:1;stroke:#000000;stroke-width:0.26499999;stroke-linecap:round;stroke-linejoin:round;stroke-miterlimit:4;stroke-dasharray:none;stroke-dashoffset:0;stroke-opacity:1;paint-order:stroke fill markers" />
    <rect
       y="172.64584"
       x="39.6875"
       height="15.874997"
       width="26.458334"
       id="rect8453"
       style="fill:none;fill-opacity:1;stroke:#000000;stroke-width:0.26499999;stroke-linecap:round;stroke-linejoin:round;stroke-miterlimit:4;stroke-dasharray:none;stroke-dashoffset:0;stroke-opacity:1;paint-order:stroke fill markers" />
    <rect
       style="fill:none;fill-opacity:1;stroke:#000000;stroke-width:0.26499999;stroke-linecap:round;stroke-linejoin:round;stroke-miterlimit:4;stroke-dasharray:none;stroke-dashoffset:0;stroke-opacity:1;paint-order:stroke fill markers"
       id="rect8455"
       width="26.458334"
       height="15.874997"
       x="39.6875"
       y="188.52084" />
    <rect
       style="fill:none;fill-opacity:1;stroke:#000000;stroke-width:0.26499999;stroke-linecap:round;stroke-linejoin:round;stroke-miterlimit:4;stroke-dasharray:none;stroke-dashoffset:0;stroke-opacity:1;paint-order:stroke fill markers"
       id="rect8457"
       width="26.458334"
       height="15.874997"
       x="66.145836"
       y="172.64584" />
    <rect
       y="188.52084"
       x="66.145836"
       height="15.874997"
       width="26.458334"
       id="rect8459"
       style="fill:none;fill-opacity:1;stroke:#000000;stroke-width:0.26499999;stroke-linecap:round;stroke-linejoin:round;stroke-miterlimit:4;stroke-dasharray:none;stroke-dashoffset:0;stroke-opacity:1;paint-order:stroke fill markers" />
    <rect
       y="204.39584"
       x="39.6875"
       height="15.874997"
       width="26.458334"
       id="rect8461"
       style="fill:none;fill-opacity:1;stroke:#000000;stroke-width:0.26499999;stroke-linecap:round;stroke-linejoin:round;stroke-miterlimit:4;stroke-dasharray:none;stroke-dashoffset:0;stroke-opacity:1;paint-order:stroke fill markers" />
    <rect
       style="fill:none;fill-opacity:1;stroke:#000000;stroke-width:0.26499999;stroke-linecap:round;stroke-linejoin:round;stroke-miterlimit:4;stroke-dasharray:none;stroke-dashoffset:0;stroke-opacity:1;paint-order:stroke fill markers"
       id="rect8463"
       width="26.458334"
       height="15.874997"
       x="66.145836"
       y="204.39584" />
  </g>
</svg>
