<?xml version="1.0" encoding="UTF-8" standalone="no"?>
<!-- Created with Inkscape (http://www.inkscape.org/) -->

<svg
   xmlns:ns0="http://www.iki.fi/pav/software/textext/"
   xmlns:dc="http://purl.org/dc/elements/1.1/"
   xmlns:cc="http://creativecommons.org/ns#"
   xmlns:rdf="http://www.w3.org/1999/02/22-rdf-syntax-ns#"
   xmlns:svg="http://www.w3.org/2000/svg"
   xmlns="http://www.w3.org/2000/svg"
   xmlns:xlink="http://www.w3.org/1999/xlink"
   xmlns:sodipodi="http://sodipodi.sourceforge.net/DTD/sodipodi-0.dtd"
   xmlns:inkscape="http://www.inkscape.org/namespaces/inkscape"
   width="354.33069"
   height="283.46457"
   id="svg2"
   version="1.1"
   inkscape:version="0.48.4 r9939"
   sodipodi:docname="fig5.svg">
  <sodipodi:namedview
     id="base"
     pagecolor="#ffffff"
     bordercolor="#666666"
     borderopacity="1.0"
     inkscape:pageopacity="0.0"
     inkscape:pageshadow="2"
     inkscape:zoom="2.0775319"
     inkscape:cx="157.38346"
     inkscape:cy="171.49667"
     inkscape:document-units="px"
     inkscape:current-layer="layer1"
     showgrid="false"
     units="cm"
     inkscape:window-width="1024"
     inkscape:window-height="744"
     inkscape:window-x="0"
     inkscape:window-y="24"
     inkscape:window-maximized="1" />
  <defs
     id="defs4">
    <marker
       style="overflow:visible"
       id="Arrow1Mstart"
       refX="0.0"
       refY="0.0"
       orient="auto"
       inkscape:stockid="Arrow1Mstart">
      <path
         transform="scale(0.4) translate(10,0)"
         style="fill-rule:evenodd;stroke:#000000;stroke-width:1.0pt"
         d="M 0.0,0.0 L 5.0,-5.0 L -12.5,0.0 L 5.0,5.0 L 0.0,0.0 z "
         id="path4721" />
    </marker>
    <marker
       style="overflow:visible;"
       id="Arrow1Mend"
       refX="0.0"
       refY="0.0"
       orient="auto"
       inkscape:stockid="Arrow1Mend">
      <path
         transform="scale(0.4) rotate(180) translate(10,0)"
         style="fill-rule:evenodd;stroke:#000000;stroke-width:1.0pt;"
         d="M 0.0,0.0 L 5.0,-5.0 L -12.5,0.0 L 5.0,5.0 L 0.0,0.0 z "
         id="path3784" />
    </marker>
  </defs>
  <metadata
     id="metadata7">
    <rdf:RDF>
      <cc:Work
         rdf:about="">
        <dc:format>image/svg+xml</dc:format>
        <dc:type
           rdf:resource="http://purl.org/dc/dcmitype/StillImage" />
        <dc:title></dc:title>
      </cc:Work>
    </rdf:RDF>
  </metadata>
  <g
     transform="translate(0,-768.89631)"
     id="layer1"
     inkscape:groupmode="layer"
     inkscape:label="Layer 1">
    <rect
       rx="0"
       y="836.7951"
       x="78.507629"
       height="110.00481"
       width="195.96962"
       id="rect2985"
       style="fill:#ffffff;fill-opacity:1;stroke:#000000;stroke-width:1.25;stroke-linecap:round;stroke-linejoin:miter;stroke-miterlimit:4;stroke-opacity:1;stroke-dasharray:none;stroke-dashoffset:0" />
    <path
       transform="translate(31.939085,762.33032)"
       d="m 155.05842,132.19423 c 0,17.43412 -14.13315,31.56727 -31.56727,31.56727 -17.43412,0 -31.567267,-14.13315 -31.567267,-31.56727 0,-17.43412 14.133147,-31.56727 31.567267,-31.56727 17.43412,0 31.56727,14.13315 31.56727,31.56727 z"
       sodipodi:ry="31.567266"
       sodipodi:rx="31.567266"
       sodipodi:cy="132.19423"
       sodipodi:cx="123.49115"
       id="path2987"
       style="fill:#cccccc;fill-opacity:1;stroke:#000000;stroke-width:1.25;stroke-linecap:round;stroke-linejoin:miter;stroke-miterlimit:4;stroke-opacity:1;stroke-dasharray:none;stroke-dashoffset:0"
       sodipodi:type="arc" />
    <path
       sodipodi:type="arc"
       style="fill:#cccccc;fill-opacity:1;stroke:#000000;stroke-width:1.25;stroke-linecap:round;stroke-linejoin:miter;stroke-miterlimit:4;stroke-opacity:1;stroke-dasharray:none;stroke-dashoffset:0"
       id="path2989"
       sodipodi:cx="123.49115"
       sodipodi:cy="132.19423"
       sodipodi:rx="31.567266"
       sodipodi:ry="31.567266"
       d="m 155.05842,132.19423 c 0,17.43412 -14.13315,31.56727 -31.56727,31.56727 -17.43412,0 -31.567267,-14.13315 -31.567267,-31.56727 0,-17.43412 14.133147,-31.56727 31.567267,-31.56727 17.43412,0 31.56727,14.13315 31.56727,31.56727 z"
       transform="translate(79.939085,762.33032)" />
    <path
       sodipodi:type="arc"
       style="fill:none;stroke:#000000;stroke-width:1.25;stroke-linecap:round;stroke-linejoin:miter;stroke-miterlimit:4;stroke-opacity:1;stroke-dasharray:none;stroke-dashoffset:0"
       id="path2991"
       sodipodi:cx="123.49115"
       sodipodi:cy="132.19423"
       sodipodi:rx="31.567266"
       sodipodi:ry="31.567266"
       d="m 155.05842,132.19423 c 0,17.43412 -14.13315,31.56727 -31.56727,31.56727 -17.43412,0 -31.567267,-14.13315 -31.567267,-31.56727 0,-17.43412 14.133147,-31.56727 31.567267,-31.56727 17.43412,0 31.56727,14.13315 31.56727,31.56727 z"
       transform="translate(31.939085,762.33032)" />
    <path
       sodipodi:nodetypes="cc"
       inkscape:connector-curvature="0"
       id="path2993"
       d="m 179.35156,914.85386 c 11.28912,-13.42661 8.75627,-26.85322 0.25254,-40.27983"
       style="fill:none;stroke:#000000;stroke-width:1px;stroke-linecap:butt;stroke-linejoin:miter;stroke-opacity:1" />
    <path
       style="fill:#4d4d4d;stroke:#000000;stroke-width:0.24999997;stroke-linecap:butt;stroke-linejoin:miter;stroke-miterlimit:4;stroke-opacity:1;stroke-dasharray:none"
       d="m 179.38232,874.09609 c -8.24157,13.46009 -10.7099,26.64117 -0.0318,40.15707 10.67812,-13.33733 8.27335,-26.76394 0.0318,-40.15707 z"
       id="path2997"
       inkscape:connector-curvature="0"
       sodipodi:nodetypes="ccc" />
    <path
       sodipodi:nodetypes="cc"
       style="fill:none;stroke:#000000;stroke-width:1px;stroke-linecap:butt;stroke-linejoin:miter;stroke-opacity:1"
       d="m 179.35156,914.85386 c -12.28388,-19.3974 -6.95159,-30.40743 -0.06,-40.54769"
       id="path2995"
       inkscape:connector-curvature="0" />
    <path
       transform="translate(0,768.89631)"
       inkscape:connector-curvature="0"
       id="path3769"
       d="m 57.114468,130.1291 82.791662,-0.20772"
       style="fill:none;stroke:#000000;stroke-width:1px;stroke-linecap:butt;stroke-linejoin:miter;stroke-opacity:1;marker-end:url(#Arrow1Mend)"
       sodipodi:nodetypes="cc" />
    <rect
       style="fill:#ffffff;fill-opacity:1;stroke:#000000;stroke-width:0;stroke-linecap:round;stroke-linejoin:miter;stroke-miterlimit:4;stroke-opacity:1;stroke-dasharray:none;stroke-dashoffset:0"
       id="rect3030"
       width="11.402028"
       height="11.402028"
       x="152.1405"
       y="879.4585" />
    <g
       id="g4230"
       ns0:preamble=""
       ns0:text="$A$"
       transform="matrix(1.2,0,0,1.2,-115.39692,727.68738)">
      <defs
         id="defs4232">
        <g
           id="g4234">
          <symbol
             id="textext-7c683543-0"
             overflow="visible"
             style="overflow:visible">
            <path
               id="path4237"
               d=""
               style="stroke:none"
               inkscape:connector-curvature="0" />
          </symbol>
          <symbol
             id="textext-7c683543-1"
             overflow="visible"
             style="overflow:visible">
            <path
               id="path4240"
               d="M 1.78125,-1.140625 C 1.390625,-0.484375 1,-0.34375 0.5625,-0.3125 0.4375,-0.296875 0.34375,-0.296875 0.34375,-0.109375 0.34375,-0.046875 0.40625,0 0.484375,0 0.75,0 1.0625,-0.03125 1.328125,-0.03125 c 0.34375,0 0.6875,0.03125 1,0.03125 0.0625,0 0.1875,0 0.1875,-0.1875 0,-0.109375 -0.078125,-0.125 -0.15625,-0.125 -0.21875,-0.015625 -0.46875,-0.09375 -0.46875,-0.34375 0,-0.125 0.0625,-0.234375 0.140625,-0.375 l 0.765625,-1.265625 2.5,0 c 0.015625,0.203125 0.15625,1.5625 0.15625,1.65625 0,0.296875 -0.515625,0.328125 -0.71875,0.328125 C 4.59375,-0.3125 4.5,-0.3125 4.5,-0.109375 4.5,0 4.609375,0 4.640625,0 5.046875,0 5.46875,-0.03125 5.875,-0.03125 6.125,-0.03125 6.765625,0 7.015625,0 7.0625,0 7.1875,0 7.1875,-0.203125 7.1875,-0.3125 7.09375,-0.3125 6.953125,-0.3125 6.34375,-0.3125 6.34375,-0.375 6.3125,-0.671875 l -0.609375,-6.21875 c -0.015625,-0.203125 -0.015625,-0.25 -0.1875,-0.25 -0.15625,0 -0.203125,0.078125 -0.265625,0.171875 z M 2.984375,-2.609375 4.9375,-5.90625 5.265625,-2.609375 z m 0,0"
               style="stroke:none"
               inkscape:connector-curvature="0" />
          </symbol>
        </g>
      </defs>
      <g
         id="textext-7c683543-2">
        <g
           id="g4243"
           style="fill:#000000;fill-opacity:1">
          <use
             id="use4245"
             y="134.765"
             x="223.43201"
             xlink:href="#textext-7c683543-1"
             width="354.33069"
             height="283.46457" />
        </g>
      </g>
    </g>
    <rect
       y="879.4585"
       x="200.1405"
       height="11.402028"
       width="11.402028"
       id="rect3806"
       style="fill:#ffffff;fill-opacity:1;stroke:#000000;stroke-width:0;stroke-linecap:round;stroke-linejoin:miter;stroke-miterlimit:4;stroke-opacity:1;stroke-dasharray:none;stroke-dashoffset:0" />
    <g
       ns0:text="$B$"
       ns0:preamble="/home/sriranga/Desktop/CSY/figure/package.tex"
       transform="matrix(1.2,0,0,1.2,-67.39692,727.68738)"
       id="g3866">
      <defs
         id="defs3868">
        <g
           id="g3870">
          <symbol
             overflow="visible"
             id="textext-4023ea2d-0">
            <path
               style="stroke:none;"
               d=""
               id="path3873" />
          </symbol>
          <symbol
             overflow="visible"
             id="textext-4023ea2d-1">
            <path
               style="stroke:none;"
               d="M 1.59375 -0.78125 C 1.5 -0.390625 1.46875 -0.3125 0.6875 -0.3125 C 0.515625 -0.3125 0.421875 -0.3125 0.421875 -0.109375 C 0.421875 0 0.515625 0 0.6875 0 L 4.25 0 C 5.828125 0 7 -1.171875 7 -2.15625 C 7 -2.875 6.421875 -3.453125 5.453125 -3.5625 C 6.484375 -3.75 7.53125 -4.484375 7.53125 -5.4375 C 7.53125 -6.171875 6.875 -6.8125 5.6875 -6.8125 L 2.328125 -6.8125 C 2.140625 -6.8125 2.046875 -6.8125 2.046875 -6.609375 C 2.046875 -6.5 2.140625 -6.5 2.328125 -6.5 C 2.34375 -6.5 2.53125 -6.5 2.703125 -6.484375 C 2.875 -6.453125 2.96875 -6.453125 2.96875 -6.3125 C 2.96875 -6.28125 2.953125 -6.25 2.9375 -6.125 Z M 3.09375 -3.65625 L 3.71875 -6.125 C 3.8125 -6.46875 3.828125 -6.5 4.25 -6.5 L 5.546875 -6.5 C 6.421875 -6.5 6.625 -5.90625 6.625 -5.46875 C 6.625 -4.59375 5.765625 -3.65625 4.5625 -3.65625 Z M 2.65625 -0.3125 C 2.515625 -0.3125 2.5 -0.3125 2.4375 -0.3125 C 2.328125 -0.328125 2.296875 -0.34375 2.296875 -0.421875 C 2.296875 -0.453125 2.296875 -0.46875 2.359375 -0.640625 L 3.046875 -3.421875 L 4.921875 -3.421875 C 5.875 -3.421875 6.078125 -2.6875 6.078125 -2.265625 C 6.078125 -1.28125 5.1875 -0.3125 4 -0.3125 Z M 2.65625 -0.3125 "
               id="path3876" />
          </symbol>
        </g>
      </defs>
      <g
         id="textext-4023ea2d-2">
        <g
           style="fill:rgb(0%,0%,0%);fill-opacity:1;"
           id="g3879">
          <use
             xlink:href="#textext-4023ea2d-1"
             x="223.432"
             y="134.765"
             id="use3881" />
        </g>
      </g>
    </g>
    <g
       id="g3990"
       transform="matrix(1.2,0,0,1.2,-249.83558,741.64625)"
       ns0:preamble="/home/sriranga/Desktop/CSY/figure/package.tex"
       ns0:text="$A\\cap B\'$">
      <defs
         id="defs3992">
        <g
           id="g3994">
          <symbol
             id="textext-0c57ea85-0"
             overflow="visible"
             style="overflow:visible">
            <path
               id="path3997"
               d=""
               style="stroke:none"
               inkscape:connector-curvature="0" />
          </symbol>
          <symbol
             id="textext-0c57ea85-1"
             overflow="visible"
             style="overflow:visible">
            <path
               id="path4000"
               d="M 1.78125,-1.140625 C 1.390625,-0.484375 1,-0.34375 0.5625,-0.3125 0.4375,-0.296875 0.34375,-0.296875 0.34375,-0.109375 0.34375,-0.046875 0.40625,0 0.484375,0 0.75,0 1.0625,-0.03125 1.328125,-0.03125 c 0.34375,0 0.6875,0.03125 1,0.03125 0.0625,0 0.1875,0 0.1875,-0.1875 0,-0.109375 -0.078125,-0.125 -0.15625,-0.125 -0.21875,-0.015625 -0.46875,-0.09375 -0.46875,-0.34375 0,-0.125 0.0625,-0.234375 0.140625,-0.375 l 0.765625,-1.265625 2.5,0 c 0.015625,0.203125 0.15625,1.5625 0.15625,1.65625 0,0.296875 -0.515625,0.328125 -0.71875,0.328125 C 4.59375,-0.3125 4.5,-0.3125 4.5,-0.109375 4.5,0 4.609375,0 4.640625,0 5.046875,0 5.46875,-0.03125 5.875,-0.03125 6.125,-0.03125 6.765625,0 7.015625,0 7.0625,0 7.1875,0 7.1875,-0.203125 7.1875,-0.3125 7.09375,-0.3125 6.953125,-0.3125 6.34375,-0.3125 6.34375,-0.375 6.3125,-0.671875 l -0.609375,-6.21875 c -0.015625,-0.203125 -0.015625,-0.25 -0.1875,-0.25 -0.15625,0 -0.203125,0.078125 -0.265625,0.171875 z M 2.984375,-2.609375 4.9375,-5.90625 5.265625,-2.609375 z m 0,0"
               style="stroke:none"
               inkscape:connector-curvature="0" />
          </symbol>
          <symbol
             id="textext-0c57ea85-2"
             overflow="visible"
             style="overflow:visible">
            <path
               id="path4003"
               d="M 1.59375,-0.78125 C 1.5,-0.390625 1.46875,-0.3125 0.6875,-0.3125 c -0.171875,0 -0.265625,0 -0.265625,0.203125 C 0.421875,0 0.515625,0 0.6875,0 L 4.25,0 C 5.828125,0 7,-1.171875 7,-2.15625 7,-2.875 6.421875,-3.453125 5.453125,-3.5625 6.484375,-3.75 7.53125,-4.484375 7.53125,-5.4375 c 0,-0.734375 -0.65625,-1.375 -1.84375,-1.375 l -3.359375,0 c -0.1875,0 -0.28125,0 -0.28125,0.203125 0,0.109375 0.09375,0.109375 0.28125,0.109375 0.015625,0 0.203125,0 0.375,0.015625 0.171875,0.03125 0.265625,0.03125 0.265625,0.171875 0,0.03125 -0.015625,0.0625 -0.03125,0.1875 z m 1.5,-2.875 0.625,-2.46875 C 3.8125,-6.46875 3.828125,-6.5 4.25,-6.5 l 1.296875,0 c 0.875,0 1.078125,0.59375 1.078125,1.03125 0,0.875 -0.859375,1.8125 -2.0625,1.8125 z m -0.4375,3.34375 c -0.140625,0 -0.15625,0 -0.21875,0 -0.109375,-0.015625 -0.140625,-0.03125 -0.140625,-0.109375 0,-0.03125 0,-0.046875 0.0625,-0.21875 l 0.6875,-2.78125 1.875,0 c 0.953125,0 1.15625,0.734375 1.15625,1.15625 C 6.078125,-1.28125 5.1875,-0.3125 4,-0.3125 z m 0,0"
               style="stroke:none"
               inkscape:connector-curvature="0" />
          </symbol>
          <symbol
             id="textext-0c57ea85-3"
             overflow="visible"
             style="overflow:visible">
            <path
               id="path4006"
               d=""
               style="stroke:none"
               inkscape:connector-curvature="0" />
          </symbol>
          <symbol
             id="textext-0c57ea85-4"
             overflow="visible"
             style="overflow:visible">
            <path
               id="path4009"
               d="m 6.09375,-3.78125 c 0,-1.515625 -1.53125,-2.1875 -2.78125,-2.1875 -1.28125,0 -2.765625,0.703125 -2.765625,2.171875 l 0,3.65625 c 0,0.1875 0,0.359375 0.203125,0.359375 0.203125,0 0.203125,-0.171875 0.203125,-0.359375 l 0,-3.609375 c 0,-1.5 1.625,-1.8125 2.359375,-1.8125 0.453125,0 1.078125,0.09375 1.609375,0.421875 C 5.6875,-4.640625 5.6875,-4 5.6875,-3.734375 l 0,3.59375 c 0,0.1875 0,0.359375 0.203125,0.359375 0.203125,0 0.203125,-0.171875 0.203125,-0.359375 z m 0,0"
               style="stroke:none"
               inkscape:connector-curvature="0" />
          </symbol>
          <symbol
             id="textext-0c57ea85-5"
             overflow="visible"
             style="overflow:visible">
            <path
               id="path4012"
               d=""
               style="stroke:none"
               inkscape:connector-curvature="0" />
          </symbol>
          <symbol
             id="textext-0c57ea85-6"
             overflow="visible"
             style="overflow:visible">
            <path
               id="path4015"
               d="m 2.015625,-3.296875 c 0.0625,-0.109375 0.0625,-0.171875 0.0625,-0.21875 0,-0.21875 -0.1875,-0.375 -0.40625,-0.375 -0.265625,0 -0.34375,0.21875 -0.375,0.328125 L 0.375,-0.546875 c -0.015625,0.015625 -0.046875,0.09375 -0.046875,0.109375 0,0.078125 0.21875,0.15625 0.28125,0.15625 0.046875,0 0.046875,-0.015625 0.09375,-0.125 z m 0,0"
               style="stroke:none"
               inkscape:connector-curvature="0" />
          </symbol>
        </g>
      </defs>
      <g
         id="textext-0c57ea85-7">
        <g
           id="g4018"
           style="fill:#000000;fill-opacity:1">
          <use
             id="use4020"
             y="134.765"
             x="223.43201"
             xlink:href="#textext-0c57ea85-1"
             width="354.33069"
             height="283.46457" />
        </g>
        <g
           id="g4022"
           style="fill:#000000;fill-opacity:1">
          <use
             id="use4024"
             y="134.765"
             x="233.118"
             xlink:href="#textext-0c57ea85-4"
             width="354.33069"
             height="283.46457" />
        </g>
        <g
           id="g4026"
           style="fill:#000000;fill-opacity:1">
          <use
             id="use4028"
             y="134.765"
             x="241.974"
             xlink:href="#textext-0c57ea85-2"
             width="354.33069"
             height="283.46457" />
        </g>
        <g
           id="g4030"
           style="fill:#000000;fill-opacity:1">
          <use
             id="use4032"
             y="131.14999"
             x="250.03"
             xlink:href="#textext-0c57ea85-6"
             width="354.33069"
             height="283.46457" />
        </g>
      </g>
    </g>
    <path
       sodipodi:nodetypes="cc"
       style="fill:none;stroke:#000000;stroke-width:1px;stroke-linecap:butt;stroke-linejoin:miter;stroke-opacity:1;marker-end:url(#Arrow1Mend)"
       d="m 298.65613,899.02541 -82.79167,-0.20772"
       id="path4095"
       inkscape:connector-curvature="0" />
    <g
       ns0:text="$B\\cap A\'$"
       ns0:preamble="/home/sriranga/Desktop/CSY/figure/package.tex"
       transform="matrix(1.2,0,0,1.2,35.68308,741.64625)"
       id="g4213">
      <defs
         id="defs4215">
        <g
           id="g4217">
          <symbol
             overflow="visible"
             id="textext-7be03eba-0">
            <path
               style="stroke:none;"
               d=""
               id="path4220" />
          </symbol>
          <symbol
             overflow="visible"
             id="textext-7be03eba-1">
            <path
               style="stroke:none;"
               d="M 1.59375 -0.78125 C 1.5 -0.390625 1.46875 -0.3125 0.6875 -0.3125 C 0.515625 -0.3125 0.421875 -0.3125 0.421875 -0.109375 C 0.421875 0 0.515625 0 0.6875 0 L 4.25 0 C 5.828125 0 7 -1.171875 7 -2.15625 C 7 -2.875 6.421875 -3.453125 5.453125 -3.5625 C 6.484375 -3.75 7.53125 -4.484375 7.53125 -5.4375 C 7.53125 -6.171875 6.875 -6.8125 5.6875 -6.8125 L 2.328125 -6.8125 C 2.140625 -6.8125 2.046875 -6.8125 2.046875 -6.609375 C 2.046875 -6.5 2.140625 -6.5 2.328125 -6.5 C 2.34375 -6.5 2.53125 -6.5 2.703125 -6.484375 C 2.875 -6.453125 2.96875 -6.453125 2.96875 -6.3125 C 2.96875 -6.28125 2.953125 -6.25 2.9375 -6.125 Z M 3.09375 -3.65625 L 3.71875 -6.125 C 3.8125 -6.46875 3.828125 -6.5 4.25 -6.5 L 5.546875 -6.5 C 6.421875 -6.5 6.625 -5.90625 6.625 -5.46875 C 6.625 -4.59375 5.765625 -3.65625 4.5625 -3.65625 Z M 2.65625 -0.3125 C 2.515625 -0.3125 2.5 -0.3125 2.4375 -0.3125 C 2.328125 -0.328125 2.296875 -0.34375 2.296875 -0.421875 C 2.296875 -0.453125 2.296875 -0.46875 2.359375 -0.640625 L 3.046875 -3.421875 L 4.921875 -3.421875 C 5.875 -3.421875 6.078125 -2.6875 6.078125 -2.265625 C 6.078125 -1.28125 5.1875 -0.3125 4 -0.3125 Z M 2.65625 -0.3125 "
               id="path4223" />
          </symbol>
          <symbol
             overflow="visible"
             id="textext-7be03eba-2">
            <path
               style="stroke:none;"
               d="M 1.78125 -1.140625 C 1.390625 -0.484375 1 -0.34375 0.5625 -0.3125 C 0.4375 -0.296875 0.34375 -0.296875 0.34375 -0.109375 C 0.34375 -0.046875 0.40625 0 0.484375 0 C 0.75 0 1.0625 -0.03125 1.328125 -0.03125 C 1.671875 -0.03125 2.015625 0 2.328125 0 C 2.390625 0 2.515625 0 2.515625 -0.1875 C 2.515625 -0.296875 2.4375 -0.3125 2.359375 -0.3125 C 2.140625 -0.328125 1.890625 -0.40625 1.890625 -0.65625 C 1.890625 -0.78125 1.953125 -0.890625 2.03125 -1.03125 L 2.796875 -2.296875 L 5.296875 -2.296875 C 5.3125 -2.09375 5.453125 -0.734375 5.453125 -0.640625 C 5.453125 -0.34375 4.9375 -0.3125 4.734375 -0.3125 C 4.59375 -0.3125 4.5 -0.3125 4.5 -0.109375 C 4.5 0 4.609375 0 4.640625 0 C 5.046875 0 5.46875 -0.03125 5.875 -0.03125 C 6.125 -0.03125 6.765625 0 7.015625 0 C 7.0625 0 7.1875 0 7.1875 -0.203125 C 7.1875 -0.3125 7.09375 -0.3125 6.953125 -0.3125 C 6.34375 -0.3125 6.34375 -0.375 6.3125 -0.671875 L 5.703125 -6.890625 C 5.6875 -7.09375 5.6875 -7.140625 5.515625 -7.140625 C 5.359375 -7.140625 5.3125 -7.0625 5.25 -6.96875 Z M 2.984375 -2.609375 L 4.9375 -5.90625 L 5.265625 -2.609375 Z M 2.984375 -2.609375 "
               id="path4226" />
          </symbol>
          <symbol
             overflow="visible"
             id="textext-7be03eba-3">
            <path
               style="stroke:none;"
               d=""
               id="path4229" />
          </symbol>
          <symbol
             overflow="visible"
             id="textext-7be03eba-4">
            <path
               style="stroke:none;"
               d="M 6.09375 -3.78125 C 6.09375 -5.296875 4.5625 -5.96875 3.3125 -5.96875 C 2.03125 -5.96875 0.546875 -5.265625 0.546875 -3.796875 L 0.546875 -0.140625 C 0.546875 0.046875 0.546875 0.21875 0.75 0.21875 C 0.953125 0.21875 0.953125 0.046875 0.953125 -0.140625 L 0.953125 -3.75 C 0.953125 -5.25 2.578125 -5.5625 3.3125 -5.5625 C 3.765625 -5.5625 4.390625 -5.46875 4.921875 -5.140625 C 5.6875 -4.640625 5.6875 -4 5.6875 -3.734375 L 5.6875 -0.140625 C 5.6875 0.046875 5.6875 0.21875 5.890625 0.21875 C 6.09375 0.21875 6.09375 0.046875 6.09375 -0.140625 Z M 6.09375 -3.78125 "
               id="path4232" />
          </symbol>
          <symbol
             overflow="visible"
             id="textext-7be03eba-5">
            <path
               style="stroke:none;"
               d=""
               id="path4235" />
          </symbol>
          <symbol
             overflow="visible"
             id="textext-7be03eba-6">
            <path
               style="stroke:none;"
               d="M 2.015625 -3.296875 C 2.078125 -3.40625 2.078125 -3.46875 2.078125 -3.515625 C 2.078125 -3.734375 1.890625 -3.890625 1.671875 -3.890625 C 1.40625 -3.890625 1.328125 -3.671875 1.296875 -3.5625 L 0.375 -0.546875 C 0.359375 -0.53125 0.328125 -0.453125 0.328125 -0.4375 C 0.328125 -0.359375 0.546875 -0.28125 0.609375 -0.28125 C 0.65625 -0.28125 0.65625 -0.296875 0.703125 -0.40625 Z M 2.015625 -3.296875 "
               id="path4238" />
          </symbol>
        </g>
      </defs>
      <g
         id="textext-7be03eba-7">
        <g
           style="fill:rgb(0%,0%,0%);fill-opacity:1;"
           id="g4241">
          <use
             xlink:href="#textext-7be03eba-1"
             x="223.432"
             y="134.765"
             id="use4243" />
        </g>
        <g
           style="fill:rgb(0%,0%,0%);fill-opacity:1;"
           id="g4245">
          <use
             xlink:href="#textext-7be03eba-4"
             x="233.703"
             y="134.765"
             id="use4247" />
        </g>
        <g
           style="fill:rgb(0%,0%,0%);fill-opacity:1;"
           id="g4249">
          <use
             xlink:href="#textext-7be03eba-2"
             x="242.558"
             y="134.765"
             id="use4251" />
        </g>
        <g
           style="fill:rgb(0%,0%,0%);fill-opacity:1;"
           id="g4253">
          <use
             xlink:href="#textext-7be03eba-6"
             x="250.03"
             y="131.15"
             id="use4255" />
        </g>
      </g>
    </g>
    <path
       transform="translate(0,768.89631)"
       inkscape:connector-curvature="0"
       id="path4345"
       d="M 178.6885,122.47474 189.23963,50.658979"
       style="fill:none;stroke:#000000;stroke-width:1px;stroke-linecap:butt;stroke-linejoin:miter;stroke-opacity:1;marker-start:url(#Arrow1Mstart);marker-end:none"
       sodipodi:nodetypes="cc" />
    <g
       id="g5302"
       transform="matrix(1.2,0,0,1.2,-93.440598,654.41753)"
       ns0:preamble="/home/sriranga/Desktop/CSY/figure/package.tex"
       ns0:text="$A\\cap B$">
      <defs
         id="defs5304">
        <g
           id="g5306">
          <symbol
             id="textext-239feb42-0"
             overflow="visible"
             style="overflow:visible">
            <path
               id="path5309"
               d=""
               style="stroke:none"
               inkscape:connector-curvature="0" />
          </symbol>
          <symbol
             id="textext-239feb42-1"
             overflow="visible"
             style="overflow:visible">
            <path
               id="path5312"
               d="M 1.78125,-1.140625 C 1.390625,-0.484375 1,-0.34375 0.5625,-0.3125 0.4375,-0.296875 0.34375,-0.296875 0.34375,-0.109375 0.34375,-0.046875 0.40625,0 0.484375,0 0.75,0 1.0625,-0.03125 1.328125,-0.03125 c 0.34375,0 0.6875,0.03125 1,0.03125 0.0625,0 0.1875,0 0.1875,-0.1875 0,-0.109375 -0.078125,-0.125 -0.15625,-0.125 -0.21875,-0.015625 -0.46875,-0.09375 -0.46875,-0.34375 0,-0.125 0.0625,-0.234375 0.140625,-0.375 l 0.765625,-1.265625 2.5,0 c 0.015625,0.203125 0.15625,1.5625 0.15625,1.65625 0,0.296875 -0.515625,0.328125 -0.71875,0.328125 C 4.59375,-0.3125 4.5,-0.3125 4.5,-0.109375 4.5,0 4.609375,0 4.640625,0 5.046875,0 5.46875,-0.03125 5.875,-0.03125 6.125,-0.03125 6.765625,0 7.015625,0 7.0625,0 7.1875,0 7.1875,-0.203125 7.1875,-0.3125 7.09375,-0.3125 6.953125,-0.3125 6.34375,-0.3125 6.34375,-0.375 6.3125,-0.671875 l -0.609375,-6.21875 c -0.015625,-0.203125 -0.015625,-0.25 -0.1875,-0.25 -0.15625,0 -0.203125,0.078125 -0.265625,0.171875 z M 2.984375,-2.609375 4.9375,-5.90625 5.265625,-2.609375 z m 0,0"
               style="stroke:none"
               inkscape:connector-curvature="0" />
          </symbol>
          <symbol
             id="textext-239feb42-2"
             overflow="visible"
             style="overflow:visible">
            <path
               id="path5315"
               d="M 1.59375,-0.78125 C 1.5,-0.390625 1.46875,-0.3125 0.6875,-0.3125 c -0.171875,0 -0.265625,0 -0.265625,0.203125 C 0.421875,0 0.515625,0 0.6875,0 L 4.25,0 C 5.828125,0 7,-1.171875 7,-2.15625 7,-2.875 6.421875,-3.453125 5.453125,-3.5625 6.484375,-3.75 7.53125,-4.484375 7.53125,-5.4375 c 0,-0.734375 -0.65625,-1.375 -1.84375,-1.375 l -3.359375,0 c -0.1875,0 -0.28125,0 -0.28125,0.203125 0,0.109375 0.09375,0.109375 0.28125,0.109375 0.015625,0 0.203125,0 0.375,0.015625 0.171875,0.03125 0.265625,0.03125 0.265625,0.171875 0,0.03125 -0.015625,0.0625 -0.03125,0.1875 z m 1.5,-2.875 0.625,-2.46875 C 3.8125,-6.46875 3.828125,-6.5 4.25,-6.5 l 1.296875,0 c 0.875,0 1.078125,0.59375 1.078125,1.03125 0,0.875 -0.859375,1.8125 -2.0625,1.8125 z m -0.4375,3.34375 c -0.140625,0 -0.15625,0 -0.21875,0 -0.109375,-0.015625 -0.140625,-0.03125 -0.140625,-0.109375 0,-0.03125 0,-0.046875 0.0625,-0.21875 l 0.6875,-2.78125 1.875,0 c 0.953125,0 1.15625,0.734375 1.15625,1.15625 C 6.078125,-1.28125 5.1875,-0.3125 4,-0.3125 z m 0,0"
               style="stroke:none"
               inkscape:connector-curvature="0" />
          </symbol>
          <symbol
             id="textext-239feb42-3"
             overflow="visible"
             style="overflow:visible">
            <path
               id="path5318"
               d=""
               style="stroke:none"
               inkscape:connector-curvature="0" />
          </symbol>
          <symbol
             id="textext-239feb42-4"
             overflow="visible"
             style="overflow:visible">
            <path
               id="path5321"
               d="m 6.09375,-3.78125 c 0,-1.515625 -1.53125,-2.1875 -2.78125,-2.1875 -1.28125,0 -2.765625,0.703125 -2.765625,2.171875 l 0,3.65625 c 0,0.1875 0,0.359375 0.203125,0.359375 0.203125,0 0.203125,-0.171875 0.203125,-0.359375 l 0,-3.609375 c 0,-1.5 1.625,-1.8125 2.359375,-1.8125 0.453125,0 1.078125,0.09375 1.609375,0.421875 C 5.6875,-4.640625 5.6875,-4 5.6875,-3.734375 l 0,3.59375 c 0,0.1875 0,0.359375 0.203125,0.359375 0.203125,0 0.203125,-0.171875 0.203125,-0.359375 z m 0,0"
               style="stroke:none"
               inkscape:connector-curvature="0" />
          </symbol>
        </g>
      </defs>
      <g
         id="textext-239feb42-5">
        <g
           id="g5324"
           style="fill:#000000;fill-opacity:1">
          <use
             id="use5326"
             y="134.765"
             x="223.43201"
             xlink:href="#textext-239feb42-1"
             width="354.33069"
             height="283.46457" />
        </g>
        <g
           id="g5328"
           style="fill:#000000;fill-opacity:1">
          <use
             id="use5330"
             y="134.765"
             x="233.118"
             xlink:href="#textext-239feb42-4"
             width="354.33069"
             height="283.46457" />
        </g>
        <g
           id="g5332"
           style="fill:#000000;fill-opacity:1">
          <use
             id="use5334"
             y="134.765"
             x="241.974"
             xlink:href="#textext-239feb42-2"
             width="354.33069"
             height="283.46457" />
        </g>
      </g>
    </g>
  </g>
</svg>
