<?xml version="1.0" encoding="UTF-8" standalone="no"?>
<!-- Created with Inkscape (http://www.inkscape.org/) -->

<svg
   xmlns:ns0="http://www.iki.fi/pav/software/textext/"
   xmlns:dc="http://purl.org/dc/elements/1.1/"
   xmlns:cc="http://creativecommons.org/ns#"
   xmlns:rdf="http://www.w3.org/1999/02/22-rdf-syntax-ns#"
   xmlns:svg="http://www.w3.org/2000/svg"
   xmlns="http://www.w3.org/2000/svg"
   xmlns:xlink="http://www.w3.org/1999/xlink"
   xmlns:sodipodi="http://sodipodi.sourceforge.net/DTD/sodipodi-0.dtd"
   xmlns:inkscape="http://www.inkscape.org/namespaces/inkscape"
   width="354.33069"
   height="283.46457"
   id="svg2"
   version="1.1"
   inkscape:version="0.48.4 r9939"
   sodipodi:docname="fig8.svg">
  <sodipodi:namedview
     id="base"
     pagecolor="#ffffff"
     bordercolor="#666666"
     borderopacity="1.0"
     inkscape:pageopacity="0.0"
     inkscape:pageshadow="2"
     inkscape:zoom="2.0677519"
     inkscape:cx="142.92841"
     inkscape:cy="119.64404"
     inkscape:document-units="px"
     inkscape:current-layer="layer1"
     showgrid="false"
     units="cm"
     inkscape:window-width="1024"
     inkscape:window-height="744"
     inkscape:window-x="0"
     inkscape:window-y="24"
     inkscape:window-maximized="1" />
  <defs
     id="defs4">
    <marker
       inkscape:stockid="Arrow1Mend"
       orient="auto"
       refY="0.0"
       refX="0.0"
       id="Arrow1Mend"
       style="overflow:visible;">
      <path
         id="path3784"
         d="M 0.0,0.0 L 5.0,-5.0 L -12.5,0.0 L 5.0,5.0 L 0.0,0.0 z "
         style="fill-rule:evenodd;stroke:#000000;stroke-width:1.0pt;"
         transform="scale(0.4) rotate(180) translate(10,0)" />
    </marker>
  </defs>
  <metadata
     id="metadata7">
    <rdf:RDF>
      <cc:Work
         rdf:about="">
        <dc:format>image/svg+xml</dc:format>
        <dc:type
           rdf:resource="http://purl.org/dc/dcmitype/StillImage" />
        <dc:title></dc:title>
      </cc:Work>
    </rdf:RDF>
  </metadata>
  <g
     inkscape:label="Layer 1"
     inkscape:groupmode="layer"
     id="layer1"
     transform="translate(0,-768.89631)">
    <rect
       style="fill:#cccccc;fill-opacity:1;stroke:#000000;stroke-width:1.25;stroke-linecap:round;stroke-linejoin:miter;stroke-miterlimit:4;stroke-opacity:1;stroke-dasharray:none;stroke-dashoffset:0"
       id="rect2985"
       width="155.91"
       height="87.425789"
       x="40.485725"
       y="859.39612"
       rx="0" />
    <text
       xml:space="preserve"
       style="font-size:12px;font-style:normal;font-variant:normal;font-weight:normal;font-stretch:normal;line-height:125%;letter-spacing:0px;word-spacing:0px;fill:#000000;fill-opacity:1;stroke:none;font-family:Nimbus Roman No9 L;-inkscape-font-specification:Nimbus Roman No9 L"
       x="247.00749"
       y="905.22394"
       id="text4157"
       sodipodi:linespacing="125%"><tspan
         sodipodi:role="line"
         id="tspan4159"
         x="247.00749"
         y="905.22394">shaded</tspan></text>
    <g
       transform="matrix(-1,0,0,1,241.55597,0)"
       id="g3010">
      <path
         transform="matrix(0.79558248,0,0,0.7947452,3.436609,796.21558)"
         d="m 155.05842,132.19423 c 0,17.43412 -14.13315,31.56727 -31.56727,31.56727 -17.43412,0 -31.567267,-14.13315 -31.567267,-31.56727 0,-17.43412 14.133147,-31.56727 31.567267,-31.56727 17.43412,0 31.56727,14.13315 31.56727,31.56727 z"
         sodipodi:ry="31.567266"
         sodipodi:rx="31.567266"
         sodipodi:cy="132.19423"
         sodipodi:cx="123.49115"
         id="path2987"
         style="fill:#cccccc;fill-opacity:1;stroke:#000000;stroke-width:1.57200325;stroke-linecap:round;stroke-linejoin:miter;stroke-miterlimit:4;stroke-opacity:1;stroke-dasharray:none;stroke-dashoffset:0"
         sodipodi:type="arc" />
      <path
         sodipodi:type="arc"
         style="fill:#ffffff;fill-opacity:1;stroke:#000000;stroke-width:1.57200325;stroke-linecap:round;stroke-linejoin:miter;stroke-miterlimit:4;stroke-opacity:1;stroke-dasharray:none;stroke-dashoffset:0"
         id="path2989"
         sodipodi:cx="123.49115"
         sodipodi:cy="132.19423"
         sodipodi:rx="31.567266"
         sodipodi:ry="31.567266"
         d="m 155.05842,132.19423 c 0,17.43412 -14.13315,31.56727 -31.56727,31.56727 -17.43412,0 -31.567267,-14.13315 -31.567267,-31.56727 0,-17.43412 14.133147,-31.56727 31.567267,-31.56727 17.43412,0 31.56727,14.13315 31.56727,31.56727 z"
         transform="matrix(0.79558248,0,0,0.7947452,41.624569,796.21558)" />
      <path
         sodipodi:type="arc"
         style="fill:#ffffff;stroke:#000000;stroke-width:1.57200325;stroke-linecap:round;stroke-linejoin:miter;stroke-miterlimit:4;stroke-opacity:1;stroke-dasharray:none;stroke-dashoffset:0"
         id="path2991"
         sodipodi:cx="123.49115"
         sodipodi:cy="132.19423"
         sodipodi:rx="31.567266"
         sodipodi:ry="31.567266"
         d="m 155.05842,132.19423 c 0,17.43412 -14.13315,31.56727 -31.56727,31.56727 -17.43412,0 -31.567267,-14.13315 -31.567267,-31.56727 0,-17.43412 14.133147,-31.56727 31.567267,-31.56727 17.43412,0 31.56727,14.13315 31.56727,31.56727 z"
         transform="matrix(0.79558248,0,0,0.7947452,3.436609,796.21558)" />
      <path
         sodipodi:nodetypes="cc"
         inkscape:connector-curvature="0"
         id="path2993"
         d="m 120.71539,917.43293 c 8.98143,-10.67073 6.96634,-21.34146 0.20092,-32.0122"
         style="fill:none;stroke:#000000;stroke-width:1px;stroke-linecap:butt;stroke-linejoin:miter;stroke-opacity:1" />
      <path
         transform="matrix(0.79558248,0,0,0.7947452,41.624569,796.21558)"
         d="m 155.05842,132.19423 c 0,17.43412 -14.13315,31.56727 -31.56727,31.56727 -17.43412,0 -31.567267,-14.13315 -31.567267,-31.56727 0,-17.43412 14.133147,-31.56727 31.567267,-31.56727 17.43412,0 31.56727,14.13315 31.56727,31.56727 z"
         sodipodi:ry="31.567266"
         sodipodi:rx="31.567266"
         sodipodi:cy="132.19423"
         sodipodi:cx="123.49115"
         id="path3030"
         style="fill:#cccccc;stroke:#000000;stroke-width:1.57200325;stroke-linecap:round;stroke-linejoin:miter;stroke-miterlimit:4;stroke-opacity:1;stroke-dasharray:none;stroke-dashoffset:0"
         sodipodi:type="arc" />
      <path
         transform="matrix(0.79558248,0,0,0.7947452,3.436609,796.21558)"
         d="m 155.05842,132.19423 c 0,17.43412 -14.13315,31.56727 -31.56727,31.56727 -17.43412,0 -31.567267,-14.13315 -31.567267,-31.56727 0,-17.43412 14.133147,-31.56727 31.567267,-31.56727 17.43412,0 31.56727,14.13315 31.56727,31.56727 z"
         sodipodi:ry="31.567266"
         sodipodi:rx="31.567266"
         sodipodi:cy="132.19423"
         sodipodi:cx="123.49115"
         id="path3199"
         style="fill:none;stroke:#000000;stroke-width:1.57200325;stroke-linecap:round;stroke-linejoin:miter;stroke-miterlimit:4;stroke-opacity:1;stroke-dasharray:none;stroke-dashoffset:0"
         sodipodi:type="arc" />
      <path
         sodipodi:nodetypes="ccc"
         inkscape:connector-curvature="0"
         id="path3239"
         d="m 120.88576,885.2236 c 8.78764,9.8962 7.84354,20.99629 0,32.48702 -7.84353,-11.49073 -8.78763,-22.59082 0,-32.48702 z"
         style="fill:#ffffff;stroke:#000000;stroke-width:1px;stroke-linecap:butt;stroke-linejoin:miter;stroke-opacity:1" />
    </g>
    <g
       id="g3037"
       transform="matrix(1.2,0,0,1.2,-41.978938,744.13504)"
       ns0:preamble="/home/sriranga/Desktop/CSY/figure/package.tex"
       ns0:text="$B\'$">
      <defs
         id="defs3039">
        <g
           id="g3041">
          <symbol
             id="textext-7101dedd-0"
             overflow="visible">
            <path
               id="path3044"
               d=""
               style="stroke:none;" />
          </symbol>
          <symbol
             id="textext-7101dedd-1"
             overflow="visible">
            <path
               id="path3047"
               d="M 1.59375 -0.78125 C 1.5 -0.390625 1.46875 -0.3125 0.6875 -0.3125 C 0.515625 -0.3125 0.421875 -0.3125 0.421875 -0.109375 C 0.421875 0 0.515625 0 0.6875 0 L 4.25 0 C 5.828125 0 7 -1.171875 7 -2.15625 C 7 -2.875 6.421875 -3.453125 5.453125 -3.5625 C 6.484375 -3.75 7.53125 -4.484375 7.53125 -5.4375 C 7.53125 -6.171875 6.875 -6.8125 5.6875 -6.8125 L 2.328125 -6.8125 C 2.140625 -6.8125 2.046875 -6.8125 2.046875 -6.609375 C 2.046875 -6.5 2.140625 -6.5 2.328125 -6.5 C 2.34375 -6.5 2.53125 -6.5 2.703125 -6.484375 C 2.875 -6.453125 2.96875 -6.453125 2.96875 -6.3125 C 2.96875 -6.28125 2.953125 -6.25 2.9375 -6.125 Z M 3.09375 -3.65625 L 3.71875 -6.125 C 3.8125 -6.46875 3.828125 -6.5 4.25 -6.5 L 5.546875 -6.5 C 6.421875 -6.5 6.625 -5.90625 6.625 -5.46875 C 6.625 -4.59375 5.765625 -3.65625 4.5625 -3.65625 Z M 2.65625 -0.3125 C 2.515625 -0.3125 2.5 -0.3125 2.4375 -0.3125 C 2.328125 -0.328125 2.296875 -0.34375 2.296875 -0.421875 C 2.296875 -0.453125 2.296875 -0.46875 2.359375 -0.640625 L 3.046875 -3.421875 L 4.921875 -3.421875 C 5.875 -3.421875 6.078125 -2.6875 6.078125 -2.265625 C 6.078125 -1.28125 5.1875 -0.3125 4 -0.3125 Z M 2.65625 -0.3125 "
               style="stroke:none;" />
          </symbol>
          <symbol
             id="textext-7101dedd-2"
             overflow="visible">
            <path
               id="path3050"
               d=""
               style="stroke:none;" />
          </symbol>
          <symbol
             id="textext-7101dedd-3"
             overflow="visible">
            <path
               id="path3053"
               d="M 2.015625 -3.296875 C 2.078125 -3.40625 2.078125 -3.46875 2.078125 -3.515625 C 2.078125 -3.734375 1.890625 -3.890625 1.671875 -3.890625 C 1.40625 -3.890625 1.328125 -3.671875 1.296875 -3.5625 L 0.375 -0.546875 C 0.359375 -0.53125 0.328125 -0.453125 0.328125 -0.4375 C 0.328125 -0.359375 0.546875 -0.28125 0.609375 -0.28125 C 0.65625 -0.28125 0.65625 -0.296875 0.703125 -0.40625 Z M 2.015625 -3.296875 "
               style="stroke:none;" />
          </symbol>
        </g>
      </defs>
      <g
         id="textext-7101dedd-4">
        <g
           id="g3056"
           style="fill:rgb(0%,0%,0%);fill-opacity:1;">
          <use
             id="use3058"
             y="134.765"
             x="223.432"
             xlink:href="#textext-7101dedd-1" />
        </g>
        <g
           id="g3060"
           style="fill:rgb(0%,0%,0%);fill-opacity:1;">
          <use
             id="use3062"
             y="131.15"
             x="231.489"
             xlink:href="#textext-7101dedd-3" />
        </g>
      </g>
    </g>
  </g>
</svg>
