<?xml version="1.0" encoding="UTF-8" standalone="no"?>
<!-- Created with Inkscape (http://www.inkscape.org/) -->

<svg
   xmlns:dc="http://purl.org/dc/elements/1.1/"
   xmlns:cc="http://creativecommons.org/ns#"
   xmlns:rdf="http://www.w3.org/1999/02/22-rdf-syntax-ns#"
   xmlns:svg="http://www.w3.org/2000/svg"
   xmlns="http://www.w3.org/2000/svg"
   xmlns:sodipodi="http://sodipodi.sourceforge.net/DTD/sodipodi-0.dtd"
   xmlns:inkscape="http://www.inkscape.org/namespaces/inkscape"
   width="10cm"
   height="10cm"
   viewBox="0 0 100 100"
   version="1.1"
   id="svg882"
   inkscape:version="0.92.4 (unknown)"
   sodipodi:docname="fig1-16d2.svg">
  <defs
     id="defs876">
    <marker
       inkscape:stockid="Arrow1Mend"
       orient="auto"
       refY="0.0"
       refX="0.0"
       id="marker18323"
       style="overflow:visible;"
       inkscape:isstock="true">
      <path
         id="path18321"
         d="M 0.0,0.0 L 5.0,-5.0 L -12.5,0.0 L 5.0,5.0 L 0.0,0.0 z "
         style="fill-rule:evenodd;stroke:#000000;stroke-width:1pt;stroke-opacity:1;fill:#000000;fill-opacity:1"
         transform="scale(0.4) rotate(180) translate(10,0)" />
    </marker>
    <marker
       inkscape:isstock="true"
       style="overflow:visible;"
       id="marker15998"
       refX="0.0"
       refY="0.0"
       orient="auto"
       inkscape:stockid="Arrow1Mend">
      <path
         transform="scale(0.4) rotate(180) translate(10,0)"
         style="fill-rule:evenodd;stroke:#000000;stroke-width:1pt;stroke-opacity:1;fill:#000000;fill-opacity:1"
         d="M 0.0,0.0 L 5.0,-5.0 L -12.5,0.0 L 5.0,5.0 L 0.0,0.0 z "
         id="path15996" />
    </marker>
    <marker
       inkscape:stockid="Arrow1Mend"
       orient="auto"
       refY="0.0"
       refX="0.0"
       id="marker11689"
       style="overflow:visible;"
       inkscape:isstock="true">
      <path
         id="path11687"
         d="M 0.0,0.0 L 5.0,-5.0 L -12.5,0.0 L 5.0,5.0 L 0.0,0.0 z "
         style="fill-rule:evenodd;stroke:#000000;stroke-width:1pt;stroke-opacity:1;fill:#000000;fill-opacity:1"
         transform="scale(0.4) rotate(180) translate(10,0)" />
    </marker>
  </defs>
  <sodipodi:namedview
     id="base"
     pagecolor="#ffffff"
     bordercolor="#666666"
     borderopacity="1.0"
     inkscape:pageopacity="0.0"
     inkscape:pageshadow="2"
     inkscape:zoom="1.023375"
     inkscape:cx="166.28445"
     inkscape:cy="235.72674"
     inkscape:document-units="cm"
     inkscape:current-layer="layer1"
     showgrid="false"
     units="cm"
     inkscape:window-width="753"
     inkscape:window-height="716"
     inkscape:window-x="12"
     inkscape:window-y="24"
     inkscape:window-maximized="0"
     showguides="false"
     inkscape:guide-bbox="true">
    <inkscape:grid
       id="grid1452"
       type="xygrid" />
  </sodipodi:namedview>
  <metadata
     id="metadata879">
    <rdf:RDF>
      <cc:Work
         rdf:about="">
        <dc:format>image/svg+xml</dc:format>
        <dc:type
           rdf:resource="http://purl.org/dc/dcmitype/StillImage" />
        <dc:title></dc:title>
      </cc:Work>
    </rdf:RDF>
  </metadata>
  <g
     inkscape:label="Layer 1"
     inkscape:groupmode="layer"
     id="layer1"
     transform="translate(0,-197.00001)">
    <rect
       style="color:#000000;clip-rule:nonzero;display:inline;overflow:visible;visibility:visible;opacity:1;isolation:auto;mix-blend-mode:normal;color-interpolation:sRGB;color-interpolation-filters:linearRGB;solid-color:#000000;solid-opacity:1;fill:none;fill-opacity:1;fill-rule:evenodd;stroke:#000000;stroke-width:0.26458332;stroke-linecap:butt;stroke-linejoin:round;stroke-miterlimit:4;stroke-dasharray:none;stroke-dashoffset:0;stroke-opacity:1;color-rendering:auto;image-rendering:auto;shape-rendering:auto;text-rendering:auto;enable-background:accumulate"
       id="rect871"
       width="37.041668"
       height="37.041668"
       x="10.583333"
       y="225.56252" />
    <g
       id="g1136">
      <path
         transform="translate(0,197.00001)"
         d="M 47.624998,47.083336 42.200372,60.179542 29.104166,65.604168 16.00796,60.179542 10.583334,47.083336 16.00796,33.98713 29.104166,28.562504 42.200372,33.98713 Z"
         inkscape:randomized="2.08167e-17"
         inkscape:rounded="0"
         inkscape:flatsided="true"
         sodipodi:arg2="0.39269908"
         sodipodi:arg1="0"
         sodipodi:r2="17.111019"
         sodipodi:r1="18.520832"
         sodipodi:cy="47.083336"
         sodipodi:cx="29.104166"
         sodipodi:sides="8"
         id="path869"
         style="color:#000000;clip-rule:nonzero;display:inline;overflow:visible;visibility:visible;opacity:1;isolation:auto;mix-blend-mode:normal;color-interpolation:sRGB;color-interpolation-filters:linearRGB;solid-color:#000000;solid-opacity:1;fill:none;fill-opacity:1;fill-rule:nonzero;stroke:#000000;stroke-width:0.26458332;stroke-linecap:round;stroke-linejoin:round;stroke-miterlimit:4;stroke-dasharray:none;stroke-dashoffset:0;stroke-opacity:1;color-rendering:auto;image-rendering:auto;shape-rendering:auto;text-rendering:auto;enable-background:accumulate"
         sodipodi:type="star" />
      <path
         id="path1134"
         transform="translate(0,197.00001)"
         style="stroke:#000000;stroke-width:0.26458332;fill:none"
         d="M 16.256860,33.884032 l -0.729739,1.263945 M 13.044820,41.140782 l 4.496974,-7.788987 M 18.826728,32.819558 l -8.239969,14.272045 M 10.995158,48.077568 l 9.116503,-15.790246 M 21.396595,31.755084 l -9.993037,17.308448 M 11.811958,50.049496 l 10.869571,-18.826649 M 23.966462,30.690611 l -11.746105,20.344850 M 12.628757,52.021425 l 12.622638,-21.863051 M 26.536329,29.626137 l -13.499172,23.381252 M 13.445557,53.993353 l 14.375706,-24.899453 M 29.105413,28.563020 l -15.251456,26.416297 M 14.262356,55.965282 l 15.632024,-27.075460 M 30.683348,29.216623 l -16.012592,27.734623 M 15.079156,57.937210 l 16.393160,-28.393786 M 32.261284,29.870225 l -16.773728,29.052950 M 15.895955,59.909139 l 17.154296,-29.712113 M 33.839219,30.523827 l -17.258668,29.892890 M 17.369519,60.743518 l 17.258668,-29.892890 M 35.417155,31.177430 l -17.258668,29.892890 M 18.947455,61.397120 l 17.258668,-29.892890 M 36.995090,31.831032 l -17.258668,29.892890 M 20.525390,62.050723 l 17.258668,-29.892890 M 38.573026,32.484634 l -17.258668,29.892890 M 22.103326,62.704325 l 17.258668,-29.892890 M 40.150961,33.138236 l -17.258668,29.892890 M 23.681261,63.357927 l 17.258668,-29.892890 M 41.728897,33.791839 l -17.258668,29.892890 M 25.259197,64.011530 l 17.105522,-29.627633 M 42.773118,35.369861 l -16.724954,28.968469 M 26.837132,64.665132 l 16.344386,-28.309306 M 43.589918,37.341790 l -15.963818,27.650143 M 28.415068,65.318734 l 15.583250,-26.990980 M 44.406717,39.313718 l -15.139901,26.223078 M 30.551750,65.004559 l 14.263367,-24.704877 M 45.223517,41.285647 l -13.386833,23.186676 M 33.121617,63.940085 l 12.510300,-21.668474 M 46.040316,43.257575 l -11.633766,20.150273 M 35.691484,62.875612 l 10.757232,-18.632072 M 46.857116,45.229504 l -9.880698,17.113871 M 38.261351,61.811138 l 9.004164,-15.595670 M 47.327674,47.801139 l -7.781390,13.477762 M 40.831218,60.746664 l 4.014155,-6.952721 M 42.363073,59.786748 l -0.246921,0.427679" />
    </g>
    <path
       style="color:#000000;clip-rule:nonzero;display:inline;overflow:visible;visibility:visible;opacity:1;isolation:auto;mix-blend-mode:normal;color-interpolation:sRGB;color-interpolation-filters:linearRGB;solid-color:#000000;solid-opacity:1;fill:none;fill-opacity:1;fill-rule:nonzero;stroke:#000000;stroke-width:0.26;stroke-linecap:round;stroke-linejoin:round;stroke-miterlimit:4;stroke-dasharray:1.03999999,1.03999999;stroke-dashoffset:0;stroke-opacity:1;color-rendering:auto;image-rendering:auto;shape-rendering:auto;text-rendering:auto;enable-background:accumulate"
       d="M 10.583333,262.60418 47.624999,225.56251"
       id="path1144"
       inkscape:connector-curvature="0" />
    <path
       inkscape:connector-curvature="0"
       id="path1146"
       d="M 47.624999,262.60418 10.583333,225.56251"
       style="color:#000000;clip-rule:nonzero;display:inline;overflow:visible;visibility:visible;opacity:1;isolation:auto;mix-blend-mode:normal;color-interpolation:sRGB;color-interpolation-filters:linearRGB;solid-color:#000000;solid-opacity:1;fill:none;fill-opacity:1;fill-rule:nonzero;stroke:#000000;stroke-width:0.25999999;stroke-linecap:round;stroke-linejoin:round;stroke-miterlimit:4;stroke-dasharray:1.03999999, 1.03999999;stroke-dashoffset:0;stroke-opacity:1;color-rendering:auto;image-rendering:auto;shape-rendering:auto;text-rendering:auto;enable-background:accumulate" />
    <path
       style="color:#000000;clip-rule:nonzero;display:inline;overflow:visible;visibility:visible;opacity:1;isolation:auto;mix-blend-mode:normal;color-interpolation:sRGB;color-interpolation-filters:linearRGB;solid-color:#000000;solid-opacity:1;fill:none;fill-opacity:1;fill-rule:nonzero;stroke:#000000;stroke-width:0.25999999;stroke-linecap:round;stroke-linejoin:round;stroke-miterlimit:4;stroke-dasharray:1.03999998, 1.03999998;stroke-dashoffset:0;stroke-opacity:1;color-rendering:auto;image-rendering:auto;shape-rendering:auto;text-rendering:auto;enable-background:accumulate"
       d="m 29.104167,262.60418 -1e-6,-37.04167"
       id="path1148"
       inkscape:connector-curvature="0" />
    <path
       inkscape:connector-curvature="0"
       id="path1150"
       d="m 10.583333,244.08335 37.041666,-1e-5"
       style="color:#000000;clip-rule:nonzero;display:inline;overflow:visible;visibility:visible;opacity:1;isolation:auto;mix-blend-mode:normal;color-interpolation:sRGB;color-interpolation-filters:linearRGB;solid-color:#000000;solid-opacity:1;fill:none;fill-opacity:1;fill-rule:nonzero;stroke:#000000;stroke-width:0.25999999;stroke-linecap:round;stroke-linejoin:round;stroke-miterlimit:4;stroke-dasharray:1.03999998, 1.03999998;stroke-dashoffset:0;stroke-opacity:1;color-rendering:auto;image-rendering:auto;shape-rendering:auto;text-rendering:auto;enable-background:accumulate" />
    <g
       id="g1158"
       transform="matrix(-1,0,0,1,106.01768,0)">
      <path
         sodipodi:type="star"
         style="color:#000000;clip-rule:nonzero;display:inline;overflow:visible;visibility:visible;opacity:1;isolation:auto;mix-blend-mode:normal;color-interpolation:sRGB;color-interpolation-filters:linearRGB;solid-color:#000000;solid-opacity:1;fill:none;fill-opacity:1;fill-rule:nonzero;stroke:#000000;stroke-width:0.26458332;stroke-linecap:round;stroke-linejoin:round;stroke-miterlimit:4;stroke-dasharray:none;stroke-dashoffset:0;stroke-opacity:1;color-rendering:auto;image-rendering:auto;shape-rendering:auto;text-rendering:auto;enable-background:accumulate"
         id="path1154"
         sodipodi:sides="8"
         sodipodi:cx="29.104166"
         sodipodi:cy="47.083336"
         sodipodi:r1="18.520832"
         sodipodi:r2="17.111019"
         sodipodi:arg1="0"
         sodipodi:arg2="0.39269908"
         inkscape:flatsided="true"
         inkscape:rounded="0"
         inkscape:randomized="2.08167e-17"
         d="M 47.624998,47.083336 42.200372,60.179542 29.104166,65.604168 16.00796,60.179542 10.583334,47.083336 16.00796,33.98713 29.104166,28.562504 42.200372,33.98713 Z"
         transform="translate(0,197.00001)" />
      <path
         d="m 16.25686,33.884032 -0.729739,1.263945 m -2.482301,5.992805 4.496974,-7.788987 m 1.284934,-0.532237 -8.239969,14.272045 m 0.408399,0.985965 9.116503,-15.790246 m 1.284934,-0.532238 -9.993037,17.308448 m 0.4084,0.985964 10.869571,-18.826649 m 1.284933,-0.532236 -11.746105,20.34485 m 0.4084,0.985964 12.622638,-21.863051 m 1.284934,-0.532237 -13.499172,23.381252 m 0.4084,0.985964 L 27.821263,29.0939 m 1.28415,-0.53088 -15.251456,26.416297 m 0.408399,0.985965 15.632024,-27.07546 m 0.788968,0.326801 -16.012592,27.734623 m 0.4084,0.985964 16.39316,-28.393786 m 0.788968,0.326801 -16.773728,29.05295 m 0.408399,0.985964 17.154296,-29.712113 m 0.788968,0.326801 -17.258668,29.89289 m 0.788968,0.326801 17.258668,-29.89289 m 0.788968,0.326802 -17.258668,29.89289 m 0.788968,0.3268 17.258668,-29.89289 m 0.788967,0.326802 -17.258668,29.89289 m 0.788968,0.326801 17.258668,-29.89289 m 0.788968,0.326801 -17.258668,29.89289 m 0.788968,0.326801 17.258668,-29.89289 m 0.788967,0.326801 -17.258668,29.89289 m 0.788968,0.326801 17.258668,-29.89289 m 0.788968,0.326802 -17.258668,29.89289 m 0.788968,0.326801 17.105522,-29.627633 m 0.408399,0.985964 -16.724954,28.968469 m 0.788968,0.326802 16.344386,-28.309306 m 0.4084,0.985964 L 27.6261,64.991933 m 0.788968,0.326801 15.58325,-26.99098 m 0.408399,0.985964 -15.139901,26.223078 M 30.55175,65.004559 44.815117,40.299682 m 0.4084,0.985965 -13.386833,23.186676 m 1.284933,-0.532238 12.5103,-21.668474 M 46.040316,43.257575 34.40655,63.407848 M 35.691484,62.875612 46.448716,44.24354 m 0.4084,0.985964 -9.880698,17.113871 m 1.284933,-0.532237 9.004164,-15.59567 m 0.06216,1.585671 -7.78139,13.477762 m 1.284934,-0.532237 4.014155,-6.952721 m -2.4823,5.992805 -0.246921,0.427679"
         style="fill:none;stroke:#000000;stroke-width:0.26458332"
         transform="translate(0,197.00001)"
         id="path1156"
         inkscape:connector-curvature="0" />
    </g>
    <path
       inkscape:connector-curvature="0"
       id="path1160"
       d="M 90.142678,257.31251 63.684345,230.85418"
       style="color:#000000;clip-rule:nonzero;display:inline;overflow:visible;visibility:visible;opacity:1;isolation:auto;mix-blend-mode:normal;color-interpolation:sRGB;color-interpolation-filters:linearRGB;solid-color:#000000;solid-opacity:1;fill:none;fill-opacity:1;fill-rule:nonzero;stroke:#000000;stroke-width:0.25999999;stroke-linecap:round;stroke-linejoin:round;stroke-miterlimit:4;stroke-dasharray:1.03999999, 1.03999999;stroke-dashoffset:0;stroke-opacity:1;color-rendering:auto;image-rendering:auto;shape-rendering:auto;text-rendering:auto;enable-background:accumulate" />
    <path
       style="color:#000000;clip-rule:nonzero;display:inline;overflow:visible;visibility:visible;opacity:1;isolation:auto;mix-blend-mode:normal;color-interpolation:sRGB;color-interpolation-filters:linearRGB;solid-color:#000000;solid-opacity:1;fill:none;fill-opacity:1;fill-rule:nonzero;stroke:#000000;stroke-width:0.25999999;stroke-linecap:round;stroke-linejoin:round;stroke-miterlimit:4;stroke-dasharray:1.03999999, 1.03999999;stroke-dashoffset:0;stroke-opacity:1;color-rendering:auto;image-rendering:auto;shape-rendering:auto;text-rendering:auto;enable-background:accumulate"
       d="M 63.684345,257.31251 90.142678,230.85418"
       id="path1162"
       inkscape:connector-curvature="0" />
    <path
       inkscape:connector-curvature="0"
       id="path1164"
       d="m 76.913511,262.60418 10e-7,-37.04167"
       style="color:#000000;clip-rule:nonzero;display:inline;overflow:visible;visibility:visible;opacity:1;isolation:auto;mix-blend-mode:normal;color-interpolation:sRGB;color-interpolation-filters:linearRGB;solid-color:#000000;solid-opacity:1;fill:none;fill-opacity:1;fill-rule:nonzero;stroke:#000000;stroke-width:0.25999999;stroke-linecap:round;stroke-linejoin:round;stroke-miterlimit:4;stroke-dasharray:1.03999998, 1.03999998;stroke-dashoffset:0;stroke-opacity:1;color-rendering:auto;image-rendering:auto;shape-rendering:auto;text-rendering:auto;enable-background:accumulate" />
    <path
       style="color:#000000;clip-rule:nonzero;display:inline;overflow:visible;visibility:visible;opacity:1;isolation:auto;mix-blend-mode:normal;color-interpolation:sRGB;color-interpolation-filters:linearRGB;solid-color:#000000;solid-opacity:1;fill:none;fill-opacity:1;fill-rule:nonzero;stroke:#000000;stroke-width:0.25999999;stroke-linecap:round;stroke-linejoin:round;stroke-miterlimit:4;stroke-dasharray:1.03999998, 1.03999998;stroke-dashoffset:0;stroke-opacity:1;color-rendering:auto;image-rendering:auto;shape-rendering:auto;text-rendering:auto;enable-background:accumulate"
       d="m 95.434345,244.08335 -37.041666,-1e-5"
       id="path1166"
       inkscape:connector-curvature="0" />
    <path
       style="color:#000000;clip-rule:nonzero;display:inline;overflow:visible;visibility:visible;opacity:1;isolation:auto;mix-blend-mode:normal;color-interpolation:sRGB;color-interpolation-filters:linearRGB;solid-color:#000000;solid-opacity:1;fill:none;fill-opacity:1;fill-rule:nonzero;stroke:#000000;stroke-width:0.26458332;stroke-linecap:round;stroke-linejoin:round;stroke-miterlimit:4;stroke-dasharray:none;stroke-dashoffset:0;stroke-opacity:1;marker-end:url(#marker18323);color-rendering:auto;image-rendering:auto;shape-rendering:auto;text-rendering:auto;enable-background:accumulate"
       d="m 49.76894,243.99932 h 6.075691"
       id="path1168"
       inkscape:connector-curvature="0" />
  </g>
</svg>
