<?xml version="1.0" encoding="UTF-8" standalone="no"?>
<!-- Created with Inkscape (http://www.inkscape.org/) -->

<svg
   xmlns:dc="http://purl.org/dc/elements/1.1/"
   xmlns:cc="http://creativecommons.org/ns#"
   xmlns:rdf="http://www.w3.org/1999/02/22-rdf-syntax-ns#"
   xmlns:svg="http://www.w3.org/2000/svg"
   xmlns="http://www.w3.org/2000/svg"
   xmlns:sodipodi="http://sodipodi.sourceforge.net/DTD/sodipodi-0.dtd"
   xmlns:inkscape="http://www.inkscape.org/namespaces/inkscape"
   sodipodi:docname="fig1-25.svg"
   inkscape:version="0.92.4 (unknown)"
   id="svg882"
   version="1.1"
   viewBox="0 0 100 100"
   height="10cm"
   width="10cm">
  <defs
     id="defs876">
    <marker
       inkscape:isstock="true"
       style="overflow:visible;"
       id="marker11175"
       refX="0.0"
       refY="0.0"
       orient="auto"
       inkscape:stockid="Arrow1Mend">
      <path
         transform="scale(0.4) rotate(180) translate(10,0)"
         style="fill-rule:evenodd;stroke:#000000;stroke-width:1pt;stroke-opacity:1;fill:#000000;fill-opacity:1"
         d="M 0.0,0.0 L 5.0,-5.0 L -12.5,0.0 L 5.0,5.0 L 0.0,0.0 z "
         id="path11173" />
    </marker>
    <marker
       inkscape:isstock="true"
       style="overflow:visible;"
       id="marker10825"
       refX="0.0"
       refY="0.0"
       orient="auto"
       inkscape:stockid="Arrow1Mend">
      <path
         transform="scale(0.4) rotate(180) translate(10,0)"
         style="fill-rule:evenodd;stroke:#000000;stroke-width:1pt;stroke-opacity:1;fill:#000000;fill-opacity:1"
         d="M 0.0,0.0 L 5.0,-5.0 L -12.5,0.0 L 5.0,5.0 L 0.0,0.0 z "
         id="path10823" />
    </marker>
    <marker
       inkscape:stockid="Arrow1Mend"
       orient="auto"
       refY="0.0"
       refX="0.0"
       id="marker9835"
       style="overflow:visible;"
       inkscape:isstock="true">
      <path
         id="path9833"
         d="M 0.0,0.0 L 5.0,-5.0 L -12.5,0.0 L 5.0,5.0 L 0.0,0.0 z "
         style="fill-rule:evenodd;stroke:#000000;stroke-width:1pt;stroke-opacity:1;fill:#000000;fill-opacity:1"
         transform="scale(0.4) rotate(180) translate(10,0)" />
    </marker>
    <marker
       inkscape:stockid="Arrow1Mend"
       orient="auto"
       refY="0.0"
       refX="0.0"
       id="marker9495"
       style="overflow:visible;"
       inkscape:isstock="true">
      <path
         id="path9493"
         d="M 0.0,0.0 L 5.0,-5.0 L -12.5,0.0 L 5.0,5.0 L 0.0,0.0 z "
         style="fill-rule:evenodd;stroke:#000000;stroke-width:1pt;stroke-opacity:1;fill:#000000;fill-opacity:1"
         transform="scale(0.4) rotate(180) translate(10,0)" />
    </marker>
    <marker
       inkscape:isstock="true"
       style="overflow:visible;"
       id="marker4227"
       refX="0.0"
       refY="0.0"
       orient="auto"
       inkscape:stockid="Arrow1Mend">
      <path
         transform="scale(0.4) rotate(180) translate(10,0)"
         style="fill-rule:evenodd;stroke:#000000;stroke-width:1pt;stroke-opacity:1;fill:#000000;fill-opacity:1"
         d="M 0.0,0.0 L 5.0,-5.0 L -12.5,0.0 L 5.0,5.0 L 0.0,0.0 z "
         id="path4225" />
    </marker>
    <marker
       inkscape:isstock="true"
       style="overflow:visible;"
       id="marker15998"
       refX="0.0"
       refY="0.0"
       orient="auto"
       inkscape:stockid="Arrow1Mend">
      <path
         transform="scale(0.4) rotate(180) translate(10,0)"
         style="fill-rule:evenodd;stroke:#000000;stroke-width:1pt;stroke-opacity:1;fill:#000000;fill-opacity:1"
         d="M 0.0,0.0 L 5.0,-5.0 L -12.5,0.0 L 5.0,5.0 L 0.0,0.0 z "
         id="path15996" />
    </marker>
    <marker
       inkscape:stockid="Arrow1Mend"
       orient="auto"
       refY="0.0"
       refX="0.0"
       id="marker11689"
       style="overflow:visible;"
       inkscape:isstock="true">
      <path
         id="path11687"
         d="M 0.0,0.0 L 5.0,-5.0 L -12.5,0.0 L 5.0,5.0 L 0.0,0.0 z "
         style="fill-rule:evenodd;stroke:#000000;stroke-width:1pt;stroke-opacity:1;fill:#000000;fill-opacity:1"
         transform="scale(0.4) rotate(180) translate(10,0)" />
    </marker>
  </defs>
  <sodipodi:namedview
     id="base"
     pagecolor="#ffffff"
     bordercolor="#666666"
     borderopacity="1.0"
     inkscape:pageopacity="0.0"
     inkscape:pageshadow="2"
     inkscape:zoom="2.1215855"
     inkscape:cx="286.2814"
     inkscape:cy="255.78139"
     inkscape:document-units="cm"
     inkscape:current-layer="layer1"
     showgrid="false"
     units="cm"
     inkscape:window-width="773"
     inkscape:window-height="716"
     inkscape:window-x="12"
     inkscape:window-y="24"
     inkscape:window-maximized="0"
     showguides="true"
     inkscape:guide-bbox="true">
    <inkscape:grid
       type="xygrid"
       id="grid1452" />
  </sodipodi:namedview>
  <metadata
     id="metadata879">
    <rdf:RDF>
      <cc:Work
         rdf:about="">
        <dc:format>image/svg+xml</dc:format>
        <dc:type
           rdf:resource="http://purl.org/dc/dcmitype/StillImage" />
        <dc:title></dc:title>
      </cc:Work>
    </rdf:RDF>
  </metadata>
  <g
     inkscape:label="Layer 1"
     inkscape:groupmode="layer"
     id="layer1"
     transform="translate(0,-197.00001)">
    <g
       id="g11289"
       transform="translate(0.40621751,-0.14518929)">
      <path
         style="color:#000000;clip-rule:nonzero;display:inline;overflow:visible;visibility:visible;opacity:1;isolation:auto;mix-blend-mode:normal;color-interpolation:sRGB;color-interpolation-filters:linearRGB;solid-color:#000000;solid-opacity:1;fill:none;fill-opacity:1;fill-rule:nonzero;stroke:#000000;stroke-width:0.21166667;stroke-linecap:round;stroke-linejoin:round;stroke-miterlimit:4;stroke-dasharray:none;stroke-dashoffset:0;stroke-opacity:1;color-rendering:auto;image-rendering:auto;shape-rendering:auto;text-rendering:auto;enable-background:accumulate"
         d="m 73.69562,215.16986 c 5.845016,0 10.583337,4.73832 10.583333,10.58334 -2e-6,5.84501 -4.738321,10.58333 -10.583333,10.58333"
         id="path9181"
         inkscape:connector-curvature="0"
         sodipodi:nodetypes="csc" />
      <path
         sodipodi:nodetypes="csc"
         inkscape:connector-curvature="0"
         id="path9185"
         d="m 73.69562,236.33653 c -5.845016,0 -10.583337,-4.73832 -10.583333,-10.58334 2e-6,-5.84501 4.738321,-10.58333 10.583333,-10.58333"
         style="color:#000000;clip-rule:nonzero;display:inline;overflow:visible;visibility:visible;opacity:1;isolation:auto;mix-blend-mode:normal;color-interpolation:sRGB;color-interpolation-filters:linearRGB;solid-color:#000000;solid-opacity:1;fill:none;fill-opacity:1;fill-rule:nonzero;stroke:#000000;stroke-width:0.21166667;stroke-linecap:round;stroke-linejoin:round;stroke-miterlimit:4;stroke-dasharray:none;stroke-dashoffset:0;stroke-opacity:1;color-rendering:auto;image-rendering:auto;shape-rendering:auto;text-rendering:auto;enable-background:accumulate" />
    </g>
    <circle
       id="path11285"
       style="fill:#000000;stroke:none"
       cx="74.101845"
       cy="225.608"
       r="0.75" />
    <text
       xml:space="preserve"
       style="font-style:normal;font-variant:normal;font-weight:normal;font-stretch:normal;font-size:4.23333311px;line-height:125%;font-family:LMRoman12;-inkscape-font-specification:LMRoman12;text-align:center;letter-spacing:0px;word-spacing:0px;writing-mode:lr-tb;text-anchor:middle;fill:#000000;fill-opacity:1;stroke:none;stroke-width:0.26458332px;stroke-linecap:butt;stroke-linejoin:miter;stroke-opacity:1"
       x="71.865166"
       y="228.76306"
       id="text11293"><tspan
         sodipodi:role="line"
         id="tspan11291"
         x="71.865166"
         y="228.76306"
         style="stroke-width:0.26458332px">O</tspan></text>
    <path
       style="color:#000000;clip-rule:nonzero;display:inline;overflow:visible;visibility:visible;opacity:1;isolation:auto;mix-blend-mode:normal;color-interpolation:sRGB;color-interpolation-filters:linearRGB;solid-color:#000000;solid-opacity:1;fill:none;fill-opacity:1;fill-rule:nonzero;stroke:#000000;stroke-width:0.26458332;stroke-linecap:round;stroke-linejoin:round;stroke-miterlimit:4;stroke-dasharray:none;stroke-dashoffset:0;stroke-opacity:1;color-rendering:auto;image-rendering:auto;shape-rendering:auto;text-rendering:auto;enable-background:accumulate"
       d="m 63.85163,225.57323 -0.644214,2e-5"
       id="path11528"
       inkscape:connector-curvature="0"
       sodipodi:nodetypes="cc"
       inkscape:transform-center-x="0.30913891" />
    <path
       inkscape:transform-center-x="10.554151"
       sodipodi:nodetypes="cc"
       inkscape:connector-curvature="0"
       id="path11530"
       d="m 63.85163,225.57323 -0.644214,2e-5"
       style="color:#000000;clip-rule:nonzero;display:inline;overflow:visible;visibility:visible;opacity:1;isolation:auto;mix-blend-mode:normal;color-interpolation:sRGB;color-interpolation-filters:linearRGB;solid-color:#000000;solid-opacity:1;fill:none;fill-opacity:1;fill-rule:nonzero;stroke:#000000;stroke-width:0.26458332;stroke-linecap:round;stroke-linejoin:round;stroke-miterlimit:4;stroke-dasharray:none;stroke-dashoffset:0;stroke-opacity:1;color-rendering:auto;image-rendering:auto;shape-rendering:auto;text-rendering:auto;enable-background:accumulate"
       inkscape:transform-center-y="0.0096450618" />
    <path
       inkscape:transform-center-y="-5.268725"
       style="color:#000000;clip-rule:nonzero;display:inline;overflow:visible;visibility:visible;opacity:1;isolation:auto;mix-blend-mode:normal;color-interpolation:sRGB;color-interpolation-filters:linearRGB;solid-color:#000000;solid-opacity:1;fill:none;fill-opacity:1;fill-rule:nonzero;stroke:#000000;stroke-width:0.26458332;stroke-linecap:round;stroke-linejoin:round;stroke-miterlimit:4;stroke-dasharray:none;stroke-dashoffset:0;stroke-opacity:1;color-rendering:auto;image-rendering:auto;shape-rendering:auto;text-rendering:auto;enable-background:accumulate"
       d="m 65.217647,220.45591 -0.557915,-0.32208"
       id="path11532"
       inkscape:connector-curvature="0"
       sodipodi:nodetypes="cc"
       inkscape:transform-center-x="9.1449845" />
    <path
       inkscape:transform-center-x="0.0096399792"
       sodipodi:nodetypes="cc"
       inkscape:connector-curvature="0"
       id="path11534"
       d="m 74.074052,215.33154 -3.6e-5,-0.6442"
       style="color:#000000;clip-rule:nonzero;display:inline;overflow:visible;visibility:visible;opacity:1;isolation:auto;mix-blend-mode:normal;color-interpolation:sRGB;color-interpolation-filters:linearRGB;solid-color:#000000;solid-opacity:1;fill:none;fill-opacity:1;fill-rule:nonzero;stroke:#000000;stroke-width:0.26458332;stroke-linecap:round;stroke-linejoin:round;stroke-miterlimit:4;stroke-dasharray:none;stroke-dashoffset:0;stroke-opacity:1;color-rendering:auto;image-rendering:auto;shape-rendering:auto;text-rendering:auto;enable-background:accumulate"
       inkscape:transform-center-y="-10.554155" />
    <path
       inkscape:transform-center-y="-5.285425"
       style="color:#000000;clip-rule:nonzero;display:inline;overflow:visible;visibility:visible;opacity:1;isolation:auto;mix-blend-mode:normal;color-interpolation:sRGB;color-interpolation-filters:linearRGB;solid-color:#000000;solid-opacity:1;fill:none;fill-opacity:1;fill-rule:nonzero;stroke:#000000;stroke-width:0.26458332;stroke-linecap:round;stroke-linejoin:round;stroke-miterlimit:4;stroke-dasharray:none;stroke-dashoffset:0;stroke-opacity:1;color-rendering:auto;image-rendering:auto;shape-rendering:auto;text-rendering:auto;enable-background:accumulate"
       d="m 82.940081,220.43924 0.557878,-0.32214"
       id="path11536"
       inkscape:connector-curvature="0"
       sodipodi:nodetypes="cc"
       inkscape:transform-center-x="-9.135346" />
    <path
       inkscape:transform-center-x="-10.554156"
       sodipodi:nodetypes="cc"
       inkscape:connector-curvature="0"
       id="path11538"
       d="m 84.315726,225.55397 0.644206,-4e-5"
       style="color:#000000;clip-rule:nonzero;display:inline;overflow:visible;visibility:visible;opacity:1;isolation:auto;mix-blend-mode:normal;color-interpolation:sRGB;color-interpolation-filters:linearRGB;solid-color:#000000;solid-opacity:1;fill:none;fill-opacity:1;fill-rule:nonzero;stroke:#000000;stroke-width:0.26458332;stroke-linecap:round;stroke-linejoin:round;stroke-miterlimit:4;stroke-dasharray:none;stroke-dashoffset:0;stroke-opacity:1;color-rendering:auto;image-rendering:auto;shape-rendering:auto;text-rendering:auto;enable-background:accumulate"
       inkscape:transform-center-y="-0.0096449792" />
    <path
       inkscape:transform-center-y="10.55416"
       style="color:#000000;clip-rule:nonzero;display:inline;overflow:visible;visibility:visible;opacity:1;isolation:auto;mix-blend-mode:normal;color-interpolation:sRGB;color-interpolation-filters:linearRGB;solid-color:#000000;solid-opacity:1;fill:none;fill-opacity:1;fill-rule:nonzero;stroke:#000000;stroke-width:0.26458332;stroke-linecap:round;stroke-linejoin:round;stroke-miterlimit:4;stroke-dasharray:none;stroke-dashoffset:0;stroke-opacity:1;color-rendering:auto;image-rendering:auto;shape-rendering:auto;text-rendering:auto;enable-background:accumulate"
       d="m 74.093289,235.79566 5.6e-5,0.64419"
       id="path11540"
       inkscape:connector-curvature="0"
       sodipodi:nodetypes="cc"
       inkscape:transform-center-x="-0.0096439792" />
    <path
       inkscape:connector-curvature="0"
       style="fill:#000000;fill-opacity:1;stroke:none;stroke-width:0"
       d="m 61.795188,219.91998 c -0.165365,0.27781 -0.330729,0.33734 -0.515937,0.35057 -0.05292,0.007 -0.0926,0.007 -0.0926,0.086 0,0.0265 0.02646,0.0463 0.05953,0.0463 0.112448,0 0.244739,-0.0132 0.357187,-0.0132 0.145521,0 0.291042,0.0132 0.423333,0.0132 0.02646,0 0.07937,0 0.07937,-0.0794 0,-0.0463 -0.03307,-0.0529 -0.06615,-0.0529 -0.0926,-0.007 -0.198437,-0.0397 -0.198437,-0.14552 0,-0.0529 0.02646,-0.0992 0.05953,-0.15875 l 0.324114,-0.53578 h 1.058333 c 0.0066,0.086 0.06615,0.66145 0.06615,0.70114 0,0.12568 -0.218281,0.13891 -0.304271,0.13891 -0.05953,0 -0.09922,0 -0.09922,0.086 0,0.0463 0.0463,0.0463 0.05953,0.0463 0.171979,0 0.350572,-0.0132 0.522551,-0.0132 0.105834,0 0.377031,0.0132 0.482865,0.0132 0.01984,0 0.07276,0 0.07276,-0.086 0,-0.0463 -0.03969,-0.0463 -0.09922,-0.0463 -0.257968,0 -0.257968,-0.0265 -0.271197,-0.15214 l -0.257969,-2.6326 c -0.0066,-0.086 -0.0066,-0.10583 -0.07937,-0.10583 -0.06615,0 -0.08599,0.0331 -0.112448,0.0728 z m 0.509322,-0.62177 0.826823,-1.39568 0.138906,1.39568 z m 0,0"
       id="path11573" />
    <path
       inkscape:connector-curvature="0"
       style="fill:#000000;fill-opacity:1;stroke:none;stroke-width:0"
       d="m 84.896573,220.51303 c -0.03969,0.16537 -0.05292,0.19844 -0.383646,0.19844 -0.07276,0 -0.112447,0 -0.112447,0.086 0,0.0463 0.03969,0.0463 0.112447,0.0463 h 1.508124 c 0.668073,0 1.164166,-0.49609 1.164166,-0.91281 0,-0.30427 -0.244739,-0.54901 -0.654843,-0.59531 0.436562,-0.0794 0.879739,-0.39026 0.879739,-0.79375 0,-0.31089 -0.277813,-0.58209 -0.780521,-0.58209 h -1.422134 c -0.07937,0 -0.119062,0 -0.119062,0.086 0,0.0463 0.03969,0.0463 0.119062,0.0463 0.0066,0 0.08599,0 0.15875,0.007 0.07276,0.0132 0.112448,0.0132 0.112448,0.0728 0,0.0132 -0.0066,0.0265 -0.01323,0.0794 z m 0.634999,-1.21708 0.264584,-1.0451 c 0.03969,-0.14553 0.0463,-0.15875 0.224895,-0.15875 h 0.54901 c 0.370417,0 0.456406,0.25135 0.456406,0.43656 0,0.37041 -0.363802,0.76729 -0.873124,0.76729 z m -0.185208,1.41552 c -0.05953,0 -0.06615,0 -0.0926,0 -0.0463,-0.007 -0.05953,-0.0132 -0.05953,-0.0463 0,-0.0132 0,-0.0198 0.02646,-0.0926 l 0.291042,-1.17739 h 0.793749 c 0.403489,0 0.489479,0.31088 0.489479,0.48948 0,0.41671 -0.377031,0.82682 -0.879739,0.82682 z m 0,0"
       id="path11575" />
    <path
       inkscape:connector-curvature="0"
       style="fill:#000000;fill-opacity:1;stroke:none;stroke-width:0"
       d="m 76.024987,210.85883 c 0,-0.0132 -0.0066,-0.0463 -0.0463,-0.0463 -0.01323,0 -0.01984,0.007 -0.06615,0.0529 l -0.291042,0.32411 c -0.03969,-0.0595 -0.23151,-0.37703 -0.701145,-0.37703 -0.945885,0 -1.89177,0.93266 -1.89177,1.91161 0,0.69453 0.496094,1.15755 1.144323,1.15755 0.363801,0 0.687916,-0.16536 0.912811,-0.3638 0.39026,-0.34396 0.463021,-0.7276 0.463021,-0.74083 0,-0.0463 -0.0463,-0.0463 -0.05292,-0.0463 -0.02646,0 -0.0463,0.0132 -0.05292,0.0463 -0.03969,0.11906 -0.138907,0.42333 -0.429948,0.66807 -0.291042,0.23151 -0.555625,0.30427 -0.773906,0.30427 -0.377031,0 -0.826822,-0.21828 -0.826822,-0.87312 0,-0.24474 0.08599,-0.92604 0.509323,-1.42214 0.257968,-0.29765 0.654843,-0.50932 1.031874,-0.50932 0.429947,0 0.681301,0.32412 0.681301,0.81359 0,0.17198 -0.01323,0.17198 -0.01323,0.21829 0,0.0397 0.0463,0.0397 0.05953,0.0397 0.05292,0 0.05292,-0.007 0.07937,-0.086 z m 0,0"
       id="path11579" />
    <path
       inkscape:connector-curvature="0"
       style="fill:#000000;fill-opacity:1;stroke:none;stroke-width:0"
       d="m 72.746457,239.8252 c -0.03969,0.16537 -0.0463,0.19844 -0.383645,0.19844 -0.06615,0 -0.112448,0 -0.112448,0.0794 0,0.0529 0.03307,0.0529 0.112448,0.0529 h 1.40229 c 0.873125,0 1.706562,-0.89297 1.706562,-1.81239 0,-0.59532 -0.357188,-1.07157 -0.992187,-1.07157 h -1.41552 c -0.07937,0 -0.125677,0 -0.125677,0.0794 0,0.0529 0.03307,0.0529 0.119063,0.0529 0.05292,0 0.132291,0.007 0.178593,0.007 0.07276,0.0132 0.0926,0.0198 0.0926,0.0728 0,0.0132 0,0.0265 -0.01323,0.0794 z m 0.912812,-2.26218 c 0.03969,-0.14553 0.0463,-0.15875 0.23151,-0.15875 h 0.449792 c 0.410104,0 0.760676,0.22489 0.760676,0.78052 0,0.20505 -0.07937,0.89958 -0.443177,1.3626 -0.119062,0.15875 -0.449791,0.47625 -0.972343,0.47625 h -0.476249 c -0.05953,0 -0.06615,0 -0.0926,0 -0.03969,-0.007 -0.05292,-0.0132 -0.05292,-0.0463 0,-0.0132 0,-0.0198 0.01984,-0.0926 z m 0,0"
       id="path11583" />
    <path
       inkscape:connector-curvature="0"
       style="fill:#000000;fill-opacity:1;stroke:none;stroke-width:0"
       d="m 62.363999,225.94285 c 0.0066,-0.0198 0.01984,-0.0463 0.01984,-0.0595 0,0 0,-0.0463 -0.05292,-0.0463 -0.03969,0 -0.0463,0.0265 -0.05292,0.0529 -0.277812,0.62177 -0.429948,0.9062 -1.150937,0.9062 h -0.615156 c -0.05953,0 -0.07276,0 -0.0926,0 -0.0463,-0.007 -0.05953,-0.0132 -0.05953,-0.0463 0,-0.0132 0,-0.0198 0.01984,-0.0926 l 0.291041,-1.15755 h 0.416719 c 0.357187,0 0.357187,0.0926 0.357187,0.19844 0,0.0265 0,0.0794 -0.02646,0.20505 -0.0066,0.0198 -0.01323,0.0331 -0.01323,0.0463 0,0.0199 0.01323,0.0463 0.05292,0.0463 0.03307,0 0.0463,-0.0198 0.06615,-0.086 l 0.238125,-0.98557 c 0,-0.0265 -0.01984,-0.0463 -0.05292,-0.0463 -0.03307,0 -0.0463,0.0265 -0.05292,0.0728 -0.0926,0.32412 -0.165364,0.42333 -0.555624,0.42333 H 60.70374 l 0.251354,-1.01864 c 0.03969,-0.15214 0.0463,-0.16537 0.23151,-0.16537 h 0.595312 c 0.509323,0 0.641615,0.11907 0.641615,0.46964 0,0.0992 0,0.10583 -0.01984,0.2249 0,0.0198 -0.0066,0.0529 -0.0066,0.0728 0,0.0198 0.01323,0.0529 0.05292,0.0529 0.0463,0 0.05292,-0.0265 0.05953,-0.10583 l 0.08599,-0.73422 c 0.01323,-0.11245 -0.0066,-0.11245 -0.112448,-0.11245 h -2.136509 c -0.07937,0 -0.125677,0 -0.125677,0.086 0,0.0463 0.03969,0.0463 0.119062,0.0463 0.15875,0 0.277813,0 0.277813,0.0728 0,0.0198 0,0.0264 -0.02646,0.10583 l -0.555624,2.22911 c -0.03969,0.16537 -0.0463,0.19844 -0.383646,0.19844 -0.07276,0 -0.119062,0 -0.119062,0.0794 0,0.0529 0.03969,0.0529 0.119062,0.0529 h 2.189426 c 0.09922,0 0.105833,-0.007 0.132291,-0.0728 z m 0,0"
       id="path11587" />
    <path
       inkscape:connector-curvature="0"
       style="fill:#000000;fill-opacity:1;stroke:none;stroke-width:0"
       d="m 86.844084,226.17648 h 0.410103 c 0.3175,0 0.350573,0.0661 0.350573,0.18521 0,0.0331 0,0.0794 -0.02646,0.21167 -0.01323,0.0198 -0.01323,0.0331 -0.01323,0.0463 0,0.0331 0.02646,0.0463 0.0463,0.0463 0.0463,0 0.0463,-0.0132 0.06615,-0.086 l 0.231511,-0.91942 c 0.01323,-0.0463 0.01323,-0.0529 0.01323,-0.0661 0,-0.007 -0.0066,-0.0463 -0.05292,-0.0463 -0.03969,0 -0.0463,0.0198 -0.05953,0.0926 -0.0926,0.32412 -0.185208,0.40349 -0.54901,0.40349 h -0.383645 l 0.271198,-1.07156 c 0.03969,-0.15214 0.0463,-0.16537 0.23151,-0.16537 h 0.555625 c 0.515937,0 0.615156,0.13891 0.615156,0.46303 0,0.0992 0,0.11244 -0.01323,0.23151 -0.0066,0.0529 -0.0066,0.0595 -0.0066,0.0728 0,0.0198 0.01323,0.0529 0.05292,0.0529 0.0463,0 0.0463,-0.0265 0.05292,-0.10583 l 0.08599,-0.73422 c 0.01323,-0.11245 -0.0066,-0.11245 -0.112448,-0.11245 h -2.070363 c -0.07938,0 -0.125677,0 -0.125677,0.086 0,0.0463 0.03969,0.0463 0.119062,0.0463 0.15875,0 0.277813,0 0.277813,0.0728 0,0.0198 0,0.0264 -0.02646,0.10583 l -0.555624,2.22911 c -0.03969,0.16537 -0.0463,0.19844 -0.383646,0.19844 -0.07276,0 -0.119062,0 -0.119062,0.0794 0,0.0529 0.05292,0.0529 0.06615,0.0529 0.119062,0 0.436562,-0.0132 0.555624,-0.0132 0.138906,0 0.489479,0.0132 0.628385,0.0132 0.03969,0 0.08599,0 0.08599,-0.0794 0,-0.0331 -0.01984,-0.0463 -0.01984,-0.0463 -0.01323,-0.007 -0.02646,-0.007 -0.119062,-0.007 -0.09261,0 -0.112448,0 -0.218282,-0.007 -0.125677,-0.0132 -0.138906,-0.0331 -0.138906,-0.086 0,-0.007 0,-0.0331 0.01984,-0.0926 z m 0,0"
       id="path11591" />
  </g>
</svg>
