<?xml version="1.0" encoding="UTF-8" standalone="no"?>
<!-- Created with Inkscape (http://www.inkscape.org/) -->

<svg
   xmlns:ns0="http://www.iki.fi/pav/software/textext/"
   xmlns:dc="http://purl.org/dc/elements/1.1/"
   xmlns:cc="http://creativecommons.org/ns#"
   xmlns:rdf="http://www.w3.org/1999/02/22-rdf-syntax-ns#"
   xmlns:svg="http://www.w3.org/2000/svg"
   xmlns="http://www.w3.org/2000/svg"
   xmlns:xlink="http://www.w3.org/1999/xlink"
   xmlns:sodipodi="http://sodipodi.sourceforge.net/DTD/sodipodi-0.dtd"
   xmlns:inkscape="http://www.inkscape.org/namespaces/inkscape"
   width="354.33069"
   height="141.73228"
   id="svg3732"
   version="1.1"
   inkscape:version="0.48.1 r9760"
   sodipodi:docname="New document 5">
  <sodipodi:namedview
     id="base"
     pagecolor="#ffffff"
     bordercolor="#666666"
     borderopacity="1.0"
     inkscape:pageopacity="0.0"
     inkscape:pageshadow="2"
     inkscape:zoom="2.8284271"
     inkscape:cx="177.07125"
     inkscape:cy="80.526208"
     inkscape:document-units="px"
     inkscape:current-layer="layer1"
     showgrid="false"
     units="cm"
     inkscape:window-width="1600"
     inkscape:window-height="852"
     inkscape:window-x="0"
     inkscape:window-y="24"
     inkscape:window-maximized="1" />
  <defs
     id="defs3734">
    <marker
       inkscape:stockid="Arrow1Mend"
       orient="auto"
       refY="0"
       refX="0"
       id="Arrow1Mend"
       style="overflow:visible">
      <path
         inkscape:connector-curvature="0"
         id="path7416"
         d="M 0,0 5,-5 -12.5,0 5,5 0,0 z"
         style="fill-rule:evenodd;stroke:#000000;stroke-width:1pt;marker-start:none"
         transform="matrix(-0.4,0,0,-0.4,-4,0)" />
    </marker>
    <marker
       inkscape:stockid="Arrow1Mstart"
       orient="auto"
       refY="0"
       refX="0"
       id="marker5525"
       style="overflow:visible">
      <path
         id="path5527"
         d="M 0,0 5,-5 -12.5,0 5,5 0,0 z"
         style="fill-rule:evenodd;stroke:#000000;stroke-width:1pt;marker-start:none"
         transform="matrix(0.4,0,0,0.4,4,0)"
         inkscape:connector-curvature="0" />
    </marker>
  </defs>
  <metadata
     id="metadata3737">
    <rdf:RDF>
      <cc:Work
         rdf:about="">
        <dc:format>image/svg+xml</dc:format>
        <dc:type
           rdf:resource="http://purl.org/dc/dcmitype/StillImage" />
        <dc:title></dc:title>
      </cc:Work>
    </rdf:RDF>
  </metadata>
  <g
     inkscape:label="Layer 1"
     inkscape:groupmode="layer"
     id="layer1"
     transform="translate(0,-910.62859)">
    <path
       style="fill:none;stroke:#000000;stroke-width:1;stroke-linecap:butt;stroke-linejoin:miter;stroke-miterlimit:4;stroke-opacity:1;stroke-dasharray:none"
       d="m 140.48145,948.44711 0,78.87189"
       id="path9946-4"
       inkscape:connector-curvature="0" />
    <path
       style="fill:none;stroke:#000000;stroke-width:1;stroke-linecap:butt;stroke-linejoin:miter;stroke-miterlimit:4;stroke-opacity:1;stroke-dasharray:none"
       d="m 96.646691,993.94779 0,12.91931"
       id="path9952-6"
       inkscape:connector-curvature="0" />
    <path
       style="fill:none;stroke:#000000;stroke-width:1;stroke-linecap:butt;stroke-linejoin:miter;stroke-miterlimit:4;stroke-opacity:1;stroke-dasharray:none"
       d="m 140.81158,956.67309 c -0.15571,0.0268 -0.36856,-0.0163 -0.53666,-6.4e-4 -0.0224,0.002 -0.0441,0.005 -0.0647,0.01 -11.7888,2.57017 -20.06381,22.6457 -30.82406,30.17693 -3.45994,2.42165 -7.77613,4.72523 -12.407289,6.84621 -12.1022,5.54258 -27.04783,9.40461 -34.13802,9.92181 -2.60663,0.1901 -4.08146,0.244 -4.08146,0.244"
       id="path9950-0"
       inkscape:connector-curvature="0"
       sodipodi:nodetypes="csssssc" />
    <path
       style="fill:#b3b3b3;fill-opacity:1;stroke:none"
       d="m 96.145171,1000.4683 c 0,-3.17722 -0.0281,-5.77678 -0.0626,-5.77678 -0.0344,0 -1.36096,0.50457 -2.94793,1.12127 -1.58695,0.6167 -3.71255,1.42275 -4.72351,1.79123 -1.01096,0.36849 -4.3806,1.81758 -5.49174,1.91916 -0.0559,0.005 2.99196,0.87132 3.45985,2.03142 0.46787,1.1602 3.90589,1.669 2.62025,1.4374 0.49212,-0.1867 -1.58405,-1.3313 -2.83091,-2.2194 -1.24686,-0.88815 -1.89161,-1.52926 -1.97603,-1.5893 -0.0924,-0.0658 -1.50974,0.41206 -2.42028,0.7258 -1.10683,0.3814 -2.9733,1.1461 -5.27614,1.6657 -2.85968,0.6453 -5.17098,1.4441 -7.33509,1.795 -2.30478,0.3736 -3.96644,0.6028 -5.46773,0.8006 -3.20874,0.4229 -3.87433,0.3334 -3.66184,2.0245 -0.31776,0.08 6.33446,0.031 18.11396,0.039 l 17.99975,0.011 z"
       id="path7920"
       inkscape:connector-curvature="0"
       sodipodi:nodetypes="cssssccscsssscscc" />
    <path
       style="fill:none;stroke:#000000;stroke-width:1.125;stroke-linecap:butt;stroke-linejoin:miter;stroke-miterlimit:4;stroke-opacity:1;stroke-dasharray:none;marker-end:url(#Arrow1Mend)"
       d="m 175.7778,967.77367 -20.27044,-0.14199 -0.27611,16.26238"
       id="path7210"
       inkscape:connector-curvature="0"
       sodipodi:nodetypes="ccc" />
    <path
       style="fill:none;stroke:#000000;stroke-width:1px;stroke-linecap:butt;stroke-linejoin:miter;stroke-opacity:1;marker-start:url(#marker5525)"
       d="m 88.553962,1000.7887 0,-21.71827 -27.52664,-3.28299"
       id="path8050"
       inkscape:connector-curvature="0" />
    <path
       style="fill:none;stroke:#000000;stroke-width:1;stroke-linecap:butt;stroke-linejoin:miter;stroke-miterlimit:4;stroke-opacity:1;stroke-dasharray:none"
       d="m 140.62216,956.66682 c 0.17651,0.0304 0.35223,0.0647 0.52717,0.10284 11.7884,2.572 20.06381,22.6457 30.82406,30.17693 3.45994,2.42165 7.77613,4.72523 12.4073,6.84621 12.1022,5.54258 27.04783,9.4046 34.13802,9.9218 2.60663,0.1901 4.08146,0.244 4.08146,0.244"
       id="path9950-0-5"
       inkscape:connector-curvature="0"
       sodipodi:nodetypes="cssssc" />
    <path
       style="fill:none;stroke:#000000;stroke-width:1px;stroke-linecap:butt;stroke-linejoin:miter;stroke-opacity:1"
       d="m 56.737883,1006.4519 166.874347,0"
       id="path3911"
       inkscape:connector-curvature="0" />
    <g
       ns0:text="$\\sfrac{\\alpha}{2}$"
       ns0:preamble="/home/sriranga/Desktop/Beamer-prathibha/article30/package.tex"
       transform="matrix(1.2,0,0,1.2,-221.98122,817.7574)"
       id="g4383">
      <defs
         id="defs4385">
        <g
           id="g4387">
          <symbol
             style="overflow:visible"
             overflow="visible"
             id="textext-42a4859b-0">
            <path
               inkscape:connector-curvature="0"
               style="stroke:none"
               d="M 3.453125,-2.421875 3.046875,-2.375 c -0.171875,0.46875 -0.625,1.15625 -0.625,1.171875 l -0.015625,0 c 0,-0.015625 0.109375,-0.265625 0.109375,-0.578125 0,-0.390625 -0.140625,-0.828125 -0.765625,-0.828125 -1,0 -1.609375,1.046875 -1.609375,1.765625 0,0.5 0.265625,0.90625 0.875,0.90625 0.46875,0 0.828125,-0.359375 0.828125,-0.359375 0,0.046875 0.015625,0.34375 0.453125,0.34375 0.46875,0 0.75,-0.53125 0.75,-0.65625 0,-0.015625 -0.015625,-0.03125 -0.015625,-0.03125 -0.078125,0 -0.21875,0.484375 -0.5625,0.484375 -0.140625,0 -0.171875,-0.15625 -0.171875,-0.296875 0,-0.140625 0.03125,-0.265625 0.046875,-0.328125 0.078125,-0.109375 1.109375,-1.640625 1.109375,-1.640625 z M 2.078125,-1.75 c 0,0.5625 -0.21875,1.21875 -0.21875,1.21875 0,0 -0.296875,0.453125 -0.75,0.453125 -0.125,0 -0.453125,-0.046875 -0.453125,-0.796875 0,-0.3125 0.15625,-1.578125 0.984375,-1.578125 0.40625,0 0.4375,0.5 0.4375,0.703125 z m 0,0"
               id="path4390" />
          </symbol>
          <symbol
             style="overflow:visible"
             overflow="visible"
             id="textext-42a4859b-1">
            <path
               inkscape:connector-curvature="0"
               style="stroke:none"
               d="m 3.78125,-6.765625 -0.515625,0 -2.640625,8.375 0.515625,0 z m 0,0"
               id="path4393" />
          </symbol>
          <symbol
             style="overflow:visible"
             overflow="visible"
             id="textext-42a4859b-2">
            <path
               inkscape:connector-curvature="0"
               style="stroke:none"
               d="M 2.8125,-0.8125 2.734375,-0.84375 C 2.515625,-0.5 2.4375,-0.453125 2.171875,-0.453125 l -1.421875,0 1,-1.03125 c 0.53125,-0.546875 0.75,-1 0.75,-1.46875 C 2.5,-3.53125 2.03125,-4 1.40625,-4 c -0.3125,0 -0.625,0.140625 -0.84375,0.375 -0.1875,0.203125 -0.28125,0.390625 -0.375,0.8125 l 0.125,0.03125 C 0.546875,-3.359375 0.75,-3.5625 1.15625,-3.5625 c 0.5,0 0.84375,0.34375 0.84375,0.84375 0,0.453125 -0.28125,1 -0.765625,1.53125 l -1.0625,1.109375 0,0.078125 2.3125,0 z m 0,0"
               id="path4396" />
          </symbol>
        </g>
      </defs>
      <g
         id="textext-42a4859b-3">
        <g
           style="fill:#000000;fill-opacity:1"
           id="g4399">
          <use
             height="141.73228"
             width="354.33069"
             xlink:href="#textext-42a4859b-0"
             x="223.43201"
             y="131.989"
             id="use4401" />
        </g>
        <g
           style="fill:#000000;fill-opacity:1"
           id="g4403">
          <use
             height="141.73228"
             width="354.33069"
             xlink:href="#textext-42a4859b-1"
             x="226.379"
             y="134.765"
             id="use4405" />
        </g>
        <g
           style="fill:#000000;fill-opacity:1"
           id="g4407">
          <use
             height="141.73228"
             width="354.33069"
             xlink:href="#textext-42a4859b-2"
             x="229.666"
             y="134.765"
             id="use4409" />
        </g>
      </g>
    </g>
    <g
       id="g4544"
       transform="matrix(1.2,0,0,1.2,-87.727694,808.70546)"
       ns0:preamble="/home/sriranga/Desktop/Beamer-prathibha/article30/package.tex"
       ns0:text="$1-\\sfrac{\\alpha}{2}$">
      <defs
         id="defs4546">
        <g
           id="g4548">
          <symbol
             id="textext-6700f50a-0"
             overflow="visible">
            <path
               id="path4551"
               d="M 2.90625 -6.734375 L 1.109375 -5.828125 L 1.109375 -5.6875 C 1.21875 -5.734375 1.328125 -5.78125 1.375 -5.796875 C 1.5625 -5.875 1.71875 -5.90625 1.828125 -5.90625 C 2.03125 -5.90625 2.125 -5.765625 2.125 -5.4375 L 2.125 -0.921875 C 2.125 -0.59375 2.046875 -0.375 1.890625 -0.28125 C 1.734375 -0.1875 1.59375 -0.15625 1.171875 -0.15625 L 1.171875 0 L 3.921875 0 L 3.921875 -0.15625 C 3.140625 -0.15625 2.984375 -0.265625 2.984375 -0.734375 L 2.984375 -6.71875 Z M 2.90625 -6.734375 "
               style="stroke:none;" />
          </symbol>
          <symbol
             id="textext-6700f50a-1"
             overflow="visible">
            <path
               id="path4554"
               d="M 5.71875 -2.28125 L 5.71875 -2.84375 L 0.625 -2.84375 L 0.625 -2.28125 Z M 5.71875 -2.28125 "
               style="stroke:none;" />
          </symbol>
          <symbol
             id="textext-6700f50a-2"
             overflow="visible">
            <path
               id="path4557"
               d="M 3.453125 -2.421875 L 3.046875 -2.375 C 2.875 -1.90625 2.421875 -1.21875 2.421875 -1.203125 L 2.40625 -1.203125 C 2.40625 -1.21875 2.515625 -1.46875 2.515625 -1.78125 C 2.515625 -2.171875 2.375 -2.609375 1.75 -2.609375 C 0.75 -2.609375 0.140625 -1.5625 0.140625 -0.84375 C 0.140625 -0.34375 0.40625 0.0625 1.015625 0.0625 C 1.484375 0.0625 1.84375 -0.296875 1.84375 -0.296875 C 1.84375 -0.25 1.859375 0.046875 2.296875 0.046875 C 2.765625 0.046875 3.046875 -0.484375 3.046875 -0.609375 C 3.046875 -0.625 3.03125 -0.640625 3.03125 -0.640625 C 2.953125 -0.640625 2.8125 -0.15625 2.46875 -0.15625 C 2.328125 -0.15625 2.296875 -0.3125 2.296875 -0.453125 C 2.296875 -0.59375 2.328125 -0.71875 2.34375 -0.78125 C 2.421875 -0.890625 3.453125 -2.421875 3.453125 -2.421875 Z M 2.078125 -1.75 C 2.078125 -1.1875 1.859375 -0.53125 1.859375 -0.53125 C 1.859375 -0.53125 1.5625 -0.078125 1.109375 -0.078125 C 0.984375 -0.078125 0.65625 -0.125 0.65625 -0.875 C 0.65625 -1.1875 0.8125 -2.453125 1.640625 -2.453125 C 2.046875 -2.453125 2.078125 -1.953125 2.078125 -1.75 Z M 2.078125 -1.75 "
               style="stroke:none;" />
          </symbol>
          <symbol
             id="textext-6700f50a-3"
             overflow="visible">
            <path
               id="path4560"
               d="M 3.78125 -6.765625 L 3.265625 -6.765625 L 0.625 1.609375 L 1.140625 1.609375 Z M 3.78125 -6.765625 "
               style="stroke:none;" />
          </symbol>
          <symbol
             id="textext-6700f50a-4"
             overflow="visible">
            <path
               id="path4563"
               d="M 2.8125 -0.8125 L 2.734375 -0.84375 C 2.515625 -0.5 2.4375 -0.453125 2.171875 -0.453125 L 0.75 -0.453125 L 1.75 -1.484375 C 2.28125 -2.03125 2.5 -2.484375 2.5 -2.953125 C 2.5 -3.53125 2.03125 -4 1.40625 -4 C 1.09375 -4 0.78125 -3.859375 0.5625 -3.625 C 0.375 -3.421875 0.28125 -3.234375 0.1875 -2.8125 L 0.3125 -2.78125 C 0.546875 -3.359375 0.75 -3.5625 1.15625 -3.5625 C 1.65625 -3.5625 2 -3.21875 2 -2.71875 C 2 -2.265625 1.71875 -1.71875 1.234375 -1.1875 L 0.171875 -0.078125 L 0.171875 0 L 2.484375 0 Z M 2.8125 -0.8125 "
               style="stroke:none;" />
          </symbol>
        </g>
      </defs>
      <g
         id="textext-6700f50a-5">
        <g
           id="g4566"
           style="fill:rgb(0%,0%,0%);fill-opacity:1;">
          <use
             id="use4568"
             y="134.765"
             x="223.432"
             xlink:href="#textext-6700f50a-0" />
        </g>
        <g
           id="g4570"
           style="fill:rgb(0%,0%,0%);fill-opacity:1;">
          <use
             id="use4572"
             y="134.765"
             x="230.627"
             xlink:href="#textext-6700f50a-1" />
        </g>
        <g
           id="g4574"
           style="fill:rgb(0%,0%,0%);fill-opacity:1;">
          <use
             id="use4576"
             y="131.989"
             x="239.177"
             xlink:href="#textext-6700f50a-2" />
        </g>
        <g
           id="g4578"
           style="fill:rgb(0%,0%,0%);fill-opacity:1;">
          <use
             id="use4580"
             y="134.765"
             x="242.125"
             xlink:href="#textext-6700f50a-3" />
        </g>
        <g
           id="g4582"
           style="fill:rgb(0%,0%,0%);fill-opacity:1;">
          <use
             id="use4584"
             y="134.765"
             x="245.411"
             xlink:href="#textext-6700f50a-4" />
        </g>
      </g>
    </g>
    <g
       id="g5006"
       transform="matrix(1.2,0,0,1.2,-190.32084,856.96707)"
       ns0:preamble="/home/sriranga/Desktop/Beamer-prathibha/article30/package.tex"
       ns0:text="$-z_{\\sfrac{\\alpha}{2}}$">
      <defs
         id="defs5008">
        <g
           id="g5010">
          <symbol
             id="textext-caada98a-0"
             overflow="visible"
             style="overflow:visible">
            <path
               id="path5013"
               d="m 5.71875,-2.28125 0,-0.5625 -5.09375,0 0,0.5625 z m 0,0"
               style="stroke:none"
               inkscape:connector-curvature="0" />
          </symbol>
          <symbol
             id="textext-caada98a-1"
             overflow="visible"
             style="overflow:visible">
            <path
               id="path5016"
               d="m 0.8125,-3.078125 c 0.203125,-0.5 0.328125,-0.59375 0.796875,-0.59375 l 1.46875,0 -3.09375,3.71875 L 0.0625,0.125 C 0.234375,0 0.359375,-0.046875 0.53125,-0.046875 c 0.234375,0 0.5625,0.125 1.03125,0.421875 0.5,0.296875 0.84375,0.4375 1.125,0.4375 0.5,0 0.9375,-0.359375 0.9375,-0.765625 C 3.625,-0.15625 3.484375,-0.3125 3.265625,-0.3125 3.078125,-0.3125 2.9375,-0.171875 2.9375,0 c 0,0.09375 0.015625,0.1875 0.078125,0.296875 0.03125,0.0625 0.0625,0.125 0.0625,0.15625 0,0.078125 -0.125,0.140625 -0.28125,0.140625 -0.25,0 -0.359375,-0.078125 -0.6875,-0.5 -0.4375,-0.5625 -0.640625,-0.6875 -1.21875,-0.828125 l 2.890625,-3.421875 0,-0.109375 -2.828125,0 -0.3125,1.140625 z m 0,0"
               style="stroke:none"
               inkscape:connector-curvature="0" />
          </symbol>
          <symbol
             id="textext-caada98a-2"
             overflow="visible"
             style="overflow:visible">
            <path
               id="path5019"
               d="M 2.40625,-1.703125 2.125,-1.65625 c -0.109375,0.3125 -0.4375,0.8125 -0.4375,0.8125 0,0 0.0625,-0.1875 0.0625,-0.40625 0,-0.265625 -0.09375,-0.5625 -0.53125,-0.5625 -0.6875,0 -1.125,0.71875 -1.125,1.21875 0,0.359375 0.1875,0.640625 0.625,0.640625 0.328125,0 0.5625,-0.25 0.5625,-0.25 l 0.015625,0 c 0,0.03125 0,0.234375 0.296875,0.234375 0.34375,0 0.53125,-0.359375 0.53125,-0.453125 0,-0.015625 0,-0.03125 -0.015625,-0.03125 -0.046875,0 -0.15625,0.34375 -0.390625,0.34375 -0.09375,0 -0.109375,-0.109375 -0.109375,-0.21875 C 1.609375,-0.40625 1.625,-0.5 1.640625,-0.546875 1.703125,-0.625 2.40625,-1.6875 2.40625,-1.703125 z M 1.453125,-1.21875 c 0,0.390625 -0.15625,0.84375 -0.15625,0.84375 0,0.015625 -0.203125,0.3125 -0.515625,0.3125 -0.09375,0 -0.3125,-0.03125 -0.3125,-0.546875 0,-0.21875 0.09375,-1.109375 0.671875,-1.109375 0.28125,0 0.3125,0.359375 0.3125,0.5 z m 0,0"
               style="stroke:none"
               inkscape:connector-curvature="0" />
          </symbol>
          <symbol
             id="textext-caada98a-3"
             overflow="visible"
             style="overflow:visible">
            <path
               id="path5022"
               d="m 2.640625,-4.71875 -0.359375,0 -1.84375,5.84375 0.359375,0 z m 0,0"
               style="stroke:none"
               inkscape:connector-curvature="0" />
          </symbol>
          <symbol
             id="textext-caada98a-4"
             overflow="visible"
             style="overflow:visible">
            <path
               id="path5025"
               d="M 1.953125,-0.5625 1.90625,-0.578125 C 1.75,-0.34375 1.703125,-0.3125 1.515625,-0.3125 l -0.984375,0 0.6875,-0.734375 c 0.375,-0.375 0.53125,-0.6875 0.53125,-1.015625 0,-0.40625 -0.328125,-0.71875 -0.765625,-0.71875 -0.21875,0 -0.4375,0.078125 -0.59375,0.25 -0.125,0.140625 -0.1875,0.265625 -0.265625,0.5625 l 0.09375,0.015625 c 0.15625,-0.390625 0.3125,-0.53125 0.59375,-0.53125 0.34375,0 0.578125,0.234375 0.578125,0.578125 0,0.328125 -0.1875,0.703125 -0.53125,1.078125 L 0.125,-0.046875 0.125,0 1.734375,0 z m 0,0"
               style="stroke:none"
               inkscape:connector-curvature="0" />
          </symbol>
        </g>
      </defs>
      <g
         id="textext-caada98a-5">
        <g
           id="g5028"
           style="fill:#000000;fill-opacity:1">
          <use
             id="use5030"
             y="134.765"
             x="223.43201"
             xlink:href="#textext-caada98a-0"
             width="354.33069"
             height="141.73228" />
        </g>
        <g
           id="g5032"
           style="fill:#000000;fill-opacity:1">
          <use
             id="use5034"
             y="134.765"
             x="229.76801"
             xlink:href="#textext-caada98a-1"
             width="354.33069"
             height="141.73228" />
        </g>
        <g
           id="g5036"
           style="fill:#000000;fill-opacity:1">
          <use
             id="use5038"
             y="134.31599"
             x="233.644"
             xlink:href="#textext-caada98a-2"
             width="354.33069"
             height="141.73228" />
        </g>
        <g
           id="g5040"
           style="fill:#000000;fill-opacity:1">
          <use
             id="use5042"
             y="136.259"
             x="235.707"
             xlink:href="#textext-caada98a-3"
             width="354.33069"
             height="141.73228" />
        </g>
        <g
           id="g5044"
           style="fill:#000000;fill-opacity:1">
          <use
             id="use5046"
             y="136.259"
             x="238.007"
             xlink:href="#textext-caada98a-4"
             width="354.33069"
             height="141.73228" />
        </g>
      </g>
    </g>
  </g>
</svg>
