<?xml version="1.0" encoding="UTF-8" standalone="no"?>
<!-- Created with Inkscape (http://www.inkscape.org/) -->

<svg
   xmlns:ns0="http://www.iki.fi/pav/software/textext/"
   xmlns:dc="http://purl.org/dc/elements/1.1/"
   xmlns:cc="http://creativecommons.org/ns#"
   xmlns:rdf="http://www.w3.org/1999/02/22-rdf-syntax-ns#"
   xmlns:svg="http://www.w3.org/2000/svg"
   xmlns="http://www.w3.org/2000/svg"
   xmlns:xlink="http://www.w3.org/1999/xlink"
   xmlns:sodipodi="http://sodipodi.sourceforge.net/DTD/sodipodi-0.dtd"
   xmlns:inkscape="http://www.inkscape.org/namespaces/inkscape"
   width="212.59842"
   height="177.16534"
   id="svg2"
   version="1.1"
   inkscape:version="0.48.4 r9939"
   sodipodi:docname="New document 1">
  <sodipodi:namedview
     id="base"
     pagecolor="#ffffff"
     bordercolor="#666666"
     borderopacity="1.0"
     inkscape:pageopacity="0.0"
     inkscape:pageshadow="2"
     inkscape:zoom="1.9208157"
     inkscape:cx="186.36609"
     inkscape:cy="86.89278"
     inkscape:document-units="px"
     inkscape:current-layer="layer1"
     showgrid="false"
     units="cm"
     inkscape:window-width="1024"
     inkscape:window-height="744"
     inkscape:window-x="0"
     inkscape:window-y="24"
     inkscape:window-maximized="1" />
  <defs
     id="defs4">
    <marker
       inkscape:stockid="Arrow1Mend"
       orient="auto"
       refY="0.0"
       refX="0.0"
       id="Arrow1Mend"
       style="overflow:visible;">
      <path
         id="path3772"
         d="M 0.0,0.0 L 5.0,-5.0 L -12.5,0.0 L 5.0,5.0 L 0.0,0.0 z "
         style="fill-rule:evenodd;stroke:#000000;stroke-width:1.0pt;"
         transform="scale(0.4) rotate(180) translate(10,0)" />
    </marker>
    <marker
       inkscape:stockid="Arrow1Mstart"
       orient="auto"
       refY="0.0"
       refX="0.0"
       id="Arrow1Mstart"
       style="overflow:visible">
      <path
         id="path3769"
         d="M 0.0,0.0 L 5.0,-5.0 L -12.5,0.0 L 5.0,5.0 L 0.0,0.0 z "
         style="fill-rule:evenodd;stroke:#000000;stroke-width:1.0pt"
         transform="scale(0.4) translate(10,0)" />
    </marker>
  </defs>
  <metadata
     id="metadata7">
    <rdf:RDF>
      <cc:Work
         rdf:about="">
        <dc:format>image/svg+xml</dc:format>
        <dc:type
           rdf:resource="http://purl.org/dc/dcmitype/StillImage" />
        <dc:title></dc:title>
      </cc:Work>
    </rdf:RDF>
  </metadata>
  <g
     inkscape:label="Layer 1"
     inkscape:groupmode="layer"
     id="layer1"
     transform="translate(0,-875.19552)">
    <path
       style="fill:none;stroke:#000000;stroke-width:1px;stroke-linecap:butt;stroke-linejoin:miter;stroke-opacity:1"
       d="m 34.642857,107.87963 126.071433,0"
       id="path2985"
       inkscape:connector-curvature="0"
       transform="translate(0,875.19552)" />
    <path
       style="fill:none;stroke:#000000;stroke-width:1px;stroke-linecap:butt;stroke-linejoin:miter;stroke-opacity:1"
       d="m 97.928572,914.86086 0,91.07144"
       id="path2987"
       inkscape:connector-curvature="0" />
    <path
       style="fill:none;stroke:#000000;stroke-width:1.50000000000000000;stroke-linecap:butt;stroke-linejoin:miter;stroke-opacity:1;stroke-miterlimit:4;stroke-dasharray:none;marker-start:url(#Arrow1Mstart);marker-end:url(#Arrow1Mend)"
       d="m 58.76532,941.71049 39.181109,41.0968 42.500001,-41.07142"
       id="path2989"
       inkscape:connector-curvature="0"
       sodipodi:nodetypes="ccc" />
    <g
       transform="matrix(1.2,0,0,1.2,-220.89236,776.74454)"
       ns0:text="$\\overrightarrow{v}$"
       ns0:preamble="/home/sriranga/Desktop/general-books/CSY/article4/figure/package.tex"
       id="g4401">
      <defs
         id="defs4403">
        <g
           id="g4405">
          <symbol
             style="overflow:visible"
             overflow="visible"
             id="textext-019a37c4-0">
            <path
               inkscape:connector-curvature="0"
               style="stroke:none"
               d=""
               id="path4408" />
          </symbol>
          <symbol
             style="overflow:visible"
             overflow="visible"
             id="textext-019a37c4-1">
            <path
               inkscape:connector-curvature="0"
               style="stroke:none"
               d="m 5.71875,-2.28125 0,-0.5625 -5.09375,0 0,0.5625 z m 0,0"
               id="path4411" />
          </symbol>
          <symbol
             style="overflow:visible"
             overflow="visible"
             id="textext-019a37c4-2">
            <path
               inkscape:connector-curvature="0"
               style="stroke:none"
               d="m 8.984375,-2.578125 -1.953125,-2.03125 -0.296875,0.328125 1.1875,1.4375 -7.296875,0 0,0.5625 7.296875,0 -1.1875,1.4375 0.296875,0.328125 z m 0,0"
               id="path4414" />
          </symbol>
          <symbol
             style="overflow:visible"
             overflow="visible"
             id="textext-019a37c4-3">
            <path
               inkscape:connector-curvature="0"
               style="stroke:none"
               d=""
               id="path4417" />
          </symbol>
          <symbol
             style="overflow:visible"
             overflow="visible"
             id="textext-019a37c4-4">
            <path
               inkscape:connector-curvature="0"
               style="stroke:none"
               d="M 0.203125,-4.015625 C 0.3125,-4.03125 0.40625,-4.03125 0.515625,-4.03125 c 0.375,0 0.484375,0.171875 0.625,1.09375 0.09375,0.6875 0.21875,2.1875 0.21875,2.765625 0,0.28125 0.015625,0.34375 0.09375,0.34375 0.234375,0 1.171875,-1.046875 2.1875,-2.46875 C 3.984375,-2.796875 4.25,-3.4375 4.25,-3.8125 c 0,-0.3125 -0.265625,-0.578125 -0.5625,-0.578125 -0.21875,0 -0.375,0.125 -0.375,0.328125 0,0.171875 0.0625,0.28125 0.25,0.4375 0.125,0.125 0.171875,0.203125 0.171875,0.3125 0,0.453125 -0.65625,1.5625 -1.359375,2.296875 l -0.3125,0.3125 C 2,-2.109375 1.9375,-2.625 1.796875,-3.359375 c -0.1875,-1.015625 -0.1875,-1.03125 -0.28125,-1.03125 -0.046875,0 -0.125,0 -0.203125,0.03125 -0.171875,0.046875 -0.71875,0.15625 -1.109375,0.21875 z m 0,0"
               id="path4420" />
          </symbol>
        </g>
      </defs>
      <g
         id="textext-019a37c4-5">
        <g
           style="fill:#000000;fill-opacity:1"
           id="g4423">
          <use
             height="177.16534"
             width="212.59842"
             xlink:href="#textext-019a37c4-1"
             x="223.43201"
             y="130.36099"
             id="use4425" />
        </g>
        <g
           style="fill:#000000;fill-opacity:1"
           id="g4427">
          <use
             height="177.16534"
             width="212.59842"
             xlink:href="#textext-019a37c4-2"
             x="222.0173"
             y="130.36099"
             id="use4429" />
        </g>
        <g
           style="fill:#000000;fill-opacity:1"
           id="g4431">
          <use
             height="177.16534"
             width="212.59842"
             xlink:href="#textext-019a37c4-4"
             x="225.31599"
             y="134.765"
             id="use4433" />
        </g>
      </g>
    </g>
    <g
       id="g4537"
       transform="matrix(1.2,0,0,1.2,-124.89236,776.74454)"
       ns0:preamble="/home/sriranga/Desktop/general-books/CSY/article4/figure/package.tex"
       ns0:text="$\\overrightarrow{u}$">
      <defs
         id="defs4539">
        <g
           id="g4541">
          <symbol
             id="textext-83eba413-0"
             overflow="visible">
            <path
               id="path4544"
               d=""
               style="stroke:none;" />
          </symbol>
          <symbol
             id="textext-83eba413-1"
             overflow="visible">
            <path
               id="path4547"
               d="M 5.71875 -2.28125 L 5.71875 -2.84375 L 0.625 -2.84375 L 0.625 -2.28125 Z M 5.71875 -2.28125 "
               style="stroke:none;" />
          </symbol>
          <symbol
             id="textext-83eba413-2"
             overflow="visible">
            <path
               id="path4550"
               d="M 8.984375 -2.578125 L 7.03125 -4.609375 L 6.734375 -4.28125 L 7.921875 -2.84375 L 0.625 -2.84375 L 0.625 -2.28125 L 7.921875 -2.28125 L 6.734375 -0.84375 L 7.03125 -0.515625 Z M 8.984375 -2.578125 "
               style="stroke:none;" />
          </symbol>
          <symbol
             id="textext-83eba413-3"
             overflow="visible">
            <path
               id="path4553"
               d=""
               style="stroke:none;" />
          </symbol>
          <symbol
             id="textext-83eba413-4"
             overflow="visible">
            <path
               id="path4556"
               d="M 4.59375 -1.171875 C 4.078125 -0.515625 3.921875 -0.375 3.765625 -0.375 C 3.703125 -0.375 3.65625 -0.4375 3.65625 -0.546875 C 3.65625 -0.609375 3.65625 -0.609375 3.84375 -1.328125 L 4.640625 -4.3125 L 3.890625 -4.3125 C 3.328125 -2.765625 3.265625 -2.609375 2.796875 -1.875 C 2.203125 -0.921875 1.71875 -0.421875 1.390625 -0.421875 C 1.28125 -0.421875 1.1875 -0.515625 1.1875 -0.671875 C 1.1875 -0.703125 1.1875 -0.734375 1.203125 -0.75 L 2.109375 -4.375 L 2.078125 -4.390625 C 1.5 -4.265625 1.140625 -4.203125 0.578125 -4.125 L 0.578125 -3.984375 C 0.953125 -3.984375 0.984375 -3.984375 1.0625 -3.921875 C 1.125 -3.90625 1.171875 -3.8125 1.171875 -3.75 C 1.171875 -3.671875 1.125 -3.421875 1.03125 -3.078125 L 0.671875 -1.671875 C 0.484375 -0.953125 0.421875 -0.625 0.421875 -0.4375 C 0.421875 -0.078125 0.59375 0.109375 0.953125 0.109375 C 1.65625 0.109375 2.1875 -0.421875 3.328125 -2.359375 C 3.046875 -1.28125 2.875 -0.59375 2.875 -0.390625 C 2.875 -0.09375 3.0625 0.09375 3.359375 0.09375 C 3.828125 0.09375 4.0625 -0.109375 4.734375 -1.078125 Z M 4.59375 -1.171875 "
               style="stroke:none;" />
          </symbol>
        </g>
      </defs>
      <g
         id="textext-83eba413-5">
        <g
           id="g4559"
           style="fill:rgb(0%,0%,0%);fill-opacity:1;">
          <use
             id="use4561"
             y="130.361"
             x="223.432"
             xlink:href="#textext-83eba413-1" />
        </g>
        <g
           id="g4563"
           style="fill:rgb(0%,0%,0%);fill-opacity:1;">
          <use
             id="use4565"
             y="130.361"
             x="222.017311"
             xlink:href="#textext-83eba413-2" />
        </g>
        <g
           id="g4567"
           style="fill:rgb(0%,0%,0%);fill-opacity:1;">
          <use
             id="use4569"
             y="134.765"
             x="225.037"
             xlink:href="#textext-83eba413-4" />
        </g>
      </g>
    </g>
  </g>
</svg>
