<?xml version="1.0" encoding="UTF-8" standalone="no"?>
<!-- Created with Inkscape (http://www.inkscape.org/) -->

<svg
   xmlns:ns0="http://www.iki.fi/pav/software/textext/"
   xmlns:dc="http://purl.org/dc/elements/1.1/"
   xmlns:cc="http://creativecommons.org/ns#"
   xmlns:rdf="http://www.w3.org/1999/02/22-rdf-syntax-ns#"
   xmlns:svg="http://www.w3.org/2000/svg"
   xmlns="http://www.w3.org/2000/svg"
   xmlns:xlink="http://www.w3.org/1999/xlink"
   xmlns:sodipodi="http://sodipodi.sourceforge.net/DTD/sodipodi-0.dtd"
   xmlns:inkscape="http://www.inkscape.org/namespaces/inkscape"
   inkscape:version="0.48.4 r9939"
   version="1.1"
   id="svg2"
   height="1052.3622047"
   width="744.09448819"
   sodipodi:docname="New document 1">
  <sodipodi:namedview
     id="base"
     pagecolor="#ffffff"
     bordercolor="#666666"
     borderopacity="1.0"
     inkscape:pageopacity="0.0"
     inkscape:pageshadow="2"
     inkscape:zoom="1.979899"
     inkscape:cx="481.99701"
     inkscape:cy="813.21264"
     inkscape:document-units="px"
     inkscape:current-layer="svg2"
     showgrid="false"
     inkscape:window-width="1024"
     inkscape:window-height="744"
     inkscape:window-x="0"
     inkscape:window-y="24"
     inkscape:window-maximized="1" />
  <defs
     id="defs4">
    <marker
       inkscape:stockid="Arrow1Mstart"
       orient="auto"
       refY="0.0"
       refX="0.0"
       id="Arrow1Mstart"
       style="overflow:visible">
      <path
         id="path4892"
         d="M 0.0,0.0 L 5.0,-5.0 L -12.5,0.0 L 5.0,5.0 L 0.0,0.0 z "
         style="fill-rule:evenodd;stroke:#000000;stroke-width:1.0pt"
         transform="scale(0.4) translate(10,0)" />
    </marker>
  </defs>
  <metadata
     id="metadata7">
    <rdf:RDF>
      <cc:Work
         rdf:about="">
        <dc:format>image/svg+xml</dc:format>
        <dc:type
           rdf:resource="http://purl.org/dc/dcmitype/StillImage" />
        <dc:title></dc:title>
      </cc:Work>
    </rdf:RDF>
  </metadata>
  <g
     id="layer1"
     inkscape:groupmode="layer"
     inkscape:label="Layer 1" />
  <g
     id="g3562"
     ns0:preamble="/home/sriranga/Desktop/general-books/CSY/article4/figure/package.tex"
     ns0:text="\\begin{align*}\n&amp; P((X=x)\\cap (Y=y))=P(X=x)P(Y=y)\\\\\n&amp;\\Leftrightarrow\\\\\n&amp; P(X=x,Y=y)=P(X=x)P(Y=y)\\\\\n&amp;\\Leftrightarrow\\\\\n&amp; P_{X,y}(x,y)=P_{X}(x)P_{Y}(y)\n\\end{align*}"
     transform="scale(1.200000,1.200000)">
    <defs
       id="defs3564">
      <g
         id="g3566">
        <symbol
           id="textext-f6f3a36c-0"
           overflow="visible">
          <path
             id="path3569"
             d=""
             style="stroke:none;" />
        </symbol>
        <symbol
           id="textext-f6f3a36c-1"
           overflow="visible">
          <path
             id="path3572"
             d="M 1.453125 -6.34375 C 2.03125 -6.28125 2.15625 -6.1875 2.15625 -5.9375 C 2.15625 -5.796875 2.125 -5.578125 2 -5.140625 L 0.8125 -0.890625 C 0.640625 -0.296875 0.5625 -0.234375 0 -0.15625 L 0 0 L 2.4375 0 L 2.4375 -0.15625 C 1.8125 -0.25 1.765625 -0.28125 1.765625 -0.625 C 1.765625 -0.734375 1.78125 -0.84375 1.890625 -1.203125 L 2.40625 -3.125 C 2.65625 -3.0625 2.921875 -3.046875 3.328125 -3.046875 C 4.140625 -3.046875 4.8125 -3.203125 5.25 -3.515625 C 5.734375 -3.890625 6.03125 -4.4375 6.03125 -5.03125 C 6.03125 -5.984375 5.28125 -6.515625 3.921875 -6.515625 L 1.453125 -6.515625 Z M 3.203125 -5.9375 C 3.265625 -6.140625 3.390625 -6.203125 3.671875 -6.203125 C 4.0625 -6.203125 4.4375 -6.109375 4.640625 -5.96875 C 4.890625 -5.796875 5 -5.5 5 -5.03125 C 5 -4.375 4.78125 -3.921875 4.34375 -3.65625 C 4.03125 -3.484375 3.640625 -3.40625 3.015625 -3.40625 C 2.84375 -3.40625 2.765625 -3.421875 2.5 -3.453125 Z M 3.203125 -5.9375 "
             style="stroke:none;" />
        </symbol>
        <symbol
           id="textext-f6f3a36c-2"
           overflow="visible">
          <path
             id="path3575"
             d="M 6.53125 -6.515625 L 4.453125 -6.515625 L 4.453125 -6.34375 C 4.9375 -6.296875 5.0625 -6.21875 5.0625 -5.984375 C 5.0625 -5.859375 5 -5.734375 4.859375 -5.578125 L 3.421875 -3.921875 L 2.828125 -5.390625 C 2.71875 -5.640625 2.6875 -5.8125 2.6875 -5.9375 C 2.6875 -6.1875 2.84375 -6.28125 3.390625 -6.34375 L 3.390625 -6.515625 L 0.75 -6.515625 L 0.75 -6.34375 C 1.328125 -6.296875 1.484375 -6.203125 1.671875 -5.734375 L 2.734375 -3.125 C 2.359375 -2.703125 2.03125 -2.3125 1.90625 -2.15625 C 0.515625 -0.515625 0.234375 -0.265625 -0.296875 -0.15625 L -0.296875 0 L 1.84375 0 L 1.84375 -0.15625 C 1.359375 -0.15625 1.203125 -0.25 1.203125 -0.5 C 1.203125 -0.640625 1.28125 -0.8125 1.40625 -0.96875 L 2.90625 -2.6875 L 3.578125 -1.03125 C 3.65625 -0.859375 3.6875 -0.703125 3.6875 -0.546875 C 3.6875 -0.265625 3.59375 -0.203125 2.9375 -0.15625 L 2.9375 0 L 5.65625 0 L 5.65625 -0.15625 C 4.953125 -0.234375 4.859375 -0.296875 4.609375 -0.890625 L 3.59375 -3.46875 L 5.28125 -5.40625 C 5.796875 -5.984375 6.09375 -6.203125 6.53125 -6.34375 Z M 6.53125 -6.515625 "
             style="stroke:none;" />
        </symbol>
        <symbol
           id="textext-f6f3a36c-3"
           overflow="visible">
          <path
             id="path3578"
             d="M 4 -1.109375 C 3.921875 -1.015625 3.875 -0.953125 3.78125 -0.84375 C 3.5625 -0.53125 3.4375 -0.4375 3.328125 -0.4375 C 3.1875 -0.4375 3.09375 -0.5625 3.015625 -0.84375 C 3 -0.921875 2.984375 -0.984375 2.984375 -1.015625 C 2.734375 -2.03125 2.625 -2.484375 2.625 -2.625 C 3.0625 -3.40625 3.421875 -3.84375 3.59375 -3.84375 C 3.65625 -3.84375 3.734375 -3.8125 3.84375 -3.765625 C 3.953125 -3.6875 4.03125 -3.671875 4.109375 -3.671875 C 4.3125 -3.671875 4.453125 -3.8125 4.453125 -4.03125 C 4.453125 -4.234375 4.28125 -4.390625 4.046875 -4.390625 C 3.609375 -4.390625 3.234375 -4.03125 2.546875 -2.96875 L 2.4375 -3.515625 C 2.296875 -4.203125 2.1875 -4.390625 1.90625 -4.390625 C 1.6875 -4.390625 1.359375 -4.3125 0.75 -4.109375 L 0.640625 -4.0625 L 0.671875 -3.921875 C 1.0625 -4 1.140625 -4.03125 1.234375 -4.03125 C 1.484375 -4.03125 1.546875 -3.9375 1.6875 -3.34375 L 1.96875 -2.109375 L 1.15625 -0.953125 C 0.953125 -0.640625 0.75 -0.46875 0.640625 -0.46875 C 0.59375 -0.46875 0.484375 -0.5 0.390625 -0.5625 C 0.265625 -0.625 0.15625 -0.65625 0.0625 -0.65625 C -0.125 -0.65625 -0.265625 -0.515625 -0.265625 -0.3125 C -0.265625 -0.046875 -0.0625 0.109375 0.234375 0.109375 C 0.53125 0.109375 0.65625 0.015625 1.15625 -0.59375 C 1.421875 -0.90625 1.640625 -1.171875 2.046875 -1.75 L 2.359375 -0.5625 C 2.484375 -0.046875 2.609375 0.109375 2.9375 0.109375 C 3.3125 0.109375 3.5625 -0.125 4.140625 -1.03125 Z M 4 -1.109375 "
             style="stroke:none;" />
        </symbol>
        <symbol
           id="textext-f6f3a36c-4"
           overflow="visible">
          <path
             id="path3581"
             d="M 0.90625 -6.34375 C 1.46875 -6.265625 1.5 -6.234375 1.671875 -5.6875 L 2.4375 -3.015625 L 1.828125 -0.890625 C 1.65625 -0.359375 1.4375 -0.203125 0.78125 -0.15625 L 0.78125 0 L 3.65625 0 L 3.65625 -0.15625 C 3.5 -0.171875 3.359375 -0.171875 3.296875 -0.1875 C 2.90625 -0.203125 2.765625 -0.3125 2.765625 -0.5625 C 2.765625 -0.765625 2.84375 -1.0625 3.078125 -1.84375 C 3.109375 -1.9375 3.125 -2 3.140625 -2.046875 L 3.421875 -3.046875 L 5.609375 -5.734375 C 5.9375 -6.140625 6.015625 -6.203125 6.3125 -6.34375 L 6.3125 -6.515625 L 4.421875 -6.515625 L 4.421875 -6.34375 C 4.546875 -6.34375 4.65625 -6.328125 4.6875 -6.3125 C 4.984375 -6.296875 5.109375 -6.203125 5.109375 -6.046875 C 5.109375 -5.765625 4.65625 -5.125 3.625 -3.921875 C 3.453125 -3.71875 3.390625 -3.640625 3.234375 -3.453125 C 3.125 -3.890625 3.09375 -4.03125 2.9375 -4.5625 C 2.6875 -5.40625 2.578125 -5.84375 2.578125 -5.984375 C 2.578125 -6.234375 2.6875 -6.296875 3.296875 -6.34375 L 3.296875 -6.515625 L 0.90625 -6.515625 Z M 0.90625 -6.34375 "
             style="stroke:none;" />
        </symbol>
        <symbol
           id="textext-f6f3a36c-5"
           overflow="visible">
          <path
             id="path3584"
             d="M 0.15625 -3.984375 C 0.28125 -4.015625 0.34375 -4.03125 0.453125 -4.03125 C 1.03125 -4.03125 1.171875 -3.78125 1.640625 -2.0625 C 1.796875 -1.421875 2.046875 -0.25 2.046875 -0.078125 C 2.046875 0.078125 1.984375 0.234375 1.828125 0.421875 C 1.53125 0.828125 1.328125 1.09375 1.21875 1.203125 C 1 1.421875 0.890625 1.5 0.75 1.5 C 0.703125 1.5 0.625 1.46875 0.515625 1.390625 C 0.375 1.28125 0.265625 1.21875 0.15625 1.21875 C -0.0625 1.21875 -0.234375 1.390625 -0.234375 1.609375 C -0.234375 1.859375 -0.015625 2.046875 0.265625 2.046875 C 0.90625 2.046875 2.21875 0.5625 3.296875 -1.421875 C 3.96875 -2.640625 4.25 -3.359375 4.25 -3.84375 C 4.25 -4.140625 4 -4.390625 3.703125 -4.390625 C 3.46875 -4.390625 3.3125 -4.25 3.3125 -4.03125 C 3.3125 -3.875 3.390625 -3.765625 3.59375 -3.640625 C 3.78125 -3.53125 3.84375 -3.4375 3.84375 -3.296875 C 3.84375 -2.90625 3.484375 -2.125 2.625 -0.71875 L 2.4375 -1.875 C 2.28125 -2.75 1.71875 -4.390625 1.578125 -4.390625 L 1.53125 -4.390625 C 1.53125 -4.390625 1.484375 -4.390625 1.453125 -4.390625 C 1.359375 -4.375 1 -4.3125 0.46875 -4.21875 C 0.421875 -4.203125 0.296875 -4.171875 0.15625 -4.15625 Z M 0.15625 -3.984375 "
             style="stroke:none;" />
        </symbol>
        <symbol
           id="textext-f6f3a36c-6"
           overflow="visible">
          <path
             id="path3587"
             d=""
             style="stroke:none;" />
        </symbol>
        <symbol
           id="textext-f6f3a36c-7"
           overflow="visible">
          <path
             id="path3590"
             d="M 2.9375 -6.734375 C 2.203125 -6.265625 1.90625 -6 1.53125 -5.546875 C 0.828125 -4.671875 0.484375 -3.671875 0.484375 -2.515625 C 0.484375 -1.25 0.84375 -0.265625 1.71875 0.75 C 2.140625 1.21875 2.390625 1.453125 2.90625 1.765625 L 3.03125 1.609375 C 2.234375 0.984375 1.953125 0.625 1.6875 -0.125 C 1.453125 -0.78125 1.328125 -1.546875 1.328125 -2.546875 C 1.328125 -3.59375 1.46875 -4.40625 1.734375 -5.03125 C 2.015625 -5.640625 2.3125 -6 3.03125 -6.578125 Z M 2.9375 -6.734375 "
             style="stroke:none;" />
        </symbol>
        <symbol
           id="textext-f6f3a36c-8"
           overflow="visible">
          <path
             id="path3593"
             d="M 0.375 1.765625 C 1.109375 1.28125 1.421875 1.03125 1.78125 0.5625 C 2.5 -0.296875 2.84375 -1.296875 2.84375 -2.46875 C 2.84375 -3.734375 2.46875 -4.703125 1.59375 -5.71875 C 1.1875 -6.203125 0.921875 -6.421875 0.40625 -6.734375 L 0.296875 -6.578125 C 1.09375 -5.953125 1.359375 -5.609375 1.640625 -4.859375 C 1.875 -4.1875 1.984375 -3.421875 1.984375 -2.4375 C 1.984375 -1.390625 1.859375 -0.5625 1.578125 0.046875 C 1.3125 0.671875 1 1.03125 0.296875 1.609375 Z M 0.375 1.765625 "
             style="stroke:none;" />
        </symbol>
        <symbol
           id="textext-f6f3a36c-9"
           overflow="visible">
          <path
             id="path3596"
             d=""
             style="stroke:none;" />
        </symbol>
        <symbol
           id="textext-f6f3a36c-10"
           overflow="visible">
          <path
             id="path3599"
             d="M 5.71875 -3.296875 L 5.71875 -3.84375 L 0.625 -3.84375 L 0.625 -3.296875 Z M 5.71875 -1.265625 L 5.71875 -1.828125 L 0.625 -1.828125 L 0.625 -1.265625 Z M 5.71875 -1.265625 "
             style="stroke:none;" />
        </symbol>
        <symbol
           id="textext-f6f3a36c-11"
           overflow="visible">
          <path
             id="path3602"
             d=""
             style="stroke:none;" />
        </symbol>
        <symbol
           id="textext-f6f3a36c-12"
           overflow="visible">
          <path
             id="path3605"
             d="M 5.90625 0 L 5.90625 -3.078125 C 5.90625 -4.5625 4.6875 -5.71875 3.265625 -5.71875 C 1.859375 -5.71875 0.625 -4.5625 0.625 -3.078125 L 0.625 0 L 1.125 0 L 1.125 -3.125 C 1.125 -4.3125 2.109375 -5.203125 3.265625 -5.203125 C 4.46875 -5.203125 5.390625 -4.171875 5.390625 -3.125 L 5.390625 0 Z M 5.90625 0 "
             style="stroke:none;" />
        </symbol>
        <symbol
           id="textext-f6f3a36c-13"
           overflow="visible">
          <path
             id="path3608"
             d="M 9.09375 -2.5625 L 6.6875 -5.078125 L 6.40625 -4.78125 L 7.171875 -3.84375 L 2.546875 -3.84375 L 3.296875 -4.78125 L 3.015625 -5.078125 L 0.625 -2.546875 L 3.015625 -0.046875 L 3.296875 -0.34375 L 2.546875 -1.28125 L 7.171875 -1.28125 L 6.40625 -0.34375 L 6.6875 -0.046875 Z M 8.25 -2.5625 L 7.640625 -1.828125 L 2.0625 -1.828125 L 1.46875 -2.5625 L 2.078125 -3.296875 L 7.640625 -3.296875 Z M 8.25 -2.5625 "
             style="stroke:none;" />
        </symbol>
        <symbol
           id="textext-f6f3a36c-14"
           overflow="visible">
          <path
             id="path3611"
             d=""
             style="stroke:none;" />
        </symbol>
        <symbol
           id="textext-f6f3a36c-15"
           overflow="visible">
          <path
             id="path3614"
             d="M 1.9375 -0.0625 C 1.9375 -0.890625 1.359375 -1.015625 1.140625 -1.015625 C 0.890625 -1.015625 0.5625 -0.875 0.5625 -0.4375 C 0.5625 -0.046875 0.921875 0.0625 1.171875 0.0625 C 1.25 0.0625 1.296875 0.046875 1.328125 0.046875 C 1.359375 0.03125 1.390625 0.015625 1.421875 0.015625 C 1.484375 0.015625 1.5625 0.0625 1.5625 0.15625 C 1.5625 0.34375 1.390625 0.796875 0.734375 1.21875 L 0.828125 1.40625 C 1.125 1.3125 1.9375 0.640625 1.9375 -0.0625 Z M 1.9375 -0.0625 "
             style="stroke:none;" />
        </symbol>
        <symbol
           id="textext-f6f3a36c-16"
           overflow="visible">
          <path
             id="path3617"
             d=""
             style="stroke:none;" />
        </symbol>
        <symbol
           id="textext-f6f3a36c-17"
           overflow="visible">
          <path
             id="path3620"
             d="M 4.5625 -4.546875 L 3.109375 -4.546875 L 3.109375 -4.4375 C 3.453125 -4.390625 3.546875 -4.34375 3.546875 -4.1875 C 3.546875 -4.09375 3.5 -4.015625 3.40625 -3.90625 L 2.390625 -2.734375 L 1.984375 -3.765625 C 1.90625 -3.9375 1.875 -4.0625 1.875 -4.15625 C 1.875 -4.328125 1.984375 -4.390625 2.375 -4.4375 L 2.375 -4.546875 L 0.53125 -4.546875 L 0.53125 -4.4375 C 0.9375 -4.40625 1.03125 -4.328125 1.171875 -4.015625 L 1.90625 -2.1875 C 1.65625 -1.890625 1.421875 -1.609375 1.328125 -1.5 C 0.359375 -0.359375 0.171875 -0.1875 -0.203125 -0.109375 L -0.203125 0 L 1.296875 0 L 1.296875 -0.109375 C 0.953125 -0.109375 0.84375 -0.171875 0.84375 -0.34375 C 0.84375 -0.453125 0.890625 -0.578125 0.984375 -0.671875 L 2.03125 -1.875 L 2.5 -0.71875 C 2.546875 -0.59375 2.578125 -0.484375 2.578125 -0.390625 C 2.578125 -0.1875 2.515625 -0.140625 2.046875 -0.109375 L 2.046875 0 L 3.953125 0 L 3.953125 -0.109375 C 3.46875 -0.171875 3.40625 -0.203125 3.21875 -0.625 L 2.515625 -2.421875 L 3.6875 -3.78125 C 4.0625 -4.1875 4.265625 -4.34375 4.5625 -4.4375 Z M 4.5625 -4.546875 "
             style="stroke:none;" />
        </symbol>
        <symbol
           id="textext-f6f3a36c-18"
           overflow="visible">
          <path
             id="path3623"
             d="M 0.109375 -2.78125 C 0.1875 -2.8125 0.25 -2.8125 0.328125 -2.8125 C 0.71875 -2.8125 0.828125 -2.640625 1.140625 -1.4375 C 1.265625 -0.984375 1.421875 -0.171875 1.421875 -0.0625 C 1.421875 0.0625 1.390625 0.171875 1.28125 0.296875 C 1.0625 0.578125 0.921875 0.765625 0.84375 0.84375 C 0.703125 1 0.625 1.046875 0.53125 1.046875 C 0.484375 1.046875 0.4375 1.03125 0.359375 0.96875 C 0.265625 0.890625 0.1875 0.859375 0.109375 0.859375 C -0.046875 0.859375 -0.171875 0.96875 -0.171875 1.125 C -0.171875 1.296875 -0.015625 1.4375 0.1875 1.4375 C 0.640625 1.4375 1.546875 0.390625 2.296875 -0.984375 C 2.78125 -1.84375 2.96875 -2.34375 2.96875 -2.6875 C 2.96875 -2.90625 2.796875 -3.078125 2.578125 -3.078125 C 2.421875 -3.078125 2.3125 -2.96875 2.3125 -2.8125 C 2.3125 -2.703125 2.375 -2.640625 2.515625 -2.546875 C 2.640625 -2.46875 2.6875 -2.40625 2.6875 -2.3125 C 2.6875 -2.03125 2.4375 -1.484375 1.84375 -0.5 L 1.703125 -1.3125 C 1.59375 -1.921875 1.203125 -3.078125 1.09375 -3.078125 L 1.078125 -3.078125 C 1.0625 -3.0625 1.03125 -3.0625 1.015625 -3.0625 C 0.953125 -3.0625 0.703125 -3.015625 0.328125 -2.953125 C 0.296875 -2.9375 0.203125 -2.921875 0.109375 -2.90625 Z M 0.109375 -2.78125 "
             style="stroke:none;" />
        </symbol>
        <symbol
           id="textext-f6f3a36c-19"
           overflow="visible">
          <path
             id="path3626"
             d="M 0.640625 -4.4375 C 1.03125 -4.390625 1.046875 -4.359375 1.15625 -3.984375 L 1.703125 -2.109375 L 1.28125 -0.625 C 1.15625 -0.25 1 -0.140625 0.546875 -0.109375 L 0.546875 0 L 2.5625 0 L 2.5625 -0.109375 C 2.453125 -0.125 2.34375 -0.125 2.3125 -0.125 C 2.03125 -0.140625 1.9375 -0.21875 1.9375 -0.390625 C 1.9375 -0.53125 1.984375 -0.75 2.15625 -1.296875 C 2.171875 -1.359375 2.1875 -1.40625 2.1875 -1.421875 L 2.390625 -2.125 L 3.921875 -4.015625 C 4.140625 -4.296875 4.203125 -4.34375 4.40625 -4.4375 L 4.40625 -4.546875 L 3.09375 -4.546875 L 3.09375 -4.4375 C 3.171875 -4.4375 3.25 -4.421875 3.28125 -4.421875 C 3.484375 -4.390625 3.578125 -4.34375 3.578125 -4.21875 C 3.578125 -4.03125 3.25 -3.578125 2.53125 -2.734375 C 2.40625 -2.59375 2.375 -2.546875 2.265625 -2.421875 C 2.1875 -2.71875 2.15625 -2.8125 2.046875 -3.1875 C 1.875 -3.78125 1.796875 -4.078125 1.796875 -4.1875 C 1.796875 -4.359375 1.875 -4.390625 2.296875 -4.4375 L 2.296875 -4.546875 L 0.640625 -4.546875 Z M 0.640625 -4.4375 "
             style="stroke:none;" />
        </symbol>
        <symbol
           id="textext-f6f3a36c-20"
           overflow="visible">
          <path
             id="path3629"
             d=""
             style="stroke:none;" />
        </symbol>
        <symbol
           id="textext-f6f3a36c-21"
           overflow="visible">
          <path
             id="path3632"
             d="M 1.359375 -0.046875 C 1.359375 -0.625 0.953125 -0.703125 0.796875 -0.703125 C 0.625 -0.703125 0.390625 -0.609375 0.390625 -0.3125 C 0.390625 -0.03125 0.640625 0.046875 0.828125 0.046875 C 0.875 0.046875 0.90625 0.03125 0.921875 0.03125 C 0.953125 0.015625 0.96875 0.015625 0.984375 0.015625 C 1.03125 0.015625 1.09375 0.046875 1.09375 0.109375 C 1.09375 0.25 0.96875 0.5625 0.515625 0.84375 L 0.578125 0.984375 C 0.78125 0.90625 1.359375 0.453125 1.359375 -0.046875 Z M 1.359375 -0.046875 "
             style="stroke:none;" />
        </symbol>
      </g>
    </defs>
    <g
       id="textext-f6f3a36c-22">
      <g
         id="g3635"
         style="fill:rgb(0%,0%,0%);fill-opacity:1;">
        <use
           id="use3637"
           y="134.765"
           x="311.84"
           xlink:href="#textext-f6f3a36c-1" />
      </g>
      <g
         id="g3639"
         style="fill:rgb(0%,0%,0%);fill-opacity:1;">
        <use
           id="use3641"
           y="134.765"
           x="317.927"
           xlink:href="#textext-f6f3a36c-7" />
        <use
           id="use3643"
           y="134.765"
           x="321.244546"
           xlink:href="#textext-f6f3a36c-7" />
      </g>
      <g
         id="g3645"
         style="fill:rgb(0%,0%,0%);fill-opacity:1;">
        <use
           id="use3647"
           y="134.765"
           x="324.811"
           xlink:href="#textext-f6f3a36c-2" />
      </g>
      <g
         id="g3649"
         style="fill:rgb(0%,0%,0%);fill-opacity:1;">
        <use
           id="use3651"
           y="134.765"
           x="334.104"
           xlink:href="#textext-f6f3a36c-10" />
      </g>
      <g
         id="g3653"
         style="fill:rgb(0%,0%,0%);fill-opacity:1;">
        <use
           id="use3655"
           y="134.765"
           x="343.706"
           xlink:href="#textext-f6f3a36c-3" />
      </g>
      <g
         id="g3657"
         style="fill:rgb(0%,0%,0%);fill-opacity:1;">
        <use
           id="use3659"
           y="134.765"
           x="348.159"
           xlink:href="#textext-f6f3a36c-8" />
      </g>
      <g
         id="g3661"
         style="fill:rgb(0%,0%,0%);fill-opacity:1;">
        <use
           id="use3663"
           y="134.765"
           x="353.691"
           xlink:href="#textext-f6f3a36c-12" />
      </g>
      <g
         id="g3665"
         style="fill:rgb(0%,0%,0%);fill-opacity:1;">
        <use
           id="use3667"
           y="134.765"
           x="362.42"
           xlink:href="#textext-f6f3a36c-7" />
      </g>
      <g
         id="g3669"
         style="fill:rgb(0%,0%,0%);fill-opacity:1;">
        <use
           id="use3671"
           y="134.765"
           x="365.738"
           xlink:href="#textext-f6f3a36c-4" />
      </g>
      <g
         id="g3673"
         style="fill:rgb(0%,0%,0%);fill-opacity:1;">
        <use
           id="use3675"
           y="134.765"
           x="374.811"
           xlink:href="#textext-f6f3a36c-10" />
      </g>
      <g
         id="g3677"
         style="fill:rgb(0%,0%,0%);fill-opacity:1;">
        <use
           id="use3679"
           y="134.765"
           x="383.915"
           xlink:href="#textext-f6f3a36c-5" />
      </g>
      <g
         id="g3681"
         style="fill:rgb(0%,0%,0%);fill-opacity:1;">
        <use
           id="use3683"
           y="134.765"
           x="388.338"
           xlink:href="#textext-f6f3a36c-8" />
        <use
           id="use3685"
           y="134.765"
           x="391.655546"
           xlink:href="#textext-f6f3a36c-8" />
      </g>
      <g
         id="g3687"
         style="fill:rgb(0%,0%,0%);fill-opacity:1;">
        <use
           id="use3689"
           y="134.765"
           x="397.741"
           xlink:href="#textext-f6f3a36c-10" />
      </g>
      <g
         id="g3691"
         style="fill:rgb(0%,0%,0%);fill-opacity:1;">
        <use
           id="use3693"
           y="134.765"
           x="407.093"
           xlink:href="#textext-f6f3a36c-1" />
      </g>
      <g
         id="g3695"
         style="fill:rgb(0%,0%,0%);fill-opacity:1;">
        <use
           id="use3697"
           y="134.765"
           x="413.18"
           xlink:href="#textext-f6f3a36c-7" />
      </g>
      <g
         id="g3699"
         style="fill:rgb(0%,0%,0%);fill-opacity:1;">
        <use
           id="use3701"
           y="134.765"
           x="416.747"
           xlink:href="#textext-f6f3a36c-2" />
      </g>
      <g
         id="g3703"
         style="fill:rgb(0%,0%,0%);fill-opacity:1;">
        <use
           id="use3705"
           y="134.765"
           x="426.04"
           xlink:href="#textext-f6f3a36c-10" />
      </g>
      <g
         id="g3707"
         style="fill:rgb(0%,0%,0%);fill-opacity:1;">
        <use
           id="use3709"
           y="134.765"
           x="435.642"
           xlink:href="#textext-f6f3a36c-3" />
      </g>
      <g
         id="g3711"
         style="fill:rgb(0%,0%,0%);fill-opacity:1;">
        <use
           id="use3713"
           y="134.765"
           x="440.095"
           xlink:href="#textext-f6f3a36c-8" />
      </g>
      <g
         id="g3715"
         style="fill:rgb(0%,0%,0%);fill-opacity:1;">
        <use
           id="use3717"
           y="134.765"
           x="443.662"
           xlink:href="#textext-f6f3a36c-1" />
      </g>
      <g
         id="g3719"
         style="fill:rgb(0%,0%,0%);fill-opacity:1;">
        <use
           id="use3721"
           y="134.765"
           x="449.749"
           xlink:href="#textext-f6f3a36c-7" />
      </g>
      <g
         id="g3723"
         style="fill:rgb(0%,0%,0%);fill-opacity:1;">
        <use
           id="use3725"
           y="134.765"
           x="453.066"
           xlink:href="#textext-f6f3a36c-4" />
      </g>
      <g
         id="g3727"
         style="fill:rgb(0%,0%,0%);fill-opacity:1;">
        <use
           id="use3729"
           y="134.765"
           x="462.14"
           xlink:href="#textext-f6f3a36c-10" />
      </g>
      <g
         id="g3731"
         style="fill:rgb(0%,0%,0%);fill-opacity:1;">
        <use
           id="use3733"
           y="134.765"
           x="471.243"
           xlink:href="#textext-f6f3a36c-5" />
      </g>
      <g
         id="g3735"
         style="fill:rgb(0%,0%,0%);fill-opacity:1;">
        <use
           id="use3737"
           y="134.765"
           x="475.667"
           xlink:href="#textext-f6f3a36c-8" />
      </g>
      <g
         id="g3739"
         style="fill:rgb(0%,0%,0%);fill-opacity:1;">
        <use
           id="use3741"
           y="149.709"
           x="314.358"
           xlink:href="#textext-f6f3a36c-13" />
      </g>
      <g
         id="g3743"
         style="fill:rgb(0%,0%,0%);fill-opacity:1;">
        <use
           id="use3745"
           y="164.653"
           x="311.84"
           xlink:href="#textext-f6f3a36c-1" />
      </g>
      <g
         id="g3747"
         style="fill:rgb(0%,0%,0%);fill-opacity:1;">
        <use
           id="use3749"
           y="164.653"
           x="317.927"
           xlink:href="#textext-f6f3a36c-7" />
      </g>
      <g
         id="g3751"
         style="fill:rgb(0%,0%,0%);fill-opacity:1;">
        <use
           id="use3753"
           y="164.653"
           x="321.494"
           xlink:href="#textext-f6f3a36c-2" />
      </g>
      <g
         id="g3755"
         style="fill:rgb(0%,0%,0%);fill-opacity:1;">
        <use
           id="use3757"
           y="164.653"
           x="330.787"
           xlink:href="#textext-f6f3a36c-10" />
      </g>
      <g
         id="g3759"
         style="fill:rgb(0%,0%,0%);fill-opacity:1;">
        <use
           id="use3761"
           y="164.653"
           x="340.388"
           xlink:href="#textext-f6f3a36c-3" />
      </g>
      <g
         id="g3763"
         style="fill:rgb(0%,0%,0%);fill-opacity:1;">
        <use
           id="use3765"
           y="164.653"
           x="344.842"
           xlink:href="#textext-f6f3a36c-15" />
      </g>
      <g
         id="g3767"
         style="fill:rgb(0%,0%,0%);fill-opacity:1;">
        <use
           id="use3769"
           y="164.653"
           x="348.993"
           xlink:href="#textext-f6f3a36c-4" />
      </g>
      <g
         id="g3771"
         style="fill:rgb(0%,0%,0%);fill-opacity:1;">
        <use
           id="use3773"
           y="164.653"
           x="358.066"
           xlink:href="#textext-f6f3a36c-10" />
      </g>
      <g
         id="g3775"
         style="fill:rgb(0%,0%,0%);fill-opacity:1;">
        <use
           id="use3777"
           y="164.653"
           x="367.17"
           xlink:href="#textext-f6f3a36c-5" />
      </g>
      <g
         id="g3779"
         style="fill:rgb(0%,0%,0%);fill-opacity:1;">
        <use
           id="use3781"
           y="164.653"
           x="371.593"
           xlink:href="#textext-f6f3a36c-8" />
      </g>
      <g
         id="g3783"
         style="fill:rgb(0%,0%,0%);fill-opacity:1;">
        <use
           id="use3785"
           y="164.653"
           x="377.678"
           xlink:href="#textext-f6f3a36c-10" />
      </g>
      <g
         id="g3787"
         style="fill:rgb(0%,0%,0%);fill-opacity:1;">
        <use
           id="use3789"
           y="164.653"
           x="387.031"
           xlink:href="#textext-f6f3a36c-1" />
      </g>
      <g
         id="g3791"
         style="fill:rgb(0%,0%,0%);fill-opacity:1;">
        <use
           id="use3793"
           y="164.653"
           x="393.118"
           xlink:href="#textext-f6f3a36c-7" />
      </g>
      <g
         id="g3795"
         style="fill:rgb(0%,0%,0%);fill-opacity:1;">
        <use
           id="use3797"
           y="164.653"
           x="396.685"
           xlink:href="#textext-f6f3a36c-2" />
      </g>
      <g
         id="g3799"
         style="fill:rgb(0%,0%,0%);fill-opacity:1;">
        <use
           id="use3801"
           y="164.653"
           x="405.977"
           xlink:href="#textext-f6f3a36c-10" />
      </g>
      <g
         id="g3803"
         style="fill:rgb(0%,0%,0%);fill-opacity:1;">
        <use
           id="use3805"
           y="164.653"
           x="415.579"
           xlink:href="#textext-f6f3a36c-3" />
      </g>
      <g
         id="g3807"
         style="fill:rgb(0%,0%,0%);fill-opacity:1;">
        <use
           id="use3809"
           y="164.653"
           x="420.032"
           xlink:href="#textext-f6f3a36c-8" />
      </g>
      <g
         id="g3811"
         style="fill:rgb(0%,0%,0%);fill-opacity:1;">
        <use
           id="use3813"
           y="164.653"
           x="423.599"
           xlink:href="#textext-f6f3a36c-1" />
      </g>
      <g
         id="g3815"
         style="fill:rgb(0%,0%,0%);fill-opacity:1;">
        <use
           id="use3817"
           y="164.653"
           x="429.686"
           xlink:href="#textext-f6f3a36c-7" />
      </g>
      <g
         id="g3819"
         style="fill:rgb(0%,0%,0%);fill-opacity:1;">
        <use
           id="use3821"
           y="164.653"
           x="433.004"
           xlink:href="#textext-f6f3a36c-4" />
      </g>
      <g
         id="g3823"
         style="fill:rgb(0%,0%,0%);fill-opacity:1;">
        <use
           id="use3825"
           y="164.653"
           x="442.077"
           xlink:href="#textext-f6f3a36c-10" />
      </g>
      <g
         id="g3827"
         style="fill:rgb(0%,0%,0%);fill-opacity:1;">
        <use
           id="use3829"
           y="164.653"
           x="451.181"
           xlink:href="#textext-f6f3a36c-5" />
      </g>
      <g
         id="g3831"
         style="fill:rgb(0%,0%,0%);fill-opacity:1;">
        <use
           id="use3833"
           y="164.653"
           x="455.604"
           xlink:href="#textext-f6f3a36c-8" />
      </g>
      <g
         id="g3835"
         style="fill:rgb(0%,0%,0%);fill-opacity:1;">
        <use
           id="use3837"
           y="179.597"
           x="314.358"
           xlink:href="#textext-f6f3a36c-13" />
      </g>
      <g
         id="g3839"
         style="fill:rgb(0%,0%,0%);fill-opacity:1;">
        <use
           id="use3841"
           y="194.541"
           x="311.84"
           xlink:href="#textext-f6f3a36c-1" />
      </g>
      <g
         id="g3843"
         style="fill:rgb(0%,0%,0%);fill-opacity:1;">
        <use
           id="use3845"
           y="196.035"
           x="318.101"
           xlink:href="#textext-f6f3a36c-17" />
      </g>
      <g
         id="g3847"
         style="fill:rgb(0%,0%,0%);fill-opacity:1;">
        <use
           id="use3849"
           y="196.035"
           x="322.286"
           xlink:href="#textext-f6f3a36c-21" />
      </g>
      <g
         id="g3851"
         style="fill:rgb(0%,0%,0%);fill-opacity:1;">
        <use
           id="use3853"
           y="196.035"
           x="324.029"
           xlink:href="#textext-f6f3a36c-18" />
      </g>
      <g
         id="g3855"
         style="fill:rgb(0%,0%,0%);fill-opacity:1;">
        <use
           id="use3857"
           y="194.541"
           x="327.624"
           xlink:href="#textext-f6f3a36c-7" />
      </g>
      <g
         id="g3859"
         style="fill:rgb(0%,0%,0%);fill-opacity:1;">
        <use
           id="use3861"
           y="194.541"
           x="331.439"
           xlink:href="#textext-f6f3a36c-3" />
      </g>
      <g
         id="g3863"
         style="fill:rgb(0%,0%,0%);fill-opacity:1;">
        <use
           id="use3865"
           y="194.541"
           x="335.893"
           xlink:href="#textext-f6f3a36c-15" />
      </g>
      <g
         id="g3867"
         style="fill:rgb(0%,0%,0%);fill-opacity:1;">
        <use
           id="use3869"
           y="194.541"
           x="340.044"
           xlink:href="#textext-f6f3a36c-5" />
      </g>
      <g
         id="g3871"
         style="fill:rgb(0%,0%,0%);fill-opacity:1;">
        <use
           id="use3873"
           y="194.541"
           x="344.467"
           xlink:href="#textext-f6f3a36c-8" />
      </g>
      <g
         id="g3875"
         style="fill:rgb(0%,0%,0%);fill-opacity:1;">
        <use
           id="use3877"
           y="194.541"
           x="350.552"
           xlink:href="#textext-f6f3a36c-10" />
      </g>
      <g
         id="g3879"
         style="fill:rgb(0%,0%,0%);fill-opacity:1;">
        <use
           id="use3881"
           y="194.541"
           x="359.905"
           xlink:href="#textext-f6f3a36c-1" />
      </g>
      <g
         id="g3883"
         style="fill:rgb(0%,0%,0%);fill-opacity:1;">
        <use
           id="use3885"
           y="196.035"
           x="366.166"
           xlink:href="#textext-f6f3a36c-17" />
      </g>
      <g
         id="g3887"
         style="fill:rgb(0%,0%,0%);fill-opacity:1;">
        <use
           id="use3889"
           y="194.541"
           x="371.232"
           xlink:href="#textext-f6f3a36c-7" />
      </g>
      <g
         id="g3891"
         style="fill:rgb(0%,0%,0%);fill-opacity:1;">
        <use
           id="use3893"
           y="194.541"
           x="375.048"
           xlink:href="#textext-f6f3a36c-3" />
      </g>
      <g
         id="g3895"
         style="fill:rgb(0%,0%,0%);fill-opacity:1;">
        <use
           id="use3897"
           y="194.541"
           x="379.501"
           xlink:href="#textext-f6f3a36c-8" />
      </g>
      <g
         id="g3899"
         style="fill:rgb(0%,0%,0%);fill-opacity:1;">
        <use
           id="use3901"
           y="194.541"
           x="383.068"
           xlink:href="#textext-f6f3a36c-1" />
      </g>
      <g
         id="g3903"
         style="fill:rgb(0%,0%,0%);fill-opacity:1;">
        <use
           id="use3905"
           y="196.035"
           x="389.155"
           xlink:href="#textext-f6f3a36c-19" />
      </g>
      <g
         id="g3907"
         style="fill:rgb(0%,0%,0%);fill-opacity:1;">
        <use
           id="use3909"
           y="194.541"
           x="394.068"
           xlink:href="#textext-f6f3a36c-7" />
      </g>
      <g
         id="g3911"
         style="fill:rgb(0%,0%,0%);fill-opacity:1;">
        <use
           id="use3913"
           y="194.541"
           x="397.385"
           xlink:href="#textext-f6f3a36c-5" />
      </g>
      <g
         id="g3915"
         style="fill:rgb(0%,0%,0%);fill-opacity:1;">
        <use
           id="use3917"
           y="194.541"
           x="401.809"
           xlink:href="#textext-f6f3a36c-8" />
      </g>
    </g>
  </g>
  <path
     style="fill:none;stroke:#000000;stroke-width:1px;stroke-linecap:butt;stroke-linejoin:miter;stroke-opacity:1;marker-start:url(#Arrow1Mstart)"
     d="m 415.17857,189.86218 0,-11.07143 21.96429,-3.21429"
     id="path4112"
     inkscape:connector-curvature="0"
     sodipodi:nodetypes="ccc" />
  <text
     xml:space="preserve"
     style="font-size:12px;font-style:normal;font-variant:normal;font-weight:normal;font-stretch:normal;line-height:125%;letter-spacing:0px;word-spacing:0px;fill:#000000;fill-opacity:1;stroke:none;font-family:Nimbus Roman No9 L;-inkscape-font-specification:Nimbus Roman No9 L"
     x="439.10715"
     y="177.89789"
     id="text5326"
     sodipodi:linespacing="125%"><tspan
       sodipodi:role="line"
       id="tspan5328"
       x="439.10715"
       y="177.89789">and</tspan></text>
</svg>
