<?xml version="1.0" encoding="UTF-8" standalone="no"?>
<!-- Created with Inkscape (http://www.inkscape.org/) -->

<svg
   xmlns:ns0="http://www.iki.fi/pav/software/textext/"
   xmlns:dc="http://purl.org/dc/elements/1.1/"
   xmlns:cc="http://creativecommons.org/ns#"
   xmlns:rdf="http://www.w3.org/1999/02/22-rdf-syntax-ns#"
   xmlns:svg="http://www.w3.org/2000/svg"
   xmlns="http://www.w3.org/2000/svg"
   xmlns:xlink="http://www.w3.org/1999/xlink"
   xmlns:sodipodi="http://sodipodi.sourceforge.net/DTD/sodipodi-0.dtd"
   xmlns:inkscape="http://www.inkscape.org/namespaces/inkscape"
   width="744.09448819"
   height="1052.3622047"
   id="svg2"
   version="1.1"
   inkscape:version="0.48.4 r9939"
   sodipodi:docname="New document 1">
  <sodipodi:namedview
     id="base"
     pagecolor="#ffffff"
     bordercolor="#666666"
     borderopacity="1.0"
     inkscape:pageopacity="0.0"
     inkscape:pageshadow="2"
     inkscape:zoom="2.8"
     inkscape:cx="497.48018"
     inkscape:cy="890.63368"
     inkscape:document-units="px"
     inkscape:current-layer="textext-08189805-25"
     showgrid="false"
     inkscape:window-width="1024"
     inkscape:window-height="744"
     inkscape:window-x="0"
     inkscape:window-y="24"
     inkscape:window-maximized="1" />
  <defs
     id="defs4">
    <marker
       inkscape:stockid="Arrow1Mend"
       orient="auto"
       refY="0.0"
       refX="0.0"
       id="Arrow1Mend"
       style="overflow:visible;">
      <path
         id="path4126"
         d="M 0.0,0.0 L 5.0,-5.0 L -12.5,0.0 L 5.0,5.0 L 0.0,0.0 z "
         style="fill-rule:evenodd;stroke:#000000;stroke-width:1.0pt;"
         transform="scale(0.4) rotate(180) translate(10,0)" />
    </marker>
    <marker
       inkscape:stockid="Arrow1Mstart"
       orient="auto"
       refY="0.0"
       refX="0.0"
       id="Arrow1Mstart"
       style="overflow:visible">
      <path
         id="path4123"
         d="M 0.0,0.0 L 5.0,-5.0 L -12.5,0.0 L 5.0,5.0 L 0.0,0.0 z "
         style="fill-rule:evenodd;stroke:#000000;stroke-width:1.0pt"
         transform="scale(0.4) translate(10,0)" />
    </marker>
  </defs>
  <metadata
     id="metadata7">
    <rdf:RDF>
      <cc:Work
         rdf:about="">
        <dc:format>image/svg+xml</dc:format>
        <dc:type
           rdf:resource="http://purl.org/dc/dcmitype/StillImage" />
        <dc:title></dc:title>
      </cc:Work>
    </rdf:RDF>
  </metadata>
  <g
     id="layer1"
     inkscape:groupmode="layer"
     inkscape:label="Layer 1">
    <g
       id="g2990"
       ns0:preamble="/home/sriranga/Desktop/general-books/CSY/article4/figure/package.tex"
       ns0:text="\\begin{align*}\n\\cos \\nless (u,v)=-1 &amp;\\Longleftrightarrow \\nless (u,v)=\\Pi\\\\\n                     &amp;\\Longleftrightarrow \\overrightarrow{u}=a\\overrightarrow{v}, a&lt;0\n\\end{align*}"
       transform="scale(1.200000,1.200000)">
      <defs
         id="defs2992">
        <g
           id="g2994">
          <symbol
             id="textext-08189805-0"
             overflow="visible">
            <path
               id="path2997"
               d=""
               style="stroke:none;" />
          </symbol>
          <symbol
             id="textext-08189805-1"
             overflow="visible">
            <path
               id="path3000"
               d="M 3.96875 -1.5625 C 3.484375 -0.859375 3.125 -0.625 2.5625 -0.625 C 1.65625 -0.625 1.015625 -1.421875 1.015625 -2.5625 C 1.015625 -3.59375 1.5625 -4.296875 2.375 -4.296875 C 2.734375 -4.296875 2.859375 -4.1875 2.953125 -3.8125 L 3.015625 -3.59375 C 3.09375 -3.3125 3.28125 -3.140625 3.484375 -3.140625 C 3.75 -3.140625 3.96875 -3.328125 3.96875 -3.5625 C 3.96875 -4.109375 3.265625 -4.578125 2.4375 -4.578125 C 1.9375 -4.578125 1.4375 -4.390625 1.03125 -4.03125 C 0.53125 -3.59375 0.25 -2.90625 0.25 -2.125 C 0.25 -0.828125 1.03125 0.09375 2.140625 0.09375 C 2.59375 0.09375 2.984375 -0.0625 3.34375 -0.375 C 3.625 -0.609375 3.8125 -0.875 4.109375 -1.46875 Z M 3.96875 -1.5625 "
               style="stroke:none;" />
          </symbol>
          <symbol
             id="textext-08189805-2"
             overflow="visible">
            <path
               id="path3003"
               d="M 2.5 -4.578125 C 1.203125 -4.578125 0.296875 -3.625 0.296875 -2.25 C 0.296875 -0.90625 1.21875 0.09375 2.46875 0.09375 C 3.734375 0.09375 4.6875 -0.953125 4.6875 -2.328125 C 4.6875 -3.640625 3.765625 -4.578125 2.5 -4.578125 Z M 2.359375 -4.3125 C 3.203125 -4.3125 3.78125 -3.34375 3.78125 -1.984375 C 3.78125 -0.859375 3.34375 -0.171875 2.59375 -0.171875 C 2.203125 -0.171875 1.828125 -0.421875 1.625 -0.8125 C 1.34375 -1.328125 1.1875 -2.03125 1.1875 -2.734375 C 1.1875 -3.6875 1.65625 -4.3125 2.359375 -4.3125 Z M 2.359375 -4.3125 "
               style="stroke:none;" />
          </symbol>
          <symbol
             id="textext-08189805-3"
             overflow="visible">
            <path
               id="path3006"
               d="M 3.140625 -3.125 L 3.09375 -4.484375 L 2.984375 -4.484375 L 2.96875 -4.46875 C 2.875 -4.390625 2.875 -4.390625 2.828125 -4.390625 C 2.765625 -4.390625 2.671875 -4.40625 2.5625 -4.453125 C 2.34375 -4.53125 2.125 -4.578125 1.859375 -4.578125 C 1.078125 -4.578125 0.515625 -4.0625 0.515625 -3.34375 C 0.515625 -2.796875 0.828125 -2.390625 1.671875 -1.90625 L 2.25 -1.578125 C 2.609375 -1.390625 2.765625 -1.140625 2.765625 -0.84375 C 2.765625 -0.40625 2.453125 -0.125 1.9375 -0.125 C 1.609375 -0.125 1.296875 -0.25 1.109375 -0.46875 C 0.890625 -0.71875 0.8125 -0.953125 0.671875 -1.515625 L 0.515625 -1.515625 L 0.515625 0.046875 L 0.640625 0.046875 C 0.71875 -0.0625 0.75 -0.078125 0.875 -0.078125 C 0.96875 -0.078125 1.109375 -0.0625 1.328125 0 C 1.609375 0.0625 1.890625 0.09375 2.0625 0.09375 C 2.828125 0.09375 3.46875 -0.484375 3.46875 -1.171875 C 3.46875 -1.671875 3.234375 -2 2.625 -2.359375 L 1.5625 -3 C 1.28125 -3.15625 1.125 -3.40625 1.125 -3.671875 C 1.125 -4.078125 1.4375 -4.359375 1.890625 -4.359375 C 2.46875 -4.359375 2.765625 -4.015625 2.984375 -3.125 Z M 3.140625 -3.125 "
               style="stroke:none;" />
          </symbol>
          <symbol
             id="textext-08189805-4"
             overflow="visible">
            <path
               id="path3009"
               d="M 2.9375 -6.734375 C 2.203125 -6.265625 1.90625 -6 1.53125 -5.546875 C 0.828125 -4.671875 0.484375 -3.671875 0.484375 -2.515625 C 0.484375 -1.25 0.84375 -0.265625 1.71875 0.75 C 2.140625 1.21875 2.390625 1.453125 2.90625 1.765625 L 3.03125 1.609375 C 2.234375 0.984375 1.953125 0.625 1.6875 -0.125 C 1.453125 -0.78125 1.328125 -1.546875 1.328125 -2.546875 C 1.328125 -3.59375 1.46875 -4.40625 1.734375 -5.03125 C 2.015625 -5.640625 2.3125 -6 3.03125 -6.578125 Z M 2.9375 -6.734375 "
               style="stroke:none;" />
          </symbol>
          <symbol
             id="textext-08189805-5"
             overflow="visible">
            <path
               id="path3012"
               d="M 0.375 1.765625 C 1.109375 1.28125 1.421875 1.03125 1.78125 0.5625 C 2.5 -0.296875 2.84375 -1.296875 2.84375 -2.46875 C 2.84375 -3.734375 2.46875 -4.703125 1.59375 -5.71875 C 1.1875 -6.203125 0.921875 -6.421875 0.40625 -6.734375 L 0.296875 -6.578125 C 1.09375 -5.953125 1.359375 -5.609375 1.640625 -4.859375 C 1.875 -4.1875 1.984375 -3.421875 1.984375 -2.4375 C 1.984375 -1.390625 1.859375 -0.5625 1.578125 0.046875 C 1.3125 0.671875 1 1.03125 0.296875 1.609375 Z M 0.375 1.765625 "
               style="stroke:none;" />
          </symbol>
          <symbol
             id="textext-08189805-6"
             overflow="visible">
            <path
               id="path3015"
               d="M 2.90625 -6.734375 L 1.109375 -5.828125 L 1.109375 -5.6875 C 1.21875 -5.734375 1.328125 -5.78125 1.375 -5.796875 C 1.5625 -5.875 1.71875 -5.90625 1.828125 -5.90625 C 2.03125 -5.90625 2.125 -5.765625 2.125 -5.4375 L 2.125 -0.921875 C 2.125 -0.59375 2.046875 -0.375 1.890625 -0.28125 C 1.734375 -0.1875 1.59375 -0.15625 1.171875 -0.15625 L 1.171875 0 L 3.921875 0 L 3.921875 -0.15625 C 3.140625 -0.15625 2.984375 -0.265625 2.984375 -0.734375 L 2.984375 -6.71875 Z M 2.90625 -6.734375 "
               style="stroke:none;" />
          </symbol>
          <symbol
             id="textext-08189805-7"
             overflow="visible">
            <path
               id="path3018"
               d="M 2.53125 -6.734375 C 1.984375 -6.734375 1.5625 -6.5625 1.203125 -6.21875 C 0.625 -5.65625 0.234375 -4.515625 0.234375 -3.34375 C 0.234375 -2.265625 0.5625 -1.09375 1.03125 -0.53125 C 1.40625 -0.09375 1.90625 0.140625 2.5 0.140625 C 3 0.140625 3.421875 -0.03125 3.78125 -0.375 C 4.359375 -0.921875 4.75 -2.078125 4.75 -3.296875 C 4.75 -5.328125 3.84375 -6.734375 2.53125 -6.734375 Z M 2.5 -6.484375 C 3.34375 -6.484375 3.78125 -5.359375 3.78125 -3.265625 C 3.78125 -1.1875 3.34375 -0.125 2.5 -0.125 C 1.640625 -0.125 1.203125 -1.1875 1.203125 -3.265625 C 1.203125 -5.375 1.640625 -6.484375 2.5 -6.484375 Z M 2.5 -6.484375 "
               style="stroke:none;" />
          </symbol>
          <symbol
             id="textext-08189805-8"
             overflow="visible">
            <path
               id="path3021"
               d=""
               style="stroke:none;" />
          </symbol>
          <symbol
             id="textext-08189805-9"
             overflow="visible">
            <path
               id="path3024"
               d="M 5.71875 -0.0625 L 5.71875 -0.625 L 3.15625 -1.828125 L 3.875 -3.640625 L 5.71875 -4.5 L 5.71875 -5.0625 L 4.140625 -4.3125 L 4.859375 -6.140625 L 4.328125 -6.140625 L 3.484375 -4 L 0.625 -2.65625 L 0.625 -2.46875 L 2.5 -1.578125 L 1.46875 1.015625 L 2.015625 1.015625 L 2.953125 -1.359375 Z M 3.203125 -3.328125 L 2.6875 -2.03125 L 1.578125 -2.5625 Z M 3.203125 -3.328125 "
               style="stroke:none;" />
          </symbol>
          <symbol
             id="textext-08189805-10"
             overflow="visible">
            <path
               id="path3027"
               d=""
               style="stroke:none;" />
          </symbol>
          <symbol
             id="textext-08189805-11"
             overflow="visible">
            <path
               id="path3030"
               d="M 4.59375 -1.171875 C 4.078125 -0.515625 3.921875 -0.375 3.765625 -0.375 C 3.703125 -0.375 3.65625 -0.4375 3.65625 -0.546875 C 3.65625 -0.609375 3.65625 -0.609375 3.84375 -1.328125 L 4.640625 -4.3125 L 3.890625 -4.3125 C 3.328125 -2.765625 3.265625 -2.609375 2.796875 -1.875 C 2.203125 -0.921875 1.71875 -0.421875 1.390625 -0.421875 C 1.28125 -0.421875 1.1875 -0.515625 1.1875 -0.671875 C 1.1875 -0.703125 1.1875 -0.734375 1.203125 -0.75 L 2.109375 -4.375 L 2.078125 -4.390625 C 1.5 -4.265625 1.140625 -4.203125 0.578125 -4.125 L 0.578125 -3.984375 C 0.953125 -3.984375 0.984375 -3.984375 1.0625 -3.921875 C 1.125 -3.90625 1.171875 -3.8125 1.171875 -3.75 C 1.171875 -3.671875 1.125 -3.421875 1.03125 -3.078125 L 0.671875 -1.671875 C 0.484375 -0.953125 0.421875 -0.625 0.421875 -0.4375 C 0.421875 -0.078125 0.59375 0.109375 0.953125 0.109375 C 1.65625 0.109375 2.1875 -0.421875 3.328125 -2.359375 C 3.046875 -1.28125 2.875 -0.59375 2.875 -0.390625 C 2.875 -0.09375 3.0625 0.09375 3.359375 0.09375 C 3.828125 0.09375 4.0625 -0.109375 4.734375 -1.078125 Z M 4.59375 -1.171875 "
               style="stroke:none;" />
          </symbol>
          <symbol
             id="textext-08189805-12"
             overflow="visible">
            <path
               id="path3033"
               d="M 0.203125 -4.015625 C 0.3125 -4.03125 0.40625 -4.03125 0.515625 -4.03125 C 0.890625 -4.03125 1 -3.859375 1.140625 -2.9375 C 1.234375 -2.25 1.359375 -0.75 1.359375 -0.171875 C 1.359375 0.109375 1.375 0.171875 1.453125 0.171875 C 1.6875 0.171875 2.625 -0.875 3.640625 -2.296875 C 3.984375 -2.796875 4.25 -3.4375 4.25 -3.8125 C 4.25 -4.125 3.984375 -4.390625 3.6875 -4.390625 C 3.46875 -4.390625 3.3125 -4.265625 3.3125 -4.0625 C 3.3125 -3.890625 3.375 -3.78125 3.5625 -3.625 C 3.6875 -3.5 3.734375 -3.421875 3.734375 -3.3125 C 3.734375 -2.859375 3.078125 -1.75 2.375 -1.015625 L 2.0625 -0.703125 C 2 -2.109375 1.9375 -2.625 1.796875 -3.359375 C 1.609375 -4.375 1.609375 -4.390625 1.515625 -4.390625 C 1.46875 -4.390625 1.390625 -4.390625 1.3125 -4.359375 C 1.140625 -4.3125 0.59375 -4.203125 0.203125 -4.140625 Z M 0.203125 -4.015625 "
               style="stroke:none;" />
          </symbol>
          <symbol
             id="textext-08189805-13"
             overflow="visible">
            <path
               id="path3036"
               d="M 4.625 -1.09375 C 4.46875 -0.953125 4.421875 -0.890625 4.34375 -0.8125 C 4.046875 -0.515625 3.921875 -0.40625 3.828125 -0.40625 C 3.75 -0.40625 3.6875 -0.46875 3.6875 -0.53125 C 3.6875 -0.734375 4.109375 -2.4375 4.578125 -4.15625 C 4.609375 -4.25 4.609375 -4.28125 4.640625 -4.359375 L 4.5625 -4.390625 L 3.953125 -4.328125 L 3.921875 -4.296875 L 3.8125 -3.8125 C 3.734375 -4.1875 3.453125 -4.390625 3.015625 -4.390625 C 1.703125 -4.390625 0.171875 -2.578125 0.171875 -1 C 0.171875 -0.296875 0.546875 0.109375 1.1875 0.109375 C 1.890625 0.109375 2.3125 -0.21875 3.1875 -1.453125 C 2.984375 -0.671875 2.953125 -0.546875 2.953125 -0.3125 C 2.953125 -0.015625 3.078125 0.09375 3.359375 0.09375 C 3.765625 0.09375 4 -0.09375 4.75 -1 Z M 3.078125 -4.171875 C 3.421875 -4.15625 3.640625 -3.921875 3.640625 -3.5625 C 3.640625 -2.734375 3.140625 -1.5625 2.453125 -0.8125 C 2.21875 -0.546875 1.875 -0.375 1.578125 -0.375 C 1.234375 -0.375 1 -0.671875 1 -1.125 C 1 -1.671875 1.390625 -2.6875 1.8125 -3.3125 C 2.21875 -3.890625 2.6875 -4.203125 3.078125 -4.171875 Z M 3.078125 -4.171875 "
               style="stroke:none;" />
          </symbol>
          <symbol
             id="textext-08189805-14"
             overflow="visible">
            <path
               id="path3039"
               d=""
               style="stroke:none;" />
          </symbol>
          <symbol
             id="textext-08189805-15"
             overflow="visible">
            <path
               id="path3042"
               d="M 1.9375 -0.0625 C 1.9375 -0.890625 1.359375 -1.015625 1.140625 -1.015625 C 0.890625 -1.015625 0.5625 -0.875 0.5625 -0.4375 C 0.5625 -0.046875 0.921875 0.0625 1.171875 0.0625 C 1.25 0.0625 1.296875 0.046875 1.328125 0.046875 C 1.359375 0.03125 1.390625 0.015625 1.421875 0.015625 C 1.484375 0.015625 1.5625 0.0625 1.5625 0.15625 C 1.5625 0.34375 1.390625 0.796875 0.734375 1.21875 L 0.828125 1.40625 C 1.125 1.3125 1.9375 0.640625 1.9375 -0.0625 Z M 1.9375 -0.0625 "
               style="stroke:none;" />
          </symbol>
          <symbol
             id="textext-08189805-16"
             overflow="visible">
            <path
               id="path3045"
               d="M 5.71875 -0.0625 L 5.71875 -0.625 L 1.578125 -2.5625 L 5.71875 -4.5 L 5.71875 -5.0625 L 0.625 -2.65625 L 0.625 -2.46875 Z M 5.71875 -0.0625 "
               style="stroke:none;" />
          </symbol>
          <symbol
             id="textext-08189805-17"
             overflow="visible">
            <path
               id="path3048"
               d=""
               style="stroke:none;" />
          </symbol>
          <symbol
             id="textext-08189805-18"
             overflow="visible">
            <path
               id="path3051"
               d="M 5.71875 -3.296875 L 5.71875 -3.84375 L 0.625 -3.84375 L 0.625 -3.296875 Z M 5.71875 -1.265625 L 5.71875 -1.828125 L 0.625 -1.828125 L 0.625 -1.265625 Z M 5.71875 -1.265625 "
               style="stroke:none;" />
          </symbol>
          <symbol
             id="textext-08189805-19"
             overflow="visible">
            <path
               id="path3054"
               d="M 7.015625 0 L 7.015625 -0.171875 C 6.609375 -0.1875 6.34375 -0.265625 6.234375 -0.375 C 6.125 -0.484375 6.0625 -0.765625 6.0625 -1.203125 L 6.0625 -5.40625 C 6.0625 -5.828125 6.109375 -6.109375 6.234375 -6.234375 C 6.34375 -6.34375 6.609375 -6.40625 7.015625 -6.421875 L 7.015625 -6.59375 L 0.171875 -6.59375 L 0.171875 -6.421875 C 0.59375 -6.40625 0.84375 -6.34375 0.96875 -6.234375 C 1.09375 -6.109375 1.140625 -5.828125 1.140625 -5.40625 L 1.140625 -1.203125 C 1.140625 -0.765625 1.078125 -0.484375 0.96875 -0.375 C 0.84375 -0.265625 0.59375 -0.1875 0.171875 -0.171875 L 0.171875 0 L 3.015625 0 L 3.015625 -0.171875 C 2.609375 -0.1875 2.359375 -0.265625 2.234375 -0.375 C 2.125 -0.484375 2.078125 -0.765625 2.078125 -1.203125 L 2.078125 -6.234375 L 5.140625 -6.234375 L 5.140625 -1.203125 C 5.140625 -0.765625 5.078125 -0.484375 4.96875 -0.375 C 4.84375 -0.25 4.578125 -0.1875 4.171875 -0.171875 L 4.171875 0 Z M 7.015625 0 "
               style="stroke:none;" />
          </symbol>
          <symbol
             id="textext-08189805-20"
             overflow="visible">
            <path
               id="path3057"
               d=""
               style="stroke:none;" />
          </symbol>
          <symbol
             id="textext-08189805-21"
             overflow="visible">
            <path
               id="path3060"
               d="M 5.71875 -2.28125 L 5.71875 -2.84375 L 0.625 -2.84375 L 0.625 -2.28125 Z M 5.71875 -2.28125 "
               style="stroke:none;" />
          </symbol>
          <symbol
             id="textext-08189805-22"
             overflow="visible">
            <path
               id="path3063"
               d="M 8.984375 -1.265625 L 8.984375 -1.828125 L 2.0625 -1.828125 L 1.46875 -2.546875 L 2.078125 -3.296875 L 8.984375 -3.296875 L 8.984375 -3.84375 L 2.546875 -3.84375 L 3.296875 -4.78125 L 3.015625 -5.078125 L 0.625 -2.5625 L 3.015625 -0.046875 L 3.296875 -0.34375 L 2.546875 -1.265625 Z M 8.984375 -1.265625 "
               style="stroke:none;" />
          </symbol>
          <symbol
             id="textext-08189805-23"
             overflow="visible">
            <path
               id="path3066"
               d="M 8.984375 -2.5625 L 6.59375 -5.078125 L 6.3125 -4.78125 L 7.0625 -3.84375 L 0.625 -3.84375 L 0.625 -3.296875 L 7.53125 -3.296875 L 8.140625 -2.546875 L 7.546875 -1.828125 L 0.625 -1.828125 L 0.625 -1.265625 L 7.0625 -1.265625 L 6.3125 -0.34375 L 6.59375 -0.046875 Z M 8.984375 -2.5625 "
               style="stroke:none;" />
          </symbol>
          <symbol
             id="textext-08189805-24"
             overflow="visible">
            <path
               id="path3069"
               d="M 8.984375 -2.578125 L 7.03125 -4.609375 L 6.734375 -4.28125 L 7.921875 -2.84375 L 0.625 -2.84375 L 0.625 -2.28125 L 7.921875 -2.28125 L 6.734375 -0.84375 L 7.03125 -0.515625 Z M 8.984375 -2.578125 "
               style="stroke:none;" />
          </symbol>
        </g>
      </defs>
      <g
         id="textext-08189805-25">
        <g
           id="g3072"
           style="fill:rgb(0%,0%,0%);fill-opacity:1;">
          <use
             id="use3074"
             y="134.765"
             x="319.733"
             xlink:href="#textext-08189805-1" />
          <use
             id="use3076"
             y="134.765"
             x="324.156394"
             xlink:href="#textext-08189805-2" />
          <use
             id="use3078"
             y="134.765"
             x="329.137694"
             xlink:href="#textext-08189805-3" />
        </g>
        <g
           id="g3080"
           style="fill:rgb(0%,0%,0%);fill-opacity:1;">
          <use
             id="use3082"
             y="134.765"
             x="335.78"
             xlink:href="#textext-08189805-9" />
        </g>
        <g
           id="g3084"
           style="fill:rgb(0%,0%,0%);fill-opacity:1;">
          <use
             id="use3086"
             y="134.765"
             x="344.884"
             xlink:href="#textext-08189805-4" />
        </g>
        <g
           id="g3088"
           style="fill:rgb(0%,0%,0%);fill-opacity:1;">
          <use
             id="use3090"
             y="134.765"
             x="348.202"
             xlink:href="#textext-08189805-11" />
        </g>
        <g
           id="g3092"
           style="fill:rgb(0%,0%,0%);fill-opacity:1;">
          <use
             id="use3094"
             y="134.765"
             x="353.183"
             xlink:href="#textext-08189805-15" />
        </g>
        <g
           id="g3096"
           style="fill:rgb(0%,0%,0%);fill-opacity:1;">
          <use
             id="use3098"
             y="134.765"
             x="357.334"
             xlink:href="#textext-08189805-12" />
        </g>
        <g
           id="g3100"
           style="fill:rgb(0%,0%,0%);fill-opacity:1;">
          <use
             id="use3102"
             y="134.765"
             x="361.757"
             xlink:href="#textext-08189805-5" />
        </g>
        <g
           id="g3104"
           style="fill:rgb(0%,0%,0%);fill-opacity:1;">
          <use
             id="use3106"
             y="134.765"
             x="367.842"
             xlink:href="#textext-08189805-18" />
        </g>
        <g
           id="g3108"
           style="fill:rgb(0%,0%,0%);fill-opacity:1;">
          <use
             id="use3110"
             y="134.765"
             x="376.946"
             xlink:href="#textext-08189805-21" />
        </g>
        <g
           id="g3112"
           style="fill:rgb(0%,0%,0%);fill-opacity:1;">
          <use
             id="use3114"
             y="134.765"
             x="383.282"
             xlink:href="#textext-08189805-6" />
        </g>
        <g
           id="g3116"
           style="fill:rgb(0%,0%,0%);fill-opacity:1;">
          <use
             id="use3118"
             y="134.765"
             x="391.031"
             xlink:href="#textext-08189805-22" />
        </g>
        <g
           id="g3120"
           style="fill:rgb(0%,0%,0%);fill-opacity:1;">
          <use
             id="use3122"
             y="134.765"
             x="399.250145"
             xlink:href="#textext-08189805-23" />
        </g>
        <g
           id="g3124"
           style="fill:rgb(0%,0%,0%);fill-opacity:1;">
          <use
             id="use3126"
             y="134.765"
             x="408.855"
             xlink:href="#textext-08189805-9" />
        </g>
        <g
           id="g3128"
           style="fill:rgb(0%,0%,0%);fill-opacity:1;">
          <use
             id="use3130"
             y="134.765"
             x="417.959"
             xlink:href="#textext-08189805-4" />
        </g>
        <g
           id="g3132"
           style="fill:rgb(0%,0%,0%);fill-opacity:1;">
          <use
             id="use3134"
             y="134.765"
             x="421.276"
             xlink:href="#textext-08189805-11" />
        </g>
        <g
           id="g3136"
           style="fill:rgb(0%,0%,0%);fill-opacity:1;">
          <use
             id="use3138"
             y="134.765"
             x="426.257"
             xlink:href="#textext-08189805-15" />
        </g>
        <g
           id="g3140"
           style="fill:rgb(0%,0%,0%);fill-opacity:1;">
          <use
             id="use3142"
             y="134.765"
             x="430.408"
             xlink:href="#textext-08189805-12" />
        </g>
        <g
           id="g3144"
           style="fill:rgb(0%,0%,0%);fill-opacity:1;">
          <use
             id="use3146"
             y="134.765"
             x="434.832"
             xlink:href="#textext-08189805-5" />
        </g>
        <g
           id="g3148"
           style="fill:rgb(0%,0%,0%);fill-opacity:1;">
          <use
             id="use3150"
             y="134.765"
             x="440.917"
             xlink:href="#textext-08189805-18" />
        </g>
        <g
           id="g3152"
           style="fill:rgb(0%,0%,0%);fill-opacity:1;">
          <use
             id="use3154"
             y="134.765"
             x="450.022816"
             xlink:href="#textext-08189805-19" />
        </g>
        <g
           id="g3156"
           style="fill:#000000;fill-opacity:1"
           transform="translate(0,38.333339)">
          <use
             id="use3158"
             y="151.43201"
             x="391.03101"
             xlink:href="#textext-08189805-22"
             width="744.09448"
             height="1052.3622" />
        </g>
        <g
           id="g3160"
           style="fill:#000000;fill-opacity:1"
           transform="translate(0,38.333339)">
          <use
             id="use3162"
             y="151.43201"
             x="399.25015"
             xlink:href="#textext-08189805-23"
             width="744.09448"
             height="1052.3622" />
        </g>
        <g
           id="g3164"
           style="fill:#000000;fill-opacity:1"
           transform="translate(0,38.333339)">
          <use
             id="use3166"
             y="147.02901"
             x="411.62201"
             xlink:href="#textext-08189805-21"
             width="744.09448"
             height="1052.3622" />
        </g>
        <g
           id="g3168"
           style="fill:#000000;fill-opacity:1"
           transform="translate(0,38.333339)">
          <use
             id="use3170"
             y="147.02901"
             x="410.20731"
             xlink:href="#textext-08189805-24"
             width="744.09448"
             height="1052.3622" />
        </g>
        <g
           id="g3172"
           style="fill:#000000;fill-opacity:1"
           transform="translate(0,38.333339)">
          <use
             id="use3174"
             y="151.43201"
             x="413.22699"
             xlink:href="#textext-08189805-11"
             width="744.09448"
             height="1052.3622" />
        </g>
        <g
           id="g3176"
           style="fill:#000000;fill-opacity:1"
           transform="translate(0,38.333339)">
          <use
             id="use3178"
             y="151.43201"
             x="422.58099"
             xlink:href="#textext-08189805-18"
             width="744.09448"
             height="1052.3622" />
        </g>
        <g
           id="g3180"
           style="fill:#000000;fill-opacity:1"
           transform="translate(0,38.333339)">
          <use
             id="use3182"
             y="151.43201"
             x="431.685"
             xlink:href="#textext-08189805-13"
             width="744.09448"
             height="1052.3622" />
        </g>
        <g
           id="g3184"
           style="fill:#000000;fill-opacity:1"
           transform="translate(0,38.333339)">
          <use
             id="use3186"
             y="147.02901"
             x="436.66599"
             xlink:href="#textext-08189805-21"
             width="744.09448"
             height="1052.3622" />
        </g>
        <g
           id="g3188"
           style="fill:#000000;fill-opacity:1"
           transform="translate(0,38.333339)">
          <use
             id="use3190"
             y="147.02901"
             x="435.25131"
             xlink:href="#textext-08189805-24"
             width="744.09448"
             height="1052.3622" />
        </g>
        <g
           id="g3192"
           style="fill:#000000;fill-opacity:1"
           transform="translate(0,38.333339)">
          <use
             id="use3194"
             y="151.43201"
             x="438.54999"
             xlink:href="#textext-08189805-12"
             width="744.09448"
             height="1052.3622" />
        </g>
        <g
           id="g3196"
           style="fill:#000000;fill-opacity:1"
           transform="translate(0,38.333339)">
          <use
             id="use3198"
             y="151.43201"
             x="444.858"
             xlink:href="#textext-08189805-15"
             width="744.09448"
             height="1052.3622" />
        </g>
        <g
           id="g3200"
           style="fill:#000000;fill-opacity:1"
           transform="translate(0,38.333339)">
          <use
             id="use3202"
             y="151.43201"
             x="449.009"
             xlink:href="#textext-08189805-13"
             width="744.09448"
             height="1052.3622" />
        </g>
        <g
           id="g3204"
           style="fill:#000000;fill-opacity:1"
           transform="translate(0,38.333339)">
          <use
             id="use3206"
             y="151.43201"
             x="456.758"
             xlink:href="#textext-08189805-16"
             width="744.09448"
             height="1052.3622" />
        </g>
        <g
           id="g3208"
           style="fill:#000000;fill-opacity:1"
           transform="translate(0,38.333339)">
          <use
             id="use3210"
             y="151.43201"
             x="465.86099"
             xlink:href="#textext-08189805-7"
             width="744.09448"
             height="1052.3622" />
        </g>
        <path
           style="fill:none;stroke:#000000;stroke-width:0.83333331px;stroke-linecap:butt;stroke-linejoin:miter;stroke-opacity:1"
           d="m 380.35714,160.59944 43.15477,0"
           id="path3339"
           inkscape:connector-curvature="0" />
        <path
           inkscape:connector-curvature="0"
           id="path3341"
           d="m 400.26785,182.17683 0,-43.15477"
           style="fill:none;stroke:#000000;stroke-width:0.83333331px;stroke-linecap:butt;stroke-linejoin:miter;stroke-opacity:1" />
        <path
           style="fill:none;stroke:#000000;stroke-width:0.83333330999999999px;stroke-linecap:butt;stroke-linejoin:miter;stroke-opacity:1;marker-start:url(#Arrow1Mstart);marker-end:url(#Arrow1Mend)"
           d="m 378.86905,176.07562 43.15476,-30.95237"
           id="path3343"
           inkscape:connector-curvature="0" />
        <g
           id="g4754"
           transform="translate(-66.369048,2.6785714)">
          <use
             transform="translate(0,10.000002)"
             id="use4751"
             y="151.43201"
             x="438.54999"
             xlink:href="#textext-08189805-12"
             width="744.09448"
             height="1052.3622"
             style="fill:#000000;fill-opacity:1" />
          <g
             id="g4743"
             style="fill:#000000;fill-opacity:1"
             transform="translate(0,10)">
            <use
               id="use4745"
               y="147.02901"
               x="436.66599"
               xlink:href="#textext-08189805-21"
               width="744.09448"
               height="1052.3622" />
          </g>
          <g
             id="g4747"
             style="fill:#000000;fill-opacity:1"
             transform="translate(0,10)">
            <use
               id="use4749"
               y="147.02901"
               x="435.25131"
               xlink:href="#textext-08189805-24"
               width="744.09448"
               height="1052.3622" />
          </g>
        </g>
        <g
           id="g4773"
           transform="translate(-9.2261905,-19.642857)">
          <g
             id="g4761"
             style="fill:#000000;fill-opacity:1"
             transform="translate(1.6666667,20.000002)">
            <use
               id="use4763"
               y="147.02901"
               x="411.62201"
               xlink:href="#textext-08189805-21"
               width="744.09448"
               height="1052.3622" />
          </g>
          <g
             id="g4765"
             style="fill:#000000;fill-opacity:1"
             transform="translate(1.6666667,20.000002)">
            <use
               id="use4767"
               y="147.02901"
               x="410.20731"
               xlink:href="#textext-08189805-24"
               width="744.09448"
               height="1052.3622" />
          </g>
          <g
             id="g4769"
             style="fill:#000000;fill-opacity:1"
             transform="translate(1.6666667,20.000002)">
            <use
               id="use4771"
               y="151.43201"
               x="413.22699"
               xlink:href="#textext-08189805-11"
               width="744.09448"
               height="1052.3622" />
          </g>
        </g>
      </g>
    </g>
  </g>
</svg>
