<?xml version="1.0" encoding="UTF-8" standalone="no"?>
<!-- Created with Inkscape (http://www.inkscape.org/) -->

<svg
   xmlns:ns0="http://www.iki.fi/pav/software/textext/"
   xmlns:dc="http://purl.org/dc/elements/1.1/"
   xmlns:cc="http://creativecommons.org/ns#"
   xmlns:rdf="http://www.w3.org/1999/02/22-rdf-syntax-ns#"
   xmlns:svg="http://www.w3.org/2000/svg"
   xmlns="http://www.w3.org/2000/svg"
   xmlns:xlink="http://www.w3.org/1999/xlink"
   xmlns:sodipodi="http://sodipodi.sourceforge.net/DTD/sodipodi-0.dtd"
   xmlns:inkscape="http://www.inkscape.org/namespaces/inkscape"
   width="283.46457"
   height="212.59842"
   id="svg2"
   version="1.1"
   inkscape:version="0.48.4 r9939"
   sodipodi:docname="New document 1">
  <sodipodi:namedview
     id="base"
     pagecolor="#ffffff"
     bordercolor="#666666"
     borderopacity="1.0"
     inkscape:pageopacity="0.0"
     inkscape:pageshadow="2"
     inkscape:zoom="2.6812424"
     inkscape:cx="154.3879"
     inkscape:cy="100.89132"
     inkscape:document-units="px"
     inkscape:current-layer="layer1"
     showgrid="false"
     units="cm"
     inkscape:window-width="1024"
     inkscape:window-height="744"
     inkscape:window-x="0"
     inkscape:window-y="24"
     inkscape:window-maximized="1" />
  <defs
     id="defs4" />
  <metadata
     id="metadata7">
    <rdf:RDF>
      <cc:Work
         rdf:about="">
        <dc:format>image/svg+xml</dc:format>
        <dc:type
           rdf:resource="http://purl.org/dc/dcmitype/StillImage" />
        <dc:title></dc:title>
      </cc:Work>
    </rdf:RDF>
  </metadata>
  <g
     inkscape:label="Layer 1"
     inkscape:groupmode="layer"
     id="layer1"
     transform="translate(0,-839.76245)">
    <rect
       style="fill:none;stroke:#000000;stroke-width:2;stroke-linecap:round;stroke-linejoin:miter;stroke-miterlimit:4;stroke-opacity:1;stroke-dasharray:none;stroke-dashoffset:0"
       id="rect2985"
       width="99.637856"
       height="92.445618"
       x="56.725132"
       y="886.46118" />
    <path
       sodipodi:type="arc"
       style="fill:none;stroke:#000000;stroke-width:2.39480805;stroke-linecap:round;stroke-linejoin:miter;stroke-miterlimit:4;stroke-opacity:1;stroke-dasharray:none;stroke-dashoffset:0"
       id="path2987"
       sodipodi:cx="36.785713"
       sodipodi:cy="59.384132"
       sodipodi:rx="8.2142859"
       sodipodi:ry="8.2142859"
       d="m 44.999999,59.384132 c 0,4.536625 -3.677661,8.214286 -8.214286,8.214286 -4.536625,0 -8.214286,-3.677661 -8.214286,-8.214286 0,-4.536624 3.677661,-8.214285 8.214286,-8.214285 4.536625,0 8.214286,3.677661 8.214286,8.214285 z"
       transform="matrix(0.83528745,0,0,0.83499264,25.998487,836.8759)" />
    <path
       transform="matrix(0.83528745,0,0,0.83499264,125.45734,836.8759)"
       d="m 44.999999,59.384132 c 0,4.536625 -3.677661,8.214286 -8.214286,8.214286 -4.536625,0 -8.214286,-3.677661 -8.214286,-8.214286 0,-4.536624 3.677661,-8.214285 8.214286,-8.214285 4.536625,0 8.214286,3.677661 8.214286,8.214285 z"
       sodipodi:ry="8.2142859"
       sodipodi:rx="8.2142859"
       sodipodi:cy="59.384132"
       sodipodi:cx="36.785713"
       id="path2989"
       style="fill:none;stroke:#000000;stroke-width:2.39480805;stroke-linecap:round;stroke-linejoin:miter;stroke-miterlimit:4;stroke-opacity:1;stroke-dasharray:none;stroke-dashoffset:0"
       sodipodi:type="arc" />
    <path
       sodipodi:type="arc"
       style="fill:none;stroke:#000000;stroke-width:2.39480805;stroke-linecap:round;stroke-linejoin:miter;stroke-miterlimit:4;stroke-opacity:1;stroke-dasharray:none;stroke-dashoffset:0"
       id="path2991"
       sodipodi:cx="36.785713"
       sodipodi:cy="59.384132"
       sodipodi:rx="8.2142859"
       sodipodi:ry="8.2142859"
       d="m 44.999999,59.384132 c 0,4.536625 -3.677661,8.214286 -8.214286,8.214286 -4.536625,0 -8.214286,-3.677661 -8.214286,-8.214286 0,-4.536624 3.677661,-8.214285 8.214286,-8.214285 4.536625,0 8.214286,3.677661 8.214286,8.214285 z"
       transform="matrix(0.83528745,0,0,0.83499264,125.45734,928.90403)" />
    <path
       transform="matrix(0.83528745,0,0,0.83499264,25.819489,928.90403)"
       d="m 44.999999,59.384132 c 0,4.536625 -3.677661,8.214286 -8.214286,8.214286 -4.536625,0 -8.214286,-3.677661 -8.214286,-8.214286 0,-4.536624 3.677661,-8.214285 8.214286,-8.214285 4.536625,0 8.214286,3.677661 8.214286,8.214285 z"
       sodipodi:ry="8.2142859"
       sodipodi:rx="8.2142859"
       sodipodi:cy="59.384132"
       sodipodi:cx="36.785713"
       id="path2993"
       style="fill:none;stroke:#000000;stroke-width:2.39480805;stroke-linecap:round;stroke-linejoin:miter;stroke-miterlimit:4;stroke-opacity:1;stroke-dasharray:none;stroke-dashoffset:0"
       sodipodi:type="arc" />
    <path
       style="fill:none;stroke:#000000;stroke-width:1px;stroke-linecap:butt;stroke-linejoin:miter;stroke-opacity:1"
       d="m 37.334531,932.80329 167.401829,0"
       id="path2995"
       inkscape:connector-curvature="0"
       sodipodi:nodetypes="cc" />
    <path
       inkscape:connector-curvature="0"
       id="path2997"
       d="m 106.78272,995.48725 0,-138.37009"
       style="fill:none;stroke:#000000;stroke-width:1px;stroke-linecap:butt;stroke-linejoin:miter;stroke-opacity:1"
       sodipodi:nodetypes="cc" />
    <g
       transform="matrix(1.2,0,0,1.2,-60.419751,774.64087)"
       ns0:text="$X$"
       ns0:preamble="/home/sriranga/Desktop/general-books/CSY/article4/figure/package.tex"
       id="g3011">
      <defs
         id="defs3013">
        <g
           id="g3015">
          <symbol
             style="overflow:visible"
             overflow="visible"
             id="textext-6bdda00a-0">
            <path
               inkscape:connector-curvature="0"
               style="stroke:none"
               d=""
               id="path3018" />
          </symbol>
          <symbol
             style="overflow:visible"
             overflow="visible"
             id="textext-6bdda00a-1">
            <path
               inkscape:connector-curvature="0"
               style="stroke:none"
               d="m 6.53125,-6.515625 -2.078125,0 0,0.171875 c 0.484375,0.046875 0.609375,0.125 0.609375,0.359375 0,0.125 -0.0625,0.25 -0.203125,0.40625 l -1.4375,1.65625 -0.59375,-1.46875 C 2.71875,-5.640625 2.6875,-5.8125 2.6875,-5.9375 c 0,-0.25 0.15625,-0.34375 0.703125,-0.40625 l 0,-0.171875 -2.640625,0 0,0.171875 c 0.578125,0.046875 0.734375,0.140625 0.921875,0.609375 l 1.0625,2.609375 c -0.375,0.421875 -0.703125,0.8125 -0.828125,0.96875 -1.390625,1.640625 -1.671875,1.890625 -2.203125,2 l 0,0.15625 2.140625,0 0,-0.15625 C 1.359375,-0.15625 1.203125,-0.25 1.203125,-0.5 c 0,-0.140625 0.078125,-0.3125 0.203125,-0.46875 l 1.5,-1.71875 0.671875,1.65625 c 0.078125,0.171875 0.109375,0.328125 0.109375,0.484375 0,0.28125 -0.09375,0.34375 -0.75,0.390625 l 0,0.15625 2.71875,0 0,-0.15625 C 4.953125,-0.234375 4.859375,-0.296875 4.609375,-0.890625 L 3.59375,-3.46875 l 1.6875,-1.9375 c 0.515625,-0.578125 0.8125,-0.796875 1.25,-0.9375 z m 0,0"
               id="path3021" />
          </symbol>
        </g>
      </defs>
      <g
         id="textext-6bdda00a-2">
        <g
           style="fill:#000000;fill-opacity:1"
           id="g3024">
          <use
             height="212.59842"
             width="283.46457"
             xlink:href="#textext-6bdda00a-1"
             x="223.681"
             y="134.765"
             id="use3026" />
        </g>
      </g>
    </g>
    <g
       id="g3090"
       transform="matrix(1.2,0,0,1.2,-160.37813,717.58249)"
       ns0:preamble="/home/sriranga/Desktop/general-books/CSY/article4/figure/package.tex"
       ns0:text="$\\frac{1}{4}$">
      <defs
         id="defs3092">
        <g
           id="g3094">
          <symbol
             id="textext-7d38a214-0"
             overflow="visible"
             style="overflow:visible">
            <path
               id="path3097"
               d=""
               style="stroke:none"
               inkscape:connector-curvature="0" />
          </symbol>
          <symbol
             id="textext-7d38a214-1"
             overflow="visible"
             style="overflow:visible">
            <path
               id="path3100"
               d="m 2.03125,-4.703125 -1.25,0.625 0,0.09375 c 0.078125,-0.03125 0.15625,-0.0625 0.1875,-0.078125 0.125,-0.046875 0.234375,-0.0625 0.3125,-0.0625 0.140625,0 0.203125,0.09375 0.203125,0.3125 l 0,3.171875 c 0,0.21875 -0.0625,0.375 -0.171875,0.453125 -0.09375,0.0625 -0.203125,0.078125 -0.484375,0.078125 L 0.828125,0 2.75,0 l 0,-0.109375 c -0.5625,0 -0.671875,-0.078125 -0.671875,-0.40625 l 0,-4.1875 z m 0,0"
               style="stroke:none"
               inkscape:connector-curvature="0" />
          </symbol>
          <symbol
             id="textext-7d38a214-2"
             overflow="visible"
             style="overflow:visible">
            <path
               id="path3103"
               d="m 3.296875,-1.609375 -0.71875,0 0,-3.09375 -0.3125,0 -2.1875,3.09375 0,0.453125 1.96875,0 0,1.15625 0.53125,0 0,-1.15625 0.71875,0 z m -1.265625,0 -1.671875,0 L 2.03125,-4 z m 0,0"
               style="stroke:none"
               inkscape:connector-curvature="0" />
          </symbol>
        </g>
      </defs>
      <g
         id="textext-7d38a214-3">
        <g
           id="g3106"
           style="fill:#000000;fill-opacity:1">
          <use
             id="use3108"
             y="130.839"
             x="224.62801"
             xlink:href="#textext-7d38a214-1"
             width="283.46457"
             height="212.59842" />
        </g>
        <path
           id="path3110"
           transform="matrix(1,0,0,-1,224.628,132.204)"
           d="m 9.0625e-4,8.75e-4 3.48437475,0"
           style="fill:none;stroke:#000000;stroke-width:0.55800003;stroke-linecap:butt;stroke-linejoin:miter;stroke-miterlimit:10;stroke-opacity:1"
           inkscape:connector-curvature="0" />
        <g
           id="g3112"
           style="fill:#000000;fill-opacity:1">
          <use
             id="use3114"
             y="138.202"
             x="224.62801"
             xlink:href="#textext-7d38a214-2"
             width="283.46457"
             height="212.59842" />
        </g>
      </g>
    </g>
    <g
       ns0:text="$\\frac{1}{4}$"
       ns0:preamble="/home/sriranga/Desktop/general-books/CSY/article4/figure/package.tex"
       transform="matrix(1.2,0,0,1.2,-160.37813,830.09065)"
       id="g3151">
      <defs
         id="defs3153">
        <g
           id="g3155">
          <symbol
             style="overflow:visible"
             overflow="visible"
             id="symbol3157">
            <path
               inkscape:connector-curvature="0"
               style="stroke:none"
               d=""
               id="path3159" />
          </symbol>
          <symbol
             style="overflow:visible"
             overflow="visible"
             id="symbol3161">
            <path
               inkscape:connector-curvature="0"
               style="stroke:none"
               d="m 2.03125,-4.703125 -1.25,0.625 0,0.09375 c 0.078125,-0.03125 0.15625,-0.0625 0.1875,-0.078125 0.125,-0.046875 0.234375,-0.0625 0.3125,-0.0625 0.140625,0 0.203125,0.09375 0.203125,0.3125 l 0,3.171875 c 0,0.21875 -0.0625,0.375 -0.171875,0.453125 -0.09375,0.0625 -0.203125,0.078125 -0.484375,0.078125 L 0.828125,0 2.75,0 l 0,-0.109375 c -0.5625,0 -0.671875,-0.078125 -0.671875,-0.40625 l 0,-4.1875 z m 0,0"
               id="path3163" />
          </symbol>
          <symbol
             style="overflow:visible"
             overflow="visible"
             id="symbol3165">
            <path
               inkscape:connector-curvature="0"
               style="stroke:none"
               d="m 3.296875,-1.609375 -0.71875,0 0,-3.09375 -0.3125,0 -2.1875,3.09375 0,0.453125 1.96875,0 0,1.15625 0.53125,0 0,-1.15625 0.71875,0 z m -1.265625,0 -1.671875,0 L 2.03125,-4 z m 0,0"
               id="path3167" />
          </symbol>
        </g>
      </defs>
      <g
         id="g3169">
        <g
           style="fill:#000000;fill-opacity:1"
           id="g3171">
          <use
             height="212.59842"
             width="283.46457"
             xlink:href="#textext-7d38a214-1"
             x="224.62801"
             y="130.839"
             id="use3173" />
        </g>
        <path
           inkscape:connector-curvature="0"
           style="fill:none;stroke:#000000;stroke-width:0.55800003;stroke-linecap:butt;stroke-linejoin:miter;stroke-miterlimit:10;stroke-opacity:1"
           d="m 9.0625e-4,8.75e-4 3.48437475,0"
           transform="matrix(1,0,0,-1,224.628,132.204)"
           id="path3175" />
        <g
           style="fill:#000000;fill-opacity:1"
           id="g3177">
          <use
             height="212.59842"
             width="283.46457"
             xlink:href="#textext-7d38a214-2"
             x="224.62801"
             y="138.202"
             id="use3179" />
        </g>
      </g>
    </g>
    <g
       id="g3181"
       transform="matrix(1.2,0,0,1.2,-109.63221,764.97177)"
       ns0:preamble="/home/sriranga/Desktop/general-books/CSY/article4/figure/package.tex"
       ns0:text="$\\frac{1}{4}$">
      <defs
         id="defs3183">
        <g
           id="g3185">
          <symbol
             id="symbol3187"
             overflow="visible"
             style="overflow:visible">
            <path
               id="path3189"
               d=""
               style="stroke:none"
               inkscape:connector-curvature="0" />
          </symbol>
          <symbol
             id="symbol3191"
             overflow="visible"
             style="overflow:visible">
            <path
               id="path3193"
               d="m 2.03125,-4.703125 -1.25,0.625 0,0.09375 c 0.078125,-0.03125 0.15625,-0.0625 0.1875,-0.078125 0.125,-0.046875 0.234375,-0.0625 0.3125,-0.0625 0.140625,0 0.203125,0.09375 0.203125,0.3125 l 0,3.171875 c 0,0.21875 -0.0625,0.375 -0.171875,0.453125 -0.09375,0.0625 -0.203125,0.078125 -0.484375,0.078125 L 0.828125,0 2.75,0 l 0,-0.109375 c -0.5625,0 -0.671875,-0.078125 -0.671875,-0.40625 l 0,-4.1875 z m 0,0"
               style="stroke:none"
               inkscape:connector-curvature="0" />
          </symbol>
          <symbol
             id="symbol3195"
             overflow="visible"
             style="overflow:visible">
            <path
               id="path3197"
               d="m 3.296875,-1.609375 -0.71875,0 0,-3.09375 -0.3125,0 -2.1875,3.09375 0,0.453125 1.96875,0 0,1.15625 0.53125,0 0,-1.15625 0.71875,0 z m -1.265625,0 -1.671875,0 L 2.03125,-4 z m 0,0"
               style="stroke:none"
               inkscape:connector-curvature="0" />
          </symbol>
        </g>
      </defs>
      <g
         id="g3199">
        <g
           id="g3201"
           style="fill:#000000;fill-opacity:1">
          <use
             id="use3203"
             y="130.839"
             x="224.62801"
             xlink:href="#textext-7d38a214-1"
             width="283.46457"
             height="212.59842" />
        </g>
        <path
           id="path3205"
           transform="matrix(1,0,0,-1,224.628,132.204)"
           d="m 9.0625e-4,8.75e-4 3.48437475,0"
           style="fill:none;stroke:#000000;stroke-width:0.55800003;stroke-linecap:butt;stroke-linejoin:miter;stroke-miterlimit:10;stroke-opacity:1"
           inkscape:connector-curvature="0" />
        <g
           id="g3207"
           style="fill:#000000;fill-opacity:1">
          <use
             id="use3209"
             y="138.202"
             x="224.62801"
             xlink:href="#textext-7d38a214-2"
             width="283.46457"
             height="212.59842" />
        </g>
      </g>
    </g>
    <g
       ns0:text="$\\frac{1}{4}$"
       ns0:preamble="/home/sriranga/Desktop/general-books/CSY/article4/figure/package.tex"
       transform="matrix(1.2,0,0,1.2,-219.63221,765.34473)"
       id="g3211">
      <defs
         id="defs3213">
        <g
           id="g3215">
          <symbol
             style="overflow:visible"
             overflow="visible"
             id="symbol3217">
            <path
               inkscape:connector-curvature="0"
               style="stroke:none"
               d=""
               id="path3219" />
          </symbol>
          <symbol
             style="overflow:visible"
             overflow="visible"
             id="symbol3221">
            <path
               inkscape:connector-curvature="0"
               style="stroke:none"
               d="m 2.03125,-4.703125 -1.25,0.625 0,0.09375 c 0.078125,-0.03125 0.15625,-0.0625 0.1875,-0.078125 0.125,-0.046875 0.234375,-0.0625 0.3125,-0.0625 0.140625,0 0.203125,0.09375 0.203125,0.3125 l 0,3.171875 c 0,0.21875 -0.0625,0.375 -0.171875,0.453125 -0.09375,0.0625 -0.203125,0.078125 -0.484375,0.078125 L 0.828125,0 2.75,0 l 0,-0.109375 c -0.5625,0 -0.671875,-0.078125 -0.671875,-0.40625 l 0,-4.1875 z m 0,0"
               id="path3223" />
          </symbol>
          <symbol
             style="overflow:visible"
             overflow="visible"
             id="symbol3225">
            <path
               inkscape:connector-curvature="0"
               style="stroke:none"
               d="m 3.296875,-1.609375 -0.71875,0 0,-3.09375 -0.3125,0 -2.1875,3.09375 0,0.453125 1.96875,0 0,1.15625 0.53125,0 0,-1.15625 0.71875,0 z m -1.265625,0 -1.671875,0 L 2.03125,-4 z m 0,0"
               id="path3227" />
          </symbol>
        </g>
      </defs>
      <g
         id="g3229">
        <g
           style="fill:#000000;fill-opacity:1"
           id="g3231">
          <use
             height="212.59842"
             width="283.46457"
             xlink:href="#textext-7d38a214-1"
             x="224.62801"
             y="130.839"
             id="use3233" />
        </g>
        <path
           inkscape:connector-curvature="0"
           style="fill:none;stroke:#000000;stroke-width:0.55800003;stroke-linecap:butt;stroke-linejoin:miter;stroke-miterlimit:10;stroke-opacity:1"
           d="m 9.0625e-4,8.75e-4 3.48437475,0"
           transform="matrix(1,0,0,-1,224.628,132.204)"
           id="path3235" />
        <g
           style="fill:#000000;fill-opacity:1"
           id="g3237">
          <use
             height="212.59842"
             width="283.46457"
             xlink:href="#textext-7d38a214-2"
             x="224.62801"
             y="138.202"
             id="use3239" />
        </g>
      </g>
    </g>
    <path
       transform="matrix(0.83528745,0,0,0.83499264,75.830301,883.14179)"
       d="m 44.999999,59.384132 a 8.2142859,8.2142859 0 1 1 -16.428572,0 8.2142859,8.2142859 0 1 1 16.428572,0 z"
       sodipodi:ry="8.2142859"
       sodipodi:rx="8.2142859"
       sodipodi:cy="59.384132"
       sodipodi:cx="36.785713"
       id="path3241"
       style="fill:none;stroke:#000000;stroke-width:2.39480805;stroke-linecap:round;stroke-linejoin:miter;stroke-miterlimit:4;stroke-opacity:1;stroke-dasharray:none;stroke-dashoffset:0"
       sodipodi:type="arc" />
  </g>
</svg>
