<?xml version="1.0" encoding="UTF-8" standalone="no"?>
<!-- Created with Inkscape (http://www.inkscape.org/) -->

<svg
   xmlns:ns0="http://www.iki.fi/pav/software/textext/"
   xmlns:dc="http://purl.org/dc/elements/1.1/"
   xmlns:cc="http://creativecommons.org/ns#"
   xmlns:rdf="http://www.w3.org/1999/02/22-rdf-syntax-ns#"
   xmlns:svg="http://www.w3.org/2000/svg"
   xmlns="http://www.w3.org/2000/svg"
   xmlns:xlink="http://www.w3.org/1999/xlink"
   xmlns:sodipodi="http://sodipodi.sourceforge.net/DTD/sodipodi-0.dtd"
   xmlns:inkscape="http://www.inkscape.org/namespaces/inkscape"
   width="283.46457"
   height="212.59842"
   id="svg2"
   version="1.1"
   inkscape:version="0.48.4 r9939"
   sodipodi:docname="fig4.svg">
  <sodipodi:namedview
     id="base"
     pagecolor="#ffffff"
     bordercolor="#666666"
     borderopacity="1.0"
     inkscape:pageopacity="0.0"
     inkscape:pageshadow="2"
     inkscape:zoom="2.6957205"
     inkscape:cx="167.1373"
     inkscape:cy="82.418271"
     inkscape:document-units="px"
     inkscape:current-layer="layer1"
     showgrid="false"
     units="cm"
     inkscape:window-width="1024"
     inkscape:window-height="744"
     inkscape:window-x="0"
     inkscape:window-y="24"
     inkscape:window-maximized="1" />
  <defs
     id="defs4" />
  <metadata
     id="metadata7">
    <rdf:RDF>
      <cc:Work
         rdf:about="">
        <dc:format>image/svg+xml</dc:format>
        <dc:type
           rdf:resource="http://purl.org/dc/dcmitype/StillImage" />
        <dc:title></dc:title>
      </cc:Work>
    </rdf:RDF>
  </metadata>
  <g
     transform="translate(0,-839.76245)"
     id="layer1"
     inkscape:groupmode="layer"
     inkscape:label="Layer 1">
    <rect
       y="900.63373"
       x="96.259041"
       height="92.445618"
       width="99.637856"
       id="rect2985"
       style="fill:none;stroke:#000000;stroke-width:2;stroke-linecap:round;stroke-linejoin:miter;stroke-miterlimit:4;stroke-opacity:1;stroke-dasharray:none;stroke-dashoffset:0" />
    <path
       transform="matrix(0.83528745,0,0,0.83499264,65.532399,851.04843)"
       d="m 44.999999,59.384132 c 0,4.536625 -3.677661,8.214286 -8.214286,8.214286 -4.536625,0 -8.214286,-3.677661 -8.214286,-8.214286 0,-4.536624 3.677661,-8.214285 8.214286,-8.214285 4.536625,0 8.214286,3.677661 8.214286,8.214285 z"
       sodipodi:ry="8.2142859"
       sodipodi:rx="8.2142859"
       sodipodi:cy="59.384132"
       sodipodi:cx="36.785713"
       id="path2987"
       style="fill:none;stroke:#000000;stroke-width:2.39480805;stroke-linecap:round;stroke-linejoin:miter;stroke-miterlimit:4;stroke-opacity:1;stroke-dasharray:none;stroke-dashoffset:0"
       sodipodi:type="arc" />
    <path
       sodipodi:type="arc"
       style="fill:none;stroke:#000000;stroke-width:2.39480805;stroke-linecap:round;stroke-linejoin:miter;stroke-miterlimit:4;stroke-opacity:1;stroke-dasharray:none;stroke-dashoffset:0"
       id="path2989"
       sodipodi:cx="36.785713"
       sodipodi:cy="59.384132"
       sodipodi:rx="8.2142859"
       sodipodi:ry="8.2142859"
       d="m 44.999999,59.384132 c 0,4.536625 -3.677661,8.214286 -8.214286,8.214286 -4.536625,0 -8.214286,-3.677661 -8.214286,-8.214286 0,-4.536624 3.677661,-8.214285 8.214286,-8.214285 4.536625,0 8.214286,3.677661 8.214286,8.214285 z"
       transform="matrix(0.83528745,0,0,0.83499264,164.99125,851.04843)" />
    <path
       transform="matrix(0.83528745,0,0,0.83499264,164.99125,943.07656)"
       d="m 44.999999,59.384132 c 0,4.536625 -3.677661,8.214286 -8.214286,8.214286 -4.536625,0 -8.214286,-3.677661 -8.214286,-8.214286 0,-4.536624 3.677661,-8.214285 8.214286,-8.214285 4.536625,0 8.214286,3.677661 8.214286,8.214285 z"
       sodipodi:ry="8.2142859"
       sodipodi:rx="8.2142859"
       sodipodi:cy="59.384132"
       sodipodi:cx="36.785713"
       id="path2991"
       style="fill:none;stroke:#000000;stroke-width:2.39480805;stroke-linecap:round;stroke-linejoin:miter;stroke-miterlimit:4;stroke-opacity:1;stroke-dasharray:none;stroke-dashoffset:0"
       sodipodi:type="arc" />
    <path
       sodipodi:type="arc"
       style="fill:none;stroke:#000000;stroke-width:2.39480805;stroke-linecap:round;stroke-linejoin:miter;stroke-miterlimit:4;stroke-opacity:1;stroke-dasharray:none;stroke-dashoffset:0"
       id="path2993"
       sodipodi:cx="36.785713"
       sodipodi:cy="59.384132"
       sodipodi:rx="8.2142859"
       sodipodi:ry="8.2142859"
       d="m 44.999999,59.384132 c 0,4.536625 -3.677661,8.214286 -8.214286,8.214286 -4.536625,0 -8.214286,-3.677661 -8.214286,-8.214286 0,-4.536624 3.677661,-8.214285 8.214286,-8.214285 4.536625,0 8.214286,3.677661 8.214286,8.214285 z"
       transform="matrix(0.83528745,0,0,0.83499264,65.353401,943.07656)" />
    <path
       sodipodi:nodetypes="cc"
       inkscape:connector-curvature="0"
       id="path2995"
       d="m 76.868443,946.97582 167.401827,0"
       style="fill:none;stroke:#000000;stroke-width:1px;stroke-linecap:butt;stroke-linejoin:miter;stroke-opacity:1" />
    <path
       sodipodi:nodetypes="cc"
       style="fill:none;stroke:#000000;stroke-width:1px;stroke-linecap:butt;stroke-linejoin:miter;stroke-opacity:1"
       d="m 146.31663,1009.6598 0,-138.37011"
       id="path2997"
       inkscape:connector-curvature="0" />
    <g
       ns0:text="$\\frac{1}{4}$"
       ns0:preamble="/home/sriranga/Desktop/general-books/CSY/article4/figure/package.tex"
       transform="matrix(1.2,0,0,1.2,-120.84422,731.75502)"
       id="g3090">
      <defs
         id="defs3092">
        <g
           id="g3094">
          <symbol
             style="overflow:visible"
             overflow="visible"
             id="textext-7d38a214-0">
            <path
               inkscape:connector-curvature="0"
               style="stroke:none"
               d=""
               id="path3097" />
          </symbol>
          <symbol
             style="overflow:visible"
             overflow="visible"
             id="textext-7d38a214-1">
            <path
               inkscape:connector-curvature="0"
               style="stroke:none"
               d="m 2.03125,-4.703125 -1.25,0.625 0,0.09375 c 0.078125,-0.03125 0.15625,-0.0625 0.1875,-0.078125 0.125,-0.046875 0.234375,-0.0625 0.3125,-0.0625 0.140625,0 0.203125,0.09375 0.203125,0.3125 l 0,3.171875 c 0,0.21875 -0.0625,0.375 -0.171875,0.453125 -0.09375,0.0625 -0.203125,0.078125 -0.484375,0.078125 L 0.828125,0 2.75,0 l 0,-0.109375 c -0.5625,0 -0.671875,-0.078125 -0.671875,-0.40625 l 0,-4.1875 z m 0,0"
               id="path3100" />
          </symbol>
          <symbol
             style="overflow:visible"
             overflow="visible"
             id="textext-7d38a214-2">
            <path
               inkscape:connector-curvature="0"
               style="stroke:none"
               d="m 3.296875,-1.609375 -0.71875,0 0,-3.09375 -0.3125,0 -2.1875,3.09375 0,0.453125 1.96875,0 0,1.15625 0.53125,0 0,-1.15625 0.71875,0 z m -1.265625,0 -1.671875,0 L 2.03125,-4 z m 0,0"
               id="path3103" />
          </symbol>
        </g>
      </defs>
      <g
         id="textext-7d38a214-3">
        <g
           style="fill:#000000;fill-opacity:1"
           id="g3106">
          <use
             height="212.59842"
             width="283.46457"
             xlink:href="#textext-7d38a214-1"
             x="224.62801"
             y="130.839"
             id="use3108" />
        </g>
        <path
           inkscape:connector-curvature="0"
           style="fill:none;stroke:#000000;stroke-width:0.55800003;stroke-linecap:butt;stroke-linejoin:miter;stroke-miterlimit:10;stroke-opacity:1"
           d="m 9.0625e-4,8.75e-4 3.48437475,0"
           transform="matrix(1,0,0,-1,224.628,132.204)"
           id="path3110" />
        <g
           style="fill:#000000;fill-opacity:1"
           id="g3112">
          <use
             height="212.59842"
             width="283.46457"
             xlink:href="#textext-7d38a214-2"
             x="224.62801"
             y="138.202"
             id="use3114" />
        </g>
      </g>
    </g>
    <g
       id="g3151"
       transform="matrix(1.2,0,0,1.2,-120.84422,844.26318)"
       ns0:preamble="/home/sriranga/Desktop/general-books/CSY/article4/figure/package.tex"
       ns0:text="$\\frac{1}{4}$">
      <defs
         id="defs3153">
        <g
           id="g3155">
          <symbol
             id="symbol3157"
             overflow="visible"
             style="overflow:visible">
            <path
               id="path3159"
               d=""
               style="stroke:none"
               inkscape:connector-curvature="0" />
          </symbol>
          <symbol
             id="symbol3161"
             overflow="visible"
             style="overflow:visible">
            <path
               id="path3163"
               d="m 2.03125,-4.703125 -1.25,0.625 0,0.09375 c 0.078125,-0.03125 0.15625,-0.0625 0.1875,-0.078125 0.125,-0.046875 0.234375,-0.0625 0.3125,-0.0625 0.140625,0 0.203125,0.09375 0.203125,0.3125 l 0,3.171875 c 0,0.21875 -0.0625,0.375 -0.171875,0.453125 -0.09375,0.0625 -0.203125,0.078125 -0.484375,0.078125 L 0.828125,0 2.75,0 l 0,-0.109375 c -0.5625,0 -0.671875,-0.078125 -0.671875,-0.40625 l 0,-4.1875 z m 0,0"
               style="stroke:none"
               inkscape:connector-curvature="0" />
          </symbol>
          <symbol
             id="symbol3165"
             overflow="visible"
             style="overflow:visible">
            <path
               id="path3167"
               d="m 3.296875,-1.609375 -0.71875,0 0,-3.09375 -0.3125,0 -2.1875,3.09375 0,0.453125 1.96875,0 0,1.15625 0.53125,0 0,-1.15625 0.71875,0 z m -1.265625,0 -1.671875,0 L 2.03125,-4 z m 0,0"
               style="stroke:none"
               inkscape:connector-curvature="0" />
          </symbol>
        </g>
      </defs>
      <g
         id="g3169">
        <g
           id="g3171"
           style="fill:#000000;fill-opacity:1">
          <use
             id="use3173"
             y="130.839"
             x="224.62801"
             xlink:href="#textext-7d38a214-1"
             width="283.46457"
             height="212.59842" />
        </g>
        <path
           id="path3175"
           transform="matrix(1,0,0,-1,224.628,132.204)"
           d="m 9.0625e-4,8.75e-4 3.48437475,0"
           style="fill:none;stroke:#000000;stroke-width:0.55800003;stroke-linecap:butt;stroke-linejoin:miter;stroke-miterlimit:10;stroke-opacity:1"
           inkscape:connector-curvature="0" />
        <g
           id="g3177"
           style="fill:#000000;fill-opacity:1">
          <use
             id="use3179"
             y="138.202"
             x="224.62801"
             xlink:href="#textext-7d38a214-2"
             width="283.46457"
             height="212.59842" />
        </g>
      </g>
    </g>
    <g
       ns0:text="$\\frac{1}{4}$"
       ns0:preamble="/home/sriranga/Desktop/general-books/CSY/article4/figure/package.tex"
       transform="matrix(1.2,0,0,1.2,-70.098298,779.1443)"
       id="g3181">
      <defs
         id="defs3183">
        <g
           id="g3185">
          <symbol
             style="overflow:visible"
             overflow="visible"
             id="symbol3187">
            <path
               inkscape:connector-curvature="0"
               style="stroke:none"
               d=""
               id="path3189" />
          </symbol>
          <symbol
             style="overflow:visible"
             overflow="visible"
             id="symbol3191">
            <path
               inkscape:connector-curvature="0"
               style="stroke:none"
               d="m 2.03125,-4.703125 -1.25,0.625 0,0.09375 c 0.078125,-0.03125 0.15625,-0.0625 0.1875,-0.078125 0.125,-0.046875 0.234375,-0.0625 0.3125,-0.0625 0.140625,0 0.203125,0.09375 0.203125,0.3125 l 0,3.171875 c 0,0.21875 -0.0625,0.375 -0.171875,0.453125 -0.09375,0.0625 -0.203125,0.078125 -0.484375,0.078125 L 0.828125,0 2.75,0 l 0,-0.109375 c -0.5625,0 -0.671875,-0.078125 -0.671875,-0.40625 l 0,-4.1875 z m 0,0"
               id="path3193" />
          </symbol>
          <symbol
             style="overflow:visible"
             overflow="visible"
             id="symbol3195">
            <path
               inkscape:connector-curvature="0"
               style="stroke:none"
               d="m 3.296875,-1.609375 -0.71875,0 0,-3.09375 -0.3125,0 -2.1875,3.09375 0,0.453125 1.96875,0 0,1.15625 0.53125,0 0,-1.15625 0.71875,0 z m -1.265625,0 -1.671875,0 L 2.03125,-4 z m 0,0"
               id="path3197" />
          </symbol>
        </g>
      </defs>
      <g
         id="g3199">
        <g
           style="fill:#000000;fill-opacity:1"
           id="g3201">
          <use
             height="212.59842"
             width="283.46457"
             xlink:href="#textext-7d38a214-1"
             x="224.62801"
             y="130.839"
             id="use3203" />
        </g>
        <path
           inkscape:connector-curvature="0"
           style="fill:none;stroke:#000000;stroke-width:0.55800003;stroke-linecap:butt;stroke-linejoin:miter;stroke-miterlimit:10;stroke-opacity:1"
           d="m 9.0625e-4,8.75e-4 3.48437475,0"
           transform="matrix(1,0,0,-1,224.628,132.204)"
           id="path3205" />
        <g
           style="fill:#000000;fill-opacity:1"
           id="g3207">
          <use
             height="212.59842"
             width="283.46457"
             xlink:href="#textext-7d38a214-2"
             x="224.62801"
             y="138.202"
             id="use3209" />
        </g>
      </g>
    </g>
    <g
       id="g3211"
       transform="matrix(1.2,0,0,1.2,-180.0983,779.51726)"
       ns0:preamble="/home/sriranga/Desktop/general-books/CSY/article4/figure/package.tex"
       ns0:text="$\\frac{1}{4}$">
      <defs
         id="defs3213">
        <g
           id="g3215">
          <symbol
             id="symbol3217"
             overflow="visible"
             style="overflow:visible">
            <path
               id="path3219"
               d=""
               style="stroke:none"
               inkscape:connector-curvature="0" />
          </symbol>
          <symbol
             id="symbol3221"
             overflow="visible"
             style="overflow:visible">
            <path
               id="path3223"
               d="m 2.03125,-4.703125 -1.25,0.625 0,0.09375 c 0.078125,-0.03125 0.15625,-0.0625 0.1875,-0.078125 0.125,-0.046875 0.234375,-0.0625 0.3125,-0.0625 0.140625,0 0.203125,0.09375 0.203125,0.3125 l 0,3.171875 c 0,0.21875 -0.0625,0.375 -0.171875,0.453125 -0.09375,0.0625 -0.203125,0.078125 -0.484375,0.078125 L 0.828125,0 2.75,0 l 0,-0.109375 c -0.5625,0 -0.671875,-0.078125 -0.671875,-0.40625 l 0,-4.1875 z m 0,0"
               style="stroke:none"
               inkscape:connector-curvature="0" />
          </symbol>
          <symbol
             id="symbol3225"
             overflow="visible"
             style="overflow:visible">
            <path
               id="path3227"
               d="m 3.296875,-1.609375 -0.71875,0 0,-3.09375 -0.3125,0 -2.1875,3.09375 0,0.453125 1.96875,0 0,1.15625 0.53125,0 0,-1.15625 0.71875,0 z m -1.265625,0 -1.671875,0 L 2.03125,-4 z m 0,0"
               style="stroke:none"
               inkscape:connector-curvature="0" />
          </symbol>
        </g>
      </defs>
      <g
         id="g3229">
        <g
           id="g3231"
           style="fill:#000000;fill-opacity:1">
          <use
             id="use3233"
             y="130.839"
             x="224.62801"
             xlink:href="#textext-7d38a214-1"
             width="283.46457"
             height="212.59842" />
        </g>
        <path
           id="path3235"
           transform="matrix(1,0,0,-1,224.628,132.204)"
           d="m 9.0625e-4,8.75e-4 3.48437475,0"
           style="fill:none;stroke:#000000;stroke-width:0.55800003;stroke-linecap:butt;stroke-linejoin:miter;stroke-miterlimit:10;stroke-opacity:1"
           inkscape:connector-curvature="0" />
        <g
           id="g3237"
           style="fill:#000000;fill-opacity:1">
          <use
             id="use3239"
             y="138.202"
             x="224.62801"
             xlink:href="#textext-7d38a214-2"
             width="283.46457"
             height="212.59842" />
        </g>
      </g>
    </g>
    <path
       sodipodi:type="arc"
       style="fill:none;stroke:#000000;stroke-width:2.39480805;stroke-linecap:round;stroke-linejoin:miter;stroke-miterlimit:4;stroke-opacity:1;stroke-dasharray:none;stroke-dashoffset:0"
       id="path3241"
       sodipodi:cx="36.785713"
       sodipodi:cy="59.384132"
       sodipodi:rx="8.2142859"
       sodipodi:ry="8.2142859"
       d="m 44.999999,59.384132 c 0,4.536625 -3.677661,8.214286 -8.214286,8.214286 -4.536625,0 -8.214286,-3.677661 -8.214286,-8.214286 0,-4.536624 3.677661,-8.214285 8.214286,-8.214285 4.536625,0 8.214286,3.677661 8.214286,8.214285 z"
       transform="matrix(0.83528745,0,0,0.83499264,115.36421,897.31432)" />
    <path
       transform="matrix(1.2018349,0,0,1,13.214397,848.34056)"
       d="m 130.90946,98.285744 c 0,38.003476 -9.10044,68.811386 -20.3264,68.811386 -11.225959,0 -20.326398,-30.80791 -20.326398,-68.811386 0,-38.003479 9.100439,-68.811386 20.326398,-68.811386 11.22596,0 20.3264,30.807907 20.3264,68.811386 z"
       sodipodi:ry="68.811386"
       sodipodi:rx="20.326399"
       sodipodi:cy="98.285744"
       sodipodi:cx="110.58306"
       id="path3060"
       style="fill:none;stroke:#000000;stroke-width:0.72973907;stroke-linecap:round;stroke-linejoin:miter;stroke-miterlimit:4;stroke-opacity:1;stroke-dasharray:none;stroke-dashoffset:0"
       sodipodi:type="arc" />
    <path
       sodipodi:type="arc"
       style="fill:none;stroke:#000000;stroke-width:0.70019466;stroke-linecap:round;stroke-linejoin:miter;stroke-miterlimit:4;stroke-opacity:1;stroke-dasharray:none;stroke-dashoffset:0"
       id="path3830"
       sodipodi:cx="110.58306"
       sodipodi:cy="98.285744"
       sodipodi:rx="20.326399"
       sodipodi:ry="68.811386"
       d="m 130.90946,98.285744 c 0,38.003476 -9.10044,68.811386 -20.3264,68.811386 -11.225959,0 -20.326398,-30.80791 -20.326398,-68.811386 0,-38.003479 9.100439,-68.811386 20.326398,-68.811386 11.22596,0 20.3264,30.807907 20.3264,68.811386 z"
       transform="matrix(0.57183512,-1.1359841,0.89039336,0.51400082,46.00285,995.46679)" />
    <path
       transform="matrix(-0.57183512,-1.1359841,-0.89039336,0.51400082,246.38047,995.46679)"
       d="m 130.90946,98.285744 c 0,38.003476 -9.10044,68.811386 -20.3264,68.811386 -11.225959,0 -20.326398,-30.80791 -20.326398,-68.811386 0,-38.003479 9.100439,-68.811386 20.326398,-68.811386 11.22596,0 20.3264,30.807907 20.3264,68.811386 z"
       sodipodi:ry="68.811386"
       sodipodi:rx="20.326399"
       sodipodi:cy="98.285744"
       sodipodi:cx="110.58306"
       id="path3836"
       style="fill:none;stroke:#000000;stroke-width:0.70019466;stroke-linecap:round;stroke-linejoin:miter;stroke-miterlimit:4;stroke-opacity:1;stroke-dasharray:none;stroke-dashoffset:0"
       sodipodi:type="arc" />
    <g
       id="g3914"
       ns0:preamble="/home/sriranga/Desktop/general-books/CSY/article4/figure/package.tex"
       ns0:text="$A$"
       transform="matrix(1.2,0,0,1.2,-249.71963,791.9314)">
      <defs
         id="defs3916">
        <g
           id="g3918">
          <symbol
             id="textext-2321577e-0"
             overflow="visible"
             style="overflow:visible">
            <path
               id="path3921"
               d=""
               style="stroke:none"
               inkscape:connector-curvature="0" />
          </symbol>
          <symbol
             id="textext-2321577e-1"
             overflow="visible"
             style="overflow:visible">
            <path
               id="path3924"
               d="M 5.625,-0.15625 C 5.046875,-0.203125 5,-0.296875 4.859375,-1.015625 l -0.9375,-5.640625 -0.25,0 -2.890625,4.984375 c -0.796875,1.328125 -0.890625,1.4375 -1.296875,1.515625 l 0,0.15625 1.875,0 0,-0.15625 c -0.515625,-0.046875 -0.59375,-0.109375 -0.59375,-0.359375 0,-0.1875 0.03125,-0.265625 0.203125,-0.609375 l 0.5625,-1.125 2.203125,0 0.1875,1.296875 c 0.015625,0.09375 0.03125,0.1875 0.03125,0.265625 0,0.375 -0.140625,0.46875 -0.78125,0.53125 L 3.171875,0 5.625,0 z m -3.875,-2.453125 1.484375,-2.59375 0.4375,2.59375 z m 0,0"
               style="stroke:none"
               inkscape:connector-curvature="0" />
          </symbol>
        </g>
      </defs>
      <g
         id="textext-2321577e-2">
        <g
           id="g3927"
           style="fill:#000000;fill-opacity:1">
          <use
             id="use3929"
             y="134.765"
             x="223.681"
             xlink:href="#textext-2321577e-1"
             width="283.46457"
             height="212.59842" />
        </g>
      </g>
    </g>
    <g
       ns0:text="$B$"
       ns0:preamble="/home/sriranga/Desktop/general-books/CSY/article4/figure/package.tex"
       transform="matrix(1.2,0,0,1.2,-124.70667,865.49461)"
       id="g4121">
      <defs
         id="defs4123">
        <g
           id="g4125">
          <symbol
             style="overflow:visible"
             overflow="visible"
             id="textext-f1aab9f8-0">
            <path
               inkscape:connector-curvature="0"
               style="stroke:none"
               d=""
               id="path4128" />
          </symbol>
          <symbol
             style="overflow:visible"
             overflow="visible"
             id="textext-f1aab9f8-1">
            <path
               inkscape:connector-curvature="0"
               style="stroke:none"
               d="m -0.078125,0 2.8125,0 C 4.296875,0 5.375,-0.8125 5.375,-2 5.375,-2.359375 5.25,-2.71875 5.03125,-2.9375 4.828125,-3.15625 4.640625,-3.28125 4.109375,-3.5 c 0.71875,-0.171875 1,-0.28125 1.328125,-0.5625 0.28125,-0.25 0.421875,-0.578125 0.421875,-0.984375 0,-0.9375 -0.703125,-1.46875 -1.984375,-1.46875 l -2.578125,0 0,0.171875 c 0.609375,0.046875 0.765625,0.125 0.765625,0.40625 0,0.140625 -0.03125,0.390625 -0.109375,0.640625 l -1.21875,4.40625 c -0.1875,0.578125 -0.25,0.625 -0.8125,0.734375 z M 2.375,-3.296875 c 0.640625,0 1.0625,0.03125 1.265625,0.109375 0.40625,0.171875 0.65625,0.609375 0.65625,1.15625 0,1.078125 -0.734375,1.734375 -1.953125,1.734375 -0.421875,0 -0.640625,-0.15625 -0.640625,-0.421875 0,-0.125 0.125,-0.59375 0.34375,-1.390625 C 2.1875,-2.5625 2.25,-2.796875 2.375,-3.296875 z M 3.125,-5.9375 c 0.0625,-0.21875 0.171875,-0.265625 0.5625,-0.265625 0.796875,0 1.171875,0.328125 1.171875,1.0625 0,0.578125 -0.25,1.015625 -0.671875,1.25 C 3.84375,-3.6875 3.375,-3.625 2.46875,-3.625 z m 0,0"
               id="path4131" />
          </symbol>
        </g>
      </defs>
      <g
         id="textext-f1aab9f8-2">
        <g
           style="fill:#000000;fill-opacity:1"
           id="g4134">
          <use
             height="212.59842"
             width="283.46457"
             xlink:href="#textext-f1aab9f8-1"
             x="223.78101"
             y="134.765"
             id="use4136" />
        </g>
      </g>
    </g>
    <g
       id="g4348"
       transform="matrix(1.2,0,0,1.2,-3.7572093,792.04486)"
       ns0:preamble="/home/sriranga/Desktop/general-books/CSY/article4/figure/package.tex"
       ns0:text="$C$">
      <defs
         id="defs4350">
        <g
           id="g4352">
          <symbol
             id="textext-50a55cbc-0"
             overflow="visible"
             style="overflow:visible">
            <path
               id="path4355"
               d=""
               style="stroke:none"
               inkscape:connector-curvature="0" />
          </symbol>
          <symbol
             id="textext-50a55cbc-1"
             overflow="visible"
             style="overflow:visible">
            <path
               id="path4358"
               d="M 6.5,-4.640625 6.875,-6.625 l -0.21875,0 c -0.078125,0.171875 -0.171875,0.21875 -0.375,0.21875 -0.078125,0 -0.203125,-0.015625 -0.40625,-0.0625 -0.453125,-0.109375 -0.84375,-0.171875 -1.171875,-0.171875 -2.125,0 -4.046875,2 -4.046875,4.21875 0,1.53125 1.078125,2.59375 2.609375,2.59375 1.015625,0 1.8125,-0.4375 2.71875,-1.484375 L 5.8125,-1.453125 c -0.890625,0.890625 -1.46875,1.1875 -2.296875,1.1875 -1.109375,0 -1.734375,-0.765625 -1.734375,-2.046875 0,-1.1875 0.46875,-2.390625 1.25,-3.203125 C 3.515625,-6 4.140625,-6.28125 4.796875,-6.28125 c 0.921875,0 1.421875,0.546875 1.515625,1.609375 z m 0,0"
               style="stroke:none"
               inkscape:connector-curvature="0" />
          </symbol>
        </g>
      </defs>
      <g
         id="textext-50a55cbc-2">
        <g
           id="g4361"
           style="fill:#000000;fill-opacity:1">
          <use
             id="use4363"
             y="134.765"
             x="223.183"
             xlink:href="#textext-50a55cbc-1"
             width="283.46457"
             height="212.59842" />
        </g>
      </g>
    </g>
  </g>
</svg>
