<?xml version="1.0" encoding="UTF-8" standalone="no"?>
<!-- Created with Inkscape (http://www.inkscape.org/) -->

<svg
   xmlns:dc="http://purl.org/dc/elements/1.1/"
   xmlns:cc="http://creativecommons.org/ns#"
   xmlns:rdf="http://www.w3.org/1999/02/22-rdf-syntax-ns#"
   xmlns:svg="http://www.w3.org/2000/svg"
   xmlns="http://www.w3.org/2000/svg"
   xmlns:sodipodi="http://sodipodi.sourceforge.net/DTD/sodipodi-0.dtd"
   xmlns:inkscape="http://www.inkscape.org/namespaces/inkscape"
   width="10cm"
   height="10cm"
   viewBox="0 0 354.33071 354.3307"
   id="svg2"
   version="1.1"
   inkscape:version="0.91 r13725"
   sodipodi:docname="exr4.svg">
  <sodipodi:namedview
     id="base"
     pagecolor="#ffffff"
     bordercolor="#666666"
     borderopacity="1.0"
     inkscape:pageopacity="0.0"
     inkscape:pageshadow="2"
     inkscape:zoom="1.7130889"
     inkscape:cx="177.16535"
     inkscape:cy="177.16535"
     inkscape:document-units="cm"
     inkscape:current-layer="layer1"
     showgrid="false"
     units="cm"
     inkscape:window-width="1366"
     inkscape:window-height="744"
     inkscape:window-x="0"
     inkscape:window-y="24"
     inkscape:window-maximized="1"
     inkscape:object-paths="true"
     inkscape:object-nodes="true">
    <inkscape:grid
       type="xygrid"
       id="grid4136" />
  </sodipodi:namedview>
  <defs
     id="defs4" />
  <metadata
     id="metadata7">
    <rdf:RDF>
      <cc:Work
         rdf:about="">
        <dc:format>image/svg+xml</dc:format>
        <dc:type
           rdf:resource="http://purl.org/dc/dcmitype/StillImage" />
        <dc:title></dc:title>
      </cc:Work>
    </rdf:RDF>
  </metadata>
  <g
     inkscape:label="Layer 1"
     inkscape:groupmode="layer"
     id="layer1"
     transform="translate(0,-698.03152)">
    <text
       xml:space="preserve"
       style="font-style:normal;font-variant:normal;font-weight:normal;font-stretch:normal;font-size:15px;line-height:125%;font-family:LMRoman12;-inkscape-font-specification:'LMRoman12, Normal';text-align:start;letter-spacing:0px;word-spacing:0px;writing-mode:lr-tb;text-anchor:start;fill:#000000;fill-opacity:1;stroke:none;stroke-width:1px;stroke-linecap:butt;stroke-linejoin:miter;stroke-opacity:1"
       x="103.60455"
       y="817.36224"
       id="text5069"
       sodipodi:linespacing="125%"><tspan
         sodipodi:role="line"
         id="tspan5071"
         x="103.60455"
         y="817.36224" /></text>
    <text
       xml:space="preserve"
       style="font-style:normal;font-variant:normal;font-weight:normal;font-stretch:normal;font-size:15px;line-height:125%;font-family:LMRoman12;-inkscape-font-specification:'LMRoman12, Normal';text-align:start;letter-spacing:0px;word-spacing:0px;writing-mode:lr-tb;text-anchor:start;fill:#000000;fill-opacity:1;stroke:none;stroke-width:1px;stroke-linecap:butt;stroke-linejoin:miter;stroke-opacity:1"
       x="95"
       y="972.36224"
       id="text5172"
       sodipodi:linespacing="125%"><tspan
         sodipodi:role="line"
         id="tspan5174"
         x="95"
         y="972.36224" /></text>
    <path
       id="path5194"
       d="m 90.83709,937.24156 -0.048,0.072 -0.048,0.072 -0.048,0.072 -0.036,0.06 -0.048,0.06 -0.048,0.048 -0.036,0.06 -0.048,0.048 -0.048,0.048 -0.048,0.048 -0.036,0.036 -0.048,0.036 -0.048,0.036 -0.048,0.036 -0.036,0.036 -0.048,0.024 -0.048,0.024 -0.048,0.024 -0.048,0.024 -0.036,0.024 -0.048,0.012 -0.048,0.024 -0.048,0.012 -0.048,0.012 -0.048,0.012 -0.048,0.012 -0.048,0.012 -0.048,0 -0.096,0.012 -0.096,0.012 c -0.144,0.012 -0.252,0.012 -0.252,0.24 0,0.072 0.06,0.132 0.156,0.132 0.324,0 0.696,-0.036 1.032,-0.036 0.396,0 0.816,0.036 1.188,0.036 0.072,0 0.228,0 0.228,-0.228 0,-0.132 -0.108,-0.144 -0.192,-0.144 -0.276,-0.024 -0.564,-0.12 -0.564,-0.42 0,-0.144 0.072,-0.276 0.168,-0.444 l 0.912,-1.524 3,0 -0.036,-0.372 -2.736,0 2.352,-3.948 0.384,3.948 0.036,0.372 c 0.024,0.24 0.192,1.872 0.192,1.992 0,0.36 -0.624,0.396 -0.864,0.396 -0.168,0 -0.276,0 -0.276,0.24 0,0.132 0.132,0.132 0.168,0.132 0.48,0 0.996,-0.036 1.488,-0.036 0.3,0 1.056,0.036 1.356,0.036 0.072,0 0.216,0 0.216,-0.24 0,-0.132 -0.12,-0.132 -0.276,-0.132 -0.744,0 -0.744,-0.084 -0.78,-0.432 l -0.732,-7.476 c -0.024,-0.24 -0.024,-0.288 -0.228,-0.288 -0.192,0 -0.24,0.084 -0.312,0.204 z"
       inkscape:connector-curvature="0"
       style="font-style:normal;font-variant:normal;font-weight:normal;font-stretch:normal;letter-spacing:normal;word-spacing:normal;text-anchor:start;fill:#000000;fill-opacity:1;fill-rule:evenodd;stroke:#000000;stroke-width:0;stroke-linecap:butt;stroke-linejoin:miter;stroke-miterlimit:10.43299961;stroke-dasharray:none;stroke-dashoffset:0;stroke-opacity:1" />
    <path
       id="path5196"
       d="m 203.23601,937.65409 -0.012,0.048 -0.012,0.036 -0.012,0.036 -0.012,0.036 -0.012,0.036 -0.012,0.036 -0.012,0.024 -0.012,0.036 -0.012,0.024 -0.012,0.024 -0.012,0.024 -0.024,0.024 -0.012,0.024 -0.024,0.012 -0.024,0.024 -0.024,0.012 -0.024,0.012 -0.036,0.012 -0.024,0.012 -0.036,0.012 -0.048,0.012 -0.012,0.012 -0.024,0 -0.024,0 -0.024,0 -0.024,0.012 -0.024,0 -0.024,0 -0.024,0.012 -0.036,0 -0.024,0 -0.036,0 -0.024,0 -0.036,0 -0.036,0 -0.036,0.012 -0.036,0 -0.036,0 -0.036,0 -0.036,0 -0.048,0 -0.036,0 -0.048,0 c -0.204,0 -0.324,0 -0.324,0.24 0,0.132 0.108,0.132 0.324,0.132 l 4.272,0 c 1.884,0 3.3,-1.416 3.3,-2.58 0,-0.864 -0.696,-1.56 -1.86,-1.692 1.248,-0.228 2.496,-1.116 2.496,-2.244 0,-0.888 -0.78,-1.656 -2.22,-1.656 l -0.168,0.372 c 1.056,0 1.308,0.708 1.308,1.236 0,1.044 -1.032,2.184 -2.484,2.184 l -1.752,0 -0.072,0.264 2.256,0 c 1.152,0 1.38,0.888 1.38,1.404 0,1.176 -1.068,2.34 -2.472,2.34 l -1.632,0 c -0.168,0 -0.192,0 -0.264,-0.012 -0.12,-0.012 -0.156,-0.024 -0.156,-0.12 0,-0.036 0,-0.06 0.06,-0.276 l 0.828,-3.336 0.072,-0.264 0.744,-2.964 c 0.108,-0.42 0.132,-0.456 0.648,-0.456 l 1.536,0 0.168,-0.372 -4.02,0 c -0.228,0 -0.336,0 -0.336,0.24 0,0.132 0.108,0.132 0.324,0.132 0.024,0 0.252,0 0.456,0.024 0.216,0.024 0.324,0.036 0.324,0.192 0,0.048 -0.012,0.084 -0.048,0.228 z"
       inkscape:connector-curvature="0"
       style="font-style:normal;font-variant:normal;font-weight:normal;font-stretch:normal;letter-spacing:normal;word-spacing:normal;text-anchor:start;fill:#000000;fill-opacity:1;fill-rule:evenodd;stroke:#000000;stroke-width:0;stroke-linecap:butt;stroke-linejoin:miter;stroke-miterlimit:10.43299961;stroke-dasharray:none;stroke-dashoffset:0;stroke-opacity:1" />
    <path
       id="path5198"
       d="m 211.72411,825.36132 0,0 0,0 0,-0.012 0,0 0,0 0,-0.012 0,0 -0.012,0 0,-0.012 0,0 0,-0.012 0,0 0,-0.012 -0.012,0 0,0 0,-0.012 -0.012,0 0,-0.012 0,0 -0.012,0 0,-0.012 -0.012,0 0,0 -0.012,0 0,-0.012 0,0 -0.012,0 0,0 0,0 -0.012,0 0,0 0,0 -0.012,0 0,0 0,-0.012 -0.012,0 0,0 -0.012,0 0,0 c -0.036,0 -0.048,0.012 -0.18,0.144 l -0.84,0.924 c -0.108,-0.168 -0.66,-1.068 -1.98,-1.068 -2.664,0 -5.352,2.652 -5.352,5.424 0,1.968 1.404,3.276 3.24,3.276 1.032,0 1.944,-0.48 2.58,-1.032 1.104,-0.984 1.308,-2.064 1.308,-2.1 0,-0.12 -0.12,-0.12 -0.144,-0.12 -0.072,0 -0.132,0.024 -0.156,0.12 -0.096,0.348 -0.372,1.188 -1.2,1.884 -0.828,0.672 -1.584,0.876 -2.196,0.876 -1.08,0 -2.352,-0.624 -2.352,-2.484 0,-0.684 0.252,-2.628 1.452,-4.02 0.732,-0.852 1.848,-1.452 2.916,-1.452 1.212,0 1.92,0.924 1.92,2.316 0,0.468 -0.036,0.48 -0.036,0.6 0,0.12 0.132,0.12 0.18,0.12 0.156,0 0.156,-0.024 0.216,-0.24 z"
       inkscape:connector-curvature="0"
       style="font-style:normal;font-variant:normal;font-weight:normal;font-stretch:normal;letter-spacing:normal;word-spacing:normal;text-anchor:start;fill:#000000;fill-opacity:1;fill-rule:evenodd;stroke:#000000;stroke-width:0;stroke-linecap:butt;stroke-linejoin:miter;stroke-miterlimit:10.43299961;stroke-dasharray:none;stroke-dashoffset:0;stroke-opacity:1" />
    <path
       id="path5200"
       d="m 89.907286,833.2654 -0.012,0.048 -0.012,0.036 -0.012,0.036 -0.012,0.036 -0.012,0.036 0,0.036 -0.012,0.024 -0.012,0.036 -0.024,0.024 -0.012,0.024 -0.012,0.024 -0.012,0.024 -0.024,0.024 -0.024,0.012 -0.024,0.024 -0.024,0.012 -0.024,0.012 -0.024,0.012 -0.036,0.012 -0.036,0.012 -0.036,0.012 -0.024,0.012 -0.024,0 -0.024,0 -0.024,0 -0.024,0.012 -0.024,0 -0.024,0 -0.024,0.012 -0.036,0 -0.024,0 -0.036,0 -0.024,0 -0.036,0 -0.036,0 -0.036,0.012 -0.036,0 -0.036,0 -0.036,0 -0.036,0 -0.048,0 -0.036,0 -0.048,0 c -0.204,0 -0.336,0 -0.336,0.228 0,0.144 0.108,0.144 0.336,0.144 l 3.96,0 -0.216,-0.372 -1.356,0 c -0.156,0 -0.18,0 -0.252,-0.012 -0.12,-0.012 -0.156,-0.024 -0.156,-0.12 0,-0.036 0,-0.06 0.06,-0.276 l 1.632,-6.564 c 0.108,-0.42 0.132,-0.456 0.648,-0.456 l 1.272,0 c 1.176,0 2.172,0.636 2.172,2.208 0,0.588 -0.24,2.556 -1.26,3.864 -0.348,0.444 -1.284,1.356 -2.76,1.356 l 0.216,0.372 c 2.484,0 4.836,-2.52 4.836,-5.148 0,-1.68 -1.008,-3.024 -2.808,-3.024 l -4.008,0 c -0.228,0 -0.36,0 -0.36,0.228 0,0.144 0.108,0.144 0.348,0.144 0.156,0 0.36,0.012 0.516,0.024 0.18,0.024 0.252,0.06 0.252,0.192 0,0.048 -0.012,0.084 -0.048,0.228 z"
       inkscape:connector-curvature="0"
       style="font-style:normal;font-variant:normal;font-weight:normal;font-stretch:normal;letter-spacing:normal;word-spacing:normal;text-anchor:start;fill:#000000;fill-opacity:1;fill-rule:evenodd;stroke:#000000;stroke-width:0;stroke-linecap:butt;stroke-linejoin:miter;stroke-miterlimit:10.43299961;stroke-dasharray:none;stroke-dashoffset:0;stroke-opacity:1" />
    <rect
       transform="matrix(0,-1,1,0,0,0)"
       ry="0"
       y="99.999992"
       x="-857.36218"
       height="25.000004"
       width="24.999983"
       id="rect5343"
       style="fill:none;fill-opacity:1;stroke:#000000;stroke-width:0.99999994;stroke-linecap:round;stroke-linejoin:round;stroke-miterlimit:4;stroke-dasharray:none;stroke-dashoffset:0;stroke-opacity:1" />
    <rect
       style="fill:none;fill-opacity:1;stroke:#000000;stroke-width:0.99999994;stroke-linecap:round;stroke-linejoin:round;stroke-miterlimit:4;stroke-dasharray:none;stroke-dashoffset:0;stroke-opacity:1"
       id="rect5409"
       width="24.999983"
       height="25.000004"
       x="-882.36218"
       y="99.999992"
       ry="0"
       transform="matrix(0,-1,1,0,0,0)" />
    <rect
       transform="matrix(0,-1,1,0,0,0)"
       ry="0"
       y="100.00001"
       x="-907.36224"
       height="25.000004"
       width="24.999983"
       id="rect5411"
       style="fill:none;fill-opacity:1;stroke:#000000;stroke-width:0.99999994;stroke-linecap:round;stroke-linejoin:round;stroke-miterlimit:4;stroke-dasharray:none;stroke-dashoffset:0;stroke-opacity:1" />
    <rect
       style="fill:none;fill-opacity:1;stroke:#000000;stroke-width:0.99999994;stroke-linecap:round;stroke-linejoin:round;stroke-miterlimit:4;stroke-dasharray:none;stroke-dashoffset:0;stroke-opacity:1"
       id="rect5413"
       width="24.999983"
       height="25.000004"
       x="-857.36218"
       y="125"
       ry="0"
       transform="matrix(0,-1,1,0,0,0)" />
    <rect
       transform="matrix(0,-1,1,0,0,0)"
       ry="0"
       y="125"
       x="-882.36218"
       height="25.000004"
       width="24.999983"
       id="rect5415"
       style="fill:none;fill-opacity:1;stroke:#000000;stroke-width:0.99999994;stroke-linecap:round;stroke-linejoin:round;stroke-miterlimit:4;stroke-dasharray:none;stroke-dashoffset:0;stroke-opacity:1" />
    <rect
       style="fill:none;fill-opacity:1;stroke:#000000;stroke-width:0.99999994;stroke-linecap:round;stroke-linejoin:round;stroke-miterlimit:4;stroke-dasharray:none;stroke-dashoffset:0;stroke-opacity:1"
       id="rect5417"
       width="24.999983"
       height="25.000004"
       x="-907.36224"
       y="125.00002"
       ry="0"
       transform="matrix(0,-1,1,0,0,0)" />
    <rect
       transform="matrix(0,-1,1,0,0,0)"
       ry="0"
       y="149.99998"
       x="-857.36218"
       height="25.000004"
       width="24.999983"
       id="rect5419"
       style="fill:none;fill-opacity:1;stroke:#000000;stroke-width:0.99999994;stroke-linecap:round;stroke-linejoin:round;stroke-miterlimit:4;stroke-dasharray:none;stroke-dashoffset:0;stroke-opacity:1" />
    <rect
       style="fill:none;fill-opacity:1;stroke:#000000;stroke-width:0.99999994;stroke-linecap:round;stroke-linejoin:round;stroke-miterlimit:4;stroke-dasharray:none;stroke-dashoffset:0;stroke-opacity:1"
       id="rect5421"
       width="24.999983"
       height="25.000004"
       x="-882.36218"
       y="149.99998"
       ry="0"
       transform="matrix(0,-1,1,0,0,0)" />
    <rect
       transform="matrix(0,-1,1,0,0,0)"
       ry="0"
       y="149.99998"
       x="-907.36224"
       height="25.000004"
       width="24.999983"
       id="rect5423"
       style="fill:none;fill-opacity:1;stroke:#000000;stroke-width:0.99999994;stroke-linecap:round;stroke-linejoin:round;stroke-miterlimit:4;stroke-dasharray:none;stroke-dashoffset:0;stroke-opacity:1" />
    <path
       style="font-style:normal;font-variant:normal;font-weight:normal;font-stretch:normal;letter-spacing:normal;word-spacing:normal;text-anchor:start;fill:#000000;fill-opacity:1;fill-rule:evenodd;stroke:#000000;stroke-width:0;stroke-linecap:butt;stroke-linejoin:miter;stroke-miterlimit:10.43299961;stroke-dasharray:none;stroke-dashoffset:0;stroke-opacity:1"
       inkscape:connector-curvature="0"
       d="m 94.435082,859.03615 0,-0.012 0,0 0,-0.012 0.012,-0.012 0,-0.012 0.012,-0.012 0,-0.012 0,-0.012 0.012,-0.012 0,-0.012 0,0 0,-0.012 0.012,0 0,-0.012 0,0 0,-0.012 0,0 0,0 0,-0.012 0,0 0,0 0.012,-0.012 0,0 0,0 0,0 c 0,-0.012 0,-0.132 -0.144,-0.132 -0.108,0 -0.132,0.072 -0.156,0.144 -0.78,1.764 -1.224,2.568 -3.264,2.568 l -1.752,0 c -0.168,0 -0.192,0 -0.264,-0.012 -0.12,-0.012 -0.156,-0.024 -0.156,-0.12 0,-0.036 0,-0.06 0.06,-0.276 l 0.816,-3.264 1.188,0 c 1.008,0 1.008,0.252 1.008,0.552 0,0.084 0,0.228 -0.084,0.588 -0.024,0.06 -0.036,0.096 -0.036,0.132 0,0.06 0.048,0.132 0.156,0.132 0.096,0 0.132,-0.06 0.18,-0.24 l 0.684,-2.796 c 0,-0.072 -0.06,-0.132 -0.144,-0.132 -0.108,0 -0.132,0.06 -0.168,0.216 -0.252,0.9 -0.468,1.176 -1.56,1.176 l -1.128,0 0.72,-2.88 c 0.108,-0.42 0.12,-0.468 0.648,-0.468 l 1.68,0 c 1.464,0 1.824,0.348 1.824,1.332 0,0.288 0,0.312 -0.048,0.636 0,0.06 -0.012,0.144 -0.012,0.204 0,0.072 0.036,0.144 0.132,0.144 0.144,0 0.144,-0.072 0.18,-0.3 l 0.228,-2.064 c 0.036,-0.324 -0.024,-0.324 -0.324,-0.324 l -6.036,0 c -0.24,0 -0.348,0 -0.348,0.24 0,0.132 0.108,0.132 0.324,0.132 0.444,0 0.78,0 0.78,0.216 0,0.048 0,0.072 -0.06,0.288 l -1.572,6.324 c -0.12,0.468 -0.144,0.564 -1.092,0.564 -0.204,0 -0.336,0 -0.336,0.228 0,0.144 0.108,0.144 0.336,0.144 l 6.204,0 c 0.276,0 0.288,-0.012 0.372,-0.204 z"
       id="path5462" />
    <path
       style="font-style:normal;font-variant:normal;font-weight:normal;font-stretch:normal;letter-spacing:normal;word-spacing:normal;text-anchor:start;fill:#000000;fill-opacity:1;fill-rule:evenodd;stroke:#000000;stroke-width:0;stroke-linecap:butt;stroke-linejoin:miter;stroke-miterlimit:10.43299961;stroke-dasharray:none;stroke-dashoffset:0;stroke-opacity:1"
       inkscape:connector-curvature="0"
       d="m 129.70539,852.02886 1.164,0 c 0.9,0 0.984,0.192 0.984,0.54 0,0.084 0,0.228 -0.084,0.588 -0.024,0.06 -0.036,0.108 -0.036,0.132 0,0.096 0.084,0.132 0.144,0.132 0.12,0 0.12,-0.024 0.18,-0.24 l 0.66,-2.604 c 0.036,-0.12 0.036,-0.156 0.036,-0.18 0,-0.024 -0.024,-0.144 -0.144,-0.144 -0.12,0 -0.132,0.072 -0.18,0.252 -0.252,0.936 -0.528,1.152 -1.536,1.152 l -1.092,0 0.768,-3.036 c 0.108,-0.42 0.12,-0.468 0.648,-0.468 l 1.572,0 c 1.476,0 1.752,0.396 1.752,1.32 0,0.276 0,0.324 -0.036,0.648 -0.024,0.144 -0.024,0.18 -0.024,0.204 0,0.072 0.036,0.144 0.144,0.144 0.12,0 0.144,-0.072 0.156,-0.3 l 0.252,-2.064 c 0.024,-0.324 -0.036,-0.324 -0.324,-0.324 l -5.868,0 c -0.228,0 -0.36,0 -0.36,0.24 0,0.132 0.108,0.132 0.336,0.132 0.444,0 0.78,0 0.78,0.216 0,0.048 0,0.072 -0.06,0.288 l -1.572,6.324 c -0.12,0.468 -0.144,0.564 -1.092,0.564 -0.204,0 -0.336,0 -0.336,0.228 0,0.144 0.144,0.144 0.18,0.144 0.348,0 1.236,-0.036 1.584,-0.036 0.384,0 1.38,0.036 1.776,0.036 0.108,0 0.252,0 0.252,-0.228 0,-0.096 -0.072,-0.12 -0.072,-0.132 -0.036,-0.012 -0.06,-0.012 -0.336,-0.012 -0.264,0 -0.324,0 -0.624,-0.024 -0.348,-0.036 -0.384,-0.084 -0.384,-0.24 0,-0.024 0,-0.096 0.048,-0.276 z"
       id="path5464" />
    <path
       style="font-style:normal;font-variant:normal;font-weight:normal;font-stretch:normal;letter-spacing:normal;word-spacing:normal;text-anchor:start;fill:#000000;fill-opacity:1;fill-rule:evenodd;stroke:#000000;stroke-width:0;stroke-linecap:butt;stroke-linejoin:miter;stroke-miterlimit:10.43299961;stroke-dasharray:none;stroke-dashoffset:0;stroke-opacity:1"
       inkscape:connector-curvature="0"
       d="m 160.13887,847.11923 0,0 0,0 0,-0.012 0,0 0,0 -0.012,-0.012 0,0 0,0 0,-0.012 0,0 0,-0.012 0,0 -0.012,-0.012 0,0 0,0 0,-0.012 -0.012,0 0,-0.012 0,0 -0.012,0 0,-0.012 -0.012,0 0,0 -0.012,0 0,-0.012 -0.012,0 0,0 0,0 -0.012,0 0,0 0,0 -0.012,0 0,0 0,0 -0.012,-0.012 0,0 0,0 -0.012,0 0,0 c -0.036,0 -0.048,0.012 -0.18,0.144 l -0.84,0.924 c -0.108,-0.168 -0.66,-1.068 -1.98,-1.068 -2.676,0 -5.364,2.652 -5.364,5.424 0,1.896 1.332,3.276 3.264,3.276 0.528,0 1.068,-0.108 1.5,-0.288 0.6,-0.24 0.828,-0.492 1.032,-0.732 0.108,0.3 0.42,0.744 0.54,0.744 0.06,0 0.084,-0.036 0.084,-0.048 0.024,-0.024 0.144,-0.48 0.204,-0.732 l 0.228,-0.924 c 0.048,-0.204 0.108,-0.408 0.156,-0.6 0.132,-0.54 0.144,-0.564 0.828,-0.576 0.06,0 0.192,-0.012 0.192,-0.24 0,-0.084 -0.06,-0.132 -0.156,-0.132 -0.276,0 -0.984,0.036 -1.26,0.036 -0.372,0 -1.296,-0.036 -1.668,-0.036 -0.108,0 -0.252,0 -0.252,0.24 0,0.132 0.096,0.132 0.36,0.132 0.012,0 0.36,0 0.636,0.024 0.3,0.036 0.36,0.072 0.36,0.228 0,0.108 -0.132,0.636 -0.252,1.08 -0.324,1.32 -1.884,1.452 -2.304,1.452 -1.14,0 -2.4,-0.684 -2.4,-2.508 0,-0.372 0.12,-2.352 1.368,-3.9 0.648,-0.816 1.812,-1.548 3,-1.548 1.212,0 1.92,0.924 1.92,2.316 0,0.468 -0.036,0.48 -0.036,0.6 0,0.12 0.132,0.12 0.18,0.12 0.156,0 0.156,-0.024 0.216,-0.24 z"
       id="path5466" />
    <path
       style="font-style:normal;font-variant:normal;font-weight:normal;font-stretch:normal;letter-spacing:normal;word-spacing:normal;text-anchor:start;fill:#000000;fill-opacity:1;fill-rule:evenodd;stroke:#000000;stroke-width:0;stroke-linecap:butt;stroke-linejoin:miter;stroke-miterlimit:10.43299961;stroke-dasharray:none;stroke-dashoffset:0;stroke-opacity:1"
       inkscape:connector-curvature="0"
       d="m 184.8469,848.04312 0.012,-0.036 0.012,-0.036 0.012,-0.036 0.012,-0.036 0,-0.036 0.012,-0.036 0.012,-0.024 0.012,-0.024 0.012,-0.024 0.012,-0.024 0.012,-0.024 0.024,-0.024 0.012,-0.024 0.024,-0.012 0.012,-0.024 0.024,-0.012 0.024,-0.024 0.036,-0.012 0.024,-0.012 0.036,-0.012 0.036,-0.012 0.036,0 0.024,-0.012 0.024,0 0.024,0 0.024,-0.012 0.024,0 0.024,0 0.024,0 0.024,-0.012 0.024,0 0.036,0 0.024,0 0.036,0 0.036,0 0.024,-0.012 0.036,0 0.036,0 0.036,0 0.036,0 0.048,0 0.036,0 c 0.312,0 0.408,0 0.408,-0.24 0,-0.132 -0.132,-0.132 -0.168,-0.132 -0.336,0 -1.2,0.036 -1.536,0.036 -0.336,0 -1.188,-0.036 -1.536,-0.036 -0.096,0 -0.228,0 -0.228,0.24 0,0.132 0.108,0.132 0.336,0.132 0.024,0 0.252,0 0.456,0.024 0.216,0.024 0.324,0.036 0.324,0.192 0,0.048 -0.012,0.072 -0.048,0.228 l -0.72,2.916 -3.648,0 0.708,-2.808 c 0.108,-0.432 0.144,-0.552 0.996,-0.552 0.312,0 0.408,0 0.408,-0.24 0,-0.132 -0.12,-0.132 -0.156,-0.132 -0.336,0 -1.2,0.036 -1.536,0.036 -0.348,0 -1.2,-0.036 -1.548,-0.036 -0.096,0 -0.216,0 -0.216,0.24 0,0.132 0.108,0.132 0.324,0.132 0.024,0 0.252,0 0.456,0.024 0.216,0.024 0.324,0.036 0.324,0.192 0,0.048 -0.012,0.084 -0.048,0.228 l -1.596,6.42 c -0.12,0.468 -0.144,0.564 -1.092,0.564 -0.216,0 -0.324,0 -0.324,0.24 0,0.132 0.144,0.132 0.168,0.132 0.336,0 1.188,-0.036 1.524,-0.036 0.252,0 0.504,0.012 0.756,0.012 0.264,0 0.528,0.024 0.78,0.024 0.096,0 0.24,0 0.24,-0.24 0,-0.132 -0.108,-0.132 -0.336,-0.132 -0.444,0 -0.78,0 -0.78,-0.216 0,-0.072 0.024,-0.132 0.036,-0.204 l 0.816,-3.276 3.648,0 c -0.504,1.98 -0.78,3.12 -0.828,3.3 -0.12,0.384 -0.348,0.396 -1.08,0.396 -0.18,0 -0.288,0 -0.288,0.24 0,0.132 0.144,0.132 0.168,0.132 0.324,0 1.176,-0.036 1.512,-0.036 0.252,0 0.516,0.012 0.768,0.012 0.264,0 0.528,0.024 0.78,0.024 0.096,0 0.24,0 0.24,-0.24 0,-0.132 -0.108,-0.132 -0.336,-0.132 -0.444,0 -0.78,0 -0.78,-0.216 0,-0.072 0.024,-0.132 0.036,-0.204 z"
       id="path5468" />
    <path
       style="font-style:normal;font-variant:normal;font-weight:normal;font-stretch:normal;letter-spacing:normal;word-spacing:normal;text-anchor:start;fill:#000000;fill-opacity:1;fill-rule:evenodd;stroke:#000000;stroke-width:0;stroke-linecap:butt;stroke-linejoin:miter;stroke-miterlimit:10.43299961;stroke-dasharray:none;stroke-dashoffset:0;stroke-opacity:1"
       inkscape:connector-curvature="0"
       d="m 206.94077,854.50286 0.012,-0.036 0.012,-0.036 0,-0.036 0.012,-0.036 0.012,-0.036 0.012,-0.036 0.012,-0.024 0.012,-0.024 0.012,-0.024 0.012,-0.024 0.012,-0.024 0.024,-0.024 0.012,-0.024 0.024,-0.012 0.024,-0.024 0.024,-0.012 0.024,-0.024 0.036,-0.012 0.036,-0.012 0.036,-0.012 0.036,-0.012 0.024,0 0.012,0 0.024,-0.012 0.024,0 0.024,0 0.024,-0.012 0.036,0 0.024,0 0.024,0 0.036,-0.012 0.024,0 0.036,0 0.036,0 0.024,0 0.036,0 0.036,-0.012 0.036,0 0.048,0 0.036,0 0.036,0 0.048,0 0.048,0 c 0.276,0 0.372,0 0.372,-0.228 0,-0.144 -0.132,-0.144 -0.18,-0.144 -0.336,0 -1.224,0.036 -1.572,0.036 -0.36,0 -1.236,-0.036 -1.596,-0.036 -0.084,0 -0.24,0 -0.24,0.24 0,0.132 0.12,0.132 0.336,0.132 0.504,0 0.828,0 0.828,0.228 0,0.06 0,0.084 -0.024,0.192 l -1.608,6.444 c -0.108,0.444 -0.144,0.564 -1.092,0.564 -0.276,0 -0.384,0 -0.384,0.24 0,0.132 0.144,0.132 0.18,0.132 0.348,0 1.224,-0.036 1.572,-0.036 0.348,0 1.236,0.036 1.596,0.036 0.096,0 0.24,0 0.24,-0.228 0,-0.144 -0.096,-0.144 -0.36,-0.144 -0.216,0 -0.276,0 -0.516,-0.024 -0.252,-0.024 -0.3,-0.072 -0.3,-0.204 0,-0.096 0.024,-0.192 0.048,-0.276 z"
       id="path5470" />
    <path
       style="font-style:normal;font-variant:normal;font-weight:normal;font-stretch:normal;letter-spacing:normal;word-spacing:normal;text-anchor:start;fill:#000000;fill-opacity:1;fill-rule:evenodd;stroke:#000000;stroke-width:0;stroke-linecap:butt;stroke-linejoin:miter;stroke-miterlimit:10.43299961;stroke-dasharray:none;stroke-dashoffset:0;stroke-opacity:1"
       inkscape:connector-curvature="0"
       d="m 125.00608,820.25519 0.012,-0.036 0.012,-0.036 0.012,-0.036 0,-0.036 0.012,-0.036 0.012,-0.036 0.012,-0.024 0.012,-0.024 0.012,-0.036 0.024,-0.024 0.012,-0.024 0.024,-0.024 0.024,-0.012 0.024,-0.024 0.024,-0.012 0.024,-0.024 0.036,-0.012 0.036,-0.012 0.036,-0.012 0.048,-0.012 0.012,-0.012 0.024,0 0.024,-0.012 0.036,0 0.024,-0.012 0.024,0 0.024,0 0.036,-0.012 0.036,0 0.024,0 0.036,0 0.036,-0.012 0.036,0 0.036,0 0.036,0 0.048,0 0.036,0 0.048,0 0.036,-0.012 0.048,0 0.048,0 0.048,0 0.048,0 0.06,0 c 0.36,0 0.456,0 0.456,-0.228 0,-0.144 -0.132,-0.144 -0.192,-0.144 -0.396,0 -1.38,0.036 -1.776,0.036 -0.36,0 -1.224,-0.036 -1.584,-0.036 -0.084,0 -0.228,0 -0.228,0.24 0,0.132 0.108,0.132 0.336,0.132 0.024,0 0.252,0 0.456,0.024 0.204,0.024 0.312,0.036 0.312,0.192 0,0.048 -0.012,0.084 -0.048,0.228 l -1.596,6.42 c -0.12,0.468 -0.144,0.564 -1.092,0.564 -0.204,0 -0.324,0 -0.324,0.24 0,0.132 0.108,0.132 0.324,0.132 l 5.544,0 c 0.276,0 0.288,0 0.36,-0.204 l 0.948,-2.58 c 0.048,-0.132 0.048,-0.156 0.048,-0.168 0,-0.048 -0.036,-0.132 -0.144,-0.132 -0.108,0 -0.12,0.06 -0.204,0.252 -0.408,1.092 -0.936,2.46 -3,2.46 l -1.128,0 c -0.156,0 -0.18,0 -0.252,-0.012 -0.12,-0.012 -0.156,-0.024 -0.156,-0.12 0,-0.036 0,-0.06 0.06,-0.276 z"
       id="path5476" />
    <path
       style="font-style:normal;font-variant:normal;font-weight:normal;font-stretch:normal;letter-spacing:normal;word-spacing:normal;text-anchor:start;fill:#000000;fill-opacity:1;fill-rule:evenodd;stroke:#000000;stroke-width:0;stroke-linecap:butt;stroke-linejoin:miter;stroke-miterlimit:10.43299961;stroke-dasharray:none;stroke-dashoffset:0;stroke-opacity:1"
       inkscape:connector-curvature="0"
       d="m 155.84,820.24319 0.012,-0.036 0.012,-0.036 0,-0.036 0.012,-0.036 0.012,-0.036 0.012,-0.036 0.012,-0.024 0.012,-0.024 0.012,-0.024 0.012,-0.024 0.012,-0.024 0.012,-0.024 0.024,-0.024 0.012,-0.012 0.024,-0.024 0.024,-0.012 0.024,-0.024 0.036,-0.012 0.024,-0.012 0.036,-0.012 0.036,-0.012 0.024,0 0.024,0 0.012,-0.012 0.024,0 0.024,0 0.024,-0.012 0.024,0 0.024,0 0.036,0 0.024,-0.012 0.024,0 0.036,0 0.024,0 0.036,0 0.036,0 0.036,-0.012 0.024,0 0.048,0 0.036,0 0.036,0 0.036,0 0.048,0 c 0.276,0 0.384,0 0.384,-0.24 0,-0.132 -0.12,-0.132 -0.324,-0.132 l -1.584,0 c -0.312,0 -0.324,0 -0.468,0.228 l -4.356,6.816 -0.936,-6.768 c -0.036,-0.276 -0.06,-0.276 -0.372,-0.276 l -1.632,0 c -0.228,0 -0.36,0 -0.36,0.228 0,0.144 0.108,0.144 0.348,0.144 0.156,0 0.372,0.012 0.516,0.024 0.18,0.024 0.252,0.06 0.252,0.192 0,0.048 -0.012,0.084 -0.048,0.228 l -1.512,6.084 c -0.12,0.48 -0.324,0.864 -1.296,0.9 -0.06,0 -0.216,0.012 -0.216,0.228 0,0.108 0.072,0.144 0.168,0.144 0.384,0 0.804,-0.036 1.2,-0.036 0.408,0 0.84,0.036 1.236,0.036 0.048,0 0.216,0 0.216,-0.24 0,-0.132 -0.144,-0.132 -0.216,-0.132 -0.684,-0.012 -0.816,-0.252 -0.816,-0.528 0,-0.084 0.012,-0.144 0.048,-0.276 l 1.62,-6.516 0.012,0 1.032,7.416 c 0.024,0.144 0.036,0.276 0.18,0.276 0.132,0 0.204,-0.132 0.264,-0.216 l 4.824,-7.572 0.012,0 -1.704,6.852 c -0.12,0.468 -0.144,0.564 -1.092,0.564 -0.204,0 -0.336,0 -0.336,0.228 0,0.144 0.144,0.144 0.18,0.144 0.336,0 1.152,-0.036 1.488,-0.036 0.492,0 0.996,0.036 1.488,0.036 0.072,0 0.228,0 0.228,-0.24 0,-0.132 -0.108,-0.132 -0.336,-0.132 -0.444,0 -0.768,0 -0.768,-0.216 0,-0.048 0,-0.072 0.048,-0.288 z"
       id="path5478" />
    <path
       style="font-style:normal;font-variant:normal;font-weight:normal;font-stretch:normal;letter-spacing:normal;word-spacing:normal;text-anchor:start;fill:#000000;fill-opacity:1;fill-rule:evenodd;stroke:#000000;stroke-width:0;stroke-linecap:butt;stroke-linejoin:miter;stroke-miterlimit:10.43299961;stroke-dasharray:none;stroke-dashoffset:0;stroke-opacity:1"
       inkscape:connector-curvature="0"
       d="m 179.50778,820.57919 0.024,-0.084 0.012,-0.048 0.012,-0.048 0.024,-0.036 0.012,-0.036 0.012,-0.048 0.024,-0.036 0.024,-0.036 0.012,-0.036 0.024,-0.036 0.036,-0.036 0.024,-0.036 0.024,-0.036 0.036,-0.024 0.036,-0.036 0.036,-0.024 0.036,-0.024 0.048,-0.036 0.036,-0.024 0.048,-0.024 0.06,-0.012 0.048,-0.024 0.06,-0.024 0.06,-0.012 0.06,-0.012 0.072,-0.012 0.072,-0.012 0.072,-0.012 0.084,-0.012 0.084,0 0.036,-0.012 0.048,0 c 0.06,0 0.204,-0.012 0.204,-0.24 0,-0.012 0,-0.132 -0.156,-0.132 -0.396,0 -0.816,0.036 -1.212,0.036 -0.408,0 -0.828,-0.036 -1.224,-0.036 -0.06,0 -0.204,0 -0.204,0.24 0,0.132 0.12,0.132 0.204,0.132 0.684,0.012 0.816,0.264 0.816,0.528 0,0.036 -0.024,0.216 -0.036,0.252 l -1.332,5.316 -2.64,-6.24 c -0.108,-0.216 -0.108,-0.228 -0.384,-0.228 l -1.608,0 c -0.24,0 -0.348,0 -0.348,0.24 0,0.132 0.108,0.132 0.336,0.132 0.06,0 0.816,0 0.816,0.108 l -1.608,6.42 c -0.12,0.48 -0.324,0.864 -1.284,0.9 -0.072,0 -0.204,0.012 -0.204,0.24 0,0.084 0.06,0.132 0.156,0.132 0.384,0 0.804,-0.036 1.188,-0.036 0.408,0 0.84,0.036 1.236,0.036 0.06,0 0.216,0 0.216,-0.24 0,-0.12 -0.108,-0.132 -0.24,-0.132 -0.696,-0.024 -0.792,-0.288 -0.792,-0.528 0,-0.084 0.012,-0.144 0.048,-0.276 l 1.584,-6.312 c 0.048,0.072 0.048,0.096 0.108,0.216 l 2.976,7.044 c 0.084,0.204 0.12,0.228 0.228,0.228 0.132,0 0.132,-0.036 0.192,-0.252 z"
       id="path5480" />
    <path
       style="font-style:normal;font-variant:normal;font-weight:normal;font-stretch:normal;letter-spacing:normal;word-spacing:normal;text-anchor:start;fill:#000000;fill-opacity:1;fill-rule:evenodd;stroke:#000000;stroke-width:0;stroke-linecap:butt;stroke-linejoin:miter;stroke-miterlimit:10.43299961;stroke-dasharray:none;stroke-dashoffset:0;stroke-opacity:1"
       inkscape:connector-curvature="0"
       d="m 210.27173,880.92348 0,-0.168 -0.012,-0.18 -0.024,-0.168 -0.024,-0.168 -0.024,-0.168 -0.048,-0.156 -0.036,-0.156 -0.06,-0.144 -0.048,-0.144 -0.072,-0.144 -0.072,-0.132 -0.072,-0.132 -0.084,-0.12 -0.084,-0.12 -0.096,-0.12 -0.096,-0.108 -0.108,-0.096 -0.108,-0.096 -0.108,-0.096 -0.12,-0.084 -0.12,-0.084 -0.132,-0.072 -0.132,-0.06 -0.144,-0.06 -0.132,-0.06 -0.144,-0.048 -0.156,-0.036 -0.144,-0.036 -0.156,-0.024 -0.156,-0.012 -0.168,-0.012 -0.168,-0.012 -0.072,0.3 c 0.984,0 2.064,0.672 2.064,2.46 0,0.852 -0.324,2.724 -1.512,4.188 -0.576,0.732 -1.56,1.44 -2.556,1.44 l 0,0 c -1.188,0 -2.016,-0.972 -2.016,-2.544 0,-0.528 0.156,-2.28 1.08,-3.672 0.828,-1.248 2.004,-1.872 2.94,-1.872 l 0.072,-0.3 c -2.58,0 -5.208,2.712 -5.208,5.508 0,1.98 1.332,3.192 3.06,3.192 2.532,0 5.196,-2.628 5.196,-5.484 z"
       id="path5482" />
    <path
       style="font-style:normal;font-variant:normal;font-weight:normal;font-stretch:normal;letter-spacing:normal;word-spacing:normal;text-anchor:start;fill:#000000;fill-opacity:1;fill-rule:evenodd;stroke:#000000;stroke-width:0;stroke-linecap:butt;stroke-linejoin:miter;stroke-miterlimit:10.43299961;stroke-dasharray:none;stroke-dashoffset:0;stroke-opacity:1"
       inkscape:connector-curvature="0"
       d="m 91.573598,906.81522 0.048,-0.312 0.816,-3.252 c 0.108,-0.42 0.132,-0.456 0.648,-0.456 l 1.152,0 c 0.984,0 1.62,0.324 1.62,1.152 0,0.468 -0.24,1.488 -0.708,1.92 -0.6,0.54 -1.308,0.636 -1.836,0.636 l -1.692,0 -0.048,0.312 2.04,0 c 1.692,0 3.36,-1.248 3.36,-2.58 0,-0.924 -0.792,-1.812 -2.364,-1.812 l -3.864,0 c -0.228,0 -0.36,0 -0.36,0.228 0,0.144 0.108,0.144 0.348,0.144 0.156,0 0.36,0.012 0.516,0.024 0.18,0.024 0.252,0.06 0.252,0.192 0,0.048 -0.012,0.084 -0.048,0.228 l -1.596,6.42 c -0.12,0.468 -0.144,0.564 -1.092,0.564 -0.204,0 -0.336,0 -0.336,0.228 0,0.144 0.144,0.144 0.18,0.144 0.336,0 1.188,-0.036 1.524,-0.036 0.252,0 0.516,0.012 0.768,0.012 0.264,0 0.516,0.024 0.768,0.024 0.084,0 0.24,0 0.24,-0.24 0,-0.132 -0.108,-0.132 -0.336,-0.132 -0.444,0 -0.768,0 -0.768,-0.216 0,-0.072 0.024,-0.132 0.036,-0.204 z"
       id="path5484" />
    <path
       style="font-style:normal;font-variant:normal;font-weight:normal;font-stretch:normal;letter-spacing:normal;word-spacing:normal;text-anchor:start;fill:#000000;fill-opacity:1;fill-rule:evenodd;stroke:#000000;stroke-width:0;stroke-linecap:butt;stroke-linejoin:miter;stroke-miterlimit:10.43299961;stroke-dasharray:none;stroke-dashoffset:0;stroke-opacity:1"
       inkscape:connector-curvature="0"
       d="m 131.14101,903.84919 0.18,-0.072 0.168,-0.084 0.18,-0.084 0.168,-0.096 0.168,-0.096 0.156,-0.108 0.168,-0.12 0.168,-0.12 0.156,-0.132 0.156,-0.132 0.144,-0.144 0.144,-0.144 0.144,-0.156 0.144,-0.156 0.132,-0.156 0.132,-0.168 0.12,-0.18 0.12,-0.168 0.108,-0.192 0.108,-0.18 0.096,-0.192 0.096,-0.192 0.084,-0.192 0.072,-0.204 0.072,-0.204 0.06,-0.204 0.048,-0.204 0.048,-0.204 0.024,-0.216 0.036,-0.216 0.012,-0.216 0,-0.216 c 0,-1.92 -1.26,-3.216 -3.048,-3.216 -2.58,0 -5.208,2.712 -5.208,5.508 0,1.98 1.332,3.192 3.06,3.192 l 0.072,-0.3 c -0.168,0 -0.552,0 -0.552,-0.516 0,-0.48 0.456,-0.96 0.96,-0.96 l 0,-0.264 c -0.636,0 -1.224,0.6 -1.224,1.224 0,0.24 0.072,0.372 0.072,0.384 l 0,0 c -0.936,-0.372 -1.344,-1.308 -1.344,-2.376 0,-0.828 0.312,-2.532 1.224,-3.816 0.876,-1.224 2.004,-1.776 2.868,-1.776 1.2,0 2.076,0.936 2.076,2.544 0,1.188 -0.612,3.984 -2.628,5.112 -0.06,-0.42 -0.18,-1.296 -1.044,-1.296 l 0,0.264 c 0.504,0 0.732,0.288 0.732,1.02 0,0.18 -0.012,0.192 -0.144,0.24 -0.3,0.132 -0.66,0.216 -0.996,0.216 l 0,0 -0.072,0.3 c 0.3,0 0.708,-0.048 1.176,-0.18 -0.048,0.744 -0.048,0.768 -0.048,0.912 0,0.384 0,1.32 0.984,1.32 1.428,0 2.004,-2.184 2.004,-2.316 0,-0.084 -0.084,-0.12 -0.132,-0.12 -0.096,0 -0.12,0.06 -0.144,0.132 -0.288,0.84 -0.984,1.14 -1.404,1.14 -0.552,0 -0.732,-0.312 -0.852,-1.224 z"
       id="path5486" />
    <path
       style="font-style:normal;font-variant:normal;font-weight:normal;font-stretch:normal;letter-spacing:normal;word-spacing:normal;text-anchor:start;fill:#000000;fill-opacity:1;fill-rule:evenodd;stroke:#000000;stroke-width:0;stroke-linecap:butt;stroke-linejoin:miter;stroke-miterlimit:10.43299961;stroke-dasharray:none;stroke-dashoffset:0;stroke-opacity:1"
       inkscape:connector-curvature="0"
       d="m 156.54392,900.83406 0.108,-0.024 0.12,-0.036 0.108,-0.024 0.12,-0.036 0.12,-0.048 0.108,-0.036 0.12,-0.048 0.108,-0.048 0.12,-0.048 0.108,-0.06 0.108,-0.06 0.108,-0.06 0.108,-0.06 0.096,-0.072 0.108,-0.072 0.096,-0.072 0.096,-0.072 0.084,-0.072 0.084,-0.084 0.084,-0.084 0.072,-0.084 0.072,-0.084 0.072,-0.096 0.06,-0.096 0.048,-0.096 0.048,-0.096 0.048,-0.096 0.024,-0.108 0.036,-0.108 0.012,-0.108 0.012,-0.108 0.012,-0.108 c 0,-1.032 -1.08,-1.8 -2.64,-1.8 l -3.408,0 c -0.24,0 -0.348,0 -0.348,0.24 0,0.132 0.108,0.132 0.336,0.132 0.024,0 0.252,0 0.444,0.024 0.216,0.024 0.324,0.036 0.324,0.192 0,0.048 -0.012,0.084 -0.048,0.228 l -1.596,6.42 c -0.12,0.468 -0.144,0.564 -1.092,0.564 -0.216,0 -0.324,0 -0.324,0.24 0,0.132 0.144,0.132 0.168,0.132 0.336,0 1.176,-0.036 1.512,-0.036 0.336,0 1.188,0.036 1.512,0.036 0.096,0 0.24,0 0.24,-0.24 0,-0.132 -0.108,-0.132 -0.336,-0.132 -0.444,0 -0.768,0 -0.768,-0.216 0,-0.072 0.024,-0.132 0.036,-0.204 l 0.78,-3.168 1.428,0 -0.012,-0.264 -1.344,0 0.78,-3.12 c 0.072,-0.288 0.108,-0.408 0.336,-0.444 0.108,-0.012 0.492,-0.012 0.732,-0.012 0.852,0 2.172,0 2.172,1.188 0,0.408 -0.192,1.224 -0.66,1.692 -0.312,0.312 -0.936,0.696 -2.016,0.696 l 0.012,0.264 c 1.092,0 1.296,0.672 1.296,1.092 0,0.18 -0.096,0.552 -0.156,0.816 -0.084,0.336 -0.192,0.78 -0.192,1.02 0,1.296 1.428,1.296 1.584,1.296 1.02,0 1.44,-1.212 1.44,-1.38 0,-0.144 -0.132,-0.144 -0.144,-0.144 -0.108,0 -0.132,0.084 -0.156,0.168 -0.3,0.888 -0.816,1.092 -1.092,1.092 -0.396,0 -0.48,-0.264 -0.48,-0.732 0,-0.372 0.072,-0.984 0.12,-1.368 0.024,-0.168 0.048,-0.396 0.048,-0.552 0,-0.924 -0.792,-1.296 -1.116,-1.416 z"
       id="path5488" />
    <path
       style="font-style:normal;font-variant:normal;font-weight:normal;font-stretch:normal;letter-spacing:normal;word-spacing:normal;text-anchor:start;fill:#000000;fill-opacity:1;fill-rule:evenodd;stroke:#000000;stroke-width:0;stroke-linecap:butt;stroke-linejoin:miter;stroke-miterlimit:10.43299961;stroke-dasharray:none;stroke-dashoffset:0;stroke-opacity:1"
       inkscape:connector-curvature="0"
       d="m 183.98477,895.94987 0,0 0,0 0,-0.012 0,0 0,0 0,-0.012 0,0 0,0 0,-0.012 0,0 -0.012,-0.012 0,0 0,-0.012 0,0 -0.012,0 0,-0.012 0,0 0,-0.012 -0.012,0 0,0 -0.012,-0.012 0,0 -0.012,0 0,0 -0.012,-0.012 0,0 0,0 -0.012,0 0,0 0,0 -0.012,0 0,0 0,0 -0.012,0 0,-0.012 0,0 -0.012,0 0,0 -0.012,0 c -0.06,0 -0.072,0.012 -0.216,0.18 l -0.564,0.684 c -0.312,-0.564 -0.936,-0.864 -1.716,-0.864 -1.512,0 -2.952,1.38 -2.952,2.832 0,0.96 0.636,1.512 1.248,1.692 l 1.272,0.336 c 0.444,0.108 1.104,0.288 1.104,1.272 0,1.068 -0.984,2.196 -2.148,2.196 -0.768,0 -2.1,-0.264 -2.1,-1.752 0,-0.288 0.06,-0.576 0.072,-0.648 0.012,-0.036 0.024,-0.06 0.024,-0.072 0,-0.12 -0.084,-0.132 -0.144,-0.132 -0.06,0 -0.084,0.012 -0.12,0.048 -0.048,0.048 -0.708,2.772 -0.708,2.808 0,0.072 0.048,0.12 0.12,0.12 0.072,0 0.084,-0.012 0.216,-0.18 l 0.588,-0.684 c 0.516,0.696 1.332,0.864 2.028,0.864 1.62,0 3.036,-1.596 3.036,-3.072 0,-0.828 -0.408,-1.236 -0.588,-1.404 -0.276,-0.276 -0.456,-0.324 -1.524,-0.6 -0.264,-0.072 -0.684,-0.192 -0.792,-0.216 -0.324,-0.108 -0.732,-0.444 -0.732,-1.08 0,-0.972 0.96,-1.992 2.088,-1.992 0.996,0 1.728,0.516 1.728,1.86 0,0.384 -0.048,0.588 -0.048,0.66 0,0.012 0,0.132 0.144,0.132 0.12,0 0.132,-0.048 0.168,-0.24 z"
       id="path5490" />
    <path
       style="font-style:normal;font-variant:normal;font-weight:normal;font-stretch:normal;letter-spacing:normal;word-spacing:normal;text-anchor:start;fill:#000000;fill-opacity:1;fill-rule:evenodd;stroke:#000000;stroke-width:0;stroke-linecap:butt;stroke-linejoin:miter;stroke-miterlimit:10.43299961;stroke-dasharray:none;stroke-dashoffset:0;stroke-opacity:1"
       inkscape:connector-curvature="0"
       d="m 207.97129,902.78461 0,-0.036 0.012,-0.024 0.012,-0.024 0,-0.024 0.012,-0.036 0,-0.024 0.012,-0.012 0.012,-0.024 0,-0.024 0.012,-0.012 0,-0.024 0.012,-0.012 0,-0.012 0.012,-0.024 0.012,-0.012 0,-0.012 0.012,-0.012 0.012,-0.012 0,0 0.012,-0.012 0.012,-0.012 0,-0.012 0.012,0 0.012,-0.012 0.012,0 0.012,-0.012 0.012,0 0,-0.012 0.012,0 0.012,0 0.012,-0.012 0.024,0 c 0.108,-0.024 0.492,-0.024 0.744,-0.024 1.212,0 1.752,0.048 1.752,0.984 0,0.18 -0.048,0.648 -0.096,0.96 -0.012,0.036 -0.036,0.192 -0.036,0.216 0,0.072 0.036,0.156 0.144,0.156 0.132,0 0.156,-0.096 0.18,-0.264 l 0.324,-2.088 c 0.012,-0.048 0.024,-0.168 0.024,-0.204 0,-0.132 -0.12,-0.132 -0.324,-0.132 l -6.636,0 c -0.288,0 -0.3,0.012 -0.384,0.24 l -0.72,2.112 c -0.012,0.012 -0.072,0.18 -0.072,0.216 0,0.072 0.06,0.12 0.144,0.12 0.12,0 0.132,-0.048 0.204,-0.252 0.648,-1.848 0.96,-2.064 2.724,-2.064 l 0.468,0 c 0.336,0 0.336,0.048 0.336,0.144 0,0.072 -0.036,0.216 -0.048,0.252 l -1.596,6.384 c -0.108,0.444 -0.144,0.576 -1.428,0.576 -0.432,0 -0.504,0 -0.504,0.228 0,0.144 0.132,0.144 0.204,0.144 0.324,0 0.66,-0.024 0.984,-0.024 0.336,0 0.684,-0.012 1.008,-0.012 0.336,0 0.672,0.012 0.996,0.012 0.348,0 0.708,0.024 1.044,0.024 0.12,0 0.264,0 0.264,-0.24 0,-0.132 -0.096,-0.132 -0.408,-0.132 -0.3,0 -0.456,0 -0.768,-0.024 -0.348,-0.036 -0.444,-0.072 -0.444,-0.264 0,-0.012 0,-0.072 0.048,-0.252 z"
       id="path5492" />
    <path
       style="font-style:normal;font-variant:normal;font-weight:normal;font-stretch:normal;letter-spacing:normal;word-spacing:normal;text-anchor:start;fill:#000000;fill-opacity:1;fill-rule:evenodd;stroke:#000000;stroke-width:0;stroke-linecap:butt;stroke-linejoin:miter;stroke-miterlimit:10.43299961;stroke-dasharray:none;stroke-dashoffset:0;stroke-opacity:1"
       inkscape:connector-curvature="0"
       d="m 186.91259,873.56244 0.06,-0.096 0.048,-0.096 0.06,-0.096 0.06,-0.084 0.036,-0.048 0.024,-0.036 0.036,-0.048 0.036,-0.036 0.036,-0.036 0.036,-0.036 0.036,-0.036 0.036,-0.036 0.036,-0.036 0.036,-0.024 0.048,-0.036 0.036,-0.024 0.048,-0.036 0.048,-0.024 0.048,-0.024 0.048,-0.024 0.06,-0.012 0.048,-0.024 0.06,-0.012 0.06,-0.024 0.06,-0.012 0.06,-0.012 0.072,0 0.072,-0.012 c 0.108,-0.012 0.228,-0.012 0.228,-0.24 0,-0.048 -0.048,-0.132 -0.144,-0.132 -0.288,0 -0.624,0.036 -0.924,0.036 -0.408,0 -0.852,-0.036 -1.248,-0.036 -0.072,0 -0.228,0 -0.228,0.228 0,0.132 0.108,0.144 0.18,0.144 0.288,0.012 0.708,0.108 0.708,0.468 0,0.132 -0.06,0.228 -0.156,0.396 l -3.228,5.628 -0.444,-5.928 c -0.012,-0.24 -0.036,-0.552 0.84,-0.564 0.204,0 0.324,0 0.324,-0.24 0,-0.12 -0.132,-0.132 -0.18,-0.132 -0.48,0 -0.984,0.036 -1.464,0.036 -0.276,0 -0.972,-0.036 -1.248,-0.036 -0.072,0 -0.228,0 -0.228,0.24 0,0.132 0.12,0.132 0.288,0.132 0.528,0 0.612,0.072 0.636,0.3 l 0.072,0.924 -3.036,5.268 -0.444,-6.06 c 0,-0.144 0,-0.42 0.9,-0.432 0.12,0 0.252,0 0.252,-0.24 0,-0.132 -0.144,-0.132 -0.168,-0.132 -0.468,0 -0.972,0.036 -1.464,0.036 -0.42,0 -0.852,-0.036 -1.26,-0.036 -0.06,0 -0.216,0 -0.216,0.228 0,0.144 0.108,0.144 0.3,0.144 0.6,0 0.612,0.108 0.636,0.444 l 0.54,7.308 c 0.012,0.216 0.024,0.312 0.192,0.312 0.144,0 0.18,-0.072 0.288,-0.252 l 3.516,-6.096 0.432,6.036 c 0.024,0.252 0.048,0.312 0.192,0.312 0.156,0 0.228,-0.12 0.288,-0.228 z"
       id="path5498" />
    <path
       style="font-style:normal;font-variant:normal;font-weight:normal;font-stretch:normal;letter-spacing:normal;word-spacing:normal;text-anchor:start;fill:#000000;fill-opacity:1;fill-rule:evenodd;stroke:#000000;stroke-width:0;stroke-linecap:butt;stroke-linejoin:miter;stroke-miterlimit:10.43299961;stroke-dasharray:none;stroke-dashoffset:0;stroke-opacity:1"
       inkscape:connector-curvature="0"
       d="m 92.781963,879.84721 -1.008,-2.376 c -0.036,-0.096 -0.06,-0.144 -0.06,-0.156 0,-0.072 0.204,-0.3 0.708,-0.348 0.12,-0.012 0.24,-0.024 0.24,-0.228 0,-0.144 -0.144,-0.144 -0.18,-0.144 -0.492,0 -1.008,0.036 -1.512,0.036 -0.288,0 -1.032,-0.036 -1.332,-0.036 -0.072,0 -0.216,0 -0.216,0.24 0,0.132 0.12,0.132 0.276,0.132 0.72,0 0.792,0.12 0.9,0.384 l 1.404,3.336 -2.52,2.712 -0.156,0.132 c -0.588,0.636 -1.152,0.828 -1.752,0.864 -0.156,0.012 -0.264,0.012 -0.264,0.24 0,0.012 0,0.132 0.156,0.132 0.348,0 0.744,-0.036 1.116,-0.036 0.444,0 0.912,0.036 1.344,0.036 0.072,0 0.216,0 0.216,-0.24 0,-0.12 -0.12,-0.132 -0.144,-0.132 -0.108,-0.012 -0.48,-0.036 -0.48,-0.372 0,-0.192 0.18,-0.384 0.324,-0.54 l 1.224,-1.284 1.068,-1.176 1.212,2.856 c 0.048,0.132 0.06,0.144 0.06,0.168 0,0.096 -0.228,0.3 -0.696,0.348 -0.132,0.012 -0.24,0.024 -0.24,0.228 0,0.144 0.132,0.144 0.18,0.144 0.336,0 1.176,-0.036 1.5,-0.036 0.3,0 1.032,0.036 1.332,0.036 0.084,0 0.228,0 0.228,-0.228 0,-0.144 -0.12,-0.144 -0.216,-0.144 -0.804,-0.012 -0.828,-0.048 -1.032,-0.528 -0.456,-1.116 -1.26,-2.976 -1.536,-3.696 0.816,-0.84 2.064,-2.256 2.448,-2.592 0.348,-0.288 0.804,-0.576 1.524,-0.612 0.156,-0.012 0.264,-0.012 0.264,-0.24 0,-0.012 0,-0.132 -0.156,-0.132 -0.36,0 -0.756,0.036 -1.128,0.036 -0.444,0 -0.9,-0.036 -1.332,-0.036 -0.072,0 -0.216,0 -0.216,0.24 0,0.084 0.048,0.12 0.132,0.132 0.108,0.012 0.48,0.036 0.48,0.372 0,0.168 -0.132,0.324 -0.228,0.432 z"
       id="path5500" />
    <path
       style="font-style:normal;font-variant:normal;font-weight:normal;font-stretch:normal;letter-spacing:normal;word-spacing:normal;text-anchor:start;fill:#000000;fill-opacity:1;fill-rule:evenodd;stroke:#000000;stroke-width:0;stroke-linecap:butt;stroke-linejoin:miter;stroke-miterlimit:10.43299961;stroke-dasharray:none;stroke-dashoffset:0;stroke-opacity:1"
       inkscape:connector-curvature="0"
       d="m 134.84699,872.99045 0.168,-0.168 c 0.36,-0.36 0.756,-0.768 1.572,-0.828 0.132,-0.012 0.24,-0.012 0.24,-0.228 0,-0.096 -0.06,-0.144 -0.156,-0.144 -0.312,0 -0.66,0.036 -0.984,0.036 -0.396,0 -0.816,-0.036 -1.2,-0.036 -0.072,0 -0.216,0 -0.216,0.228 0,0.132 0.108,0.144 0.168,0.144 0.084,0 0.432,0.024 0.432,0.276 0,0.204 -0.276,0.516 -0.324,0.576 l -2.772,3.192 -1.308,-3.552 c -0.072,-0.168 -0.072,-0.192 -0.072,-0.204 0,-0.288 0.576,-0.288 0.696,-0.288 0.168,0 0.288,0 0.288,-0.24 0,-0.132 -0.144,-0.132 -0.18,-0.132 -0.336,0 -1.164,0.036 -1.5,0.036 -0.3,0 -1.044,-0.036 -1.344,-0.036 -0.072,0 -0.228,0 -0.228,0.24 0,0.132 0.12,0.132 0.276,0.132 0.72,0 0.768,0.108 0.876,0.408 l 1.476,3.936 c 0,0.036 0.036,0.168 0.036,0.204 0,0.036 -0.468,1.956 -0.528,2.172 -0.156,0.66 -0.168,0.696 -1.128,0.708 -0.228,0 -0.324,0 -0.324,0.24 0,0.132 0.144,0.132 0.168,0.132 0.336,0 1.176,-0.036 1.512,-0.036 0.336,0 1.188,0.036 1.524,0.036 0.084,0 0.228,0 0.228,-0.24 0,-0.132 -0.108,-0.132 -0.336,-0.132 -0.024,0 -0.252,0 -0.456,-0.024 -0.252,-0.024 -0.324,-0.048 -0.324,-0.192 0,-0.084 0.108,-0.504 0.168,-0.756 l 0.42,-1.68 c 0.06,-0.228 0.072,-0.264 0.168,-0.372 z"
       id="path5502" />
    <path
       style="font-style:normal;font-variant:normal;font-weight:normal;font-stretch:normal;letter-spacing:normal;word-spacing:normal;text-anchor:start;fill:#000000;fill-opacity:1;fill-rule:evenodd;stroke:#000000;stroke-width:0;stroke-linecap:butt;stroke-linejoin:miter;stroke-miterlimit:10.43299961;stroke-dasharray:none;stroke-dashoffset:0;stroke-opacity:1"
       inkscape:connector-curvature="0"
       d="m 160.54069,871.79988 0,-0.012 0.012,0 0,-0.012 0,-0.012 0,-0.012 0.012,-0.012 0,-0.012 0,-0.012 0,0 0.012,-0.012 0,-0.012 0,-0.012 0,-0.012 0,-0.024 0,0 0,-0.012 0,0 0,-0.012 c 0,-0.108 -0.06,-0.108 -0.3,-0.108 l -5.04,0 c -0.288,0 -0.3,0.012 -0.372,0.24 l -0.66,2.16 c -0.024,0.048 -0.036,0.132 -0.036,0.168 0,0.012 0,0.132 0.144,0.132 0.108,0 0.132,-0.096 0.156,-0.12 0.456,-1.416 1.08,-2.208 2.94,-2.208 l 1.956,0 -6.684,7.476 c 0,0.012 -0.048,0.18 -0.048,0.216 0,0.108 0.084,0.108 0.3,0.108 l 5.196,0 c 0.288,0 0.3,-0.012 0.372,-0.24 l 0.852,-2.64 c 0.012,-0.048 0.048,-0.132 0.048,-0.18 0,-0.06 -0.048,-0.132 -0.156,-0.132 -0.108,0 -0.12,0.048 -0.204,0.3 -0.528,1.62 -1.104,2.484 -3.132,2.484 l -2.052,0 z"
       id="path5504" />
    <rect
       style="fill:none;fill-opacity:1;stroke:#000000;stroke-width:0.99999994;stroke-linecap:round;stroke-linejoin:round;stroke-miterlimit:4;stroke-dasharray:none;stroke-dashoffset:0;stroke-opacity:1"
       id="rect5769"
       width="24.999983"
       height="25.000004"
       x="-857.36218"
       y="175"
       ry="0"
       transform="matrix(0,-1,1,0,0,0)" />
    <rect
       transform="matrix(0,-1,1,0,0,0)"
       ry="0"
       y="175"
       x="-882.36218"
       height="25.000004"
       width="24.999983"
       id="rect5771"
       style="fill:none;fill-opacity:1;stroke:#000000;stroke-width:0.99999994;stroke-linecap:round;stroke-linejoin:round;stroke-miterlimit:4;stroke-dasharray:none;stroke-dashoffset:0;stroke-opacity:1" />
    <rect
       style="fill:none;fill-opacity:1;stroke:#000000;stroke-width:0.99999994;stroke-linecap:round;stroke-linejoin:round;stroke-miterlimit:4;stroke-dasharray:none;stroke-dashoffset:0;stroke-opacity:1"
       id="rect5773"
       width="24.999983"
       height="25.000004"
       x="-907.36224"
       y="175"
       ry="0"
       transform="matrix(0,-1,1,0,0,0)" />
    <rect
       style="fill:none;fill-opacity:1;stroke:#000000;stroke-width:0.99999994;stroke-linecap:round;stroke-linejoin:round;stroke-miterlimit:4;stroke-dasharray:none;stroke-dashoffset:0;stroke-opacity:1"
       id="rect5775"
       width="24.999983"
       height="25.000004"
       x="-932.36224"
       y="100.00001"
       ry="0"
       transform="matrix(0,-1,1,0,0,0)" />
    <rect
       transform="matrix(0,-1,1,0,0,0)"
       ry="0"
       y="125.00002"
       x="-932.36224"
       height="25.000004"
       width="24.999983"
       id="rect5777"
       style="fill:none;fill-opacity:1;stroke:#000000;stroke-width:0.99999994;stroke-linecap:round;stroke-linejoin:round;stroke-miterlimit:4;stroke-dasharray:none;stroke-dashoffset:0;stroke-opacity:1" />
    <rect
       style="fill:none;fill-opacity:1;stroke:#000000;stroke-width:0.99999994;stroke-linecap:round;stroke-linejoin:round;stroke-miterlimit:4;stroke-dasharray:none;stroke-dashoffset:0;stroke-opacity:1"
       id="rect5779"
       width="24.999983"
       height="25.000004"
       x="-932.36224"
       y="149.99998"
       ry="0"
       transform="matrix(0,-1,1,0,0,0)" />
    <rect
       transform="matrix(0,-1,1,0,0,0)"
       ry="0"
       y="175"
       x="-932.36224"
       height="25.000004"
       width="24.999983"
       id="rect5781"
       style="fill:none;fill-opacity:1;stroke:#000000;stroke-width:0.99999994;stroke-linecap:round;stroke-linejoin:round;stroke-miterlimit:4;stroke-dasharray:none;stroke-dashoffset:0;stroke-opacity:1" />
  </g>
</svg>
