<?xml version="1.0" encoding="UTF-8" standalone="no"?>
<!-- Created with Inkscape (http://www.inkscape.org/) -->

<svg
   xmlns:ns0="http://www.iki.fi/pav/software/textext/"
   xmlns:dc="http://purl.org/dc/elements/1.1/"
   xmlns:cc="http://creativecommons.org/ns#"
   xmlns:rdf="http://www.w3.org/1999/02/22-rdf-syntax-ns#"
   xmlns:svg="http://www.w3.org/2000/svg"
   xmlns="http://www.w3.org/2000/svg"
   xmlns:sodipodi="http://sodipodi.sourceforge.net/DTD/sodipodi-0.dtd"
   xmlns:inkscape="http://www.inkscape.org/namespaces/inkscape"
   width="10cm"
   height="10cm"
   viewBox="0 0 354.33071 354.3307"
   id="svg2"
   version="1.1"
   inkscape:version="0.91 r13725"
   sodipodi:docname="fig6.svg">
  <sodipodi:namedview
     id="base"
     pagecolor="#ffffff"
     bordercolor="#666666"
     borderopacity="1.0"
     inkscape:pageopacity="0.0"
     inkscape:pageshadow="2"
     inkscape:zoom="5.020086"
     inkscape:cx="152.19472"
     inkscape:cy="221.28071"
     inkscape:document-units="cm"
     inkscape:current-layer="content"
     showgrid="false"
     units="cm"
     inkscape:window-width="1600"
     inkscape:window-height="876"
     inkscape:window-x="0"
     inkscape:window-y="24"
     inkscape:window-maximized="1"
     inkscape:object-paths="true">
    <inkscape:grid
       id="grid4136"
       type="xygrid" />
  </sodipodi:namedview>
  <defs
     id="defs4" />
  <metadata
     id="metadata7">
    <rdf:RDF>
      <cc:Work
         rdf:about="">
        <dc:format>image/svg+xml</dc:format>
        <dc:type
           rdf:resource="http://purl.org/dc/dcmitype/StillImage" />
        <dc:title></dc:title>
      </cc:Work>
    </rdf:RDF>
  </metadata>
  <g
     transform="translate(0,-698.03152)"
     id="layer1"
     inkscape:groupmode="layer"
     inkscape:label="Layer 1">
    <circle
       r="69.669922"
       cy="822.36224"
       cx="130"
       id="path4438"
       style="fill:none;fill-opacity:1;stroke:#000000;stroke-width:0.9999997;stroke-linecap:round;stroke-linejoin:round;stroke-miterlimit:4;stroke-dasharray:none;stroke-dashoffset:0;stroke-opacity:1" />
    <path
       d="M 85.606815,854.28774 A 54.68082,54.68082 0 0 1 87.017893,788.5609 54.68082,54.68082 0 0 1 150.55924,771.69362"
       sodipodi:open="true"
       sodipodi:end="5.0978499"
       sodipodi:start="2.5181276"
       sodipodi:ry="54.68082"
       sodipodi:rx="54.68082"
       sodipodi:cy="822.36224"
       sodipodi:cx="130"
       sodipodi:type="arc"
       style="fill:none;fill-opacity:1;stroke:#000000;stroke-width:0.99999976;stroke-linecap:round;stroke-linejoin:round;stroke-miterlimit:4;stroke-dasharray:7.99999809,7.99999809;stroke-dashoffset:0;stroke-opacity:1"
       id="circle4468" />
    <g
       ns0:preamble="/home/sriranga/Desktop/typsetting-project/general-books/ganitavicharadhare/src/figures/kanlel-package.tex"
       ns0:text="a A i I u U"
       word-spacing="normal"
       letter-spacing="normal"
       font-size-adjust="none"
       font-stretch="normal"
       font-weight="normal"
       font-variant="normal"
       font-style="normal"
       stroke-miterlimit="10.433"
       xml:space="preserve"
       transform="matrix(1.9543414,0,0,-1.9543414,-329.76085,2202.0314)"
       id="content"
       style="font-style:normal;font-variant:normal;font-weight:normal;font-stretch:normal;letter-spacing:normal;word-spacing:normal;text-anchor:start;fill:none;fill-opacity:1;fill-rule:evenodd;stroke:#000000;stroke-linecap:butt;stroke-linejoin:miter;stroke-miterlimit:10.43299961;stroke-dasharray:none;stroke-dashoffset:0;stroke-opacity:1"><path
         id="path4173"
         d="m 252.73767,730.88328 0,-0.01 -1.53,0 0,-0.62 1.48,0 0.43,0 0.2,0.01 0.19,0.19 0.39,0.41 -0.01,0.01 -0.43,0 c -0.07,0 -0.15,-0.01 -0.21,0.01 -0.09,0.04 -0.17,0.13 -0.23,0.18 -0.2,0.2 -0.4,0.52 -0.23,0.79 0.03,0.04 0.06,0.08 0.1,0.12 0.11,0.09 0.3,0.13 0.44,0.09 0.09,-0.03 0.18,-0.11 0.25,-0.18 0.09,-0.1 0.13,-0.23 0.18,-0.36 0.08,-0.22 0.13,-0.43 0.13,-0.65 l 0,0 0.01,-0.01 c 0,-0.12 0.01,-0.25 0,-0.37 -0.02,-0.24 -0.1,-0.48 -0.22,-0.69 -0.47,-0.76 -1.42,-1.03 -2.26,-0.98 -0.25,0.01 -0.49,0.05 -0.73,0.13 -0.53,0.18 -1.06,0.57 -1.24,1.11 -0.06,0.2 -0.06,0.4 -0.05,0.61 0.01,0.2 0.05,0.42 0.12,0.61 l 0.25,0.12 c -0.03,0.14 0.01,0.33 0.12,0.43 0.07,0.06 0.15,0.09 0.23,0.1 0.08,0.01 0.17,0.02 0.25,0 0.17,-0.05 0.28,-0.21 0.3,-0.38 0.02,-0.14 0,-0.29 -0.11,-0.38 -0.24,-0.21 -0.74,-0.11 -0.79,0.23 l 0,0 -0.25,-0.12 c 0.05,-0.22 0.08,-0.44 0.23,-0.61 0.28,-0.3 0.76,-0.12 0.95,0.18 0.19,0.28 0.2,0.66 0.14,0.99 -0.03,0.16 -0.08,0.33 -0.21,0.43 -0.14,0.12 -0.32,0.14 -0.49,0.14 -0.11,0 -0.22,-0.03 -0.32,-0.08 -0.16,-0.09 -0.28,-0.24 -0.37,-0.4 -0.13,-0.26 -0.19,-0.55 -0.22,-0.84 -0.02,-0.17 -0.02,-0.34 -0.02,-0.52 0,-0.53 0.08,-1.05 0.37,-1.5 0.1,-0.16 0.23,-0.29 0.37,-0.42 0.12,-0.11 0.26,-0.2 0.41,-0.28 0.32,-0.16 0.68,-0.24 1.04,-0.25 0.28,-0.03 0.57,-0.01 0.86,0.04 0.52,0.12 1,0.42 1.32,0.84 0.36,0.48 0.48,1.06 0.5,1.65 0.02,0.56 -0.05,1.18 -0.48,1.6 -0.09,0.09 -0.21,0.14 -0.33,0.17 -0.27,0.06 -0.6,0 -0.78,-0.22 -0.14,-0.16 -0.22,-0.42 -0.22,-0.63 0.01,-0.09 0.03,-0.18 0.06,-0.26 0.03,-0.1 0.07,-0.2 0.15,-0.29 0.07,-0.06 0.17,-0.11 0.26,-0.14 z"
         inkscape:connector-curvature="0"
         style="fill:#000000;stroke-width:0" /><path
         id="path4175"
         d="m 262.07633,720.09817 0.14,0.12 c -0.07,0.11 -0.15,0.21 -0.15,0.34 l 0,0 c -0.01,0.13 0.09,0.24 0.19,0.32 0.21,0.15 0.5,0.16 0.72,0.02 0.1,-0.06 0.19,-0.15 0.2,-0.28 0.01,-0.14 0,-0.29 -0.1,-0.4 -0.13,-0.13 -0.38,-0.12 -0.56,-0.12 -0.06,0 -0.14,-0.01 -0.2,0.01 -0.04,0.02 -0.07,0.07 -0.1,0.11 l -0.14,-0.12 -1.67,0 0,-0.62 1.2,0 c 0.21,0 0.43,-0.02 0.64,0.01 0.07,0 0.15,0.01 0.22,0.01 0.04,0 0.08,0.01 0.12,-0.01 0.03,-0.01 0.06,-0.05 0.08,-0.08 0.05,-0.07 0.09,-0.16 0.12,-0.24 0.04,-0.1 0.08,-0.22 0.08,-0.33 0,-0.09 -0.04,-0.18 -0.07,-0.27 -0.11,-0.23 -0.28,-0.42 -0.5,-0.54 -0.31,-0.16 -0.65,-0.21 -0.99,-0.24 -0.79,-0.06 -1.6,0.04 -2.21,0.58 -0.21,0.19 -0.39,0.42 -0.47,0.7 -0.05,0.19 -0.05,0.38 -0.04,0.58 0.01,0.2 0.05,0.42 0.12,0.59 0.04,-0.17 0.07,-0.35 0.16,-0.51 0.04,-0.07 0.09,-0.12 0.15,-0.17 0.25,-0.18 0.63,-0.05 0.81,0.17 0.23,0.27 0.25,0.61 0.22,0.94 l -0.19,-0.16 c 0.02,-0.13 0,-0.27 -0.09,-0.37 -0.24,-0.23 -0.76,-0.13 -0.81,0.22 l 0,0 c -0.03,0.14 0.01,0.33 0.12,0.43 0.07,0.06 0.15,0.09 0.23,0.1 0.08,0.01 0.16,0.02 0.24,0 0.17,-0.05 0.29,-0.21 0.31,-0.38 l 0.19,0.16 c -0.02,0.17 -0.05,0.35 -0.16,0.49 -0.22,0.28 -0.71,0.27 -0.98,0.06 -0.18,-0.14 -0.3,-0.36 -0.37,-0.57 -0.11,-0.32 -0.13,-0.67 -0.13,-1.01 0,-0.21 0,-0.42 0.03,-0.63 0.05,-0.47 0.23,-0.95 0.59,-1.3 0.22,-0.21 0.53,-0.35 0.82,-0.43 0.41,-0.11 0.85,-0.15 1.28,-0.11 0.34,0.01 0.67,0.06 0.99,0.18 0.21,0.08 0.41,0.2 0.57,0.36 0.27,0.27 0.43,0.66 0.4,1.03 -0.02,0.21 -0.07,0.41 -0.16,0.6 -0.04,0.08 -0.09,0.15 -0.13,0.23 0.77,0.27 0.77,1.58 0.01,1.86 -0.37,0.14 -0.85,-0.1 -0.93,-0.5 -0.02,-0.08 -0.02,-0.14 0,-0.22 0,-0.12 0.02,-0.24 0.06,-0.35 0.03,-0.1 0.08,-0.18 0.14,-0.26 z"
         inkscape:connector-curvature="0"
         style="fill:#000000;stroke-width:0" /><path
         id="path4177"
         d="m 263.17596,703.54378 0.01,0 c 0.04,0.19 0.12,0.37 0.24,0.51 0.32,0.39 0.91,0.5 1.37,0.33 0.21,-0.08 0.41,-0.21 0.5,-0.42 0.06,-0.12 0.06,-0.24 0.06,-0.38 0,-0.12 -0.03,-0.24 -0.08,-0.35 -0.05,-0.14 -0.14,-0.25 -0.24,-0.36 -0.22,0.36 -0.67,0.42 -1.06,0.38 l 0.1,-0.18 c 0.3,0.09 0.64,-0.02 0.78,-0.32 l 0,0 c -0.25,-0.12 -0.54,-0.2 -0.82,-0.14 -0.11,0.03 -0.28,0.12 -0.24,0.26 0.03,0.11 0.18,0.17 0.28,0.2 l -0.1,0.18 c -0.17,-0.03 -0.36,-0.08 -0.47,-0.22 -0.12,-0.17 -0.12,-0.45 -0.01,-0.62 0.05,-0.08 0.13,-0.14 0.21,-0.19 0.18,-0.1 0.42,-0.1 0.62,-0.08 0.19,0.02 0.37,0.06 0.54,0.15 -0.02,-0.12 -0.06,-0.23 -0.11,-0.34 -0.04,-0.07 -0.09,-0.14 -0.12,-0.22 -0.06,-0.15 -0.06,-0.31 0,-0.45 0.04,-0.08 0.1,-0.19 0.18,-0.24 0.06,-0.03 0.16,-0.03 0.23,-0.03 0.2,-0.02 0.39,0.02 0.54,0.15 0.11,0.12 0.12,0.25 0.14,0.4 -0.05,-0.02 -0.1,-0.04 -0.14,-0.07 -0.04,-0.04 -0.03,-0.13 -0.06,-0.18 -0.08,-0.12 -0.33,-0.2 -0.38,-0.02 -0.03,0.08 0.02,0.16 0.04,0.24 0.05,0.13 0.09,0.26 0.11,0.4 0.01,0.14 0.01,0.29 -0.02,0.43 0,0.06 -0.05,0.15 -0.04,0.21 0.01,0.06 0.06,0.12 0.09,0.17 0.06,0.09 0.11,0.2 0.15,0.3 0.1,0.27 0.11,0.55 0.1,0.83 0,0.22 -0.02,0.45 -0.11,0.66 -0.05,0.11 -0.11,0.21 -0.19,0.3 -0.24,0.25 -0.61,0.33 -0.95,0.33 -0.2,0 -0.39,-0.02 -0.57,-0.11 -0.31,-0.16 -0.55,-0.5 -0.59,-0.85 -0.04,0.09 -0.06,0.18 -0.1,0.27 -0.11,0.23 -0.26,0.42 -0.48,0.55 -0.13,0.07 -0.28,0.11 -0.43,0.13 -0.41,0.06 -0.81,-0.07 -1.09,-0.39 -0.24,-0.29 -0.3,-0.69 -0.27,-1.05 0.02,-0.24 0.09,-0.47 0.24,-0.66 0.14,-0.18 0.32,-0.31 0.54,-0.35 0.05,-0.01 0.09,-0.01 0.14,0 0.08,0.03 0.14,0.15 0.11,0.24 -0.03,0.08 -0.11,0.08 -0.17,0.09 -0.07,0.01 -0.14,0.03 -0.21,0.06 -0.31,0.15 -0.51,0.49 -0.39,0.83 0.06,0.18 0.21,0.31 0.38,0.4 0.39,0.21 0.87,0.16 1.23,-0.08 0.25,-0.17 0.39,-0.42 0.51,-0.7 z"
         inkscape:connector-curvature="0"
         style="fill:#000000;stroke-width:0" /><path
         id="path4179"
         d="m 257.41322,691.64115 0,-0.01 c 0.27,-0.18 0.5,-0.5 0.41,-0.84 -0.01,-0.05 -0.04,-0.1 -0.06,-0.15 -0.05,-0.08 -0.11,-0.15 -0.17,-0.19 -0.07,-0.07 -0.16,-0.12 -0.25,-0.15 -0.13,-0.04 -0.26,-0.03 -0.39,-0.03 l -0.59,0 -1.98,0 0,-0.63 1.11,0 0,-0.01 0.12,-0.16 c 0.64,0.32 1.51,0.18 2,-0.37 0.14,-0.16 0.25,-0.37 0.31,-0.59 l -3.11,0 c 0.06,0.16 0.11,0.31 0.21,0.44 0.14,0.23 0.35,0.4 0.59,0.52 l -0.12,0.16 c -0.09,-0.04 -0.18,-0.1 -0.26,-0.16 -0.2,-0.15 -0.38,-0.33 -0.52,-0.53 -0.06,-0.09 -0.11,-0.18 -0.16,-0.28 -0.02,-0.04 -0.03,-0.11 -0.08,-0.13 -0.02,-0.02 -0.06,-0.02 -0.09,-0.02 l -0.16,0 -0.63,0 0,-0.62 0.79,0 0.43,0 3.07,0 c -0.22,-0.61 -0.8,-1.08 -1.46,-1.12 -0.24,-0.01 -0.48,0.04 -0.69,0.12 -0.16,0.06 -0.31,0.14 -0.44,0.25 -0.24,0.2 -0.38,0.46 -0.48,0.75 l 0,0 -0.43,0 c 0,-0.2 0.04,-0.4 0.1,-0.58 0.1,-0.27 0.27,-0.51 0.48,-0.7 0.26,-0.23 0.54,-0.41 0.87,-0.5 0.89,-0.22 1.97,0.16 2.34,1.04 0.11,0.24 0.15,0.48 0.15,0.74 l 0.9,0 c 0.22,0 0.44,-0.01 0.65,0.07 0.05,-0.12 0.1,-0.24 0.16,-0.36 0.1,-0.23 0.21,-0.5 0.07,-0.75 -0.05,-0.1 -0.14,-0.18 -0.22,-0.25 -0.09,-0.08 -0.19,-0.16 -0.28,-0.22 l 0,-0.02 c 0.09,-0.07 0.18,-0.15 0.28,-0.22 0.04,-0.03 0.09,-0.08 0.15,-0.08 0.09,-0.01 0.2,0.04 0.28,0.07 0.11,0.05 0.21,0.12 0.29,0.2 0.18,0.19 0.23,0.46 0.2,0.71 -0.04,0.28 -0.21,0.52 -0.39,0.72 -0.08,0.09 -0.17,0.17 -0.25,0.27 0.21,0.08 0.36,0.3 0.44,0.5 0.2,0.48 0.15,1.16 -0.34,1.45 -0.06,0.04 -0.12,0.06 -0.18,0.08 -0.08,0.03 -0.16,0.03 -0.25,0.03 -0.2,0 -0.41,-0.03 -0.53,-0.2 -0.11,-0.14 -0.13,-0.35 -0.13,-0.52 0,-0.09 0,-0.17 0.03,-0.25 0.05,-0.21 0.18,-0.41 0.29,-0.61 l 0.18,0.02 c -0.04,0.03 -0.07,0.11 -0.1,0.16 -0.1,0.16 -0.15,0.35 -0.13,0.53 0.03,0.14 0.11,0.29 0.25,0.36 0.08,0.05 0.17,0.06 0.27,0.06 0.25,0 0.51,-0.1 0.56,-0.37 0.02,-0.06 0.02,-0.12 0.01,-0.17 l 0,0 c -0.02,-0.2 -0.14,-0.38 -0.32,-0.48 -0.08,-0.04 -0.18,-0.07 -0.27,-0.09 -0.05,-0.01 -0.11,-0.01 -0.16,-0.01 -0.04,-0.01 -0.06,-0.01 -0.11,0.01 l -0.18,-0.02 -0.86,0 -0.24,0 c -0.04,0 -0.08,-0.01 -0.12,0.01 -0.05,0.03 -0.07,0.11 -0.09,0.16 -0.07,0.12 -0.14,0.23 -0.23,0.33 -0.15,0.19 -0.33,0.35 -0.54,0.49 -0.08,0.05 -0.17,0.09 -0.26,0.14 0.11,0.02 0.22,0.04 0.32,0.09 0.29,0.13 0.54,0.39 0.63,0.7 0.11,0.33 0.05,0.7 -0.18,0.98 -0.07,0.09 -0.16,0.18 -0.27,0.22 -0.07,0.02 -0.16,0.01 -0.24,0.01 z"
         inkscape:connector-curvature="0"
         style="fill:#000000;stroke-width:0" /><path
         id="path4181"
         d="m 234.78288,679.54618 0.21,-0.07 c -0.02,0.11 -0.01,0.27 0.06,0.36 0.07,0.08 0.18,0.13 0.28,0.15 0.1,0.03 0.22,0.04 0.32,0.02 0.2,-0.04 0.41,-0.22 0.44,-0.43 0.02,-0.2 -0.12,-0.36 -0.28,-0.44 -0.09,-0.06 -0.22,-0.11 -0.34,-0.1 -0.23,0.02 -0.45,0.22 -0.48,0.44 l 0,0 -0.21,0.07 c 0.03,-0.08 0.03,-0.17 0.05,-0.25 0.03,-0.13 0.08,-0.28 0.15,-0.41 0.06,-0.11 0.15,-0.2 0.25,-0.27 0.26,-0.17 0.67,-0.18 0.89,0.06 0.14,0.16 0.16,0.38 0.16,0.58 0,0.38 -0.05,0.78 -0.35,1.07 -0.3,0.29 -0.84,0.34 -1.16,0.05 -0.11,-0.11 -0.19,-0.26 -0.25,-0.41 -0.15,-0.35 -0.2,-0.69 -0.18,-1.07 0.02,-0.32 0,-0.66 0.1,-0.97 0.07,-0.2 0.17,-0.37 0.28,-0.54 0.4,-0.62 1.02,-1.12 1.78,-1.12 0.15,0 0.31,0.01 0.45,0.06 0.08,0.02 0.15,0.06 0.22,0.11 0.47,0.31 0.54,0.94 0.47,1.45 -0.01,0.1 -0.03,0.2 -0.06,0.3 -0.02,0.1 -0.07,0.2 -0.11,0.3 -0.02,0.08 -0.04,0.17 -0.06,0.26 -0.02,0.07 -0.04,0.15 -0.05,0.22 0,0.26 0.13,0.5 0.32,0.69 0.09,0.09 0.18,0.16 0.3,0.21 0.14,0.05 0.3,0.06 0.45,0.04 0.44,-0.07 0.75,-0.41 0.85,-0.83 0.04,-0.26 0.03,-0.53 0.03,-0.79 0,-0.19 0,-0.37 0.03,-0.56 0.01,-0.24 0.03,-0.49 0.1,-0.73 0.06,-0.2 0.17,-0.39 0.33,-0.52 0.35,-0.29 0.92,-0.27 1.3,-0.06 0.32,0.18 0.54,0.51 0.68,0.84 0.36,0.78 0.3,1.69 -0.12,2.43 -0.19,0.34 -0.43,0.65 -0.76,0.86 -0.12,0.08 -0.27,0.18 -0.42,0.14 -0.04,-0.02 -0.07,-0.04 -0.1,-0.06 -0.19,-0.19 -0.05,-0.47 0.13,-0.6 0.17,-0.13 0.36,-0.23 0.52,-0.36 0.08,-0.06 0.15,-0.13 0.22,-0.2 0.41,-0.4 0.75,-1.05 0.48,-1.63 -0.07,-0.13 -0.16,-0.24 -0.26,-0.35 -0.14,-0.15 -0.31,-0.27 -0.49,-0.38 -0.1,-0.05 -0.2,-0.09 -0.31,-0.12 -0.08,-0.01 -0.16,-0.02 -0.24,-0.02 -0.1,0.01 -0.19,0.03 -0.28,0.07 -0.29,0.13 -0.45,0.45 -0.52,0.74 -0.05,0.19 -0.08,0.39 -0.1,0.59 -0.01,0.13 -0.01,0.25 -0.01,0.38 0,0.08 -0.01,0.17 -0.01,0.25 0,0.5 -0.03,1.16 -0.49,1.48 -0.06,0.04 -0.12,0.08 -0.19,0.1 -0.12,0.05 -0.25,0.08 -0.38,0.09 -0.31,0.02 -0.65,-0.02 -0.89,-0.24 -0.05,-0.05 -0.1,-0.11 -0.14,-0.17 -0.05,-0.08 -0.09,-0.16 -0.12,-0.25 -0.06,-0.17 -0.08,-0.35 -0.09,-0.53 -0.02,-0.31 0.01,-0.6 0.07,-0.9 0.02,-0.12 0.05,-0.25 0.07,-0.37 0.02,-0.07 0.04,-0.15 0.05,-0.22 0.02,-0.28 -0.11,-0.58 -0.32,-0.77 -0.52,-0.47 -1.33,-0.23 -1.79,0.18 -0.23,0.21 -0.42,0.44 -0.55,0.72 -0.13,0.3 -0.16,0.67 -0.1,0.99 0.03,0.16 0.1,0.29 0.17,0.44 z"
         inkscape:connector-curvature="0"
         style="fill:#000000;stroke-width:0" /><path
         id="path4183"
         d="m 214.81135,685.42793 0.21,-0.07 c -0.02,0.12 0,0.29 0.08,0.38 0.08,0.09 0.2,0.13 0.32,0.14 0.09,0.02 0.21,0.02 0.3,0 0.19,-0.05 0.36,-0.21 0.39,-0.4 0.04,-0.31 -0.31,-0.56 -0.6,-0.56 -0.25,0.01 -0.46,0.2 -0.49,0.44 l 0,0 -0.21,0.07 c 0,-0.38 0.13,-0.81 0.51,-0.98 0.08,-0.03 0.16,-0.05 0.25,-0.06 0.14,-0.02 0.28,-0.01 0.4,0.08 0.21,0.16 0.29,0.42 0.31,0.66 0.03,0.36 -0.02,0.72 -0.26,1 -0.08,0.1 -0.19,0.19 -0.31,0.25 -0.29,0.13 -0.66,0.1 -0.9,-0.11 -0.13,-0.12 -0.22,-0.29 -0.29,-0.45 -0.13,-0.34 -0.17,-0.68 -0.15,-1.03 0.01,-0.29 0.01,-0.59 0.1,-0.87 0.09,-0.29 0.23,-0.54 0.41,-0.79 0.09,-0.13 0.18,-0.25 0.29,-0.36 0.37,-0.37 0.84,-0.6 1.37,-0.6 0.14,0 0.28,0.02 0.41,0.05 0.09,0.02 0.17,0.06 0.25,0.11 0.41,0.25 0.47,0.74 0.47,1.18 0,0.19 -0.02,0.39 -0.06,0.59 -0.03,0.13 -0.09,0.25 -0.13,0.38 -0.03,0.11 -0.05,0.24 -0.05,0.36 0.01,0.16 0.02,0.34 0.09,0.48 0.12,0.22 0.35,0.42 0.59,0.47 0.13,0.02 0.27,0.01 0.4,-0.01 0.31,-0.08 0.61,-0.31 0.7,-0.63 0.05,-0.18 0.03,-0.38 0.04,-0.58 0.01,-0.19 0.04,-0.37 0.06,-0.56 0.03,-0.23 0.07,-0.46 0.11,-0.69 0.02,-0.12 0.02,-0.25 0.06,-0.36 0.13,-0.35 0.45,-0.7 0.82,-0.77 0.14,-0.04 0.29,-0.02 0.44,-0.01 0.18,0.01 0.35,0.06 0.53,0.13 0.13,0.06 0.25,0.14 0.36,0.24 0.29,0.27 0.44,0.64 0.45,1.03 0,0.14 -0.04,0.29 -0.06,0.44 -0.03,0.28 -0.04,0.56 -0.02,0.84 0.02,0.22 0.08,0.44 0.21,0.62 0.27,0.35 0.79,0.36 1.18,0.23 0.51,-0.19 0.97,-0.65 1.12,-1.17 0.08,-0.26 0.08,-0.53 0.05,-0.8 -0.04,-0.36 -0.18,-0.75 -0.53,-0.93 -0.07,-0.04 -0.14,-0.07 -0.22,-0.09 -0.32,-0.07 -0.69,-0.02 -0.93,0.22 -0.07,0.07 -0.12,0.15 -0.14,0.24 -0.06,0.24 0.09,0.51 0.32,0.6 -0.04,-0.07 -0.06,-0.13 -0.06,-0.2 0,-0.08 0.01,-0.17 0.05,-0.24 0.15,-0.27 0.58,-0.29 0.73,-0.01 0.04,0.06 0.05,0.14 0.05,0.21 0,0.07 -0.01,0.15 -0.04,0.21 -0.04,0.09 -0.11,0.16 -0.2,0.21 -0.09,0.05 -0.19,0.06 -0.29,0.06 -0.31,0 -0.59,-0.18 -0.71,-0.46 -0.04,-0.11 -0.05,-0.22 -0.05,-0.34 0,-0.27 0.07,-0.54 0.24,-0.75 0.23,-0.27 0.57,-0.34 0.91,-0.29 0.25,0.01 0.51,0.08 0.69,0.26 0.07,0.07 0.12,0.15 0.16,0.24 0.17,0.34 0.2,0.74 0.22,1.1 0.03,0.67 -0.02,1.34 -0.36,1.93 -0.21,0.36 -0.53,0.65 -0.93,0.77 -0.17,0.05 -0.34,0.07 -0.52,0.07 -0.18,0 -0.36,-0.02 -0.53,-0.09 -0.13,-0.05 -0.25,-0.13 -0.35,-0.23 -0.31,-0.31 -0.43,-0.78 -0.41,-1.2 0,-0.09 0.03,-0.19 0.04,-0.28 0.04,-0.25 0.07,-0.5 0.06,-0.76 -0.01,-0.13 -0.02,-0.28 -0.08,-0.39 -0.04,-0.1 -0.11,-0.19 -0.18,-0.27 -0.07,-0.09 -0.17,-0.18 -0.26,-0.25 -0.13,-0.08 -0.26,-0.15 -0.4,-0.18 -0.13,-0.04 -0.27,-0.06 -0.41,-0.05 -0.07,0.01 -0.14,0.02 -0.2,0.04 -0.38,0.13 -0.57,0.54 -0.65,0.9 -0.04,0.18 -0.07,0.36 -0.08,0.55 0,0.1 0,0.2 0,0.3 0,0.09 -0.01,0.17 -0.01,0.26 0,0.53 -0.05,1.23 -0.59,1.52 -0.09,0.05 -0.19,0.08 -0.29,0.1 -0.36,0.06 -0.8,0.05 -1.08,-0.22 -0.08,-0.1 -0.16,-0.22 -0.21,-0.34 -0.09,-0.2 -0.12,-0.42 -0.13,-0.63 -0.02,-0.29 0.02,-0.58 0.07,-0.87 0.03,-0.13 0.06,-0.26 0.09,-0.39 0.01,-0.07 0.03,-0.14 0.04,-0.21 0.02,-0.3 -0.16,-0.64 -0.41,-0.82 -0.38,-0.28 -0.91,-0.23 -1.31,-0.02 -0.2,0.1 -0.36,0.23 -0.52,0.39 -0.2,0.2 -0.38,0.43 -0.47,0.71 -0.05,0.16 -0.06,0.31 -0.07,0.47 -0.02,0.29 0.02,0.6 0.2,0.84 z"
         inkscape:connector-curvature="0"
         style="fill:#000000;stroke-width:0" /></g>  </g>
</svg>
