<?xml version="1.0" encoding="UTF-8" standalone="no"?>
<!-- Created with Inkscape (http://www.inkscape.org/) -->

<svg
   xmlns:ns0="http://www.iki.fi/pav/software/textext/"
   xmlns:dc="http://purl.org/dc/elements/1.1/"
   xmlns:cc="http://creativecommons.org/ns#"
   xmlns:rdf="http://www.w3.org/1999/02/22-rdf-syntax-ns#"
   xmlns:svg="http://www.w3.org/2000/svg"
   xmlns="http://www.w3.org/2000/svg"
   xmlns:sodipodi="http://sodipodi.sourceforge.net/DTD/sodipodi-0.dtd"
   xmlns:inkscape="http://www.inkscape.org/namespaces/inkscape"
   width="10cm"
   height="10cm"
   viewBox="0 0 354.33071 354.3307"
   id="svg2"
   version="1.1"
   inkscape:version="0.91 r13725"
   sodipodi:docname="fig9.svg">
  <sodipodi:namedview
     id="base"
     pagecolor="#ffffff"
     bordercolor="#666666"
     borderopacity="1.0"
     inkscape:pageopacity="0.0"
     inkscape:pageshadow="2"
     inkscape:zoom="0.85654443"
     inkscape:cx="72.462366"
     inkscape:cy="190.30596"
     inkscape:document-units="cm"
     inkscape:current-layer="layer1"
     showgrid="false"
     units="cm"
     inkscape:window-width="1600"
     inkscape:window-height="876"
     inkscape:window-x="0"
     inkscape:window-y="24"
     inkscape:window-maximized="1"
     inkscape:object-paths="true">
    <inkscape:grid
       id="grid4136"
       type="xygrid" />
  </sodipodi:namedview>
  <defs
     id="defs4" />
  <metadata
     id="metadata7">
    <rdf:RDF>
      <cc:Work
         rdf:about="">
        <dc:format>image/svg+xml</dc:format>
        <dc:type
           rdf:resource="http://purl.org/dc/dcmitype/StillImage" />
        <dc:title />
      </cc:Work>
    </rdf:RDF>
  </metadata>
  <g
     transform="translate(0,-698.03152)"
     id="layer1"
     inkscape:groupmode="layer"
     inkscape:label="Layer 1">
    <circle
       r="6.0421672"
       cy="822.36224"
       cx="130"
       id="path4438"
       style="fill:none;fill-opacity:1;stroke:#000000;stroke-width:3;stroke-linecap:round;stroke-linejoin:round;stroke-miterlimit:4;stroke-dasharray:none;stroke-dashoffset:0;stroke-opacity:1" />
    <text
       sodipodi:linespacing="125%"
       id="text4508"
       y="812.62347"
       x="53.370022"
       style="font-style:normal;font-variant:normal;font-weight:normal;font-stretch:normal;font-size:15px;line-height:125%;font-family:LMRoman12;-inkscape-font-specification:'LMRoman12, Normal';text-align:start;letter-spacing:0px;word-spacing:0px;writing-mode:lr-tb;text-anchor:start;fill:#000000;fill-opacity:1;stroke:none;stroke-width:1px;stroke-linecap:butt;stroke-linejoin:miter;stroke-opacity:1"
       xml:space="preserve"><tspan
         y="812.62347"
         x="53.370022"
         id="tspan4510"
         sodipodi:role="line">1</tspan></text>
    <text
       sodipodi:linespacing="125%"
       id="text4512"
       y="793.59357"
       x="58.675903"
       style="font-style:normal;font-variant:normal;font-weight:normal;font-stretch:normal;font-size:15px;line-height:125%;font-family:LMRoman12;-inkscape-font-specification:'LMRoman12, Normal';text-align:start;letter-spacing:0px;word-spacing:0px;writing-mode:lr-tb;text-anchor:start;fill:#000000;fill-opacity:1;stroke:none;stroke-width:1px;stroke-linecap:butt;stroke-linejoin:miter;stroke-opacity:1"
       xml:space="preserve"><tspan
         y="793.59357"
         x="58.675903"
         id="tspan4514"
         sodipodi:role="line">2</tspan></text>
    <text
       sodipodi:linespacing="125%"
       id="text4516"
       y="763.70807"
       x="86.577225"
       style="font-style:normal;font-variant:normal;font-weight:normal;font-stretch:normal;font-size:15px;line-height:125%;font-family:LMRoman12;-inkscape-font-specification:'LMRoman12, Normal';text-align:start;letter-spacing:0px;word-spacing:0px;writing-mode:lr-tb;text-anchor:start;fill:#000000;fill-opacity:1;stroke:none;stroke-width:1px;stroke-linecap:butt;stroke-linejoin:miter;stroke-opacity:1"
       xml:space="preserve"><tspan
         y="763.70807"
         x="86.577225"
         id="tspan4518"
         sodipodi:role="line">4</tspan></text>
    <text
       xml:space="preserve"
       style="font-style:normal;font-variant:normal;font-weight:normal;font-stretch:normal;font-size:15px;line-height:125%;font-family:LMRoman12;-inkscape-font-specification:'LMRoman12, Normal';text-align:start;letter-spacing:0px;word-spacing:0px;writing-mode:lr-tb;text-anchor:start;fill:#000000;fill-opacity:1;stroke:none;stroke-width:1px;stroke-linecap:butt;stroke-linejoin:miter;stroke-opacity:1"
       x="70.642586"
       y="777.54071"
       id="text4578"
       sodipodi:linespacing="125%"><tspan
         sodipodi:role="line"
         id="tspan4580"
         x="70.642586"
         y="777.54071">3</tspan></text>
    <text
       sodipodi:linespacing="125%"
       id="text4582"
       y="755.00006"
       x="104.39382"
       style="font-style:normal;font-variant:normal;font-weight:normal;font-stretch:normal;font-size:15px;line-height:125%;font-family:LMRoman12;-inkscape-font-specification:'LMRoman12, Normal';text-align:start;letter-spacing:0px;word-spacing:0px;writing-mode:lr-tb;text-anchor:start;fill:#000000;fill-opacity:1;stroke:none;stroke-width:1px;stroke-linecap:butt;stroke-linejoin:miter;stroke-opacity:1"
       xml:space="preserve"><tspan
         y="755.00006"
         x="104.39382"
         id="tspan4584"
         sodipodi:role="line">5</tspan></text>
    <text
       xml:space="preserve"
       style="font-style:normal;font-variant:normal;font-weight:normal;font-stretch:normal;font-size:15px;line-height:125%;font-family:LMRoman12;-inkscape-font-specification:'LMRoman12, Normal';text-align:start;letter-spacing:0px;word-spacing:0px;writing-mode:lr-tb;text-anchor:start;fill:#000000;fill-opacity:1;stroke:none;stroke-width:1px;stroke-linecap:butt;stroke-linejoin:miter;stroke-opacity:1"
       x="126.6857"
       y="752.6651"
       id="text4586"
       sodipodi:linespacing="125%"><tspan
         sodipodi:role="line"
         id="tspan4588"
         x="126.6857"
         y="752.6651">6</tspan></text>
    <text
       sodipodi:linespacing="125%"
       id="text4590"
       y="756.16754"
       x="147.85318"
       style="font-style:normal;font-variant:normal;font-weight:normal;font-stretch:normal;font-size:15px;line-height:125%;font-family:LMRoman12;-inkscape-font-specification:'LMRoman12, Normal';text-align:start;letter-spacing:0px;word-spacing:0px;writing-mode:lr-tb;text-anchor:start;fill:#000000;fill-opacity:1;stroke:none;stroke-width:1px;stroke-linecap:butt;stroke-linejoin:miter;stroke-opacity:1"
       xml:space="preserve"><tspan
         y="756.16754"
         x="147.85318"
         id="tspan4592"
         sodipodi:role="line">7</tspan></text>
    <text
       xml:space="preserve"
       style="font-style:normal;font-variant:normal;font-weight:normal;font-stretch:normal;font-size:15px;line-height:125%;font-family:LMRoman12;-inkscape-font-specification:'LMRoman12, Normal';text-align:start;letter-spacing:0px;word-spacing:0px;writing-mode:lr-tb;text-anchor:start;fill:#000000;fill-opacity:1;stroke:none;stroke-width:1px;stroke-linecap:butt;stroke-linejoin:miter;stroke-opacity:1"
       x="165.51822"
       y="763.46429"
       id="text4594"
       sodipodi:linespacing="125%"><tspan
         sodipodi:role="line"
         id="tspan4596"
         x="165.51822"
         y="763.46429">8</tspan></text>
    <text
       sodipodi:linespacing="125%"
       id="text4598"
       y="777.18219"
       x="181.43204"
       style="font-style:normal;font-variant:normal;font-weight:normal;font-stretch:normal;font-size:15px;line-height:125%;font-family:LMRoman12;-inkscape-font-specification:'LMRoman12, Normal';text-align:start;letter-spacing:0px;word-spacing:0px;writing-mode:lr-tb;text-anchor:start;fill:#000000;fill-opacity:1;stroke:none;stroke-width:1px;stroke-linecap:butt;stroke-linejoin:miter;stroke-opacity:1"
       xml:space="preserve"><tspan
         y="777.18219"
         x="181.43204"
         id="tspan4600"
         sodipodi:role="line">9</tspan></text>
    <text
       xml:space="preserve"
       style="font-style:normal;font-variant:normal;font-weight:normal;font-stretch:normal;font-size:15px;line-height:125%;font-family:LMRoman12;-inkscape-font-specification:'LMRoman12, Normal';text-align:start;letter-spacing:0px;word-spacing:0px;writing-mode:lr-tb;text-anchor:start;fill:#000000;fill-opacity:1;stroke:none;stroke-width:1px;stroke-linecap:butt;stroke-linejoin:miter;stroke-opacity:1"
       x="191.06377"
       y="794.6944"
       id="text4602"
       sodipodi:linespacing="125%"><tspan
         sodipodi:role="line"
         id="tspan4604"
         x="191.06377"
         y="794.6944">10</tspan></text>
    <text
       sodipodi:linespacing="125%"
       id="text4606"
       y="815.41718"
       x="197.77678"
       style="font-style:normal;font-variant:normal;font-weight:normal;font-stretch:normal;font-size:15px;line-height:125%;font-family:LMRoman12;-inkscape-font-specification:'LMRoman12, Normal';text-align:start;letter-spacing:0px;word-spacing:0px;writing-mode:lr-tb;text-anchor:start;fill:#000000;fill-opacity:1;stroke:none;stroke-width:1px;stroke-linecap:butt;stroke-linejoin:miter;stroke-opacity:1"
       xml:space="preserve"><tspan
         y="815.41718"
         x="197.77678"
         id="tspan4608"
         sodipodi:role="line">11</tspan></text>
    <text
       xml:space="preserve"
       style="font-style:normal;font-variant:normal;font-weight:normal;font-stretch:normal;font-size:15px;line-height:125%;font-family:LMRoman12;-inkscape-font-specification:'LMRoman12, Normal';text-align:start;letter-spacing:0px;word-spacing:0px;writing-mode:lr-tb;text-anchor:start;fill:#000000;fill-opacity:1;stroke:none;stroke-width:1px;stroke-linecap:butt;stroke-linejoin:miter;stroke-opacity:1"
       x="196.02556"
       y="837.89117"
       id="text4610"
       sodipodi:linespacing="125%"><tspan
         sodipodi:role="line"
         id="tspan4612"
         x="196.02556"
         y="837.89117">12</tspan></text>
    <text
       sodipodi:linespacing="125%"
       id="text4614"
       y="859.05865"
       x="191.73369"
       style="font-style:normal;font-variant:normal;font-weight:normal;font-stretch:normal;font-size:15px;line-height:125%;font-family:LMRoman12;-inkscape-font-specification:'LMRoman12, Normal';text-align:start;letter-spacing:0px;word-spacing:0px;writing-mode:lr-tb;text-anchor:start;fill:#000000;fill-opacity:1;stroke:none;stroke-width:1px;stroke-linecap:butt;stroke-linejoin:miter;stroke-opacity:1"
       xml:space="preserve"><tspan
         y="859.05865"
         x="191.73369"
         id="tspan4616"
         sodipodi:role="line">13</tspan></text>
    <text
       xml:space="preserve"
       style="font-style:normal;font-variant:normal;font-weight:normal;font-stretch:normal;font-size:15px;line-height:125%;font-family:LMRoman12;-inkscape-font-specification:'LMRoman12, Normal';text-align:start;letter-spacing:0px;word-spacing:0px;writing-mode:lr-tb;text-anchor:start;fill:#000000;fill-opacity:1;stroke:none;stroke-width:1px;stroke-linecap:butt;stroke-linejoin:miter;stroke-opacity:1"
       x="178.93448"
       y="878.5611"
       id="text4618"
       sodipodi:linespacing="125%"><tspan
         sodipodi:role="line"
         id="tspan4620"
         x="178.93448"
         y="878.5611">14</tspan></text>
    <text
       sodipodi:linespacing="125%"
       id="text4622"
       y="893.55621"
       x="161.13039"
       style="font-style:normal;font-variant:normal;font-weight:normal;font-stretch:normal;font-size:15px;line-height:125%;font-family:LMRoman12;-inkscape-font-specification:'LMRoman12, Normal';text-align:start;letter-spacing:0px;word-spacing:0px;writing-mode:lr-tb;text-anchor:start;fill:#000000;fill-opacity:1;stroke:none;stroke-width:1px;stroke-linecap:butt;stroke-linejoin:miter;stroke-opacity:1"
       xml:space="preserve"><tspan
         y="893.55621"
         x="161.13039"
         id="tspan4624"
         sodipodi:role="line">15</tspan></text>
    <text
       xml:space="preserve"
       style="font-style:normal;font-variant:normal;font-weight:normal;font-stretch:normal;font-size:15px;line-height:125%;font-family:LMRoman12;-inkscape-font-specification:'LMRoman12, Normal';text-align:start;letter-spacing:0px;word-spacing:0px;writing-mode:lr-tb;text-anchor:start;fill:#000000;fill-opacity:1;stroke:none;stroke-width:1px;stroke-linecap:butt;stroke-linejoin:miter;stroke-opacity:1"
       x="139.0873"
       y="900.85297"
       id="text4626"
       sodipodi:linespacing="125%"><tspan
         sodipodi:role="line"
         id="tspan4628"
         x="139.0873"
         y="900.85297">16</tspan></text>
    <text
       sodipodi:linespacing="125%"
       id="text4630"
       y="902.02045"
       x="113.24989"
       style="font-style:normal;font-variant:normal;font-weight:normal;font-stretch:normal;font-size:15px;line-height:125%;font-family:LMRoman12;-inkscape-font-specification:'LMRoman12, Normal';text-align:start;letter-spacing:0px;word-spacing:0px;writing-mode:lr-tb;text-anchor:start;fill:#000000;fill-opacity:1;stroke:none;stroke-width:1px;stroke-linecap:butt;stroke-linejoin:miter;stroke-opacity:1"
       xml:space="preserve"><tspan
         y="902.02045"
         x="113.24989"
         id="tspan4632"
         sodipodi:role="line">17</tspan></text>
    <text
       xml:space="preserve"
       style="font-style:normal;font-variant:normal;font-weight:normal;font-stretch:normal;font-size:15px;line-height:125%;font-family:LMRoman12;-inkscape-font-specification:'LMRoman12, Normal';text-align:start;letter-spacing:0px;word-spacing:0px;writing-mode:lr-tb;text-anchor:start;fill:#000000;fill-opacity:1;stroke:none;stroke-width:1px;stroke-linecap:butt;stroke-linejoin:miter;stroke-opacity:1"
       x="90.623062"
       y="896.76678"
       id="text4634"
       sodipodi:linespacing="125%"><tspan
         sodipodi:role="line"
         id="tspan4636"
         x="90.623062"
         y="896.76678">18</tspan></text>
    <text
       sodipodi:linespacing="125%"
       id="text4638"
       y="884.80011"
       x="71.943352"
       style="font-style:normal;font-variant:normal;font-weight:normal;font-stretch:normal;font-size:15px;line-height:125%;font-family:LMRoman12;-inkscape-font-specification:'LMRoman12, Normal';text-align:start;letter-spacing:0px;word-spacing:0px;writing-mode:lr-tb;text-anchor:start;fill:#000000;fill-opacity:1;stroke:none;stroke-width:1px;stroke-linecap:butt;stroke-linejoin:miter;stroke-opacity:1"
       xml:space="preserve"><tspan
         y="884.80011"
         x="71.943352"
         id="tspan4640"
         sodipodi:role="line">19</tspan></text>
    <text
       xml:space="preserve"
       style="font-style:normal;font-variant:normal;font-weight:normal;font-stretch:normal;font-size:15px;line-height:125%;font-family:LMRoman12;-inkscape-font-specification:'LMRoman12, Normal';text-align:start;letter-spacing:0px;word-spacing:0px;writing-mode:lr-tb;text-anchor:start;fill:#000000;fill-opacity:1;stroke:none;stroke-width:1px;stroke-linecap:butt;stroke-linejoin:miter;stroke-opacity:1"
       x="58.646587"
       y="868.88629"
       id="text4642"
       sodipodi:linespacing="125%"><tspan
         sodipodi:role="line"
         id="tspan4644"
         x="58.646587"
         y="868.88629">20</tspan></text>
    <text
       sodipodi:linespacing="125%"
       id="text4646"
       y="849.7619"
       x="52.517307"
       style="font-style:normal;font-variant:normal;font-weight:normal;font-stretch:normal;font-size:15px;line-height:125%;font-family:LMRoman12;-inkscape-font-specification:'LMRoman12, Normal';text-align:start;letter-spacing:0px;word-spacing:0px;writing-mode:lr-tb;text-anchor:start;fill:#000000;fill-opacity:1;stroke:none;stroke-width:1px;stroke-linecap:butt;stroke-linejoin:miter;stroke-opacity:1"
       xml:space="preserve"><tspan
         y="849.7619"
         x="52.517307"
         id="tspan4648"
         sodipodi:role="line">21</tspan></text>
    <text
       xml:space="preserve"
       style="font-style:normal;font-variant:normal;font-weight:normal;font-stretch:normal;font-size:15px;line-height:125%;font-family:LMRoman12;-inkscape-font-specification:'LMRoman12, Normal';text-align:start;letter-spacing:0px;word-spacing:0px;writing-mode:lr-tb;text-anchor:start;fill:#000000;fill-opacity:1;stroke:none;stroke-width:1px;stroke-linecap:butt;stroke-linejoin:miter;stroke-opacity:1"
       x="48.722992"
       y="830.05377"
       id="text4650"
       sodipodi:linespacing="125%"><tspan
         sodipodi:role="line"
         id="tspan4652"
         x="48.722992"
         y="830.05377">22</tspan></text>
    <path
       inkscape:connector-curvature="0"
       id="path4711"
       d="M 66.838329,765.74545 80.702175,779.6093"
       style="fill:none;fill-opacity:1;stroke:#000000;stroke-width:1;stroke-linecap:round;stroke-linejoin:round;stroke-miterlimit:4;stroke-dasharray:none;stroke-dashoffset:0;stroke-opacity:1" />
    <path
       style="fill:none;fill-opacity:1;stroke:#000000;stroke-width:1;stroke-linecap:round;stroke-linejoin:round;stroke-miterlimit:4;stroke-dasharray:none;stroke-dashoffset:0;stroke-opacity:1"
       d="m 123.46119,740.93646 13.86385,13.86385"
       id="path4713"
       inkscape:connector-curvature="0" />
    <path
       inkscape:connector-curvature="0"
       id="path4715"
       d="m 177.74909,764.86984 13.86385,13.86385"
       style="fill:none;fill-opacity:1;stroke:#000000;stroke-width:1;stroke-linecap:round;stroke-linejoin:round;stroke-miterlimit:4;stroke-dasharray:none;stroke-dashoffset:0;stroke-opacity:1" />
    <path
       style="fill:none;fill-opacity:1;stroke:#000000;stroke-width:1;stroke-linecap:round;stroke-linejoin:round;stroke-miterlimit:4;stroke-dasharray:none;stroke-dashoffset:0;stroke-opacity:1"
       d="m 196.13693,826.16263 13.86385,13.86385"
       id="path4717"
       inkscape:connector-curvature="0" />
    <path
       inkscape:connector-curvature="0"
       id="path4719"
       d="m 162.8637,881.90988 13.86385,13.86385"
       style="fill:none;fill-opacity:1;stroke:#000000;stroke-width:1;stroke-linecap:round;stroke-linejoin:round;stroke-miterlimit:4;stroke-dasharray:none;stroke-dashoffset:0;stroke-opacity:1" />
    <path
       style="fill:none;fill-opacity:1;stroke:#000000;stroke-width:1;stroke-linecap:round;stroke-linejoin:round;stroke-miterlimit:4;stroke-dasharray:none;stroke-dashoffset:0;stroke-opacity:1"
       d="M 92.231055,884.82858 106.0949,898.69243"
       id="path4721"
       inkscape:connector-curvature="0" />
    <path
       inkscape:connector-curvature="0"
       id="path4723"
       d="m 52.536676,838.42118 13.863845,13.86385"
       style="fill:none;fill-opacity:1;stroke:#000000;stroke-width:1;stroke-linecap:round;stroke-linejoin:round;stroke-miterlimit:4;stroke-dasharray:none;stroke-dashoffset:0;stroke-opacity:1" />
    <g
       ns0:preamble="/home/sriranga/Desktop/typsetting-project/general-books/ganitavicharadhare/src/figures/kanlel-package.tex"
       ns0:text="pArxraMBa"
       word-spacing="normal"
       letter-spacing="normal"
       font-size-adjust="none"
       font-stretch="normal"
       font-weight="normal"
       font-variant="normal"
       font-style="normal"
       stroke-miterlimit="10.433"
       xml:space="preserve"
       transform="matrix(1.0698905,0,0,-1.0698905,-170.31771,1565.9875)"
       id="content"
       style="font-style:normal;font-variant:normal;font-weight:normal;font-stretch:normal;letter-spacing:normal;word-spacing:normal;text-anchor:start;fill:none;fill-opacity:1;fill-rule:evenodd;stroke:#000000;stroke-linecap:butt;stroke-linejoin:miter;stroke-miterlimit:10.43299961;stroke-dasharray:none;stroke-dashoffset:0;stroke-opacity:1"
       inkscape:transform-center-x="2.4288947"
       inkscape:transform-center-y="9.605133"><polygon
         id="polygon4249"
         points="223.91,710.71 227.94,710.71 227.94,711.35 223.91,711.35 "
         style="fill:#000000;stroke-width:0" /><path
         id="path4251"
         d="m 226.21,710.45 -0.01,0 -0.01,0 -0.01,0 -0.02,-0.01 -0.01,0 -0.01,0 -0.01,-0.01 -0.01,0 -0.02,-0.01 -0.01,0 -0.01,-0.01 -0.01,0 -0.01,-0.01 -0.01,0 -0.01,-0.01 -0.02,-0.01 c -0.06,-0.03 -0.12,-0.08 -0.15,-0.14 -0.16,-0.22 -0.07,-0.55 0.14,-0.7 0.11,-0.07 0.25,-0.1 0.37,-0.08 0.34,0.04 0.53,0.46 0.37,0.75 -0.11,0.2 -0.33,0.28 -0.54,0.24 z"
         inkscape:connector-curvature="0"
         style="fill:#000000;stroke-width:0" /><path
         id="path4253"
         d="m 226.4,708.73 -0.03,-0.06 -0.04,-0.06 -0.04,-0.06 -0.02,-0.04 -0.02,-0.03 -0.02,-0.03 -0.02,-0.03 -0.02,-0.02 -0.03,-0.03 -0.02,-0.03 -0.02,-0.03 -0.03,-0.03 -0.02,-0.02 c -0.34,-0.33 -0.86,-0.49 -1.33,-0.37 -0.3,0.07 -0.64,0.24 -0.68,0.59 0,0.05 0,0.1 0.01,0.14 0.05,0.32 0.36,0.48 0.66,0.48 0.18,0 0.37,-0.07 0.47,-0.23 0.1,-0.15 -0.05,-0.32 -0.15,-0.43 -0.07,-0.07 -0.13,-0.12 -0.12,-0.22 0.18,0 0.37,0.07 0.49,0.21 0.21,0.24 0.16,0.7 -0.11,0.89 -0.14,0.09 -0.33,0.13 -0.5,0.13 -0.1,0 -0.19,0 -0.29,-0.03 -0.24,-0.05 -0.43,-0.22 -0.52,-0.44 -0.07,-0.17 -0.09,-0.34 -0.09,-0.52 0,-0.4 0.1,-0.82 0.44,-1.07 0.25,-0.18 0.56,-0.23 0.86,-0.22 0.24,0.01 0.5,0.07 0.7,0.2 0.25,0.17 0.4,0.45 0.47,0.73 0.03,-0.08 0.05,-0.16 0.09,-0.23 0.08,-0.18 0.2,-0.34 0.36,-0.46 0.11,-0.08 0.24,-0.14 0.37,-0.18 0.45,-0.14 1.07,-0.05 1.4,0.32 0.22,0.26 0.25,0.6 0.24,0.93 -0.01,0.4 -0.03,0.81 -0.14,1.21 -0.04,0.16 -0.1,0.32 -0.18,0.46 -0.04,0.06 -0.08,0.13 -0.14,0.17 -0.1,0.07 -0.21,0.03 -0.27,-0.06 -0.07,-0.09 -0.08,-0.21 -0.06,-0.31 0.02,-0.07 0.06,-0.12 0.11,-0.18 0.05,-0.07 0.1,-0.13 0.15,-0.2 0.2,-0.28 0.42,-0.66 0.34,-1.02 -0.04,-0.19 -0.18,-0.35 -0.34,-0.46 -0.21,-0.15 -0.47,-0.21 -0.72,-0.23 -0.22,-0.02 -0.43,0 -0.62,0.11 -0.2,0.12 -0.35,0.32 -0.46,0.52 -0.04,0.08 -0.07,0.17 -0.11,0.24 z"
         inkscape:connector-curvature="0"
         style="fill:#000000;stroke-width:0" /><path
         id="path4255"
         d="m 227.21,711.35 0,-0.64 2.55,0 0.51,0 c 0.1,0 0.19,0.01 0.29,0 0.25,-0.03 0.49,-0.1 0.7,-0.22 0.27,-0.16 0.5,-0.38 0.65,-0.64 0.13,-0.25 0.18,-0.53 0.18,-0.81 0,-0.45 -0.14,-0.9 -0.55,-1.14 -0.21,-0.12 -0.44,-0.17 -0.68,-0.19 -0.29,-0.02 -0.59,0 -0.84,0.16 -0.11,0.06 -0.2,0.15 -0.26,0.26 -0.11,0.27 -0.02,0.63 0.25,0.77 -0.02,-0.11 -0.04,-0.22 -0.02,-0.32 0.02,-0.16 0.15,-0.3 0.3,-0.34 0.08,-0.03 0.16,-0.02 0.24,-0.01 0.09,0.02 0.18,0.05 0.25,0.11 0.18,0.18 0.16,0.55 -0.01,0.73 -0.06,0.07 -0.16,0.12 -0.26,0.13 -0.09,0.02 -0.18,0.01 -0.27,0 -0.08,-0.01 -0.16,-0.03 -0.24,-0.06 -0.4,-0.19 -0.54,-0.69 -0.46,-1.1 0.11,-0.5 0.53,-0.85 1.04,-0.88 0.17,-0.01 0.34,0 0.51,0.03 0.14,0.03 0.27,0.08 0.4,0.14 0.09,0.05 0.17,0.11 0.24,0.17 0.46,0.4 0.55,1.04 0.55,1.61 0,0.22 -0.01,0.43 -0.06,0.64 -0.04,0.2 -0.09,0.39 -0.18,0.56 -0.1,0.21 -0.24,0.4 -0.41,0.56 -0.27,0.26 -0.64,0.42 -1.01,0.47 -0.26,0.03 -0.52,0.01 -0.78,0.01 z"
         inkscape:connector-curvature="0"
         style="fill:#000000;stroke-width:0" /><path
         id="path4257"
         d="m 228.45,705.57 0.01,-0.03 0.01,-0.01 0.01,-0.02 0.01,-0.02 0.01,-0.02 0.01,-0.02 0.01,-0.02 0.01,-0.02 0.02,-0.03 0.03,-0.04 0.01,-0.02 0.01,-0.02 0.01,-0.01 0.02,-0.02 c 0.18,-0.28 0.4,-0.54 0.69,-0.72 0.25,-0.16 0.55,-0.25 0.85,-0.31 0.49,-0.09 1,-0.1 1.48,0.05 0.26,0.09 0.49,0.22 0.71,0.39 0.19,0.13 0.36,0.3 0.48,0.49 0.17,0.27 0.26,0.56 0.28,0.88 0.03,0.19 0.03,0.38 -0.03,0.56 -0.05,0.19 -0.17,0.35 -0.34,0.44 -0.05,0.04 -0.1,0.07 -0.16,0.09 -0.06,0 -0.13,0 -0.18,-0.05 -0.06,-0.04 -0.09,-0.13 -0.05,-0.2 0.04,-0.08 0.14,-0.12 0.21,-0.18 0.1,-0.08 0.18,-0.19 0.26,-0.3 0.03,-0.05 0.08,-0.12 0.09,-0.18 0.02,-0.05 0,-0.12 -0.01,-0.17 -0.02,-0.14 -0.08,-0.27 -0.16,-0.39 -0.28,-0.41 -0.78,-0.67 -1.25,-0.83 -0.41,-0.14 -0.84,-0.17 -1.27,-0.13 -0.3,0.03 -0.6,0.08 -0.86,0.22 -0.16,0.09 -0.32,0.18 -0.45,0.31 -0.07,0.07 -0.13,0.14 -0.18,0.21 -0.03,0.04 -0.06,0.09 -0.1,0.1 -0.06,0.03 -0.13,0.02 -0.19,0.02 z"
         inkscape:connector-curvature="0"
         style="fill:#000000;stroke-width:0" /><path
         id="path4259"
         d="m 234.2,711.35 0,-0.64 1.11,0 0,-0.01 0.22,-0.1 c 0.64,0.27 1.38,0.09 1.86,-0.39 0.21,-0.19 0.36,-0.46 0.39,-0.75 0.04,-0.42 -0.15,-0.8 -0.44,-1.08 -0.3,-0.3 -0.66,-0.5 -1.09,-0.52 -0.6,-0.03 -1.25,0.3 -1.53,0.83 -0.09,0.17 -0.13,0.35 -0.15,0.54 l 0,0 c -0.03,0.38 0.14,0.73 0.4,0.98 0.16,0.16 0.35,0.3 0.56,0.39 l -0.22,0.1 c -0.08,-0.03 -0.14,-0.08 -0.21,-0.12 -0.13,-0.09 -0.26,-0.19 -0.37,-0.3 -0.16,-0.16 -0.29,-0.34 -0.38,-0.54 -0.07,-0.14 -0.11,-0.29 -0.13,-0.44 -0.11,-0.75 0.29,-1.49 0.93,-1.87 0.34,-0.21 0.76,-0.31 1.16,-0.27 0.68,0.04 1.34,0.41 1.66,1.05 0.24,0.47 0.27,1.08 0.05,1.57 -0.16,0.34 -0.45,0.64 -0.79,0.83 -0.14,0.08 -0.31,0.17 -0.47,0.2 l 0,0.54 z"
         inkscape:connector-curvature="0"
         style="fill:#000000;stroke-width:0" /><path
         id="path4261"
         d="m 237.65,712.98 0.03,-0.03 0.03,-0.03 0.03,-0.03 0.02,-0.02 0.01,-0.01 0.01,-0.02 0.02,-0.02 0.01,-0.01 0.01,-0.02 0.02,-0.01 0.01,-0.02 0.01,-0.02 0.01,-0.01 c 0.18,-0.24 0.33,-0.63 0.19,-0.92 -0.06,-0.1 -0.14,-0.17 -0.23,-0.26 -0.08,-0.06 -0.16,-0.13 -0.26,-0.16 -0.12,-0.05 -0.25,-0.04 -0.37,-0.04 l -0.55,0 0,-0.64 0.47,0 c 0.14,0 0.28,0 0.42,0.02 0.25,0.05 0.49,0.17 0.67,0.35 0.23,0.24 0.37,0.58 0.32,0.92 -0.02,0.17 -0.09,0.34 -0.18,0.49 -0.08,0.14 -0.2,0.29 -0.34,0.38 -0.1,0.06 -0.24,0.09 -0.36,0.11 z"
         inkscape:connector-curvature="0"
         style="fill:#000000;stroke-width:0" /><path
         id="path4263"
         d="m 240.74,711.06 -0.03,0 -0.03,-0.01 -0.03,0 -0.03,-0.01 -0.03,-0.01 -0.03,0 -0.03,-0.01 -0.03,-0.01 -0.03,-0.01 -0.03,0 -0.03,-0.01 -0.03,-0.01 -0.04,-0.01 -0.03,-0.02 -0.03,-0.01 -0.02,-0.01 c -0.34,-0.16 -0.58,-0.46 -0.73,-0.79 -0.12,-0.27 -0.17,-0.56 -0.19,-0.86 l 0.2,0.12 c 0.07,0.34 0.32,0.59 0.61,0.76 0.69,0.37 1.74,0.19 2.11,-0.55 0.05,-0.11 0.08,-0.23 0.1,-0.35 0.01,-0.15 0,-0.3 -0.03,-0.44 -0.04,-0.14 -0.1,-0.27 -0.19,-0.39 -0.31,-0.45 -0.85,-0.63 -1.38,-0.58 -0.24,0.02 -0.47,0.09 -0.67,0.22 -0.17,0.11 -0.31,0.27 -0.41,0.44 -0.09,0.16 -0.15,0.34 -0.17,0.53 l 0,0 c -0.01,0.12 0,0.24 0.03,0.36 l -0.2,-0.12 c -0.03,-0.4 0.02,-0.78 0.18,-1.15 0.15,-0.33 0.38,-0.64 0.69,-0.82 0.25,-0.15 0.56,-0.2 0.85,-0.17 0.16,0.02 0.31,0.04 0.46,0.1 0.12,0.06 0.23,0.12 0.33,0.2 0.67,0.54 0.82,1.48 0.64,2.28 -0.12,0.51 -0.4,0.98 -0.9,1.21 -0.1,0.05 -0.2,0.08 -0.31,0.1 -0.17,0.04 -0.36,0.04 -0.54,0.03 z"
         inkscape:connector-curvature="0"
         style="fill:#000000;stroke-width:0" /><path
         id="path4265"
         d="m 244.18,709.82 0.03,0.09 c -0.1,0.06 -0.17,0.14 -0.23,0.24 -0.05,0.05 -0.08,0.1 -0.08,0.16 -0.08,0.26 0.11,0.48 0.35,0.55 0.28,0.07 0.58,-0.02 0.68,-0.31 0.13,-0.34 -0.07,-0.66 -0.29,-0.91 -0.14,-0.17 -0.32,-0.3 -0.47,-0.46 -0.24,-0.25 -0.41,-0.56 -0.4,-0.91 0.02,-0.26 0.08,-0.54 0.24,-0.75 0.32,-0.41 0.98,-0.45 1.44,-0.26 0.39,0.17 0.66,0.55 0.78,0.95 0.04,-0.09 0.06,-0.18 0.1,-0.27 0.08,-0.21 0.19,-0.4 0.36,-0.55 0.17,-0.14 0.4,-0.21 0.61,-0.23 0.41,-0.04 0.84,0.04 1.11,0.38 0.2,0.25 0.26,0.59 0.3,0.9 0.02,0.17 0.03,0.35 0.03,0.53 0,0.09 0.01,0.17 0,0.26 -0.09,0.49 -0.39,0.93 -0.77,1.24 -0.16,0.13 -0.37,0.27 -0.57,0.32 l 0,0.01 0.19,0 0,0.55 -1.41,0 0,-0.64 0.56,0 c 0.12,0 0.24,0.01 0.36,0 0.12,-0.02 0.24,-0.06 0.35,-0.12 0.26,-0.13 0.48,-0.33 0.66,-0.56 0.12,-0.16 0.22,-0.34 0.29,-0.54 0.11,-0.36 0.09,-0.79 -0.08,-1.12 -0.07,-0.14 -0.17,-0.27 -0.3,-0.36 -0.3,-0.22 -0.75,-0.2 -1.06,-0.03 -0.13,0.07 -0.25,0.17 -0.34,0.29 -0.16,0.19 -0.29,0.42 -0.38,0.65 -0.08,-0.11 -0.12,-0.24 -0.19,-0.34 -0.15,-0.25 -0.35,-0.47 -0.6,-0.61 -0.37,-0.2 -0.85,-0.14 -1.14,0.18 -0.06,0.07 -0.1,0.15 -0.13,0.24 -0.03,0.08 -0.04,0.16 -0.04,0.23 0,0.21 0.1,0.41 0.24,0.57 0.09,0.09 0.18,0.17 0.27,0.25 0.18,0.17 0.36,0.35 0.5,0.56 0.08,0.11 0.15,0.24 0.17,0.38 0.02,0.11 0.01,0.23 -0.01,0.34 -0.03,0.13 -0.08,0.25 -0.15,0.36 -0.08,0.14 -0.19,0.25 -0.33,0.33 -0.1,0.06 -0.21,0.11 -0.32,0.12 -0.39,0.06 -0.78,-0.17 -0.93,-0.53 -0.09,-0.21 -0.09,-0.46 -0.01,-0.67 0.03,-0.11 0.09,-0.21 0.17,-0.28 0.11,-0.12 0.28,-0.18 0.44,-0.23 z"
         inkscape:connector-curvature="0"
         style="fill:#000000;stroke-width:0" /><path
         id="path4267"
         d="m 245.99,707.44 0,0 -0.01,0 0,0 0,-0.01 0,0 -0.01,0 0,0 0,-0.01 0,0 0,0 -0.01,-0.01 0,0 0,0 0,-0.01 0,0 0,0 -0.01,-0.01 0,-0.01 0,-0.01 0,-0.01 -0.01,0 0,-0.01 0,-0.01 0,-0.01 c -0.03,-0.09 -0.06,-0.18 -0.09,-0.28 -0.06,-0.2 -0.13,-0.4 -0.19,-0.61 -0.06,-0.19 -0.11,-0.38 -0.06,-0.57 0.07,-0.3 0.48,-0.39 0.72,-0.21 0.17,0.13 0.17,0.31 0.14,0.51 -0.05,0.3 -0.15,0.58 -0.25,0.86 -0.04,0.12 -0.07,0.24 -0.12,0.36 -0.01,0.04 -0.05,0.09 -0.1,0.05 z"
         inkscape:connector-curvature="0"
         style="fill:#000000;stroke-width:0" /><path
         id="path4269"
         d="m 248.12,712.98 0.03,-0.03 0.03,-0.03 0.03,-0.03 0.02,-0.02 0.01,-0.01 0.01,-0.02 0.02,-0.02 0.01,-0.01 0.01,-0.02 0.02,-0.01 0.01,-0.02 0.01,-0.02 0.01,-0.01 c 0.18,-0.24 0.33,-0.63 0.19,-0.92 -0.06,-0.1 -0.14,-0.17 -0.23,-0.26 -0.08,-0.06 -0.16,-0.13 -0.26,-0.16 -0.12,-0.05 -0.25,-0.04 -0.37,-0.04 l -0.55,0 0,-0.64 0.48,0 c 0.13,0 0.27,0 0.41,0.02 0.25,0.05 0.49,0.17 0.67,0.35 0.23,0.24 0.37,0.58 0.32,0.92 -0.02,0.17 -0.09,0.34 -0.18,0.49 -0.08,0.14 -0.2,0.29 -0.34,0.38 -0.1,0.06 -0.24,0.09 -0.36,0.11 z"
         inkscape:connector-curvature="0"
         style="fill:#000000;stroke-width:0" /></g>  </g>
</svg>
